<svg xmlns="http://www.w3.org/2000/svg" width="32" height="32" viewBox="0 0 32 32"><g fill="#000" fill-rule="nonzero"><path fill-opacity=".25" d="M5 7h22v18H5z"/><path d="M27.143 6H4.857A.845.845 0 0 0 4 6.833v18.334c0 .46.384.833.857.833h22.286a.845.845 0 0 0 .857-.833V6.833A.845.845 0 0 0 27.143 6ZM26 8v16H6V8h20Z"/><path d="M5 11h22v2H5z"/><path fill-opacity=".25" d="M16 14.432c4.366 0 8.187 2.266 10.287 5.655l-.001 4.246h-.16a9.76 9.76 0 0 0-1.217-3.235h-2.077c.393 1 .656 2.08.786 3.235h-1.726c-.15-1.177-.455-2.255-.918-3.235h-4.118v3.235h-1.714v-3.235h-4.116c-.463.98-.769 2.058-.918 3.235H8.382c.13-1.155.393-2.235.786-3.236H7.091a9.76 9.76 0 0 0-1.217 3.236h-.16l-.002-4.244c2.1-3.39 5.921-5.657 10.288-5.657Zm-3.864 2.396-.14.056a10.31 10.31 0 0 0-3.663 2.548h1.653a11.456 11.456 0 0 1 2.15-2.604Zm4.721-.143v2.747h3.11c-.8-1.057-1.835-1.971-3.11-2.747Zm3.006.143.201.186a11.394 11.394 0 0 1 1.95 2.418h1.653a10.312 10.312 0 0 0-3.804-2.604Zm-4.721-.142c-1.275.775-2.31 1.69-3.108 2.746h3.108Z"/><circle cx="7.5" cy="9.5" r="1" fill-opacity=".25"/><circle cx="9.75" cy="9.5" r="1" fill-opacity=".25"/><circle cx="12" cy="9.5" r="1" fill-opacity=".25"/></g></svg>