<svg xmlns="http://www.w3.org/2000/svg" width="32" height="32" viewBox="0 0 32 32"><g fill="#000" fill-rule="evenodd" transform="scale(1 -1) rotate(22 87.345 9.324)"><circle cx="4.796" cy="5.23" r="2.214"/><path fill-opacity=".25" fill-rule="nonzero" d="m6.796 6.167 5.718 5.735-1.045 1.042-5.713-5.73c.081-.143.234-.328.457-.553.224-.225.418-.39.583-.494Z"/><path fill-opacity=".25" fill-rule="nonzero" d="m6.796 6.167 5.718 5.735-1.045 1.042-5.713-5.73c.081-.143.234-.328.457-.553.224-.225.418-.39.583-.494Z"/><circle cx="18.817" cy="15.928" r="2.029"/><path fill-opacity=".25" fill-rule="nonzero" d="m12.34 11.772 5.362 2.92c.048.137.003.331-.136.583-.14.252-.279.396-.418.435l-5.506-2.637.698-1.3Z"/><path fill-opacity=".25" fill-rule="nonzero" d="m12.34 11.772 5.362 2.92c.048.137.003.331-.136.583-.14.252-.279.396-.418.435l-5.506-2.637.698-1.3Z"/><circle cx="11.807" cy="12.423" r="4.059"/><path fill-opacity=".25" fill-rule="nonzero" d="m12.049 16.461-.8 6.227-1.46-.211.793-6.19c.208-.042.462-.042.762 0 .3.043.535.101.705.174Z"/><path fill-opacity=".25" fill-rule="nonzero" d="m12.049 16.461-.8 6.227-1.46-.211.793-6.19c.208-.042.462-.042.762 0 .3.043.535.101.705.174ZM8.675 13.04c.237.13.414.338.529.623.115.285.138.527.068.726L3.21 17.477l-.874-2.034 6.339-2.404Z"/><path fill-opacity=".25" fill-rule="nonzero" d="M8.675 13.04c.237.13.414.338.529.623.115.285.138.527.068.726L3.21 17.477l-.874-2.034 6.339-2.404Z"/><circle cx="10.515" cy="22.569" r="2.398"/><circle cx="2.767" cy="16.481" r="2.767"/><path fill-opacity=".25" fill-rule="nonzero" d="m18.779 2.823 1.607 1.157-6.073 6.617a.914.914 0 0 1-.666-.236 1.573 1.573 0 0 1-.461-.716l5.593-6.822Z"/><path fill-opacity=".25" fill-rule="nonzero" d="m18.779 2.823 1.607 1.157-6.073 6.617a.914.914 0 0 1-.666-.236 1.573 1.573 0 0 1-.461-.716l5.593-6.822Z"/><circle cx="19.7" cy="3.136" r="3.136"/></g></svg>