<svg xmlns="http://www.w3.org/2000/svg" width="32" height="32" viewBox="0 0 32 32"><g fill="none"><g fill="#000" fill-rule="nonzero"><path d="M7.815 15.409c.22.066.414.193.58.381.166.188.279.384.34.588.06.205.05.398-.033.58-.083.183-.263.296-.539.34-.53.089-1.077.13-1.64.125-.564-.006-1.095-.014-1.592-.025-.343 0-.577-.105-.704-.315a.931.931 0 0 1-.117-.688c.05-.249.186-.475.407-.68.22-.204.502-.306.845-.306V9.376a.766.766 0 0 1-.431-.025 1.103 1.103 0 0 1-.381-.224c-.11-.1-.196-.218-.257-.356a.748.748 0 0 1-.058-.423c.033-.243.157-.492.373-.746.215-.254.467-.464.754-.63.287-.165.583-.265.887-.298a.998.998 0 0 1 .787.232c.088.066.168.16.24.282a.665.665 0 0 1 .108.331c.011 1.326.014 2.644.008 3.953-.005 1.31-.008 2.622-.008 3.937h.43ZM16.362 12.657a5.4 5.4 0 0 0 .083-1.176 4.52 4.52 0 0 0-.224-1.31 2.687 2.687 0 0 0-.63-1.06c-.282-.288-.666-.431-1.152-.431-.53 0-.956.17-1.276.513-.32.343-.56.76-.721 1.252-.16.491-.257 1-.29 1.525-.033.524-.022.97.033 1.334.033.243.091.497.174.762.083.265.19.509.323.73.133.22.301.397.506.53.204.133.45.193.737.182.398-.022.732-.113 1.003-.273.27-.16.5-.365.688-.613.188-.25.34-.536.456-.862.116-.326.207-.666.273-1.02l.017-.083Zm1.906.332a7.394 7.394 0 0 1-.829 2.312 4.84 4.84 0 0 1-1.707 1.782 3.812 3.812 0 0 1-1.16.348c-.409.055-.812.05-1.21-.017a3.328 3.328 0 0 1-1.127-.406 2.995 2.995 0 0 1-.912-.82c-.552-.752-.909-1.53-1.069-2.337a7.18 7.18 0 0 1-.025-2.553c.1-.63.274-1.254.522-1.873.249-.618.6-1.16 1.053-1.624a3.81 3.81 0 0 1 1.21-.853 3.442 3.442 0 0 1 2.71-.058c.447.176.859.441 1.235.795.375.354.67.743.886 1.169.216.425.368.864.456 1.317.089.453.127.92.116 1.4a8.62 8.62 0 0 1-.149 1.418ZM25.793 12.657a5.4 5.4 0 0 0 .083-1.176 4.52 4.52 0 0 0-.224-1.31 2.687 2.687 0 0 0-.63-1.06c-.282-.288-.666-.431-1.152-.431-.53 0-.956.17-1.276.513-.32.343-.56.76-.721 1.252-.16.491-.257 1-.29 1.525-.033.524-.022.97.033 1.334.033.243.091.497.174.762.083.265.19.509.323.73.133.22.301.397.506.53.204.133.45.193.737.182.398-.022.732-.113 1.003-.273.27-.16.5-.365.688-.613.188-.25.34-.536.456-.862.116-.326.207-.666.273-1.02l.017-.083Zm1.906.332a7.394 7.394 0 0 1-.829 2.312 4.84 4.84 0 0 1-1.707 1.782 3.812 3.812 0 0 1-1.16.348c-.41.055-.812.05-1.21-.017a3.328 3.328 0 0 1-1.127-.406 2.995 2.995 0 0 1-.912-.82c-.552-.752-.909-1.53-1.069-2.337a7.18 7.18 0 0 1-.025-2.553c.1-.63.274-1.254.522-1.873.249-.618.6-1.16 1.053-1.624a3.81 3.81 0 0 1 1.21-.853 3.442 3.442 0 0 1 2.71-.058c.447.176.859.441 1.235.795.375.354.67.743.886 1.169.216.425.368.864.456 1.317.088.453.127.92.116 1.4a8.62 8.62 0 0 1-.15 1.418Z"/></g><path stroke="#000" stroke-linecap="round" stroke-width="2" d="M5 22c6-2 13.333-2.333 22-1M8 24.5c4.667-1.667 11-1.833 19-.5"/></g></svg>