<svg xmlns="http://www.w3.org/2000/svg" width="32" height="32" viewBox="0 0 32 32"><g fill="#000" fill-rule="evenodd"><path d="M16 4c.583 0 1.143.1 1.664.283-.265.13-.52.276-.764.436a4.375 4.375 0 0 0-5.133 5.387 6.886 6.886 0 0 1 4.913-5.238c-.351.248-.68.526-.983.829A7.477 7.477 0 0 0 13.5 11c0 .9.159 1.763.45 2.563A5.004 5.004 0 0 1 11 9a5 5 0 0 1 5-5Z"/><path fill-opacity=".25" fill-rule="nonzero" d="M16 4c.583 0 1.143.1 1.664.283a7.463 7.463 0 0 0-1.967 1.414A7.477 7.477 0 0 0 13.5 11c0 .9.159 1.763.45 2.563A5.004 5.004 0 0 1 11 9a5 5 0 0 1 5-5Z"/><path fill-opacity=".25" fill-rule="nonzero" d="M4.715 20.971 6.667 19.8 14 13.2 11.8 11l-6.6 7.333-1.171 1.952a.5.5 0 0 0 .686.686Z"/><path fill-opacity=".25" fill-rule="nonzero" d="M4.715 20.971 6.667 19.8 14 13.2 11.8 11l-6.6 7.333-1.171 1.952a.5.5 0 0 0 .686.686Z"/><path d="M27.717 14.337a5 5 0 0 1-9.279 3.713c.799.291 1.662.45 2.562.45 2.071 0 3.946-.84 5.303-2.197a7.523 7.523 0 0 0 1.36-1.856Z"/><path fill-opacity=".25" fill-rule="nonzero" d="M27.717 14.337a5 5 0 0 1-9.279 3.713c.799.291 1.662.45 2.562.45 2.071 0 3.946-.84 5.303-2.197a7.523 7.523 0 0 0 1.36-1.856Z"/><path fill-opacity=".25" fill-rule="nonzero" d="m11.715 27.971 1.952-1.171L21 20.2 18.8 18l-6.6 7.333-1.171 1.952a.5.5 0 0 0 .686.686Z"/><path fill-opacity=".25" fill-rule="nonzero" d="m11.715 27.971 1.952-1.171L21 20.2 18.8 18l-6.6 7.333-1.171 1.952a.5.5 0 0 0 .686.686Z"/><g transform="translate(14 4)"><path d="M7 0a7 7 0 1 1 0 14A7 7 0 0 1 7 0Zm0 .875a6.125 6.125 0 0 0-5.927 7.673A9.638 9.638 0 0 1 8.55 1.072 6.135 6.135 0 0 0 7 .875Z"/><circle cx="7" cy="7" r="7" fill-opacity=".25" fill-rule="nonzero"/></g><path fill-opacity=".25" fill-rule="nonzero" d="M4.715 27.971 8 26l10-9-3-3-9 10-1.971 3.285a.5.5 0 0 0 .686.686Z"/><path fill-opacity=".25" fill-rule="nonzero" d="M4.715 27.971 8 26l10-9-3-3-9 10-1.971 3.285a.5.5 0 0 0 .686.686Z"/></g></svg>