<svg xmlns="http://www.w3.org/2000/svg" width="32" height="32" viewBox="0 0 32 32"><path fill="#000" fill-opacity=".25" fill-rule="evenodd" stroke="#000" stroke-linejoin="round" stroke-width="2" d="m15.41 22.75-5.134 3.748a1 1 0 0 1-1.54-1.119l1.977-6.041a1 1 0 0 0-.364-1.122l-5.151-3.725a1 1 0 0 1 .588-1.81l6.357.013a1 1 0 0 0 .954-.693l1.951-6.05a1 1 0 0 1 1.904 0l1.951 6.05a1 1 0 0 0 .954.693l6.357-.013a1 1 0 0 1 .588 1.81l-5.151 3.725a1 1 0 0 0-.364 1.122l1.977 6.041a1 1 0 0 1-1.54 1.12L16.59 22.75a1 1 0 0 0-1.18 0Z"/></svg>