<svg xmlns="http://www.w3.org/2000/svg" width="32" height="32" viewBox="0 0 32 32"><g fill="none" fill-rule="evenodd"><path fill="#000" fill-opacity=".25" stroke="#000" stroke-linecap="round" stroke-linejoin="round" stroke-width="2" d="M25.156 24.098A10.949 10.949 0 0 0 27 18c0-6.075-4.925-11-11-11S5 11.925 5 18c0 2.24.67 4.325 1.82 6.063"/><path fill="#000" d="M7 23h18v2H7z"/><rect width="2" height="3" x="15" y="7" fill="#000" rx="1"/><rect width="2" height="3" x="19.75" y="8.273" fill="#000" rx="1" transform="rotate(30 20.75 9.773)"/><rect width="2" height="3" x="23.227" y="11.75" fill="#000" rx="1" transform="rotate(60 24.227 13.25)"/><rect width="2" height="3" x="24.5" y="16.5" fill="#000" rx="1" transform="rotate(90 25.5 18)"/><rect width="2" height="3" x="23.227" y="21.25" fill="#000" rx="1" transform="rotate(120 24.227 22.75)"/><rect width="2" height="3" x="6.773" y="21.25" fill="#000" rx="1" transform="rotate(-120 7.773 22.75)"/><rect width="2" height="3" x="5.5" y="16.5" fill="#000" rx="1" transform="rotate(-90 6.5 18)"/><rect width="2" height="3" x="6.773" y="11.75" fill="#000" rx="1" transform="rotate(-60 7.773 13.25)"/><rect width="2" height="3" x="10.25" y="8.273" fill="#000" rx="1" transform="rotate(-30 11.25 9.773)"/><path stroke="#000" stroke-linecap="round" stroke-width="2" d="m16 18 5-5"/></g></svg>