<svg xmlns="http://www.w3.org/2000/svg" width="32" height="32" version="1.0" viewBox="0 -1 32 34"><g fill="currentColor"><path fill-opacity=".33" d="M16.727.04c-.57.097-1.125.405-1.754.972-.516.465-.996 1.004-2.094 2.363C11.234 5.398 10.695 6 9.348 7.289c-.887.852-1.188 1.149-1.711 1.7-2.946 3.073-5.2 6.312-6.664 9.59-.336.741-.66 1.612-.868 2.304-.113.39-.117.398-.085.59.18 1.136 1.886 2.62 4.527 3.933 2.566 1.278 5.57 2.121 8.316 2.344.762.063 2.278.055 3.239-.016l.195-.011.148.257c.176.305.543.825.793 1.122.282.328 1.086 1.058 1.434 1.304a8.673 8.673 0 0 0 4.015 1.535c.434.055 1.532.063 1.942.012a9.898 9.898 0 0 0 1.594-.316c1.359-.422 2.367-1 3.343-1.91 1.086-1.016 1.778-2.133 2.172-3.516.184-.652.254-1.188.254-1.95 0-.648-.027-.91-.148-1.488-.438-2.074-1.785-3.902-3.723-5.046a8.915 8.915 0 0 0-2.766-1.028 9.312 9.312 0 0 0-2.925-.058c-1.215.175-2.465.64-3.426 1.277-.203.133-.246.133-.637.02-2.988-.864-6.613-.446-8.715 1.015-.234.16-.257.172-.39.172-.075 0-.14-.004-.14-.012 0-.004.077-.187.171-.406.469-1.078.762-1.988 1.492-4.617.457-1.66.645-2.274.953-3.14.578-1.614 1.305-2.864 2.125-3.653.395-.379.77-.469 2.422-.559 1.07-.062 1.328-.097 1.672-.226.344-.14.848-.223 2.004-.348.465-.05.96-.11 1.098-.129.668-.101 1.066-.246 1.27-.457.148-.156.194-.293.171-.531a.795.795 0 0 0-.277-.55c-.157-.15-.344-.243-.746-.372-.356-.113-.446-.156-.446-.219 0-.02.137-.168.305-.328.5-.484.691-.797.71-1.18.013-.261-.03-.43-.175-.636-.46-.66-1.68-1.188-3.668-1.598C17.36-.008 17.11-.03 16.727.04zm0 0"/><path fill="none" stroke="currentColor" stroke-width="2" d="M16.727.04c-.57.097-1.125.405-1.754.972-.516.465-.996 1.004-2.094 2.363C11.234 5.398 10.695 6 9.348 7.289c-.887.852-1.188 1.149-1.711 1.7-2.946 3.073-5.2 6.312-6.664 9.59-.336.741-.66 1.612-.868 2.304-.113.39-.117.398-.085.59.18 1.136 1.886 2.62 4.527 3.933 2.566 1.278 5.57 2.121 8.316 2.344.762.063 2.278.055 3.239-.016l.195-.011.148.257c.176.305.543.825.793 1.122.282.328 1.086 1.058 1.434 1.304a8.673 8.673 0 0 0 4.015 1.535c.434.055 1.532.063 1.942.012a9.898 9.898 0 0 0 1.594-.316c1.359-.422 2.367-1 3.343-1.91 1.086-1.016 1.778-2.133 2.172-3.516.184-.652.254-1.188.254-1.95 0-.648-.027-.91-.148-1.488-.438-2.074-1.785-3.902-3.723-5.046a8.915 8.915 0 0 0-2.766-1.028 9.312 9.312 0 0 0-2.925-.058c-1.215.175-2.465.64-3.426 1.277-.203.133-.246.133-.637.02-2.988-.864-6.613-.446-8.715 1.015-.234.16-.257.172-.39.172-.075 0-.14-.004-.14-.012 0-.004.077-.187.171-.406.469-1.078.762-1.988 1.492-4.617.457-1.66.645-2.274.953-3.14.578-1.614 1.305-2.864 2.125-3.653.395-.379.77-.469 2.422-.559 1.07-.062 1.328-.097 1.672-.226.344-.14.848-.223 2.004-.348.465-.05.96-.11 1.098-.129.668-.101 1.066-.246 1.27-.457.148-.156.194-.293.171-.531a.795.795 0 0 0-.277-.55c-.157-.15-.344-.243-.746-.372-.356-.113-.446-.156-.446-.219 0-.02.137-.168.305-.328.5-.484.691-.797.71-1.18.013-.261-.03-.43-.175-.636-.46-.66-1.68-1.188-3.668-1.598C17.36-.008 17.11-.03 16.727.04zm0 0"/></g></svg>