<svg xmlns="http://www.w3.org/2000/svg" width="32" height="32" viewBox="0 0 32 32"><g fill="#000" fill-rule="evenodd"><path fill-opacity=".25" stroke="#000" stroke-linejoin="round" stroke-width="2" d="M5 5h22v22H5z"/><rect width="5" height="2" x="7" y="7" rx="1"/><rect width="5" height="2" x="20" y="7" rx="1"/><rect width="5" height="2" x="13.5" y="7" rx="1"/><rect width="5" height="2" x="7" y="10" rx="1"/><rect width="5" height="2" x="20" y="10" rx="1"/><rect width="5" height="2" x="13.5" y="10" rx="1"/><rect width="5" height="2" x="7" y="13" rx="1"/><rect width="5" height="2" x="20" y="13" rx="1"/><rect width="5" height="2" x="13.5" y="13" rx="1"/><rect width="5" height="2" x="7" y="16" rx="1"/><rect width="5" height="2" x="20" y="16" rx="1"/><rect width="5" height="2" x="7" y="19" rx="1"/><rect width="5" height="2" x="7" y="22" rx="1"/></g></svg>