<svg xmlns="http://www.w3.org/2000/svg" width="32" height="32" viewBox="0 0 32 32"><g fill="#000" fill-rule="evenodd"><path fill-opacity=".25" fill-rule="nonzero" d="m8 10-3 8 11 5 11-5-3-8z"/><path d="M24.03 10a1 1 0 0 1 .921.61l2.985 7.039A.99.99 0 0 1 28 18v5a1 1 0 0 1-1 1H5a1 1 0 0 1-1-1v-5c0-.124.022-.242.064-.352l2.985-7.038a1 1 0 0 1 .92-.61h16.062Zm-1.38 2H9.35a1 1 0 0 0-.918.602L6.522 17h2.064a1 1 0 0 1 .608.206l.099.087 2.414 2.414a1 1 0 0 0 .707.293h7.172a1 1 0 0 0 .707-.293l2.414-2.414a1 1 0 0 1 .707-.293h2.063l-1.91-4.398A1 1 0 0 0 22.65 12Z"/><path d="M14 5v8h-1.586a1 1 0 0 0-.707 1.707l3.586 3.586a1 1 0 0 0 1.414 0l3.586-3.586A1 1 0 0 0 19.586 13H18V5a1 1 0 0 0-1-1h-2a1 1 0 0 0-1 1Z"/></g></svg>