<svg xmlns="http://www.w3.org/2000/svg" width="32" height="32" viewBox="0 0 32 32"><g fill="#000" fill-rule="evenodd"><g fill-opacity=".25" stroke="#000" stroke-width="2" transform="translate(11 7)"><circle cx="8" cy="6" r="5"/><path stroke-linejoin="round" d="M0 19c2.667.667 5.333 1 8 1s5.333-.333 8-1c-.485-5.333-3.152-8-8-8s-7.515 2.667-8 8Z"/></g><g fill-rule="nonzero"><path fill-opacity=".25" d="M13 5c-3 0-5 2-5 5 0 2 1 3.667 3 5-4 2-6 4.667-6 8 1.333.667 3.333 1 6 1 2-4 4-6 6-6a6.54 6.54 0 0 1-3-3c0-2 .333-3.667 1-5 .667-1.333 1.667-2 3-2-1.333-2-3-3-5-3Z"/><path d="M13 4a6.003 6.003 0 0 1 5.664 4.014 4.482 4.482 0 0 0-1.913.596 4 4 0 1 0-2.63 5.23c.2.74.657 1.564 1.368 2.474a8.768 8.768 0 0 0-2.217-.31L13 16c-4.035 0-6.268 1.975-6.898 6.196l-.005.034.557.12c1.511.31 3.022.509 4.532.597-.124.35-.186.701-.186 1.053 0 .35.112.668.336.957a34.06 34.06 0 0 1-6.579-.987 1 1 0 0 1-.753-1.06c.39-4.283 2.154-7.081 5.199-8.265A6 6 0 0 1 13 4Z"/></g></g></svg>