<svg xmlns="http://www.w3.org/2000/svg" width="32" height="32" viewBox="0 0 32 32"><g fill="#000" fill-rule="evenodd"><path fill-opacity=".25" fill-rule="nonzero" d="M11 5v22h14V9l-4-4z"/><path d="M6 18.018h8.027v1.611a1 1 0 0 0 1.71.705l3.608-3.629a1 1 0 0 0 0-1.41l-3.608-3.63a1 1 0 0 0-1.71.706v1.611H6a1 1 0 0 0-1 1v2.036a1 1 0 0 0 1 1Z"/><path d="M21 4a1 1 0 0 1 .707.293l4 4A1 1 0 0 1 26 9v18a1 1 0 0 1-1 1H11a1 1 0 0 1-1-1V5a1 1 0 0 1 1-1Zm-1.5 2H12v20h12V10.5h-3.5a1 1 0 0 1-1-1V6Zm3.585 2.5L21.5 6.915V8.5h1.585Z"/></g></svg>