<svg xmlns="http://www.w3.org/2000/svg" width="32" height="32" viewBox="0 0 32 32"><g fill="none" fill-rule="evenodd"><circle cx="8" cy="24" r="3" fill="#000" fill-opacity=".25" stroke="#000" stroke-linejoin="round" stroke-width="2"/><circle cx="24" cy="24" r="3" fill="#000" fill-opacity=".25" stroke="#000" stroke-linejoin="round" stroke-width="2"/><path stroke="#000" stroke-linejoin="round" stroke-width="2" d="M8 21v-3a2 2 0 0 1 2-2h12a2 2 0 0 1 2 2v3"/><path fill="#000" d="M15 13h2v3h-2z"/><circle cx="16" cy="8" r="5" fill="#000" fill-opacity=".25" stroke="#000" stroke-linejoin="round" stroke-width="2"/><path fill="#000" d="M16 5a1 1 0 0 1 1 1v.999L18 7a1 1 0 0 1 0 2h-1v1a1 1 0 0 1-2 0V9h-1a1 1 0 0 1 0-2h1V6a1 1 0 0 1 1-1Z"/></g></svg>