<svg xmlns="http://www.w3.org/2000/svg" width="32" height="32" viewBox="0 0 32 32"><g fill="none" fill-rule="evenodd"><path fill="#000" fill-opacity=".25" fill-rule="nonzero" d="M10 27 9 9h14l-1 18z"/><path fill="#000" d="M19 4a1 1 0 0 1 .993.883L20 5v2h4a1 1 0 0 1 0 2h-.052l-.95 18.055a1 1 0 0 1-.886.939L22 28H10a1 1 0 0 1-.986-.833l-.012-.112L8.05 9H8a1 1 0 1 1 0-2h4V5a1 1 0 0 1 .883-.993L13 4h6Zm2.946 5H10.053l.893 17h10.107l.893-17ZM18 6h-4v1h4V6Z"/><path stroke="#000" stroke-linecap="round" stroke-width="2" d="M16 12v11M12.5 12l.5 11M19.5 12 19 23"/></g></svg>