<svg xmlns="http://www.w3.org/2000/svg" width="32" height="32" viewBox="0 0 32 32"><g fill="#000" fill-rule="evenodd"><rect width="26" height="2" x="3" y="22" rx="1"/><path fill-opacity=".25" fill-rule="nonzero" d="M16 10c-6.233 0-9.9 3.333-11 10h22c-1.1-6.667-4.767-10-11-10Z"/><path fill-rule="nonzero" d="M18 6a1 1 0 0 1 0 2h-1l.001 1.027c5.758.321 9.44 3.465 10.873 9.231l.082.342c.029.132.044.266.044.401 0 1.105-.996 2-2.221 1.999H6.223c-.154 0-.308-.014-.459-.043-1.2-.228-1.967-1.288-1.717-2.366C5.417 12.616 9.13 9.355 15 9.027V8h-1a1 1 0 0 1 0-2h4Zm-2 5c-5.47 0-8.73 2.58-10 7.998L26 19l-.08-.328C24.596 13.475 21.36 11 16 11Z"/><path d="M15 20h2v3h-2z"/></g></svg>