<svg xmlns="http://www.w3.org/2000/svg" width="32" height="32" viewBox="0 0 32 32"><g fill="#000" fill-rule="evenodd"><path d="m27.642 7.121-9.485 9.486 1.121 1.12a1 1 0 0 1-.707 1.708H13.5a1 1 0 0 1-1-1v-5.071a1 1 0 0 1 1.707-.707l1.121 1.121 9.486-9.485a1 1 0 0 1 1.414 0l1.414 1.414a1 1 0 0 1 0 1.414Z"/><circle cx="16" cy="16" r="11" fill-opacity=".25" fill-rule="nonzero"/><path fill-rule="nonzero" d="M16 4c6.627 0 12 5.373 12 12s-5.373 12-12 12S4 22.627 4 16 9.373 4 16 4Zm0 2C10.477 6 6 10.477 6 16s4.477 10 10 10 10-4.477 10-10S21.523 6 16 6Z"/></g></svg>