<svg xmlns="http://www.w3.org/2000/svg" width="32" height="32" viewBox="0 0 32 32"><g fill="none" fill-rule="evenodd"><path fill="#000" fill-opacity=".25" fill-rule="nonzero" d="M27 24.5 20 18h-2l-.5 2.5L24 27z"/><path fill="#000" fill-opacity=".25" fill-rule="nonzero" d="M27 24.5 20 18h-2l-.5 2.5L24 27z"/><circle cx="12" cy="12" r="7" fill="#000" fill-opacity=".25" fill-rule="nonzero"/><path fill="#000" fill-rule="nonzero" d="M12.223 4.05c2.257 0 4.3.915 5.78 2.394a8.148 8.148 0 0 1 2.393 5.78 8.135 8.135 0 0 1-1.295 4.416h1.095c.23 0 .452.075.632.213l.103.09 6.715 6.715a1.036 1.036 0 0 1 .093 1.363l-.093.107-2.518 2.518a1.036 1.036 0 0 1-1.364.093l-.106-.093-6.714-6.715a1.04 1.04 0 0 1-.296-.598l-.009-.137.001-1.095a8.135 8.135 0 0 1-4.417 1.295c-2.257 0-4.3-.914-5.78-2.393a8.148 8.148 0 0 1-2.393-5.78c0-2.257.915-4.3 2.394-5.78a8.148 8.148 0 0 1 5.78-2.393ZM19.5 18.5h-1v1l5.893 5.94 1.047-1.047L19.5 18.5ZM12.223 6.129a6.076 6.076 0 0 0-4.31 1.785 6.076 6.076 0 0 0-1.784 4.31c0 1.682.682 3.206 1.785 4.309a6.076 6.076 0 0 0 4.31 1.785 6.076 6.076 0 0 0 4.309-1.785 6.076 6.076 0 0 0 1.785-4.31 6.076 6.076 0 0 0-1.785-4.31 6.076 6.076 0 0 0-4.31-1.784Z"/><path stroke="#000" stroke-linecap="round" stroke-linejoin="round" stroke-width="2" d="m9.5 13 2.138 2L15 9.5"/></g></svg>