<svg xmlns="http://www.w3.org/2000/svg" width="32" height="32" viewBox="0 0 32 32"><g fill="none"><path fill="#000" d="M16 7c-5.492 0-9.507 2.918-11.926 8.634a.941.941 0 0 0 0 .732C6.494 22.082 10.508 25 16 25s9.507-2.918 11.926-8.634a.941.941 0 0 0 0-.732C25.506 9.918 21.492 7 16 7Zm.292 2.003c4.354.094 7.52 2.311 9.594 6.748l.114.248-.114.25C23.766 20.784 20.504 23 16 23l-.292-.003c-4.353-.094-7.519-2.311-9.593-6.748L6 16l.115-.25C8.235 11.217 11.497 9 16 9l.292.003Z"/><path fill="#000" fill-opacity=".25" d="M16.292 9.003c4.354.094 7.52 2.311 9.594 6.748l.114.248-.114.25C23.766 20.784 20.504 23 16 23l-.292-.003c-4.353-.094-7.519-2.311-9.593-6.748L6 16l.115-.25C8.235 11.217 11.497 9 16 9l.292.003Z"/><path fill="#000" fill-opacity=".25" d="m16 9 .292.003c1.99.043 3.733.53 5.236 1.47L10.474 21.528c-1.785-1.116-3.233-2.87-4.36-5.279L6 16l.115-.25C8.235 11.217 11.497 9 16 9Z"/><path stroke="#000" stroke-linecap="round" stroke-width="2" d="M27 5 5 27"/><path fill="#000" fill-rule="evenodd" d="M18.83 13.173a4 4 0 0 1-5.657 5.657Z"/></g></svg>