<svg xmlns="http://www.w3.org/2000/svg" width="32" height="32" viewBox="0 0 32 32"><g fill="#000" fill-rule="nonzero"><path d="M24 12a2 2 0 0 1 2 2v12a2 2 0 0 1-2 2H6a2 2 0 0 1-2-2V14a2 2 0 0 1 2-2h11l-2 2H6v12h18V14h-3l2-2Z"/><path fill-opacity=".25" d="M25 13v14H5V13h11l-4 4-1 4.5 4-1.5 7-7h3Z"/><path fill-opacity=".25" d="M24 5 12 17l-1 4 4-1L27 8z"/><path fill-opacity=".25" d="M24 5 12 17l-1 4 4-1L27 8z"/><path d="M27.607 7.222a1 1 0 0 1 0 1.414L15.464 20.778a1 1 0 0 1-.39.242l-4.243 1.414a1 1 0 0 1-1.265-1.265l1.414-4.243a1 1 0 0 1 .242-.39L23.364 4.393a1 1 0 0 1 1.414 0Zm-2.122.707-1.414-1.414-1.413 1.413 1.413 1.415-1.414 1.414-1.414-1.415-8.44 8.44-.706 2.121 2.122-.707L25.485 7.929Z"/></g></svg>