<svg xmlns="http://www.w3.org/2000/svg" width="32" height="32" viewBox="0 0 32 32"><g fill="#000" fill-rule="nonzero"><path fill-opacity=".25" d="M8 8.385C8.85 6.128 11.684 5 16.501 5c4.817 0 7.651 1.128 8.501 3.385v15.23c-.85 2.257-3.684 3.385-8.5 3.385C11.683 27 8.85 25.872 8 23.615V8.385Z"/><path d="M16.452 4.027c2.633.031 4.964.465 6.641 1.2.847.371 1.529.82 2.006 1.331.427.457.692.963.774 1.51l.022.206.005 15.294c0 .65-.252 1.25-.716 1.783-.467.538-1.153 1.01-2.007 1.399-1.709.776-4.1 1.223-6.727 1.223-2.575 0-4.923-.429-6.623-1.177-.852-.374-1.543-.83-2.026-1.35-.429-.46-.696-.973-.776-1.525l-.02-.21L7 8.426c.041-.663.319-1.267.795-1.8.48-.54 1.166-1.009 2.01-1.392 1.703-.775 4.06-1.207 6.647-1.207ZM23.82 21.38c-1.725.975-4.394 1.548-7.369 1.548-2.974 0-5.644-.573-7.368-1.548v2.19l.01.096c.045.227.246.45.54.667.398.296.978.574 1.694.813 1.332.444 3.13.746 5.124.746 1.966 0 3.74-.294 5.068-.736.703-.235 1.28-.51 1.686-.807.35-.254.578-.52.614-.792v-2.177Zm0-5.046c-1.725.976-4.394 1.549-7.369 1.549-2.974 0-5.644-.573-7.368-1.548v2.189l.01.097c.045.226.246.449.54.667.398.295.978.574 1.694.812 1.332.444 3.13.746 5.124.746 1.966 0 3.74-.293 5.068-.735.703-.235 1.28-.51 1.686-.807.35-.255.578-.52.614-.793v-2.177Zm0-5.045c-1.725.975-4.394 1.548-7.369 1.548-2.975 0-5.644-.573-7.369-1.548v2.19l.01.096c.046.227.247.45.541.667.398.296.978.574 1.694.813 1.332.444 3.13.746 5.124.746 1.966 0 3.74-.294 5.068-.736.703-.235 1.28-.51 1.686-.807.35-.255.578-.52.614-.793v-2.176ZM16.45 6.109c-1.994 0-3.792.302-5.124.746-.716.239-1.296.517-1.694.813-.336.249-.55.504-.55.764s.214.515.55.764c.398.295.978.574 1.694.812 1.332.444 3.13.747 5.124.747 1.994 0 3.792-.303 5.124-.747.716-.238 1.296-.517 1.694-.812.336-.25.55-.504.55-.764s-.214-.515-.55-.764c-.398-.296-.978-.574-1.694-.813-1.332-.444-3.13-.746-5.124-.746Z"/></g></svg>