<svg xmlns="http://www.w3.org/2000/svg" width="1002.667" height="1002.667" version="1.0" viewBox="0 0 752 752"><path d="M369.5 158.9c-1.6.4-4.6 1.6-6.6 2.7-2 1-47 33.2-99.9 71.4-67.2 48.5-97.2 70.7-99.2 73.4-6.1 8.5-5.9 2.2-5.6 140.2l.3 125.9 2.3 4.6c2.9 5.9 8.2 11.2 14.1 14.1l4.6 2.3h393l4.5-2.1c5.6-2.7 11.3-8.3 14.2-14.3l2.3-4.6.3-125.9c.3-138.1.5-131.7-5.7-140.2-2-2.9-30.9-24.3-99.4-73.6-53-38.3-98.3-70.6-100.6-71.7-4.5-2.3-13.9-3.5-18.6-2.2zm77.1 113.6c37.9 27.3 69 50 69.2 50.4.4 1.1-138.7 101.3-140.2 100.9-1.6-.4-139.6-99.9-139.6-100.7 0-.3 7.3-5.9 16.3-12.3 8.9-6.4 40.3-29 69.7-50.2 29.4-21.2 54-38.4 54.6-38.2.6.2 32.1 22.8 70 50.1zm-158.3 159c38.8 28 72.7 52.1 75.3 53.5 6.4 3.3 15.2 3.8 21.9 1.3 3.1-1.2 32-21.4 75-52.4 38.5-27.7 71.5-51.5 73.3-52.7l3.2-2.3V537H215v-79c0-65.6.2-79 1.3-78.3.8.4 33.1 23.7 72 51.8z"/></svg>