<svg xmlns="http://www.w3.org/2000/svg" width="32" height="32" viewBox="0 0 32 32"><g fill="#000" fill-rule="evenodd"><circle cx="9" cy="8" r="3" fill-opacity=".25" stroke="#000" stroke-linejoin="round" stroke-width="2"/><circle cx="9" cy="24" r="3" fill-opacity=".25" stroke="#000" stroke-linejoin="round" stroke-width="2"/><path d="M8 11h2v10H8z"/><circle cx="23" cy="24" r="3" fill-opacity=".25" stroke="#000" stroke-linejoin="round" stroke-width="2"/><rect width="2" height="9" x="22" y="12" rx="1"/><path d="M26.536 4.464a1 1 0 0 1 0 1.415l-5.657 5.657a1 1 0 0 1-1.415-1.415l5.657-5.657a1 1 0 0 1 1.415 0Z"/><path d="M26.536 11.536a1 1 0 0 1-1.415 0l-5.657-5.657a1 1 0 0 1 1.415-1.415l5.657 5.657a1 1 0 0 1 0 1.415Z"/></g></svg>