<svg xmlns="http://www.w3.org/2000/svg" width="32" height="32" viewBox="0 0 32 32"><g fill="#000" fill-rule="evenodd"><path fill-opacity=".25" fill-rule="nonzero" d="m20 5 7 7v8l-7 7h-8l-7-7v-8l7-7h8Zm0 6h-8l-1 2v6l1 2h8l1-2v-6l-1-2Z"/><path fill-opacity=".25" fill-rule="nonzero" d="M11.5 5h9L18 11h-4zM11.5 27h9L18 21h-4z"/><g fill-opacity=".25" fill-rule="nonzero"><path d="M27 11.5v9L21 18v-4zM5 11.5v9l6-2.5v-4z"/></g><path d="M16 4c1.845 0 3.397.155 4.66.471.518.13.806.683.614 1.181l-.02.053a11.606 11.606 0 0 1 5.04 5.041l.054-.02a.889.889 0 0 1 1.181.614c.316 1.263.471 2.815.471 4.66 0 1.845-.155 3.397-.471 4.66a.889.889 0 0 1-1.181.614l-.053-.02a11.606 11.606 0 0 1-5.041 5.04l.02.054a.889.889 0 0 1-.614 1.181c-1.263.316-2.815.471-4.66.471-1.845 0-3.397-.155-4.66-.471a.889.889 0 0 1-.614-1.181l.02-.053a11.606 11.606 0 0 1-5.04-5.041l-.054.02a.889.889 0 0 1-1.181-.614C4.155 19.397 4 17.845 4 16c0-1.845.155-3.397.471-4.66a.889.889 0 0 1 1.181-.614l.053.02a11.606 11.606 0 0 1 5.041-5.04l-.02-.054a.889.889 0 0 1 .614-1.181C12.603 4.155 14.155 4 16 4Zm1.612 17.778h-3.224l-1.625 4.225.116.018c.896.134 1.937.201 3.121.201l.39-.002a20.514 20.514 0 0 0 2.73-.199l.116-.018-1.624-4.225Zm-7.72-2.134-2.516.968a9.823 9.823 0 0 0 4.012 4.012l.968-2.516a7.147 7.147 0 0 1-2.464-2.464Zm9.752 2.464.968 2.516a9.823 9.823 0 0 0 4.012-4.012l-2.516-.968a7.147 7.147 0 0 1-2.464 2.464Zm-.665-10.532-.043.065a.889.889 0 0 1-.714.359h-4.444a.889.889 0 0 1-.758-.424 5.354 5.354 0 0 0-1.444 1.445c.26.159.424.444.424.757v4.444a.889.889 0 0 1-.424.758c.384.569.875 1.06 1.445 1.444a.886.886 0 0 1 .757-.424h4.444c.313 0 .598.164.758.424a5.354 5.354 0 0 0 1.444-1.445.886.886 0 0 1-.424-.757v-4.444c0-.313.164-.598.424-.758a5.354 5.354 0 0 0-1.445-1.444Zm7.024 1.187-4.225 1.625v3.224l4.225 1.624.018-.115c.119-.797.185-1.707.199-2.732l.002-.389c0-1.184-.067-2.225-.2-3.12l-.02-.117Zm-20.006 0-.018.116c-.134.896-.201 1.937-.201 3.121l.002.39c.014 1.024.08 1.934.199 2.73l.018.116 4.225-1.624v-3.224l-4.225-1.625Zm1.38-1.375 2.515.968a7.147 7.147 0 0 1 2.464-2.464l-.968-2.516a9.823 9.823 0 0 0-4.012 4.012Zm13.235-4.012-.968 2.516a7.147 7.147 0 0 1 2.464 2.464l2.516-.968a9.823 9.823 0 0 0-4.012-4.012ZM16 5.778c-1.184 0-2.225.067-3.12.2l-.117.02 1.625 4.224h3.224l1.624-4.225-.115-.018a20.514 20.514 0 0 0-2.732-.199Z"/></g></svg>