<svg xmlns="http://www.w3.org/2000/svg" width="32" height="32" viewBox="0 0 32 32"><path fill="#000" fill-rule="nonzero" d="M20.727 4.18c1.147-.05 2.277.44 3.334 1.496 1.057 1.057 1.546 2.187 1.496 3.334-.05 1.145-.64 2.315-1.779 3.454l-8.485 8.486c-.758.758-1.55 1.163-2.318 1.214-.77.052-1.524-.248-2.208-.931-.683-.684-.983-1.438-.931-2.208.051-.768.456-1.56 1.214-2.318l7.354-7.354a.997.997 0 0 1 1.414 0 .997.997 0 0 1 0 1.414l-7.354 7.354c-.372.373-.585.674-.625.956-.037.263.095.494.343.741.247.248.478.38.741.343.282-.04.583-.253.956-.625l8.485-8.486c.745-.744 1.148-1.415 1.191-2.067.043-.645-.273-1.257-.908-1.893-.635-.635-1.248-.951-1.892-.908-.652.043-1.323.447-2.068 1.191L8.505 17.556c-1.12 1.12-1.713 2.166-1.758 3.193-.044 1.022.46 2.014 1.475 3.03 1.015 1.015 2.007 1.518 3.03 1.474 1.026-.045 2.072-.638 3.192-1.758l9.051-9.05a.997.997 0 0 1 1.415 0 .997.997 0 0 1 0 1.414l-9.051 9.05c-1.518 1.519-3.067 2.295-4.589 2.344-1.523.05-3.03-.628-4.462-2.06-1.433-1.433-2.11-2.94-2.061-4.463.049-1.522.825-3.07 2.343-4.589L17.273 5.96c1.139-1.139 2.31-1.729 3.454-1.778Z"/></svg>