<svg xmlns="http://www.w3.org/2000/svg" width="32" height="32" viewBox="0 0 32 32"><g fill="#000" fill-rule="evenodd"><circle cx="16" cy="16" r="11" fill-opacity=".25" fill-rule="nonzero"/><path fill-rule="nonzero" d="M16 4c6.627 0 12 5.373 12 12s-5.373 12-12 12S4 22.627 4 16 9.373 4 16 4Zm1.001 2.05L17 7a1 1 0 0 1-2 0v-.95a9.936 9.936 0 0 0-3.11.83l.476.826a1 1 0 1 1-1.732 1l-.476-.823c-.875.631-1.644 1.4-2.275 2.275l.823.476a1 1 0 0 1-1 1.732l-.825-.475A9.936 9.936 0 0 0 6.049 15H7a1 1 0 0 1 0 2l-.95.001a9.936 9.936 0 0 0 .83 3.108l.826-.475a1 1 0 1 1 1 1.732l-.823.476c.631.875 1.4 1.644 2.275 2.275l.476-.823a1 1 0 0 1 1.732 1l-.475.825c.964.436 2.01.723 3.109.832V25a1 1 0 0 1 2 0l.001.95a9.936 9.936 0 0 0 3.108-.83l-.475-.826a1 1 0 0 1 1.732-1l.476.823c.875-.631 1.644-1.4 2.275-2.275l-.823-.476a1 1 0 0 1 1-1.732l.825.475c.436-.964.722-2.01.832-3.108L25 17a1 1 0 0 1 0-2h.95a9.936 9.936 0 0 0-.83-3.11l-.826.476a1 1 0 0 1-1-1.732l.823-.476c-.631-.875-1.4-1.644-2.275-2.275l-.476.823a1 1 0 0 1-1.732-1l.475-.825a9.936 9.936 0 0 0-3.108-.832Z"/><path d="m17 9.5-4 7h2v6l4-7h-2z"/></g></svg>