<svg xmlns="http://www.w3.org/2000/svg" width="512" height="512" viewBox="0 0 512 512"><style>@keyframes pulse{0%,to{transform:scale(.92)}50%{transform:scale(1.08)}}path{--period:2s;--offset:0.4s;--timing:ease-in-out}</style><g id="terrier-hub-loader-raw" fill="none" fill-rule="evenodd" stroke="none" stroke-width="1"><path fill="#F49891" d="M211.403 325.697c10.908-4.407 23.324.863 27.73 11.771 4.408 10.908-.862 23.324-11.77 27.731s-23.324-.863-27.731-11.771c-4.407-10.908.863-23.324 11.77-27.731Z" style="animation:pulse var(--period) infinite var(--timing);transform-origin:242px 292px;animation-delay:calc(var(--offset)*-2)"/><path fill="#366A79" fill-rule="nonzero" d="m233.841 329.883 30.345-71.78-13.08-5.529-30.314 71.704c1.242.993 3.267 2.09 6.073 3.291 2.806 1.202 5.132 1.973 6.976 2.314Z" style="animation:pulse var(--period) infinite var(--timing);transform-origin:242px 292px;animation-delay:calc(var(--offset)*-2)"/><path fill="#eeba2b" d="M298.594 181.357c10-4.04 21.38.79 25.42 10.79 4.04 9.999-.79 21.38-10.79 25.42-9.999 4.04-21.38-.791-25.42-10.79-4.04-10 .791-21.38 10.79-25.42Z" style="animation:pulse var(--period) infinite var(--timing);transform-origin:282px 227.5px;animation-delay:calc(var(--offset)*-4)"/><path fill="#366A79" fill-rule="nonzero" d="m263.101 259.884 37.317-45.38c-.063-1.397-1.169-2.967-3.318-4.71-2.15-1.742-3.913-2.534-5.29-2.373l-39.62 43.373 10.911 9.09Z" style="animation:pulse var(--period) infinite var(--timing);transform-origin:282px 227.5px;animation-delay:calc(var(--offset)*-4)"/><path id="node-center" fill="#01A7B1" d="M241.37 219.794c19.998-8.08 42.76 1.582 50.84 21.58 8.08 19.998-1.582 42.76-21.58 50.84-19.999 8.08-42.76-1.582-50.84-21.58-8.08-19.999 1.581-42.76 21.58-50.84Z"/><path fill="#366A79" fill-rule="nonzero" d="m243.6 219.099-29.576-52.678-12.269 7.153 29.383 52.358c2.008-.37 4.274-1.284 6.797-2.746 2.524-1.461 4.412-2.824 5.664-4.087Z" style="animation:pulse var(--period) infinite var(--timing);transform-origin:237px 222px;animation-delay:0s"/><path fill="#F49891" d="M199.259 148.737c11.817-4.775 25.267.934 30.041 12.752 4.775 11.817-.934 25.267-12.752 30.041-11.817 4.775-25.267-.934-30.041-12.752-4.775-11.817.934-25.267 12.752-30.041Z" style="animation:pulse var(--period) infinite var(--timing);transform-origin:237px 222px;animation-delay:0s"/><path fill="#366A79" fill-rule="nonzero" d="M225.833 261.792c1.647-2.023 2.471-4.515 2.471-7.473 0-2.959-.668-5.199-2.003-6.72l-65.22-5.703-.468 21.295 65.22-1.399Z" style="animation:pulse var(--period) infinite var(--timing);transform-origin:226px 255px;animation-delay:calc(var(--offset)*-1)"/><path fill="#eeba2b" d="M150.745 227.69c13.635-5.51 29.154 1.078 34.663 14.713 5.51 13.636-1.078 29.155-14.713 34.664-13.636 5.51-29.155-1.079-34.664-14.714s1.079-29.154 14.714-34.663Z" style="animation:pulse var(--period) infinite var(--timing);transform-origin:226px 255px;animation-delay:calc(var(--offset)*-1)"/><path fill="#366A79" fill-rule="nonzero" d="m352.807 316.519 10.17-16.114-78.04-37.152c-2.19.726-3.884 2.228-5.085 4.507-1.2 2.28-1.712 4.965-1.535 8.057l74.49 40.702Z" style="animation:pulse var(--period) infinite var(--timing);transform-origin:281px 270px;animation-delay:calc(var(--offset)*-3)"/><path fill="#ED584C" d="M348.594 282.423c15.453-6.244 33.042 1.222 39.286 16.675 6.243 15.454-1.223 33.042-16.676 39.286-15.453 6.243-33.042-1.223-39.286-16.676-6.243-15.453 1.223-33.042 16.676-39.285Z" style="animation:pulse var(--period) infinite var(--timing);transform-origin:281px 270px;animation-delay:calc(var(--offset)*-3)"/></g></svg>