<svg xmlns="http://www.w3.org/2000/svg" width="160" height="160" viewBox="0 0 160 160"><g fill="none" fill-rule="evenodd" transform="scale(1 -1) rotate(22 449.165 26.109)"><circle cx="26" cy="28.348" r="12" fill="#F49891"/><path fill="#1E6C7B" fill-rule="nonzero" d="m36.836 33.427 30.997 31.087-5.666 5.649-30.963-31.055c.439-.78 1.265-1.78 2.477-3s2.264-2.114 3.155-2.68Z"/><circle cx="102" cy="86.338" r="11" fill="#EEBA2B"/><path fill="#1E6C7B" fill-rule="nonzero" d="M66.89 63.813 95.957 79.64c.262.743.016 1.797-.739 3.16-.755 1.364-1.509 2.15-2.262 2.357L63.11 70.864l3.78-7.05Z"/><circle cx="64" cy="67.338" r="22" fill="#01A7B1"/><path fill="#1E6C7B" fill-rule="nonzero" d="m65.311 89.23-4.33 33.756-7.918-1.147 4.297-33.547c1.127-.231 2.504-.232 4.13 0 1.627.23 2.9.543 3.821.939ZM47.022 70.681c1.288.71 2.244 1.837 2.868 3.382.625 1.545.748 2.856.372 3.933l-32.861 16.74-4.738-11.022 34.36-13.033Z"/><circle cx="57" cy="122.338" r="13" fill="#F49891"/><circle cx="15" cy="89.338" r="15" fill="#EEBA2B"/><path fill="#1E6C7B" fill-rule="nonzero" d="m101.793 15.302 8.712 6.27-32.92 35.874c-1.297.083-2.5-.344-3.607-1.281-1.109-.937-1.943-2.232-2.502-3.885l30.317-36.978Z"/><circle cx="106.788" cy="17" r="17" fill="#ED584C"/></g></svg>