<svg xmlns="http://www.w3.org/2000/svg" width="320" height="160" viewBox="0 0 320 160"><g fill="none" fill-rule="evenodd"><g transform="scale(1 -1) rotate(22 453.165 46.687)"><circle cx="26" cy="28.348" r="12" fill="#F49891"/><path fill="#1E6C7B" fill-rule="nonzero" d="m36.836 33.427 30.997 31.087-5.666 5.649-30.963-31.055c.439-.78 1.265-1.78 2.477-3s2.264-2.114 3.155-2.68Z"/><circle cx="102" cy="86.338" r="11" fill="#EEBA2B"/><path fill="#1E6C7B" fill-rule="nonzero" d="M66.89 63.813 95.957 79.64c.262.743.016 1.797-.739 3.16-.755 1.364-1.509 2.15-2.262 2.357L63.11 70.864l3.78-7.05Z"/><circle cx="64" cy="67.338" r="22" fill="#01A7B1"/><path fill="#1E6C7B" fill-rule="nonzero" d="m65.311 89.23-4.33 33.756-7.918-1.147 4.297-33.547c1.127-.231 2.504-.232 4.13 0 1.627.23 2.9.543 3.821.939ZM47.022 70.681c1.288.71 2.244 1.837 2.868 3.382.625 1.545.748 2.856.372 3.933l-32.861 16.74-4.738-11.022 34.36-13.033Z"/><circle cx="57" cy="122.338" r="13" fill="#F49891"/><circle cx="15" cy="89.338" r="15" fill="#EEBA2B"/><path fill="#1E6C7B" fill-rule="nonzero" d="m101.793 15.302 8.712 6.27-32.92 35.874c-1.297.083-2.5-.344-3.607-1.281-1.109-.937-1.943-2.232-2.502-3.885l30.317-36.978Z"/><circle cx="106.788" cy="17" r="17" fill="#ED584C"/></g><path fill="#1E6C7B" d="M153.906 64.5V39.42h8.525V35h-22.283v4.42h8.526V64.5h5.232Zm31.665 0v-4.42h-12.99v-8.706h10.6v-4.42h-10.6V39.42h12.54V35h-17.773v29.5h18.223Zm11.277 0V52.953h4.51l6.36 11.547h5.865l-7.037-12.314c1.774-.602 3.195-1.594 4.263-2.977 1.067-1.384 1.6-3.203 1.6-5.458 0-1.654-.277-3.037-.834-4.15-.556-1.113-1.315-2.007-2.277-2.684-.963-.677-2.105-1.165-3.429-1.466-1.323-.3-2.751-.451-4.285-.451h-9.968v29.5h5.232Zm4.195-15.697h-4.195v-9.608h4.195c2.015 0 3.556.33 4.623.992 1.068.662 1.602 1.85 1.602 3.564 0 1.684-.534 2.947-1.602 3.789-1.067.842-2.608 1.263-4.623 1.263ZM223.55 64.5V52.953h4.511l6.36 11.547h5.864l-7.037-12.314c1.775-.602 3.195-1.594 4.263-2.977 1.068-1.384 1.601-3.203 1.601-5.458 0-1.654-.278-3.037-.834-4.15-.557-1.113-1.316-2.007-2.278-2.684s-2.105-1.165-3.428-1.466c-1.323-.3-2.752-.451-4.285-.451h-9.97v29.5h5.233Zm4.195-15.697h-4.195v-9.608h4.195c2.015 0 3.556.33 4.624.992 1.067.662 1.601 1.85 1.601 3.564 0 1.684-.534 2.947-1.601 3.789-1.068.842-2.609 1.263-4.624 1.263ZM250.255 64.5V35h-5.233v29.5h5.233Zm25.71 0v-4.42h-12.99v-8.706h10.6v-4.42h-10.6V39.42h12.54V35h-17.773v29.5h18.224Zm11.277 0V52.953h4.511l6.36 11.547h5.864l-7.037-12.314c1.775-.602 3.196-1.594 4.263-2.977 1.068-1.384 1.601-3.203 1.601-5.458 0-1.654-.278-3.037-.834-4.15-.556-1.113-1.316-2.007-2.278-2.684s-2.105-1.165-3.428-1.466c-1.323-.3-2.752-.451-4.285-.451h-9.969v29.5h5.232Zm4.195-15.697h-4.195v-9.608h4.195c2.015 0 3.556.33 4.624.992 1.067.662 1.601 1.85 1.601 3.564 0 1.684-.534 2.947-1.601 3.789-1.068.842-2.609 1.263-4.624 1.263Z"/><g fill="#0A9396" fill-rule="nonzero"><path d="M216.186 88.852c0-5.1.204-6.324 1.768-7.344.816-.544 2.448-1.088 2.176-1.904-.068-.748-.748-1.156-1.904-1.156h-10.88c-1.224 0-1.836.408-1.836 1.156 0 1.156 1.088 1.156 2.108 1.904.748.476 1.224 1.224 1.428 2.108.204.884.34 2.652.34 5.236v10.064c0 .408-.204.612-.612.612H186.13c-.544 0-.816-.272-.816-.748v-9.928c0-5.1.272-6.324 1.7-7.344.816-.544 2.448-1.088 2.176-1.904 0-.748-.612-1.156-1.836-1.156h-10.948c-1.224 0-1.836.408-1.836 1.156 0 1.088 1.02 1.224 2.176 1.904.748.476 1.224 1.224 1.428 2.108.204.884.272 2.652.272 5.236v26.452c0 3.196-.204 5.372-.68 6.46-.408 1.02-1.088 1.836-2.108 2.448-1.02.544-1.496 1.02-1.496 1.496 0 .884.748 1.292 2.176 1.292h11.084c1.428 0 2.108-.408 2.108-1.292 0-.476-.476-1.02-1.428-1.496-.884-.476-1.564-1.156-1.972-1.972-.544-1.02-.816-3.332-.816-6.936v-11.628c0-.408.204-.612.612-.612h22.644c.544 0 .816.272.816.748v11.492c0 3.332-.272 5.576-.748 6.664-1.156 2.38-3.536 2.516-3.536 3.74 0 .884.68 1.292 2.108 1.292h11.152c1.428 0 2.108-.408 2.108-1.292 0-1.632-2.652-1.156-3.672-4.08-.408-1.088-.612-3.196-.612-6.324V88.852ZM260.046 121.152c-.476-.748-.68-2.584-.68-5.576V92.524c0-1.224-.476-1.836-1.496-1.836-.34 0-.748.136-1.292.34-1.564.68-3.672 1.36-6.392 1.972-1.224.272-1.836.816-1.836 1.564 0 .612.544 1.088 1.632 1.496 1.156.34 1.904.816 2.244 1.36.476.68.68 2.72.68 6.12 0 5.168-.272 8.908-.748 11.288-.476 2.38-1.292 4.148-2.584 5.44-1.564 1.564-3.468 2.312-5.712 2.312-4.692 0-7.072-3.4-7.072-8.364V92.524c0-1.156-.476-1.768-1.496-1.768-.34 0-.884.136-1.564.408-1.7.68-3.74 1.292-6.12 1.836-1.224.204-1.836.68-1.836 1.428 0 .612.544 1.156 1.7 1.632 1.156.408 1.836.884 2.176 1.36.476.68.68 2.516.68 5.508v11.424c0 4.352.816 7.548 2.516 9.588 2.108 2.516 4.896 3.808 8.5 3.808 4.624 0 8.636-2.38 11.016-5.916.136-.204.272-.34.34-.34.136 0 .204.068.204.204v4.216c0 1.224.476 1.836 1.496 1.836.34 0 .816-.136 1.428-.34 1.836-.748 3.876-1.36 6.256-1.904 1.224-.204 1.836-.748 1.836-1.564 0-.544-.612-1.02-1.768-1.428-1.156-.476-1.836-.884-2.108-1.36ZM278.27 109.66c0-3.876.748-7.208 2.244-9.928 1.564-2.72 3.944-4.08 7.208-4.08 3.06 0 5.44 1.36 7.208 4.148 1.768 2.72 2.652 6.12 2.652 10.132 0 3.876-.816 7.208-2.38 10.132-1.564 2.856-3.944 4.284-7.208 4.284-5.78 0-9.724-5.44-9.724-14.688Zm26.044-2.176c0-4.896-1.292-8.908-3.876-12.036-2.584-3.128-5.916-4.692-10.064-4.692s-7.82 1.836-11.084 5.508c-.34.34-.544.544-.68.544-.204 0-.34-.204-.34-.544V77.972c0-1.156-.476-1.7-1.36-1.7-.408 0-.952.136-1.632.408a45.475 45.475 0 0 1-6.12 1.836c-1.292.272-1.904.748-1.904 1.496 0 .544.544 1.02 1.7 1.428 1.156.408 1.904.952 2.244 1.564.408.748.612 2.108.612 4.216v38.08c0 1.632.476 2.448 1.496 2.448.612 0 1.224-.544 1.768-1.632.544-1.156 1.156-1.7 1.768-1.7.884 0 4.692 3.332 10.54 3.332 3.536 0 6.596-1.02 9.248-3.128 2.652-2.108 4.556-4.624 5.78-7.616 1.292-3.06 1.904-6.188 1.904-9.52Z"/></g></g></svg>