<svg xmlns="http://www.w3.org/2000/svg" width="128" height="128" viewBox="0 0 128 128"><g fill="none" fill-rule="evenodd"><path fill="#F49891" d="M40.243 96.247c5.113-2.066 10.933.405 12.999 5.518 2.065 5.113-.405 10.933-5.518 12.999-5.113 2.066-10.933-.405-12.999-5.518-2.066-5.113.405-10.933 5.518-12.999Z"/><path fill="#F7F5E9" fill-rule="nonzero" d="m50.76 98.21 14.225-33.647-6.132-2.592-14.209 33.611c.582.465 1.531.98 2.847 1.543 1.315.563 2.405.925 3.27 1.084Z"/><path fill="#EEBA2B" d="M81.114 28.588a9.153 9.153 0 1 1 6.858 16.973 9.153 9.153 0 0 1-6.858-16.973Z"/><path fill="#F7F5E9" fill-rule="nonzero" d="M64.476 65.397 81.97 44.126c-.03-.655-.548-1.391-1.556-2.208-1.007-.817-1.834-1.188-2.48-1.113L59.363 61.136l5.114 4.261Z"/><path fill="#01A7B1" d="M54.29 46.605c9.374-3.787 20.043.742 23.83 10.116 3.788 9.374-.74 20.044-10.115 23.831-9.374 3.788-20.044-.741-23.831-10.116-3.788-9.374.741-20.044 10.116-23.83Z"/><path fill="#F7F5E9" fill-rule="nonzero" d="M55.335 46.28 41.47 21.586l-5.75 3.353 13.772 24.542c.942-.173 2.004-.602 3.187-1.287 1.183-.685 2.068-1.323 2.655-1.916Z"/><path fill="#F49891" d="M34.55 13.297c5.54-2.238 11.844.438 14.082 5.978 2.238 5.539-.438 11.844-5.977 14.082-5.54 2.238-11.844-.439-14.082-5.978-2.238-5.54.438-11.844 5.977-14.082Z"/><path fill="#F7F5E9" fill-rule="nonzero" d="M47.007 66.292c.772-.949 1.158-2.116 1.158-3.503s-.313-2.437-.939-3.15l-30.571-2.673-.22 9.981 30.572-.655Z"/><path fill="#EEBA2B" d="M11.81 50.306c6.39-2.582 13.666.506 16.248 6.897 2.582 6.392-.506 13.667-6.897 16.249-6.392 2.582-13.666-.506-16.249-6.897-2.582-6.392.506-13.666 6.897-16.249Z"/><path fill="#F7F5E9" fill-rule="nonzero" d="m106.526 91.945 4.767-7.554-36.581-17.414c-1.026.34-1.82 1.044-2.384 2.112-.562 1.069-.802 2.328-.719 3.777l34.917 19.08Z"/><path fill="#ED584C" d="M104.551 75.962c7.244-2.926 15.489.573 18.415 7.817 2.927 7.244-.573 15.489-7.817 18.415-7.243 2.927-15.488-.573-18.415-7.817-2.926-7.243.573-15.488 7.817-18.415Z"/></g></svg>