<svg xmlns="http://www.w3.org/2000/svg" width="32" height="32" viewBox="0 0 32 32"><g fill="currentColor" fill-rule="nonzero"><path d="M14.12 4.15a11.927 11.927 0 0 1 3.758-.002 3 3 0 0 0 5.174 2.143 11.929 11.929 0 0 1 2.657 2.66 3 3 0 0 0 2.142 5.173 11.93 11.93 0 0 1 0 3.758 3 3 0 0 0-2.144 5.172 11.931 11.931 0 0 1-2.659 2.657 3.003 3.003 0 0 0-3.32-.704l.161-.06v-2.532a7.498 7.498 0 0 0 3.607-6.173L23.5 16c0-4.134-3.347-7.5-7.5-7.5A7.498 7.498 0 0 0 8.5 16a7.497 7.497 0 0 0 3.61 6.415v2.532a3 3 0 0 0-3.16.764 11.928 11.928 0 0 1-2.658-2.658 3 3 0 0 0-2.142-5.17 11.931 11.931 0 0 1-.002-3.759A3 3 0 0 0 6.29 8.951a11.929 11.929 0 0 1 2.658-2.658A3.004 3.004 0 0 0 12.27 7a3 3 0 0 0 1.85-2.85Z"/><path fill-opacity="0.33" d="M15.043 10.302c.403.147.134.887-.194 1.786l-.951 2.615a.997.997 0 0 0 .216 1.03l1.206 1.273a1 1 0 0 0 .84.306l1.744-.2a.997.997 0 0 0 .828-.654l.954-2.62c.225-.62.593-1.63.996-1.484.402.147.966 1.285 1.23 2.303a5.972 5.972 0 0 1-.17 3.556A5.977 5.977 0 0 1 19 21.415L19 28h-6v-6.926a8.888 8.888 0 0 1-1.167-.697 6 6 0 0 1 .771-9.09c.86-.617 2.037-1.131 2.44-.985Z"/><path fill-opacity="0.33" d="M15.043 10.302c.403.147.134.887-.194 1.786l-.951 2.615a.997.997 0 0 0 .216 1.03l1.206 1.273a1 1 0 0 0 .84.306l1.744-.2a.997.997 0 0 0 .828-.654l.954-2.62c.225-.62.593-1.63.996-1.484.402.147.966 1.285 1.23 2.303a5.972 5.972 0 0 1-.17 3.556A5.977 5.977 0 0 1 19 21.415L19 28h-6v-6.926a8.888 8.888 0 0 1-1.167-.697 6 6 0 0 1 .771-9.09c.86-.617 2.037-1.131 2.44-.985Z"/></g></svg>