<svg xmlns="http://www.w3.org/2000/svg" width="32" height="32" viewBox="0 0 32 32"><g fill="currentColor" fill-rule="evenodd"><path fill-opacity="0.33" fill-rule="nonzero" d="m17.62 24.168-.055-.029a.938.938 0 0 1-.482-.86l.005-.067.683-5.96 1.864.214-.625 5.449.048.052.066.076.065.082c.39.511.615 1.188.615 2.017 0 1.526-1.062 2.143-2.669 2.252l-.172.01-.205.008-.222.003-.976-.002-.253-.006-.156-.007-.08-.004c-1.66-.098-2.763-.707-2.763-2.254 0-.809.26-1.485.694-2.01a3.12 3.12 0 0 1 .148-.166l.04-.042-.87-5.416 1.852-.297.958 5.958a.938.938 0 0 1-.44.951l-.067.038-.032.025-.05.044c-.027.027-.06.06-.093.101-.165.199-.264.457-.264.814 0 .178.135.286.603.346l.143.016.163.013.154.01.13.005.22.005h.182l.729.002.133-.002.177-.004.113-.006.172-.01.153-.015c.525-.055.672-.166.672-.36 0-.42-.092-.697-.23-.878a.616.616 0 0 0-.083-.09l-.026-.02.032.014Z"/><path fill-opacity="0.33" fill-rule="nonzero" d="m17.62 24.168-.055-.029a.938.938 0 0 1-.482-.86l.005-.067.683-5.96 1.864.214-.625 5.449.048.052.066.076.065.082c.39.511.615 1.188.615 2.017 0 1.526-1.062 2.143-2.669 2.252l-.172.01-.205.008-.222.003-.976-.002-.253-.006-.156-.007-.08-.004c-1.66-.098-2.763-.707-2.763-2.254 0-.809.26-1.485.694-2.01a3.12 3.12 0 0 1 .148-.166l.04-.042-.87-5.416 1.852-.297.958 5.958a.938.938 0 0 1-.44.951l-.067.038-.032.025-.05.044c-.027.027-.06.06-.093.101-.165.199-.264.457-.264.814 0 .178.135.286.603.346l.143.016.163.013.154.01.13.005.22.005h.182l.729.002.133-.002.177-.004.113-.006.172-.01.153-.015c.525-.055.672-.166.672-.36 0-.42-.092-.697-.23-.878a.616.616 0 0 0-.083-.09l-.026-.02.032.014Z"/><path d="M27.526 6c.071.003.631.047.43.75L25.025 17.1a.75.75 0 0 1-.47 1.281l-.056.002H7.612a.75.75 0 0 1-.548-1.264C6.454 15.056 4.192 7.4 4.033 6.75c-.184-.75.47-.75.47-.75Z"/></g></svg>