<svg xmlns="http://www.w3.org/2000/svg" width="32" height="32" viewBox="0 0 32 32"><g fill="currentColor" fill-rule="evenodd"><circle cx="16" cy="16" r="11" fill-opacity="0.33" stroke="currentColor" stroke-width="2"/><path fill-rule="nonzero" d="M19.191 25.509c-.5.1-.688-.213-.688-.476 0-.337.012-1.414.012-2.753 0-.938-.313-1.539-.675-1.852 2.227-.25 4.567-1.1 4.567-4.943 0-1.1-.388-1.99-1.026-2.69.1-.25.45-1.276-.1-2.653 0 0-.839-.275-2.753 1.026a9.29 9.29 0 0 0-2.503-.338 9.29 9.29 0 0 0-2.503.338c-1.914-1.289-2.753-1.026-2.753-1.026-.55 1.377-.2 2.403-.1 2.653-.638.7-1.026 1.602-1.026 2.69 0 3.83 2.328 4.693 4.555 4.943-.288.25-.55.689-.638 1.34-.576.262-2.015.688-2.916-.827-.188-.3-.75-1.038-1.54-1.026-.837.013-.337.476.013.664.426.237.914 1.126 1.027 1.414.2.563.85 1.639 3.366 1.176 0 .838.012 1.627.012 1.864 0 .263-.187.564-.688.476C13 27 19 27 19.191 25.509Z"/></g></svg>