<svg xmlns="http://www.w3.org/2000/svg" width="32" height="32" viewBox="0 0 32 32"><g fill="currentColor" fill-rule="nonzero"><path d="M27.314 4.686a5 5 0 0 1 0 7.071l-6.364 6.364a5.05 5.05 0 0 1-.47.415 5.99 5.99 0 0 0-.098-2.674l5.517-5.519a3 3 0 1 0-4.242-4.242l-6.364 6.363a3 3 0 0 0 1.29 5.005A1.985 1.985 0 0 1 16 18.83l-.412.413a5 5 0 0 1-1.709-8.191l6.364-6.365a5 5 0 0 1 7.07 0Z"/><path d="M4.686 27.314a5 5 0 0 1 0-7.071l6.364-6.364c.15-.15.307-.288.47-.415a5.99 5.99 0 0 0 .098 2.675L6.1 21.657a3 3 0 0 0 4.242 4.242l6.364-6.363a3 3 0 0 0-1.29-5.005c.011-.493.206-.983.583-1.36l.413-.412a5 5 0 0 1 1.708 8.19l-6.364 6.365a5 5 0 0 1-7.07 0Z"/></g></svg>