<svg xmlns="http://www.w3.org/2000/svg" width="32" height="32" viewBox="0 0 32 32"><g fill="none" fill-rule="evenodd"><circle cx="16" cy="8" r="3" fill="currentColor" fill-opacity="0.33" stroke="currentColor" stroke-linejoin="round" stroke-width="2"/><circle cx="8" cy="24" r="3" fill="currentColor" fill-opacity="0.33" stroke="currentColor" stroke-linejoin="round" stroke-width="2"/><circle cx="24" cy="24" r="5" fill="currentColor" fill-opacity="0.33" stroke="currentColor" stroke-linejoin="round" stroke-width="2"/><path stroke="currentColor" stroke-linejoin="round" stroke-width="2" d="M8 21v-3a2 2 0 0 1 2-2h12.023a2 2 0 0 1 2 1.977l.011.977"/><path fill="currentColor" d="M15 11h2v5h-2zM24 21a1 1 0 0 1 1 1v.999L26 23a1 1 0 0 1 0 2h-1v1a1 1 0 0 1-2 0v-1h-1a1 1 0 0 1 0-2h1v-1a1 1 0 0 1 1-1Z"/></g></svg>