<svg xmlns="http://www.w3.org/2000/svg" width="32" height="32" viewBox="0 0 32 32"><g fill="currentColor" fill-rule="evenodd"><circle cx="16" cy="16" r="11" fill-opacity="0.33" fill-rule="nonzero"/><path fill-rule="nonzero" d="M16 4c6.627 0 12 5.373 12 12s-5.373 12-12 12S4 22.627 4 16 9.373 4 16 4Zm0 2C10.477 6 6 10.477 6 16s4.477 10 10 10 10-4.477 10-10S21.523 6 16 6Z"/><path d="M16 24.5a1.5 1.5 0 1 0 0-3 1.5 1.5 0 0 0 0 3Zm-3.8-14.326c1.939-2.585 5.721-3.005 7.6-.5 1.571 2.095.788 4.81-.934 6.643l-.159.164C17.378 17.811 17 18.441 17 19.774a1 1 0 0 1-2 0c0-1.912.57-2.944 2.08-4.492l.213-.215c1.214-1.214 1.78-3.028.907-4.193-1.006-1.341-3.202-1.097-4.4.5a1 1 0 0 1-1.6-1.2Z"/></g></svg>