<svg xmlns="http://www.w3.org/2000/svg" width="32" height="32" viewBox="0 0 32 32"><g fill="none" fill-rule="evenodd" transform="rotate(45 12.586 23.071)"><path fill="currentColor" fill-opacity="0.33" stroke="currentColor" stroke-linejoin="round" stroke-width="2" d="M3.542 16.61 0 19.456v3.794l4.427-.948M16.458 16.61 20 19.456v3.794l-4.427-.948"/><path fill="currentColor" fill-opacity="0.33" stroke="currentColor" stroke-linejoin="round" stroke-width="2" d="M10 0C2.235 5.903.941 14.02 6.118 24.35h7.764C19.06 14.02 17.765 5.903 10 0Z"/><circle cx="7.5" cy="10.35" r="1.25" stroke="currentColor" stroke-width="1.5"/><circle cx="12.5" cy="10.35" r="1.25" stroke="currentColor" stroke-width="1.5"/><path fill="currentColor" d="M8.893 25.57h2.214c1.476 2.583 1.107 5.166-1.107 7.749-2.214-2.583-2.583-5.166-1.107-7.748Z"/><path stroke="currentColor" stroke-linecap="round" stroke-width="1.5" d="M6 14.35c2.667 2 5.333 2 8 0"/></g></svg>