<svg xmlns="http://www.w3.org/2000/svg" width="32" height="32" viewBox="0 0 32 32"><g fill="currentColor" fill-rule="evenodd" transform="rotate(45 10.46 25.253)"><path fill-opacity="0.33" stroke="currentColor" stroke-linejoin="round" stroke-width="2" d="M3.2 15 0 17.571V21l4-.857M12.8 15l3.2 2.571V21l-4-.857"/><path fill-opacity="0.33" stroke="currentColor" stroke-linejoin="round" stroke-width="2" d="M3.2 15 0 17.571V21l4-.857M12.8 15l3.2 2.571V21l-4-.857"/><path fill-opacity="0.33" stroke="currentColor" stroke-linejoin="round" stroke-width="2" d="M8 0C2 5.333 1 12.667 5 22h6c4-9.333 3-16.667-3-22Z"/><circle cx="8" cy="10" r="2"/><path d="M7 24h2c1.333 2.333 1 4.667-1 7-2-2.333-2.333-4.667-1-7Z"/></g></svg>