<svg xmlns="http://www.w3.org/2000/svg" width="32" height="32" viewBox="0 0 32 32"><g fill="currentColor"><circle cx="7.5" cy="7.5" r="3.5" fill-opacity="0.33"/><circle cx="16" cy="7.5" r="3.5" fill-opacity="0.33"/><circle cx="24.5" cy="7.5" r="3.5" fill-opacity="0.33"/><circle cx="7.5" cy="16" r="3.5" fill-opacity="0.33"/><circle cx="24.5" cy="16" r="3.5" fill-opacity="0.33"/><circle cx="7.5" cy="24.5" r="3.5" fill-opacity="0.33"/><circle cx="16" cy="24.5" r="3.5" fill-opacity="0.33"/><circle cx="24.5" cy="24.5" r="3.5" fill-opacity="0.33"/><path fill-rule="evenodd" d="M16 4a2.602 2.602 0 0 1 2.576 2.97l-.976 6.826 6.192-3.036a2.602 2.602 0 1 1 1.592 4.9L18.59 16.84l4.802 4.95a2.602 2.602 0 1 1-4.168 3.029L16 18.722l-3.224 6.098a2.602 2.602 0 1 1-4.168-3.028l4.802-4.951-6.794-1.182a2.602 2.602 0 1 1 1.592-4.9l6.19 3.037-.974-6.826A2.602 2.602 0 0 1 16 4Z"/></g></svg>