<?xml version="1.0" encoding="UTF-8"?>
<svg width="64px" height="64px" viewBox="0 0 64 64" version="1.1" xmlns="http://www.w3.org/2000/svg" xmlns:xlink="http://www.w3.org/1999/xlink">
    <title>abacus</title>
    <g id="abacus" stroke="none" stroke-width="1" fill="none" fill-rule="evenodd">
        <path d="M56,5 C57.6568542,5 59,6.34314575 59,8 L59,56 C59,57.6568542 57.6568542,59 56,59 C54.3431458,59 53,57.6568542 53,56 L53,51 L52.8997409,51.0011864 C52.4499457,53.2142796 50.5383727,54.8963002 48.2168896,54.9953805 L48,55 C45.5814613,55 43.5639878,53.2828356 43.1002591,51.0011864 L30.8997409,51.0011864 C30.4360122,53.2828356 28.4185387,55 26,55 C23.5814613,55 21.5639878,53.2828356 21.1002591,51.0011864 L20.8997409,51.0011864 C20.4360122,53.2828356 18.4185387,55 16,55 C13.5814613,55 11.5639878,53.2828356 11.1002591,51.0011864 L11,51 L11,56 C11,57.6568542 9.65685425,59 8,59 C6.34314575,59 5,57.6568542 5,56 L5,8 C5,6.34314575 6.34314575,5 8,5 C9.65685425,5 11,6.34314575 11,8 L11,13 L11.1000563,12.999812 C11.5494794,10.7862263 13.4612782,9.10371468 15.7831104,9.00461951 L16,9 C18.4188915,9 20.4366008,10.7176654 20.8999437,12.999812 L33.1000563,12.999812 C33.5633992,10.7176654 35.5811085,9 38,9 C40.4188915,9 42.4366008,10.7176654 42.8999437,12.999812 L43.1000563,12.999812 C43.5633992,10.7176654 45.5811085,9 48,9 C50.4188915,9 52.4366008,10.7176654 52.8999437,12.999812 L53,13 L53,8 C53,6.34314575 54.3431458,5 56,5 Z M11.1002591,33.0011864 L11,33 L11,49 L11.1000563,48.999812 C11.5494794,46.7862263 13.4612782,45.1037147 15.7831104,45.0046195 L16,45 C18.4188915,45 20.4366008,46.7176654 20.8999437,48.999812 L21.1000563,48.999812 C21.5633992,46.7176654 23.5811085,45 26,45 C28.4188915,45 30.4366008,46.7176654 30.8999437,48.999812 L43.1000563,48.999812 C43.5633992,46.7176654 45.5811085,45 48,45 C50.4188915,45 52.4366008,46.7176654 52.8999437,48.999812 L53,49 L53,33 L40.8997409,33.0011864 C40.4499457,35.2142796 38.5383727,36.8963002 36.2168896,36.9953805 L36,37 C33.5814613,37 31.5639878,35.2828356 31.1002591,33.0011864 L30.8997409,33.0011864 C30.4360122,35.2828356 28.4185387,37 26,37 C23.5814613,37 21.5639878,35.2828356 21.1002591,33.0011864 L20.8997409,33.0011864 C20.4360122,35.2828356 18.4185387,37 16,37 C13.5814613,37 11.5639878,35.2828356 11.1002591,33.0011864 Z M11.1002591,15.0011864 L11,15 L11,31 L11.1000563,30.999812 C11.5633992,28.7176654 13.5811085,27 16,27 C18.4188915,27 20.4366008,28.7176654 20.8999437,30.999812 L21.1000563,30.999812 C21.5633992,28.7176654 23.5811085,27 26,27 C28.4188915,27 30.4366008,28.7176654 30.8999437,30.999812 L31.1000563,30.999812 C31.5633992,28.7176654 33.5811085,27 36,27 C38.4188915,27 40.4366008,28.7176654 40.8999437,30.999812 L53,31 L53,15 L52.8997409,15.0011864 C52.4499457,17.2142796 50.5383727,18.8963002 48.2168896,18.9953805 L48,19 C45.5814613,19 43.5639878,17.2828356 43.1002591,15.0011864 L42.8997409,15.0011864 C42.4360122,17.2828356 40.4185387,19 38,19 C35.5814613,19 33.5639878,17.2828356 33.1002591,15.0011864 L20.8997409,15.0011864 C20.4360122,17.2828356 18.4185387,19 16,19 C13.5814613,19 11.5639878,17.2828356 11.1002591,15.0011864 Z" id="Combined-Shape" fill="#000000"></path>
    </g>
</svg>