<?xml version="1.0" encoding="UTF-8"?>
<svg width="64px" height="64px" viewBox="0 0 64 64" version="1.1" xmlns="http://www.w3.org/2000/svg" xmlns:xlink="http://www.w3.org/1999/xlink">
    <title>accounts_receivable</title>
    <g id="accounts_receivable" stroke="none" stroke-width="1" fill="none" fill-rule="evenodd">
        <path d="M9.85786438,38.1421356 C2.04737854,30.3316498 2.04737854,17.6683502 9.85786438,9.85786438 C17.6683502,2.04737854 30.3316498,2.04737854 38.1421356,9.85786438 C44.9840473,16.6997761 45.8325091,27.2655402 40.6875209,35.0310378 L44.1525433,38.495689 L46.9809704,35.6672619 L46.9809704,46.9809704 L35.6672619,46.9809704 L38.495689,44.1525433 L35.030188,40.6880839 C27.2647694,45.8324473 16.6995265,44.9837978 9.85786438,38.1421356 Z M24,8 C15.163444,8 8,15.163444 8,24 C8,32.836556 15.163444,40 24,40 C32.836556,40 40,32.836556 40,24 C40,15.163444 32.836556,8 24,8 Z M24.7136293,9.368 C25.268296,9.368 25.7216293,9.5546667 26.0736293,9.928 L26.0736293,9.928 L26.1844441,10.0558025 C26.4625676,10.4055638 26.6016293,10.826963 26.6016293,11.32 L26.6016293,11.32 L26.6016293,12.484 L26.9678515,12.5573333 C27.3850367,12.6497778 27.7909626,12.7653333 28.1856293,12.904 C29.3696293,13.32 30.3349626,13.848 31.0816293,14.488 C31.700296,14.9786667 32.0096293,15.544 32.0096293,16.184 C32.0096293,16.6533333 31.828296,17.08 31.4656293,17.464 C31.1029626,17.848 30.676296,18.04 30.1856293,18.04 C29.8656293,18.04 29.5776293,17.944 29.3216293,17.752 C28.980296,17.4533333 28.5216293,17.1706667 27.9456293,16.904 L27.9456293,16.904 L27.5076293,16.712 C27.3596293,16.6506667 27.2096293,16.592 27.0576293,16.536 L27.0576293,16.536 L26.6016293,16.378 L26.6016293,22.293 L26.6136293,22.296 C27.176296,22.4346667 27.700296,22.584 28.1856293,22.744 C29.156296,23.064 29.9616293,23.4746667 30.6016293,23.976 C31.2416293,24.4773333 31.7216293,25.1066667 32.0416293,25.864 C32.3616293,26.6213333 32.5216293,27.544 32.5216293,28.632 C32.5216293,30.0186667 32.1376293,31.2133333 31.3696293,32.216 C30.6016293,33.2186667 29.5936293,33.9866667 28.3456293,34.52 L28.3456293,34.52 L27.9681893,34.672 C27.5877093,34.816 27.1981093,34.936 26.7993893,35.032 L26.7993893,35.032 L26.6016293,35.076 L26.6016293,37.048 L26.5947157,37.2295309 C26.5578433,37.7046584 26.3734812,38.1081481 26.0416293,38.44 C25.668296,38.8133333 25.204296,39 24.6496293,39 C24.116296,39 23.668296,38.8133333 23.3056293,38.44 L23.3056293,38.44 L23.1914565,38.3121975 C22.904905,37.9624362 22.7616293,37.541037 22.7616293,37.048 L22.7616293,37.048 L22.7616293,35.248 L22.395012,35.2093827 C21.6391272,35.1172016 20.929333,34.9674074 20.2656293,34.76 C19.0709626,34.3866667 17.9296293,33.7306667 16.8416293,32.792 C16.564296,32.5573333 16.3509626,32.2906667 16.2016293,31.992 C16.052296,31.6933333 15.9776293,31.3946667 15.9776293,31.096 C15.9776293,30.6053333 16.1536293,30.1733333 16.5056293,29.8 C16.8576293,29.4266667 17.300296,29.24 17.8336293,29.24 C18.2389626,29.24 18.6016293,29.368 18.9216293,29.624 C19.732296,30.2853333 20.5376293,30.7866667 21.3376293,31.128 L21.3376293,31.128 L21.5832293,31.22528 C21.9181626,31.34816 22.2829626,31.4437333 22.6776293,31.512 L22.6776293,31.512 L22.7616293,31.525 L22.7616293,25.272 L22.4996293,25.223 C21.6876293,25.061 20.9536293,24.848 20.2976293,24.584 C19.4229626,24.232 18.692296,23.784 18.1056293,23.24 C17.5189626,22.696 17.076296,22.056 16.7776293,21.32 C16.4789626,20.584 16.3296293,19.7573333 16.3296293,18.84 C16.3296293,17.4533333 16.6869626,16.2693333 17.4016293,15.288 C18.116296,14.3066667 19.0816293,13.56 20.2976293,13.048 L20.2976293,13.048 L20.6662693,12.90208 C21.2870693,12.67168 21.9398693,12.50528 22.6246693,12.40288 L22.6246693,12.40288 L22.7616293,12.385 L22.7616293,11.32 L22.7685429,11.1384691 C22.8054153,10.6633416 22.9897774,10.2598519 23.3216293,9.928 C23.6949626,9.5546667 24.1589626,9.368 24.7136293,9.368 Z M26.6016293,26.194 L26.6016293,31.221 L26.4736293,31.272 C27.1349626,31.0266667 27.668296,30.696 28.0736293,30.28 C28.4789626,29.864 28.6816293,29.3893333 28.6816293,28.856 C28.6816293,28.216 28.4896293,27.672 28.1056293,27.224 L28.1056293,27.224 L27.9701231,27.0772346 C27.6840984,26.7888395 27.3079997,26.5312593 26.8418268,26.3044938 L26.8418268,26.3044938 L26.6016293,26.194 Z M22.7616293,16.102 L22.5086293,16.158 C22.333296,16.202 22.1669626,16.2533333 22.0096293,16.312 C21.380296,16.5466667 20.9056293,16.8666667 20.5856293,17.272 C20.2656293,17.6773333 20.1056293,18.1466667 20.1056293,18.68 C20.1056293,19.32 20.292296,19.848 20.6656293,20.264 C21.0389626,20.68 21.5776293,21.0106667 22.2816293,21.256 L22.2816293,21.256 L22.5918334,21.3595102 L22.7616293,21.412 L22.7616293,16.102 Z" id="Combined-Shape" fill="#000000" fill-rule="nonzero"></path>
        <path d="M43.8045969,16.9986899 L50.2496293,17 C51.275301,17 52.1206436,17.7720804 52.2361738,18.7667577 L52.2496293,19 L52.2496293,26 L58.2496293,26 C59.4405776,26 60.3486185,27.0273757 60.2418337,28.180077 L60.2067288,28.412021 L52.2067288,58.412021 C52.028126,59.2603844 51.3271677,59.8877584 50.4830944,59.9864293 L50.2496293,60 L10.2496293,60 L10.016387,59.9865445 L9.79104763,59.9471786 L9.57511172,59.8834027 L9.37007993,59.7967177 L9.17745291,59.6886241 L9.00762928,59.568 C8.82746259,59.4231671 8.67930294,59.2581008 8.56100522,59.0721764 L8.45962928,58.89 C8.4203651,58.8131895 8.39138671,58.7447622 8.36622653,58.6745176 L8.3024507,58.4585817 L8.26308474,58.2332423 L8.24962928,58 L8.24911637,37.8895769 C9.42656117,39.2237832 10.7708836,40.4072307 12.2494234,41.4072588 L12.2496293,42.786 L12.5612632,41.6141569 C13.6900183,42.3486795 14.8937697,42.9776437 16.1585204,43.4870527 L12.7136293,56 L48.6256293,56 L55.7836293,30 L44.130296,30.0002285 C44.5130525,28.7142009 44.7759331,27.376544 44.9059797,26.0002159 L48.2496293,26 L48.2496293,21 L44.787293,20.9997177 C44.5896484,19.6180964 44.2575212,18.2798586 43.8045969,16.9986899 Z" id="Path-102" fill="#000000" fill-rule="nonzero"></path>
    </g>
</svg>