<?xml version="1.0" encoding="UTF-8"?>
<svg width="64px" height="64px" viewBox="0 0 64 64" version="1.1" xmlns="http://www.w3.org/2000/svg" xmlns:xlink="http://www.w3.org/1999/xlink">
    <title>account</title>
    <g id="account" stroke="none" stroke-width="1" fill="none" fill-rule="evenodd">
        <path d="M17.1123765,6 C18.1732425,6 19.1906581,6.42142736 19.9408036,7.17157288 L21.2899656,8.52073482 C22.0401111,9.2708803 23.0575268,9.6923077 24.1183927,9.6923077 L48,9.6923077 C50.209139,9.6923077 52,11.4831687 52,13.6923077 L52,16 L48,16 L48,13.6923077 L24.1183927,13.6923077 C22.0976957,13.6923077 20.15582,12.9278136 18.6794538,11.5589969 L18.4615385,11.349162 L17.1123764,9.99999997 L8.09805311,9.99879802 L8,10 L8,26.308 L4,46.347 L4,10 C4,7.85780461 5.68396847,6.10892112 7.80035966,6.00489531 L8,6 L17.1123765,6 Z" id="Path-30-path" fill="#000000" fill-rule="nonzero"></path>
        <path d="M56.0477186,18 C58.2924463,18 60.1121576,19.8392626 60.1121576,22.1081081 C60.1121576,22.3810126 60.0852529,22.653238 60.0318425,22.9207498 L53.4273502,56 L4.1121576,56 L11.0411485,21.2954664 C11.4238783,19.3785267 13.0904773,18 15.0252723,18 L56.0477186,18 Z M56.0477186,22 L15.0252723,22 C15.0116167,22 14.9935648,22.0111666 14.9798819,22.0344661 L14.96373,22.0786359 L8.989,52 L50.146,52 L56.1114286,22.1229782 L56.1121576,22.1081081 C56.1121576,22.0561939 56.0905149,22.0213402 56.0687404,22.007158 L56.0477186,22 Z" id="Path-31-path" fill="#000000" fill-rule="nonzero"></path>
        <path d="M28.8478968,38.0810142 C27.8528717,37.5691932 27.5992363,35.6500938 27.5992363,35.6500938 C27.5992363,35.6500938 26.1474581,33.8044268 26.1474581,32.4362748 C26.1474581,31.0681229 26.7696487,31.2310927 26.7696487,31.2310927 C26.7696487,31.2310927 24.8479518,24 32,24 C39.1520482,24 37.5542865,31.2310927 37.5542865,31.2310927 C37.5542865,31.2310927 38.1764771,31.0245507 38.1764771,32.4362748 C38.1764771,33.8479989 36.724699,35.8509575 36.724699,35.8509575 C36.724699,35.8509575 36.3420888,37.5575943 35.2872852,38.0810142 C36.1045,38.7005981 37.5542865,40.049536 37.5542865,40.049536 C37.5542865,40.049536 41.7012275,40.9217115 42.4852209,41.876868 C43.2692142,42.8320247 45,45.7375742 45,47.8687871 C45,50 32,50 32,50 C32,50 19,50 19,47.8687871 C19,45.7375742 20.6222664,42.5930586 21.5847267,41.876868 C22.547187,41.1606775 26.8632032,39.5540898 28.8478968,38.0810142 Z" id="Path-11-Copy" fill="#000000" fill-rule="nonzero"></path>
    </g>
</svg>