<?xml version="1.0" encoding="UTF-8"?>
<svg width="64px" height="64px" viewBox="0 0 64 64" version="1.1" xmlns="http://www.w3.org/2000/svg" xmlns:xlink="http://www.w3.org/1999/xlink">
    <title>accounts_payable</title>
    <g id="accounts_payable" stroke="none" stroke-width="1" fill="none" fill-rule="evenodd">
        <path d="M51.1421356,41.123106 C43.3316498,48.9335918 30.6683502,48.9335918 22.8578644,41.123106 C15.0473785,33.3126202 15.0473785,20.6493206 22.8578644,12.8388348 C29.6997761,5.99692308 40.2655402,5.14846127 48.0310378,10.2934495 L51.495689,6.82842712 L48.6672619,4 L59.9809704,4 L59.9809704,15.3137085 L57.1525433,12.4852814 L53.6880839,15.9507824 C58.8324473,23.716201 57.9837978,34.2814439 51.1421356,41.123106 Z M37,11 C28.163444,11 21,18.163444 21,27 C21,35.836556 28.163444,43 37,43 C45.836556,43 53,35.836556 53,27 C53,18.163444 45.836556,11 37,11 Z M37.7136293,12.368 C38.268296,12.368 38.7216293,12.5546667 39.0736293,12.928 L39.0736293,12.928 L39.1844441,13.0558025 C39.4625676,13.4055638 39.6016293,13.826963 39.6016293,14.32 L39.6016293,14.32 L39.6016293,15.484 L39.9678515,15.5573333 C40.3850367,15.6497778 40.7909626,15.7653333 41.1856293,15.904 C42.3696293,16.32 43.3349626,16.848 44.0816293,17.488 C44.700296,17.9786667 45.0096293,18.544 45.0096293,19.184 C45.0096293,19.6533333 44.828296,20.08 44.4656293,20.464 C44.1029626,20.848 43.676296,21.04 43.1856293,21.04 C42.8656293,21.04 42.5776293,20.944 42.3216293,20.752 C41.980296,20.4533333 41.5216293,20.1706667 40.9456293,19.904 L40.9456293,19.904 L40.5076293,19.712 C40.3596293,19.6506667 40.2096293,19.592 40.0576293,19.536 L40.0576293,19.536 L39.6016293,19.378 L39.6016293,25.293 L39.6136293,25.296 C40.176296,25.4346667 40.700296,25.584 41.1856293,25.744 C42.156296,26.064 42.9616293,26.4746667 43.6016293,26.976 C44.2416293,27.4773333 44.7216293,28.1066667 45.0416293,28.864 C45.3616293,29.6213333 45.5216293,30.544 45.5216293,31.632 C45.5216293,33.0186667 45.1376293,34.2133333 44.3696293,35.216 C43.6016293,36.2186667 42.5936293,36.9866667 41.3456293,37.52 L41.3456293,37.52 L40.9681893,37.672 C40.5877093,37.816 40.1981093,37.936 39.7993893,38.032 L39.7993893,38.032 L39.6016293,38.076 L39.6016293,40.048 L39.5947157,40.2295309 C39.5578433,40.7046584 39.3734812,41.1081481 39.0416293,41.44 C38.668296,41.8133333 38.204296,42 37.6496293,42 C37.116296,42 36.668296,41.8133333 36.3056293,41.44 L36.3056293,41.44 L36.1914565,41.3121975 C35.904905,40.9624362 35.7616293,40.541037 35.7616293,40.048 L35.7616293,40.048 L35.7616293,38.248 L35.395012,38.2093827 C34.6391272,38.1172016 33.929333,37.9674074 33.2656293,37.76 C32.0709626,37.3866667 30.9296293,36.7306667 29.8416293,35.792 C29.564296,35.5573333 29.3509626,35.2906667 29.2016293,34.992 C29.052296,34.6933333 28.9776293,34.3946667 28.9776293,34.096 C28.9776293,33.6053333 29.1536293,33.1733333 29.5056293,32.8 C29.8576293,32.4266667 30.300296,32.24 30.8336293,32.24 C31.2389626,32.24 31.6016293,32.368 31.9216293,32.624 C32.732296,33.2853333 33.5376293,33.7866667 34.3376293,34.128 L34.3376293,34.128 L34.5832293,34.22528 C34.9181626,34.34816 35.2829626,34.4437333 35.6776293,34.512 L35.6776293,34.512 L35.7616293,34.525 L35.7616293,28.272 L35.4996293,28.223 C34.6876293,28.061 33.9536293,27.848 33.2976293,27.584 C32.4229626,27.232 31.692296,26.784 31.1056293,26.24 C30.5189626,25.696 30.076296,25.056 29.7776293,24.32 C29.4789626,23.584 29.3296293,22.7573333 29.3296293,21.84 C29.3296293,20.4533333 29.6869626,19.2693333 30.4016293,18.288 C31.116296,17.3066667 32.0816293,16.56 33.2976293,16.048 L33.2976293,16.048 L33.6662693,15.90208 C34.2870693,15.67168 34.9398693,15.50528 35.6246693,15.40288 L35.6246693,15.40288 L35.7616293,15.385 L35.7616293,14.32 L35.7685429,14.1384691 C35.8054153,13.6633416 35.9897774,13.2598519 36.3216293,12.928 C36.6949626,12.5546667 37.1589626,12.368 37.7136293,12.368 Z M39.6016293,29.194 L39.6016293,34.221 L39.4736293,34.272 C40.1349626,34.0266667 40.668296,33.696 41.0736293,33.28 C41.4789626,32.864 41.6816293,32.3893333 41.6816293,31.856 C41.6816293,31.216 41.4896293,30.672 41.1056293,30.224 L41.1056293,30.224 L40.9701231,30.0772346 C40.6840984,29.7888395 40.3079997,29.5312593 39.8418268,29.3044938 L39.8418268,29.3044938 L39.6016293,29.194 Z M35.7616293,19.102 L35.5086293,19.158 C35.333296,19.202 35.1669626,19.2533333 35.0096293,19.312 C34.380296,19.5466667 33.9056293,19.8666667 33.5856293,20.272 C33.2656293,20.6773333 33.1056293,21.1466667 33.1056293,21.68 C33.1056293,22.32 33.292296,22.848 33.6656293,23.264 C34.0389626,23.68 34.5776293,24.0106667 35.2816293,24.256 L35.2816293,24.256 L35.5918334,24.3595102 L35.7616293,24.412 L35.7616293,19.102 Z" id="Combined-Shape" fill="#000000" fill-rule="nonzero"></path>
        <path d="M18.5292517,16.9999798 L11.0776293,17 L8.24962928,19.828 L8.24962928,42.786 L12.2925297,27.587979 C12.4711325,26.7396156 13.1720909,26.1122416 14.0161641,26.0135707 L14.2496293,26 L16.0233998,25.9997947 C16.007858,26.3312451 16,26.6647049 16,27 C16,28.0186618 16.0725298,29.0203834 16.212707,30.0002823 L15.8716293,30 L8.71362928,56 L44.6256293,56 L47.6212366,45.1199001 C49.6312402,43.9391633 51.427397,42.4335324 52.9375642,40.6751503 L48.2067288,58.412021 C48.028126,59.2603844 47.3271677,59.8877584 46.4830944,59.9864293 L46.2496293,60 L6.24962928,60 L6.01638703,59.9865445 L5.79104763,59.9471786 L5.57511172,59.8834027 L5.37007993,59.7967177 L5.17745291,59.6886241 L5.00762928,59.568 C4.82746259,59.4231671 4.67930294,59.2581008 4.56100522,59.0721764 L4.45962928,58.89 C4.4203651,58.8131895 4.39138671,58.7447622 4.36622653,58.6745176 L4.3024507,58.4585817 L4.26308474,58.2332423 L4.24962928,58 L4.24962928,19 C4.24962928,18.5579725 4.39595822,18.1310319 4.66179053,17.783941 L4.83541571,17.5857864 L8.83541571,13.5857864 C9.14797635,13.2732258 9.55333911,13.0748034 9.98674132,13.0173449 L10.2496293,13 L21.3488073,12.9982653 C20.2611997,14.2131668 19.3129691,15.5554505 18.5292517,16.9999798 Z" id="Path-102" fill="#000000" fill-rule="nonzero"></path>
    </g>
</svg>