<?xml version="1.0" encoding="UTF-8"?>
<svg width="64px" height="64px" viewBox="0 0 64 64" version="1.1" xmlns="http://www.w3.org/2000/svg" xmlns:xlink="http://www.w3.org/1999/xlink">
    <title>active</title>
    <g id="active" stroke="none" stroke-width="1" fill="none" fill-rule="evenodd">
        <path d="M32,4 C47.463973,4 60,16.536027 60,32 C60,47.463973 47.463973,60 32,60 C16.536027,60 4,47.463973 4,32 C4,16.536027 16.536027,4 32,4 Z M32,8 C18.745166,8 8,18.745166 8,32 C8,45.254834 18.745166,56 32,56 C45.254834,56 56,45.254834 56,32 C56,18.745166 45.254834,8 32,8 Z" id="Oval" fill="#000000" fill-rule="nonzero"></path>
        <path d="M21,16 L21,48 C21,49.5973908 22.7802909,50.5501736 24.1094004,49.6641006 L48.1094004,33.6641006 C49.2968665,32.8724565 49.2968665,31.1275435 48.1094004,30.3358994 L24.1094004,14.3358994 C22.7802909,13.4498264 21,14.4026092 21,16 Z M25,19.737 L43.393,32 L25,44.262 L25,19.737 Z" id="Path-139" fill="#000000" fill-rule="nonzero"></path>
    </g>
</svg>