<svg xmlns="http://www.w3.org/2000/svg" width="32" height="32" viewBox="0 0 32 32">
  <g fill="none" fill-rule="evenodd">
    <path fill="#000" fill-rule="nonzero" d="M22.7746724,17.0467902 C24.5553997,19.2176709 25.630875,22.5289052 25.9965458,26.9169545 C26.0451307,27.4999738 25.5850401,28 25,28 L25,28 L7,28 C6.41495985,28 5.9548693,27.4999738 6.00345424,26.9169545 C6.19309693,24.6412422 6.57365042,22.6551528 7.14447967,20.9675491 L8.73860106,22.5600891 C8.4680727,23.5626656 8.25947167,24.6836991 8.11262495,25.9256046 L8.11262495,25.9256046 L8.104,26 L23.895,26 L23.8411846,25.554488 C23.4279949,22.3957235 22.59908,20.0487955 21.3514188,18.4715389 Z M16,4 C19.3137085,4 22,6.6862915 22,10 C22,11.0680172 21.7209506,12.0708589 21.2317841,12.939593 L17.9413036,16.2296021 C17.4105758,16.0944412 16.845638,16.019324 16.24642,16.0032736 L16.24642,16.0032736 L16,16 C13.6590377,16 11.8254939,16.872105 10.4953842,18.6719229 L9.06743153,17.2446478 C9.95636802,16.0997947 11.0297225,15.252581 12.2868864,14.7115003 C10.8939089,13.6143049 10,11.9115442 10,10 C10,6.6862915 12.6862915,4 16,4 Z M16,6 C13.790861,6 12,7.790861 12,10 C12,12.209139 13.790861,14 16,14 C18.209139,14 20,12.209139 20,10 C20,7.790861 18.209139,6 16,6 Z"/>
    <path fill="#000" fill-rule="nonzero" d="M26.2928932,9.29289322 C26.6834175,8.90236893 27.3165825,8.90236893 27.7071068,9.29289322 C28.0675907,9.65337718 28.0953203,10.2206082 27.7902954,10.6128994 L27.7071068,10.7071068 L13.7071068,24.7071068 C13.3466228,25.0675907 12.7793918,25.0953203 12.3871006,24.7902954 L12.2928932,24.7071068 L4.29289322,16.7071068 C3.90236893,16.3165825 3.90236893,15.6834175 4.29289322,15.2928932 C4.65337718,14.9324093 5.22060824,14.9046797 5.61289944,15.2097046 L5.70710678,15.2928932 L13,22.585 L26.2928932,9.29289322 Z"/>
  </g>
</svg>
