<?xml version="1.0" encoding="UTF-8"?>
<svg width="64px" height="64px" viewBox="0 0 64 64" version="1.1" xmlns="http://www.w3.org/2000/svg" xmlns:xlink="http://www.w3.org/1999/xlink">
    <title>action_log</title>
    <g id="action_log" stroke="none" stroke-width="1" fill="none" fill-rule="evenodd">
        <g id="pencil" transform="translate(24.443152, 8.000000)" fill="#000000">
            <polygon id="Path-2" points="25.046496 4 31.5568482 10.5103522 11.0672004 31 4.5568482 24.4896478"></polygon>
            <polygon id="Path-2-Copy" points="10 32.2235149 0 35.5568482 3.33333333 25.5568482"></polygon>
            <path d="M26.4431518,2.39172509 L28.1897039,0.645172967 C29.0499345,-0.215057656 30.444644,-0.215057656 31.3048746,0.645172967 L34.7979788,4.13827721 C35.6582094,4.99850784 35.6582094,6.39321725 34.7979788,7.25344792 L33.0514267,9 L26.4431518,2.39172509 Z" id="Path-3"></path>
        </g>
        <path d="M28,6 C28.2869012,6 28.5723914,6.00181231 28.8563504,6.00540084 L29.7035134,6.02145905 L30.5407676,6.04795816 L31.3673914,6.0846817 C31.5042361,6.0916423 31.6406077,6.09901989 31.7764914,6.10680998 L32.5858165,6.15846428 C32.8535592,6.17730828 33.1192296,6.19776615 33.3827073,6.21980183 L34.1664421,6.29060615 L34.9362995,6.37066079 L35.6915577,6.45974927 L36.4314954,6.55765512 C36.5535015,6.57469552 36.6748392,6.59209428 36.7954934,6.60984691 L37.5110972,6.72057293 L38.2095763,6.83957514 L38.8902094,6.96663707 L39.5522747,7.10154226 L39.876119,7.17186842 L39.876119,7.17186842 L40.5089798,7.3181326 L41.121469,7.47169885 L41.7128651,7.63235071 L42.2824463,7.7998717 L42.8294913,7.97404536 C43.1865155,8.09233058 43.5280344,8.21490659 43.8530859,8.34148477 L44.3281925,8.53431759 C46.1460118,9.30371985 47.3747704,10.2072062 47.8173334,11.1856361 L43.0515995,15.9511292 C42.9782484,15.9762572 42.9042094,16.0011999 42.8294913,16.0259546 L42.2824463,16.2001283 L41.7128651,16.3676493 L41.121469,16.5283011 L40.5089798,16.6818674 L39.876119,16.8281316 L39.5522747,16.8984577 L39.5522747,16.8984577 L38.8902094,17.0333629 L38.2095763,17.1604249 L37.5110972,17.2794271 L36.7954934,17.3901531 L36.0634867,17.4923864 C35.9401588,17.5087056 35.8161774,17.5246619 35.6915577,17.5402507 L34.9362995,17.6293392 L34.1664421,17.7093938 L33.3827073,17.7801982 C33.2509684,17.791216 33.1186814,17.8018394 32.9858613,17.8120638 L32.1826631,17.8685868 C31.9128781,17.8858079 31.6410807,17.9013971 31.3673914,17.9153183 L30.5407676,17.9520418 L29.7035134,17.9785409 L28.8563504,17.9945992 L28,18 L27.1436496,17.9945992 L26.2964866,17.9785409 L25.4592324,17.9520418 L24.6326086,17.9153183 C24.4957639,17.9083577 24.3593923,17.9009801 24.2235086,17.89319 L23.4141835,17.8415357 C23.1464408,17.8226917 22.8807704,17.8022338 22.6172927,17.7801982 L21.8335579,17.7093938 L21.0637005,17.6293392 L20.3084423,17.5402507 L19.5685046,17.4423449 C19.4464985,17.4253045 19.3251608,17.4079057 19.2045066,17.3901531 L18.4889028,17.2794271 L17.7904237,17.1604249 L17.1097906,17.0333629 L16.4477253,16.8984577 L16.123881,16.8281316 L16.123881,16.8281316 L15.4910202,16.6818674 L14.878531,16.5283011 L14.2871349,16.3676493 L13.7175537,16.2001283 L13.1705087,16.0259546 C12.8134845,15.9076694 12.4719656,15.7850934 12.1469141,15.6585152 L12,15.599 L12.0000043,24.8053369 C16.1940683,26.9249454 21.5222101,28 28,28 C29.0696727,28 30.1073854,27.963081 31.1133333,27.8893703 L27.0084083,31.9920074 C21.2255932,31.8980557 16.2196057,30.9754807 11.9993291,29.2068803 L12.0000043,37.8053369 C15.2599712,39.4528686 19.2051094,40.4693164 23.8427307,40.840357 L22.4536158,44.7301998 C18.5553319,44.3323473 15.0694297,43.4934739 11.9993291,42.2068803 L12,50.883 C15.5265265,52.8797381 20.6595898,53.9385274 27.4009962,53.9974018 L28,54 C35.0038886,54 40.2831979,52.6794395 43.8783333,50.1124923 L44,50.023 L44.0007398,41.5551384 C39.5337772,43.857681 34.1910497,45 28,45 C26.9815476,45 25.9864573,44.9750937 25.0147754,44.9251903 L36,41 L37.0743527,39.9284414 C39.656205,39.251174 41.9634599,38.2540219 44.0011803,36.9402888 L44,33 L48,29 L48,51 C48,51.5935597 47.736354,52.1564549 47.2803688,52.5364426 C42.8720355,56.2100536 36.4282286,58 28,58 C19.6402496,58 13.2715483,56.5847331 8.89059961,53.6641006 C8.38056872,53.32408 8.0572434,52.7710229 8.00689773,52.1661337 L8,52 L8,12 C8,10.7089447 9.35922997,9.51312903 11.6718075,8.53431759 L12.1469141,8.34148477 C12.4719656,8.21490659 12.8134845,8.09233058 13.1705087,7.97404536 L13.7175537,7.7998717 L14.2871349,7.63235071 L14.878531,7.47169885 L15.4910202,7.3181326 L16.123881,7.17186842 L16.4477253,7.10154226 L16.4477253,7.10154226 L17.1097906,6.96663707 L17.7904237,6.83957514 L18.4889028,6.72057293 L19.2045066,6.60984691 L19.9365133,6.50761355 C20.0598412,6.49129441 20.1838226,6.47533815 20.3084423,6.45974927 L21.0637005,6.37066079 L21.8335579,6.29060615 L22.6172927,6.21980183 C22.7490316,6.20878399 22.8813186,6.1981606 23.0141387,6.18793617 L23.8173369,6.13141319 C24.0871219,6.11419209 24.3589193,6.0986029 24.6326086,6.0846817 L25.4592324,6.04795816 L26.2964866,6.02145905 L27.1436496,6.00540084 C27.2856291,6.00360657 27.4279914,6.00225636 27.5707215,6.00135472 L28,6 Z M28,10 C22.9904794,10 18.3327512,10.5910159 15.0072559,11.5886645 C14.6986586,11.6812437 14.4066647,11.7759762 14.1323977,11.8718951 L13.781,12 L13.8640812,12.0318265 C14.1264055,12.1284287 14.4068311,12.224167 14.7042347,12.3180744 L15.0072559,12.4113355 C18.3327512,13.4089841 22.9904794,14 28,14 C33.0095206,14 37.6672488,13.4089841 40.9927441,12.4113355 C41.3013414,12.3187563 41.5933353,12.2240238 41.8676023,12.1281049 L42.218,11.999 L42.1359188,11.9681735 C41.8735945,11.8715713 41.5931689,11.775833 41.2957653,11.6819256 L40.9927441,11.5886645 C37.6672488,10.5910159 33.0095206,10 28,10 Z" id="Combined-Shape-Copy-3" fill="#000000" fill-rule="nonzero"></path>
    </g>
</svg>