<?xml version="1.0" encoding="UTF-8"?>
<svg width="64px" height="64px" viewBox="0 0 64 64" version="1.1" xmlns="http://www.w3.org/2000/svg" xmlns:xlink="http://www.w3.org/1999/xlink">
    <title>activity_low</title>
    <g id="activity_low" stroke="none" stroke-width="1" fill="none" fill-rule="evenodd">
        <path d="M32,4 C47.463973,4 60,16.536027 60,32 C60,47.463973 47.463973,60 32,60 C16.536027,60 4,47.463973 4,32 C4,16.536027 16.536027,4 32,4 Z M42.157,28.398 L33.6071144,39.9404551 C32.9632651,40.8096517 31.7539617,41.0026882 30.8757126,40.4042185 L30.7465702,40.3084973 L21.467,32.845 L16.3761445,33.8206934 C16.293495,33.8365199 16.2099703,33.8471064 16.1260699,33.8524056 L16,33.856383 L8.07073517,33.8564451 C9.01837492,46.243769 19.3698425,56 32,56 C44.6301575,56 54.9816251,46.243769 55.9292648,33.8564451 L48,33.856383 C47.436175,33.856383 46.8985417,33.6183956 46.5194728,33.2010164 L42.157,28.398 Z M32,8 C19.4676911,8 9.17890181,17.6056493 8.09444981,29.8561301 L15.811,29.856 L21.6238555,28.7431364 C22.1426361,28.6437955 22.6771231,28.7540455 23.112232,29.0452271 L23.2534298,29.1489495 L31.631,35.886 L40.3928856,24.0595449 C41.1433984,23.0463527 42.632814,22.9719802 43.4805272,23.9053666 L48.885,29.856 L55.9055502,29.8561301 C54.8210982,17.6056493 44.5323089,8 32,8 Z" id="Oval" fill="#000000" fill-rule="nonzero"></path>
    </g>
</svg>