<?xml version="1.0" encoding="UTF-8"?>
<svg width="64px" height="64px" viewBox="0 0 64 64" version="1.1" xmlns="http://www.w3.org/2000/svg" xmlns:xlink="http://www.w3.org/1999/xlink">
    <title>activity_high</title>
    <g id="activity_high" stroke="none" stroke-width="1" fill="none" fill-rule="evenodd">
        <path d="M32,4 C47.463973,4 60,16.536027 60,32 C60,47.463973 47.463973,60 32,60 C16.536027,60 4,47.463973 4,32 C4,16.536027 16.536027,4 32,4 Z M42.176,21.6860614 L33.9502657,48.8324473 C33.5061602,50.2979928 30.8182807,50.401506 30.1348416,49.0432675 L30.081269,48.9232649 L21.515,27.0800523 L17.7888544,32.6708633 C17.4742692,33.1427402 16.8546716,33.453229 16.1612305,33.4951769 L16,33.5000415 L8.04613303,33.5003251 C8.82058759,46.0562662 19.2490521,56 32,56 C44.7890598,56 55.2417318,45.9967349 55.9605524,33.3876683 C55.5862128,33.4995714 55.1114189,33.5373204 54.5357707,33.5008734 L48,33.5000415 C47.151151,33.5000415 46.4011434,33.0990062 46.1180007,32.5077564 L46.0704724,32.3947195 L42.176,21.6860614 Z M32,8 C19.2487148,8 8.8200359,17.9442598 8.04607159,30.5006712 L14.764,30.5000546 L20.2111456,22.3292399 C20.9988669,21.14766 23.2632276,21.2614611 23.8670803,22.4611634 L23.918731,22.5768105 L31.751,42.5502762 L40.0497343,15.1676408 C40.4984004,13.6870451 43.2240254,13.6023897 43.8785951,14.9834304 L43.9295276,15.1053964 L49.527,30.5000546 L54.5351985,30.4999562 C55.1109804,30.463336 55.5858845,30.5009421 55.9599109,30.6127747 C55.2422832,18.0037927 44.7893971,8 32,8 Z" id="Oval" fill="#000000" fill-rule="nonzero"></path>
    </g>
</svg>