<?xml version="1.0" encoding="UTF-8"?>
<svg width="64px" height="64px" viewBox="0 0 64 64" version="1.1" xmlns="http://www.w3.org/2000/svg" xmlns:xlink="http://www.w3.org/1999/xlink">
    <title>activity_medium</title>
    <g id="activity_medium" stroke="none" stroke-width="1" fill="none" fill-rule="evenodd">
        <path d="M32,4 C47.463973,4 60,16.536027 60,32 C60,47.463973 47.463973,60 32,60 C16.536027,60 4,47.463973 4,32 C4,16.536027 16.536027,4 32,4 Z M42.165,24.803 L33.8461538,44.7692308 C33.2637544,46.1669895 31.4175812,46.4219182 30.4704704,45.2891641 L30.3725331,45.1624764 L21.231,32.364 L16.6324555,33.8973666 C16.4795058,33.9483498 16.3211418,33.9805895 16.1608311,33.9935229 L16,34 L8.08218805,34.0004908 C9.09872345,46.3193182 19.4188395,56 32,56 C44.5808189,56 54.9007161,46.3198439 55.9177291,34.0014942 L48,34 C47.2965662,34 46.6491937,33.6309551 46.2890514,33.0357355 L46.2111456,32.8944272 L42.165,24.803 Z M32,8 C19.4184979,8 9.098163,17.6812076 8.08210526,30.0005127 L15.673,30 L21.3675445,28.1026334 C22.148438,27.8423355 23.0028815,28.0880472 23.5271378,28.7084797 L23.6274669,28.8375236 L31.536,39.91 L40.1538462,19.2307692 C40.7904398,17.7029444 42.8774697,17.5808666 43.707576,18.9577823 L43.7888544,19.1055728 L49.235,30 L55.917812,29.9995092 C54.9012766,17.6806818 44.5811605,8 32,8 Z" id="Oval" fill="#000000" fill-rule="nonzero"></path>
    </g>
</svg>