<?xml version="1.0" encoding="UTF-8"?>
<svg width="64px" height="64px" viewBox="0 0 64 64" version="1.1" xmlns="http://www.w3.org/2000/svg" xmlns:xlink="http://www.w3.org/1999/xlink">
    <title>address1</title>
    <g id="address1" stroke="none" stroke-width="1" fill="none" fill-rule="evenodd">
        <path d="M57.6363636,12 L19.8181818,12 C19.2456544,12 18.6925872,12.1953739 18.2617164,12.5498296 L8.80717093,20.3276073 C7.73094302,21.2129658 7.73094302,22.7870342 8.80717093,23.6723927 L18.2617164,31.4501704 C18.6925872,31.8046261 19.2456544,32 19.8181818,32 L57.6363636,32 C58.941764,32 60,31.0050772 60,29.7777778 L60,14.2222222 C60,12.9949228 58.941764,12 57.6363636,12 Z M55.2727273,16.4444444 L55.2727273,27.5555556 L20.7069091,27.5555556 L13.9516364,22 L20.7045455,16.4444444 L55.2727273,16.4444444 Z" id="Path-110-Copy" fill="#000000" fill-rule="nonzero" transform="translate(34.000000, 22.000000) scale(-1, 1) translate(-34.000000, -22.000000) "></path>
        <path d="M34,32 L38,32 L38,59 C38,59.5522847 37.5522847,60 37,60 L35,60 C34.4477153,60 34,59.5522847 34,59 L34,32 L34,32 Z" id="Rectangle" fill="#000000"></path>
        <path d="M26,32 L30,32 L30,59 C30,59.5522847 29.5522847,60 29,60 L27,60 C26.4477153,60 26,59.5522847 26,59 L26,32 L26,32 Z" id="Rectangle-Copy-3" fill="#000000"></path>
        <path d="M36,4 C37.0256717,4 37.8710143,4.77208038 37.9865445,5.76675775 L38,6 L38,12 L34,12 L34,8 L30,8 L30,12 L26,12 L26,6 C26,4.97432832 26.7720804,4.12898568 27.7667577,4.01345546 L28,4 L36,4 Z" id="Path-111" fill="#000000" fill-rule="nonzero"></path>
    </g>
</svg>