<?xml version="1.0" encoding="UTF-8"?>
<svg width="64px" height="64px" viewBox="0 0 64 64" version="1.1" xmlns="http://www.w3.org/2000/svg" xmlns:xlink="http://www.w3.org/1999/xlink">
    <title>adjustment</title>
    <g id="adjustment" stroke="none" stroke-width="1" fill="none" fill-rule="evenodd">
        <path d="M54.2857143,6 C56.3370576,6 58,7.66294236 58,9.71428571 L58,54.2857143 C58,56.3370576 56.3370576,58 54.2857143,58 L9.71428571,58 C7.66294236,58 6,56.3370576 6,54.2857143 L6,9.71428571 C6,7.66294236 7.66294236,6 9.71428571,6 L54.2857143,6 Z M54,13.606 L13.606,54 L54,54 L54,13.606 Z M50.392,10 L10,10 L10,50.392 L50.392,10 Z M49.8,41 C51.0150265,41 52,41.8954305 52,43 C52,44.0603867 51.0922484,44.928031 49.9446506,44.9957458 L49.8,45 L32.2,45 C30.9849735,45 30,44.1045695 30,43 C30,41.9396133 30.9077516,41.071969 32.0553494,41.0042542 L32.2,41 L49.8,41 Z M23,12 C24.0603867,12 24.928031,12.9077516 24.9957458,14.0553494 L25,14.2 L25,21 L31.8,21 C33.0150265,21 34,21.8954305 34,23 C34,24.0603867 33.0922484,24.928031 31.9446506,24.9957458 L31.8,25 L25,25 L25,31.8 C25,33.0150265 24.1045695,34 23,34 C21.9396133,34 21.071969,33.0922484 21.0042542,31.9446506 L21,31.8 L21,25 L14.2,25 C12.9849736,25 12,24.1045695 12,23 C12,21.9396133 12.9077516,21.071969 14.0553494,21.0042542 L14.2,21 L21,21 L21,14.2 C21,12.9849736 21.8954305,12 23,12 Z" id="Combined-Shape" fill="#000000" fill-rule="nonzero"></path>
    </g>
</svg>