<?xml version="1.0" encoding="UTF-8"?>
<svg width="64px" height="64px" viewBox="0 0 64 64" version="1.1" xmlns="http://www.w3.org/2000/svg" xmlns:xlink="http://www.w3.org/1999/xlink">
    <title>administration</title>
    <g id="administration" stroke="none" stroke-width="1" fill="none" fill-rule="evenodd">
        <path d="M52.043625,31.9433974 C52.0435,29.3235948 53.6865,27.0875429 56,26.2006026 C55.389125,23.6489974 54.380375,21.2509922 53.042,19.0767792 C52.245125,19.4303584 51.38825,19.6071481 50.53175,19.6071481 C48.954125,19.6071481 47.377,19.0073351 46.172875,17.806587 C44.315,15.9535377 43.891875,13.2128 44.900375,10.9531844 C42.721,9.61741299 40.3175,8.61028571 37.75925,8 C36.871375,10.3101091 34.628375,11.950961 32,11.950961 C29.371875,11.950961 27.128875,10.3101091 26.240875,8 C23.682625,8.61028571 21.27925,9.61741299 19.099875,10.9533091 C20.108375,13.2126753 19.68525,15.9532883 17.82725,17.8067117 C16.623375,19.0074597 15.046,19.6073974 13.468375,19.6073974 C12.611625,19.6073974 11.755125,19.4304831 10.958,19.0769039 C9.61975,21.2509922 8.61075,23.6488727 8,26.2006026 C10.313625,27.0872935 11.9565,29.3235948 11.9565,31.9433974 C11.9565,34.5625766 10.315,36.7977558 8.00275,37.6851948 C8.615,40.2368 9.62475,42.6338078 10.96425,44.8076468 C11.759375,44.4559377 12.614,44.2800208 13.46825,44.2800208 C15.046,44.2800208 16.623125,44.8799584 17.827125,46.0807065 C19.68225,47.931013 20.107,50.6663896 19.104,52.9240104 C21.28375,54.2592831 23.687,55.265787 26.24525,55.8754494 C27.13625,53.571574 29.376,51.9362078 32,51.9362078 C34.624,51.9362078 36.86375,53.5713247 37.754625,55.8754494 C40.313125,55.265787 42.71625,54.2591584 44.896125,52.923761 C43.89325,50.6663896 44.317875,47.931013 46.173125,46.0807065 C47.37675,44.8798338 48.954125,44.2798961 50.531625,44.2798961 C51.386125,44.2798961 52.240375,44.455813 53.03575,44.8076468 C54.37525,42.6338078 55.385,40.2368 55.99725,37.6851948 C53.685,36.7976312 52.043625,34.5623273 52.043625,31.9433974 L52.043625,31.9433974 Z M32.1100006,43.9500008 C25.4650006,43.9500008 20.1100006,38.5650008 20.1100006,31.9500008 C20.1100006,25.3348508 25.4650006,19.9500008 32.1100006,19.9500008 C38.7548506,19.9500008 44.1100006,25.3348508 44.1100006,31.9500008 C44.1100006,38.5650008 38.7548506,43.9500008 32.1100006,43.9500008 L32.1100006,43.9500008 Z" id="Shape" fill="#000000" fill-rule="nonzero"></path>
    </g>
</svg>