<?xml version="1.0" encoding="UTF-8"?>
<svg width="64px" height="64px" viewBox="0 0 64 64" version="1.1" xmlns="http://www.w3.org/2000/svg" xmlns:xlink="http://www.w3.org/1999/xlink">
    <title>admin</title>
    <g id="admin" stroke="none" stroke-width="1" fill="none" fill-rule="evenodd">
        <path d="M56.9502943,41.5043841 C56.9501979,39.4796993 58.2166771,37.7515918 60,37.06613 C59.5291172,35.0941508 58.7515391,33.2408796 57.719875,31.5605636 C57.1056172,31.8338233 56.4451094,31.9704532 55.7848906,31.9704532 C54.5688047,31.9704532 53.3531042,31.5068945 52.4249245,30.5789099 C50.9928125,29.1468017 50.6666536,27.0286536 51.4440391,25.2823352 C49.7641042,24.2499993 47.9114062,23.4716524 45.9394219,23 C45.2550182,24.7853417 43.5260391,26.0534556 41.5,26.0534556 C39.4741536,26.0534556 37.7451745,24.7853417 37.0606745,23 C35.0886901,23.4716524 33.2360885,24.2499993 31.5561536,25.2824316 C32.3335391,27.0285572 32.0073802,29.146609 30.5751719,30.5790063 C29.6471849,31.5069908 28.4312917,31.9706459 27.2152057,31.9706459 C26.5547943,31.9706459 25.8945755,31.8339197 25.280125,31.56066 C24.2485573,33.2408796 23.4707865,35.0940544 23,37.06613 C24.7834193,37.7513991 26.0498021,39.4796993 26.0498021,41.5043841 C26.0498021,43.5285871 24.7844792,45.2560201 23.0021198,45.9418673 C23.4740625,47.9138466 24.2524115,49.7663469 25.2849427,51.4463738 C25.8978516,51.1745594 26.556625,51.0386041 27.2151094,51.0386041 C28.4312917,51.0386041 29.6469922,51.502259 30.5750755,52.4302436 C32.0050677,53.8602321 32.3324792,55.974237 31.5593333,57.7190137 C33.2395573,58.7509641 35.0920625,59.5288293 37.0640469,60 C37.7508594,58.2194759 39.4773333,56.9556016 41.5,56.9556016 C43.5226667,56.9556016 45.2491406,58.2192833 45.9358568,60 C47.9080339,59.5288293 49.7604427,58.7508678 51.440763,57.718821 C50.6677135,55.974237 50.9950286,53.8602321 52.4251172,52.4302436 C53.3529115,51.5021628 54.5688047,51.0385077 55.7847943,51.0385077 C56.4434714,51.0385077 57.1019557,51.1744631 57.7150573,51.4463738 C58.7475885,49.7663469 59.5259375,47.9138466 59.9978802,45.9418673 C58.2155208,45.2559238 56.9502943,43.5283945 56.9502943,41.5043841 L56.9502943,41.5043841 Z M41.5,52 C35.685625,52 31,47.288125 31,41.5 C31,35.7117437 35.685625,31 41.5,31 C47.3142438,31 52,35.7117437 52,41.5 C52,47.288125 47.3142438,52 41.5,52 L41.5,52 Z" id="Shape" fill="#000000" fill-rule="nonzero"></path>
        <path d="M28,4 C35.4144318,4 39.6042179,7.84936389 39.9733231,14.9520564 L39.988,15.304 C40.664046,16.3653566 40.963968,17.8080314 40.9969234,19.6499567 L41,20 C41,21.257401 40.7076834,22.4887701 40.1382018,23.6915984 C40.0712555,23.6551992 40.0069583,23.6147839 39.9445254,23.5718414 C39.4877218,23.2576429 39.129671,22.8097 38.9281251,22.2840194 C38.726776,21.7588522 38.6934586,21.1869608 38.8226818,20.6482764 C38.078381,20.7427949 37.3348583,20.8780118 36.5954432,21.0548625 L36.8776759,20.9913207 C36.9597618,20.6548643 37,20.3245129 37,20 C37,19.1516814 36.9324216,18.4758978 36.809715,17.9850713 C36.7349724,17.6861007 36.6562113,17.509893 36.60564,17.4384636 L36.5857864,17.4142136 C36.2107137,17.0391408 36,16.530433 36,16 C36,10.4379028 33.5620972,8 28,8 C22.4379028,8 20,10.4379028 20,16 C20,16.471496 19.8335102,16.9258264 19.5330869,17.2843934 L19.4142136,17.4142136 C19.3663738,17.4620533 19.2757052,17.6433906 19.190285,17.9850713 C19.0675784,18.4758978 19,19.1516814 19,20 C19,21.4109255 19.7606474,22.9322202 21.4142136,24.5857864 C21.5073423,24.6789152 21.5910444,24.7810153 21.6641006,24.8905996 C23.4885293,27.6272426 24.0310603,29.7973668 22.4142136,31.4142136 C22.3203303,31.5080968 22.2055461,31.606782 22.0686074,31.7113615 L21.8464269,31.8727881 C21.8065753,31.9004749 21.7652999,31.9285641 21.722581,31.957073 L21.4487903,32.1332981 L21.1394178,32.3204129 L20.7935234,32.5192367 L20.4101669,32.7305888 L19.9884084,32.9552884 L19.5273077,33.194155 L19.0259247,33.4480077 L18.1962647,33.858678 L16.9402894,34.4663365 L15.705111,35.0520746 L11.167,37.161 L11.1523401,37.1825058 C11.049771,37.3329075 10.9276649,37.5328905 10.7924001,37.7728783 L10.5804311,38.1616666 C10.1042223,39.0619989 9.57432325,40.2328419 9.11315524,41.414585 C8.61474155,42.6917701 8.22754192,43.8999074 8.01550587,44.8606957 C7.92802738,45.2570826 7.87338014,45.5984793 7.85160296,45.8694008 L7.846,45.947 L7.93486977,45.9883992 C8.2267831,46.1169287 8.61710323,46.2541965 9.09326782,46.393421 L9.33844567,46.463165 C9.82757233,46.5986154 10.3836912,46.7318407 10.9985421,46.8615168 L11.7640258,47.0153397 L12.5827202,47.1652469 L13.4514533,47.31073 L14.3670533,47.4512804 C14.5233826,47.4742662 14.6815326,47.4970252 14.841437,47.519547 C16.9618842,47.8182015 19.3051804,48.0623115 21.5841452,48.2322555 C22.0905485,49.7362845 22.7637511,51.1638087 23.5810236,52.4935891 L23.5051396,52.3649078 C20.4784624,52.1992914 17.187497,51.8894578 14.283563,51.480453 L13.4585893,51.3611665 L12.6695601,51.2403924 L11.9162526,51.1175526 L11.198444,50.9920693 L10.5159116,50.8633647 L9.86843242,50.7308608 C9.76342797,50.7084281 9.65987478,50.685813 9.55776823,50.6630035 L8.96245134,50.5237172 C6.36130923,49.8855631 4.80799357,49.0881231 4.21114562,47.8944272 C3.48699266,46.4461213 4.25302845,42.9151793 5.47001748,39.7265638 L5.71091572,39.1143382 L5.96140162,38.5145691 C6.93783434,36.2443212 8.08868753,34.3347538 8.98952501,33.7762505 L9.13335651,33.6976863 L14.6418864,31.130945 L15.834127,30.558756 L16.9774271,29.9953073 L17.7291858,29.6150862 L18.5630027,29.1805307 L19.0431695,28.9197723 L19.253,28.8 L19.2323978,28.7401254 C19.1166241,28.4277499 18.91113,28.0235739 18.6135617,27.5414338 L18.434,27.259 L18.3095368,27.132008 C16.2324936,24.963586 15.0969621,22.6839509 15.0059404,20.3101578 L15,20 C15,18.1155017 15.2582898,16.6280437 15.8799811,15.5232363 L16.011,15.304 L16.0119907,15.2927366 C16.2595919,8.08872944 20.3354051,4.1269557 27.6438454,4.00300017 L28,4 Z" id="Path-3" fill="#000000" fill-rule="nonzero"></path>
    </g>
</svg>