<?xml version="1.0" encoding="UTF-8"?>
<svg width="32px" height="32px" viewBox="0 0 32 32" version="1.1" xmlns="http://www.w3.org/2000/svg" xmlns:xlink="http://www.w3.org/1999/xlink">
    <title>affinity</title>
    <g id="affinity" stroke="none" stroke-width="1" fill="none" fill-rule="evenodd">
        <path d="M6,2 C8.209139,2 10,3.790861 10,6 C10,7.86356525 8.72560224,9.42947895 7.00076134,9.87378648 L7.00076134,22.1262135 C8.72560224,22.570521 10,24.1364348 10,26 C10,28.209139 8.209139,30 6,30 C3.790861,30 2,28.209139 2,26 C2,24.1360729 3.27489272,22.5699129 5.00024347,22.1259548 L5.00024347,9.87404517 C3.27489272,9.43008706 2,7.86392711 2,6 C2,3.790861 3.790861,2 6,2 Z M6,24 C4.8954305,24 4,24.8954305 4,26 C4,27.1045695 4.8954305,28 6,28 C7.1045695,28 8,27.1045695 8,26 C8,24.8954305 7.1045695,24 6,24 Z" id="Combined-Shape" fill="#000000" fill-rule="nonzero"></path>
        <path d="M21,2 C23.209139,2 25,3.790861 25,6 C25,7.51725234 24.1552437,8.83720128 22.9104064,9.51517159 L26.0312571,22.0001196 C28.2260069,22.0169171 30,23.8012894 30,26 C30,28.209139 28.209139,30 26,30 C23.790861,30 22,28.209139 22,26 C22,24.4827477 22.8447563,23.1627987 24.0895936,22.4848284 L21,10.124 L17.9104064,22.4848284 C19.1552437,23.1627987 20,24.4827477 20,26 C20,28.209139 18.209139,30 16,30 C13.790861,30 12,28.209139 12,26 C12,23.790861 13.790861,22 16,22 L15.968,22.001 L19.0895936,9.51517159 C17.8996805,8.86711442 17.0753228,7.63247912 17.0048953,6.19964034 L17,6 C17,3.790861 18.790861,2 21,2 Z M26,24 C24.8954305,24 24,24.8954305 24,26 C24,27.1045695 24.8954305,28 26,28 C27.1045695,28 28,27.1045695 28,26 C28,24.8954305 27.1045695,24 26,24 Z M16,24 C14.8954305,24 14,24.8954305 14,26 C14,27.1045695 14.8954305,28 16,28 C17.1045695,28 18,27.1045695 18,26 C18,24.8954305 17.1045695,24 16,24 Z" id="Combined-Shape" fill="#000000" fill-rule="nonzero"></path>
    </g>
</svg>