<svg xmlns="http://www.w3.org/2000/svg" width="32" height="32" viewBox="0 0 32 32">
  <path d="M11.608,10.955 L2.60529562,11.6769602 L2.49267621,11.6919754 C1.68933493,11.8432632 1.38848646,12.8797101 2.03465226,13.4332199 L8.893,19.309 L6.79829707,28.0942111 L6.77837972,28.2013496 C6.67003089,29.0144312 7.56479029,29.6239755 8.29226079,29.1796393 L16,24.472 L23.7077392,29.1796393 L23.8034792,29.2316895 C24.5432841,29.5859913 25.399491,28.9233841 25.2017029,28.0942111 L23.106,19.309 L29.9653477,13.4332199 L30.0476331,13.3548764 C30.6086251,12.7602899 30.2428084,11.7449524 29.3947044,11.6769602 L20.391,10.955 L16.9233204,2.61596937 C16.5817255,1.79467688 15.4182745,1.79467688 15.0766796,2.61596937 L11.608,10.955 Z M16,5.604 L18.7797267,12.2872236 L18.8342722,12.3984406 C18.9966867,12.6834792 19.2908761,12.8733578 19.6231339,12.8999948 L26.838,13.478 L21.3410995,18.1873492 L21.2521813,18.273593 C21.0312824,18.5161401 20.9416066,18.8546066 21.0189467,19.1788338 L22.698,26.219 L16.5212543,22.4465986 L16.4117544,22.3886831 C16.1128168,22.2535469 15.7632047,22.2728521 15.4787457,22.4465986 L9.301,26.219 L10.9810533,19.1788338 L11.0022969,19.0567963 C11.0384423,18.7307305 10.9120459,18.4041952 10.6589005,18.1873492 L5.161,13.478 L12.3768661,12.8999948 C12.7506561,12.8700282 13.0762659,12.6334589 13.2202733,12.2872236 L16,5.604 Z"/>
</svg>
