<?xml version="1.0" encoding="UTF-8"?>
<svg width="64px" height="64px" viewBox="0 0 64 64" version="1.1" xmlns="http://www.w3.org/2000/svg" xmlns:xlink="http://www.w3.org/1999/xlink">
    <title>air_freshener</title>
    <g id="air_freshener" stroke="none" stroke-width="1" fill="none" fill-rule="evenodd">
        <path d="M32.4483498,8 C32.4483498,8 32.5128314,10.036377 33.8029516,10.9912109 C35.0930718,11.9460449 35.9092514,12.5032959 35.9985525,13.1047363 C36.0878535,13.7061768 35.4300187,14.3330078 35.4300187,14.3330078 C35.4300187,14.3330078 36.1878609,14.6459961 36.7165498,15.307312 C37.2452388,15.9686279 36.7693518,16.6755981 37.1567894,17.532959 C37.5442269,18.3903198 40.5159202,18.3601074 40.9052435,19.925293 C41.2945669,21.4904785 38.6874995,21.6838379 38.6874995,21.6838379 C38.6874995,21.6838379 38.8683521,22.4633179 39.6313652,22.9018555 C40.3943784,23.3403931 41.2533229,23.6781616 41.2533229,24.4458618 C41.2533229,25.213562 40.0778704,26.3286133 40.0778704,26.3286133 C40.0778704,26.3286133 41.1842791,26.9523315 42.1791216,27.7845459 C43.1739642,28.6167603 42.6070734,29.2794189 42.9957882,30.1401978 C43.3845029,31.0009766 46.632007,31.1108398 46.632007,31.1108398 C46.632007,31.1108398 47.1031491,31.5358276 46.9792348,32.5362549 C46.8553204,33.5366821 46.1952349,34.0368652 46.1952349,34.0368652 C46.1952349,34.0368652 47.0765048,36.1577148 46.3246241,36.8278809 C45.5727434,37.4980469 43.2107066,36.9926147 42.8771052,37.7177734 C42.5435037,38.4429321 46.1135378,40.2601929 46.1135378,41.27771 C46.1135378,42.2952271 44.101527,43.1914063 43.1739642,43.1914063 C42.304374,43.1914063 42.1336839,42.7212687 42.1157445,42.6625015 L42.114,42.657 C42.078779,42.790068 41.744027,43.969884 40.7799907,44.3451538 C39.7623968,44.741272 38.6500271,43.9536133 38.6500271,43.9536133 L38.6540014,43.9853654 C38.6744072,44.1715155 38.7402041,45.1364502 38.0155517,45.8201294 C37.2103824,46.5797729 36.7762869,46.2428589 36.4781504,46.4280396 C36.3358543,46.5164235 36.2648738,47.407439 36.6158127,48 C37.0001552,48.648963 37.8168752,49 37.8168752,49 L41.9166932,49 L41.9166932,56 L22.0833068,56 L22.0833068,49 L26.1831248,49 C26.1831248,49 26.9998448,48.648963 27.3841873,48 C27.7351262,47.407439 27.6641457,46.5164235 27.5218496,46.4280396 C27.2237131,46.2428589 26.7896176,46.5797729 25.9844483,45.8201294 C25.2597959,45.1364502 25.3255928,44.1715155 25.3459986,43.9853654 L25.3499729,43.9536133 C25.3499729,43.9536133 24.2376032,44.741272 23.2200093,44.3451538 C22.2024154,43.9490356 21.8859686,42.6564941 21.8859686,42.6564941 L21.885,42.657 C21.8675121,42.7173508 21.7177058,43.1305496 20.990797,43.1853989 L20.8260358,43.1914063 C19.898473,43.1914063 17.8864622,42.2952271 17.8864622,41.27771 C17.8864622,40.2601929 21.4564963,38.4429321 21.1228948,37.7177734 C20.7892934,36.9926147 18.4272566,37.4980469 17.6753759,36.8278809 C16.9234952,36.1577148 17.8047651,34.0368652 17.8047651,34.0368652 C17.8047651,34.0368652 17.1446796,33.5366821 17.0207652,32.5362549 C16.8968509,31.5358276 17.367993,31.1108398 17.367993,31.1108398 C17.367993,31.1108398 20.6154971,31.0009766 21.0042118,30.1401978 C21.3929266,29.2794189 20.8260358,28.6167603 21.8208784,27.7845459 C22.8157209,26.9523315 23.9221296,26.3286133 23.9221296,26.3286133 C23.9221296,26.3286133 22.7466771,25.213562 22.7466771,24.4458618 C22.7466771,23.6781616 23.6056216,23.3403931 24.3686348,22.9018555 C25.1316479,22.4633179 25.3125005,21.6838379 25.3125005,21.6838379 C25.3125005,21.6838379 22.7054331,21.4904785 23.0947565,19.925293 C23.4840798,18.3601074 26.4557731,18.3903198 26.8432106,17.532959 C27.2306482,16.6755981 26.7547612,15.9686279 27.2834502,15.307312 C27.8121391,14.6459961 28.5699813,14.3330078 28.5699813,14.3330078 C28.5699813,14.3330078 27.9121465,13.7061768 28.0014475,13.1047363 C28.0907486,12.5032959 28.9069282,11.9460449 30.1970484,10.9912109 C31.4871686,10.036377 31.5516502,8 31.5516502,8 L31.5516502,8 L32.4483498,8 Z M41,50 L23,50 L23,55 L41,55 L41,50 Z M39.1108398,27.4733887 L22.1967773,31.4020996 L23.2404785,36.2021484 L40.1960449,32.4221191 L39.1108398,27.4733887 Z M32,13 C31.4477153,13 31,13.4477153 31,14 C31,14.5522847 31.4477153,15 32,15 C32.5522847,15 33,14.5522847 33,14 C33,13.4477153 32.5522847,13 32,13 Z" id="tree" fill="#000000" fill-rule="nonzero"></path>
    </g>
</svg>