<?xml version="1.0" encoding="UTF-8"?>
<svg width="32px" height="32px" viewBox="0 0 32 32" version="1.1" xmlns="http://www.w3.org/2000/svg" xmlns:xlink="http://www.w3.org/1999/xlink">
    <title>warning</title>
    <g id="warning" stroke="none" stroke-width="1" fill="none" fill-rule="evenodd">
        <circle id="Oval" fill="#000000" cx="16" cy="25" r="1"></circle>
        <path d="M15.5425343,11 L16.4574657,11 C17.0097504,11 17.4574657,11.4477153 17.4574657,12 C17.4574657,12.0138814 17.4571766,12.0277612 17.4565987,12.0416305 L17.0399321,22.0416305 C17.0176143,22.5772573 16.5768905,23 16.040799,23 L15.959201,23 C15.4231095,23 14.9823857,22.5772573 14.9600679,22.0416305 L14.5434013,12.0416305 C14.5204094,11.4898246 14.9490978,11.0238588 15.5009038,11.0008669 C15.5147731,11.000289 15.528653,11 15.5425343,11 Z" id="Rectangle" fill="#000000"></path>
        <path d="M15.1055728,2.5527864 L2.10557281,28.5527864 C1.77312226,29.2176875 2.25661798,30 3,30 L29,30 C29.743382,30 30.2268777,29.2176875 29.8944272,28.5527864 L16.8944272,2.5527864 C16.5259029,1.81573787 15.4740971,1.81573787 15.1055728,2.5527864 Z M16,5.236 L27.381,28 L4.618,28 L16,5.236 Z" id="Path-100" fill="#000000" fill-rule="nonzero"></path>
    </g>
</svg>