<?xml version="1.0" encoding="UTF-8"?>
<svg width="64px" height="64px" viewBox="0 0 64 64" version="1.1" xmlns="http://www.w3.org/2000/svg" xmlns:xlink="http://www.w3.org/1999/xlink">
    <title>alert</title>
    <g id="alert" stroke="none" stroke-width="1" fill="none" fill-rule="evenodd">
        <path d="M32.0198676,50 C31.2119165,50 30.5066255,49.7357886 29.9039735,49.2073579 C29.3013215,48.6789271 29,47.9398041 29,46.9899666 C29,46.160531 29.2880766,45.4548524 29.8642384,44.8729097 C30.4404002,44.290967 31.1456912,44 31.9801324,44 C32.8145737,44 33.5264871,44.290967 34.115894,44.8729097 C34.705301,45.4548524 35,46.160531 35,46.9899666 C35,47.9264261 34.7019897,48.6622047 34.1059603,49.1973244 C33.5099308,49.7324441 32.8145735,50 32.0198676,50 Z" id="!" fill="#000000" fill-rule="nonzero"></path>
        <path d="M27.7149708,8.2152781 C26.6084109,8.89633595 25.6782339,9.83141752 25.0007482,10.9438121 L5.20890385,43.4409418 C2.84202431,47.3272289 4.05722312,52.4065392 7.92312638,54.7858987 C9.21309155,55.5798376 10.6962085,56 12.2087409,56 L51.7924297,56 C56.3253456,56 60,52.3059701 60,47.7491532 C60,46.2286457 59.5820413,44.7377086 58.7922667,43.4409418 L39.0004224,10.9438121 C36.6808804,7.1352506 31.7819064,5.88584871 27.9483181,8.0768302 L27.7149708,8.2152781 Z M35.5154562,12.9840734 L55.3935032,45.6817237 C55.7901105,46.3341079 56,47.0841762 56,47.8491211 C56,50.1415882 54.1546704,52 51.878341,52 L12.1222469,52 C11.3626869,52 10.6178985,51.7886225 9.97010669,51.3892037 C8.0287362,50.1921831 7.41849041,47.6368573 8.60708456,45.6817237 L28.4851316,12.9840734 C28.8253498,12.4244443 29.292464,11.9540185 29.8481538,11.6113885 C31.7895243,10.4143678 34.326862,11.0289399 35.5154562,12.9840734 Z" id="Path-12" fill="#000000" fill-rule="nonzero"></path>
        <path d="M32,42 C34,42 35,34.0751322 35,28 C35,21.9248678 35,20 32,20 C29,20 29,21.9248678 29,28 C29,34.0751322 30,42 32,42 Z" id="Oval" fill="#000000"></path>
    </g>
</svg>