<?xml version="1.0" encoding="UTF-8"?>
<svg width="64px" height="64px" viewBox="0 0 64 64" version="1.1" xmlns="http://www.w3.org/2000/svg" xmlns:xlink="http://www.w3.org/1999/xlink">
    <title>anchor</title>
    <g id="anchor" stroke="none" stroke-width="1" fill="none" fill-rule="evenodd">
        <path d="M32,4 C36.418278,4 40,7.581722 40,12 C40,15.3573888 37.9318165,18.2317275 34.9999705,19.4184949 L35.0000809,52.7863377 C40.5661347,51.9504025 44.4817782,48.6460881 46.9511681,42.6011777 L44.1815434,41.6228977 C43.8651846,41.5112416 43.5819959,41.3217987 43.3580448,41.072007 C42.6206949,40.2495783 42.6896649,38.985128 43.5120936,38.2477781 L43.5120936,38.2477781 L52.6766711,30.0312604 C52.9767932,29.7621854 53.3512154,29.5900744 53.7508521,29.5374906 C54.8459823,29.3933946 55.8505737,30.16436 55.9946698,31.2594902 L55.9946698,31.2594902 L57.5747693,43.268247 C57.6158448,43.5804207 57.5826346,43.8978821 57.4778414,44.1947962 C57.1102185,45.2363946 55.9678189,45.7827596 54.9262205,45.4151367 L54.9262205,45.4151367 L52.609678,44.5976633 C48.8240635,54.0444886 41.8381248,59 32,59 C22.1619124,59 15.1759893,54.0445261 11.3903649,44.5977705 L9.07377949,45.4151367 C8.03218113,45.7827596 6.88978154,45.2363946 6.52215859,44.1947962 C6.41736536,43.8978821 6.38415518,43.5804207 6.42523066,43.268247 L8.00533024,31.2594902 C8.14942631,30.16436 9.15401768,29.3933946 10.2491479,29.5374906 C10.6487846,29.5900744 11.0232068,29.7621854 11.3233289,30.0312604 L20.4879064,38.2477781 C21.3103351,38.985128 21.3793051,40.2495783 20.6419552,41.072007 C20.4180041,41.3217987 20.1348154,41.5112416 19.8184566,41.6228977 L17.0487503,42.6009779 C19.5180495,48.6458046 23.433531,51.9501629 28.9993371,52.7862503 L28.9990323,19.4180912 C26.0677146,18.2310757 24,15.3570082 24,12 C24,7.581722 27.581722,4 32,4 Z M32,8 C29.790861,8 28,9.790861 28,12 C28,14.209139 29.790861,16 32,16 C34.209139,16 36,14.209139 36,12 C36,9.790861 34.209139,8 32,8 Z" id="Combined-Shape" fill="#000000" fill-rule="nonzero"></path>
    </g>
</svg>