<?xml version="1.0" encoding="UTF-8"?>
<svg width="32px" height="32px" viewBox="0 0 32 32" version="1.1" xmlns="http://www.w3.org/2000/svg" xmlns:xlink="http://www.w3.org/1999/xlink">
    <title>android tablet</title>
    <g id="android-tablet" stroke="none" stroke-width="1" fill="none" fill-rule="evenodd">
        <path d="M22,2 C22.5522847,2 23,2.44771525 23,3 L23,3 L23.000956,9.61542582 C22.3681028,9.40108143 21.7014583,9.24228364 21.0010237,9.13974397 L21,4 L5,4 L5,27 L21,27 L21,23 L23,23 L23,29 C23,29.5128358 22.6139598,29.9355072 22.1166211,29.9932723 L22,30 L4,30 C3.44771525,30 3,29.5522847 3,29 L3,29 L3,3 C3,2.44771525 3.44771525,2 4,2 L4,2 Z M13,27.5 C12.4477153,27.5 12,27.9477153 12,28.5 C12,29.0522847 12.4477153,29.5 13,29.5 C13.5522847,29.5 14,29.0522847 14,28.5 C14,27.9477153 13.5522847,27.5 13,27.5 Z" id="Rectangle" fill="#000000" fill-rule="nonzero"></path>
        <path d="M27.0684144,8.16805598 C27.4951196,8.45252612 27.6326668,9.00818684 27.4048564,9.45403995 L27.3457645,9.55480647 L25.5878682,12.190773 C27.765817,14.0071128 29.2490245,16.9487571 30.0137142,21.0001063 C30.1131888,21.4227821 29.6604875,22.0001063 29.0137142,22.0001063 L29.0137142,22.0001063 L9.01371418,22.0001063 C8.36694087,22.0001063 7.91423955,21.4227821 8.01371418,21.0001063 C8.77833126,16.9491417 10.2613298,14.0076713 12.43894,12.1912903 L10.6816639,9.55480647 L10.6225719,9.45403995 C10.3947615,9.00818684 10.5323088,8.45252612 10.959014,8.16805598 C11.4185427,7.86170352 12.039412,7.98587739 12.3457645,8.44540608 L12.3457645,8.44540608 L14.1071883,11.0879807 C15.5239437,10.3636703 17.1608839,10.0001063 19.0137142,10.0001063 C20.8661668,10.0001063 22.5028173,10.363522 23.9193737,11.0875378 L25.6816639,8.44540608 C25.9880163,7.98587739 26.6088857,7.86170352 27.0684144,8.16805598 Z M19.0137142,12.0001063 C14.3743362,12.0001063 11.4300703,14.5383316 10.0137142,20.0001063 L10.0137142,20.0001063 L28.0137142,20.0001063 L27.9250955,19.669168 C26.5067147,14.5417221 23.6744224,12.1026767 19.0137142,12.0001063 Z M15.0137142,16.0001063 C15.5659989,16.0001063 16.0137142,16.4478215 16.0137142,17.0001063 C16.0137142,17.552391 15.5659989,18.0001063 15.0137142,18.0001063 C14.4614294,18.0001063 14.0137142,17.552391 14.0137142,17.0001063 C14.0137142,16.4478215 14.4614294,16.0001063 15.0137142,16.0001063 Z M23.0137142,16.0001063 C23.5659989,16.0001063 24.0137142,16.4478215 24.0137142,17.0001063 C24.0137142,17.552391 23.5659989,18.0001063 23.0137142,18.0001063 C22.4614294,18.0001063 22.0137142,17.552391 22.0137142,17.0001063 C22.0137142,16.4478215 22.4614294,16.0001063 23.0137142,16.0001063 Z" id="Combined-Shape" fill="#000000" fill-rule="nonzero"></path>
    </g>
</svg>