<svg xmlns="http://www.w3.org/2000/svg" width="32" height="32" viewBox="0 0 32 32">
  <path d="M19,2 C19.5522847,2 20,2.44771525 20,3 L20,3 L19.9995028,9.071 L25.2583302,6.03589838 C25.7024591,5.77948047 26.2615233,5.90246542 26.5602187,6.3042908 L26.6243557,6.40192379 L29.6243557,11.5980762 C29.900498,12.0763688 29.7366229,12.6879592 29.2583302,12.9641016 L29.2583302,12.9641016 L23.9995028,15.999 L29.2583302,19.0358984 C29.7024591,19.2923163 29.8754831,19.8379726 29.6768398,20.2975631 L29.6243557,20.4019238 L26.6243557,25.5980762 C26.3482133,26.0763688 25.7366229,26.240244 25.2583302,25.9641016 L25.2583302,25.9641016 L19.9995028,22.928 L20,29 C20,29.5128358 19.6139598,29.9355072 19.1166211,29.9932723 L19,30 L13,30 C12.4477153,30 12,29.5522847 12,29 L12,29 L11.9995028,22.928 L6.74166975,25.9641016 C6.29754089,26.2205195 5.73847669,26.0975346 5.4397813,25.6957092 L5.37564435,25.5980762 L2.37564435,20.4019238 C2.09950197,19.9236312 2.26337713,19.3120408 2.74166975,19.0358984 L2.74166975,19.0358984 L7.99950278,16 L2.74166975,12.9641016 C2.29754089,12.7076837 2.12451688,12.1620274 2.32316017,11.7024369 L2.37564435,11.5980762 L5.37564435,6.40192379 C5.65178672,5.92363117 6.26337713,5.75975601 6.74166975,6.03589838 L6.74166975,6.03589838 L11.9995028,9.071 L12,3 C12,2.48716416 12.3860402,2.06449284 12.8833789,2.00672773 L13,2 Z M18,4 L14,4 L13.9995028,12.535 L6.60769515,8.26794919 L4.60769515,11.7320508 L11.9985028,15.999 L4.60769515,20.2679492 L6.60769515,23.7320508 L13.9995028,19.464 L14,28 L18,28 L17.9995028,19.464 L25.3923048,23.7320508 L27.3923048,20.2679492 L20.0005028,16 L27.3923048,11.7320508 L25.3923048,8.26794919 L17.9995028,12.535 L18,4 Z"/>
</svg>
