<?xml version="1.0" encoding="UTF-8"?>
<svg width="64px" height="64px" viewBox="0 0 64 64" version="1.1" xmlns="http://www.w3.org/2000/svg" xmlns:xlink="http://www.w3.org/1999/xlink">
    <title>announcement</title>
    <g id="announcement" stroke="none" stroke-width="1" fill="none" fill-rule="evenodd">
        <path d="M30.8834838,49.3273272 C31.332045,50.5832985 30.4502095,51.9022161 29.1465417,51.9948224 L29,52 L20,52 C19.2075994,52 18.4954003,51.5330008 18.1752307,50.8187537 L18.1165162,50.6726728 L13.233,36.9996435 L12,37 C11.9724596,37 11.9449309,36.9994311 11.9174316,36.9982949 L11.8350389,36.9931854 L11.671202,36.9727878 C6.711632,36.1461928 4,32.9826222 4,28 C4,23.0173778 6.711632,19.8538072 11.671202,19.0272122 C11.7798649,19.0091017 11.8898383,19 12,19 L12,19 L26.56,19 L40.1618836,11.1840812 C41.4871243,10.5724317 43,11.5404186 43,13 L43,13 L43,43.5 C43,44.986764 41.435375,45.9537555 40.1055728,45.2888544 L40.1055728,45.2888544 L26.529,37 L26.48,36.9996435 L30.8834838,49.3273272 Z M21.409,48 L26.162,48 L22.233,36.9996435 L17.48,36.9996435 L21.409,48 Z M39,16.125 L30,21.5196435 L30,34.5476435 L39,40.264 L39,16.125 Z M26,22.9996435 L12.172,23 L12.0724696,23.0186747 C9.29981844,23.5505365 8.07293701,24.9812949 8.003166,27.745064 L8.003166,27.745064 L8,28 C8,31.0173778 9.288368,32.5204738 12.328798,33.0272122 L12.178,33 L26,32.9996435 L26,22.9996435 Z" id="Combined-Shape" fill="#000000"></path>
        <g id="Group" transform="translate(46.300000, 15.894481)" fill="#000000">
            <rect id="Rectangle" x="0.7" y="10.1055185" width="13" height="4" rx="2"></rect>
            <path d="M2.30895651,2.24299091 L8.3229523,2.29262867 C9.41455193,2.30163841 10.2972796,3.18429596 10.306376,4.27589487 L10.3064136,4.2804079 C10.3153379,5.35134945 9.45440281,6.22675369 8.38346125,6.23567798 C8.3727402,6.23576732 8.36201859,6.23576775 8.35129753,6.23567926 L2.33730174,6.1860415 C1.24570211,6.17703175 0.362974458,5.2943742 0.353878026,4.20277529 L0.353840419,4.19826227 C0.344916127,3.12732071 1.20585123,2.25191647 2.27679279,2.24299218 C2.28751384,2.24290284 2.29823545,2.24290242 2.30895651,2.24299091 Z" id="Rectangle-Copy" transform="translate(5.330127, 4.239335) rotate(-30.000000) translate(-5.330127, -4.239335) "></path>
            <path d="M2.30895651,17.9394594 L8.3229523,17.9890972 C9.41455193,17.9981069 10.2972796,18.8807644 10.306376,19.9723634 L10.3064136,19.9768764 C10.3153379,21.0478179 9.45440281,21.9232222 8.38346125,21.9321465 C8.3727402,21.9322358 8.36201859,21.9322362 8.35129753,21.9321477 L2.33730174,21.88251 C1.24570211,21.8735002 0.362974458,20.9908427 0.353878026,19.8992438 L0.353840419,19.8947308 C0.344916127,18.8237892 1.20585123,17.948385 2.27679279,17.9394607 C2.28751384,17.9393713 2.29823545,17.9393709 2.30895651,17.9394594 Z" id="Rectangle-Copy-2" transform="translate(5.330127, 19.935804) scale(1, -1) rotate(-30.000000) translate(-5.330127, -19.935804) "></path>
        </g>
    </g>
</svg>