<?xml version="1.0" encoding="UTF-8"?>
<svg width="64px" height="64px" viewBox="0 0 64 64" version="1.1" xmlns="http://www.w3.org/2000/svg" xmlns:xlink="http://www.w3.org/1999/xlink">
    <title>app_update</title>
    <g id="app_update" stroke="none" stroke-width="1" fill="none" fill-rule="evenodd">
        <path d="M48.6666667,4 C50.5076158,4 52,5.44646465 52,7.23076923 L52,56.7692308 C52,58.5535353 50.5076158,60 48.6666667,60 L15.3333333,60 C13.4923842,60 12,58.5535353 12,56.7692308 L12,7.23076923 C12,5.44646465 13.4923842,4 15.3333333,4 L48.6666667,4 Z M48,8 L16,8 L16,52 L48,52 L48,8 Z M32,58 C33.1045695,58 34,57.1045695 34,56 C34,54.8954305 33.1045695,54 32,54 C30.8954305,54 30,54.8954305 30,56 C30,57.1045695 30.8954305,58 32,58 Z" id="Rectangle" fill="#000000" fill-rule="nonzero"></path>
        <g id="Group" transform="translate(20.000000, 16.000000)" fill="#000000">
            <path d="M12,0 C13.1045695,-2.02906125e-16 14,0.8954305 14,2 L14,14.171 L17.5857864,10.5857864 C18.3257272,9.84584567 19.5012114,9.80690142 20.2869988,10.4689537 L20.4142136,10.5857864 C21.1541543,11.3257272 21.1930986,12.5012114 20.5310463,13.2869988 L20.4142136,13.4142136 L13.4142136,20.4142136 C12.6742728,21.1541543 11.4987886,21.1930986 10.7130012,20.5310463 L10.5857864,20.4142136 L3.58578644,13.4142136 C2.80473785,12.633165 2.80473785,11.366835 3.58578644,10.5857864 C4.3257272,9.84584567 5.50121136,9.80690142 6.28699879,10.4689537 L6.41421356,10.5857864 L10,14.171 L10,2 C10,0.8954305 10.8954305,2.02906125e-16 12,0 Z" id="Combined-Shape"></path>
            <path d="M22,18 C23.0543618,18 23.9181651,18.8158778 23.9945143,19.8507377 L24,20 L24,26 C24,27.0543618 23.1841222,27.9181651 22.1492623,27.9945143 L22,28 L2,28 C0.945638205,28 0.0818348781,27.1841222 0.00548573643,26.1492623 L0,26 L0,20 C0,18.8954305 0.8954305,18 2,18 C3.0543618,18 3.91816512,18.8158778 3.99451426,19.8507377 L4,20 L4,24 L20,24 L20,20 C20,18.9456382 20.8158778,18.0818349 21.8507377,18.0054857 L22,18 Z" id="Path-226" fill-rule="nonzero"></path>
        </g>
    </g>
</svg>