<?xml version="1.0" encoding="UTF-8"?>
<svg width="64px" height="64px" viewBox="0 0 64 64" version="1.1" xmlns="http://www.w3.org/2000/svg" xmlns:xlink="http://www.w3.org/1999/xlink">
    <title>appointment</title>
    <g id="appointment" stroke="none" stroke-width="1" fill="none" fill-rule="evenodd">
        <path d="M10,20 L10,54 L54,54 L54,20 L10,20 Z M45,4 C46.6568542,4 48,5.34314575 48,7 L48,10 C48,11.6568542 46.6568542,13 45,13 C43.3431458,13 42,11.6568542 42,10 L42,7 C42,5.34314575 43.3431458,4 45,4 Z M19,4 C20.6568542,4 22,5.34314575 22,7 L22,10 C22,11.6568542 20.6568542,13 19,13 C17.3431458,13 16,11.6568542 16,10 L16,7 C16,5.34314575 17.3431458,4 19,4 Z M58,54 C58,56.209139 56.209139,58 54,58 L10,58 C7.790861,58 6,56.209139 6,54 L6,14 C6,11.790861 7.790861,10 10,10 L14.0511362,10 L14.05157,10.0462462 C14.0615309,10.5500178 14.2830189,15 19,15 C23.7169811,15 23.9839801,10.5500178 23.9990932,10.0462462 L23.9999664,10.0052728 L40,10 L40.0009068,10.0462462 C40.0160199,10.5500178 40.2830189,15 45,15 C49.7169811,15 49.9839801,10.5500178 49.9990932,10.0462462 L49.9999664,10.0052728 L54,10 C56.209139,10 58,11.790861 58,14 L58,54 Z" id="Combined-Shape" fill="#000000" fill-rule="nonzero"></path>
        <path d="M26.379449,50.932332 C27.6360928,52.3956727 29.9272591,52.3099546 31.0710488,50.7568079 L47.4111719,26.779155 C48.3936632,25.4450347 48.1086115,23.56705 46.7744913,22.5845587 C45.440371,21.6020674 43.5623863,21.8871191 42.579895,23.2212393 L26.2397719,47.1988923 L30.9313718,47.0233682 L23.280284,37.4558715 C22.2008534,36.1988927 20.3068194,36.0549614 19.0498406,37.134392 C17.7928618,38.2138225 17.6489305,40.1078565 18.7283611,41.3648353 L26.379449,50.932332 Z" id="Shape" fill="#000000" fill-rule="nonzero"></path>
    </g>
</svg>