<?xml version="1.0" encoding="UTF-8"?>
<svg width="64px" height="64px" viewBox="0 0 64 64" version="1.1" xmlns="http://www.w3.org/2000/svg" xmlns:xlink="http://www.w3.org/1999/xlink">
    <title>appointment_setup</title>
    <g id="appointment_setup" stroke="none" stroke-width="1" fill="none" fill-rule="evenodd">
        <path d="M43.0995293,9.81155808 C55.3891974,14.7769063 61.3267318,28.7648608 56.3613836,41.0545288 C53.6806644,47.6895416 48.2730424,52.6438233 41.6954774,54.8349636 L45.5785293,56.7272324 C46.494942,57.1741968 46.9167243,58.2287961 46.595346,59.1692461 L46.4993751,59.4015628 C46.0524107,60.3179755 44.9978114,60.7397579 44.0573614,60.4183795 L43.8250447,60.3224086 L34.9274376,55.9827556 C34.0110248,55.5357913 33.5892425,54.481192 33.9106208,53.5407419 L34.0065918,53.3084253 L37.5697268,45.9999724 L42.0087268,45.9999724 L41.9414209,46.1643027 L39.4131578,51.3494843 C45.3542649,49.7136811 50.2814082,45.4251274 52.6526481,39.5561025 C56.7904383,29.3147124 51.842493,17.6580837 41.6011029,13.5202935 C38.8195514,12.3964737 40.3179777,8.6877383 43.0995293,9.81155808 Z" id="Path-2" fill="#000000" fill-rule="nonzero"></path>
        <path d="M19.9426386,3.58162049 L20.1749553,3.67759142 L29.0725624,8.01724436 C29.9889752,8.46420873 30.4107575,9.51880802 30.0893792,10.4592581 L29.9934082,10.6915747 L26.2875782,18.2895853 C25.8974237,18.1039125 25.4608469,18 25,18 C23.7444626,18 22.669068,18.7712832 22.2217728,19.865893 C21.8613785,19.35472 21.7511964,18.6866686 21.9626082,18.068014 L22.0585791,17.8356973 L24.5868422,12.6505157 C18.6457351,14.2863189 13.7185918,18.5748726 11.3473519,24.4438975 C7.20956169,34.6852876 12.157507,46.3419163 22.3988971,50.4797065 C25.1804486,51.6035263 23.6820223,55.3122617 20.9004707,54.1884419 C8.61080264,49.2230937 2.67326823,35.2351392 7.63861644,22.9454712 C10.3193356,16.3104584 15.7269576,11.3561767 22.3045226,9.16503639 L18.4214707,7.2727676 C17.505058,6.82580323 17.0832757,5.77120394 17.404654,4.83075391 L17.5006249,4.59843721 C17.9475893,3.68202445 19.0021886,3.26024214 19.9426386,3.58162049 Z" id="Path-3" fill="#000000" fill-rule="nonzero"></path>
        <path d="M22,21 L22,22 C22,23.6568542 23.3431458,25 25,25 C26.6568542,25 28,23.6568542 28,22 L28,21 L36,21 L36,22 C36,23.6568542 37.3431458,25 39,25 C40.6568542,25 42,23.6568542 42,22 L42,21 L43.4285714,21 C45.3280092,21 47,22.4363921 47,24.4090909 L47,41.5909091 C47,43.5636079 45.3280092,45 43.4285714,45 L20.5714286,45 C18.6719908,45 17,43.5636079 17,41.5909091 L17,24.4090909 C17,22.4363921 18.6719908,21 20.5714286,21 L22,21 Z M43,26 L21,26 L21,41 L43,41 L43,26 Z M38.2,27.4 C39.0836556,28.0627417 39.2627417,29.3163444 38.6,30.2 L32.6,39.2 C31.8697408,40.173679 30.4464052,40.2748323 29.5857864,39.4142136 L25.5857864,35.4142136 C24.8047379,34.633165 24.8047379,33.366835 25.5857864,32.5857864 C26.366835,31.8047379 27.633165,31.8047379 28.4142136,32.5857864 L30.784,34.955 L35.4,27.8 C36.0627417,26.9163444 37.3163444,26.7372583 38.2,27.4 Z M39,19 C40.1045695,19 41,19.8954305 41,21 L41,22 C41,23.1045695 40.1045695,24 39,24 C37.8954305,24 37,23.1045695 37,22 L37,21 C37,19.8954305 37.8954305,19 39,19 Z M25,19 C26.1045695,19 27,19.8954305 27,21 L27,22 C27,23.1045695 26.1045695,24 25,24 C23.8954305,24 23,23.1045695 23,22 L23,21 C23,19.8954305 23.8954305,19 25,19 Z" id="Path" fill="#000000" fill-rule="nonzero"></path>
    </g>
</svg>