<?xml version="1.0" encoding="UTF-8"?>
<svg width="64px" height="64px" viewBox="0 0 64 64" version="1.1" xmlns="http://www.w3.org/2000/svg" xmlns:xlink="http://www.w3.org/1999/xlink">
    <title>arrow_transfer</title>
    <g id="arrow_transfer" stroke="none" stroke-width="1" fill="none" fill-rule="evenodd">
        <g id="Group" transform="translate(8.000000, 4.000000)" fill="#000000" fill-rule="nonzero">
            <path d="M35.2257989,0.419409225 L35.4142136,0.585786438 L47.4142136,12.5857864 C47.4537571,12.62533 47.4916524,12.6665217 47.5277877,12.7092497 L47.4142136,12.5857864 C47.4630307,12.6346036 47.5087966,12.6853164 47.5515114,12.7376881 C47.5754338,12.7672046 47.5985252,12.7972496 47.6207657,12.8279514 C47.6341607,12.8461624 47.6472666,12.8649064 47.660014,12.88382 C47.6781683,12.911088 47.6955575,12.9383075 47.7122955,12.9659651 C47.7223297,12.9822255 47.7317943,12.9983906 47.7410127,13.0146575 C47.7925694,13.1057907 47.8376131,13.2020689 47.8748749,13.3021352 C47.8784628,13.311964 47.881826,13.3212359 47.8851185,13.3305274 C47.9001648,13.3726135 47.9139445,13.4160121 47.9262564,13.4600236 C47.9290776,13.4706999 47.9319567,13.4813468 47.9347463,13.4920123 C47.944334,13.5279737 47.9527847,13.5643804 47.9602265,13.6011531 C47.9641068,13.6211892 47.9678519,13.6412554 47.9712884,13.661364 C47.9778377,13.6987883 47.9832148,13.736828 47.9875065,13.7751958 C47.9888374,13.7879854 47.9901082,13.8003408 47.9912643,13.812705 C47.9970616,13.8741354 48,13.9367245 48,14 L47.9977651,14.0948174 C47.9970076,14.1108756 47.9960576,14.1269264 47.9949151,14.1429661 L48,14 C48,14.0852721 47.9946635,14.1692977 47.9843061,14.2517612 C47.9818395,14.2703368 47.9792728,14.2886277 47.9764527,14.306887 C47.9713358,14.3411397 47.9650995,14.3755925 47.9579932,14.4097262 C47.9558373,14.4192203 47.9537664,14.4288112 47.9516244,14.4383895 L47.9579932,14.4097262 C47.9317596,14.5357326 47.893669,14.6573906 47.8449409,14.7734807 C47.8382237,14.7895237 47.8315265,14.8049501 47.8246257,14.8203073 C47.8096556,14.8534535 47.7937136,14.8864025 47.7769099,14.918833 C47.7672349,14.9377961 47.7571295,14.9565809 47.7467022,14.9752342 C47.730174,15.0044532 47.7131824,15.0331025 47.695508,15.0612799 C47.6845475,15.0790899 47.6730309,15.0968237 47.6612047,15.1144112 C47.6420256,15.1426314 47.6223775,15.1703095 47.6020557,15.197454 C47.5951521,15.2068976 47.5879195,15.2163735 47.5805908,15.2257989 L47.566563,15.2434601 C47.5224774,15.2989268 47.4755081,15.3519986 47.4258818,15.4024489 L47.4142136,15.4142136 L35.4142136,27.4142136 C34.633165,28.1952621 33.366835,28.1952621 32.5857864,27.4142136 C31.8648185,26.6932456 31.8093594,25.5587835 32.4194092,24.7742011 L32.5857864,24.5857864 L41.17,16 L2,16 C0.8954305,16 0,15.1045695 0,14 C0,12.9743283 0.77208038,12.1289857 1.76675775,12.0134555 L2,12 L41.17,12 L32.5857864,3.41421356 C31.8648185,2.69324564 31.8093594,1.55878353 32.4194092,0.774201113 L32.5857864,0.585786438 C33.3067544,-0.135181486 34.4412165,-0.190640557 35.2257989,0.419409225 Z" id="Combined-Shape"></path>
            <path d="M35.2257989,28.4194092 L35.4142136,28.5857864 L47.4142136,40.5857864 C47.4537571,40.62533 47.4916524,40.6665217 47.5277877,40.7092497 L47.4142136,40.5857864 C47.4630307,40.6346036 47.5087966,40.6853164 47.5515114,40.7376881 C47.5754338,40.7672046 47.5985252,40.7972496 47.6207657,40.8279514 C47.6341607,40.8461624 47.6472666,40.8649064 47.660014,40.88382 C47.6781683,40.911088 47.6955575,40.9383075 47.7122955,40.9659651 C47.7223297,40.9822255 47.7317943,40.9983906 47.7410127,41.0146575 C47.7925694,41.1057907 47.8376131,41.2020689 47.8748749,41.3021352 C47.8784628,41.311964 47.881826,41.3212359 47.8851185,41.3305274 C47.9001648,41.3726135 47.9139445,41.4160121 47.9262564,41.4600236 C47.9290776,41.4706999 47.9319567,41.4813468 47.9347463,41.4920123 C47.944334,41.5279737 47.9527847,41.5643804 47.9602265,41.6011531 C47.9641068,41.6211892 47.9678519,41.6412554 47.9712884,41.661364 C47.9778377,41.6987883 47.9832148,41.736828 47.9875065,41.7751958 C47.9888374,41.7879854 47.9901082,41.8003408 47.9912643,41.812705 C47.9970616,41.8741354 48,41.9367245 48,42 L47.9977651,42.0948174 C47.9970076,42.1108756 47.9960576,42.1269264 47.9949151,42.1429661 L48,42 C48,42.0852721 47.9946635,42.1692977 47.9843061,42.2517612 C47.9818395,42.2703368 47.9792728,42.2886277 47.9764527,42.306887 C47.9713358,42.3411397 47.9650995,42.3755925 47.9579932,42.4097262 C47.9558373,42.4192203 47.9537664,42.4288112 47.9516244,42.4383895 L47.9579932,42.4097262 C47.9317596,42.5357326 47.893669,42.6573906 47.8449409,42.7734807 C47.8382237,42.7895237 47.8315265,42.8049501 47.8246257,42.8203073 C47.8096556,42.8534535 47.7937136,42.8864025 47.7769099,42.918833 C47.7672349,42.9377961 47.7571295,42.9565809 47.7467022,42.9752342 C47.730174,43.0044532 47.7131824,43.0331025 47.695508,43.0612799 C47.6845475,43.0790899 47.6730309,43.0968237 47.6612047,43.1144112 C47.6420256,43.1426314 47.6223775,43.1703095 47.6020557,43.197454 C47.5951521,43.2068976 47.5879195,43.2163735 47.5805908,43.2257989 L47.566563,43.2434601 C47.5224774,43.2989268 47.4755081,43.3519986 47.4258818,43.4024489 L47.4142136,43.4142136 L35.4142136,55.4142136 C34.633165,56.1952621 33.366835,56.1952621 32.5857864,55.4142136 C31.8648185,54.6932456 31.8093594,53.5587835 32.4194092,52.7742011 L32.5857864,52.5857864 L41.17,44 L2,44 C0.8954305,44 0,43.1045695 0,42 C0,40.9743283 0.77208038,40.1289857 1.76675775,40.0134555 L2,40 L41.17,40 L32.5857864,31.4142136 C31.8648185,30.6932456 31.8093594,29.5587835 32.4194092,28.7742011 L32.5857864,28.5857864 C33.3067544,27.8648185 34.4412165,27.8093594 35.2257989,28.4194092 Z" id="Combined-Shape-Copy" transform="translate(24.000000, 42.000000) scale(-1, 1) translate(-24.000000, -42.000000) "></path>
        </g>
    </g>
</svg>