<?xml version="1.0" encoding="UTF-8"?>
<svg width="32px" height="32px" viewBox="0 0 32 32" version="1.1" xmlns="http://www.w3.org/2000/svg" xmlns:xlink="http://www.w3.org/1999/xlink">
    <title>arrow-left</title>
    <g id="arrow-left" stroke="none" stroke-width="1" fill="none" fill-rule="evenodd">
        <path d="M13.2928932,4.29289322 L2.29289322,15.2928932 C1.90236893,15.6834175 1.90236893,16.3165825 2.29289322,16.7071068 L13.2928932,27.7071068 L13.3774732,27.7832252 C14.0144864,28.2974338 15,27.8521699 15,27 L15,21 L29,21 C29.5522847,21 30,20.5522847 30,20 L30,12 L29.9932723,11.8833789 C29.9355072,11.3860402 29.5128358,11 29,11 L15,11 L15,5 C15,4.10909515 13.9228581,3.66292836 13.2928932,4.29289322 Z M13,7.414 L13,12 L13.0067277,12.1166211 C13.0644928,12.6139598 13.4871642,13 14,13 L28,13 L28,19 L14,19 L13.8833789,19.0067277 C13.3860402,19.0644928 13,19.4871642 13,20 L13,24.585 L4.415,16 L13,7.414 Z" id="Path-17" fill="#000000" fill-rule="nonzero"></path>
    </g>
</svg>