<?xml version="1.0" encoding="UTF-8"?>
<svg width="64px" height="64px" viewBox="0 0 64 64" version="1.1" xmlns="http://www.w3.org/2000/svg" xmlns:xlink="http://www.w3.org/1999/xlink">
    <title>arrow_down</title>
    <g id="arrow_down" stroke="none" stroke-width="1" fill="none" fill-rule="evenodd">
        <path d="M27.9999989,8 C29.0236887,8 30.0473783,8.39052408 30.8284271,9.17157288 C31.581366,9.92451178 31.9713845,10.9029405 31.9984825,11.8894846 C32.0215186,12.7281475 31.7824768,13.5727946 31.2808013,14.2896286 L31.1374687,14.4818593 L17.6499989,28 L56.1428571,28 C57.2079777,28 58.1722634,28.4477153 58.870269,29.1715729 C59.5682746,29.8954305 60,30.8954305 60,32 C60,33.1045695 59.5682746,34.1045695 58.870269,34.8284271 C58.1722634,35.5522847 57.2079777,36 56.1428571,36 L17.6569989,36 L30.8284271,49.1715729 C31.581366,49.9245118 31.9713845,50.9029405 31.9984825,51.8894846 C32.0253307,52.8669346 31.6959186,53.8523509 31.0100897,54.6342367 C30.1448944,55.4901017 29.1520206,55.9223439 28.1617956,55.9767553 C27.2940852,56.0244347 26.4324895,55.7873519 25.705177,55.2771317 L25.5102447,55.1312175 L5.17157288,34.8284271 C4.41863397,34.0754882 4.0286155,33.0970595 4.00151749,32.1105154 C3.97848278,31.2719022 4.21749489,30.4273056 4.71910941,29.710499 L4.86242459,29.5182752 L25.1715729,9.17157288 C25.9526213,8.3905245 26.9763102,8 27.9999989,8 Z" id="Combined-Shape" fill="#000000" transform="translate(31.999999, 31.991375) rotate(-90.000000) translate(-31.999999, -31.991375) "></path>
    </g>
</svg>