<?xml version="1.0" encoding="UTF-8"?>
<svg width="32px" height="32px" viewBox="0 0 32 32" version="1.1" xmlns="http://www.w3.org/2000/svg" xmlns:xlink="http://www.w3.org/1999/xlink">
    <title>assign-all</title>
    <g id="assign-all" stroke="none" stroke-width="1" fill="none" fill-rule="evenodd">
        <path d="M17,4 C24.1797017,4 30,9.82029825 30,17 C30,24.1797017 24.1797017,30 17,30 C9.82029825,30 4,24.1797017 4,17 C4,15.4531966 4.27014856,13.9694898 4.76583817,12.5934871 L6.3621655,14.1900277 C6.12586229,15.0870075 6,16.0288054 6,17 C6,23.0751322 10.9248678,28 17,28 C23.0751322,28 28,23.0751322 28,17 C28,10.9248678 23.0751322,6 17,6 C16.0288054,6 15.0870075,6.12586229 14.1900277,6.3621655 L12.5934871,4.76583817 C13.9694898,4.27014856 15.4531966,4 17,4 Z M8.95593988,6.78691302 L10.3832155,8.21182673 C9.56230182,8.8308852 8.8308852,9.56230182 8.21182673,10.3832155 L6.78691302,8.95593988 C7.42212287,8.15055775 8.15055775,7.42212287 8.95593988,6.78691302 Z" id="Oval" fill="#000000" fill-rule="nonzero"></path>
        <path d="M8.70710678,2.29289322 L22,15.585 L22,10 C22,9.48716416 22.3860402,9.06449284 22.8833789,9.00672773 L23,9 C23.5522847,9 24,9.44771525 24,10 L24,18 C24,18.5522847 23.5522847,19 23,19 L19,19 L19,23 C19,23.5128358 18.6139598,23.9355072 18.1166211,23.9932723 L18,24 L10,24 C9.44771525,24 9,23.5522847 9,23 C9,22.4477153 9.44771525,22 10,22 L15.584,21.999 L2.29289322,8.70710678 C1.90236893,8.31658249 1.90236893,7.68341751 2.29289322,7.29289322 C2.68341751,6.90236893 3.31658249,6.90236893 3.70710678,7.29289322 L17,20.585 L17,18 C17,17.4871642 17.3860402,17.0644928 17.8833789,17.0067277 L18,17 L20.584,16.999 L7.29289322,3.70710678 C6.90236893,3.31658249 6.90236893,2.68341751 7.29289322,2.29289322 C7.68341751,1.90236893 8.31658249,1.90236893 8.70710678,2.29289322 Z" id="Combined-Shape" fill="#000000" fill-rule="nonzero"></path>
    </g>
</svg>