<?xml version="1.0" encoding="UTF-8"?>
<svg width="32px" height="32px" viewBox="0 0 32 32" version="1.1" xmlns="http://www.w3.org/2000/svg" xmlns:xlink="http://www.w3.org/1999/xlink">
    <title>assign</title>
    <g id="assign" stroke="none" stroke-width="1" fill="none" fill-rule="evenodd">
        <path d="M17,4 C24.1797017,4 30,9.82029825 30,17 C30,24.1797017 24.1797017,30 17,30 C9.82029825,30 4,24.1797017 4,17 C4,14.1316561 4.92895542,11.4802814 6.50242249,9.33031956 L7.93686632,10.7644551 C6.71526159,12.5366328 6,14.6847873 6,17 C6,23.0751322 10.9248678,28 17,28 C23.0751322,28 28,23.0751322 28,17 C28,10.9248678 23.0751322,6 17,6 C14.6847873,6 12.5366328,6.71526159 10.7644551,7.93686632 L9.33031956,6.50242249 C11.4802814,4.92895542 14.1316561,4 17,4 Z" id="Oval" fill="#000000" fill-rule="nonzero"></path>
        <path d="M3.70710678,2.29289322 L20,18.585 L20,11 C20,10.4871642 20.3860402,10.0644928 20.8833789,10.0067277 L21,10 C21.5522847,10 22,10.4477153 22,11 L22,21 C22,21.5522847 21.5522847,22 21,22 L11,22 C10.4477153,22 10,21.5522847 10,21 C10,20.4477153 10.4477153,20 11,20 L18.585,20 L2.29289322,3.70710678 C1.90236893,3.31658249 1.90236893,2.68341751 2.29289322,2.29289322 C2.68341751,1.90236893 3.31658249,1.90236893 3.70710678,2.29289322 Z" id="Combined-Shape" fill="#000000" fill-rule="nonzero"></path>
    </g>
</svg>