<?xml version="1.0" encoding="UTF-8"?>
<svg width="64px" height="64px" viewBox="0 0 64 64" version="1.1" xmlns="http://www.w3.org/2000/svg" xmlns:xlink="http://www.w3.org/1999/xlink">
    <title>attachment</title>
    <g id="attachment" stroke="none" stroke-width="1" fill="none" fill-rule="evenodd">
        <path d="M29,0.405591591 C36.1542997,0.405591591 40,4.67859187 40,12.4055916 L40,42.4055916 C40,47.4377248 37.5267776,50.4055916 33,50.4055916 C28.4732224,50.4055916 26,47.4377248 26,42.4055916 L26,16.4055916 C26,15.3010221 26.8954305,14.4055916 28,14.4055916 C29.1045695,14.4055916 30,15.3010221 30,16.4055916 L30,42.4055916 C30,45.3734584 30.860111,46.4055916 33,46.4055916 C35.139889,46.4055916 36,45.3734584 36,42.4055916 L36,12.4055916 C36,6.79925798 33.8457003,4.40559159 29,4.40559159 C24.1542997,4.40559159 22,6.79925798 22,12.4055916 L22,48.4055916 C22,56.6661099 25.4723758,60.4055916 33,60.4055916 C40.5276242,60.4055916 44,56.6661099 44,48.4055916 L44,16.4055916 C44,15.3010221 44.8954305,14.4055916 46,14.4055916 C47.1045695,14.4055916 48,15.3010221 48,16.4055916 L48,48.4055916 C48,58.8117399 42.8057092,64.4055916 33,64.4055916 C23.1942908,64.4055916 18,58.8117399 18,48.4055916 L18,12.4055916 C18,4.67859187 21.8457003,0.405591591 29,0.405591591 Z" id="Path-264" fill="#000000" fill-rule="nonzero" transform="translate(33.000000, 32.405592) rotate(45.000000) translate(-33.000000, -32.405592) "></path>
    </g>
</svg>