<?xml version="1.0" encoding="UTF-8"?>
<svg width="32px" height="32px" viewBox="0 0 32 32" version="1.1" xmlns="http://www.w3.org/2000/svg" xmlns:xlink="http://www.w3.org/1999/xlink">
    <title>audits</title>
    <g id="audits" stroke="none" stroke-width="1" fill="none" fill-rule="evenodd">
        <path d="M14.8333333,2 C15.101196,2 15.357861,2.10746363 15.5458171,2.29831142 L15.5458171,2.29831142 L18.206,5 L15.398,5 L14.414,4 L4,4 L4,26 L5,26 L5,28 L3,28 C2.48716416,28 2.06449284,27.6139598 2.00672773,27.1166211 L2,27 L2,3 C2,2.44771525 2.44771525,2 3,2 L3,2 Z" id="Path-11" fill="#000000" fill-rule="nonzero"></path>
        <path d="M18.5,12 C22.0898509,12 25,14.9101491 25,18.5 C25,19.5825582 24.7353543,20.603305 24.2672297,21.5010736 L24.8846154,21.5 C25.1090293,21.5 25.3242519,21.5891481 25.4829365,21.7478327 L25.4829365,21.7478327 L30.2521673,26.5170635 C30.5826109,26.8475071 30.5826109,27.3832621 30.2521673,27.7137057 L30.2521673,27.7137057 L27.7137057,30.2521673 C27.3832621,30.5826109 26.8475071,30.5826109 26.5170635,30.2521673 L26.5170635,30.2521673 L21.7478327,25.4829365 C21.5891481,25.3242519 21.5,25.1090293 21.5,24.8846154 L21.5,24.8846154 L21.5010736,24.2672297 C20.603305,24.7353543 19.5825582,25 18.5,25 C14.9101491,25 12,22.0898509 12,18.5 C12,14.9101491 14.9101491,12 18.5,12 Z M24.5334615,23.1923077 L23.5426154,23.1923077 L23.1923077,23.5426154 L23.1923077,24.5334615 L27.1153846,28.4565385 L28.4565385,27.1153846 L24.5334615,23.1923077 Z M18.5,14 C16.0147186,14 14,16.0147186 14,18.5 C14,20.9852814 16.0147186,23 18.5,23 C20.9852814,23 23,20.9852814 23,18.5 C23,16.0147186 20.9852814,14 18.5,14 Z" id="Combined-Shape" fill="#000000" fill-rule="nonzero"></path>
        <path d="M19,5 L19.0005374,5.01407313 C19.2062531,5.04896054 19.3974435,5.14765509 19.5458171,5.29831142 L19.5458171,5.29831142 L23.7124838,9.52908066 C23.8418415,9.66042844 23.9312846,9.82379747 23.973095,10.0003516 L24,10 L24.0009965,13.4020061 C22.6312044,11.9246263 20.6735812,11 18.5,11 C17.9907007,11 17.4932581,11.0507646 17.0124561,11.1475098 C17.0094175,11.1382359 17.0079861,11.1274549 17.0067277,11.1166211 L17,11 L17,7 L8,7 L8,28 L22,28 L22,27.15 L23.9902917,29.1398986 C23.9275669,29.58797 23.5679162,29.9408551 23.1166211,29.9932723 L23,30 L7,30 C6.44771525,30 6,29.5522847 6,29 L6,29 L6,6 C6,5.44771525 6.44771525,5 7,5 L7,5 L19,5 Z M11.8655993,22.0010455 C12.26291,22.7523826 12.7841141,23.4281014 13.4020061,24.0009965 L10,24 C9.44771525,24 9,23.5522847 9,23 C9,22.4477153 9.44771525,22 10,22 Z M11.016375,18.0004142 C11.0055154,18.1655404 11,18.3321261 11,18.5 C11,19.01391 11.0516879,19.5157476 11.1501485,20.0005978 L10,20 C9.44771525,20 9,19.5522847 9,19 C9,18.4477153 9.44771525,18 10,18 Z M12.4990701,14.0005068 C12.0465655,14.6030448 11.6826936,15.2759516 11.4268097,15.9998716 L10,16 C9.44771525,16 9,15.5522847 9,15 C9,14.4477153 9.44771525,14 10,14 Z M13,9 C13.5522847,9 14,9.44771525 14,10 C14,10.5522847 13.5522847,11 13,11 L10,11 C9.44771525,11 9,10.5522847 9,10 C9,9.44771525 9.44771525,9 10,9 L13,9 Z M19,7.596 L19,10 L21.369,10 L19,7.596 Z" id="Combined-Shape" fill="#000000" fill-rule="nonzero"></path>
        <path d="M19.6862665,16.4188395 C20.0072755,15.9694269 20.6318256,15.8653352 21.0812382,16.1863442 C21.4960806,16.4826602 21.616685,17.0376148 21.3803026,17.4747142 L21.3137335,17.5813159 L18.8137335,21.0813159 C18.4785081,21.5506313 17.8248472,21.6341681 17.3839264,21.2879646 L17.2928932,21.2071845 L15.7928932,19.7071845 C15.4023689,19.3166602 15.4023689,18.6834952 15.7928932,18.2929709 C16.1533772,17.9324869 16.7206082,17.9047574 17.1128994,18.2097823 L17.2071068,18.2929709 L17.872,18.9570777 L19.6862665,16.4188395 Z" id="Path-132" fill="#000000" fill-rule="nonzero"></path>
    </g>
</svg>