<?xml version="1.0" encoding="UTF-8"?>
<svg width="64px" height="64px" viewBox="0 0 64 64" version="1.1" xmlns="http://www.w3.org/2000/svg" xmlns:xlink="http://www.w3.org/1999/xlink">
    <title>audit_analyzer</title>
    <g id="audit_analyzer" stroke="none" stroke-width="1" fill="none" fill-rule="evenodd">
        <path d="M58.7060691,9.06050631 L57.2732714,22.150912 L53.3588781,18.2365187 L49.204416,22.7057572 C50.3575031,25.2325037 51,28.0412203 51,31 C51,35.5703368 49.4669998,39.7826222 46.8871538,43.150702 L55.6072031,51.8707603 L51.837772,55.6401914 L43.1137587,46.9153835 C39.7518435,49.4781791 35.5536419,51 31,51 C24.6279051,51 18.9518169,48.0200412 15.2893129,43.3777012 L9.84431957,48.8232315 L6,44.978912 L12.4609799,38.5177311 C11.5189067,36.1968447 11,33.659021 11,31 C11,19.954305 19.954305,11 31,11 C37.0325318,11 42.4412595,13.6708225 46.1082179,17.8945022 L49.3678019,14.6388687 L44.9713184,10.2423851 L58.7060691,9.06050631 Z M31,15 C22.163444,15 15,22.163444 15,31 C15,39.836556 22.163444,47 31,47 C39.836556,47 47,39.836556 47,31 C47,22.163444 39.836556,15 31,15 Z" id="Oval-26" fill="#000000" fill-rule="nonzero"></path>
        <polygon id="Path-138" fill="#000000" fill-rule="nonzero" points="22.3904284 36.4228057 26.85309 31.9601441 33.3546226 38.4616767 43.2213788 28.5949204 39.4635123 24.8370539 33.8783385 30.4222277 33.3412582 30.959308 26.7031925 24.3212423 19.0177067 32.0067282"></polygon>
    </g>
</svg>