<?xml version="1.0" encoding="UTF-8"?>
<svg width="32px" height="32px" viewBox="0 0 32 32" version="1.1" xmlns="http://www.w3.org/2000/svg" xmlns:xlink="http://www.w3.org/1999/xlink">
    <title>audit</title>
    <g id="audit" stroke="none" stroke-width="1" fill="none" fill-rule="evenodd">
        <path d="M16.5,9 C20.6421356,9 24,12.3578644 24,16.5 C24,17.7645134 23.6870598,18.9559356 23.1344007,20.0010455 L23.3846154,20 C23.6090293,20 23.8242519,20.0891481 23.9829365,20.2478327 L23.9829365,20.2478327 L30.7521673,27.0170635 C31.0826109,27.3475071 31.0826109,27.8832621 30.7521673,28.2137057 L30.7521673,28.2137057 L28.2137057,30.7521673 C27.8832621,31.0826109 27.3475071,31.0826109 27.0170635,30.7521673 L27.0170635,30.7521673 L20.2478327,23.9829365 C20.0891481,23.8242519 20,23.6090293 20,23.3846154 L20,23.3846154 L20.0010455,23.1344007 C18.9559356,23.6870598 17.7645134,24 16.5,24 C12.3578644,24 9,20.6421356 9,16.5 C9,12.3578644 12.3578644,9 16.5,9 Z M23.0334615,21.6923077 L22.0426154,21.6923077 L21.6923077,22.0426154 L21.6923077,23.0334615 L27.6153846,28.9565385 L28.9565385,27.6153846 L23.0334615,21.6923077 Z M16.5,11 C13.4624339,11 11,13.4624339 11,16.5 C11,19.5375661 13.4624339,22 16.5,22 C19.5375661,22 22,19.5375661 22,16.5 C22,13.4624339 19.5375661,11 16.5,11 Z" id="Combined-Shape" fill="#000000" fill-rule="nonzero"></path>
        <path d="M17,2 L17.0005374,2.01407313 C17.2062531,2.04896054 17.3974435,2.14765509 17.5458171,2.29831142 L17.5458171,2.29831142 L21.7124838,6.52908066 C21.8418415,6.66042844 21.9312846,6.82379747 21.973095,7.00035162 L22,7 L22.0010304,10.0199079 C20.5184494,8.76008664 18.5979886,8 16.5,8 C15.9913795,8 15.4931929,8.04467295 15.0091499,8.13030919 C15.0078619,8.12609058 15.0072782,8.12136091 15.0067277,8.11662113 L15,8 L15,4 L4,4 L4,28 L20,28 L20,25.15 L22,27.15 L22,29 C22,29.5128358 21.6139598,29.9355072 21.1166211,29.9932723 L21,30 L3,30 C2.44771525,30 2,29.5522847 2,29 L2,29 L2,3 C2,2.44771525 2.44771525,2 3,2 L3,2 L17,2 Z M11.0240039,23.0012825 C12.5031393,24.2484316 14.4138005,25 16.5,25 L16.5,25 L6,25 C5.44771525,25 5,24.5522847 5,24 C5,23.4477153 5.44771525,23 6,23 Z M18,25 L16.5,25 C17.2616954,25 17.9999904,24.8998111 18.7024256,24.7118927 C18.521785,24.8900127 18.273737,25 18,25 Z M8.37393288,19.0010888 C8.59246658,19.7119493 8.90171534,20.3830846 9.28816956,21.0009852 L6,21 C5.44771525,21 5,20.5522847 5,20 C5,19.4477153 5.44771525,19 6,19 Z M8.13190411,15.0001631 C8.04522769,15.4870259 8,15.9882312 8,16.5 C8,16.6680073 8.00487431,16.8348761 8.01448923,17.0004728 L6,17 C5.44771525,17 5,16.5522847 5,16 C5,15.4477153 5.44771525,15 6,15 Z M10.0190584,10.9999693 C9.50884706,11.6005824 9.08063828,12.2730301 8.75173492,13.0000097 L6,13 C5.44771525,13 5,12.5522847 5,12 C5,11.4477153 5.44771525,11 6,11 Z M9,6 C9.55228475,6 10,6.44771525 10,7 C10,7.55228475 9.55228475,8 9,8 L6,8 C5.44771525,8 5,7.55228475 5,7 C5,6.44771525 5.44771525,6 6,6 L9,6 Z M17,4.596 L17,7 L19.369,7 L17,4.596 Z" id="Combined-Shape" fill="#000000" fill-rule="nonzero"></path>
        <path d="M18.1425071,13.4855042 C18.4266552,13.011924 19.0409155,12.8583589 19.5144958,13.1425071 C19.9542489,13.4063589 20.1180705,13.9548483 19.911725,14.4110326 L19.8574929,14.5144958 L16.8574929,19.5144958 C16.5436966,20.0374897 15.8474493,20.1534744 15.3825966,19.786882 L15.2928932,19.7071068 L13.2928932,17.7071068 C12.9023689,17.3165825 12.9023689,16.6834175 13.2928932,16.2928932 C13.6533772,15.9324093 14.2206082,15.9046797 14.6128994,16.2097046 L14.7071068,16.2928932 L15.801,17.386 L18.1425071,13.4855042 Z" id="Path-131" fill="#000000" fill-rule="nonzero"></path>
    </g>
</svg>