<?xml version="1.0" encoding="UTF-8"?>
<svg width="64px" height="64px" viewBox="0 0 64 64" version="1.1" xmlns="http://www.w3.org/2000/svg" xmlns:xlink="http://www.w3.org/1999/xlink">
    <title>autopay_bank_account</title>
    <g id="autopay_bank_account" stroke="none" stroke-width="1" fill="none" fill-rule="evenodd">
        <path d="M43.0995293,9.81155808 C55.3891974,14.7769063 61.3267318,28.7648608 56.3613836,41.0545288 C53.6806644,47.6895416 48.2730424,52.6438233 41.6954774,54.8349636 L45.5785293,56.7272324 C46.494942,57.1741968 46.9167243,58.2287961 46.595346,59.1692461 L46.4993751,59.4015628 C46.0524107,60.3179755 44.9978114,60.7397579 44.0573614,60.4183795 L43.8250447,60.3224086 L34.9274376,55.9827556 C34.0110248,55.5357913 33.5892425,54.481192 33.9106208,53.5407419 L34.0065918,53.3084253 L34.1557268,52.9999724 L41,53 C41.7593915,53 42.4528825,52.7178461 42.9813568,52.2526545 L43.1213203,52.1213203 C43.6642136,51.5784271 44,50.8284271 44,50 L43.9988909,49.4509475 C47.8422568,47.2674326 50.9254671,43.8310254 52.6526481,39.5561025 C56.7904383,29.3147124 51.842493,17.6580837 41.6011029,13.5202935 C38.8195514,12.3964737 40.3179777,8.6877383 43.0995293,9.81155808 Z" id="Shape" fill="#000000" fill-rule="nonzero"></path>
        <path d="M7.63861644,22.9454712 C10.3193356,16.3104584 15.7269576,11.3561767 22.3045226,9.16503639 L18.4214707,7.2727676 C17.505058,6.82580323 17.0832757,5.77120394 17.404654,4.83075391 L17.5006249,4.59843721 C17.9475893,3.68202445 19.0021886,3.26024214 19.9426386,3.58162049 L20.1749553,3.67759142 L29.0725624,8.01724436 C29.9889752,8.46420873 30.4107575,9.51880802 30.0893792,10.4592581 L29.9934082,10.6915747 L25.6537553,19.5891819 C25.1695439,20.5819623 23.9722054,20.9942391 22.9794249,20.5100277 C22.0630121,20.0630633 21.6412298,19.008464 21.9626082,18.068014 L22.0585791,17.8356973 L24.5868422,12.6505157 C18.6457351,14.2863189 13.7185918,18.5748726 11.3473519,24.4438975 C7.20956169,34.6852876 12.157507,46.3419163 22.3988971,50.4797065 C25.1804486,51.6035263 23.6820223,55.3122617 20.9004707,54.1884419 C8.61080264,49.2230937 2.67326823,35.2351392 7.63861644,22.9454712 Z" id="Path" fill="#000000" fill-rule="nonzero"></path>
        <path d="M30.4439961,12.0179671 L42.7692308,17.1538462 C43.5145246,17.4643853 44,18.1925983 44,19 L44,21 C44,22.1045695 43.1045695,23 42,23 L37,23 L37,24 C37,25.0543618 36.1841222,25.9181651 35.1492623,25.9945143 L35.0959961,25.9959671 L35.8959961,41.9999671 L38,42 C39.1045695,42 40,42.8954305 40,44 L40,46 L41,46 C42.0543618,46 42.9181651,46.8158778 42.9945143,47.8507377 L43,48 L43,50 C43,51.1045695 42.1045695,52 41,52 L24.8480468,52.0002537 C24.8041323,51.7097322 24.7153885,51.421419 24.5783243,51.1448987 C24.264856,50.5124915 23.6945808,49.924662 22.7735037,49.5525226 C21.6996247,49.1186474 20.6870101,48.597752 19.7405043,48.0012491 L36,48 L36,46 L17.1092716,46.0009816 C15.0589261,44.1372724 13.463432,41.861825 12.4014367,39.3599209 C10.5014972,34.8839439 10.3090854,29.6831644 12.2745357,24.8185041 C12.6739311,23.8299659 13.1496527,22.8886257 13.6935363,22.0001602 L33,22 L33,21 C33,19.9456382 33.8158778,19.0818349 34.8507377,19.0054857 L35,19 L36.8,19 L28.6919961,15.6219671 L30.4439961,12.0179671 Z M20.9039961,25.9999671 L15.0959961,25.9999671 L15.8959961,41.9999671 L20.1039961,41.9999671 L20.9039961,25.9999671 Z M30.9039961,25.9999671 L25.0959961,25.9999671 L25.8959961,41.9999671 L30.1039961,41.9999671 L30.9039961,25.9999671 Z" id="Combined-Shape" fill="#000000" fill-rule="nonzero"></path>
    </g>
</svg>