<?xml version="1.0" encoding="UTF-8"?>
<svg width="64px" height="64px" viewBox="0 0 64 64" version="1.1" xmlns="http://www.w3.org/2000/svg" xmlns:xlink="http://www.w3.org/1999/xlink">
    <title>autopay_card</title>
    <g id="autopay_card" stroke="none" fill="none" fill-rule="nonzero">
        <path d="M43.0995293,9.81155808 C55.3891974,14.7769063 61.3267318,28.7648608 56.3613836,41.0545288 C53.6806644,47.6895416 48.2730424,52.6438233 41.6954774,54.8349636 L45.5785293,56.7272324 C46.494942,57.1741968 46.9167243,58.2287961 46.595346,59.1692461 L46.4993751,59.4015628 C46.0524107,60.3179755 44.9978114,60.7397579 44.0573614,60.4183795 L43.8250447,60.3224086 L34.9274376,55.9827556 C34.0110248,55.5357913 33.5892425,54.481192 33.9106208,53.5407419 L34.0065918,53.3084253 L37.0827268,46.9999724 L41.5327268,46.9999724 L39.4131578,51.3494843 C45.3542649,49.7136811 50.2814082,45.4251274 52.6526481,39.5561025 C56.7904383,29.3147124 51.842493,17.6580837 41.6011029,13.5202935 C38.8195514,12.3964737 40.3179777,8.6877383 43.0995293,9.81155808 Z" id="Shape" fill="#000000"></path>
        <path d="M7.63861644,22.9454712 C10.3193356,16.3104584 15.7269576,11.3561767 22.3045226,9.16503639 L18.4214707,7.2727676 C17.505058,6.82580323 17.0832757,5.77120394 17.404654,4.83075391 L17.5006249,4.59843721 C17.9475893,3.68202445 19.0021886,3.26024214 19.9426386,3.58162049 L20.1749553,3.67759142 L29.0725624,8.01724436 C29.9889752,8.46420873 30.4107575,9.51880802 30.0893792,10.4592581 L29.9934082,10.6915747 L25.6537553,19.5891819 C25.1695439,20.5819623 23.9722054,20.9942391 22.9794249,20.5100277 C22.0630121,20.0630633 21.6412298,19.008464 21.9626082,18.068014 L22.0585791,17.8356973 L24.5868422,12.6505157 C18.6457351,14.2863189 13.7185918,18.5748726 11.3473519,24.4438975 C7.20956169,34.6852876 12.157507,46.3419163 22.3988971,50.4797065 C25.1804486,51.6035263 23.6820223,55.3122617 20.9004707,54.1884419 C8.61080264,49.2230937 2.67326823,35.2351392 7.63861644,22.9454712 Z" id="Path" fill="#000000"></path>
        <path d="M42,18 C44.209139,18 46,19.790861 46,22 L46,42 C46,44.209139 44.209139,46 42,46 L17.1082703,46.0000714 C15.8065669,44.8166872 14.6882277,43.467336 13.7733822,41.9994397 L42,42 L41.9990427,29.9990274 L10.9850427,29.9993397 C11.1488423,28.4077128 11.5177986,26.8125127 12.1067022,25.2485842 L12.2745357,24.8185041 C12.3864176,24.5415867 12.504289,24.268373 12.6279703,23.9989877 L41.9990427,23.9990274 L42,22 L13.6941497,21.9991582 C14.6074644,20.5074129 15.7129422,19.1647451 16.9719348,17.9980274 L20.9419317,17.998389 C20.786296,18.6314557 20.8451211,19.2855997 21.086932,19.8663391 C21.3578568,20.5169993 21.8577392,21.0755469 22.5410538,21.4088217 C23.2856391,21.7719803 24.1069337,21.7989558 24.8328717,21.5489953 C25.5588096,21.2990348 26.1893908,20.7721384 26.5525493,20.027553 L27.5370427,17.9990274 L42,18 Z M38,33 C38.5522847,33 39,33.4477153 39,34 L39,38 C39,38.5522847 38.5522847,39 38,39 L34,39 C33.4477153,39 33,38.5522847 33,38 L33,34 C33,33.4477153 33.4477153,33 34,33 L38,33 Z" id="Combined-Shape" fill="#000000"></path>
    </g>
</svg>