<?xml version="1.0" encoding="UTF-8"?>
<svg width="64px" height="64px" viewBox="0 0 64 64" version="1.1" xmlns="http://www.w3.org/2000/svg" xmlns:xlink="http://www.w3.org/1999/xlink">
    <title>autopay</title>
    <g id="autopay" stroke="none" fill="none" fill-rule="nonzero">
        <path d="M43.0995293,9.81155808 C55.3891974,14.7769063 61.3267318,28.7648608 56.3613836,41.0545288 C53.6806644,47.6895416 48.2730424,52.6438233 41.6954774,54.8349636 L45.5785293,56.7272324 C46.494942,57.1741968 46.9167243,58.2287961 46.595346,59.1692461 L46.4993751,59.4015628 C46.0524107,60.3179755 44.9978114,60.7397579 44.0573614,60.4183795 L43.8250447,60.3224086 L34.9274376,55.9827556 C34.0110248,55.5357913 33.5892425,54.481192 33.9106208,53.5407419 L34.0065918,53.3084253 L35.1317268,50.9999724 L39,51 C39.2036104,51 39.4043783,50.9878296 39.6016159,50.9641765 L39.4131578,51.3494843 C45.3542649,49.7136811 50.2814082,45.4251274 52.6526481,39.5561025 C56.7904383,29.3147124 51.842493,17.6580837 41.6011029,13.5202935 C38.8195514,12.3964737 40.3179777,8.6877383 43.0995293,9.81155808 Z" id="Shape" fill="#000000"></path>
        <path d="M7.63861644,22.9454712 C10.3193356,16.3104584 15.7269576,11.3561767 22.3045226,9.16503639 L18.4214707,7.2727676 C17.505058,6.82580323 17.0832757,5.77120394 17.404654,4.83075391 L17.5006249,4.59843721 C17.9475893,3.68202445 19.0021886,3.26024214 19.9426386,3.58162049 L20.1749553,3.67759142 L29.0725624,8.01724436 C29.9889752,8.46420873 30.4107575,9.51880802 30.0893792,10.4592581 L29.9934082,10.6915747 L25.6537553,19.5891819 C25.1695439,20.5819623 23.9722054,20.9942391 22.9794249,20.5100277 C22.0630121,20.0630633 21.6412298,19.008464 21.9626082,18.068014 L22.0585791,17.8356973 L24.5868422,12.6505157 C18.6457351,14.2863189 13.7185918,18.5748726 11.3473519,24.4438975 C7.20956169,34.6852876 12.157507,46.3419163 22.3988971,50.4797065 C25.1804486,51.6035263 23.6820223,55.3122617 20.9004707,54.1884419 C8.61080264,49.2230937 2.67326823,35.2351392 7.63861644,22.9454712 Z" id="Path" fill="#000000"></path>
        <path d="M45,43 L45,44 C45,47.3137085 42.3137085,50 39,50 L23.5946649,49.9999118 C23.3589953,49.8303511 23.0865044,49.6789832 22.7735037,49.5525226 C20.628007,48.6856857 18.7270519,47.4715006 17.1092716,46.0009816 L39,46 C40.1045695,46 41,45.1045695 41,44 L41,43 L45,43 Z M45,29 C46.6568542,29 48,30.3431458 48,32 L48,39 C48,40.6568542 46.6568542,42 45,42 L33.5,42 C29.3578644,42 27,39.6421356 27,35.5 C27,31.3578644 29.3578644,29 33.5,29 L45,29 Z M44,33 L33.5,33 C31.6314366,33 31.1048736,33.4642776 31.0051789,35.3079648 L31,35.5 C31,37.4329966 31.5670034,38 33.5,38 L44,38 L44,33 Z M35,13 C38.3137085,13 41,15.6862915 41,19 L41,20.342 L41.1379533,20.3920944 C43.3295824,21.2281155 44.905081,23.3119672 44.9958615,25.7750617 L45,26 L45,28 L41,28 L41,26 C41,24.8954305 40.1045695,24 39,24 L12.6275095,23.9999917 C13.2935595,22.5490751 14.1281478,21.2092084 15.1032369,19.9998864 L21.146987,20.0011798 C21.4285255,20.5938659 21.9054289,21.0988068 22.5410538,21.4088217 C23.2856391,21.7719803 24.1069337,21.7989558 24.8328717,21.5489953 C25.5588096,21.2990348 26.1893908,20.7721384 26.5525493,20.027553 L26.565,20 L37,20 L37,19 C37,17.9456382 36.1841222,17.0818349 35.1492623,17.0054857 L35,17 L28.023,17 L29.966,13 L35,13 Z M22.6421688,14.3712614 L21.368,17 L18.1406232,16.999994 C19.39942,16.010392 20.7821471,15.1813962 22.2572819,14.5349242 L22.6421688,14.3712614 Z" id="Combined-Shape" fill="#000000"></path>
    </g>
</svg>