<?xml version="1.0" encoding="UTF-8"?>
<svg width="64px" height="64px" viewBox="0 0 64 64" version="1.1" xmlns="http://www.w3.org/2000/svg" xmlns:xlink="http://www.w3.org/1999/xlink">
    <title>avoca</title>
    <g id="avoca" stroke="none" fill="none" fill-rule="evenodd">
        <path d="M34,58 C34.6666667,59.3333333 35.6666667,60 37,60 C39,60 49,51 49,50 C49,49 47,42 45,36 C40.3333333,42.6666667 36.6666667,50 34,58 Z" id="Path" fill="#000000"></path>
        <path d="M39.6423048,22.412901 C40.3089715,23.7462343 41.3089715,24.412901 42.6423048,24.412901 C44.6423048,24.412901 54.6423048,15.412901 54.6423048,14.412901 C54.6423048,13.412901 52.6423048,6.41290099 50.6423048,0.412900991 C45.9756382,7.07956766 42.3089715,14.412901 39.6423048,22.412901 Z" id="Path-Copy-2" fill="#000000" transform="translate(47.1423, 12.4129) rotate(-120) translate(-47.1423, -12.4129)"></path>
        <path d="M5.11640784,34.6686667 C5.7830745,36.002 6.7830745,36.6686667 8.11640784,36.6686667 C10.1164078,36.6686667 20.1164078,27.6686667 20.1164078,26.6686667 C20.1164078,25.6686667 18.1164078,18.6686667 16.1164078,12.6686667 C11.4497412,19.3353334 7.7830745,26.6686667 5.11640784,34.6686667 Z" id="Path-Copy" fill="#000000" transform="translate(12.6164, 24.6687) rotate(118) translate(-12.6164, -24.6687)"></path>
        <path d="M10,14 C24,18 41,19 57,16 C45,29 38,41 33,55 C30,45 23,27 10,14 Z" id="Path" fill="#000000"></path>
    </g>
</svg>