<?xml version="1.0" encoding="UTF-8"?>
<svg width="64px" height="64px" viewBox="0 0 64 64" version="1.1" xmlns="http://www.w3.org/2000/svg" xmlns:xlink="http://www.w3.org/1999/xlink">
    <title>azuga</title>
    <g id="azuga" stroke="none" fill="none" fill-rule="evenodd">
        <path d="M21,5 L43,5 C45.209139,5 47,6.790861 47,9 L47,14 L47,14 L17,14 L17,9 C17,6.790861 18.790861,5 21,5 Z" id="Rectangle" fill="#000000"></path>
        <path d="M44,24 L53,24 C53,37.3333333 53,46.6666667 53,52 C53,57.3333333 50,60 44,60 L20,60 C14,60 11,57.3333333 11,52 C11,46.6666667 11,37.3333333 11,24 L20,24 L20,52 L44,52 L44,24 Z" id="Path" fill="#000000"></path>
    </g>
</svg>