<?xml version="1.0" encoding="UTF-8"?>
<svg width="64px" height="64px" viewBox="0 0 64 64" version="1.1" xmlns="http://www.w3.org/2000/svg" xmlns:xlink="http://www.w3.org/1999/xlink">
    <title>background_job</title>
    <g id="background_job" stroke="none" stroke-width="1" fill="none" fill-rule="evenodd">
        <path d="M31,6 C37.0842824,6 42.4220323,9.19628573 45.4257278,14.0013353 L45.5,14 C53.5081289,14 60,20.7157288 60,29 C60,32.0993064 59.0913632,34.9790713 57.5346314,37.3697687 L54.2459158,35.088601 C55.3046178,33.4235893 55.9420881,31.4380013 55.996245,29.2972136 L56,29 C56,22.9935591 51.4194886,18.1582209 45.846755,18.0031893 L45.5719019,17.9993537 L43.2339843,18.0413857 L42.0339058,16.1216049 C39.6705274,12.3408787 35.5389441,10 31,10 C24.198075,10 18.5737144,15.2402208 18.0410591,21.9533118 L18.0201047,22.2641788 L17.8280528,25.7243993 L14.3757616,26.02721 C10.7836973,26.3422806 8,29.3654481 8,33 C8,36.5477617 10.652619,39.5138566 14.1214266,39.945814 L14.3591794,39.9713159 L14.681,40 L31,40 L31,44 L14,44 L14.000274,43.9551817 C8.39364311,43.4500817 4,38.738136 4,33 C4,27.2530046 8.40722066,22.5353708 14.0262516,22.0425089 C14.522612,13.0995259 21.9322144,6 31,6 Z M49.5669866,39.1438945 L52.9623354,41.4999684 L50.9210361,42.9165375 C49.3928063,43.5542134 47.7354513,43.9303149 46.0008047,43.991221 L36.999,44 L36.999,40 L45.661,40 L45.860445,39.9936843 C47.1697208,39.9477137 48.4197587,39.6496311 49.5669866,39.1438945 Z" id="Path" fill="#000000" fill-rule="nonzero"></path>
        <path d="M35.6714121,23.421958 L59.0047455,39.6059381 C60.3317515,40.5263484 60.3317515,42.4736516 59.0047455,43.3940619 L35.6714121,59.578042 C34.1249314,60.6506797 32,59.554439 32,57.6839801 L32,25.3160199 C32,23.445561 34.1249314,22.3493203 35.6714121,23.421958 Z M36,28.518 L36,54.481 L54.717,41.5 L36,28.518 Z" id="Path-103" fill="#000000" fill-rule="nonzero"></path>
    </g>
</svg>