<?xml version="1.0" encoding="UTF-8"?>
<svg width="64px" height="64px" viewBox="0 0 64 64" version="1.1" xmlns="http://www.w3.org/2000/svg" xmlns:xlink="http://www.w3.org/1999/xlink">
    <title>background_batch</title>
    <g id="background_batch" stroke="none" stroke-width="1" fill="none" fill-rule="evenodd">
        <path d="M31,6 C37.0842824,6 42.4220323,9.19628573 45.4257278,14.0013353 L45.5,14 C53.5081289,14 60,20.7157288 60,29 C60,30.3106056 59.837518,31.5819529 59.5322555,32.793661 C59.240858,32.1900977 58.9202071,31.6043653 58.5720708,31.0373407 C58.4021555,30.7605923 58.2253035,30.4876662 58.0416141,30.2188504 C57.8172702,30.3870412 57.5733581,30.5312564 57.3134183,30.6468936 C56.8281896,30.8627532 56.306394,30.9704532 55.7848906,30.9704532 L55.8323916,30.9687401 C55.9262128,30.4246077 55.981846,29.8663962 55.996245,29.2972136 L56,29 C56,22.9935591 51.4194886,18.1582209 45.846755,18.0031893 L45.5719019,17.9993537 L43.2339843,18.0413857 L42.0339058,16.1216049 C39.6705274,12.3408787 35.5389441,10 31,10 C24.198075,10 18.5737144,15.2402208 18.0410591,21.9533118 L18.0201047,22.2641788 L17.8280528,25.7243993 L14.3757616,26.02721 C10.7836973,26.3422806 8,29.3654481 8,33 C8,36.5477617 10.652619,39.5138566 14.1214266,39.945814 L14.3591794,39.9713159 L14.681,40 L24.7360395,39.9998389 C24.9378873,40.4603924 25.0498021,40.9693075 25.0498021,41.5043841 C25.0498021,42.2914827 24.8077405,43.0218785 24.3935009,43.6250193 C24.3030929,43.7566549 24.2045185,43.8822521 24.0985062,44.001076 L14,44 L14.000274,43.9551817 C8.39364311,43.4500817 4,38.738136 4,33 C4,27.2530046 8.40722066,22.5353708 14.0262516,22.0425089 C14.522612,13.0995259 21.9322144,6 31,6 Z M50.5614709,38.6382219 C50.846428,39.541749 51,40.5032343 51,41.5 C51,41.9852631 50.9636,42.462166 50.8933603,42.9280915 C49.3725786,43.5587913 47.7248673,43.9306865 46.0008047,43.991221 L32.3325982,44.0009677 C32.1157021,43.2037748 32,42.3651748 32,41.5 C32,40.9896795 32.040253,40.4886066 32.117782,39.9998247 L45.661,40 L45.860445,39.9936843 C47.5447738,39.934545 49.1310652,39.4581668 50.5265521,38.6592028 Z" id="Path" fill="#000000" fill-rule="nonzero"></path>
        <path d="M56.9502943,41.5043841 C56.9501979,39.4796993 58.2166771,37.7515918 60,37.06613 C59.5291172,35.0941508 58.7515391,33.2408796 57.719875,31.5605636 C57.1056172,31.8338233 56.4451094,31.9704532 55.7848906,31.9704532 C54.5688047,31.9704532 53.3531042,31.5068945 52.4249245,30.5789099 C50.9928125,29.1468017 50.6666536,27.0286536 51.4440391,25.2823352 C49.7641042,24.2499993 47.9114062,23.4716524 45.9394219,23 C45.2550182,24.7853417 43.5260391,26.0534556 41.5,26.0534556 C39.4741536,26.0534556 37.7451745,24.7853417 37.0606745,23 C35.0886901,23.4716524 33.2360885,24.2499993 31.5561536,25.2824316 C32.3335391,27.0285572 32.0073802,29.146609 30.5751719,30.5790063 C29.6471849,31.5069908 28.4312917,31.9706459 27.2152057,31.9706459 C26.5547943,31.9706459 25.8945755,31.8339197 25.280125,31.56066 C24.2485573,33.2408796 23.4707865,35.0940544 23,37.06613 C24.7834193,37.7513991 26.0498021,39.4796993 26.0498021,41.5043841 C26.0498021,43.5285871 24.7844792,45.2560201 23.0021198,45.9418673 C23.4740625,47.9138466 24.2524115,49.7663469 25.2849427,51.4463738 C25.8978516,51.1745594 26.556625,51.0386041 27.2151094,51.0386041 C28.4312917,51.0386041 29.6469922,51.502259 30.5750755,52.4302436 C32.0050677,53.8602321 32.3324792,55.974237 31.5593333,57.7190137 C33.2395573,58.7509641 35.0920625,59.5288293 37.0640469,60 C37.7508594,58.2194759 39.4773333,56.9556016 41.5,56.9556016 C43.5226667,56.9556016 45.2491406,58.2192833 45.9358568,60 C47.9080339,59.5288293 49.7604427,58.7508678 51.440763,57.718821 C50.6677135,55.974237 50.9950286,53.8602321 52.4251172,52.4302436 C53.3529115,51.5021628 54.5688047,51.0385077 55.7847943,51.0385077 C56.4434714,51.0385077 57.1019557,51.1744631 57.7150573,51.4463738 C58.7475885,49.7663469 59.5259375,47.9138466 59.9978802,45.9418673 C58.2155208,45.2559238 56.9502943,43.5283945 56.9502943,41.5043841 L56.9502943,41.5043841 Z M41.5,52 C35.685625,52 31,47.288125 31,41.5 C31,35.7117437 35.685625,31 41.5,31 C47.3142438,31 52,35.7117437 52,41.5 C52,47.288125 47.3142438,52 41.5,52 L41.5,52 Z" id="Shape" fill="#000000" fill-rule="nonzero"></path>
    </g>
</svg>