<?xml version="1.0" encoding="UTF-8"?>
<svg width="64px" height="64px" viewBox="0 0 64 64" version="1.1" xmlns="http://www.w3.org/2000/svg" xmlns:xlink="http://www.w3.org/1999/xlink">
    <title>background_style</title>
    <g id="background_style" stroke="none" stroke-width="1" fill="none" fill-rule="evenodd">
        <path d="M11.3861068,54.8551068 L14.9371068,58.9991068 L12.0711068,59 C10.9665373,59 10.0711068,58.1045695 10.0711068,57 C10.0711068,56.469567 10.2818205,55.9608592 10.6568932,55.5857864 L11.3861068,54.8551068 Z M17.1021068,49.1391068 L25.8031068,58.9991068 L20.2051068,58.9991068 L14.2221068,52.0191068 L17.1021068,49.1391068 Z M23.0551068,43.1861068 L37.6031068,58.9991068 L31.1371068,58.9991068 L19.9361068,46.3051068 L23.0551068,43.1861068 Z M28.6311068,37.6101068 L48.5451068,58.9991068 L43.0351068,58.9991068 L25.8841068,40.3571068 L28.6311068,37.6101068 Z M34.5951068,31.6461068 L58.3600547,57.1711393 C57.6474296,58.2717313 56.4087629,59 55,59 L54.0051068,58.9991068 L31.4591068,34.7821068 L34.5951068,31.6461068 Z M40.5591068,25.6821068 L58.9991068,45.4871068 L58.9991068,51.9921068 L37.4231068,28.8181068 L40.5591068,25.6821068 Z M46.4521068,19.7891068 L58.9991068,33.2651068 L58.9991068,39.6221068 L43.3871068,22.8541068 L46.4521068,19.7891068 Z M52.2311068,14.0101068 L58.4814868,21.3015827 L58.9991068,20.8571068 L58.9991068,27.4001068 L49.2801068,16.9611068 L52.2311068,14.0101068 Z M58.4142136,10.6568932 C58.7892863,11.031966 59,11.5406738 59,12.0711068 L58.9991068,15.7591068 L55.0681068,11.1731068 L55.5857864,10.6568932 C56.366835,9.87584464 57.633165,9.87584464 58.4142136,10.6568932 Z" id="Path-2" fill="#000000"></path>
        <path d="M51.9292525,6.99967966 L6.99967966,51.9292525 L6.99967966,9 C6.99967966,8.44767102 7.22363691,7.94761562 7.58562627,7.58562627 C7.94761562,7.22363691 8.44767102,6.99967966 9,6.99967966 L51.9292525,6.99967966 Z" id="Path" stroke="#000000" stroke-width="4"></path>
    </g>
</svg>