<?xml version="1.0" encoding="UTF-8"?>
<svg width="64px" height="64px" viewBox="0 0 64 64" version="1.1" xmlns="http://www.w3.org/2000/svg" xmlns:xlink="http://www.w3.org/1999/xlink">
    <title>bait_for_demolition</title>
    <g id="bait_for_demolition" stroke="none" stroke-width="1" fill="none" fill-rule="evenodd">
        <circle id="Oval-24" fill="#000000" fill-rule="nonzero" cx="15" cy="46" r="9"></circle>
        <path d="M53.0073661,46 L31.9926339,46 C29.2332341,46 27,48.2404463 27,51.0016655 L27,52.9983345 C27,55.7630209 29.2327513,58 31.9926339,58 L53.0073661,58 C55.7667659,58 58,55.7595537 58,52.9983345 L58,51.0016655 C58,48.2369791 55.7672487,46 53.0073661,46 Z M31.9926339,50 L53.0073661,50 C53.556414,50 54,50.4444259 54,51.0016655 L54,52.9983345 C54,53.5532966 53.5547346,54 53.0073661,54 L31.9926339,54 C31.443586,54 31,53.5555741 31,52.9983345 L31,51.0016655 C31,50.4467034 31.4452654,50 31.9926339,50 Z" id="Rectangle-54" fill="#000000" fill-rule="nonzero"></path>
        <path d="M17.7226499,6.58397485 L14.7226499,8.58397485 L14.5556897,9.22932146 L30.5556897,40.2293215 L31.2480695,40.4341216 L38.2480695,36.4341216 L38.4116064,35.7161335 L18.4116064,6.71613352 L17.7226499,6.58397485 Z M17.868,7.689 L37.279,35.835 L31.204,39.306 L15.649,9.168 L17.868,7.689 Z" id="Path-129" fill="#000000" fill-rule="nonzero"></path>
        <line x1="15.5" y1="9" x2="15.5" y2="37" id="Path-130" stroke="#000000" style="mix-blend-mode: overlay;" stroke-linecap="round" stroke-linejoin="bevel"></line>
        <path d="M54,24 L56,38 L56,42 L50,42 L50,45 L35,45 L35,42 L31,42 L38,38 L41,38 L41,34 L45,24 L54,24 Z M51,27 L47,27 L44,34 L52,34 L51,27 Z" id="Combined-Shape" fill="#000000" fill-rule="nonzero"></path>
        <polygon id="Path-132" fill="#000000" fill-rule="nonzero" points="31.1687547 39.1195721 34.4946536 31.7196895 31.9433812 28.1094378 27.157248 31.2261353 28.1119994 33.1378748 32.5454875 29.8705762 29.81916 36.5186461"></polygon>
        <polygon id="Path-132-Copy" fill="#000000" fill-rule="nonzero" points="27.2303119 31.3309597 29.8968463 24.9630674 27.5386714 21.7088905 23.4066839 24.3930199 24.5388762 26.3031937 28.5341299 23.5317604 26.1635789 29.4348767"></polygon>
        <polygon id="Path-132-Copy-2" fill="#000000" fill-rule="nonzero" points="23.4837737 24.4469977 24.9711461 18.1190669 22.563723 14.5926151 19.4648116 16.5818918 20.537509 18.7289269 24 16.5818918 22.315795 22.2491161"></polygon>
        <polygon id="Path-132-Copy-3" fill="#000000" fill-rule="nonzero" points="19.3541719 16.5546047 20.5078361 11.5500253 17.8174441 7.60845124 15.5526122 9.05750234 16.4096965 11.0977747 18.9484436 9.28832464 18.0989114 14.3623893"></polygon>
    </g>
</svg>