<svg width="30" height="35" viewBox="0 0 30 35" fill="none" xmlns="http://www.w3.org/2000/svg">
  <path fill="currentColor" d="M24.4 8.85c-1.22-.27-1.36.37-.88 1.52 2.76 6.1.3 12.04-2.32 13.52-.05-.2-.07-.4-.07-.6-.31-2.89-1.41-5.4-2.15-5.4-.6 0-.23 2.47-.38 4.65-.98-.57-1.57-.98-2.61-.8-1.5.26-3.49 3.42-3.55 2.97-.59-3.65.83-9.28 2.8-9.88.3-.12.87.35 2.03.8.93.35.82-.58.4-.93a4.52 4.52 0 0 0-4.75-.34c-2.96 1.45-4.3 8.03-2.7 10.72a4.17 4.17 0 0 0 2.96 2.05c1.99.23 2.61-.19 4.19-2.15.22.18.48.3.76.37-1.3 4.05-6.2 7.48-7.24 6.9-5.12-3.48-3.7-14.62-.1-24.38a55.07 55.07 0 0 0 1.75-5.42C13.08-.17 9.75-.7 7.47 1.23c-1.66 1.4-3.25 4.65-4.55 8.45C-1.2 21.8.55 31.98 7.94 34.2c8.52 2.54 12.57-2.77 13.2-8.1.52.06 1.04.08 1.57.07 2.6-.05 6.38-1.41 7.49-7.17.84-4.36-1.95-9.4-5.8-10.15Z"/>
</svg>