<?xml version="1.0" encoding="UTF-8"?>
<svg width="64px" height="64px" viewBox="0 0 64 64" version="1.1" xmlns="http://www.w3.org/2000/svg" xmlns:xlink="http://www.w3.org/1999/xlink">
    <title>barcode</title>
    <g id="barcode" stroke="none" stroke-width="1" fill="none" fill-rule="evenodd">
        <polygon id="Path-59" fill="#000000" fill-rule="nonzero" points="16 8 4 8 4 56 16 56 16 52 8 52 8 12 16 12"></polygon>
        <polygon id="Path-59-Copy" fill="#000000" fill-rule="nonzero" transform="translate(54.000000, 32.000000) scale(-1, 1) translate(-54.000000, -32.000000) " points="60 8 48 8 48 56 60 56 60 52 52 52 52 12 60 12"></polygon>
        <rect id="Rectangle" fill="#000000" fill-rule="nonzero" x="12" y="16" width="4" height="32"></rect>
        <rect id="Rectangle-Copy" fill="#000000" fill-rule="nonzero" x="18" y="16" width="6" height="32"></rect>
        <rect id="Rectangle-Copy-6" fill="#000000" fill-rule="nonzero" x="40" y="16" width="6" height="32"></rect>
        <rect id="Rectangle-Copy-3" fill="#000000" fill-rule="nonzero" x="26" y="16" width="2" height="32"></rect>
        <rect id="Rectangle-Copy-5" fill="#000000" fill-rule="nonzero" x="36" y="16" width="2" height="32"></rect>
        <rect id="Rectangle-Copy-4" fill="#000000" fill-rule="nonzero" x="30" y="16" width="4" height="32"></rect>
        <rect id="Rectangle-Copy-7" fill="#000000" fill-rule="nonzero" x="48" y="16" width="4" height="32"></rect>
    </g>
</svg>