<?xml version="1.0" encoding="UTF-8"?>
<svg width="64px" height="64px" viewBox="0 0 64 64" version="1.1" xmlns="http://www.w3.org/2000/svg" xmlns:xlink="http://www.w3.org/1999/xlink">
    <title>bat_exclusion</title>
    <g id="bat_exclusion" stroke="none" stroke-width="1" fill="none" fill-rule="evenodd">
        <path d="M45.6686959,22.2826164 C45.6686959,22.2826164 46.0381042,23.7138287 46.3533877,24.0266619 C46.6686713,24.3394952 48.1409805,23.7763953 49.7673822,24.9065055 C51.393784,26.0327053 56,33.8027017 56,33.8027017 C56,33.8027017 53.0163409,32.7977248 51.9320731,33.8027017 C51.3212356,34.3256967 50.8813686,35.0253781 50.6709388,35.8087451 C50.6709388,35.8087451 48.1371355,33.0519019 46.9644345,33.4273018 C45.7917334,33.8027017 43.2617751,35.8087451 43.2617751,35.8087451 C43.2617751,35.8087451 43.0810638,34.0529684 41.8160846,34.0529684 C41.0140312,34.0529684 38.0557162,36.4346042 35.9704665,38.2126346 L37,40.2608246 L36.4083984,42 L34.460862,41.5260585 L34.8537309,40.3711924 L34.4371816,39.5462256 C34.064722,39.8774378 33.8341764,40.0894837 33.8148029,40.114113 C33.0674941,40.975395 32.4553553,41.9488138 32,43 C31.5446447,41.9488138 30.9325059,40.975395 30.1851971,40.114113 C30.1658236,40.0894837 29.935278,39.8774378 29.5628184,39.5462256 L29.1452558,40.3711924 L29.539138,41.5260585 L27.5916016,42 L27,40.2608246 L27.262,39.738 L39.7429106,27.2579712 C40.1248932,27.0732193 40.5245312,26.847736 40.940068,26.5741111 L41.1855175,26.4081052 C44.9766101,23.7763953 45.6686959,22.2826164 45.6686959,22.2826164 Z M34.791413,21 C34.8865848,21.3096127 34.9256684,21.6342323 34.9067607,21.9580519 C34.791413,22.8652684 34.0762576,24.327764 34.1377764,24.8439389 C34.2018465,25.3652312 34.0898305,25.978894 34.3177918,26.6823095 L25.1428694,35.8573948 C23.8267019,34.8454373 22.6465698,34.0529684 22.1839154,34.0529684 C20.9189362,34.0529684 20.7382249,35.8126555 20.7382249,35.8126555 C20.7382249,35.8126555 18.2121115,33.7870601 17.0355655,33.4312122 C16.1626443,33.1671961 14.5447125,34.6058548 13.7677852,35.3659711 L13.5852289,35.5473043 C13.4238359,35.7101139 13.3290612,35.8126555 13.3290612,35.8126555 C13.1186314,35.0292886 12.6787644,34.3296071 12.0679269,33.8066122 C10.9836591,32.8016353 8,33.8066122 8,33.8066122 C8,33.8066122 9.32995607,31.553773 10.8145263,29.297794 L11.1345867,28.8151418 C12.3136777,27.051253 13.5363912,25.3846291 14.2326178,24.9065055 C15.8782442,23.7763953 17.3313287,24.3394952 17.6466123,24.0266619 C17.9618958,23.7138287 18.3313041,22.2826164 18.3313041,22.2826164 C18.3313041,22.2826164 19.019545,23.7724849 22.8144825,26.4081052 C26.3619241,28.8718373 28.8040035,27.8263166 29.1074472,27.6794653 L29.1393784,27.6633487 C30.042935,26.537149 29.7699455,25.5947387 29.8622236,24.8439389 C29.9237424,24.327764 29.208587,22.8652684 29.0932393,21.9580519 C29.0743316,21.6342323 29.1134152,21.3096127 29.208587,21 C29.208587,21 30.2697853,21.6413082 30.5850689,22.1457519 C30.9003525,22.6501955 31.1425825,22.0519019 32,21.9893352 C32.8574175,22.0519019 33.0996475,22.6462851 33.4149311,22.1457519 C33.7302147,21.6452186 34.791413,21 34.791413,21 Z" id="bat" fill="#000000" fill-rule="nonzero"></path>
        <path d="M32,4 C47.463973,4 60,16.536027 60,32 C60,47.463973 47.463973,60 32,60 C16.536027,60 4,47.463973 4,32 C4,16.536027 16.536027,4 32,4 Z M32,6 C17.6405965,6 6,17.6405965 6,32 C6,46.3594035 17.6405965,58 32,58 C46.3594035,58 58,46.3594035 58,32 C58,17.6405965 46.3594035,6 32,6 Z" id="Oval" fill="#000000" fill-rule="nonzero"></path>
        <polygon id="Path-35" fill="#000000" fill-rule="nonzero" points="50.1696961 12.4241294 51.5839097 13.838343 13.7151459 51.7071068 12.3009323 50.2928932"></polygon>
    </g>
</svg>