<?xml version="1.0" encoding="UTF-8"?>
<svg width="64px" height="64px" viewBox="0 0 64 64" version="1.1" xmlns="http://www.w3.org/2000/svg" xmlns:xlink="http://www.w3.org/1999/xlink">
    <title>bed_bug_fumigation</title>
    <g id="bed_bug_fumigation" stroke="none" stroke-width="1" fill="none" fill-rule="evenodd">
        <path d="M27.992,45.621 L27.9982661,45.6775066 C27.9988503,45.6824836 27.9994372,45.6874615 28.0000271,45.6924403 L28,50.5270834 C28,50.5270834 27.2287451,51.0487873 25.6614941,51.3607465 C26.0558741,50.9126703 26.3642344,50.4585775 26.6332212,49.9578703 L26.6332212,49.9578703 L27.992,45.621 Z M28,32.1519031 L28,32.686 L23.6329773,36.4852206 L21.5148295,35.4364153 L21.3433161,35.3770308 C20.9400247,35.2593712 20.518247,35.2870272 20.1444732,35.4386629 C19.7432341,35.6014409 19.3971493,35.9065211 19.1898667,36.3267136 C18.966231,36.780056 18.9466611,37.2815225 19.0959264,37.7258145 C19.245615,38.1713662 19.564904,38.5591691 20.0174719,38.7843499 L20.0174719,38.7843499 L23.3699966,40.4524399 L24.8857579,40.2582426 L28,37.548 L28,40.072 L26.3111189,40.6312091 L25.4431101,41.5144189 L23.1133987,48.690245 L22.9972149,48.8354885 C22.9176236,48.931547 22.8338776,49.0257023 22.7466741,49.1157811 C22.4745598,49.3968676 22.227148,49.6404244 21.840821,49.6502921 C21.3821972,49.70379 20.9745651,49.9263338 20.6830384,50.2555386 C20.4386364,50.5315279 20.2756729,50.8820709 20.2328071,51.2690587 C18.8135359,50.9569181 18,50.5270834 18,50.5270834 L18,50.5270834 L18,32.3264851 C18,32.3264851 20.2226969,33.3334835 23,33.3334835 C25.7773031,33.3334835 28,32.1519031 28,32.1519031 L28,32.1519031 Z M24,29.824144 C26.4509277,29.824144 27.5,31.7230463 27.5,31.7230463 C27.5,31.7230463 25.1745605,32.733843 23,32.733843 C20.8254395,32.733843 18.5,31.7230463 18.5,31.7230463 C18.5,31.7230463 20,29.824144 21.9675293,29.824144 C22.4126967,29.824144 22.6359863,30.1012217 23,30.1012217 C23.3640137,30.1012217 23.8780278,29.824144 24,29.824144 Z M23,28 C23.2983805,28 24,28.1474853 24,28.1474853 L24,28.1474853 L24,29.3273674 C24,29.3273674 23.311971,29.4748527 23,29.4748527 C22.6453044,29.4748527 22,29.3273674 22,29.3273674 L22,29.3273674 L22,28.1474853 C22,28.1474853 22.6317139,28 23,28 Z M23,4 C25.574587,4 27.8651179,4.7601179 29.3284272,5.94087522 C30.6415446,5.34895801 32.2555695,5 34,5 C38.418278,5 42,7.2385763 42,10 C42,12.2731051 39.5730279,14.1919291 36.2502697,14.7994807 L33.121,17.917 L32.9730324,17.9162051 L32.8517584,17.9160653 C32.5588553,17.9115835 32.1723998,17.8683857 31.1875426,17.5843229 C30.9849633,17.3678056 30.7365632,17.2062816 30.4662785,17.1086494 C30.0478242,16.9574953 29.5761065,16.9577272 29.1338068,17.1456582 C28.6667941,17.3440897 28.3186698,17.7168084 28.1381846,18.1637882 C27.9619786,18.6001705 27.9469817,19.1059634 28.134995,19.5777329 C28.2632298,19.8995041 28.4541629,20.1772326 28.7107535,20.440955 C28.9017219,20.6372312 29.1326583,20.8270699 29.4026075,21.0146833 C29.5184722,21.0952088 29.6321608,21.1730489 29.7770244,21.2496199 L28.497,22.524 L27.3269535,22.0755821 L27.1632848,22.0350529 C26.725689,21.9475314 26.2816517,22.0240138 25.8965963,22.2537418 C25.5496141,22.4607549 25.2417973,22.7984331 25.0315841,23.3827272 C24.917638,23.8297618 24.9786952,24.2893436 25.1793258,24.6786094 C25.3044132,24.9213053 25.4834135,25.1366627 25.7073924,25.3048594 L23,28 L9.8210472,14.8122948 C6.4617565,14.2193145 4,12.2893367 4,10 C4,7.2385763 7.581722,5 12,5 C13.7444305,5 15.3584554,5.34895801 16.6731199,5.94127727 C18.1348821,4.7601179 20.425413,4 23,4 Z" id="Combined-Shape" fill="#000000" fill-rule="nonzero"></path>
        <path d="M53.969872,23.5367043 C54.1227042,23.9368948 53.9487123,24.3822664 53.5794941,24.5761955 L53.4908842,24.6163499 L50.9216914,25.6051075 L48.5718051,31.3912706 L48.1514111,31.8337223 L45.8919616,32.8854495 C45.9998139,32.9672129 46.1064201,33.0511483 46.2117376,33.1372041 C46.289644,33.083081 46.377589,33.042599 46.4728959,33.0182655 L46.5683417,32.9997366 L49.8913166,32.5521624 L50.5467491,32.7487498 L56.2127699,37.6770615 L58.7981849,36.3912404 C59.1806035,36.2009634 59.638405,36.3332476 59.8652159,36.6842747 L59.913317,36.7691167 C60.1027782,37.1531823 59.9710612,37.6129553 59.6215394,37.8407432 L59.5370612,37.8890515 L56.4561574,39.4219932 L55.5419044,39.3048603 L49.7399784,34.2587361 L47.6539459,34.539526 C49.0990157,36.2008451 50.1729023,38.325634 50.7089996,40.7118497 C50.7226656,40.7130345 50.7371219,40.7156158 50.7515693,40.7185966 L50.845499,40.7437543 L53.1451737,41.5046305 L53.6785183,42.0473153 L55.8457731,48.9575353 L55.9868518,49.1572947 C56.1502988,49.3811009 56.3351407,49.6050388 56.5348452,49.811328 C57.0038335,50.29578 57.464104,50.5866491 57.8445418,50.6317629 L57.9462648,50.6379345 C58.4058719,50.6379345 58.7784571,51.0121243 58.7784571,51.4737108 C58.7784571,51.9352974 58.4058719,52.3094872 57.9462648,52.3094872 C56.9969167,52.3094872 56.1365158,51.797771 55.3415062,50.9765481 C54.9553728,50.5776829 54.6547911,50.1823327 54.4554489,49.8767309 L54.3762607,49.7515049 L54.2916871,49.5652889 L52.2190791,42.9583324 L51.0086939,42.5577425 C51.0631929,43.0926908 51.0912537,43.637246 51.0912537,44.1894401 C51.0912537,47.5238682 49.5618051,51.4289534 46.8990239,54.8976537 C44.5553364,57.9523479 41.7825229,60 40,60 C38.2174771,60 35.4446636,57.9523479 33.1009761,54.8976537 C30.4381949,51.4289534 28.9087463,47.5238682 28.9087463,44.1894401 C28.9087463,43.6369798 28.9367489,43.0922686 28.9911364,42.5572541 L27.7800887,42.9583324 L25.7083129,49.5652889 L25.6237393,49.7515049 C25.4293434,50.0694472 25.0997891,50.5207022 24.6584938,50.9765481 C23.8634842,51.797771 23.0030833,52.3094872 22.0537352,52.3094872 C21.5941281,52.3094872 21.2215429,51.9352974 21.2215429,51.4737108 C21.2215429,51.0450948 21.5428026,50.691836 21.956684,50.6435573 L22.0537352,50.6379345 C22.4522825,50.6379345 22.9535311,50.3398211 23.4651548,49.811328 C23.6648593,49.6050388 23.8497011,49.3811009 24.0131482,49.1572947 L24.1533947,48.9575353 L26.3214817,42.0473153 L26.8548263,41.5046305 L29.154501,40.7437543 C29.1997542,40.7287817 29.2453721,40.7179223 29.290953,40.7109728 C29.8255912,38.3239849 30.8987765,36.1994677 32.3431573,34.5387912 L30.2591894,34.2587361 L24.4580956,39.3048603 L23.5438426,39.4219932 L20.4629388,37.8890515 C20.0511034,37.6841377 19.8826479,37.1827258 20.086683,36.7691167 C20.2761441,36.3850512 20.7201628,36.2117425 21.1123659,36.353009 L21.201815,36.3912404 L23.7863979,37.6770615 L29.4532509,32.7487498 L30.1086834,32.5521624 L33.4316583,32.9997366 C33.5632883,33.017466 33.6835813,33.0651923 33.7866244,33.1351377 C33.8917402,33.0497388 33.998116,32.9660289 34.1057332,32.8844822 L31.8485889,31.8337223 L31.4281949,31.3912706 L29.0774764,25.6051075 L26.5091158,24.6163499 C26.1106414,24.4628594 25.8972704,24.0351092 26.0006007,23.629723 L26.0301279,23.5367043 C26.1829602,23.1365139 26.6088761,22.9222239 27.0125239,23.0259992 L27.1051437,23.0556537 L30.0099959,24.1745893 L30.4824984,24.6391819 L32.845643,30.4551178 L35.4316796,31.6600305 C35.5442708,31.7124713 35.639675,31.786984 35.7151567,31.8760697 C37.0333937,31.2093724 38.4814439,30.8405386 40,30.8405386 C41.5182357,30.8405386 42.9659953,31.2099059 44.284755,31.8776687 C44.3391966,31.8115606 44.4059847,31.7533209 44.4826321,31.706139 L44.5683204,31.6600305 L47.1535248,30.4551178 L49.5175016,24.6391819 L49.9900041,24.1745893 L52.8948563,23.0556537 C53.3239826,22.8903563 53.8052835,23.10573 53.969872,23.5367043 Z M44.8462504,26 C45.1667678,26 45.452944,26.1587302 45.6132027,26.4195011 C46.0024024,27.0544218 46.1054258,27.8367347 45.8879319,28.5510204 L45.8879319,28.5510204 L44.5257331,31 C43.1291931,30.3537415 41.6067356,30.0022676 40.0041487,30.0022676 C38.4130089,30.0022676 36.8791043,30.3537415 35.4825644,31 L35.4825644,31 L34.1203655,28.5510204 C33.8914245,27.8367347 33.994448,27.0657597 34.3836477,26.4195011 C34.5439064,26.1587302 34.8415296,26 35.1505999,26 C35.2765175,26 35.402435,26.0226758 35.5169055,26.0793651 L35.5169055,26.0793651 L35.5741407,26.1020408 C36.9706807,26.7369615 38.4702441,27.0544218 40.0041487,27.0544218 C41.5380532,27.0544218 43.0376167,26.7369615 44.4341567,26.1020408 L44.4341567,26.1020408 L44.4799449,26.0793651 C44.5944154,26.0226758 44.7203329,26 44.8462504,26 Z M49.4751343,18.0660239 C49.9076933,18.2498162 50.1140558,18.760882 49.9360575,19.2075214 C49.855896,19.4086655 49.7324244,19.5792518 49.572515,19.7436058 C49.4221845,19.8981146 49.2390752,20.0459197 49.0266916,20.1935254 C48.812726,20.3422304 48.6031775,20.4687179 48.4337649,20.5625832 L48.3147892,20.626703 L47.8919696,20.720007 L47.1906991,20.691907 L46.3777728,20.6703237 L45.9891235,20.664987 C45.302771,20.6590289 44.7717109,20.6748927 44.4964042,20.7130386 C43.8978097,20.7969927 42.2971673,22.0337362 41.7564061,22.8450071 L41.6865871,22.9578382 C41.6592218,23.0060838 41.6280715,23.0506203 41.593753,23.0912812 C41.6781803,23.1978375 41.7571893,23.3150181 41.8292235,23.4408066 L42.2467297,24.1676579 C42.359529,23.8917359 42.6214902,23.6983798 42.9266462,23.6983798 C43.3348292,23.6983798 43.6657268,24.0443382 43.6657268,24.4710994 C43.6657268,24.8978607 43.3348292,25.2438191 42.9266462,25.2438191 C42.7502709,25.2438191 42.5883254,25.1792254 42.4612705,25.07143 C42.4231832,25.3125056 42.3066097,25.5403314 42.1203766,25.712134 L41.5940616,26.1921568 C40.3846571,27.2692811 38.6153429,27.2692811 37.4171366,26.1921568 L36.8908217,25.712134 C36.7025763,25.5384752 36.5855041,25.307576 36.5463723,25.0633028 C36.4194965,25.1760644 36.2539931,25.2438191 36.0733538,25.2438191 C35.6651708,25.2438191 35.3342732,24.8978607 35.3342732,24.4710994 C35.3342732,24.0443382 35.6651708,23.6983798 36.0733538,23.6983798 C36.3827617,23.6983798 36.6477627,23.8971618 36.7578982,24.1792394 L37.1819746,23.4408066 C37.2524598,23.3177232 37.3296229,23.2028815 37.4125696,23.0962817 C37.3969492,23.0805771 37.3822667,23.0620933 37.368246,23.0428684 L37.3134129,22.9578382 C36.857547,22.1541353 35.1306949,20.8009905 34.5049448,20.7132267 L34.3092158,20.6929175 C34.0096534,20.66942 33.5599585,20.6602205 33.0108765,20.664987 L32.6222272,20.6703237 L31.3946361,20.7073126 L31.1080304,20.720007 L30.6852108,20.626703 C30.5013207,20.530573 30.2407654,20.3794067 29.9733084,20.1935254 C29.7609248,20.0459197 29.5778155,19.8981146 29.427485,19.7436058 C29.2675756,19.5792518 29.144104,19.4086655 29.0639425,19.2075214 C28.8859442,18.760882 29.0923067,18.2498162 29.5248657,18.0660239 C29.9265278,17.8953596 30.3819899,18.0668962 30.5875219,18.4498767 L30.628407,18.5378215 L30.6189197,18.5133498 C30.6133796,18.4993632 30.6120418,18.4949832 30.6149396,18.4968794 L30.6224671,18.5040148 C30.6847232,18.5680012 30.7885901,18.6518423 30.9191368,18.7425715 C30.998616,18.7978092 31.0791995,18.8500371 31.1554075,18.89707 L31.2643788,18.9618474 L31.7537865,18.9438337 C32.1797848,18.9294099 32.6012538,18.9194681 32.9966365,18.9160359 L33.4798491,18.9153207 C34.0123668,18.9189567 34.4342527,18.9387409 34.7315823,18.9799405 C35.916595,19.1461409 38.0726866,20.8356336 38.7750577,22.0739311 L38.8153915,22.1542531 C39.2635777,22.0324422 39.737076,22.0315286 40.185642,22.1515123 L40.2249423,22.0739311 L40.2249423,22.0739311 C40.9273134,20.8356336 43.083405,19.1461409 44.2697667,18.9797524 C44.6506987,18.9269696 45.2388786,18.9093996 46.0033635,18.9160359 C46.2669519,18.918324 46.5421343,18.9235053 46.8225234,18.930979 L47.7347742,18.9618474 L47.9024833,18.8608554 L48.0808632,18.7425715 C48.1787732,18.6745246 48.2616759,18.6103522 48.3232722,18.5555247 L48.3775329,18.5040148 C48.3846745,18.4966748 48.387564,18.493946 48.3862346,18.4991585 L48.3708244,18.5377118 L48.4124781,18.4498767 C48.6180101,18.0668962 49.0734722,17.8953596 49.4751343,18.0660239 Z" id="Combined-Shape" fill="#000000" fill-rule="nonzero"></path>
    </g>
</svg>