<?xml version="1.0" encoding="UTF-8"?>
<svg width="64px" height="64px" viewBox="0 0 64 64" version="1.1" xmlns="http://www.w3.org/2000/svg" xmlns:xlink="http://www.w3.org/1999/xlink">
    <title>begin_service</title>
    <g id="begin_service" stroke="none" stroke-width="1" fill="none" fill-rule="evenodd">
        <path d="M32,24.0030442 L32,51.9969558 C32,53.61465 33.8213697,54.56275 35.1469247,53.6350633 L55.1469247,39.6381076 C56.2843584,38.8420771 56.2843584,37.1579229 55.1469247,36.3618924 L35.1469247,22.3649367 C33.8213697,21.43725 32,22.38535 32,24.0030442 Z M36,27.8442088 L50.51,38 L36,48.1537916 L36,27.8442088 Z" id="Path-103" fill="#000000" fill-rule="nonzero"></path>
        <path d="M15,11 L15,15 L14,15 C12.9456382,15 12.0818349,15.8158778 12.0054857,16.8507377 L12,17 L12,54 C12,55.0543618 12.8158778,55.9181651 13.8507377,55.9945143 L14,56 L42,56 C43.0543618,56 43.9181651,55.1841222 43.9945143,54.1492623 L44,54 L44,49.879 L48,47.08 L48,54 C48,57.2383969 45.4344251,59.8775718 42.2249383,59.9958615 L42,60 L14,60 C10.7616031,60 8.12242824,57.4344251 8.00413847,54.2249383 L8,54 L8,17 C8,13.7616031 10.5655749,11.1224282 13.7750617,11.0041385 L14,11 L15,11 Z M30,46 L30,50 L30,50 L18,50 C16.8954305,50 16,49.1045695 16,48 C16,46.8954305 16.8954305,46 18,46 L30,46 Z M30,38 L30,42 L18,42 C16.8954305,42 16,41.1045695 16,40 C16,38.8954305 16.8954305,38 18,38 L30,38 Z M30,30 L30,34 L18,34 C16.8954305,34 16,33.1045695 16,32 C16,30.8954305 16.8954305,30 18,30 L30,30 Z M42,11 C45.2383969,11 47.8775718,13.5655749 47.9958615,16.7750617 L48,17 L48,28.919 L44,26.12 L44,17 C44,15.9456382 43.1841222,15.0818349 42.1492623,15.0054857 L42,15 L41,15 L41,11 L42,11 Z M30.5336468,21.999366 C30.1999423,22.5753461 30,23.2523893 30,24.0030442 L30,24.0030442 L30,26 L18,26 C16.8954305,26 16,25.1045695 16,24 C16,22.8954305 16.8954305,22 18,22 Z M28,4 C30.963829,4 33.0330253,5.3866802 33.735469,7.90524888 L33.735469,7.90524888 L33.76,8 L35,8 C37.1421954,8 38.8910789,9.68396847 38.9951047,11.8003597 L38.9951047,11.8003597 L39,12 L39,15 C39,17.209139 37.209139,19 35,19 L35,19 L21,19 C18.790861,19 17,17.209139 17,15 L17,15 L17,12 C17,9.790861 18.790861,8 21,8 L21,8 L22.239,8 L22.2645206,7.90528649 C22.945668,5.46301662 24.9120034,4.08508155 27.7330372,4.00381301 L27.7330372,4.00381301 Z M28,8 C26.6056662,8 26.1729885,8.34309099 26.0364954,9.38854796 L26.0364954,9.38854796 L26.007958,9.56596746 C25.7391369,10.9701091 24.5081567,12 23.061759,12 L23.061759,12 L21,12 L21,15 L35,15 L35,12 L32.9380147,12 C31.4314048,11.9998666 30.1585421,10.8823511 29.9634841,9.38839093 L29.9634841,9.38839093 L29.9429748,9.25016844 C29.7856835,8.31260686 29.3309483,8 28,8 Z" id="Combined-Shape" fill="#000000" fill-rule="nonzero"></path>
    </g>
</svg>