<?xml version="1.0" encoding="UTF-8"?>
<svg width="64px" height="64px" viewBox="0 0 64 64" version="1.1" xmlns="http://www.w3.org/2000/svg" xmlns:xlink="http://www.w3.org/1999/xlink">
    <title>billing</title>
    <g id="billing" stroke="none" stroke-width="1" fill="none" fill-rule="evenodd">
        <g id="Group" transform="translate(12.000000, 4.000000)" fill="#000000" fill-rule="nonzero">
            <path d="M15.004,30 C15.42,30 15.768,29.86 16.048,29.58 C16.328,29.3 16.468,28.952 16.468,28.536 L16.468,28.536 L16.468,27.058 L16.482963,27.0548148 C16.8174815,26.9807407 17.1435556,26.8844444 17.4611852,26.7659259 L17.776,26.64 C18.712,26.24 19.468,25.664 20.044,24.912 C20.62,24.16 20.908,23.264 20.908,22.224 C20.908,21.408 20.788,20.716 20.548,20.148 C20.308,19.58 19.948,19.108 19.468,18.732 C18.988,18.356 18.384,18.048 17.656,17.808 C17.344,17.7051429 17.0106939,17.6081633 16.6560816,17.5170612 L16.468,17.471 L16.468,13.034 L16.81,13.152 C16.924,13.194 17.0365,13.238 17.1475,13.284 L17.476,13.428 C17.908,13.628 18.252,13.84 18.508,14.064 C18.7,14.208 18.916,14.28 19.156,14.28 C19.524,14.28 19.844,14.136 20.116,13.848 C20.388,13.56 20.524,13.24 20.524,12.888 C20.524,12.408 20.292,11.984 19.828,11.616 C19.268,11.136 18.544,10.74 17.656,10.428 C17.323,10.311 16.9793125,10.2159375 16.6249375,10.1428125 L16.468,10.114 L16.468,9.24 C16.468,8.88342857 16.3710204,8.57681633 16.1770612,8.32016327 L16.072,8.196 C15.808,7.916 15.468,7.776 15.052,7.776 C14.636,7.776 14.288,7.916 14.008,8.196 C13.728,8.476 13.588,8.824 13.588,9.24 L13.588,9.24 L13.587,10.039 L13.3488889,10.0737778 C12.8961481,10.1496296 12.4623704,10.2634074 12.0475556,10.4151111 L11.74,10.536 C10.828,10.92 10.104,11.48 9.568,12.216 C9.032,12.952 8.764,13.84 8.764,14.88 C8.764,15.568 8.876,16.188 9.1,16.74 C9.324,17.292 9.656,17.772 10.096,18.18 C10.536,18.588 11.084,18.924 11.74,19.188 C12.2085714,19.3765714 12.7302041,19.530449 13.304898,19.6496327 L13.587,19.704 L13.587,24.393 L13.525,24.384 C13.2475,24.336 12.9896875,24.27 12.7515625,24.186 L12.52,24.096 C11.92,23.84 11.316,23.464 10.708,22.968 C10.468,22.776 10.196,22.68 9.892,22.68 C9.492,22.68 9.16,22.82 8.896,23.1 C8.632,23.38 8.5,23.704 8.5,24.072 C8.5,24.296 8.556,24.52 8.668,24.744 C8.78,24.968 8.94,25.168 9.148,25.344 C9.964,26.048 10.82,26.54 11.716,26.82 C12.276,26.995 12.87975,27.1153125 13.52725,27.1809375 L13.587,27.186 L13.588,28.536 C13.588,28.9 13.692125,29.2119375 13.900375,29.4718125 L13.996,29.58 C14.268,29.86 14.604,30 15.004,30 Z M13.587,16.809 L13.5006667,16.7823333 L13.5006667,16.7823333 L13.228,16.692 C12.7,16.508 12.296,16.26 12.016,15.948 C11.736,15.636 11.596,15.24 11.596,14.76 C11.596,14.36 11.716,14.008 11.956,13.704 C12.196,13.4 12.552,13.16 13.024,12.984 C13.1588571,12.9337143 13.3025306,12.8906122 13.4550204,12.8546939 L13.587,12.828 L13.587,16.809 Z M16.468,24.166 L16.468,20.397 L16.490875,20.4054375 C16.906375,20.5891875 17.236375,20.8021875 17.480875,21.0444375 L17.596,21.168 C17.884,21.504 18.028,21.912 18.028,22.392 C18.028,22.792 17.876,23.148 17.572,23.46 C17.268,23.772 16.868,24.02 16.372,24.204 L16.468,24.166 Z" id="$"></path>
            <path d="M28,0 C28.2652165,0 28.5195704,0.10535684 28.7071068,0.292893219 L28.7071068,0.292893219 L39.7071068,11.2928932 C39.8946432,11.4804296 40,11.7347835 40,12 L40,12 L40,28.667 L36,31.333 L36,14.5 L26,14.5 C25.4871642,14.5 25.0644928,14.1139598 25.0067277,13.6166211 L25,13.5 L25,4 L4,4 L4,31.333 L0,28.667 L0,1 C0,0.487164161 0.38604019,0.0644928393 0.883378875,0.00672773133 L1,0 Z M29,6 L29,11 L34,11 L29,6 Z" id="page"></path>
        </g>
        <path d="M53,26.574 L59.0481949,30.2966834 C59.5674359,30.614827 59.9464658,31.1663864 59.9947786,31.8510001 L60,32 L60,58 C60,59.0543618 59.1841222,59.9181651 58.1492623,59.9945143 L58,60 L6,60 C4.9456382,60 4.08183488,59.1841222 4.00548574,58.1492623 L4,58 L4,32 C4,31.295468 4.3456901,30.7173252 4.84571503,30.3662303 L4.95180515,30.2966834 L11,26.574 L11,31.271 L9.666,32.092 L22.336,40.803 L22.6712723,40.5051814 C22.9916118,40.2204352 23.3936395,40.0472153 23.8172878,40.0083595 L24,40 L40,40 C40.4285998,40 40.84416,40.1376266 41.1866131,40.390042 L41.3287277,40.5051814 L41.663,40.803 L54.333,32.092 L53,31.272 L53,26.574 Z M39.24,44 L24.759,44 L11.259,55.999 L52.739,55.999 L39.24,44 Z M56,35.802 L44.743,43.541 L56,53.547 L56,35.802 Z M8,35.803 L8,53.546 L19.256,43.541 L8,35.803 Z" id="Combined-Shape" fill="#000000" fill-rule="nonzero"></path>
    </g>
</svg>