<?xml version="1.0" encoding="UTF-8"?>
<svg width="64px" height="64px" viewBox="0 0 64 64" version="1.1" xmlns="http://www.w3.org/2000/svg" xmlns:xlink="http://www.w3.org/1999/xlink">
    <title>billing_terms</title>
    <g id="billing_terms" stroke="none" stroke-width="1" fill="none" fill-rule="evenodd">
        <path d="M24.2901354,32 C24.6924565,32 25.0290135,31.8614111 25.2998066,31.5842333 C25.5705996,31.3070554 25.7059961,30.962563 25.7059961,30.5507559 L25.7059961,30.5507559 L25.7059961,29.087653 L25.7204671,29.0844999 C26.043986,29.0111724 26.3593381,28.9158467 26.6665234,28.7985228 L26.9709865,28.6738661 C27.8762089,28.2778978 28.6073501,27.7077034 29.1644101,26.9632829 C29.72147,26.2188625 30,25.3318934 30,24.3023758 C30,23.4946004 29.8839458,22.8095752 29.6518375,22.2473002 C29.4197292,21.6850252 29.0715667,21.2177826 28.6073501,20.8455724 C28.1431335,20.4733621 27.5589942,20.1684665 26.8549323,19.9308855 C26.5531915,19.8290651 26.2308451,19.733063 25.8878933,19.6428792 L25.7059961,19.5972822 L25.7059961,15.2050036 L26.0367505,15.3218143 C26.1470019,15.3633909 26.2558027,15.4069474 26.3631528,15.4524838 L26.6808511,15.5950324 C27.098646,15.7930166 27.4313346,16.0028798 27.6789168,16.224622 C27.8646035,16.3671706 28.073501,16.4384449 28.3056093,16.4384449 C28.6615087,16.4384449 28.9709865,16.2958963 29.2340426,16.0107991 C29.4970986,15.7257019 29.6286267,15.4089273 29.6286267,15.0604752 C29.6286267,14.5853132 29.4042553,14.1655868 28.9555126,13.8012959 C28.4139265,13.3261339 27.7137331,12.9341253 26.8549323,12.62527 C26.532882,12.5094492 26.2004956,12.4153449 25.8577732,12.3429569 L25.7059961,12.3144348 L25.7059961,11.4492441 C25.7059961,11.0962666 25.6122054,10.7927447 25.424624,10.5386785 L25.3230174,10.4157667 C25.0676983,10.1385889 24.7388781,10 24.3365571,10 C23.934236,10 23.5976789,10.1385889 23.3268859,10.4157667 C23.0560928,10.6929446 22.9206963,11.037437 22.9206963,11.4492441 L22.9206963,11.4492441 L22.9197292,12.2401908 L22.6894477,12.274618 C22.251594,12.3497054 21.8320797,12.4623363 21.4309048,12.612511 L21.1334623,12.7321814 C20.2514507,13.112311 19.5512573,13.6666667 19.032882,14.3952484 C18.5145068,15.1238301 18.2553191,16.0028798 18.2553191,17.0323974 C18.2553191,17.7134629 18.3636364,18.3272138 18.5802708,18.8736501 C18.7969052,19.4200864 19.1179884,19.8952484 19.5435203,20.2991361 C19.9690522,20.7030238 20.4990329,21.0356371 21.1334623,21.2969762 C21.5866261,21.483647 22.0911065,21.6359736 22.6469032,21.753956 L22.9197292,21.8077754 L22.9197292,26.449514 L22.8597679,26.4406048 C22.5913926,26.3930886 22.3420575,26.3277538 22.1117626,26.2446004 L21.8878143,26.1555076 C21.3075435,25.9020878 20.7234043,25.5298776 20.1353965,25.0388769 C19.9032882,24.8488121 19.6402321,24.7537797 19.3462282,24.7537797 C18.959381,24.7537797 18.6382979,24.8923686 18.3829787,25.1695464 C18.1276596,25.4467243 18,25.7674586 18,26.1317495 C18,26.3534917 18.0541586,26.575234 18.1624758,26.7969762 C18.270793,27.0187185 18.4255319,27.2167027 18.6266925,27.3909287 C19.4158607,28.087833 20.2437137,28.574874 21.1102515,28.8520518 C21.6518375,29.025288 22.235735,29.1443878 22.8619439,29.2093514 L22.9197292,29.2143629 L22.9206963,30.5507559 C22.9206963,30.9110871 23.0213975,31.2198805 23.2227998,31.4771362 L23.3152805,31.5842333 C23.5783366,31.8614111 23.9032882,32 24.2901354,32 Z M22.9197292,18.9419546 L22.8362347,18.9155568 L22.8362347,18.9155568 L22.5725338,18.8261339 C22.0618956,18.6439885 21.6711799,18.3984881 21.4003868,18.0896328 C21.1295938,17.7807775 20.9941973,17.3887689 20.9941973,16.9136069 C20.9941973,16.5176386 21.1102515,16.1691865 21.3423598,15.8682505 C21.5744681,15.5673146 21.9187621,15.3297336 22.3752418,15.1555076 C22.5056645,15.1057287 22.6446137,15.0630611 22.7920894,15.0275047 L22.9197292,15.0010799 L22.9197292,18.9419546 Z M25.7059961,26.224802 L25.7059961,22.4937905 L25.728119,22.502143 C26.1299565,22.6840409 26.4491054,22.894894 26.6855658,23.1347023 L26.7969052,23.2570194 C27.0754352,23.5896328 27.2147002,23.9935205 27.2147002,24.4686825 C27.2147002,24.8646508 27.0676983,25.2170626 26.7736944,25.5259179 C26.4796905,25.8347732 26.0928433,26.0802736 25.6131528,26.262419 L25.7059961,26.224802 Z" id="$" fill="#000000" fill-rule="nonzero"></path>
        <path d="M11,24.643 L11,29.409 L9.692,30.259 L21.915,38.973 L22.4541605,38.4923588 C22.7597145,38.219371 23.1419141,38.0515585 23.5453199,38.0101068 C23.2706937,39.2982894 23.1263811,40.6335222 23.1263811,42.0025805 C23.1263811,42.3640563 23.1364416,42.723174 23.1562969,43.079667 L10.934,54 L27.3789897,54.0006406 C28.6449069,55.5583332 30.1521511,56.9107081 31.8435023,58.0003424 L5.92857143,58 C4.91186541,58 4.0789122,57.1842157 4.00528982,56.1494744 L4,56.0002291 L4,30.003208 C4,28.8660607 4.86860864,28.0582135 5.82968,28.0030155 L11,24.643 Z M7.85714286,33.8057723 L7.857,51.533 L18.894,41.673 L7.85714286,33.8057723 Z M36.3,4 C36.5585861,4 36.8065811,4.10423713 36.9894291,4.28978042 L47.7144291,15.1728749 C47.8972771,15.3584182 48,15.6100689 48,15.8724667 L48.0003051,23.9613516 C46.7528253,23.5476332 45.447907,23.2605821 44.1006746,23.1153763 L44.1,18.345 L34.35,18.3458973 C33.8499851,18.3458973 33.4378805,17.9639599 33.3815595,17.4719068 L33.375,17.3565251 L33.375,7.957 L15.9,7.95748891 L15.9,33 L12,30.361 L12,4.98937223 C12,4.48198669 12.3763892,4.06380742 12.8612944,4.00665623 L12.975,4 L36.3,4 Z M37.275,9.935 L37.275,14.8830945 L42.151,14.883 L37.275,9.935 Z" id="Combined-Shape" fill="#000000" fill-rule="nonzero"></path>
        <g id="clock" transform="translate(24.000000, 24.000000)" fill="#000000">
            <path d="M18,6 C19.0543618,6 19.9181651,6.81587779 19.9945143,7.85073766 L20,8 L20,17.171 L24.4142136,21.5857864 C25.1541543,22.3257272 25.1930986,23.5012114 24.5310463,24.2869988 L24.4142136,24.4142136 C23.6742728,25.1541543 22.4987886,25.1930986 21.7130012,24.5310463 L21.5857864,24.4142136 L16.5857864,19.4142136 C16.2523884,19.0808156 16.0488544,18.6418293 16.0077406,18.1758528 L16,18 L16,8 C16,6.8954305 16.8954305,6 18,6 Z" id="Path-2"></path>
            <path d="M18,0 C27.9411255,0 36,8.0588745 36,18 C36,27.9411255 27.9411255,36 18,36 C8.0588745,36 0,27.9411255 0,18 C0,8.0588745 8.0588745,0 18,0 Z M18,4 C10.2680135,4 4,10.2680135 4,18 C4,25.7319865 10.2680135,32 18,32 C25.7319865,32 32,25.7319865 32,18 C32,10.2680135 25.7319865,4 18,4 Z" id="Oval" fill-rule="nonzero"></path>
        </g>
    </g>
</svg>