<?xml version="1.0" encoding="UTF-8"?>
<svg width="64px" height="64px" viewBox="0 0 64 64" version="1.1" xmlns="http://www.w3.org/2000/svg" xmlns:xlink="http://www.w3.org/1999/xlink">
    <title>billing_office</title>
    <g id="billing_office" stroke="none" stroke-width="1" fill="none" fill-rule="evenodd">
        <g id="office" transform="translate(4.000000, 11.999958)" fill="#000000" fill-rule="nonzero">
            <path d="M52,28.0000421 L52,48.0000421 L0,48.0000421 L0,4.00004212 C0,1.79090312 1.790861,4.212195e-05 4,4.212195e-05 L16.7890501,-0.000223115402 C15.9519574,1.25029006 15.2369009,2.58939717 14.6609186,4.00006001 L4,4.00004212 L4,44.0000421 L10,44.0000421 L10,40.0000421 L18,40.0000421 L18,44.0000421 L24,44.0000421 L24.0003469,31.8433728 C25.2593555,32.5934698 26.5977906,33.2241411 28.000023,33.7197575 L28,44.0000421 L34,44.0000421 L34,40.0000421 L42,40.0000421 L42,44.0000421 L48,44.0000421 L48.0010426,31.2104716 C49.4200845,30.2604806 50.7250329,29.1533393 51.8909889,27.9139467 L51.9951047,27.8004018 C51.9983555,27.866539 52,27.9330985 52,28.0000421 Z M12,32.0000421 L12,36.0000421 L8,36.0000421 L8,32.0000421 L12,32.0000421 Z M20,32.0000421 L20,36.0000421 L16,36.0000421 L16,32.0000421 L20,32.0000421 Z M32.0002788,34.7294843 C33.1407347,34.9075936 34.3095711,35.0000421 35.5,35.0000421 C35.6672527,35.0000421 35.8340792,34.9982172 36.0004606,34.9945862 L36,36.0000421 L32,36.0000421 Z M44.0007785,33.3387983 L44,36.0000421 L40,36.0000421 L40.0005712,34.5498446 C41.3843213,34.2689207 42.7219552,33.8610071 44.0007785,33.3387983 Z M12,24.0000421 L12,28.0000421 L8,28.0000421 L8,24.0000421 L12,24.0000421 Z M16.1572643,24.0006938 C17.0190222,25.4469506 18.0383761,26.7883859 19.1916324,28.0013057 L16,28.0000421 L16,24.0000421 Z M12,16.0000421 L12,20.0000421 L8,20.0000421 L8,16.0000421 L12,16.0000421 Z M12,8.00004212 L12,12.0000421 L8,12.0000421 L8,8.00004212 L12,8.00004212 Z" id="Combined-Shape"></path>
        </g>
        <path d="M40,10 C41.1045695,10 42,10.8954305 42,12 L41.9988614,13.290072 C42.2260754,13.3288008 42.4557883,13.3737768 42.688,13.425 C43.64,13.635 44.55,13.971 45.418,14.433 C46.286,14.895 47.014,15.504 47.602,16.26 C47.91,16.68 48.092,17.184 48.148,17.772 C48.204,18.36 47.938,18.892 47.35,19.368 C46.93,19.704 46.44,19.851 45.88,19.809 C45.32,19.767 44.858,19.578 44.494,19.242 C44.018,18.626 43.381,18.136 42.583,17.772 C42.3951991,17.6863364 42.2008074,17.6107529 41.9998249,17.5452493 L41.9992376,22.8929135 C42.599806,23.068885 43.2073934,23.2659138 43.822,23.484 C44.69,23.792 45.488,24.198 46.216,24.702 C46.944,25.206 47.532,25.857 47.98,26.655 C48.428,27.453 48.652,28.468 48.652,29.7 C48.652,31.128 48.232,32.346 47.392,33.354 C46.552,34.362 45.502,35.125 44.242,35.643 C43.5042326,35.9463044 42.7568655,36.1608119 41.9998987,36.2865226 L42,37 C42,38.1045695 41.1045695,39 40,39 C38.8954305,39 38,38.1045695 38,37 L37.9999194,36.2217589 C37.1406129,36.0784922 36.2813065,35.8575726 35.422,35.559 C33.77,34.985 32.398,33.97 31.306,32.514 C31.026,32.122 30.9,31.618 30.928,31.002 C30.956,30.386 31.32,29.854 32.02,29.406 C32.468,29.126 32.944,29.007 33.448,29.049 C33.952,29.091 34.442,29.35 34.918,29.826 C35.73,30.638 36.584,31.268 37.48,31.716 C37.6456043,31.7988021 37.8188606,31.8739523 37.9997688,31.9414504 L38.0002226,26.3332651 C37.6274783,26.2143944 37.2510708,26.0906393 36.871,25.962 C35.961,25.654 35.128,25.255 34.372,24.765 C33.616,24.275 33,23.624 32.524,22.812 C32.048,22 31.81,20.978 31.81,19.746 C31.81,18.346 32.202,17.156 32.986,16.176 C33.77,15.196 34.785,14.44 36.031,13.908 C36.6704447,13.6349787 37.3264818,13.4320144 37.9991113,13.299107 L38,12 C38,10.8954305 38.8954305,10 40,10 Z M41.9991818,27.583 L41.9991818,32.24 L42.226,32.199 C42.658,32.115 43.0437143,31.9384286 43.3831429,31.6692857 L43.549,31.527 C43.927,31.177 44.116,30.638 44.116,29.91 C44.116,29.294 43.906,28.804 43.486,28.44 C43.066,28.076 42.513,27.768 41.827,27.516 L41.9991818,27.583 Z M37.9986702,17.5080751 C37.6997382,17.6231978 37.4288482,17.7881728 37.186,18.003 C36.822,18.325 36.64,18.836 36.64,19.536 C36.64,20.18 36.85,20.691 37.27,21.069 C37.4771966,21.2554769 37.7201686,21.424918 37.9989159,21.5773232 Z" id="small-dollar" fill="#000000" fill-rule="nonzero"></path>
        <path d="M39.5,4 C50.8218374,4 60,13.1781626 60,24.5 C60,35.8218374 50.8218374,45 39.5,45 C28.1781626,45 19,35.8218374 19,24.5 C19,13.1781626 28.1781626,4 39.5,4 Z M39.5,8 C30.3873016,8 23,15.3873016 23,24.5 C23,33.6126984 30.3873016,41 39.5,41 C48.6126984,41 56,33.6126984 56,24.5 C56,15.3873016 48.6126984,8 39.5,8 Z" id="Oval" fill="#000000" fill-rule="nonzero"></path>
    </g>
</svg>