<?xml version="1.0" encoding="UTF-8"?>
<svg width="64px" height="64px" viewBox="0 0 64 64" version="1.1" xmlns="http://www.w3.org/2000/svg" xmlns:xlink="http://www.w3.org/1999/xlink">
    <title>billto</title>
    <g id="billto" stroke="none" stroke-width="1" fill="none" fill-rule="evenodd">
        <path d="M24,4 C27.3750847,4 30.5549072,4.6966452 33.3436806,5.99996193 L28,6 L27.7946016,6.00692108 C27.0480111,6.05740265 26.3763318,6.38102754 25.8786797,6.87867966 C25.5576604,7.19969896 25.3090559,7.59313314 25.1594712,8.03237739 C24.7782731,8.01080169 24.3914859,8 24,8 C14.6638298,8 8,14.1432314 8,23.2307692 C8,27.2534389 10.3274034,33.1169685 15.0076788,40.6706526 L15.9128093,42.1067381 L16.8731226,43.5822158 C17.0377755,43.8313992 17.2047292,44.0822147 17.3739845,44.3346577 L18.4171419,45.8688099 C18.5956067,46.1277447 18.7763747,46.3882979 18.9594467,46.6504649 L20.0855321,48.2427947 L21.2669495,49.8736338 L22.5037361,51.5427612 L24,53.516 L25.1642134,51.9814367 C25.314282,52.4151169 25.5610294,52.8036701 25.8786797,53.1213203 C26.4215729,53.6642136 27.1715729,54 28,54 L28,54 L28.653,54 L27.4710744,55.5638907 L26.122314,57.3120915 L24.7206612,59.0952829 C24.4826446,59.3953973 24.2424242,59.6969697 24,60 L22.5719008,58.1993134 C22.338292,57.9021149 22.1068871,57.6063742 21.877686,57.3120915 L20.5289256,55.5638907 L19.2330579,53.8506802 L17.9900826,52.1724603 C17.7873278,51.8956728 17.5867769,51.6203433 17.3884298,51.3464717 L16.2247934,49.7207374 C16.0352617,49.4526976 15.8479339,49.1861157 15.6628099,48.9209917 L14.5785124,47.3477432 C11.5812672,42.9397754 9.22093664,38.9531511 7.49752066,35.3878703 L6.91570248,34.1470312 C4.97190083,29.8653274 4,26.2265734 4,23.2307692 C4,11.4615385 12.954305,4 24,4 Z M24,17 C24.340994,17 24.6753441,17.0284458 25.0008069,17.0830939 L25.0008069,28.9169061 C24.6753441,28.9715542 24.340994,29 24,29 C20.6862915,29 18,26.3137085 18,23 C18,19.6862915 20.6862915,17 24,17 Z" id="Oval" fill="#000000" fill-rule="nonzero"></path>
        <g id="Group" transform="translate(26.000000, 7.000000)" fill="#000000" fill-rule="nonzero">
            <g transform="translate(8.136091, 9.000000)" id="small-dollar">
                <path d="M9.07581818,0 C10.1803877,-2.02906125e-16 11.0758182,0.8954305 11.0758182,2 L11.0746796,3.290072 C11.3018936,3.32880082 11.5316065,3.37377682 11.7638182,3.425 C12.7158182,3.635 13.6258182,3.971 14.4938182,4.433 C15.3618182,4.895 16.0898182,5.504 16.6778182,6.26 C16.9858182,6.68 17.1678182,7.184 17.2238182,7.772 C17.2798182,8.36 17.0138182,8.892 16.4258182,9.368 C16.0058182,9.704 15.5158182,9.851 14.9558182,9.809 C14.3958182,9.767 13.9338182,9.578 13.5698182,9.242 C13.0938182,8.626 12.4568182,8.136 11.6588182,7.772 C11.4710173,7.68633642 11.2766256,7.61075285 11.0756431,7.5452493 L11.0750558,12.8929135 C11.6756241,13.068885 12.2832116,13.2659138 12.8978182,13.484 C13.7658182,13.792 14.5638182,14.198 15.2918182,14.702 C16.0198182,15.206 16.6078182,15.857 17.0558182,16.655 C17.5038182,17.453 17.7278182,18.468 17.7278182,19.7 C17.7278182,21.128 17.3078182,22.346 16.4678182,23.354 C15.6278182,24.362 14.5778182,25.125 13.3178182,25.643 C12.5800507,25.9463044 11.8326836,26.1608119 11.0757169,26.2865226 L11.0758182,27 C11.0758182,28.1045695 10.1803877,29 9.07581818,29 C7.97124868,29 7.07581818,28.1045695 7.07581818,27 L7.07573754,26.2217589 C6.21643109,26.0784922 5.35712463,25.8575726 4.49781818,25.559 C2.84581818,24.985 1.47381818,23.97 0.381818182,22.514 C0.101818182,22.122 -0.0241818182,21.618 0.00381818182,21.002 C0.0318181818,20.386 0.395818182,19.854 1.09581818,19.406 C1.54381818,19.126 2.01981818,19.007 2.52381818,19.049 C3.02781818,19.091 3.51781818,19.35 3.99381818,19.826 C4.80581818,20.638 5.65981818,21.268 6.55581818,21.716 C6.72142246,21.7988021 6.89467874,21.8739523 7.07558702,21.9414504 L7.07604083,16.3332651 C6.70329652,16.2143944 6.32688897,16.0906393 5.94681818,15.962 C5.03681818,15.654 4.20381818,15.255 3.44781818,14.765 C2.69181818,14.275 2.07581818,13.624 1.59981818,12.812 C1.12381818,12 0.885818182,10.978 0.885818182,9.746 C0.885818182,8.346 1.27781818,7.156 2.06181818,6.176 C2.84581818,5.196 3.86081818,4.44 5.10681818,3.908 C5.74626285,3.63497868 6.40229997,3.43201435 7.07492953,3.29910702 L7.07581818,2 C7.07581818,0.8954305 7.97124868,2.02906125e-16 9.07581818,0 Z M11.075,17.583 L11.075,22.24 L11.3018182,22.199 C11.7338182,22.115 12.1195325,21.9384286 12.458961,21.6692857 L12.6248182,21.527 C13.0028182,21.177 13.1918182,20.638 13.1918182,19.91 C13.1918182,19.294 12.9818182,18.804 12.5618182,18.44 C12.1418182,18.076 11.5888182,17.768 10.9028182,17.516 L11.075,17.583 Z M7.07448839,7.50807513 C6.77555642,7.62319782 6.50466635,7.78817277 6.26181818,8.003 C5.89781818,8.325 5.71581818,8.836 5.71581818,9.536 C5.71581818,10.18 5.92581818,10.691 6.34581818,11.069 C6.55301478,11.2554769 6.79598675,11.424918 7.07473407,11.5773232 Z"></path>
            </g>
            <path d="M24.9809468,0 L2,0 C0.8954305,2.02906125e-16 -1.3527075e-16,0.8954305 0,2 L0,44 C-3.78894842e-15,45.1045695 0.8954305,46 2,46 L32,46 C33.1045695,46 34,45.1045695 34,44 L34,9.524123 C34,9.01770821 33.8078911,8.53014829 33.4624461,8.15984612 L26.4433929,0.635723127 C26.0651238,0.230234905 25.5354811,7.86312132e-16 24.9809468,0 Z M22,4 L22,11 C22,12.1045695 22.8954305,13 24,13 L30,13 L30,13 L30,42 L4,42 L4,4 L22,4 Z M25,5 L30,10 L25,10 L25,5 Z" id="page"></path>
        </g>
    </g>
</svg>