<?xml version="1.0" encoding="UTF-8"?>
<svg width="64px" height="64px" viewBox="0 0 64 64" version="1.1" xmlns="http://www.w3.org/2000/svg" xmlns:xlink="http://www.w3.org/1999/xlink">
    <title>bioremediation</title>
    <g id="bioremediation" stroke="none" stroke-width="1" fill="none" fill-rule="evenodd">
        <path d="M19.290868,11.6371486 L19.3578243,11.5957515 C23.0290505,9.31628284 27.3608081,8 32,8 C45.254834,8 56,18.745166 56,32 C56,38.9170597 53.0737759,45.1506631 48.3917202,49.5304176 C47.5561643,48.4093275 46.2070574,46.5896932 44.9562972,44.8544922 C43.3932908,42.6861068 42.5127611,38.8792417 42.2017735,37.3141052 C43.3421562,35.4844953 44,33.3190715 44,31 C44,24.372583 38.627417,19 32,19 C30.7153743,19 29.4778953,19.2018588 28.3175516,19.5755878 C28.0159681,19.2398941 25.5531584,16.5088541 24.0000003,15.1530762 C22.8055162,14.1103908 20.2511746,12.307282 19.290868,11.6371486 Z" id="Oval-107" fill="#000000" fill-rule="nonzero"></path>
        <path d="M5.16392107,6.33317235 L10.51,21.898 L6.44051145,20.0166448 L10.628,32.913 L5.11292622,31.5928808 L14.155,43.277 L8.12149018,41.4310578 L9.80462212,43.9111563 C9.87977688,44.0179038 9.98198517,44.1598727 10.1104057,44.3335636 C10.4273921,44.7622929 10.7975696,45.2385784 11.2181541,45.7506236 C12.4178852,47.2112491 13.7848081,48.6713117 15.2979834,50.0364408 C19.6745571,53.9848188 24.3746808,56.3710938 29.2460938,56.3710938 C33.96086,56.3710938 38.3618838,55.4220731 42.3319924,53.8402311 C43.7234916,53.285805 44.9634146,52.6909105 46.0375922,52.0943404 L46.443512,51.8644653 C46.820248,51.6466965 47.1089622,51.4665151 47.3054247,51.3353416 L48.296743,50.6509284 L47.5946387,49.8103554 L47.0858675,49.1740787 C46.9852422,49.0449674 46.8799707,48.9081842 46.7707243,48.7642978 C46.1459246,47.9413861 45.5210533,47.0584616 44.939333,46.152837 C44.311886,45.1760251 43.7733499,44.2317794 43.3511923,43.3461965 C43.2658766,43.1672252 43.1856314,42.9912709 43.1106279,42.8185277 C42.861113,42.2438606 42.5748516,41.3464965 42.2653754,40.1787121 C41.9282237,38.9064969 41.5709037,37.3435924 41.2018109,35.5562424 C40.8880897,34.0370326 40.5800251,32.4258608 40.286565,30.7991851 L39.9731709,29.0247861 L39.6689069,27.2169003 L39.2693286,24.7370196 L37.8551761,26.8129878 C37.7908282,26.9074501 37.6849828,27.0706479 37.5512841,27.2899574 L37.3312377,27.6614185 C37.1852682,27.9151313 37.0414242,28.1804054 36.901,28.457 L36.8183306,28.3134326 C35.9554516,26.836586 34.8016119,25.1618064 33.4307028,23.3493764 C32.8703406,22.6085415 32.2994447,21.8794446 31.7328656,21.1758623 L31.1682756,20.4812951 C30.7475289,19.9684784 30.3939027,19.5475186 30.1311054,19.2405352 L28.6927278,17.5757709 L28.1363986,20.1365858 L27.956,20.939 L27.8078132,20.7391102 C27.0455255,19.7354199 26.1642926,18.713271 25.1835143,17.6802488 C23.9564445,16.3878157 22.6447051,15.1525686 21.3330616,14.0149819 L20.7982807,13.55677 C20.6256604,13.4107058 20.4589076,13.2714261 20.2987049,13.1392646 L19.5717055,12.5533166 L18.3433449,11.6021796 L17.9862484,13.1141364 C17.9609925,13.2210708 17.9099617,13.4187074 17.8360283,13.6758043 L17.7071041,14.1030495 L17.624,14.351 L17.5775006,14.3126204 C17.0508325,13.88507 16.4573893,13.433595 15.8024481,12.9599936 C15.1845568,12.5131838 14.5170539,12.0504889 13.8071086,11.5751312 C12.6964165,10.8314456 11.5239676,10.0842801 10.3393386,9.35671935 L9.1422745,8.63044595 L7.46538058,7.64487334 L5.16392107,6.33317235 Z M38.1012505,30.7679698 L38.198,30.48 L38.1426726,30.1690859 C38.4905105,32.1426008 38.8622854,34.1164214 39.2431372,35.9607141 C39.6190905,37.7812863 39.9841538,39.3780597 40.3321111,40.6910493 C40.6651792,41.9478555 40.9780539,42.9286462 41.2760908,43.6150661 C41.3606201,43.8097487 41.450592,44.0070307 41.5458287,44.2068139 C42.0076024,45.1755014 42.58669,46.1908485 43.2565816,47.2337384 L43.6286819,47.8019808 C44.13066,48.5543442 44.6542211,49.2840789 45.1778281,49.9737117 L45.342,50.189 L45.0665491,50.345891 C44.0645585,50.9023703 42.9012109,51.4605252 41.5917136,51.9822787 C37.8446897,53.4752353 33.690202,54.3710938 29.2460938,54.3710938 C24.9586321,54.3710938 20.6813694,52.1995074 16.6376856,48.5514499 L16.1062946,48.0620756 C15.231273,47.2396538 14.4098245,46.3847965 13.6483006,45.520829 L13.286,45.103 L19.5897295,47.0314024 L10.17,34.86 L13.6324844,35.6903799 L9.756,23.753 L13.9242033,25.6812156 L8.799,10.76 L8.41639994,10.5276852 C9.87587033,11.4079675 11.3350063,12.326813 12.6943707,13.2370019 C13.3852709,13.6996075 14.0332358,14.1487594 14.6305106,14.5806609 C15.7478938,15.3886634 16.666866,16.1211028 17.347023,16.7549896 L18.3277698,17.6690174 L18.9243431,16.4684295 C19.0485577,16.218451 19.1673326,15.9458902 19.2813512,15.6537945 L19.4534146,15.1884469 L19.492,15.071 L20.0226553,15.5258873 C21.2885904,16.6238312 22.5544297,17.8158548 23.7330999,19.0573102 C25.3213395,20.7301518 26.6228856,22.3598495 27.5359277,23.8857715 L28.7107328,25.8491652 L29.3537415,23.653346 C29.4045149,23.4799593 29.4671779,23.2413974 29.5406329,22.9443976 L29.779,21.942 L29.6220906,21.7498817 C30.3557036,22.6440275 31.1055004,23.5906397 31.8356107,24.5558925 L32.4253551,25.3457811 C34.1484441,27.6853175 35.4481475,29.7452567 36.1061191,31.2979 L37.3026341,34.121367 L38.0006078,31.135325 C38.0280779,31.0178038 38.0617083,30.8951641 38.1012505,30.7679698 Z" id="Path-706" fill="#000000" fill-rule="nonzero"></path>
        <path d="M12.5496021,15.0516291 C12.7075651,14.825129 13.0192341,14.7695688 13.2457342,14.9275318 C15.2257557,16.308415 20.7004459,26.5327759 22.666147,31.4852188 C24.0163207,34.8868844 27.9788302,40.0542963 32.5206276,43.910349 L33.7304198,44.9282365 C37.5513076,48.097671 38.6782578,48.4207025 45.9423885,49.7439345 C46.2140604,49.7934221 46.3941762,50.0537734 46.3446886,50.3254452 C46.2952009,50.597117 46.0348497,50.7772329 45.7631779,50.7277452 L44.1282529,50.4260622 C37.4975582,49.1800087 36.5288889,48.6252242 31.8734154,44.6726588 C27.2138453,40.7166154 23.1517869,35.4193843 21.736685,31.8541367 C19.8542736,27.1115363 14.4225546,16.9674272 12.6736994,15.7477612 C12.4471993,15.5897982 12.3916391,15.2781292 12.5496021,15.0516291 Z" id="Path-707" fill="#000000" fill-rule="nonzero"></path>
        <path d="M35.4260254,36.53125 C35.7021678,36.53125 35.9260254,36.7551076 35.9260254,37.03125 C35.9260254,40.2850485 36.7889592,44.2954402 38.4552213,47.5902718 C38.5798422,47.8366946 38.4811023,48.1374851 38.2346794,48.262106 C37.9882565,48.386727 37.6874661,48.287987 37.5628451,48.0415642 C35.8221075,44.5994662 34.9260254,40.4350213 34.9260254,37.03125 C34.9260254,36.7551076 35.149883,36.53125 35.4260254,36.53125 Z" id="Path-708" fill="#000000" fill-rule="nonzero"></path>
        <path d="M21.8229292,45.9970226 C26.773281,47.0619565 30.1984386,47.2855256 34.5447336,46.3071286 C34.8141344,46.2464836 35.0816894,46.4157136 35.1423343,46.6851144 C35.2029793,46.9545152 35.0337493,47.2220702 34.7643485,47.2827152 C30.2476468,48.2994726 26.692252,48.0674026 21.6126177,46.9746571 C21.3426514,46.9165811 21.1708803,46.6506504 21.2289562,46.3806841 C21.2805793,46.140714 21.4964333,45.9783303 21.7333695,45.9859963 L21.8229292,45.9970226 Z" id="Path-709" fill="#000000" fill-rule="nonzero"></path>
        <path d="M28.8237879,26.2835999 C29.094857,26.2309111 29.3573148,26.4079433 29.4100036,26.6790125 L29.5083132,27.2152769 C29.5816003,27.6303248 29.6548657,28.0756461 29.7232828,28.5340759 C29.7985471,29.0383854 29.8633196,29.5281688 29.9144445,29.9924629 C29.9945214,30.7196882 30.0383301,31.3581665 30.0383301,31.8862305 C30.0383301,32.2398828 30.0055305,32.6153766 29.9395875,33.0656914 L29.87318,33.481696 L29.5958794,34.9759405 C29.2225247,37.0023778 29.0852223,38.5501354 29.2149457,40.4861027 C29.2334078,40.7616272 29.0250175,40.9999505 28.749493,41.0184125 C28.4739685,41.0368746 28.2356452,40.8284843 28.2171832,40.5529598 C28.0934453,38.7063196 28.2013738,37.1950022 28.5128955,35.3567081 L28.975064,32.7925624 C29.0411507,32.3882379 29.0411164,32.2826903 29.0391957,32.0493239 L29.0383301,31.8862305 C29.0383301,31.400207 28.9968609,30.7958252 28.9204523,30.1019144 C28.8708364,29.6513233 28.8077149,29.1740249 28.7342368,28.6816834 C28.6895568,28.382305 28.6427321,28.0884268 28.5951989,27.8052503 L28.4283753,26.8698157 C28.3756864,26.5987465 28.5527187,26.3362888 28.8237879,26.2835999 Z" id="Path-710" fill="#000000" fill-rule="nonzero"></path>
        <path d="M15.3268631,35.9641998 C15.4539637,35.7190467 15.755735,35.6233464 16.0008881,35.750447 L16.3109044,35.9061861 L16.9455437,36.2120215 C17.0227203,36.248392 17.1020456,36.2855017 17.1834477,36.3232937 C18.1146553,36.7556192 19.1240211,37.1880694 20.1745357,37.5914571 C21.6394276,38.1539617 23.0640201,38.6131473 24.4006872,38.932707 C25.7365175,39.2520666 26.9459808,39.4221191 27.996582,39.4221191 C28.2727244,39.4221191 28.496582,39.6459768 28.496582,39.9221191 C28.496582,40.1982615 28.2727244,40.4221191 27.996582,40.4221191 C26.8589691,40.4221191 25.5745739,40.241531 24.1681677,39.9052987 C22.7845515,39.5745148 21.3192616,39.1022113 19.8160649,38.524998 C18.7429528,38.1129331 17.7130501,37.6716841 16.7623531,37.2303104 L16.2884488,37.0070191 L15.5406158,36.6382248 C15.2954627,36.5111242 15.1997624,36.2093529 15.3268631,35.9641998 Z" id="Path-711" fill="#000000" fill-rule="nonzero"></path>
        <path d="M15.4738818,25.8449489 C15.6613147,25.6421595 15.9776524,25.6297107 16.1804417,25.8171436 L16.5770281,26.1704249 C16.6479485,26.2320917 16.7256353,26.2990297 16.809548,26.3705742 C17.2997457,26.7885203 17.8203057,27.2064303 18.3475044,27.5955764 C18.7857693,27.9190768 19.2094561,28.2082019 19.6107016,28.4540093 C20.2373706,28.8379136 20.790052,29.104045 21.2398323,29.2302667 C21.505704,29.3048782 21.660751,29.5808943 21.5861396,29.8467659 C21.5115281,30.1126376 21.235512,30.2676846 20.9696403,30.1930732 C20.4165453,30.0378583 19.7868066,29.7346217 19.0883207,29.3067215 C18.6606249,29.0447103 18.2136607,28.7397008 17.7536292,28.4001335 C17.2059374,27.9958607 16.6676003,27.5636791 16.1607485,27.1315336 L15.6347369,26.6725262 C15.5825791,26.6256788 15.5380529,26.5851206 15.5016872,26.5515088 C15.2988978,26.3640759 15.286449,26.0477383 15.4738818,25.8449489 Z" id="Path-712" fill="#000000" fill-rule="nonzero"></path>
        <path d="M18.3298889,18.7851433 C18.5862177,18.6824292 18.8772794,18.8069586 18.9799934,19.0632874 L19.0685373,19.2971265 C19.1048899,19.3970246 19.1476511,19.5183986 19.195532,19.659821 C19.3538758,20.1275099 19.5119443,20.6523108 19.6593908,21.2228947 C20.0813253,22.8556843 20.3347168,24.5326795 20.3347168,26.1652832 C20.3347168,26.4414256 20.1108592,26.6652832 19.8347168,26.6652832 C19.5585744,26.6652832 19.3347168,26.4414256 19.3347168,26.1652832 C19.3347168,24.6262256 19.0935405,23.0300732 18.6911952,21.4730892 C18.5854066,21.0637116 18.4740014,20.6792994 18.3613083,20.3248218 L18.2483462,19.9805065 C18.1586451,19.7155626 18.0896788,19.5299141 18.0517449,19.4352478 C17.9490308,19.178919 18.0735601,18.8878573 18.3298889,18.7851433 Z" id="Path-713" fill="#000000" fill-rule="nonzero"></path>
    </g>
</svg>