<?xml version="1.0" encoding="UTF-8"?>
<svg width="64px" height="64px" viewBox="0 0 64 64" version="1.1" xmlns="http://www.w3.org/2000/svg" xmlns:xlink="http://www.w3.org/1999/xlink">
    <title>bird_exclusion</title>
    <g id="bird_exclusion" stroke="none" stroke-width="1" fill="none" fill-rule="evenodd">
        <path d="M43.112,23.888 L55.5296555,32.8528279 C55.8799547,33.1224581 56.071027,33.586222 55.9754908,34.0607712 C55.8566014,34.6345442 55.3400929,35.020415 54.7798155,34.9991641 L54.6592151,34.988299 L41.8892174,33.1116729 C41.7901429,33.0972926 41.6957862,33.0972926 41.6030021,33.1052817 L41.4646123,33.1224581 L36.6782922,34.2440755 C36.3157921,36.5445037 35.6671709,38.5075951 34.8366364,39.8832513 L37,51.2496474 L36.989547,51.2496474 C36.989547,51.3131171 37,51.3765867 36.989547,51.4400564 C36.989547,52.2757405 36.3205575,52.9527504 35.4947735,52.9527504 C35.0452962,52.9527504 34.6480836,52.751763 34.3763066,52.4449929 C34.1986063,53.3335684 33.4250871,54 32.4947735,54 C31.5644599,54 30.7909408,53.3335684 30.6132404,52.4449929 C30.3310105,52.7623413 29.9337979,52.9527504 29.4947735,52.9527504 C28.6689895,52.9527504 28,52.2757405 28,51.4400564 C28,51.3765867 28,51.3131171 28.010453,51.2496474 L28.010453,51.2496474 L28,51.2496474 L29.9589118,40.9578782 C29.4051259,40.3628158 28.9046782,39.5330481 28.4795364,38.5212976 L43.112,23.888 Z M32,15 C34.209139,15 36,16.790861 36,19 C36,19.7899346 35.7710198,20.5263879 35.3758135,21.1466058 C35.7353488,21.9377766 36.0471114,22.8541178 36.2985084,23.8668134 C36.6782176,23.890557 37.0463941,23.8048181 37.3689498,23.6338231 L27.054,33.946 L23.5353877,33.1208991 L23.3969979,33.1037084 C23.3042138,33.0957128 23.2098571,33.0957128 23.1107826,33.110105 L23.1107826,33.110105 L10.3407849,34.9882893 L10.2201845,34.9991634 C9.6599071,35.0204319 9.14339861,34.6342408 9.02450919,34.0599913 C8.92897304,33.5850481 9.12004533,33.1208991 9.47034452,32.8510451 L9.47034452,32.8510451 L23.9069171,22.4238837 L24.0467821,22.3203461 C24.2410813,22.1911616 24.4652728,22.0979 24.7030517,22.046088 C25.5628769,21.8625872 26.401472,22.2403829 26.8579224,22.9420035 L26.8579224,22.9420035 L26.9541977,23.0759215 C27.1648711,23.345843 27.4375555,23.5585762 27.7453971,23.6961765 C27.9887281,22.7496528 28.2852642,21.8924896 28.6248647,21.146385 C28.2289802,20.5263879 28,19.7899346 28,19 C28,16.790861 29.790861,15 32,15 Z M31.9953917,11 L33,15 L31,15 L31.9953917,11 Z" id="Combined-Shape" fill="#000000" fill-rule="nonzero"></path>
        <path d="M32,4 C47.463973,4 60,16.536027 60,32 C60,47.463973 47.463973,60 32,60 C16.536027,60 4,47.463973 4,32 C4,16.536027 16.536027,4 32,4 Z M32,6 C17.6405965,6 6,17.6405965 6,32 C6,46.3594035 17.6405965,58 32,58 C46.3594035,58 58,46.3594035 58,32 C58,17.6405965 46.3594035,6 32,6 Z" id="Oval" fill="#000000" fill-rule="nonzero"></path>
        <polygon id="Path-35" fill="#000000" fill-rule="nonzero" points="50.1696961 12.4241294 51.5839097 13.838343 13.7151459 51.7071068 12.3009323 50.2928932"></polygon>
    </g>
</svg>