<?xml version="1.0" encoding="UTF-8"?>
<svg width="64px" height="64px" viewBox="0 0 64 64" version="1.1" xmlns="http://www.w3.org/2000/svg" xmlns:xlink="http://www.w3.org/1999/xlink">
    <title>branch_weeds</title>
    <g id="branch_weeds" stroke="none" stroke-width="1" fill="none" fill-rule="evenodd">
        <path d="M20,56 L19.9960737,55.4950416 C19.9018354,49.4423946 18.1109276,43.6363104 14.5959393,38.0582697 L14.399,37.75 L14.5704549,38.3841469 C16.1152288,44.2321305 16.924586,49.848335 16.9949722,55.2324235 L17,56 L20,56 Z M35.998,55.9993449 L36.0024953,56.0998752 C35.4454785,44.9595396 37.8196899,31.6435657 43.1053016,16.1316049 L43.294,15.58 L43.1390283,15.7868942 C34.5053132,27.3478264 30.1355152,40.5026545 30.0031034,55.3049362 L30,56 L35.998,55.9993449 Z M47.0379335,39.4153976 L47.242,38.704 L47.0239866,39.005592 C43.5951541,43.7948188 41.282916,49.3688555 40.0791709,55.74724 L40.033,55.9993449 L45,56 C45,49.8256399 45.6766858,44.2954829 47.0379335,39.4153976 Z M27.2208436,42.296492 L27.0272122,42.328798 C25.7853262,34.8774822 23.4967704,28.6696856 20.168246,23.679916 L19.82,23.168 L19.9278071,23.5518362 C22.5642442,33.1274946 23.9190664,43.5995419 23.9964812,54.9643741 L24,56 L26,56 C26,51.2796522 26.4071883,46.7113308 27.2208436,42.296492 Z M58,56 C59.1045695,56 60,56.8954305 60,58 C60,59.1045695 59.1045695,60 58,60 L6,60 C4.8954305,60 4,59.1045695 4,58 C4,56.8954305 4.8954305,56 6,56 L13,56 C13,47.6033025 11.0531672,38.5180828 7.14304662,28.7427814 C6.33530622,26.7234304 8.87632167,25.0478945 10.4142136,26.5857864 C13.5807391,29.752312 16.1979769,33.018006 18.2614673,36.3798556 L18.671,37.062 L18.580614,36.4517515 C17.4928021,29.3552034 15.7801608,22.7147663 13.4442141,16.5291349 L13.1359907,15.7248925 C12.390727,13.8085004 14.6750611,12.150019 16.2664756,13.4520854 C22.349119,18.4287936 26.6743758,25.3258618 29.2543698,34.0971705 C32.6754511,23.226854 38.7899086,13.3816643 47.5857864,4.58578644 C49.1236783,3.04789454 51.6646938,4.72343037 50.8569534,6.74278135 C45.7510303,19.507589 42.4380825,30.870897 40.9082427,40.8225791 L40.814,41.45 L40.9192338,41.2523892 C43.711615,36.0669182 47.5065665,31.5749111 52.2981031,27.7908027 L52.7805785,27.414752 C54.5947786,26.0192135 56.9510351,28.2718229 55.6384638,30.1469247 C51.3225798,36.3124733 49.0938929,44.6904741 49.0029041,55.3185557 L49,56 L58,56 Z" id="Combined-Shape" fill="#000000" fill-rule="nonzero"></path>
    </g>
</svg>