<?xml version="1.0" encoding="UTF-8"?>
<svg width="64px" height="64px" viewBox="0 0 64 64" version="1.1" xmlns="http://www.w3.org/2000/svg" xmlns:xlink="http://www.w3.org/1999/xlink">
    <title>pest_birds</title>
    <g id="pest_birds" stroke="none" stroke-width="1" fill="none" fill-rule="evenodd">
        <path d="M56.9277342,4.31138271 C58.775182,3.13801692 60.894563,5.35827967 59.6366174,7.1492078 L55.279,13.3516499 L55.3232256,13.6817346 C55.7451067,17.0744762 55.2621849,19.6601178 53.6882935,21.3786462 L53.5089177,21.5660224 C52.7287904,22.3457989 51.8170184,22.9520179 50.8262557,23.3630504 L50.644,23.4336499 L50.4506969,23.8787624 C50.3813027,24.0333569 50.3095915,24.1886626 50.2355956,24.3446212 L50.121,24.5786499 L50.1722234,24.5706707 C52.0305985,24.3299577 53.8777681,25.1081467 54.9818005,26.6655029 L55.1106705,26.8561102 C55.4426182,27.3762074 55.6757393,27.9514643 55.7917161,28.5476924 L55.8085593,28.6477654 L55.8423487,28.8861414 L59.9718467,55.6699668 C60.147667,57.1023628 59.4950034,58.5385055 58.2557571,59.3671897 C56.7005825,60.3946884 54.64114,60.1470192 53.3917977,58.7982139 L53.322212,58.7189983 L53.2052046,58.5784955 L53.1349102,58.4890282 L41.556,42.8556499 L41.534,42.8386499 L36.553,39.7736499 L36.3618915,39.9048711 C33.7681848,41.6531495 31.214499,42.8904323 28.9270753,43.4902761 L28.659,43.5566499 L19.5921097,56.7792385 C19.4998105,56.9138395 19.3945282,57.0331994 19.279256,57.137041 L19.192,57.2086499 L19.1049971,57.2942948 L19.058,57.3326499 L18.9675236,57.4205505 C17.3208419,58.9057662 14.8194967,58.9432474 13.1803276,57.4705162 L13.0139043,57.312775 C12.8361942,57.1351447 12.676818,56.9445128 12.5362376,56.7433752 L12.462,56.6306499 L12.3107748,56.6420774 C11.0396334,56.7028139 9.76304222,56.2788959 8.77440599,55.3812728 L8.60298965,55.2179536 C7.59288518,54.2083032 7.11348812,52.8563054 7.17785709,51.5104197 L7.188,51.3596499 L7.07293185,51.2839183 C6.93966383,51.1905707 6.8110909,51.0890153 6.68789712,50.9794211 L6.50722631,50.8090218 C4.82024538,49.1227992 4.86273705,46.3831631 6.57745113,44.6694761 L6.68410225,44.5657056 L6.687,44.5626499 L6.69420631,44.555458 C6.7634962,44.478592 6.83968954,44.4061724 6.92270412,44.3390877 L7.05233164,44.2425726 L20.263,35.1916499 L20.3191359,34.9645876 C20.9209297,32.6307782 22.1910734,30.0165795 23.994061,27.3639669 L24.096,27.2156499 L21.157,22.4416499 L5.51212647,10.8642852 L5.42264633,10.7940437 L5.2820804,10.6770888 L5.2028443,10.6075475 C3.85303414,9.35839822 3.60509275,7.29854663 4.63972469,5.73403932 C5.37766971,4.6315293 6.61217678,3.98820578 7.90538678,4.00031484 L8.01755476,4.00451509 L8.21835126,4.01768488 L8.3922978,4.03676546 L35.0806644,8.1528492 L35.3421796,8.19003516 L35.4421697,8.20684921 C36.0383863,8.32271942 36.6136747,8.55564374 37.1411524,8.89202178 C38.6963064,9.89321392 39.5483776,11.6208123 39.448677,13.4721669 L39.436,13.6286499 L39.7806666,13.4660772 C39.9553538,13.3860034 40.1291857,13.3088359 40.3020845,13.2346173 L40.4,13.1926499 L40.4719221,13.0125397 C40.8416001,12.1210084 41.3700673,11.2931018 42.0411142,10.5676414 L42.2700549,10.3296689 C44.031556,8.56895964 46.7653517,8.01515975 50.3930633,8.45774193 L50.398,8.45864991 L56.9277342,4.31138271 Z M8.502,8.10064991 L23.63599,19.3027877 L23.8176416,19.4531745 C23.9624936,19.5820782 24.093854,19.7190264 24.2654014,19.9256103 L24.3945634,20.0919408 L24.5179668,20.2699838 L28.1980428,26.2467819 C28.626364,26.9424168 28.5885569,27.8286255 28.102546,28.4852536 C25.8549016,31.5219472 24.4159521,34.4760796 24.0260581,36.7299737 C23.934049,37.2618591 23.6309522,37.7339699 23.185638,38.0390322 L9.513,47.4036499 L9.46890464,47.4448336 L9.414,47.4886499 L9.38606965,47.5174468 C9.25586748,47.6475904 9.23491217,47.8180207 9.29710998,47.9295575 L9.33501751,47.9799589 C9.3873684,48.0322863 9.45710223,48.0574489 9.55950547,48.0504805 C11.2188217,47.9375668 12.2829811,49.7814333 11.3550906,51.1616865 C11.0809262,51.569511 11.1214765,52.0797254 11.4307808,52.3888907 C11.7405152,52.6984858 12.2522878,52.7391235 12.661002,52.4646078 C14.0428306,51.5364934 15.8875173,52.6040538 15.7712465,54.2645742 C15.7646252,54.3591363 15.7907388,54.4327782 15.8416955,54.483712 C15.9462603,54.5882298 16.1545722,54.5850018 16.3069597,54.4326829 L16.405,54.3406499 L16.439,54.3036499 L25.8122276,40.6353926 C26.0827056,40.2409509 26.4843134,39.9581706 26.9424509,39.8350286 L27.1167565,39.7964271 C29.3551785,39.4045149 32.2797069,37.983872 35.2892425,35.7677699 C35.9454367,35.2845746 36.8291768,35.2478238 37.5232237,35.6748686 L43.7227436,39.4894126 L43.90063,39.612609 L44.1264112,39.7896209 C44.3568283,39.9829057 44.5617243,40.1948143 44.7469355,40.443936 L55.899,55.5006499 L51.8856679,29.4727722 L51.859,29.2896499 L51.8388475,29.2130324 C51.8275128,29.1796767 51.8137445,29.1460242 51.7977861,29.1128361 L51.7435833,29.0154269 C51.4961564,28.6314436 51.0482686,28.4537028 50.4939071,28.5728198 L50.1888129,28.6241986 C48.5489436,28.845955 46.8978246,28.2745272 45.7731991,27.0600805 C45.1703497,26.4090829 45.0684619,25.4387275 45.5229439,24.6767096 C46.2661145,23.4306553 46.8510594,22.2308817 47.2585412,21.1251049 C47.4895037,20.4983453 48.0181141,20.0282601 48.6675605,19.8720852 C49.4184385,19.6915186 50.1127757,19.3050547 50.6811265,18.7369594 C51.4510582,17.9673738 51.7207434,16.1539605 51.208411,13.2058872 C51.168099,12.9739231 51.1694201,12.7390621 51.2100612,12.5116424 L51.211,12.5046499 L51.084495,12.5263943 C50.9659884,12.5403142 50.8460095,12.5436562 50.7259796,12.536123 L50.5460742,12.5166295 C47.6688843,12.072457 45.8847214,12.3722103 45.0978461,13.1587318 C44.5296564,13.7266661 44.1435752,14.4199434 43.9644353,15.1675865 C43.8086829,15.8176218 43.3384862,16.3468753 42.7113169,16.5780968 C41.6021677,16.9870121 40.4015387,17.5720654 39.154079,18.3156866 C38.3426914,18.7993616 37.3035307,18.6493986 36.6620013,17.9560506 C35.6304871,16.8412175 35.1628557,15.3165041 35.3794956,13.7280585 L35.4514035,13.3275466 C35.5136038,12.8907774 35.3350575,12.4865281 34.9832115,12.2599909 C34.8812019,12.1949426 34.775401,12.1521056 34.6790768,12.1333858 L34.699,12.1386499 L34.4942672,12.109563 L8.502,8.10064991 Z" id="Combined-Shape" fill="#000000" fill-rule="nonzero"></path>
    </g>
</svg>