<?xml version="1.0" encoding="UTF-8"?>
<svg width="64px" height="64px" viewBox="0 0 64 64" version="1.1" xmlns="http://www.w3.org/2000/svg" xmlns:xlink="http://www.w3.org/1999/xlink">
    <title>branch_general</title>
    <g id="branch_general" stroke="none" stroke-width="1" fill="none" fill-rule="evenodd">
        <path d="M46.0002547,4 C47.1048242,4 48.0002547,4.8954305 48.0002547,6 C48.0002547,7.1045695 47.1048242,8 46.0002547,8 C40.6409644,8 37.421268,10.6073835 36.2457684,15.8256606 C39.0758357,17.0064843 41,19.3284706 41,22 C41,22.8244438 40.8167499,23.3882092 40.4802013,23.7649843 C41.6522439,24.3638945 42.6659298,25.1066275 43.5359342,25.9764128 C46.4557892,24.2439815 48.0002547,20.3495225 48.0002547,14 C48.0002547,12.8954305 48.8956852,12 50.0002547,12 C51.1048242,12 52.0002547,12.8954305 52.0002547,14 C52.0002547,21.445419 50.0110366,26.6138652 45.876733,29.2345169 C46.5781746,30.6078775 47.0883233,32.146431 47.4324845,33.8199783 C52.3148143,32.666707 56.3903214,33.5616396 59.4144683,36.5857864 C60.1955169,37.366835 60.1955169,38.633165 59.4144683,39.4142136 C58.6334197,40.1952621 57.3670897,40.1952621 56.5860412,39.4142136 C54.5460363,37.3742087 51.7529804,36.8121078 47.93784,37.8164695 L47.9646923,38.3341171 C47.9789397,38.6618327 47.988801,38.9929092 47.9944104,39.3271948 L48,40 C48,41.3880502 47.8600197,42.7588334 47.5985754,44.0926304 C47.6986831,44.1227912 47.7977104,44.1626599 47.8946819,44.2111456 C52.6428071,46.5852082 55.0002547,51.3001035 55.0002547,58 C55.0002547,59.1045695 54.1048242,60 53.0002547,60 C51.8956852,60 51.0002547,59.1045695 51.0002547,58 C51.0002547,52.8978046 49.4780794,49.6629358 46.4633733,47.9779527 C43.7583245,54.8657659 37.8791622,60 32,60 C26.1208378,60 20.2416755,54.8657659 17.5376788,47.9787573 C14.5221754,49.6629358 13,52.8978046 13,58 C13,59.1045695 12.1045695,60 11,60 C9.8954305,60 9,59.1045695 9,58 C9,51.3001035 11.3574477,46.5852082 16.1055728,44.2111456 C16.2025443,44.1626599 16.3015716,44.1227912 16.401784,44.0912492 C16.1399803,42.7588334 16,41.3880502 16,40 C16,39.4358382 16.011562,38.8803097 16.0353077,38.3341171 L16.0624147,37.8164695 C12.2472744,36.8121078 9.4542184,37.3742087 7.41421356,39.4142136 C6.63316498,40.1952621 5.36683502,40.1952621 4.58578644,39.4142136 C3.80473785,38.633165 3.80473785,37.366835 4.58578644,36.5857864 C7.60993331,33.5616396 11.6854404,32.666707 16.5672949,33.8203371 C16.9116767,32.146431 17.4218254,30.6078775 18.1233584,29.2330148 C13.9891389,26.6136595 12,21.4452707 12,14 C12,12.8954305 12.8954305,12 14,12 C15.1045695,12 16,12.8954305 16,14 C16,20.3495225 17.5444655,24.2439815 20.4646129,25.976641 C21.3340702,25.1066275 22.3477561,24.3638945 23.5191011,23.7640074 C23.1832501,23.3882092 23,22.8244438 23,22 C23,19.3284706 24.9241643,17.0064843 27.7533906,15.8266762 C26.5789868,10.6073835 23.3592903,8 18,8 C16.8954305,8 16,7.1045695 16,6 C16,4.8954305 16.8954305,4 18,4 C25.3219412,4 30.0903428,7.97093447 31.6678063,15.0051255 C31.7779393,15.0015704 31.8887338,15 32,15 C32.1112662,15 32.2220607,15.0015704 32.3323491,15.0046843 C33.9099119,7.97093447 38.6783136,4 46.0002547,4 Z M20.0159795,38.8796752 L20.0017672,39.621028 C20.0005877,39.7464287 20,39.872752 20,40 C20,47.3217049 24.9083726,54.204305 30.0001316,55.7004486 L30.0004352,26.0866657 C23.17087,26.7123746 20.254056,30.7474103 20.0159795,38.8796752 Z M34.0005722,26.086758 L34.0008699,55.7001542 C39.092271,54.2034025 44,47.3212248 44,40 L43.9982328,39.621028 L43.9840205,38.8796752 C43.7459557,30.7478102 40.8294168,26.7127714 34.0005722,26.086758 Z M32,19 C29.0498214,19 27,20.5943056 27,22 C27,22.1654722 27.0284043,22.333558 27.0833379,22.501349 C28.548172,22.1722347 30.1823081,22 32,22 C33.8176919,22 35.451828,22.1722347 36.9163103,22.5009957 C36.9715957,22.333558 37,22.1654722 37,22 C37,20.5943056 34.9501786,19 32,19 Z" id="Oval" fill="#000000" fill-rule="nonzero"></path>
    </g>
</svg>