<?xml version="1.0" encoding="UTF-8"?>
<svg width="64px" height="64px" viewBox="0 0 64 64" version="1.1" xmlns="http://www.w3.org/2000/svg" xmlns:xlink="http://www.w3.org/1999/xlink">
    <title>branch_wildlife</title>
    <g id="branch_wildlife" stroke="none" stroke-width="1" fill="none" fill-rule="evenodd">
        <g id="Group" transform="translate(0.000000, 5.000000)" fill="#000000" fill-rule="nonzero">
            <path d="M23.8121778,0.782273844 C19.7347085,0.782273844 16.8121778,5.16606985 16.8121778,10.2822738 C16.8121778,15.3984778 19.7347085,19.7822738 23.8121778,19.7822738 C27.8896472,19.7822738 30.8121778,15.3984778 30.8121778,10.2822738 C30.8121778,5.16606985 27.8896472,0.782273844 23.8121778,0.782273844 Z M23.8121778,4.78227384 C25.257556,4.78227384 26.8121778,7.11420659 26.8121778,10.2822738 C26.8121778,13.4503411 25.257556,15.7822738 23.8121778,15.7822738 C22.3667997,15.7822738 20.8121778,13.4503411 20.8121778,10.2822738 C20.8121778,7.11420659 22.3667997,4.78227384 23.8121778,4.78227384 Z" id="Oval" transform="translate(23.812178, 10.282274) rotate(-7.000000) translate(-23.812178, -10.282274) "></path>
            <path d="M10.8121778,10.7822738 C6.7347085,10.7822738 3.81217783,15.1660699 3.81217783,20.2822738 C3.81217783,25.3984778 6.7347085,29.7822738 10.8121778,29.7822738 C14.8896472,29.7822738 17.8121778,25.3984778 17.8121778,20.2822738 C17.8121778,15.1660699 14.8896472,10.7822738 10.8121778,10.7822738 Z M10.8121778,14.7822738 C12.257556,14.7822738 13.8121778,17.1142066 13.8121778,20.2822738 C13.8121778,23.4503411 12.257556,25.7822738 10.8121778,25.7822738 C9.36679966,25.7822738 7.81217783,23.4503411 7.81217783,20.2822738 C7.81217783,17.1142066 9.36679966,14.7822738 10.8121778,14.7822738 Z" id="Oval-Copy-2" transform="translate(10.812178, 20.282274) rotate(-30.000000) translate(-10.812178, -20.282274) "></path>
            <path d="M52.8121778,10.7822738 C48.7347085,10.7822738 45.8121778,15.1660699 45.8121778,20.2822738 C45.8121778,25.3984778 48.7347085,29.7822738 52.8121778,29.7822738 C56.8896472,29.7822738 59.8121778,25.3984778 59.8121778,20.2822738 C59.8121778,15.1660699 56.8896472,10.7822738 52.8121778,10.7822738 Z M52.8121778,14.7822738 C54.257556,14.7822738 55.8121778,17.1142066 55.8121778,20.2822738 C55.8121778,23.4503411 54.257556,25.7822738 52.8121778,25.7822738 C51.3667997,25.7822738 49.8121778,23.4503411 49.8121778,20.2822738 C49.8121778,17.1142066 51.3667997,14.7822738 52.8121778,14.7822738 Z" id="Oval-Copy-3" transform="translate(52.812178, 20.282274) rotate(30.000000) translate(-52.812178, -20.282274) "></path>
            <path d="M39.8121778,0.782273844 C35.7347085,0.782273844 32.8121778,5.16606985 32.8121778,10.2822738 C32.8121778,15.3984778 35.7347085,19.7822738 39.8121778,19.7822738 C43.8896472,19.7822738 46.8121778,15.3984778 46.8121778,10.2822738 C46.8121778,5.16606985 43.8896472,0.782273844 39.8121778,0.782273844 Z M39.8121778,4.78227384 C41.257556,4.78227384 42.8121778,7.11420659 42.8121778,10.2822738 C42.8121778,13.4503411 41.257556,15.7822738 39.8121778,15.7822738 C38.3667997,15.7822738 36.8121778,13.4503411 36.8121778,10.2822738 C36.8121778,7.11420659 38.3667997,4.78227384 39.8121778,4.78227384 Z" id="Oval-Copy" transform="translate(39.812178, 10.282274) rotate(7.000000) translate(-39.812178, -10.282274) "></path>
            <path d="M31.8121778,22.7822738 C27.6920042,22.7822738 23.2514123,25.7426684 18.2988193,31.4747013 L17.9790121,31.8498488 L17.3635816,32.5843116 C17.2636976,32.7049775 17.1651576,32.8247758 17.0679619,32.9437139 L16.5009231,33.6470776 L15.9661639,34.3301429 C15.3611138,35.1153469 14.8219984,35.8598183 14.3489238,36.5660411 L13.9596071,37.1620658 C12.5292429,39.4113645 11.8121778,41.255396 11.8121778,42.7822738 C11.8121778,48.5998878 17.393209,53.7822738 22.8121778,53.7822738 C24.9665205,53.7822738 26.2420281,53.1656614 28.2789345,51.5679908 L28.9987339,51.0000126 L29.3889753,50.7070897 C30.3743902,49.9909509 30.9473251,49.7822738 31.8121778,49.7822738 C32.6770306,49.7822738 33.2499655,49.9909509 34.2353804,50.7070897 L34.6256217,51.0000126 L35.0627877,51.3440115 C37.268188,53.1083317 38.5599105,53.7822738 40.8121778,53.7822738 C47.0526612,53.7822738 51.8121778,50.0426536 51.8121778,42.7822738 C51.8121778,40.657922 50.4241351,37.9196471 47.660831,34.3332097 L47.1265982,33.6507561 C47.0348744,33.5353382 46.9418083,33.4190777 46.8474004,33.3019675 L46.2648537,32.5890523 C46.1650799,32.4685146 46.0639651,32.3471128 45.9615095,32.2248399 L45.330691,31.4806911 C40.4849802,25.7513719 36.0313332,22.7822738 31.8121778,22.7822738 Z M31.8121778,26.7822738 C34.3742426,26.7822738 37.6150719,28.8208237 41.4016692,33.0571334 L41.9885105,33.7262342 L42.5657471,34.4030223 L43.1049338,35.0463165 L43.6147381,35.6691869 L44.0951872,36.2712714 L44.5463081,36.8522079 L44.968128,37.4116343 L45.3606739,37.9491885 L45.723973,38.4645084 C45.8402013,38.6325357 45.9515596,38.796797 46.0580524,38.9572319 L46.3629392,39.426997 C46.4113225,39.5033579 46.4584905,39.578747 46.5044439,39.653157 L46.7655926,40.0878055 C46.8066895,40.1582683 46.846573,40.2277368 46.8852434,40.2962035 L47.1027151,40.6949207 C47.1365359,40.7593497 47.1691449,40.8227618 47.2005426,40.8851494 L47.3743982,41.2471206 C47.6665018,41.8879744 47.8121778,42.4030389 47.8121778,42.7822738 C47.8121778,47.5933226 45.0262399,49.7822738 40.8121778,49.7822738 C39.9473251,49.7822738 39.3743902,49.5735968 38.3889753,48.857458 L37.9987339,48.5645351 L37.5615679,48.2205362 C35.3561676,46.456216 34.0644452,45.7822738 31.8121778,45.7822738 C29.6578351,45.7822738 28.3823275,46.3988863 26.3454211,47.9965569 L25.6256217,48.5645351 L25.2353804,48.857458 C24.2499655,49.5735968 23.6770306,49.7822738 22.8121778,49.7822738 C19.538839,49.7822738 15.8121778,46.3218028 15.8121778,42.7822738 C15.8121778,42.1272317 16.2467979,41.0669458 17.1189246,39.6543164 L17.4088795,39.1965724 C17.5103812,39.0401281 17.6167338,38.8798414 17.727941,38.715774 L18.0761292,38.2122916 C18.1365889,38.1265081 18.198263,38.0397948 18.2611521,37.9521595 L18.6530682,37.415345 L19.0741615,36.856772 L19.5244522,36.2768105 L20.0039606,35.6758309 L20.5127067,35.0542032 C20.5999354,34.9488985 20.6883831,34.8427489 20.7780503,34.7357621 L21.330691,34.0838566 C25.5891604,29.1552126 29.1485685,26.7822738 31.8121778,26.7822738 Z" id="Path-125"></path>
        </g>
    </g>
</svg>