<?xml version="1.0" encoding="UTF-8"?>
<svg width="64px" height="64px" viewBox="0 0 64 64" version="1.1" xmlns="http://www.w3.org/2000/svg" xmlns:xlink="http://www.w3.org/1999/xlink">
    <title>branch_orders</title>
    <g id="branch_orders" stroke="none" stroke-width="1" fill="none" fill-rule="evenodd">
        <path d="M15,11 L15,15 L13,15 C11.9456382,15 11.0818349,15.8158778 11.0054857,16.8507377 L11,17 L11,54 C11,55.1045695 11.8954305,56 13,56 L33.2902128,56.0011222 C33.626259,57.1295588 34.239207,58.1387019 35.0502525,58.9497475 C35.4527084,59.3522034 35.9039425,59.7058811 36.3943259,60.001152 L13,60 C9.6862915,60 7,57.3137085 7,54 L7,17 C7,13.6862915 9.6862915,11 13,11 L15,11 Z M28.449,46 L30.8973695,48.6341612 C30.6321998,49.4278888 29.8829118,50 29,50 L17,50 C15.8954305,50 15,49.1045695 15,48 C15,46.8954305 15.8954305,46 17,46 L28.449,46 Z M41,11 C44.3137085,11 47,13.6862915 47,17 L47,41.103 L43,45.406 L43,17 C43,15.8954305 42.1045695,15 41,15 L39,15 L39,11 L41,11 Z M19,38 C19,39.48779 19.4641529,40.8671713 20.2555539,42.0012393 L17,42 C15.8954305,42 15,41.1045695 15,40 C15,38.8954305 15.8954305,38 17,38 Z M37,38 C38.1045695,38 39,38.8954305 39,40 C39,41.1045695 38.1045695,42 37,42 L33.833,42 L32.5100067,40.577347 C32.7865853,39.8793994 32.9543025,39.1264258 32.9919102,38.3393467 L33,38 L37,38 Z M37,30 C38.1045695,30 39,30.8954305 39,32 C39,33.1045695 38.1045695,34 37,34 L31.7451398,33.999755 C31.5081468,33.6600219 31.2417897,33.3422947 30.9497475,33.0502525 C29.6829966,31.7835017 27.9329966,31 26,31 C24.0670034,31 22.3170034,31.7835017 21.0502525,33.0502525 C20.7582103,33.3422947 20.4918532,33.6600219 20.2548602,33.999755 L17,34 C15.8954305,34 15,33.1045695 15,32 C15,30.8954305 15.8954305,30 17,30 L37,30 Z M37,22 C38.1045695,22 39,22.8954305 39,24 C39,25.1045695 38.1045695,26 37,26 L17,26 C15.8954305,26 15,25.1045695 15,24 C15,22.8954305 15.8954305,22 17,22 L37,22 Z M27,4 C29.963829,4 32.0330253,5.3866802 32.735469,7.90524888 L32.76,8 L34,8 C36.1421954,8 37.8910789,9.68396847 37.9951047,11.8003597 L38,12 L38,15 C38,17.209139 36.209139,19 34,19 L20,19 C17.790861,19 16,17.209139 16,15 L16,12 C16,9.790861 17.790861,8 20,8 L21.239,8 L21.2645206,7.90528649 C21.945668,5.46301662 23.9120034,4.08508155 26.7330372,4.00381301 Z M27,8 C25.6056662,8 25.1729885,8.34309099 25.0364954,9.38854796 L25.007958,9.56596746 C24.7391369,10.9701091 23.5081567,12 22.061759,12 L20,12 L20,15 L34,15 L34,12 L31.9380147,12 C30.4314048,11.9998666 29.1585421,10.8823511 28.9634841,9.38839093 L28.9429748,9.25016844 C28.7856835,8.31260686 28.3309483,8 27,8 Z" id="Combined-Shape" fill="#000000" fill-rule="nonzero"></path>
        <path d="M54,32 C57.3137085,32 60,34.6862915 60,38 C60,41.3137085 57.3137085,44 54,44 C53.4015096,44 52.8234856,43.9123728 52.278058,43.7492484 L45.3242454,51.2310227 C45.7559561,52.0594309 46,53.0012157 46,54 C46,57.3137085 43.3137085,60 40,60 C36.6862915,60 34,57.3137085 34,54 C34,53.0012157 34.2440439,52.0594309 34.6757546,51.2310227 L27.721942,43.7492484 C27.1765144,43.9123728 26.5984904,44 26,44 C22.6862915,44 20,41.3137085 20,38 C20,34.6862915 22.6862915,32 26,32 C29.3137085,32 32,34.6862915 32,38 C32,38.999187 31.7557593,39.9413286 31.323723,40.7699794 L38.278058,48.2507516 C38.8234856,48.0876272 39.4015096,48 40,48 C40.5984904,48 41.1765144,48.0876272 41.721942,48.2507516 L48.676277,40.7699794 C48.2442407,39.9413286 48,38.999187 48,38 C48,34.6862915 50.6862915,32 54,32 Z M40,52 C38.8954305,52 38,52.8954305 38,54 C38,55.1045695 38.8954305,56 40,56 C41.1045695,56 42,55.1045695 42,54 C42,52.8954305 41.1045695,52 40,52 Z M54,36 C52.8954305,36 52,36.8954305 52,38 C52,39.1045695 52.8954305,40 54,40 C55.1045695,40 56,39.1045695 56,38 C56,36.8954305 55.1045695,36 54,36 Z M26,36 C24.8954305,36 24,36.8954305 24,38 C24,39.1045695 24.8954305,40 26,40 C27.1045695,40 28,39.1045695 28,38 C28,36.8954305 27.1045695,36 26,36 Z" id="Combined-Shape" fill="#000000" fill-rule="nonzero"></path>
    </g>
</svg>