<?xml version="1.0" encoding="UTF-8"?>
<svg width="64px" height="64px" viewBox="0 0 64 64" version="1.1" xmlns="http://www.w3.org/2000/svg" xmlns:xlink="http://www.w3.org/1999/xlink">
    <title>branch_landscape</title>
    <g id="branch_landscape" stroke="none" stroke-width="1" fill="none" fill-rule="evenodd">
        <path d="M17.4123439,60.0485857 C16.3077744,60.0485857 15.4123439,59.1531552 15.4123439,58.0485857 C15.4123439,56.9440162 16.3077744,56.0485857 17.4123439,56.0485857 L23.83284,56.0480227 C24.9967493,50.8868191 25.2561575,46.6528052 24.3625974,43.0292814 C21.9461434,43.9142579 19.1438039,43.4199438 17.5216131,41.4964764 L17.4243439,41.3755857 L17.2985552,41.4015546 C13.1206446,42.1825988 9.65612545,40.5575851 7.96889474,37.2608146 L7.85662283,37.0334528 C6.47241544,34.1266173 6.78685188,30.6306665 8.64699097,28.0742808 L8.79734387,27.8715857 L8.68237385,27.6924778 C5.53313085,22.6701249 7.29130806,18.0362621 11.6868876,15.9113604 L12.0253439,15.7545857 L12.0197631,15.6443677 C11.9569888,13.9200713 12.7562128,12.2890618 14.1801194,11.1223843 L14.2593439,11.0585857 L14.2574845,11.0183815 C14.1365747,6.86687989 18.0703842,4.32437634 21.8470611,5.56401746 L21.9613439,5.60358568 L22.1050849,5.47233506 C25.8483496,2.13588722 31.0648022,2.3532916 34.374774,5.06462395 L34.4813439,5.15458568 L34.5664567,5.08595526 C39.390497,1.29629899 45.8859553,3.64301756 46.4665823,9.83406103 L46.4763439,9.95258568 L46.6175892,9.97435391 C49.7898644,10.500798 51.8478944,13.507165 51.6754406,16.7601122 L51.6673439,16.8755857 L51.7366085,16.9119567 C58.0908845,20.3563778 58.220983,27.8593521 53.503823,31.5609836 L53.3943439,31.6435857 L53.4617803,31.7471523 C56.4673232,36.4392581 55.5527478,41.1945166 51.5383707,43.7513043 L51.3163354,43.8885715 C47.4308382,46.2198698 42.5249589,45.4582786 39.7436822,41.8246642 L39.6773439,41.7355857 L39.6502244,41.748774 C38.6778629,42.1713554 37.7356519,42.3905689 36.8321647,42.3874522 L36.8040118,42.5530739 C36.4933946,44.4548662 36.3649791,46.6194846 36.4293248,48.9975795 L36.4621837,49.8922101 C36.5513743,51.8219611 36.7629269,53.8824501 37.1021281,56.0489707 L41.4123439,56.0485857 C42.5169134,56.0485857 43.4123439,56.9440162 43.4123439,58.0485857 C43.4123439,59.1531552 42.5169134,60.0485857 41.4123439,60.0485857 L17.4123439,60.0485857 Z M34.1933439,37.0105857 L34.0503765,37.1979431 C33.4955127,37.934082 32.9347967,38.7609164 32.3697522,39.6786814 L32.1273297,40.0775772 C31.3965526,41.2955391 29.6645692,41.3848861 28.8123439,40.2485857 C28.1386683,39.3503516 27.4251507,38.492475 26.6716071,37.6747717 L26.5293439,37.5235857 L26.6344491,37.7186133 C29.2959454,42.7695252 29.4784179,48.6791319 27.92677,56.0477067 L33.0556011,56.0485691 C31.9384173,48.486616 32.2651126,41.9842632 34.0640616,37.3370635 L34.1933439,37.0105857 Z M23.9740815,9.29797578 C23.3260133,10.108061 22.1661252,10.2881407 21.3029435,9.71268627 C19.5911966,8.5715217 17.863748,9.60799088 18.3526289,11.5635144 C18.5666074,12.4194287 18.1940638,13.3071357 17.4504871,13.7581139 L17.3067711,13.8374401 C16.2019152,14.389868 15.8092036,15.2049165 16.1425319,16.0247148 L16.2011983,16.1541585 C16.7734062,17.2985744 16.1387085,18.6785474 14.8974151,18.9888707 C11.0075613,19.9613341 9.66816438,22.8314704 12.9487864,26.7682169 C13.630077,27.5857656 13.5473085,28.7834065 12.7873435,29.5011147 L12.661734,29.6103233 C11.0152717,30.9274931 10.5425158,33.3700653 11.4680649,35.3137185 C12.4402274,37.3552597 14.607977,38.2085229 17.7798883,37.1512191 C18.7778756,36.8185567 19.8527366,37.3163845 20.254576,38.2697549 L20.3097105,38.4161302 C20.6150319,39.3320945 21.8205549,39.6740989 22.9175746,39.3033229 C22.1725602,37.9420744 21.2055359,36.6702049 19.9981303,35.4627992 C19.2170817,34.6817507 19.2170817,33.4154207 19.9981303,32.6343721 L21.9981303,30.6343721 C22.7019142,29.9305882 23.8161033,29.8514052 24.6123439,30.4485857 C26.4911959,31.8577247 28.2143748,33.4243326 29.7806834,35.1472122 L30.2303439,35.6515857 L30.3817412,35.4369617 C31.8887303,33.3262849 33.42402,31.709283 35.0058087,30.5887636 L35.3029435,30.3844851 C36.0961886,29.855655 37.1524287,29.9602434 37.8265574,30.6343721 L39.8265574,32.6343721 C40.607606,33.4154207 40.607606,34.6817507 39.8265574,35.4627992 C39.1498775,36.1394792 38.5686455,37.016258 38.0875243,38.0713445 C38.4469831,37.912579 38.850592,37.6860527 39.3029435,37.3844851 C40.2914017,36.7255129 41.6203051,37.0715319 42.1724455,38.0985188 L42.239967,38.2363088 C43.5574182,41.200574 46.716638,41.9836285 49.2583524,40.4585998 C51.8281894,38.9166976 52.1408126,35.9588007 48.9257556,32.3865151 C48.0297363,31.3909381 48.3515612,29.8291825 49.5298284,29.2535829 L49.6695625,29.1916323 C53.8660133,27.513052 54.130731,21.9539818 48.710097,19.921244 C47.7028272,19.5435179 47.1747906,18.4366901 47.5149773,17.4161302 C48.1701738,15.4505406 46.9303194,13.6008988 45.055125,13.9542781 L44.8974151,13.9888707 C43.5669646,14.3214833 42.3204995,13.250157 42.4169184,11.9102774 L42.4324449,11.765743 C43.097675,7.10913224 38.9080962,5.63045738 35.9740815,9.29797578 C35.1284876,10.3549681 33.4990914,10.2842582 32.7482433,9.15798608 C30.9837427,6.51123528 26.5936999,6.02345274 23.9740815,9.29797578 Z M39.70501,18.6714698 L39.8833439,18.8035857 L39.9824313,18.7805001 C45.6557978,17.5057666 49.0732386,23.3870201 46.1876177,27.9861367 L46.0764445,28.1579861 C45.4637395,29.0770435 44.2220009,29.3253912 43.3029435,28.7126863 C42.3838861,28.0999814 42.1355384,26.8582427 42.7482433,25.9391853 C44.0427295,23.9974559 42.7000694,21.8875614 40.1551252,22.9055391 C39.4122917,23.2026725 38.5638555,23.0285244 37.9981303,22.4627992 L37.8626164,22.3282089 L37.6179739,22.0922029 C37.5799542,22.0565155 37.5432524,22.0226388 37.5077795,21.990553 L37.30898,21.8193743 C36.7834747,21.3943778 36.5618172,21.4757065 36.2076553,21.9675175 L36.0764445,22.1579861 C35.4637395,23.0770435 34.2220009,23.3253912 33.3029435,22.7126863 C32.3838861,22.0999814 32.1355384,20.8582427 32.7482433,19.9391853 C34.5665992,17.2116514 37.1896771,16.8558861 39.70501,18.6714698 Z M25.6795761,14.9624243 C28.7555223,15.5776136 31.1271199,18.4356928 30.3526289,21.5336569 C30.0847314,22.6052468 28.9988624,23.2567681 27.9272726,22.9888707 C26.8556828,22.7209732 26.2041614,21.6351043 26.4720589,20.5635144 C26.6286023,19.9373407 25.9263083,19.0909864 24.8951116,18.884747 C23.9403048,18.6937857 23.4123439,19.1543473 23.4123439,21.0485857 C23.4123439,22.1029475 22.5964661,22.9667508 21.5616062,23.0430999 L21.281723,23.0507855 L21.2063439,23.0545857 L21.2430851,23.198608 L21.3097105,23.4161302 C21.659006,24.4640168 21.092686,25.5966567 20.0447994,25.9459523 C18.9969128,26.2952478 17.8642728,25.7289279 17.5149773,24.6810412 C16.6642744,22.1289325 17.4476346,20.1216828 19.4597903,19.3695756 L19.5703439,19.3305857 L19.6172026,19.1089559 C20.3194025,15.9920383 22.7482806,14.3761652 25.6795761,14.9624243 Z" id="Combined-Shape" fill="#000000"></path>
    </g>
</svg>