<?xml version="1.0" encoding="UTF-8"?>
<svg width="64px" height="64px" viewBox="0 0 64 64" version="1.1" xmlns="http://www.w3.org/2000/svg" xmlns:xlink="http://www.w3.org/1999/xlink">
    <title>branch_irrigation</title>
    <g id="branch_irrigation" stroke="none" stroke-width="1" fill="none" fill-rule="evenodd">
        <path d="M34,44 C34,42.9456382 34.8158778,42.0818349 35.8507377,42.0054857 L36,42 L38,42 L38,40.701 L37.8201265,40.496091 C36.3572275,38.8847005 34.5562622,38.072212 32.3091937,38.0046069 L32,38 C29.6081604,38 27.7092679,38.8114555 26.1798735,40.496091 L26,40.7 L26,42 L28,42 C29.0543618,42 29.9181651,42.8158778 29.9945143,43.8507377 L30,44 L30,52 L26,52 L26,46 L24,46 C22.9456382,46 22.0818349,45.1841222 22.0054857,44.1492623 L22,44 L22,40 C22,39.5672596 22.1403557,39.1461923 22.4,38.8 C24.7777088,35.6297216 28.0371521,34 32,34 C35.9628479,34 39.2222912,35.6297216 41.6,38.8 C41.8225522,39.0967363 41.9574639,39.4484827 41.9914682,39.8154388 L42,40 L42,44 C42,45.0543618 41.1841222,45.9181651 40.1492623,45.9945143 L40,46 L38,46 L38,52 L46,52 C47.1045695,52 48,52.8954305 48,54 C48,55.1045695 47.1045695,56 46,56 L18,56 C16.8954305,56 16,55.1045695 16,54 C16,52.8954305 16.8954305,52 18,52 L34,52 L34,44 Z" id="Combined-Shape" fill="#000000"></path>
        <g id="Group" transform="translate(37.000000, 10.000000)" fill="#000000" fill-rule="nonzero">
            <path d="M1.90977114,22.593948 C2.50456762,20.6814485 3.18757808,18.8968782 3.95812553,17.2398617 C4.42387799,16.2382888 3.98950964,15.0487865 2.98793666,14.583034 C1.98636369,14.1172815 0.796861398,14.5516499 0.331108939,15.5532229 C-0.516346056,17.3756245 -1.26308042,19.3266926 -1.90977114,21.406052 C-2.23779954,22.4607895 -1.64868544,23.5817427 -0.593947963,23.9097711 C0.460789515,24.2377995 1.58174274,23.6486854 1.90977114,22.593948 Z M6.75699192,12.3213956 C7.85269628,10.7413449 9.0624452,9.32609838 10.3867402,8.07348458 C11.1892046,7.31445582 11.2244161,6.0486155 10.4653873,5.2461511 C9.70635857,4.4436867 8.44051826,4.40847517 7.63805386,5.16750393 C6.11069503,6.61219019 4.72117626,8.23774364 3.46999905,10.0419927 C2.8405593,10.9496707 3.06611598,12.1957508 3.973794,12.8251906 C4.88147202,13.4546303 6.12755217,13.2290736 6.75699192,12.3213956 Z M14.819551,4.73212802 C16.3908872,3.80317954 18.083809,3.03370519 19.900642,2.42370987 C20.9477681,2.07214095 21.5116286,0.938274597 21.1600597,-0.108851504 C20.8084908,-1.15597761 19.6746244,-1.71983811 18.6274983,-1.36826918 C16.5478597,-0.670037787 14.5992293,0.215662387 12.7839328,1.28883623 C11.833094,1.85095669 11.5179755,3.07745248 12.080096,4.02829125 C12.6422165,4.97913002 13.8687122,5.29424847 14.819551,4.73212802 Z" id="Path-141"></path>
            <path d="M8.73742339,27.9906361 C9.5821601,26.5090979 10.7337561,25.2559187 12.2095414,24.2186841 C13.1132344,23.5835364 13.3309334,22.3360595 12.6957857,21.4323664 C12.0606379,20.5286734 10.813161,20.3109744 9.90946794,20.9461221 C7.95725087,22.3182099 6.40251044,24.0100953 5.26257661,26.0093639 C4.71546338,26.9689163 5.04981142,28.1903102 6.00936386,28.7374234 C6.9689163,29.2845366 8.19031015,28.9501886 8.73742339,27.9906361 Z M17.0685225,21.9180756 C18.3513218,21.520863 19.7601768,21.2070224 21.2950104,20.9781226 C22.3874973,20.8151928 23.1410523,19.7974765 22.9781226,18.7049896 C22.8151928,17.6125027 21.7974765,16.8589477 20.7049896,17.0218774 C18.9754232,17.2798191 17.3689073,17.6376912 15.8853646,18.0970629 C14.8302211,18.4237829 14.2397172,19.5440047 14.5664372,20.5991482 C14.8931573,21.6542917 16.013379,22.2447956 17.0685225,21.9180756 Z" id="Path-141-Copy"></path>
        </g>
        <g id="Group-Copy" transform="translate(16.500000, 23.500000) scale(-1, 1) translate(-16.500000, -23.500000) translate(6.000000, 10.000000)" fill="#000000" fill-rule="nonzero">
            <path d="M1.90977114,22.593948 C2.50456762,20.6814485 3.18757808,18.8968782 3.95812553,17.2398617 C4.42387799,16.2382888 3.98950964,15.0487865 2.98793666,14.583034 C1.98636369,14.1172815 0.796861398,14.5516499 0.331108939,15.5532229 C-0.516346056,17.3756245 -1.26308042,19.3266926 -1.90977114,21.406052 C-2.23779954,22.4607895 -1.64868544,23.5817427 -0.593947963,23.9097711 C0.460789515,24.2377995 1.58174274,23.6486854 1.90977114,22.593948 Z M6.75699192,12.3213956 C7.85269628,10.7413449 9.0624452,9.32609838 10.3867402,8.07348458 C11.1892046,7.31445582 11.2244161,6.0486155 10.4653873,5.2461511 C9.70635857,4.4436867 8.44051826,4.40847517 7.63805386,5.16750393 C6.11069503,6.61219019 4.72117626,8.23774364 3.46999905,10.0419927 C2.8405593,10.9496707 3.06611598,12.1957508 3.973794,12.8251906 C4.88147202,13.4546303 6.12755217,13.2290736 6.75699192,12.3213956 Z M14.819551,4.73212802 C16.3908872,3.80317954 18.083809,3.03370519 19.900642,2.42370987 C20.9477681,2.07214095 21.5116286,0.938274597 21.1600597,-0.108851504 C20.8084908,-1.15597761 19.6746244,-1.71983811 18.6274983,-1.36826918 C16.5478597,-0.670037787 14.5992293,0.215662387 12.7839328,1.28883623 C11.833094,1.85095669 11.5179755,3.07745248 12.080096,4.02829125 C12.6422165,4.97913002 13.8687122,5.29424847 14.819551,4.73212802 Z" id="Path-141"></path>
            <path d="M8.73742339,27.9906361 C9.5821601,26.5090979 10.7337561,25.2559187 12.2095414,24.2186841 C13.1132344,23.5835364 13.3309334,22.3360595 12.6957857,21.4323664 C12.0606379,20.5286734 10.813161,20.3109744 9.90946794,20.9461221 C7.95725087,22.3182099 6.40251044,24.0100953 5.26257661,26.0093639 C4.71546338,26.9689163 5.04981142,28.1903102 6.00936386,28.7374234 C6.9689163,29.2845366 8.19031015,28.9501886 8.73742339,27.9906361 Z M17.0685225,21.9180756 C18.3513218,21.520863 19.7601768,21.2070224 21.2950104,20.9781226 C22.3874973,20.8151928 23.1410523,19.7974765 22.9781226,18.7049896 C22.8151928,17.6125027 21.7974765,16.8589477 20.7049896,17.0218774 C18.9754232,17.2798191 17.3689073,17.6376912 15.8853646,18.0970629 C14.8302211,18.4237829 14.2397172,19.5440047 14.5664372,20.5991482 C14.8931573,21.6542917 16.013379,22.2447956 17.0685225,21.9180756 Z" id="Path-141-Copy"></path>
        </g>
    </g>
</svg>