<?xml version="1.0" encoding="UTF-8"?>
<svg width="64px" height="64px" viewBox="0 0 64 64" version="1.1" xmlns="http://www.w3.org/2000/svg" xmlns:xlink="http://www.w3.org/1999/xlink">
    <title>branch_snow</title>
    <g id="branch_snow" stroke="none" fill="none" fill-rule="evenodd">
        <path d="M27.4142136,4.58578644 L31.8365752,9.00658081 C31.8904747,9.00222188 31.9449779,9 32,9 C32.055366,9 32.1102066,9.00224974 32.1644353,9.00666279 L36.5857864,4.58578644 C37.366835,3.80473785 38.633165,3.80473785 39.4142136,4.58578644 C40.1952621,5.36683502 40.1952621,6.63316498 39.4142136,7.41421356 L34,12.828 L34,16.171 L36.5857864,13.5857864 C37.366835,12.8047379 38.633165,12.8047379 39.4142136,13.5857864 C40.1952621,14.366835 40.1952621,15.633165 39.4142136,16.4142136 L34,21.828 L33.9996443,28.535 L39.8083444,25.1824492 L41.7905802,17.7862095 C42.0764638,16.7192773 43.1731377,16.0861123 44.24007,16.3719959 C45.3070022,16.6578795 45.9401671,17.7545535 45.6542835,18.8214857 L44.7083161,22.3534492 L47.602573,20.6824492 L49.5848088,13.2862095 C49.8706925,12.2192773 50.9673664,11.5861123 52.0342986,11.8719959 C53.1012308,12.1578795 53.7343958,13.2545535 53.4485122,14.3214857 L51.8311728,20.3617604 C51.8618974,20.4062592 51.8910732,20.4523494 51.9185843,20.5 C51.9462673,20.5479484 51.9717393,20.5965666 51.9950318,20.6457365 L58.0342986,22.2643008 C59.1012308,22.5501844 59.7343958,23.6468583 59.4485122,24.7137905 C59.1626285,25.7807227 58.0659546,26.4138877 56.9990224,26.1280041 L49.603439,24.1460508 L46.7083161,25.8175508 L50.24007,26.7643008 C51.3070022,27.0501844 51.9401671,28.1468583 51.6542835,29.2137905 C51.3683999,30.2807227 50.271726,30.9138877 49.2047938,30.6280041 L41.8092104,28.6460508 L36.0006443,32 L41.8083444,35.3534492 L49.2047938,33.3719959 C50.271726,33.0861123 51.3683999,33.7192773 51.6542835,34.7862095 C51.9401671,35.8531417 51.3070022,36.9498156 50.24007,37.2356992 L46.7083161,38.1824492 L49.602573,39.8534492 L56.9990224,37.8719959 C58.0659546,37.5861123 59.1626285,38.2192773 59.4485122,39.2862095 C59.7343958,40.3531417 59.1012308,41.4498156 58.0342986,41.7356992 L51.9945975,43.3551796 C51.9714227,43.4040373 51.9460954,43.4523494 51.9185843,43.5 C51.8909013,43.5479484 51.8615327,43.5943168 51.8305965,43.6390737 L53.4485122,49.6785143 C53.7343958,50.7454465 53.1012308,51.8421205 52.0342986,52.1280041 C50.9673664,52.4138877 49.8706925,51.7807227 49.5848088,50.7137905 L47.603439,43.3180508 L44.7083161,41.6465508 L45.6542835,45.1785143 C45.9401671,46.2454465 45.3070022,47.3421205 44.24007,47.6280041 C43.1731377,47.9138877 42.0764638,47.2807227 41.7905802,46.2137905 L39.8092104,38.8180508 L33.9996443,35.464 L34,42.171 L39.4142136,47.5857864 C40.1952621,48.366835 40.1952621,49.633165 39.4142136,50.4142136 C38.633165,51.1952621 37.366835,51.1952621 36.5857864,50.4142136 L34,47.829 L34,51.171 L39.4142136,56.5857864 C40.1952621,57.366835 40.1952621,58.633165 39.4142136,59.4142136 C38.633165,60.1952621 37.366835,60.1952621 36.5857864,59.4142136 L32.1634248,54.9934192 C32.1095253,54.9977781 32.0550221,55 32,55 C31.944634,55 31.8897934,54.9977503 31.8355647,54.9933372 L27.4142136,59.4142136 C26.633165,60.1952621 25.366835,60.1952621 24.5857864,59.4142136 C23.8047379,58.633165 23.8047379,57.366835 24.5857864,56.5857864 L30,51.172 L30,47.829 L27.4142136,50.4142136 C26.633165,51.1952621 25.366835,51.1952621 24.5857864,50.4142136 C23.8047379,49.633165 23.8047379,48.366835 24.5857864,47.5857864 L30,42.172 L29.9996443,35.464 L24.1916556,38.8175508 L22.2094198,46.2137905 C21.9235362,47.2807227 20.8268623,47.9138877 19.75993,47.6280041 C18.6929978,47.3421205 18.0598329,46.2454465 18.3457165,45.1785143 L19.2916839,41.6465508 L16.397427,43.3175508 L14.4151912,50.7137905 C14.1293075,51.7807227 13.0326336,52.4138877 11.9657014,52.1280041 C10.8987692,51.8421205 10.2656042,50.7454465 10.5514878,49.6785143 L12.1688272,43.6382396 C12.1381026,43.5937408 12.1089268,43.5476506 12.0814157,43.5 C12.0537327,43.4520516 12.0282607,43.4034334 12.0049682,43.3542635 L5.96570141,41.7356992 C4.8987692,41.4498156 4.26560423,40.3531417 4.55148785,39.2862095 C4.83737147,38.2192773 5.93404539,37.5861123 7.00097759,37.8719959 L14.396561,39.8539492 L17.2916839,38.1824492 L13.75993,37.2356992 C12.6929978,36.9498156 12.0598329,35.8531417 12.3457165,34.7862095 C12.6316001,33.7192773 13.728274,33.0861123 14.7952062,33.3719959 L22.1907896,35.3539492 L27.9986443,31.999 L22.1916556,28.6465508 L14.7952062,30.6280041 C13.728274,30.9138877 12.6316001,30.2807227 12.3457165,29.2137905 C12.0598329,28.1468583 12.6929978,27.0501844 13.75993,26.7643008 L17.2916839,25.8175508 L14.397427,24.1465508 L7.00097759,26.1280041 C5.93404539,26.4138877 4.83737147,25.7807227 4.55148785,24.7137905 C4.26560423,23.6468583 4.8987692,22.5501844 5.96570141,22.2643008 L12.0054025,20.6448204 C12.0285773,20.5959627 12.0539046,20.5476506 12.0814157,20.5 C12.1090987,20.4520516 12.1384673,20.4056832 12.1694035,20.3609263 L10.5514878,14.3214857 C10.2656042,13.2545535 10.8987692,12.1578795 11.9657014,11.8719959 C13.0326336,11.5861123 14.1293075,12.2192773 14.4151912,13.2862095 L16.396561,20.6819492 L19.2916839,22.3534492 L18.3457165,18.8214857 C18.0598329,17.7545535 18.6929978,16.6578795 19.75993,16.3719959 C20.8268623,16.0861123 21.9235362,16.7192773 22.2094198,17.7862095 L24.1907896,25.1819492 L29.9996443,28.535 L30,21.829 L24.5857864,16.4142136 C23.8047379,15.633165 23.8047379,14.366835 24.5857864,13.5857864 C25.366835,12.8047379 26.633165,12.8047379 27.4142136,13.5857864 L30,16.171 L30,12.829 L24.5857864,7.41421356 C23.8047379,6.63316498 23.8047379,5.36683502 24.5857864,4.58578644 C25.366835,3.80473785 26.633165,3.80473785 27.4142136,4.58578644 Z" id="Combined-Shape" fill="#000000"></path>
    </g>
</svg>