<?xml version="1.0" encoding="UTF-8"?>
<svg width="64px" height="64px" viewBox="0 0 64 64" version="1.1" xmlns="http://www.w3.org/2000/svg" xmlns:xlink="http://www.w3.org/1999/xlink">
    <title>branch_residential</title>
    <g id="branch_residential" stroke="none" stroke-width="1" fill="none" fill-rule="evenodd">
        <path d="M21.2869988,14.4689537 L21.4142136,14.5857864 L26.829,20 L30,20 L30,17 C30,15.9456382 30.8158778,15.0818349 31.8507377,15.0054857 L32,15 L39,15 C40.0543618,15 40.9181651,15.8158778 40.9945143,16.8507377 L41,17 L41,20 L50,20 C50.471496,20 50.9258264,20.1664898 51.2843934,20.4669131 L51.4142136,20.5857864 L59.4142136,28.5857864 C60.6370865,29.8086594 59.8324381,31.8740511 58.154878,31.9944869 L58,32 L57,32 L57,46 L58,46 C59.1045695,46 60,46.8954305 60,48 C60,49.1045695 59.1045695,50 58,50 L6,50 C4.8954305,50 4,49.1045695 4,48 C4,46.8954305 4.8954305,46 6,46 L7,46 L7.00092616,31.7320881 C6.28397977,32.1469993 5.364535,32.0799854 4.71300121,31.5310463 L4.58578644,31.4142136 C3.84584567,30.6742728 3.80690142,29.4987886 4.46895369,28.7130012 L4.58578644,28.5857864 L18.5857864,14.5857864 C19.3257272,13.8458457 20.5012114,13.8069014 21.2869988,14.4689537 Z M20,18.829 L11,27.828 L11,46 L16,46 L16,41 C16,40.4477153 16.4477153,40 17,40 L23,40 C23.5522847,40 24,40.4477153 24,41 L24,46 L32,46 L32,38 C32,36.9456382 32.8158778,36.0818349 33.8507377,36.0054857 L34,36 L49,36 C50.0543618,36 50.9181651,36.8158778 50.9945143,37.8507377 L51,38 L51,46 L53,46 L53,32 L34,32 C33.528504,32 33.0741736,31.8335102 32.7156066,31.5330869 L32.5857864,31.4142136 L20,18.829 Z M47,40 L36,40 L36,46 L47,46 L47,40 Z M17,30 C17.5522847,30 18,30.4477153 18,31 L18,35 C18,35.5522847 17.5522847,36 17,36 L14,36 C13.4477153,36 13,35.5522847 13,35 L13,31 C13,30.4477153 13.4477153,30 14,30 L17,30 Z M26,30 C26.5522847,30 27,30.4477153 27,31 L27,35 C27,35.5522847 26.5522847,36 26,36 L23,36 C22.4477153,36 22,35.5522847 22,35 L22,31 C22,30.4477153 22.4477153,30 23,30 L26,30 Z M37,19 L34,19 L34,22 C34,23.0543618 33.1841222,23.9181651 32.1492623,23.9945143 L32,24 L30.829,24 L34.829,28 L53.171,28 L49.171,24 L39,24 C37.9456382,24 37.0818349,23.1841222 37.0054857,22.1492623 L37,22 L37,19 Z" id="Combined-Shape" fill="#000000"></path>
    </g>
</svg>