<?xml version="1.0" encoding="UTF-8"?>
<svg width="64px" height="64px" viewBox="0 0 64 64" version="1.1" xmlns="http://www.w3.org/2000/svg" xmlns:xlink="http://www.w3.org/1999/xlink">
    <title>branch</title>
    <g id="branch" stroke="none" stroke-width="1" fill="none" fill-rule="evenodd">
        <path d="M14,4 C19.5228475,4 24,8.4771525 24,14 C24,18.8375693 20.5649727,22.8728451 16.0009807,23.7997646 L16.0009807,40.2002354 C17.2771981,40.4594275 18.46514,40.9616667 19.5143856,41.656532 L33.656532,27.5143856 C32.6096522,25.9335986 32,24.0379953 32,22 C32,16.4771525 36.4771525,12 42,12 C47.5228475,12 52,16.4771525 52,22 C52,27.5228475 47.5228475,32 42,32 C39.9620047,32 38.0664014,31.3903478 36.4856144,30.343468 L22.343468,44.4856144 C23.0385148,45.535134 23.5408348,46.7234223 23.7999676,48.0000191 L40.2000324,48.0000191 C41.1265656,43.4355289 45.1620774,40 50,40 C55.5228475,40 60,44.4771525 60,50 C60,55.5228475 55.5228475,60 50,60 C45.1624307,60 41.1271549,56.5649727 40.2002354,52.0009807 L23.7997646,52.0009807 C22.8728451,56.5649727 18.8375693,60 14,60 C8.4771525,60 4,55.5228475 4,50 C4,45.1620774 7.43552894,41.1265656 12.0000191,40.2000324 L12.0000191,23.7999676 C7.43552894,22.8734344 4,18.8379226 4,14 C4,8.4771525 8.4771525,4 14,4 Z M14,44 C10.6862915,44 8,46.6862915 8,50 C8,53.3137085 10.6862915,56 14,56 C17.3137085,56 20,53.3137085 20,50 C20,46.6862915 17.3137085,44 14,44 Z M50,44 C46.6862915,44 44,46.6862915 44,50 C44,53.3137085 46.6862915,56 50,56 C53.3137085,56 56,53.3137085 56,50 C56,46.6862915 53.3137085,44 50,44 Z M42,16 C38.6862915,16 36,18.6862915 36,22 C36,25.3137085 38.6862915,28 42,28 C45.3137085,28 48,25.3137085 48,22 C48,18.6862915 45.3137085,16 42,16 Z M14,8 C10.6862915,8 8,10.6862915 8,14 C8,17.3137085 10.6862915,20 14,20 C17.3137085,20 20,17.3137085 20,14 C20,10.6862915 17.3137085,8 14,8 Z" id="Combined-Shape" fill="#000000" fill-rule="nonzero"></path>
    </g>
</svg>