<?xml version="1.0" encoding="UTF-8"?>
<svg width="64px" height="64px" viewBox="0 0 64 64" version="1.1" xmlns="http://www.w3.org/2000/svg" xmlns:xlink="http://www.w3.org/1999/xlink">
    <title>branch_sales</title>
    <g id="branch_sales" stroke="none" stroke-width="1" fill="none" fill-rule="evenodd">
        <path d="M53.4934415,5.90557979 L59.079228,5.90557979 C59.6315127,5.90557979 60.079228,6.35329504 60.079228,6.90557979 L60.079228,12.4913662 C60.079228,13.043651 59.6315127,13.4913662 59.079228,13.4913662 C58.8140115,13.4913662 58.5596576,13.3860094 58.3721212,13.198473 L52.7863347,7.61268657 C52.3958105,7.22216228 52.3958105,6.5889973 52.7863347,6.19847301 C52.9738711,6.01093663 53.228225,5.90557979 53.4934415,5.90557979 Z" id="Path-60" fill="#000000" transform="translate(55.579228, 10.405580) rotate(-10.000000) translate(-55.579228, -10.405580) "></path>
        <rect id="Rectangle" fill="#000000" x="4" y="54" width="56" height="4" rx="2"></rect>
        <path d="M13,39.7619036 L13,52.9999036 L9,52.9999036 L9,43.3409036 L13,39.7619036 Z M25.4817217,28.5940573 L27,29.3529036 L27,52.9999036 L23,52.9999036 L23,30.8139036 L25.4817217,28.5940573 Z M41.0017717,34.2348481 L41,52.9999036 L37,52.9999036 L37,34.3469036 L37.8446376,34.7686487 L38.0568256,34.8480384 C38.6271405,35.0372243 39.2301498,35.0469515 39.7903363,34.8940295 C40.2334247,34.7730734 40.6497105,34.5505099 41.0017717,34.2348481 Z M55,16.1919036 L55,52.9999036 L51,52.9999036 L51,21.3699036 L55,16.1919036 Z" id="Combined-Shape" fill="#000000"></path>
        <path d="M54.41743,8.777105 C55.0928163,7.90307572 56.3488657,7.74204374 57.222895,8.41743 C58.0532228,9.05904694 58.2400706,10.2247124 57.6776202,11.0890458 L57.58257,11.222895 L40.58257,33.222895 C40.0325639,33.9346676 39.0809308,34.1865792 38.2581956,33.8574123 L38.1055728,33.7888544 L25.321,27.396 L7.33358972,43.4904826 C6.55374367,44.1882396 5.37790911,44.1619198 4.63005556,43.4572992 L4.50951737,43.3335897 C3.81176039,42.5537437 3.83808022,41.3779091 4.5427008,40.6300556 L4.66641028,40.5095174 L23.6664103,23.5095174 C24.2368974,22.9990816 25.0442817,22.8620224 25.7458383,23.1442369 L25.8944272,23.2111456 L38.423,29.475 L54.41743,8.777105 Z" id="Path-128" fill="#000000"></path>
    </g>
</svg>