<?xml version="1.0" encoding="UTF-8"?>
<svg width="64px" height="64px" viewBox="0 0 64 64" version="1.1" xmlns="http://www.w3.org/2000/svg" xmlns:xlink="http://www.w3.org/1999/xlink">
    <title>branch_multi_housing</title>
    <g id="branch_multi_housing" stroke="none" stroke-width="1" fill="none" fill-rule="evenodd">
        <path d="M17.2869988,4.46895369 L17.4142136,4.58578644 L24,11.171 L30.5857864,4.58578644 C31.3257272,3.84584567 32.5012114,3.80690142 33.2869988,4.46895369 L33.4142136,4.58578644 L40,11.171 L46.5857864,4.58578644 C47.3257272,3.84584567 48.5012114,3.80690142 49.2869988,4.46895369 L49.4142136,4.58578644 L59.4142136,14.5857864 C60.1952621,15.366835 60.1952621,16.633165 59.4142136,17.4142136 C59.0238169,17.8046102 58.5121793,17.9998723 58.000502,17.9999999 L58,56 C59.1045695,56 60,56.8954305 60,58 C60,59.1045695 59.1045695,60 58,60 L6,60 C4.8954305,60 4,59.1045695 4,58 C4,56.8954305 4.8954305,56 6,56 L6.00050197,17.9999999 C5.54236841,18.0001142 5.08420307,17.8437963 4.71300121,17.5310463 L4.58578644,17.4142136 C3.84584567,16.6742728 3.80690142,15.4987886 4.46895369,14.7130012 L4.58578644,14.5857864 L14.5857864,4.58578644 C15.3257272,3.84584567 16.5012114,3.80690142 17.2869988,4.46895369 Z M48,8.829 L42,14.828 L42,56 L46,56 L46,52 L50,52 L50,56 L54,56 L54,14.829 L48,8.829 Z M32,8.829 L26,14.828 L26,56 L30,56 L30,52 L34,52 L34,56 L38,56 L38,14.829 L32,8.829 Z M16,8.829 L11.828,13.001 L10,14.828 L10,56 L14,56 L14,52 L18,52 L18,56 L22,56 L22,14.829 L16,8.829 Z M47,46 L47,50 L43,50 L43,46 L47,46 Z M53,46 L53,50 L49,50 L49,46 L53,46 Z M31,46 L31,50 L27,50 L27,46 L31,46 Z M37,46 L37,50 L33,50 L33,46 L37,46 Z M21,46 L21,50 L17,50 L17,46 L21,46 Z M15,46 L15,50 L11,50 L11,46 L15,46 Z M21,40 L21,44 L17,44 L17,40 L21,40 Z M37,40 L37,44 L33,44 L33,40 L37,40 Z M15,40 L15,44 L11,44 L11,40 L15,40 Z M47,40 L47,44 L43,44 L43,40 L47,40 Z M53,40 L53,44 L49,44 L49,40 L53,40 Z M31,40 L31,44 L27,44 L27,40 L31,40 Z M53,34 L53,38 L49,38 L49,34 L53,34 Z M37,34 L37,38 L33,38 L33,34 L37,34 Z M15,34 L15,38 L11,38 L11,34 L15,34 Z M47,34 L47,38 L43,38 L43,34 L47,34 Z M31,34 L31,38 L27,38 L27,34 L31,34 Z M21,34 L21,38 L17,38 L17,34 L21,34 Z M53,28 L53,32 L49,32 L49,28 L53,28 Z M21,28 L21,32 L17,32 L17,28 L21,28 Z M15,28 L15,32 L11,32 L11,28 L15,28 Z M37,28 L37,32 L33,32 L33,28 L37,28 Z M31,28 L31,32 L27,32 L27,28 L31,28 Z M47,28 L47,32 L43,32 L43,28 L47,28 Z M37,22 L37,26 L33,26 L33,22 L37,22 Z M31,22 L31,26 L27,26 L27,22 L31,22 Z M53,22 L53,26 L49,26 L49,22 L53,22 Z M21,22 L21,26 L17,26 L17,22 L21,22 Z M15,22 L15,26 L11,26 L11,22 L15,22 Z M47,22 L47,26 L43,26 L43,22 L47,22 Z M15,16 L15,20 L11,20 L11,16 L15,16 Z M21,16 L21,20 L17,20 L17,16 L21,16 Z M37,16 L37,20 L33,20 L33,16 L37,16 Z M31,16 L31,20 L27,20 L27,16 L31,16 Z M53,16 L53,20 L49,20 L49,16 L53,16 Z M47,16 L47,20 L43,20 L43,16 L47,16 Z" id="Combined-Shape" fill="#000000"></path>
    </g>
</svg>