<?xml version="1.0" encoding="UTF-8"?>
<svg width="64px" height="64px" viewBox="0 0 64 64" version="1.1" xmlns="http://www.w3.org/2000/svg" xmlns:xlink="http://www.w3.org/1999/xlink">
    <title>branch_bats</title>
    <g id="branch_bats" stroke="none" stroke-width="1" fill="none" fill-rule="evenodd">
        <path d="M36.2835782,17.0083219 L37.0628246,19.0824484 C37.2905952,19.6887074 37.3851451,20.3312341 37.3393198,20.9733578 L37.3393198,20.9733578 L37.3206734,21.1381011 C37.2400299,21.6570463 37.0748233,22.1515197 36.79077,22.8489748 L36.79077,22.8489748 L36.4262721,23.7315311 L36.3317126,23.9868419 L36.3469554,24.2707232 L36.3576514,24.8599867 C36.3662419,25.0616589 36.3867401,25.1911774 36.4389945,25.3048526 L36.4389945,25.3048526 L36.4467126,25.3198419 L36.5736236,25.3478668 C38.0859966,25.6498878 40.0524619,25.3921857 42.417582,24.1184577 L42.417582,24.1184577 L42.7283322,23.9465198 C44.854882,22.7387087 46.5504185,21.6056319 47.8550922,20.5842777 C47.9174922,20.5354283 47.9777313,20.487869 48.035833,20.4416208 L48.035833,20.4416208 L48.3589778,20.1800349 L48.6319355,19.9509326 L48.8558205,19.7553296 L49.1020736,19.5269583 L49.2081512,19.4195474 L51.1997126,21.2208419 L51.5694359,21.2304512 L52.1317816,21.2545872 C52.5738899,21.28049 52.9612496,21.3222714 53.3803675,21.39047 L53.3803675,21.39047 L53.6073942,21.4294066 C54.5414482,21.5974471 55.3877384,21.8771606 56.1444256,22.307352 C56.6789949,22.6102116 57.3190464,23.1195026 58.0753984,23.8263599 L58.0753984,23.8263599 L58.499553,24.2314585 C58.5721894,24.3022228 58.6458032,24.3746065 58.7204026,24.448603 L58.7204026,24.448603 L59.1798905,24.9118823 L59.6634216,25.4135491 L60.1713861,25.9532837 L60.704174,26.5307664 L61.1131408,26.9809868 L61.7984601,27.747815 C62.476662,28.5137738 63.1620975,29.3081822 63.833929,30.1023601 L63.833929,30.1023601 L64.6918242,31.1258794 L67.8045302,34.9283239 L63.4035146,34.7847789 L62.7422777,34.7842412 C61.1822278,34.8133927 59.6532292,35.0426426 59.1923082,35.3904878 L59.221159,35.3713219 L59.2206855,35.4107729 L59.201838,35.5109394 L59.0697368,36.0765179 L58.9987276,36.3177113 L58.1295273,38.9663713 L55.9234599,37.4254748 L55.5197896,37.155103 L54.975545,36.8089443 C54.6873499,36.630517 54.3913892,36.4550925 54.0946688,36.288703 C53.7438805,36.0919944 53.4073321,35.9167094 53.0930922,35.768673 C52.6732211,35.5708742 52.3086132,35.4293584 52.0277359,35.3540422 L52.0277359,35.3540422 L51.8868594,35.3157717 C51.8535797,35.3035321 51.8627917,35.2947245 51.9280252,35.277639 L51.8368881,35.3042255 C51.8041965,35.3145938 51.7692284,35.3264538 51.7320922,35.3397619 L51.7320922,35.3397619 L51.4841257,35.4366399 C51.438751,35.4555664 51.391425,35.475854 51.3422563,35.4974591 L51.3422563,35.4974591 L51.0259981,35.6425523 L50.6707178,35.8171772 L50.2816197,36.0192444 C50.0866329,36.1229867 49.8838501,36.2342293 49.6748056,36.3519057 C49.1829884,36.6287619 48.6803299,36.9275307 48.1961292,37.2264636 L48.1961292,37.2264636 L47.6393887,37.5758208 L46.4930732,38.3192276 L45.3368436,37.582707 L45.1407852,37.4723463 L44.8819678,37.3403594 C44.7863656,37.2939018 44.6819985,37.2455534 44.5705618,37.1970276 C44.0506323,36.9706213 43.5524577,36.8253032 43.1490678,36.7926555 C43.0925783,36.7880837 43.0390538,36.7858419 42.9887126,36.7858419 C42.9587891,36.7858419 42.909888,36.8004264 42.8441197,36.8280796 L42.8441197,36.8280796 L42.6907188,36.9003615 L42.4960906,37.0047979 L42.263987,37.1386938 L41.9981597,37.2993542 L41.5443941,37.5846328 L40.856358,38.033526 L40.2944837,38.4097965 L39.308217,39.0853934 L38.3835478,39.7333326 L37.712159,40.2143219 L38.4687126,41.5625018 L37.6234029,43.7858419 L34.3625255,43.0473735 C33.9228309,43.5764885 33.5457489,44.1371178 33.236264,44.7216634 L33.236264,44.7216634 L31.4687126,48.0601612 L29.7011611,44.7216634 C29.3948806,44.1431699 29.0223953,43.5881001 28.5728297,43.0482625 L25.3140222,43.7858419 L24.4687126,41.5625018 L25.1599564,40.3304832 C24.7618908,40.0599649 24.3607024,39.7916587 23.966968,39.5332956 L23.966968,39.5332956 L23.473749,39.212318 C23.3552741,39.1358866 23.2383483,39.0609564 23.1230583,38.9875891 L23.1230583,38.9875891 L22.451643,38.5666337 C22.3432436,38.4997647 22.2366537,38.4345819 22.13196,38.3711471 L22.13196,38.3711471 L21.5272471,38.0120059 C21.2369623,37.843416 20.965306,37.691667 20.7146215,37.558424 L20.7146215,37.558424 L20.5240234,37.4586275 L20.1762171,37.2856539 L19.8760537,37.1494194 L19.7450093,37.0955468 L19.6485129,37.0581558 L19.6025828,37.0361203 L19.6031659,37.0299445 L19.6197126,37.0258419 L19.4596362,37.0326511 C19.1186275,37.0565094 18.748874,37.1387639 18.3744112,37.2669209 L18.3744112,37.2669209 L18.1493607,37.3492235 C18.1028599,37.3673114 18.0581465,37.3852934 18.0153729,37.4030034 L18.0153729,37.4030034 L17.7832277,37.504672 C17.7488228,37.5206302 17.7166625,37.5359845 17.6868992,37.5505688 L17.6868992,37.5505688 L17.5383029,37.627508 L16.4095313,38.3085849 L15.3559109,37.6173369 L14.7427754,37.2276172 C14.2654905,36.9302464 13.7692531,36.6330353 13.282835,36.3576924 L13.282835,36.3576924 L12.6518849,36.0107492 L12.268252,35.8117903 L11.9182628,35.640493 L11.6072825,35.4989226 C11.5590013,35.4779195 11.5125689,35.4582411 11.4680973,35.4399304 L11.4680973,35.4399304 L11.22569,35.3468223 C11.1533264,35.3214865 11.0896999,35.3019657 11.0357044,35.288604 L11.071159,35.2973219 L11.0862646,35.3073775 C11.0889547,35.3110385 11.0862009,35.3145631 11.0785091,35.3183595 L11.0633312,35.3243091 L10.7652745,35.4079587 C10.5070984,35.4895847 10.1947109,35.6154578 9.84423903,35.7798799 C9.53079891,35.9269286 9.19533126,36.1006607 8.84573816,36.2954018 C8.39872112,36.5444129 7.95328737,36.8136821 7.53319837,37.0829225 L7.53319837,37.0829225 L7.12985909,37.3467547 L4.80471758,38.9566844 L3.96850521,36.4097104 L3.91294352,36.2351772 L3.8463722,35.9939013 L3.76958165,35.6643215 L3.71662556,35.4127846 L3.71271258,35.3588419 C3.70925962,35.3618606 3.7064272,35.3619787 3.70209412,35.3605063 L3.70209412,35.3605063 L3.63349137,35.3172588 C3.59427002,35.29466 3.54425441,35.2709809 3.48433239,35.2467379 L3.48433239,35.2467379 L3.27573492,35.1728339 C2.99977037,35.0858443 2.61332822,34.9982744 2.1544745,34.9322684 C1.66668015,34.8620994 1.13225326,34.8180003 0.58517322,34.7964239 C0.508953454,34.7934179 0.434455289,34.7909113 0.361919766,34.7888609 L0.361919766,34.7888609 L-0.0478133538,34.7816846 L-0.398873133,34.7833732 L-4.85284104,34.9231558 L-2.08171817,31.5224478 L-1.35080404,30.6391872 L-0.227395292,29.3105917 C0.449942592,28.5190297 1.13431066,27.73679 1.80502776,26.9925438 C2.05543867,26.7146809 2.30099838,26.4454502 2.54109428,26.1857235 C2.63323201,26.0860524 2.72423447,25.9880859 2.81411317,25.8918307 L2.81411317,25.8918307 L3.33999251,25.334887 L3.83945463,24.8193302 L4.31305241,24.3454773 C4.54347735,24.1190298 4.76441047,23.9083401 4.97616276,23.7135867 L4.97616276,23.7135867 L5.38751838,23.345381 C5.91991676,22.8829123 6.38850348,22.5346136 6.79917563,22.3038674 C7.54130186,21.8868855 8.36400854,21.6118539 9.26735798,21.4429249 C10.05653,21.2953475 10.6935414,21.2430625 11.6721657,21.223179 L11.6721657,21.223179 L11.7037126,21.2218419 L13.6829261,19.3716283 L13.7676277,19.4581883 L14.0840665,19.7534926 C14.3865553,20.024847 14.761968,20.337393 15.2147647,20.6871472 C16.5050884,21.6838334 18.1580953,22.7810709 20.2094448,23.9467197 C22.8200076,25.430133 24.9587491,25.6876004 26.5567162,25.3065586 L26.5567162,25.3065586 L26.4897126,25.3208419 L26.5261313,25.2342958 C26.5664772,25.1120309 26.5790366,24.9626606 26.5836578,24.7298745 L26.5836578,24.7298745 L26.5874947,24.4145282 L26.5949784,24.1436237 L26.6047126,23.9858419 L26.5528505,23.8390542 L26.0456392,22.5964997 C25.8226215,22.027519 25.6873149,21.5921781 25.6167518,21.1381011 L25.6167518,21.1381011 L25.5981054,20.9733578 C25.55228,20.3312341 25.6468299,19.6887074 25.8746006,19.0824484 L25.8746006,19.0824484 L26.651954,17.0133604 L28.7941892,18.0743541 C29.0773926,18.2204587 29.4317002,18.4181943 29.7966904,18.6505369 C30.0783433,18.8298293 30.3322182,19.0096716 30.557358,19.19626 L30.350159,19.0333219 L30.449204,19.005388 C30.5754072,18.9737812 30.7034622,18.9470732 30.8351527,18.9254596 L31.0356381,18.8968847 L31.3495177,18.8686717 L31.4687126,18.8615553 L31.5879075,18.8686717 C31.9100831,18.8879067 32.2026912,18.933916 32.485991,19.0045101 L32.485991,19.0045101 L32.5887126,19.0338419 L32.7534867,18.9123628 L32.8779576,18.8255879 L33.1398726,18.6529076 C33.5765761,18.3746006 33.9981043,18.145259 34.2998066,17.9951735 L34.2998066,17.9951735 L36.2835782,17.0083219 Z M31.4687126,22.8758419 L31.3829961,22.8961884 L31.2688619,22.9340335 L30.8657773,23.0881503 C30.7606822,23.1251016 30.6619125,23.1548821 30.5487513,23.1819567 L30.5487513,23.1819567 L30.5357126,23.1848419 L30.5568566,23.2673759 C30.6155256,23.5348319 30.639019,23.7898617 30.6192336,24.0653593 L30.6192336,24.0653593 L30.5935617,24.2986645 L30.5805468,24.871751 C30.536309,26.3106867 30.2069497,27.308592 29.0825507,28.4552407 L29.0825507,28.4552407 L28.8166358,28.7264176 L28.4698242,28.8812378 C28.2497085,28.9794997 27.9191463,29.0938301 27.4845195,29.1974687 C24.9293561,29.8067578 21.7527267,29.4243468 18.2332671,27.4244664 C16.8711468,26.6504618 15.6618796,25.8978278 14.5974832,25.1740804 L14.5974832,25.1740804 L14.2977126,24.9678419 L14.1831059,25.0171755 C13.9682115,25.0976589 13.7430822,25.1405452 13.4826188,25.1683712 L13.4826188,25.1683712 L13.1897182,25.1932456 L12.9022339,25.2062158 L11.5854416,25.2266101 L11.1729206,25.2422754 L10.8102881,25.2662233 L10.4793582,25.300349 C10.4258347,25.3069901 10.3728745,25.3141342 10.3200986,25.3218209 L10.3200986,25.3218209 L10.0026238,25.3747673 C9.50096593,25.4685787 9.08521182,25.6075657 8.75856356,25.7911011 C8.6639465,25.844264 8.54607311,25.9259746 8.40729634,26.0340811 L8.40729634,26.0340811 L8.18374779,26.2157686 L7.93060891,26.4354358 L7.64964444,26.6914689 L7.34261909,26.9822539 L7.0112976,27.3061768 L6.47262044,27.8506644 L5.88920356,28.4606339 L5.47834478,28.9009693 L4.77642598,29.6703774 L4.1253179,30.4000473 L3.50471258,31.1078419 L3.65152829,31.1373199 C4.5328584,31.327267 5.27338337,31.598098 5.85292344,31.9852294 L5.85292344,31.9852294 L6.04011338,32.1186292 C6.36480125,32.3460801 6.62314303,32.5778802 6.8325327,32.8274443 L6.8325327,32.8274443 L6.83871258,32.8348419 L7.18187295,32.6459643 C7.36932724,32.5448277 7.55470924,32.4481924 7.73771353,32.3564765 L7.73771353,32.3564765 L8.14533192,32.1585935 C9.65802572,31.4489213 10.8596367,31.1243809 11.9965623,31.4057246 C12.6969876,31.579052 13.5284562,31.9462319 14.530646,32.4794241 C14.7651787,32.6042019 15.0064323,32.7369633 15.2532924,32.8767015 C15.7931903,33.1823173 16.3362336,33.5075618 16.8580002,33.8326468 L16.5867126,33.6658419 L16.6992725,33.6213227 C17.5456087,33.2921127 18.4245225,33.0773469 19.3228449,33.0336855 L19.3228449,33.0336855 L19.6605998,33.0254437 C20.5184544,33.0254437 21.5989528,33.4477588 23.0872872,34.2862588 L23.0872872,34.2862588 L23.5987578,34.5811646 L24.1419626,34.9068485 L24.718426,35.26326 L25.6488149,35.8553811 L26.1550363,36.1848184 L26.9609961,36.7201111 L27.9420854,37.3867341 L29.0031639,38.1255355 L29.8460968,38.731359 L30.2269783,39.0185736 L30.3920322,39.1544809 L30.7610434,39.5132731 C30.9835718,39.7367075 31.1978282,39.9659236 31.4035231,40.2005828 L31.4035231,40.2005828 L31.4667126,40.2748419 L31.5100097,40.2242451 C31.7088783,39.9963466 31.914358,39.7758228 32.1256019,39.5635642 L32.1256019,39.5635642 L32.4466851,39.2514867 C32.5363956,39.1581745 32.6505965,39.0495331 32.7862757,38.9279588 L32.7862757,38.9279588 L33.0853797,38.6682765 C33.1397058,38.6223588 33.1961953,38.5751816 33.2547366,38.5268337 L33.2547366,38.5268337 L33.6297139,38.2234077 L34.0485799,37.8961444 L34.7474567,37.3698738 L35.2526175,37.0016558 L35.7829254,36.6245111 L36.3330255,36.2427 L36.8975632,35.8604827 L37.4711837,35.4821192 L38.0485322,35.1118699 L38.624254,34.7539949 L39.1929942,34.4127543 C40.7894772,33.473495 42.2374108,32.7858419 42.9887126,32.7858419 C43.1487904,32.7858419 43.3098105,32.792586 43.4717453,32.8056919 C44.3755282,32.8788379 45.2765784,33.1416752 46.1675425,33.5296508 L46.1675425,33.5296508 L46.4027126,33.6348419 L46.8976366,33.3372186 L47.1688767,33.1778603 L47.7126354,32.8662367 C47.9483049,32.7335724 48.178693,32.6071862 48.4028022,32.4879494 C49.4003937,31.9571831 50.2263104,31.5884187 50.9145586,31.4081577 C52.0628663,31.1074013 53.2735155,31.4320324 54.7977784,32.1501035 C55.203499,32.341236 55.6224405,32.5594338 56.0511051,32.7998125 L56.0511051,32.7998125 L56.0957126,32.8248419 L56.2120364,32.693605 C56.3433194,32.5524144 56.49173,32.417984 56.6605571,32.2877563 L56.6605571,32.2877563 L56.8363116,32.1588348 C57.5047982,31.6518884 58.3432782,31.3178897 59.3193823,31.1058831 L59.3193823,31.1058831 L59.4087126,31.0878419 L58.8056935,30.4017545 L58.1535214,29.6718751 L57.747964,29.2253492 L57.3181392,28.7594114 L56.705828,28.1106308 L56.1377446,27.5270536 L55.6198706,27.0143636 C55.56534,26.9615467 55.51185,26.9101478 55.4594374,26.860202 L55.4594374,26.860202 L55.1581875,26.5782443 L54.8845696,26.3328442 L54.6403562,26.1256857 L54.4273194,25.9584527 C54.3288906,25.8850983 54.2428176,25.8273475 54.1700974,25.7861476 C53.8425917,25.5999554 53.4175284,25.4594647 52.8991461,25.3662054 C52.7939958,25.3472883 52.6911292,25.3307189 52.5875497,25.3161974 L52.5875497,25.3161974 L52.2716766,25.2784767 C52.1636752,25.2677511 52.0519646,25.2587737 51.9335483,25.2512447 L51.9335483,25.2512447 L51.5551862,25.2327029 L51.1186118,25.2210529 L50.4329733,25.2129066 L50.0390008,25.2062282 L49.7505908,25.1932896 L49.4567651,25.1684716 C49.1955102,25.140715 48.9700802,25.0979571 48.7549884,25.0175079 L48.7549884,25.0175079 L48.6397126,24.9678419 L48.164145,25.2935098 C47.2736382,25.8927147 46.283505,26.5117128 45.1892167,27.1461356 L45.1892167,27.1461356 L44.7038062,27.4246662 C41.1872712,29.4219437 38.0109134,29.8042722 35.4545368,29.1970559 C35.0204715,29.0939523 34.6903357,28.9802396 34.4705586,28.8825553 L34.4705586,28.8825553 L34.1219639,28.7276153 L33.8548745,28.4552407 C32.6643343,27.2411421 32.365119,26.1938007 32.3519277,24.6131229 L32.3519277,24.6131229 L32.3478253,24.3739548 L32.3431089,24.2935644 L32.3173181,24.0594553 C32.2980319,23.7873315 32.3217391,23.5337475 32.3804998,23.2669112 L32.3804998,23.2669112 L32.4007126,23.1818419 L32.2293697,23.1376234 L32.0744349,23.0874297 L31.7009911,22.9452966 L31.5567931,22.8963946 L31.4687126,22.8758419 Z" id="Combined-Shape" fill="#000000" fill-rule="nonzero" transform="translate(31.475845, 32.534242) rotate(45.000000) translate(-31.475845, -32.534242) "></path>
    </g>
</svg>