<?xml version="1.0" encoding="UTF-8"?>
<svg width="64px" height="64px" viewBox="0 0 64 64" version="1.1" xmlns="http://www.w3.org/2000/svg" xmlns:xlink="http://www.w3.org/1999/xlink">
    <title>branch_termites</title>
    <g id="branch_termites" stroke="none" stroke-width="1" fill="none" fill-rule="evenodd">
        <path d="M18.3257737,6.50225571 L18.5051534,6.68299078 L25.4317186,14.5992332 C27.4009213,14.2012777 29.5896837,14 32,14 C34.4103163,14 36.5990787,14.2012777 38.5682814,14.5992332 L45.4948599,6.68299078 L45.6742396,6.50225571 C46.427004,5.83413014 47.580766,5.82503542 48.3453589,6.52011985 L48.3453589,6.52011985 L59.3453589,16.5201199 L59.5205098,16.7004075 C60.1671878,17.4550848 60.1657524,18.5909008 59.4798934,19.3453456 L59.4798934,19.3453456 L59.2996058,19.5204965 C58.5449285,20.1671745 57.4091125,20.1657391 56.6546677,19.4798801 L56.6546677,19.4798801 L47.1640133,10.85 L42.7619736,15.8810196 C48.9572099,18.5460336 52,24.0033398 52,32 C52,39.3730351 47.0344314,47.1760715 37.3015827,55.5185132 L37.3015827,55.5185132 L34,58.3484413 L34,54 C34,48.3468864 33.0612454,46 32,46 C30.9387546,46 30,48.3468864 30,54 L30,54 L30,58.3484413 L26.6984173,55.5185132 C16.9655686,47.1760715 12,39.3730351 12,32 C12,24.0033398 15.0427901,18.5460336 21.2380264,15.8810196 L16.836,10.85 L7.34534559,19.4798801 C6.59090075,20.1657391 5.45508478,20.1671745 4.70040751,19.5204965 L4.52011985,19.3453456 C3.83426091,18.5909008 3.83282547,17.4550848 4.47950354,16.7004075 L4.65465441,16.5201199 L15.6546544,6.52011985 C16.4192473,5.82503542 17.5730093,5.83413014 18.3257737,6.50225571 Z M32,18 C20.7215347,18 16,22.5162505 16,32 C16,37.1548525 19.2670497,42.9853895 25.9294243,49.4208362 L25.9294243,49.4208362 L26.226,49.704 L26.2505876,49.499229 C26.844918,44.8208012 28.5298625,42.185621 31.6591736,42.0094473 L31.6591736,42.0094473 L32,42 C35.3483932,42 37.1338559,44.6537145 37.7494124,49.499229 L37.7494124,49.499229 L37.772,49.704 L38.0705757,49.4208362 C44.5247511,43.1864972 47.7924936,37.5198518 47.9904247,32.4852448 L47.9904247,32.4852448 L48,32 C48,22.5162505 43.2784653,18 32,18 Z M23,34 C24.6568542,34 26,35.3431458 26,37 C26,38.6568542 24.6568542,40 23,40 C21.3431458,40 20,38.6568542 20,37 C20,35.3431458 21.3431458,34 23,34 Z M41,34 C42.6568542,34 44,35.3431458 44,37 C44,38.6568542 42.6568542,40 41,40 C39.3431458,40 38,38.6568542 38,37 C38,35.3431458 39.3431458,34 41,34 Z" id="Combined-Shape" fill="#000000" fill-rule="nonzero"></path>
    </g>
</svg>