<?xml version="1.0" encoding="UTF-8"?>
<svg width="64px" height="64px" viewBox="0 0 64 64" version="1.1" xmlns="http://www.w3.org/2000/svg" xmlns:xlink="http://www.w3.org/1999/xlink">
    <title>build</title>
    <g id="build" stroke="none" stroke-width="1" fill="none" fill-rule="evenodd">
        <path d="M15.2905469,9.07506287 C15.0522288,9.14226291 14.8284613,9.25313318 14.6306242,9.4020354 L14.4224833,9.56197141 C12.5927715,10.9982611 11.9411323,12.3522 12.6326586,13.808483 L12.645,13.833 L12.6615677,13.9760882 C12.8091539,15.0097081 13.6306426,15.7092508 15.2087086,16.5884567 L15.7049084,16.8581221 L16.2469988,17.1416497 L16.737398,17.3891394 C17.0671449,17.5521023 17.4014166,17.7106986 17.7335923,17.8630916 L18.339,18.134 L18.3238044,18.2136909 C18.2520666,18.5415532 18.1595562,18.8600743 18.0450382,19.1573273 L17.9632792,19.3574249 C17.7953093,19.7449041 17.6005368,20.0561714 17.3773206,20.2927378 L17.286,20.381 L16.8680228,20.0949088 L16.2299544,19.6725507 L15.6588278,19.3047124 C15.5653487,19.2453195 15.4727454,19.1869094 15.3810501,19.1295215 L14.8420322,18.7977726 C14.6661635,18.6914871 14.4941844,18.5896036 14.3263527,18.4924358 L13.8355575,18.2153927 L13.3711925,17.9685254 C12.545029,17.5447464 11.8599121,17.282591 11.3587092,17.2342414 C11.1188987,17.2111076 10.8768813,17.2314934 10.6443195,17.2944163 C10.302497,17.3869013 10.1372041,17.4385921 9.8667842,17.5601179 C8.76905056,18.0534356 8,19.0221592 8,20.4 C8.03717159,24.118943 9.81861825,28.1333264 13.665974,30.3566507 L13.8342183,30.443524 C14.6657833,30.8241816 15.5663361,31.0940031 16.5404004,31.2758022 L16.7827804,31.3194822 L17.2538024,31.3945691 C17.486584,31.428246 17.7171216,31.4563478 17.9537403,31.4798846 L18.4375523,31.5211712 L18.9523805,31.5520809 L19.513025,31.5744099 L20.4722725,31.5957438 L21.7196227,31.6189968 L22.0082551,31.6379491 L22.062,31.643 L22.1070647,31.6634736 L22.2764158,31.7208965 L22.5297014,31.7825316 L22.6390035,31.8262976 L22.7451093,31.8858377 L22.9141814,32.0028948 L23.1911139,32.2247051 L23.7302922,32.6989295 L24.7672694,33.6606496 L26.9112078,35.6998919 L29.6147966,38.2926404 L35.1734346,44.1279674 L36.515032,45.5655023 L37.4177131,46.5669682 L37.7330793,46.9358265 L38.0130166,47.2858033 L38.1491015,47.4730961 L38.272653,47.6668283 L38.3413939,47.7974072 L38.369,47.86 L38.3716973,48.1973503 C38.378048,49.8937994 38.4367976,50.9532207 38.6880255,52.2570743 L38.7542534,52.5802642 C39.1716894,54.4993196 39.9535891,56.0542403 41.2740453,57.1036495 L41.418,57.212 L41.3818558,57.1827299 C42.6597959,58.2539633 44.1495963,59.0018312 45.8041246,59.4744279 C47.8379899,60.0553777 49.7566839,60.1813625 52.0399451,60.0708119 L53.2741964,59.9971072 C53.6023673,59.9794376 53.921127,59.8811693 54.2022828,59.7109937 C56.9255356,58.0626857 57.3695127,55.5638229 56.0303341,53.4166105 C55.6621765,52.8263139 55.0137207,52.4697411 54.318047,52.4750584 L54.4021679,52.4740528 C54.4092245,52.4737657 54.4131545,52.47336 54.4144902,52.4727474 L54.3956353,52.465884 L54.2993811,52.4392111 L54.0586882,52.3630594 L53.7379023,52.2497845 L53.3420938,52.0988951 L52.8974693,51.9197154 L52.4082862,51.7142084 L51.9553575,51.5180076 L51.0596223,51.1170076 L50.617,50.912 L50.6463191,50.7654878 C50.7054407,50.4915289 50.7841263,50.2118005 50.8853871,49.939928 L50.9641299,49.74145 C51.1543129,49.2913837 51.3901391,48.932593 51.682004,48.6636552 L51.714,48.635 L51.8962338,48.7506837 C52.026774,48.8320643 52.1667736,48.9175645 52.3158814,49.0070519 L53.0471613,49.4362121 L53.9231048,49.9326056 C54.3588637,50.1761136 54.8143134,50.4262612 55.2762307,50.6766311 L56.9055501,51.546784 C57.2738301,51.7396314 57.6930511,51.8129257 58.1049171,51.7564748 C58.4825089,51.7047215 58.9305411,51.5783428 59.4098259,51.304143 C60.3523113,50.7649451 61,49.8308591 61,48.6 C61,45.8537209 57.9022153,39.9124977 55.2219334,38.5832439 C55.1066096,38.5260505 54.9860335,38.4801245 54.861883,38.4461052 C52.1732093,37.7093632 49.6997585,37.3861411 46.2735028,37.2028555 L46.1615871,37.2000065 L46.0255082,37.2028969 C45.8881078,37.1905695 45.6962209,37.1041732 45.4395213,36.9260788 L45.2346828,36.7750392 C45.1984639,36.7469085 45.1611919,36.7172762 45.1228468,36.6861078 L44.8797359,36.4803891 L44.6099,36.2361519 C44.5626465,36.1921439 44.5142391,36.1464622 44.4646577,36.0990723 L44.152919,35.7939582 L43.8120351,35.4461937 L43.1539844,34.7419467 L41.2928548,32.7024891 C40.3275771,31.6511491 39.4828661,30.7680283 38.600864,29.9036281 L38.1894709,29.5049133 L33.2906323,24.8803882 L32.7433501,24.3500587 L32.1026268,23.7115002 L31.7306811,23.3293259 L31.4021411,22.9812663 C31.3509656,22.9260654 31.3015716,22.8722605 31.2539456,22.8198391 L30.9892981,22.5218092 C30.9486902,22.4748705 30.9098234,22.4292897 30.872684,22.3850543 L30.6704696,22.1356838 C30.6401862,22.0967788 30.6116032,22.0591937 30.5847072,22.0229159 L30.518,21.929 L30.5079177,21.81738 L30.4981873,21.6113237 L30.4934753,21.3349247 L30.4976433,20.6953065 L30.5173165,19.6838386 L30.5211348,18.9313323 L30.5130461,18.4943925 L30.4951584,18.0842422 C30.491299,18.016926 30.4869852,17.9498334 30.4821939,17.882518 L30.4475315,17.4723809 C30.212262,15.0484772 29.3568952,13.1171182 27.5330226,11.7497671 L27.4382335,11.6829081 C23.7338519,9.22775131 18.1521102,8.26817023 15.2905469,9.07506287 Z M24.9572509,14.8439859 L25.171,14.981 L25.133644,14.9502329 C25.9275866,15.5454491 26.3298643,16.4537643 26.4662415,17.8588137 L26.492348,18.172185 C26.4959566,18.2244559 26.4992036,18.2769944 26.5021037,18.3301701 L26.5154593,18.6598296 L26.5211928,19.0225283 L26.5200069,19.4360108 L26.4958822,20.7338791 L26.4907974,21.2034051 C26.4905181,21.2760772 26.4905435,21.3461059 26.4909047,21.4137131 L26.4973491,21.7920709 L26.5133414,22.1229541 C26.5346039,22.4336479 26.572422,22.6890948 26.6334973,22.9371901 L26.7025732,23.1846088 L26.7886431,23.4377698 C26.8307041,23.5526216 26.8832122,23.663373 26.9455074,23.7686317 C27.2497808,24.2827557 27.6901763,24.8483056 28.3144568,25.5343993 L28.7114734,25.9610738 L29.154915,26.4199964 C29.2328181,26.4993552 29.312751,26.5801959 29.3947616,26.6625876 L29.9121394,27.1761031 L31.3208913,28.5272989 L35.4572942,32.4263843 C36.1665589,33.1089662 36.8453786,33.8002679 37.5842127,34.586575 L40.7250327,38.0051768 C42.6858408,40.0772078 43.9862617,41.0360053 45.6680699,41.1868946 L45.8731128,41.2002484 L45.9757119,41.2031401 L46.132,41.201 L46.6088312,41.2283236 C49.3066938,41.3909334 51.3142773,41.657902 53.3887688,42.1932073 L53.566,42.24 L53.6217012,42.2783928 C54.1583553,42.6788704 54.980089,43.7796271 55.7171049,45.1931454 L55.8279227,45.4094363 C55.991591,45.7344868 56.1434788,46.0612968 56.2799857,46.376304 L56.438,46.752 L55.5652102,46.2672363 L54.8266517,45.844396 L54.4007762,45.5931643 L54.0330487,45.3691544 L53.672,45.138 L53.6468065,45.0969104 C53.2187077,44.4460625 52.4367463,44.0378296 51.4374259,44.3307527 C49.2967367,44.9582363 47.8970257,46.5030749 47.1369455,48.5437956 C46.6803305,49.7697499 46.5104208,50.9814602 46.49991,52.0051342 L46.499877,52.1200903 L47.5239866,53.8600303 L47.6196654,54.005367 C47.6237218,54.0095738 47.6259099,54.0103276 47.6265526,54.0081558 L47.6201049,53.9804159 L47.5903655,53.9004561 L47.8479372,54.0281949 L48.4601943,54.3206148 C49.0728288,54.6094221 49.7288295,54.9093516 50.3573636,55.1849322 L50.827299,55.3884958 L51.4082226,55.6333618 L51.9339239,55.8464619 C52.0172154,55.8793456 52.0984133,55.9109163 52.1776214,55.9411794 L52.444,56.04 L52.2903652,56.0510676 C50.2008134,56.179086 48.54801,56.0982073 46.9027388,55.6282549 C45.8884813,55.3385441 44.9948263,54.9143184 44.231568,54.3397932 L43.8341955,54.0261538 C43.2862168,53.6321627 42.8603218,52.7694285 42.6157791,51.5002704 C42.5047647,50.9241144 42.4420598,50.3874299 42.4079954,49.7507144 L42.3853524,49.1772072 L42.3739849,48.5351829 L42.367434,47.7204351 L42.36365,47.5967493 C42.3591049,47.4779554 42.3520003,47.3740816 42.339063,47.2686392 L42.3154847,47.1059779 C42.2973155,47.000672 42.2732253,46.900186 42.2370917,46.7958206 L42.198,46.697 L42.1597931,46.5895901 C41.9645916,46.0828543 41.6247474,45.520026 41.1095307,44.8374324 L40.8109263,44.4528483 C40.7581987,44.3866438 40.7039755,44.3193538 40.6482336,44.2509305 L40.2953745,43.8264083 L39.9049602,43.3723904 C39.8367,43.2941352 39.7668288,43.2145553 39.6953235,43.1336029 L39.0070332,42.3666824 L38.2022002,41.4921651 L37.1424042,40.3649121 L32.4450501,35.4673105 L28.6077246,31.7659467 L27.8591285,31.0557469 L27.2300491,30.4713594 L26.6941719,29.9878078 C25.4615136,28.894292 24.5936404,28.2711624 23.7338526,27.9759128 L23.588,27.929 L23.5258146,27.8989032 C23.2867574,27.7841534 23.0534738,27.7162216 22.7274576,27.6745114 L22.4640189,27.6478235 L22.1565705,27.6290378 L21.7958774,27.6162234 L21.1348026,27.6039742 L20.5404126,27.5962952 L19.9298862,27.584308 L19.3924937,27.5669699 L18.9131421,27.5426718 C18.8372484,27.5379527 18.7631442,27.5328766 18.6905151,27.52741 L18.2699257,27.4896554 C18.1339525,27.4753295 18.001364,27.4591733 17.8696449,27.4409185 L17.4745798,27.3795905 C17.4083317,27.3682306 17.3416721,27.3562789 17.2742866,27.3437021 L16.9455569,27.2767534 C16.5160278,27.1816336 16.1215969,27.0629595 15.7621462,26.9191094 L15.584,26.843 L15.409435,26.7367355 C13.6376892,25.6074913 12.5735378,23.7966498 12.1771056,21.9530614 L12.161,21.872 L11.9868073,21.7725448 C12.6870536,22.1641909 13.5370346,22.6869709 14.312015,23.1981661 L14.8060661,23.5297595 L15.1084656,23.7399 L15.361189,23.9221524 L15.52,24.043 L15.5791511,24.1098487 C16.0650602,24.6247913 16.8163182,24.8790527 17.5778235,24.6648677 L17.7626598,24.6128796 C19.7545473,23.9869451 21.0335652,22.5266574 21.7776209,20.5953211 C22.3144444,19.2018951 22.49314,17.8593058 22.4999507,16.8890385 C22.5053585,16.1186412 22.0685061,15.4190093 21.3862631,15.0820488 L21.2289232,15.012531 L20.7156217,14.8017998 L20.2183584,14.589666 L19.9491091,14.4719115 C19.2834765,14.1783393 18.6467068,13.8786197 18.0804256,13.5865764 L17.8392507,13.4603245 C17.6829112,13.3772044 17.5356194,13.2962718 17.3983374,13.2180786 L17.0174825,12.9922693 C16.9593322,12.9561881 16.9039248,12.9209298 16.8513807,12.8865632 L16.783,12.84 L16.9460294,12.8188748 C18.8569397,12.6041247 22.4733674,13.3161931 24.9572509,14.8439859 Z" id="wrench" fill="#000000" fill-rule="nonzero" transform="translate(34.500000, 34.451233) scale(-1, 1) translate(-34.500000, -34.451233) "></path>
        <path d="M35.9999998,42.1700001 L38.6919537,42.226184 L39.9999998,42.2590001 L40,65.0000001 C40,66.1045696 39.1045695,67.0000001 38,67.0000001 L30,67.0000001 C28.8954305,67.0000001 28,66.1045696 28,65.0000001 L27.9999998,42.3170001 L31.9999998,42.2200001 L32,63.0000001 L36,63.0000001 L35.9999998,42.1700001 Z M33.9999999,2.00000009 C38.082194,2.00000009 42.1643881,2.25506603 46.2465821,2.76519791 C47.2483867,2.8894953 48.0003664,3.74100232 47.9999999,4.75048838 L47.9999999,21.2495118 C48.0003664,22.2589979 47.2483867,23.1105049 46.2465821,23.2348023 C44.1644965,23.4949904 42.0824109,23.6888252 40.0003254,23.8163067 L39.9999998,28.0110001 L35.9999998,27.8960001 L36,24.0000001 L32,24.0000001 L32.0023855,27.8885158 C31.5590731,27.901228 31.1011704,27.9179491 30.6203628,27.9384683 L30.6203628,27.9384683 L27.9999998,28.0580001 L28.0006744,23.8163679 C25.9182556,23.6888872 23.8358368,23.495032 21.753418,23.2348023 C20.7516134,23.1105049 19.9996337,22.2589979 19.9999999,21.2495118 L19.9999999,4.75048838 C19.9996337,3.74100232 20.7516134,2.8894953 21.753418,2.76519791 C25.835612,2.25506603 29.917806,2.00000009 33.9999999,2.00000009 Z M34,6.00000009 C30.9541784,6.00000009 27.9080611,6.14803803 24.8595642,6.44440233 L24,6.53300009 L23.999,19.4650001 L24.861204,19.555802 C27.4727958,19.8096536 30.0838441,19.9546806 32.6946285,19.9909363 L34,20.0000001 C37.0458217,20.0000001 40.091939,19.8519622 43.1404359,19.5555979 L44,19.4660001 L44,6.53400009 L43.1387961,6.44419814 C40.5272043,6.19034662 37.916156,6.04531955 35.3053716,6.00906389 L34,6.00000009 Z" id="Combined-Shape" fill="#000000" fill-rule="nonzero" transform="translate(34.000000, 34.500000) rotate(-45.000000) translate(-34.000000, -34.500000) "></path>
    </g>
</svg>