<?xml version="1.0" encoding="UTF-8"?>
<svg width="32px" height="32px" viewBox="0 0 32 32" version="1.1" xmlns="http://www.w3.org/2000/svg" xmlns:xlink="http://www.w3.org/1999/xlink">
    <title>business-cert-type</title>
    <g id="business-cert-type" stroke="none" stroke-width="1" fill="none" fill-rule="evenodd">
        <g id="business" transform="translate(2.000000, 3.000000)" fill="#000000">
            <path d="M12,0 C12.5522847,0 13,0.44771525 13,1 L13,23 C13,23.5522847 12.5522847,24 12,24 L1,24 C0.44771525,24 0,23.5522847 0,23 L0,1 C0,0.44771525 0.44771525,0 1,0 L12,0 Z M11,2 L2,2 L2,22 L11,22 L11,2 Z" id="Combined-Shape" fill-rule="nonzero"></path>
            <rect id="Rectangle" x="3" y="3" width="3" height="3" rx="1"></rect>
            <rect id="Rectangle-Copy-2" x="7" y="3" width="3" height="3" rx="1"></rect>
            <rect id="Rectangle-Copy-4" x="3" y="7" width="3" height="3" rx="1"></rect>
            <rect id="Rectangle-Copy-3" x="7" y="7" width="3" height="3" rx="1"></rect>
            <rect id="Rectangle-Copy-6" x="3" y="11" width="3" height="3" rx="1"></rect>
            <rect id="Rectangle-Copy-5" x="7" y="11" width="3" height="3" rx="1"></rect>
            <rect id="Rectangle-Copy-8" x="3" y="15" width="3" height="3" rx="1"></rect>
            <rect id="Rectangle-Copy-7" x="7" y="15" width="3" height="3" rx="1"></rect>
            <path d="M6,19 L7,19 C7.55228475,19 8,19.4477153 8,20 L8,22 L8,22 L5,22 L5,20 C5,19.4477153 5.44771525,19 6,19 Z" id="Rectangle"></path>
        </g>
        <g id="Group" transform="translate(16.000000, 8.000000)" fill="#000000" fill-rule="nonzero">
            <g id="Combined-Shape">
                <path d="M7,0 C9.209139,0 11,1.790861 11,4 C11,5.4801068 10.1961002,6.77245275 9.00110922,7.46422933 L9,10 L13,10 C13.5522847,10 14,10.4477153 14,11 L14,15 C14,15.5522847 13.5522847,16 13,16 L12,16 L12,17 L2,17 L2,16 L1,16 C0.44771525,16 0,15.5522847 0,15 L0,11 C0,10.4477153 0.44771525,10 1,10 L5,10 L4.99987956,7.46480154 C3.80434324,6.77316556 3,5.48051499 3,4 C3,1.790861 4.790861,0 7,0 Z M12,12 L2,12 L2,14 L12,14 L12,12 Z M7,2 C5.8954305,2 5,2.8954305 5,4 C5,5.1045695 5.8954305,6 7,6 C8.1045695,6 9,5.1045695 9,4 C9,2.8954305 8.1045695,2 7,2 Z"></path>
            </g>
        </g>
    </g>
</svg>