<?xml version="1.0" encoding="UTF-8"?>
<svg width="32px" height="32px" viewBox="0 0 32 32" version="1.1" xmlns="http://www.w3.org/2000/svg" xmlns:xlink="http://www.w3.org/1999/xlink">
    <title>business</title>
    <g id="business" stroke="none" stroke-width="1" fill="none" fill-rule="evenodd">
        <g transform="translate(4.000000, 4.000000)" fill="#000000">
            <path d="M1,24 C0.44771525,24 0,23.5522847 0,23 L0,1 C0,0.44771525 0.44771525,0 1,0 L12,0 C12.5522847,0 13,0.44771525 13,1 L13,12 L23,12 C23.5522847,12 24,12.4477153 24,13 L24,23 C24,23.5522847 23.5522847,24 23,24 L1,24 Z M11,2 L2,2 L2,22 L11,22 L11,2 Z M22,14 L13,14 L13,22 L22,22 L22,14 Z" id="Combined-Shape" fill-rule="nonzero"></path>
            <rect id="Rectangle" x="3" y="3" width="3" height="3" rx="1"></rect>
            <rect id="Rectangle-Copy-2" x="7" y="3" width="3" height="3" rx="1"></rect>
            <rect id="Rectangle-Copy-4" x="3" y="7" width="3" height="3" rx="1"></rect>
            <rect id="Rectangle-Copy-3" x="7" y="7" width="3" height="3" rx="1"></rect>
            <rect id="Rectangle-Copy-6" x="3" y="11" width="3" height="3" rx="1"></rect>
            <rect id="Rectangle-Copy-5" x="7" y="11" width="3" height="3" rx="1"></rect>
            <rect id="Rectangle-Copy-8" x="3" y="15" width="3" height="3" rx="1"></rect>
            <rect id="Rectangle-Copy-7" x="7" y="15" width="3" height="3" rx="1"></rect>
            <rect id="Rectangle-Copy-11" x="14" y="15" width="3" height="3" rx="1"></rect>
            <rect id="Rectangle-Copy-10" x="18" y="15" width="3" height="3" rx="1"></rect>
            <path d="M6,19 L7,19 C7.55228475,19 8,19.4477153 8,20 L8,22 L8,22 L5,22 L5,20 C5,19.4477153 5.44771525,19 6,19 Z" id="Rectangle"></path>
            <path d="M17,19 L18,19 C18.5522847,19 19,19.4477153 19,20 L19,22 L19,22 L16,22 L16,20 C16,19.4477153 16.4477153,19 17,19 Z" id="Rectangle-Copy-9"></path>
        </g>
    </g>
</svg>