<?xml version="1.0" encoding="UTF-8"?>
<svg width="64px" height="64px" viewBox="0 0 64 64" version="1.1" xmlns="http://www.w3.org/2000/svg" xmlns:xlink="http://www.w3.org/1999/xlink">
    <title>calendar_map</title>
    <g id="calendar_map" stroke="none" stroke-width="1" fill="none" fill-rule="evenodd">
        <path d="M8,20 L8,56 L56,56 L56,20 L8,20 Z M46,4 C47.6568542,4 49,5.34314575 49,7 L49,10 C49,11.6568542 47.6568542,13 46,13 C44.3431458,13 43,11.6568542 43,10 L43,7 C43,5.34314575 44.3431458,4 46,4 Z M18,4 C19.6568542,4 21,5.34314575 21,7 L21,10 C21,11.6568542 19.6568542,13 18,13 C16.3431458,13 15,11.6568542 15,10 L15,7 C15,5.34314575 16.3431458,4 18,4 Z M60,60 L4,60 L4,10 L14,10 L14.0003512,10.0230014 C14.0079012,10.3476543 14.1777778,14 18,14 C22,14 22,10 22,10 L42,10 L42.0003512,10.0230014 C42.0079012,10.3476543 42.1777778,14 46,14 C50,14 50,10 50,10 L60,10 L60,60 Z" id="Combined-Shape" fill="#000000" fill-rule="nonzero"></path>
        <path d="M38.6125875,22.1884885 L49.5881717,25.5655913 C50.4273549,25.8238015 51,26.5991396 51,27.4771493 L51,51.2920815 C51,52.396651 50.1045695,53.2920815 49,53.2920815 C48.8006305,53.2920815 48.6023815,53.2622712 48.4118283,53.2036395 L38.6125875,50.1884885 C38.2141749,50.0659 37.7874151,50.0708616 37.3919603,50.2026799 L26.6080397,53.7973201 C26.2125849,53.9291384 25.7858251,53.9341 25.3874125,53.8115115 L14.4118283,50.4344087 C13.5726451,50.1761985 13,49.4008604 13,48.5228507 L13,24.7079185 C13,23.603349 13.8954305,22.7079185 15,22.7079185 C15.1993695,22.7079185 15.3976185,22.7377288 15.5881717,22.7963605 L25.3874125,25.8115115 C25.7858251,25.9341 26.2125849,25.9291384 26.6080397,25.7973201 L37.3919603,22.2026799 C37.7874151,22.0708616 38.2141749,22.0659 38.6125875,22.1884885 Z M17,27.416 L17,47.045 L24,49.199 L24,29.57 L17,27.416 Z M36,26.882 L28,29.549 L28,49.116 L36,46.449 L36,26.882 Z M40,26.801 L40,46.429 L47,48.583 L47,28.954 L40,26.801 Z" id="Path-121" fill="#000000" fill-rule="nonzero"></path>
    </g>
</svg>