<?xml version="1.0" encoding="UTF-8"?>
<svg width="64px" height="64px" viewBox="0 0 64 64" version="1.1" xmlns="http://www.w3.org/2000/svg" xmlns:xlink="http://www.w3.org/1999/xlink">
    <title>calendar_branch</title>
    <g id="calendar_branch" stroke="none" stroke-width="1" fill="none" fill-rule="evenodd">
        <path d="M46,24 C49.3137085,24 52,26.6862915 52,30 C52,33.3137085 49.3137085,36 46,36 C45.4015096,36 44.8234856,35.9123728 44.278058,35.7492484 L37.3242454,43.2310227 C37.7559561,44.0594309 38,45.0012157 38,46 C38,49.3137085 35.3137085,52 32,52 C28.6862915,52 26,49.3137085 26,46 C26,45.0012157 26.2440439,44.0594309 26.6757546,43.2310227 L19.721942,35.7492484 C19.1765144,35.9123728 18.5984904,36 18,36 C14.6862915,36 12,33.3137085 12,30 C12,26.6862915 14.6862915,24 18,24 C21.3137085,24 24,26.6862915 24,30 C24,30.999187 23.7557593,31.9413286 23.323723,32.7699794 L30.278058,40.2507516 C30.8234856,40.0876272 31.4015096,40 32,40 C32.5984904,40 33.1765144,40.0876272 33.721942,40.2507516 L40.676277,32.7699794 C40.2442407,31.9413286 40,30.999187 40,30 C40,26.6862915 42.6862915,24 46,24 Z M32,44 C30.8954305,44 30,44.8954305 30,46 C30,47.1045695 30.8954305,48 32,48 C33.1045695,48 34,47.1045695 34,46 C34,44.8954305 33.1045695,44 32,44 Z M46,28 C44.8954305,28 44,28.8954305 44,30 C44,31.1045695 44.8954305,32 46,32 C47.1045695,32 48,31.1045695 48,30 C48,28.8954305 47.1045695,28 46,28 Z M18,28 C16.8954305,28 16,28.8954305 16,30 C16,31.1045695 16.8954305,32 18,32 C19.1045695,32 20,31.1045695 20,30 C20,28.8954305 19.1045695,28 18,28 Z" id="Combined-Shape" fill="#000000" fill-rule="nonzero"></path>
        <path d="M8,20 L8,56 L56,56 L56,20 L8,20 Z M46,4 C47.6568542,4 49,5.34314575 49,7 L49,10 C49,11.6568542 47.6568542,13 46,13 C44.3431458,13 43,11.6568542 43,10 L43,7 C43,5.34314575 44.3431458,4 46,4 Z M18,4 C19.6568542,4 21,5.34314575 21,7 L21,10 C21,11.6568542 19.6568542,13 18,13 C16.3431458,13 15,11.6568542 15,10 L15,7 C15,5.34314575 16.3431458,4 18,4 Z M60,60 L4,60 L4,10 L14,10 L14.0003512,10.0230014 C14.0079012,10.3476543 14.1777778,14 18,14 C22,14 22,10 22,10 L42,10 L42.0003512,10.0230014 C42.0079012,10.3476543 42.1777778,14 46,14 C50,14 50,10 50,10 L60,10 L60,60 Z" id="Combined-Shape" fill="#000000" fill-rule="nonzero"></path>
    </g>
</svg>