<?xml version="1.0" encoding="UTF-8"?>
<svg width="64px" height="64px" viewBox="0 0 64 64" version="1.1" xmlns="http://www.w3.org/2000/svg" xmlns:xlink="http://www.w3.org/1999/xlink">
    <title>calendar_share</title>
    <g id="calendar_share" stroke="none" stroke-width="1" fill="none" fill-rule="evenodd">
        <path d="M8,19 L8,56 L56,56 L56,19 L8,19 Z M46,4 C47.6568542,4 49,5.34314575 49,7 L49,10 C49,11.6568542 47.6568542,13 46,13 C44.3431458,13 43,11.6568542 43,10 L43,7 C43,5.34314575 44.3431458,4 46,4 Z M18,4 C19.6568542,4 21,5.34314575 21,7 L21,10 C21,11.6568542 19.6568542,13 18,13 C16.3431458,13 15,11.6568542 15,10 L15,7 C15,5.34314575 16.3431458,4 18,4 Z M60,60 L4,60 L4,10 L14,10 L14.0003512,10.0207012 C14.0079012,10.3128889 14.1777778,13.6 18,13.6 C22,13.6 22,10 22,10 L42,10 L42.0003512,10.0207012 C42.0079012,10.3128889 42.1777778,13.6 46,13.6 C50,13.6 50,10 50,10 L60,10 L60,60 Z" id="Combined-Shape" fill="#000000" fill-rule="nonzero"></path>
        <g id="Group" transform="translate(16.000000, 21.000000)" fill="#000000">
            <circle id="Oval" cx="3" cy="30" r="3"></circle>
            <path d="M3,18 C9.627417,18 15,23.372583 15,30 C15,31.1045695 14.1045695,32 13,32 C11.8954305,32 11,31.1045695 11,30 C11,25.581722 7.418278,22 3,22 C1.8954305,22 1,21.1045695 1,20 C1,18.8954305 1.8954305,18 3,18 Z" id="Path" fill-rule="nonzero"></path>
            <path d="M3,9 C14.5979797,9 24,18.4020203 24,30 C24,31.1045695 23.1045695,32 22,32 C20.8954305,32 20,31.1045695 20,30 C20,20.6111593 12.3888407,13 3,13 C1.8954305,13 1,12.1045695 1,11 C1,9.8954305 1.8954305,9 3,9 Z" id="Path" fill-rule="nonzero"></path>
            <path d="M3,0 C19.5685425,0 33,13.4314575 33,30 C33,31.1045695 32.1045695,32 31,32 C29.8954305,32 29,31.1045695 29,30 C29,15.6405965 17.3594035,4 3,4 C1.8954305,4 1,3.1045695 1,2 C1,0.8954305 1.8954305,0 3,0 Z" id="Path" fill-rule="nonzero"></path>
        </g>
    </g>
</svg>