<?xml version="1.0" encoding="UTF-8"?>
<svg width="64px" height="64px" viewBox="0 0 64 64" version="1.1" xmlns="http://www.w3.org/2000/svg" xmlns:xlink="http://www.w3.org/1999/xlink">
    <title>calendar_style</title>
    <g id="calendar_style" stroke="none" stroke-width="1" fill="none" fill-rule="evenodd">
        <path d="M8,20 L8,56 L56,56 L56,20 L8,20 Z M46,4 C47.6568542,4 49,5.34314575 49,7 L49,10 C49,11.6568542 47.6568542,13 46,13 C44.3431458,13 43,11.6568542 43,10 L43,7 C43,5.34314575 44.3431458,4 46,4 Z M18,4 C19.6568542,4 21,5.34314575 21,7 L21,10 C21,11.6568542 19.6568542,13 18,13 C16.3431458,13 15,11.6568542 15,10 L15,7 C15,5.34314575 16.3431458,4 18,4 Z M60,60 L4,60 L4,10 L14,10 L14.0003512,10.0230014 C14.0079012,10.3476543 14.1777778,14 18,14 C22,14 22,10 22,10 L42,10 L42.0003512,10.0230014 C42.0079012,10.3476543 42.1777778,14 46,14 C50,14 50,10 50,10 L60,10 L60,60 Z" id="Combined-Shape" fill="#000000" fill-rule="nonzero"></path>
        <path d="M32.66676,20.66658 C42.953348,20.66658 51.33352,28.4021234 51.33352,38 C51.33352,47.5978766 42.953348,55.33342 32.66676,55.33342 C27.2339482,55.33342 25.7909083,53.5508744 26.0417186,49.3973607 L26.0839875,48.6647013 C26.1722021,46.7545187 25.955445,45.8410425 25.0572462,44.9428438 C24.5192597,44.4048572 23.7010641,44.3520114 21.8597635,44.707502 L20.9372208,44.8881506 C18.7411414,45.3032668 17.6445939,45.3015616 16.4223807,44.5805396 C14.7511228,43.5946121 14,41.4778535 14,38 C14,28.4021309 22.3801761,20.66658 32.66676,20.66658 Z M32.66676,24.66658 C24.5071678,24.66658 18,30.6978732 18,38 C18,39.3244738 18.1302515,40.2729442 18.3421346,40.8536305 C18.4000576,41.0123742 18.4307852,41.0834454 18.4449367,41.1139836 L18.4546415,41.1341907 L18.4987234,41.1576742 C18.6440199,41.2238036 18.8775152,41.2066624 20.1685553,40.9627011 L21.1015062,40.7800288 C24.1744817,40.186745 26.0958929,40.3246362 27.8856734,42.1144166 C29.6926618,43.9214051 30.2170327,45.8760792 30.0773472,48.8950878 L30.0344458,49.638462 C29.9171127,51.5815418 29.6577566,51.33342 32.66676,51.33342 C40.8263578,51.33342 47.33352,45.3021329 47.33352,38 C47.33352,30.6978671 40.8263578,24.66658 32.66676,24.66658 Z" id="Path" fill="#000000" fill-rule="nonzero"></path>
        <circle id="Oval" fill="#000000" cx="33.6370585" cy="30.66668" r="2.66668"></circle>
        <circle id="Oval-Copy" fill="#000000" cx="24.66668" cy="35.33332" r="2.66668"></circle>
        <circle id="Oval-Copy-2" fill="#000000" cx="41.33336" cy="38" r="2.66668"></circle>
        <circle id="Oval-Copy-3" fill="#000000" cx="36" cy="46" r="2.66668"></circle>
    </g>
</svg>