<?xml version="1.0" encoding="UTF-8"?>
<svg width="64px" height="64px" viewBox="0 0 64 64" version="1.1" xmlns="http://www.w3.org/2000/svg" xmlns:xlink="http://www.w3.org/1999/xlink">
    <title>calendar_collapse</title>
    <g id="calendar_collapse" stroke="none" fill="none" fill-rule="nonzero">
        <path d="M51.4142136,34.5857864 L59.4142136,42.5857864 C60.1952621,43.366835 60.1952621,44.633165 59.4142136,45.4142136 C58.633165,46.1952621 57.366835,46.1952621 56.5857864,45.4142136 L52,40.828 L52,58 C52,59.1045695 51.1045695,60 50,60 C48.8954305,60 48,59.1045695 48,58 L48,40.828 L43.4142136,45.4142136 C42.633165,46.1952621 41.366835,46.1952621 40.5857864,45.4142136 C39.8047379,44.633165 39.8047379,43.366835 40.5857864,42.5857864 L48.5857864,34.5857864 C49.366835,33.8047379 50.633165,33.8047379 51.4142136,34.5857864 Z" id="Combined-Shape" fill="#000000"></path>
        <path d="M50.5320114,29.9284667 C50.494664,29.9387468 50.4568791,29.947971 50.4186908,29.9561052 C50.4003782,29.9598305 50.3817408,29.9635278 50.363064,29.966958 C50.3295048,29.9732797 50.2957697,29.9785789 50.2617659,29.983024 C50.2427334,29.9853991 50.2233869,29.9876556 50.2040171,29.9896302 C50.1367445,29.9965283 50.0687777,30 50,30 L50.1108902,29.9969425 C50.0908361,29.9980493 50.0707686,29.9988556 50.0506949,29.9993614 L50,30 C49.9832641,30 49.9665762,29.9997944 49.9499387,29.9993857 C49.9299004,29.9988824 49.9094981,29.9980677 49.8891098,29.9969425 C49.8580759,29.9952844 49.8270674,29.992867 49.7962652,29.9897506 C49.7766131,29.9876556 49.7572666,29.9853991 49.7379501,29.9828605 C49.7042303,29.9785789 49.6704952,29.9732797 49.6370509,29.9671486 C49.6182592,29.9635278 49.5996218,29.9598305 49.5810299,29.9558661 C49.5431209,29.947971 49.505336,29.9387468 49.4679886,29.9284667 C49.4574911,29.9254177 49.4468892,29.9224094 49.4363078,29.919312 L49.4679886,29.9284667 C49.3533535,29.8969127 49.2428402,29.855411 49.1374353,29.8049483 C49.1324411,29.8026518 49.1273841,29.8002091 49.1223353,29.7977439 C49.0813026,29.7775656 49.0411999,29.7562083 49.0019387,29.7335556 C48.9899252,29.726818 48.9778717,29.7196997 48.965878,29.712444 C48.9326889,29.6921572 48.9000469,29.6710763 48.8680761,29.6490897 C48.8549238,29.6402438 48.8419114,29.6310598 48.8289857,29.6217022 C48.7982449,29.5992744 48.7681999,29.5762127 48.7388452,29.5523351 C48.6858709,29.5092969 48.6348704,29.4632975 48.5857864,29.4142136 L48.7043639,29.5236423 C48.6633797,29.4887572 48.6238207,29.4522478 48.5857864,29.4142136 L40.5857864,21.4142136 C39.8047379,20.633165 39.8047379,19.366835 40.5857864,18.5857864 C41.366835,17.8047379 42.633165,17.8047379 43.4142136,18.5857864 L48,23.171 L48,6 C48,4.9456382 48.8158778,4.08183488 49.8507377,4.00548574 L50,4 C51.1045695,4 52,4.8954305 52,6 L52,23.171 L56.5857864,18.5857864 C57.3257272,17.8458457 58.5012114,17.8069014 59.2869988,18.4689537 L59.4142136,18.5857864 C60.1952621,19.366835 60.1952621,20.633165 59.4142136,21.4142136 L51.4142136,29.4142136 C51.3761793,29.4522478 51.3366203,29.4887572 51.2956361,29.5236423 C51.2846944,29.5330589 51.2731147,29.5427109 51.2614529,29.5522116 C51.2318001,29.5762127 51.2017551,29.5992744 51.1710544,29.6214855 C51.1580886,29.6310598 51.1450762,29.6402438 51.1319803,29.6492542 C51.0999531,29.6710763 51.0673111,29.6921572 51.0340349,29.7122955 C51.0221283,29.7196997 51.0100748,29.726818 50.9979638,29.733799 C50.9588001,29.7562083 50.9186974,29.7775656 50.8778115,29.797569 C50.8726159,29.8002091 50.8675589,29.8026518 50.8624938,29.805072 C50.7669329,29.8507322 50.667096,29.8891396 50.5637909,29.9194339 Z" id="Combined-Shape" fill="#000000"></path>
        <path d="M36,25 L36,27 C36,29.209139 34.209139,31 32,31 L8,31 C5.790861,31 4,29.209139 4,27 L4,25 C4,22.790861 5.790861,21 8,21 L32,21 C34.209139,21 36,22.790861 36,25 Z M8,25 L8,27 L32,27 L32,25 L8,25 Z" id="Rectangle-Copy-2" fill="#000000"></path>
        <path d="M36,49 L36,51 C36,53.209139 34.209139,55 32,55 L8,55 C5.790861,55 4,53.209139 4,51 L4,49 C4,46.790861 5.790861,45 8,45 L32,45 C34.209139,45 36,46.790861 36,49 Z M8,49 L8,51 L32,51 L32,49 L8,49 Z" id="Rectangle-Copy-3" fill="#000000"></path>
        <path d="M36,37 L36,39 C36,41.209139 34.209139,43 32,43 L8,43 C5.790861,43 4,41.209139 4,39 L4,37 C4,34.790861 5.790861,33 8,33 L32,33 C34.209139,33 36,34.790861 36,37 Z M8,37 L8,39 L32,39 L32,37 L8,37 Z" id="Rectangle-Copy-4" fill="#000000"></path>
        <path d="M36,13 L36,15 C36,17.209139 34.209139,19 32,19 L8,19 C5.790861,19 4,17.209139 4,15 L4,13 C4,10.790861 5.790861,9 8,9 L32,9 C34.209139,9 36,10.790861 36,13 Z M8,13 L8,15 L32,15 L32,13 L8,13 Z" id="Rectangle-Copy-5" fill="#000000"></path>
    </g>
</svg>