<?xml version="1.0" encoding="UTF-8"?>
<svg width="64px" height="64px" viewBox="0 0 64 64" version="1.1" xmlns="http://www.w3.org/2000/svg" xmlns:xlink="http://www.w3.org/1999/xlink">
    <title>calendar_rolling</title>
    <g id="calendar_rolling" stroke="none" stroke-width="1" fill="none" fill-rule="evenodd">
        <path d="M33.2869988,22.4689537 L33.4142136,22.5857864 L41.4142136,30.5857864 C42.1952621,31.366835 42.1952621,32.633165 41.4142136,33.4142136 C40.6742728,34.1541543 39.4987886,34.1930986 38.7130012,33.5310463 L38.5857864,33.4142136 L34,28.829 L34,47.171 L38.5857864,42.5857864 L38.7130012,42.4689537 C39.4987886,41.8069014 40.6742728,41.8458457 41.4142136,42.5857864 C42.1952621,43.366835 42.1952621,44.633165 41.4142136,45.4142136 L41.4142136,45.4142136 L33.4142136,53.4142136 L33.2869988,53.5310463 C32.5012114,54.1930986 31.3257272,54.1541543 30.5857864,53.4142136 L30.5857864,53.4142136 L22.5857864,45.4142136 L22.4689537,45.2869988 C21.8069014,44.5012114 21.8458457,43.3257272 22.5857864,42.5857864 L22.5857864,42.5857864 L22.7130012,42.4689537 C23.4987886,41.8069014 24.6742728,41.8458457 25.4142136,42.5857864 L25.4142136,42.5857864 L30,47.171 L30,28.829 L25.4142136,33.4142136 C24.6742728,34.1541543 23.4987886,34.1930986 22.7130012,33.5310463 L22.5857864,33.4142136 C21.8458457,32.6742728 21.8069014,31.4987886 22.4689537,30.7130012 L22.5857864,30.5857864 L30.5857864,22.5857864 C31.3257272,21.8458457 32.5012114,21.8069014 33.2869988,22.4689537 Z" id="Combined-Shape" fill="#000000" fill-rule="nonzero"></path>
        <path d="M8,20 L8,56 L56,56 L56,20 L8,20 Z M46,4 C47.6568542,4 49,5.34314575 49,7 L49,10 C49,11.6568542 47.6568542,13 46,13 C44.3431458,13 43,11.6568542 43,10 L43,7 C43,5.34314575 44.3431458,4 46,4 Z M18,4 C19.6568542,4 21,5.34314575 21,7 L21,10 C21,11.6568542 19.6568542,13 18,13 C16.3431458,13 15,11.6568542 15,10 L15,7 C15,5.34314575 16.3431458,4 18,4 Z M60,60 L4,60 L4,10 L14,10 L14.0003512,10.0230014 C14.0079012,10.3476543 14.1777778,14 18,14 C22,14 22,10 22,10 L42,10 L42.0003512,10.0230014 C42.0079012,10.3476543 42.1777778,14 46,14 C50,14 50,10 50,10 L60,10 L60,60 Z" id="Combined-Shape" fill="#000000" fill-rule="nonzero"></path>
    </g>
</svg>