<?xml version="1.0" encoding="UTF-8"?>
<svg width="64px" height="64px" viewBox="0 0 64 64" version="1.1" xmlns="http://www.w3.org/2000/svg" xmlns:xlink="http://www.w3.org/1999/xlink">
    <title>california</title>
    <g id="california" stroke="none" stroke-width="1" fill="none" fill-rule="evenodd">
        <path d="M28.0023583,2 C29.106841,2 30.0022011,2.8954305 30.0022011,4 L30.0022011,4 L30.0022011,21.122 L54.3543997,43.528138 C54.4735772,43.6377899 54.578773,43.7613063 54.6678493,43.8958475 L54.6678493,43.8958475 L54.7891068,44.1055728 L55.6421854,45.812 L57.4142596,47.5857864 C58.1351709,48.3067544 58.1906256,49.4412165 57.5806237,50.2257989 L57.5806237,50.2257989 L57.4142596,50.4142136 L57.0000786,50.828 L57.0000786,53 C57.0000786,53.4420275 56.8537612,53.8689681 56.5879498,54.216059 L56.5879498,54.216059 L56.4143382,54.4142136 L56.0001572,54.828 L56.0001572,55.528 L56.7889496,57.1055728 C57.4188064,58.3653854 56.5841434,59.8359531 55.2304884,59.9872599 L55.2304884,59.9872599 L55.0002358,60 L43.0011792,60 C42.140386,60 41.3761684,59.4491398 41.1039617,58.6324555 L41.1039617,58.6324555 L40.3013914,56.224 L37.3356246,54 L37.0016508,54 C36.5596581,54 36.1327511,53.8536711 35.7856874,53.5878387 L35.7856874,53.5878387 L35.5875485,53.4142136 L34.8138228,52.642 L33.1075298,51.7888544 C32.97936,51.7247644 32.8586367,51.6471775 32.7473613,51.5575361 L32.7473613,51.5575361 L32.5877843,51.4142136 L31.0141216,49.842 L26.6102355,48.9611614 C26.0303808,48.8451813 25.5360982,48.4797951 25.2534431,47.9698662 L25.2534431,47.9698662 L25.1456296,47.7427814 L23.2987281,43.126 L22.5885704,42.4142136 L22.4410579,42.2493901 L18.4413724,37.2493901 C17.9540849,36.6402329 17.8654287,35.8033172 18.2142735,35.1055728 L18.2142735,35.1055728 L18.4231114,34.684 L16.8938313,33.6641006 C16.4070219,33.3395355 16.0903172,32.8208606 16.0187474,32.2482822 L16.0187474,32.2482822 L16.0033017,32 L16.0066966,29.8824848 L16.0193004,29.744 L14.1090234,28.7888544 C13.5067881,28.487713 13.101723,27.9070716 13.0191435,27.2497106 L13.0191435,27.2497106 L13.0035375,27 L13.0035375,25.83 L10.5895137,23.4142136 C10.2769777,23.1016529 10.0785709,22.6962902 10.0211169,22.262888 L10.0211169,22.262888 L10.0037734,22 L10.0037734,17.07 L7.89453879,15.6641006 C7.40772939,15.3395355 7.09102472,14.8208606 7.01945495,14.2482822 L7.01945495,14.2482822 L7.00400919,14 L7.00400919,12 C7.00400919,11.6895098 7.07629369,11.3832837 7.21513821,11.1055728 L7.21513821,11.1055728 L9.00385197,7.524 L9.00385197,6.83 L7.58974958,5.41421356 C6.38469415,4.20906339 7.14866245,2.18563838 8.77660795,2.01196654 L8.77660795,2.01196654 L9.00385197,2 Z M26.0025156,6 L13.0035375,6 L13.0035375,8 C13.0035375,8.31049019 12.931253,8.61671632 12.7924085,8.89442719 L12.7924085,8.89442719 L11.0036947,12.47 L11.0036947,12.928 L13.1129293,14.3358994 C13.5997387,14.6604645 13.9164434,15.1791394 13.9880132,15.7517178 L13.9880132,15.7517178 L14.0034589,16 L14.0034589,21.17 L16.4174827,23.5857864 C16.7300187,23.8983471 16.9284255,24.3037098 16.9858796,24.737112 L16.9858796,24.737112 L17.0032231,25 L17.0032231,25.266 L17.1666842,25.1807102 C18.1313534,24.7346515 19.3353721,25.1312048 19.8101408,26.1416968 L19.8101408,26.1416968 L19.9003619,26.3675445 L20.9002833,29.3675445 C21.1288057,30.0531656 20.9661973,30.7506512 20.5600046,31.2552752 L20.5600046,31.2552752 L20.5329456,31.282 L22.1122218,32.3358994 C22.8814689,32.8487711 23.1903179,33.8131863 22.8890313,34.6652542 L22.8890313,34.6652542 L22.7916224,34.8944272 L22.3628017,35.75 L25.4825565,39.65 L26.4166966,40.5857864 C26.5443681,40.713468 26.6538645,40.8575524 26.7424791,41.0139347 L26.7424791,41.0139347 L26.8594016,41.2572186 L28.4563227,45.25 L32.3942453,46.0388386 C32.7039668,46.1007878 32.9934759,46.2349762 33.2398304,46.4291245 L33.2398304,46.4291245 L33.4161463,46.5857864 L35.1877934,48.356 L36.8960863,49.2111456 C37.0242561,49.2752356 37.1449795,49.3528225 37.2562549,49.4424639 L37.2562549,49.4424639 L37.4158318,49.5857864 L37.8315856,50 L38.0015722,50 C38.3477374,50 38.6864322,50.0898277 38.9853001,50.2586966 L38.9853001,50.2586966 L39.2014779,50.4 L43.2011635,53.4 C43.526585,53.6440854 43.7698411,53.9816116 43.8984752,54.3675445 L43.8984752,54.3675445 L44.441066,56 L52.0004717,56 L52.0004717,54 C52.0004717,53.469567 52.2111688,52.9608592 52.5862121,52.5857864 L52.5862121,52.5857864 L53.0003931,52.168 L53.0003931,50 C53.0003931,49.7347835 53.0530673,49.4749983 53.152622,49.2346331 L53.152622,49.2346331 L53.2343747,49.064 L52.5862121,48.4142136 C52.4848849,48.3128785 52.39489,48.2010939 52.3176697,48.0808615 L52.3176697,48.0808615 L52.2116007,47.8944272 L51.3745209,46.222 L26.6483517,23.471862 C26.29554,23.1472498 26.0730565,22.7087016 26.01669,22.2377806 L26.01669,22.2377806 L26.0025156,22 L26.0025156,6 Z" id="Path-45" fill="#000000" fill-rule="nonzero"></path>
    </g>
</svg>