<?xml version="1.0" encoding="UTF-8"?>
<svg width="64px" height="64px" viewBox="0 0 64 64" version="1.1" xmlns="http://www.w3.org/2000/svg" xmlns:xlink="http://www.w3.org/1999/xlink">
    <title>callback</title>
    <g id="callback" stroke="none" stroke-width="1" fill="none" fill-rule="evenodd">
        <path d="M26.5857864,4.58578644 L4.58578644,26.5857864 C3.81093584,27.360637 3.80389061,28.6147279 4.56998666,29.3982353 L26.5699867,51.8982353 L26.6796001,52.0028184 C27.9458777,53.1285583 29.9999998,52.2414456 29.9999998,50.5 L29.9999998,38.003 L30.299991,38.0129834 C42.8382381,38.46208 51.3443747,45.2510308 56.1155706,58.6700193 C56.8830185,60.8284665 60.0876689,60.2112234 59.9984838,57.922137 L59.96442,57.1265849 C58.7934011,32.0578554 48.8515119,18.7487552 30.3477555,18.0247631 L29.9999998,18.013 L29.9999998,6 C29.9999998,4.2181903 27.8457162,3.32585672 26.5857864,4.58578644 Z M8.813,28.015 L26,10.828 L26,20 C26,21.1182957 26.9169587,22.0193085 28.0350823,21.9996923 L28.5654398,21.9939489 C43.0219128,21.9354323 51.7254356,29.9970302 54.8112533,46.7129067 L54.91,47.26 L54.7769819,47.0644847 C48.6512109,38.1380745 39.6602831,33.7344771 27.9545572,34.0005163 L27.8008884,34.0098448 C26.7872788,34.1102268 26,34.9648925 26,36 L26,45.593 L8.813,28.015 Z" id="Path-32" fill="#000000" fill-rule="nonzero"></path>
    </g>
</svg>