<?xml version="1.0" encoding="UTF-8"?>
<svg width="64px" height="64px" viewBox="0 0 64 64" version="1.1" xmlns="http://www.w3.org/2000/svg" xmlns:xlink="http://www.w3.org/1999/xlink">
    <title>camera</title>
    <g id="camera" stroke="none" stroke-width="1" fill="none" fill-rule="evenodd">
        <g id="Group" transform="translate(4.000000, 8.000000)" fill="#000000">
            <path d="M8,3 L12,3 C13.1045695,3 14,3.8954305 14,5 L14,7 L14,7 L6,7 L6,5 C6,3.8954305 6.8954305,3 8,3 Z" id="Rectangle"></path>
            <path d="M22,0 L21.7660024,0.013719052 C21.2256517,0.0773349438 20.7304952,0.359339775 20.4,0.8 L15,8 L6,8 C2.6862915,8 0,10.6862915 0,14 L0,42 C0,45.3137085 2.6862915,48 6,48 L50,48 C53.3137085,48 56,45.3137085 56,42 L56,14 L55.9898146,13.6474544 C55.8073218,10.4978399 53.1953618,8 50,8 L41,8 L35.6,0.8 C35.2222912,0.296388315 34.6295146,0 34,0 L22,0 Z M23,4 L33,4 L38.4,11.2 C38.7777088,11.7036117 39.3704854,12 40,12 L50,12 C51.1045695,12 52,12.8954305 52,14 L52,42 C52,43.1045695 51.1045695,44 50,44 L6,44 C4.8954305,44 4,43.1045695 4,42 L4,14 C4,12.8954305 4.8954305,12 6,12 L16,12 L16.2339976,11.9862809 C16.7743483,11.9226651 17.2695048,11.6406602 17.6,11.2 L23,4 Z" id="Path-53" fill-rule="nonzero"></path>
            <path d="M28,14 C35.7319865,14 42,20.2680135 42,28 C42,35.7319865 35.7319865,42 28,42 C20.2680135,42 14,35.7319865 14,28 C14,20.2680135 20.2680135,14 28,14 Z M28,18 C22.4771525,18 18,22.4771525 18,28 C18,33.5228475 22.4771525,38 28,38 C33.5228475,38 38,33.5228475 38,28 C38,22.4771525 33.5228475,18 28,18 Z" id="Oval" fill-rule="nonzero"></path>
            <rect id="Rectangle" x="42" y="14" width="8" height="4" rx="1"></rect>
        </g>
    </g>
</svg>