<?xml version="1.0" encoding="UTF-8"?>
<svg width="32px" height="32px" viewBox="0 0 32 32" version="1.1" xmlns="http://www.w3.org/2000/svg" xmlns:xlink="http://www.w3.org/1999/xlink">
    <title>canada</title>
    <g id="canada" stroke="none" stroke-width="1" fill="none" fill-rule="evenodd">
        <path d="M17.595,23.696 L22.335601,24.4863939 L22.4496302,24.4989545 C23.0894092,24.5332844 23.6102,23.9519805 23.4805807,23.3038839 L23.097,21.387 L28.6401844,16.7682213 L28.7299589,16.6838029 C29.1463391,16.2417822 29.0761174,15.5155612 28.5547002,15.1679497 L27.715,14.608 L28.9363292,11.3511234 L28.9695382,11.2461944 C29.150603,10.5472363 28.5363715,9.87292179 27.8038839,10.0194193 L24,10.78 L24,10 L23.9940167,9.88636906 C23.9071808,9.07233231 22.8954683,8.69031813 22.2928932,9.29289322 L21.128,10.456 L21.9805807,6.19611614 L21.9966328,6.0858966 C22.0630269,5.35850184 21.3308271,4.7906362 20.6286093,5.07152331 L18.904,5.761 L16.8479983,2.47000106 L16.7736843,2.36591778 C16.3507616,1.84550138 15.52063,1.88019581 15.1520017,2.47000106 L13.095,5.761 L11.3713907,5.07152331 L11.2659367,5.03566974 C10.5627922,4.83793484 9.8710944,5.45449152 10.0194193,6.19611614 L10.871,10.456 L9.70710678,9.29289322 L9.62252676,9.21677482 C8.98551359,8.70256618 8,9.14783014 8,10 L8,10.78 L4.19611614,10.0194193 L4.08721454,10.0035013 C3.36824509,9.93709451 2.8013838,10.6516914 3.06367082,11.3511234 L4.284,14.608 L3.4452998,15.1679497 L3.3470428,15.2423237 C2.88594237,15.6374707 2.87839785,16.3670398 3.3598156,16.7682213 L8.902,21.387 L8.51941932,23.3038839 L8.50318882,23.4174488 C8.44824951,24.0557883 9.01246024,24.5950504 9.66439899,24.4863939 L14.404,23.696 L14.0029455,28.9233035 C13.958269,29.5040977 14.41749,30 15,30 L17,30 C17.58251,30 18.041731,29.5040977 17.9970545,28.9233035 L17.595,23.696 Z M16,4.885 L17.6520017,7.52999894 L17.7212946,7.62748197 C17.993642,7.96594486 18.4594989,8.0932334 18.8713907,7.92847669 L19.657,7.614 L18.5194193,13.3038839 L18.5030316,13.4142748 C18.4155982,14.3207724 19.5343981,14.8798155 20.2071068,14.2071068 L22.063,12.351 L22.0998755,12.436842 C22.2912538,12.8303771 22.7320222,13.0733995 23.1961161,12.9805807 L26.431,12.333 L25.5636708,14.6488766 L25.5270628,14.7687046 C25.4311257,15.1712427 25.5937614,15.5976914 25.9452998,15.8320503 L26.33,16.089 L21.3598156,20.2317787 L21.271588,20.3148348 C21.0516098,20.5486168 20.9555007,20.876523 21.0194193,21.1961161 L21.235,22.275 L16.664399,21.5136061 L16.5522096,21.5011973 C16.3668069,21.4910594 16.1902365,21.5327835 16.0365143,21.6135407 L16,21.635 L15.9634857,21.6135407 C15.7790191,21.5166321 15.561651,21.4759311 15.335601,21.5136061 L10.764,22.275 L10.9805807,21.1961161 L10.9971195,21.0760791 C11.0215961,20.7560083 10.8905649,20.4404291 10.6401844,20.2317787 L5.669,16.089 L6.0547002,15.8320503 L6.15442497,15.7561959 C6.46748613,15.485579 6.58467763,15.0444724 6.43632918,14.6488766 L5.568,12.333 L8.80388386,12.9805807 L8.91929058,12.9968959 C9.33970733,13.0318505 9.72469436,12.7975825 9.90012447,12.436842 L9.936,12.351 L11.7928932,14.2071068 L11.8756538,14.281976 C12.5814061,14.8575595 13.6671565,14.236763 13.4805807,13.3038839 L12.342,7.614 L13.1286093,7.92847669 C13.5779458,8.10821129 14.0915052,7.94038789 14.3479983,7.52999894 L16,4.885 Z" id="Path-112" fill="#000000" fill-rule="nonzero"></path>
    </g>
</svg>