<?xml version="1.0" encoding="UTF-8"?>
<svg width="64px" height="64px" viewBox="0 0 64 64" version="1.1" xmlns="http://www.w3.org/2000/svg" xmlns:xlink="http://www.w3.org/1999/xlink">
    <title>cancelled</title>
    <g id="cancelled" stroke="none" stroke-width="1" fill="none" fill-rule="evenodd">
        <path d="M32,4 C47.463973,4 60,16.536027 60,32 C60,47.463973 47.463973,60 32,60 C16.536027,60 4,47.463973 4,32 C4,16.536027 16.536027,4 32,4 Z M32,8 C18.745166,8 8,18.745166 8,32 C8,45.254834 18.745166,56 32,56 C45.254834,56 56,45.254834 56,32 C56,18.745166 45.254834,8 32,8 Z" id="Oval" fill="#000000" fill-rule="nonzero"></path>
        <path d="M22.2869988,19.4689537 L22.4142136,19.5857864 L32,29.171 L41.5857864,19.5857864 L41.7130012,19.4689537 C42.4987886,18.8069014 43.6742728,18.8458457 44.4142136,19.5857864 C45.1952621,20.366835 45.1952621,21.633165 44.4142136,22.4142136 L44.4142136,22.4142136 L34.829,32 L44.4142136,41.5857864 C45.1952621,42.366835 45.1952621,43.633165 44.4142136,44.4142136 C43.6742728,45.1541543 42.4987886,45.1930986 41.7130012,44.5310463 L41.5857864,44.4142136 L32,34.829 L22.4142136,44.4142136 L22.2869988,44.5310463 C21.5012114,45.1930986 20.3257272,45.1541543 19.5857864,44.4142136 C18.8047379,43.633165 18.8047379,42.366835 19.5857864,41.5857864 L19.5857864,41.5857864 L29.171,32 L19.5857864,22.4142136 C18.8047379,21.633165 18.8047379,20.366835 19.5857864,19.5857864 C20.3257272,18.8458457 21.5012114,18.8069014 22.2869988,19.4689537 Z" id="Path-143" fill="#000000" fill-rule="nonzero"></path>
    </g>
</svg>