<?xml version="1.0" encoding="UTF-8"?>
<svg width="64px" height="64px" viewBox="0 0 64 64" version="1.1" xmlns="http://www.w3.org/2000/svg" xmlns:xlink="http://www.w3.org/1999/xlink">
    <title>card_american_express</title>
    <g id="card_american_express" stroke="none" stroke-width="1" fill="none" fill-rule="evenodd">
        <path d="M59.5252772,43.1516903 L59.5252772,56 L4.1253614,56 L4.1253614,32.3551159 L6.78604912,32.3551159 L7.38593684,30.9079214 L8.72895439,30.9079214 L9.32727018,32.3551159 L14.561993,32.3551159 L14.561993,31.248692 L15.0292491,32.3598325 L17.7467228,32.3598325 L18.2139789,31.2321841 L18.2139789,32.3551159 L31.2232702,32.3551159 L31.2171789,29.9795472 L31.4688842,29.9795472 C31.6451368,29.9856395 31.6966175,30.0019509 31.6966175,30.2930012 L31.6966175,32.3551159 L38.4250667,32.3551159 L38.4250667,31.8021005 C38.9677754,32.0929544 39.8119018,32.3551159 40.9226667,32.3551159 L43.7533193,32.3551159 L44.3591018,30.9079214 L45.7021193,30.9079214 L46.2945404,32.3551159 L51.7493333,32.3551159 L51.7493333,30.9804383 L52.5753825,32.3551159 L56.9465263,32.3551159 L56.9465263,23.2678976 L52.6205754,23.2678976 L52.6205754,24.3411091 L52.014793,23.2678976 L47.5758596,23.2678976 L47.5758596,24.3411091 L47.019593,23.2678976 L41.0236632,23.2678976 C40.019986,23.2678976 39.1377404,23.4080184 38.4250667,23.7985094 L38.4250667,23.2678976 L34.2873544,23.2678976 L34.2873544,23.7985094 C33.8338526,23.3960305 33.2158877,23.2678976 32.5287579,23.2678976 L17.4120982,23.2678976 L16.3978105,25.6149704 L15.3562105,23.2678976 L10.5948351,23.2678976 L10.5948351,24.3411091 L10.0717754,23.2678976 L6.01108772,23.2678976 L4.1253614,27.5884533 L4.1253614,8 L59.5252772,8 L59.5252772,34.4777596 L56.6433404,34.4777596 C55.7736702,34.4777596 55.1419509,34.6860739 54.6945404,35.0099436 L54.6945404,34.4777596 L50.4320561,34.4777596 C49.7504281,34.4777596 48.9503158,34.6467693 48.5718737,35.0099436 L48.5718737,34.4777596 L40.9601965,34.4777596 L40.9601965,35.0099436 C40.354414,34.5728767 39.3322667,34.4777596 38.8604912,34.4777596 L33.8397474,34.4777596 L33.8397474,35.0099436 C33.3605053,34.5457565 32.2947368,34.4777596 31.6451368,34.4777596 L26.0260772,34.4777596 L24.7402386,35.8695347 L23.5359439,34.4777596 L15.1422316,34.4777596 L15.1422316,43.5712667 L23.3779649,43.5712667 L24.7029053,42.157481 L25.9510175,43.5712667 L31.0275649,43.5757867 L31.0275649,41.436635 L31.5266526,41.436635 C32.2002246,41.4470508 32.9946386,41.4199306 33.6955228,41.1168923 L33.6955228,43.5710701 L37.8827509,43.5710701 L37.8827509,41.2010041 L38.0847439,41.2010041 C38.3425404,41.2010041 38.3678877,41.2116163 38.3678877,41.4692578 L38.3678877,43.5708736 L51.0879439,43.5708736 C51.8955228,43.5708736 52.7396491,43.3641315 53.2071018,42.9889693 L53.2071018,43.5708736 L57.2418526,43.5708736 C58.0814596,43.5708736 58.9014175,43.4531564 59.5252772,43.1516903 Z M22.8110877,35.7742211 L24.7268772,37.9104249 L26.7075088,35.7742211 L31.6830596,35.7742211 C32.918793,35.7742211 34.3072,36.1163674 34.3072,37.9212336 C34.3072,39.7316025 32.9567158,40.105389 31.5956211,40.105389 L29.6527158,40.105389 L29.6527158,42.2913131 L26.6261614,42.2913131 L24.7088,40.1338848 L22.7161825,42.2913131 L16.5483228,42.2913131 L16.5483228,35.7742211 L22.8110877,35.7742211 Z M47.3677754,35.7742211 L47.3677754,37.1219751 L43.7214877,37.1219751 L43.7214877,38.3068115 L47.2787649,38.3068115 L47.2787649,39.6364854 L43.7214877,39.6364854 L43.7214877,40.9331434 L47.3677754,40.9390391 L47.3677754,42.2913131 L42.1707789,42.2913131 L42.1707789,35.7742211 L47.3677754,35.7742211 Z M38.6333474,35.7742211 C39.4216702,35.7742211 39.9958175,35.8090056 40.5068912,36.0817794 C40.9983158,36.3787255 41.3073965,36.7855279 41.3073965,37.528974 C41.3072,38.5691696 40.613586,39.0999779 40.2037053,39.2626989 C40.5503158,39.3906353 40.8336561,39.6199775 40.9664842,39.8098186 C41.1863579,40.1279891 41.2181895,40.4249352 41.2244772,40.9993716 L41.2244772,42.2913131 L39.661193,42.2913131 L39.661193,41.4759396 C39.661193,41.0838765 39.6989193,40.5033479 39.4094877,40.2003096 C39.1819509,39.9668404 38.8351439,39.9110279 38.2670877,39.9110279 L36.6030035,39.9110279 L36.6030035,42.2913131 L35.0383439,42.2913131 L35.0383439,35.7742211 L38.6333474,35.7742211 Z M53.4648982,35.7744176 L53.4648982,37.1614762 L50.6085053,37.1614762 C50.3253614,37.1614762 50.1412491,37.1720884 49.9846456,37.2791934 C49.8140912,37.3847262 49.7508211,37.5413549 49.7508211,37.748097 C49.7508211,37.9939471 49.8956351,38.1611881 50.0915368,38.2335085 C50.2558035,38.2906967 50.4322526,38.3074011 50.6975158,38.3074011 L51.5357474,38.3300012 C52.3810526,38.3506362 52.9612912,38.4968492 53.313993,38.8541278 C53.6171789,39.1679748 53.7796772,39.564165 53.7796772,40.2348976 C53.7796772,41.6368919 52.9039158,42.2913131 51.3335579,42.2913131 L48.3007158,42.2913131 L48.3007158,40.8938388 L51.3213754,40.8938388 C51.6167018,40.8938388 51.8261614,40.8547308 51.9574175,40.7324935 C52.0645053,40.6316773 52.1413333,40.4852678 52.1413333,40.3074145 C52.1413333,40.1175734 52.0582175,39.9668404 51.9513263,39.8764398 C51.8322526,39.7769993 51.667986,39.731799 51.3968281,39.731799 C49.9406316,39.6820787 48.1169965,39.7769993 48.1169965,37.7146881 C48.1169965,36.769413 48.710793,35.7744176 50.3432421,35.7744176 L53.4648982,35.7744176 Z M28.1018105,36.4736461 L25.7111018,39.0439689 L28.1018105,41.6986001 L28.1018105,36.4736461 Z M22.0033123,37.1219751 L18.0994246,37.1219751 L18.0994246,38.3068115 L21.5179789,38.3068115 L21.5179789,39.6364854 L18.0994246,39.6364854 L18.0994246,40.9331434 L21.9278596,40.9331434 L23.7064982,39.0211722 L22.0033123,37.1219751 Z M31.6830596,37.1221716 L29.6527158,37.1221716 L29.6527158,38.7818074 L31.6649825,38.7818074 C32.2632982,38.7818074 32.6354526,38.4848613 32.6354526,37.9212336 C32.6354526,37.3513173 32.2452211,37.1221716 31.6830596,37.1221716 L31.6830596,37.1221716 Z M38.5201684,37.1221716 L36.602807,37.1221716 L36.602807,38.585874 L38.4944281,38.585874 C38.7974175,38.585874 39.0550175,38.5752618 39.2632982,38.4516489 C39.4650947,38.3296082 39.5857404,38.1049825 39.5857404,37.8261166 C39.5857404,37.5472506 39.4650947,37.3454216 39.2632982,37.2398888 C39.0748632,37.1280673 38.7974175,37.1221716 38.5201684,37.1221716 L38.5201684,37.1221716 Z M9.24552982,24.5598391 L11.8938386,30.7286925 L11.8938386,24.5598391 L14.4352561,24.5598391 L16.4730667,28.9798353 L18.3450386,24.5598391 L20.9375439,24.5598391 L20.9375439,31.0753589 L19.3414456,31.0753589 L19.3355509,25.9724456 L17.0776702,31.0753589 L15.7104842,31.0753589 L13.4467088,25.9679255 L13.4467088,31.0753589 L10.2796632,31.0753589 L9.68134737,29.6220721 L6.43924211,29.6220721 L5.83483509,31.0753589 L4.14363509,31.0753589 L6.93204211,24.5598391 L9.24552982,24.5598391 Z M42.6005053,24.5598391 L42.6005053,25.9559376 L41.1246596,25.9559376 C40.556407,25.9559376 40.2355368,26.0404425 39.9264561,26.3419086 C39.6609965,26.6162545 39.4788491,27.1348784 39.4788491,27.8177955 C39.4788491,28.5158448 39.6175719,29.0191399 39.9070035,29.3479227 C40.1467228,29.6057607 40.5823439,29.6839768 40.9922246,29.6839768 L41.6915368,29.6839768 L43.8861474,24.5600356 L46.2192842,24.5600356 L48.855607,30.7227968 L48.855607,24.5600356 L51.2264702,24.5600356 L53.963593,29.097749 L53.963593,24.5600356 L55.5585123,24.5600356 L55.5585123,31.0753589 L53.3519158,31.0753589 L50.4004211,26.1850833 L50.4004211,31.0753589 L47.2292491,31.0753589 L46.6232702,29.6220721 L43.3886316,29.6220721 L42.8007298,31.0753589 L40.9786667,31.0753589 C40.2217825,31.0753589 39.2634947,30.9079214 38.720786,30.3547094 C38.1735579,29.8014975 37.8888421,29.0521557 37.8888421,27.8673192 C37.8888421,26.9010162 38.0590035,26.0176458 38.7282526,25.3195965 C39.2316632,24.799597 40.019986,24.5598391 41.0930246,24.5598391 L42.6005053,24.5598391 Z M37.1260632,24.5598391 L37.1260632,31.0753589 L35.5372351,31.0753589 L35.5372351,24.5598391 L37.1260632,24.5598391 Z M31.9607018,24.5598391 C32.7564912,24.5598391 33.3428211,24.580867 33.8462316,24.8719174 C34.3388351,25.1629678 34.6341614,25.5878503 34.6341614,26.3145919 C34.6341614,27.3534119 33.9409404,27.8901159 33.5369544,28.0512647 C33.8776702,28.1809698 34.1686737,28.4101155 34.3072,28.5999566 C34.5270737,28.9240228 34.5649965,29.213501 34.5649965,29.7954053 L34.5649965,31.0753589 L32.9944421,31.0753589 L32.9885474,30.2536967 C32.9885474,29.8616335 33.0260772,29.2978093 32.7427368,28.9843553 C32.5152,28.7552097 32.168393,28.7054894 31.6078035,28.7054894 L29.9362526,28.7054894 L29.9362526,31.0753589 L28.3792561,31.0753589 L28.3792561,24.5598391 L31.9607018,24.5598391 Z M27.2999298,24.5598391 L27.2999298,25.9166331 L23.6554105,25.9166331 L23.6554105,27.0910538 L27.2124912,27.0910538 L27.2124912,28.4266234 L23.6554105,28.4266234 L23.6554105,29.7278014 L27.2999298,29.7278014 L27.2999298,31.0753589 L22.0982175,31.0753589 L22.0982175,24.5598391 L27.2999298,24.5598391 Z M45.0149895,25.6664594 L43.9433263,28.2639024 L46.0925474,28.2639024 L45.0149895,25.6664594 Z M8.05341754,25.6664594 L6.99374035,28.2639024 L9.11918596,28.2639024 L8.05341754,25.6664594 Z M31.8534175,25.9166331 L29.9360561,25.9166331 L29.9360561,27.3638276 L31.8276772,27.3638276 C32.1308632,27.3638276 32.3839439,27.3595041 32.5979228,27.2296025 C32.7999158,27.1240697 32.918793,26.894924 32.918793,26.6101623 C32.918793,26.3310998 32.7938246,26.1290743 32.5918316,26.0341538 C32.4079158,25.9288175 32.1247719,25.9166331 31.8534175,25.9166331 L31.8534175,25.9166331 Z M59.5252772,37.1610831 L56.6873544,37.1610831 C56.404014,37.1610831 56.2157754,37.1716953 56.057207,37.2788003 C55.8929404,37.3843331 55.8296702,37.5409619 55.8296702,37.7477039 C55.8296702,37.9935541 55.968393,38.160795 56.1701895,38.2331155 C56.3344561,38.2903036 56.5109053,38.3070081 56.7702737,38.3070081 L57.6142035,38.3296082 C58.4657965,38.3506362 59.0342456,38.4970457 59.3808561,38.8541278 C59.4439298,38.9038481 59.4818526,38.9596606 59.5252772,39.0154731 L59.5252772,38.0507623 C59.7453474,38.3072454 59.854007,38.6117343 59.854007,39.1033269 C59.854007,39.5328343 59.7453474,39.8841416 59.5252772,40.1587753 L59.5252772,40.1587753 L59.5252772,41.457663 C59.1470316,42.0108749 58.409993,42.2913131 57.4122105,42.2913131 L54.4051088,42.2913131 L54.4051088,40.8938388 L57.4000281,40.8938388 C57.6971228,40.8938388 57.9050105,40.8547308 58.0301754,40.7324935 C58.1386386,40.6316773 58.2142877,40.4852678 58.2142877,40.3074145 C58.2142877,40.1175734 58.1386386,39.9668404 58.0240842,39.8764398 C57.9111018,39.7769993 57.7466386,39.731799 57.4754807,39.731799 C57.333988,39.7269874 57.1891057,39.7235303 57.0428149,39.7193417 L56.7489424,39.7093707 C55.4724446,39.6565788 54.1893614,39.4443684 54.1893614,37.7146881 C54.1893614,36.769413 54.7894456,35.7744176 56.4234667,35.7744176 L59.5250807,35.7744176 L59.5252772,37.1610831 Z" id="Shape-2" fill="#000000" fill-rule="nonzero"></path>
    </g>
</svg>