<?xml version="1.0" encoding="UTF-8"?>
<svg width="64px" height="64px" viewBox="0 0 64 64" version="1.1" xmlns="http://www.w3.org/2000/svg" xmlns:xlink="http://www.w3.org/1999/xlink">
    <title>card_discover</title>
    <g id="card_discover" stroke="none" stroke-width="1" fill="none" fill-rule="evenodd">
        <path d="M7.96059072,34.3902439 C7.3936346,34.9009756 6.65723038,35.1241707 5.4930211,35.1241707 L5.00677553,35.1241707 L5.00677553,29.0295366 L5.4930211,29.0295366 C6.65718143,29.0295366 7.3653443,29.2346341 7.96059072,29.7735366 C8.58402954,30.3264878 8.95929198,31.185122 8.95929198,32.0678537 C8.95929198,32.9526098 8.58402954,33.8373659 7.96059072,34.3903415 M5.85421181,27.4671707 L3.2050557,27.4671707 L3.2050557,36.6847317 L5.84001772,36.6847317 C7.24024051,36.6847317 8.25103122,36.3549512 9.13867595,35.619 C10.1938844,34.7483415 10.8173232,33.4372927 10.8173232,32.0819268 C10.8173232,29.361439 8.7795654,27.4670488 5.85404051,27.4670488" id="Shape" fill="#211E1E" fill-rule="nonzero"></path>
        <polygon id="Shape" fill="#211E1E" fill-rule="nonzero" points="11.6486076 36.6829268 13.4523342 36.6829268 13.4523342 27.4653659 11.6486076 27.4653659"></polygon>
        <path d="M17.8621941,31 C16.7807755,30.5998293 16.4619958,30.336439 16.4619958,29.8397561 C16.4619958,29.2586341 17.0289274,28.8162683 17.8057114,28.8162683 C18.3464329,28.8162683 18.790292,29.037439 19.2603857,29.5642927 L20.204611,28.3316585 C19.427827,27.6560244 18.5017603,27.3101707 17.4869316,27.3101707 C15.8506709,27.3101707 14.6018599,28.4422439 14.6018599,29.9504146 C14.6018599,31.2212195 15.1849435,31.8707073 16.8777114,32.4779756 C17.5838675,32.7273171 17.9430025,32.8921951 18.124589,33.0028049 C18.4857308,33.2380732 18.6673173,33.5698537 18.6673173,33.9579268 C18.6673173,34.7039512 18.0701131,35.2569024 17.2650878,35.2569024 C16.4055865,35.2569024 15.7115443,34.8286098 15.2959266,34.0283171 L14.1317662,35.1463171 C14.9630017,36.3628537 15.9596962,36.9017561 17.3337578,36.9017561 C19.2080878,36.9017561 20.5235131,35.6590732 20.5235131,33.8754146 C20.5235131,32.4095366 19.9162262,31.7479756 17.8623654,31.0000488" id="Shape" fill="#211E1E" fill-rule="nonzero"></path>
        <path d="M21.0925738,32.0731707 C21.0925738,34.7817073 23.2271941,36.8829268 25.9731392,36.8829268 C26.7499232,36.8829268 27.4157241,36.7300976 28.23487,36.3460244 L28.23487,34.2286585 C27.5145932,34.9485366 26.8750025,35.2380732 26.0578878,35.2380732 C24.2400405,35.2380732 22.9508498,33.9250244 22.9508498,32.0590488 C22.9508498,30.2895366 24.2824515,28.8941707 25.9732127,28.8941707 C26.8347207,28.8941707 27.4864008,29.1998049 28.2349435,29.9297317 L28.2349435,27.8163659 C27.4440388,27.4162195 26.7923586,27.2493171 26.0155992,27.2493171 C23.2837257,27.2493171 21.0926962,29.3928537 21.0926962,32.0732195" id="Shape" fill="#211E1E" fill-rule="nonzero"></path>
        <polyline id="Shape" fill="#211E1E" fill-rule="nonzero" points="42.5403376 33.6585366 40.0727679 27.4692683 38.1036068 27.4692683 42.027784 36.9219512 43.0002506 36.9219512 46.9929511 27.4692683 45.0379105 27.4692683 42.5402397 33.6585366"></polyline>
        <polyline id="Shape" fill="#211E1E" fill-rule="nonzero" points="47.8068354 36.6829268 52.9235612 36.6829268 52.9235612 35.1205366 49.6107089 35.1205366 49.6107089 32.6332195 52.8004641 32.6332195 52.8004641 31.0728293 49.6107089 31.0728293 49.6107089 29.0258293 52.9235612 29.0258293 52.9235612 27.465439 47.8068354 27.465439"></polyline>
        <path d="M56.4481013,31.7073415 L55.9194937,31.7073415 L55.9194937,28.9163415 L56.4763426,28.9163415 C57.6001477,28.9163415 58.2094658,29.3848537 58.2094658,30.2816829 C58.2094658,31.2086585 57.6001477,31.7073415 56.4481013,31.7073415 M60.0675949,30.1851707 C60.0675949,28.4599024 58.8731865,27.464439 56.7931646,27.464439 L54.1178228,27.464439 L54.1178228,36.682 L55.9195426,36.682 L55.9195426,32.9780976 L56.1556002,32.9780976 L58.6532711,36.682 L60.8706086,36.682 L57.9591065,32.7990732 C59.3189495,32.5235854 60.0674922,31.5966098 60.0674922,30.1849268" id="Shape" fill="#211E1E" fill-rule="nonzero"></path>
        <path d="M38.6124895,32.0731707 C38.6124895,34.7636585 36.4233932,36.9434146 33.7238481,36.9434146 C31.024303,36.9434146 28.8371646,34.7637073 28.8371646,32.0731707 C28.8371646,29.3826341 31.0242295,27.2009756 33.7238481,27.2009756 C36.4234667,27.2009756 38.6124895,29.3826829 38.6124895,32.0731707" id="Shape" fill="#000000" fill-rule="nonzero"></path>
    </g>
</svg>