<?xml version="1.0" encoding="UTF-8"?>
<svg width="64px" height="64px" viewBox="0 0 64 64" version="1.1" xmlns="http://www.w3.org/2000/svg" xmlns:xlink="http://www.w3.org/1999/xlink">
    <title>card_mastercard</title>
    <g id="card_mastercard" stroke="none" stroke-width="1" fill="none" fill-rule="evenodd">
        <path d="M60.8819462,32.2833973 C60.7062122,42.0401874 52.8315873,49.8995044 43.1372973,49.8995044 C39.3790122,49.8995044 35.7993271,48.7131875 32.8215448,46.5576641 L32.458,46.287 L32.4377345,46.3041534 C29.5100355,48.5357161 25.9460543,49.803415 22.1827373,49.8942575 L21.7476486,49.8995044 C11.9433936,49.8995044 4,41.8604504 4,31.9500531 C4,22.0393521 11.943396,14 21.7476486,14 C25.5257666,14 29.1212562,15.1851165 32.0971942,17.3424187 L32.458,17.612 L32.4806796,17.5951171 C35.4116561,15.3652406 38.9607034,14.0961974 42.7044827,14.005253 L43.1372973,14 C52.831585,14 60.7062121,21.8596085 60.8819462,31.6166987 L60.8849459,31.9500531 L60.8819462,32.2833973 Z M58.8818839,31.6323005 C58.7147514,22.9674998 51.7270083,16 43.1372973,16 C39.5583109,16 36.1653238,17.212305 33.4151468,19.4020504 L33.1006973,19.6590377 L32.4570469,20.1988793 L31.8142522,19.6580191 C29.0190061,17.3060436 25.4873598,16 21.7476486,16 C13.0533769,16 6,23.1385816 6,31.9500531 C6,40.7612047 13.0533578,47.8995044 21.7476486,47.8995044 C25.3537081,47.8995044 28.7664192,46.6851401 31.5120032,44.4897093 L31.8142987,44.2417471 L32.4570866,43.7009593 L33.1006973,44.2407676 C35.9044273,46.5923079 39.4204603,47.8995044 43.1372973,47.8995044 C51.7270271,47.8995044 58.7147519,40.9322798 58.8818839,32.2677942 L58.8849459,31.9500531 L58.8818839,31.6323005 Z" id="Fill-76" fill="#000000" fill-rule="nonzero"></path>
        <path d="M47.2501081,35.6292743 L48.3218649,29.8179823 L49.6763514,29.8179823 L49.8175676,30.3908673 C50.0604595,30.1041239 50.5257297,29.8179823 51.3138649,29.8179823 L50.8896216,31.3320354 C50.5055135,31.3320354 49.7774324,31.2300354 49.3124595,32.9691504 L48.8272703,35.6292743 L47.2501081,35.6292743" id="Fill-78" fill="#131514" fill-rule="nonzero"></path>
        <path d="M26.4877568,28.3409381 L28.0491622,28.3409381 L27.7286757,29.8808673 L28.5691351,29.8808673 L28.2893784,31.1364602 L27.4887568,31.1364602 L27.0481622,33.4863717 C26.9678919,33.9322832 27.0083243,34.3372743 27.9091351,34.1955575 L27.8089459,35.3702124 C27.4685405,35.5928673 27.0083243,35.6539469 26.648,35.6539469 C26.2876757,35.6539469 25.1065135,35.4306903 25.4070811,33.8510442 L26.4877568,28.3409381" id="Fill-79" fill="#131514" fill-rule="nonzero"></path>
        <path d="M31.1116216,29.7993274 C33.8538919,29.7993274 33.4335135,32.1086195 33.2530541,33.0407611 L33.2530541,33.0407611 L29.8504865,33.0407611 C29.6856104,34.2479867 30.5124891,34.3139516 31.129359,34.3165622 L31.2914865,34.3165133 C31.9122432,34.3165133 32.8130541,34.236177 33.0532703,34.1747965 L33.0532703,34.1747965 L32.8130541,35.3702124 C32.4325135,35.5730088 31.4716486,35.6539469 30.8110541,35.6334867 C28.1092162,35.6334867 28.1490541,33.0612212 28.2091081,32.6965487 C28.2691622,32.332177 28.5893514,29.7993274 31.1116216,29.7993274 Z M31.1918919,30.9339646 C30.6151988,30.9339646 30.1946187,31.2133777 29.9932303,31.8374893 L29.9525397,31.9803274 L29.9565397,31.9633274 L29.9522512,31.9812831 L29.9522512,31.9812831 L29.9506757,31.9876637 L31.892027,31.9876637 C31.9925135,31.4201947 31.8120541,30.9339646 31.1918919,30.9339646 Z" id="Combined-Shape" fill="#131514" fill-rule="nonzero"></path>
        <path d="M25.0069189,31.1770796 L25.3666486,30.001823 C24.6260811,29.7183894 24.0460541,29.7791681 23.8251622,29.7791681 C23.6054595,29.7791681 21.7312973,29.756 21.4438108,31.1569204 C21.2235135,32.2304779 21.6120811,32.6751858 21.984,32.8379646 C22.5845405,33.1012389 22.9252432,33.3446549 23.2454324,33.5068319 C23.6414324,33.7072212 23.5688919,34.3775929 23.0450541,34.3775929 C22.8048378,34.3775929 21.7637027,34.4994513 20.9835946,34.236177 L20.7632973,35.4306903 C21.4839459,35.6334867 22.063973,35.6334867 22.6047568,35.6334867 C22.985,35.6334867 24.8466757,35.7351858 25.1065135,33.9927611 C25.2337568,33.1430619 24.8662973,32.7570265 24.5663243,32.5746903 C24.2660541,32.3718938 23.7654054,32.0887611 23.4452162,31.9464425 C23.125027,31.8050265 22.8848108,31.2580177 23.4654324,31.0961416 C23.8251622,31.0552212 24.5663243,31.0552212 25.0069189,31.1770796 C25.0069189,31.1770796 24.5663243,31.0552212 25.0069189,31.1770796" id="Fill-82" fill="#131514" fill-rule="nonzero"></path>
        <polyline id="Fill-83" fill="#131514" fill-rule="nonzero" points="14.8785946 35.6334867 16.1795676 28.6243717 13.6174595 28.6243717 11.7159459 32.8785841 11.4156757 28.6243717 8.91362162 28.6243717 7.57251351 35.6334867 9.13362162 35.6334867 10.0941892 30.569292 10.5148649 35.6334867 11.9962973 35.6334867 14.1781622 30.6908496 13.2571351 35.6334867 14.8785946 35.6334867"></polyline>
        <path d="M18.6414865,29.7791681 C21.2633514,29.7791681 21.0035135,31.6837699 20.8435676,32.4735929 L20.8435676,32.4735929 L20.2225135,35.6334867 L18.7618919,35.6334867 L18.5615135,35.3097345 C18.2808649,35.5119292 18.0608649,35.6136283 17.2602432,35.6539469 C16.4596216,35.6945664 15.4387027,35.0870796 15.6191622,33.8910619 C16.0591622,31.4605133 18.8614865,31.9067257 19.2619459,31.8655044 C19.4136615,31.132232 19.0119593,31.0738486 18.5583829,31.0614745 L18.3010811,31.0552212 C17.7608919,31.0353628 16.739973,31.1975398 16.3594324,31.2378584 L16.3594324,31.2378584 L16.5996486,29.9819646 C17.531792,29.7968026 16.7617605,29.9497625 16.6207937,29.9777643 L16.8451126,29.935758 C17.7102316,29.782248 18.2010901,29.7976475 18.6414865,29.7791681 Z M17.6604054,33.1824779 C17.1600541,33.5266903 17.020027,34.1344779 17.5405946,34.3372743 C18.0415405,34.5322478 18.7809189,34.1961593 18.8817027,33.6684071 L19.0018108,33.0407611 C18.7416757,33.0001416 18.1610541,32.8379646 17.6604054,33.1824779 Z" id="Combined-Shape" fill="#131514" fill-rule="nonzero"></path>
        <path d="M41.8999459,30.2449381 C41.4997838,30.001823 41.2194324,29.9618053 40.6988649,29.9618053 C40.1788919,29.9618053 39.0176486,30.464885 38.7976486,31.8859646 C38.5372162,33.5673097 39.6782432,34.3977522 41.2791892,33.8510442 L41.7397027,35.2685133 C41.2194324,35.5119292 40.6988649,35.6334867 39.8384865,35.6334867 C38.217027,35.6334867 36.4555405,34.1747965 37.2561622,31.2173982 C37.8465946,29.0377876 39.6984595,28.2395398 40.7791351,28.2801593 C42.0598919,28.328 42.5207027,28.7660885 42.9211622,29.212 L41.8999459,30.2449381" id="Fill-86" fill="#131514" fill-rule="nonzero"></path>
        <path d="M57.2722973,28.26 L55.9112703,35.6334867 L54.2300541,35.6334867 L54.0296757,35.1674159 C53.7094865,35.3906726 53.1892162,35.6136283 52.6686486,35.6334867 C51.5478378,35.6334867 50.5194865,34.0309735 51.0275676,32.2707965 C51.7877568,29.6374513 53.1294595,29.7993274 53.9895405,29.7993274 C54.7307027,29.7993274 54.9102703,30.2653982 55.2111351,30.4880531 L55.2111351,30.4880531 L55.6309189,28.26 L57.2722973,28.26 Z M52.6288108,32.5746903 C52.4088108,33.4051327 52.8892432,34.0333805 53.4297297,34.0333805 C54.0100541,34.0333805 54.3700811,33.5673097 54.6504324,32.8587257 C54.8106757,32.332177 54.7232703,31.6741416 54.5502432,31.440354 C54.0701081,30.7922478 52.9653514,31.3049558 52.6288108,32.5746903 Z" id="Combined-Shape" fill="#131514" fill-rule="nonzero"></path>
        <path d="M45.0625946,29.7791681 C47.6844595,29.7791681 47.4246216,31.6837699 47.2643784,32.4735929 L47.2643784,32.4735929 L46.6436216,35.6334867 L45.183,35.6334867 L44.9826216,35.3097345 C44.701973,35.5119292 44.481973,35.6136283 43.6816486,35.6539469 C42.8807297,35.6945664 41.8601081,35.0870796 42.0402703,33.8910619 C42.4802703,31.4605133 45.2825946,31.9067257 45.6830541,31.8655044 C45.8347696,31.132232 45.4330674,31.0738486 44.979491,31.0614745 L44.7221892,31.0552212 C44.182,31.0353628 43.1613784,31.1975398 42.7805405,31.2378584 L42.7805405,31.2378584 L43.0210541,29.9819646 C43.952926,29.7968026 43.1831187,29.9497625 43.0421929,29.9777643 L43.2664554,29.935758 C44.1313851,29.782248 44.6224707,29.7976475 45.0625946,29.7791681 Z M44.0815135,33.1824779 C43.5811622,33.5266903 43.4414324,34.1344779 43.962,34.3372743 C44.4629459,34.5322478 45.2023243,34.1961593 45.3028108,33.6684071 L45.4232162,33.0407611 C45.1627838,33.0001416 44.5824595,32.8379646 44.0815135,33.1824779 Z" id="Combined-Shape" fill="#131514" fill-rule="nonzero"></path>
        <path d="M33.2985405,35.6334867 L34.3587027,29.8808673 L35.7001081,29.8808673 L35.8401351,30.4477345 C36.0803514,30.164 36.5405676,29.8808673 37.320973,29.8808673 L36.9205135,31.3997345 C36.5405676,31.3997345 35.8,31.2784779 35.3394865,33.0001416 L34.8593514,35.6334867 L33.2985405,35.6334867" id="Fill-91" fill="#131514" fill-rule="nonzero"></path>
        <path d="M32.0301941,17.9447646 L33.3109016,19.4809249 L33.1786726,19.596695 C32.9997887,19.7592102 32.7369686,20.0176115 32.4135511,20.3699103 C31.7083297,21.1381086 31.0005034,22.0538771 30.3389259,23.1127242 C29.6370877,24.2360081 29.0310888,25.4525889 28.5479637,26.7604139 L28.3485118,27.3264908 L26.4523637,26.6903914 C27.0153494,25.0121877 27.7602071,23.465513 28.6427839,22.0529589 C29.3723221,20.8853416 30.1549769,19.8727618 30.9402365,19.0173779 C31.3123769,18.6120051 31.6248948,18.3051452 31.8543767,18.0979387 L32.0301941,17.9447646 Z" id="Path-754" fill="#000000" fill-rule="nonzero"></path>
        <path d="M37.0541315,17.9079461 L38.27546,19.4917253 L38.1047088,19.6327345 L38.0372704,19.6908511 C37.8290108,19.8717748 37.5948211,20.0892897 37.3411384,20.3426843 C36.6099037,21.0730887 35.8764569,21.9393169 35.191633,22.9352542 C34.3613184,24.1427782 33.6630779,25.4549864 33.1371441,26.8674627 L32.9480744,27.4018328 L31.0519264,26.7657334 C31.6564138,24.9638172 32.5082673,23.3078038 33.5436396,21.8020651 C34.301323,20.7001684 35.1134197,19.7410518 35.9277285,18.9276676 C36.3129395,18.542894 36.6360504,18.2510554 36.8728559,18.0538097 L37.0541315,17.9079461 Z" id="Path-754-Copy" fill="#000000" fill-rule="nonzero" transform="translate(34.663693, 22.654889) scale(-1, 1) translate(-34.663693, -22.654889) "></path>
        <path d="M32.364533,36.1791367 L33.6441311,37.7162212 L33.4142129,37.9239752 C33.212445,38.1135031 32.9854607,38.3416432 32.7394863,38.60774 C32.0297435,39.3755444 31.3175302,40.2880782 30.6520302,41.3398691 C29.9187631,42.4987626 29.2899134,43.753708 28.7957523,45.101743 L28.6168146,45.6116139 L26.7206665,44.9755145 C27.2911718,43.2748957 28.0540122,41.7054154 28.9619316,40.2704923 C29.6952727,39.1114818 30.4818178,38.1037093 31.2708333,37.2501471 L31.5758862,36.9276282 C31.8651428,36.6291298 32.1053646,36.4028018 32.2817365,36.2496247 L32.364533,36.1791367 Z" id="Path-754-Copy-3" fill="#000000" fill-rule="nonzero" transform="translate(30.182399, 40.895375) scale(-1, 1) rotate(-180.000000) translate(-30.182399, -40.895375) "></path>
        <path d="M37.0541315,36.1740933 L38.27546,37.7578725 L38.1047088,37.8988817 L38.0372704,37.9569983 C37.8290108,38.137922 37.5948211,38.3554369 37.3411384,38.6088315 C36.6099037,39.3392359 35.8764569,40.2054641 35.191633,41.2014014 C34.3613184,42.4089254 33.6630779,43.7211336 33.1371441,45.1336099 L32.9480744,45.6679799 L31.0519264,45.0318806 C31.6564138,43.2299644 32.5082673,41.573951 33.5436396,40.0682123 C34.301323,38.9663156 35.1134197,38.007199 35.9277285,37.1938148 C36.3129395,36.8090412 36.6360504,36.5172026 36.8728559,36.3199568 L37.0541315,36.1740933 Z" id="Path-754-Copy-2" fill="#000000" fill-rule="nonzero" transform="translate(34.663693, 40.921037) rotate(180.000000) translate(-34.663693, -40.921037) "></path>
    </g>
</svg>