<?xml version="1.0" encoding="UTF-8"?>
<svg width="64px" height="64px" viewBox="0 0 64 64" version="1.1" xmlns="http://www.w3.org/2000/svg" xmlns:xlink="http://www.w3.org/1999/xlink">
    <title>catalog</title>
    <g id="catalog" stroke="none" stroke-width="1" fill="none" fill-rule="evenodd">
        <path d="M18.4019751,51.4916768 L16.058676,50.8142418 L14.1153051,50.3448684 C13.7217254,50.2588127 13.4502752,50.2017112 13.3009545,50.1735638 C12.9254166,50.1027738 12.5267202,50.0710991 12.6595551,50.0710991 C12.730575,50.0710991 12.5391516,50.0588737 12.0852849,50.0344231 L11.5148969,50.0344231 L10.9268426,50.0344231 L10.3337763,50.1070147 L9.7900773,50.1735638 L8.7125694,50.3448684 L8.7125694,16.9139484 L10.2659972,16.9139484 L10.2659972,48.489059 L11.2710666,48.489059 L12.5021016,48.489059 C12.8712874,48.5213731 13.1375717,48.5553498 13.3009545,48.5909889 C13.4643373,48.6266281 13.7357875,48.7099491 14.1153051,48.8409518 L15.5154468,49.3481006 L16.9998934,50.0344231 C17.3764721,50.2848871 17.6354088,50.4835464 17.7767034,50.630401 C17.9179981,50.7772556 18.126422,51.0643476 18.4019751,51.4916768 Z" id="Far-Left" fill="#000000" fill-rule="nonzero"></path>
        <polygon id="Middle-Left" fill="#000000" fill-rule="nonzero" points="24.1169304 50.3420313 21.4549444 48.9962393 19.3616065 48.1541371 17.1540676 47.4980045 14.8260412 46.9945767 12.2122501 46.4840768 12.2122501 12.3688515 14.8260412 13.4956707 14.8260412 44.9211455 17.1540676 45.7546041 18.9328285 46.4840768 20.6874919 47.4980045 22.7952359 48.9962393"></polygon>
        <polygon id="Inside-Left" fill="#000000" fill-rule="nonzero" points="31.5981511 53.656221 31.5981511 19.7065349 17.1218503 9.83154371 17.1218503 43.3621431 21.1463918 45.1555721 24.3600007 47.2544104 27.0170101 49.012217 28.6014196 50.3946791"></polygon>
        <polygon id="Inside-Right" fill="#000000" fill-rule="nonzero" points="33.5118055 53.7583734 33.5118055 19.636076 48.0729713 9.87135694 48.0729713 43.3584761 45.4693955 44.4591024 42.0789845 46.2080034 39.0112701 48.1837351 36.6400255 50.1979703"></polygon>
        <polygon id="Middle-Right" fill="#000000" fill-rule="nonzero" points="40.9453551 50.4216578 43.6874914 49.0310759 46.7274412 47.9503562 49.5615147 47.189452 52.8966587 46.6820952 52.8966587 12.3348007 49.8643049 13.5496281 49.8643049 44.8973099 47.3301402 45.8795443 44.6301745 47.189452 42.6337504 48.4713333"></polygon>
        <polygon id="Far-Right" fill="#000000" fill-rule="nonzero" points="46.5129213 51.652201 49.2031957 50.7137088 51.9966701 50.2865024 54.1172486 50.2865024 55.2605694 50.2865024 56.4698963 50.2865024 56.4698963 16.8491497 54.8938686 16.8491497 54.8938686 48.6853294 52.8259379 48.6853294 50.0696573 49.4124448 47.6614806 50.2865024"></polygon>
    </g>
</svg>