<?xml version="1.0" encoding="UTF-8"?>
<svg width="32px" height="32px" viewBox="0 0 32 32" version="1.1" xmlns="http://www.w3.org/2000/svg" xmlns:xlink="http://www.w3.org/1999/xlink">
    <title>category</title>
    <g id="category" stroke="none" stroke-width="1" fill="none" fill-rule="evenodd">
        <path d="M27,3 C27.5522847,3 28,3.44771525 28,4 L28,8 C28,8.55228475 27.5522847,9 27,9 L13,9 C12.4477153,9 12,8.55228475 12,8 L12,4 C12,3.44771525 12.4477153,3 13,3 L27,3 Z M26,5 L14,5 L14,7 L26,7 L26,5 Z" id="Rectangle" fill="#000000" fill-rule="nonzero"></path>
        <path d="M7,3 C8.65685425,3 10,4.34314575 10,6 C10,7.65685425 8.65685425,9 7,9 C5.34314575,9 4,7.65685425 4,6 C4,4.34314575 5.34314575,3 7,3 Z M7,5 C6.44771525,5 6,5.44771525 6,6 C6,6.55228475 6.44771525,7 7,7 C7.55228475,7 8,6.55228475 8,6 C8,5.44771525 7.55228475,5 7,5 Z" id="Oval" fill="#000000" fill-rule="nonzero"></path>
        <path d="M29,12 C29.5522847,12 30,12.4477153 30,13 L30,19 C30,19.5522847 29.5522847,20 29,20 L13,20 C12.4477153,20 12,19.5522847 12,19 L12,13 C12,12.4477153 12.4477153,12 13,12 L29,12 Z M28,14 L14,14 L14,18 L28,18 L28,14 Z" id="Rectangle-Copy" fill="#000000" fill-rule="nonzero"></path>
        <path d="M6,12 C8.209139,12 10,13.790861 10,16 C10,18.209139 8.209139,20 6,20 C3.790861,20 2,18.209139 2,16 C2,13.790861 3.790861,12 6,12 Z M6,14 C4.8954305,14 4,14.8954305 4,16 C4,17.1045695 4.8954305,18 6,18 C7.1045695,18 8,17.1045695 8,16 C8,14.8954305 7.1045695,14 6,14 Z" id="Oval-Copy" fill="#000000" fill-rule="nonzero"></path>
        <path d="M27,23 C27.5522847,23 28,23.4477153 28,24 L28,28 C28,28.5522847 27.5522847,29 27,29 L13,29 C12.4477153,29 12,28.5522847 12,28 L12,24 C12,23.4477153 12.4477153,23 13,23 L27,23 Z M26,25 L14,25 L14,27 L26,27 L26,25 Z" id="Rectangle-Copy-2" fill="#000000" fill-rule="nonzero"></path>
        <path d="M7,23 C8.65685425,23 10,24.3431458 10,26 C10,27.6568542 8.65685425,29 7,29 C5.34314575,29 4,27.6568542 4,26 C4,24.3431458 5.34314575,23 7,23 Z M7,25 C6.44771525,25 6,25.4477153 6,26 C6,26.5522847 6.44771525,27 7,27 C7.55228475,27 8,26.5522847 8,26 C8,25.4477153 7.55228475,25 7,25 Z" id="Oval-Copy-2" fill="#000000" fill-rule="nonzero"></path>
    </g>
</svg>