<?xml version="1.0" encoding="UTF-8"?>
<svg width="64px" height="64px" viewBox="0 0 64 64" version="1.1" xmlns="http://www.w3.org/2000/svg" xmlns:xlink="http://www.w3.org/1999/xlink">
    <title>caught</title>
    <g id="caught" stroke="none" stroke-width="1" fill="none" fill-rule="evenodd">
        <path d="M60,20 L60,52 L28,52 L28,20 L60,20 Z M37.99944,23.9991148 L32,24 L32,48 L37.99944,47.9991148 L37.99944,23.9991148 Z M56,24 L40.99944,23.9991148 L40.99944,47.9991148 L56,48 L56,24 Z M29,30 L59,30 L59,33 L29,33 L29,30 Z M50,21 L49.99944,38.9991148 L59,39 L59,42 L49.99944,41.9991148 L50,51 L47,51 L46.99944,41.9991148 L29,42 L29,39 L46.99944,38.9991148 L47,21 L50,21 Z M6.33911709,5.35511484 L31.78056,21.2526928 L29.6608829,24.6448852 L4.21944003,8.74730723 L6.33911709,5.35511484 Z" id="Combined-Shape" fill="#000000" fill-rule="nonzero"></path>
        <path d="M19.2869988,28.4689537 L19.4142136,28.5857864 L25.4142136,34.5857864 C26.1541543,35.3257272 26.1930986,36.5012114 25.5310463,37.2869988 L25.4142136,37.4142136 L19.4142136,43.4142136 C18.633165,44.1952621 17.366835,44.1952621 16.5857864,43.4142136 C15.8458457,42.6742728 15.8069014,41.4987886 16.4689537,40.7130012 L16.5857864,40.5857864 L19.171,38 L6,38 C4.8954305,38 4,37.1045695 4,36 C4,34.8954305 4.8954305,34 6,34 L19.171,34 L16.5857864,31.4142136 C15.8458457,30.6742728 15.8069014,29.4987886 16.4689537,28.7130012 L16.5857864,28.5857864 C17.3257272,27.8458457 18.5012114,27.8069014 19.2869988,28.4689537 Z" id="Combined-Shape" fill="#000000"></path>
    </g>
</svg>