<?xml version="1.0" encoding="UTF-8"?>
<svg width="32px" height="32px" viewBox="0 0 32 32" version="1.1" xmlns="http://www.w3.org/2000/svg" xmlns:xlink="http://www.w3.org/1999/xlink">
    <title>cellulose-debris</title>
    <g id="cellulose-debris" stroke="none" stroke-width="1" fill="none" fill-rule="evenodd">
        <path d="M16.5038611,4.13175686 L2.50386106,12.1317569 C1.82874671,12.5175365 1.83289885,13.4924228 2.5112748,13.8724378 L5.01788324,15.2620905 L6.22333646,15.9160019 L7.26425254,16.4681887 L7.93719166,16.8156787 L8.51795428,17.1061231 L8.6985961,17.188437 C10.0991955,17.7798971 11.8605958,17.461774 13.9957915,16.3391429 L14.247,16.203 L14.3416825,16.2734964 C16.1664029,17.5796585 18.0509377,17.8610186 19.8890498,17.0386076 L20.2283133,16.8834075 L20.8021498,16.6087776 L21.4540405,16.2838968 L22.184126,15.9087028 L23.2794523,15.3300713 L24.5143738,14.6617355 L25.8892234,13.9035478 L27.8050663,12.8292338 L29.0600381,12.1170256 C29.2038808,12.0350708 29.3491914,11.9521755 29.4959709,11.8683391 C30.1895855,11.4721659 30.1616668,10.4627994 29.4472136,10.1055728 L17.4472136,4.10557281 C17.148159,3.95604552 16.7941609,3.96587122 16.5038611,4.13175686 Z M17.031,6.134 L26.876,11.056 L25.6724365,11.7342175 L24.5900484,12.3371079 L23.2696123,13.0624859 L22.0897646,13.6980419 L21.0508382,14.2436282 L20.1531659,14.6990971 L19.3970805,15.0643009 L19.0722368,15.2130073 C17.7759735,15.7929835 16.4647791,15.5059154 14.9893981,14.2408569 C14.6634244,13.9613522 14.1954008,13.9211526 13.8265387,14.1409762 C11.7277124,15.391773 10.2444571,15.7248029 9.39779474,15.3100494 L8.80470316,15.0130702 L7.83028927,14.5061807 L6.34414094,13.707502 L5.035,12.988 L17.031,6.134 Z" id="Path-131-Copy" fill="#000000" fill-rule="nonzero"></path>
        <path d="M28.1469982,13.455 L29.4472136,14.1055728 C30.1718383,14.4678852 30.187418,15.4963767 29.4740998,15.8804711 L29.4740998,15.8804711 L14.616957,23.8804711 C14.3209806,24.039843 13.9647336,24.039843 13.6687573,23.8804711 L13.6687573,23.8804711 L2.52590018,17.8804711 C1.83469887,17.5082858 1.82225914,16.5212437 2.50386106,16.1317569 L2.50386106,16.1317569 L3.75899823,15.413 L5.82199823,16.538 L5.061,16.974 L14.142,21.864 L26.829,15.032 L25.9839982,14.609 L28.1469982,13.455 Z" id="Path-131-Copy-2" fill="#000000" fill-rule="nonzero"></path>
        <path d="M28.1469982,17.455 L29.4472136,18.1055728 C30.1718383,18.4678852 30.187418,19.4963767 29.4740998,19.8804711 L29.4740998,19.8804711 L14.616957,27.8804711 C14.3209806,28.039843 13.9647336,28.039843 13.6687573,27.8804711 L13.6687573,27.8804711 L2.52590018,21.8804711 C1.83469887,21.5082858 1.82225914,20.5212437 2.50386106,20.1317569 L2.50386106,20.1317569 L3.75899823,19.413 L5.82199823,20.538 L5.061,20.974 L14.142,25.864 L26.829,19.032 L25.9839982,18.609 L28.1469982,17.455 Z" id="Path-131-Copy-3" fill="#000000" fill-rule="nonzero"></path>
    </g>
</svg>