<?xml version="1.0" encoding="UTF-8"?>
<svg width="32px" height="32px" viewBox="0 0 32 32" version="1.1" xmlns="http://www.w3.org/2000/svg" xmlns:xlink="http://www.w3.org/1999/xlink">
    <title>certs</title>
    <g id="certs" stroke="none" stroke-width="1" fill="none" fill-rule="evenodd">
        <path d="M18.0705524,7.27259339 L19.520236,8.90277239 L21.6568542,9.34314575 L22.0972276,11.479764 L23.7274066,12.9294476 L23.040472,15 L23.7274066,17.0705524 L22.0972276,18.520236 L21.6568542,20.6568542 L21.3927155,20.7105934 L23.919145,26.6060807 C24.1246532,27.0855998 23.9259933,27.6348973 23.4789042,27.8779861 L23.3713907,27.9284767 L18.3713907,29.9284767 C17.8578263,30.1339025 17.2836237,29.8827605 17.0769758,29.385067 L17.0384761,29.2747211 L16,25.639 L14.9615239,29.2747211 C14.8095686,29.8065648 14.2594733,30.1068581 13.7394309,29.9655848 L13.6286093,29.9284767 L8.62860932,27.9284767 C8.14422191,27.7347217 7.89628371,27.2058359 8.0405337,26.7178065 L8.08085497,26.6060807 L10.6067155,20.7105934 L10.3431458,20.6568542 L9.90277239,18.520236 L8.27259339,17.0705524 L8.959528,15 L8.27259339,12.9294476 L9.90277239,11.479764 L10.3431458,9.34314575 L12.479764,8.90277239 L13.9294476,7.27259339 L16,7.959528 L18.0705524,7.27259339 Z M12.5727155,21.2005934 L10.322,26.452 L13.342,27.66 L14.8377155,22.4255934 L13.9294476,22.7274066 L12.5727155,21.2005934 Z M19.4267155,21.2015934 L18.0705524,22.7274066 L17.1607155,22.4245934 L18.657,27.66 L21.677,26.452 L19.4267155,21.2015934 Z M17.45,9.585 L16,10.0667226 L14.549,9.585 L13.5333613,10.7276565 L12.035,11.035 L11.7276565,12.5333613 L10.585,13.549 L11.0667226,15 L10.585,16.45 L11.7276565,17.4666387 L12.035,18.964 L13.5333613,19.2723435 L14.549,20.414 L16,19.9332774 L17.45,20.414 L18.4666387,19.2723435 L19.964,18.964 L20.2723435,17.4666387 L21.414,16.45 L20.9332774,15 L21.414,13.549 L20.2723435,12.5333613 L19.964,11.035 L18.4666387,10.7276565 L17.45,9.585 Z M15.9997155,11.2725934 C18.2088545,11.2725934 19.9997155,13.0634544 19.9997155,15.2725934 C19.9997155,17.4817324 18.2088545,19.2725934 15.9997155,19.2725934 C13.7905765,19.2725934 11.9997155,17.4817324 11.9997155,15.2725934 C11.9997155,13.0634544 13.7905765,11.2725934 15.9997155,11.2725934 Z M15.9997155,13.2725934 C14.895146,13.2725934 13.9997155,14.1680239 13.9997155,15.2725934 C13.9997155,16.3771629 14.895146,17.2725934 15.9997155,17.2725934 C17.104285,17.2725934 17.9997155,16.3771629 17.9997155,15.2725934 C17.9997155,14.1680239 17.104285,13.2725934 15.9997155,13.2725934 Z" id="cert" fill="#000000" fill-rule="nonzero"></path>
        <path d="M12.0705524,2.27259339 L13.520236,3.90277239 L15.6568542,4.34314575 L16.0972276,6.479764 L16.4197155,6.76659339 L16,6.90593068 L14.0067155,6.24459339 L13.964,6.035 L12.4666387,5.72765648 L11.45,4.585 L10,5.06672264 L8.549,4.585 L7.53336132,5.72765648 L6.035,6.035 L5.72765648,7.53336132 L4.585,8.549 L5.06672264,10 L4.585,11.45 L5.72765648,12.4666387 L6.035,13.964 L7.53336132,14.2723435 L7.74271551,14.5075934 L7.90593068,15 L7.25271551,16.9665934 L6.57271551,16.2005934 L4.322,21.452 L7.342,22.66 L8.49871551,18.6105934 L8.99033035,19.0470347 L9.39371551,21.0075934 L7.70671551,24.9535934 L7.62860932,24.9284767 L2.62860932,22.9284767 C2.14422191,22.7347217 1.89628371,22.2058359 2.0405337,21.7178065 L2.08085497,21.6060807 L4.60671551,15.7105934 L4.34314575,15.6568542 L3.90277239,13.520236 L2.27259339,12.0705524 L2.959528,10 L2.27259339,7.92944764 L3.90277239,6.479764 L4.34314575,4.34314575 L6.479764,3.90277239 L7.92944764,2.27259339 L10,2.959528 L12.0705524,2.27259339 Z M9.99971551,6.27259339 C10.9992207,6.27259339 11.9131032,6.63918788 12.6142398,7.2452537 L11.9529653,7.99033035 L10.3916002,8.31097089 C10.2648746,8.28579543 10.1338368,8.27259339 9.99971551,8.27259339 C8.89514601,8.27259339 7.99971551,9.16802389 7.99971551,10.2725934 C7.99971551,10.7244627 8.14957061,11.1413315 8.40229486,11.4762138 L7.11619721,12.6195922 L7.32251603,13.2446082 C6.51029974,12.5124914 5.99971551,11.452169 5.99971551,10.2725934 C5.99971551,8.06345439 7.79057651,6.27259339 9.99971551,6.27259339 Z" id="cert" fill="#000000" fill-rule="nonzero"></path>
        <path d="M24.0705524,2.27259339 L25.520236,3.90277239 L27.6568542,4.34314575 L28.0972276,6.479764 L29.7274066,7.92944764 L29.040472,10 L29.7274066,12.0705524 L28.0972276,13.520236 L27.6568542,15.6568542 L27.3927155,15.7105934 L29.919145,21.6060807 C30.1246532,22.0855998 29.9259933,22.6348973 29.4789042,22.8779861 L29.3713907,22.9284767 L24.3713907,24.9284767 L24.2977155,24.9515934 L22.6057155,21.0035934 L23.0096697,19.0470347 L23.4997155,18.6105934 L24.657,22.66 L27.677,21.452 L25.4267155,16.2015934 L24.7467155,16.9655934 L24.0940693,15 L24.2577155,14.5055934 L24.4666387,14.2723435 L25.964,13.964 L26.2723435,12.4666387 L27.414,11.45 L26.9332774,10 L27.414,8.549 L26.2723435,7.53336132 L25.964,6.035 L24.4666387,5.72765648 L23.45,4.585 L22,5.06672264 L20.549,4.585 L19.5333613,5.72765648 L18.035,6.035 L17.9917155,6.24459339 L16,6.90593068 L15.5797155,6.76659339 L15.9027724,6.479764 L16.3431458,4.34314575 L18.479764,3.90277239 L19.9294476,2.27259339 L22,2.959528 L24.0705524,2.27259339 Z M21.9997155,6.27259339 C24.2088545,6.27259339 25.9997155,8.06345439 25.9997155,10.2725934 C25.9997155,11.4516804 25.4895542,12.5116129 24.6779242,13.2436982 L24.8838028,12.6195922 L23.5971362,11.4762138 C23.8498604,11.1413315 23.9997155,10.7244627 23.9997155,10.2725934 C23.9997155,9.16802389 23.104285,8.27259339 21.9997155,8.27259339 C21.8655942,8.27259339 21.7345565,8.28579543 21.6078308,8.31097089 L20.0470347,7.99033035 L19.3851912,7.2452537 C20.0863278,6.63918788 21.0002103,6.27259339 21.9997155,6.27259339 Z" id="cert" fill="#000000" fill-rule="nonzero"></path>
    </g>
</svg>