<?xml version="1.0" encoding="UTF-8"?>
<svg width="32px" height="32px" viewBox="0 0 32 32" version="1.1" xmlns="http://www.w3.org/2000/svg" xmlns:xlink="http://www.w3.org/1999/xlink">
    <title>certified-summary</title>
    <g id="certified-summary" stroke="none" stroke-width="1" fill="none" fill-rule="evenodd">
        <path d="M12,2 C15.3137085,2 18,4.6862915 18,8 C18,9.61568659 17.3613855,11.0822168 16.3228048,12.1609423 C15.4363992,12.6291308 14.6307493,13.2271151 13.9289322,13.9289322 C13.8490762,14.0087881 13.7705646,14.0899884 13.6934341,14.1724961 C13.3093099,14.0885684 12.9078081,14.0359186 12.4890346,14.013104 L12.24642,14.0032736 L12,14 C7.61295911,14 5.00797187,17.062833 4.15881536,23.554488 L4.11262495,23.9256046 L4.104,24 L11.4580732,24.0008624 C11.6790235,24.7041184 11.9755737,25.3738896 12.3381985,26.0006508 L3,26 C2.41495985,26 1.9548693,25.4999738 2.00345424,24.9169545 C2.54516003,18.416485 4.64457086,14.2791451 8.28688642,12.7115003 C6.89390886,11.6143049 6,9.91154424 6,8 C6,4.6862915 8.6862915,2 12,2 Z M12,4 C9.790861,4 8,5.790861 8,8 C8,10.209139 9.790861,12 12,12 C14.209139,12 16,10.209139 16,8 C16,5.790861 14.209139,4 12,4 Z M20,2 C23.3137085,2 26,4.6862915 26,8 C26,9.40262662 25.518708,10.6928415 24.7122635,11.7145049 C24.0134584,11.4321629 23.2756953,11.2291836 22.5093968,11.1131685 C23.4185083,10.3818267 24,9.25882068 24,8 C24,5.790861 22.209139,4 20,4 C19.2975003,4 18.6372978,4.18109566 18.06353,4.49914947 C17.7242209,3.91331438 17.3017159,3.37996737 16.8123339,2.91652956 C17.7353052,2.33577912 18.8284399,2 20,2 Z" id="Combined-Shape" fill="#000000" fill-rule="nonzero"></path>
        <path d="M21,12 C25.9705627,12 30,16.0294373 30,21 C30,25.9705627 25.9705627,30 21,30 C16.0294373,30 12,25.9705627 12,21 C12,16.0294373 16.0294373,12 21,12 Z M21,14 C17.1340068,14 14,17.1340068 14,21 C14,24.8659932 17.1340068,28 21,28 C24.8659932,28 28,24.8659932 28,21 C28,17.1340068 24.8659932,14 21,14 Z" id="Oval" fill="#101010" fill-rule="nonzero"></path>
        <path d="M23.6425071,16.9855042 C23.9266552,16.511924 24.5409155,16.3583589 25.0144958,16.6425071 C25.4542489,16.9063589 25.6180705,17.4548483 25.411725,17.9110326 L25.3574929,18.0144958 L20.8574929,25.5144958 C20.5436966,26.0374897 19.8474493,26.1534744 19.3825966,25.786882 L19.2928932,25.7071068 L16.2928932,22.7071068 C15.9023689,22.3165825 15.9023689,21.6834175 16.2928932,21.2928932 C16.6533772,20.9324093 17.2206082,20.9046797 17.6128994,21.2097046 L17.7071068,21.2928932 L19.801,23.386 L23.6425071,16.9855042 Z" id="Path-115" fill="#000000" fill-rule="nonzero"></path>
    </g>
</svg>