<?xml version="1.0" encoding="UTF-8"?>
<svg width="32px" height="32px" viewBox="0 0 32 32" version="1.1" xmlns="http://www.w3.org/2000/svg" xmlns:xlink="http://www.w3.org/1999/xlink">
    <title>timeline</title>
    <g id="timeline" stroke="none" stroke-width="1" fill="none" fill-rule="evenodd">
        <path d="M13,28 C12.4477153,28 12,27.5522847 12,27 L12,23 C12,22.4477153 12.4477153,22 13,22 L15,22 L15,19 L9,19 C8.44771525,19 8,18.5522847 8,18 L8,14 C8,13.4477153 8.44771525,13 9,13 L15,13 L15,10 L5,10 C4.44771525,10 4,9.55228475 4,9 L4,5 C4,4.44771525 4.44771525,4 5,4 L15,4 L15,3 C15,2.44771525 15.4477153,2 16,2 C16.5522847,2 17,2.44771525 17,3 L17,4 L19,4 C19.5522847,4 20,4.44771525 20,5 L20,9 C20,9.55228475 19.5522847,10 19,10 L17,10 L17,13 L23,13 C23.5522847,13 24,13.4477153 24,14 L24,18 C24,18.5522847 23.5522847,19 23,19 L17,19 L17,22 L27,22 C27.5522847,22 28,22.4477153 28,23 L28,27 C28,27.5522847 27.5522847,28 27,28 L17,28 L17,29 C17,29.5522847 16.5522847,30 16,30 C15.4477153,30 15,29.5522847 15,29 L15,28 L13,28 Z M26,24 L14,24 L14,26 L26,26 L26,24 Z M22,15 L10,15 L10,17 L22,17 L22,15 Z M18,6 L6,6 L6,8 L18,8 L18,6 Z" id="Combined-Shape" fill="#000000" fill-rule="nonzero"></path>
    </g>
</svg>