<?xml version="1.0" encoding="UTF-8"?>
<svg width="32px" height="32px" viewBox="0 0 32 32" version="1.1" xmlns="http://www.w3.org/2000/svg" xmlns:xlink="http://www.w3.org/1999/xlink">
    <title>certificate</title>
    <g id="certificate" stroke="none" stroke-width="1" fill="none" fill-rule="evenodd">
        <path d="M29,4 L3,4 C2.44771525,4 2,4.44771525 2,5 L2,27 C2,27.5522847 2.44771525,28 3,28 L29,28 C29.5522847,28 30,27.5522847 30,27 L30,5 C30,4.44771525 29.5522847,4 29,4 Z M28,6 L28,26 L4,26 L4,6 L28,6 Z" id="Rectangle" fill="#000000" fill-rule="nonzero"></path>
        <path d="M27,7 L5,7 L5,25 L27,25 L27,7 Z M25,9 L25,23 L7,23 L7,9 L25,9 Z" id="Rectangle-Copy" fill="#000000" fill-rule="nonzero"></path>
        <path d="M16,10 C18.209139,10 20,11.790861 20,14 C20,14.7443292 19.796696,15.4411742 19.4425886,16.0380344 L20.8322229,18.6688897 C21.1383217,19.2480933 21.01681,19.9743006 20.4976436,20.4374739 L20.380318,20.5325499 L20.2925746,20.5874415 L18.1108028,21.8259535 C17.47224,22.1884422 16.7048908,21.9638854 16.3033229,21.3360618 L16.2324362,21.2136639 L16.1910139,21.119196 L16,20.63 L15.8089644,21.1192513 C15.5509186,21.7784255 14.8484942,22.147491 14.122486,21.9242287 L13.9861858,21.8753518 L13.8891972,21.8259535 L11.7074254,20.5874415 C11.1240232,20.2562655 10.8769441,19.5586116 11.0755663,18.8987037 L11.12499,18.75802 L11.1677771,18.6688897 L12.5574114,16.0380344 C12.203304,15.4411742 12,14.7443292 12,14 C12,11.790861 13.790861,10 16,10 Z M14.0505425,17.4936196 L13.186,19.128 L14.212,19.711 L14.9381392,17.8575278 C14.6252704,17.7715989 14.3277346,17.6486259 14.0505425,17.4936196 Z M17.9504553,17.4930614 C17.6729795,17.6483307 17.375105,17.7714958 17.0618608,17.8575278 L17.786,19.71 L18.813,19.129 Z M16,12 C14.8954305,12 14,12.8954305 14,14 C14,15.1045695 14.8954305,16 16,16 C17.1045695,16 18,15.1045695 18,14 C18,12.8954305 17.1045695,12 16,12 Z" id="Combined-Shape" fill="#000000" fill-rule="nonzero"></path>
    </g>
</svg>