<?xml version="1.0" encoding="UTF-8"?>
<svg width="64px" height="64px" viewBox="0 0 64 64" version="1.1" xmlns="http://www.w3.org/2000/svg" xmlns:xlink="http://www.w3.org/1999/xlink">
    <title>cert</title>
    <g id="cert" stroke="none" stroke-width="1" fill="none" fill-rule="evenodd">
        <g id="Group" transform="translate(10.000000, 4.000000)" fill="#000000" fill-rule="nonzero">
            <path d="M27.176271,0 L30.3543223,4.90777545 L36.1418354,5.24009859 L36.4701106,11.0989764 L41.3181064,14.3162156 L38.7086445,19.5563142 L41.3181064,24.7964128 L36.4701106,28.013652 L36.1418354,33.8725298 L36.021,33.879 L43.7145248,46.8593172 C44.273951,47.8031911 43.9820332,49.0105923 43.0934371,49.5962011 L42.8939836,49.7118489 L30.8942384,55.7857047 C29.9472636,56.2650306 28.811217,55.9112347 28.2829916,55.0137402 L28.1722459,54.7971063 L22,40.7358496 L15.8277541,54.7971063 C15.397755,55.7765343 14.2986353,56.2345269 13.3272879,55.881661 L13.1057616,55.7857047 L1.10601642,49.7118489 C0.133479801,49.2195845 -0.260568797,48.0422906 0.17853611,47.0652869 L0.285475176,46.8593172 L7.978,33.879 L7.85816463,33.8725298 L7.52988939,28.013652 L2.68189362,24.7964128 L5.29135548,19.5563142 L2.68189362,14.3162156 L7.52988939,11.0989764 L7.85816463,5.24009859 L13.6456777,4.90777545 L16.823729,0 L22,2.64163863 L27.176271,0 Z M12.489,34.138 L4.82636462,47.066832 L13.0221906,51.2152756 L18.773,38.117 L16.823729,39.1126284 L13.6456777,34.2048529 L12.489,34.138 Z M31.51,34.138 L30.3543223,34.2048529 L27.176271,39.1126284 L25.226,38.116 L30.9758094,51.2152756 L39.1716354,47.066832 L31.51,34.138 Z M25.7879196,5.2422605 L22,7.17630889 L18.2100805,5.2422605 L15.8853954,8.8349151 L11.6482198,9.07688818 L11.4091941,13.3663115 L7.8603002,15.7196619 L9.77079071,19.5563142 L7.8603002,23.3909419 L11.4091941,25.7463168 L11.6482198,30.0337156 L15.8853954,30.2777133 L18.2100805,33.8683432 L22,31.9363195 L25.7879196,33.8683432 L28.1146046,30.2777133 L32.3497803,30.0337156 L32.5908059,25.7463168 L36.1376998,23.3909419 L34.2292093,19.5563142 L36.1376998,15.7196619 L32.5908059,13.3663115 L32.3497803,9.07688818 L28.1146046,8.8349151 L25.7879196,5.2422605 Z" id="Star"></path>
            <path d="M22,10 C27.5228475,10 32,14.4771525 32,20 C32,25.5228475 27.5228475,30 22,30 C16.4771525,30 12,25.5228475 12,20 C12,14.4771525 16.4771525,10 22,10 Z M22,14 C18.6862915,14 16,16.6862915 16,20 C16,23.3137085 18.6862915,26 22,26 C25.3137085,26 28,23.3137085 28,20 C28,16.6862915 25.3137085,14 22,14 Z" id="Oval"></path>
        </g>
    </g>
</svg>