<?xml version="1.0" encoding="UTF-8"?>
<svg width="32px" height="32px" viewBox="0 0 32 32" version="1.1" xmlns="http://www.w3.org/2000/svg" xmlns:xlink="http://www.w3.org/1999/xlink">
    <title>cert-type</title>
    <g id="cert-type" stroke="none" stroke-width="1" fill="none" fill-rule="evenodd">
        <path d="M6,28 C4.8954305,28 4,27.1045695 4,26 L4,22 C4,20.8954305 4.8954305,20 6,20 L13,20 L13.0000394,13.1973296 C11.2066136,12.159907 10,10.2208633 10,8 C10,4.6862915 12.6862915,2 16,2 C19.3137085,2 22,4.6862915 22,8 C22,10.2204495 20.793836,12.1591844 19.000963,13.1967496 L19,20 L26,20 C27.1045695,20 28,20.8954305 28,22 L28,26 C28,27.1045695 27.1045695,28 26,28 L25,28 L25,29 C25,29.5522847 24.5522847,30 24,30 L8,30 C7.44771525,30 7,29.5522847 7,29 L7,28 L6,28 Z M26,22 L6,22 L6,26 L26,26 L26,22 Z M17,14 L15,14 L15,20 L17,20 L17,14 Z M16,4 C13.790861,4 12,5.790861 12,8 C12,10.209139 13.790861,12 16,12 C18.209139,12 20,10.209139 20,8 C20,5.790861 18.209139,4 16,4 Z" id="Combined-Shape" fill="#000000" fill-rule="nonzero"></path>
    </g>
</svg>