<?xml version="1.0" encoding="UTF-8"?>
<svg width="32px" height="32px" viewBox="0 0 32 32" version="1.1" xmlns="http://www.w3.org/2000/svg" xmlns:xlink="http://www.w3.org/1999/xlink">
    <title>ceu</title>
    <g id="ceu" stroke="none" stroke-width="1" fill="none" fill-rule="evenodd">
        <path d="M16.3028635,2.0469595 L16.4190582,2.09204062 L29.4190582,8.09204062 C30.1528794,8.43072735 30.1915016,9.43663041 29.5349247,9.84555044 L29.4190582,9.90795938 L16.4190582,15.9079594 C16.1911481,16.0131487 15.9335336,16.0281757 15.6971365,15.9530405 L15.5809418,15.9079594 L5,11.024 L5.0010775,20.2681881 C5.59828461,20.6141507 6,21.2601625 6,22 C6,23.1045695 5.1045695,24 4,24 C2.8954305,24 2,23.1045695 2,22 C2,21.2597476 2.40216612,20.6134261 2.99992752,20.2676063 L3,10.101 L2.58094182,9.90795938 C1.84712057,9.56927265 1.8084984,8.56336959 2.46507531,8.15444956 L2.58094182,8.09204062 L15.5809418,2.09204062 C15.8088519,1.98685134 16.0664664,1.9718243 16.3028635,2.0469595 Z M16,4.101 L5.385,9 L16,13.898 L26.614,9 L16,4.101 Z" id="Combined-Shape" fill="#000000" fill-rule="nonzero"></path>
        <path d="M8.79980518,12.6392803 L10.6162538,13.4882399 C10.0888204,14.3375884 9.74585451,15.4110901 9.5791024,16.7189745 L9.5791024,16.7189745 L9.554,16.928 L9.66926878,16.9832433 C11.0731997,17.6169125 13.0431141,17.9624915 15.5731432,17.9971129 L15.5731432,17.9971129 L16,18 C16.2609928,18 16.5163111,17.996835 16.7659489,17.9905283 C16.2775818,18.5930791 15.878019,19.2683604 15.5827167,19.9970381 C12.2884165,19.9561613 9.75939491,19.4218273 7.98550424,18.3574929 C7.66385952,18.1645061 7.47726363,17.8077492 7.50221484,17.433481 C7.62991387,15.5179956 8.06620284,13.9152701 8.79980518,12.6392803 Z M23.2007713,12.6402843 C23.6105288,13.3532419 23.9274889,14.1681779 24.1496853,15.0826553 C23.7745236,15.027983 23.3905297,15 23,15 C22.6867856,15 22.3777754,15.0179999 22.0739472,15.0530216 C21.8973009,14.4657284 21.6671578,13.944633 21.3837555,13.4882548 Z" id="Path-40" fill="#000000" fill-rule="nonzero"></path>
        <path d="M23,16 C26.8659932,16 30,19.1340068 30,23 C30,26.8659932 26.8659932,30 23,30 C19.1340068,30 16,26.8659932 16,23 C16,19.1340068 19.1340068,16 23,16 Z M23,18 C20.2385763,18 18,20.2385763 18,23 C18,25.7614237 20.2385763,28 23,28 C25.7614237,28 28,25.7614237 28,23 C28,20.2385763 25.7614237,18 23,18 Z" id="Oval" fill="#000000" fill-rule="nonzero"></path>
        <path d="M23,20 C23.5522847,20 24,20.4477153 24,21 L24,22 L25,22 C25.5522847,22 26,22.4477153 26,23 C26,23.5522847 25.5522847,24 25,24 L24,24 L24,25 C24,25.5522847 23.5522847,26 23,26 C22.4477153,26 22,25.5522847 22,25 L22,24 L21,24 C20.4477153,24 20,23.5522847 20,23 C20,22.4477153 20.4477153,22 21,22 L22,22 L22,21 C22,20.4477153 22.4477153,20 23,20 Z" id="Combined-Shape" fill="#000000"></path>
    </g>
</svg>