<?xml version="1.0" encoding="UTF-8"?>
<svg width="32px" height="32px" viewBox="0 0 32 32" version="1.1" xmlns="http://www.w3.org/2000/svg" xmlns:xlink="http://www.w3.org/1999/xlink">
    <title>checkbox</title>
    <g id="checkbox" stroke="none" stroke-width="1" fill="none" fill-rule="evenodd">
        <path d="M23,5 C23.4353184,5 23.854395,5.06953921 24.2467274,5.19811519 L23.106,7.004 L23,7 L9,7 C7.9456382,7 7.08183488,7.81587779 7.00548574,8.85073766 L7,9 L7,23 C7,24.0543618 7.81587779,24.9181651 8.85073766,24.9945143 L9,25 L23,25 C24.0543618,25 24.9181651,24.1841222 24.9945143,23.1492623 L25,23 L25,11.487 L26.9543577,8.39377046 C26.9844145,8.59146386 27,8.79391183 27,9 L27,23 C27,25.209139 25.209139,27 23,27 L9,27 C6.790861,27 5,25.209139 5,23 L5,9 C5,6.790861 6.790861,5 9,5 L23,5 Z" id="Rectangle" fill="#000000" fill-rule="nonzero"></path>
        <path d="M27.1545111,2.46600701 C27.4494273,1.99905638 28.0670424,1.85959491 28.533993,2.1545111 C28.96759,2.42836184 29.1188112,2.98045806 28.9020755,3.43179856 L28.8454889,3.53399299 L16.8454889,22.533993 C16.5259449,23.0399377 15.8453267,23.1471807 15.3873993,22.7906325 L15.2928932,22.7071068 L9.29289322,16.7071068 C8.90236893,16.3165825 8.90236893,15.6834175 9.29289322,15.2928932 C9.65337718,14.9324093 10.2206082,14.9046797 10.6128994,15.2097046 L10.7071068,15.2928932 L15.823,20.408 L27.1545111,2.46600701 Z" id="Path-113" fill="#000000" fill-rule="nonzero"></path>
    </g>
</svg>