<?xml version="1.0" encoding="UTF-8"?>
<svg width="64px" height="64px" viewBox="0 0 64 64" version="1.1" xmlns="http://www.w3.org/2000/svg" xmlns:xlink="http://www.w3.org/1999/xlink">
    <title>check_all</title>
    <g id="check_all" stroke="none" stroke-width="1" fill="none" fill-rule="evenodd">
        <path d="M54.5038491,12.3358994 C55.4229065,10.9573133 57.2855145,10.5847917 58.6641006,11.5038491 C60.0426867,12.4229065 60.4152083,14.2855145 59.4961509,15.6641006 L35.4961509,51.6641006 C34.3698788,53.3535088 31.9257844,53.4595736 30.6573936,51.8740851 L18.6573936,36.8740851 C17.6223649,35.5802993 17.8321291,33.6924222 19.1259149,32.6573936 C20.4197007,31.6223649 22.3075778,31.8321291 23.3426064,33.1259149 L32.779,44.921 L54.5038491,12.3358994 Z" id="Path-274" fill="#000000" fill-rule="nonzero"></path>
        <path d="M9.34260643,33.1259149 L18.779,44.921 L21.0668895,41.4876812 L25.0008895,46.4056812 L21.4961509,51.6641006 C20.3698788,53.3535088 17.9257844,53.4595736 16.6573936,51.8740851 L4.65739357,36.8740851 C3.62236493,35.5802993 3.83212905,33.6924222 5.12591486,32.6573936 C6.41970066,31.6223649 8.30757778,31.8321291 9.34260643,33.1259149 Z M44.6641006,11.5038491 C46.0426867,12.4229065 46.4152083,14.2855145 45.4961509,15.6641006 L29.6588895,39.4196812 L25.7248895,34.5026812 L40.5038491,12.3358994 C41.4229065,10.9573133 43.2855145,10.5847917 44.6641006,11.5038491 Z" id="Path-274-Copy" fill="#000000" fill-rule="nonzero"></path>
    </g>
</svg>