<?xml version="1.0" encoding="UTF-8"?>
<svg width="32px" height="32px" viewBox="0 0 32 32" version="1.1" xmlns="http://www.w3.org/2000/svg" xmlns:xlink="http://www.w3.org/1999/xlink">
    <title>check-all</title>
    <g id="check-all" stroke="none" stroke-width="1" fill="none" fill-rule="evenodd">
        <path d="M21.372,4.99987062 L20.108,6.99987062 L9,7 C7.9456382,7 7.08183488,7.81587779 7.00548574,8.85073766 L7,9 L7,14.0008706 L6.8738224,14.0039718 C6.46346753,14.029833 6.05949902,14.181471 5.72480305,14.4590921 L5.58578644,14.5857864 C5.19526215,14.9763107 5,15.4881554 5,16 C5,16.5118446 5.19526215,17.0236893 5.58578644,17.4142136 L5.58578644,17.4142136 L7,18.8258706 L7,23 C7,24.0543618 7.81587779,24.9181651 8.85073766,24.9945143 L9,25 L23,25 C24.0543618,25 24.9181651,24.1841222 24.9945143,23.1492623 L25,23 L25,13.0718706 L27,9.90287062 L27,23 C27,25.209139 25.209139,27 23,27 L9,27 C6.790861,27 5,25.209139 5,23 L5,9 C5,6.790861 6.790861,5 9,5 L21.372,4.99987062 Z" id="Rectangle" fill="#000000" fill-rule="nonzero"></path>
        <path d="M24.1545111,2.46600701 C24.4494273,1.99905638 25.0670424,1.85959491 25.533993,2.1545111 C25.96759,2.42836184 26.1188112,2.98045806 25.9020755,3.43179856 L25.8454889,3.53399299 L13.8454889,22.533993 C13.5259449,23.0399377 12.8453267,23.1471807 12.3873993,22.7906325 L12.2928932,22.7071068 L6.29289322,16.7071068 C5.90236893,16.3165825 5.90236893,15.6834175 6.29289322,15.2928932 C6.65337718,14.9324093 7.22060824,14.9046797 7.61289944,15.2097046 L7.70710678,15.2928932 L12.823,20.408 L24.1545111,2.46600701 Z" id="Path-113" fill="#000000" fill-rule="nonzero"></path>
        <path d="M28.1545111,2.46600701 C28.4494273,1.99905638 29.0670424,1.85959491 29.533993,2.1545111 C29.96759,2.42836184 30.1188112,2.98045806 29.9020755,3.43179856 L29.8454889,3.53399299 L17.8454889,22.533993 C17.5259449,23.0399377 16.8453267,23.1471807 16.3873993,22.7906325 L16.2928932,22.7071068 L10.2928932,16.7071068 C9.90236893,16.3165825 9.90236893,15.6834175 10.2928932,15.2928932 C10.6533772,14.9324093 11.2206082,14.9046797 11.6128994,15.2097046 L11.7071068,15.2928932 L16.823,20.408 L28.1545111,2.46600701 Z" id="Path-113-Copy" fill="#000000" fill-rule="nonzero"></path>
    </g>
</svg>