<?xml version="1.0" encoding="UTF-8"?>
<svg width="64px" height="64px" viewBox="0 0 64 64" version="1.1" xmlns="http://www.w3.org/2000/svg" xmlns:xlink="http://www.w3.org/1999/xlink">
    <title>check_in_service</title>
    <g id="check_in_service" stroke="none" stroke-width="1" fill="none" fill-rule="evenodd">
        <path d="M31.6710255,45.9970396 C28.2138471,45.934538 26.4183173,44.9032947 26.4183173,44.9032947 C26.4183173,44.9032947 26.9731662,44.3018824 27.4875522,43.8082292 C28.0019383,43.314576 29.2029802,43.4196654 29.2029802,41.7583792 C29.2029802,40.097093 26.0339209,38.5433232 24.6958629,36.7793746 C23.3578048,35.015426 22.1834213,31.3176383 22.1834213,31.3176383 L22.1834213,31.3176383 L20.0242292,31.3176383 L20,24.669581 C20,24.669581 20.2384154,23.7235337 21.0580895,22.8000576 C21.8777636,21.8765814 26.1072142,21.94745 27.4427282,21.3001673 C28.7782422,20.6528846 29.8629838,19.7898409 29.8629838,18.4736751 C29.8629838,17.1575092 27.9366649,17.1940114 27.9366648,15.1552771 C27.9366648,13.1165428 30.7919317,13.4866613 30.7919317,12.041136 C30.7919317,10.5956107 30.0216851,10.0587568 30.0216851,8.98504894 C30.0216851,7.91134109 30.3284269,7 32,7 L32,7 C33.6843262,7 33.9934082,7.91134109 33.9934082,8.98504894 C33.9934082,10.0587568 33.2172852,10.5956107 33.2172852,12.041136 C33.2172852,13.4866613 36.094336,13.1165428 36.0943359,15.1552771 C36.0943359,17.1940114 34.1533203,17.1575092 34.1533203,18.4736751 C34.1533203,19.7898409 35.2463379,20.6528846 36.592041,21.3001673 C37.9377441,21.94745 42.1994629,21.8765814 43.0253906,22.8000576 C43.8513184,23.7235337 44.0915527,24.669581 44.0915527,24.669581 L44.0671387,31.3176383 L41.8914732,31.3176383 C41.8914732,31.3176383 40.7081299,35.015426 39.3598633,36.7793746 C38.0115967,38.5433232 34.8183594,40.097093 34.8183594,41.7583792 C34.8183594,43.4196654 36.0285645,43.314576 36.546875,43.8082292 C37.0651855,44.3018824 37.6242676,44.9032947 37.6242676,44.9032947 C37.6242676,44.9032947 35.7001953,46 32,46 L31.6710255,45.9970396 Z" id="Path-21" fill="#000000" fill-rule="nonzero"></path>
        <path d="M19,26.2784424 C19,26.2784424 18.9265421,28.8612814 19.1297363,31.8412842 C19.2631693,33.7981836 20.0323486,37.6551514 20.8632811,39.5518799 C21.6942137,41.4486084 23.7777098,43.8519287 25.2319336,44.7960205 C26.6861574,45.7401123 29.2272953,47 32,47 C32.0137948,47.1049275 32.0246948,47.2188072 32.0331554,47.3405176 L32.0422662,47.2105538 L32.0422662,47.2105538 L32.0651712,47 C34.8378759,47 37.3790138,45.7401123 38.8332376,44.7960205 C40.2874614,43.8519287 42.3709576,41.4486084 43.2018901,39.5518799 C44.0328226,37.6551514 44.8020019,33.7981836 44.9354349,31.8412842 C45.1386291,28.8612814 45.0651712,26.2784424 45.0651712,26.2784424 C45.0651712,26.2784424 45.352891,26.2784424 45.774766,26.4226074 C46.196641,26.5667725 46.0230569,30.6524658 46.023057,31.9412842 C46.023057,33.2301025 45.6133889,38.2567139 44.3354349,41.4569092 C43.0574809,44.6571045 40.3757185,47.2414551 38.1400003,48.9194336 C35.9042822,50.5974121 33.5995947,51.4685059 32.0651712,51.4685059 C32.0651711,50.8736402 32.048194,50.2584084 32.0325421,49.6678604 C32.0169772,50.2584084 32.0000001,50.8736402 32,51.4685059 C30.4655765,51.4685059 28.160889,50.5974121 25.9251709,48.9194336 C23.6894528,47.2414551 21.0076904,44.6571045 19.7297363,41.4569092 C18.4517823,38.2567139 18.0421142,33.2301025 18.0421143,31.9412842 C18.0421143,30.6524658 17.8685303,26.5667725 18.2904053,26.4226074 C18.7122803,26.2784424 19,26.2784424 19,26.2784424 Z" id="Path-23" fill="#000000" fill-rule="nonzero"></path>
        <path d="M29,56.6 C29,55.0404541 30.0845947,54.5333252 30.0845947,54.1887207 C30.0845947,53.8441162 29.7087402,51.5 29.7087402,51.5 L32.003,52.499 L34.2980957,51.5 C34.2980957,51.5 33.9571846,53.6261825 33.9247169,54.1263584 L33.9222412,54.1887207 C33.9222412,54.5333252 35.0068359,55.0404541 35.0068359,56.6 C35.0068359,58.1595459 32,57.9750808 32,57.9750808 C32.0068359,57.9750808 29,58.1595459 29,56.6 Z" id="Path-24" fill="#000000" fill-rule="nonzero"></path>
    </g>
</svg>