<?xml version="1.0" encoding="UTF-8"?>
<svg width="64px" height="64px" viewBox="0 0 64 64" version="1.1" xmlns="http://www.w3.org/2000/svg" xmlns:xlink="http://www.w3.org/1999/xlink">
    <title>check_in</title>
    <g id="check_in" stroke="none" stroke-width="1" fill="none" fill-rule="evenodd">
        <path d="M32,7 C30.3284269,7 30.0216851,7.91134109 30.0216851,8.98504894 C30.0216851,10.0587568 30.7919317,10.5956107 30.7919317,12.041136 C30.7919317,13.4866613 27.9366648,13.1165428 27.9366648,15.1552771 C27.9366649,17.1940114 29.8629838,17.1575092 29.8629838,18.4736751 C29.8629838,19.7898409 28.7782422,20.6528846 27.4427282,21.3001673 C26.1072142,21.94745 21.8777636,21.8765814 21.0580895,22.8000576 C20.2384154,23.7235337 20,24.669581 20,24.669581 L20.0242292,31.3176383 L22.1834213,31.3176383 C22.1834213,31.3176383 23.3578048,35.015426 24.6958629,36.7793746 C26.0339209,38.5433232 29.2029802,40.097093 29.2029802,41.7583792 C29.2029802,43.4196654 28.0019383,43.314576 27.4875522,43.8082292 C26.9731662,44.3018824 26.4183173,44.9032947 26.4183173,44.9032947 C26.4183173,44.9032947 28.3278212,46 32,46 L32,7 Z M32,7 C33.6843262,7 33.9934082,7.91134109 33.9934082,8.98504894 C33.9934082,10.0587568 33.2172852,10.5956107 33.2172852,12.041136 C33.2172852,13.4866613 36.094336,13.1165428 36.0943359,15.1552771 C36.0943359,17.1940114 34.1533203,17.1575092 34.1533203,18.4736751 C34.1533203,19.7898409 35.2463379,20.6528846 36.592041,21.3001673 C37.9377441,21.94745 42.1994629,21.8765814 43.0253906,22.8000576 C43.8513184,23.7235337 44.0915527,24.669581 44.0915527,24.669581 L44.0671387,31.3176383 L41.8914732,31.3176383 C41.8914732,31.3176383 40.7081299,35.015426 39.3598633,36.7793746 C38.0115967,38.5433232 34.8183594,40.097093 34.8183594,41.7583792 C34.8183594,43.4196654 36.0285645,43.314576 36.546875,43.8082292 C37.0651855,44.3018824 37.6242676,44.9032947 37.6242676,44.9032947 C37.6242676,44.9032947 35.7001953,46 32,46 L32,7 Z" id="Path-21" fill="#000000" fill-rule="nonzero"></path>
        <path d="M32.0325856,47.3323851 C32.0242071,47.2137316 32.0134871,47.1025871 32,47 C29.2272953,47 26.6861574,45.7401123 25.2319336,44.7960205 C23.7777098,43.8519287 21.6942137,41.4486084 20.8632811,39.5518799 C20.0323486,37.6551514 19.2631693,33.7981836 19.1297363,31.8412842 C18.9265421,28.8612814 19,26.2784424 19,26.2784424 C19,26.2784424 18.7122803,26.2784424 18.2904053,26.4226074 C17.8685303,26.5667725 18.0421143,30.6524658 18.0421143,31.9412842 C18.0421142,33.2301025 18.4517823,38.2567139 19.7297363,41.4569092 C21.0076904,44.6571045 23.6894528,47.2414551 25.9251709,48.9194336 C28.160889,50.5974121 30.4655765,51.4685059 32,51.4685059 C32.0000001,50.8741918 32.0169457,50.2595493 32.0325856,49.6695032 C32.0482255,50.2595493 32.0651711,50.8741918 32.0651712,51.4685059 C33.5995947,51.4685059 35.9042822,50.5974121 38.1400003,48.9194336 C40.3757185,47.2414551 43.0574809,44.6571045 44.3354349,41.4569092 C45.6133889,38.2567139 46.023057,33.2301025 46.023057,31.9412842 C46.0230569,30.6524658 46.196641,26.5667725 45.774766,26.4226074 C45.352891,26.2784424 45.0651712,26.2784424 45.0651712,26.2784424 C45.0651712,26.2784424 45.1386291,28.8612814 44.9354349,31.8412842 C44.8020019,33.7981836 44.0328226,37.6551514 43.2018901,39.5518799 C42.3709576,41.4486084 40.2874614,43.8519287 38.8332376,44.7960205 C37.3790138,45.7401123 34.8378759,47 32.0651712,47 C32.0516841,47.1025871 32.0409642,47.2137316 32.0325856,47.3323851 Z" id="Path-23" fill="#000000" fill-rule="nonzero"></path>
        <path d="M32.003418,52.4985127 L29.7087402,51.5 C29.7087402,51.5 30.0845947,53.8441162 30.0845947,54.1887207 C30.0845947,54.5333252 29,55.0404541 29,56.6 C29,58.1289881 31.8901583,57.98164 32.003418,57.9752787 C32.1166777,57.98164 35.0068359,58.1289881 35.0068359,56.6 C35.0068359,55.0404541 33.9222412,54.5333252 33.9222412,54.1887207 C33.9222412,53.8441162 34.2980957,51.5 34.2980957,51.5 L32.003418,52.4985127 Z" id="Path-24" fill="#000000" fill-rule="nonzero"></path>
    </g>
</svg>