<?xml version="1.0" encoding="UTF-8"?>
<svg width="64px" height="64px" viewBox="0 0 64 64" version="1.1" xmlns="http://www.w3.org/2000/svg" xmlns:xlink="http://www.w3.org/1999/xlink">
    <title>checkout</title>
    <g id="checkout" stroke="none" stroke-width="1" fill="none" fill-rule="evenodd">
        <path d="M56.5680855,12 C58.7772245,12 60.5680855,13.790861 60.5680855,16 C60.5680855,16.1728448 60.5568823,16.3454167 60.5345813,16.5166341 L60.4928197,16.7723091 L56.1636605,38.7723091 C55.8077958,40.5807485 54.2661342,41.9027418 52.4426495,41.9948633 L52.2389263,42 L23.044,42 L24.071,46 L49,46 C49.060643,46 49.1206557,46.002699 49.1799243,46.0079835 L49.2668659,46.004103 L49.2668659,46.004103 L49.5,46 C53.0898509,46 56,48.9101491 56,52.5 C56,56.0898509 53.0898509,59 49.5,59 C45.9101491,59 43,56.0898509 43,52.5 C43,51.6142625 43.1771628,50.7699037 43.4979858,50.0004259 L29.5020142,50.0004259 C29.8228372,50.7699037 30,51.6142625 30,52.5 C30,56.0898509 27.0898509,59 23.5,59 C19.9101491,59 17,56.0898509 17,52.5 C17,50.132226 18.2660268,48.0601485 20.1580754,46.9237725 L10.428,9 L5,9 C3.9456382,9 3.08183488,8.18412221 3.00548574,7.14926234 L3,7 C3,5.9456382 3.81587779,5.08183488 4.85073766,5.00548574 L5,5 L12,5 C12.8679933,5 13.6300682,5.5586106 13.898691,6.37136567 L13.9431805,6.52666117 L15.347,12 L41.455,12 L39.092,16 L16.374,16 L22.018,38 L52.2389263,38 L56.5680855,16 L49.709,16 L50.43046,14.780774 L50.5516259,14.5457634 C50.942588,13.7310074 51.0712943,12.8477774 50.9639153,12.0001103 L56.5680855,12 Z M23.5,50 C22.1192881,50 21,51.1192881 21,52.5 C21,53.8807119 22.1192881,55 23.5,55 C24.8807119,55 26,53.8807119 26,52.5 C26,51.1192881 24.8807119,50 23.5,50 Z M49.5,50 C48.1192881,50 47,51.1192881 47,52.5 C47,53.8807119 48.1192881,55 49.5,55 C50.8807119,55 52,53.8807119 52,52.5 C52,51.1192881 50.8807119,50 49.5,50 Z" id="Combined-Shape" fill="#000000"></path>
        <path d="M44.2144362,11.2636392 C44.9369014,10.0410173 46.5137154,9.63555462 47.7363489,10.358013 C48.929872,11.06327 49.3446777,12.5826692 48.6916742,13.7919763 L48.6419836,13.8798925 L37.4993145,32.7365391 C36.6620929,34.1533621 34.7359621,34.4237946 33.5410127,33.3175726 L33.4672968,33.2466392 L25.7531413,25.5325565 C24.7489529,24.5283776 24.7489529,22.9002819 25.7531413,21.896103 C26.7315812,20.9176723 28.302358,20.8925843 29.3111742,21.8208391 L29.3896291,21.896103 L34.7584068,27.2649506 L44.2144362,11.2636392 Z" id="Path-23" fill="#000000" fill-rule="nonzero"></path>
    </g>
</svg>