<?xml version="1.0" encoding="UTF-8"?>
<svg width="64px" height="64px" viewBox="0 0 64 64" version="1.1" xmlns="http://www.w3.org/2000/svg" xmlns:xlink="http://www.w3.org/1999/xlink">
    <title>checkmark_filled</title>
    <g id="checkmark_filled" stroke="none" stroke-width="1" fill="none" fill-rule="evenodd">
        <path d="M32,4 C47.463973,4 60,16.536027 60,32 C60,47.463973 47.463973,60 32,60 C16.536027,60 4,47.463973 4,32 C4,16.536027 16.536027,4 32,4 Z M47.4782107,16.5652723 C45.9081697,15.5348266 43.7868868,15.9524973 42.7401928,17.4981658 L42.7401928,17.4981658 L28.6954155,40.1444007 L21.9702936,32.2654808 L21.8419727,32.1308522 C20.5735311,30.8702194 18.5100988,30.7931244 17.1467823,31.9861494 C15.7364549,33.2203131 15.609422,35.3463488 16.8630463,36.734783 L16.8630463,36.734783 L26.5295798,47.8709621 L26.6561898,48.003992 C28.1638787,49.5066903 30.7187887,49.2848257 31.9260142,47.502098 L31.9260142,47.502098 L48.4258143,21.2297398 L48.5225263,21.0785186 C49.4439447,19.5504396 48.9976053,17.5624778 47.4782107,16.5652723 Z" id="Oval-2" fill="#000000"></path>
    </g>
</svg>