<?xml version="1.0" encoding="UTF-8"?>
<svg width="32px" height="32px" viewBox="0 0 32 32" version="1.1" xmlns="http://www.w3.org/2000/svg" xmlns:xlink="http://www.w3.org/1999/xlink">
    <title>checkbox-empty</title>
    <g id="checkbox-empty" stroke="none" stroke-width="1" fill="none" fill-rule="evenodd">
        <path d="M23,5 C25.209139,5 27,6.790861 27,9 L27,23 C27,25.209139 25.209139,27 23,27 L9,27 C6.790861,27 5,25.209139 5,23 L5,9 C5,6.790861 6.790861,5 9,5 L23,5 Z M23,7 L9,7 C7.9456382,7 7.08183488,7.81587779 7.00548574,8.85073766 L7,9 L7,23 C7,24.0543618 7.81587779,24.9181651 8.85073766,24.9945143 L9,25 L23,25 C24.0543618,25 24.9181651,24.1841222 24.9945143,23.1492623 L25,23 L25,9 C25,7.9456382 24.1841222,7.08183488 23.1492623,7.00548574 L23,7 Z" id="Rectangle" fill="#000000" fill-rule="nonzero"></path>
    </g>
</svg>