<?xml version="1.0" encoding="UTF-8"?>
<svg width="64px" height="64px" viewBox="0 0 64 64" version="1.1" xmlns="http://www.w3.org/2000/svg" xmlns:xlink="http://www.w3.org/1999/xlink">
    <title>checked</title>
    <g id="checked" stroke="none" stroke-width="1" fill="none" fill-rule="evenodd">
        <path d="M24.4630171,46.8002988 C25.7196609,48.2636395 28.0108272,48.1779214 29.1546169,46.6247747 L47.49474,20.6471218 C48.4772313,19.3130015 48.1921796,17.4350168 46.8580594,16.4525255 C45.5239391,15.4700342 43.6459544,15.7550859 42.6634631,17.0892061 L24.32334,43.0668591 L29.0149399,42.891335 L21.3638521,33.3238383 C20.2844215,32.0668595 18.3903875,31.9229282 17.1334087,33.0023588 C15.8764299,34.0817893 15.7324986,35.9758233 16.8119292,37.2328021 L24.4630171,46.8002988 Z" id="Shape" fill="#000000" fill-rule="nonzero"></path>
        <path d="M50,5 L14,5 C9.02943725,5 5,9.02943725 5,14 L5,50 C5,54.9705627 9.02943725,59 14,59 L50,59 C54.9705627,59 59,54.9705627 59,50 L59,14 C59,9.02943725 54.9705627,5 50,5 Z M14,11 L50,11 C51.6568542,11 53,12.3431458 53,14 L53,50 C53,51.6568542 51.6568542,53 50,53 L14,53 C12.3431458,53 11,51.6568542 11,50 L11,14 C11,12.3431458 12.3431458,11 14,11 Z" id="Rectangle" fill="#000000" fill-rule="nonzero"></path>
    </g>
</svg>