<?xml version="1.0" encoding="UTF-8"?>
<svg width="64px" height="64px" viewBox="0 0 64 64" version="1.1" xmlns="http://www.w3.org/2000/svg" xmlns:xlink="http://www.w3.org/1999/xlink">
    <title>chemical_insect_aerosol</title>
    <g id="chemical_insect_aerosol" stroke="none" stroke-width="1" fill="none" fill-rule="evenodd">
        <path d="M36,54.3069768 C36,54.3069768 40.0185547,56.131236 46.43986,56.131236 C52.8611654,56.131236 56,54.3069768 56,54.3069768 L56,22.731236 C56,22.731236 51.5546061,24.7616528 46,24.7616528 C40.4453939,24.7616528 36,23.031236 36,23.031236 L36,54.3069768 Z" id="Path-16" fill="#000000" fill-rule="nonzero"></path>
        <path d="M37,22.0448102 C37,22.0448102 41.6508789,23.731236 46,23.731236 C50.3491211,23.731236 55,22.0448102 55,22.0448102 C55,22.0448102 52.9018555,17.0448102 48,17.0448102 C47.7560557,17.0448102 46.7280273,17.681529 46,17.681529 C45.2719727,17.681529 44.8253934,17.0448102 43.9350586,17.0448102 C40,17.0448102 37,22.0448102 37,22.0448102 Z" id="Path-17" fill="#000000" fill-rule="nonzero"></path>
        <path d="M44,16.0448102 C44,16.0448102 45.2906087,16.5448102 46,16.5448102 C46.6239421,16.5448102 48,16.0448102 48,16.0448102 L48,12.0448102 C48,12.0448102 46.5967611,11.5448102 46,11.5448102 C45.2634277,11.5448102 44,12.0448102 44,12.0448102 L44,16.0448102 Z" id="Path-18" fill="#000000" fill-rule="nonzero"></path>
        <path d="M45,14.131236 L9.6013261,8.131236 C9.6013261,8.131236 8,12.5996605 8,14.631236 C8,16.9329938 9.6013261,21.131236 9.6013261,21.131236 L45,14.131236 Z" id="Path-19" fill="#000000" fill-rule="nonzero"></path>
    </g>
</svg>