<?xml version="1.0" encoding="UTF-8"?>
<svg width="64px" height="64px" viewBox="0 0 64 64" version="1.1" xmlns="http://www.w3.org/2000/svg" xmlns:xlink="http://www.w3.org/1999/xlink">
    <title>chemical_insect_bait</title>
    <g id="chemical_insect_bait" stroke="none" stroke-width="1" fill="none" fill-rule="evenodd">
        <g id="Ant" transform="translate(36.160530, 33.839471) rotate(45.000000) translate(-36.160530, -33.839471) translate(16.956161, 9.077617)">
            <path d="M18.6379144,14.1066063 L18.2824923,13.7434857 C17.9714979,13.4257552 17.9714979,12.9151169 18.2824923,12.5973864 L18.6379144,12.2342659 C18.9489088,11.9165354 19.4487212,11.9165354 19.7597155,12.2342659 L20.1151377,12.5973864 C20.426132,12.9151169 20.426132,13.4257552 20.1151377,13.7434857 L19.7597155,14.1066063 C19.4598281,14.4243368 18.9489088,14.4243368 18.6379144,14.1066063 L18.6379144,14.1066063 Z" id="Shape" fill="#000000" fill-rule="nonzero"></path>
            <ellipse id="Oval" fill="#000000" fill-rule="nonzero" cx="19.2043684" cy="21.1534148" rx="3.92075047" ry="8"></ellipse>
            <path d="M19.2043684,30.1973864 C15.9389275,30.1973864 13.362117,33.6356843 13.8175017,38.6512872 C14.2839932,43.8030602 18.3491339,48.9661808 19.2043684,48.9661808 C20.059603,48.9661808 24.1247437,43.8030602 24.5912352,38.6512872 C25.0466199,33.6356843 22.4698093,30.1973864 19.2043684,30.1973864 L19.2043684,30.1973864 Z" id="Shape" fill="#000000" fill-rule="nonzero"></path>
            <path d="M18.4824172,30.8101524 L18.0270326,30.3449042 C17.6271827,29.9363935 17.6271827,29.2782375 18.0270326,28.8810744 L18.4824172,28.4158262 C18.8822671,28.0073155 19.5264698,28.0073155 19.9152127,28.4158262 L20.3705973,28.8810744 C20.7704472,29.289585 20.7704472,29.9477411 20.3705973,30.3449042 L19.9152127,30.8101524 C19.5264698,31.2073155 18.8822671,31.2073155 18.4824172,30.8101524 L18.4824172,30.8101524 Z" id="Shape" fill="#000000" fill-rule="nonzero"></path>
            <path d="M19.8929988,5.77752829 C20.1262446,5.89100346 20.2928487,6.14064885 20.2928487,6.4243368 C20.2928487,6.82149992 19.9818544,7.13923041 19.5931114,7.13923041" id="Shape" stroke="#000000" style="mix-blend-mode: overlay;" stroke-linecap="round" stroke-linejoin="bevel"></path>
            <path d="M18.515738,5.77752829 C18.2824923,5.89100346 18.1158881,6.14064885 18.1158881,6.4243368 C18.1158881,6.82149992 18.4268825,7.13923041 18.8156255,7.13923041" id="Shape" stroke="#000000" style="mix-blend-mode: overlay;" stroke-linecap="round" stroke-linejoin="bevel"></path>
            <path d="M20.7744933,26.2612299 C21.1613568,25.9292148 21.7290536,25.9447185 22.0970028,26.2787035 L22.1846084,26.3688179 L23.4403684,27.8308758 L29.618922,31.916462 L30.0623725,32.6510992 L31.2023684,44.0518758 L33.9696406,47.9441008 C34.2650841,48.359565 34.1979988,48.9234973 33.8319248,49.2595365 L33.7342141,49.3385808 C33.3187499,49.6340243 32.7548177,49.566939 32.4187784,49.200865 L32.3397342,49.1031543 L29.4186085,44.9953529 L29.238522,44.5153049 L28.1183684,33.3218758 L22.2181075,29.4201548 L22.0108452,29.2373025 L20.6669052,27.671345 C20.3072223,27.2522429 20.3553911,26.6209128 20.7744933,26.2612299 Z" id="Shape" fill="#000000" fill-rule="nonzero"></path>
            <path d="M29.6256505,21.3902928 L31.1277695,21.8349818 L34.3033684,29.7158758 L37.9775286,32.2572372 C38.3967988,32.5472542 38.5257707,33.1003241 38.2960165,33.5409436 L38.2310649,33.6485385 C37.9410479,34.0678086 37.387978,34.1967805 36.9473585,33.9670263 L36.8397636,33.9020747 L32.9190131,31.190018 L32.5603671,30.7413514 L29.7433684,23.7508758 L24.4549813,27.4640546 L23.4166387,27.5315783 L21.6173142,26.5897344 C21.1280092,26.3336111 20.9389782,25.7293221 21.1951014,25.2400172 C21.4329302,24.7856626 21.970963,24.5902177 22.4383764,24.7696817 L22.5448186,24.8178045 L23.8043684,25.4768758 L29.6256505,21.3902928 Z" id="Shape" fill="#000000" fill-rule="nonzero"></path>
            <path d="M28.2370684,0.558002136 C28.4813004,0.0626546145 29.0808481,-0.140914723 29.5761956,0.103317294 C30.0361612,0.330104167 30.2445425,0.863260153 30.0764187,1.33487117 L30.0308805,1.44244451 L28.6813684,4.1788758 L30.1145157,11.3344067 L29.9031119,12.1698031 L25.1604478,17.8776045 L24.7629407,18.166902 L22.8636536,18.9271857 C22.3509231,19.1324314 21.7688882,18.8831658 21.5636425,18.3704353 C21.3730571,17.8943283 21.5743719,17.3584641 22.0146243,17.12001 L22.1203929,17.0704241 L23.7823684,16.4048758 L28.0593684,11.2578758 L26.653996,4.2376712 L26.7376313,3.59913689 L28.2370684,0.558002136 Z" id="Shape" fill="#000000" fill-rule="nonzero"></path>
            <path d="M16.2241285,26.3688179 C16.5838114,25.9497157 17.2151415,25.9015469 17.6342436,26.2612299 C18.0211072,26.5932449 18.0919092,27.1567225 17.8176123,27.571082 L17.7418317,27.671345 L16.3978917,29.2373025 L16.1906293,29.4201548 L10.2893684,33.3218758 L9.17021489,44.5153049 L8.99012842,44.9953529 L6.06900271,49.1031543 C5.74893893,49.5532406 5.12460898,49.6586446 4.67452275,49.3385808 C4.25905853,49.0431373 4.13728803,48.4884374 4.37275131,48.0508422 L4.43909628,47.9441008 L7.20536844,44.0518758 L8.3463644,32.6510992 L8.78981486,31.916462 L14.9673684,27.8308758 L16.2241285,26.3688179 Z" id="Shape" fill="#000000" fill-rule="nonzero"></path>
            <path d="M8.78308637,21.3902928 L14.6033684,25.4768758 L15.8639183,24.8178045 C16.3182729,24.5799757 16.8717718,24.725979 17.1535916,25.139815 L17.2136355,25.2400172 C17.4514642,25.6943718 17.3054609,26.2478708 16.8916249,26.5296905 L16.7914227,26.5897344 L14.9920981,27.5315783 L13.9537556,27.4640546 L8.66436844,23.7508758 L5.84836983,30.7413514 L5.48972376,31.190018 L1.5689733,33.9020747 C1.11476394,34.2162599 0.49185712,34.1027478 0.177671977,33.6485385 C-0.112345079,33.2292683 -0.0379337535,32.6662559 0.332478181,32.3350044 L0.431208244,32.2572372 L4.10436844,29.7158758 L7.28096743,21.8349818 L8.78308637,21.3902928 Z" id="Shape" fill="#000000" fill-rule="nonzero"></path>
            <path d="M8.83254125,0.103317294 C9.29250681,-0.123469579 9.84231842,0.0358579813 10.114062,0.456379091 L10.1716685,0.558002136 L11.6711056,3.59913689 L11.7547408,4.2376712 L10.3483684,11.2578758 L14.6253684,16.4048758 L16.288344,17.0704241 C16.764451,17.2610095 17.0133866,17.7764793 16.8821885,18.2596662 L16.8450944,18.3704353 C16.6545091,18.8465422 16.1390393,19.0954779 15.6558523,18.9642797 L15.5450833,18.9271857 L13.6457962,18.166902 L13.2482891,17.8776045 L8.50562495,12.1698031 L8.29422118,11.3344067 L9.72636844,4.1788758 L8.37785641,1.44244451 C8.15106954,0.982478952 8.3103971,0.432667345 8.73091821,0.160923769 L8.83254125,0.103317294 Z" id="Shape" fill="#000000" fill-rule="nonzero"></path>
            <path d="M23.0029426,11.2583793 C22.536451,11.1789467 22.1921358,10.7590886 22.1921358,10.2597978 C22.1921358,10.0101524 22.2809913,9.79454956 22.4142746,9.61298928 C22.347633,9.52220914 22.2698844,9.44277651 22.1921358,9.35199637 L20.237314,7.11653538 C19.6042183,6.73071978 18.8156255,6.73071978 18.1936367,7.11653538 L16.238815,9.35199637 C16.1721733,9.42008148 16.1055317,9.48816658 16.049997,9.56759921 C16.2166011,9.74915949 16.3165636,9.98745736 16.3165636,10.2597978 C16.3165636,10.7817836 15.9278206,11.2129893 15.4280082,11.2697269 C15.4169013,11.7009325 15.4946499,12.1434857 15.6723609,12.5406489 C15.8833928,13.0172446 16.4054191,13.26689 16.8941245,13.1193723 C17.371723,12.983202 18.1269951,12.4952588 19.2154754,12.4952588 C20.3039557,12.4952588 21.0592277,12.983202 21.5368262,13.1193723 C22.0366386,13.26689 22.5475579,13.0172446 22.7585898,12.5406489 C22.9363009,12.1321382 23.0140495,11.7009325 23.0029426,11.2583793 L23.0029426,11.2583793 Z" id="Shape" fill="#000000" fill-rule="nonzero"></path>
            <path d="M22.7474829,2.36121623 C22.9929428,2.36121623 23.1970913,2.53809139 23.2394272,2.7713406 L23.2474829,2.86121623 C23.2474829,2.94440362 23.280088,3.06150571 23.3481606,3.20260798 C23.4422846,3.3977102 23.593742,3.61813038 23.7862213,3.84810906 C23.8994622,3.98341187 24.0132237,4.10713322 24.1169218,4.21298518 L24.307764,4.39900015 L24.3872417,4.47064495 L24.1890143,5.32958959 C22.5649211,5.77018696 21.6845096,6.86520754 21.3622307,8.62504236 C21.3124879,8.8966676 21.0519677,9.07653886 20.7803425,9.02679609 C20.5087172,8.97705331 20.3288459,8.71653306 20.3785887,8.44490783 C20.7041398,6.66720476 21.5591244,5.38416186 23.0235136,4.69378795 L23.1473684,4.6378758 L23.0193636,4.48992623 C22.8264618,4.25944276 22.6626093,4.03103399 22.5356623,3.80561213 L22.4474946,3.63712003 C22.3192079,3.37120455 22.2474829,3.11360272 22.2474829,2.86121623 C22.2474829,2.58507385 22.4713405,2.36121623 22.7474829,2.36121623 Z" id="Shape" fill="#000000" fill-rule="nonzero"></path>
            <path d="M15.5057568,2.36121623 C15.7818992,2.36121623 16.0057568,2.58507385 16.0057568,2.86121623 C16.0057568,3.11360272 15.9340318,3.37120455 15.8057451,3.63712003 C15.6977419,3.86099143 15.5508691,4.08807778 15.372983,4.31746689 L15.2338761,4.48992623 L15.1043684,4.6378758 L15.2297261,4.69378795 C16.6243825,5.35128691 17.4662909,6.54635412 17.8245335,8.19432586 L17.874651,8.44490783 C17.9243938,8.71653306 17.7445225,8.97705331 17.4728972,9.02679609 C17.201272,9.07653886 16.9407518,8.8966676 16.891009,8.62504236 C16.5833792,6.94520003 15.7672029,5.87110787 14.2811005,5.39372836 L14.0642254,5.32958959 L13.865998,4.47064495 L13.9454757,4.39900015 L14.1363179,4.21298518 C14.240016,4.10713322 14.3537775,3.98341187 14.4670184,3.84810906 C14.6594977,3.61813038 14.8109551,3.3977102 14.9050791,3.20260798 C14.9561335,3.09678127 14.9872375,3.00445468 14.9995986,2.92981087 L15.0057568,2.86121623 C15.0057568,2.58507385 15.2296144,2.36121623 15.5057568,2.36121623 Z" id="Shape" fill="#000000" fill-rule="nonzero"></path>
        </g>
        <g id="target" transform="translate(4.000000, 4.000000)" fill="#000000" fill-rule="nonzero">
            <path d="M10,0 C15.5228475,0 20,4.4771525 20,10 C20,15.5228475 15.5228475,20 10,20 C4.4771525,20 0,15.5228475 0,10 C0,4.4771525 4.4771525,0 10,0 Z M10,2 C5.581722,2 2,5.581722 2,10 C2,14.418278 5.581722,18 10,18 C14.418278,18 18,14.418278 18,10 C18,5.581722 14.418278,2 10,2 Z" id="Oval"></path>
            <circle id="Oval" cx="10" cy="9.86876382" r="2"></circle>
            <path d="M10,4 C13.3137085,4 16,6.6862915 16,10 C16,13.3137085 13.3137085,16 10,16 C6.6862915,16 4,13.3137085 4,10 C4,6.6862915 6.6862915,4 10,4 Z M10,6 C7.790861,6 6,7.790861 6,10 C6,12.209139 7.790861,14 10,14 C12.209139,14 14,12.209139 14,10 C14,7.790861 12.209139,6 10,6 Z" id="Oval"></path>
        </g>
    </g>
</svg>