<?xml version="1.0" encoding="UTF-8"?>
<svg width="64px" height="64px" viewBox="0 0 64 64" version="1.1" xmlns="http://www.w3.org/2000/svg" xmlns:xlink="http://www.w3.org/1999/xlink">
    <title>chemical_insect_dust</title>
    <g id="chemical_insect_dust" stroke="none" stroke-width="1" fill="none" fill-rule="evenodd">
        <path d="M35.9444444,12 C37.3251563,12 38.4444444,13.1192881 38.4444444,14.5 L38.444,15.541 L42.318,21.364 L42.4449908,21.4823846 C43.3720479,22.3929406 43.9275802,23.6117744 43.9934005,24.906572 L44,25.1664755 L44,55.8536585 C44,58.4049694 42.3485793,60 39.7777778,60 L24.2222222,60 C21.6514207,60 20,58.4049694 20,55.8536585 L20,25.1664755 C20,23.7756557 20.5661483,22.4536444 21.5550092,21.4823846 L21.682,21.364 L25.555,15.541 L25.5555556,14.5 C25.5555556,13.1745166 26.5870915,12.0899613 27.8911799,12.0053177 L28.0555556,12 L35.9444444,12 Z M29.555,16 L29.5466917,16.2055492 C29.5172343,16.5544283 29.4148003,16.8932866 29.2460593,17.2000614 L29.1369111,17.3800998 L24.8644698,23.8011008 L24.6936377,24.0578423 L24.4534041,24.251201 C24.1622885,24.4855136 24,24.8201749 24,25.1664755 L24.0001301,55.9246164 C24.0001697,55.9453583 24.0001584,55.9632681 23.9999548,55.978582 L23.999,55.987 L24.0400838,55.9928195 C24.0661653,55.9950892 24.0943821,55.9968843 24.1247374,55.998112 L24.2222222,56 L39.7777778,56 C39.847049,56 39.9077533,55.9973589 39.9599162,55.9928195 L40,55.987 C40,55.9632681 39.9998303,55.9453583 40,55.9246164 L40,55.8536585 L40,25.1664755 C40,24.8201749 39.8377115,24.4855136 39.5465959,24.251201 L39.3063623,24.0578423 L39.1355302,23.8011008 L34.8630889,17.3800998 C34.5900929,16.9698173 34.4444444,16.4880025 34.4444444,15.9951958 L29.555,16 Z" id="Path-36" fill="#000000" fill-rule="nonzero"></path>
        <path d="M30.4153067,4.39523546 L29.1295924,10.3952355 C29.0717325,10.6652481 29.2437164,10.9310413 29.5137291,10.9889012 C29.5481623,10.9962798 29.5832787,11 29.6184936,11 L34.3815064,11 C34.6576488,11 34.8815064,10.7761424 34.8815064,10.5 C34.8815064,10.4647851 34.8777861,10.4296687 34.8704076,10.3952355 L33.5846933,4.39523546 C33.5352929,4.16470006 33.331561,4 33.0957921,4 L30.9042079,4 C30.668439,4 30.4647071,4.16470006 30.4153067,4.39523546 Z" id="Path-60" fill="#000000" fill-rule="nonzero"></path>
        <path d="M34,30 C36.209139,30 38,31.790861 38,34 L38,50 C38,52.209139 36.209139,54 34,54 L30,54 C27.790861,54 26,52.209139 26,50 L26,34 C26,31.790861 27.790861,30 30,30 L34,30 Z M34,34 L30,34 L30,50 L34,50 L34,34 Z" id="Rectangle" fill="#000000" fill-rule="nonzero"></path>
    </g>
</svg>