<?xml version="1.0" encoding="UTF-8"?>
<svg width="64px" height="64px" viewBox="0 0 64 64" version="1.1" xmlns="http://www.w3.org/2000/svg" xmlns:xlink="http://www.w3.org/1999/xlink">
    <title>chemical_fumigants</title>
    <g id="chemical_fumigants" stroke="none" stroke-width="1" fill="none" fill-rule="evenodd">
        <path d="M27,54.6583194 C27,54.6583194 29.0092773,55.7199285 32.21993,55.7199285 C35.4305827,55.7199285 37,54.6583194 37,54.6583194 L37,36.2831391 C37,36.2831391 34.7773031,37.4647195 32,37.4647195 C29.2226969,37.4647195 27,36.4577211 27,36.4577211 L27,54.6583194 Z" id="Path-34" fill="#000000" fill-rule="nonzero"></path>
        <path d="M27.5,35.8542823 C27.5,35.8542823 29.8254395,36.865079 32,36.865079 C34.1745605,36.865079 36.5,35.8542823 36.5,35.8542823 C36.5,35.8542823 35.4509277,33.95538 33,33.95538 C32.8780278,33.95538 32.3640137,34.2324577 32,34.2324577 C31.6359863,34.2324577 31.4126967,33.95538 30.9675293,33.95538 C29,33.95538 27.5,35.8542823 27.5,35.8542823 Z" id="Path-32" fill="#000000" fill-rule="nonzero"></path>
        <path d="M31,33.4586034 C31,33.4586034 31.6453044,33.6060887 32,33.6060887 C32.311971,33.6060887 33,33.4586034 33,33.4586034 L33,32.2787213 C33,32.2787213 32.2983805,32.131236 32,32.131236 C31.6317139,32.131236 31,32.2787213 31,32.2787213 L31,33.4586034 Z" id="Path-33" fill="#000000" fill-rule="nonzero"></path>
        <path d="M32,8.131236 C34.574587,8.131236 36.8651179,8.8913539 38.3284272,10.0721112 C39.6415446,9.48019401 41.2555695,9.131236 43,9.131236 C47.418278,9.131236 51,11.3698123 51,14.131236 C51,16.4043411 48.5730279,18.3231651 45.2502697,18.9307167 L32,32.131236 L18.8210472,18.9435308 C15.4617565,18.3505505 13,16.4205727 13,14.131236 C13,11.3698123 16.581722,9.131236 21,9.131236 C22.7444305,9.131236 24.3584554,9.48019401 25.6731199,10.0725133 C27.1348821,8.8913539 29.425413,8.131236 32,8.131236 Z" id="Path-57" fill="#000000" fill-rule="nonzero"></path>
    </g>
</svg>