<?xml version="1.0" encoding="UTF-8"?>
<svg width="64px" height="64px" viewBox="0 0 64 64" version="1.1" xmlns="http://www.w3.org/2000/svg" xmlns:xlink="http://www.w3.org/1999/xlink">
    <title>chemical_backpack_sprayer</title>
    <g id="chemical_backpack_sprayer" stroke="none" stroke-width="1" fill="none" fill-rule="evenodd">
        <path d="M34,10.131236 L34,14.131236 L33,14.131236 L33,15.131236 L37.0010987,15.131236 C37.2450813,15.131236 37.4861494,15.1437241 37.7236988,15.1680958 L37.7460605,15.155904 L37.7558419,15.1714684 C41.1878212,15.5395515 43.8776561,18.389051 43.9959414,21.889862 L43.9959414,21.889862 L44,22.1304565 L44,50.1320155 C44,50.4716257 43.975849,50.805569 43.9291682,51.1322214 L44,51.131236 C44,55.7039706 48.3701292,58.7921102 52.4253927,56.3128067 C54.3010059,54.9959661 54.5575081,52.5790229 53.5796525,48.6137354 L53.4507406,48.1072801 C53.36082,47.7644513 53.2618525,47.4069904 53.1473086,47.0094088 L52.2044385,43.8238875 C51.8515809,42.6055085 51.6710251,41.8939762 51.5816255,41.3161248 C51.2636834,41.070953 51.0473149,40.6989915 51.0068666,40.275696 L51,40.131236 L51,14.131236 L51.4393398,13.0705758 L53.4393398,11.0705758 C54.0251263,10.4847894 54.9748737,10.4847894 55.5606602,11.0705758 C56.109835,11.6197506 56.1441584,12.488813 55.6636304,13.0779738 L55.5606602,13.1918962 L54,14.751236 L54,34.999236 L56.2543014,34.9999998 L57.4615239,39.2252787 C57.6132482,39.7563137 57.3057561,40.3097995 56.7747211,40.4615238 C56.2816172,40.6024106 55.7691552,40.3473405 55.5769832,39.8850067 L55.5384761,39.7747209 L54.745,36.999236 L54,36.999236 L54,40.131236 C54,40.5297135 53.8446211,40.8919003 53.5911452,41.1605144 C53.7006277,41.7817456 53.9377115,42.6434201 54.4229177,44.2786866 L54.9797898,46.1480966 C55.1695368,46.7963565 55.320442,47.3406939 55.4552886,47.8706683 L55.5214792,48.1348732 C56.677598,52.8230329 56.3395406,56.0084459 53.5219721,57.9841985 C49.0265096,60.7352057 44.2526753,58.4871632 42.6020835,54.3292248 C41.4691949,55.8412646 39.7368412,56.8785411 37.7560027,57.0909373 L37.7460605,57.106568 L37.7239716,57.0942977 C37.4859143,57.1187214 37.2443048,57.131236 36.9997475,57.131236 L36.9997475,57.131236 L15.0002525,57.131236 C11.1343761,57.131236 8,53.9971531 8,50.1320155 L8,50.1320155 L8,22.1304565 C8,18.2665356 11.1369751,15.131236 14.9989013,15.131236 L14.9989013,15.131236 L19,15.131236 L19,14.131236 L18,14.131236 L18,10.131236 L34,10.131236 Z M31,14.131236 L21,14.131236 L21,17.131236 L18.5725827,17.1303767 C18.8745705,17.9994959 19.1696881,19.0152538 19.4463126,20.1849449 C20.420578,24.3045719 21,29.5801449 21,36.131236 C21,42.6823271 20.420578,47.9579001 19.4463126,52.0775271 C19.1695802,53.2476744 18.8743403,54.2637684 18.5722294,55.1331122 L34.265,55.131236 L34.3171947,55.0247198 L34.45061,54.7229684 C34.4981636,54.6099712 34.5486772,54.4844779 34.6017851,54.3462401 C34.92085,53.5157261 35.2460231,52.4578875 35.5536874,51.1569461 C36.454422,47.3482402 37,42.380813 37,36.131236 C37,29.881659 36.454422,24.9142318 35.5536874,21.1055259 C35.2460231,19.8045845 34.92085,18.7467459 34.6017851,17.9162319 C34.5221233,17.7088752 34.4482986,17.5301936 34.3815452,17.3793489 L34.265,17.131236 L31,17.131236 L31,14.131236 Z M14.288974,17.1814032 C11.8667134,17.5266962 10,19.6124454 10,22.1304565 L10,22.1304565 L10,50.1320155 C10,52.6516648 11.8652277,54.7365766 14.2904802,55.0812411 L14.3171947,55.0247198 L14.45061,54.7229684 C14.4981636,54.6099712 14.5486772,54.4844779 14.6017851,54.3462401 C14.92085,53.5157261 15.2460231,52.4578875 15.5536874,51.1569461 C16.454422,47.3482402 17,42.380813 17,36.131236 C17,29.881659 16.454422,24.9142318 15.5536874,21.1055259 C15.2460231,19.8045845 14.92085,18.7467459 14.6017851,17.9162319 C14.5221233,17.7088752 14.4482986,17.5301936 14.3815452,17.3793489 L14.288974,17.1814032 Z M38.6682747,17.4160919 L38.7168775,17.5585883 C38.96848,18.3282844 39.2139221,19.2022949 39.4463126,20.1849449 C40.420578,24.3045719 41,29.5801449 41,36.131236 C41,42.6823271 40.420578,47.9579001 39.4463126,52.0775271 C39.1991917,53.1224639 38.9373122,54.0445521 38.6689604,54.8489925 C40.6107287,54.1604092 42,52.3095833 42,50.1320155 L42,50.1320155 L42,22.1304565 C42,19.9544592 40.6092633,18.1027505 38.6682747,17.4160919 Z" id="Combined-Shape" fill="#000000" fill-rule="nonzero"></path>
    </g>
</svg>