<?xml version="1.0" encoding="UTF-8"?>
<svg width="64px" height="64px" viewBox="0 0 64 64" version="1.1" xmlns="http://www.w3.org/2000/svg" xmlns:xlink="http://www.w3.org/1999/xlink">
    <title>chemical_insect_spray</title>
    <g id="chemical_insect_spray" stroke="none" stroke-width="1" fill="none" fill-rule="evenodd">
        <path d="M36.0008584,48.420509 L36,52 C36,55.4076027 30.6920088,57 24,57 C17.3079912,57 12,55.4076027 12,52 L11.9994839,48.6671673 C13.2168152,49.2679838 14.5515164,49.7487701 15.9999218,50.1140939 L16,51.2769167 L16.0521068,51.3186711 C16.3270866,51.5243707 16.7421315,51.7448628 17.2703822,51.9522067 L17.503628,52.0401819 C19.1663756,52.6429279 21.4952397,53 24,53 C26.5047603,53 28.8336244,52.6429279 30.496372,52.0401819 C31.2164325,51.77916 31.7556998,51.489805 32.057088,51.2315013 L32,51.2757083 L32.0007425,49.9903329 C33.4555158,49.5811156 34.7860151,49.0539034 36.0008584,48.420509 Z M35.99512,24.8223274 L36,25 L36.0007322,41.0730188 C35.3970754,41.6466225 34.7238168,42.1692196 33.9724005,42.63198 C33.3661732,43.0053256 32.7102833,43.339416 32.0008995,43.6306895 L32.0007819,28.958752 C29.8869794,29.6602371 27.0911406,30 24,30 C20.9088594,30 18.1130206,29.6602371 15.9992181,28.958752 L15.9993081,43.8752551 C14.6217839,43.3738132 13.4449203,42.6887914 12.4713609,41.7890641 C12.3082357,41.6383098 12.1511283,41.4816439 11.9999826,41.318985 L12,25 C12,23.4081171 13.1583893,22.2123754 15.0751195,21.3900599 C15.5205921,21.8007299 15.9119193,22.4051822 16.2397649,23.1752031 C16.5642883,23.9374209 17.1670389,24.4959406 17.8792131,24.782775 L17.7466075,24.7241964 C17.6641277,24.7471036 17.5831167,24.7704856 17.503628,24.7943322 C17.3436145,24.8423363 17.1925292,24.8914982 17.0509983,24.9412788 L16.89,25 L17.0509983,25.0587212 C17.1217637,25.0836115 17.1949178,25.1083471 17.2703822,25.1328607 L17.503628,25.2056678 C19.1663756,25.7044921 21.4952397,26 24,26 C26.5047603,26 28.8336244,25.7044921 30.496372,25.2056678 C30.6563855,25.1576637 30.8074708,25.1085018 30.9490017,25.0587212 L31.109,25 L30.9490017,24.9412788 C30.8782363,24.9163885 30.8050822,24.8916529 30.7296178,24.8671393 L30.496372,24.7943322 C29.4788153,24.4890652 28.2117905,24.2599424 26.8076517,24.1280932 C26.9503693,23.7811063 27.028544,23.3996861 27.028544,23 L27.0409965,20.1191566 C32.1230143,20.537206 35.8424456,22.0632111 35.99512,24.8223274 Z" id="Rectangle-2" fill="#000000" fill-rule="nonzero"></path>
        <path d="M30,8 C31.1045695,8 32,8.8954305 32,10 C32,14.3725401 29.9116223,17.3441907 26.0482993,18.5649818 L26.028,18.57 L26.028544,23 C26.028544,24.0543618 25.2126662,24.9181651 24.1778063,24.9945143 L24.028544,25 C22.9239745,25 22.028544,24.1045695 22.028544,23 L22.028,18.581 L21.9749785,18.5655598 C18.187591,17.3739207 16.098517,14.5117387 16.0033991,10.302916 L16,10 C16,8.8954305 16.8954305,8 18,8 L30,8 Z M27.746,12 L20.254,12 L20.2649578,12.0349719 C20.7430894,13.5929708 21.8871113,14.5027265 23.8483928,14.9300768 L24.013,14.963 L24.1749264,14.9304786 C26.1237486,14.5037483 27.2610998,13.5946105 27.7365194,12.0360936 L27.746,12 Z" id="Path-289" fill="#000000" fill-rule="nonzero"></path>
        <path d="M61.0142619,16.3618529 C61.2733378,17.4356096 60.6129085,18.5160839 59.5391518,18.7751598 L55.8893002,19.6548129 L55.7496333,19.8413751 C53.0892893,23.3765839 51.8483632,25.0255936 50.7246824,26.5188012 L50.4934426,26.8260852 L50.2629858,27.1323287 C49.4932541,28.1551897 48.6938603,29.2174674 47.4376701,30.8867608 C45.4636568,33.5099363 45.0688542,34.0345714 44.73722,34.4752649 L44.6443642,34.5986566 C44.592315,34.6678223 44.5383381,34.7395498 44.4766502,34.821524 C44.3150089,35.0363217 44.1252097,35.2058031 43.9187031,35.3323392 C44.3285221,35.8597686 44.4633715,36.580897 44.2136235,37.253221 C41.3532502,44.9533731 35.2456077,50 23.9995,50 C11.2697598,50 4,44.6056143 4,31.2138582 C4,24.1814116 6.129825,18.8648499 9.67159503,16.6938374 C13.5041013,14.3446112 18.7514803,16.3107936 20.8401567,21.2165313 C21.2728545,22.2328218 20.7997592,23.4074589 19.7834687,23.8401567 C18.7671782,24.2728545 17.5925411,23.7997592 17.1598433,22.7834687 C14.5470851,16.6468043 8,20.0470224 8,31.2138582 C8,42.0938391 13.2641492,46 23.9995,46 C33.7610866,46 38.3157484,41.6433797 40.4639728,35.8603393 C40.626731,35.4221925 40.9267476,35.0749811 41.2971706,34.8493425 C41.1314545,34.636969 41.0052387,34.3817041 40.934383,34.0880384 L40.9066848,33.9732412 C40.8890586,33.9001885 40.8728714,33.8330993 40.8566841,33.76601 L40.8322233,33.6646307 C40.8239498,33.6303407 40.8154964,33.5953052 40.8066834,33.5587788 L40.7789851,33.4439817 C40.7401356,33.2829675 40.6926529,33.0861725 40.6250261,32.8058885 L40.570349,32.579276 C40.5507444,32.4980235 40.529701,32.4108075 40.5070388,32.3168826 L40.4340161,32.0142356 C40.3818571,31.7980592 40.3225037,31.5520653 40.2545172,31.2702905 L40.1458825,30.8200472 C40.068903,30.5010006 39.9825708,30.1431914 39.8854471,29.740656 C39.6263712,28.6668993 40.2868005,27.586425 41.3605572,27.3273491 C42.4343139,27.0682732 43.5147882,27.7287025 43.7738641,28.8024592 L43.8282296,29.0299464 L43.8895615,28.9493377 C43.9452657,28.8753149 44.0024195,28.7993658 44.0610693,28.7214288 L44.2415527,28.4815927 C45.497743,26.8122992 46.2971368,25.7500216 47.0668684,24.7271605 L47.4126871,24.267618 C48.1875332,23.2379606 48.9971817,22.1620559 50.2761312,20.4625188 L50.6368976,19.9831129 C51.3208315,19.0742645 52.1319657,17.9963857 53.1246123,16.6773032 C53.403539,16.3066504 53.8026341,16.0444811 54.2535726,15.9356787 L58.600955,14.8867428 C59.6747117,14.6276669 60.755186,15.2880962 61.0142619,16.3618529 Z" id="Combined-Shape" fill="#000000" fill-rule="nonzero"></path>
    </g>
</svg>