<?xml version="1.0" encoding="UTF-8"?>
<svg width="64px" height="64px" viewBox="0 0 64 64" version="1.1" xmlns="http://www.w3.org/2000/svg" xmlns:xlink="http://www.w3.org/1999/xlink">
    <title>chemical_mole_bait</title>
    <g id="chemical_mole_bait" stroke="none" stroke-width="1" fill="none" fill-rule="evenodd">
        <g id="mole" transform="translate(32.828427, 34.085786) scale(-1, 1) rotate(45.000000) translate(-32.828427, -34.085786) translate(-0.171573, 20.585786)" fill="#000000" fill-rule="nonzero">
            <path d="M28.9473684,0 C35.8947369,0 40.5263158,2.92846182 44,2.92846182 C47.4736842,2.92846182 50.3684211,2.92846182 52.6842106,3.51415419 C55,4.09984655 60.2105263,8.19969311 61.3684211,8.78538547 C61.5646021,8.8846188 61.8272608,9.00066514 62.1282389,9.1335245 C61.9887813,10.7053507 61.9805056,12.3490339 62.1007702,14.0539326 C60.7851341,14.2599927 59.5282127,14.4017482 59.0526316,14.6423091 C57.8947369,15.2280015 56.1518848,16.317453 53.8421053,16.9850786 C53.701922,17.0255976 53.5604473,17.0661563 53.4176174,17.106726 C53.8975846,17.509571 54.3060312,17.9506693 54.641659,18.4308082 L54.8214256,18.7028708 L52.862785,19.9528253 C52.4447679,19.2824538 51.7775622,18.6850394 50.8484064,18.1695898 C51.22711,18.5268955 51.634508,18.9319497 52.0718875,19.385289 L52.3612923,19.6876807 L50.6913393,21.3107848 L50.1822358,20.7828226 C49.3322072,19.9155969 48.6308116,19.2756799 48.0985111,18.8717333 C48.5803645,19.409162 49.024775,20.0285409 49.4327282,20.727245 L49.6461929,21.1061938 L47.6169651,22.2350413 C46.7467394,20.6340521 45.7261322,19.5895283 44.5560497,19.0568392 C42.3147811,19.4068283 39.79013,19.7002384 36.9014695,19.9015305 C32.9448927,20.1772388 30.0490938,20.5282965 27.5476705,20.8589928 C27.7296622,21.0328846 27.8930081,21.2174079 28.0381474,21.4126596 L28.173953,21.6065425 L26.2470997,22.9060772 C25.8382279,22.2856242 24.9211103,21.7630068 23.4787288,21.393337 C23.391823,21.4038394 23.3061635,21.4141262 23.2204813,21.4242999 C23.6897768,21.7256011 24.1664048,22.0438674 24.64941,22.3768974 L25.268881,22.8096391 L23.9416453,24.7294644 C22.3645596,23.6136228 20.8646257,22.6631598 19.442771,21.8779157 C20.423567,22.880033 21.6211502,23.8176298 23.0373217,24.6893513 L23.5088877,24.9724544 L22.3486807,27 C19.7792955,25.4952824 17.7735946,23.7709239 16.3425205,21.8214254 C13.826387,21.7756639 11.8893569,21.5290406 11,21.3777713 C7.55654199,20.792079 3.88987532,19.7183096 0,18.1564633 C2.31578948,17.3755402 3.47368422,16.594617 3.47368422,15.8136939 C3.47368422,14.6423091 5.78947369,7.02830838 11,4.09984655 C16.2105263,1.17138473 22,0 28.9473684,0 Z M66,12.2995397 C66,13.1861315 64.5259749,13.6253639 62.916708,13.9182103 C62.790169,12.3535333 62.7946241,10.8831437 62.9279383,9.49242998 C64.3373946,10.1486714 66,11.0839409 66,12.2995397 Z M55.5789474,8.19969311 C54.9394598,8.19969311 54.4210527,8.72413991 54.4210527,9.37107788 C54.4210527,10.0180158 54.9394598,10.5424626 55.5789474,10.5424626 C56.218435,10.5424626 56.7368421,10.0180158 56.7368421,9.37107788 C56.7368421,8.72413991 56.218435,8.19969311 55.5789474,8.19969311 Z" id="Path-126"></path>
        </g>
        <g id="target" transform="translate(4.000000, 4.000000)" fill="#000000" fill-rule="nonzero">
            <path d="M10,0 C15.5228475,0 20,4.4771525 20,10 C20,15.5228475 15.5228475,20 10,20 C4.4771525,20 0,15.5228475 0,10 C0,4.4771525 4.4771525,0 10,0 Z M10,2 C5.581722,2 2,5.581722 2,10 C2,14.418278 5.581722,18 10,18 C14.418278,18 18,14.418278 18,10 C18,5.581722 14.418278,2 10,2 Z" id="Oval"></path>
            <circle id="Oval" cx="10" cy="9.86876382" r="2"></circle>
            <path d="M10,4 C13.3137085,4 16,6.6862915 16,10 C16,13.3137085 13.3137085,16 10,16 C6.6862915,16 4,13.3137085 4,10 C4,6.6862915 6.6862915,4 10,4 Z M10,6 C7.790861,6 6,7.790861 6,10 C6,12.209139 7.790861,14 10,14 C12.209139,14 14,12.209139 14,10 C14,7.790861 12.209139,6 10,6 Z" id="Oval"></path>
        </g>
    </g>
</svg>