<?xml version="1.0" encoding="UTF-8"?>
<svg width="64px" height="64px" viewBox="0 0 64 64" version="1.1" xmlns="http://www.w3.org/2000/svg" xmlns:xlink="http://www.w3.org/1999/xlink">
    <title>chemical_rodenticide_non_block</title>
    <g id="chemical_rodenticide_non_block" stroke="none" stroke-width="1" fill="none" fill-rule="evenodd">
        <g id="mouse" transform="translate(38.033564, 32.955215) rotate(45.000000) translate(-38.033564, -32.955215) translate(23.102164, 5.967925)" fill="#000000" fill-rule="nonzero">
            <path d="M12.846182,42.8616307 C13.3984667,42.8616307 13.846182,43.3093459 13.846182,43.8616307 C13.846182,46.0170792 13.2160827,47.455072 11.9738276,47.9882183 C10.9493048,48.427919 9.7695188,48.111736 8.8307425,47.3364215 L8.66765858,47.1948956 C5.84308347,44.63108 3.17336547,45.0624587 2.25057648,47.5627416 C1.34216754,50.028343 3.16256022,51.9745803 5.48654893,51.9745803 C7.81909152,51.9745803 10.4238283,50.7951822 12.0282781,49.3156536 L12.2235324,49.129213 C14.0120463,47.3593869 16.723224,46.6249264 19.1167277,47.4758824 L19.8024055,47.7220827 C21.8465419,48.4649105 22.7428699,48.8865307 24.2119755,49.7978421 C25.614485,50.6639471 27.5639909,50.2489347 27.8470213,48.9707555 L27.8702649,48.8354681 C27.9380884,48.2873637 28.4373966,47.8980191 28.985501,47.9658426 C29.5336054,48.0336661 29.92295,48.5329743 29.8551265,49.0810787 C29.4713182,52.1827617 25.6943265,53.0638736 23.1594155,51.4984636 L22.7523693,51.250169 C21.5091139,50.506548 20.6405891,50.1402965 18.4467555,49.3603286 C16.8124074,48.7792731 14.8959012,49.2984564 13.6302994,50.5508342 C11.6953106,52.4656046 8.48206629,53.9745803 5.48654893,53.9745803 C1.89866447,53.9745803 -1.07273733,50.797764 0.374092673,46.8707819 C1.81869262,42.9566593 6.1950419,42.2495195 10.0132741,45.7152621 C10.4527753,46.1157228 10.9290555,46.2601977 11.1850501,46.1503309 C11.5426187,45.996871 11.846182,45.3040883 11.846182,43.8616307 C11.846182,43.3093459 12.2938972,42.8616307 12.846182,42.8616307 Z" id="Shape"></path>
            <path d="M8.84541461,0.0832454603 C9.05412808,-0.0459413891 9.32080499,-0.00298964472 9.47956337,0.1730595 L9.5337151,0.245240617 L10.7924307,2.27881376 C10.9377659,2.51361642 10.8652382,2.82177905 10.6304355,2.96711425 C10.4217221,3.0963011 10.1550452,3.05334936 9.99628677,2.87730021 L9.94213505,2.8051191 L8.68341945,0.771545954 C8.53808424,0.536743293 8.61061195,0.228580666 8.84541461,0.0832454603 Z" id="Shape"></path>
            <path d="M7.23904659,1.19976565 C7.39879887,1.0134064 7.66595252,0.973527181 7.87059456,1.09318988 L7.94407323,1.14556743 L10.1532475,3.03933242 C10.3629017,3.21905373 10.3871671,3.5347049 10.2074458,3.74435905 C10.0476935,3.9307183 9.78053983,3.97059752 9.57589779,3.85093482 L9.50241912,3.79855727 L7.29324481,1.90479228 C7.08359065,1.72507097 7.05932529,1.4094198 7.23904659,1.19976565 Z" id="Shape"></path>
            <path d="M7.20239014,3.64267397 C7.31717937,3.42570856 7.56899176,3.32797449 7.79496237,3.39963206 L7.87817192,3.43454185 L9.17541963,4.12087278 C9.41950571,4.25001067 9.51268964,4.55256848 9.38355175,4.79665457 C9.26876251,5.01361998 9.01695013,5.11135405 8.79097952,5.03969648 L8.70776996,5.00478669 L7.41052226,4.31845575 C7.16643617,4.18931786 7.07325225,3.88676005 7.20239014,3.64267397 Z" id="Shape"></path>
            <path d="M16.2485571,0.245240617 C16.3938923,0.0104379569 16.7020549,-0.0620897453 16.9368576,0.0832454603 C17.145571,0.21243231 17.2260673,0.470272925 17.139305,0.690885353 L17.0988527,0.771545954 L15.8401371,2.8051191 C15.6948019,3.03992176 15.3866393,3.11244946 15.1518366,2.96711425 C14.9431231,2.8379274 14.8626269,2.58008679 14.9493891,2.35947436 L14.9898415,2.27881376 L16.2485571,0.245240617 Z" id="Shape"></path>
            <path d="M17.7868228,1.14556743 C17.9964769,0.965846127 18.3121281,0.990111493 18.4918494,1.19976565 C18.6516017,1.38612489 18.6501793,1.65623487 18.5006442,1.8401826 L18.4376512,1.90479228 L16.2284769,3.79855727 C16.0188227,3.97827857 15.7031716,3.95401321 15.5234503,3.74435905 C15.363698,3.55799981 15.3651204,3.28788983 15.5146555,3.1039421 L15.5776485,3.03933242 L17.7868228,1.14556743 Z" id="Shape"></path>
            <path d="M17.8527241,3.43454185 C18.0968102,3.30540396 18.399368,3.39858788 18.5285059,3.64267397 C18.6432951,3.85963938 18.5824227,4.12280467 18.3960488,4.26930493 L18.3203738,4.31845575 L17.0231261,5.00478669 C16.77904,5.13392458 16.4764822,5.04074065 16.3473443,4.79665457 C16.232555,4.57968916 16.2934275,4.31652387 16.4798013,4.17002361 L16.5554764,4.12087278 L17.8527241,3.43454185 Z" id="Shape"></path>
            <path d="M22.6204939,20.4374101 C22.4792095,20.5899281 22.325081,20.7297362 22.1709526,20.8568345 C21.4516865,21.428777 20.552604,21.7211031 19.5893012,21.7211031 C19.2168242,21.7211031 18.8315031,21.6829736 18.4333379,21.581295 C17.1617783,21.2889688 15.9544388,20.5517986 15.0168242,19.4841727 C14.2847141,19.6239808 13.5269159,19.7002398 12.7819618,19.7002398 C12.0370076,19.7002398 11.3177416,19.6239808 10.6241636,19.4968825 C9.35260397,20.9330935 7.64434709,21.7211031 6.06453058,21.7211031 C5.11407186,21.7211031 4.21498929,21.4414868 3.4828792,20.8568345 C3.3415948,20.742446 3.20031039,20.6153477 3.08471406,20.4882494 C1.98012691,22.6743405 1.24801682,25.5976019 1.24801682,29.4995204 C1.24801682,37.4304556 6.44985168,43.8616307 12.87187,43.8616307 C19.2938884,43.8616307 24.4957232,37.4304556 24.4957232,29.4995204 C24.4700352,25.5721823 23.7379251,22.6235012 22.6204939,20.4374101 L22.6204939,20.4374101 Z" id="Shape"></path>
            <path d="M13.5269159,1.25827338 L14.0406774,0.749880096 C13.565448,0.305035971 13.1544388,0.0254196643 12.8847141,9.54097912e-17 C12.6149893,0.0381294964 12.2039801,0.305035971 11.7287508,0.749880096 L12.2425122,1.25827338 C12.5764572,1.61414868 13.1672829,1.61414868 13.5269159,1.25827338 L13.5269159,1.25827338 Z" id="Shape"></path>
            <path d="M14.4902187,1.22014388 C16.3911361,3.25371703 19.0370076,7.51151079 19.5507691,11.3880096 C19.0755398,11.1973621 18.5874664,11.057554 18.099393,10.9940048 C17.8553563,10.9558753 17.6370076,11.1338129 17.5984755,11.3752998 C17.5599434,11.6167866 17.7397599,11.8328537 17.9837966,11.8709832 C18.4189986,11.9310746 18.8621757,12.0543011 19.2881905,12.2406628 C19.3022785,12.2475206 19.316323,12.2532489 19.3303574,12.2590457 C19.43031,12.3041534 19.5297401,12.3527108 19.6278333,12.4047962 L19.3664675,12.2741212 C20.180427,12.6175657 20.9582896,13.1915097 21.5929709,13.9808153 C23.2883838,16.0779376 23.2883838,18.8359712 21.618659,20.1577938 C19.9489342,21.4796163 17.2259985,20.8568345 15.5434297,18.7724221 C15.1837966,18.3275779 14.9012278,17.8573141 14.6957232,17.3743405 L14.7073838,17.3551439 L14.6700352,17.2726619 C14.5786998,17.0693046 14.3655839,16.9563283 14.1569784,17.0051452 L14.0792095,17.0311751 C13.8480168,17.1328537 13.7324205,17.3870504 13.8351728,17.6158273 C13.9636131,17.8954436 14.1048975,18.17506 14.259026,18.4419664 L14.259026,18.4419664 L11.4076498,18.4419664 C11.5746223,18.17506 11.7159067,17.8954436 11.8315031,17.6158273 C11.9214113,17.3870504 11.818659,17.1328537 11.5874664,17.0311751 C11.3562737,16.9422062 11.099393,17.0438849 10.9966407,17.2726619 C10.8296682,17.6666667 10.6113196,18.0479616 10.3544388,18.4038369 L10.5108031,18.1776982 C10.3833953,18.3800622 10.2413656,18.5786537 10.0847141,18.7724221 C8.40214526,20.8568345 5.67920948,21.4796163 4.00948471,20.1577938 C2.33975993,18.8359712 2.33975993,16.0779376 4.03517278,13.9808153 C4.72554673,13.1222489 5.58533255,12.5184979 6.47671,12.1890452 C6.86213322,12.0302028 7.25966217,11.9201551 7.65719113,11.8709832 C7.90122782,11.8455635 8.08104434,11.6167866 8.04251223,11.3752998 C8.01682415,11.1338129 7.78563149,10.9558753 7.5415948,10.9940048 C7.10489755,11.057554 6.65535626,11.1719424 6.23150305,11.3371703 C6.77095259,7.47338129 9.39113608,3.24100719 11.2792095,1.22014388 L11.2792095,1.22014388 L11.7801269,1.71582734 C12.0883838,2.02086331 12.4865489,2.17338129 12.8847141,2.17338129 C13.2828792,2.17338129 13.6810443,2.02086331 13.9893012,1.71582734 L13.9893012,1.71582734 L14.4902187,1.22014388 Z M9.9562737,6.55827338 C9.39113608,6.55827338 8.92875076,7.01582734 8.92875076,7.57505995 C8.92875076,8.13429257 9.39113608,8.59184652 9.9562737,8.59184652 C10.5214113,8.59184652 10.9837966,8.13429257 10.9837966,7.57505995 C10.9837966,7.01582734 10.5214113,6.55827338 9.9562737,6.55827338 Z M15.7874664,6.55827338 C15.2223287,6.55827338 14.7599434,7.01582734 14.7599434,7.57505995 C14.7599434,8.13429257 15.2223287,8.59184652 15.7874664,8.59184652 C16.352604,8.59184652 16.8149893,8.13429257 16.8149893,7.57505995 C16.8149893,7.01582734 16.352604,6.55827338 15.7874664,6.55827338 Z" id="Shape"></path>
        </g>
        <g id="target" transform="translate(4.000000, 4.000000)" fill="#000000" fill-rule="nonzero">
            <path d="M10,0 C15.5228475,0 20,4.4771525 20,10 C20,15.5228475 15.5228475,20 10,20 C4.4771525,20 0,15.5228475 0,10 C0,4.4771525 4.4771525,0 10,0 Z M10,2 C5.581722,2 2,5.581722 2,10 C2,14.418278 5.581722,18 10,18 C14.418278,18 18,14.418278 18,10 C18,5.581722 14.418278,2 10,2 Z" id="Oval"></path>
            <circle id="Oval" cx="10" cy="9.86876382" r="2"></circle>
            <path d="M10,4 C13.3137085,4 16,6.6862915 16,10 C16,13.3137085 13.3137085,16 10,16 C6.6862915,16 4,13.3137085 4,10 C4,6.6862915 6.6862915,4 10,4 Z M10,6 C7.790861,6 6,7.790861 6,10 C6,12.209139 7.790861,14 10,14 C12.209139,14 14,12.209139 14,10 C14,7.790861 12.209139,6 10,6 Z" id="Oval"></path>
        </g>
    </g>
</svg>