<?xml version="1.0" encoding="UTF-8"?>
<svg width="64px" height="64px" viewBox="0 0 64 64" version="1.1" xmlns="http://www.w3.org/2000/svg" xmlns:xlink="http://www.w3.org/1999/xlink">
    <title>chemical_botanicals</title>
    <g id="chemical_botanicals" stroke="none" fill="none" fill-rule="evenodd">
        <path d="M59,4 C60.5,5 60.5,18 53.5,26 C49.5259923,30.5417231 43.9807684,33.6330928 36.8643283,35.274109 C36.9517346,35.498382 37,35.7435545 37,36 L37,58 C37,59.1045695 36.1045695,60 35,60 C33.8954305,60 33,59.1045695 33,58 L32.9993334,49.8040634 C30.9620509,43.5411344 27.9209165,40.9604582 27,40.5 C26,40 21.5,40.5 12.5,33.5 C3.5,26.5 4,14 5,13 C6,12 16,13 23.5,20 C31,27 30,32.5 31,37 C31.4877451,39.1948529 32.1539117,41.6573381 32.9984997,44.3874554 L33,36 C33,26.6666667 35,19.3333333 39,14 C45,6 57.5,3 59,4 Z" id="Combined-Shape" fill="#000000"></path>
    </g>
</svg>