<?xml version="1.0" encoding="UTF-8"?>
<svg width="64px" height="64px" viewBox="0 0 64 64" version="1.1" xmlns="http://www.w3.org/2000/svg" xmlns:xlink="http://www.w3.org/1999/xlink">
    <title>chemical_flying_insect_bait</title>
    <g id="chemical_flying_insect_bait" stroke="none" stroke-width="1" fill="none" fill-rule="evenodd">
        <path d="M48.1551556,8.60694729 L48.6561952,9.47784523 C48.7375762,9.49954144 48.8115635,9.54657712 48.8631911,9.61550453 C48.9305678,9.71145552 48.9460139,9.82774394 48.9173565,9.93180043 L49.0352805,10.1393594 C47.2284621,11.1431843 46.6372481,14.057395 47.4866496,19.0013714 L47.6410492,19.8597395 L44.8241108,22.1162396 C45.2726386,22.8769427 45.5277935,23.7500763 45.5277935,24.6785388 L45.5277935,24.6785388 L45.5272668,25.0849473 L45.9122668,26.0479473 L50.9916437,28.2464731 L51.0956701,28.6698784 C51.9719071,32.2363135 53.6774523,34.7875039 56.2174589,36.3746495 L56.4831951,36.5354002 L55.5678997,38.0477507 C52.6445085,36.336276 50.6422407,33.5942956 49.5657666,29.8682127 L49.4656586,29.5079754 L46.8422668,28.3729473 L50.6382668,37.8679473 L50.7626075,37.7052078 L55.435691,41.150295 L55.464876,41.5507331 C55.6596346,44.2229474 57.1972826,47.305181 60.1112224,50.7757998 L60.4072053,51.1241555 L59.0406943,52.2604891 C55.9198312,48.6300704 54.1434587,45.3094054 53.7419446,42.2788253 L53.7183428,42.0840554 L51.7412668,40.6259473 L55.5520361,50.1558861 C55.7232373,50.5554989 55.8249283,51.0029059 55.8173888,51.4639684 L55.8043326,51.6954796 C55.667672,53.4302328 54.195942,54.7312977 52.5139649,54.590349 C51.8306617,54.536138 51.220945,54.2542406 50.7373766,53.8205523 L50.7373766,53.8205523 L40.6244891,44.2577251 C40.0883589,43.7915101 39.7624758,43.0759244 39.82555,42.2952855 C39.8360623,42.1868634 39.8465747,42.0892835 39.8675994,41.9917037 L39.8675994,41.9917037 L41.1869467,33.870774 C41.0762326,33.9128269 40.9640645,33.9523528 40.8505207,33.9892691 L40.8505207,33.9892691 L41.8580965,27.6628905 C41.8899147,27.5287624 41.7944601,27.3946342 41.6671874,27.3722795 C41.5399147,27.3387475 41.4126419,27.4393436 41.3914298,27.5734718 L41.3914298,27.5734718 L40.3520359,34.1233973 C39.7899147,34.2575254 39.1959753,34.3357669 38.5914298,34.3357669 L38.5914298,34.3357669 L38.453551,34.3357669 C37.8383995,34.3357669 37.2550662,34.2575254 36.692945,34.1233973 L36.692945,34.1233973 L35.653551,27.5734718 C35.6323389,27.4393436 35.5050662,27.3499248 35.3777935,27.3722795 C35.2505207,27.3946342 35.1656722,27.5287624 35.1868844,27.6628905 L35.1868844,27.6628905 L36.1944601,33.9892691 C36.1203861,33.9651855 36.0468975,33.9399913 35.9740161,33.9137093 L37.3944037,42.6287644 C37.4154207,42.7263796 37.4259292,42.8239947 37.4364376,42.932456 C37.4994884,43.7133772 37.1737259,44.4292216 36.6377938,44.8956051 L26.528645,54.4618896 C26.0452553,54.8957347 25.435764,55.177734 24.7527134,55.2319647 C23.0713581,55.3729643 21.6001722,54.071429 21.4635621,52.3360486 C21.4095185,51.8712146 21.4712826,51.4223177 21.6157664,51.0098486 L21.6947484,50.8067446 L25.2902668,41.8059473 L23.6091292,43.0469153 L23.5855275,43.2416852 C23.1840133,46.2722653 21.4076408,49.5929303 18.2867778,53.223349 L18.2867778,53.223349 L16.9202668,52.0870154 L17.2162497,51.7386597 C20.1301895,48.2680409 21.6678374,45.1858073 21.862596,42.513593 L21.862596,42.513593 L21.8917811,42.1131549 L26.5352668,38.6889473 L30.2282668,29.4469473 L27.8618134,30.4708353 L27.7617054,30.8310727 C26.6852314,34.5571555 24.6829636,37.2991359 21.7595723,39.0106106 L21.7595723,39.0106106 L20.8442769,37.4982601 L21.1100131,37.3375094 C23.6500198,35.7503638 25.355565,33.1991734 26.231802,29.6327383 L26.231802,29.6327383 L26.3358284,29.209333 L31.1572668,27.1229473 L31.908982,25.242422 L32.0332668,25.3649473 L32.4080965,24.4102825 C32.4522884,24.3078235 32.4154618,24.1898404 32.3344433,24.1210169 L32.2808238,24.0861394 C32.1641571,24.0302527 32.0262783,24.0973168 31.973248,24.2202676 L31.973248,24.2202676 L31.5277935,25.3491797 L31.5277935,24.6785388 C31.5277935,23.5732667 31.889381,22.5464028 32.5083304,21.6942773 L31.8877608,22.4447203 L28.9793161,20.1154926 L29.1337157,19.2571245 C29.9831172,14.3131481 29.3919032,11.3989374 27.5850848,10.3951125 L27.5850848,10.3951125 L28.4652097,8.86270042 L28.6324276,8.95994 C31.1015397,10.4618032 31.8100654,13.9100151 30.9566463,19.1991862 L30.9566463,19.1991862 L30.9233382,19.4026085 L33.0176612,21.0799368 L32.9436047,21.1683559 C33.9979891,20.0453591 35.5490352,19.3357669 37.2762783,19.3357669 L37.2762783,19.3357669 L39.7793086,19.3357669 C41.2855622,19.3357669 42.6578211,19.8753994 43.6835582,20.7582376 L45.697027,19.1468554 L45.6637189,18.9434331 C44.8102999,13.654262 45.5188255,10.20605 47.9879376,8.70418687 L48.1551556,8.60694729 Z M33.7338541,26.6010426 C33.6065813,26.5898652 33.4899147,26.7016387 33.4793086,26.8357669 L33.4793086,26.8357669 L33.203551,30.8931439 L32.6520359,31.4073019 C32.6106949,31.3481277 32.570359,31.2883482 32.5310512,31.2279788 L30.7530502,32.8564035 C30.7215248,32.8889419 30.7005079,32.9214803 30.6794909,32.9648648 L30.0174573,35.1557826 C29.9754234,35.2859361 30.0489827,35.4160896 30.1750843,35.4594741 C30.1961013,35.4703203 30.2171182,35.4703203 30.2486436,35.4703203 C30.3537283,35.4703203 30.4377961,35.4052435 30.4693215,35.2967822 L31.1103382,33.1709412 L32.9283037,31.5114837 L32.7811851,33.659017 L32.7496597,33.7349399 L30.3116945,38.9085427 L27.6845768,40.0256938 C27.6635987,40.0355357 27.6443512,40.0482353 27.6272111,40.0631445 L27.6381501,40.0763617 L27.5797146,40.1180714 C27.5378902,40.1830338 27.5257172,40.2658485 27.5584751,40.3402315 C27.600509,40.4378467 27.6845768,40.4920773 27.779153,40.4920773 C27.8106784,40.4920773 27.8422038,40.4812312 27.8737292,40.4703851 L30.0069488,39.5593103 L27.9893224,43.8435307 L25.992713,44.2990681 C25.9296621,44.3099142 25.8666113,44.3641449 25.8350859,44.4292216 L25.2255946,45.654834 C25.1625438,45.7741414 25.2150861,45.9259872 25.3306793,45.9802179 C25.3622047,46.0019101 25.4042386,46.0127562 25.435764,46.0127562 C25.5198318,46.0127562 25.6038996,45.9693717 25.6459334,45.8826027 L26.2133909,44.7546054 L27.7371191,44.4075294 L26.8018652,46.3923707 C26.7703398,46.4249091 26.7598313,46.4682936 26.7493229,46.500832 L24.5950864,51.0778978 C24.542544,51.1972052 24.5845779,51.349051 24.7001711,51.4032816 C24.7316965,51.4249739 24.7737304,51.4249739 24.8052558,51.4249739 C24.8893235,51.4249739 24.9733913,51.3707433 25.0154252,51.2839742 L27.0015262,47.0648306 L27.6110175,48.116905 L27.7896615,49.9282083 C27.8001699,50.0583618 27.9052546,50.1451308 28.0208478,50.1451308 L28.0418648,50.1451308 C28.1679664,50.1342847 28.2625427,50.0149773 28.2520342,49.8739777 L28.0733902,48.0084437 C28.0733902,47.9759053 28.0628817,47.9433669 28.0418648,47.9108286 L27.2537295,46.5442165 L32.6971173,34.9605523 L32.3608462,39.6786178 L30.9737281,41.0669221 C30.9422027,41.0994605 30.9211858,41.1319988 30.9106773,41.1753834 L29.9018641,44.7654516 C29.8703387,44.8956051 29.9333895,45.0257586 30.0594912,45.0691431 C30.0805081,45.0799893 30.101525,45.0799893 30.122542,45.0799893 C30.2276267,45.0799893 30.3222029,45.0149125 30.3537283,44.9064512 L31.3415246,41.3706137 L32.3083039,40.4053083 L32.1401684,42.7697641 C32.1296599,42.845687 32.1611853,42.9216099 32.2137277,42.9649944 L33.5062696,44.1580684 C33.5483034,44.2014529 33.6113543,44.2231452 33.6638966,44.2231452 C33.7269474,44.2231452 33.7899983,44.1906068 33.8425406,44.1472223 C33.9266084,44.0496072 33.9266084,43.8977614 33.8215237,43.8001462 L32.623558,42.6938412 L33.2120324,34.342323 L34.3889811,35.2967822 L33.9055914,37.7154687 C33.874066,37.8456222 33.9581338,37.9757757 34.0842355,38.0083141 L34.1367778,38.0083141 C34.2418625,38.0083141 34.3469472,37.9323912 34.3679642,37.8130838 L34.8828792,35.2533977 C34.9038962,35.1666287 34.8723708,35.0690135 34.7988115,35.0147829 L33.2645747,33.7674782 L33.2645747,33.7349399 L33.7374559,27.032033 L33.9322668,27.2269473 L33.9565813,26.8692989 C33.9656722,26.7543319 33.8890489,26.6475768 33.7868225,26.6123828 L33.7338541,26.6010426 Z M43.5401334,26.7379033 L43.9884433,33.1119356 L43.9884433,33.1444622 L42.4536392,34.3913161 C42.3800527,34.4455271 42.3485156,34.543107 42.3695404,34.6298446 L42.3695404,34.6298446 L42.8846459,37.1886057 C42.9056706,37.3078699 43.0107941,37.3837654 43.1159177,37.3837654 L43.1159177,37.3837654 L43.1684795,37.3837654 C43.2946278,37.3512388 43.3787266,37.2211323 43.3471896,37.0910258 L43.3471896,37.0910258 L42.8636211,34.6732135 L44.0410051,33.7190992 L44.6296971,42.0675991 L43.4312884,43.1735043 C43.3261649,43.2710842 43.3261649,43.4228751 43.4102637,43.520455 C43.4628255,43.5638238 43.5258996,43.5963504 43.5889738,43.5963504 C43.6415356,43.5963504 43.7046097,43.574666 43.7466591,43.5312972 L43.7466591,43.5312972 L45.039679,42.3386543 C45.0922408,42.2952855 45.1237779,42.21939 45.1132655,42.1434946 L45.1132655,42.1434946 L44.9450678,39.7798933 L45.9122047,40.7448498 L46.9003662,44.2794095 C46.9319033,44.3878316 47.0265145,44.4528848 47.1316381,44.4528848 C47.1526628,44.4528848 47.1736875,44.4528848 47.1947122,44.4420426 C47.3208605,44.3986738 47.3839347,44.2685673 47.3523976,44.1384608 L47.3523976,44.1384608 L46.3432113,40.54969 C46.332699,40.5063212 46.3116742,40.4737946 46.2801372,40.441268 L46.2801372,40.441268 L44.892506,39.0534654 L44.5561106,34.337105 L50.0015116,45.9165829 L49.2130848,47.282701 C49.1920601,47.3152276 49.1815477,47.3477543 49.1815477,47.3802809 L49.1815477,47.3802809 L49.0028376,49.2451406 C48.9923253,49.3860893 49.0869365,49.5053536 49.2130848,49.5161958 L49.2130848,49.5161958 L49.2341095,49.5161958 C49.3497454,49.5161958 49.454869,49.4294581 49.4653814,49.2993517 L49.4653814,49.2993517 L49.6440914,47.488703 L50.2538081,46.4370088 L52.2196189,50.6437854 C52.2616683,50.7305231 52.3457672,50.7847341 52.429866,50.7847341 C52.4614031,50.7847341 52.5034525,50.7847341 52.5349896,50.7630497 C52.6506255,50.7088387 52.692675,50.5570477 52.6401132,50.4377835 L52.6401132,50.4377835 L50.48508,45.8623718 C50.4745676,45.8298452 50.4640553,45.7864764 50.4325182,45.7539497 L50.4325182,45.7539497 L49.4969184,43.7698257 L51.0212102,44.1167764 L51.5888775,45.244366 C51.6309269,45.3311036 51.7150258,45.3744725 51.7991246,45.3744725 C51.8306617,45.3744725 51.8727111,45.3636303 51.9042482,45.3419458 C52.0198841,45.2877348 52.0724459,45.1359439 52.0093718,45.0166796 L52.0093718,45.0166796 L51.399655,43.7915101 C51.368118,43.7264569 51.3050438,43.6722459 51.2419697,43.6614037 L51.2419697,43.6614037 L49.2446219,43.2060309 L47.2262493,38.9233589 L49.3602578,39.8341043 C49.3917949,39.8449465 49.4233319,39.8557888 49.454869,39.8557888 C49.5494802,39.8557888 49.6335791,39.8015777 49.6756285,39.7039978 C49.7281903,39.5847336 49.6651161,39.4437849 49.5494802,39.3895738 L49.5494802,39.3895738 L46.921391,38.2728264 L44.4825241,33.1010934 L44.4509871,33.0251979 L44.3362668,31.3539473 L43.8414298,30.8931439 L43.5656722,26.8357669 C43.5630708,26.8001259 43.5540883,26.7671748 43.5401334,26.7379033 Z M40.1586519,34.4073172 L38.8496308,42.2848954 C38.8285175,42.3913491 38.8179609,42.5084483 38.8074043,42.614902 C38.7440646,43.4452414 39.0818765,44.4459067 39.7152738,44.9781755 L39.7152738,44.9781755 L43.8640262,48.8105108 C42.2910895,49.8218215 40.4120108,50.4073172 38.3851394,50.4073172 C36.3160415,50.4073172 34.4686327,49.8963392 32.8640262,48.7998654 L32.8640262,48.7998654 L37.0127786,44.9675301 C37.7939686,44.2649353 38.005101,43.434596 37.9417613,42.6042567 C37.9417613,42.4978029 37.9206481,42.3807038 37.8995348,42.27425 L37.8995348,42.27425 L36.6327402,34.4073172 C37.1816845,34.5350617 37.7095156,34.5882886 38.3112431,34.5882886 L38.3112431,34.5882886 L38.4484792,34.5882886 C39.03965,34.5882886 39.6097076,34.5244163 40.1586519,34.4073172 L40.1586519,34.4073172 Z M44.8222911,30.7063978 C44.7466342,30.8504423 44.6653377,30.9914083 44.5786708,31.1290378 L46.1224518,32.5372986 L46.7637056,34.6623713 C46.7952427,34.7707933 46.8793415,34.8358466 46.9844651,34.8358466 C47.0160022,34.8358466 47.0370269,34.8358466 47.0580516,34.8250044 C47.1841999,34.7816356 47.2577864,34.6515291 47.215737,34.5214226 L47.215737,34.5214226 L46.5534585,32.3312966 C46.5324337,32.2879278 46.511409,32.2554012 46.479872,32.2228745 L46.479872,32.2228745 L44.8222911,30.7063978 Z M45.0823389,24.2202676 C45.0399147,24.0973168 44.9020359,24.0302527 44.7747632,24.0861394 C44.6474904,24.1420262 44.5944601,24.2873317 44.6368844,24.4102825 L44.6368844,24.4102825 L44.8842668,25.0429473 L45.2602668,24.6719473 L45.0823389,24.2202676 Z M42.7633614,14.9285595 C43.5917886,14.9285595 44.2633614,15.6001324 44.2633614,16.4285595 C44.2633614,16.9936754 43.9508546,17.4858014 43.4892286,17.7415498 C43.6299606,17.9928513 43.7069837,18.2549175 43.7069837,18.5338889 C43.7069837,18.9328659 43.5516165,19.3011524 43.2823133,19.6489785 C42.2465318,18.8612547 40.9000158,18.3804363 39.429206,18.3804363 L39.429206,18.3804363 L36.9847615,18.3804363 C35.5139517,18.3804363 34.1570779,18.8612547 33.1316542,19.6489785 C32.862351,19.3011524 32.7069837,18.9328659 32.7069837,18.5338889 C32.7069837,18.2474439 32.7794884,17.9814593 32.9244979,17.7257048 C33.255948,18.2065232 33.81527,18.5134286 34.4367389,18.5134286 C35.4518048,18.5134286 36.2804301,17.6950143 36.2804301,16.6924567 C36.2804301,16.3957815 36.2079254,16.1195667 36.0836316,15.8740424 C36.7361739,15.7308199 37.4508632,15.6489785 38.2069837,15.6489785 C38.9423886,15.6489785 39.6363623,15.7205897 40.268189,15.853582 C40.1335374,16.1093365 40.0610327,16.3957815 40.0610327,16.6924567 C40.0610327,17.6950143 40.8896579,18.5134286 41.9047239,18.5134286 C42.4935121,18.5134286 43.0232711,18.2385772 43.3494326,17.8091158 C43.1683287,17.8864676 42.9707606,17.9285595 42.7633614,17.9285595 C41.9349343,17.9285595 41.2633614,17.2569867 41.2633614,16.4285595 C41.2633614,15.6001324 41.9349343,14.9285595 42.7633614,14.9285595 Z M34.2832491,15.2246916 C35.1116762,15.2246916 35.7832491,15.8962645 35.7832491,16.7246916 C35.7832491,17.5531187 35.1116762,18.2246916 34.2832491,18.2246916 C33.4548219,18.2246916 32.7832491,17.5531187 32.7832491,16.7246916 C32.7832491,15.8962645 33.4548219,15.2246916 34.2832491,15.2246916 Z M38.9469891,13.4565975 C39.2209617,13.4565975 39.4492722,13.7197554 39.4492722,14.0355448 L39.4492722,14.0355448 L39.4492722,14.0460712 C39.4492722,14.3618606 39.2209617,14.6250185 38.9469891,14.6250185 L38.9469891,14.6250185 L38.9469891,15.4565975 L37.9515553,15.4565975 L37.9515553,14.6250185 C37.6775827,14.6250185 37.4492722,14.3618606 37.4492722,14.0460712 L37.4492722,14.0460712 L37.4492722,14.0355448 C37.4492722,13.7197554 37.6775827,13.4565975 37.9515553,13.4565975 L37.9515553,13.4565975 L38.9469891,13.4565975 Z" id="Combined-Shape" fill="#000000" fill-rule="nonzero" transform="translate(38.663736, 31.924685) rotate(45.000000) translate(-38.663736, -31.924685) "></path>
        <g id="target" transform="translate(4.000000, 4.000000)" fill="#000000" fill-rule="nonzero">
            <path d="M10,0 C15.5228475,0 20,4.4771525 20,10 C20,15.5228475 15.5228475,20 10,20 C4.4771525,20 0,15.5228475 0,10 C0,4.4771525 4.4771525,0 10,0 Z M10,2 C5.581722,2 2,5.581722 2,10 C2,14.418278 5.581722,18 10,18 C14.418278,18 18,14.418278 18,10 C18,5.581722 14.418278,2 10,2 Z" id="Oval"></path>
            <circle id="Oval" cx="10" cy="9.86876382" r="2"></circle>
            <path d="M10,4 C13.3137085,4 16,6.6862915 16,10 C16,13.3137085 13.3137085,16 10,16 C6.6862915,16 4,13.3137085 4,10 C4,6.6862915 6.6862915,4 10,4 Z M10,6 C7.790861,6 6,7.790861 6,10 C6,12.209139 7.790861,14 10,14 C12.209139,14 14,12.209139 14,10 C14,7.790861 12.209139,6 10,6 Z" id="Oval"></path>
        </g>
    </g>
</svg>