<?xml version="1.0" encoding="UTF-8"?>
<svg width="64px" height="64px" viewBox="0 0 64 64" version="1.1" xmlns="http://www.w3.org/2000/svg" xmlns:xlink="http://www.w3.org/1999/xlink">
    <title>chemical_insect_spray</title>
    <g id="chemical_insect_spray" stroke="none" stroke-width="1" fill="none" fill-rule="evenodd">
        <path d="M32.4705882,57.1313586 C25.2354734,57.108699 24,54.131236 24,54.131236 L24,30.131236 C24,30.131236 25.9169515,31.8514353 32.0705882,31.931236 C38.4231871,31.8514353 40,30.631236 40,30.631236 L40,54.131236 C40,54.131236 38.9339492,57.1535144 32.4705882,57.1313586 Z" id="Path-1" fill="#000000" fill-rule="nonzero"></path>
        <path d="M32.0848113,27.4296942 C38.4776501,27.4296942 39.9995027,29.5424871 39.9995027,29.5424871 L40.0004594,29.7205311 C35.3376646,31.4880925 28.2253147,31.3297359 24.0048343,29.3202486 C24.7893437,28.7392329 27.1090087,27.4296942 32.0848113,27.4296942 Z" id="Path-3" fill="#000000" fill-rule="nonzero"></path>
        <path d="M16.0018592,26.2116926 C16.6180773,19.0860604 21.3895183,13.4263514 28.5558754,15.6537676 C31.895951,16.6919155 33.8621153,19.1698966 34.706145,22.6046584 C35.2243618,24.7135311 35.2720411,26.9425862 35.044254,28.9991236 L35.0040467,29.3359377 C34.9710483,29.5924274 34.940064,29.787267 34.9166818,29.9116203 C34.8656529,30.1830068 34.6042836,30.361642 34.332897,30.3106131 C34.0615104,30.2595842 33.8828753,29.9982149 33.9339041,29.7268283 L33.9776469,29.4599039 C33.9998472,29.3094037 34.025019,29.1175711 34.0503323,28.8890344 C34.266295,26.9392516 34.2209824,24.8208438 33.7350351,22.8432909 C32.9683725,19.7233729 31.2296172,17.5319983 28.259066,16.6087044 C21.8635445,14.620876 17.5672478,19.7169862 16.9981408,26.2978501 C16.6611546,30.1945866 19.3141039,33.7479635 23.4587348,35.9238878 C23.7032309,36.0522478 23.7973777,36.3545073 23.6690177,36.5990034 C23.5406577,36.8434994 23.2383981,36.9376463 22.9939021,36.8092863 C18.5283888,34.4648993 15.6244899,30.575399 16.0018592,26.2116926 Z" id="Path-4" fill="#000000" fill-rule="nonzero"></path>
        <path d="M43.5197704,22.1317142 C43.7530408,21.9839321 44.0619448,22.0532341 44.2097269,22.2865044 C47.2596132,27.1006747 45.1426061,33.6224931 41.475728,35.3566741 C41.226095,35.4747333 40.9280216,35.3680717 40.8099624,35.1184387 C40.6919031,34.8688057 40.7985648,34.5707323 41.0481978,34.452673 C44.184828,32.9692628 46.085062,27.1152527 43.3649801,22.8216707 C43.2171981,22.5884003 43.2865,22.2794963 43.5197704,22.1317142 Z" id="Path-5" fill="#000000" fill-rule="nonzero"></path>
        <path d="M26.5,21.631236 L37.5,21.631236 C37.5,21.631236 36.8804022,27.631236 32,27.631236 C26.7614003,27.631236 26.5,21.631236 26.5,21.631236 Z" id="Path-6" fill="#000000" fill-rule="nonzero"></path>
        <path d="M30.4015969,9.40312206 L30.4914652,9.41125968 L36.6562601,10.5311327 L36.9872571,10.7523506 L43.6427747,21.086335 C43.7922953,21.3184949 43.725303,21.627908 43.4931432,21.7774287 C43.2867789,21.9103359 43.0193749,21.8721712 42.8574864,21.698996 L42.8020495,21.6277971 L36.263,11.475236 L30.312734,10.3951576 C30.0712266,10.3512863 29.902013,10.1407715 29.902013,9.90371134 L29.9101506,9.81384309 C29.954022,9.57233561 30.1645368,9.40312206 30.4015969,9.40312206 Z" id="Path-7" fill="#000000" fill-rule="nonzero"></path>
        <path d="M42.5,12.131236 C42.7454599,12.131236 42.9496084,12.3081112 42.9919443,12.5413604 L43,12.631236 L43,18.2259626 C43,18.5021049 42.7761424,18.7259626 42.5,18.7259626 C42.2545401,18.7259626 42.0503916,18.5490874 42.0080557,18.3158382 L42,18.2259626 L42,12.631236 C42,12.3550936 42.2238576,12.131236 42.5,12.131236 Z" id="Path-8" fill="#000000" fill-rule="nonzero"></path>
    </g>
</svg>