<?xml version="1.0" encoding="UTF-8"?>
<svg width="64px" height="64px" viewBox="0 0 64 64" version="1.1" xmlns="http://www.w3.org/2000/svg" xmlns:xlink="http://www.w3.org/1999/xlink">
    <title>chemical_pest_bird_control</title>
    <g id="chemical_pest_bird_control" stroke="none" stroke-width="1" fill="none" fill-rule="evenodd">
        <g id="Bird" transform="translate(10.764475, 14.920015)" fill="#000000" fill-rule="nonzero">
            <path d="M24.5347788,7.77156117e-16 L25.7295606,4.11557268 L25.6018609,4.11448505 C27.3301911,4.59798178 28.6014217,6.22751262 28.6014217,8.16330625 C28.6014217,8.98513665 28.3722976,9.75176686 27.9763461,10.3989385 C28.349874,11.210006 28.6751137,12.1523644 28.939043,13.195718 C29.6279877,13.2214377 30.2764068,12.8968863 30.6898145,12.3541187 L30.7827207,12.2223464 C31.2540566,11.4874227 32.1199995,11.0916945 33.0078649,11.2839053 C33.253398,11.3381766 33.4849007,11.435865 33.6855364,11.5711814 L33.8299625,11.6796335 L48.7482939,22.6130367 C49.1100169,22.8956997 49.3073203,23.38188 49.2086686,23.8793668 C49.085902,24.4808736 48.5525495,24.8853957 47.9740006,24.8631176 L47.8494672,24.8517274 L34.6630214,22.8843932 C34.5607159,22.8693178 34.4632821,22.8693178 34.3674723,22.877693 L34.2245694,22.8956997 L29.3821063,24.0477429 C28.9672844,26.7839302 28.1695379,29.0716342 27.1463446,30.5290752 L29.2590997,41.8454244 L29.2481384,41.8454244 C29.2481384,41.9132635 29.2590997,41.9811027 29.2481384,42.0489418 C29.2481384,42.9421567 28.5466151,43.6657739 27.6806723,43.6657739 C27.2093364,43.6657739 26.7928069,43.45095 26.5078131,43.123061 C26.3214709,44.0728085 25.5103346,44.7851192 24.5347788,44.7851192 C23.5592229,44.7851192 22.7480866,44.0728085 22.5617445,43.123061 C22.2657893,43.4622566 21.8492599,43.6657739 21.3888852,43.6657739 C20.5229424,43.6657739 19.8214191,42.9421567 19.8214191,42.0489418 C19.8214191,41.9811027 19.8214191,41.9132635 19.8323804,41.8454244 L19.8323804,41.8454244 L19.8214191,41.8454244 L21.9315887,30.54098 C20.8979018,29.0749296 20.093321,26.76247 19.6796355,23.9958336 L15.0094077,22.8843932 L14.8665048,22.8663865 C14.7706949,22.8580113 14.6732611,22.8580113 14.5709556,22.8730867 L14.5709556,22.8730867 L1.38450986,24.8404208 L1.25997648,24.8518111 C0.681427622,24.8740891 0.148075044,24.469567 0.0253084664,23.8680603 C-0.0733432476,23.3705735 0.12396018,22.8843932 0.485683132,22.6017302 L0.485683132,22.6017302 L15.3930533,11.6796335 L15.5374794,11.5711814 C15.738115,11.435865 15.9696177,11.3381766 16.2151509,11.2839053 C17.1030163,11.0916945 17.9689591,11.4874227 18.4402951,12.2223464 L18.4402951,12.2223464 L18.5332012,12.3541187 C18.9156785,12.8562774 19.4993163,13.1716514 20.1307112,13.1962578 C20.3944439,12.1523644 20.7196835,11.210006 21.0940758,10.3981175 C20.6972599,9.75176686 20.4681359,8.98513665 20.4681359,8.16330625 C20.4681359,6.22751262 21.7393665,4.59798178 23.4676967,4.11448505 L23.3509582,4.11557268 L24.5347788,7.77156117e-16 Z" id="Combined-Shape"></path>
        </g>
        <g id="target" transform="translate(4.000000, 4.000000)" fill="#000000" fill-rule="nonzero">
            <path d="M10,0 C15.5228475,0 20,4.4771525 20,10 C20,15.5228475 15.5228475,20 10,20 C4.4771525,20 0,15.5228475 0,10 C0,4.4771525 4.4771525,0 10,0 Z M10,2 C5.581722,2 2,5.581722 2,10 C2,14.418278 5.581722,18 10,18 C14.418278,18 18,14.418278 18,10 C18,5.581722 14.418278,2 10,2 Z" id="Oval"></path>
            <circle id="Oval" cx="10" cy="9.86876382" r="2"></circle>
            <path d="M10,4 C13.3137085,4 16,6.6862915 16,10 C16,13.3137085 13.3137085,16 10,16 C6.6862915,16 4,13.3137085 4,10 C4,6.6862915 6.6862915,4 10,4 Z M10,6 C7.790861,6 6,7.790861 6,10 C6,12.209139 7.790861,14 10,14 C12.209139,14 14,12.209139 14,10 C14,7.790861 12.209139,6 10,6 Z" id="Oval"></path>
        </g>
    </g>
</svg>