<?xml version="1.0" encoding="UTF-8"?>
<svg width="64px" height="64px" viewBox="0 0 64 64" version="1.1" xmlns="http://www.w3.org/2000/svg" xmlns:xlink="http://www.w3.org/1999/xlink">
    <title>chemical</title>
    <g id="chemical" stroke="none" stroke-width="1" fill="none" fill-rule="evenodd">
        <g id="Group" transform="translate(6.000000, 4.000000)" fill="#000000">
            <path d="M19.2847838,0.419409225 L19.4715643,0.585786438 L21.4542179,2.58578644 C21.7640677,2.89834707 21.9607691,3.30370983 22.0177293,3.73711204 L22.0349237,4 L22.0349237,24 C22.0349237,24.3334768 21.9522891,24.6602866 21.7962603,24.9513427 L21.6656217,25.1624764 L18.125,29.998 L18.18532,29.9963357 C18.2662937,29.9914031 18.3553213,29.9813973 18.4546707,29.9657557 L18.7859523,29.9013612 L19.1927718,29.7997769 L19.9744002,29.5702865 L21.0025288,29.2381337 L22.3267779,28.7974495 L23.1069506,28.5489383 L23.7726559,28.3527326 C24.6974552,28.0954698 25.3175482,28 26.000231,28 C27.1467251,28 27.943552,28.265283 29.4358596,28.9992113 L30.4478876,29.5006458 L30.9163456,29.7152965 C31.4025028,29.9253696 31.6926979,30 31.9481919,30 L32.4660298,29.9829749 L33.0956499,29.9318614 L33.768,29.854 L30.3348403,25.1624764 C30.142692,24.8911152 30.0216277,24.5767284 29.9808879,24.248403 L29.9655383,24 L29.9655383,4 C29.9655383,3.55797252 30.1105981,3.13103195 30.3741248,2.78394097 L30.5462441,2.58578644 L32.5288977,0.585786438 C33.3031721,-0.195262146 34.5585189,-0.195262146 35.3327934,0.585786438 C36.0475082,1.30675436 36.1024863,2.44121647 35.4977275,3.22579889 L35.3327934,3.41421356 L33.9308455,4.828 L33.9308455,23.36 L50.892094,46.5125708 C51.5325883,47.4171082 51.9098086,48.4809994 51.985728,49.5845453 L52,50 C52,53.1953618 49.5238243,55.8073218 46.401527,55.9898146 L46.0520391,56 L5.94842289,56 C4.70873117,56 3.50001948,55.6092612 2.49124084,54.8824008 C-0.0790365552,53.0304259 -0.750316871,49.4946061 0.899252606,46.8282026 L1.10836802,46.5125708 L18.0696165,23.356 L18.0696165,4.83 L16.6676686,3.41421356 C15.9529538,2.69324564 15.8979757,1.55878353 16.5027344,0.774201113 L16.6676686,0.585786438 C17.3823835,-0.135181486 18.5070062,-0.190640557 19.2847838,0.419409225 Z M26.000231,32 C25.890001,32 25.7642009,32.0107819 25.6151767,32.0342443 L25.2838952,32.0986388 L24.8770757,32.2002231 L24.0954473,32.4297135 L23.0673187,32.7618663 L21.7430695,33.2025505 L20.9628968,33.4510617 L20.2971916,33.6472674 C19.3723922,33.9045302 18.7522993,34 18.0696165,34 C17.2627628,34 16.3793466,33.9005659 15.4153418,33.7041622 L4.33507127,48.8375236 C3.69862162,49.7363488 3.90499937,50.985449 4.79602887,51.6274669 C5.06503651,51.8212964 5.37669653,51.9434199 5.70217429,51.9845161 L5.94842289,52 L46.0520391,52 C47.1470285,52 48.0346927,51.1045695 48.0346927,50 C48.0346927,49.6665232 47.9520581,49.3397134 47.7960293,49.0486573 L47.6653907,48.8375236 L36.433,33.493 L35.6457911,33.6254365 L34.6458392,33.7732949 L33.7488339,33.8842743 L32.9534769,33.9583172 C32.5809941,33.986095 32.2461425,34 31.9481919,34 C30.8016978,34 30.0048709,33.734717 28.5125633,33.0007887 L27.5005353,32.4993542 L27.0320772,32.2847035 C26.5459201,32.0746304 26.2557249,32 26.000231,32 Z" id="Combined-Shape" fill-rule="nonzero"></path>
            <circle id="Oval" cx="16" cy="40" r="2"></circle>
            <circle id="Oval-Copy" cx="26" cy="38" r="2"></circle>
            <circle id="Oval-Copy-2" cx="24" cy="46" r="2"></circle>
            <circle id="Oval-Copy-3" cx="34" cy="42" r="2"></circle>
            <circle id="Oval-Copy-4" cx="42" cy="48" r="2"></circle>
            <circle id="Oval-Copy-5" cx="10" cy="48" r="2"></circle>
        </g>
    </g>
</svg>