<?xml version="1.0" encoding="UTF-8"?>
<svg width="64px" height="64px" viewBox="0 0 64 64" version="1.1" xmlns="http://www.w3.org/2000/svg" xmlns:xlink="http://www.w3.org/1999/xlink">
    <title>chemical_wildlife_repellents</title>
    <g id="chemical_wildlife_repellents" stroke="none" stroke-width="1" fill="none" fill-rule="evenodd">
        <g id="raccoon" transform="translate(3.000000, 7.000000)" fill="#000000" fill-rule="nonzero">
            <circle id="Oval" cx="35.2444008" cy="16.2887347" r="2.05663717"></circle>
            <circle id="Oval" cx="22.7682946" cy="16.2887347" r="2.05663717"></circle>
            <path d="M36.7930734,3.51528336 C38.2921884,0.690504597 41.1665247,-0.721884784 43.2107725,0.368380703 C45.2426309,1.44625681 45.6886486,4.63032761 44.1895336,7.45510637 C43.9735021,7.86217403 43.7289119,8.23991125 43.4623628,8.58505529 C44.1884082,9.59506253 44.8422806,10.8141472 45.4780292,12.2869648 C47.0535182,15.9476599 47.2563929,22.9081755 43.8931383,27.4176649 L43.5734176,27.0193036 L42.848134,26.1491253 L41.5352274,24.6236349 L41.051,26.8742362 L40.9893205,26.795396 C40.5609915,26.2608574 40.0875693,25.7203681 39.5748151,25.1759159 C38.7358639,24.2851016 37.8399354,23.4345682 36.944095,22.651299 L36.4910172,22.261118 L35.8385091,21.7220135 L35.1161109,21.157762 C35.4613197,21.1666572 35.8144177,21.1701506 36.1736044,21.1701506 C40.1753743,21.1701506 44.3753743,25.6674957 45.7753743,21.4303276 C46.4444008,19.3860798 40.4355513,14.6533365 36.1736044,13.6002391 C32.2833389,12.6338674 28.9258168,14.8515665 28.9258168,17.2303276 C28.9258168,18.2641103 29.208004,19.0307845 29.7085483,19.597991 C29.6751393,19.5759235 29.6402907,19.5542098 29.6054229,19.5325197 L28.594207,18.9127326 C28.8096612,18.4506898 28.9258168,17.8959264 28.9258168,17.2303276 C28.9258168,14.8515665 25.5682946,12.6338674 21.6780292,13.6002391 C17.4160822,14.6533365 11.4072327,19.3860798 12.0762592,21.4303276 C13.4762592,25.6674957 17.6762592,21.1701506 21.6780292,21.1701506 C23.5102896,21.1701506 25.1841156,21.0818429 26.460478,20.6483602 L28.851,27.6662362 L26.1100323,26.3883202 L28.5495794,33.9627182 C27.7191886,34.0319839 26.9942904,34.3275103 26.5181177,34.7538088 L24.9380894,34.3719458 L25.9503088,35.6903823 C25.9341484,35.774448 25.9258168,35.8601462 25.9258168,35.9471418 C25.9258168,36.7068178 26.5611388,37.3675689 27.4968899,37.7061331 L28.4343922,38.92618 C26.6411055,38.772975 24.9258168,37.7799623 24.9258168,35.9471418 C24.9258168,35.5666987 24.8764397,35.2141143 24.7627013,34.8801908 L24.9141086,34.6005102 C22.6832446,38.7779124 19.2932416,42.2927008 15.307795,42.9344253 C14.7625334,43.0222216 14.2493385,42.6513728 14.1615421,42.1061111 C14.0737457,41.5608495 14.4445946,41.0476546 14.9898562,40.9598583 C17.8664438,40.4966789 20.584908,37.9301255 22.5306666,34.742221 C18.6934238,36.9936091 11.9461105,38.9458241 6.13394357,38.6841832 C5.58221756,38.6593466 5.15508925,38.1919503 5.17992579,37.6402243 C5.20476233,37.0884983 5.67215863,36.66137 6.22388464,36.6862065 C12.0059477,36.9464923 18.8775994,34.8131362 22.1548481,32.6214318 C19.538787,33.3944192 15.2538421,33.846585 11.4022427,33.6601314 C5.92982593,33.3952149 1.82825237,31.9776837 0.141621787,29.1537083 C-0.141568422,28.6795546 0.0132380921,28.065606 0.487391813,27.7824158 C0.92767741,27.5194535 1.48850039,27.6341516 1.79310954,28.0315127 L1.8586843,28.1281858 C3.9019185,31.5492331 13.2370999,32.4674639 19.5055215,31.241054 C19.2355442,31.1358307 18.9517601,31.0292478 18.6550203,30.9205931 C10.6143123,27.9719205 10.2797991,17.1807701 12.3736044,12.2869648 C12.9984485,10.8042838 13.6595044,9.58413808 14.3877263,8.58009643 C14.1212859,8.23769336 13.8774973,7.86097912 13.6620999,7.45510637 C12.1629849,4.61793822 12.5966132,1.45864619 14.640861,0.368380703 C16.6851088,-0.721884784 19.5594451,0.690504597 21.0585601,3.51528336 C21.2129781,3.8038678 21.3469654,4.09607287 21.460905,4.38930935 C23.4823069,4.02744341 25.9222064,3.9365223 28.9258168,3.9365223 C31.9321859,3.9365223 34.3646993,4.03671932 36.395184,4.39331963 C36.5057311,4.09873238 36.6392242,3.80518104 36.7930734,3.51528336 Z M51.6277489,36.6862065 C52.1794749,36.66137 52.6468712,37.0884983 52.6717077,37.6402243 C52.6965443,38.1919503 52.269416,38.6593466 51.71769,38.6841832 C51.3993038,38.6985157 51.0781114,38.7062049 50.754745,38.7075656 L50.5055005,37.5366616 C50.4495628,37.2635814 50.393885,36.9861054 50.3385796,36.7051971 C50.7730596,36.7115208 51.2033394,36.7053118 51.6277489,36.6862065 Z M57.3642417,27.7824158 C57.8383954,28.065606 57.9932019,28.6795546 57.7100117,29.1537083 C56.3792383,31.3818614 53.5450629,32.7344449 49.72034,33.3361378 L49.652774,32.9557928 L49.4695131,31.8549062 L49.3846819,31.3252764 C52.359683,30.8050499 54.8394826,29.8107016 55.8763002,28.3094597 L55.9929492,28.1281858 C56.2761394,27.6540321 56.890088,27.4992256 57.3642417,27.7824158 Z M47.5740455,31.5779939 L47.4894109,31.7071293 L47.2994074,32.0267836 L47.26,32.0962362 L47.142461,31.9030427 L46.9733547,31.6360908 C47.1746672,31.618607 47.3749785,31.5992442 47.5740455,31.5779939 Z M31.2778757,20.6042268 C32.1490476,20.9213448 33.2159878,21.0682579 34.3982469,21.1302184 L34.1207144,22.3123332 L34.049,22.5732362 L34.0268208,22.5554452 C33.7626575,22.3482926 33.4784734,22.1340702 33.1752881,21.9130508 C32.75339,21.6054908 32.2980554,21.2873026 31.8140474,20.9605945 L31.2778757,20.6042268 Z M42.8514805,1.47103557 C41.2160822,0.603778933 38.7877637,1.95422141 37.4373212,4.5064338 C36.0744893,7.04625681 38.0567902,6.12944265 39.6921884,6.99669929 C41.3275867,7.86395592 41.9966132,10.2055488 43.3470557,7.65333646 C44.6974982,5.10112407 44.4868787,2.33829221 42.8514805,1.47103557 Z M20.4267017,4.5064338 C19.0638699,1.96661079 16.6479407,0.603778933 15.0125424,1.47103557 C13.3771442,2.33829221 13.1541353,5.10112407 14.5045778,7.65333646 C15.8550203,10.1931595 16.5240468,7.86395592 18.1594451,6.99669929 C19.7948433,6.12944265 21.7895336,7.04625681 20.4267017,4.5064338 Z" id="Shape"></path>
        </g>
        <g id="leaf" transform="translate(27.938089, 23.942435)" fill="#000000" fill-rule="nonzero">
            <path d="M0.25971532,-4.4408921e-16 L3.91291058,10.7238011 L1.17194293,9.44588507 L4.05891058,18.4098011 L8.8817842e-16,17.4295108 L6.06491058,25.3298011 L2.07207992,24.0990983 L3.7315916,26.5641474 L3.92747851,26.8364178 C4.14531242,27.1334337 4.39935962,27.462955 4.68778325,27.8169504 C5.50996257,28.8260481 6.44657489,29.8346018 7.48427131,30.7783725 C10.5030365,33.5238982 13.7559012,35.1888011 17.1521013,35.1888011 C20.3906942,35.1888011 23.4126792,34.5318607 26.1387765,33.4368616 C27.0948078,33.0528498 27.9472458,32.6405438 28.6866692,32.2265533 L29.0003141,32.0470322 L29.263317,31.8893451 L29.560913,31.6991581 L30.525276,31.0278475 L29.7204227,30.0537547 L29.3865376,29.6250005 L29.2829498,29.4882338 C28.8643718,28.9324568 28.4457188,28.3361099 28.0564478,27.7251712 C27.6380379,27.0685006 27.2795551,26.4348493 26.9997464,25.843114 L26.8413135,25.4927897 C26.7680556,25.3226969 26.6902161,25.1101827 26.6084389,24.8584362 L26.4829004,24.4517906 L26.3519385,23.988688 C26.3296864,23.9069324 26.3072285,23.822924 26.2845747,23.7367127 L26.1463832,23.1934089 L26.0039758,22.5996271 L25.8578354,21.957759 L25.5674111,20.5942265 C25.3639295,19.600857 25.1638876,18.5493204 24.9726958,17.4859949 L24.7146846,16.0133577 L24.5314237,14.9124711 L24.1320678,12.4138486 L22.7153833,14.5104183 L22.5513215,14.7646942 L22.361318,15.0843486 L22.3219106,15.1538011 L22.2043716,14.9606077 C22.0644642,14.7354652 21.9160232,14.5042934 21.7593975,14.2672868 C21.4568787,13.8095143 21.1268633,13.334844 20.7735788,12.847017 C20.3036539,12.1981289 19.8095,11.5487683 19.3093421,10.9158472 L18.6353282,10.0768684 L17.9100446,9.20669023 L16.597138,7.68119973 L16.1129106,9.93180106 L16.0512311,9.85296085 C15.6229021,9.31842228 15.1494799,8.77793297 14.6367257,8.23348073 C13.7977745,7.34266643 12.901846,6.49213306 12.0060056,5.7088639 L11.5529277,5.31868289 L10.9004197,4.77957836 L9.56667952,3.73728823 L9.18262498,5.36989807 L9.11091058,5.63080106 L9.08873143,5.61301004 C8.82456812,5.40585745 8.54038395,5.19163507 8.23719868,4.97061566 C7.81530061,4.66305569 7.35996601,4.34486751 6.87595799,4.01815942 C6.16705853,3.53964837 5.42168493,3.05934192 4.66733345,2.59008456 L3.65095911,1.9674799 L2.56010171,1.32173382 L0.25971532,-4.4408921e-16 Z M3.89391058,4.46580106 L4.34013047,4.74746603 C4.82380216,5.0558205 5.29891813,5.36664069 5.75700598,5.67585252 C6.22196279,5.98970093 6.65775622,6.29423372 7.05903951,6.58676571 C7.80609633,7.13136356 8.41888506,7.62373375 8.86852421,8.04618671 L9.85300048,8.97113934 L10.4502157,7.75950205 L10.5373004,7.57497068 L10.6215841,7.38090985 L10.6895592,7.21450956 C11.5398297,7.95793517 12.390012,8.76504017 13.1807643,9.60467606 C14.2419514,10.7314648 15.1098698,11.8270296 15.7149669,12.8465087 L16.8919598,14.8295286 L17.5641747,12.5120052 L17.6310599,12.2557295 L17.6749106,12.0738011 L18.2204986,12.7716607 C18.539055,13.1855135 18.8519972,13.6034428 19.1537425,14.0201029 C19.4910323,14.4858438 19.8049171,14.9373129 20.0908307,15.3699586 C20.733109,16.3418562 21.2158477,17.191121 21.5011048,17.8697192 L22.6989429,20.7192567 L23.1639106,18.7138011 L23.4026884,19.9682313 L23.7076879,21.4757065 L23.907847,22.4024114 L24.0642564,23.0889001 L24.2173656,23.7253777 C24.2426137,23.8272298 24.2677279,23.9269533 24.2927102,24.0245257 L24.4410352,24.5839669 C24.4654971,24.672845 24.4898306,24.7595271 24.5140377,24.8439908 L24.6577783,25.3239721 C24.7763225,25.701473 24.8917987,26.0223908 25.0044379,26.2839205 C25.0631787,26.4203069 25.1256384,26.5583747 25.1916955,26.6980712 C25.5106821,27.3726595 25.9093031,28.0772587 26.3697401,28.7998884 L26.6893111,29.2895955 C26.9053177,29.6130422 27.1266527,29.9299643 27.3497764,30.2375107 L27.5809106,30.5508011 L27.7096181,30.4814541 C27.0425978,30.8549073 26.267005,31.230045 25.3933196,31.5809807 C22.8916544,32.5858315 20.1179399,33.1888011 17.1521013,33.1888011 C14.34387,33.1888011 11.5152475,31.7410367 8.82993722,29.2987837 L8.35804888,28.8577015 C8.04849807,28.5604446 7.74914402,28.2571874 7.46067042,27.9503542 L7.33691058,27.8158011 L11.4743647,29.0921571 L5.03391058,20.7018011 L7.05600268,21.1910391 L4.47991058,13.1948011 L7.31926732,14.51866 L3.89391058,4.46580106 Z" id="Path-706"></path>
            <path d="M5.65558455,6.89742647 C5.81650629,6.67301879 6.1288775,6.62155328 6.35328517,6.78247503 C6.6255003,6.97767928 6.98997361,7.41555141 7.40953431,8.01873052 L7.69699462,8.4444909 C7.74612888,8.51924964 7.79584126,8.59583696 7.84608077,8.67414675 L8.15343537,9.16382618 C8.25772347,9.33337656 8.36371216,9.50896787 8.47099352,9.68975116 L8.79630775,10.246828 L9.12693059,10.8299629 L9.46041459,11.4340622 L9.7943123,12.0540321 L10.1261762,12.6847791 L10.453559,13.3212092 L10.774013,13.9582289 L11.0850909,14.5907443 L11.3843452,15.2136618 L11.6693284,15.8218876 L11.9375931,16.4103281 L12.3032892,17.2447487 L12.51905,17.7614407 L12.7095261,18.2405193 C13.6029872,20.5550749 16.2380126,24.0883507 19.2572949,26.7241292 L19.8808247,27.2652448 L20.2593183,27.5879943 L20.7822895,28.0200579 C20.837872,28.0647997 20.8927045,28.1084942 20.9468789,28.1511825 L21.2647621,28.3955661 C21.3166713,28.4343938 21.3681059,28.4722974 21.419158,28.5093181 L21.7216133,28.7211756 L22.0192935,28.9138145 C22.5633572,29.2505741 23.1055704,29.5003841 23.7681659,29.7179374 L24.1422551,29.8337326 C24.2714208,29.8714838 24.4053009,29.9084974 24.5446298,29.9451021 L24.9796982,30.0540184 L25.4518684,30.1624538 L25.9655485,30.2723808 L26.8235423,30.4443824 L27.7997289,30.6308348 C27.9153113,30.6526011 28.033358,30.6747582 28.1539608,30.6973474 C28.4253832,30.7481853 28.6042023,31.0094289 28.5533643,31.2808513 C28.5025264,31.5522737 28.2412828,31.7310928 27.9698604,31.6802548 L26.5944905,31.4178327 L25.702882,31.2373655 L25.1668567,31.1211268 L24.6724037,31.005836 C24.5932149,30.9865899 24.515575,30.9673007 24.4393923,30.9479273 L23.9990502,30.8303458 C23.92833,30.8104703 23.8588838,30.7904281 23.7906199,30.7701779 L23.3944914,30.6458502 C23.0110846,30.5183663 22.6636437,30.3804235 22.3323742,30.2231112 L22.005762,30.0590124 L21.6855319,29.8800204 C21.4731951,29.755288 21.2621805,29.6193067 21.046623,29.4694364 L20.7191466,29.2338842 L20.3804572,28.9755182 C20.3228302,28.930446 20.2645527,28.8843408 20.2055331,28.8371612 L19.8417765,28.5408619 L19.4558099,28.2167985 L18.8255941,27.6743141 C18.7516942,27.6100725 18.6764106,27.5444679 18.5996518,27.4774588 C15.464747,24.7407441 12.7326688,21.0773312 11.7766197,18.6006383 L11.6900717,18.3800029 L11.4970958,17.90812 L11.2797532,17.3997623 L11.0406121,16.860139 L10.7822402,16.2944594 L10.3642422,15.4084795 L10.0690282,14.8004494 L9.7635713,14.1845954 L9.45043937,13.5661265 L9.13220034,12.9502522 L8.81142216,12.3421816 L8.3311113,11.4561028 L8.01521991,10.890332 L7.70577712,10.3505972 L7.40535085,9.84210775 L7.11650905,9.37007287 C7.06947678,9.29472767 7.0230342,9.22111847 6.9772348,9.14935378 L6.71058455,8.74176808 L6.46193859,8.38366005 C6.18335278,7.99675515 5.94676857,7.7215027 5.77053599,7.59512709 C5.54612831,7.43420535 5.4946628,7.12183414 5.65558455,6.89742647 Z" id="Path-707"></path>
            <path d="M20.0619106,21.6888011 C20.338053,21.6888011 20.5619106,21.9126587 20.5619106,22.1888011 C20.5619106,24.2615949 21.2199757,26.8252828 22.4900352,28.9305196 C22.6326801,29.1669663 22.5566388,29.4742808 22.3201921,29.6169257 C22.0837454,29.7595706 21.7764309,29.6835293 21.633786,29.4470826 C20.2658359,27.1795834 19.5619106,24.4372334 19.5619106,22.1888011 C19.5619106,21.9126587 19.7857682,21.6888011 20.0619106,21.6888011 Z" id="Path-708"></path>
            <path d="M12.5877533,29.0301353 C12.6753819,28.7682655 12.9587065,28.6270151 13.2205764,28.7146438 C16.6139613,29.8501614 18.9407894,30.0864102 21.8966669,29.0513716 C22.157293,28.9601101 22.4425542,29.0974071 22.5338158,29.3580332 C22.6250774,29.6186592 22.4877803,29.9039205 22.2271543,29.9951821 C19.0171198,31.1192169 16.4876365,30.862392 12.9032448,29.6629584 C12.641375,29.5753298 12.5001246,29.2920052 12.5877533,29.0301353 Z" id="Path-709"></path>
            <path d="M17.187161,15.7156838 C17.4484565,15.6263569 17.7326921,15.765765 17.8220189,16.0270605 L17.9378127,16.3861045 C18.023447,16.6618491 18.1090286,16.9576116 18.1890234,17.2623719 C18.2772765,17.5985941 18.3533403,17.9256179 18.4135812,18.2366759 C18.5092408,18.7306203 18.5619106,19.1670722 18.5619106,19.5359059 C18.5619106,19.8481927 18.5027545,20.1728045 18.3860254,20.5769508 L18.2113896,21.129111 L18.0375615,21.6537901 C17.6199281,22.9426186 17.4682763,23.9146066 17.6115443,25.1302808 C17.6438642,25.4045253 17.4477455,25.6530448 17.173501,25.6853647 C16.8992566,25.7176845 16.650737,25.5215659 16.6184172,25.2473214 C16.4555467,23.8653136 16.6280813,22.7594808 17.0862597,21.3455292 L17.4674326,20.1560833 L17.5329298,19.920256 L17.5552407,19.8052178 L17.5631294,19.6825583 L17.5619106,19.5359059 C17.5619106,19.2407375 17.5163736,18.863392 17.4318227,18.4268077 C17.3760495,18.138819 17.3048292,17.832619 17.2217888,17.516256 C17.1711382,17.32329 17.1180192,17.1337412 17.0640929,16.9510802 L16.8757843,16.3505417 C16.7864575,16.0892462 16.9258656,15.8050107 17.187161,15.7156838 Z" id="Path-710"></path>
            <path d="M8.64032205,21.9199831 C8.78878612,21.6871462 9.09789164,21.6187485 9.33072856,21.7672126 L9.68735188,21.9852552 L10.0964628,22.2233462 C10.7015556,22.568844 11.3574961,22.9144737 12.0397699,23.2366831 C12.9890888,23.6850066 13.9112731,24.0505798 14.773897,24.3042148 C15.6287373,24.5555612 16.3992589,24.6888011 17.0619106,24.6888011 C17.338053,24.6888011 17.5619106,24.9126587 17.5619106,25.1888011 C17.5619106,25.4649435 17.338053,25.6888011 17.0619106,25.6888011 C16.2926993,25.6888011 15.4313588,25.5398567 14.4918104,25.2636038 C13.5744107,24.9938632 12.6055939,24.6098039 11.612737,24.1409191 C10.9054108,23.8068785 10.2269513,23.4493832 9.60061551,23.091756 L9.30256616,22.9193439 L8.9544176,22.7110011 L8.7930926,22.6103896 C8.56025568,22.4619256 8.49185797,22.15282 8.64032205,21.9199831 Z" id="Path-711"></path>
            <path d="M7.65029797,15.9049436 C7.80706813,15.6776163 8.11844068,15.6204183 8.34576805,15.7771885 L8.8197403,16.0882637 C9.19024336,16.3239595 9.58375383,16.5596702 9.98217771,16.7790995 C10.3131978,16.9614067 10.6331074,17.1242909 10.9359274,17.262705 C11.4085199,17.4787194 11.8250049,17.6283538 12.1643807,17.6994139 C12.4346618,17.7560065 12.6078905,18.0209901 12.5512978,18.2912712 C12.4947052,18.5615523 12.2297216,18.734781 11.9594405,18.6781883 C11.5367055,18.5896742 11.0546389,18.4164776 10.5202121,18.1721998 C10.1930981,18.0226813 9.85137753,17.8486919 9.49975909,17.6550403 C9.08134595,17.424602 8.67017324,17.1783117 8.28299266,16.9320065 L7.84585673,16.646639 C7.82030675,16.6293858 7.79765969,16.6139348 7.77805311,16.6004137 C7.55072575,16.4436436 7.49352782,16.132271 7.65029797,15.9049436 Z" id="Path-712"></path>
            <path d="M10.8681903,11.7278537 C11.1227645,11.620865 11.4158692,11.7405066 11.5228579,11.9950808 L11.6089647,12.2139572 L11.6893375,12.4342269 C11.8106387,12.7758362 11.931646,13.1588986 12.0445007,13.5753011 C12.3677145,14.7678708 12.5619106,15.9933018 12.5619106,17.1888011 C12.5619106,17.4649435 12.338053,17.6888011 12.0619106,17.6888011 C11.7857682,17.6888011 11.5619106,17.4649435 11.5619106,17.1888011 C11.5619106,16.0913173 11.3811067,14.9503948 11.0793205,13.8368871 C10.9734251,13.4461624 10.8600574,13.0872841 10.7469837,12.768845 L10.6450276,12.4926225 L10.6009632,12.3825214 C10.4939745,12.1279472 10.6136161,11.8348425 10.8681903,11.7278537 Z" id="Path-713"></path>
        </g>
    </g>
</svg>