<?xml version="1.0" encoding="UTF-8"?>
<svg width="64px" height="64px" viewBox="0 0 64 64" version="1.1" xmlns="http://www.w3.org/2000/svg" xmlns:xlink="http://www.w3.org/1999/xlink">
    <title>chemical_insect_aerosol</title>
    <g id="chemical_insect_aerosol" stroke="none" stroke-width="1" fill="none" fill-rule="evenodd">
        <path d="M15.5,19 C15.7761424,19 16,19.2238576 16,19.5 L16.0008958,22.1265974 C20.3746791,22.7073605 23.1656788,25.2768028 23.9670742,29.6385873 L23.9210184,29.6469624 C23.972432,29.8069305 24,29.9758968 24,30.1519031 L24,57 C24,57.7601872 23.4612934,58.4546528 22.6098253,58.7921228 C20.5221936,59.6195327 17.6686891,60 14,60 C10.3313109,60 7.47780638,59.6195327 5.39017467,58.7921228 C4.53870661,58.4546528 4,57.7601872 4,57 L4,30.1519031 C4,30.0414746 4.01085202,29.9338174 4.03163672,29.8294151 C4.82703198,25.368146 7.61570983,22.7258432 12.0000369,22.129613 L12,19.5 C12,19.2238576 12.2238576,19 12.5,19 L15.5,19 Z M20,32.7369031 L19.8423114,32.7550402 C18.1477846,32.926032 16.2039683,33.0076743 14,33.0076743 C11.7960317,33.0076743 9.85221535,32.926032 8.15768857,32.7550402 L8,32.7379323 L8,56.3282232 L8.20939017,56.3644439 C9.56680122,56.585864 11.3067366,56.7143164 13.4156914,56.7341875 L14,56.7369031 C16.3737501,56.7369031 18.3097978,56.6059931 19.7906098,56.3644439 L20,56.3271941 L20,32.7369031 Z M14,26 C11.2051573,26 9.48801076,26.8168749 8.58344534,28.5993493 C9.87724485,28.8583211 11.6935985,29 14,29 C16.3365081,29 18.1700912,28.8545981 19.4682562,28.590676 C18.5792697,26.8172151 16.8520449,26 14,26 Z" id="Combined-Shape" fill="#000000" fill-rule="nonzero"></path>
        <path d="M59.8877167,5.33929915 C59.5228217,4.296742 58.3818563,3.74738828 57.3392992,4.11228329 L17.3392992,18.1122833 C15.5535669,18.7372896 15.5535669,21.2627104 17.3392992,21.8877167 L57.3392992,35.8877167 C58.3818563,36.2526117 59.5228217,35.703258 59.8877167,34.6607008 C60.2526117,33.6181437 59.703258,32.4771783 58.6607008,32.1122833 L24.054,20 L58.6607008,7.88771671 C59.6536124,7.54019766 60.1991739,6.48875988 59.9336707,5.4888109 L59.8877167,5.33929915 Z" id="Combined-Shape" fill="#000000" fill-rule="nonzero"></path>
        <path d="M57.7527169,13.0153461 C58.8488109,12.8787754 59.8480832,13.6566228 59.9846539,14.7527169 C60.1212246,15.8488109 59.3433772,16.8480832 58.2472831,16.9846539 L42.2472831,18.9782156 C41.1511891,19.1147863 40.1519168,18.3369389 40.0153461,17.2408449 C39.8787754,16.1447508 40.6566228,15.1454786 41.7527169,15.0089079 L57.7527169,13.0153461 Z" id="Path-288" fill="#000000" fill-rule="nonzero"></path>
        <path d="M57.7523626,21.0189278 C58.8484322,20.8821614 59.8478433,21.6598304 59.9846097,22.7559001 C60.1213761,23.8519697 59.3437071,24.8513808 58.2476374,24.9881472 L42.2476374,26.9846097 C41.1515678,27.1213761 40.1521567,26.3437071 40.0153903,25.2476374 C39.8786239,24.1515678 40.6562929,23.1521567 41.7523626,23.0153903 L57.7523626,21.0189278 Z" id="Path-288-Copy-2" fill="#000000" fill-rule="nonzero" transform="translate(50, 24.0018) scale(1, -1) translate(-50, -24.0018)"></path>
    </g>
</svg>