<?xml version="1.0" encoding="UTF-8"?>
<svg width="64px" height="64px" viewBox="0 0 64 64" version="1.1" xmlns="http://www.w3.org/2000/svg" xmlns:xlink="http://www.w3.org/1999/xlink">
    <title>chemical_rodenticide_block</title>
    <g id="chemical_rodenticide_block" stroke="none" stroke-width="1" fill="none" fill-rule="evenodd">
        <path d="M7.81933594,24.131236 L11.1826172,25.2740583 L11.8095703,28.4786481 L14.7102051,25.9010114 L19.6179199,27.612193 L21.2163086,31.4730329 L22.8442383,29.1585798 L25.8125,30.0267438 L25.8125,33.8582596 L23.2810059,34.9759626 L25.8125,37.9150124 L25.6032715,43.448863 L23.2810059,45.1905622 L25.6032715,48.2318219 L25.6032715,51.7841734 L21.2163086,50.2452497 L20.3725586,46.8236188 L19.0129395,49.4637555 L13.9069824,47.5589704 L12.3417969,43.448863 L10.5402832,46.2027692 L7.78637695,44.9439801 L7.78637695,40.6680837 L10.0437012,40.0821637 L8.17089844,37.9150123 L8.17089844,31.4730329 L9.77001953,29.6466169 L7.81933594,26.803111 L7.81933594,24.131236 Z M16,33.131236 C14.3431458,33.131236 13,34.922097 13,37.131236 C13,39.340375 14.3431458,41.131236 16,41.131236 C17.6568542,41.131236 19,39.340375 19,37.131236 C19,34.922097 17.6568542,33.131236 16,33.131236 Z" id="Path-9" fill="#000000" fill-rule="nonzero"></path>
        <polygon id="Path-10" fill="#000000" fill-rule="nonzero" points="8.31860352 23.5333356 38.1384277 11.0748395 41.543457 12.1331891 11.7861328 24.7027692"></polygon>
        <polygon id="Path-11" fill="#000000" fill-rule="nonzero" points="15.7260742 25.5240583 44.0810547 13.0951032 49.1928711 14.4166364 20 26.9999998"></polygon>
        <polygon id="Path-12" fill="#000000" fill-rule="nonzero" points="22.9155273 28.4779157 52.1811523 15.4881696 54.9558105 16.131236 26.5043945 29.5042829"></polygon>
        <polygon id="Path-13" fill="#000000" fill-rule="nonzero" points="26.4858398 30.2237653 55.9853516 16.9046735 55.9853516 20.9752638 26.4568359 34.016734"></polygon>
        <polygon id="Path-14" fill="#000000" fill-rule="nonzero" points="26.7116699 37.6876325 55.791748 24.4659528 55.791748 30.0216169 26.5849609 43.9185895"></polygon>
        <polygon id="Path-15" fill="#000000" fill-rule="nonzero" points="26.2976074 48.0365094 26.2976074 51.4364208 55.4819336 37.2737165 55.4819336 33.911272"></polygon>
    </g>
</svg>