<?xml version="1.0" encoding="UTF-8"?>
<svg width="64px" height="64px" viewBox="0 0 64 64" version="1.1" xmlns="http://www.w3.org/2000/svg" xmlns:xlink="http://www.w3.org/1999/xlink">
    <title>chemical_insect_granules</title>
    <g id="chemical_insect_granules" stroke="none" stroke-width="1" fill="none" fill-rule="evenodd">
        <ellipse id="Oval" fill="#000000" fill-rule="nonzero" cx="13" cy="45" rx="5" ry="4"></ellipse>
        <ellipse id="Oval-Copy-12" fill="#000000" fill-rule="nonzero" cx="26" cy="22" rx="5" ry="4"></ellipse>
        <ellipse id="Oval-Copy-8" fill="#000000" fill-rule="nonzero" transform="translate(47.000000, 38.000000) rotate(7.000000) translate(-47.000000, -38.000000) " cx="47" cy="38" rx="5" ry="4"></ellipse>
        <ellipse id="Oval-Copy-13" fill="#000000" fill-rule="nonzero" transform="translate(36.000000, 22.000000) rotate(7.000000) translate(-36.000000, -22.000000) " cx="36" cy="22" rx="5" ry="4"></ellipse>
        <ellipse id="Oval-Copy" fill="#000000" fill-rule="nonzero" transform="translate(23.000000, 45.000000) rotate(-27.000000) translate(-23.000000, -45.000000) " cx="23" cy="45" rx="5" ry="4"></ellipse>
        <ellipse id="Oval-Copy-5" fill="#000000" fill-rule="nonzero" transform="translate(37.000000, 38.000000) rotate(-27.000000) translate(-37.000000, -38.000000) " cx="37" cy="38" rx="5" ry="4"></ellipse>
        <ellipse id="Oval-Copy-11" fill="#000000" fill-rule="nonzero" transform="translate(22.000000, 30.000000) rotate(-27.000000) translate(-22.000000, -30.000000) " cx="22" cy="30" rx="5" ry="4"></ellipse>
        <ellipse id="Oval-Copy-2" fill="#000000" fill-rule="nonzero" transform="translate(32.000000, 45.000000) rotate(49.000000) translate(-32.000000, -45.000000) " cx="32" cy="45" rx="5" ry="4"></ellipse>
        <ellipse id="Oval-Copy-9" fill="#000000" fill-rule="nonzero" transform="translate(41.000000, 30.000000) rotate(49.000000) translate(-41.000000, -30.000000) " cx="41" cy="30" rx="5" ry="4"></ellipse>
        <ellipse id="Oval-Copy-10" fill="#000000" fill-rule="nonzero" transform="translate(32.000000, 29.000000) rotate(27.000000) translate(-32.000000, -29.000000) " cx="32" cy="29" rx="5" ry="4"></ellipse>
        <ellipse id="Oval-Copy-7" fill="#000000" fill-rule="nonzero" transform="translate(28.000000, 36.000000) rotate(49.000000) translate(-28.000000, -36.000000) " cx="28" cy="36" rx="5" ry="4"></ellipse>
        <ellipse id="Oval-Copy-14" fill="#000000" fill-rule="nonzero" transform="translate(30.000000, 15.000000) rotate(49.000000) translate(-30.000000, -15.000000) " cx="30" cy="15" rx="5" ry="4"></ellipse>
        <ellipse id="Oval-Copy-3" fill="#000000" fill-rule="nonzero" transform="translate(41.000000, 45.000000) rotate(-46.000000) translate(-41.000000, -45.000000) " cx="41" cy="45" rx="5" ry="4"></ellipse>
        <ellipse id="Oval-Copy-4" fill="#000000" fill-rule="nonzero" transform="translate(51.000000, 45.000000) rotate(-9.000000) translate(-51.000000, -45.000000) " cx="51" cy="45" rx="5" ry="4"></ellipse>
        <ellipse id="Oval-Copy-6" fill="#000000" fill-rule="nonzero" transform="translate(19.000000, 38.000000) rotate(-9.000000) translate(-19.000000, -38.000000) " cx="19" cy="38" rx="5" ry="4"></ellipse>
    </g>
</svg>