<?xml version="1.0" encoding="UTF-8"?>
<svg width="64px" height="64px" viewBox="0 0 64 64" version="1.1" xmlns="http://www.w3.org/2000/svg" xmlns:xlink="http://www.w3.org/1999/xlink">
    <title>chemical_insect_dust</title>
    <g id="chemical_insect_dust" stroke="none" stroke-width="1" fill="none" fill-rule="evenodd">
        <path d="M36,14.9999998 L36,16.9999998 L35,16.9999998 L35,18.9999998 L39.9205532,23.1004608 C40.604531,23.6704423 41,24.5147851 41,25.4051247 L41,53.9999998 L41,53.9999998 C41,55.3333332 40.3333333,55.9999998 39,55.9999998 L25,55.9999998 C23.6666667,55.9999998 23,55.3333332 23,53.9999998 L23,25.4051247 L23,25.4051247 C23,24.5147851 23.395469,23.6704423 24.0794468,23.1004608 L29,18.9999998 L29,16.9999998 L28,16.9999998 L28,14.9999998 L36,14.9999998 Z M35.9966488,30.131236 L28.0033512,30.131236 C26.3423789,30.131236 25,31.4774479 25,33.1380843 L25,33.1380843 L25,50.1243877 C25,51.7952445 26.3446462,53.131236 28.0033512,53.131236 L28.0033512,53.131236 L35.9966488,53.131236 C37.6576211,53.131236 39,51.7850241 39,50.1243877 L39,50.1243877 L39,33.1380843 C39,31.4672275 37.6553538,30.131236 35.9966488,30.131236 L35.9966488,30.131236 Z" id="Path-36" fill="#000000" fill-rule="nonzero"></path>
        <polygon id="Path-60" fill="#000000" fill-rule="nonzero" points="31 8.131236 30 14.131236 34 14.131236 33 8.131236"></polygon>
        <rect id="Rectangle-5" fill="#000000" fill-rule="nonzero" x="26" y="31.131236" width="12" height="21" rx="2"></rect>
    </g>
</svg>