<?xml version="1.0" encoding="UTF-8"?>
<svg width="64px" height="64px" viewBox="0 0 64 64" version="1.1" xmlns="http://www.w3.org/2000/svg" xmlns:xlink="http://www.w3.org/1999/xlink">
    <title>chemical_rodent_attractant</title>
    <g id="chemical_rodent_attractant" stroke="none" stroke-width="1" fill="none" fill-rule="evenodd">
        <path d="M37.4649973,23.4894078 C37.4568642,23.6610188 37.4668953,23.850794 37.4859136,24.0315821 C37.590182,24.9626737 38.0282108,25.7961396 38.7002866,26.4682155 C39.8173855,27.5853144 41.5825125,28.2360275 43.4971955,28.1196014 C43.8977571,28.6999072 44.3524317,29.2624283 44.8791939,29.7891905 C45.405956,30.3159526 45.9957235,30.7978736 46.6122628,31.2166943 C46.5203309,32.6346135 46.8527908,34.0095895 47.5452134,35.1154237 C47.754861,35.4688667 48.0003626,35.7682915 48.2637436,36.0316725 C48.9449015,36.7128304 49.7873546,37.141872 50.700377,37.2460455 C50.8992343,37.2651587 51.1070789,37.2752847 51.3148285,37.2673414 C50.5591719,39.6032844 48.9918195,42.2059968 46.2329362,45.0012084 C40.9845305,50.2496141 33.4433247,51.3475318 28.7754584,47.7444647 C28.7337516,47.8188984 28.680257,47.8893848 28.6162822,47.9533596 C27.5963107,48.9733311 27.321091,49.6778541 27.4654176,50.0392059 C27.5687456,50.2979089 28.0076857,50.5325307 28.6016285,50.5601365 C33.7521765,50.8093843 36.3466994,54.4039539 34.6004831,58.1931429 C32.8467508,61.9930019 28.4993041,62.1382519 25.9622866,59.6012345 C23.844136,57.4830838 22.6390361,54.14397 22.6247395,51.4217792 C22.6153888,49.6412988 21.6273323,47.9190062 20.0608053,47.1742159 C17.9580101,46.1744618 17.0848914,45.819301 15.6799577,45.4660061 L15.2165617,45.3537518 C12.317197,44.668211 10.2695007,41.3744344 12.1913283,38.9098199 C12.5309382,38.4742931 13.1593107,38.3965371 13.5948374,38.7361469 C14.0303642,39.0757568 14.1081202,39.7041292 13.7685104,40.139656 L13.6892834,40.2517544 C12.985607,41.3556963 14.0706577,43.0276632 15.6748104,43.4069585 C17.3580194,43.8013785 18.2899495,44.1370476 20.2606308,45.0572118 L20.9195681,45.3679693 C23.2137476,46.4587152 24.6114977,48.8951494 24.624712,51.4112757 L24.6309442,51.6811748 C24.7192769,53.8618768 25.7271435,56.5376642 27.3765002,58.1870209 C29.0198084,59.8303291 31.683218,59.7413435 32.7843193,57.3555579 C33.899776,54.9350806 32.3170311,52.7422741 28.5068635,52.5578892 L28.2914718,52.5426454 C27.0794266,52.4270605 26.0216167,51.8164009 25.6080851,50.7810386 C25.1066694,49.5256402 25.6779364,48.0632783 27.2020686,46.539146 C27.2533139,46.4879007 27.3087373,46.44338 27.3672421,46.4055837 C24.6132957,43.2030925 24.2494579,38.4692455 26.0766444,34.0689395 L26.1689123,33.9762067 C26.5893942,33.5230592 26.8716397,32.939794 26.9484012,32.2934969 C27.0723472,32.0687808 27.2051093,31.8464481 27.3437819,31.6259957 L31.8655493,36.074525 C32.4561108,36.6555198 33.2262438,36.942134 33.9939852,36.9359647 C34.7617265,36.9295954 35.5270762,36.6304427 36.1080598,36.0398925 C36.6890435,35.4493423 36.9756577,34.6792093 36.9694884,33.911468 C36.9631191,33.1437266 36.6639664,32.3783769 36.0734162,31.7973933 L31.3323713,27.1310872 C31.4091767,27.0648882 31.4858272,26.9996098 31.562321,26.9352421 L31.9694884,26.9359647 C32.7979155,26.9359647 33.5479155,26.6001783 34.0908088,26.0572851 C34.4789915,25.6691024 34.7612883,25.1750338 34.8906585,24.6221203 C35.7779983,24.1323044 36.6377933,23.761274 37.4649973,23.4894078 Z M54.0415717,12.7879468 C54.2863095,12.7691328 54.5034145,12.9298401 54.563504,13.1591582 L54.5784247,13.248152 L54.7817269,15.8774403 C54.7923064,15.8757304 54.8028747,15.8740305 54.8134315,15.8723405 L54.8177875,15.8344753 L55.3656946,13.5064756 C55.4289576,13.2376775 55.6981463,13.0710585 55.9669444,13.1343215 C56.205876,13.1905554 56.3640736,13.4094959 56.3518472,13.6462405 L56.3390985,13.7355714 L55.869536,15.7316597 C56.1169059,15.7058014 56.3543387,15.6863585 56.580051,15.6732538 L56.8839887,15.659183 L56.8876896,16.3638862 C56.8899672,16.7975498 57.0636659,17.1869415 57.3452112,17.4684868 C57.5915633,17.7148389 57.9204854,17.878621 58.2893873,17.9172431 L58.4498118,17.9260083 L59.1545151,17.9297094 C59.143847,18.246118 59.1196494,18.5896829 59.08164,18.9547011 L61.0872088,18.4836817 C61.3560068,18.4204186 61.6251955,18.5870377 61.6884586,18.8558357 C61.7446924,19.0947673 61.619291,19.3340076 61.4019442,19.428654 L61.3163045,19.4570855 L58.9883048,20.0049926 L58.9564066,20.0094517 L61.5382997,20.208027 C61.8136297,20.2291927 62.0196706,20.46955 61.9985049,20.74488 C61.9796909,20.9896178 61.7876885,21.1796086 61.5518805,21.203942 L61.4616518,21.2050852 L58.7622446,20.9958919 C58.7302498,21.1523445 58.6962887,21.3104008 58.6603471,21.46977 L59.9663496,21.8731756 C60.2302588,21.9544562 60.3783085,22.2342879 60.2970279,22.4981971 C60.2247784,22.732783 59.9956491,22.8758257 59.7602716,22.8476308 L59.6720064,22.8288754 L58.4198519,22.4429931 C57.8319647,24.6295259 56.8845386,26.9464922 55.5430978,28.6978257 C55.341868,28.2269797 55.0956073,27.7830004 54.7954233,27.3929443 C54.649825,27.1934227 54.3696082,27.1648477 54.1716049,27.3083584 C53.9736016,27.4518691 53.9479686,27.7318011 54.093567,27.9313227 C54.3588102,28.281548 54.5850495,28.6820559 54.7545098,29.1150714 C54.7596223,29.1298823 54.7655028,29.1438638 54.7713276,29.1578866 L54.8034066,29.2484517 L54.7862013,29.1940803 C55.1189057,30.0124885 55.2630979,30.9683601 55.153762,31.9752709 C54.8697106,34.6569983 52.9194863,36.6072225 50.8041429,36.3612185 C48.6887995,36.1152145 47.2037664,33.7494349 47.4879127,31.085777 C47.5481661,30.5169256 47.6808865,29.9845926 47.8770867,29.497765 L47.898906,29.4924362 L47.9308202,29.4077032 C48.0100316,29.199324 47.9392222,28.968742 47.7571971,28.8557544 L47.6838003,28.8191694 C47.4484247,28.7275891 47.1869416,28.8255944 47.0978287,29.0600209 C47.0265637,29.2523806 46.9593351,29.4487769 46.898806,29.6465468 L46.8133696,29.9438989 L44.7971422,27.9276715 C45.1039409,27.8570076 45.4015627,27.7591921 45.6810203,27.6432125 C45.9063647,27.5450175 46.0134521,27.2926164 45.9218718,27.0572409 C45.8213044,26.8308525 45.5677646,26.7211081 45.333338,26.810221 C44.9366672,26.9707571 44.5126552,27.0859775 44.0793712,27.1559772 L44.3498417,27.1066393 C44.1166578,27.1596413 43.8758022,27.1996365 43.6280179,27.2258822 C40.96436,27.5100285 38.5985804,26.0249953 38.3525763,23.909652 C38.1065723,21.7943085 40.0567966,19.8440843 42.7385239,19.5600328 C43.8337901,19.4411028 44.8686669,19.6221467 45.7319242,20.0194875 C46.1167781,20.1797044 46.475689,20.3829843 46.7915542,20.62931 C46.9820887,20.7838955 47.2710078,20.7492753 47.4145185,20.551272 C47.5671113,20.3623508 47.5294543,20.073052 47.3299326,19.9274536 C46.976205,19.6635981 46.5774465,19.4266092 46.1609032,19.2437335 C47.9054315,17.9266566 50.1936754,16.9896535 52.3548663,16.4037755 L51.9575764,15.1144453 C51.8762957,14.8505361 52.0243454,14.5707045 52.2882546,14.4894238 C52.5228406,14.4171744 52.7700072,14.5261242 52.879123,14.7365791 L52.9132761,14.8201021 L53.3259663,16.1615888 C53.4825814,16.1259032 53.6379335,16.0921329 53.7917472,16.0602658 L53.5813665,13.3247999 C53.5602008,13.0494698 53.7662417,12.8091125 54.0415717,12.7879468 Z M54.851635,22.6140378 C54.4561978,23.009475 54.4596141,23.6599702 54.8592268,24.0595829 C55.2588394,24.4591956 55.9093347,24.4626119 56.3047719,24.0671747 C56.700209,23.6717375 56.6967928,23.0212422 56.2971801,22.6216296 C55.8975674,22.2220169 55.2470722,22.2186006 54.851635,22.6140378 Z M50.7283591,18.4907619 C50.3329219,18.8861991 50.3363382,19.5366944 50.7359509,19.936307 C51.1355635,20.3359197 51.7860588,20.339336 52.181496,19.9438988 C52.5769331,19.5484616 52.5735169,18.8979663 52.1739042,18.4983537 C51.7742916,18.098741 51.1237963,18.0953248 50.7283591,18.4907619 Z M57.5343891,15.64453 C58.1849793,15.6660155 58.664338,15.7679116 58.8820239,15.9316742 C59.0547736,16.1403728 59.1476824,16.6287187 59.1691681,17.279309 L58.4463955,17.2755131 C57.9404547,17.272856 57.5226779,16.8550791 57.5381849,16.3673025 Z" id="Combined-Shape" fill="#000000" fill-rule="nonzero"></path>
        <path d="M31.9999996,21.9999996 C33.1045691,21.9999996 33.9999996,22.8954301 33.9999996,23.9999996 C33.9999996,25.1045691 33.1045691,25.9999996 31.9999996,25.9999996 L28.7199992,25.9999996 L35.4026181,32.5742853 C36.1900184,33.3489301 36.2003587,34.6152179 35.4257139,35.4026181 C34.651069,36.1900184 33.3847813,36.2003587 32.597381,35.4257139 L25.9999992,28.9349996 L25.9999996,31.9999996 C25.9999996,33.0543614 25.1841218,33.9181647 24.1492619,33.9945138 L23.9999996,33.9999996 C22.8954301,33.9999996 21.9999996,33.1045691 21.9999996,31.9999996 L21.9999996,23.9999996 C21.9999996,22.8954301 22.8954301,21.9999996 23.9999996,21.9999996 L31.9999996,21.9999996 Z" id="Combined-Shape" fill="#000000" fill-rule="nonzero"></path>
        <path d="M31.9999996,4 C33.1045691,4 33.9999996,4.8954305 33.9999996,6 C33.9999996,7.1045695 33.1045691,8 31.9999996,8 L28.7199992,8 L35.4026181,14.5742857 C36.1900184,15.3489305 36.2003587,16.6152183 35.4257139,17.4026185 C34.651069,18.1900188 33.3847813,18.2003591 32.597381,17.4257143 L25.9999992,10.935 L25.9999996,14 C25.9999996,15.0543618 25.1841218,15.9181651 24.1492619,15.9945143 L23.9999996,16 C22.8954301,16 21.9999996,15.1045695 21.9999996,14 L21.9999996,6 C21.9999996,4.8954305 22.8954301,4 23.9999996,4 L31.9999996,4 Z" id="Combined-Shape-Copy" fill="#000000" fill-rule="nonzero" transform="translate(29, 11) scale(1, -1) translate(-29, -11)"></path>
        <path d="M13.9999996,4 C15.1045691,4 15.9999996,4.8954305 15.9999996,6 C15.9999996,7.1045695 15.1045691,8 13.9999996,8 L10.7199992,8 L17.4026181,14.5742857 C18.1900184,15.3489305 18.2003587,16.6152183 17.4257139,17.4026185 C16.651069,18.1900188 15.3847813,18.2003591 14.597381,17.4257143 L7.99999916,10.935 L7.99999958,14 C7.99999958,15.0543618 7.18412179,15.9181651 6.14926193,15.9945143 L5.99999958,16 C4.89543008,16 3.99999958,15.1045695 3.99999958,14 L3.99999958,6 C3.99999958,4.8954305 4.89543008,4 5.99999958,4 L13.9999996,4 Z" id="Combined-Shape-Copy-2" fill="#000000" fill-rule="nonzero" transform="translate(11, 11) scale(-1, -1) translate(-11, -11)"></path>
        <path d="M14.0000004,21.9999996 C15.1045699,21.9999996 16.0000004,22.8954301 16.0000004,23.9999996 C16.0000004,25.1045691 15.1045699,25.9999996 14.0000004,25.9999996 L10.72,25.9999996 L17.402619,32.5742853 C18.1900192,33.3489301 18.2003595,34.6152179 17.4257147,35.4026181 C16.6510699,36.1900184 15.3847821,36.2003587 14.5973819,35.4257139 L8,28.9349996 L8.00000042,31.9999996 C8.00000042,33.0543614 7.18412263,33.9181647 6.14926276,33.9945138 L6.00000042,33.9999996 C4.89543092,33.9999996 4.00000042,33.1045691 4.00000042,31.9999996 L4.00000042,23.9999996 C4.00000042,22.8954301 4.89543092,21.9999996 6.00000042,21.9999996 L14.0000004,21.9999996 Z" id="Combined-Shape-Copy-3" fill="#000000" fill-rule="nonzero" transform="translate(11, 29) scale(-1, 1) translate(-11, -29)"></path>
    </g>
</svg>