<?xml version="1.0" encoding="UTF-8"?>
<svg width="64px" height="64px" viewBox="0 0 64 64" version="1.1" xmlns="http://www.w3.org/2000/svg" xmlns:xlink="http://www.w3.org/1999/xlink">
    <title>chemical_insect_granules</title>
    <g id="chemical_insect_granules" stroke="none" stroke-width="1" fill="none" fill-rule="evenodd">
        <g id="Group" transform="translate(4.5, 8.0777)" fill="#000000" fill-rule="nonzero">
            <path d="M5.5,37.4222974 C7.03808119,37.4222974 8.43363094,37.8835596 9.44264069,38.6403169 C10.3919352,39.3522878 11,40.3295948 11,41.4222974 C11,42.5149999 10.3919352,43.492307 9.44264069,44.2042779 C8.43363094,44.9610352 7.03808119,45.4222974 5.5,45.4222974 C3.96191881,45.4222974 2.56636906,44.9610352 1.55735931,44.2042779 C0.608064778,43.492307 0,42.5149999 0,41.4222974 C0,40.3295948 0.608064778,39.3522878 1.55735931,38.6403169 C2.56636906,37.8835596 3.96191881,37.4222974 5.5,37.4222974 Z" id="Oval"></path>
            <path d="M20.5,10.4222974 C22.0380812,10.4222974 23.4336309,10.8835596 24.4426407,11.6403169 C25.3919352,12.3522878 26,13.3295948 26,14.4222974 C26,15.5149999 25.3919352,16.492307 24.4426407,17.2042779 C23.4336309,17.9610352 22.0380812,18.4222974 20.5,18.4222974 C18.9619188,18.4222974 17.5663691,17.9610352 16.5573593,17.2042779 C15.6080648,16.492307 15,15.5149999 15,14.4222974 C15,13.3295948 15.6080648,12.3522878 16.5573593,11.6403169 C17.5663691,10.8835596 18.9619188,10.4222974 20.5,10.4222974 Z" id="Oval-Copy-12"></path>
            <path d="M40.7088696,30.1359764 C41.6732904,29.3694216 43.0066254,28.9007638 44.4757799,28.8995062 C45.94456,28.8982565 47.2767988,29.3644038 48.2396813,30.129137 C49.1559923,30.8568825 49.73734,31.858382 49.7363826,32.9745585 C49.7354212,34.0912817 49.1519646,35.0941834 48.2339656,35.8238404 C47.2695448,36.5903952 45.9362098,37.059053 44.4670553,37.0603106 C42.9982752,37.0615603 41.6660364,36.595413 40.7031539,35.8306798 C39.786843,35.1029343 39.2054952,34.1014348 39.2064526,32.9852584 C39.207414,31.8685351 39.7908706,30.8656334 40.7088696,30.1359764 Z" id="Oval-Copy-8" transform="translate(44.4714, 32.9799) rotate(7) translate(-44.4714, -32.9799)"></path>
            <path d="M28.0246236,11.8163223 C28.9890444,11.0497675 30.3223794,10.5811098 31.7915339,10.5798522 C33.260314,10.5786025 34.5925528,11.0447498 35.5554353,11.809483 C36.4717463,12.5372285 37.053094,13.538728 37.0521366,14.6549044 C37.0511752,15.7716277 36.4677186,16.7745294 35.5497197,17.5041864 C34.5852988,18.2707412 33.2519638,18.739399 31.7828093,18.7406566 C30.3140292,18.7419063 28.9817904,18.275759 28.018908,17.5110258 C27.102597,16.7832803 26.5212493,15.7817808 26.5222066,14.6656043 C26.523168,13.5488811 27.1066247,12.5459794 28.0246236,11.8163223 Z" id="Oval-Copy-13" transform="translate(31.7872, 14.6603) rotate(7) translate(-31.7872, -14.6603)"></path>
            <path d="M16.7821029,36.9080767 C18.249359,36.9123118 19.5818485,37.3844826 20.5465367,38.1540289 C21.4655785,38.8871623 22.050681,39.8934849 22.0539128,41.0126421 C22.0570993,42.1299804 21.47905,43.1316167 20.5656472,43.8583585 C19.6061048,44.6218108 18.2772831,45.0855851 16.8112953,45.0814374 C15.3440391,45.0772023 14.0115497,44.6050315 13.0468614,43.8354852 C12.1278197,43.1023518 11.5427171,42.0960292 11.5394854,40.976872 C11.5362989,39.8595337 12.1143482,38.8578974 13.0277509,38.1311556 C13.9872933,37.3677033 15.3161151,36.903929 16.7821029,36.9080767 Z" id="Oval-Copy" transform="translate(16.7967, 40.9948) rotate(-27) translate(-16.7967, -40.9948)"></path>
            <path d="M32.9256887,28.8932281 C34.3929448,28.8974632 35.7254343,29.369634 36.6901225,30.1391803 C37.6091643,30.8723136 38.1942668,31.8786363 38.1974986,32.9977934 C38.2006851,34.1151318 37.6226358,35.1167681 36.709233,35.8435098 C35.7496907,36.6069622 34.4208689,37.0707364 32.9548811,37.0665887 C31.487625,37.0623537 30.1551355,36.5901828 29.1904473,35.8206366 C28.2714055,35.0875032 27.6863029,34.0811805 27.6830712,32.9620234 C27.6798847,31.844685 28.257934,30.8430487 29.1713367,30.116307 C30.1308791,29.3528546 31.4597009,28.8890804 32.9256887,28.8932281 Z" id="Oval-Copy-5" transform="translate(32.9403, 32.9799) rotate(-27) translate(-32.9403, -32.9799)"></path>
            <path d="M15.6289896,19.7334011 C17.0962457,19.7376362 18.4287352,20.209807 19.3934234,20.9793532 C20.3124652,21.7124866 20.8975678,22.7188093 20.9007995,23.8379664 C20.903986,24.9553048 20.3259367,25.9569411 19.4125339,26.6836828 C18.4529916,27.4471352 17.1241698,27.9109094 15.658182,27.9067617 C14.1909259,27.9025266 12.8584364,27.4303558 11.8937482,26.6608095 C10.9747064,25.9276762 10.3896038,24.9213535 10.3863721,23.8021964 C10.3831856,22.684858 10.9612349,21.6832217 11.8746377,20.95648 C12.83418,20.1930276 14.1630018,19.7292534 15.6289896,19.7334011 Z" id="Oval-Copy-11" transform="translate(15.6436, 23.8201) rotate(-27) translate(-15.6436, -23.8201)"></path>
            <path d="M21.9322738,41.0166527 C21.9362377,39.8938602 22.5205625,38.8836375 23.4384503,38.1474456 C24.400792,37.3755993 25.7296399,36.9014128 27.1925764,36.8962196 C28.6539771,36.8911568 29.9783311,37.3550621 30.9343712,38.1194442 C31.8453697,38.8478143 32.4210593,39.8523067 32.4171633,40.9728614 C32.4131993,42.0956539 31.8288745,43.1058766 30.9109868,43.8420685 C29.9486451,44.6139147 28.6197972,45.0881013 27.1568606,45.0932945 C25.69546,45.0983573 24.371106,44.634452 23.4150659,43.8700699 C22.5040673,43.1416998 21.9283778,42.1372074 21.9322738,41.0166527 Z" id="Oval-Copy-2" transform="translate(27.1747, 40.9948) rotate(49) translate(-27.1747, -40.9948)"></path>
            <path d="M32.3102932,23.8419771 C32.3142572,22.7191846 32.898582,21.7089618 33.8164697,20.9727699 C34.7788114,20.2009237 36.1076593,19.7267372 37.5705959,19.721544 C39.0319965,19.7164811 40.3563505,20.1803864 41.3123907,20.9447686 C42.2233892,21.6731387 42.7990787,22.6776311 42.7951827,23.7981857 C42.7912188,24.9209782 42.206894,25.931201 41.2890062,26.6673929 C40.3266645,27.4392391 38.9978166,27.9134256 37.5348801,27.9186188 C36.0734794,27.9236817 34.7491254,27.4597764 33.7930853,26.6953942 C32.8820868,25.9670241 32.3063972,24.9625317 32.3102932,23.8419771 Z" id="Oval-Copy-9" transform="translate(37.5527, 23.8201) rotate(49) translate(-37.5527, -23.8201)"></path>
            <path d="M23.4248809,19.8343749 C24.3895691,19.0648286 25.7220586,18.5926578 27.1893052,18.5884227 C28.6553026,18.584275 29.9841243,19.0480492 30.9436667,19.8115016 C31.8570694,20.5382433 32.4351187,21.5398796 32.4319322,22.6572119 C32.4287005,23.7763752 31.8435979,24.7826978 30.9245562,25.5158312 C29.9598679,26.2853774 28.6273785,26.7575483 27.1601318,26.7617833 C25.6941345,26.7659311 24.3653128,26.3021568 23.4057704,25.5387044 C22.4923677,24.8119627 21.9143183,23.8103264 21.9175048,22.6929941 C21.9207366,21.5738309 22.5058392,20.5675082 23.4248809,19.8343749 Z" id="Oval-Copy-10" transform="translate(27.1747, 22.6751) rotate(27) translate(-27.1747, -22.6751)"></path>
            <path d="M17.3198207,30.7118473 C17.3237846,29.5890548 17.9081094,28.5788321 18.8259972,27.8426402 C19.7883389,27.0707939 21.1171868,26.5966074 22.5801233,26.5914142 C24.041524,26.5863514 25.365878,27.0502567 26.3219181,27.8146388 C27.2329166,28.5430089 27.8086062,29.5475013 27.8047102,30.668056 C27.8007462,31.7908485 27.2164214,32.8010712 26.2985337,33.5372631 C25.336192,34.3091094 24.0073441,34.7832959 22.5444075,34.7884891 C21.0830069,34.7935519 19.7586529,34.3296466 18.8026128,33.5652645 C17.8916142,32.8368944 17.3159247,31.832402 17.3198207,30.7118473 Z" id="Oval-Copy-7" transform="translate(22.5623, 30.69) rotate(49) translate(-22.5623, -30.69)"></path>
            <path d="M19.6260472,6.66730144 C19.6300112,5.54450891 20.214336,4.53428619 21.1322237,3.79809426 C22.0945654,3.02624804 23.4234133,2.55206152 24.8863499,2.54686834 C26.3477506,2.54180548 27.6721046,3.00571078 28.6281447,3.77009293 C29.5391432,4.49846301 30.1148328,5.50295541 30.1109367,6.62351006 C30.1069728,7.7463026 29.522648,8.75652532 28.6047602,9.49271724 C27.6424186,10.2645635 26.3135706,10.73875 24.8506341,10.7439432 C23.3892334,10.749006 22.0648794,10.2851007 21.1088393,9.52071858 C20.1978408,8.79234849 19.6221512,7.7878561 19.6260472,6.66730144 Z" id="Oval-Copy-14" transform="translate(24.8685, 6.6454) rotate(49) translate(-24.8685, -6.6454)"></path>
            <path d="M41.2905382,38.1488864 C42.2087143,38.8847788 42.7933037,39.894544 42.7973042,41.0168459 C42.8012355,42.136907 42.2253607,43.1408882 41.3141391,43.8688865 C40.357708,44.6330038 39.0327925,45.0967089 37.5707741,45.0915997 C36.1071783,45.0863576 34.7777281,44.6122772 33.8149377,43.8406277 C32.8967616,43.1047353 32.3121723,42.0949701 32.3081718,40.9726682 C32.3042404,39.8526071 32.8801153,38.8486259 33.7913368,38.1206276 C34.7477679,37.3565102 36.0726835,36.8928052 37.5347018,36.8979144 C38.9982976,36.9031564 40.3277478,37.3772369 41.2905382,38.1488864 Z" id="Oval-Copy-3" transform="translate(37.5527, 40.9948) rotate(-46) translate(-37.5527, -40.9948)"></path>
            <path d="M49.0782973,36.9140384 C50.547387,36.9156462 51.8807668,37.3846808 52.8453238,38.1515314 C53.7635099,38.8815157 54.3472174,39.8847013 54.3484462,41.0015899 C54.3496683,42.1177817 53.7686546,43.1191763 52.8526245,43.846719 C51.8900327,44.6112426 50.5580531,45.0770706 49.0894441,45.0754757 C47.6203544,45.0738679 46.2869746,44.6048333 45.3224176,43.8379827 C44.4042315,43.1079984 43.820524,42.1048128 43.8192952,40.9879241 C43.8180731,39.8717324 44.3990868,38.8703378 45.3151169,38.1427951 C46.2777087,37.3782715 47.6096883,36.9124435 49.0782973,36.9140384 Z" id="Oval-Copy-4" transform="translate(49.0839, 40.9948) rotate(-9) translate(-49.0839, -40.9948)"></path>
            <path d="M12.1786726,28.8991898 C13.6477623,28.9007975 14.9811421,29.3698322 15.9456991,30.1366827 C16.8638852,30.8666671 17.4475927,31.8698527 17.4488214,32.9867413 C17.4500436,34.102933 16.8690299,35.1043277 15.9529998,35.8318703 C14.990408,36.596394 13.6584284,37.062222 12.1898194,37.060627 C10.7207297,37.0590193 9.38734987,36.5899846 8.42279291,35.8231341 C7.50460683,35.0931497 6.92089932,34.0899642 6.91967054,32.9730755 C6.91844836,31.8568838 7.49946205,30.8554892 8.41549216,30.1279465 C9.37808402,29.3634228 10.7100636,28.8975948 12.1786726,28.8991898 Z" id="Oval-Copy-6" transform="translate(12.1842, 32.9799) rotate(-9) translate(-12.1842, -32.9799)"></path>
        </g>
    </g>
</svg>