<?xml version="1.0" encoding="UTF-8"?>
<svg width="64px" height="64px" viewBox="0 0 64 64" version="1.1" xmlns="http://www.w3.org/2000/svg" xmlns:xlink="http://www.w3.org/1999/xlink">
    <title>chemical_authorization</title>
    <g id="chemical_authorization" stroke="none" stroke-width="1" fill="none" fill-rule="evenodd">
        <path d="M42,26 C50.836556,26 58,33.163444 58,42 C58,50.836556 50.836556,58 42,58 C33.163444,58 26,50.836556 26,42 C26,33.163444 33.163444,26 42,26 Z M50.624073,35.5857864 L39.0267352,47.1831243 L34.4142136,42.5706026 C33.633165,41.7895541 32.366835,41.7895541 31.5857864,42.5706026 C30.8047379,43.3516512 30.8047379,44.6179812 31.5857864,45.3990298 L37.6125216,51.425765 C38.3935702,52.2068135 39.6599002,52.2068135 40.4409488,51.425765 L53.4525002,38.4142136 C54.2335487,37.633165 54.2335487,36.366835 53.4525002,35.5857864 C52.6714516,34.8047379 51.4051216,34.8047379 50.624073,35.5857864 Z" id="Combined-Shape" fill="#000000" fill-rule="nonzero"></path>
        <path d="M19.5857864,6 L31.4213192,6 L31.7156105,6.30150048 C31.8811212,6.4710656 32.1071863,6.73942315 32.3341232,7.08260814 C32.6962709,7.63026533 32.9378068,8.19173044 32.9899956,8.77748632 C32.9966142,8.85177149 33,8.92595812 33,9 C33,9.07404188 32.9966142,9.14822851 32.9899956,9.22251368 C32.9378068,9.80826956 32.6962709,10.3697347 32.3341232,10.9173919 C32.2584776,11.0317869 32.1829288,11.1378677 32.1096874,11.2347468 L32,11.374 L32,24.808 L33.9284767,29.6286093 L32.0715233,30.3713907 L30,25.1925824 L30,10.5928566 L30.2843895,10.3015005 C30.3688788,10.2149414 30.5178137,10.0381437 30.6658768,9.81423553 C30.8613113,9.51869 30.9803361,9.24200959 30.9978868,9.04502371 L31,9 L30.9978868,8.95497629 C30.9803361,8.75799041 30.8613113,8.48131 30.6658768,8.18576447 L30.5774569,8.05741785 L30.534,7.999 L20.46,7.999 L20.4192945,8.05424967 L20.3320503,8.1797002 C20.1190299,8.49923077 20,8.79680555 20,9 C20,9.20319445 20.1190299,9.50076923 20.3320503,9.8202998 C20.4489773,9.99569032 20.5662797,10.1403382 20.6505856,10.2332438 L21,10.5857864 L21,25.2534375 L7.89366416,49.4487364 L7.83251372,49.584941 C7.79609313,49.6728146 7.75234911,49.7888466 7.70778235,49.9262934 C7.55468961,50.3984412 7.48188727,50.8693694 7.52543221,51.2720643 C7.55604801,51.5551931 7.64233828,51.7879078 7.78945136,51.9771162 C7.99863509,52.2461564 8.26615297,52.4600001 8.584441,52.6252956 C8.89591753,52.7870537 9.2392748,52.8940425 9.58418412,52.9537494 C9.74677685,52.9818957 9.8747722,52.9946083 9.95192357,52.9985675 L33,53 L33,55 L10,55 C9.38479866,55 8.53399795,54.8527188 7.66267622,54.4002181 C7.0993844,54.1076855 6.6058832,53.7131992 6.21054864,53.2047424 C5.82203783,52.705062 5.60561454,52.1213939 5.53702358,51.4870785 C5.45876661,50.7633737 5.57259222,50.027083 5.8052938,49.3094163 C5.89194861,49.0421673 5.98006606,48.821966 6.06125067,48.6467379 L6.12070803,48.5237169 L19,24.745 L19,11.38 L18.838536,11.17238 L18.6679497,10.9297002 C18.2559701,10.3117308 18,9.67180555 18,9 C18,8.32819445 18.2559701,7.68826923 18.6679497,7.0702998 C18.8586507,6.78424826 19.0489445,6.55164441 19.2042125,6.38492166 L19.2928932,6.29289322 L19.5857864,6 Z" id="Path-112" fill="#000000" fill-rule="nonzero"></path>
        <path d="M28.4000244,52 L11,52 C11,52 9.31732625,52 8.99792964,51.0693205 C8.67853303,50.138641 9.5,49 9.5,49 L18.5,32 C18.5,32 19.3207507,31 21.0399803,31 C22.7592098,31 24.0621264,33.0804947 25.7154719,33.0804947 C27.3688175,33.0804947 28.0388119,32.5829434 28.0388119,32.5829434 C28.0388119,32.5829434 25,35.7001685 25,42 C25,48.2998315 28.4000244,52 28.4000244,52 Z" id="Path-114" fill="#000000" fill-rule="nonzero"></path>
    </g>
</svg>