<?xml version="1.0" encoding="UTF-8"?>
<svg width="64px" height="64px" viewBox="0 0 64 64" version="1.1" xmlns="http://www.w3.org/2000/svg" xmlns:xlink="http://www.w3.org/1999/xlink">
    <title>chemical_disinfectant</title>
    <g id="chemical_disinfectant" stroke="none" stroke-width="1" fill="none" fill-rule="evenodd">
        <path d="M29.0000001,20 C32.3255897,20 34.9922564,20 37.0000001,20 C37.0000001,17.3160203 37.4422723,15.3029323 38.3268169,13.9607361 C40.7000819,17.986912 42.3746723,19.5245571 43.3505883,18.5736714 C44.5502112,17.4048163 42.9160553,16.7323892 42.1757969,14.9659628 C41.4355385,13.1995364 41.7904314,11.9739978 41.8867143,11.6467402 C42.0127713,11.2182833 42.6157419,11.0075412 43.695626,11.0145141 L43.695626,4 C37.3426736,4 32.5503298,4 29.3185948,4 C24.4709921,4 20.508988,11.1355391 21.0494721,12 C21.5899562,12.8644609 25.5595968,12.4473899 27.242996,14.6990483 C28.3652621,16.200154 28.9509301,17.9671379 29.0000001,20 Z" id="Path-90" fill="#000000" fill-rule="nonzero"></path>
        <path d="M44.322304,4 L46.2761501,4 C46.8284349,4 47.2761501,4.44771525 47.2761501,5 L47.2761501,10 C47.2761501,10.5522847 46.8284349,11 46.2761501,11 L44.322304,11 L44.322304,11 L44.322304,4 Z" id="Rectangle" fill="#000000" fill-rule="nonzero"></path>
        <path d="M29.0000001,20 L37.0000001,20 L37.966035,21.9061969 L38.5875399,23.1484431 L39.1910303,24.367848 L40.0624883,26.1541276 L40.6209421,27.316429 L41.1613812,28.455889 L41.6838056,29.5725077 L42.1882155,30.6662849 L42.9110528,32.2641232 L43.370426,33.300797 L43.8117846,34.3146294 L44.2351286,35.3056204 L44.6404579,36.2737701 L45.0277726,37.2190784 L45.3970727,38.1415453 L45.7483581,39.0411708 L46.0816289,39.9179549 L46.396885,40.7718977 L46.6941265,41.6029991 C46.7421656,41.7396125 46.789454,41.8752742 46.8359918,42.0099842 L47.1062114,42.8068236 L47.3584163,43.5808215 C47.3989492,43.7079177 47.4387315,43.8340622 47.4777632,43.9592549 L47.7029462,44.6989908 C47.7389755,44.8203766 47.7742541,44.9408108 47.8087822,45.0602932 L48.0069432,45.765767 L48.1870896,46.4483994 L48.3492213,47.1081904 L48.4933384,47.7451401 L48.6194408,48.3592483 C48.6779884,48.6605921 48.7297805,48.9533704 48.7748171,49.2375832 L48.855883,49.794588 L48.9189342,50.3287514 L48.9639708,50.8400735 L48.9909927,51.3285542 C48.9969976,51.4875741 49.0000001,51.6427872 49.0000001,51.7941934 C49.0000001,57.2003823 47.7240076,59.9352727 45.1720227,59.9988646 L21.0000001,59.9994215 C18.3333334,60.0039056 17.0000001,57.2689212 17.0000001,51.7941934 C17.0000001,50.8192419 17.1268531,49.6818127 17.3805593,48.3819056 L17.5066617,47.7704117 C17.52918,47.6665732 17.5524489,47.5617733 17.5764684,47.456012 L17.7295928,46.8099074 L17.9007319,46.1407291 L18.0898856,45.4484769 C18.1229124,45.3311787 18.1566899,45.2129192 18.1912179,45.0936982 L18.4073936,44.3668354 L18.6415838,43.6168989 L18.8937888,42.8438886 C18.9373241,42.7131307 18.9816101,42.5814114 19.0266467,42.4487308 L19.3058736,41.6411098 C19.3539126,41.5045835 19.4027022,41.3670958 19.4522425,41.2286467 L19.7584913,40.3864151 L20.0827548,39.5211097 C20.1382999,39.3749694 20.1945957,39.2278676 20.251642,39.0798044 L20.6029274,38.1798884 L20.9722275,37.2568986 L21.3595422,36.3108351 L21.7648715,35.3416978 L22.1882155,34.3494868 L22.6295741,33.334202 L23.0889473,32.2958434 L23.5663352,31.2344111 L24.0617377,30.149905 L24.8386189,28.4798825 L25.6560331,26.7579441 L26.2234941,25.581143 L27.1084632,23.7726779 L28.0339652,21.912297 L28.6734848,20.6432008 C28.7815726,20.4297619 28.890411,20.2153617 29.0000001,20 Z M35.156755,23 L30.843755,23 L30.1237145,24.4442845 L29.2240265,26.2727272 L28.6474739,27.4616367 L28.0895143,28.6264224 L27.2874394,30.3282149 L26.7759675,31.4323835 L26.04363,33.042921 L25.5786535,34.0860334 L25.1322774,35.1046002 L24.7045028,36.0985514 L24.295331,37.0678165 C24.228686,37.2272996 24.1628162,37.3857512 24.0977215,37.5431699 L23.7164561,38.4752742 L23.1794444,39.8267932 L22.8446959,40.6966116 L22.5285563,41.5413926 L22.2310269,42.3610661 L21.9521087,43.1555616 C21.9071734,43.2858755 21.8630136,43.4151373 21.8196293,43.5433457 L21.5686305,44.2999427 L21.3362462,45.0311861 L21.1224774,45.7370056 C21.0884007,45.8525197 21.0550996,45.9669714 21.0225743,46.0803595 L20.8367313,46.7479116 L20.669507,47.3898641 L20.5209027,48.0061469 C20.4976871,48.1067176 20.4752473,48.2062159 20.4535834,48.3046402 L20.3329113,48.8822865 C20.3143511,48.9764091 20.2965669,49.0694547 20.2795587,49.161422 L20.1868216,49.7002739 C20.0755883,50.4014581 20.0140212,51.0334399 20.0021335,51.59547 L20.0000001,51.7941934 C20.0000001,54.1166231 20.2657777,55.7530916 20.6966182,56.6368482 L20.8165237,56.8803765 C20.863776,56.9696123 20.8876751,56.9920519 20.9328032,56.9975282 L21.0000001,56.9991466 L45.1143269,57.0012493 C45.1334239,57.000318 45.1452141,56.9944259 45.1598308,56.972371 L45.1958353,56.9033919 L45.3033819,56.6755471 C45.7335996,55.7930681 46.0000001,54.1424554 46.0000001,51.7941934 C46.0000001,51.6585829 45.996993,51.5187743 45.990979,51.3747786 L45.9639164,50.9302412 L45.9188128,50.4606469 C45.8737097,50.0588962 45.8098147,49.6311129 45.7271298,49.1774682 L45.6188888,48.6206918 C45.5993455,48.5258305 45.5790506,48.4299375 45.5580042,48.333014 L45.422707,47.7391202 C45.3986544,47.6380809 45.3738503,47.5360139 45.3482946,47.4329206 L45.1859429,46.8020571 C45.1573813,46.6948643 45.1280682,46.586648 45.0980036,46.4774095 L44.9085989,45.809724 C44.8424582,45.5830808 44.7733118,45.35236 44.7011597,45.1175725 L44.4756869,44.4010207 C44.4366053,44.2795657 44.3967724,44.1570968 44.3561881,44.0336153 L44.1036661,43.2805862 L43.8331122,42.5033211 L43.5445271,41.7018855 L43.2379116,40.8763452 L42.9132663,40.0267657 L42.5705921,39.1532128 L42.2098895,38.2557521 L41.8311594,37.3344493 L41.4344024,36.38937 L41.0196193,35.4205799 L40.5868108,34.4281446 L40.1359776,33.4121299 L39.6671204,32.3726014 L39.18024,31.3096247 L38.4161274,29.6713381 L37.884192,28.5500284 L37.3342358,27.4055003 L36.7662597,26.2378195 L36.1802643,25.0470518 L35.5762503,23.8332627 L35.156755,23 Z" id="Path-88" fill="#000000" fill-rule="nonzero"></path>
        <polygon id="Combined-Shape" fill="#000000" fill-rule="nonzero" points="35.949755 37 35.949755 42 40.949755 42 40.949755 48 35.949755 48 35.949755 53 29.949755 53 29.949755 48 24.949755 48 24.949755 42 29.949755 42 29.949755 37"></polygon>
    </g>
</svg>