<?xml version="1.0" encoding="UTF-8"?>
<svg width="64px" height="64px" viewBox="0 0 64 64" version="1.1" xmlns="http://www.w3.org/2000/svg" xmlns:xlink="http://www.w3.org/1999/xlink">
    <title>chemical_pheromone_products</title>
    <g id="chemical_pheromone_products" stroke="none" stroke-width="1" fill="none" fill-rule="evenodd">
        <path d="M8,18.1312985 C10.3763475,18.1312985 11.6964875,17.3638898 13.5249794,15.5518599 C13.5785977,15.4987032 13.5785977,15.4987032 13.6310218,15.4467311 C14.703404,14.3840335 15.1211743,14.1355878 16.0097076,14.1312749 C17.0555713,14.1266101 17.4800079,14.3801357 18.6091463,15.531581 C18.6199828,15.5426318 18.6199828,15.5426318 18.6308714,15.5537358 C20.4237145,17.3820043 21.6664365,18.1312985 24,18.1312985 C26.3446999,18.1312985 27.5895814,17.3840745 29.4214067,15.5412868 C29.4228625,15.5398222 29.4228625,15.5398222 29.4243175,15.5383586 C30.571205,14.3846076 30.9929912,14.1312985 32,14.1312985 C33.0065676,14.1312985 33.4280221,14.3844044 34.573631,15.5372283 C34.575537,15.5391462 34.575537,15.5391462 34.5774445,15.5410658 C36.4085538,17.3837072 37.6542787,18.1312985 40,18.1312985 C42.3362314,18.1312985 43.5813237,17.3833128 45.3796443,15.5569109 C45.3906959,15.5456865 45.3906959,15.5456865 45.4016941,15.5345163 C46.5320017,14.3865627 46.9587922,14.1312985 48,14.1312985 C49.0407467,14.1312985 49.4661434,14.3858929 50.5959089,15.5340489 C50.6059748,15.5442788 50.6059748,15.5442788 50.6160855,15.5545544 C52.415146,17.3829057 53.6605553,18.1312985 56,18.1312985 C57.1045695,18.1312985 58,17.235868 58,16.1312985 C58,15.026729 57.1045695,14.1312985 56,14.1312985 C54.9958495,14.1312985 54.5835871,13.8835613 53.467259,12.7490579 C53.4571912,12.7388261 53.4571912,12.7388261 53.447078,12.7285481 C51.6351589,10.8871343 50.3722479,10.1312985 48,10.1312985 C45.6279981,10.1312985 44.3638339,10.8873973 42.5514451,12.7280807 C42.5403907,12.739308 42.5403907,12.739308 42.5293904,12.7504802 C41.4137811,13.8835101 41.0013141,14.1312985 40,14.1312985 C38.986748,14.1312985 38.5629261,13.8769522 37.4147363,12.7215312 C37.4128303,12.7196132 37.4128303,12.7196132 37.4109228,12.7176937 C35.5822702,10.8775244 34.3397065,10.1312985 32,10.1312985 C29.6598869,10.1312985 28.4174146,10.8774813 26.587465,12.718382 C26.5860092,12.7198465 26.5860092,12.7198465 26.5845542,12.7213102 C25.4356956,13.877044 25.0121055,14.1312985 24,14.1312985 C23.0054367,14.1312985 22.5965591,13.8847674 21.4868324,12.7531133 C21.4759939,12.7420604 21.4759939,12.7420604 21.4651023,12.7309535 C19.6498996,10.87989 18.3788578,10.120668 15.9910793,10.1313184 C13.7921106,10.1419917 12.5650233,10.8717337 10.8154531,12.6055037 C10.7618575,12.6586371 10.7618575,12.6586371 10.709371,12.7106719 C9.55962083,13.8500708 9.07583697,14.1312985 8,14.1312985 C6.89543052,14.1312985 6,15.026729 6,16.1312985 C6,17.235868 6.89543048,18.1312985 8,18.1312985 L8,18.1312985 Z" id="Path-730" fill="#000000" fill-rule="nonzero"></path>
        <path d="M8,34.1312985 C10.3763475,34.1312985 11.6964875,33.3638898 13.5249794,31.5518599 C13.5785977,31.4987032 13.5785977,31.4987032 13.6310218,31.4467311 C14.703404,30.3840335 15.1211743,30.1355878 16.0097076,30.1312749 C17.0555713,30.1266101 17.4800079,30.3801357 18.6091463,31.531581 C18.6199828,31.5426318 18.6199828,31.5426318 18.6308714,31.5537358 C20.4237145,33.3820043 21.6664365,34.1312985 24,34.1312985 C26.3446999,34.1312985 27.5895814,33.3840745 29.4214067,31.5412868 C29.4228625,31.5398222 29.4228625,31.5398222 29.4243175,31.5383586 C30.571205,30.3846076 30.9929912,30.1312985 32,30.1312985 C33.0065676,30.1312985 33.4280221,30.3844044 34.573631,31.5372283 C34.575537,31.5391462 34.575537,31.5391462 34.5774445,31.5410658 C36.4085538,33.3837072 37.6542787,34.1312985 40,34.1312985 C42.3362314,34.1312985 43.5813237,33.3833128 45.3796443,31.5569109 C45.3906959,31.5456865 45.3906959,31.5456865 45.4016941,31.5345163 C46.5320017,30.3865627 46.9587922,30.1312985 48,30.1312985 C49.0407467,30.1312985 49.4661434,30.3858929 50.5959089,31.5340489 C50.6059748,31.5442788 50.6059748,31.5442788 50.6160855,31.5545544 C52.415146,33.3829057 53.6605553,34.1312985 56,34.1312985 C57.1045695,34.1312985 58,33.235868 58,32.1312985 C58,31.026729 57.1045695,30.1312985 56,30.1312985 C54.9958495,30.1312985 54.5835871,29.8835613 53.467259,28.7490579 C53.4571912,28.7388261 53.4571912,28.7388261 53.447078,28.7285481 C51.6351589,26.8871343 50.3722479,26.1312985 48,26.1312985 C45.6279981,26.1312985 44.3638339,26.8873973 42.5514451,28.7280807 C42.5403907,28.739308 42.5403907,28.739308 42.5293904,28.7504802 C41.4137811,29.8835101 41.0013141,30.1312985 40,30.1312985 C38.986748,30.1312985 38.5629261,29.8769522 37.4147363,28.7215312 C37.4128303,28.7196132 37.4128303,28.7196132 37.4109228,28.7176937 C35.5822702,26.8775244 34.3397065,26.1312985 32,26.1312985 C29.6598869,26.1312985 28.4174146,26.8774813 26.587465,28.718382 C26.5860092,28.7198465 26.5860092,28.7198465 26.5845542,28.7213102 C25.4356956,29.877044 25.0121055,30.1312985 24,30.1312985 C23.0054367,30.1312985 22.5965591,29.8847674 21.4868324,28.7531133 C21.4759939,28.7420604 21.4759939,28.7420604 21.4651023,28.7309535 C19.6498996,26.87989 18.3788578,26.120668 15.9910793,26.1313184 C13.7921106,26.1419917 12.5650233,26.8717337 10.8154531,28.6055037 C10.7618575,28.6586371 10.7618575,28.6586371 10.709371,28.7106719 C9.55962083,29.8500708 9.07583697,30.1312985 8,30.1312985 C6.89543052,30.1312985 6,31.026729 6,32.1312985 C6,33.235868 6.89543048,34.1312985 8,34.1312985 L8,34.1312985 Z" id="Path-730-Copy" fill="#000000" fill-rule="nonzero"></path>
        <path d="M8,50.1312985 C10.3763475,50.1312985 11.6964875,49.3638898 13.5249794,47.5518599 C13.5785977,47.4987032 13.5785977,47.4987032 13.6310218,47.4467311 C14.703404,46.3840335 15.1211743,46.1355878 16.0097076,46.1312749 C17.0555713,46.1266101 17.4800079,46.3801357 18.6091463,47.531581 C18.6199828,47.5426318 18.6199828,47.5426318 18.6308714,47.5537358 C20.4237145,49.3820043 21.6664365,50.1312985 24,50.1312985 C26.3446999,50.1312985 27.5895814,49.3840745 29.4214067,47.5412868 C29.4228625,47.5398222 29.4228625,47.5398222 29.4243175,47.5383586 C30.571205,46.3846076 30.9929912,46.1312985 32,46.1312985 C33.0065676,46.1312985 33.4280221,46.3844044 34.573631,47.5372283 C34.575537,47.5391462 34.575537,47.5391462 34.5774445,47.5410658 C36.4085538,49.3837072 37.6542787,50.1312985 40,50.1312985 C42.3362314,50.1312985 43.5813237,49.3833128 45.3796443,47.5569109 C45.3906959,47.5456865 45.3906959,47.5456865 45.4016941,47.5345163 C46.5320017,46.3865627 46.9587922,46.1312985 48,46.1312985 C49.0407467,46.1312985 49.4661434,46.3858929 50.5959089,47.5340489 C50.6059748,47.5442788 50.6059748,47.5442788 50.6160855,47.5545544 C52.415146,49.3829057 53.6605553,50.1312985 56,50.1312985 C57.1045695,50.1312985 58,49.235868 58,48.1312985 C58,47.026729 57.1045695,46.1312985 56,46.1312985 C54.9958495,46.1312985 54.5835871,45.8835613 53.467259,44.7490579 C53.4571912,44.7388261 53.4571912,44.7388261 53.447078,44.7285481 C51.6351589,42.8871343 50.3722479,42.1312985 48,42.1312985 C45.6279981,42.1312985 44.3638339,42.8873973 42.5514451,44.7280807 C42.5403907,44.739308 42.5403907,44.739308 42.5293904,44.7504802 C41.4137811,45.8835101 41.0013141,46.1312985 40,46.1312985 C38.986748,46.1312985 38.5629261,45.8769522 37.4147363,44.7215312 C37.4128303,44.7196132 37.4128303,44.7196132 37.4109228,44.7176937 C35.5822702,42.8775244 34.3397065,42.1312985 32,42.1312985 C29.6598869,42.1312985 28.4174146,42.8774813 26.587465,44.718382 C26.5860092,44.7198465 26.5860092,44.7198465 26.5845542,44.7213102 C25.4356956,45.877044 25.0121055,46.1312985 24,46.1312985 C23.0054367,46.1312985 22.5965591,45.8847674 21.4868324,44.7531133 C21.4759939,44.7420604 21.4759939,44.7420604 21.4651023,44.7309535 C19.6498996,42.87989 18.3788578,42.120668 15.9910793,42.1313184 C13.7921106,42.1419917 12.5650233,42.8717337 10.8154531,44.6055037 C10.7618575,44.6586371 10.7618575,44.6586371 10.709371,44.7106719 C9.55962083,45.8500708 9.07583697,46.1312985 8,46.1312985 C6.89543052,46.1312985 6,47.026729 6,48.1312985 C6,49.235868 6.89543048,50.1312985 8,50.1312985 L8,50.1312985 Z" id="Path-730-Copy-2" fill="#000000" fill-rule="nonzero"></path>
    </g>
</svg>