<?xml version="1.0" encoding="UTF-8"?>
<svg width="64px" height="64px" viewBox="0 0 64 64" version="1.1" xmlns="http://www.w3.org/2000/svg" xmlns:xlink="http://www.w3.org/1999/xlink">
    <title>labal_sds</title>
    <g id="labal_sds" stroke="none" stroke-width="1" fill="none" fill-rule="evenodd">
        <g id="Group" transform="translate(10.000000, 4.000000)" fill="#000000">
            <path d="M29.2,0 L14.8,0 C14.2604023,0 13.7436993,0.218036367 13.3672215,0.604598339 L0.567221509,13.7474555 C0.203523796,14.1208951 0,14.6215768 0,15.1428571 L0,54 C0,55.1045695 0.8954305,56 2,56 L42,56 C43.1045695,56 44,55.1045695 44,54 L44,15.1428571 C44,14.6215768 43.7964762,14.1208951 43.4327785,13.7474555 L30.6327785,0.604598339 C30.2563007,0.218036367 29.7395977,0 29.2,0 Z M28.356,4 L40,15.956 L40,52 L4,52 L4,15.954 L15.642,4 L28.356,4 Z" id="Path-33" fill-rule="nonzero"></path>
            <circle id="Oval" cx="22" cy="10" r="4"></circle>
            <path d="M20.5857864,18.5857864 C21.366835,17.8047379 22.633165,17.8047379 23.4142136,18.5857864 L23.4142136,18.5857864 L37.4142136,32.5857864 C38.1952621,33.366835 38.1952621,34.633165 37.4142136,35.4142136 L37.4142136,35.4142136 L23.4142136,49.4142136 C22.633165,50.1952621 21.366835,50.1952621 20.5857864,49.4142136 L20.5857864,49.4142136 L6.58578644,35.4142136 C5.80473785,34.633165 5.80473785,33.366835 6.58578644,32.5857864 L6.58578644,32.5857864 Z M22,36.829 L17.829,40.999 L22,45.17 L26.17,40.999 L22,36.829 Z M15,29.829 L10.83,34 L15,38.17 L19.171,34 L15,29.829 Z M28.999,29.829 L24.829,34 L28.999,38.17 L33.17,34 L28.999,29.829 Z M22,22.83 L17.829,27 L22,31.171 L26.17,27 L22,22.83 Z" id="Combined-Shape" fill-rule="nonzero"></path>
        </g>
    </g>
</svg>