<?xml version="1.0" encoding="UTF-8"?>
<svg width="64px" height="64px" viewBox="0 0 64 64" version="1.1" xmlns="http://www.w3.org/2000/svg" xmlns:xlink="http://www.w3.org/1999/xlink">
    <title>chemical_wildlife_toxicants</title>
    <g id="chemical_wildlife_toxicants" stroke="none" stroke-width="1" fill="none" fill-rule="evenodd">
        <path d="M42,27.131236 C50.2842712,27.131236 57,33.8469648 57,42.131236 C57,50.4155072 50.2842712,57.131236 42,57.131236 C33.7157288,57.131236 27,50.4155072 27,42.131236 C27,33.8469648 33.7157288,27.131236 42,27.131236 Z M42,30.131236 C35.372583,30.131236 30,35.503819 30,42.131236 C30,48.758653 35.372583,54.131236 42,54.131236 C48.627417,54.131236 54,48.758653 54,42.131236 C54,35.503819 48.627417,30.131236 42,30.131236 Z" id="Oval-45" fill="#000000" fill-rule="nonzero"></path>
        <path d="M42,33.131236 C46.9705627,33.131236 51,37.1606733 51,42.131236 C51,47.1017987 46.9705627,51.131236 42,51.131236 C37.0294373,51.131236 33,47.1017987 33,42.131236 C33,37.1606733 37.0294373,33.131236 42,33.131236 Z M42,36.131236 C38.6862915,36.131236 36,38.8175275 36,42.131236 C36,45.4449445 38.6862915,48.131236 42,48.131236 C45.3137085,48.131236 48,45.4449445 48,42.131236 C48,38.8175275 45.3137085,36.131236 42,36.131236 Z" id="Oval-45-Copy" fill="#000000" fill-rule="nonzero"></path>
        <circle id="Oval-45-Copy-2" fill="#000000" fill-rule="nonzero" cx="42" cy="42.131236" r="3"></circle>
        <g id="raccoon" transform="translate(3.074183, 8.052858)" fill="#000000" fill-rule="nonzero">
            <circle id="Oval" cx="35.2444008" cy="16.2887347" r="2.05663717"></circle>
            <circle id="Oval" cx="22.7682946" cy="16.2887347" r="2.05663717"></circle>
            <path d="M36.7930734,3.51528336 C38.2921884,0.690504597 41.1665247,-0.721884784 43.2107725,0.368380703 C45.2426309,1.44625681 45.6886486,4.63032761 44.1895336,7.45510637 C43.9735021,7.86217403 43.7289119,8.23991125 43.4623628,8.58505529 C44.1884082,9.59506253 44.8422806,10.8141472 45.4780292,12.2869648 C46.4101537,14.4527835 46.8618089,17.7736698 46.3787226,21.0586355 C46.1818671,20.945068 45.9826927,20.8367396 45.7808564,20.7328556 C45.2467297,18.4663279 40.0044722,14.5468198 36.1736044,13.6002391 C32.2833389,12.6338674 28.9258168,14.8515665 28.9258168,17.2303276 C28.9258168,19.3501914 30.1123905,20.3468861 31.9351595,20.8036487 C27.1722393,23.3169448 23.9258168,28.3185401 23.9258168,34.0783779 C23.9258168,34.7560152 23.9707512,35.4231575 24.0578029,36.0769877 C21.8584089,39.5825255 18.8134564,42.3699544 15.307795,42.9344253 C14.7625334,43.0222216 14.2493385,42.6513728 14.1615421,42.1061111 C14.0737457,41.5608495 14.4445946,41.0476546 14.9898562,40.9598583 C17.8664438,40.4966789 20.584908,37.9301255 22.5306666,34.742221 C18.6934238,36.9936091 11.9461105,38.9458241 6.13394357,38.6841832 C5.58221756,38.6593466 5.15508925,38.1919503 5.17992579,37.6402243 C5.20476233,37.0884983 5.67215863,36.66137 6.22388464,36.6862065 C12.0059477,36.9464923 18.8775994,34.8131362 22.1548481,32.6214318 C19.538787,33.3944192 15.2538421,33.846585 11.4022427,33.6601314 C5.92982593,33.3952149 1.82825237,31.9776837 0.141621787,29.1537083 C-0.141568422,28.6795546 0.0132380921,28.065606 0.487391813,27.7824158 C0.92767741,27.5194535 1.48850039,27.6341516 1.79310954,28.0315127 L1.8586843,28.1281858 C3.9019185,31.5492331 13.2370999,32.4674639 19.5055215,31.241054 C19.2355442,31.1358307 18.9517601,31.0292478 18.6550203,30.9205931 C10.6143123,27.9719205 10.2797991,17.1807701 12.3736044,12.2869648 C12.9984485,10.8042838 13.6595044,9.58413808 14.3877263,8.58009643 C14.1212859,8.23769336 13.8774973,7.86097912 13.6620999,7.45510637 C12.1629849,4.61793822 12.5966132,1.45864619 14.640861,0.368380703 C16.6851088,-0.721884784 19.5594451,0.690504597 21.0585601,3.51528336 C21.2129781,3.8038678 21.3469654,4.09607287 21.460905,4.38930935 C23.4823069,4.02744341 25.9222064,3.9365223 28.9258168,3.9365223 C31.9321859,3.9365223 34.3646993,4.03671932 36.395184,4.39331963 C36.5057311,4.09873238 36.6392242,3.80518104 36.7930734,3.51528336 Z M57.3642417,27.7824158 C57.8383954,28.065606 57.9932019,28.6795546 57.7100117,29.1537083 C56.9133971,30.4875036 55.5780621,31.5075524 53.8140152,32.2405985 C53.7274815,31.529985 53.5912779,30.8360748 53.4091369,30.1610177 C54.506267,29.6643471 55.3660344,29.0482902 55.8763002,28.3094597 L55.9929492,28.1281858 C56.2761394,27.6540321 56.890088,27.4992256 57.3642417,27.7824158 Z M28.9258168,17.2303276 C28.9258168,14.8515665 25.5682946,12.6338674 21.6780292,13.6002391 C17.4160822,14.6533365 11.4072327,19.3860798 12.0762592,21.4303276 C13.4762592,25.6674957 17.6762592,21.1701506 21.6780292,21.1701506 C25.6797991,21.1701506 28.9258168,20.7489117 28.9258168,17.2303276 Z M42.8514805,1.47103557 C41.2160822,0.603778933 38.7877637,1.95422141 37.4373212,4.5064338 C36.0744893,7.04625681 38.0567902,6.12944265 39.6921884,6.99669929 C41.3275867,7.86395592 41.9966132,10.2055488 43.3470557,7.65333646 C44.6974982,5.10112407 44.4868787,2.33829221 42.8514805,1.47103557 Z M20.4267017,4.5064338 C19.0638699,1.96661079 16.6479407,0.603778933 15.0125424,1.47103557 C13.3771442,2.33829221 13.1541353,5.10112407 14.5045778,7.65333646 C15.8550203,10.1931595 16.5240468,7.86395592 18.1594451,6.99669929 C19.7948433,6.12944265 21.7895336,7.04625681 20.4267017,4.5064338 Z" id="Shape"></path>
        </g>
    </g>
</svg>