<?xml version="1.0" encoding="UTF-8"?>
<svg width="64px" height="64px" viewBox="0 0 64 64" version="1.1" xmlns="http://www.w3.org/2000/svg" xmlns:xlink="http://www.w3.org/1999/xlink">
    <title>chemical_fertilizer</title>
    <g id="chemical_fertilizer" stroke="none" stroke-width="1" fill="none" fill-rule="evenodd">
        <path d="M44,13 L20,13 C18.3431458,13 17,14.3431458 17,16 L17,48 C17,49.6568542 18.3431458,51 20,51 L44,51 C45.6568542,51 47,49.6568542 47,48 L47,16 C47,14.3431458 45.6568542,13 44,13 Z M20,15 L44,15 C44.5522847,15 45,15.4477153 45,16 L45,48 C45,48.5522847 44.5522847,49 44,49 L20,49 C19.4477153,49 19,48.5522847 19,48 L19,16 C19,15.4477153 19.4477153,15 20,15 Z" id="Rectangle" fill="#000000" fill-rule="nonzero"></path>
        <path d="M31.307933,4.00218165 C26.5023402,4.03272834 22.5130312,4.38412892 19.3331505,5.06115552 L19.14,5.103 L18.7746493,5.00261853 C16.2580284,4.3362991 14.4521471,4.4082953 13.3337949,5.38024406 L13.200834,5.50263234 C12.133666,6.54383213 12.0850736,8.11575618 12.8733567,10.0900118 L12.948,10.272 L13.0093889,9.96252343 C11.6692578,16.6278841 11,23.948781 11,31.9253867 L11.0050173,33.1176529 C11.0652252,40.2475769 11.6673269,46.9513824 12.8121409,53.2288992 L12.933,53.875 L12.8991714,53.9293845 C11.6703515,55.9614165 11.7761374,57.705046 13.4687117,58.7383285 L13.668715,58.8535147 C15.0880251,59.6232782 16.9119093,59.6268308 19.1111328,58.9353865 L19.158,58.919 L18.8841071,58.8596809 C22.2209779,59.6221519 26.5894111,60 32,60 L32.6708941,59.9980314 C37.3290015,59.9704682 41.1860374,59.6533819 44.2492065,59.0421807 L44.826,58.92 L45.1769108,59.0280062 C47.3214524,59.6520838 49.1385108,59.5803089 50.5955884,58.7548972 L50.7662848,58.652844 C52.3649569,57.6438712 52.4756802,55.9882323 51.3114966,54.0877116 L51.159,53.85 L51.0861818,54.2622766 C52.3623945,47.3272274 53,39.8815431 53,31.9253867 L52.9956605,30.7928945 C52.9406922,23.6480229 52.3634974,17.0271539 51.2630035,10.9301183 L51.128,10.204 L51.209556,9.88704556 C51.6834874,7.90271569 51.4453952,6.37420381 50.3625984,5.39375543 L50.2233722,5.27542799 C49.1304151,4.40434986 47.44967,4.36142597 45.1807891,5.00028865 L44.836,5.101 L45.10251,5.16022257 C41.7130502,4.38462613 37.3485971,4 32,4 L31.307933,4.00218165 Z M31.3538078,6.00193745 L32,6 C36.9932766,6 41.0786854,6.34169969 44.2481723,7.01951531 L44.9228813,7.17081214 L45.1833334,7.08773618 C47.2474587,6.42934559 48.5265779,6.42934559 49.0201883,6.87629885 C49.4845091,7.29673099 49.5971154,8.1815901 49.2115435,9.63270428 L49.0752652,10.1109895 L49.1204994,10.347494 C50.3730171,16.8962187 51,24.0889257 51,31.9253867 C51,39.7636195 50.3727361,47.0885387 49.11921,53.9003074 L49.0411872,54.3242898 L49.2958882,54.6721061 C50.2983932,56.0411133 50.2983932,56.6246414 49.6098034,57.0147168 C48.5808224,57.5976184 47.1263187,57.5976184 45.2035972,56.9388005 L44.9339418,56.8464035 L44.6560966,56.9100693 C41.49501,57.6344051 37.2727264,58 32,58 C26.9468053,58 22.8541758,57.6642191 19.7314351,56.9986203 L19.0538154,56.8469116 L18.7858715,56.9377255 C16.846494,57.5950362 15.434282,57.5950362 14.510827,57.0312855 C13.8805752,56.6465295 13.8805752,56.0212378 14.8168833,54.6433262 L15.0505151,54.2995035 L14.9715703,53.8913791 C13.6575643,47.0983037 13,39.7763841 13,31.9253867 C13,24.4330295 13.5988627,17.5416111 14.7951828,11.2512816 L15.0336065,10.0411403 L14.9010191,9.74778349 C14.1912354,8.1773492 14.1912354,7.28481896 14.6457438,6.88981023 C15.1560541,6.4463047 16.4606516,6.42702185 18.5339484,7.01015703 L19.073215,7.16841226 L19.3293419,7.10996502 C22.4281712,6.40282348 26.4389689,6.0316416 31.3538078,6.00193745 Z" id="Path-83" fill="#000000" fill-rule="nonzero"></path>
        <path d="M35.6982094,22.4846118 C37.2555148,21.341609 39.317923,20.9337285 41.8438438,21.2211484 L41.8438438,21.2211484 L42.7337624,21.3224106 L42.7307796,22.2180669 C42.7213188,25.0589751 41.8739595,27.0480475 40.110967,28.0389255 C38.6873136,28.8390803 36.9042485,29.1706334 34.7719251,29.0566179 C34.2590118,30.0755498 33.8334875,31.5851607 33.5074027,33.5731478 L33.3949255,34.3053218 C33.3768945,34.4307507 33.3592229,34.5578779 33.3419134,34.6867008 L33.2424219,35.4799669 C33.1948698,35.886754 33.1506238,36.3087571 33.109756,36.7459078 L33.0811299,37.0775322 C36.3049009,37.3733128 38.0957435,39.0482228 38.0957435,41.9887997 L38.0957435,41.9887997 L38.0957435,42.9887997 L26.0476308,42.9887997 L26.0194729,42.017786 C25.9337241,39.0607705 27.6968919,37.3714965 30.9309169,37.0766899 C30.7434733,35.2345442 30.2438035,33.832294 29.4539273,32.8531913 L29.2958256,32.6671751 C27.3771884,33.1064817 25.6743452,32.8966088 24.2335272,32.0059508 C22.5903766,30.9902187 21.4396046,29.2307819 20.7598692,26.7811195 L20.7598692,26.7811195 L20.5013563,25.8494785 L21.4237541,25.5597095 C23.9718696,24.7592252 26.0525165,24.7982442 27.627435,25.761614 C29.1781965,26.7102071 30.2578017,28.5400372 30.9251672,31.2012 L30.9251672,31.2012 L31.0315773,31.623502 C31.2461939,31.8920216 31.4430139,32.1795995 31.6222238,32.4861012 L31.656,32.547 L31.6964722,32.3313368 C32.0498083,30.5044732 32.5058157,29.0598036 33.073427,27.9888121 L33.0776386,27.93386 C33.2391323,25.497512 34.1065824,23.6528052 35.6982094,22.4846118 Z M32,39.0300943 C29.6414596,39.0300943 28.4381142,39.6456591 28.1104293,40.970489 L28.1104293,40.970489 L28.106,40.988 L35.971,40.988 L35.9656128,40.9642622 C35.5996962,39.6979666 34.4436885,39.0786079 32.2662147,39.0328382 L32.2662147,39.0328382 L32,39.0300943 Z M26.5838098,27.4677343 C25.7794902,26.975736 24.6538513,26.8592437 23.1873041,27.1616992 L23.1873041,27.1616992 L22.9962947,27.2047738 L23.1039618,27.4818691 C23.6447941,28.8096828 24.3752028,29.7422543 25.2851461,30.3047461 C26.1669235,30.8498267 27.2270743,31.01904 28.4994122,30.789478 L28.4994122,30.789478 L28.7166949,30.7467902 L28.6224527,30.4644129 C28.1298949,29.055835 27.4930139,28.0973514 26.7366651,27.5679086 L26.7366651,27.5679086 L26.5838098,27.4677343 Z M40.6277639,23.1361448 C39.0462999,23.0908083 37.8055999,23.4187545 36.8815956,24.0969384 C36.045886,24.7103173 35.4918547,25.6298836 35.2280746,26.8955702 L35.2280746,26.8955702 L35.194,27.072 L35.6156556,27.0784979 C36.9393546,27.0735973 38.0374313,26.8469992 38.914826,26.4099107 L38.914826,26.4099107 L39.1310495,26.2954343 C39.9846344,25.8156826 40.5146648,24.8365332 40.6773187,23.2754783 L40.6773187,23.2754783 L40.689,23.139 L40.6277639,23.1361448 Z" id="plant" fill="#000000" fill-rule="nonzero"></path>
    </g>
</svg>