<?xml version="1.0" encoding="UTF-8"?>
<svg width="64px" height="64px" viewBox="0 0 64 64" version="1.1" xmlns="http://www.w3.org/2000/svg" xmlns:xlink="http://www.w3.org/1999/xlink">
    <title>chemical_weed_control</title>
    <g id="chemical_weed_control" stroke="none" stroke-width="1" fill="none" fill-rule="evenodd">
        <path d="M17.7978516,13.928111 C21.4985352,13.928111 24.3857422,15.184361 24.3857422,17.8192243 C24.3857422,20.0268124 21.4945626,20.2342596 20.5568827,20.2434877 L20.4010906,20.2432825 C20.315226,20.2421408 20.2670898,20.2396344 20.2670898,20.2396344 L20.2670898,20.2396344 L19.9069336,22.7523298 L18.5821558,22.6822574 C18.7910798,29.9603204 21.8523252,41.5393917 25.2168695,48.0981863 L24.9397481,47.116679 C24.3244846,44.8985615 24.1720335,44.0482466 24.1897259,43.3165633 L24.1973257,43.1265835 C24.2182425,42.6789605 24.2054521,42.3314217 24.1106249,41.6910605 L24.0434975,41.2685619 C23.801461,39.8242715 24.0962085,38.5918749 24.9849548,36.5957129 L25.6960159,35.046568 C26.2559602,33.8039625 26.4400397,33.2387745 26.4689168,32.6209575 L26.0493164,32.6170758 C22.7608643,32.6170759 25.9624023,27.8089704 25.9624023,27.8089704 C25.9624023,27.8089704 26.5583495,26.9733991 27.5350341,27.8089704 C27.5350341,28.0980399 27.9767509,28.8177769 28.375995,29.615561 L28.5000956,29.8696759 C29.1281514,31.1917573 29.5074651,32.6227944 27.5350341,32.631236 L27.5350341,32.631236 L27.4676719,32.630111 L27.467625,32.6890717 C27.4278774,33.5652588 27.1619566,34.2722499 26.3023931,36.123696 L26.1755202,36.3961155 C25.149578,38.5929538 24.8080292,39.7802546 25.0297447,41.1032851 L25.1021154,41.5608814 C25.1943867,42.1899631 25.2159849,42.582317 25.2021218,43.0238645 L25.1917417,43.2717916 C25.1645408,43.9106186 25.2970857,44.6763717 25.9367328,46.9697436 L27.5302734,43.1048688 L25.8427734,42.9744977 L28.7841797,40.8524274 L27.0913086,40.6302594 L30.1625977,38.5570172 L27.8671875,38.1283063 L32.5991211,35.2630719 L31.2099609,33.8358258 L38.4541016,30.4500837 L35.9746094,38.5570172 L34.3300781,36.7288922 L33.3803711,41.5316266 L31.1767578,39.9202985 L30.7426758,44.6029157 L28.7563477,42.9969587 L29.0551758,47.4193219 L27.8120117,45.303111 L26.8186719,48.371111 L29.2607422,48.1126813 L32.8364258,46.072154 L30.7197266,45.8119001 L34.925293,43.9017438 L32.6401367,43.1204938 L37.144043,41.4378766 L35.2880859,40.4168805 L42.6137695,39.5540876 L37.6323242,46.0604352 L36.503418,44.0355329 L32.7373047,50.6336774 L33.4321289,47.1229352 L28.5751953,51.1600446 L30.1274414,49.6458844 L26.036458,49.7486094 C26.0277142,49.91023 25.940787,50.0645707 25.790873,50.1528742 C25.6020363,50.2641042 25.3700129,50.2371257 25.2122361,50.1023109 L23.4423828,51.3910016 L25.612793,52.3460798 L21.2719727,53.2196149 L23.8554688,53.7894391 L16.7416992,55.9163922 L18.3476562,50.9398298 L19.2211914,52.7855329 L20.5180664,49.5994977 L21.8154297,51.1619977 L24.3556719,48.813111 L20.0410156,47.6478376 L21.1699219,49.5472516 L17.3115234,47.2518415 L17.1865234,49.2381696 L13.4584961,43.1712751 L13.371582,45.8138532 L11.25,38.6722516 L9.38867188,41.1414899 L10.2080078,31.9110212 L16.2802734,37.8577985 L13.0297852,37.5975446 L17.3759766,41.369029 L14.9121094,41.846568 L19.0429688,44.2288922 L17.4521484,44.9232282 C17.4521484,44.9232282 20.1730012,44.8011563 21.1699219,44.9232282 C21.5766471,44.9730313 21.1699219,46.6419782 21.1699219,46.6419782 L23.6966258,47.260731 C20.5089212,40.3999933 17.762285,29.599819 17.5803839,22.6291205 L16.2624023,22.5614118 L16.4086914,20.4622907 C16.4086914,20.4622907 11.9863281,19.2952985 11.9863281,17.1839704 C11.9863281,15.0726422 14.097168,13.928111 17.7978516,13.928111 Z" id="Combined-Shape" fill="#000000" fill-rule="nonzero"></path>
        <path d="M56.0944614,5.71046408 L56.1811496,5.73551756 L61.8540011,7.94059569 L61.8664414,7.94741415 L63.9253633,7.63683802 C64.1984118,7.59561732 64.4531773,7.78355086 64.494398,8.05659933 C64.5310386,8.29930907 64.3866191,8.52757302 64.1623028,8.60425253 L64.0746367,8.62563398 L52.976,10.300236 L48.280285,13.4798598 C48.1096368,13.5953766 47.8932181,13.5913376 47.7300428,13.4868183 L40.1262207,28.8802592 C40.1262207,28.8802592 36.1363269,27.3687277 34.9145508,26.0155132 C33.6319753,24.5949585 32.4693746,20.8767743 32.2794946,20.249808 L32.2524414,20.1594207 L47.5098346,13.1651451 C47.4767687,13.0016426 47.5274707,12.8285308 47.6498041,12.7088053 L47.719715,12.6517528 L52.5092658,9.40956528 L52.7149141,9.32922083 L59.8814414,8.24641415 L55.8188504,6.66757944 C55.5614687,6.56753329 55.4339229,6.27778071 55.5339691,6.02039893 C55.622899,5.79161513 55.8617204,5.66541783 56.0944614,5.71046408 Z" id="Combined-Shape" fill="#000000" fill-rule="nonzero"></path>
    </g>
</svg>