<?xml version="1.0" encoding="UTF-8"?>
<svg width="64px" height="64px" viewBox="0 0 64 64" version="1.1" xmlns="http://www.w3.org/2000/svg" xmlns:xlink="http://www.w3.org/1999/xlink">
    <title>chemical_power_sprayer</title>
    <g id="chemical_power_sprayer" stroke="none" stroke-width="1" fill="none" fill-rule="evenodd">
        <path d="M30.1839578,48.9252137 C28.6935274,49.3192316 26.9281966,49.5627672 23.3786591,49.9163014 L20.2284404,50.22517 L18.9963376,50.3555537 C12.9075249,51.0275138 9.99929989,51.7948111 9.4449254,53.1251874 C9.22424627,53.6547685 9.49285713,54.1071568 10.3862679,54.5811932 C11.3189722,55.0760784 12.8123039,55.4900208 14.7713263,55.8134032 C18.1114191,56.3647635 22.6819864,56.631236 27.3206714,56.631236 C27.5968138,56.631236 27.8206714,56.8550936 27.8206714,57.131236 C27.8206714,57.4073784 27.5968138,57.631236 27.3206714,57.631236 C22.6321262,57.631236 18.0118973,57.3618681 14.6084571,56.8000509 C12.5515898,56.4605169 10.9666356,56.0211773 9.91756621,55.4645497 C8.6210064,54.7766058 8.06419562,53.8388377 8.52186105,52.7405418 C9.33991987,50.7773814 12.5896838,49.9941076 20.1192826,49.2310339 L24.0185555,48.8464792 C27.0226918,48.5376724 28.6117409,48.3064988 29.9283731,47.9584271 C30.5644532,47.7902696 31.186956,47.5117595 31.7942607,47.1329886 L12.2857143,47.131236 L12.285777,47.1153368 C12.1914132,47.1259004 12.0961472,47.131236 12,47.131236 C8.37290503,47.131236 6,39.5379399 6,30.131236 C6,20.7245321 8.37290503,13.131236 12,13.131236 L12,13.131236 L52,13.131236 C55.550563,13.131236 57.9074096,21.3143251 57.9721926,30.8471865 L57.9735628,31.2507676 L57.9315521,31.2503365 C60.4275047,33.5425137 62,36.8980661 62,40.631236 C62,47.5250961 56.6376053,53.131236 50,53.131236 C47.0973801,53.131236 44.4386196,52.0591703 42.3655092,50.2761667 C42.1514434,50.3473227 41.9122156,50.3453222 41.6863372,50.2551704 C39.9550968,49.5642039 38.4612889,48.4621434 37.2630905,47.1325118 L33.4907833,47.132772 C32.4504662,48.0039536 31.3486223,48.617317 30.1839578,48.9252137 Z M50,30.131236 C44.4873408,30.131236 40,34.8225469 40,40.631236 C40,46.4399251 44.4873408,51.131236 50,51.131236 C55.5126592,51.131236 60,46.4399251 60,40.631236 C60,34.8225469 55.5126592,30.131236 50,30.131236 Z M50,34.131236 C53.3238895,34.131236 56,37.0506293 56,40.631236 C56,44.2118427 53.3238895,47.131236 50,47.131236 C46.6761105,47.131236 44,44.2118427 44,40.631236 C44,37.0506293 46.6761105,34.131236 50,34.131236 Z M38.0104162,41.1566182 L37.8684567,41.4269609 C37.5734167,41.9724229 37.2594032,42.511331 36.9266958,43.0370585 C37.5002264,44.2680353 38.3257118,45.439388 39.3579426,46.4143082 C38.5638002,44.8295829 38.0854971,43.0467031 38.0104162,41.1566182 Z M50,35.131236 C47.2487572,35.131236 45,37.5844257 45,40.631236 C45,43.6780463 47.2487572,46.131236 50,46.131236 C52.7512428,46.131236 55,43.6780463 55,40.631236 C55,37.5844257 52.7512428,35.131236 50,35.131236 Z M43.3147734,15.1313497 L24.4342883,15.1313497 C26.3415155,17.7388017 27.5710678,23.4702161 27.5710678,30.131236 C27.5710678,36.7930912 26.3412071,42.5251077 24.4335708,45.132103 L34.1155093,45.1327466 C34.4574841,44.7535339 34.7930934,44.3423989 35.1219765,43.9015869 C34.3928144,42.342091 33.9998514,40.691881 33.9998514,39.1311181 C33.9998514,31.9638647 39.3179743,26.1311184 45.5097387,26.1311184 C45.8799275,26.1311184 46.2472558,26.147536 46.6106874,26.1804974 C46.4689729,20.8735491 45.0636711,16.555724 43.3147734,15.1313497 Z M23.1554561,15.1308671 L14.9672499,15.1315235 C16.8658651,17.991482 18,23.627998 18,30.131236 C18,36.6352468 16.8655955,42.2723297 14.966573,45.1319679 L23.1544516,45.1325343 C25.031259,43.3968902 26.5710678,37.3324164 26.5710678,30.131236 C26.5710678,22.9313404 25.0318083,16.8677458 23.1554561,15.1308671 Z M12,15.131236 C10.1042475,15.131236 8,21.8648279 8,30.131236 L8,30.131236 L8.00158126,30.5236951 C8.06674898,38.6097124 10.1343388,45.131236 12,45.131236 C13.8957525,45.131236 16,38.3976441 16,30.131236 C16,21.8648279 13.8957525,15.131236 12,15.131236 Z M45.5097384,28.1311184 C40.4658827,28.1311184 35.9998514,33.029318 35.9998514,39.1311184 C35.9998514,40.01892 36.1605834,40.951107 36.4643947,41.8736727 C36.9514973,41.0554434 37.3920414,40.2097105 37.7858991,39.3638793 C37.8867782,39.1472358 37.9808888,38.938414 38.0681412,38.7387355 L38.1760861,38.4863433 C39.0203865,33.4026565 42.8138293,29.3635059 47.6647589,28.3675688 C46.9719656,28.2092783 46.2497085,28.1311184 45.5097384,28.1311184 Z M52,15.130236 L52,15.131236 L44.683905,15.1316402 C46.3826763,17.2539947 47.5095861,21.4240177 47.6144009,26.3155146 C49.2884339,26.6165304 50.8545057,27.2873356 52.2042302,28.3412283 C53.5450807,28.6004828 54.8077761,29.0920143 55.9519495,29.774106 C55.7270781,22.0273484 53.7800302,15.352673 52.0842821,15.136631 L52,15.130236 Z" id="Combined-Shape" fill="#000000" fill-rule="nonzero"></path>
    </g>
</svg>