<?xml version="1.0" encoding="UTF-8"?>
<svg width="64px" height="64px" viewBox="0 0 64 64" version="1.1" xmlns="http://www.w3.org/2000/svg" xmlns:xlink="http://www.w3.org/1999/xlink">
    <title>chemical_sds</title>
    <g id="chemical_sds" stroke="none" stroke-width="1" fill="none" fill-rule="evenodd">
        <path d="M54,4 C55.1045695,4 56,4.8954305 56,6 L56,6 L56,58 C56,59.1045695 55.1045695,60 54,60 L54,60 L10,60 C8.8954305,60 8,59.1045695 8,58 L8,58 L8,6 C8,4.8954305 8.8954305,4 10,4 L10,4 Z M52,48.857 L44.857,56 L49.1,56 L52,53.1 L52,48.857 Z M27.152,8 L22.861,8 L18.861,12 L16,12 L16,14.861 L12,18.861 L12,23.152 L16,19.152 L16,24.847 L12,28.847 L12,33.157 L16,29.157 L16,34.842 L12,38.842 L12,43.16 L16,39.16 L16,44.839 L12,48.839 L12,53.161 L16,49.161 L16,52 L18.838,52 L14.838,56 L19.158,56 L23.158,52 L28.841,52 L24.841,56 L29.153,56 L33.153,52 L38.846,52 L34.846,56 L39.142,56 L43.142,52 L48,52 L48,47.142 L52,43.142 L52,38.846 L48,42.846 L48,37.153 L52,33.153 L52,28.841 L48,32.841 L48,27.158 L52,23.158 L52,18.838 L48,22.838 L48,17.161 L52,13.161 L52,8.839 L48,12.839 L48,12 L43.16,12 L47.16,8 L42.842,8 L38.842,12 L33.157,12 L37.157,8 L32.847,8 L28.847,12 L23.152,12 L27.152,8 Z M17.138,8 L12,8 L12,13.138 L17.138,8 Z" id="Combined-Shape" fill="#000000" fill-rule="nonzero"></path>
    </g>
</svg>