<?xml version="1.0" encoding="UTF-8"?>
<svg width="64px" height="64px" viewBox="0 0 64 64" version="1.1" xmlns="http://www.w3.org/2000/svg" xmlns:xlink="http://www.w3.org/1999/xlink">
    <title>chiirp</title>
    <g id="chiirp" stroke="none" fill="none" transform="translate(0, -0)" fill-rule="evenodd">
        <path d="M31,5 C45.3594035,5 57,16.6405965 57,31 C57,45.3594035 45.3594035,57 31,57 C27.081116,57 23.3647345,56.1329837 20.0322107,54.5803063 C17.6774036,56.1934354 15,58 12,60 C7.33333333,46.2657595 5,36.5990929 5,31 C5,16.6405965 16.6405965,5 31,5 Z M40.5,12.5 C39.5682076,12.5 38.2022967,14.6705927 36.4022672,19.0117781 C34.0550545,17.7290073 31.3626617,17 28.5,17 C19.3873016,17 12,24.3873016 12,33.5 C12,42.6126984 19.3873016,50 28.5,50 C37.6126984,50 45,42.6126984 45,33.5 C45,30.6053782 44.2546238,27.8848483 42.9453382,25.5198771 L43.035503,25.4733728 C47.0118343,23.4142012 49,21.9230769 49,21 C49,20 46.6666667,19.6666667 42,20 C42,15 41.5,12.5 40.5,12.5 Z M33.5,23 C36.5375661,23 39,25.4624339 39,28.5 C39,31.5375661 36.5375661,34 33.5,34 C30.4624339,34 28,31.5375661 28,28.5 C28,25.4624339 30.4624339,23 33.5,23 Z" id="Oval-3" fill="#000000"></path>
    </g>
</svg>