<?xml version="1.0" encoding="UTF-8"?>
<svg width="64px" height="64px" viewBox="0 0 64 64" version="1.1" xmlns="http://www.w3.org/2000/svg" xmlns:xlink="http://www.w3.org/1999/xlink">
    <title>city</title>
    <g id="city" stroke="none" stroke-width="1" fill="none" fill-rule="evenodd">
        <path d="M38,24 C39.0256717,24 39.8710143,24.7720804 39.9865445,25.7667577 L40,26 L40,60 L36,60 L36,28 L8,28 L8,60 L4,60 L4,26 C4,24.9743283 4.77208038,24.1289857 5.76675775,24.0134555 L6,24 L38,24 Z" id="Path-120" fill="#000000" fill-rule="nonzero"></path>
        <path d="M46,4 C47.0256717,4 47.8710143,4.77208038 47.9865445,5.76675775 L48,6 L48,40 L44,40 L44,8 L24,8 L24,24 L20,24 L20,6 C20,4.97432832 20.7720804,4.12898568 21.7667577,4.01345546 L22,4 L46,4 Z" id="Path-120-Copy" fill="#000000" fill-rule="nonzero"></path>
        <path d="M58,40 C59.0256717,40 59.8710143,40.7720804 59.9865445,41.7667577 L60,42 L60,60 L56,60 L56,44 L40,44 L40,40 L58,40 Z" id="Path-120-Copy-2" fill="#000000" fill-rule="nonzero"></path>
        <rect id="Rectangle" fill="#000000" x="12" y="32" width="4" height="4"></rect>
        <rect id="Rectangle-Copy" fill="#000000" x="20" y="32" width="4" height="4"></rect>
        <rect id="Rectangle-Copy-2" fill="#000000" x="28" y="32" width="4" height="4"></rect>
        <rect id="Rectangle-Copy-5" fill="#000000" x="12" y="40" width="4" height="4"></rect>
        <rect id="Rectangle-Copy-4" fill="#000000" x="20" y="40" width="4" height="4"></rect>
        <rect id="Rectangle-Copy-3" fill="#000000" x="28" y="40" width="4" height="4"></rect>
        <rect id="Rectangle-Copy-16" fill="#000000" x="28" y="12" width="4" height="4"></rect>
        <rect id="Rectangle-Copy-15" fill="#000000" x="36" y="12" width="4" height="4"></rect>
        <rect id="Rectangle-Copy-14" fill="#000000" x="28" y="20" width="4" height="4"></rect>
        <rect id="Rectangle-Copy-13" fill="#000000" x="36" y="20" width="4" height="4"></rect>
        <rect id="Rectangle-Copy-11" fill="#000000" x="40" y="48" width="4" height="4"></rect>
        <rect id="Rectangle-Copy-12" fill="#000000" x="48" y="48" width="4" height="4"></rect>
        <rect id="Rectangle-Copy-10" fill="#000000" x="44" y="56" width="4" height="4"></rect>
        <rect id="Rectangle-Copy-8" fill="#000000" x="12" y="48" width="4" height="4"></rect>
        <rect id="Rectangle-Copy-7" fill="#000000" x="20" y="48" width="4" height="4"></rect>
        <rect id="Rectangle-Copy-9" fill="#000000" x="20" y="56" width="4" height="4"></rect>
        <rect id="Rectangle-Copy-6" fill="#000000" x="28" y="48" width="4" height="4"></rect>
    </g>
</svg>