<?xml version="1.0" encoding="UTF-8"?>
<svg width="64px" height="64px" viewBox="0 0 64 64" version="1.1" xmlns="http://www.w3.org/2000/svg" xmlns:xlink="http://www.w3.org/1999/xlink">
    <title>click</title>
    <g id="click" stroke="none" stroke-width="1" fill="none" fill-rule="evenodd">
        <path d="M54,8 C55.1045695,8 56,8.8954305 56,10 L56,10 L56,34 C56,34.6707573 55.6698003,35.2643924 55.163084,35.6272222 L51.394,32 L52,32 L52,12 L8,12 L8,32 L33,32 L33,36 L6,36 C4.9456382,36 4.08183488,35.1841222 4.00548574,34.1492623 L4,34 L4,10 C4,8.8954305 4.8954305,8 6,8 L6,8 Z" id="Rectangle" fill="#000000" fill-rule="nonzero"></path>
        <path d="M55.5802718,56.0765979 L51,46 L51,46 L57.4431573,45.079549 C58.5366253,44.9233392 59.2964233,43.9102753 59.1402136,42.8168073 C59.0771528,42.3753815 58.8683835,41.9676898 58.5470753,41.6585065 L38.3867607,22.2589585 C37.5908392,21.4930716 36.3247433,21.5174196 35.5588565,22.3133412 C35.200296,22.6859629 35,23.1829825 35,23.700102 L35,52.0924635 C35,53.197033 35.8954305,54.0924635 37,54.0924635 C37.4844463,54.0924635 37.9524262,53.9166271 38.3170092,53.5976169 L43,49.5 L43,49.5 L47.5920387,59.6024851 C47.8182816,60.1002196 48.4023234,60.3239835 48.903224,60.1048395 L55.0707241,57.4065582 C55.5767039,57.1851921 55.8074288,56.5955617 55.5860626,56.089582 C55.5841631,56.0852403 55.5822328,56.0809122 55.5802718,56.0765979 Z" id="Path-14" fill="#000000"></path>
    </g>
</svg>