<?xml version="1.0" encoding="UTF-8"?>
<svg width="64px" height="64px" viewBox="0 0 64 64" version="1.1" xmlns="http://www.w3.org/2000/svg" xmlns:xlink="http://www.w3.org/1999/xlink">
    <title>client_pest_sightings</title>
    <g id="client_pest_sightings" stroke="none" stroke-width="1" fill="none" fill-rule="evenodd">
        <path d="M43.4001115,29.5114504 C41.8996127,28.8735931 41.4138792,25.9389313 41.4138792,25.9389313 C41.4138792,25.9389313 39.4276469,23.4138048 39.4276469,21.5419847 C39.4276469,19.6701646 40.2788893,19.8931298 40.2788893,19.8931298 C40.2788893,19.8931298 37.8713375,10 47.6563235,10 C57.4413096,10 55.0337577,19.8931298 55.0337577,19.8931298 C55.0337577,19.8931298 55.8850001,19.6105519 55.8850001,21.5419847 C55.8850001,23.4734176 53.8987678,26.2137405 53.8987678,26.2137405 C53.8987678,26.2137405 53.3556519,28.7953399 51.9125355,29.5114504 C53.0305977,30.3591263 55.8850001,32.3591374 55.8850001,32.3591374 L55.8850001,46.0539089 L47.6563235,46.0539089 L37.0775568,35.2967386 C37.0775568,35.2967386 38.1108688,32.891145 39.4276469,31.9112978 C40.7444251,30.9314505 40.6847775,31.5268205 43.4001115,29.5114504 Z" id="Path-11" fill="#000000" fill-rule="nonzero"></path>
        <g id="magnifying-glass" transform="translate(8.000000, 13.000000)" fill="#000000" fill-rule="nonzero">
            <path d="M14,26.1333333 L14,26.1333333 C20.701055,26.1333333 26.1333333,20.701055 26.1333333,14 C26.1333333,7.29894504 20.701055,1.86666667 14,1.86666667 C7.29894504,1.86666667 1.86666667,7.29894504 1.86666667,14 C1.86666667,20.701055 7.29894504,26.1333333 14,26.1333333 L14,26.1333333 Z M14,28 L14,28 C6.2680135,28 0,21.7319865 0,14 C0,6.2680135 6.2680135,0 14,0 C21.7319865,0 28,6.2680135 28,14 C28,21.7319865 21.7319865,28 14,28 L14,28 Z" id="Shape"></path>
            <polygon id="Path-36" transform="translate(30.545941, 30.545942) rotate(-45.000000) translate(-30.545941, -30.545942) " points="27.0459415 40.5459416 27.0459415 23.3906438 29.131728 20.5459416 31.7555563 20.6206808 34.0459415 23.3906438 34.0459415 40.5459416"></polygon>
        </g>
    </g>
</svg>