<?xml version="1.0" encoding="UTF-8"?>
<svg width="64px" height="64px" viewBox="0 0 64 64" version="1.1" xmlns="http://www.w3.org/2000/svg" xmlns:xlink="http://www.w3.org/1999/xlink">
    <title>client_required</title>
    <g id="client_required" stroke="none" stroke-width="1" fill="none" fill-rule="evenodd">
        <ellipse id="Oval-5" fill="#000000" fill-rule="nonzero" cx="36.5742835" cy="15.3996649" rx="9.57428354" ry="9.39966489"></ellipse>
        <path d="M47.9575895,26 C50.0797377,26 51.8774972,27.5350882 52.1717285,29.5984096 L52.1717285,29.5984096 L56.9588702,53.6197754 C57.2847069,55.9047322 55.6621154,58.016381 53.3347107,58.3362749 C51.007306,58.6561689 48.8564289,57.0631707 48.5305923,54.7782139 L48.5305923,54.7782139 L45.6095911,40 L44.4737539,56 L26.8868761,56 L25.6175946,38.6342626 L20.2507997,46.9043159 C18.5469836,49.7718727 14.2814476,49.6369246 12.7692159,46.6676222 L12.7692159,46.6676222 L7.45016947,37.2679573 C6.39917165,35.2042985 7.25117373,32.6949095 9.35316937,31.6630801 C11.455165,30.6312507 14.0111712,31.4677137 15.0621691,33.5313725 L15.0621691,33.5313725 L17.1474935,37.2679573 L21.9420105,28.0726427 C22.704593,26.7892012 24.1041469,26 25.6175946,26 L25.6175946,26 L47.9575895,26 Z M36,47 C34.3431458,47 33,48.3431458 33,50 C33,51.6568542 34.3431458,53 36,53 C37.6568542,53 39,51.6568542 39,50 C39,48.3431458 37.6568542,47 36,47 Z M32.5,31.8454002 C32.7620598,35.4365572 33.137954,40.1843578 33.5,44.1816974 C33.5,46.5874125 38.5,46.6247175 38.5,44.1816974 C38.8999939,40.7969569 39.2999878,35.4684132 39.5,31.8454002 C39.5,28.0857867 32.5,27.9428539 32.5,31.8454002 Z" id="Combined-Shape" fill="#000000" fill-rule="nonzero"></path>
    </g>
</svg>