<?xml version="1.0" encoding="UTF-8"?>
<svg width="64px" height="64px" viewBox="0 0 64 64" version="1.1" xmlns="http://www.w3.org/2000/svg" xmlns:xlink="http://www.w3.org/1999/xlink">
    <title>client_actions</title>
    <g id="client_actions" stroke="none" stroke-width="1" fill="none" fill-rule="evenodd">
        <path d="M21.7511707,27.5114504 C20.2506719,26.8735931 19.7649384,23.9389313 19.7649384,23.9389313 C19.7649384,23.9389313 17.7787061,21.4138048 17.7787061,19.5419847 C17.7787061,17.6701646 18.6299485,17.8931298 18.6299485,17.8931298 C18.6299485,17.8931298 16.2223966,8 26.0073827,8 C35.7923688,8 33.3848169,17.8931298 33.3848169,17.8931298 C33.3848169,17.8931298 34.2360593,17.6105519 34.2360593,19.5419847 C34.2360593,21.4734176 32.249827,24.2137405 32.249827,24.2137405 C32.249827,24.2137405 31.7067111,26.7953399 30.2635947,27.5114504 C31.3816569,28.3591263 33.3848169,29.9579736 33.3848169,29.9579736 L25.4114396,43.5431302 C25.4114396,43.5431302 8.9076362,44 8.13129216,41.2519084 C7.35494812,38.5038168 10.2194836,33.4378625 11.5362618,32.4580153 C12.8530399,31.478168 19.0358367,29.5268205 21.7511707,27.5114504 Z" id="Path-11" fill="#000000" fill-rule="nonzero"></path>
        <path d="M40.7517218,27.328882 L55.4301627,52.5468984 C56.5402098,54.4539937 55.648966,56 53.4379944,56 L24.0456128,56 C21.8353216,56 20.9453832,54.4505821 22.0534446,52.5468984 L36.7318855,27.328882 C37.8419326,25.4217867 39.6436604,25.4251983 40.7517218,27.328882 Z M38.8335631,49.2743411 C38.2522344,49.2743411 37.7608807,49.4956544 37.3594871,49.9382877 C36.9580935,50.3809209 36.7573997,50.9176693 36.7573997,51.5485489 C36.7573997,52.2710078 36.9673208,52.8331944 37.3871692,53.2351258 C37.8070177,53.6370571 38.2983715,53.8380198 38.8612452,53.8380198 C39.4148916,53.8380198 39.8993248,53.6345133 40.3145596,53.2274942 C40.7297943,52.8204751 40.9374086,52.2608323 40.9374086,51.5485489 C40.9374086,50.9176693 40.7321012,50.3809209 40.3214801,49.9382877 C39.9108591,49.4956544 39.4148917,49.2743411 38.8335631,49.2743411 Z M38.9442918,32.5081927 C38.2891436,32.5081927 37.7608807,32.7285846 37.3594871,33.1693751 C36.9580935,33.6101656 36.7573997,34.2239453 36.7573997,35.0107326 C36.7573997,35.5889738 36.7989225,36.5416358 36.8819695,37.8687469 L36.8819695,37.8687469 L37.3248843,44.6796367 C37.4079313,45.5612177 37.5463408,46.2176539 37.740117,46.648965 C37.9338932,47.0802761 38.279917,47.2959284 38.7781987,47.2959284 C39.267253,47.2959284 39.6178904,47.0731667 39.8301215,46.6276365 C40.0423526,46.1821063 40.1807621,45.5422588 40.2453542,44.7080747 L40.2453542,44.7080747 L40.840521,37.6981192 C40.9051131,37.0535223 40.9374086,36.4184144 40.9374086,35.7927763 C40.9374086,34.7310874 40.8036128,33.918244 40.536017,33.3542218 C40.2684213,32.7901996 39.7378515,32.5081927 38.9442918,32.5081927 Z" id="Combined-Shape" fill="#000000" fill-rule="nonzero"></path>
    </g>
</svg>