<?xml version="1.0" encoding="UTF-8"?>
<svg width="32px" height="32px" viewBox="0 0 32 32" version="1.1" xmlns="http://www.w3.org/2000/svg" xmlns:xlink="http://www.w3.org/1999/xlink">
    <title>close-empty</title>
    <g id="close-empty" stroke="none" stroke-width="1" fill="none" fill-rule="evenodd">
        <path d="M16,6 C16.5522847,6 17,6.44771525 17,7 L17,15 L25,15 C25.5522847,15 26,15.4477153 26,16 C26,16.5522847 25.5522847,17 25,17 L17,17 L17,25 C17,25.5522847 16.5522847,26 16,26 C15.4477153,26 15,25.5522847 15,25 L15,17 L7,17 C6.44771525,17 6,16.5522847 6,16 C6,15.4477153 6.44771525,15 7,15 L15,15 L15,7 C15,6.44771525 15.4477153,6 16,6 Z" id="Combined-Shape" fill="#000000" transform="translate(16.000000, 16.000000) rotate(45.000000) translate(-16.000000, -16.000000) "></path>
    </g>
</svg>