<?xml version="1.0" encoding="UTF-8"?>
<svg width="64px" height="64px" viewBox="0 0 64 64" version="1.1" xmlns="http://www.w3.org/2000/svg" xmlns:xlink="http://www.w3.org/1999/xlink">
    <title>close</title>
    <g id="close" stroke="none" stroke-width="1" fill="none" fill-rule="evenodd">
        <path d="M32,4 C34.209139,4 36,5.790861 36,8 L35.999,27.999 L56,28 C58.209139,28 60,29.790861 60,32 C60,34.209139 58.209139,36 56,36 L35.999,35.999 L36,56 C36,58.209139 34.209139,60 32,60 C29.790861,60 28,58.209139 28,56 L27.999,35.999 L8,36 C5.790861,36 4,34.209139 4,32 C4,29.790861 5.790861,28 8,28 L27.999,27.999 L28,8 C28,5.790861 29.790861,4 32,4 Z" id="Combined-Shape" fill="#000000" transform="translate(32.000000, 32.000000) rotate(45.000000) translate(-32.000000, -32.000000) "></path>
    </g>
</svg>