<?xml version="1.0" encoding="UTF-8"?>
<svg width="64px" height="64px" viewBox="0 0 64 64" version="1.1" xmlns="http://www.w3.org/2000/svg" xmlns:xlink="http://www.w3.org/1999/xlink">
    <title>cloudflare_turnstile</title>
    <g id="cloudflare_turnstile" stroke="none" fill="none" fill-rule="evenodd">
        <path d="M22.1,17.0909091 C24.7666667,10.4242424 29.4333333,7.42424242 36.1,8.09090909 C42.7666667,8.75757576 46.4333333,12.4242424 47.1,19.0909091 C46.4333333,21.7575758 45.1,23.7575758 43.1,25.0909091 C41.6862069,26.0334378 36.2747919,26.3096962 30.947618,26.4430001 L30.1691067,26.4615483 C24.4713833,26.5909751 19.1,26.585162 19.1,27.0909091 C19.1,27.6293706 24.0289941,27.8778913 29.2033227,27.9925932 L29.9436757,28.0080857 C33.2782228,28.0738572 36.6219871,28.0873984 38.730658,28.0901863 L40.1,28.0909091 C40.1885362,28.0909091 40.2748677,28.0927463 40.3589946,28.0964206 C37.7819753,29.1435729 35.5621163,30.8855257 33.9318599,33.0899503 L4.1,33.0909091 C4.1,31.0909091 4.76666667,29.0909091 6.1,27.0909091 C7.43333333,25.0909091 9.76666667,23.7575758 13.1,23.0909091 C12.4333333,20.4242424 13.1,18.4242424 15.1,17.0909091 C17.1,15.7575758 19.4333333,15.7575758 22.1,17.0909091 Z M48.1,19.0909091 C52.7666667,19.0909091 56.1,20.7575758 58.1,24.0909091 C60.1,27.4242424 60.4333333,30.4242424 59.1,33.0909091 L58.0681401,33.0899503 C56.2473232,30.6278509 53.6910109,28.7426586 50.7237586,27.758929 C52.9695965,27.5855688 55.1,27.6425823 55.1,27.0909091 C55.1,26.0909091 49.1,27.0909091 48.1,25.0909091 C47.4333333,23.7575758 47.4333333,21.7575758 48.1,19.0909091 Z" id="cloudflare" fill="#000000"></path>
        <path d="M46,28 C53.7319865,28 60,34.2680135 60,42 C60,49.7319865 53.7319865,56 46,56 C38.2680135,56 32,49.7319865 32,42 C32,34.2680135 38.2680135,28 46,28 Z M53.9922779,33.2635137 C53.033243,32.7154938 51.8115337,33.0486872 51.2635137,34.0077221 L44.5626539,45.7342268 L40.4142136,41.5857864 C39.633165,40.8047379 38.366835,40.8047379 37.5857864,41.5857864 C36.8047379,42.366835 36.8047379,43.633165 37.5857864,44.4142136 L43.5857864,50.4142136 C44.5182813,51.3467084 46.0822046,51.1372708 46.7364863,49.9922779 L54.7364863,35.9922779 C55.2845062,35.033243 54.9513128,33.8115337 53.9922779,33.2635137 Z" id="Oval-2" fill="#000000"></path>
    </g>
</svg>