<?xml version="1.0" encoding="UTF-8"?>
<svg width="64px" height="64px" viewBox="0 0 64 64" version="1.1" xmlns="http://www.w3.org/2000/svg" xmlns:xlink="http://www.w3.org/1999/xlink">
    <title>cloud</title>
    <g id="cloud" stroke="none" stroke-width="1" fill="none" fill-rule="evenodd">
        <path d="M31,12 C37.0842824,12 42.4220323,15.1962857 45.4257278,20.0013353 L45.5,20 C53.5081289,20 60,26.7157288 60,35 C60,43.1108771 53.7770414,49.7181854 46.0008047,49.991221 L14,50 L14.000274,49.9551817 C8.39364311,49.4500817 4,44.738136 4,39 C4,33.2530046 8.40722066,28.5353708 14.0262516,28.0425089 C14.522612,19.0995259 21.9322144,12 31,12 Z M31,16 C24.198075,16 18.5737144,21.2402208 18.0410591,27.9533118 L18.0201047,28.2641788 L17.8280528,31.7243993 L14.3757616,32.02721 C10.7836973,32.3422806 8,35.3654481 8,39 C8,42.5477617 10.652619,45.5138566 14.1214266,45.945814 L14.3591794,45.9713159 L14.681,46 L45.661,46 L45.860445,45.9936843 C51.3813003,45.7998386 55.8488599,41.123251 55.996245,35.2972136 L56,35 C56,28.9935591 51.4194886,24.1582209 45.846755,24.0031893 L45.5719019,23.9993537 L43.2339843,24.0413857 L42.0339058,22.1216049 C39.6705274,18.3408787 35.5389441,16 31,16 Z" id="Path" fill="#000000" fill-rule="nonzero"></path>
    </g>
</svg>