<?xml version="1.0" encoding="UTF-8"?>
<svg width="64px" height="64px" viewBox="0 0 64 64" version="1.1" xmlns="http://www.w3.org/2000/svg" xmlns:xlink="http://www.w3.org/1999/xlink">
    <title>clypboard</title>
    <g id="clypboard" stroke="none" stroke-width="1" fill="none" fill-rule="evenodd">
        <path d="M57.9987652,6 C59.2848956,6 60.236686,7.19644926 59.9474874,8.44964339 L53.9476726,34.4488408 C53.7382647,35.3562749 52.9302336,35.9990739 51.9989504,35.9990739 L40.7145678,35.999 L39.0593499,46.7627416 L40.8562478,51.2558215 L40.9395768,51.5135237 C42.0459835,55.9391503 38.4423057,57.9983947 31.9995678,57.9983947 C25.7263756,57.9983947 22.1447855,56.0461055 22.9819623,51.8580045 L23.0595588,51.5135237 L23.1428878,51.2558215 L24.9377858,46.7627416 L23.2835678,35.999 L12.0001852,35.9990739 C11.1236834,35.9990739 10.3563598,35.4296741 10.0945346,34.6061521 L10.051463,34.4488408 L4.0516482,8.44964339 C3.76244956,7.19644926 4.71424004,6 6.00037043,6 Z M36.6685678,35.999 L27.3295678,35.999 L28.9764045,46.6946293 C29.0171801,46.9596706 29.0041065,47.2292757 28.9390007,47.4875644 L28.8566182,47.7414927 L26.9197246,52.578562 C26.8108554,53.3338934 27.6806322,53.8608466 30.6734661,53.9752118 L31.5431911,53.9960345 L31.9995678,53.9985182 L32.886877,53.9886457 L33.6746913,53.9595274 L34.3675733,53.9119124 C36.4162068,53.7326358 37.1055333,53.2864038 37.087555,52.6802458 L37.077411,52.578562 L35.1425174,47.7414927 C35.0429254,47.4925128 34.9947599,47.2269231 34.9998379,46.9606037 L35.0227311,46.6946293 L36.6685678,35.999 Z M55.4828428,9.99987652 L8.51429282,9.99987652 L13.5901361,31.9991974 L50.4069995,31.9991974 L55.4828428,9.99987652 Z" id="Combined-Shape" fill="#000000" fill-rule="nonzero"></path>
    </g>
</svg>