<?xml version="1.0" encoding="UTF-8"?>
<svg width="64px" height="64px" viewBox="0 0 64 64" version="1.1" xmlns="http://www.w3.org/2000/svg" xmlns:xlink="http://www.w3.org/1999/xlink">
    <title>clypmart</title>
    <g id="clypmart" stroke="none" stroke-width="1" fill="none" fill-rule="evenodd">
        <path d="M12,5 C12.8679933,5 13.6300682,5.5586106 13.898691,6.37136567 L13.9431805,6.52666117 L15.091,11 L57.6341249,11 C58.7386944,11 59.6341249,11.8954305 59.6341249,13 C59.6341249,13.1115423 59.6247936,13.2228892 59.6062288,13.3328757 L55.0488394,40.3328757 C54.8863769,41.2953759 54.0528506,42 53.0767355,42 L23.044,42 L24.071,46 L49,46 C49.060643,46 49.1206557,46.002699 49.1799243,46.0079835 L49.2668659,46.004103 L49.2668659,46.004103 L49.5,46 C53.0898509,46 56,48.9101491 56,52.5 C56,56.0898509 53.0898509,59 49.5,59 C45.9101491,59 43,56.0898509 43,52.5 C43,51.6142625 43.1771628,50.7699037 43.4979858,50.0004259 L29.5020142,50.0004259 C29.8228372,50.7699037 30,51.6142625 30,52.5 C30,56.0898509 27.0898509,59 23.5,59 C19.9101491,59 17,56.0898509 17,52.5 C17,50.132226 18.2660268,48.0601485 20.1580754,46.9237725 L10.428,9 L5,9 C3.9456382,9 3.08183488,8.18412221 3.00548574,7.14926234 L3,7 C3,5.9456382 3.81587779,5.08183488 4.85073766,5.00548574 L5,5 L12,5 Z M23.5,50 C22.1192881,50 21,51.1192881 21,52.5 C21,53.8807119 22.1192881,55 23.5,55 C24.8807119,55 26,53.8807119 26,52.5 C26,51.1192881 24.8807119,50 23.5,50 Z M49.5,50 C48.1192881,50 47,51.1192881 47,52.5 C47,53.8807119 48.1192881,55 49.5,55 C50.8807119,55 52,53.8807119 52,52.5 C52,51.1192881 50.8807119,50 49.5,50 Z M49.485291,15 L24.5457571,15 C24.5457571,15 23.8359537,15 24.0353117,15.9032258 C24.0709785,16.0648202 24.2866532,16.8019293 24.5918842,17.822503 L24.7387897,18.3126012 C24.9422641,18.9900666 25.1743836,19.7578642 25.4140687,20.5479334 L25.5949217,21.1435977 L25.5949217,21.1435977 L25.7766356,21.7412332 C26.5630737,24.3260409 27.3180993,26.7866452 27.3180993,26.7866452 C27.3180993,26.7866452 26.5137319,26.7760316 26.5137319,28.1222648 C26.5137319,29.409966 27.8735689,29.465953 27.9918156,29.4683872 L33.6093273,29.4929799 L34.1158506,33.0624461 C34.0336176,33.1342377 33.9504838,33.2139299 33.8677106,33.3020168 C33.3283182,33.8760363 33,34.6280161 33,35.535768 C33,37.2494616 34.2877201,37.8747528 36.2897087,37.9787267 C36.5670798,37.9931321 36.7935971,37.9974823 37.192376,37.9983448 L37.5481686,37.9989293 L37.6248753,37.999251 L38.0051811,37.9998028 C38.2823435,37.9990279 38.4755126,37.9947681 38.7002206,37.9840377 C40.7069747,37.8882093 42,37.2611537 42,35.535768 C42,34.6073627 41.714549,33.8532793 41.2287256,33.2927941 C41.1525824,33.2049492 41.0755041,33.1257435 40.9986013,33.0546121 L41.352,29.468 L46.1776206,29.4683872 C46.2814966,29.465953 47.4760702,29.409966 47.4760702,28.1222648 C47.4760702,26.7760316 46.7579434,26.6706612 46.7579434,26.6706612 C46.7579434,26.6706612 49.7862817,16.5549433 49.9533574,15.9032258 C50.1720464,15.0501792 49.554574,15.0027877 49.485291,15 Z M35.607,29.5 L39.2651416,29.5249799 L38.9510137,33.4695564 C38.9075408,33.9094502 39.158039,34.3256977 39.5670834,34.4932661 C39.5641415,34.4920609 39.6330033,34.5373489 39.7174403,34.6347623 C39.8902632,34.8341448 40,35.1240394 40,35.567768 C40,35.8016776 39.6568779,35.9680754 38.6048234,36.0183141 C38.4511208,36.0256539 38.3106234,36.0294903 38.1299911,36.0310564 L37.6333375,36.0312689 C37.6006947,36.0311294 37.5762125,36.0310247 37.5558464,36.0309432 L37.2047731,36.030363 C36.8340793,36.0295935 36.6307883,36.0257453 36.3934396,36.0134185 C35.3452485,35.9589804 35,35.7913346 35,35.567768 C35,35.1956119 35.1190239,34.9229997 35.3252015,34.7035862 C35.4480921,34.5728065 35.5654416,34.4958883 35.6041068,34.4784466 C36.0095744,34.2955421 36.245488,33.8668024 36.1829932,33.4264021 L35.607,29.5 Z" id="Combined-Shape" fill="#000000"></path>
    </g>
</svg>