<?xml version="1.0" encoding="UTF-8"?>
<svg width="64px" height="64px" viewBox="0 0 64 64" version="1.1" xmlns="http://www.w3.org/2000/svg" xmlns:xlink="http://www.w3.org/1999/xlink">
    <title>clyp_settings</title>
    <g id="clyp_settings" stroke="none" stroke-width="1" fill="none" fill-rule="evenodd">
        <path d="M27.2151094,45.0386041 C27.7476606,45.0386041 28.2800948,45.1512032 28.7737394,45.3764923 L28.9764045,46.6946293 C29.0171801,46.9596706 29.0041065,47.2292757 28.9390007,47.4875644 L28.8566182,47.7414927 L26.9197246,52.578562 C26.8108554,53.3338934 27.6806322,53.8608466 30.6734661,53.9752118 L31.5431911,53.9960345 L31.9995678,53.9985182 L32.886877,53.9886457 L33.6746913,53.9595274 L34.3675733,53.9119124 C34.9501783,53.8609285 35.4228478,53.7883542 35.8005782,53.6966514 C36.140368,53.7975708 36.4842513,53.8896163 36.831656,53.9726225 C37.1484598,54.0483171 37.4660497,54.1159829 37.7841606,54.1757058 C37.8239838,53.8986686 37.8948328,53.6248608 37.9970417,53.3598898 C38.2723772,52.6460976 38.7593997,52.037617 39.3808593,51.6111087 C39.7907988,51.3297669 40.2594614,51.1279435 40.7647095,51.0275859 L40.8562478,51.2558215 L40.9395768,51.5135237 C42.0459835,55.9391503 38.4423057,57.9983947 31.9995678,57.9983947 C25.7263756,57.9983947 22.1447855,56.0461055 22.9819623,51.8580045 L23.0595588,51.5135237 L23.1428878,51.2558215 L24.9377858,46.7627416 L24.7355678,45.445 L24.9629663,45.7870244 C25.1311049,45.6611526 25.3101885,45.5489228 25.4987206,45.452114 L25.6903468,45.3605114 C26.1745229,45.1457878 26.6949602,45.0386041 27.2151094,45.0386041 Z M50.5205971,31.5117355 C50.8317156,32.4518209 51,33.4565803 51,34.5 C51,35.010309 50.9597456,35.5113724 50.8822144,36.0001467 L40.7145678,35.999 L39.5161391,43.7930121 C38.1168152,43.4962782 36.8327146,42.8919605 35.736905,42.0546409 L36.6685678,35.999 L32.1177837,36.0001554 C32.0568483,35.6159972 32.0189397,35.2242477 32.0055034,34.8263844 L32,34.5 C32,33.6348106 32.1157004,32.796202 32.3325936,31.9990047 L50.4069995,31.9991974 Z M57.9987652,6 C59.2848956,6 60.236686,7.19644926 59.9474874,8.44964339 L56.3772683,23.9238105 C56.1811137,23.954914 55.9829811,23.9704532 55.7848906,23.9704532 C54.8247034,23.9704532 53.8648212,23.6044391 53.1319569,22.8717288 C52.9478473,22.6876197 52.7868592,22.4891465 52.6490115,22.2799098 L55.4828428,9.99987652 L8.51429282,9.99987652 L13.5901361,31.9991974 L24.0907207,31.99913 C24.1994708,32.1202787 24.3004662,32.2485243 24.3929283,32.3830807 C24.807502,32.9863932 25.0498021,33.7170683 25.0498021,34.5043841 C25.0498021,35.2914827 24.8077405,36.0218785 24.3935009,36.6250193 C24.1547,36.9727178 23.8589224,37.2782868 23.5195973,37.5281864 L23.2835678,35.999 L12.0001852,35.9990739 C11.1236834,35.9990739 10.3563598,35.4296741 10.0945346,34.6061521 L10.051463,34.4488408 L4.0516482,8.44964339 C3.76244956,7.19644926 4.71424004,6 6.00037043,6 Z" id="Combined-Shape" fill="#000000" fill-rule="nonzero"></path>
        <path d="M56.9502943,34.5043841 C56.9501979,32.4796993 58.2166771,30.7515918 60,30.06613 C59.5291172,28.0941508 58.7515391,26.2408796 57.719875,24.5605636 C57.1056172,24.8338233 56.4451094,24.9704532 55.7848906,24.9704532 C54.5688047,24.9704532 53.3531042,24.5068945 52.4249245,23.5789099 C50.9928125,22.1468017 50.6666536,20.0286536 51.4440391,18.2823352 C49.7641042,17.2499993 47.9114062,16.4716524 45.9394219,16 C45.2550182,17.7853417 43.5260391,19.0534556 41.5,19.0534556 C39.4741536,19.0534556 37.7451745,17.7853417 37.0606745,16 C35.0886901,16.4716524 33.2360885,17.2499993 31.5561536,18.2824316 C32.3335391,20.0285572 32.0073802,22.146609 30.5751719,23.5790063 C29.6471849,24.5069908 28.4312917,24.9706459 27.2152057,24.9706459 C26.5547943,24.9706459 25.8945755,24.8339197 25.280125,24.56066 C24.2485573,26.2408796 23.4707865,28.0940544 23,30.06613 C24.7834193,30.7513991 26.0498021,32.4796993 26.0498021,34.5043841 C26.0498021,36.5285871 24.7844792,38.2560201 23.0021198,38.9418673 C23.4740625,40.9138466 24.2524115,42.7663469 25.2849427,44.4463738 C25.8978516,44.1745594 26.556625,44.0386041 27.2151094,44.0386041 C28.4312917,44.0386041 29.6469922,44.502259 30.5750755,45.4302436 C32.0050677,46.8602321 32.3324792,48.974237 31.5593333,50.7190137 C33.2395573,51.7509641 35.0920625,52.5288293 37.0640469,53 C37.7508594,51.2194759 39.4773333,49.9556016 41.5,49.9556016 C43.5226667,49.9556016 45.2491406,51.2192833 45.9358568,53 C47.9080339,52.5288293 49.7604427,51.7508678 51.440763,50.718821 C50.6677135,48.974237 50.9950286,46.8602321 52.4251172,45.4302436 C53.3529115,44.5021628 54.5688047,44.0385077 55.7847943,44.0385077 C56.4434714,44.0385077 57.1019557,44.1744631 57.7150573,44.4463738 C58.7475885,42.7663469 59.5259375,40.9138466 59.9978802,38.9418673 C58.2155208,38.2559238 56.9502943,36.5283945 56.9502943,34.5043841 L56.9502943,34.5043841 Z M41.5,45 C35.685625,45 31,40.288125 31,34.5 C31,28.7117438 35.685625,24 41.5,24 C47.3142438,24 52,28.7117438 52,34.5 C52,40.288125 47.3142438,45 41.5,45 L41.5,45 Z" id="Shape" fill="#000000" fill-rule="nonzero"></path>
    </g>
</svg>