<svg xmlns="http://www.w3.org/2000/svg" width="64" height="64" viewBox="0 0 64 64">
  <g fill="none" fill-rule="evenodd">
    <path fill="#000" fill-rule="nonzero" d="M48.485291,24 C48.554574,24.0027877 49.1720464,24.0501792 48.9533574,24.9032258 C48.7862817,25.5549433 45.7579434,35.6706612 45.7579434,35.6706612 C45.7579434,35.6706612 46.4760702,35.7760316 46.4760702,37.1222648 C46.4760702,38.409966 45.2814966,38.465953 45.1776206,38.4683872 L45.1776206,38.4683872 L40.352,38.468 L39.9986013,42.0546121 C40.0755041,42.1257435 40.1525824,42.2049492 40.2287256,42.2927941 C40.714549,42.8532793 41,43.6073627 41,44.535768 C41,46.2611537 39.7069747,46.8882093 37.7002206,46.9840377 C37.4755126,46.9947681 37.2823435,46.9990279 37.0051811,46.9998028 L36.6248753,46.999251 L36.5481686,46.9989293 L36.192376,46.9983448 C35.7935971,46.9974823 35.5670798,46.9931321 35.2897087,46.9787267 C33.2877201,46.8747528 32,46.2494616 32,44.535768 C32,43.6280161 32.3283182,42.8760363 32.8677106,42.3020168 C32.9504838,42.2139299 33.0336176,42.1342377 33.1158506,42.0624461 L33.1158506,42.0624461 L32.6093273,38.4929799 L26.9918156,38.4683872 C26.8735689,38.465953 25.5137319,38.409966 25.5137319,37.1222648 C25.5137319,35.7760316 26.3180993,35.7866452 26.3180993,35.7866452 C26.3180993,35.7866452 25.5630737,33.3260409 24.7766356,30.7412332 L24.5949217,30.1435977 L24.5949217,30.1435977 L24.4140687,29.5479334 C24.1743836,28.7578642 23.9422641,27.9900666 23.7387897,27.3126012 L23.5918842,26.822503 C23.2866532,25.8019293 23.0709785,25.0648202 23.0353117,24.9032258 C22.8359537,24 23.5457571,24 23.5457571,24 Z M34.607,38.5 L35.1829932,42.4264021 C35.245488,42.8668024 35.0095744,43.2955421 34.6041068,43.4784466 C34.5654416,43.4958883 34.4480921,43.5728065 34.3252015,43.7035862 C34.1190239,43.9229997 34,44.1956119 34,44.567768 C34,44.7913346 34.3452485,44.9589804 35.3934396,45.0134185 C35.6307883,45.0257453 35.8340793,45.0295935 36.2047731,45.030363 L36.2047731,45.030363 L36.5558464,45.0309432 C36.5762125,45.0310247 36.6006947,45.0311294 36.6333375,45.0312689 L37.1299911,45.0310564 C37.3106234,45.0294903 37.4511208,45.0256539 37.6048234,45.0183141 C38.6568779,44.9680754 39,44.8016776 39,44.567768 C39,44.1240394 38.8902632,43.8341448 38.7174403,43.6347623 C38.6330033,43.5373489 38.5641415,43.4920609 38.5670834,43.4932661 C38.158039,43.3256977 37.9075408,42.9094502 37.9510137,42.4695564 L37.9510137,42.4695564 L38.2651416,38.5249799 L34.607,38.5 Z"/>
    <path fill="#000" fill-rule="nonzero" d="M46,4 C47.1045695,4 48,4.8954305 48,6 C48,6.85769715 47.4600995,7.58929378 46.7016138,7.87347462 L50.829,12 L54,12 C55.1045695,12 56,12.8954305 56,14 L56,58 C56,59.1045695 55.1045695,60 54,60 L18,60 C17.8266209,60 17.6583945,59.9779383 17.4979751,59.936469 C16.8437432,60.1054086 16.1250403,59.9343269 15.614008,59.4420454 L15.4948466,59.3170092 L8.49484661,51.3170092 C8.21571276,50.9979991 8.04619621,50.5998257 8.00817854,50.1807257 L8,50 L8,6 C8,4.9456382 8.81587779,4.08183488 9.85073766,4.00548574 L10,4 L46,4 Z M52,16 L20,16 L20,56 L52,56 L52,16 Z M12,10.829 L12,49.248 L16,53.819 L16,14.829 L12,10.829 Z M41.171,8 L14.829,8 L18.829,12 L45.171,12 L41.171,8 Z"/>
  </g>
</svg>
