<?xml version="1.0" encoding="UTF-8"?>
<svg width="64px" height="64px" viewBox="0 0 64 64" version="1.1" xmlns="http://www.w3.org/2000/svg" xmlns:xlink="http://www.w3.org/1999/xlink">
    <title>clyp_environment</title>
    <g id="clyp_environment" stroke="none" stroke-width="1" fill="none" fill-rule="evenodd">
        <path d="M24.8977829,46.8646851 C25.4939602,47.6724417 26.1494649,48.4337361 26.8578644,49.1421356 C27.1952662,49.4795374 27.5446672,49.8049401 27.9053724,50.1176485 L26.9197246,52.578562 C26.8108554,53.3338934 27.6806322,53.8608466 30.6734661,53.9752118 L31.5431911,53.9960345 L31.9995678,53.9985182 L32.886877,53.9886457 L33.6746913,53.9595274 L34.3675733,53.9119124 L34.45274,53.9037385 C36.5040998,54.6141137 38.7069856,55 41,55 L40.6445424,54.9955983 C39.4993468,57.0304556 36.4167014,57.9983947 31.9995678,57.9983947 C25.7263756,57.9983947 22.1447855,56.0461055 22.9819623,51.8580045 L23.0595588,51.5135237 L23.1428878,51.2558215 Z M57.9987652,6 C59.2848956,6 60.236686,7.19644926 59.9474874,8.44964339 L56.6850189,22.5898324 C56.2042107,21.9829677 55.6889302,21.404659 55.1421356,20.8578644 C54.5761342,20.2918629 53.9763658,19.7596284 53.3461114,19.2644419 L55.4828428,9.99987652 L8.51429282,9.99987652 L13.5901361,31.9991974 L21.2236063,31.9992988 C21.0763361,32.9781019 21,33.9801363 21,35 C21,35.3352095 21.0082467,35.668493 21.0245482,35.9996585 L12.0001852,35.9990739 C11.068902,35.9990739 10.2608709,35.3562749 10.051463,34.4488408 L4.0516482,8.44964339 C3.76244956,7.19644926 4.71424004,6 6.00037043,6 Z" id="Combined-Shape" fill="#000000" fill-rule="nonzero"></path>
        <path d="M41,16 C51.1582813,16 59.4546221,23.9719149 59.9741828,34.000905 L60,34 C60,34.0927486 59.9957243,34.1843877 59.9872401,34.2749197 C59.9954441,34.5153797 60,34.7571578 60,35 C60,45.4934102 51.4934102,54 41,54 C30.5065898,54 22,45.4934102 22,35 C22,34.7571578 22.0045559,34.5153797 22.0135868,34.2747464 C22.0042757,34.1843877 22,34.0927486 22,34 L22.0258172,34.000905 C22.5453779,23.9719149 30.8417187,16 41,16 Z M45.6221019,39.8701969 L45.5606738,39.8745831 C44.1074838,39.9584035 42.5813121,40 41,40 C39.3961237,40 37.8489727,39.9572079 36.377163,39.8709691 C36.7494286,42.1907816 37.3814577,44.2744876 38.2137477,45.9390677 C39.2832025,48.0779772 40.3731559,49 41,49 C41.6268441,49 42.7167975,48.0779772 43.7862523,45.9390677 C44.6185423,44.2744876 45.2505714,42.1907816 45.6221019,39.8701969 Z M26.3339757,38.1611937 L26.3767167,38.3553908 C27.4659534,43.1221092 30.8259858,47.0238028 35.258101,48.8617583 C33.8212845,46.4781828 32.7609641,43.2178887 32.2823796,39.4909781 C29.9725185,39.1870288 27.9554255,38.7448581 26.3339757,38.1611937 Z M55.6664609,38.1604325 L55.4599742,38.2338698 C53.8748993,38.7816977 51.9306281,39.1997885 49.7176942,39.4913255 C49.2390359,43.2178887 48.1787155,46.4781828 46.7417207,48.8617368 C51.2342907,46.9988067 54.6252408,43.0156019 55.6664609,38.1604325 Z M41,21 C40.3731559,21 39.2832025,21.9220228 38.2137477,24.0609323 C36.8301605,26.8281067 36,30.7535466 36,35 C36,35.2748002 36.0034765,35.5482561 36.0103545,35.8201407 C37.5957632,35.937551 39.2756583,36 41,36 C42.7243417,36 44.4042368,35.937551 45.9903226,35.8194785 C45.9965235,35.5482561 46,35.2748002 46,35 C46,30.7535466 45.1698395,26.8281067 43.7862523,24.0609323 C42.7167975,21.9220228 41.6268441,21 41,21 Z M35.2582793,21.1382632 L35.0932606,21.2077616 C30.136964,23.3331531 26.5565936,28.0519858 26.059294,33.6571149 C26.1259137,33.7028895 26.2095593,33.7543315 26.3082213,33.809217 C26.9767726,34.1811306 28.0523226,34.5557244 29.4372634,34.8815928 C30.2204151,35.0658638 31.0800864,35.2300423 32.0015166,35.3720873 L32,35 C32,29.4238677 33.2677669,24.4399411 35.2582793,21.1382632 Z M46.741899,21.1382417 L46.7514624,21.1544448 C48.7363685,24.4562134 50,29.4329697 50,35 L49.9984834,35.3720873 C50.9199136,35.2300423 51.7795849,35.0658638 52.5627366,34.8815928 C53.9476774,34.5557244 55.0232274,34.1811306 55.6917787,33.809217 C55.7904407,33.7543315 55.8740863,33.7028895 55.942436,33.6568858 C55.43791,27.990035 51.7835152,23.2289515 46.741899,21.1382417 Z" id="Oval" fill="#000000" fill-rule="nonzero"></path>
    </g>
</svg>