<?xml version="1.0" encoding="UTF-8"?>
<svg width="64px" height="64px" viewBox="0 0 64 64" version="1.1" xmlns="http://www.w3.org/2000/svg" xmlns:xlink="http://www.w3.org/1999/xlink">
    <title>code_details</title>
    <g id="code_details" stroke="none" stroke-width="1" fill="none" fill-rule="evenodd">
        <path d="M20.5051814,12.6712723 C21.2390174,11.8457068 22.5031621,11.7713453 23.3287277,12.5051814 C24.1542932,13.2390174 24.2286547,14.5031621 23.4948186,15.3287277 L8.675,32 L23.4948186,48.6712723 C24.1900317,49.453387 24.159882,50.6291296 23.4528291,51.3746841 L23.3287277,51.4948186 C22.5031621,52.2286547 21.2390174,52.1542932 20.5051814,51.3287277 L4.50518136,33.3287277 C3.83160621,32.5709556 3.83160621,31.4290444 4.50518136,30.6712723 L20.5051814,12.6712723 Z" id="Path-262" fill="#000000" fill-rule="nonzero"></path>
        <path d="M56.5051814,12.6712723 C57.2390174,11.8457068 58.5031621,11.7713453 59.3287277,12.5051814 C60.1542932,13.2390174 60.2286547,14.5031621 59.4948186,15.3287277 L44.675,32 L59.4948186,48.6712723 C60.1900317,49.453387 60.159882,50.6291296 59.4528291,51.3746841 L59.3287277,51.4948186 C58.5031621,52.2286547 57.2390174,52.1542932 56.5051814,51.3287277 L40.5051814,33.3287277 C39.8316062,32.5709556 39.8316062,31.4290444 40.5051814,30.6712723 L56.5051814,12.6712723 Z" id="Path-262-Copy" fill="#000000" fill-rule="nonzero" transform="translate(50.000011, 32.000000) scale(-1, 1) translate(-50.000011, -32.000000) "></path>
        <circle id="Oval" fill="#000000" cx="23" cy="32" r="3"></circle>
        <circle id="Oval-Copy" fill="#000000" cx="32" cy="32" r="3"></circle>
        <circle id="Oval-Copy-2" fill="#000000" cx="41" cy="32" r="3"></circle>
    </g>
</svg>