<?xml version="1.0" encoding="UTF-8"?>
<svg width="64px" height="64px" viewBox="0 0 64 64" version="1.1" xmlns="http://www.w3.org/2000/svg" xmlns:xlink="http://www.w3.org/1999/xlink">
    <title>collapse</title>
    <g id="collapse" stroke="none" fill="none" fill-rule="nonzero">
        <path d="M26,36 L26.0306194,36.0002329 C26.0590618,36.0006657 26.0874967,36.0017016 26.1159034,36.0033404 L26,36 C26.0687777,36 26.1367445,36.0034717 26.2037348,36.0102494 C26.2233869,36.0123444 26.2427334,36.0146009 26.2620499,36.0171395 C26.2957697,36.0214211 26.3295048,36.0267203 26.3629491,36.0328514 C26.3817408,36.0364722 26.4003782,36.0401695 26.4189701,36.0441339 C26.4568791,36.052029 26.494664,36.0612532 26.5320114,36.0715333 C26.5425089,36.0745823 26.5531108,36.0775906 26.5636922,36.080688 C26.6667291,36.1107528 26.7662237,36.1489952 26.8615457,36.1945642 C26.8665626,36.196869 26.8716094,36.1993033 26.8766481,36.2017601 C26.9180342,36.2220814 26.9584755,36.2436044 26.9980613,36.2664444 C27.0100748,36.273182 27.0221283,36.2803003 27.034122,36.287556 C27.0669599,36.3076303 27.0992641,36.3284789 27.1309115,36.3502145 C27.1444245,36.3592964 27.1577649,36.3687059 27.1710143,36.3782978 C27.2014084,36.4004748 27.2311215,36.4232665 27.2601601,36.4468563 C27.2724609,36.4567443 27.2843699,36.4666643 27.2961894,36.4767442 C27.3772793,36.545851 27.4532667,36.6217902 27.5228114,36.7033883 L27.4142136,36.5857864 C27.4632975,36.6348704 27.5092969,36.6858709 27.5522116,36.7385471 C27.5759549,36.7678829 27.5987763,36.7975961 27.6207657,36.8279514 C27.6305758,36.8412259 27.6400064,36.8545788 27.6492542,36.8680197 C27.6708577,36.899729 27.6917379,36.9320399 27.7116945,36.9649728 C27.7191013,36.9768671 27.7262341,36.988929 27.7332293,37.0010485 C27.8356277,37.1786099 27.9117403,37.3735448 27.955894,37.5803189 C27.9596265,37.5986196 27.9633342,37.6172597 27.9667747,37.6359393 C27.9731139,37.669496 27.9784309,37.7032325 27.9828935,37.737238 C27.985277,37.7562645 27.9875436,37.7756121 27.9895281,37.7949832 C27.9927812,37.826067 27.9952145,37.8570803 27.9969325,37.8882843 C27.9980409,37.9088292 27.9988741,37.9295658 27.9993864,37.9503088 L28,38 L28,52 C28,53.1045695 27.1045695,54 26,54 C24.8954305,54 24,53.1045695 24,52 L24,42.828 L7.41421356,59.4142136 C6.63316498,60.1952621 5.36683502,60.1952621 4.58578644,59.4142136 C3.80473785,58.633165 3.80473785,57.366835 4.58578644,56.5857864 L21.17,40 L14,40 C12.8954305,40 12,39.1045695 12,38 C12,36.8954305 12.8954305,36 14,36 L26,36 Z" id="Combined-Shape" fill="#000000"></path>
        <path d="M56,36 L56.0306194,36.0002329 C56.0590618,36.0006657 56.0874967,36.0017016 56.1159034,36.0033404 L56,36 C56.0687777,36 56.1367445,36.0034717 56.2037348,36.0102494 C56.2233869,36.0123444 56.2427334,36.0146009 56.2620499,36.0171395 C56.2957697,36.0214211 56.3295048,36.0267203 56.3629491,36.0328514 C56.3817408,36.0364722 56.4003782,36.0401695 56.4189701,36.0441339 C56.4568791,36.052029 56.494664,36.0612532 56.5320114,36.0715333 C56.5425089,36.0745823 56.5531108,36.0775906 56.5636922,36.080688 C56.6667291,36.1107528 56.7662237,36.1489952 56.8615457,36.1945642 C56.8665626,36.196869 56.8716094,36.1993033 56.8766481,36.2017601 C56.9180342,36.2220814 56.9584755,36.2436044 56.9980613,36.2664444 C57.0100748,36.273182 57.0221283,36.2803003 57.034122,36.287556 C57.0669599,36.3076303 57.0992641,36.3284789 57.1309115,36.3502145 C57.1444245,36.3592964 57.1577649,36.3687059 57.1710143,36.3782978 C57.2014084,36.4004748 57.2311215,36.4232665 57.2601601,36.4468563 C57.2724609,36.4567443 57.2843699,36.4666643 57.2961894,36.4767442 C57.3772793,36.545851 57.4532667,36.6217902 57.5228114,36.7033883 L57.4142136,36.5857864 C57.4632975,36.6348704 57.5092969,36.6858709 57.5522116,36.7385471 C57.5759549,36.7678829 57.5987763,36.7975961 57.6207657,36.8279514 C57.6305758,36.8412259 57.6400064,36.8545788 57.6492542,36.8680197 C57.6708577,36.899729 57.6917379,36.9320399 57.7116945,36.9649728 C57.7191013,36.9768671 57.7262341,36.988929 57.7332293,37.0010485 C57.8356277,37.1786099 57.9117403,37.3735448 57.955894,37.5803189 C57.9596265,37.5986196 57.9633342,37.6172597 57.9667747,37.6359393 C57.9731139,37.669496 57.9784309,37.7032325 57.9828935,37.737238 C57.985277,37.7562645 57.9875436,37.7756121 57.9895281,37.7949832 C57.9927812,37.826067 57.9952145,37.8570803 57.9969325,37.8882843 C57.9980409,37.9088292 57.9988741,37.9295658 57.9993864,37.9503088 L58,38 L58,52 C58,53.1045695 57.1045695,54 56,54 C54.8954305,54 54,53.1045695 54,52 L54,42.828 L37.4142136,59.4142136 C36.633165,60.1952621 35.366835,60.1952621 34.5857864,59.4142136 C33.8047379,58.633165 33.8047379,57.366835 34.5857864,56.5857864 L51.17,40 L44,40 C42.8954305,40 42,39.1045695 42,38 C42,36.8954305 42.8954305,36 44,36 L56,36 Z" id="Combined-Shape-Copy" fill="#000000" transform="translate(47, 47) scale(-1, 1) translate(-47, -47)"></path>
        <path d="M26,6 L26.0306194,6.00023294 C26.0590618,6.00066572 26.0874967,6.00170155 26.1159034,6.00334044 L26,6 C26.0687777,6 26.1367445,6.00347169 26.2037348,6.01024939 C26.2233869,6.01234436 26.2427334,6.01460094 26.2620499,6.01713953 C26.2957697,6.02142109 26.3295048,6.02672028 26.3629491,6.03285138 C26.3817408,6.03647223 26.4003782,6.04016953 26.4189701,6.04413391 C26.4568791,6.05202901 26.494664,6.06125324 26.5320114,6.07153333 C26.5425089,6.07458233 26.5531108,6.07759059 26.5636922,6.08068802 C26.6667291,6.11075277 26.7662237,6.14899516 26.8615457,6.19456424 C26.8665626,6.19686902 26.8716094,6.19930332 26.8766481,6.20176006 C26.9180342,6.22208137 26.9584755,6.2436044 26.9980613,6.26644438 C27.0100748,6.273182 27.0221283,6.28030034 27.034122,6.287556 C27.0669599,6.30763029 27.0992641,6.3284789 27.1309115,6.35021449 C27.1444245,6.35929641 27.1577649,6.36870589 27.1710143,6.37829776 C27.2014084,6.4004748 27.2311215,6.42326652 27.2601601,6.44685625 C27.2724609,6.4567443 27.2843699,6.46666433 27.2961894,6.4767442 C27.3772793,6.54585102 27.4532667,6.62179024 27.5228114,6.70338832 L27.4142136,6.58578644 C27.4632975,6.6348704 27.5092969,6.6858709 27.5522116,6.73854705 C27.5759549,6.76788292 27.5987763,6.79759615 27.6207657,6.82795139 C27.6305758,6.84122588 27.6400064,6.85457882 27.6492542,6.86801969 C27.6708577,6.89972901 27.6917379,6.93203989 27.7116945,6.96497279 C27.7191013,6.9768671 27.7262341,6.98892896 27.7332293,7.00104851 C27.8356277,7.17860988 27.9117403,7.37354481 27.955894,7.58031892 C27.9596265,7.5986196 27.9633342,7.61725968 27.9667747,7.63593929 C27.9731139,7.66949602 27.9784309,7.70323255 27.9828935,7.73723802 C27.985277,7.75626446 27.9875436,7.77561212 27.9895281,7.79498322 C27.9927812,7.82606701 27.9952145,7.85708033 27.9969325,7.88828428 C27.9980409,7.90882919 27.9988741,7.92956579 27.9993864,7.95030883 L28,8 L28,22 C28,23.1045695 27.1045695,24 26,24 C24.8954305,24 24,23.1045695 24,22 L24,12.828 L7.41421356,29.4142136 C6.63316498,30.1952621 5.36683502,30.1952621 4.58578644,29.4142136 C3.80473785,28.633165 3.80473785,27.366835 4.58578644,26.5857864 L21.17,10 L14,10 C12.8954305,10 12,9.1045695 12,8 C12,6.8954305 12.8954305,6 14,6 L26,6 Z" id="Combined-Shape-Copy-3" fill="#000000" transform="translate(17, 17) scale(1, -1) translate(-17, -17)"></path>
        <path d="M56,6 L56.0306194,6.00023294 C56.0590618,6.00066572 56.0874967,6.00170155 56.1159034,6.00334044 L56,6 C56.0687777,6 56.1367445,6.00347169 56.2037348,6.01024939 C56.2233869,6.01234436 56.2427334,6.01460094 56.2620499,6.01713953 C56.2957697,6.02142109 56.3295048,6.02672028 56.3629491,6.03285138 C56.3817408,6.03647223 56.4003782,6.04016953 56.4189701,6.04413391 C56.4568791,6.05202901 56.494664,6.06125324 56.5320114,6.07153333 C56.5425089,6.07458233 56.5531108,6.07759059 56.5636922,6.08068802 C56.6667291,6.11075277 56.7662237,6.14899516 56.8615457,6.19456424 C56.8665626,6.19686902 56.8716094,6.19930332 56.8766481,6.20176006 C56.9180342,6.22208137 56.9584755,6.2436044 56.9980613,6.26644438 C57.0100748,6.273182 57.0221283,6.28030034 57.034122,6.287556 C57.0669599,6.30763029 57.0992641,6.3284789 57.1309115,6.35021449 C57.1444245,6.35929641 57.1577649,6.36870589 57.1710143,6.37829776 C57.2014084,6.4004748 57.2311215,6.42326652 57.2601601,6.44685625 C57.2724609,6.4567443 57.2843699,6.46666433 57.2961894,6.4767442 C57.3772793,6.54585102 57.4532667,6.62179024 57.5228114,6.70338832 L57.4142136,6.58578644 C57.4632975,6.6348704 57.5092969,6.6858709 57.5522116,6.73854705 C57.5759549,6.76788292 57.5987763,6.79759615 57.6207657,6.82795139 C57.6305758,6.84122588 57.6400064,6.85457882 57.6492542,6.86801969 C57.6708577,6.89972901 57.6917379,6.93203989 57.7116945,6.96497279 C57.7191013,6.9768671 57.7262341,6.98892896 57.7332293,7.00104851 C57.8356277,7.17860988 57.9117403,7.37354481 57.955894,7.58031892 C57.9596265,7.5986196 57.9633342,7.61725968 57.9667747,7.63593929 C57.9731139,7.66949602 57.9784309,7.70323255 57.9828935,7.73723802 C57.985277,7.75626446 57.9875436,7.77561212 57.9895281,7.79498322 C57.9927812,7.82606701 57.9952145,7.85708033 57.9969325,7.88828428 C57.9980409,7.90882919 57.9988741,7.92956579 57.9993864,7.95030883 L58,8 L58,22 C58,23.1045695 57.1045695,24 56,24 C54.8954305,24 54,23.1045695 54,22 L54,12.828 L37.4142136,29.4142136 C36.633165,30.1952621 35.366835,30.1952621 34.5857864,29.4142136 C33.8047379,28.633165 33.8047379,27.366835 34.5857864,26.5857864 L51.17,10 L44,10 C42.8954305,10 42,9.1045695 42,8 C42,6.8954305 42.8954305,6 44,6 L56,6 Z" id="Combined-Shape-Copy-2" fill="#000000" transform="translate(47, 17) scale(-1, -1) translate(-47, -17)"></path>
    </g>
</svg>