<?xml version="1.0" encoding="UTF-8"?>
<svg width="64px" height="64px" viewBox="0 0 64 64" version="1.1" xmlns="http://www.w3.org/2000/svg" xmlns:xlink="http://www.w3.org/1999/xlink">
    <title>collapse</title>
    <g id="collapse" stroke="none" fill="none" fill-rule="nonzero">
        <path d="M28.8431495,34.185885 L28.8624938,34.194928 C28.8675589,34.1973482 28.8726159,34.1997909 28.8776647,34.2022561 C28.9186974,34.2224344 28.9588001,34.2437917 28.9980613,34.2664444 C29.0100748,34.273182 29.0221283,34.2803003 29.034122,34.287556 C29.0673111,34.3078428 29.0999531,34.3289237 29.1319239,34.3509103 C29.1450762,34.3597562 29.1580886,34.3689402 29.1710143,34.3782978 C29.2017551,34.4007256 29.2318001,34.4237873 29.2611548,34.4476649 C29.2731147,34.4572891 29.2846944,34.4669411 29.2961894,34.4767442 C29.3776046,34.5461279 29.4538721,34.6223954 29.5236423,34.7043639 L29.4142136,34.5857864 C29.4632975,34.6348704 29.5092969,34.6858709 29.5522116,34.7385471 C29.5762127,34.7681999 29.5992744,34.7982449 29.6214855,34.8289456 C29.6310598,34.8419114 29.6402438,34.8549238 29.6492542,34.8680197 C29.6710763,34.9000469 29.6921572,34.9326889 29.7122955,34.9659651 C29.7196997,34.9778717 29.726818,34.9899252 29.733799,35.0020362 C29.8360784,35.1796291 29.9120663,35.3745574 29.9561052,35.5813092 C29.9598305,35.5996218 29.9635278,35.6182592 29.966958,35.636936 C29.9732797,35.6704952 29.9785789,35.7042303 29.983024,35.7382341 C29.9853991,35.7572666 29.9876556,35.7766131 29.9896302,35.7959829 C29.992867,35.8270674 29.9952844,35.8580759 29.9969868,35.8892749 C29.9980677,35.9094981 29.9988824,35.9299004 29.9993864,35.9503088 C29.9997944,35.9665762 30,35.9832641 30,36 L30,50 C30,51.1045695 29.1045695,52 28,52 C26.8954305,52 26,51.1045695 26,50 L26,40.828 L7.41421356,59.4142136 C6.63316498,60.1952621 5.36683502,60.1952621 4.58578644,59.4142136 C3.80473785,58.633165 3.80473785,57.366835 4.58578644,56.5857864 L23.17,38 L16,38 C14.8954305,38 14,37.1045695 14,36 C14,34.8954305 14.8954305,34 16,34 L28,34 L28.0306194,34.0002329 C28.0593964,34.0006708 28.0881658,34.001726 28.116906,34.0033985 L28,34 C28.0687777,34 28.1367445,34.0034717 28.2037348,34.0102494 C28.2233869,34.0123444 28.2427334,34.0146009 28.2620499,34.0171395 C28.2957697,34.0214211 28.3295048,34.0267203 28.3629491,34.0328514 C28.3817408,34.0364722 28.4003782,34.0401695 28.4189701,34.0441339 C28.4568791,34.052029 28.494664,34.0612532 28.5320114,34.0715333 C28.5425089,34.0745823 28.5531108,34.0775906 28.5636922,34.080688 L28.5320114,34.0715333 C28.6396288,34.1011556 28.7436136,34.139545 28.8431495,34.185885 Z" id="Combined-Shape" fill="#000000"></path>
        <path d="M58.8431495,34.185885 L58.8624938,34.194928 C58.8675589,34.1973482 58.8726159,34.1997909 58.8776647,34.2022561 C58.9186974,34.2224344 58.9588001,34.2437917 58.9980613,34.2664444 C59.0100748,34.273182 59.0221283,34.2803003 59.034122,34.287556 C59.0673111,34.3078428 59.0999531,34.3289237 59.1319239,34.3509103 C59.1450762,34.3597562 59.1580886,34.3689402 59.1710143,34.3782978 C59.2017551,34.4007256 59.2318001,34.4237873 59.2611548,34.4476649 C59.2731147,34.4572891 59.2846944,34.4669411 59.2961894,34.4767442 C59.3776046,34.5461279 59.4538721,34.6223954 59.5236423,34.7043639 L59.4142136,34.5857864 C59.4632975,34.6348704 59.5092969,34.6858709 59.5522116,34.7385471 C59.5762127,34.7681999 59.5992744,34.7982449 59.6214855,34.8289456 C59.6310598,34.8419114 59.6402438,34.8549238 59.6492542,34.8680197 C59.6710763,34.9000469 59.6921572,34.9326889 59.7122955,34.9659651 C59.7196997,34.9778717 59.726818,34.9899252 59.733799,35.0020362 C59.8360784,35.1796291 59.9120663,35.3745574 59.9561052,35.5813092 C59.9598305,35.5996218 59.9635278,35.6182592 59.966958,35.636936 C59.9732797,35.6704952 59.9785789,35.7042303 59.983024,35.7382341 C59.9853991,35.7572666 59.9876556,35.7766131 59.9896302,35.7959829 C59.992867,35.8270674 59.9952844,35.8580759 59.9969868,35.8892749 C59.9980677,35.9094981 59.9988824,35.9299004 59.9993864,35.9503088 C59.9997944,35.9665762 60,35.9832641 60,36 L60,50 C60,51.1045695 59.1045695,52 58,52 C56.8954305,52 56,51.1045695 56,50 L56,40.828 L37.4142136,59.4142136 C36.633165,60.1952621 35.366835,60.1952621 34.5857864,59.4142136 C33.8047379,58.633165 33.8047379,57.366835 34.5857864,56.5857864 L53.17,38 L46,38 C44.8954305,38 44,37.1045695 44,36 C44,34.8954305 44.8954305,34 46,34 L58,34 L58.0306194,34.0002329 C58.0593964,34.0006708 58.0881658,34.001726 58.116906,34.0033985 L58,34 C58.0687777,34 58.1367445,34.0034717 58.2037348,34.0102494 C58.2233869,34.0123444 58.2427334,34.0146009 58.2620499,34.0171395 C58.2957697,34.0214211 58.3295048,34.0267203 58.3629491,34.0328514 C58.3817408,34.0364722 58.4003782,34.0401695 58.4189701,34.0441339 C58.4568791,34.052029 58.494664,34.0612532 58.5320114,34.0715333 C58.5425089,34.0745823 58.5531108,34.0775906 58.5636922,34.080688 L58.5320114,34.0715333 C58.6396288,34.1011556 58.7436136,34.139545 58.8431495,34.185885 Z" id="Combined-Shape-Copy" fill="#000000" transform="translate(47, 47) scale(-1, 1) translate(-47, -47)"></path>
        <path d="M28.8431495,4.18588504 L28.8624938,4.19492799 C28.8675589,4.19734816 28.8726159,4.19979086 28.8776647,4.20225609 C28.9186974,4.22243442 28.9588001,4.24379168 28.9980613,4.26644438 C29.0100748,4.273182 29.0221283,4.28030034 29.034122,4.287556 C29.0673111,4.30784281 29.0999531,4.32892372 29.1319239,4.35091025 C29.1450762,4.35975619 29.1580886,4.36894018 29.1710143,4.37829776 C29.2017551,4.40072562 29.2318001,4.42378727 29.2611548,4.44766487 C29.2731147,4.45728915 29.2846944,4.46694108 29.2961894,4.4767442 C29.3776046,4.54612788 29.4538721,4.62239544 29.5236423,4.70436387 L29.4142136,4.58578644 C29.4632975,4.6348704 29.5092969,4.6858709 29.5522116,4.73854705 C29.5762127,4.76819987 29.5992744,4.79824489 29.6214855,4.82894563 C29.6310598,4.84191145 29.6402438,4.85492384 29.6492542,4.86801969 C29.6710763,4.90004688 29.6921572,4.9326889 29.7122955,4.96596514 C29.7196997,4.97787174 29.726818,4.98992522 29.733799,5.00203622 C29.8360784,5.17962915 29.9120663,5.37455735 29.9561052,5.58130922 C29.9598305,5.59962176 29.9635278,5.61825915 29.966958,5.63693596 C29.9732797,5.6704952 29.9785789,5.70423034 29.983024,5.73823409 C29.9853991,5.75726661 29.9876556,5.77661312 29.9896302,5.79598293 C29.992867,5.82706735 29.9952844,5.85807594 29.9969868,5.88927488 C29.9980677,5.90949812 29.9988824,5.92990035 29.9993864,5.95030883 C29.9997944,5.96657621 30,5.9832641 30,6 L30,20 C30,21.1045695 29.1045695,22 28,22 C26.8954305,22 26,21.1045695 26,20 L26,10.828 L7.41421356,29.4142136 C6.63316498,30.1952621 5.36683502,30.1952621 4.58578644,29.4142136 C3.80473785,28.633165 3.80473785,27.366835 4.58578644,26.5857864 L23.17,8 L16,8 C14.8954305,8 14,7.1045695 14,6 C14,4.8954305 14.8954305,4 16,4 L28,4 L28.0306194,4.00023294 C28.0593964,4.00067081 28.0881658,4.00172601 28.116906,4.00339854 L28,4 C28.0687777,4 28.1367445,4.00347169 28.2037348,4.01024939 C28.2233869,4.01234436 28.2427334,4.01460094 28.2620499,4.01713953 C28.2957697,4.02142109 28.3295048,4.02672028 28.3629491,4.03285138 C28.3817408,4.03647223 28.4003782,4.04016953 28.4189701,4.04413391 C28.4568791,4.05202901 28.494664,4.06125324 28.5320114,4.07153333 C28.5425089,4.07458233 28.5531108,4.07759059 28.5636922,4.08068802 L28.5320114,4.07153333 C28.6396288,4.10115565 28.7436136,4.13954497 28.8431495,4.18588504 Z" id="Combined-Shape-Copy-3" fill="#000000" transform="translate(17, 17) scale(1, -1) translate(-17, -17)"></path>
        <path d="M58.8431495,4.18588504 L58.8624938,4.19492799 C58.8675589,4.19734816 58.8726159,4.19979086 58.8776647,4.20225609 C58.9186974,4.22243442 58.9588001,4.24379168 58.9980613,4.26644438 C59.0100748,4.273182 59.0221283,4.28030034 59.034122,4.287556 C59.0673111,4.30784281 59.0999531,4.32892372 59.1319239,4.35091025 C59.1450762,4.35975619 59.1580886,4.36894018 59.1710143,4.37829776 C59.2017551,4.40072562 59.2318001,4.42378727 59.2611548,4.44766487 C59.2731147,4.45728915 59.2846944,4.46694108 59.2961894,4.4767442 C59.3776046,4.54612788 59.4538721,4.62239544 59.5236423,4.70436387 L59.4142136,4.58578644 C59.4632975,4.6348704 59.5092969,4.6858709 59.5522116,4.73854705 C59.5762127,4.76819987 59.5992744,4.79824489 59.6214855,4.82894563 C59.6310598,4.84191145 59.6402438,4.85492384 59.6492542,4.86801969 C59.6710763,4.90004688 59.6921572,4.9326889 59.7122955,4.96596514 C59.7196997,4.97787174 59.726818,4.98992522 59.733799,5.00203622 C59.8360784,5.17962915 59.9120663,5.37455735 59.9561052,5.58130922 C59.9598305,5.59962176 59.9635278,5.61825915 59.966958,5.63693596 C59.9732797,5.6704952 59.9785789,5.70423034 59.983024,5.73823409 C59.9853991,5.75726661 59.9876556,5.77661312 59.9896302,5.79598293 C59.992867,5.82706735 59.9952844,5.85807594 59.9969868,5.88927488 C59.9980677,5.90949812 59.9988824,5.92990035 59.9993864,5.95030883 C59.9997944,5.96657621 60,5.9832641 60,6 L60,20 C60,21.1045695 59.1045695,22 58,22 C56.8954305,22 56,21.1045695 56,20 L56,10.828 L37.4142136,29.4142136 C36.633165,30.1952621 35.366835,30.1952621 34.5857864,29.4142136 C33.8047379,28.633165 33.8047379,27.366835 34.5857864,26.5857864 L53.17,8 L46,8 C44.8954305,8 44,7.1045695 44,6 C44,4.8954305 44.8954305,4 46,4 L58,4 L58.0306194,4.00023294 C58.0593964,4.00067081 58.0881658,4.00172601 58.116906,4.00339854 L58,4 C58.0687777,4 58.1367445,4.00347169 58.2037348,4.01024939 C58.2233869,4.01234436 58.2427334,4.01460094 58.2620499,4.01713953 C58.2957697,4.02142109 58.3295048,4.02672028 58.3629491,4.03285138 C58.3817408,4.03647223 58.4003782,4.04016953 58.4189701,4.04413391 C58.4568791,4.05202901 58.494664,4.06125324 58.5320114,4.07153333 C58.5425089,4.07458233 58.5531108,4.07759059 58.5636922,4.08068802 L58.5320114,4.07153333 C58.6396288,4.10115565 58.7436136,4.13954497 58.8431495,4.18588504 Z" id="Combined-Shape-Copy-2" fill="#000000" transform="translate(47, 17) scale(-1, -1) translate(-47, -17)"></path>
    </g>
</svg>