<?xml version="1.0" encoding="UTF-8"?>
<svg width="64px" height="64px" viewBox="0 0 64 64" version="1.1" xmlns="http://www.w3.org/2000/svg" xmlns:xlink="http://www.w3.org/1999/xlink">
    <title>color</title>
    <g id="color" stroke="none" stroke-width="1" fill="none" fill-rule="evenodd">
        <path d="M32,5 C41.9411255,5 50,13.0588745 50,23 C50,23.6165755 49.968999,24.2259103 49.9084707,24.8265307 C55.8845295,27.7530511 60,33.8959157 60,41 C60,50.9411255 51.9411255,59 42,59 C38.2996922,59 34.8601691,57.8834479 31.9999663,55.9688794 C29.1406331,57.8831875 25.7007393,59 22,59 C12.0588745,59 4,50.9411255 4,41 C4,33.8959157 8.11547046,27.7530511 14.0923342,24.8254832 C14.031001,24.2259103 14,23.6165755 14,23 C14,13.0588745 22.0588745,5 32,5 Z M14.9835357,28.8835756 L14.8500349,28.9609494 C10.7482652,31.4022339 8,35.8801711 8,41 C8,48.7319865 14.2680135,55 22,55 C24.4684889,55 26.7877626,54.3611335 28.8014965,53.239725 C25.8214843,50.0269475 24,45.726189 24,41 C24,40.3834245 24.031001,39.7740897 24.0915293,39.1734693 C19.8489216,37.0960223 16.5437664,33.3968195 14.9835357,28.8835756 Z M49.015952,28.8821925 L48.9806131,28.9862677 C47.4059747,33.4529164 44.1188499,37.1118083 39.9076658,39.1745168 C39.968999,39.7740897 40,40.3834245 40,41 C40,45.726189 38.1785157,50.0269475 35.199256,53.2385665 C37.2122374,54.3611335 39.5315111,55 42,55 C49.7319865,55 56,48.7319865 56,41 C56,35.8246109 53.191763,31.3051207 49.015952,28.8821925 Z M35.9930355,40.5541587 L35.8614226,40.5848342 C34.6175046,40.8567311 33.3254834,41 32,41 C30.6278396,41 29.2915397,40.846463 28.0073431,40.5556318 C28.002333,40.7022046 28,40.8508298 28,41 C28,44.8142524 29.5253398,48.2722427 31.9993039,50.7972551 C34.4746602,48.2722427 36,44.8142524 36,41 C36,40.8508298 35.997667,40.7022046 35.9930355,40.5541587 Z M32.0006961,31.2027449 L31.8972158,31.3080302 C30.4676229,32.7978342 29.3643681,34.6031972 28.702364,36.6092065 C29.7599938,36.864746 30.8642018,37 32,37 C33.1357982,37 34.2400062,36.864746 35.2973961,36.6094658 C34.6199584,34.5557031 33.4798885,32.7124594 32.0006961,31.2027449 Z M22,27 C20.8642018,27 19.7599938,27.135254 18.7026039,27.3905342 C19.7845096,30.6699186 22.0457143,33.4129 24.984048,35.1178075 C25.8081836,32.730984 27.1202884,30.5729517 28.800744,28.7614335 C26.7877626,27.6388665 24.4684889,27 22,27 Z M42,27 C39.5315111,27 37.2122374,27.6388665 35.1985035,28.760275 C36.8797116,30.5729517 38.1918164,32.730984 39.0164643,35.1164244 C41.9542857,33.4129 44.2154904,30.6699186 45.297636,27.3907935 C44.2400062,27.135254 43.1357982,27 42,27 Z M32,9 C24.2680135,9 18,15.2680135 18,23 C18,23.1491702 18.002333,23.2977954 18.0069645,23.4458413 C19.2915397,23.153537 20.6278396,23 22,23 C25.7007393,23 29.1406331,24.1168125 32.0010342,26.0317904 C34.8601691,24.1165521 38.2996922,23 42,23 C43.3721604,23 44.7084603,23.153537 45.9926569,23.4443682 C45.997667,23.2977954 46,23.1491702 46,23 C46,15.2680135 39.7319865,9 32,9 Z" id="Combined-Shape" fill="#000000" fill-rule="nonzero"></path>
    </g>
</svg>