<?xml version="1.0" encoding="UTF-8"?>
<svg width="64px" height="64px" viewBox="0 0 64 64" version="1.1" xmlns="http://www.w3.org/2000/svg" xmlns:xlink="http://www.w3.org/1999/xlink">
    <title>commissions</title>
    <g id="commissions" stroke="none" stroke-width="1" fill="none" fill-rule="evenodd">
        <path d="M59.4030942,14.1773359 L60.3730559,19.6782616 C60.4689591,20.2221559 60.1057906,20.7408143 59.5618963,20.8367176 C59.300709,20.8827719 59.0319243,20.8231838 58.8146717,20.6710619 L57.2879809,19.6028168 L54.9999809,22.5638168 L54.9999809,55.9998168 L58,56 C59.1045695,56 60,56.8954305 60,58 C60,59.1045695 59.1045695,60 58,60 L6,60 C4.8954305,60 4,59.1045695 4,58 C4,56.8954305 4.8954305,56 6,56 L8.99998086,55.9998168 L8.99998086,49.9988168 L7.33358972,51.4904826 C6.55374367,52.1882396 5.37790911,52.1619198 4.63005556,51.4572992 L4.50951737,51.3335897 C3.81176039,50.5537437 3.83808022,49.3779091 4.5427008,48.6300556 L4.66641028,48.5095174 L13.5018194,40.6050797 C14.8004556,41.3071888 16.1855747,41.8698019 17.6370941,42.2728364 L12.9999809,46.4198168 L12.9999809,55.9998168 L22.9999809,55.9998168 L23,43 C24.3701317,43 25.7080843,42.862225 27.0007595,42.5997733 L26.9999809,55.9998168 L36.9999809,55.9998168 L36.9999809,41.2358168 L33.9732189,39.723593 C34.9973623,39.0502363 35.955953,38.2853347 36.8373506,37.4405285 L37.1421356,37.1421356 C37.2103681,37.0739031 37.2781099,37.0051799 37.3453551,36.9359718 L38.423,37.475 L54.0079809,17.3058168 L52.3437843,16.1400977 C51.8913791,15.8233202 51.7814311,15.1997744 52.0982086,14.7473692 C52.2503306,14.5301166 52.4825253,14.3821923 52.7437125,14.3361379 L58.2446383,13.3661763 C58.7885326,13.270273 59.307191,13.6334415 59.4030942,14.1773359 Z M50.9999809,27.7408168 L40.9999809,40.6818168 L40.9999809,55.9998168 L50.9999809,55.9998168 L50.9999809,27.7408168 Z" id="sales" fill="#000000"></path>
        <path d="M23,4 C33.4934102,4 42,12.5065898 42,23 C42,33.4934102 33.4934102,42 23,42 C12.5065898,42 4,33.4934102 4,23 C4,12.5065898 12.5065898,4 23,4 Z M23,8 C14.7157288,8 8,14.7157288 8,23 C8,31.2842712 14.7157288,38 23,38 C31.2842712,38 38,31.2842712 38,23 C38,14.7157288 31.2842712,8 23,8 Z" id="Oval" fill="#000000"></path>
        <circle id="Oval" fill="#000000" cx="17" cy="17" r="3"></circle>
        <circle id="Oval-Copy" fill="#000000" cx="29" cy="29" r="3"></circle>
        <path d="M28.5857864,14.5857864 C29.366835,13.8047379 30.633165,13.8047379 31.4142136,14.5857864 C32.1541543,15.3257272 32.1930986,16.5012114 31.5310463,17.2869988 L31.4142136,17.4142136 L17.4142136,31.4142136 C16.633165,32.1952621 15.366835,32.1952621 14.5857864,31.4142136 C13.8458457,30.6742728 13.8069014,29.4987886 14.4689537,28.7130012 L14.5857864,28.5857864 L28.5857864,14.5857864 Z" id="Path-260" fill="#000000"></path>
    </g>
</svg>