<?xml version="1.0" encoding="UTF-8"?>
<svg width="64px" height="64px" viewBox="0 0 64 64" version="1.1" xmlns="http://www.w3.org/2000/svg" xmlns:xlink="http://www.w3.org/1999/xlink">
    <title>commission_origin</title>
    <g id="commission_origin" stroke="none" stroke-width="1" fill="none" fill-rule="evenodd">
        <path d="M59.4030942,8.17733585 L60.3730559,13.6782616 C60.4689591,14.2221559 60.1057906,14.7408143 59.5618963,14.8367176 C59.300709,14.8827719 59.0319243,14.8231838 58.8146717,14.6710619 L57.2879809,13.6028168 L54.9999809,16.5638168 L54.9999809,55.9998168 L58,56 C59.1045695,56 60,56.8954305 60,58 C60,59.1045695 59.1045695,60 58,60 L6,60 C4.8954305,60 4,59.1045695 4,58 C4,56.8954305 4.8954305,56 6,56 L8.99998086,55.9998168 L8.99998086,43.9988168 L7.33358972,45.4904826 C6.55374367,46.1882396 5.37790911,46.1619198 4.63005556,45.4572992 L4.50951737,45.3335897 C3.81176039,44.5537437 3.83808022,43.3779091 4.5427008,42.6300556 L4.66641028,42.5095174 L23.6664103,25.5095174 C24.2368974,24.9990816 25.0442817,24.8620224 25.7458383,25.1442369 L25.8944272,25.2111456 L38.423,31.475 L54.0079809,11.3058168 L52.3437843,10.1400977 C51.8913791,9.82332019 51.7814311,9.19977441 52.0982086,8.74736923 C52.2503306,8.5301166 52.4825253,8.38219227 52.7437125,8.33613791 L58.2446383,7.36617628 C58.7885326,7.27027304 59.307191,7.63344155 59.4030942,8.17733585 Z M22.9999809,31.4728168 L12.9999809,40.4198168 L12.9999809,55.9998168 L22.9999809,55.9998168 L22.9999809,31.4728168 Z M26.9999809,30.2358168 L26.9999809,55.9998168 L36.9999809,55.9998168 L36.9999809,35.2358168 L26.9999809,30.2358168 Z M50.9999809,21.7408168 L40.9999809,34.6818168 L40.9999809,55.9998168 L50.9999809,55.9998168 L50.9999809,21.7408168 Z" id="sales" fill="#000000"></path>
        <path d="M34.0151155,4.87869907 C34.4902414,4.59714299 35.1036533,4.75406232 35.3852094,5.22918821 L41.6462967,15.794773 C41.7093191,15.9011233 41.7520759,16.0182372 41.7723991,16.1401764 C41.8631941,16.6849467 41.4951745,17.2001742 40.9504041,17.2909693 L29.2108655,19.2475591 C29.0196344,19.2794309 28.8232621,19.2550288 28.6456477,19.1773225 C28.139668,18.9559563 27.9089431,18.366326 28.1303092,17.8603463 L29.7453707,14.1686076 C22.8757642,11.1254847 14.8284769,12.4671963 10.7906819,17.850923 C9.79656934,19.1764064 7.91616528,19.4450356 6.59068189,18.450923 C5.26519849,17.4568105 4.99656934,15.5764064 5.99068189,14.250923 C11.8277188,6.46820709 22.8786725,4.58111725 32.1498869,8.67279955 L33.6087605,5.33817177 C33.6927359,5.14622814 33.8348763,4.9855075 34.0151155,4.87869907 Z" id="Combined-Shape" fill="#000000" transform="translate(23.588333, 12.000000) rotate(23.000000) translate(-23.588333, -12.000000) "></path>
    </g>
</svg>