<?xml version="1.0" encoding="UTF-8"?>
<svg width="64px" height="64px" viewBox="0 0 64 64" version="1.1" xmlns="http://www.w3.org/2000/svg" xmlns:xlink="http://www.w3.org/1999/xlink">
    <title>comment</title>
    <g id="comment" stroke="none" stroke-width="1" fill="none" fill-rule="evenodd">
        <path d="M51,8 C56.6375644,8 60,12.1545653 60,17 L60,17 L60,60 L47,48 L13,48 C7.5,48 4.1650394,44.4397052 4,39 L4,39 L4,17 C4,12.1541188 7.5,8 13,8 L13,8 Z M51,12 L13,12 C10.1681522,12 8,14.067987 8,17 L8,17 L8,39 C8,41.9586524 10.1705968,44.0279106 13,44 L13,44 L49,44 L56,51 L56,17 C56,14.1459541 53.9600919,12.1258165 51,12 L51,12 Z" id="Rectangle-204-Copy" fill="#000000" fill-rule="nonzero" transform="translate(32.000000, 34.000000) scale(-1, 1) translate(-32.000000, -34.000000) "></path>
        <g id="Group" transform="translate(32.000000, 28.000000) scale(1, -1) translate(-32.000000, -28.000000) translate(22.000000, 21.000000)" fill="#000000">
            <path d="M5.41421356,0.585786438 C6.15415433,1.3257272 6.19309858,2.50121136 5.53104631,3.28699879 L5.41421356,3.41421356 C4.94458964,3.88383748 4.56716354,4.75165125 4.32073134,6.01234362 C6.38005586,6.17620273 8,7.89892225 8,10 C8,12.209139 6.209139,14 4,14 C1.790861,14 0,12.209139 0,10 L0,10 C0,5.5168963 0.781774475,2.3897984 2.58578644,0.585786438 C3.36683502,-0.195262146 4.63316498,-0.195262146 5.41421356,0.585786438 Z" id="Combined-Shape"></path>
            <path d="M17.4142136,0.585786438 C18.1541543,1.3257272 18.1930986,2.50121136 17.5310463,3.28699879 L17.4142136,3.41421356 C16.9445896,3.88383748 16.5671635,4.75165125 16.3207313,6.01234362 C18.3800559,6.17620273 20,7.89892225 20,10 C20,12.209139 18.209139,14 16,14 C13.790861,14 12,12.209139 12,10 L12,10 C12,5.5168963 12.7817745,2.3897984 14.5857864,0.585786438 C15.366835,-0.195262146 16.633165,-0.195262146 17.4142136,0.585786438 Z" id="Combined-Shape-Copy"></path>
        </g>
    </g>
</svg>