<svg xmlns="http://www.w3.org/2000/svg" width="32" height="32" viewBox="0 0 32 32">
  <g fill="none" fill-rule="evenodd">
    <path fill="#000" fill-rule="nonzero" d="M23,2 L3,2 C2.44771525,2 2,2.44771525 2,3 L2,17 L2.00598327,17.1136309 C2.09281919,17.9276677 3.1045317,18.3096819 3.70710678,17.7071068 L8.414,13 L23,13 C23.5522847,13 24,12.5522847 24,12 L24,3 C24,2.44771525 23.5522847,2 23,2 Z M22,4 L22,11 L8,11 L7.86855602,11.0086724 C7.65185492,11.0374017 7.44917353,11.1366129 7.29289322,11.2928932 L4,14.584 L4,4 L22,4 Z"/>
    <path fill="#000" fill-rule="nonzero" d="M29,14 L9,14 C8.44771525,14 8,14.4477153 8,15 L8,29 L8.00598327,29.1136309 C8.09281919,29.9276677 9.1045317,30.3096819 9.70710678,29.7071068 L14.414,25 L29,25 C29.5522847,25 30,24.5522847 30,24 L30,15 C30,14.4477153 29.5522847,14 29,14 Z M28,16 L28,23 L14,23 L13.868556,23.0086724 C13.6518549,23.0374017 13.4491735,23.1366129 13.2928932,23.2928932 L10,26.584 L10,16 L28,16 Z" transform="matrix(-1 0 0 1 38 0)"/>
  </g>
</svg>
