<?xml version="1.0" encoding="UTF-8"?>
<svg width="64px" height="64px" viewBox="0 0 64 64" version="1.1" xmlns="http://www.w3.org/2000/svg" xmlns:xlink="http://www.w3.org/1999/xlink">
    <title>comment_filled</title>
    <g id="comment_filled" stroke="none" stroke-width="1" fill="none" fill-rule="evenodd">
        <path d="M51,8 C56.5,8 60,12.1541188 60,17 L60,39 C59.8349606,44.4397052 56.5,48 51,48 L17,48 L4,60 L4,17 C4,12.1545653 7.36243564,8 13,8 L51,8 Z M26,21 C23.8578046,21 22.1089211,22.6839685 22.0048953,24.8003597 L22,25 C22,29.4831037 22.7817745,32.6102016 24.5857864,34.4142136 C25.366835,35.1952621 26.633165,35.1952621 27.4142136,34.4142136 C28.1541543,33.6742728 28.1930986,32.4987886 27.5310463,31.7130012 L27.4142136,31.5857864 C26.9445896,31.1161625 26.5671635,30.2483487 26.3207313,28.9876564 C28.3800559,28.8237973 30,27.1010777 30,25 C30,22.790861 28.209139,21 26,21 Z M38,21 C35.8578046,21 34.1089211,22.6839685 34.0048953,24.8003597 L34,25 C34,29.4831037 34.7817745,32.6102016 36.5857864,34.4142136 C37.366835,35.1952621 38.633165,35.1952621 39.4142136,34.4142136 C40.1541543,33.6742728 40.1930986,32.4987886 39.5310463,31.7130012 L39.4142136,31.5857864 C38.9445896,31.1161625 38.5671635,30.2483487 38.3207313,28.9876564 C40.3800559,28.8237973 42,27.1010777 42,25 C42,22.790861 40.209139,21 38,21 Z" id="Path-2" fill="#000000" fill-rule="nonzero"></path>
    </g>
</svg>