<?xml version="1.0" encoding="UTF-8"?>
<svg width="64px" height="64px" viewBox="0 0 64 64" version="1.1" xmlns="http://www.w3.org/2000/svg" xmlns:xlink="http://www.w3.org/1999/xlink">
    <title>compressed</title>
    <g id="compressed" stroke="none" stroke-width="1" fill="none" fill-rule="evenodd">
        <path d="M23.5857864,8 C24.3814359,8 25.1444976,8.31607052 25.7071068,8.87867966 L28.828,11.999 L57,12 C58.5976809,12 59.9036609,13.24892 59.9949073,14.8237272 L60,15 L60,53 C60,54.6568542 58.6568542,56 57,56 L7,56 C5.34314575,56 4,54.6568542 4,53 L4,16.3027756 C4,15.7105007 4.17531408,15.1314776 4.50384912,14.638675 L8.03903288,9.33589941 C8.59543021,8.50130341 9.53212419,8 10.5351838,8 L23.5857864,8 Z M11.07,11.999 L7.999,16.606 L8,52 L56,52 L56,16 L39.999,15.999 L39.999,22 L42,22 C43.1045695,22 44,22.8954305 44,24 C44,25.1045695 43.1045695,26 42,26 L39.999,26 L39.999,30 L42,30 C43.1045695,30 44,30.8954305 44,32 C44,33.1045695 43.1045695,34 42,34 L39.999,34 L39.999,38 L42,38 C43.1045695,38 44,38.8954305 44,40 C44,41.1045695 43.1045695,42 42,42 L39.999,42 L40,44 C41.1045695,44 42,44.8954305 42,46 L42,48 C42,49.1045695 41.1045695,50 40,50 L36,50 C34.8954305,50 34,49.1045695 34,48 L34,46 C34,44.8954305 34.8954305,44 36,44 L35.999,38 L34,38 C32.8954305,38 32,37.1045695 32,36 C32,34.8954305 32.8954305,34 34,34 L35.999,34 L35.999,30 L34,30 C32.8954305,30 32,29.1045695 32,28 C32,26.8954305 32.8954305,26 34,26 L35.999,26 L35.999,22 L34,22 C32.8954305,22 32,21.1045695 32,20 C32,18.8954305 32.8954305,18 34,18 L35.999,18 L35.999,15.999 L28.4142136,16 C27.6848682,16 26.9829056,15.734413 26.4376245,15.2567962 L26.2928932,15.1213203 L23.171,12 L11.07,11.999 Z" id="Path-303" fill="#000000" fill-rule="nonzero"></path>
    </g>
</svg>