<?xml version="1.0" encoding="UTF-8"?>
<svg width="64px" height="64px" viewBox="0 0 64 64" version="1.1" xmlns="http://www.w3.org/2000/svg" xmlns:xlink="http://www.w3.org/1999/xlink">
    <title>compact</title>
    <g id="compact" stroke="none" stroke-width="1" fill="none" fill-rule="evenodd">
        <path d="M35.5615377,34.0482115 L35.5810299,34.0441339 C35.5996218,34.0401695 35.6182592,34.0364722 35.636936,34.033042 C35.6704952,34.0267203 35.7042303,34.0214211 35.7382341,34.016976 C35.7572666,34.0146009 35.7766131,34.0123444 35.7959829,34.0103698 C35.8251112,34.0073309 35.8541383,34.0050254 35.8833332,34.0033461 C35.9121684,34.0017066 35.9412727,34.0006464 35.9703845,34.0002179 C35.9799342,34.000074 35.9899585,34 36,34 L48,34 C49.1045695,34 50,34.8954305 50,36 C50,37.1045695 49.1045695,38 48,38 L40.829,38 L59.4142136,56.5857864 C60.1952621,57.366835 60.1952621,58.633165 59.4142136,59.4142136 C58.633165,60.1952621 57.366835,60.1952621 56.5857864,59.4142136 L38,40.829 L38,48 C38,49.0543618 37.1841222,49.9181651 36.1492623,49.9945143 L36,50 C34.8954305,50 34,49.1045695 34,48 L34,36 L34.0002179,35.9703845 C34.0006464,35.9412727 34.0017066,35.9121684 34.0033985,35.883094 L34,36 C34,35.9312223 34.0034717,35.8632555 34.0102494,35.7962652 C34.0123444,35.7766131 34.0146009,35.7572666 34.0171395,35.7379501 C34.0214211,35.7042303 34.0267203,35.6704952 34.0328514,35.6370509 C34.0364722,35.6182592 34.0401695,35.5996218 34.0441339,35.5810299 C34.0879337,35.3745574 34.1639216,35.1796291 34.2664444,35.0019387 C34.273182,34.9899252 34.2803003,34.9778717 34.287556,34.965878 C34.3078428,34.9326889 34.3289237,34.9000469 34.3509103,34.8680761 C34.3597562,34.8549238 34.3689402,34.8419114 34.3782978,34.8289857 C34.4007256,34.7982449 34.4237873,34.7681999 34.4476649,34.7388452 C34.4572891,34.7268853 34.4669411,34.7153056 34.4767442,34.7038106 C34.5461279,34.6223954 34.6223954,34.5461279 34.7043639,34.4763577 L34.5857864,34.5857864 C34.6348704,34.5367025 34.6858709,34.4907031 34.7385471,34.4477884 C34.7681999,34.4237873 34.7982449,34.4007256 34.8289456,34.3785145 C34.8419114,34.3689402 34.8549238,34.3597562 34.8680197,34.3507458 C34.9000469,34.3289237 34.9326889,34.3078428 34.9659651,34.2877045 C34.9778717,34.2803003 34.9899252,34.273182 35.0020362,34.266201 C35.0411999,34.2437917 35.0813026,34.2224344 35.1221885,34.202431 C35.1273841,34.1997909 35.1324411,34.1973482 35.1375062,34.194928 C35.2330671,34.1492678 35.332904,34.1108604 35.4362091,34.0805661 C35.4468892,34.0775906 35.4574911,34.0745823 35.4681124,34.0716633 L35.4362091,34.0805661 C35.4774482,34.0684727 35.5192401,34.0576722 35.5615377,34.0482115 Z" id="Combined-Shape" fill="#000000" fill-rule="nonzero"></path>
        <path d="M35.5615377,4.04821148 L35.5810299,4.04413391 C35.5996218,4.04016953 35.6182592,4.03647223 35.636936,4.03304202 C35.6704952,4.02672028 35.7042303,4.02142109 35.7382341,4.01697605 C35.7572666,4.01460094 35.7766131,4.01234436 35.7959829,4.01036977 C35.8251112,4.00733091 35.8541383,4.00502542 35.8833332,4.00334615 C35.9121684,4.00170656 35.9412727,4.00064635 35.9703845,4.00021791 C35.9799342,4.000074 35.9899585,4 36,4 L48,4 C49.1045695,4 50,4.8954305 50,6 C50,7.1045695 49.1045695,8 48,8 L40.829,8 L59.4142136,26.5857864 C60.1952621,27.366835 60.1952621,28.633165 59.4142136,29.4142136 C58.633165,30.1952621 57.366835,30.1952621 56.5857864,29.4142136 L38,10.829 L38,18 C38,19.0543618 37.1841222,19.9181651 36.1492623,19.9945143 L36,20 C34.8954305,20 34,19.1045695 34,18 L34,6 L34.0002179,5.97038449 C34.0006464,5.94127265 34.0017066,5.91216839 34.0033985,5.88309402 L34,6 C34,5.93122232 34.0034717,5.8632555 34.0102494,5.79626522 C34.0123444,5.77661312 34.0146009,5.75726661 34.0171395,5.73795007 C34.0214211,5.70423034 34.0267203,5.6704952 34.0328514,5.63705092 C34.0364722,5.61825915 34.0401695,5.59962176 34.0441339,5.58102991 C34.0879337,5.37455735 34.1639216,5.17962915 34.2664444,5.00193866 C34.273182,4.98992522 34.2803003,4.97787174 34.287556,4.96587802 C34.3078428,4.9326889 34.3289237,4.90004688 34.3509103,4.86807609 C34.3597562,4.85492384 34.3689402,4.84191145 34.3782978,4.82898574 C34.4007256,4.79824489 34.4237873,4.76819987 34.4476649,4.73884516 C34.4572891,4.72688525 34.4669411,4.71530558 34.4767442,4.70381065 C34.5461279,4.62239544 34.6223954,4.54612788 34.7043639,4.47635766 L34.5857864,4.58578644 C34.6348704,4.53670247 34.6858709,4.49070313 34.7385471,4.44778839 C34.7681999,4.42378727 34.7982449,4.40072562 34.8289456,4.3785145 C34.8419114,4.36894018 34.8549238,4.35975619 34.8680197,4.35074581 C34.9000469,4.32892372 34.9326889,4.30784281 34.9659651,4.28770454 C34.9778717,4.28030034 34.9899252,4.273182 35.0020362,4.26620096 C35.0411999,4.24379168 35.0813026,4.22243442 35.1221885,4.20243099 C35.1273841,4.19979086 35.1324411,4.19734816 35.1375062,4.19492799 C35.2330671,4.14926784 35.332904,4.11086035 35.4362091,4.08056608 C35.4468892,4.07759059 35.4574911,4.07458233 35.4681124,4.07166326 L35.4362091,4.08056608 C35.4774482,4.06847268 35.5192401,4.05767219 35.5615377,4.04821148 Z" id="Combined-Shape-Copy-3" fill="#000000" fill-rule="nonzero" transform="translate(47, 17) scale(1, -1) translate(-47, -17)"></path>
        <path d="M5.56153772,34.0482115 L5.58102991,34.0441339 C5.59962176,34.0401695 5.61825915,34.0364722 5.63693596,34.033042 C5.6704952,34.0267203 5.70423034,34.0214211 5.73823409,34.016976 C5.75726661,34.0146009 5.77661312,34.0123444 5.79598293,34.0103698 C5.82511123,34.0073309 5.85413832,34.0050254 5.88333324,34.0033461 C5.91216839,34.0017066 5.94127265,34.0006464 5.97038449,34.0002179 C5.9799342,34.000074 5.98995846,34 6,34 L18,34 C19.1045695,34 20,34.8954305 20,36 C20,37.1045695 19.1045695,38 18,38 L10.829,38 L29.4142136,56.5857864 C30.1952621,57.366835 30.1952621,58.633165 29.4142136,59.4142136 C28.633165,60.1952621 27.366835,60.1952621 26.5857864,59.4142136 L8,40.829 L8,48 C8,49.0543618 7.18412221,49.9181651 6.14926234,49.9945143 L6,50 C4.8954305,50 4,49.1045695 4,48 L4,36 L4.00021791,35.9703845 C4.00064635,35.9412727 4.00170656,35.9121684 4.00339854,35.883094 L4,36 C4,35.9312223 4.00347169,35.8632555 4.01024939,35.7962652 C4.01234436,35.7766131 4.01460094,35.7572666 4.01713953,35.7379501 C4.02142109,35.7042303 4.02672028,35.6704952 4.03285138,35.6370509 C4.03647223,35.6182592 4.04016953,35.5996218 4.04413391,35.5810299 C4.08793369,35.3745574 4.16392158,35.1796291 4.26644438,35.0019387 C4.273182,34.9899252 4.28030034,34.9778717 4.287556,34.965878 C4.30784281,34.9326889 4.32892372,34.9000469 4.35091025,34.8680761 C4.35975619,34.8549238 4.36894018,34.8419114 4.37829776,34.8289857 C4.40072562,34.7982449 4.42378727,34.7681999 4.44766487,34.7388452 C4.45728915,34.7268853 4.46694108,34.7153056 4.4767442,34.7038106 C4.54612788,34.6223954 4.62239544,34.5461279 4.70436387,34.4763577 L4.58578644,34.5857864 C4.6348704,34.5367025 4.6858709,34.4907031 4.73854705,34.4477884 C4.76819987,34.4237873 4.79824489,34.4007256 4.82894563,34.3785145 C4.84191145,34.3689402 4.85492384,34.3597562 4.86801969,34.3507458 C4.90004688,34.3289237 4.9326889,34.3078428 4.96596514,34.2877045 C4.97787174,34.2803003 4.98992522,34.273182 5.00203622,34.266201 C5.04119988,34.2437917 5.08130264,34.2224344 5.12218855,34.202431 C5.12738409,34.1997909 5.1324411,34.1973482 5.13750618,34.194928 C5.23306711,34.1492678 5.33290399,34.1108604 5.43620906,34.0805661 C5.4468892,34.0775906 5.45749111,34.0745823 5.46811241,34.0716633 L5.43620906,34.0805661 C5.47744822,34.0684727 5.51924006,34.0576722 5.56153772,34.0482115 Z" id="Combined-Shape-Copy" fill="#000000" fill-rule="nonzero" transform="translate(17, 47) scale(-1, 1) translate(-17, -47)"></path>
        <path d="M5.56153772,4.04821148 L5.58102991,4.04413391 C5.59962176,4.04016953 5.61825915,4.03647223 5.63693596,4.03304202 C5.6704952,4.02672028 5.70423034,4.02142109 5.73823409,4.01697605 C5.75726661,4.01460094 5.77661312,4.01234436 5.79598293,4.01036977 C5.82511123,4.00733091 5.85413832,4.00502542 5.88333324,4.00334615 C5.91216839,4.00170656 5.94127265,4.00064635 5.97038449,4.00021791 C5.9799342,4.000074 5.98995846,4 6,4 L18,4 C19.1045695,4 20,4.8954305 20,6 C20,7.1045695 19.1045695,8 18,8 L10.829,8 L29.4142136,26.5857864 C30.1952621,27.366835 30.1952621,28.633165 29.4142136,29.4142136 C28.633165,30.1952621 27.366835,30.1952621 26.5857864,29.4142136 L8,10.829 L8,18 C8,19.0543618 7.18412221,19.9181651 6.14926234,19.9945143 L6,20 C4.8954305,20 4,19.1045695 4,18 L4,6 L4.00021791,5.97038449 C4.00064635,5.94127265 4.00170656,5.91216839 4.00339854,5.88309402 L4,6 C4,5.93122232 4.00347169,5.8632555 4.01024939,5.79626522 C4.01234436,5.77661312 4.01460094,5.75726661 4.01713953,5.73795007 C4.02142109,5.70423034 4.02672028,5.6704952 4.03285138,5.63705092 C4.03647223,5.61825915 4.04016953,5.59962176 4.04413391,5.58102991 C4.08793369,5.37455735 4.16392158,5.17962915 4.26644438,5.00193866 C4.273182,4.98992522 4.28030034,4.97787174 4.287556,4.96587802 C4.30784281,4.9326889 4.32892372,4.90004688 4.35091025,4.86807609 C4.35975619,4.85492384 4.36894018,4.84191145 4.37829776,4.82898574 C4.40072562,4.79824489 4.42378727,4.76819987 4.44766487,4.73884516 C4.45728915,4.72688525 4.46694108,4.71530558 4.4767442,4.70381065 C4.54612788,4.62239544 4.62239544,4.54612788 4.70436387,4.47635766 L4.58578644,4.58578644 C4.6348704,4.53670247 4.6858709,4.49070313 4.73854705,4.44778839 C4.76819987,4.42378727 4.79824489,4.40072562 4.82894563,4.3785145 C4.84191145,4.36894018 4.85492384,4.35975619 4.86801969,4.35074581 C4.90004688,4.32892372 4.9326889,4.30784281 4.96596514,4.28770454 C4.97787174,4.28030034 4.98992522,4.273182 5.00203622,4.26620096 C5.04119988,4.24379168 5.08130264,4.22243442 5.12218855,4.20243099 C5.12738409,4.19979086 5.1324411,4.19734816 5.13750618,4.19492799 C5.23306711,4.14926784 5.33290399,4.11086035 5.43620906,4.08056608 C5.4468892,4.07759059 5.45749111,4.07458233 5.46811241,4.07166326 L5.43620906,4.08056608 C5.47744822,4.06847268 5.51924006,4.05767219 5.56153772,4.04821148 Z" id="Combined-Shape-Copy-2" fill="#000000" fill-rule="nonzero" transform="translate(17, 17) scale(-1, -1) translate(-17, -17)"></path>
    </g>
</svg>