<?xml version="1.0" encoding="UTF-8"?>
<svg width="64px" height="64px" viewBox="0 0 64 64" version="1.1" xmlns="http://www.w3.org/2000/svg" xmlns:xlink="http://www.w3.org/1999/xlink">
    <title>complete</title>
    <g id="complete" stroke="none" stroke-width="1" fill="none" fill-rule="evenodd">
        <path d="M32,4 C47.463973,4 60,16.536027 60,32 C60,47.463973 47.463973,60 32,60 C16.536027,60 4,47.463973 4,32 C4,16.536027 16.536027,4 32,4 Z M32,8 C18.745166,8 8,18.745166 8,32 C8,45.254834 18.745166,56 32,56 C45.254834,56 56,45.254834 56,32 C56,18.745166 45.254834,8 32,8 Z" id="Oval-2" fill="#000000" fill-rule="nonzero"></path>
        <path d="M43.3358994,17.8905996 C43.9486043,16.9715422 45.190343,16.7231945 46.1094004,17.3358994 C46.9825049,17.9179691 47.250294,19.0677417 46.7495722,19.9692406 L46.6641006,20.1094004 L29.3307673,46.1094004 C28.6341871,47.1542706 27.1710898,47.2973761 26.2841571,46.4454932 L26.171848,46.3287277 L17.5051814,36.5787277 C16.7713453,35.7531621 16.8457068,34.4890174 17.6712723,33.7551814 C18.453387,33.0599683 19.6291296,33.090118 20.3746841,33.7971709 L20.4948186,33.9212723 L27.439,41.734 L43.3358994,17.8905996 Z" id="Path-142" fill="#000000"></path>
    </g>
</svg>