<?xml version="1.0" encoding="UTF-8"?>
<svg width="64px" height="64px" viewBox="0 0 64 64" version="1.1" xmlns="http://www.w3.org/2000/svg" xmlns:xlink="http://www.w3.org/1999/xlink">
    <title>compass</title>
    <g id="compass" stroke="none" stroke-width="1" fill="none" fill-rule="evenodd">
        <path d="M32,4 C47.463973,4 60,16.536027 60,32 C60,47.463973 47.463973,60 32,60 C16.536027,60 4,47.463973 4,32 C4,16.536027 16.536027,4 32,4 Z M32,8 C18.745166,8 8,18.745166 8,32 C8,45.254834 18.745166,56 32,56 C45.254834,56 56,45.254834 56,32 C56,18.745166 45.254834,8 32,8 Z" id="Oval" fill="#000000" fill-rule="nonzero"></path>
        <path d="M46.2035233,16.4159397 L28.1874803,27.8806943 C28.0639995,27.959273 27.959273,28.0639995 27.8806943,28.1874803 L16.4159397,46.2035233 C16.1194316,46.6694647 16.2567843,47.2875521 16.7227257,47.5840603 C17.0502921,47.7925116 17.4689103,47.7925116 17.7964767,47.5840603 L35.8125197,36.1193057 C35.9360005,36.040727 36.040727,35.9360005 36.1193057,35.8125197 L47.5840603,17.7964767 C47.8805684,17.3305353 47.7432157,16.7124479 47.2772743,16.4159397 C46.9497079,16.2074884 46.5310897,16.2074884 46.2035233,16.4159397 Z" id="Path-132" fill="#000000"></path>
    </g>
</svg>