<?xml version="1.0" encoding="UTF-8"?>
<svg width="64px" height="64px" viewBox="0 0 64 64" version="1.1" xmlns="http://www.w3.org/2000/svg" xmlns:xlink="http://www.w3.org/1999/xlink">
    <title>company_setup</title>
    <g id="company_setup" stroke="none" stroke-width="1" fill="none" fill-rule="evenodd">
        <path d="M30,8 C30.3325815,8 30.6556829,8.04058935 30.9646207,8.11708461 C30.9725304,8.3814149 30.9519297,8.64614656 30.9036647,8.9067423 C30.7703178,9.62671646 30.4249462,10.3149449 29.8680184,10.8719462 C29.1353742,11.6045885 28.1753606,11.9706459 27.2152057,11.9706459 C26.6935012,11.9706459 26.1718965,11.8628201 25.6864753,11.6469426 C25.4265509,11.5313485 25.1826836,11.3873011 24.9585579,11.2189374 C24.7747939,11.4875843 24.5978878,11.7606082 24.4279207,12.0374508 L24.45,12 L8,12 L8,52 L14,52 L14,48 L24,48 L24,52 L30,52 L30.0021548,34.2785504 C30.4798647,34.8076869 30.7802545,35.4400021 30.902912,36.0990848 C31.0407907,36.8399568 30.9550003,37.6144662 30.645073,38.3138865 C30.5300231,38.5735224 30.3865604,38.8172289 30.2188209,39.0412879 C30.4869858,39.2246988 30.7595732,39.4013675 31.0359841,39.571132 C31.9755923,40.1482152 32.9663773,40.649814 34.0000027,41.0676445 L34,52 L40,52 L40,48 L50,48 L50,52 L56,52 L56,36 L52.1169336,36.0005556 C52.2630416,35.3176975 52.6015971,34.6679402 53.1321992,34.1373752 C53.8648257,33.4045224 54.8247823,33.0385077 55.7847943,33.0385077 C56.3050997,33.0385077 56.8253092,33.1457047 57.3096396,33.3605054 C57.5692755,33.475654 57.8129126,33.6192024 58.0368971,33.7870225 C58.2203948,33.5189027 58.3971594,33.2463558 58.5670168,32.9699814 C58.5792313,32.9501073 58.591412,32.9302103 58.6035588,32.9102904 C59.4810398,33.6422396 60,34.754659 60,36 L60,56 L4,56 L4,12 C4,9.790861 5.790861,8 8,8 L30,8 Z M17,40 L17,44 L11,44 L11,40 L17,40 Z M27,40 L27,44 L21,44 L21,40 L27,40 Z M43,40 L43,44 L37,44 L37.0004468,42.0121761 C37.261234,42.072091 37.5225211,42.126585 37.7841606,42.1757058 C37.8239838,41.8986686 37.8948328,41.6248608 37.9970417,41.3598898 C38.1972548,40.8408483 38.5094,40.3774916 38.9037751,39.9992954 L43,40 Z M53,40 L53,44 L47,44 L47.0013271,41.7544301 C48.4878858,41.3304871 49.9036485,40.7392511 51.2273248,40.0021047 L53,40 Z M17,32 L17,36 L11,36 L11,32 L17,32 Z M23.8742271,32.0010905 C24.0516587,32.3296808 24.2380163,32.6527518 24.4329832,32.9699814 C24.6027743,33.2462478 24.7794671,33.5186897 24.9629663,33.7870244 C25.1871511,33.6191953 25.4307937,33.4756187 25.6903468,33.3605114 C26.1745229,33.1457878 26.6949602,33.0386041 27.2151094,33.0386041 L27,33.045 L27,36 L21,36 L21,32 Z M17,24 L17,28 L11,28 L11,24 L17,24 Z M24.7398285,24.00043 C24.6440861,24.2204073 24.5278489,24.429406 24.3935009,24.6250193 C23.966547,25.2466721 23.3574602,25.7336534 22.6429928,26.0085786 C22.3775967,26.1107023 22.1033765,26.1813663 21.8259102,26.2208767 C21.8857536,26.5392171 21.9536447,26.8573137 22.0295836,27.1746189 C22.0960776,27.4524593 22.1683481,27.7280472 22.2462636,28.0012489 L21,28 L21,24 Z M17,16 L17,20 L11,20 L11,16 L17,16 Z M22.5595203,15.9995872 C22.3540154,16.5987304 22.1761155,17.210691 22.0273323,17.8339286 C21.9516085,18.1511278 21.883933,18.4691277 21.8242199,18.7876572 C22.1015971,18.8270693 22.375867,18.8975918 22.6413225,18.9995916 C23.2019011,19.2149908 23.6976759,19.5609678 24.0915976,20.0001071 L21,20 L21,16 Z" id="office" fill="#000000" fill-rule="nonzero"></path>
        <path d="M56.9502943,22.5043841 C56.9501979,20.4796993 58.2166771,18.7515918 60,18.06613 C59.5291172,16.0941508 58.7515391,14.2408796 57.719875,12.5605636 C57.1056172,12.8338233 56.4451094,12.9704532 55.7848906,12.9704532 C54.5688047,12.9704532 53.3531042,12.5068945 52.4249245,11.5789099 C50.9928125,10.1468017 50.6666536,8.02865357 51.4440391,6.28233519 C49.7641042,5.24999935 47.9114062,4.47165241 45.9394219,4 C45.2550182,5.78534171 43.5260391,7.05345556 41.5,7.05345556 C39.4741536,7.05345556 37.7451745,5.78534171 37.0606745,4 C35.0886901,4.47165241 33.2360885,5.24999935 31.5561536,6.28243156 C32.3335391,8.02855719 32.0073802,10.146609 30.5751719,11.5790063 C29.6471849,12.5069908 28.4312917,12.9706459 27.2152057,12.9706459 C26.5547943,12.9706459 25.8945755,12.8339197 25.280125,12.56066 C24.2485573,14.2408796 23.4707865,16.0940544 23,18.06613 C24.7834193,18.7513991 26.0498021,20.4796993 26.0498021,22.5043841 C26.0498021,24.5285871 24.7844792,26.2560201 23.0021198,26.9418673 C23.4740625,28.9138466 24.2524115,30.7663469 25.2849427,32.4463738 C25.8978516,32.1745594 26.556625,32.0386041 27.2151094,32.0386041 C28.4312917,32.0386041 29.6469922,32.502259 30.5750755,33.4302436 C32.0050677,34.8602321 32.3324792,36.974237 31.5593333,38.7190137 C33.2395573,39.7509641 35.0920625,40.5288293 37.0640469,41 C37.7508594,39.2194759 39.4773333,37.9556016 41.5,37.9556016 C43.5226667,37.9556016 45.2491406,39.2192833 45.9358568,41 C47.9080339,40.5288293 49.7604427,39.7508678 51.440763,38.718821 C50.6677135,36.974237 50.9950286,34.8602321 52.4251172,33.4302436 C53.3529115,32.5021628 54.5688047,32.0385077 55.7847943,32.0385077 C56.4434714,32.0385077 57.1019557,32.1744631 57.7150573,32.4463738 C58.7475885,30.7663469 59.5259375,28.9138466 59.9978802,26.9418673 C58.2155208,26.2559238 56.9502943,24.5283945 56.9502943,22.5043841 L56.9502943,22.5043841 Z M41.5,33 C35.685625,33 31,28.288125 31,22.5 C31,16.7117438 35.685625,12 41.5,12 C47.3142438,12 52,16.7117438 52,22.5 C52,28.288125 47.3142438,33 41.5,33 L41.5,33 Z" id="Shape" fill="#000000" fill-rule="nonzero"></path>
    </g>
</svg>