<?xml version="1.0" encoding="UTF-8"?>
<svg width="64px" height="64px" viewBox="0 0 64 64" version="1.1" xmlns="http://www.w3.org/2000/svg" xmlns:xlink="http://www.w3.org/1999/xlink">
    <title>company</title>
    <g id="company" stroke="none" fill="none">
        <path d="M30,12 C32.209139,12 34,13.790861 34,16 L34,36 L56,36 C58.3669346,36 60,37.790861 60,40 L60,60 L4,60 L4,16 C4,13.790861 5.790861,12 8,12 L30,12 Z M30,16 L8,16 L8,56 L14,56 L14,52 L24,52 L24,56 L30,56 L30,16 Z M56,40 L34,40 L34,56 L40,56 L40,52 L50,52 L50,56 L56,56 L56,40 Z M17,44 L17,48 L11,48 L11,44 L17,44 Z M27,44 L27,48 L21,48 L21,44 L27,44 Z M43,44 L43,48 L37,48 L37,44 L43,44 Z M53,44 L53,48 L47,48 L47,44 L53,44 Z M17,36 L17,40 L11,40 L11,36 L17,36 Z M27,36 L27,40 L21,40 L21,36 L27,36 Z M17,28 L17,32 L11,32 L11,28 L17,28 Z M27,28 L27,32 L21,32 L21,28 L27,28 Z M17,20 L17,24 L11,24 L11,20 L17,20 Z M27,20 L27,24 L21,24 L21,20 L27,20 Z" id="office" fill="#000000" fill-rule="nonzero"></path>
        <path d="M54,4 C55.1045695,4 56,4.8954305 56,6 L56,36 L56,36 L52,36 L52,6 C52,4.8954305 52.8954305,4 54,4 Z" id="Rectangle-2" fill="#000000" fill-rule="evenodd"></path>
        <path d="M36,6 C44,5 44,8 52,7 C52,9.57142857 52,13.5714286 52,17 C44,18 44,15 36,16 C36,12.5714286 36,9.42857143 36,6 Z" id="Rectangle-3" fill="#000000" fill-rule="evenodd" transform="translate(44, 11.5) scale(1, -1) translate(-44, -11.5)"></path>
    </g>
</svg>