<?xml version="1.0" encoding="UTF-8"?>
<svg width="64px" height="64px" viewBox="0 0 64 64" version="1.1" xmlns="http://www.w3.org/2000/svg" xmlns:xlink="http://www.w3.org/1999/xlink">
    <title>company_documentation</title>
    <g id="company_documentation" stroke="none" fill="none" fill-rule="nonzero">
        <path d="M27,12 L27,16 L8,16 L8,56 L14,56 L14,52 L24,52 L24,56 L30,56 L30,41 L34,41 L34,56 L40,56 L40,52 L50,52 L50,56 L56,56 L56,46 L60,46 L60,58 C60,59.1045695 59.1045695,60 58,60 L30,60 L6,60 C4.8954305,60 4,59.1045695 4,58 L4,16 C4,13.790861 5.790861,12 8,12 L27,12 Z M17,44 L17,48 L11,48 L11,44 L17,44 Z M27,44 L27,48 L21,48 L21,44 L27,44 Z M37,46 L43,46 L43,48 L37,48 L37,46 Z M47,46 L53,46 L53,48 L47,48 L47,46 Z M17,36 L17,40 L11,40 L11,36 L17,36 Z M27,36 L27,40 L21,40 L21,36 L27,36 Z M17,28 L17,32 L11,32 L11,28 L17,28 Z M27,28 L27,32 L21,32 L21,28 L27,28 Z M17,20 L17,24 L11,24 L11,20 L17,20 Z M27,20 L27,24 L21,24 L21,20 L27,20 Z" id="Combined-Shape" fill="#000000"></path>
        <path d="M46.6736064,4 C47.2270433,4 47.7557392,4.22932754 48.1338979,4.63341709 L51.284,8 L38,8 L32,8 L32,36 L35,36 L35,40 L30,40 C28.9456382,40 28.0818349,39.1841222 28.0054857,38.1492623 L28,38 L28,6 C28,4.8954305 28.8954305,4 30,4 Z" id="page-copy" fill="#000000"></path>
        <path d="M52.6736064,9 L38,9 C36.8954305,9 36,9.8954305 36,11 L36,43 C36,44.1045695 36.8954305,45 38,45 L58,45 C59.1045695,45 60,44.1045695 60,43 L60,16.691632 C60,16.1841272 59.8070652,15.6956015 59.4602915,15.3250491 L54.1338979,9.63341709 C53.7557392,9.22932754 53.2270433,9 52.6736064,9 Z M48,13 L48,19 C48,20.1045695 48.8954305,21 50,21 L56,21 L56,41 L40,41 L40,13 L48,13 Z M52,13.5 L55.5,17 L52,17 L52,13.5 Z" id="page" fill="#000000"></path>
    </g>
</svg>