<?xml version="1.0" encoding="UTF-8"?>
<svg width="64px" height="64px" viewBox="0 0 64 64" version="1.1" xmlns="http://www.w3.org/2000/svg" xmlns:xlink="http://www.w3.org/1999/xlink">
    <title>condition_supplies</title>
    <g id="condition_supplies" stroke="none" stroke-width="1" fill="none" fill-rule="evenodd">
        <path d="M41.0493635,6.68969344 C41.220741,6.16467137 41.7852845,5.87798588 42.3103066,6.04936346 C42.7978271,6.20849978 43.0798431,6.70664138 42.9804292,7.1973546 L42.9506365,7.31030656 L32.5917498,39.0451698 C32.4203722,39.5701919 31.8558288,39.8568774 31.3308067,39.6854998 C30.8432862,39.5263635 30.5612702,39.0282219 30.6606841,38.5375087 L30.6904767,38.4245567 L41.0493635,6.68969344 Z" id="Path-1" fill="#000000" fill-rule="nonzero"></path>
        <path d="M30.6245117,38.5510254 C34.7563477,37.8129883 31.7255859,37.6118164 33.4946289,40.2211914 C35.2636719,42.8305664 31.7255859,44.378418 31.7255859,44.378418 C31.7255859,44.378418 33.8769531,49.376221 32,53.8747561 C30.5231231,57.4144198 27.7366413,56.0491111 27.35611,55.0099857 L29.6672363,51.5236816 C29.6672363,51.5236816 27.5186183,53.918218 25.9598226,55.6438939 C25.3310681,55.9665337 24.435724,55.99686 21.4656641,55.9997048 L21.4511612,55.9993789 C21.7534588,55.1543383 22.1920847,54.2691531 22.7823971,53.8747561 C23.6312602,53.3076174 25.5085084,51.7415399 26.6959796,50.7343259 L26.7255586,50.707993 L26.6975708,50.7266808 C26.4303676,50.8900533 26.0961702,51.0740281 25.6785088,51.2770411 L25.4626465,51.380127 C23.5585018,52.2738955 22.3899793,52.5808423 20.394709,55.9978032 C18.2737082,55.9936553 16.6971092,55.7456905 15.5391757,55.4211933 C17.1411095,53.5910329 18.8166236,51.9435079 20.1882325,51.2805176 C22.3235539,50.2483742 23.1683368,49.8739681 23.4913406,49.7496067 L23.5215586,49.736993 C23.1494535,49.7859787 22.0221482,49.9816681 19.5055611,50.7810367 L19.2089845,50.8759765 C17.8242622,51.3226103 16.0702938,53.0563584 14.4533756,55.0512054 C13.0690754,54.4850446 12.6225586,53.8747561 12.6225586,53.8747561 C12.6225586,53.8747561 13.7294922,50.9150393 16.8525391,48.7956546 C18.3661529,47.7684749 24,48.0000003 24.9865723,47.3007815 C25.9731445,46.6015628 28.9208984,43.7045898 28.9208984,43.7045898 C28.9208984,43.7045898 26.4926758,39.2890625 30.6245117,38.5510254 Z" id="Path-2" fill="#000000" fill-rule="nonzero"></path>
        <path d="M44.9138184,40.855957 L44.912114,40.8574001 L44.8876007,40.8819869 C44.7727767,41.0079451 44.3023719,41.648351 43.9077147,44.0092775 C43.4545897,46.7199708 42.8786621,51.8308105 42.8786621,51.8308105 C42.8786621,51.8308105 42.3001463,53.3527832 38.1894529,53.6149902 C34.0787596,53.8771973 33.3019043,53.0725098 33.3019043,53.0725098 C33.3019043,53.0725098 33.6455078,50.4140625 33.6455078,48.6342773 C33.6455078,46.8544922 32.6867188,44.8490234 32.6867188,44.8490234 C32.6867188,44.8490234 34.3862305,44.1259766 34.7092285,42.0629883 C34.8355035,41.2564702 34.6822051,40.5696563 34.4486302,40.0322182 C39.009935,40.4191265 41.307021,40.2910172 43.1853161,39.7300676 C43.7826249,39.5516823 44.3719538,39.236274 44.9443015,38.8227217 C44.9329181,39.4929243 44.9138182,40.2544095 44.9138184,40.855957 Z M44.6604978,37.7829272 L44.4096316,37.9749907 L44.4096316,37.9749907 C43.9045767,38.346472 43.393021,38.6243938 42.8991566,38.7718856 C41.1005238,39.3090442 38.8299998,39.4207962 34.0799334,38.9978775 L33.7716216,38.969625 C33.6272653,38.8062361 33.5260254,38.7202148 33.5260254,38.7202148 L34.4018555,36.4438477 C34.4018555,36.4438477 42.1859477,35.9761878 44.6604978,37.7829272 Z" id="Path-3" fill="#000000" fill-rule="nonzero"></path>
        <path d="M30.218335,37.9786377 C30.218335,37.9786377 30.5989561,36.9458876 30.7153565,36.588916 C27.7147461,36.9458876 28.7697266,38.7034668 28.7697266,38.7034668 L30.218335,37.9786377 Z" id="Path-7" fill="#000000" fill-rule="nonzero"></path>
    </g>
</svg>