<?xml version="1.0" encoding="UTF-8"?>
<svg width="64px" height="64px" viewBox="0 0 64 64" version="1.1" xmlns="http://www.w3.org/2000/svg" xmlns:xlink="http://www.w3.org/1999/xlink">
    <title>condition_customer</title>
    <g id="condition_customer" stroke="none" stroke-width="1" fill="none" fill-rule="evenodd">
        <circle id="Oval-5" fill="#000000" fill-rule="nonzero" cx="39" cy="17" r="9"></circle>
        <path d="M53.461367,30.4454086 C53.1847843,28.4698177 51.4948577,27 49.5,27 L28.5,27 C27.0773317,27 25.7617257,27.7556451 25.0448844,28.9845159 L18.1563761,41.0182688 L14.5777088,33.2111456 C13.5897518,31.2352316 11.1870596,30.4343342 9.21114562,31.4222912 C7.23523163,32.4102482 6.43433424,34.8129404 7.42229124,36.7888544 L14.4222912,50.7888544 C15.8438165,53.6319048 19.8534975,53.7611151 21.4551156,51.0154841 L28,38.9049944 L29.375,56 L46,56 L46.7604485,38.0927935 L49.038633,56.5545914 C49.3449254,58.742394 51.3667888,60.2676593 53.5545914,59.961367 C55.742394,59.6550746 57.2676593,57.6332112 56.961367,55.4454086 L53.461367,30.4454086 Z" id="Shape" fill="#000000" fill-rule="nonzero"></path>
    </g>
</svg>