<?xml version="1.0" encoding="UTF-8"?>
<svg width="64px" height="64px" viewBox="0 0 64 64" version="1.1" xmlns="http://www.w3.org/2000/svg" xmlns:xlink="http://www.w3.org/1999/xlink">
    <title>condition_roof_ceiling</title>
    <g id="condition_roof_ceiling" stroke="none" stroke-width="1" fill="none" fill-rule="evenodd">
        <path d="M42.5762401,14.5092772 L58.5927734,33.2090844 L50.9996925,37.3212772 L51,42 L48,42 L47.9996925,38.9472772 L35.3884145,45.7796856 L32.9996925,42.7532772 L33,51 L30,51 L30,39 L30.0376925,38.9992772 L17.9776925,23.7177546 L42.5762401,14.5092772 Z M25.9572811,23.5973482 L24.0906415,24.9728917 L37.5909738,42.0519714 L39.4576134,40.6764279 L25.9572811,23.5973482 Z M33.5811989,20.0520731 L31.7145594,21.4276165 L45.2148917,38.5066962 L47.0815312,37.1311528 L33.5811989,20.0520731 Z M40.2735168,16.7956068 L38.4068773,18.1711503 L51.9072096,35.25023 L53.7738491,33.8746865 L40.2735168,16.7956068 Z" id="Path-60" fill="#000000" fill-rule="nonzero"></path>
        <polygon id="Path-80" fill="#000000" fill-rule="nonzero" points="17.0420884 24.152827 19.8064776 27.9355827 12 37.211827 12 49 9 49 9 39.907827 3 41.9310114"></polygon>
    </g>
</svg>