<?xml version="1.0" encoding="UTF-8"?>
<svg width="64px" height="64px" viewBox="0 0 64 64" version="1.1" xmlns="http://www.w3.org/2000/svg" xmlns:xlink="http://www.w3.org/1999/xlink">
    <title>condition_rodent_evidence</title>
    <g id="condition_rodent_evidence" stroke="none" stroke-width="1" fill="none" fill-rule="evenodd">
        <path d="M7.1577982,26.5009592 C7.2733945,26.6280576 7.4146789,26.7551559 7.5559633,26.8695444 C7.8838426,27.1313839 8.24521228,27.3320411 8.62968853,27.4737993 C10.6143873,35.2567031 17.671542,41.0127098 26.0730841,41.0127098 C26.625029,41.0127098 27.1711716,40.9878674 27.7104548,40.9392396 C26.0946032,45.8282034 22.3611554,49.3706689 17.9165755,49.824904 C17.9188417,49.8404319 17.9192661,49.8573367 17.9192661,49.8743405 C17.9192661,52.029789 17.2891668,53.4677818 16.0469117,54.0009281 C15.0223889,54.4406289 13.8426029,54.1244459 12.9038266,53.3491313 L12.7407427,53.2076054 C9.9161676,50.6437898 7.2464496,51.0751685 6.3236606,53.5754514 C5.4152516,56.0410528 7.2356443,57.9872902 9.559633,57.9872902 C11.8921756,57.9872902 14.4969124,56.807892 16.1013622,55.3283635 L16.2966165,55.1419228 C18.0851304,53.3720967 20.7963081,52.6376362 23.1898118,53.4885923 L23.8754896,53.7347925 C25.919626,54.4776203 26.815954,54.8992406 28.2850597,55.810552 C29.6875691,56.6766569 31.637075,56.2616446 31.9201054,54.9834653 L31.943349,54.8481779 C32.0111725,54.3000735 32.5104807,53.9107289 33.0585851,53.9785524 C33.6066895,54.0463759 33.9960341,54.5456841 33.9282106,55.0937885 C33.5444023,58.1954715 29.7674106,59.0765834 27.2324996,57.5111734 L26.8254534,57.2628789 C25.582198,56.5192578 24.7136732,56.1530064 22.5198396,55.3730384 C20.8854915,54.7919829 18.9689853,55.3111662 17.7033835,56.563544 C15.7683947,58.4783145 12.5551504,59.9872902 9.559633,59.9872902 C5.9717486,59.9872902 3.0003468,56.8104738 4.4471768,52.8834918 C5.8917767,48.9693692 10.268126,48.2622294 14.0863582,51.727972 C14.5258594,52.1284326 15.0021396,52.2729075 15.2581342,52.1630407 C15.6157028,52.0095808 15.9192661,51.3167982 15.9192661,49.8743405 L15.9224664,49.8195674 C9.97974366,49.1799483 5.3211009,43.0176645 5.3211009,35.5122302 C5.3211009,31.6103118 6.053211,28.6870504 7.1577982,26.5009592 Z M19.0899083,25.4968825 C20.0275229,26.5645084 21.2348624,27.3016787 22.506422,27.5940048 C22.9045872,27.6956835 23.2899083,27.7338129 23.6623853,27.7338129 C24.6256881,27.7338129 25.5247706,27.4414868 26.2440367,26.8695444 C26.3981651,26.742446 26.5522936,26.6026379 26.693578,26.4501199 C27.7379419,28.4932654 28.4457284,31.2025321 28.5547967,34.754313 C27.7534143,34.9242307 26.9235819,35.0127098 26.0730841,35.0127098 C20.412322,35.0127098 15.6670369,31.0930863 14.4031998,25.81981 L14.4929285,25.7309554 L14.4929285,25.7309554 L14.6972477,25.5095923 C15.3908257,25.6366906 16.1100917,25.7129496 16.8550459,25.7129496 C17.6,25.7129496 18.3577982,25.6366906 19.0899083,25.4968825 Z M23.6238532,17.4007194 C23.1486239,17.2100719 22.6605505,17.0702638 22.1724771,17.0067146 C21.9284404,16.9685851 21.7100917,17.1465228 21.6715596,17.3880096 C21.6330275,17.6294964 21.812844,17.8455635 22.0568807,17.883693 C22.4920827,17.9437844 22.9352598,18.0670109 23.3612746,18.2533726 C23.3753626,18.2602305 23.3894071,18.2659588 23.4034415,18.2717555 L23.5070841,18.3207098 L23.4395516,18.286831 C24.2535111,18.6302755 25.0313737,19.2042195 25.666055,19.9935252 C27.3614679,22.0906475 27.3614679,24.8486811 25.6917431,26.1705036 C24.0220183,27.4923261 21.2990826,26.8695444 19.6165138,24.7851319 C19.2568807,24.3402878 18.9743119,23.870024 18.7688073,23.3870504 L18.7804679,23.3678537 L18.7431193,23.2853717 C18.6517839,23.0820144 18.438668,22.9690381 18.2300625,23.017855 L18.1522936,23.0438849 C17.9211009,23.1455635 17.8055046,23.3997602 17.9082569,23.6285372 C17.9938838,23.8149481 18.0852192,24.0013589 18.182263,24.1840039 L18.3321101,24.4546763 L15.4807339,24.4546763 C15.6477064,24.1877698 15.7889908,23.9081535 15.9045872,23.6285372 C15.9944954,23.3997602 15.8917431,23.1455635 15.6605505,23.0438849 C15.4293578,22.9549161 15.1724771,23.0565947 15.0697248,23.2853717 C14.9444954,23.5808753 14.790367,23.8692296 14.612758,24.1450727 L14.4500841,24.3827098 L14.5838872,24.190408 C14.467369,24.375476 14.3386215,24.5573887 14.1976448,24.7353427 C14.1149531,24.1730462 14.0730841,23.5977675 14.0730841,23.0127098 C14.0730841,19.0986934 15.9469557,15.6223432 18.8465054,13.4318526 C18.8371746,13.4827586 18.8330275,13.5348082 18.8330275,13.5877698 C18.8330275,14.1470024 19.2954128,14.6045564 19.8605505,14.6045564 C20.4256881,14.6045564 20.8880734,14.1470024 20.8880734,13.5877698 C20.8880734,13.1117051 20.5529915,12.709325 20.1046882,12.6001719 C20.6197725,12.3039648 21.1595881,12.0448993 21.7198378,11.8267094 C22.6348238,13.579346 23.3764831,15.5342307 23.6238532,17.4007194 Z M8.38156667,19.6770015 C8.1790144,20.7579574 8.07308413,21.872963 8.07308413,23.0127098 C8.07308413,24.1647688 8.18131538,25.291549 8.38816467,26.3834372 C8.28292144,26.3194717 8.18091812,26.2483609 8.0825688,26.1705036 C6.412844,24.8486811 6.412844,22.0906475 8.1082569,19.9935252 L8.30063744,19.7657031 L8.30063744,19.7657031 Z M13.5526475,6.18576933 L13.6067992,6.25795045 L14.6868107,8.00069537 C14.8502125,7.79916642 15.0109021,7.61022402 15.1673858,7.43523831 L15.3522936,7.23285372 L15.853211,7.72853717 C15.9527044,7.82699094 16.0615639,7.90955619 16.1767666,7.97623291 C14.8648738,8.8399454 13.6723826,9.87257129 12.6302187,11.0420764 C12.6457887,11.0151265 12.6610739,10.9883566 12.676389,10.9616505 L11.4836064,10.3311656 C11.2395203,10.2020277 11.1463364,9.89946988 11.2754742,9.6553838 C11.3902635,9.43841839 11.6420759,9.34068432 11.8680465,9.41234189 L11.951256,9.44725168 L13.1921769,10.1031665 C13.2776647,9.96723712 13.363613,9.83355419 13.4498189,9.70230389 L11.3663289,7.91750211 C11.1566748,7.7377808 11.1324094,7.42212963 11.3121307,7.21247548 C11.471883,7.02611623 11.7390366,6.98623701 11.9436787,7.10589971 L12.0171573,7.15827727 L14.019323,8.87478678 C14.0256728,8.86598771 14.0320216,8.85720401 14.0383693,8.84843574 L14.0152191,8.81782893 L12.7565036,6.78425579 C12.6111683,6.54945313 12.683696,6.2412905 12.9184987,6.09595529 C13.1272122,5.96676844 13.3938891,6.00972019 13.5526475,6.18576933 Z M16.9577982,6.01270983 C17.2275229,6.0381295 17.6385321,6.3177458 18.1137615,6.76258993 L18.1137615,6.76258993 L17.904565,6.96860433 C17.5567249,7.14605343 17.2154203,7.33448183 16.881108,7.53343276 C16.6702157,7.52009661 16.4666327,7.43193821 16.3155963,7.27098321 L16.3155963,7.27098321 L15.8018349,6.76258993 C16.2770642,6.3177458 16.6880734,6.05083933 16.9577982,6.01270983 Z" id="Combined-Shape" fill="#000000" fill-rule="nonzero"></path>
        <path d="M26,6 C35.3888407,6 43,13.6111593 43,23 C43,26.9037069 41.6842261,30.5000983 39.4719768,33.3698758 L42.8786797,34.2218254 L59.3137085,50.6568542 L53.6568542,56.3137085 L37.2218254,39.8786797 L36.3698758,36.4719768 C33.5000983,38.6842261 29.9037069,40 26,40 C16.6111593,40 9,32.3888407 9,23 C9,13.6111593 16.6111593,6 26,6 Z M26,10 C18.8202983,10 13,15.8202983 13,23 C13,30.1797017 18.8202983,36 26,36 C33.1797017,36 39,30.1797017 39,23 C39,15.8202983 33.1797017,10 26,10 Z" id="magnifying-glass" fill="#000000" fill-rule="nonzero"></path>
    </g>
</svg>