<?xml version="1.0" encoding="UTF-8"?>
<svg width="64px" height="64px" viewBox="0 0 64 64" version="1.1" xmlns="http://www.w3.org/2000/svg" xmlns:xlink="http://www.w3.org/1999/xlink">
    <title>condition_termites</title>
    <g id="condition_termites" stroke="none" stroke-width="1" fill="none" fill-rule="evenodd">
        <path d="M33.2129032,37.7375921 C33.9647265,37.7375921 34.4384719,37.7902122 34.9193959,38.6799384 C35.1345506,38.6687474 35.3525437,38.7272108 35.5380378,38.8563183 L35.6365081,38.9344142 L42.1655403,44.8073871 L42.4884401,45.6796956 L41.687,51.843 L45.1817811,55.3107976 C45.5436591,55.6698821 45.5735862,56.2370015 45.2700836,56.6304716 L45.1872606,56.7250005 C44.8281761,57.0868785 44.2610567,57.1168056 43.8675866,56.813303 L43.7730576,56.7304801 L39.9278964,52.9150009 L39.6405921,52.076324 L40.437,45.943 L35.2801421,41.3021631 C36.2124715,42.9231429 36.8,45.2298441 36.8,47.7906634 C36.8,52.6869779 34.7741935,57.9218673 32,57.9218673 C29.2258065,57.9218673 27.2,52.7 27.2,47.7906634 C27.2,45.1341523 27.8322581,42.7511057 28.8258065,41.1233415 L28.7206963,41.3020927 L23.562,45.943 L24.3594079,52.076324 L24.0721036,52.9150009 L20.2269424,56.7304801 C19.8349079,57.1194883 19.2017476,57.117035 18.8127394,56.7250005 C18.4536549,56.3631225 18.4281234,55.7957883 18.7346659,55.4046819 L18.8182189,55.3107976 L22.312,51.843 L21.5115599,45.6796956 L21.8344597,44.8073871 L28.3634919,38.9344142 C28.5674579,38.7509434 28.8261218,38.6668631 29.080085,38.6790313 C29.5615281,37.7902122 30.0352735,37.7375921 30.7870968,37.7375921 C30.9419355,37.7375921 31.1096774,37.7506143 31.2903226,37.7506143 C31.5096774,37.7636364 31.7419355,37.7636364 32,37.7636364 C32.2580645,37.7636364 32.5032258,37.7506143 32.7096774,37.7506143 C32.8903226,37.7375921 33.0580645,37.7375921 33.2129032,37.7375921 Z M32,34.6643735 C33.0510017,34.6643735 33.7606362,34.7170636 34.1826768,34.9490709 C34.2810751,34.9213844 34.3853695,34.9100163 34.4918386,34.9158134 L34.6079165,34.9289157 L40.2208197,35.8925521 L40.9128562,36.3699398 L44.187,41.918 L48.4477676,44.1293823 C48.9029459,44.3656308 49.1002592,44.9029813 48.9224204,45.3710154 L48.8746678,45.4776242 C48.6384193,45.9328024 48.1010688,46.1301158 47.6330347,45.952277 L47.5264259,45.9045244 L43.0102969,43.560544 L42.6097244,43.1811658 L39.425,37.785 L34.2695029,36.9000769 C34.2277428,36.8929074 34.1870352,36.8832449 34.1475067,36.8712682 C33.7239925,37.0885542 33.0240326,37.1385749 32,37.1385749 C30.9759674,37.1385749 30.2760075,37.0885542 29.8503813,36.8713856 L29.8442982,36.8737131 L29.7304971,36.9000769 L24.574,37.785 L21.3902756,43.1811658 L20.9897031,43.560544 L16.4735741,45.9045244 C15.9833821,46.1589459 15.3797537,45.9678161 15.1253322,45.4776242 C14.8890837,45.0224459 15.0370094,44.4694576 15.4518221,44.1890776 L15.5522324,44.1293823 L19.812,41.918 L23.0871438,36.3699398 L23.7791803,35.8925521 L29.3920835,34.9289157 C29.5386864,34.9037466 29.6833086,34.9118697 29.8182082,34.9478121 C30.2404351,34.7169841 30.9497915,34.6643735 32,34.6643735 Z M29.3544758,40.7328134 L28.8828401,41.1562379 C29.5194178,41.5108289 30.534883,41.6702703 32,41.6702703 C33.5096774,41.6702703 34.5419355,41.4879607 35.1741935,41.1233415 L35.1146963,41.1550927 L34.6522839,40.7383037 C34.2005265,40.9211967 33.4663267,41.064069 32.2752017,41.0823058 L32.0129032,41.0842752 C30.6532529,41.0842752 29.8377987,40.9314514 29.3544758,40.7328134 Z M48.3239416,20.0385966 C48.5263888,20.5524385 48.2739535,21.1331056 47.7601115,21.3355529 C46.3747183,21.8813803 45.1838865,23.437386 44.2473691,25.7174295 C43.8002854,26.8058986 43.4426583,27.9808541 43.168081,29.1569677 C43.0958986,29.4661512 43.0335225,29.7584483 42.9804867,30.0294626 L42.8789936,30.5884834 L42.8606435,30.7057322 L42.2356898,31.4935243 L36.5840769,33.7072835 L35.9214034,33.7307481 L34.9013783,33.4123599 C34.4471125,33.8766104 33.5361513,34.0653563 32,34.0653563 C30.4634779,34.0653563 29.5524478,33.8765193 29.0982928,33.4120237 L28.0785966,33.7307481 L27.4159231,33.7072835 L21.7643102,31.4935243 L21.1393565,30.7057322 L21.1070819,30.5054846 L21.0694529,30.2932199 C21.0069719,29.9514367 20.9281622,29.5692124 20.831919,29.1569677 C20.5573417,27.9808541 20.1997146,26.8058986 19.7526309,25.7174295 C18.8161135,23.437386 17.6252817,21.8813803 16.2398885,21.3355529 C15.7260465,21.1331056 15.4736112,20.5524385 15.6760584,20.0385966 C15.8785057,19.5247546 16.4591728,19.2723193 16.9730148,19.4747665 C18.9826036,20.2665191 20.4788995,22.2216609 21.6026503,24.9575425 C22.0944909,26.1549766 22.4823337,27.4292033 22.7795461,28.7022718 C22.8574585,29.0359986 22.9249245,29.3521702 22.9825209,29.6465726 L23.018,29.837 L27.817,31.716 L28.7343066,31.4309227 C28.8405537,31.39776 28.9481645,31.3832206 29.053621,31.3854603 C29.4922377,30.8825396 30.4157732,30.6796069 32,30.6796069 C33.5782028,30.6796069 34.5007292,30.8867532 34.941919,31.3851941 C35.0109875,31.38374 35.0817016,31.3892334 35.1523645,31.4025974 L35.2656934,31.4309227 L36.182,31.716 L40.981,29.837 L41.0174791,29.6465726 C41.0558767,29.4503043 41.0986608,29.2443609 41.1460023,29.0299908 L41.2204539,28.7022718 C41.5176663,27.4292033 41.9055091,26.1549766 42.3973497,24.9575425 C43.5211005,22.2216609 45.0173964,20.2665191 47.0269852,19.4747665 C47.5408272,19.2723193 48.1214943,19.5247546 48.3239416,20.0385966 Z M32.7354839,14.3628993 C32.7354839,14.4019656 32.7225806,14.4410319 32.7225806,14.4800983 C32.6580645,15.6 33.5096774,16.5896806 34.6193548,16.6808354 C34.683871,16.6938575 34.7354839,16.6938575 34.8,16.6938575 C35.2387097,16.6938575 35.6387097,16.5636364 35.9741935,16.3292383 C36.5806452,17.9179361 36.6709677,20.1447174 36.6967742,21.8506143 C36.6967742,29.3773956 35.4193548,30.0936118 32.0258065,30.0936118 C28.6322581,30.0936118 27.3548387,29.3904177 27.3548387,21.8506143 C27.3548387,20.1447174 27.4322581,17.9179361 28.0516129,16.3292383 C28.3870968,16.5636364 28.7870968,16.6938575 29.2258065,16.6938575 C29.2903226,16.6938575 29.3419355,16.6808354 29.4064516,16.6808354 C30.5032258,16.5896806 31.3548387,15.6 31.3032258,14.4800983 C31.3032258,14.4410319 31.2903226,14.4019656 31.2903226,14.3628993 C31.483871,14.4149877 31.6774194,14.5061425 31.8709677,14.6103194 C31.9612903,14.6624079 32.0645161,14.6624079 32.1548387,14.6103194 C32.3483871,14.5061425 32.5419355,14.4280098 32.7354839,14.3628993 Z M34.7612903,5.31253071 C34.6322581,5.13022113 34.8645161,4.90884521 35.0322581,5.06511057 C35.2,5.20835381 35.3677419,5.41670762 35.5483871,5.7031941 C36.1032258,6.58869779 35.7677419,8.91965602 35.7032258,10.1307125 C35.6516129,11.341769 35.7677419,12.8783784 36.116129,13.8810811 C36.2451613,14.1154791 36.3096774,14.3759214 36.2580645,14.67543 C36.2193548,15.5218673 35.483871,16.1859951 34.6322581,16.1078624 C33.8451613,16.0427518 33.2258065,15.3265356 33.2645161,14.5191646 C33.2903226,14.1675676 33.4193548,13.8420147 33.6387097,13.5945946 L33.6387097,13.5945946 L33.7357138,13.4306864 C34.1980847,12.55074 34.3266129,10.7980958 34.3870968,9.67493857 C34.4516129,8.47690418 35.1096774,7.64348894 35.1612903,6.67985258 C35.1870968,6.13292383 35.0322581,5.69017199 34.7612903,5.31253071 Z M29.2387097,5.31253071 C28.9677419,5.69017199 28.8129032,6.13292383 28.8387097,6.67985258 C28.8903226,7.64348894 29.5483871,8.47690418 29.6129032,9.67493857 C29.6733871,10.7980958 29.8019153,12.55074 30.2642862,13.4306864 L30.3612903,13.5945946 C30.5806452,13.8420147 30.7096774,14.1675676 30.7354839,14.5191646 C30.7741935,15.3265356 30.1548387,16.0427518 29.3677419,16.1078624 C28.516129,16.1859951 27.7806452,15.5218673 27.7419355,14.67543 C27.6903226,14.3759214 27.7548387,14.1154791 27.883871,13.8810811 C28.2322581,12.8783784 28.3483871,11.341769 28.2967742,10.1307125 C28.2322581,8.91965602 27.8967742,6.58869779 28.4516129,5.7031941 C28.6322581,5.41670762 28.8,5.20835381 28.9677419,5.06511057 C29.1354839,4.90884521 29.3677419,5.13022113 29.2387097,5.31253071 Z M32,11.7194103 C32.5935484,11.7194103 33.1354839,11.8626536 33.5741935,12.1230958 C33.4580645,12.722113 33.316129,13.0737101 33.2,13.2560197 C33.0967742,13.3601966 33.0193548,13.4773956 32.9548387,13.6076167 L32.9548387,13.6076167 L32.8774194,13.7248157 C32.5806452,13.7769042 32.283871,13.8810811 32,14.0243243 C31.7032258,13.8810811 31.4193548,13.7769042 31.1225806,13.7248157 L31.1225806,13.7248157 L31.0451613,13.6076167 C30.9677419,13.4773956 30.8903226,13.3601966 30.8,13.2429975 C30.683871,13.060688 30.5419355,12.722113 30.4258065,12.1100737 C30.8645161,11.8626536 31.4064516,11.7194103 32,11.7194103 Z M24.0129032,8.56805897 C24.1290323,8.33366093 24.4,8.24250614 24.6193548,8.34668305 C25.6258065,8.82850123 26.8129032,10.417199 27.6516129,12.0710074 C27.6,12.6570025 27.4967742,13.1909091 27.3548387,13.6076167 C26.6064516,11.7063882 25.1870968,9.63587224 24.2322581,9.18009828 C24,9.06289926 23.9096774,8.78943489 24.0129032,8.56805897 Z M39.3677419,8.34668305 C39.6,8.24250614 39.8709677,8.34668305 39.9741935,8.56805897 C40.0903226,8.78943489 39.9870968,9.06289926 39.7548387,9.16707617 C38.8,9.62285012 37.3806452,11.6933661 36.6322581,13.5945946 C36.5032258,13.1909091 36.4,12.6570025 36.3354839,12.0710074 C37.1741935,10.417199 38.3612903,8.82850123 39.3677419,8.34668305 Z" id="Combined-Shape" fill="#000000" fill-rule="nonzero"></path>
    </g>
</svg>