<?xml version="1.0" encoding="UTF-8"?>
<svg width="64px" height="64px" viewBox="0 0 64 64" version="1.1" xmlns="http://www.w3.org/2000/svg" xmlns:xlink="http://www.w3.org/1999/xlink">
    <title>condition_plumbing</title>
    <g id="condition_plumbing" stroke="none" stroke-width="1" fill="none" fill-rule="evenodd">
        <path d="M50,0 L50,42 L50.0049672,42.1725654 C50.0145881,42.5030009 49.9921812,43.006601 49.9063174,43.6090446 C49.7763394,44.5210055 49.5294391,45.4135433 49.1488458,46.2212689 C48.0174045,48.6225039 45.9114766,50 42,50 C38.0885234,50 35.9825955,48.6225039 34.8511542,46.2212689 C34.4705609,45.4135433 34.2236606,44.5210055 34.0936826,43.6090446 C34.0078188,43.006601 33.9854119,42.5030009 33.995565,42.1678811 L33.999735,41.9601272 L33.8801061,32.9601272 C33.8803711,32.5310528 33.8210159,31.8436903 33.6512626,31.0011935 C33.3744227,29.6272189 32.8753004,28.2510096 32.0877322,26.9480919 C29.8386158,23.2272542 25.7997238,21 20,21 L4,21 L4,27 L20,27 C23.7206009,27 25.8019176,28.1477458 26.9529172,30.0519081 C27.3553896,30.7177404 27.6212934,31.4509061 27.769468,32.1863065 C27.8207637,32.4408901 27.8530672,32.6724699 27.8702432,32.8713772 C27.8785143,32.96716 27.8803711,33.0132371 27.8803711,33 L28.000265,42.0398728 L28.0049672,41.8274346 C28.0020974,41.8801452 28.0020974,41.8801452 27.9983168,41.9861827 C27.9783266,42.6459916 28.015788,43.4879427 28.1537105,44.4556443 C28.3631212,45.9249266 28.7673405,47.3861686 29.423504,48.7787311 C31.5315036,53.2524961 35.7319111,56 42,56 C48.2680889,56 52.4684964,53.2524961 54.576496,48.7787311 C55.2326595,47.3861686 55.6368788,45.9249266 55.8462895,44.4556443 C55.984212,43.4879427 56.0216734,42.6459916 56.0016832,41.9861827 C55.9979026,41.8801452 55.9979026,41.8801452 55.9950328,41.8274346 L56,42 L56,4 L50,4 L50,0 Z" id="Shape" fill="#000000" fill-rule="nonzero"></path>
        <polygon id="Shape" fill="#000000" fill-rule="nonzero" points="26 38 36 38 36 35 26 35"></polygon>
        <polygon id="Shape" fill="#000000" fill-rule="nonzero" points="20 29 20 19 17 19 17 29"></polygon>
        <polygon id="Shape" fill="#000000" fill-rule="nonzero" points="48 38 58 38 58 35 48 35"></polygon>
    </g>
</svg>