<?xml version="1.0" encoding="UTF-8"?>
<svg width="64px" height="64px" viewBox="0 0 64 64" version="1.1" xmlns="http://www.w3.org/2000/svg" xmlns:xlink="http://www.w3.org/1999/xlink">
    <title>condition_structure</title>
    <g id="condition_structure" stroke="none" stroke-width="1" fill="none" fill-rule="evenodd">
        <path d="M30.5830078,19.0915527 L56.2052246,18.0668457 C56.2052246,18.0668457 56.7563477,19.3818359 55.2995605,20.1821289 C53.8427734,20.9824219 46.5591303,21.1976074 45.7949707,21.9026855 C45.0308111,22.6077637 44.7383793,22.4914551 44.4721684,23.8588867 C44.2059575,25.2263184 43.3210449,49.398584 43.3210449,49.398584 C43.3210449,49.398584 43.7854004,51.1725586 45.7067871,51.4982422 C47.6281738,51.8239258 53.7045898,50.9743652 54.1386719,51.8884277 C54.5727539,52.8024902 54.1604004,53.5354004 54.1604004,53.5354004 L29.8181152,55.8984375 C29.8181152,55.8984375 28.8681641,55.8984375 29.8867188,54.5554199 C30.9052735,53.2124016 38.997607,52.1434082 40.2566406,51.3404297 C41.5156742,50.5374512 41.6203619,50.0861816 41.6203613,49.494873 C41.6203608,48.9035645 42.4399414,23.8588867 42.4399414,23.8588867 C42.4399414,23.8588867 42.1169429,22.361084 39.8161621,21.9052734 C37.5153813,21.4494629 32.6345215,21.8811035 31.2263184,21.2976074 C29.8181152,20.7141113 30.5830078,19.0915527 30.5830078,19.0915527 Z" id="Path-49" fill="#000000" fill-rule="nonzero"></path>
        <polygon id="Path-50" fill="#000000" fill-rule="nonzero" points="4.12011719 7.35302734 54.2236328 17.3620605 30.2949219 18.3347168 4.12011719 11.8708496"></polygon>
        <path d="M28.4271973,55.2321777 L4.11230469,42.034668 L4.11230469,34.9179356 L38.4599121,51.0138184 C38.4599121,51.0138184 30.3758789,53.1172356 29.5614258,53.696582 C28.7469727,54.2759285 28.4271973,55.2321777 28.4271973,55.2321777 Z" id="Path-51" fill="#000000" fill-rule="nonzero"></path>
        <path d="M52.2908691,50.7078613 C52.2908691,50.7078613 47.0437012,51.2286133 45.963623,50.8379883 C44.8835449,50.4473633 43.9817383,49.8771973 43.9817383,49.3588867 C43.9817383,48.8405762 44.0442383,47.4592285 44.0442383,47.4592285 L52.2908691,50.7078613 Z" id="Path-52" fill="#000000" fill-rule="nonzero"></path>
        <path d="M29.9558105,19.1240234 L4,12.5614014 L4,13.7404785 C4,13.7404785 26.9848633,20.2177734 30.0712891,21.0668945 C29.293457,20.2177734 29.9558105,19.1240234 29.9558105,19.1240234 Z" id="Path-53" fill="#000000" fill-rule="nonzero"></path>
        <path d="M41.6545899,24.0438965 C41.9346192,25.2753416 40.8292969,48.8591309 40.8292969,48.8591309 C40.8292969,48.8591309 40.5892578,50.6120605 39.3546387,50.6120605 C38.1200195,50.6120605 4.11816406,34.1967773 4.11816406,34.1967773 L4.11816406,14.4608972 C4.11816406,14.4608972 28.8947266,21.5871088 30.4473633,21.8841306 C32,22.1811525 37.8834473,22.0188963 39.6192871,22.5811523 C41.3551269,23.1434084 41.3745606,22.8124514 41.6545899,24.0438965 Z" id="Path-54" fill="#000000" fill-rule="nonzero"></path>
    </g>
</svg>