<?xml version="1.0" encoding="UTF-8"?>
<svg width="64px" height="64px" viewBox="0 0 64 64" version="1.1" xmlns="http://www.w3.org/2000/svg" xmlns:xlink="http://www.w3.org/1999/xlink">
    <title>condition_device</title>
    <g id="condition_device" stroke="none" stroke-width="1" fill="none" fill-rule="evenodd">
        <path d="M56,16 C58.209139,16 60,17.790861 60,20 L60,52 C60,54.209139 58.209139,56 56,56 L8,56 C5.790861,56 4,54.209139 4,52 L4,20 C4,17.790861 5.790861,16 8,16 L56,16 Z M56,33 L35.4642293,33.0011092 C34.7724528,34.1961002 33.4801068,35 32,35 C30.5198932,35 29.2275472,34.1961002 28.5357707,33.0011092 L8,33 L8,52 L56,52 L56,33 Z M56,20 L8,20 L8,29 L28.5351985,28.9998796 C29.1955611,27.8584011 30.4038157,27.0735389 31.8003597,27.0048953 L32,27 C33.480515,27 34.7731656,27.8043432 35.4648015,28.9998796 L56,29 L56,20 Z M38,8 C44,8 45.8924318,12.4564551 45.9966701,16.7250797 L46,17 L42,17 C42,14.8431318 41,12 38,12 L26,12 C23,12 22.0488432,14.9334414 22,17 L18,17 C18,12.6545535 20,8 26,8 L38,8 Z" id="Rectangle" fill="#000000" fill-rule="nonzero"></path>
    </g>
</svg>