<?xml version="1.0" encoding="UTF-8"?>
<svg width="64px" height="64px" viewBox="0 0 64 64" version="1.1" xmlns="http://www.w3.org/2000/svg" xmlns:xlink="http://www.w3.org/1999/xlink">
    <title>condition_ventilation</title>
    <g id="condition_ventilation" stroke="none" stroke-width="1" fill="none" fill-rule="evenodd">
        <path d="M14.0000724,46 C14.4582037,46 14.9134874,46.0925176 15.9995161,46.532642 L16,56 L48,56 L48,49.983 L52,50.261 L52,60 L12,60 L12,46.179686 C12.6209562,46.0588836 13.2864268,46 14.0000724,46 Z M48.000623,46.1782734 C48.4864881,46.2722407 48.9449672,46.4041203 49.3777014,46.5757176 L49.3777014,46.5757176 L48,48.188 L48.000623,46.1782734 Z M48,36.983 L52,37.261 L52.0010103,42.0707806 C50.775767,41.582979 49.4399419,41.2586222 48.001532,41.1043455 L48,36.983 Z M14.0000724,33 C14.4582037,33 14.9134874,33.0925176 15.9995161,33.532642 L16.0004595,41.1570051 C15.3547684,41.0466902 14.7071765,41 14.0000724,41 C13.3131895,41 12.6463451,41.0347894 12.0002355,41.1038357 L12.000147,33.179686 C12.6209562,33.0588836 13.2864268,33 14.0000724,33 Z M48.000623,33.1782734 C48.4864881,33.2722407 48.9449672,33.4041203 49.3777014,33.5757176 L49.3777014,33.5757176 L48,35.188 L48.000623,33.1782734 Z M32,4 L60,24 L52,24 L52.0010103,29.0707806 C50.775767,28.582979 49.4399419,28.2586222 48.001532,28.1043455 L48,20.343 L32,8.914 L16,20.343 L16.0004595,28.1570051 C15.3547684,28.0466902 14.7071765,28 14.0000724,28 C13.3131895,28 12.6463451,28.0347894 12.0002355,28.1038357 L12,24 L4,24 L32,4 Z" id="Path-91" fill="#000000" fill-rule="nonzero"></path>
        <path d="M54.5990338,42 L61.1959267,49.8995414 L48.6036817,49.0226301 L50.9642871,46.257358 C49.5964497,45.4105689 47.9644642,45 45.9999276,45 C45.2772341,45 44.5537812,45.1561183 43.545422,45.5720963 L43.1983604,45.7205223 L42.827856,45.889051 L42.4315701,46.0785363 L42.0071641,46.2898319 L41.5522993,46.5237917 L40.8077761,46.9190946 L39.6866452,47.533459 L39.0170311,47.9059636 L38.3181101,48.2892466 L37.6564553,48.6438556 C37.5491049,48.7006066 37.4431723,48.7561922 37.33859,48.810627 L36.7267584,49.1235428 C34.0415673,50.4705735 32.2422568,51 30,51 C27.7577432,51 25.9584327,50.4705735 23.2732416,49.1235428 L22.66141,48.810627 C22.5568277,48.7561922 22.4508951,48.7006066 22.3435447,48.6438556 L21.6818899,48.2892466 L20.9829689,47.9059636 L19.7334673,47.2134505 L19.1922239,46.9190946 L18.687286,46.6495375 L18.2163148,46.4039254 L17.7769717,46.1814044 L17.3669181,45.9811207 C17.3008867,45.9495458 17.2359782,45.9188618 17.172144,45.889051 L16.8016396,45.7205223 L16.454578,45.5720963 C15.4462188,45.1561183 14.7227659,45 14.0000724,45 C11.2962659,45 9.2223853,45.7777088 7.60010141,47.4 C6.93736271,48.0627417 5.68376568,48.1970563 4.80011408,47.7 C3.91646248,47.2029437 3.73737719,46.2627417 4.40011589,45.6 C6.77781389,43.2222912 10.0372424,42 14.0000724,42 C15.7553504,42 17.1116315,42.3198771 19.0955495,43.2412135 L19.5649856,43.4646346 L20.0595083,43.7101782 C20.1441751,43.7529884 20.230004,43.7967524 20.3170533,43.8414863 L20.8544631,44.1216557 L21.7216341,44.5872346 L23.6364744,45.6453545 L24.2279936,45.9664687 L24.7835546,46.2607659 C24.8732873,46.3076237 24.9616237,46.3533962 25.0486145,46.3980998 L25.5548203,46.653621 C27.5183167,47.6254221 28.7654424,48 30,48 C31.1831177,48 32.3777779,47.6559867 34.2034229,46.7720017 L34.6943988,46.5290193 C34.7787495,46.4864377 34.8643947,46.4428033 34.9513855,46.3980998 L35.4898839,46.1169211 L36.0631185,45.809312 L37.9716254,44.7548987 L38.576031,44.4258702 L39.1455369,44.1216557 L39.6829467,43.8414863 L40.1910641,43.584593 C40.2734651,43.5436744 40.3547624,43.5036936 40.4350144,43.4646346 L40.9044505,43.2412135 C42.8883685,42.3198771 44.2446496,42 45.9999276,42 C48.7308581,42 51.1277369,42.5804771 53.132201,43.7195451 L54.5990338,42 Z" id="Combined-Shape" fill="#000000" fill-rule="nonzero"></path>
        <path d="M54.5990338,29 L61.1959267,36.8995414 L48.6036817,36.0226301 L50.9642871,33.257358 C49.5964497,32.4105689 47.9644642,32 45.9999276,32 C45.2772341,32 44.5537812,32.1561183 43.545422,32.5720963 L43.1983604,32.7205223 L42.827856,32.889051 L42.4315701,33.0785363 L42.0071641,33.2898319 L41.5522993,33.5237917 L40.8077761,33.9190946 L39.6866452,34.533459 L39.0170311,34.9059636 L38.3181101,35.2892466 L37.6564553,35.6438556 C37.5491049,35.7006066 37.4431723,35.7561922 37.33859,35.810627 L36.7267584,36.1235428 C34.0415673,37.4705735 32.2422568,38 30,38 C27.7577432,38 25.9584327,37.4705735 23.2732416,36.1235428 L22.66141,35.810627 C22.5568277,35.7561922 22.4508951,35.7006066 22.3435447,35.6438556 L21.6818899,35.2892466 L20.9829689,34.9059636 L19.7334673,34.2134505 L19.1922239,33.9190946 L18.687286,33.6495375 L18.2163148,33.4039254 L17.7769717,33.1814044 L17.3669181,32.9811207 C17.3008867,32.9495458 17.2359782,32.9188618 17.172144,32.889051 L16.8016396,32.7205223 L16.454578,32.5720963 C15.4462188,32.1561183 14.7227659,32 14.0000724,32 C11.2962659,32 9.2223853,32.7777088 7.60010141,34.4 C6.93736271,35.0627417 5.68376568,35.1970563 4.80011408,34.7 C3.91646248,34.2029437 3.73737719,33.2627417 4.40011589,32.6 C6.77781389,30.2222912 10.0372424,29 14.0000724,29 C15.7553504,29 17.1116315,29.3198771 19.0955495,30.2412135 L19.5649856,30.4646346 L20.0595083,30.7101782 C20.1441751,30.7529884 20.230004,30.7967524 20.3170533,30.8414863 L20.8544631,31.1216557 L21.7216341,31.5872346 L23.6364744,32.6453545 L24.2279936,32.9664687 L24.7835546,33.2607659 C24.8732873,33.3076237 24.9616237,33.3533962 25.0486145,33.3980998 L25.5548203,33.653621 C27.5183167,34.6254221 28.7654424,35 30,35 C31.1831177,35 32.3777779,34.6559867 34.2034229,33.7720017 L34.6943988,33.5290193 C34.7787495,33.4864377 34.8643947,33.4428033 34.9513855,33.3980998 L35.4898839,33.1169211 L36.0631185,32.809312 L37.9716254,31.7548987 L38.576031,31.4258702 L39.1455369,31.1216557 L39.6829467,30.8414863 L40.1910641,30.584593 C40.2734651,30.5436744 40.3547624,30.5036936 40.4350144,30.4646346 L40.9044505,30.2412135 C42.8883685,29.3198771 44.2446496,29 45.9999276,29 C48.7308581,29 51.1277369,29.5804771 53.132201,30.7195451 L54.5990338,29 Z" id="Combined-Shape-Copy" fill="#000000" fill-rule="nonzero"></path>
    </g>
</svg>