<?xml version="1.0" encoding="UTF-8"?>
<svg width="64px" height="64px" viewBox="0 0 64 64" version="1.1" xmlns="http://www.w3.org/2000/svg" xmlns:xlink="http://www.w3.org/1999/xlink">
    <title>conditions</title>
    <g id="conditions" stroke="none" stroke-width="1" fill="none" fill-rule="evenodd">
        <g id="exclamation" transform="translate(30.000000, 20.000000)" fill="#000000" fill-rule="nonzero">
            <path d="M0.814569536,16.4615385 L0.178807947,7.25 C0.059602053,5.45511923 0,4.16667058 0,3.38461538 C0,2.3205075 0.288076589,1.4903876 0.864238411,0.894230769 C1.44040023,0.298073942 2.19867079,0 3.13907285,0 C4.27815139,0 5.03973318,0.381406442 5.42384106,1.14423077 C5.80794894,1.9070551 6,3.00640308 6,4.44230769 C6,5.28846577 5.95364285,6.14743154 5.86092715,7.01923077 L5.00662252,16.5 C4.91390682,17.6282108 4.71523331,18.4935867 4.41059603,19.0961538 C4.10595874,19.698721 3.60265252,20 2.90066225,20 C2.18542689,20 1.68874311,19.7083363 1.41059603,19.125 C1.13244894,18.5416637 0.93377543,17.6538521 0.814569536,16.4615385 Z" id="!"></path>
            <path d="M3.01986755,29 C2.21191649,29 1.50662553,28.7357886 0.90397351,28.2073579 C0.30132149,27.6789271 0,26.9398041 0,25.9899666 C0,25.160531 0.288076589,24.4548524 0.864238411,23.8729097 C1.44040023,23.290967 2.14569119,23 2.98013245,23 C3.81457371,23 4.52648712,23.290967 5.11589404,23.8729097 C5.70530096,24.4548524 6,25.160531 6,25.9899666 C6,26.9264261 5.70198974,27.6622047 5.10596026,28.1973244 C4.50993079,28.7324441 3.81457351,29 3.01986755,29 Z" id="!"></path>
        </g>
        <path d="M28.8227689,9.66805554 C27.744194,10.3284075 26.8375413,11.2350602 26.1771893,12.3136351 L6.88588273,43.8227692 C4.57886182,47.5909033 5.76332813,52.5157896 9.53146229,54.8228105 C10.7888041,55.5926116 12.2344129,56 13.7086932,56 L52.2913063,56 C56.7095843,56 60.2913063,52.418278 60.2913063,48 C60.2913063,46.5257198 59.8839178,45.080111 59.1141167,43.8227692 L39.8228102,12.3136351 C37.5619297,8.62086363 32.7868513,7.40944675 29.0502148,9.53381681 L28.8227689,9.66805554 Z M36.4114049,14.4022505 L55.7027115,45.9113846 C56.0876121,46.5400555 56.2913063,47.2628599 56.2913063,48 C56.2913063,50.209139 54.5004453,52 52.2913063,52 L13.7086932,52 C12.9715531,52 12.2487486,51.7963058 11.6200777,51.4114053 C9.73601065,50.2578948 9.14377749,47.7954517 10.2972879,45.9113846 L29.5885945,14.4022505 C29.9187705,13.8629631 30.3720968,13.4096367 30.9113843,13.0794608 C32.7954514,11.9259503 35.2578945,12.5181835 36.4114049,14.4022505 Z" id="Path-12" fill="#000000" fill-rule="nonzero"></path>
    </g>
</svg>