<?xml version="1.0" encoding="UTF-8"?>
<svg width="64px" height="64px" viewBox="0 0 64 64" version="1.1" xmlns="http://www.w3.org/2000/svg" xmlns:xlink="http://www.w3.org/1999/xlink">
    <title>condition_appliance_machinery</title>
    <g id="condition_appliance_machinery" stroke="none" stroke-width="1" fill="none" fill-rule="evenodd">
        <path d="M33,32 L33.0004809,38.3698085 C31.7360253,38.6301126 29.6737259,38.8072368 27.6214967,38.926563 L26.9737118,38.9624054 C23.9611178,39.1209541 21.1560059,39.1594238 21.1560059,39.1594238 L21.0908203,43.6477051 C21.0908203,43.6477051 29.902362,43.0977144 32.9846141,43.2953489 C32.8666525,44.740941 31.8452381,51 23,51 C13.952381,51 13,43 13,43 L13,32 L33,32 Z" id="Path-68" fill="#000000" fill-rule="nonzero"></path>
        <path d="M43,8 C43,8 52,8 52,16 C52,24 44,24 44,24 L32,24 C32,24 28.8779297,23 24,23 C19.1220703,23 17.4873047,22.4731445 17.4873047,22.4731445 C17.4873047,22.4731445 16.7692872,19.1904297 17.8928223,18.3544922 C17.8928223,17.2107956 18.0326219,14.7112398 17.4873047,14.0385742 C16.9419876,13.3659086 13.9013672,13.4309082 13.9013672,13.4309082 L13.9013672,9 L20.6655274,9 L22.8918458,8 L43,8 Z" id="Path-69" fill="#000000" fill-rule="nonzero"></path>
        <path d="M43.2478027,22.8383789 C41.4055176,28.565918 41.6877441,30.6687012 41.6877441,33.0561523 C41.6877441,35.4436035 43.3183592,43.1538086 45.2473145,46.5373535 C47.1762697,49.9208984 46.7666016,55 46.7666016,55 L13.7363281,55 L13.3837891,50.251709 C13.3837891,50.251709 14.1213379,49.3859863 14.7905273,48.9284668 C16,49.7766113 17.2937012,52 23,52 C28.7062988,52 32,49.5681152 32.8452148,47.4057617 L35.3376465,46.0539551 L35.364502,26.8479004 L32.5620117,25.0844727 L31.4655762,22.3305664" id="Path-70" fill="#000000" fill-rule="nonzero"></path>
        <path d="M35.8254395,34.2419434 C35.0007324,37.3864746 35.4511719,37.9853516 34.1159668,38.9926758 C32.7807617,40 22.1560059,40.1594238 22.1560059,40.1594238 L22.0908203,42.6477051 C22.0908203,42.6477051 33.052002,41.901123 33.9772949,42.4602051 C34.9025879,43.0192871 35.2116699,46.2290039 35.2116699,46.2290039" id="Path-72" fill="#000000" fill-rule="nonzero"></path>
        <polygon id="Path-73" fill="#000000" fill-rule="nonzero" points="22 24 19 24 19 26 18 27 18 28 23 28 23 27 22 26"></polygon>
        <path d="M19,27 C15.5934299,29.5713069 15,33 15,33" id="Path-74" stroke="#000000" style="mix-blend-mode: overlay;" stroke-linecap="round" stroke-linejoin="bevel"></path>
        <path d="M20,27 C17.4450725,29.5713069 17,33 17,33" id="Path-75" stroke="#000000" style="mix-blend-mode: overlay;" stroke-linecap="round" stroke-linejoin="bevel"></path>
        <path d="M20.2000008,27 C19.3483582,29.5713069 19.2000008,33 19.2000008,33" id="Path-76" stroke="#000000" style="mix-blend-mode: overlay;" stroke-linecap="round" stroke-linejoin="bevel"></path>
        <path d="M26,27 C22.5934299,29.5713069 22,33 22,33" id="Path-79" stroke="#000000" style="mix-blend-mode: overlay;" stroke-linecap="round" stroke-linejoin="bevel" transform="translate(24.000000, 30.000000) scale(-1, 1) translate(-24.000000, -30.000000) "></path>
        <path d="M24,27 C21.4450725,29.5713069 21,33 21,33" id="Path-78" stroke="#000000" style="mix-blend-mode: overlay;" stroke-linecap="round" stroke-linejoin="bevel" transform="translate(22.500000, 30.000000) scale(-1, 1) translate(-22.500000, -30.000000) "></path>
        <path d="M21.7000012,27 C20.8483586,29.5713069 20.7000012,33 20.7000012,33" id="Path-77" stroke="#000000" style="mix-blend-mode: overlay;" stroke-linecap="round" stroke-linejoin="bevel" transform="translate(21.200001, 30.000000) scale(-1, 1) translate(-21.200001, -30.000000) "></path>
    </g>
</svg>