<?xml version="1.0" encoding="UTF-8"?>
<svg width="64px" height="64px" viewBox="0 0 64 64" version="1.1" xmlns="http://www.w3.org/2000/svg" xmlns:xlink="http://www.w3.org/1999/xlink">
    <title>consolidate</title>
    <g id="consolidate" stroke="none" stroke-width="1" fill="none" fill-rule="evenodd">
        <path d="M48,4 C48.2652165,4 48.5195704,4.10535684 48.7071068,4.29289322 L48.7071068,4.29289322 L59.7071068,15.2928932 C59.8946432,15.4804296 60,15.7347835 60,16 L60,16 L60,59 C60,59.5522847 59.5522847,60 59,60 L59,60 L21,60 C20.4477153,60 20,59.5522847 20,59 L20,59 L20,55 L24,55 L24,56 L56,56 L56,18.5 L46,18.5 C45.4871642,18.5 45.0644928,18.1139598 45.0067277,17.6166211 L45,17.5 L45,8 L24,8 L24,9 L20,9 L20,5 C20,4.48716416 20.3860402,4.06449284 20.8833789,4.00672773 L21,4 Z M26,10 C27.1045695,10 28,10.8954305 28,12 L28,12 L28,14.981 L49.1763434,30.3825278 C50.2287935,31.1479461 50.2726456,32.6837687 49.3078997,33.5133873 L49.1763434,33.6174722 L28,49.018 L28,52 C28,53.0543618 27.1841222,53.9181651 26.1492623,53.9945143 L26,54 L6,54 C4.8954305,54 4,53.1045695 4,52 L4,52 L4,44 C4,42.8954305 4.8954305,42 6,42 L6,42 L26,42 C27.1045695,42 28,42.8954305 28,44 L28,44 L28,44.071 L44.599,32 L28,19.928 L28,20 C28,21.0543618 27.1841222,21.9181651 26.1492623,21.9945143 L26,22 L6,22 C4.8954305,22 4,21.1045695 4,20 L4,20 L4,12 C4,10.8954305 4.8954305,10 6,10 L6,10 Z M24,46 L8,46 L8,50 L24,50 L24,46 Z M24,39 L24,41 L20,41 L20,39 L24,39 Z M26,26 C27.1045695,26 28,26.8954305 28,28 L28,28 L28,36 C28,37.1045695 27.1045695,38 26,38 L26,38 L6,38 C4.8954305,38 4,37.1045695 4,36 L4,36 L4,28 C4,26.8954305 4.8954305,26 6,26 L6,26 Z M24,30 L8,30 L8,34 L24,34 L24,30 Z M24,23 L24,25 L20,25 L20,23 L24,23 Z M24,14 L8,14 L8,18 L24,18 L24,14 Z M49,10 L49,15 L54,15 L49,10 Z M26,30 L48,30 L48,34 L26,34 L26,30 Z" id="page" fill="#000000" fill-rule="nonzero"></path>
    </g>
</svg>