<?xml version="1.0" encoding="UTF-8"?>
<svg width="64px" height="64px" viewBox="0 0 64 64" version="1.1" xmlns="http://www.w3.org/2000/svg" xmlns:xlink="http://www.w3.org/1999/xlink">
    <title>construction</title>
    <g id="construction" stroke="none" stroke-width="1" fill="none" fill-rule="evenodd">
        <g id="hammer-and-wrench" transform="translate(34.967088, 33.967088) rotate(45.000000) translate(-34.967088, -33.967088) translate(4.920542, 3.967088)" fill="#000000" fill-rule="nonzero">
            <rect id="Rectangle" x="35.093091" y="25" width="25" height="6"></rect>
            <path d="M27.093091,16 C23.093091,14.6666667 21.093091,12 21.093091,8 C21.093091,4 23.093091,1.33333333 27.093091,0 L27.093091,9 L33.093091,9 L33.093091,0 C37.093091,1.33333333 39.093091,4 39.093091,8 C39.093091,12 37.093091,14.6666667 33.093091,16 L33.093091,44 C37.093091,45.3333333 39.093091,48 39.093091,52 C39.093091,56 37.093091,58.6666667 33.093091,60 L33.093091,60 L33.093091,51 L27.093091,51 L27.093091,60 C23.093091,58.6666667 21.093091,56 21.093091,52 C21.093091,48 23.093091,45.3333333 27.093091,44 L27.093091,44 L27.093091,16 Z" id="Combined-Shape"></path>
            <path d="M25.093091,25 L13.3788053,25 C10.3788053,25 8.54547195,24.1666667 7.87880529,22.5 C7.21213862,20.8333333 9.04547195,17.3333333 13.3788053,12 C9.4367178,13.157696 6.52286496,14.6793531 4.63724688,16.5649712 C1.80881975,19.3933983 0.394606191,21.5147186 0.0410528006,26.8180195 C-0.19464946,30.3535534 0.584601371,33.0808802 2.37880529,35 L0.378805291,41 L0.378805291,44 L9.3788053,44 L9.3788053,41 L7.37880529,35 C7.71213862,32.3333333 9.3788053,31 12.3788053,31 C15.3788053,31 19.6169005,31 25.093091,31 L25.093091,25 Z" id="Path-196"></path>
        </g>
    </g>
</svg>