<?xml version="1.0" encoding="UTF-8"?>
<svg width="64px" height="64px" viewBox="0 0 64 64" version="1.1" xmlns="http://www.w3.org/2000/svg" xmlns:xlink="http://www.w3.org/1999/xlink">
    <title>contractor</title>
    <g id="contractor" stroke="none" fill="none" fill-rule="nonzero">
        <path d="M38,4 C39.1045695,4 40,4.8954305 40,6 L39.995877,6.11739738 C43.695374,8.43210529 46.2510443,12.6277739 47.6284599,18.6213643 L47.6837143,18.8666486 L48.6443439,19.8077649 C48.8467642,20.0060016 48.9703384,20.2670204 48.9953003,20.5440875 L49,20.6486486 L49,23.027027 C49,23.5521827 48.6482601,24.0151613 48.1346367,24.1660637 C47.4541814,24.3659812 46.7418628,24.5494482 45.997633,24.7165163 C46.2033779,25.6385556 46.2851355,26.7986171 46.2851355,28.2371849 C46.2851355,29.6324032 45.8255997,31.1271958 45.0409944,32.7224648 L44.8679382,33.0658464 L44.65178,33.4739505 C44.3593906,34.0120078 44.0515035,34.5248565 43.742717,35.0019114 L43.5111867,35.3528259 L43.296255,35.666 L43.2138819,36.0069596 C43.0595083,36.6122795 42.8712007,37.2108979 42.6421035,37.7873036 L42.455255,38.233 L42.8282247,38.4348139 L43.5468718,38.8106191 L44.3230934,39.2025923 L45.1605003,39.6131364 L46.1388291,40.0810092 L49.7105241,41.7423209 L50.7335437,42.2259338 L51.5844383,42.639916 L52.1236269,42.9125239 L52.5888631,43.1587547 L52.8627757,43.3109616 L53.2265369,43.525412 L53.5424805,43.7281028 L53.820407,43.9245156 C56.6208792,46.0084457 60,55.3908238 60,60 L56,60 C56.1123299,59.8879224 56.008255,57.9043424 56.008255,57.868027 C56.008255,56.6255398 55.6274848,55.0241736 55.0589097,53.430429 L54.9244541,53.0629439 L54.6898595,52.4609168 C53.7634147,50.1698108 52.5228839,48.0526496 51.5617457,47.236631 L51.4324689,47.1335266 L51.3106959,47.0477912 L51.1635706,46.9531919 L50.8917009,46.7927522 L50.553413,46.6074295 L49.9893225,46.3165032 L49.0837873,45.8725265 L48.1827708,45.4445286 L45.1380602,44.030155 L43.4083858,43.2090067 L42.5184349,42.7725168 L41.6889535,42.3532334 C40.7547407,41.872919 39.9347548,41.4214995 39.1966845,40.9771533 C39.0112849,40.8655357 38.8319802,40.7548312 38.6587118,40.6449179 C37.7095545,40.0428173 37.4505487,38.7862543 38.055128,37.8628194 L38.2960516,37.5267208 C38.8299385,36.7330638 39.2390746,35.5534686 39.4744894,34.4285792 C39.532044,34.1535644 39.6468996,33.8937625 39.8115717,33.6661032 C41.1444466,31.823402 42.2851355,29.6122056 42.2851355,28.2371849 L42.2835697,27.9375264 L42.2713004,27.3807629 L42.2474184,26.8806447 C42.2179587,26.408812 42.1721083,26.0217801 42.1129513,25.7190483 L42.0822783,25.5747051 L42.0595088,25.481909 L42.0403769,25.4114575 C39.0818357,25.8045479 35.7357168,26 32,26 C28.267631,26 24.9241619,25.8048981 21.967578,25.4125138 L21.9487462,25.481909 L21.9259767,25.5747051 C21.8518855,25.8951251 21.7952062,26.3301732 21.7608366,26.8806447 L21.7369546,27.3807629 L21.7246853,27.9375264 L21.7231195,28.2371849 C21.7231195,29.6122056 22.8638084,31.823402 24.1966833,33.6661032 C24.3613554,33.8937625 24.476211,34.1535644 24.5337656,34.4285792 C24.7691804,35.5534686 25.1783165,36.7330638 25.7122034,37.5267208 L25.8608651,37.7332729 C26.5808085,38.6650976 26.3438985,40.0141459 25.3495432,40.6449179 C25.1762748,40.7548312 24.9969701,40.8655357 24.8115705,40.9771533 C24.0735002,41.4214995 23.2535143,41.872919 22.3193015,42.3532334 L21.4898201,42.7725168 L20.5998692,43.2090067 L18.8701948,44.030155 L15.8254842,45.4445286 L14.9244677,45.8725265 L14.0189325,46.3165032 L13.454842,46.6074295 L13.1165541,46.7927522 L12.8446844,46.9531919 L12.6975591,47.0477912 L12.5757861,47.1335266 C11.5987955,47.8605397 10.2869514,50.0656696 9.31839555,52.4609168 L9.08380087,53.0629439 C8.44160335,54.7756861 8,56.5299639 8,57.868027 C8,57.9043424 7.88767014,59.8879224 8,60 L4,60 C4,55.3908238 7.38737582,46.0084457 10.187848,43.9245156 L10.4657745,43.7281028 L10.7817181,43.525412 L11.1454793,43.3109616 L11.4193919,43.1587547 L11.8846281,42.9125239 L12.4238167,42.639916 L13.2747113,42.2259338 L14.2977309,41.7423209 L17.8694259,40.0810092 L18.8477547,39.6131364 L19.6851616,39.2025923 L20.4613832,38.8106191 L21.1800303,38.4348139 L21.553,38.233 L21.5457296,38.2152006 C21.233329,37.5097882 20.9873401,36.7636095 20.7943731,36.0069596 L20.712,35.666 L20.4970683,35.3528259 C20.1116637,34.7797053 19.7219618,34.1465221 19.356475,33.4739505 L19.1403168,33.0658464 C18.2506478,31.3412457 17.7231195,29.7320617 17.7231195,28.2371849 C17.7231195,26.7991279 17.8048191,25.6393795 18.0112571,24.7168244 C17.2632553,24.5507661 16.548263,24.3666994 15.8653633,24.1660637 C15.3517399,24.0151613 15,23.5521827 15,23.027027 L15,20.6486486 C15,20.3332561 15.1279333,20.0307811 15.3556561,19.8077649 L16.3156786,18.8666486 L16.441725,18.3217914 C17.8350058,12.4872007 20.3670846,8.39251935 24.0052244,6.11670832 C24.0011451,6.07873334 24,6.0395004 24,6 C24,4.8954305 24.8954305,4 26,4 L38,4 Z M34.0008142,8.13700916 L34,13 C34,14.1045695 33.1045695,15 32,15 C30.8954305,15 30,14.1045695 30,13 L30.0004021,8.13906955 C29.2850328,8.24384224 28.607206,8.40835296 27.9661174,8.63439661 C27.9885344,8.75269819 28,8.87501013 28,9 L28,12 C28,13.1045695 27.1045695,14 26,14 C24.8954305,14 24,13.1045695 24,12 L23.9998038,11.3208748 C22.3759882,13.1471265 21.1666683,15.7567093 20.3388032,19.2233353 L20.2127568,19.7681926 L19.9496034,20.9057181 L19.838,21.014 L20.0441934,21.0550414 C23.1730451,21.6506234 26.9381853,21.9688688 31.3356399,21.9978274 L32,22 C36.68371,22 40.6705123,21.6804025 43.9558066,21.0550414 L44.16,21.014 L44.0409886,20.8976129 L43.7814983,19.7456879 L43.7300815,19.5172692 C42.899611,15.9036177 41.6674505,13.1983864 40.0002273,11.3210468 L40,12 C40,13.1045695 39.1045695,14 38,14 C36.8954305,14 36,13.1045695 36,12 L36,9 C36,8.87429996 36.0115962,8.75130837 36.0337772,8.63203664 C35.3935515,8.40559883 34.7158456,8.2412904 34.0008142,8.13700916 Z M39,17 C40.1045695,17 41,17.8954305 41,19 C41,20.1045695 40.1045695,21 39,21 L25,21 C23.8954305,21 23,20.1045695 23,19 C23,17.8954305 23.8954305,17 25,17 L39,17 Z" id="Combined-Shape" fill="#000000"></path>
    </g>
</svg>