<?xml version="1.0" encoding="UTF-8"?>
<svg width="64px" height="64px" viewBox="0 0 64 64" version="1.1" xmlns="http://www.w3.org/2000/svg" xmlns:xlink="http://www.w3.org/1999/xlink">
    <title>contract_overview</title>
    <g id="contract_overview" stroke="none" stroke-width="1" fill="none" fill-rule="evenodd">
        <path d="M32,4 C32.2652165,4 32.5195704,4.10535684 32.7071068,4.29289322 L32.7071068,4.29289322 L43.7071068,15.2928932 C43.8946432,15.4804296 44,15.7347835 44,16 L44,16 L44.0008439,24.2484998 C42.7475713,23.7008295 41.404999,23.3194667 40.0010234,23.1323077 L40,19 L30,19 C29.4871642,19 29.0644928,18.6139598 29.0067277,18.1166211 L29,18 L29,8 L8,8 L8,56 L40,56 L40.0009006,52.867632 C41.1355104,52.7163144 42.230006,52.4381323 43.2696923,52.0479319 L43.2696923,52.0479319 L44,52.778 L44,59 C44,59.5128358 43.6139598,59.9355072 43.1166211,59.9932723 L43,60 L5,60 C4.44771525,60 4,59.5522847 4,59 L4,59 L4,5 C4,4.44771525 4.44771525,4 5,4 L5,4 Z M23.1321742,35.9999785 C23.0449991,36.6542601 23,37.321875 23,38 C23,38.6784712 23.0450451,39.3464215 23.1323077,40.0010234 L14,40 C12.8954305,40 12,39.1045695 12,38 C12,36.8954305 12.8954305,36 14,36 Z M26.8194023,28.0000728 C25.7631306,29.180248 24.8909689,30.5286568 24.2480651,32.000151 L14,32 C12.8954305,32 12,31.1045695 12,30 C12,28.8954305 12.8954305,28 14,28 Z M34,20 C35.1045695,20 36,20.8954305 36,22 C36,22.4461439 35.8539183,22.8581686 35.6069775,23.1908516 C34.5663522,23.3567235 33.5619708,23.6304498 32.6049486,23.9994771 L14,24 C12.8954305,24 12,23.1045695 12,22 C12,20.8954305 12.8954305,20 14,20 L34,20 Z M23,12 C24.1045695,12 25,12.8954305 25,14 C25,15.1045695 24.1045695,16 23,16 L14,16 C12.8954305,16 12,15.1045695 12,14 C12,12.8954305 12.8954305,12 14,12 L23,12 Z M33,10 L33,15 L38,15 L33,10 Z" id="page" fill="#000000" fill-rule="nonzero"></path>
        <path d="M38,24 C45.7319865,24 52,30.2680135 52,38 C52,39.7310023 51.6858457,41.38863 51.1114417,42.9189783 L59.6923882,51.5 C60.863961,52.6715729 60.863961,54.5710678 59.6923882,55.7426407 L56.1568542,59.2781746 C54.9852814,60.4497475 53.0857864,60.4497475 51.9142136,59.2781746 L43.5099954,50.8740253 C41.8189259,51.5987373 39.9563229,52 38,52 C30.2680135,52 24,45.7319865 24,38 C24,30.2680135 30.2680135,24 38,24 Z M49.3823593,45.8431458 L46.2573593,48.9681458 L54.1323594,56.8431458 L57.2573593,53.7181458 L49.3823593,45.8431458 Z M38,28 C32.4771525,28 28,32.4771525 28,38 C28,43.5228475 32.4771525,48 38,48 C43.5228475,48 48,43.5228475 48,38 C48,32.4771525 43.5228475,28 38,28 Z" id="Oval" fill="#000000" fill-rule="nonzero"></path>
    </g>
</svg>