<?xml version="1.0" encoding="UTF-8"?>
<svg width="64px" height="64px" viewBox="0 0 64 64" version="1.1" xmlns="http://www.w3.org/2000/svg" xmlns:xlink="http://www.w3.org/1999/xlink">
    <title>contract_cancellation</title>
    <g id="contract_cancellation" stroke="none" stroke-width="1" fill="none" fill-rule="evenodd">
        <path d="M26.3979778,56.0000805 C28.4818171,57.7733295 30.9164371,59.1467033 33.5831828,60.0015472 L5,60 C4.44771525,60 4,59.5522847 4,59 L4,59 L4,5 C4,4.44771525 4.44771525,4 5,4 L5,4 L32,4 C32.2652165,4 32.5195704,4.10535684 32.7071068,4.29289322 L32.7071068,4.29289322 L43.7071068,15.2928932 C43.8946432,15.4804296 44,15.7347835 44,16 L44,16 L44.001005,19.3806872 C42.7057821,19.1308389 41.3681706,19 40,19 L40,19 L30,19 C29.4871642,19 29.0644928,18.6139598 29.0067277,18.1166211 L29,18 L29,8 L8,8 L8,56 Z M19.3804945,35.9999937 C19.1307717,37.2949054 19,38.632181 19,40 L19,40 L14,40 C12.8954305,40 12,39.1045695 12,38 C12,36.8954305 12.8954305,36 14,36 Z M22.7638489,28.0003139 C21.8975935,29.242265 21.1621388,30.5822298 20.5774536,32.0002396 L14,32 C12.8954305,32 12,31.1045695 12,30 C12,28.8954305 12.8954305,28 14,28 Z M33.5801917,19.9994119 C30.9141856,20.8544619 28.4802511,22.2277775 26.3969674,24.0007793 L14,24 C12.8954305,24 12,23.1045695 12,22 C12,20.8954305 12.8954305,20 14,20 Z M23,12 C24.1045695,12 25,12.8954305 25,14 C25,15.1045695 24.1045695,16 23,16 L14,16 C12.8954305,16 12,15.1045695 12,14 C12,12.8954305 12.8954305,12 14,12 L23,12 Z M33,10 L33,15 L38,15 L33,10 Z" id="page" fill="#000000" fill-rule="nonzero"></path>
        <path d="M40,20 C51.045695,20 60,28.954305 60,40 C60,51.045695 51.045695,60 40,60 C28.954305,60 20,51.045695 20,40 C20,28.954305 28.954305,20 40,20 Z M40,24 C31.163444,24 24,31.163444 24,40 C24,48.836556 31.163444,56 40,56 C48.836556,56 56,48.836556 56,40 C56,31.163444 48.836556,24 40,24 Z" id="Oval-2" fill="#000000"></path>
        <path d="M40,28 C41.1045695,28 42,28.8954305 42,30 L42,38 L50,38 C51.1045695,38 52,38.8954305 52,40 C52,41.1045695 51.1045695,42 50,42 L42,42 L42,50 C42,51.1045695 41.1045695,52 40,52 C38.8954305,52 38,51.1045695 38,50 L38,42 L30,42 C28.8954305,42 28,41.1045695 28,40 C28,38.8954305 28.8954305,38 30,38 L38,38 L38,30 C38,28.8954305 38.8954305,28 40,28 Z" id="Combined-Shape" fill="#000000" transform="translate(40.000000, 40.000000) rotate(45.000000) translate(-40.000000, -40.000000) "></path>
    </g>
</svg>