<?xml version="1.0" encoding="UTF-8"?>
<svg width="32px" height="32px" viewBox="0 0 32 32" version="1.1" xmlns="http://www.w3.org/2000/svg" xmlns:xlink="http://www.w3.org/1999/xlink">
    <title>continuing-ed</title>
    <g id="continuing-ed" stroke="none" stroke-width="1" fill="none" fill-rule="evenodd">
        <path d="M16.3028635,6.0469595 L16.4190582,6.09204062 L29.4190582,12.0920406 C30.1528794,12.4307273 30.1915016,13.4366304 29.5349247,13.8455504 L29.4190582,13.9079594 L16.4190582,19.9079594 C16.1911481,20.0131487 15.9335336,20.0281757 15.6971365,19.9530405 L15.5809418,19.9079594 L5,15.024 L5.0010775,24.2681881 C5.59828461,24.6141507 6,25.2601625 6,26 C6,27.1045695 5.1045695,28 4,28 C2.8954305,28 2,27.1045695 2,26 C2,25.2597476 2.40216612,24.6134261 2.99992752,24.2676063 L3,14.101 L2.58094182,13.9079594 C1.84712057,13.5692727 1.8084984,12.5633696 2.46507531,12.1544496 L2.58094182,12.0920406 L15.5809418,6.09204062 C15.8088519,5.98685134 16.0664664,5.9718243 16.3028635,6.0469595 Z M16,8.101 L5.385,13 L16,17.898 L26.614,13 L16,8.101 Z" id="Combined-Shape" fill="#000000" fill-rule="nonzero"></path>
        <path d="M8.79980553,16.6392803 L10.6162538,17.4882399 C10.0888204,18.3375884 9.74585451,19.4110901 9.5791024,20.7189745 L9.5791024,20.7189745 L9.554,20.928 L9.66926878,20.9832433 C11,22.5 13.2637403,23 16,23 C18.7362597,23 21,22.5 22.3307312,20.9832433 L22.3307312,20.9832433 L22.445,20.928 L22.4208976,20.7189745 C22.2541465,19.4110977 21.9111836,18.337601 21.3837555,17.4882548 L23.2007716,16.6402843 C23.934026,17.9161107 24.3701196,19.5184979 24.4977852,21.433481 C24.5227364,21.8077492 24.2447733,22.1077514 24.0144958,22.3574929 C22.5,24 20.5,25 16,25 C11.5,25 9.5,24 7.98550424,22.3574929 C7.7552239,22.1077484 7.47726363,21.8077492 7.50221484,21.433481 C7.62991387,19.5179956 8.06620284,17.9152701 8.79980553,16.6392803 Z" id="Path-40" fill="#000000" fill-rule="nonzero"></path>
    </g>
</svg>