<?xml version="1.0" encoding="UTF-8"?>
<svg width="64px" height="64px" viewBox="0 0 64 64" version="1.1" xmlns="http://www.w3.org/2000/svg" xmlns:xlink="http://www.w3.org/1999/xlink">
    <title>contract</title>
    <g id="contract" stroke="none" stroke-width="1" fill="none" fill-rule="evenodd">
        <path d="M36,4 C36.2652165,4 36.5195704,4.10535684 36.7071068,4.29289322 L36.7071068,4.29289322 L47.7071068,15.2928932 C47.8946432,15.4804296 48,15.7347835 48,16 L48,16 L48,33.25 L44,33.375 L44,19 L34,19 C33.4871642,19 33.0644928,18.6139598 33.0067277,18.1166211 L33,18 L33,8 L12,8 L12,56 L33.25,56 L37,59 C37.5177443,59.4141954 37.9872379,59.7479731 38.4084809,60.0013331 L9,60 C8.44771525,60 8,59.5522847 8,59 L8,59 L8,5 C8,4.44771525 8.44771525,4 9,4 L9,4 Z M20.2000808,39.9997979 L18,40 C16.8954305,40 16,39.1045695 16,38 C16,36.8954305 16.8954305,36 18,36 L21.8000241,35.9999397 C21.3609911,37.0975223 20.8276767,38.4308084 20.2000808,39.9997979 Z M38,28 C39.1045695,28 40,28.8954305 40,30 C40,31.1045695 39.1045695,32 38,32 L29.6034818,31.9994593 C29.1619449,31.2400159 28.4607843,30.7401961 27.5,30.5 C25.8026767,30.0756692 24.4654668,30.3715649 23.4883701,31.9989159 L18,32 C16.8954305,32 16,31.1045695 16,30 C16,28.8954305 16.8954305,28 18,28 L38,28 Z M38,20 C39.1045695,20 40,20.8954305 40,22 C40,23.1045695 39.1045695,24 38,24 L18,24 C16.8954305,24 16,23.1045695 16,22 C16,20.8954305 16.8954305,20 18,20 L38,20 Z M27,12 C28.1045695,12 29,12.8954305 29,14 C29,15.1045695 28.1045695,16 27,16 L18,16 C16.8954305,16 16,15.1045695 16,14 C16,12.8954305 16.8954305,12 18,12 L27,12 Z M37,10 L37,15 L42,15 L37,10 Z" id="page" fill="#000000" fill-rule="nonzero"></path>
        <path d="M37.1985883,35.8120242 L34.3683608,41.3105832 C34.3683608,41.3105832 32.9883654,43.0014142 34.6901608,44.5640804 C36.3919563,46.1267467 38.3350099,43.9721359 38.3350099,43.9721359 L41.5,39.5 L52.0635096,46.9332106 C52.0635096,46.9332106 53.5335316,48.8024448 52.367488,50.1813949 C51.2847332,51.4618485 50.0569254,50.8455741 49.8870486,50.751002 L49.8671736,50.7395395 L49.8671736,50.7395395 C49.8671736,50.7395395 51.1295121,52.8648255 49.8671736,53.9456059 C48.6048352,55.0263863 46.4989358,53.9456059 46.4989358,53.9456059 C46.4989358,53.9456059 47.3590769,55.633236 45.6436273,56.7860234 C43.9281776,57.9388108 42.3745257,56.233222 42.3745257,56.233222 C42.3745257,56.233222 42.7064477,57.9017644 41.3963014,58.6958192 C40.086155,59.4898741 37.8178188,58.4783252 37.8178188,58.4783252 L25.0035954,48.1434683 L29.5424112,35.8120242 L37.1985883,35.8120242 Z M27.1441967,31.3688994 L27.3049477,31.4197567 C28.6420002,31.8895843 29.3322855,33.3145122 28.8449022,34.6073054 L23.998242,47.463161 C23.5311453,48.7021435 22.1475259,49.3640295 20.8570524,49.0001704 L20.6963013,48.9493132 C19.3592489,48.4794855 18.6689636,47.0545577 19.1563469,45.7617645 L24.003007,32.9059088 C24.4701037,31.6669263 25.8537231,31.0050403 27.1441967,31.3688994 Z M54.7502538,30.5964561 L59.8285736,43.3686914 C60.3179965,44.599615 59.7235475,45.9755094 58.5023558,46.5182669 L58.3464756,46.5817016 C57.01812,47.073986 55.5288515,46.4357951 55.0181724,45.1514108 L49.9398525,32.3791756 C49.4504297,31.1482519 50.0448787,29.7723576 51.2660704,29.2296 L51.4219505,29.1661653 C52.7503062,28.673881 54.2395746,29.3120719 54.7502538,30.5964561 Z M49.860016,34.2953487 L54.0129519,45.3648118 L52.1052626,46.1673682 L41.5,38.5 L37.9726746,43.3181917 C37.9726746,43.3181917 37.9708263,43.3202066 37.9672055,43.3240488 L37.9248185,43.3675291 C37.6750488,43.6171543 36.4917565,44.7031892 35.4238364,44.0321761 C34.2224264,43.2772863 35.017297,41.7306582 35.017297,41.7306582 L35.017297,41.7306582 L38.0995428,35.6118464 C38.4323819,34.9511009 39.1027947,34.5280736 39.8424638,34.5120714 L39.8424638,34.5120714 L49.860016,34.2953487 Z" id="Combined-Shape" fill="#000000" fill-rule="nonzero"></path>
    </g>
</svg>