<?xml version="1.0" encoding="UTF-8"?>
<svg width="64px" height="64px" viewBox="0 0 64 64" version="1.1" xmlns="http://www.w3.org/2000/svg" xmlns:xlink="http://www.w3.org/1999/xlink">
    <title>copesan</title>
    <g id="copesan" stroke="none" stroke-width="1" fill="none" fill-rule="evenodd">
        <path d="M36.0236927,10.4567162 C36.0236927,10.4567162 27.7884134,9.87338318 18.6408935,16.9366916 C9.49337363,24 8.29998779,31.8021726 8.29998779,31.8021726 C8.29998779,31.8021726 25.8008056,32.6180487 27.1334587,30.341651 C28.4661117,28.0652533 24.1641871,22.7001255 24.1641871,22.7001255 C24.1641871,22.7001255 28.9099937,28.3953593 31.9999996,26.1976798 C35.0900055,24.0000003 36.0236927,10.4567162 36.0236927,10.4567162 Z" id="Path-726" fill="#000000" fill-rule="nonzero"></path>
        <path d="M37.0332393,10.3013959 C37.0332393,10.3013959 46.5563697,9.70842694 52.8257197,16.8051213 C59.0950698,23.9018156 55.9999999,32.7731168 55.9999999,32.7731168 C55.9999999,32.7731168 42.6545452,32.0000005 40.8882916,30.6327817 C39.122038,29.2655629 43.9217174,23.9018152 43.9217174,23.9018152 C43.9217174,23.9018152 39.8565021,27.3489305 37.283665,26.6551712 C34.710828,25.9614119 37.0332393,10.3013959 37.0332393,10.3013959 Z" id="Path-727" fill="#000000" fill-rule="nonzero"></path>
        <path d="M7.79998779,33.5755056 C7.79998779,33.5755056 23.0058574,32.8671458 25.1596951,34.9125845 C27.3135327,36.9580231 22.0448596,41.8935342 22.0448596,41.8935342 C22.0448596,41.8935342 26.6379149,37.6414612 28.6439764,38.8207305 C30.650038,39.9999999 28.6439766,53.9059504 28.6439766,53.9059504 C28.6439766,53.9059504 19.8670941,55.2637213 12.7284204,48.7939108 C5.58974682,42.3241004 7.79998779,33.5755056 7.79998779,33.5755056 Z" id="Path-728" fill="#000000" fill-rule="nonzero"></path>
        <path d="M29.4254173,53.9197869 C29.4254173,53.9197869 31.7619099,40.7489203 33.5617897,39.2335348 C35.3616694,37.7181493 40.1905506,42.6744555 40.1905506,42.6744555 C40.1905506,42.6744555 37.436752,36.5868089 38.8136514,35.0528405 C40.1905507,33.5188722 55.8999939,33.6384883 55.8999939,33.6384883 C55.8999939,33.6384883 54.401296,40.1605324 46.6074738,46.8313689 C38.8136515,53.5022053 29.4254173,53.9197869 29.4254173,53.9197869 Z" id="Path-729" fill="#000000" fill-rule="nonzero"></path>
    </g>
</svg>