<?xml version="1.0" encoding="UTF-8"?>
<svg width="64px" height="64px" viewBox="0 0 64 64" version="1.1" xmlns="http://www.w3.org/2000/svg" xmlns:xlink="http://www.w3.org/1999/xlink">
    <title>copy</title>
    <g id="copy" stroke="none" stroke-width="1" fill="none" fill-rule="evenodd">
        <path d="M42,4 C45.3137085,4 48,6.6862915 48,10 L48,10 L48,15 L44,15 L44,10 C44,8.9456382 43.1841222,8.08183488 42.1492623,8.00548574 L42,8 L10,8 C8.8954305,8 8,8.8954305 8,10 L8,10 L8,42 C8,43.1045695 8.8954305,44 10,44 L10,44 L15,44 L15,48 L10,48 C6.76160306,48 4.12242824,45.4344251 4.00413847,42.2249383 L4,42 L4,10 C4,6.6862915 6.6862915,4 10,4 L10,4 Z" id="Rectangle" fill="#000000" fill-rule="nonzero"></path>
        <path d="M54,16 L22,16 C18.6862915,16 16,18.6862915 16,22 L16,54 C16,57.3137085 18.6862915,60 22,60 L54,60 C57.3137085,60 60,57.3137085 60,54 L60,22 C60,18.6862915 57.3137085,16 54,16 Z M22,20 L54,20 C55.1045695,20 56,20.8954305 56,22 L56,54 C56,55.1045695 55.1045695,56 54,56 L22,56 C20.8954305,56 20,55.1045695 20,54 L20,22 C20,20.8954305 20.8954305,20 22,20 Z" id="Rectangle-Copy" fill="#000000" fill-rule="nonzero"></path>
    </g>
</svg>