<svg xmlns="http://www.w3.org/2000/svg" width="32" height="32" viewBox="0 0 32 32">
  <g fill="none" fill-rule="evenodd">
    <path fill="#000" fill-rule="nonzero" d="M28,29 C28,29.5522847 27.5522847,30 27,30 L27,30 L12,30 C11.4477153,30 11,29.5522847 11,29 L11,29 L11,7 C11,6.44771525 11.4477153,6 12,6 L12,6 L23,6 L23.0005374,6.01407313 C23.2062531,6.04896054 23.3974435,6.14765509 23.5458171,6.29831142 L23.5458171,6.29831142 L27.7124838,10.5290807 C27.8418415,10.6604284 27.9312846,10.8237975 27.973095,11.0003516 L28,11 Z M21,8 L13,8 L13,28 L26,28 L26,13 L22,13 C21.4871642,13 21.0644928,12.6139598 21.0067277,12.1166211 L21,12 L21,8 Z M25.369,11 L23,8.595 L23,11 L25.369,11 Z"/>
    <path fill="#000" fill-rule="nonzero" d="M15.8333333,2 C16.101196,2 16.357861,2.10746363 16.5458171,2.29831142 L16.5458171,2.29831142 L19.206,5 L16.399,5 L15.414,4 L6,4 L6,24 L10,24 L10,26 L5,26 C4.48716416,26 4.06449284,25.6139598 4.00672773,25.1166211 L4,25 L4,3 C4,2.44771525 4.44771525,2 5,2 L5,2 Z"/>
  </g>
</svg>
