<?xml version="1.0" encoding="UTF-8"?>
<svg width="64px" height="64px" viewBox="0 0 64 64" version="1.1" xmlns="http://www.w3.org/2000/svg" xmlns:xlink="http://www.w3.org/1999/xlink">
    <title>county</title>
    <g id="county" stroke="none" stroke-width="1" fill="none" fill-rule="evenodd">
        <path d="M22.6129511,4.58470289 C24.5641439,2.63649896 29.4057392,3.84504371 33.1465765,6.33511514 C34.9319966,7.523572 35.6477814,9.48320141 35.6247006,12.018209 C35.6093365,13.7056636 35.3259059,15.3901662 34.6632624,18.356087 C34.6046004,18.6181497 34.6046004,18.6181497 34.5460044,18.8787343 C34.4015327,19.5209916 34.3018421,19.9666442 34.2230759,20.3268353 L34.218,20.3486952 L36.08,22.2056952 L36.1468097,22.2236259 C37.0849046,22.471738 37.8266213,22.6642789 38.3700089,22.8007878 L38.5437899,22.8442149 C38.6613447,22.873422 38.7672261,22.8993504 38.8610382,22.9219236 L38.87,22.9236952 L38.9306392,22.8959274 C39.0961924,22.8144541 39.2674329,22.7162426 39.4558485,22.5962775 L39.6504146,22.4688755 C39.782414,22.3802657 40.2483706,22.0555568 40.310498,22.0131027 C40.6215019,21.8005816 40.8705928,21.6446176 41.137852,21.5043627 C41.7535382,21.181257 42.3730592,21 43.0552289,21 C44.9391043,21 46.3936848,22.0762087 47.3524098,23.9205392 L47.392,23.9996952 L49.5359226,24 L49.9577643,24.2105978 L57.4167027,27.9343542 C58.4339587,28.4422031 59.0767068,29.481479 59.0767068,30.6184576 L59.0767068,39 C59.0767068,40.6568542 57.733561,42 56.0767068,42 L54.069,41.9996952 L54.0690361,49 C54.0690361,50.5976809 52.8201161,51.9036609 51.2453089,51.9949073 L51.0690361,52 L43.0521606,52 C43.0521606,53.6568542 41.7090149,55 40.0521606,55 L33.036,54.9996952 L33.0368192,57 C33.0368192,58.5976809 31.7878993,59.9036609 30.213092,59.9949073 L30.0368192,60 L12.0061365,60 C10.3492823,60 9.00613654,58.6568542 9.00613654,57 L9.006,41.9996952 C7.40385325,42 6.09787326,40.75108 6.00662683,39.1762728 L6.00153414,39 L6.002,31.4996952 L5.90264843,31.4228167 C5.3905116,30.9968627 5.05118202,30.3702569 5.00531931,29.6636589 L5,29.4992328 L5,21.670304 C5.00125622,20.4517878 5.739424,19.355079 6.86783833,18.8952263 L6.985,18.8466952 L7.40822686,18.6719658 C9.9127946,17.6207968 11.9678098,16.5788744 13.568094,15.5543799 L13.744,15.4386952 L13.9038136,15.2777027 C15.4966041,13.657566 16.5753847,12.3135587 17.1318833,11.29219 L17.2301043,11.1044756 C17.7772335,10.0118932 18.7359588,8.74694691 20.0284383,7.29513476 C20.8624732,6.35828273 21.5855123,5.61056793 22.6129511,4.58470289 Z M25.4744602,7.60855881 L25.3334471,7.6086062 C25.304262,7.60941566 25.277686,7.61069527 25.2538727,7.61227102 L25.241,7.61269515 L25.1406985,7.71455028 C23.0773223,9.79168974 21.5686487,11.4968527 20.896948,12.7235485 L20.806715,12.8955244 C20.0239148,14.4587266 18.5674033,16.2765772 16.4254023,18.4152971 L16.2853025,18.5551823 L16.1204962,18.6648849 C14.3712201,19.8292826 12.1793875,20.9756678 9.53981982,22.1122222 L9,22.3406952 L9,28.4996952 L9.09888571,28.5771833 C9.61102254,29.0031372 9.95035211,29.629743 9.99621482,30.3363409 L10.0015341,30.5007671 L10.001,37.9996952 C11.6038174,38 12.9097974,39.24892 13.0010438,40.8237272 L13.0061365,41 L13.006,55.9996952 L29.036,55.9996952 L29.0368192,54 C29.0368192,52.4023191 30.2857392,51.0963391 31.8605465,51.0050927 L32.0368192,51 L39.0521606,51 C39.0521606,49.3431458 40.3953064,48 42.0521606,48 L50.069,47.9996952 L50.0690361,41 C50.0690361,39.4023191 51.3179561,38.0963391 52.8927633,38.0050927 L53.0690361,38 L55.076,37.9996952 L55.076,31.2356952 L48.594,27.9996952 L46.7436624,27.9999919 C45.6008155,27.9967338 44.5654874,27.3453186 44.0636627,26.3311284 L43.9807302,26.1484459 C43.6038479,25.2388886 43.325775,25 43.0552289,25 L43.07,25.0006952 C43.0708333,25.006927 43.0598815,25.0130805 43.0379673,25.0246138 L42.9966035,25.0462609 C42.8929376,25.1006637 42.761297,25.1830882 42.5672732,25.3156723 C42.5319144,25.3398343 42.0469204,25.6778097 41.8798344,25.7899728 C41.1248024,26.2968183 40.4580233,26.649053 39.6586304,26.9048526 C39.0067457,27.0182619 39.0067457,27.0182619 38.8522182,26.9931968 C38.7249945,26.979699 38.7249945,26.979699 38.6421461,26.9664348 C38.557047,26.9524173 38.4628668,26.9337058 38.3502483,26.9092108 C38.1628482,26.8684504 37.9079238,26.8078421 37.5792901,26.7261912 C37.3484546,26.6688387 37.0792615,26.6005956 36.7715393,26.5214212 L36.741,26.5126952 L36.62,26.4816952 L36.5335209,26.4599902 C36.1247742,26.3541871 35.6557592,26.2312883 35.1261412,26.0912146 L35.066,26.0746952 L34.8066923,26.0076043 C34.3658388,25.8920679 33.9580933,25.6778832 33.6147125,25.3833955 L33.4485305,25.2295446 L30.6264144,22.4164844 L29.866601,21.6591093 L30.0773078,20.6071892 C30.218917,19.9002279 30.3264682,19.4103599 30.6435181,18.0008954 C30.6629347,17.914547 30.675879,17.8569814 30.6866471,17.8090511 L30.716718,17.6750187 C30.7274293,17.6272115 30.7402601,17.5698921 30.7595062,17.483913 C31.8754294,12.4891616 31.8952945,10.307342 30.9301303,9.66488486 C29.6721698,8.82752915 28.139453,8.15063517 26.7966944,7.81545972 C26.2017095,7.66694133 25.6906031,7.5987004 25.3334471,7.6086062 L25.4744602,7.60855881 Z" id="Path-299" fill="#000000" fill-rule="nonzero"></path>
        <path d="M20,30 C22,26.782855 23,24.5606328 23,23.3333333 C23,21.4923842 21.6568542,20 20,20 C18.3431458,20 17,21.4923842 17,23.3333333 C17,24.5606328 18,26.782855 20,30 Z" id="Oval" fill="#000000"></path>
        <path d="M24,50 C26,46.782855 27,44.5606328 27,43.3333333 C27,41.4923842 25.6568542,40 24,40 C22.3431458,40 21,41.4923842 21,43.3333333 C21,44.5606328 22,46.782855 24,50 Z" id="Oval-Copy" fill="#000000"></path>
        <path d="M42,42 C44,38.782855 45,36.5606328 45,35.3333333 C45,33.4923842 43.6568542,32 42,32 C40.3431458,32 39,33.4923842 39,35.3333333 C39,36.5606328 40,38.782855 42,42 Z" id="Oval-Copy-2" fill="#000000"></path>
    </g>
</svg>