<?xml version="1.0" encoding="UTF-8"?>
<svg width="64px" height="64px" viewBox="0 0 64 64" version="1.1" xmlns="http://www.w3.org/2000/svg" xmlns:xlink="http://www.w3.org/1999/xlink">
    <title>credit_prospect</title>
    <g id="credit_prospect" stroke="none" stroke-width="1" fill="none" fill-rule="evenodd">
        <path d="M53.9182829,51.5112576 L21.5817707,18.9649383 C20.7151277,18.0926724 19.3100219,18.0926724 18.4433789,18.9649383 C17.576736,19.8372043 17.576736,21.2514268 18.4433789,22.1236927 L50.7798912,54.670012 C51.6465341,55.542278 53.05164,55.542278 53.9182829,54.670012 C54.7849259,53.7977461 54.7849259,52.3835236 53.9182829,51.5112576 L53.9182829,51.5112576 Z" id="Shape" fill="#000000" fill-rule="nonzero"></path>
        <path d="M17.5779417,53.0993366 L12.7368434,48.2268282 C11.8702005,47.3545622 10.4650946,47.3545622 9.5984517,48.2268282 C8.73180875,49.0990941 8.73180875,50.5133166 9.5984517,51.3855825 L14.4395499,56.258091 C15.3061929,57.1303569 16.7112987,57.1303569 17.5779417,56.258091 C18.4445846,55.385825 18.4445846,53.9716025 17.5779417,53.0993366 L17.5779417,53.0993366 Z" id="Shape" fill="#000000" fill-rule="nonzero"></path>
        <polygon id="Shape" fill="#000000" fill-rule="nonzero" points="41.1940754 21.209815 13.3582124 49.226283 16.4966041 52.3850374 44.3324671 24.3685694"></polygon>
        <path d="M5,39.6933792 C5,39.6933792 14.2068521,26.5307898 19.802646,20.8986891 C25.3655781,15.2996634 38.476178,6 38.476178,6 C38.476178,6 24.3889169,8.66802658 16.0653335,17.1371281 C7.74175012,25.6062295 5,39.6933792 5,39.6933792 Z" id="Path-25" fill="#000000" fill-rule="nonzero"></path>
        <path d="M53.4905484,11.7025734 C49.161899,7.34583867 37.0139918,17.2303936 37.0139918,17.2303936 L47.9983628,28.2860339 C47.9983628,28.2860339 57.8191978,16.0593082 53.4905484,11.7025734 L53.4905484,11.7025734 Z" id="Path-27" fill="#000000" fill-rule="nonzero"></path>
    </g>
</svg>