<?xml version="1.0" encoding="UTF-8"?>
<svg width="64px" height="64px" viewBox="0 0 64 64" version="1.1" xmlns="http://www.w3.org/2000/svg" xmlns:xlink="http://www.w3.org/1999/xlink">
    <title>credit_sales_bonus</title>
    <g id="credit_sales_bonus" stroke="none" stroke-width="1" fill="none" fill-rule="evenodd">
        <path d="M35.9108616,7.30779149 L38.3571053,12.4348417 L43.3497625,9.7248369 L44.0919328,15.3568823 L49.6776695,14.3223305 L48.6431177,19.9080672 L54.2751631,20.6502375 L51.5651583,25.6428947 L56.6922085,28.0891384 L52.5720248,32 L56.6922085,35.9108616 L51.5651583,38.3571053 L54.2751631,43.3497625 L48.6431177,44.0919328 L49.6776695,49.6776695 L44.0919328,48.6431177 L43.3497625,54.2751631 L38.3571053,51.5651583 L35.9108616,56.6922085 L32,52.5720248 L28.0891384,56.6922085 L25.6428947,51.5651583 L20.6502375,54.2751631 L19.9080672,48.6431177 L14.3223305,49.6776695 L15.3568823,44.0919328 L9.7248369,43.3497625 L12.4348417,38.3571053 L7.30779149,35.9108616 L11.4279752,32 L7.30779149,28.0891384 L12.4348417,25.6428947 L9.7248369,20.6502375 L15.3568823,19.9080672 L14.3223305,14.3223305 L19.9080672,15.3568823 L20.6502375,9.7248369 L25.6428947,12.4348417 L28.0891384,7.30779149 L32,11.4279752 L35.9108616,7.30779149 Z M33.4880884,27.2464279 L31.5018964,28.3931564 L33.6798749,32.1655258 L28.9342664,29.8755782 L26.9666803,31.0115646 L28.529732,33.7175031 C27.9729007,32.9863006 27.3118372,32.5197304 26.5465296,32.3177825 C25.5807197,32.0629265 24.5303442,32.2631338 23.3953716,32.9184105 C22.2883082,33.5575739 21.6037224,34.3662825 21.3415935,35.3445608 C21.0794646,36.3228391 21.2697694,37.3685953 21.9125135,38.4818607 C21.9914286,38.6185457 22.0726853,38.7486486 22.1562838,38.8721696 L22.1394605,38.8624982 C21.7428251,38.7090369 21.2655171,38.7148263 20.7075221,38.8798666 C20.9655745,38.5820311 21.1228242,38.2886461 21.179276,37.9997029 C21.2639538,37.5662879 21.1899194,37.1480206 20.9571709,36.7448882 C20.679663,36.2642305 20.2709378,35.9627064 19.730983,35.8403069 C19.1910283,35.7179074 18.592352,35.8464853 17.9349362,36.2260445 L17.9349362,36.2260445 L13.9904611,38.5033882 L17.9274728,45.3224926 L21.5649487,43.2223949 C21.7199996,43.1328762 22.0168447,42.9201463 22.455493,42.5841988 C22.7852544,42.3317906 23.0089696,42.1033975 23.1266453,41.8990126 C23.3170492,41.5699443 23.4129647,41.2168742 23.4143946,40.8397918 C23.4154605,40.5587257 23.3594326,40.2842091 23.2463097,40.0162376 C23.337698,40.0852616 23.4337167,40.1461645 23.5317294,40.2014641 C24.1510861,40.5509104 24.7834324,40.7026537 25.4287873,40.6566984 C26.0741422,40.6107431 26.7813353,40.3657628 27.5503878,39.9217502 C28.3070361,39.484899 28.8569507,38.9782464 29.200148,38.4017772 C29.5433452,37.825308 29.7018023,37.2045903 29.6755239,36.5396056 C29.6574856,36.0831404 29.5372377,35.5955876 29.3147778,35.0769401 L30.9036921,37.8306689 L32.8852326,36.6866259 L30.7233674,32.9421655 L35.4389081,35.2122607 L37.4251002,34.0655322 L33.4880884,27.2464279 Z M20.261997,40.3589954 L20.3600556,40.3673925 C20.5780737,40.40484 20.7452674,40.524345 20.8616417,40.7259111 C20.9869678,40.9429824 21.0123563,41.1588299 20.937808,41.37346 C20.8632596,41.5880902 20.6445792,41.800139 20.2817601,42.0096127 L20.2817601,42.0096127 L19.2072627,42.629974 L18.4096553,41.2484774 L19.4795011,40.6308016 C19.8485223,40.4177472 20.1420375,40.329945 20.3600556,40.3673925 L20.261997,40.3589954 Z M18.5262868,37.89066 L18.6129284,37.8998731 C18.8060741,37.9372093 18.9599366,38.0551082 19.0745205,38.2535733 C19.1980562,38.4675435 19.2281519,38.6682695 19.1648083,38.8557571 C19.1014646,39.0432448 18.9054418,39.2318756 18.5767339,39.4216552 L18.5767339,39.4216552 L17.6603877,39.9507079 L16.9138057,38.6575899 L17.8441064,38.1204805 C18.1635113,37.9360721 18.4197827,37.862537 18.6129284,37.8998731 L18.5262868,37.89066 Z M24.3118627,34.5165618 C24.7553083,34.2605384 25.1919823,34.205853 25.621898,34.352504 C26.0518137,34.499155 26.4520692,34.89343 26.8226765,35.5353407 C27.2631084,36.2981911 27.4443236,36.8985206 27.3663277,37.3363472 C27.2883317,37.7741738 27.0229634,38.1237791 26.5702148,38.3851736 C26.1298703,38.6394067 25.6949544,38.689976 25.2654542,38.5368831 C24.835954,38.3837901 24.4224786,37.963037 24.0250157,37.274611 C23.623972,36.579983 23.4653117,36.0079777 23.54903,35.558578 C23.6327482,35.1091782 23.8870233,34.761843 24.3118627,34.5165618 Z M45.4381829,20.840097 C44.7936888,20.7801207 44.03576,21.0016767 43.164374,21.5047717 C42.4542409,21.9147672 41.9467632,22.3266301 41.6419259,22.7403728 C41.3370885,23.1541154 41.1730802,23.5754413 41.1498961,24.0043631 C41.1267119,24.4332849 41.2162746,24.8229474 41.4185868,25.1733624 C41.7265311,25.7067375 42.1783273,26.0309428 42.7739891,26.145988 C43.3665498,26.2628235 44.1848471,26.1583613 45.2289054,25.8325982 C45.8649057,25.6307909 46.3007081,25.554902 46.5363258,25.6049291 C46.7719435,25.6549562 46.9407754,25.7683471 47.0428267,25.9451051 C47.1502492,26.1311662 47.1632894,26.3417391 47.081948,26.57683 C47.0006065,26.8119209 46.8095393,27.0162964 46.5087406,27.1899627 C46.1056083,27.4227112 45.7158407,27.4637527 45.3394262,27.3130882 C45.1076119,27.2195183 44.8760065,27.0224655 44.644603,26.7219238 L44.644603,26.7219238 L42.8368975,27.9234589 C42.7663869,27.7513311 42.6828132,27.5815773 42.586176,27.4141968 L42.586176,27.4141968 L40.239008,23.3487826 L38.1365284,24.5626498 L40.5400928,28.7257456 C40.7585184,29.1040697 40.8241513,29.4558653 40.7369934,29.7811429 C40.6498356,30.1064204 40.4248505,30.373792 40.0620314,30.5832657 C39.6961113,30.7945298 39.3496224,30.8550315 39.0225545,30.7647726 C38.6954866,30.6745137 38.4245343,30.4433267 38.2096895,30.0712045 L38.2096895,30.0712045 L35.8061251,25.9081088 L33.7036454,27.121976 L36.0508134,31.1873902 C36.2441737,31.5223001 36.5312971,31.8692233 36.9121922,32.2281701 C37.1485811,32.4514089 37.4494873,32.6270568 37.8149197,32.7551189 C38.1803521,32.8831811 38.534692,32.9401181 38.8779502,32.9259316 C39.2212083,32.9117451 39.6023989,32.8146699 40.0215332,32.6347029 C40.4406676,32.4547359 40.8161336,32.2689702 41.1479425,32.0774003 C41.7216309,31.7461812 42.1692713,31.3864374 42.4908774,30.9981582 C42.722811,30.7195371 42.8954606,30.3686791 43.0088314,29.9455738 C43.1222021,29.5224684 43.1382888,29.0955833 43.0570918,28.6649056 C43.0367606,28.5570666 43.0116787,28.4500915 42.9818459,28.3439801 C43.3885369,28.8079448 43.8798693,29.1160089 44.4534199,29.2696913 C45.1577803,29.4584241 46.0898369,29.2179942 47.2496176,28.5483945 C47.9101344,28.167045 48.4024027,27.7556939 48.7264372,27.314329 C49.0504717,26.8729641 49.2268988,26.3979537 49.2557238,25.8892834 C49.2845487,25.3806131 49.1727416,24.9076633 48.9202989,24.4704198 C48.7054541,24.0982976 48.420498,23.8142099 48.0654223,23.618148 C47.7103465,23.4220861 47.27494,23.3375296 46.7591897,23.3644759 C46.2434394,23.3914222 45.4677828,23.5715306 44.4321966,23.9048064 C44.0153151,24.0421258 43.7313019,24.0944659 43.5801485,24.0618283 C43.4276845,24.0340821 43.3201225,23.9659423 43.2574594,23.8574066 C43.1715215,23.7085578 43.1605843,23.5463863 43.2246475,23.3708872 C43.2887107,23.1953882 43.4432302,23.0369213 43.6882106,22.8954818 C43.9859083,22.7236059 44.2595392,22.6586542 44.5091115,22.7006246 C44.7586838,22.7425951 44.9984485,22.9018601 45.2284128,23.1784245 L45.2284128,23.1784245 L47.1474662,21.9154084 C46.6524325,21.2585068 46.0826771,20.9000732 45.4381829,20.840097 Z" id="Star-1" fill="#000000" fill-rule="nonzero"></path>
    </g>
</svg>