<?xml version="1.0" encoding="UTF-8"?>
<svg width="64px" height="64px" viewBox="0 0 64 64" version="1.1" xmlns="http://www.w3.org/2000/svg" xmlns:xlink="http://www.w3.org/1999/xlink">
    <title>credit_non_revenue</title>
    <g id="credit_non_revenue" stroke="none" stroke-width="1" fill="none" fill-rule="evenodd">
        <path d="M32,4 C47.463973,4 60,16.536027 60,32 C60,47.463973 47.463973,60 32,60 C16.536027,60 4,47.463973 4,32 C4,16.536027 16.536027,4 32,4 Z M50.3257626,16.5019085 L16.5019085,50.3257626 C20.6833296,53.8655469 26.0924007,56 32,56 C45.254834,56 56,45.254834 56,32 C56,26.0924007 53.8655469,20.6833296 50.3257626,16.5019085 Z M32,8 C18.745166,8 8,18.745166 8,32 C8,37.9075993 10.1344531,43.3166704 13.6742374,47.4980915 L47.4980915,13.6742374 C43.3166704,10.1344531 37.9075993,8 32,8 Z" id="Oval" fill="#000000" fill-rule="nonzero"></path>
        <path d="M42.75,25.75 L53,36 L36,53 L25.75,42.75 L42.75,25.75 Z M32,15 L38.25,21.25 L21.25,38.25 L15,32 L15,20 L20,15 L32,15 Z M23,19 C21.3431458,19 20,20.3431458 20,22 C20,23.6568542 21.3431458,25 23,25 C24.6568542,25 26,23.6568542 26,22 C26,20.3431458 24.6568542,19 23,19 Z" id="Path-6" fill="#000000"></path>
    </g>
</svg>