<?xml version="1.0" encoding="UTF-8"?>
<svg width="64px" height="64px" viewBox="0 0 64 64" version="1.1" xmlns="http://www.w3.org/2000/svg" xmlns:xlink="http://www.w3.org/1999/xlink">
    <title>credit_memo</title>
    <g id="credit_memo" stroke="none" stroke-width="1" fill="none" fill-rule="evenodd">
        <path d="M29.73125,44.5333333 C30.78125,43.6888889 30.95625,42.0888889 30.16875,40.9777778 C29.29375,39.9111111 27.675,39.7333333 26.66875,40.4888889 C24.7,42.0888889 22.3375,42.9333333 19.625,42.9333333 C16.60625,42.9333333 13.80625,41.6888889 11.75,39.7333333 C9.78125,37.7777778 8.55625,35.0222222 8.55625,32 C8.55625,28.9777778 9.78125,26.3111111 11.75,24.2666667 C13.80625,22.3111111 16.60625,21.0666667 19.625,21.0666667 C22.3375,21.0666667 24.74375,21.9111111 26.66875,23.5111111 C27.675,24.3111111 29.29375,24.1333333 30.16875,23.0222222 C30.95625,21.9111111 30.78125,20.3555556 29.73125,19.4666667 C26.975,17.2888889 23.475,16 19.625,16 C10.875,16.0444444 3.6125,23.2 3.56875,32 C3.6125,40.8444444 10.875,48 19.625,48 C23.475,48 26.975,46.7111111 29.73125,44.5333333 Z" id="C" fill="#000000" fill-rule="nonzero"></path>
        <path d="M56.8125,16.8888889 L56.8125,16.8888889 L56.76875,16.8888889 C55.98125,16.8888889 55.28125,17.2444444 54.8,17.9111111 L46.09375,30.1777778 L37.3875,17.9111111 C36.95,17.2444444 36.1625,16.8888889 35.4625,16.8888889 L35.33125,16.8888889 C34.01875,16.8888889 32.925,18 32.925,19.3333333 L32.925,45.5555556 C32.925,46.8888889 34.01875,48 35.33125,48 C36.6875,48 37.78125,46.8888889 37.78125,45.5555556 L37.78125,26.8444444 L44.0375,35.7333333 C44.51875,36.4 45.2625,36.7555556 46.05,36.7555556 L46.09375,36.7555556 L46.1375,36.7555556 C46.925,36.7555556 47.625,36.4 48.10625,35.7333333 L54.40625,26.8444444 L54.40625,45.5555556 C54.40625,46.8888889 55.45625,48 56.8125,48 C58.125,48 59.2625,46.8888889 59.2625,45.5555556 L59.2625,19.3333333 C59.2625,18 58.125,16.9333333 56.8125,16.8888889 L56.8125,16.8888889 Z" id="M" fill="#000000" fill-rule="nonzero"></path>
    </g>
</svg>