<?xml version="1.0" encoding="UTF-8"?>
<svg width="64px" height="64px" viewBox="0 0 64 64" version="1.1" xmlns="http://www.w3.org/2000/svg" xmlns:xlink="http://www.w3.org/1999/xlink">
    <title>crew</title>
    <g id="crew" stroke="none" stroke-width="1" fill="none" fill-rule="evenodd">
        <path d="M24.037037,4 C27.1919438,4 30.1735608,5.12405713 32.5121037,7.12133308 L32.5121037,7.12133308 L32.5241481,7.1321875 L32.979642,7.14747854 C33.0967291,7.15186008 33.2129395,7.15658352 33.3282704,7.16165225 L33.3282704,7.16165225 L34.0096809,7.19623506 C34.2332854,7.20916185 34.4533504,7.22349684 34.6698539,7.23926712 L34.6698539,7.23926712 L35.3086582,7.29091087 L35.9259629,7.35132876 L36.5216367,7.42068323 C41.2976235,8.02401135 43.8965116,9.53762157 43.996973,12.3596724 L43.9933977,12.2987157 C43.0261147,12.1028223 42.0250651,12 41,12 C40.8304751,12 40.6616071,12.0028122 40.49344,12.0083926 C40.2896272,11.7947096 39.9508235,11.5883364 39.4760681,11.398571 L39.4760681,11.398571 L39.2048497,11.2971947 C38.7779054,11.1477249 38.2602811,11.0102594 37.6498993,10.8892227 L37.6498993,10.8892227 L37.2292134,10.811014 L36.7809069,10.7379644 L36.3048431,10.6703653 C36.1415137,10.648773 35.9735354,10.6281377 35.8008851,10.6085079 L35.8008851,10.6085079 L35.2688962,10.5526836 L34.7087395,10.5031838 C34.6130251,10.4954771 34.5161314,10.488046 34.4180554,10.4808966 L34.4180554,10.4808966 L33.8153905,10.4414296 C33.7125743,10.4354314 33.6085703,10.4297271 33.5033754,10.4243227 L33.5033754,10.4243227 L32.8578945,10.3955441 C32.637956,10.3871834 32.4132316,10.3800709 32.1836986,10.3742553 L32.1836986,10.3742553 L31.8504302,10.3667939 C31.444451,10.3588846 31.0560574,10.2001261 30.7613205,9.92161303 C28.9562979,8.21594816 26.5748154,7.25 24.037037,7.25 C18.6369195,7.25 14.2592593,11.6152237 14.2592593,17 C14.2592593,22.3847763 18.6369195,26.75 24.037037,26.75 C24.7151328,26.75 25.3736491,26.6913269 26.0070607,26.5773022 C26.001956,26.7176921 26,26.8586176 26,27 C26,28.56054 26.2383056,30.0654207 26.6805111,31.4802363 C25.7706638,31.3456184 24.8103767,31.2729926 23.8004989,31.2610298 L23.5,31.2592593 C14.4415119,31.2592593 9.30141032,36.0363649 7.65945437,46.5299101 L7.627,46.7407407 L22.1741426,46.7395984 C21.6786402,47.7523133 21.2365212,48.8387326 20.8490424,49.9994902 L4,50 C4.9070818,37.7195079 9.61169002,30.5802824 18.1138247,28.5823234 C13.8913771,26.4330452 11,22.053222 11,17 C11,9.82029825 16.8368803,4 24.037037,4 Z M20.4869269,13.5410098 C19.9137261,12.1120789 21.4684846,10.7630442 22.8085227,11.5266049 C25.9052692,13.2911471 29.7586889,14.0859049 33.5678729,13.9689918 C31.8059051,14.9747714 30.2681407,16.3284808 29.0472377,17.9360041 C28.8025403,17.9027541 28.559894,17.8659745 28.3196027,17.8267328 C24.2158678,17.156558 21.4436801,15.9260979 20.4869269,13.5410098 Z" id="Combined-Shape" fill="#000000" fill-rule="nonzero"></path>
        <path d="M41.037037,14 C44.1919438,14 47.1735608,15.1240571 49.5121037,17.1213331 L49.5121037,17.1213331 L49.5241481,17.1321875 L49.979642,17.1474785 C50.0967291,17.1518601 50.2129395,17.1565835 50.3282704,17.1616522 L50.3282704,17.1616522 L51.0096809,17.1962351 C51.2332854,17.2091618 51.4533504,17.2234968 51.6698539,17.2392671 L51.6698539,17.2392671 L52.3086582,17.2909109 L52.9259629,17.3513288 L53.5216367,17.4206832 C58.2976235,18.0240114 60.8965116,19.5376216 60.996973,22.3596724 L60.996973,22.3596724 L61,22.53125 C61,24.7934353 58.0455997,26.3359671 54.0468129,26.9216874 L54.0468129,26.9216874 L53.982,26.930125 L53.98362,27.0784496 C53.9546062,32.6093479 51.0252762,36.840112 46.7241879,38.8000882 C54.6978418,41.0621201 59.1231653,48.1290062 60,60 L21,60 C21.9070818,47.7195079 26.61169,40.5802824 35.1138247,38.5823234 C30.8913771,36.4330452 28,32.053222 28,27 C28,19.8202983 33.8368803,14 41.037037,14 Z M40.5,41.2592593 C31.4415119,41.2592593 26.3014103,46.0363649 24.6594544,56.5299101 L24.627,56.7407407 L56.3721875,56.7407407 L56.3405456,56.5299101 C54.7168337,46.1529599 49.6722807,41.3661229 40.8004989,41.2610298 L40.5,41.2592593 Z M41.037037,17.25 C35.6369195,17.25 31.2592593,21.6152237 31.2592593,27 C31.2592593,32.3847763 35.6369195,36.75 41.037037,36.75 C46.0654714,36.75 50.0172357,33.5235689 50.6391935,28.425111 L50.6391935,28.425111 L50.6485926,28.337375 L50.0231023,28.3059534 L49.2699763,28.2603091 C47.8686624,28.1668436 46.562623,28.0297286 45.3196027,27.8267328 C41.2158678,27.156558 38.4436801,25.9260979 37.4869269,23.5410098 C36.9137261,22.1120789 38.4684846,20.7630442 39.8085227,21.5266049 C43.3569458,23.5485148 47.8988687,24.2971131 52.2293324,23.859831 C54.0195185,23.6790613 55.6226438,23.2986648 56.7459046,22.8161732 C57.1012802,22.6635233 57.3867146,22.5092292 57.5888051,22.3692248 L57.5888051,22.3692248 L57.6902222,22.2931875 L57.6675936,22.2428614 C57.5146115,21.9444733 57.1206428,21.6562152 56.4760681,21.398571 L56.4760681,21.398571 L56.2048497,21.2971947 C55.7779054,21.1477249 55.2602811,21.0102594 54.6498993,20.8892227 L54.6498993,20.8892227 L54.2292134,20.811014 L53.7809069,20.7379644 L53.3048431,20.6703653 C53.1415137,20.648773 52.9735354,20.6281377 52.8008851,20.6085079 L52.8008851,20.6085079 L52.2688962,20.5526836 L51.7087395,20.5031838 C51.6130251,20.4954771 51.5161314,20.488046 51.4180554,20.4808966 L51.4180554,20.4808966 L50.8153905,20.4414296 C50.7125743,20.4354314 50.6085703,20.4297271 50.5033754,20.4243227 L50.5033754,20.4243227 L49.8578945,20.3955441 C49.637956,20.3871834 49.4132316,20.3800709 49.1836986,20.3742553 L49.1836986,20.3742553 L48.8504302,20.3667939 C48.444451,20.3588846 48.0560574,20.2001261 47.7613205,19.921613 C45.9562979,18.2159482 43.5748154,17.25 41.037037,17.25 Z" id="Combined-Shape-Copy" fill="#000000" fill-rule="nonzero"></path>
    </g>
</svg>