<?xml version="1.0" encoding="UTF-8"?>
<svg width="64px" height="64px" viewBox="0 0 64 64" version="1.1" xmlns="http://www.w3.org/2000/svg" xmlns:xlink="http://www.w3.org/1999/xlink">
    <title>cumulative</title>
    <g id="cumulative" stroke="none" stroke-width="1" fill="none" fill-rule="evenodd">
        <path d="M10,4 C11.1045695,4 12,4.8954305 12,6 C12,7.1045695 11.1045695,8 10,8 L10,49.771 L18.3208597,36.9134974 C18.4826333,36.6634836 18.6977659,36.4533942 18.9499481,36.2978267 L19.1055728,36.2111456 L30.684,30.422 L42.4,14.8 C42.609216,14.5210453 42.8870825,14.3024619 43.2052396,14.1646903 L43.3675445,14.1026334 L55.3675445,10.1026334 C56.4154311,9.75333786 57.5480711,10.3196578 57.8973666,11.3675445 C58.230029,12.3655317 57.7322012,13.4403928 56.7788308,13.8422321 L56.6324555,13.8973666 L45.226,17.699 L33.6,33.2 C33.4509647,33.3987137 33.2665542,33.5674848 33.0565635,33.6981387 L32.8944272,33.7888544 L21.383,39.544 L12.029,54 L56,54 C56,52.8954305 56.8954305,52 58,52 C59.1045695,52 60,52.8954305 60,54 L60,58 C60,59.1045695 59.1045695,60 58,60 C56.8954305,60 56,59.1045695 56,58 L6,58 L6,8 C4.8954305,8 4,7.1045695 4,6 C4,4.8954305 4.8954305,4 6,4 L10,4 Z" id="Combined-Shape" fill="#000000" fill-rule="nonzero"></path>
    </g>
</svg>