<?xml version="1.0" encoding="UTF-8"?>
<svg width="32px" height="32px" viewBox="0 0 32 32" version="1.1" xmlns="http://www.w3.org/2000/svg" xmlns:xlink="http://www.w3.org/1999/xlink">
    <title>curriculum</title>
    <g id="curriculum" stroke="none" stroke-width="1" fill="none" fill-rule="evenodd">
        <g id="Group-Copy-3" transform="translate(2.000000, 12.515561)" fill="#000000" fill-rule="nonzero">
            <path d="M20.3418582,-0.000954811284 L27.3417431,2.54464574 C28.0293143,2.79467166 28.22444,3.67421278 27.7071068,4.19154595 C27.213657,4.68499571 27,5.11230975 27,5.48443917 C27,5.85656859 27.213657,6.28388262 27.7071068,6.77733239 C28.0976311,7.16785668 28.0976311,7.80102166 27.7071068,8.19154595 C27.213657,8.68499571 27,9.11230975 27,9.48443917 C27,9.85656859 27.213657,10.2838826 27.7071068,10.7773324 C28.1973651,11.2675907 28.0475254,12.0823009 27.446959,12.3793127 L27.3363364,12.4261811 L13.4314768,17.3933392 C13.2105537,17.501351 12.9426291,17.5276407 12.6582569,17.4242326 L12.6582569,17.4242326 L1.65825694,13.4242326 C1.55096107,13.3852159 1.45113897,13.3281134 1.36311855,13.2554009 C0.477079866,12.5234559 0,11.6107814 0,10.5713957 C0,9.84881346 0.229791105,9.16279735 0.668134802,8.52273995 L0.668134802,8.52273995 L0.694,8.48743917 L0.669280174,8.45570466 C0.274942652,7.89205945 0.0482957288,7.30237569 0.00690971923,6.68956278 L0.00690971923,6.68956278 L0,6.48443917 C0,5.52323525 0.45300965,4.61721596 1.29289322,3.77733239 C1.39973203,3.67049357 1.52687563,3.59148109 1.66384841,3.54261895 L1.6636636,3.54269726 L8.08010325,1.25196277 C8.3347029,1.90668482 8.62962616,2.52324727 8.94777184,3.06622956 L4.949,4.492 L13.002,7.421 L24.051,3.475 L19.6588292,1.87845049 C19.7919963,1.57967293 19.9172493,1.26957787 20.03273,0.952014469 L20.1548739,0.602413646 C20.2217844,0.402837566 20.2841805,0.201444271 20.3418582,-0.000954811284 Z M25.008,9.257 L13.5591013,13.346733 C13.1706333,13.7752512 13,14.1518813 13,14.4844392 C13,14.7340991 13.0961672,15.0085977 13.3084726,15.3112419 L25.39,10.9974392 L25.3314903,10.8834877 C25.1444292,10.496367 25.0345004,10.0981047 25.0069097,9.68956278 L25,9.48443917 L25.008,9.257 Z M2.31559695,9.65547463 C2.09916745,9.97239757 2,10.2750372 2,10.5713957 C2,10.9812854 2.1895868,11.3439731 2.63688145,11.7134774 L2.63688145,11.7134774 L2.518,11.6084392 L11.007,14.6954392 L11,14.4844392 C11,13.9209301 11.1556963,13.3763877 11.453763,12.8530183 Z M25.009,5.257 L13.5591013,9.346733 C13.1706333,9.77525116 13,10.1518813 13,10.4844392 C13,10.7340991 13.0961672,11.0085977 13.3084726,11.3112419 L25.3889081,6.99736867 C25.1668457,6.5745956 25.0372136,6.13827957 25.0069097,5.68956278 L25,5.48443917 L25.009,5.257 Z M2.308,5.65943917 L2.2450349,5.75264139 C2.07691653,6.0180174 2,6.26116152 2,6.48443917 C2,6.81621089 2.16982745,7.19184666 2.55634989,7.61910707 L11.003,10.575 L11,10.4844392 C11,10.0839375 11.0786475,9.69301657 11.2311584,9.31246844 L11.3314903,9.08539065 L11.394,8.96343917 L2.308,5.65943917 Z" id="Combined-Shape"></path>
        </g>
        <g id="Group" transform="translate(10.146185, 1.999781)" fill="#000000" fill-rule="nonzero">
            <path d="M4.30102857,0.105791866 C4.81006586,0.36031051 5.2424834,0.689233665 5.59872149,1.08784656 C6.11245002,0.616982743 6.62217915,0.500219057 7.35381497,0.500219057 C7.90609972,0.500219057 8.35381497,0.947934307 8.35381497,1.50021906 C8.35381497,2.0130549 7.96777478,2.43572622 7.4704361,2.49349133 L7.35381497,2.50021906 C7.1697841,2.50021906 6.91477051,2.6504262 6.60586965,3.0000022 C6.6447523,3.13785153 6.67831397,3.27942862 6.70750181,3.42461993 L6.7640007,3.40206068 C8.58828764,2.72419033 10.1610528,3.23529821 11.2113079,4.9857233 C12.8510055,7.71855257 10.088994,15.0002191 7.85381497,15.0002191 C7.21086204,15.0002191 6.57264297,14.8763839 5.94352013,14.6327357 L5.94352013,14.6327357 L5.85344155,14.5952191 L5.76410982,14.6327357 C5.22486167,14.841577 4.67893058,14.9623924 4.12906369,14.992649 L4.12906369,14.992649 L3.85381497,15.0002191 C1.61863591,15.0002191 -1.14337551,7.71855257 0.496322048,4.9857233 C1.48089951,3.34476087 2.92468022,2.79296098 4.60440155,3.28885023 C4.39178354,2.68827914 4.04044857,2.25914476 3.55414591,1.97452805 L3.40660138,1.89464625 C2.91262288,1.647657 2.71239853,1.04698396 2.95938778,0.553005461 C3.20637703,0.0590269636 3.80705007,-0.141197383 4.30102857,0.105791866 Z M9.49632205,6.01471481 C8.81886545,4.88562048 7.9699709,4.79129886 6.40851517,5.83226935 L6.40851517,5.83226935 L5.85381497,6.20206948 L5.12207827,5.71718993 C3.67261307,4.8000851 2.86270848,4.92904718 2.2113079,6.01471481 C1.73921579,6.80153499 1.89655697,8.47507298 2.6013125,10.3330648 C2.90916502,11.144676 3.29450338,11.9134545 3.66408978,12.4714575 C3.82761845,12.7183537 3.9775567,12.907172 4.09271316,13.0184685 L4.067,12.992 L4.2881821,12.9684682 C4.509118,12.9367072 4.73081772,12.8808436 4.95488114,12.800226 L5.17979171,12.711333 L5.40660138,12.6057919 L5.85381497,12.3821851 L6.30102857,12.6057919 C6.68074423,12.7956497 7.05173693,12.9155204 7.41738554,12.9685194 L7.41738554,12.9685194 L7.63944155,12.9922191 L7.68801495,12.9425435 C7.76494786,12.8576271 7.85287644,12.7462027 7.94722335,12.6124703 L7.94722335,12.6124703 L8.04354017,12.4714575 C8.41312657,11.9134545 8.79846493,11.144676 9.10631745,10.3330648 C9.81107297,8.47507298 9.96841415,6.80153499 9.49632205,6.01471481 Z" id="Combined-Shape"></path>
        </g>
    </g>
</svg>