<?xml version="1.0" encoding="UTF-8"?>
<svg width="64px" height="64px" viewBox="0 0 64 64" version="1.1" xmlns="http://www.w3.org/2000/svg" xmlns:xlink="http://www.w3.org/1999/xlink">
    <title>customer_service</title>
    <g id="customer_service" stroke="none" stroke-width="1" fill="none" fill-rule="evenodd">
        <path d="M32,4 C41.6911675,4 47.5313335,9.57567686 49.2716432,20.2819895 C50.2924523,20.7601707 51,21.7974571 51,23 L51,27 C51,28.6568542 49.6568542,30 48,30 L47.9523286,29.9986381 C45.5628436,31.8912018 43.1302277,33.0283393 40.6633171,33.3812313 C40.1650407,34.3424067 39.1593149,35 38,35 L34,35 C32.3431458,35 31,33.6568542 31,32 C31,30.3431458 32.3431458,29 34,29 L38,29 C39.0534587,29 39.9800959,29.5429871 40.5153059,30.3643556 C42.0767583,30.0931205 43.6620926,29.3950903 45.2752867,28.2571908 C45.0984067,27.8739595 45,27.4484718 45,27 L45,23 C45,21.9849824 45.5040826,21.0876996 46.2755643,20.5448349 C44.7351659,11.3712123 40.0570492,7 32,7 C23.9430526,7 19.2649523,11.3711018 17.7244382,20.5447658 C18.4959174,21.0876996 19,21.9849824 19,23 L19,27 C19,28.6568542 17.6568542,30 16,30 C14.3431458,30 13,28.6568542 13,27 L13,23 C13,21.7978464 13.7070897,20.7608423 14.7280569,20.2822001 C16.4685351,9.57580233 22.3087235,4 32,4 Z" id="Combined-Shape" fill="#000000"></path>
        <path d="M32.0035373,7.9992768 L32.3406801,8.00220458 C38.1398232,8.10358842 41.6176698,10.8321621 42.9771074,15.273771 L43.0531876,15.5319117 L43.1598896,15.9301781 C43.5587706,17.5106693 43.6633829,19.0756311 43.5882804,20.7138423 L43.554406,21.2905794 L43.5784083,21.3365567 C44.0664376,22.3067792 44.2390598,23.7663425 44.2390598,25.8630383 C44.2390598,26.5318542 44.134104,27.2253113 43.9400467,27.9435248 C42.9192217,28.5741174 41.9114391,29.0140878 40.9122526,29.2616472 L40.8284271,29.1715729 C40.4664983,28.8096441 40.0355339,28.5167508 39.5569805,28.3143398 L39.5305036,28.3745817 C40.0199847,27.2962686 40.2390598,26.463089 40.2390598,25.8630383 L40.2335656,25.2827949 L40.217204,24.7650114 C40.202714,24.4401361 40.1811001,24.1553819 40.1526041,23.9077109 L40.1111742,23.602218 L40.0601571,23.3195303 L40.0325156,23.1876767 L40.0085134,23.1416994 C39.7106358,22.5711032 39.5554077,21.9381431 39.5544098,21.2968259 L39.5612877,21.0560456 L39.5924772,20.5306579 C39.6483138,19.312693 39.5779422,18.2652673 39.377447,17.316597 L39.2961542,16.9653346 L39.2163558,16.6627175 L39.1522501,16.4444402 C38.2879376,13.6205239 36.3088955,12.1551609 32.6345649,12.0113172 L32.305945,12.0020538 L31.997,11.999 L31.7292394,12.0015934 C27.8490737,12.0694287 25.7722877,13.5069786 24.8838074,16.322374 L24.8105478,16.5670681 L24.7185008,16.9089981 C24.4475412,17.9826243 24.3484958,19.1119118 24.4028928,20.4335562 L24.4266828,20.8814162 L24.435705,21.0094856 C24.4877056,21.7476304 24.3339319,22.4857321 23.9914866,23.1416994 L23.9592965,23.2462339 L23.9259211,23.3942349 L23.8888795,23.6021132 L23.8700544,23.7288633 C23.8301521,24.0155123 23.8009085,24.3589173 23.782796,24.7650114 L23.7664344,25.2827949 L23.7609402,25.8630383 C23.7609402,26.4623335 23.9787102,27.2895328 24.4468314,28.3264776 L24.5690962,28.5900729 L24.7362541,28.9324881 C24.9190462,29.2969486 25.1170907,29.6590288 25.3171589,29.9986394 L25.5174117,30.3300159 L25.7016117,30.6208205 C25.8991576,30.9326949 26.052338,31.2700346 26.1571283,31.6231042 L26.226585,31.8907036 L26.286653,32.1613725 C26.3885114,32.5941205 26.5060912,32.9926709 26.6380166,33.3524468 L26.7860733,33.7338477 C27.4488328,35.491877 26.7971687,37.4637655 25.2426866,38.4859458 L25.066272,38.595554 L24.6954337,38.8124624 L24.0276372,39.1903261 L23.3188969,39.5777568 L22.5650541,39.977954 L21.6865117,40.4328996 L18.6488447,41.9636909 L17.813871,42.3910538 L17.141103,42.7451212 L16.7470963,42.9600907 L16.4217439,43.1456204 L16.266,43.238 L16.022,43.394 L15.905,43.475 L15.796,43.558 L15.7379847,43.6097513 C15.5725602,43.7636302 15.3705309,44.0112699 15.1473925,44.3338805 L14.9177916,44.6807855 C14.6823021,45.051289 14.4308686,45.4905002 14.1789867,45.9796295 L13.9275292,46.4847021 C13.8022996,46.7448622 13.6782493,47.015936 13.5573151,47.2955748 L13.4434265,47.5637336 C12.5959356,49.5962011 12.0651155,51.6778925 12.0055986,53.1155548 L12,53.3774 C12,53.389815 12,53.3966773 12.0069331,53.4073645 L12.0523218,53.4602793 C12.1506914,53.5666228 12.3567059,53.7115864 12.6823751,53.8676863 C13.245445,54.1375774 14.0859899,54.403958 15.1782268,54.6472133 L15.7987986,54.7774866 C16.013873,54.820068 16.2371127,54.861767 16.468363,54.9024658 C17.7879367,55.1347032 19.3490283,55.3335783 21.1252844,55.4967736 L21.7253026,55.5498474 L22.4183591,55.6064013 L23.0410123,55.6533208 L23.9461615,55.7158225 L24.8456236,55.771451 L26.041099,55.8357602 L27.211939,55.888477 L28.3434543,55.9300091 L29.9861533,55.9736723 L31.0164913,55.990812 L31.983,55.999 L32.9516696,55.991211 L33.982191,55.9743204 L35.0691543,55.947836 L35.6163414,55.9312752 L36.7546277,55.8898382 L37.9239857,55.837481 L39.122335,55.7732994 L40.029489,55.7174183 L40.948729,55.6540803 L41.5572289,55.6083155 L42.2485797,55.5520619 L42.8059614,55.5029794 C44.6175337,55.3378559 46.1983339,55.1371195 47.531637,54.9024658 C47.7628873,54.861767 47.986127,54.820068 48.2012014,54.7774866 L48.8217732,54.6472133 C49.9140101,54.403958 50.754555,54.1375774 51.3176249,53.8676863 C51.6432941,53.7115864 51.8493086,53.5666228 51.9476782,53.4602793 L51.9930669,53.4073645 C51.9964025,53.4020209 51.9981358,53.3976335 51.9990352,53.3930302 L52,53.3774 C52,51.9382962 51.4570326,49.7232303 50.5565735,47.5637336 C50.3685267,47.1127564 50.1711301,46.6813865 49.9720723,46.2789469 L49.7328976,45.8105024 C49.4939095,45.3571377 49.2569577,44.9508025 49.0353277,44.6076065 L48.819297,44.2860535 C48.6093577,43.9867403 48.4191686,43.7559363 48.2620153,43.6097513 L48.203,43.558 L48.094,43.475 L47.977,43.394 L47.7229612,43.2311053 L47.6516189,43.1887336 L47.3209905,42.9982571 L46.9153597,42.775466 L46.2279,42.4127602 L45.3744898,41.9755467 L42.2733899,40.4124075 L41.3987747,39.9589764 L40.6375976,39.5543013 L39.9204587,39.1614245 L39.2533692,38.7829526 L38.933728,38.595554 C37.9406283,38.0133214 37.2813007,37.0588723 37.0491198,35.9998514 L38,36 L38.2350304,35.9932097 C39.2460178,35.9346318 40.1562736,35.5005806 40.8284271,34.8284271 C40.9855281,34.6713262 41.1296218,34.501218 41.2589544,34.3198565 C41.2142753,34.4581574 41.1667228,34.5952463 41.1169212,34.7310082 L40.956789,35.1448694 L41.2764302,35.332268 L41.8923226,35.6812301 L42.5575573,36.0452054 L43.2752289,36.426425 L44.1136729,36.8608784 L47.1746744,38.4035255 L48.0514192,38.8525947 L48.7806499,39.2370069 L49.2427434,39.4901428 L49.6414586,39.7187858 L49.8762062,39.8601209 L50.1879555,40.0592534 L50.4587244,40.2474664 L50.6969121,40.4298498 C53.096963,42.3649283 56,49.0974493 56,53.3774 C56,54.4245325 55.6088872,55.3928831 54.8840492,56.1764762 C54.4130912,56.68561 53.7916634,57.1175894 53.0465571,57.4747341 C51.8733959,58.0370544 50.2424967,58.4868454 48.2249587,58.8419207 C46.7471882,59.1019999 45.049182,59.3150935 43.1690534,59.4864659 L42.5995892,59.5366312 L41.8821207,59.5950993 L41.2492088,59.6427783 L40.3047924,59.7079331 L39.3687315,59.7657033 L38.1383407,59.8317333 L36.9340674,59.8858114 L35.7623478,59.9286096 L35.1907069,59.9459887 L34.0798857,59.9731271 L33.0177087,59.9906658 L31.989388,59.9992768 L30.9822913,59.9906658 L29.9201143,59.9731271 L28.2376522,59.9286096 L27.0659326,59.8858114 L25.8616593,59.8317333 L24.6312685,59.7657033 C24.0106164,59.7295883 23.3825839,59.6887393 22.7507912,59.6427783 L22.1178793,59.5950993 L21.4004108,59.5366312 C19.2926215,59.3572423 17.4005889,59.1280078 15.7750413,58.8419207 C13.7575033,58.4868454 12.1266041,58.0370544 10.9534429,57.4747341 C10.2083366,57.1175894 9.58690881,56.68561 9.1159508,56.1764762 C8.39111277,55.3928831 8,54.4245325 8,53.3774 C8,49.0974493 10.903037,42.3649283 13.3030879,40.4298498 L13.5412756,40.2474664 L13.8120445,40.0592534 L14.1237938,39.8601209 L14.3585414,39.7187858 L14.7572566,39.4901428 L15.2193501,39.2370069 L15.9485808,38.8525947 L16.8253256,38.4035255 L19.8863271,36.8608784 L20.7247711,36.426425 L21.4424427,36.0452054 L22.1076774,35.6812301 L22.7235698,35.332268 L23.043211,35.1448694 L23.0369801,35.1283413 C22.7692477,34.4733153 22.5584311,33.7804349 22.3930552,33.0778312 L22.3224601,32.7612258 L22.1382601,32.4704212 C21.807962,31.9382376 21.473981,31.3502816 21.1607528,30.7257507 L20.9755017,30.3467967 C20.2130407,28.7453812 19.7609402,27.2511385 19.7609402,25.8630383 C19.7609402,23.7663425 19.9335624,22.3067792 20.4215917,21.3365567 L20.445594,21.2905794 L20.4365718,21.16251 C20.3200286,19.3600413 20.4049675,17.6543503 20.8401104,15.9301781 L20.9468124,15.5319117 C22.2494253,10.9380788 25.7486548,8.10553811 31.6593199,8.00220458 L32.0035373,7.9992768 Z" id="Path" fill="#000000" fill-rule="nonzero"></path>
    </g>
</svg>