<?xml version="1.0" encoding="UTF-8"?>
<svg width="32px" height="32px" viewBox="0 0 32 32" version="1.1" xmlns="http://www.w3.org/2000/svg" xmlns:xlink="http://www.w3.org/1999/xlink">
    <title>damage</title>
    <g id="damage" stroke="none" stroke-width="1" fill="none" fill-rule="evenodd">
        <g id="Group" transform="translate(1.765405, 7.803984)" fill="#000000" fill-rule="nonzero">
            <path d="M11.2345949,1.19601609 L2.23459492,1.19601609 C1.68231017,1.19601609 1.23459492,1.64373134 1.23459492,2.19601609 L1.23459492,14.1960161 C1.23459492,14.7483008 1.68231017,15.1960161 2.23459492,15.1960161 L9.23459492,15.1960161 C9.59776205,15.1960161 9.93238265,14.9991242 10.1087522,14.681659 L12.1087522,11.081659 L12.1662756,10.9593475 C12.2801081,10.6675796 12.2513438,10.3360181 12.0825932,10.0660172 L9.46641862,5.87945642 L12.0028162,2.83620049 C12.5455886,2.18487357 12.0824326,1.19601609 11.2345949,1.19601609 Z M9.09841862,3.19545642 L7.46637364,5.15583169 L7.39075217,5.25935232 C7.18598342,5.58104717 7.18052795,5.99630516 7.38659662,6.32601503 L10.0734186,10.6254564 L8.64641862,13.1954564 L3.23441862,13.1954564 L3.23441862,3.19545642 L9.09841862,3.19545642 Z" id="Path-133" transform="translate(6.735550, 8.196016) rotate(-11.000000) translate(-6.735550, -8.196016) "></path>
            <path d="M26.2345893,1.19601609 L16.2345893,1.19601609 C15.9378151,1.19601609 15.6563675,1.3278391 15.4663736,1.55583169 L12.4663736,5.15583169 L12.3907522,5.25935232 C12.1859834,5.58104717 12.1805279,5.99630516 12.3865966,6.32601503 L15.0734186,10.6254564 L13.3604376,13.7103732 C12.9901425,14.3769043 13.4721106,15.1960161 14.2345893,15.1960161 L26.2345893,15.1960161 C26.7868797,15.1960161 27.2345893,14.7483008 27.2345893,14.1960161 L27.2345893,2.19601609 C27.2345893,1.64373134 26.7868797,1.19601609 26.2345893,1.19601609 Z M25.2344186,3.19545642 L25.2344186,13.1954564 L15.9344186,13.1954564 L17.1087522,11.081659 L17.1662756,10.9593475 C17.2801081,10.6675796 17.2513438,10.3360181 17.0825932,10.0660172 L14.4664186,5.87945642 L16.7024186,3.19545642 L25.2344186,3.19545642 Z" id="Path-134" transform="translate(19.734592, 8.196016) rotate(10.000000) translate(-19.734592, -8.196016) "></path>
        </g>
    </g>
</svg>