<?xml version="1.0" encoding="UTF-8"?>
<svg width="64px" height="64px" viewBox="0 0 64 64" version="1.1" xmlns="http://www.w3.org/2000/svg" xmlns:xlink="http://www.w3.org/1999/xlink">
    <title>dashboard</title>
    <g id="dashboard" stroke="none" stroke-width="1" fill="none" fill-rule="evenodd">
        <g id="Group" transform="translate(4.000000, 9.000000)" fill="#000000">
            <path d="M28,0 C43.4757091,0 56,12.8522119 56,28.6807444 C56,34.6257474 54.2281387,40.3049046 50.9747898,45.0791107 C50.3527807,45.991893 49.1085834,46.2276134 48.1957973,45.6056069 C47.2830112,44.9836004 47.0472898,43.7394082 47.6692989,42.8266259 C47.8707877,42.5309462 48.0656843,42.2312314 48.2538954,41.9276818 C48.0934744,41.8844117 47.9357163,41.8191299 47.7846104,41.7318888 L46.0525582,40.731888 C45.141525,40.2059028 44.8008634,39.0713953 45.2475694,38.1382057 L45.3205085,37.9998369 C45.872793,37.0432521 47.0959733,36.7155019 48.0525582,37.2677864 L49.7846104,38.2677872 C49.8780903,38.3217579 49.9655651,38.3821354 50.0468002,38.4480449 C51.1595997,35.7989089 51.815312,32.9477185 51.9662903,29.9999845 L49.9999917,29.9998759 C48.8954268,29.9998759 48,29.1044492 48,27.9998842 C48,26.8953193 48.8954268,25.9998925 49.9999917,25.9998925 L51.8600067,25.998844 C51.5558889,23.1035393 50.7650489,20.3591042 49.5736034,17.853365 L48.052559,18.7319835 C47.1415258,19.2579687 45.9886827,18.9857366 45.4038698,18.132283 L45.3205085,17.9999315 C44.768224,17.0433467 45.0959741,15.8201664 46.052559,15.2678819 L47.5704186,14.3906595 C45.9496692,12.0478688 43.9411663,10.0089195 41.6416181,8.37243959 L40.7320508,9.94740109 C40.1797661,10.9039863 38.9565852,11.2317366 38,10.6794519 C37.0434148,10.1271671 36.7156644,8.90398634 37.2679492,7.94740109 L38.1990084,6.33353182 C35.6749735,5.11315061 32.9110806,4.33172655 30.0007964,4.08458167 L30,5.99996692 C30,7.10453642 29.1045695,7.99996692 28,7.99996692 C26.8954305,7.99996692 26,7.10453642 26,5.99996692 L26.0002037,4.08449675 C23.0895526,4.33154753 20.3253157,5.11301081 17.8009916,6.33353182 L18.7320314,7.94738064 C19.2843161,8.90396589 18.9565658,10.1271467 17.9999806,10.6794314 C17.0433953,11.2317162 15.8202145,10.9039659 15.2679298,9.94738064 L14.3583819,8.37243959 C12.0588337,10.0089195 10.0503308,12.0478688 8.42958144,14.3906595 L9.94740181,15.267868 C10.858435,15.7938533 11.1990966,16.9283608 10.7523906,17.8615504 L10.6794515,17.9999191 C10.127167,18.956504 8.90398666,19.2842542 7.94740181,18.7319696 L6.42639662,17.853365 C5.23495111,20.3591042 4.44411107,23.1035393 4.1399933,25.998844 L5.99997519,25.9998925 C7.10454012,25.9998925 7.99996692,26.8953193 7.99996692,27.9998842 C7.99996692,29.1044492 7.10454012,29.9998759 5.99997519,29.9998759 L4.03369262,29.9996363 C4.1846646,32.947973 4.84057922,35.7996765 5.9525674,38.4499175 C6.03366691,38.3826329 6.12148675,38.3219723 6.21536278,38.2677729 L7.94739354,37.2677845 C8.85842673,36.7417992 10.0112699,37.0140314 10.5960827,37.8674849 L10.679444,37.9998364 C11.2317286,38.9564213 10.9039784,40.1796016 9.94739354,40.7318861 L8.21536278,41.7318745 C8.06457108,41.8189342 7.90715477,41.8841259 7.74678606,41.9284336 C7.9435257,42.2460965 8.14832478,42.5603097 8.36037224,42.8700682 C8.98431841,43.7815276 8.75123991,45.0262175 7.83977683,45.6501611 C6.92831374,46.2741047 5.68361861,46.0410272 5.05967244,45.1295679 C1.78461616,40.3453723 0,34.6470414 0,28.6807444 C0,12.8522119 12.5242909,0 28,0 Z" id="Path" fill-rule="nonzero"></path>
            <path d="M31.9998677,11.9999504 C33.1044326,11.9999504 33.9998594,12.8953772 33.9998594,13.9999421 L33.9998594,29.9998759 C33.9998594,31.1044409 33.1044326,31.9998677 31.9998677,31.9998677 C30.8953027,31.9998677 29.9998759,31.1044409 29.9998759,29.9998759 L29.9998759,13.9999421 C29.9998759,12.8953772 30.8953027,11.9999504 31.9998677,11.9999504 Z" id="Rectangle" transform="translate(31.999868, 21.999909) rotate(30.000000) translate(-31.999868, -21.999909) "></path>
        </g>
    </g>
</svg>