<?xml version="1.0" encoding="UTF-8"?>
<svg width="64px" height="64px" viewBox="0 0 64 64" version="1.1" xmlns="http://www.w3.org/2000/svg" xmlns:xlink="http://www.w3.org/1999/xlink">
    <title>data_dive_query</title>
    <g id="data_dive_query" stroke="none" stroke-width="1" fill="none" fill-rule="evenodd">
        <path d="M29.9081174,15.9540585 C38.7446734,15.9540585 45.9081174,23.1175025 45.9081174,31.9540585 C45.9081174,35.4677303 44.7755132,38.7168682 42.8554747,41.3563021 L44.9950488,41.6587694 C45.4242405,41.7196078 45.8220481,41.9182421 46.1285663,42.2247603 L56.5251263,52.6213203 C57.8919613,53.9881553 57.8919613,56.2042327 56.5251263,57.5710677 C55.1582912,58.9379027 52.9422138,58.9379027 51.5753788,57.5710677 L41.1346957,47.1303846 C40.8555296,46.8512185 40.6652313,46.4956739 40.5877764,46.1085458 L40.2063422,44.1997978 C37.4234133,46.5425677 33.830601,47.9540585 29.9081174,47.9540585 C21.0715614,47.9540585 13.9081174,40.7906145 13.9081174,31.9540585 C13.9081174,23.1175025 21.0715614,15.9540585 29.9081174,15.9540585 Z M29.9081174,19.9540585 C23.2807004,19.9540585 17.9081174,25.3266415 17.9081174,31.9540585 C17.9081174,38.5814755 23.2807004,43.9540585 29.9081174,43.9540585 C36.5355344,43.9540585 41.9081174,38.5814755 41.9081174,31.9540585 C41.9081174,25.3266415 36.5355344,19.9540585 29.9081174,19.9540585 Z" id="Combined-Shape" fill="#000000" fill-rule="nonzero"></path>
        <path d="M44,4 C46.209139,4 48,5.790861 48,8 L48,42.682 L46.8356731,41.5176535 C46.4269821,41.1089625 45.9100964,40.828134 45.3481259,40.7066801 L45.1353968,40.6686672 L44.5561031,40.5867736 C46.0504571,38.05652 46.9081174,35.1054727 46.9081174,31.9540585 C46.9081174,28.4308723 45.8363561,25.1580094 44.0010803,22.4437164 L44,15 C44,13.3431458 42.6568542,12 41,12 L15,12 C13.3431458,12 12,13.3431458 12,15 L12,53 C12,54.6568542 13.3431458,56 15,56 L41,56 C42.6568542,56 44,54.6568542 44,53 L44,51.41 L48,55.41 L48,56 C48,58.209139 46.209139,60 44,60 L12,60 C9.790861,60 8,58.209139 8,56 L8,8 C8,5.790861 9.790861,4 12,4 L44,4 Z" id="Rectangle-2" fill="#000000"></path>
    </g>
</svg>