<?xml version="1.0" encoding="UTF-8"?>
<svg width="64px" height="64px" viewBox="0 0 64 64" version="1.1" xmlns="http://www.w3.org/2000/svg" xmlns:xlink="http://www.w3.org/1999/xlink">
    <title>data_dives</title>
    <g id="data_dives" stroke="none" stroke-width="1" fill="none" fill-rule="evenodd">
        <path d="M32,4 C33.8639271,4 35.4300871,5.27489272 35.8740452,7.00024347 L20,7 C18.6192881,7 17.3692881,7.55964406 16.4644661,8.46446609 C15.5596441,9.36928813 15,10.6192881 15,12 L11,12 C9.34314575,12 8,13.3431458 8,15 L8,45 C8,46.6568542 9.34314575,48 11,48 L15,48 L15,52 L8,52 C5.790861,52 4,50.209139 4,48 L4,8 C4,5.790861 5.790861,4 8,4 L32,4 Z" id="Combined-Shape" fill="#000000"></path>
        <path d="M44,8 C45.8639271,8 47.4300871,9.27489272 47.8740452,11.0002435 L32,11 C30.6192881,11 29.3692881,11.5596441 28.4644661,12.4644661 C27.5596441,13.3692881 27,14.6192881 27,16 L23,16 C21.3431458,16 20,17.3431458 20,19 L20,49 C20,50.6568542 21.3431458,52 23,52 L27,52 L27,56 L20,56 C17.790861,56 16,54.209139 16,52 L16,12 C16,9.790861 17.790861,8 20,8 L44,8 Z" id="Combined-Shape-Copy" fill="#000000"></path>
        <path d="M56,12 C58.209139,12 60,13.790861 60,16 L60,56 C60,58.209139 58.209139,60 56,60 L32,60 C29.790861,60 28,58.209139 28,56 L28,16 C28,13.790861 29.790861,12 32,12 L56,12 Z M53,20 L35,20 C33.3431458,20 32,21.3431458 32,23 L32,53 C32,54.6568542 33.3431458,56 35,56 L53,56 C54.6568542,56 56,54.6568542 56,53 L56,23 C56,21.3431458 54.6568542,20 53,20 Z" id="Combined-Shape-Copy-2" fill="#000000"></path>
    </g>
</svg>