<?xml version="1.0" encoding="UTF-8"?>
<svg width="64px" height="64px" viewBox="0 0 64 64" version="1.1" xmlns="http://www.w3.org/2000/svg" xmlns:xlink="http://www.w3.org/1999/xlink">
    <title>data_dive</title>
    <g id="data_dive" stroke="none" stroke-width="1" fill="none" fill-rule="evenodd">
        <path d="M24,4 C26.209139,4 28,5.790861 28,8 L28,10 L33,15 L36,15 L36,8 C36,5.790861 37.790861,4 40,4 L56,4 C58.209139,4 60,5.790861 60,8 L60,26 C60,28.209139 58.209139,30 56,30 L40,30 C37.790861,30 36,28.209139 36,26 L36,19 L33,19 L28,24 L28,40 L33,45 L36,45 L36,38 C36,35.790861 37.790861,34 40,34 L56,34 C58.209139,34 60,35.790861 60,38 L60,56 C60,58.209139 58.209139,60 56,60 L40,60 C37.790861,60 36,58.209139 36,56 L36,49 L33,49 L28,54 L28,56 C28,58.209139 26.209139,60 24,60 L8,60 C5.790861,60 4,58.209139 4,56 L4,8 C4,5.790861 5.790861,4 8,4 L24,4 Z M21,12 L11,12 C9.34314575,12 8,13.3431458 8,15 L8,53 C8,54.6568542 9.34314575,56 11,56 L21,56 C22.6568542,56 24,54.6568542 24,53 L24,15 C24,13.3431458 22.6568542,12 21,12 Z M53,42 L43,42 C41.3431458,42 40,43.3431458 40,45 L40,53 C40,54.6568542 41.3431458,56 43,56 L53,56 C54.6568542,56 56,54.6568542 56,53 L56,45 C56,43.3431458 54.6568542,42 53,42 Z M28,45 L28,49 L30,47 L28,45 Z M53,12 L43,12 C41.3431458,12 40,13.3431458 40,15 L40,23 C40,24.6568542 41.3431458,26 43,26 L53,26 C54.6568542,26 56,24.6568542 56,23 L56,15 C56,13.3431458 54.6568542,12 53,12 Z M28,15 L28,19 L30,17 L28,15 Z" id="Combined-Shape" fill="#000000"></path>
    </g>
</svg>