<?xml version="1.0" encoding="UTF-8"?>
<svg width="64px" height="64px" viewBox="0 0 64 64" version="1.1" xmlns="http://www.w3.org/2000/svg" xmlns:xlink="http://www.w3.org/1999/xlink">
    <title>database</title>
    <g id="database" stroke="none" stroke-width="1" fill="none" fill-rule="evenodd">
        <path d="M32,6 C32.2869012,6 32.5723914,6.00181231 32.8563504,6.00540084 L33.7035134,6.02145905 L34.5407676,6.04795816 L35.3673914,6.0846817 C35.5042361,6.0916423 35.6406077,6.09901989 35.7764914,6.10680998 L36.5858165,6.15846428 C36.8535592,6.17730828 37.1192296,6.19776615 37.3827073,6.21980183 L38.1664421,6.29060615 L38.9362995,6.37066079 L39.6915577,6.45974927 L40.4314954,6.55765512 C40.5535015,6.57469552 40.6748392,6.59209428 40.7954934,6.60984691 L41.5110972,6.72057293 L42.2095763,6.83957514 L42.8902094,6.96663707 L43.5522747,7.10154226 L43.876119,7.17186842 L43.876119,7.17186842 L44.5089798,7.3181326 L45.121469,7.47169885 L45.7128651,7.63235071 L46.2824463,7.7998717 L46.8294913,7.97404536 C47.1865155,8.09233058 47.5280344,8.21490659 47.8530859,8.34148477 L48.3281925,8.53431759 C50.5518247,9.47548244 51.8940336,10.6172799 51.993991,11.8514617 L52,12 L52,51 C52,51.5935597 51.736354,52.1564549 51.2803688,52.5364426 C46.8720355,56.2100536 40.4282286,58 32,58 C23.6402496,58 17.2715483,56.5847331 12.8905996,53.6641006 C12.3805687,53.32408 12.0572434,52.7710229 12.0068977,52.1661337 L12,52 L12,12 C12,10.7089447 13.35923,9.51312903 15.6718075,8.53431759 L16.1469141,8.34148477 C16.4719656,8.21490659 16.8134845,8.09233058 17.1705087,7.97404536 L17.7175537,7.7998717 L18.2871349,7.63235071 L18.878531,7.47169885 L19.4910202,7.3181326 L20.123881,7.17186842 L20.4477253,7.10154226 L20.4477253,7.10154226 L21.1097906,6.96663707 L21.7904237,6.83957514 L22.4889028,6.72057293 L23.2045066,6.60984691 L23.9365133,6.50761355 C24.0598412,6.49129441 24.1838226,6.47533815 24.3084423,6.45974927 L25.0637005,6.37066079 L25.8335579,6.29060615 L26.6172927,6.21980183 C26.7490316,6.20878399 26.8813186,6.1981606 27.0141387,6.18793617 L27.8173369,6.13141319 C28.0871219,6.11419209 28.3589193,6.0986029 28.6326086,6.0846817 L29.4592324,6.04795816 L30.2964866,6.02145905 L31.1436496,6.00540084 C31.2856291,6.00360657 31.4279914,6.00225636 31.5707215,6.00135472 L32,6 Z M32,45 C25.796053,45 20.4590019,44.0758049 15.9993291,42.2068803 L16,50.883 C19.5265265,52.8797381 24.6595898,53.9385274 31.4009962,53.9974018 L32,54 C39.0038886,54 44.2831979,52.6794395 47.8783333,50.1124923 L48,50.023 L48.0007398,41.5551384 C43.5337772,43.857681 38.1910497,45 32,45 Z M32,32 C25.796053,32 20.4590019,31.0758049 15.9993291,29.2068803 L16.0000043,37.8053369 C20.1940683,39.9249454 25.5222101,41 32,41 C38.4988422,41 43.8179676,39.6372364 48.0011803,36.9402888 L48.0007398,28.5551384 C43.5337772,30.857681 38.1910497,32 32,32 Z M48,15.598 L47.8530859,15.6585152 C47.5280344,15.7850934 47.1865155,15.9076694 46.8294913,16.0259546 L46.2824463,16.2001283 L45.7128651,16.3676493 L45.121469,16.5283011 L44.5089798,16.6818674 L43.876119,16.8281316 L43.5522747,16.8984577 L43.5522747,16.8984577 L42.8902094,17.0333629 L42.2095763,17.1604249 L41.5110972,17.2794271 L40.7954934,17.3901531 L40.0634867,17.4923864 C39.9401588,17.5087056 39.8161774,17.5246619 39.6915577,17.5402507 L38.9362995,17.6293392 L38.1664421,17.7093938 L37.3827073,17.7801982 C37.2509684,17.791216 37.1186814,17.8018394 36.9858613,17.8120638 L36.1826631,17.8685868 C35.9128781,17.8858079 35.6410807,17.9013971 35.3673914,17.9153183 L34.5407676,17.9520418 L33.7035134,17.9785409 L32.8563504,17.9945992 L32,18 L31.1436496,17.9945992 L30.2964866,17.9785409 L29.4592324,17.9520418 L28.6326086,17.9153183 C28.4957639,17.9083577 28.3593923,17.9009801 28.2235086,17.89319 L27.4141835,17.8415357 C27.1464408,17.8226917 26.8807704,17.8022338 26.6172927,17.7801982 L25.8335579,17.7093938 L25.0637005,17.6293392 L24.3084423,17.5402507 L23.5685046,17.4423449 C23.4464985,17.4253045 23.3251608,17.4079057 23.2045066,17.3901531 L22.4889028,17.2794271 L21.7904237,17.1604249 L21.1097906,17.0333629 L20.4477253,16.8984577 L20.123881,16.8281316 L20.123881,16.8281316 L19.4910202,16.6818674 L18.878531,16.5283011 L18.2871349,16.3676493 L17.7175537,16.2001283 L17.1705087,16.0259546 C16.8134845,15.9076694 16.4719656,15.7850934 16.1469141,15.6585152 L16,15.599 L16.0000043,24.8053369 C20.1940683,26.9249454 25.5222101,28 32,28 C38.4988422,28 43.8179676,26.6372364 48.0011803,23.9402888 L48,15.598 Z M32,10 C26.9904794,10 22.3327512,10.5910159 19.0072559,11.5886645 C18.6986586,11.6812437 18.4066647,11.7759762 18.1323977,11.8718951 L17.781,12 L17.8640812,12.0318265 C18.1264055,12.1284287 18.4068311,12.224167 18.7042347,12.3180744 L19.0072559,12.4113355 C22.3327512,13.4089841 26.9904794,14 32,14 C37.0095206,14 41.6672488,13.4089841 44.9927441,12.4113355 C45.3013414,12.3187563 45.5933353,12.2240238 45.8676023,12.1281049 L46.218,11.999 L46.1359188,11.9681735 C45.8735945,11.8715713 45.5931689,11.775833 45.2957653,11.6819256 L44.9927441,11.5886645 C41.6672488,10.5910159 37.0095206,10 32,10 Z" id="Combined-Shape-Copy-3" fill="#000000" fill-rule="nonzero"></path>
    </g>
</svg>