<svg xmlns="http://www.w3.org/2000/svg" width="32" height="32" viewBox="0 0 32 32">
  <path d="M19.9868324 14.8355253C23.4607509 16.4901878 25.4685568 20.5810868 25.9965458 26.9169545 26.0451307 27.4999738 25.5850401 28 25 28L25 28 7 28C6.94602308 28 6.89310977 27.9957436 6.84156142 27.9875585L8.82656187 26 23.895 26 23.8411846 25.554488C23.1638005 20.3760034 21.3690975 17.379442 18.4437642 16.3790191zM16 4C18.4806229 4 20.6096456 5.50537965 21.5233555 7.65242641L19.9293091 9.24740549C19.5772272 7.39804677 17.9518793 6 16 6 13.790861 6 12 7.790861 12 10 12 11.9525218 13.3989674 13.5782973 15.2492321 13.9296564L12.0113866 17.1665502C11.4355814 17.5738035 10.9198002 18.0891452 10.4638796 18.7148555L6.70456187 22.47591C7.69504819 18.5031483 9.55789806 15.8860511 12.2868864 14.7115003 10.8939089 13.6143049 10 11.9115442 10 10 10 6.6862915 12.6862915 4 16 4zM28.2928932 2.29289322C28.6834175 1.90236893 29.3165825 1.90236893 29.7071068 2.29289322 30.0675907 2.65337718 30.0953203 3.22060824 29.7902954 3.61289944L29.7071068 3.70710678 3.70710678 29.7071068C3.31658249 30.0976311 2.68341751 30.0976311 2.29289322 29.7071068 1.93240926 29.3466228 1.90467972 28.7793918 2.20970461 28.3871006L2.29289322 28.2928932 28.2928932 2.29289322z"/>
</svg>
