<?xml version="1.0" encoding="UTF-8"?>
<svg width="64px" height="64px" viewBox="0 0 64 64" version="1.1" xmlns="http://www.w3.org/2000/svg" xmlns:xlink="http://www.w3.org/1999/xlink">
    <title>dead_animal_removal</title>
    <g id="dead_animal_removal" stroke="none" stroke-width="1" fill="none" fill-rule="evenodd">
        <g id="Group" transform="translate(3.385610, 12.500000)" fill="#000000" fill-rule="nonzero">
            <path d="M44.9545488,0.515437075 C45.731306,1.21663094 45.8302202,2.38859325 45.2091542,3.20716035 L45.0989695,3.3401747 L44.5560777,3.94001624 L47.8627315,9.89088957 C48.2913758,10.6624991 48.1612157,11.6169017 47.5592532,12.2450954 L47.4408775,12.3589347 L45.856,13.762 L46.8871718,17.7558298 C53.3934257,18.0885831 57.1143903,21.0666981 57.1143903,27.478586 C57.1143903,30.9960698 55.6811193,33.484297 53.1181141,34.8513214 C51.3147744,35.8131648 49.2769345,36.1251694 46.6143903,36.1251694 L46.0489447,36.1177534 L45.6602043,36.1038003 L44.9896468,36.0675109 L43.8900542,35.9973573 L43.3893763,35.9727657 L42.9378143,35.959455 C41.3675422,35.9328323 40.7120259,36.1584839 40.1380216,36.9089447 L39.98287,37.1268324 C39.931409,37.2039353 39.8799957,37.2855804 39.828004,37.3719722 C39.2584466,38.3183749 38.0295181,38.6238684 37.0831154,38.054311 C36.1367126,37.4847535 35.8312192,36.255825 36.4007766,35.3094223 C38.0808003,32.5178178 39.8651464,31.8550266 43.5013172,31.9777841 L44.0910933,32.0034991 C44.1920391,32.0088077 44.294331,32.0146113 44.3980009,32.0208855 L45.4248842,32.0863445 L45.9785008,32.1132662 L46.300794,32.1223227 L46.6143903,32.1251694 L47.177942,32.1193254 L47.7141067,32.1013363 C51.4591112,31.9272584 53.1143903,30.7647152 53.1143903,27.478586 C53.1143903,23.7423663 51.4249162,22.1215296 47.3756265,21.7900338 L47.4373046,21.6547927 C44.1332562,28.9750037 38.4763202,32.9438184 30.7197451,33.3529828 C23.7011266,33.7232196 17.555743,31.8253651 12.3775802,27.6784054 C11.5893679,28.9450796 10.3810283,29.9434462 9.00881749,30.6295516 C5.77080809,32.2485563 2.57575833,26.5552118 3.38426626,22.3261933 C2.79948646,21.509261 2.31199857,20.6286351 1.91002318,19.6916482 C1.36043826,18.41059 0.988533901,17.0750953 0.732657592,15.6310909 C0.660898578,15.2261284 0.600309377,14.8258315 0.544424036,14.3989261 L0.332237664,12.5768776 L0.289564399,12.2797745 L0.277077706,12.2120162 L0.26662972,12.1923774 C-0.633150761,10.2814127 0.873691396,8.80577049 2.85243565,8.07878689 L3.03356766,8.01476862 C4.87661967,7.38865513 6.88954985,7.55368945 8.39247856,8.80235708 L10.1706808,10.3024015 L10.6936071,10.7323826 L11.0743547,11.0341914 L11.4292792,11.3054168 L11.7565085,11.5457794 L12.0541704,11.7549999 L12.3203929,11.9327991 L12.5533039,12.0788975 L12.7510312,12.1930159 L12.9117028,12.2748749 C13.0060492,12.3186323 13.0744438,12.3406972 13.1143903,12.3406972 L13.2747669,12.3333745 L13.4771409,12.3114388 L13.8582146,12.251242 L14.3306129,12.158439 L14.8924341,12.0331938 L15.7773444,11.8160177 L16.5404232,11.6157112 L17.6867743,11.2990484 L18.0006907,11.2094919 C17.5486662,10.3972239 17.2595393,9.46621212 17.1565978,8.41877043 L17.1500777,8.34801624 L14.6298111,5.55570251 C13.8896621,4.73579207 13.9543214,3.47111396 14.7742318,2.73096488 C15.5941423,1.9908158 16.8588204,2.05547515 17.5989695,2.87538559 L20.5989695,6.19867729 C20.9307379,6.56619841 21.1143903,7.04371751 21.1143903,7.53883575 C21.1143903,9.33301084 21.9988394,10.3228722 23.8755237,10.8847433 C25.5470603,11.3851941 27.806978,11.417919 29.8017766,11.1022382 C30.1801909,11.0423534 30.5505919,11.0928039 30.8802172,11.22978 C31.467866,10.9272946 32.0681796,10.7070666 32.6817751,10.5711228 C34.3094839,10.2104994 35.5041589,10.5709141 37.1444334,11.556384 L37.9003993,12.0253739 L38.2546972,12.2383956 C38.3091997,12.2701591 38.3615542,12.3001072 38.4119491,12.3283218 L38.6923103,12.4774648 C39.0821006,12.6719453 39.3436821,12.7393011 39.6143903,12.7393011 C40.6520806,12.7393011 41.4071127,12.4564428 41.9966488,11.876588 L42.1298111,11.7374968 L42.1453329,11.7202815 C42.1513782,11.7137544 42.1574746,11.7072593 42.1636219,11.7007966 L42.2,11.664 L42.2394766,11.6247117 C42.2492542,11.6153826 42.2590926,11.6061778 42.2689904,11.5970969 L42.2879031,11.5808481 L43.5850777,10.4300162 L40.3660491,4.63289999 C39.9784227,3.93512743 40.0449247,3.07938404 40.5214409,2.45224959 L40.6298111,2.32150363 L42.1298111,0.659857781 C42.8699602,-0.160052653 44.1346383,-0.224712005 44.9545488,0.515437075 Z M4.49277677,11.7495349 L4.32021295,11.8021878 L4.26707771,11.8210162 L4.3394344,12.4025355 L4.46169492,13.4880897 C4.52469302,14.0160827 4.59025561,14.4758049 4.67129977,14.933167 C4.87717341,16.0949879 5.16870567,17.1418693 5.58602128,18.1146137 C5.91891477,18.8905737 6.32565701,19.6014208 6.81661615,20.2459174 C7.34438469,20.6392836 7.63644505,21.2675418 7.6136402,21.9121586 C7.61911331,22.2849453 7.52049615,22.6568588 7.32206872,22.9818786 C7.07186474,23.8234221 7.22408212,24.8807916 7.72138302,25.8913711 C7.82043833,26.0926642 7.92824744,26.2796856 8.03696966,26.4444204 L8.07807771,26.5050162 L8.13468484,26.4601604 C8.9978649,25.7424098 9.49582835,24.7418637 9.2383343,23.5756398 L9.19134241,23.3901395 C8.88789383,22.3280695 9.50287802,21.2210979 10.564948,20.9176493 C11.6270181,20.6142008 12.7339896,21.2291849 13.0374382,22.291255 C13.1430976,22.6610627 13.2194021,23.0219848 13.2684798,23.3736514 C13.5088379,23.4554164 13.7380256,23.5864814 13.9408775,23.766251 C18.5423981,27.8441697 24.0266208,29.7004882 30.5090355,29.3585365 C36.4976267,29.0426343 40.7378226,26.2263774 43.4531101,20.7259855 L43.4970777,20.6340162 L42.3720777,16.2710162 L42.2650704,16.3110522 C41.5418322,16.5644175 40.7603171,16.7057251 39.9286152,16.7339988 L39.6143903,16.7393011 C38.2506068,16.7393011 37.338641,16.3738519 35.8580431,15.4653005 L35.3066916,15.1212629 C34.3395934,14.5186474 33.9531459,14.3864423 33.5470055,14.4764239 C32.4184561,14.7264571 31.1184202,15.73455 29.7126501,17.6032638 C29.0486288,18.4859583 27.794768,18.663228 26.9120735,17.9992068 C26.0604368,17.3585492 25.8654571,16.1688291 26.449158,15.2931401 C25.1507946,15.2450667 23.8778211,15.0608598 22.7282569,14.7166853 C22.3177385,14.5937778 21.9254316,14.4512083 21.5528145,14.2891236 C21.4414476,14.3495053 21.3210608,14.3994682 21.1940375,14.4379335 L19.5921072,14.9145287 L18.5028534,15.2264286 L17.5074344,15.4994896 L16.8949159,15.6600424 L16.3225473,15.8034674 L15.789707,15.9298183 L15.2957733,16.0391485 L14.8401243,16.1315116 C14.7673386,16.1454945 14.6961223,16.1587727 14.6264623,16.1713473 L14.2270747,16.2383604 C14.0366153,16.2676542 13.8599299,16.2906356 13.6966686,16.3073347 L13.3879414,16.3323655 C13.2909296,16.337923 13.1997804,16.3406972 13.1143903,16.3406972 C11.6447621,16.3406972 10.2962066,15.554553 8.24150885,13.8942254 L7.61101552,13.376183 L5.83630204,11.8790374 C5.56699137,11.6552879 5.06211388,11.5955609 4.49277677,11.7495349 Z" id="Combined-Shape"></path>
            <path d="M8.22728975,15.7097046 L8.32149708,15.7928932 L8.6143903,16.085 L8.90728352,15.7928932 L9.00149086,15.7097046 C9.39378207,15.4046797 9.96101312,15.4324093 10.3214971,15.7928932 C10.7120214,16.1834175 10.7120214,16.8165825 10.3214971,17.2071068 L10.3214971,17.2071068 L10.0293903,17.5 L10.3214971,17.7928932 C10.7120214,18.1834175 10.7120214,18.8165825 10.3214971,19.2071068 C9.96101312,19.5675907 9.39378207,19.5953203 9.00149086,19.2902954 L8.90728352,19.2071068 L8.6143903,18.915 L8.32149708,19.2071068 L8.22728975,19.2902954 C7.83499854,19.5953203 7.26776748,19.5675907 6.90728352,19.2071068 C6.51675923,18.8165825 6.51675923,18.1834175 6.90728352,17.7928932 L6.90728352,17.7928932 L7.1993903,17.5 L6.90728352,17.2071068 C6.51675923,16.8165825 6.51675923,16.1834175 6.90728352,15.7928932 C7.26776748,15.4324093 7.83499854,15.4046797 8.22728975,15.7097046 Z" id="Combined-Shape"></path>
        </g>
    </g>
</svg>