<?xml version="1.0" encoding="UTF-8"?>
<svg width="64px" height="64px" viewBox="0 0 64 64" version="1.1" xmlns="http://www.w3.org/2000/svg" xmlns:xlink="http://www.w3.org/1999/xlink">
    <title>delete</title>
    <g id="delete" stroke="none" stroke-width="1" fill="none" fill-rule="evenodd">
        <g id="Group" transform="translate(8.000000, 4.000000)" fill="#000000">
            <path d="M32,0 C33.0256717,0 33.8710143,0.77208038 33.9865445,1.76675775 L34,2 L34,6 L42,6 C45.3137085,6 48,8.6862915 48,12 L48,16 C48,17.1045695 47.1045695,18 46,18 L43.869,18 L41.424008,54.1350295 C41.3565235,55.1322997 40.5659513,55.9178924 39.5849682,55.9939585 L39.4285714,56 L8.57142857,56 C7.51926981,56 6.64702828,55.1847876 6.57599202,54.1350295 L6.57599202,54.1350295 L4.13,18 L2,18 C0.8954305,18 0,17.1045695 0,16 L0,12 C0,8.6862915 2.6862915,6 6,6 L14,6 L14,2 C14,0.974328322 14.7720804,0.128985679 15.7667577,0.0134554627 L16,0 L32,0 Z M39.86,18 L8.138,18 L10.44,52 L37.558,52 L39.86,18 Z M42,10 L6,10 C4.97432832,10 4.12898568,10.7720804 4.01345546,11.7667577 L4,12 L4,14 L44,14 L44,12 C44,10.9743283 43.2279196,10.1289857 42.2332423,10.0134555 L42,10 Z M30,4 L18,4 L18,6 L30,6 L30,4 Z" id="Combined-Shape" fill-rule="nonzero"></path>
            <path d="M14.9091937,22.0021012 C15.9337918,21.955528 16.8133074,22.6884248 16.9738819,23.6768274 L16.9979141,23.9092174 L17.9978988,45.9091525 C18.0480539,47.0125794 17.1942195,47.947743 16.0908063,47.9978988 C15.0662082,48.044472 14.1866926,47.3115752 14.0261181,46.3231726 L14.0020859,46.0907826 L13.0021012,24.0908475 C12.9519461,22.9874206 13.8057805,22.052257 14.9091937,22.0021012 Z" id="Path-29" fill-rule="nonzero"></path>
            <path d="M33.0913032,22.0021012 C34.1167632,22.0486745 34.926844,22.8583411 34.997147,23.8572355 L35,24.0908475 L33.9991742,46.0907826 C33.9489768,47.1942095 33.0130382,48.0480545 31.9086968,47.9978988 C30.8832368,47.9513255 30.073156,47.1416589 30.002853,46.1427645 L30,45.9091525 L31.0008258,23.9092174 C31.0510232,22.8057905 31.9869618,21.9519455 33.0913032,22.0021012 Z" id="Path-29-Copy" fill-rule="nonzero"></path>
            <rect id="Rectangle" x="22" y="22" width="4" height="26" rx="2"></rect>
        </g>
    </g>
</svg>