<?xml version="1.0" encoding="UTF-8"?>
<svg width="64px" height="64px" viewBox="0 0 64 64" version="1.1" xmlns="http://www.w3.org/2000/svg" xmlns:xlink="http://www.w3.org/1999/xlink">
    <title>demo_mode</title>
    <g id="demo_mode" stroke="none" stroke-width="1" fill="none" fill-rule="evenodd">
        <path d="M56,8 C58.209139,8 60,9.790861 60,12 L60,40 C60,42.209139 58.209139,44 56,44 L34,44 L34,49.171 L41.4142136,56.5857864 C42.1952621,57.366835 42.1952621,58.633165 41.4142136,59.4142136 C40.633165,60.1952621 39.366835,60.1952621 38.5857864,59.4142136 L32,52.829 L25.4142136,59.4142136 C24.6742728,60.1541543 23.4987886,60.1930986 22.7130012,59.5310463 L22.5857864,59.4142136 C21.8047379,58.633165 21.8047379,57.366835 22.5857864,56.5857864 L30,49.17 L30,44 L8,44 C5.790861,44 4,42.209139 4,40 L4,12 C4,9.790861 5.790861,8 8,8 L56,8 Z M56,12 L8,12 L8,40 L56,40 L56,12 Z" id="Combined-Shape" fill="#000000" fill-rule="nonzero"></path>
        <path d="M23,16 L23,36 C23,37.5973908 24.7802909,38.5501736 26.1094004,37.6641006 L41.1094004,27.6641006 C42.2968665,26.8724565 42.2968665,25.1275435 41.1094004,24.3358994 L26.1094004,14.3358994 C24.7802909,13.4498264 23,14.4026092 23,16 Z M27,19.737 L36.393,25.999 L27,32.262 L27,19.737 Z" id="Path-278" fill="#000000" fill-rule="nonzero"></path>
    </g>
</svg>