<?xml version="1.0" encoding="UTF-8"?>
<svg width="64px" height="64px" viewBox="0 0 64 64" version="1.1" xmlns="http://www.w3.org/2000/svg" xmlns:xlink="http://www.w3.org/1999/xlink">
    <title>design</title>
    <g id="design" stroke="none" stroke-width="1" fill="none" fill-rule="evenodd">
        <g id="Group" transform="translate(4.000000, 6.000000)" fill="#000000">
            <path d="M28,0 C12.5702013,0 0,11.6032684 0,26 C0,31.2167542 1.12667859,34.3918762 3.63355283,35.87076 C5.46686351,36.9522876 7.11167649,36.9548455 10.4057791,36.3321742 L11.7895864,36.0612027 C14.5515234,35.5279695 15.7788107,35.6072378 16.5857864,36.4142136 C17.9330778,37.761505 18.2582119,39.1317124 18.1258906,41.9969719 L18.0624876,43.0959556 C17.6862739,49.326195 19.8508231,52 28,52 C43.4298048,52 56,40.3967429 56,26 C56,11.6032571 43.4298048,0 28,0 Z M28,4 C41.2890022,4 52,13.8870749 52,26 C52,38.1129251 41.2890022,48 28,48 L27.0977654,47.99389 L26.2873473,47.9736129 L25.5641468,47.9362475 C22.7261281,47.7409011 22.039644,47.024483 22.0076991,44.8361584 L22.011833,44.2822131 L22.0551009,43.3389283 L22.0905099,42.7615535 L22.1405592,41.6868675 C22.2520073,38.0627762 21.6638185,35.8353914 19.4142136,33.5857864 C17.3403426,31.5119154 15.0262153,31.3624501 11.0236468,32.1352282 L9.73956796,32.3869453 L8.92074044,32.5330575 C7.14504738,32.8266321 6.28199073,32.7889878 5.66597299,32.4255796 C4.67057648,31.8383639 4,29.9485951 4,26 C4,13.8870857 14.7110044,4 28,4 Z" id="Oval" fill-rule="nonzero"></path>
            <circle id="Oval" cx="30" cy="14" r="4"></circle>
            <circle id="Oval-Copy" cx="14" cy="22" r="4"></circle>
            <circle id="Oval-Copy-2" cx="42" cy="26" r="4"></circle>
            <circle id="Oval-Copy-3" cx="34" cy="40" r="4"></circle>
        </g>
    </g>
</svg>