<?xml version="1.0" encoding="UTF-8"?>
<svg width="64px" height="64px" viewBox="0 0 64 64" version="1.1" xmlns="http://www.w3.org/2000/svg" xmlns:xlink="http://www.w3.org/1999/xlink">
    <title>desktop</title>
    <g id="desktop" stroke="none" stroke-width="1" fill="none" fill-rule="evenodd">
        <path d="M58,6 C59.1045695,6 60,6.8954305 60,8 L60,8 L60,42 C60,43.1045695 59.1045695,44 58,44 L58,44 L41.033,44 L45.8382901,55.2121614 C46.3843881,56.4863901 45.5007701,57.898928 44.1468219,57.9948293 L44,58 L20,58 C18.5641691,58 17.5961084,56.5318982 18.1617099,55.2121614 L18.1617099,55.2121614 L22.966,44 L6,44 C4.9456382,44 4.08183488,43.1841222 4.00548574,42.1492623 L4,42 L4,8 C4,6.8954305 4.8954305,6 6,6 L6,6 Z M36.68,44 L27.318,44 L23.032,54 L40.966,54 L36.68,44 Z M56,10 L8,10 L8,40 L56,40 L56,10 Z" id="Combined-Shape" fill="#000000" fill-rule="nonzero"></path>
    </g>
</svg>