<?xml version="1.0" encoding="UTF-8"?>
<svg width="64px" height="64px" viewBox="0 0 64 64" version="1.1" xmlns="http://www.w3.org/2000/svg" xmlns:xlink="http://www.w3.org/1999/xlink">
    <title>detail_report</title>
    <g id="detail_report" stroke="none" stroke-width="1" fill="none" fill-rule="evenodd">
        <path d="M19,11 L19,15 L18,15 C16.9456382,15 16.0818349,15.8158778 16.0054857,16.8507377 L16,17 L16,54 C16,55.0543618 16.8158778,55.9181651 17.8507377,55.9945143 L18,56 L46,56 C47.0543618,56 47.9181651,55.1841222 47.9945143,54.1492623 L48,54 L48,17 C48,15.9456382 47.1841222,15.0818349 46.1492623,15.0054857 L46,15 L45,15 L45,11 L46,11 C49.2383969,11 51.8775718,13.5655749 51.9958615,16.7750617 L52,17 L52,54 C52,57.2383969 49.4344251,59.8775718 46.2249383,59.9958615 L46,60 L18,60 C14.7616031,60 12.1224282,57.4344251 12.0041385,54.2249383 L12,54 L12,17 C12,13.7616031 14.5655749,11.1224282 17.7750617,11.0041385 L18,11 L19,11 Z M32,4 C34.963829,4 37.0330253,5.3866802 37.735469,7.90524888 L37.735469,7.90524888 L37.76,8 L39,8 C41.1421954,8 42.8910789,9.68396847 42.9951047,11.8003597 L42.9951047,11.8003597 L43,12 L43,15 C43,17.209139 41.209139,19 39,19 L39,19 L25,19 C22.790861,19 21,17.209139 21,15 L21,15 L21,12 C21,9.790861 22.790861,8 25,8 L25,8 L26.239,8 L26.2645206,7.90528649 C26.945668,5.46301662 28.9120034,4.08508155 31.7330372,4.00381301 L31.7330372,4.00381301 Z M32,8 C30.6056662,8 30.1729885,8.34309099 30.0364954,9.38854796 L30.0364954,9.38854796 L30.007958,9.56596746 C29.7391369,10.9701091 28.5081567,12 27.061759,12 L27.061759,12 L25,12 L25,15 L39,15 L39,12 L36.9380147,12 C35.4314048,11.9998666 34.1585421,10.8823511 33.9634841,9.38839093 L33.9634841,9.38839093 L33.9429748,9.25016844 C33.7856835,8.31260686 33.3309483,8 32,8 Z" id="Combined-Shape" fill="#000000" fill-rule="nonzero"></path>
        <path d="M43,21 C44.1045695,21 45,21.8954305 45,23 L45,52 C45,53.1045695 44.1045695,54 43,54 L21,54 C19.8954305,54 19,53.1045695 19,52 L19,23 C19,21.8954305 19.8954305,21 21,21 L43,21 Z M30.5,48 L22,48 L22,51 L30.5,51 L30.5,48 Z M42,48 L33.5,48 L33.5,51 L42,51 L42,48 Z M30.5,42 L22,42 L22,45 L30.5,45 L30.5,42 Z M42,42 L33.5,42 L33.5,45 L42,45 L42,42 Z M30.5,36 L22,36 L22,39 L30.5,39 L30.5,36 Z M42,36 L33.5,36 L33.5,39 L42,39 L42,36 Z M30.5,30 L22,30 L22,33 L30.5,33 L30.5,30 Z M42,30 L33.5,30 L33.5,33 L42,33 L42,30 Z M30.5,24 L22,24 L22,27 L30.5,27 L30.5,24 Z M42,24 L33.5,24 L33.5,27 L42,27 L42,24 Z" id="Rectangle" fill="#000000" fill-rule="nonzero"></path>
    </g>
</svg>