<?xml version="1.0" encoding="UTF-8"?>
<svg width="64px" height="64px" viewBox="0 0 64 64" version="1.1" xmlns="http://www.w3.org/2000/svg" xmlns:xlink="http://www.w3.org/1999/xlink">
    <title>developer</title>
    <g id="developer" stroke="none" stroke-width="1" fill="none" fill-rule="evenodd">
        <path d="M32.0082477,3.9992768 L32.3454403,4.00197937 C38.14544,4.09556445 41.6238004,6.61424786 42.9834387,10.7141945 L43.0595302,10.9524783 L43.1662479,11.3201088 C43.5651878,12.7790237 43.6698156,14.2236039 43.594702,15.7357988 L43.5608226,16.2681715 L43.5848284,16.3106121 C44.0729298,17.2062021 44.2455776,18.5534913 44.2455776,20.4889028 C44.2455776,21.6848045 43.8516896,22.9660557 43.1791706,24.3334295 L43.0308366,24.6277567 L42.8455582,24.9775604 C42.5949386,25.4387524 42.3310352,25.8783372 42.0663611,26.2872415 L41.8679064,26.5880254 L41.6836792,26.8564605 L41.6130737,27.1487116 C41.4807534,27.6675574 41.3193469,28.180659 41.1229778,28.6747212 L40.9628219,29.0567468 L41.2825103,29.2297302 L41.8984937,29.5518491 L42.5638267,29.8878262 L43.2816043,30.2397213 L44.1201721,30.6407552 L47.0410115,31.9992768 L38.2534549,32.0003411 C37.089513,30.929951 36.6465136,29.2410525 37.1972134,27.7073749 L37.2738777,27.5102375 L37.405822,27.197307 C37.4885221,26.9892345 37.5653683,26.765639 37.6323532,26.542274 L37.7249335,26.2093684 L37.795539,25.9171173 C37.8908914,25.5224336 38.0456673,25.1450352 38.2541661,24.7977131 L38.3856664,24.5930313 L38.5291487,24.3851417 L38.7084138,24.1137212 C38.8745262,23.8570884 39.0338691,23.5953564 39.1754805,23.3476439 L39.3107756,23.1053125 L39.4588276,22.8275481 L39.5898124,22.5680662 C40.0481912,21.6360849 40.2455776,20.9432394 40.2455776,20.4889028 L40.2412975,20.0172407 L40.2296889,19.6022907 L40.2125995,19.2439437 L40.18073,18.8123152 L40.1580213,18.5949985 L40.1263833,18.3744042 L40.1096024,18.297436 L40.1031981,18.2799394 L40.0791923,18.2374988 C39.7393692,17.6367159 39.5615146,16.9595577 39.560823,16.2722279 L39.5688978,16.0141317 L39.5996275,15.5373559 C39.6528795,14.4652802 39.5866172,13.5526806 39.4003155,12.7367727 L39.3248245,12.4352171 L39.233,12.12 L39.1867624,11.9732613 C38.3642484,9.49299613 36.3864295,8.14417327 32.6478419,8.0104908 L32.3133817,8.0018509 L32.006,7.999 L31.7285124,8.00145877 C27.7824609,8.06512973 25.7082112,9.38899415 24.8609458,11.8535483 L24.7913129,12.0675865 L24.7015186,12.3751728 C24.4466629,13.3071746 24.3532532,14.2907831 24.405269,15.4517797 L24.4279718,15.845521 L24.4369953,15.963739 C24.4906914,16.6672166 24.3572758,17.3707575 24.0525141,18.0036247 L23.933,18.231 L23.913043,18.2910447 L23.8868121,18.4092478 L23.8596924,18.5800617 L23.8332323,18.8041342 L23.8089803,19.082113 L23.7884848,19.4146458 L23.7732941,19.8023805 L23.7649568,20.2459647 L23.7638421,20.4889028 C23.7638421,20.9454822 23.9616743,21.6355099 24.3990162,22.5281465 L24.5133656,22.7555088 L24.6784499,23.0676734 C24.8567095,23.3957079 25.0501886,23.722167 25.2449093,24.0273014 L25.439526,24.3245962 L25.6237532,24.5930313 C25.8535131,24.9278113 26.0306903,25.2952257 26.149584,25.6824836 L26.2138807,25.9171173 L26.2722871,26.1602377 C26.3686022,26.5379026 26.4792686,26.8841982 26.6027586,27.1951987 L26.7495959,27.5441975 C27.3938616,29.121478 26.9605432,30.8923898 25.7560932,32.0001926 L16.9680115,31.9992768 L19.8892476,30.6407552 L20.7278154,30.2397213 L21.445593,29.8878262 L22.110926,29.5518491 L22.7269094,29.2297302 L23.0465978,29.0567468 L23.040366,29.0414902 C22.772594,28.4368508 22.5617463,27.7972689 22.396346,27.1487116 L22.3257405,26.8564605 L22.1415133,26.5880254 C21.8111663,26.0967791 21.477136,25.5540505 21.1638615,24.9775604 L20.978583,24.6277567 C20.2160094,23.149527 19.7638421,21.7702261 19.7638421,20.4889028 C19.7638421,18.5534913 19.9364899,17.2062021 20.4245912,16.3106121 L20.448597,16.2681715 L20.4395735,16.1499536 C20.3230132,14.4861363 20.4079646,12.9116524 20.8431718,11.3201088 L20.9498895,10.9524783 C22.2526948,6.71201715 25.7524413,4.09736417 31.6639794,4.00197937 L32.0082477,3.9992768 Z" id="Path" fill="#000000" fill-rule="nonzero"></path>
        <path d="M52.1663582,34 L11.8336418,34 C10.7193105,34 9.86269009,34.9987214 10.0182996,36.1164814 L13.1208162,58.4021957 C13.2483942,59.318602 14.0225632,60 14.9361584,60 L49.0638416,60 C49.9774368,60 50.7516058,59.318602 50.8791838,58.4021957 L53.9817004,36.1164814 C54.1373099,34.9987214 53.2806895,34 52.1663582,34 Z M50,38 L47.4230232,56 L16.5769768,56 L14,38 L50,38 Z" id="Path-83" fill="#000000" fill-rule="nonzero"></path>
        <ellipse id="Oval" fill="#000000" cx="32" cy="47.5" rx="3" ry="2.5"></ellipse>
    </g>
</svg>