<?xml version="1.0" encoding="UTF-8"?>
<svg width="64px" height="64px" viewBox="0 0 64 64" version="1.1" xmlns="http://www.w3.org/2000/svg" xmlns:xlink="http://www.w3.org/1999/xlink">
    <title>device_sync</title>
    <g id="device_sync" stroke="none" stroke-width="1" fill="none" fill-rule="evenodd">
        <path d="M56.6666667,4 C58.5076158,4 60,5.44646465 60,7.23076923 L60,56.7692308 C60,58.5535353 58.5076158,60 56.6666667,60 L27.3333333,60 C25.4923842,60 24,58.5535353 24,56.7692308 L24,35 L28,35 L28,52 L56,52 L56,8 L28,8 L28,29 L24,29 L24,7.23076923 C24,5.44646465 25.4923842,4 27.3333333,4 L56.6666667,4 Z M42,54 C40.8954305,54 40,54.8954305 40,56 C40,57.1045695 40.8954305,58 42,58 C43.1045695,58 44,57.1045695 44,56 C44,54.8954305 43.1045695,54 42,54 Z" id="Rectangle" fill="#000000" fill-rule="nonzero"></path>
        <path d="M22,42 C22,43.1045695 21.1045695,44 20,44 L6,44 C4.8954305,44 4,43.1045695 4,42 L4,22 C4,20.8954305 4.8954305,20 6,20 L20,20 C21.1045695,20 22,20.8954305 22,22 L22,30 L39.171,30 L34.5857864,25.4142136 C33.8458457,24.6742728 33.8069014,23.4987886 34.4689537,22.7130012 L34.5857864,22.5857864 C35.3257272,21.8458457 36.5012114,21.8069014 37.2869988,22.4689537 L37.4142136,22.5857864 L45.4142136,30.5857864 C46.1541543,31.3257272 46.1930986,32.5012114 45.5310463,33.2869988 L45.4142136,33.4142136 L37.4142136,41.4142136 C36.633165,42.1952621 35.366835,42.1952621 34.5857864,41.4142136 C33.8458457,40.6742728 33.8069014,39.4987886 34.4689537,38.7130012 L34.5857864,38.5857864 L39.171,34 L22,34 Z M18,24 L8,24 L8,40 L18,40 L18,24 Z" id="Combined-Shape" fill="#000000"></path>
    </g>
</svg>