<?xml version="1.0" encoding="UTF-8"?>
<svg width="64px" height="64px" viewBox="0 0 64 64" version="1.1" xmlns="http://www.w3.org/2000/svg" xmlns:xlink="http://www.w3.org/1999/xlink">
    <title>dialpad</title>
    <g id="dialpad" stroke="none" fill="none" fill-rule="evenodd">
        <path d="M58.6667716,18.000005 L58.6667716,60 L51.6667725,60 L51.6666779,55.9911527 C49.264144,58.4795439 46.0518833,60 42.5228114,60 C35.0795657,60 29.0456229,53.2364053 29.0456229,44.8930883 C29.0456229,36.5497714 35.0795657,29.7861766 42.5228114,29.7861766 C46.0518833,29.7861766 49.264144,31.3066327 51.6666779,33.7950239 L51.6667725,18.000005 L58.6667716,18.000005 Z M43.883082,35.2471101 C39.1990413,35.2471101 35.4018761,39.6045149 35.4018761,44.9796461 C35.4018761,50.3547773 39.1990413,54.712182 43.883082,54.712182 C47.3691695,54.712182 50.3640123,52.2985939 51.667865,48.8481754 L51.667865,41.1111167 C50.3640123,37.6606982 47.3691695,35.2471101 43.883082,35.2471101 Z M23.0637462,4.43303671 C25.2064101,12.468026 29.4004346,16.8018514 35.4478421,18.0113329 C36.0056649,18.1228975 36.090195,18.885355 35.5703551,19.1163949 C26.2056356,23.2784925 23.5962386,26.2832527 18.9512015,36.9004804 C18.7186025,37.4321353 17.9367823,37.3349827 17.84138,36.7625688 C16.7060987,29.9508809 11.6031076,24.354052 5.47909477,23.2405951 C4.89343764,23.134112 4.82467429,22.3218839 5.3840945,22.1184583 C12.5508689,19.5123585 19.3476239,12.7156036 21.9433293,4.40934618 C22.117695,3.85137611 22.9131218,3.86819492 23.0637462,4.43303671 Z" id="Combined-Shape" fill="#000000"></path>
    </g>
</svg>