<?xml version="1.0" encoding="UTF-8"?>
<svg width="64px" height="64px" viewBox="0 0 64 64" version="1.1" xmlns="http://www.w3.org/2000/svg" xmlns:xlink="http://www.w3.org/1999/xlink">
    <title>differential</title>
    <g id="differential" stroke="none" stroke-width="1" fill="none" fill-rule="evenodd">
        <path d="M10,4 C11.1045695,4 12,4.8954305 12,6 C12,7.1045695 11.1045695,8 10,8 L10,21.335 L19.658,34.211 L30.2111456,13.1055728 C30.9669348,11.5939944 33.114747,11.6566855 33.8082601,13.1442524 L33.8726584,13.2977531 L44.59,41.879 L54.4,28.8 C55.0296046,27.9605272 56.1924613,27.7569283 57.0647972,28.3068853 L57.2,28.4 C58.0394728,29.0296046 58.2430717,30.1924613 57.6931147,31.0647972 L57.6,31.2 L45.6,47.2 C44.6848072,48.4202571 42.8166973,48.199093 42.1896737,46.850985 L42.1273416,46.7022469 L31.737,18.996 L21.7888544,38.8944272 C21.1476998,40.1767364 19.4214195,40.376127 18.499078,39.3222622 L18.4,39.2 L10,28.001 L10,54 L56,54 C56,52.8954305 56.8954305,52 58,52 C59.1045695,52 60,52.8954305 60,54 L60,58 C60,59.1045695 59.1045695,60 58,60 C56.8954305,60 56,59.1045695 56,58 L6,58 L6,8 C4.8954305,8 4,7.1045695 4,6 C4,4.8954305 4.8954305,4 6,4 L10,4 Z" id="Combined-Shape" fill="#000000" fill-rule="nonzero"></path>
    </g>
</svg>