<?xml version="1.0" encoding="UTF-8"?>
<svg width="64px" height="64px" viewBox="0 0 64 64" version="1.1" xmlns="http://www.w3.org/2000/svg" xmlns:xlink="http://www.w3.org/1999/xlink">
    <title>disabled_filled</title>
    <g id="disabled_filled" stroke="none" stroke-width="1" fill="none" fill-rule="evenodd">
        <path d="M32,4 C47.463973,4 60,16.536027 60,32 C60,47.463973 47.463973,60 32,60 C16.536027,60 4,47.463973 4,32 C4,16.536027 16.536027,4 32,4 Z M32,8 C18.745166,8 8,18.745166 8,32 C8,45.254834 18.745166,56 32,56 C45.254834,56 56,45.254834 56,32 C56,18.745166 45.254834,8 32,8 Z M47.4172205,19.25908 C50.2797807,22.7190222 52,27.1586217 52,32 C52,43.045695 43.045695,52 32,52 C27.1586217,52 22.7190222,50.2797807 19.25908,47.4172205 Z M32,12 C36.7633632,12 41.137792,13.665226 44.5728964,16.4452879 L16.4452879,44.5728964 C13.665226,41.137792 12,36.7633632 12,32 C12,20.954305 20.954305,12 32,12 Z" id="Oval-2" fill="#000000"></path>
    </g>
</svg>