<?xml version="1.0" encoding="UTF-8"?>
<svg width="64px" height="64px" viewBox="0 0 64 64" version="1.1" xmlns="http://www.w3.org/2000/svg" xmlns:xlink="http://www.w3.org/1999/xlink">
    <title>documentation</title>
    <g id="documentation" stroke="none" stroke-width="1" fill="none" fill-rule="evenodd">
        <path d="M48,56 L16,56 L16,8 L40,8 L40,16 L48,16 L48,56 Z M45,52 L37,52 L37,54 L45,54 L45,52 Z M45,46 L19,46 L19,48 L45,48 L45,46 Z M45,40 L19,40 L19,42 L45,42 L45,40 Z M45,35 L19,35 L19,37 L45,37 L45,35 Z M45,29 L19,29 L19,31 L45,31 L45,29 Z M45,23 L19,23 L19,25 L45,25 L45,23 Z M45,17 L19,17 L19,19 L45,19 L45,17 Z M47,15 L41,15 L41,9 L47,15 Z M35,11 L19,11 L19,13 L35,13 L35,11 Z" id="Path-4" fill="#000000" fill-rule="nonzero"></path>
    </g>
</svg>