<?xml version="1.0" encoding="UTF-8"?>
<svg width="64px" height="64px" viewBox="0 0 64 64" version="1.1" xmlns="http://www.w3.org/2000/svg" xmlns:xlink="http://www.w3.org/1999/xlink">
    <title>documents</title>
    <g id="documents" stroke="none" stroke-width="1" fill="none" fill-rule="evenodd">
        <g id="Group" transform="translate(8.000000, 4.000000)" fill="#000000" fill-rule="nonzero">
            <path d="M48,54 C48,55.1045695 47.1045695,56 46,56 L46,56 L16,56 C14.8954305,56 14,55.1045695 14,54 L14,54 L14,10 C14,8.8954305 14.8954305,8 16,8 L16,8 L38,8 L38.0003937,8.02803087 C38.4120842,8.09770328 38.7947232,8.29514392 39.0916342,8.59662285 L39.0916342,8.59662285 L47.4249676,17.0581613 C47.6835428,17.3207146 47.8623754,17.6472411 47.9460541,18.0001297 L48,18 Z M34,12 L18,12 L18,52 L44,52 L44,22 L36,22 C34.9743283,22 34.1289857,21.2279196 34.0134555,20.2332423 L34,20 L34,12 Z M42.737,18 L38,13.19 L38,18 L42.737,18 Z" id="Combined-Shape"></path>
            <path d="M23.6666667,0 C24.202392,0 24.7157219,0.214927256 25.0916342,0.596622849 L25.0916342,0.596622849 L30.413,6 L24.798,6 L22.828,4 L4,4 L4,44 L12,44 L12,48 L2,48 C0.945638205,48 0.0818348781,47.1841222 0.00548573643,46.1492623 L0,46 L0,2 C0,0.8954305 0.8954305,0 2,0 L2,0 Z" id="Path-11-Copy"></path>
        </g>
    </g>
</svg>