<?xml version="1.0" encoding="UTF-8"?>
<svg width="64px" height="64px" viewBox="0 0 64 64" version="1.1" xmlns="http://www.w3.org/2000/svg" xmlns:xlink="http://www.w3.org/1999/xlink">
    <title>download</title>
    <g id="download" stroke="none" stroke-width="1" fill="none" fill-rule="evenodd">
        <path d="M32,4 C34.209139,4 36,5.790861 36,8 L36,34.343 L45.1715729,25.1715729 C46.73367,23.6094757 49.26633,23.6094757 50.8284271,25.1715729 C52.3384544,26.6816001 52.3887886,29.0985644 50.9794299,30.6690541 L50.8284271,30.8284271 L34.8284271,46.8284271 C33.3183999,48.3384544 30.9014356,48.3887886 29.3309459,46.9794299 L29.1715729,46.8284271 L13.1715729,30.8284271 C11.6094757,29.26633 11.6094757,26.73367 13.1715729,25.1715729 C14.6816001,23.6615456 17.0985644,23.6112114 18.6690541,25.0205701 L18.8284271,25.1715729 L28,34.343 L28,8 C28,5.790861 29.790861,4 32,4 Z" id="Combined-Shape" fill="#000000"></path>
        <path d="M56,44 C58.1421954,44 59.8910789,45.6839685 59.9951047,47.8003597 L60,48 L60,56 C60,58.1421954 58.3160315,59.8910789 56.1996403,59.9951047 L56,60 L8,60 C5.85780461,60 4.10892112,58.3160315 4.00489531,56.1996403 L4,56 L4,48 C4,45.790861 5.790861,44 8,44 C10.1421954,44 11.8910789,45.6839685 11.9951047,47.8003597 L12,48 L12,52 L52,52 L52,48 C52,45.8578046 53.6839685,44.1089211 55.8003597,44.0048953 L56,44 Z" id="Path-26" fill="#000000" fill-rule="nonzero"></path>
    </g>
</svg>