<svg xmlns="http://www.w3.org/2000/svg" width="32" height="32" viewBox="0 0 32 32">
  <g fill="none" fill-rule="evenodd">
    <path fill="#000" fill-rule="nonzero" d="M16,10 C16.5522847,10 17,10.4725883 17,11.0555556 L17,26.585 L20.2928932,23.2928932 C20.6533772,22.9324093 21.2206082,22.9046797 21.6128994,23.2097046 L21.7071068,23.2928932 C22.0675907,23.6533772 22.0953203,24.2206082 21.7902954,24.6128994 L21.7071068,24.7071068 L16.7071068,29.7071068 C16.3466228,30.0675907 15.7793918,30.0953203 15.3871006,29.7902954 L15.2928932,29.7071068 L10.2928932,24.7071068 C9.90236893,24.3165825 9.90236893,23.6834175 10.2928932,23.2928932 C10.6533772,22.9324093 11.2206082,22.9046797 11.6128994,23.2097046 L11.7071068,23.2928932 L15,26.585 L15,11.0555556 C15,10.4725883 15.4477153,10 16,10 Z"/>
    <path fill="#000" fill-rule="nonzero" d="M28,19 L28,4 L4,4 L4,19 L14,19 L14,21 L3,21 C2.48716416,21 2.06449284,20.6666017 2.00672773,20.2370819 L2,20.1363636 L2,2.86363636 C2,2.38666317 2.44771525,2 3,2 L3,2 L29,2 C29.5522847,2 30,2.38666317 30,2.86363636 L30,2.86363636 L30,20.1363636 C30,20.6133368 29.5522847,21 29,21 L29,21 L18,21 L18,19 L28,19 Z"/>
  </g>
</svg>
