<?xml version="1.0" encoding="UTF-8"?>
<svg width="64px" height="64px" viewBox="0 0 64 64" version="1.1" xmlns="http://www.w3.org/2000/svg" xmlns:xlink="http://www.w3.org/1999/xlink">
    <title>driving</title>
    <g id="driving" stroke="none" stroke-width="1" fill="none" fill-rule="evenodd">
        <path d="M45.0070482,9 C47.5855229,9 49.8654326,10.6456239 50.6882057,13.0699846 L50.7632412,13.3070021 L54.4639755,25.8879938 C57.7933655,28.0206895 60,31.7526512 60,36 L60,36 L60,46 C60,47.1045695 59.1045695,48 58,48 L58,48 L56,47.999 L56,50 C56,53.7712362 53.7712362,56 50,56 C46.3144737,56 44.1021042,53.8713924 44.0034456,50.2547315 L44,50 L44,47.999 L20,47.999 L20,50 C20,53.7712362 17.7712362,56 14,56 C10.3144737,56 8.10210418,53.8713924 8.00344561,50.2547315 L8,50 L8,47.999 L6,48 C4.9456382,48 4.08183488,47.1841222 4.00548574,46.1492623 L4,46 L4,36 C4,31.7526512 6.20663445,28.0206895 9.53602445,25.8879938 L13.2367588,13.3070021 C13.9643175,10.8333024 16.1863861,9.11037534 18.7443929,9.00510812 L18.9929518,9 L45.0070482,9 Z M16,47.999 L12,47.999 L12,50 C12,51.5620972 12.4379028,52 14,52 C15.5020165,52 15.9646522,51.5951342 15.9980176,50.175292 L16,50 L16,47.999 Z M52,47.999 L48,47.999 L48,50 C48,51.5620972 48.4379028,52 50,52 C51.5020165,52 51.9646522,51.5951342 51.9980176,50.175292 L52,50 L52,47.999 Z M48,28 L16,28 C11.581722,28 8,31.581722 8,36 L8,36 L8,44 L56,44 L56,36 C56,31.6650857 52.5521622,28.1354571 48.2491793,28.0038068 L48.2491793,28.0038068 L48,28 Z M45.0070482,13 L18.9929518,13 C18.1611858,13 17.4226242,13.5137223 17.127277,14.2792764 L17.0742208,14.4356674 L14.2220045,24.1308114 C14.8021633,24.0446435 15.3958681,24 16,24 L16,24 L48,24 C48.6041319,24 49.1978367,24.0446435 49.7779955,24.1308114 L46.9257792,14.4356674 C46.6910828,13.6376997 45.9898381,13.0741044 45.172055,13.006772 L45.0070482,13 Z" id="Combined-Shape" fill="#000000" fill-rule="nonzero"></path>
        <path d="M16,30 C19.3137085,30 22,32.6862915 22,36 C22,39.3137085 19.3137085,42 16,42 C12.6862915,42 10,39.3137085 10,36 C10,32.6862915 12.6862915,30 16,30 Z M16,34 C14.8954305,34 14,34.8954305 14,36 C14,37.1045695 14.8954305,38 16,38 C17.1045695,38 18,37.1045695 18,36 C18,34.8954305 17.1045695,34 16,34 Z" id="Oval" fill="#000000" fill-rule="nonzero"></path>
        <path d="M48,30 C51.3137085,30 54,32.6862915 54,36 C54,39.3137085 51.3137085,42 48,42 C44.6862915,42 42,39.3137085 42,36 C42,32.6862915 44.6862915,30 48,30 Z M48,34 C46.8954305,34 46,34.8954305 46,36 C46,37.1045695 46.8954305,38 48,38 C49.1045695,38 50,37.1045695 50,36 C50,34.8954305 49.1045695,34 48,34 Z" id="Oval-Copy" fill="#000000" fill-rule="nonzero"></path>
        <rect id="Rectangle" fill="#000000" x="24" y="31" width="16" height="4" rx="2"></rect>
        <rect id="Rectangle-Copy" fill="#000000" x="24" y="37" width="16" height="4" rx="2"></rect>
    </g>
</svg>