<?xml version="1.0" encoding="UTF-8"?>
<svg width="64px" height="64px" viewBox="0 0 64 64" version="1.1" xmlns="http://www.w3.org/2000/svg" xmlns:xlink="http://www.w3.org/1999/xlink">
    <title>duct_clean</title>
    <g id="duct_clean" stroke="none" fill="none" fill-rule="nonzero">
        <path d="M34.0041275,4.00029482 L34.003,4.10470518 L56,4.00770518 L60,4 L60.0009288,5.90260902 C60.0049538,5.9742122 60.0051428,6.04618908 60.0013611,6.11821692 L60,29.92 C60,30.5141548 59.9928077,31.0988453 59.9783662,31.6741409 C60.0195501,31.9246353 60.009905,32.1787368 59.9559549,32.4222688 C59.6256214,41.4155621 57.4669537,48.0534316 53.2527063,52.6144988 C48.6346247,57.6126345 41.6776493,59.9813234 32.1134875,59.99989 C32.0369515,60.0049092 31.9601627,60.0052896 31.8833218,60.0011508 L6.12080574,60.0011508 C6.04931024,60.0050017 5.9778599,60.0049403 5.90677061,60.0010974 L4,60 L4,56 L4,34 L4,30 L5.87988086,30.0005374 C5.96878818,29.9945325 6.05832425,29.9944323 6.14786864,30.0004938 L30.0002948,30 L30.0028697,6.23128149 C29.9988284,6.15385616 29.9993708,6.07648621 30.0043318,5.99957354 L30.0041275,3.99970518 L34.0041275,4.00029482 Z M19.0020638,47.8282026 L10.829,55.9997052 L27.175,55.9997052 L19.0020638,47.8282026 Z M34.004,39.4047052 L34.0046065,55.9617382 C37.3804332,55.8294918 40.3088178,55.3540926 42.8259447,54.5303317 L34.004,39.4047052 Z M8,36.8278852 L8,53.1721148 L16.1734121,45 L8,36.8278852 Z M30.0041275,36.8278852 L21.8307154,45 L30.0041275,53.1721148 L30.0041275,36.8278852 Z M37.4319454,37.3426367 L46.5131906,52.9112213 C47.9660724,52.0780586 49.2292082,51.0748953 50.3147871,49.8999766 C51.3362703,48.7944284 52.2188738,47.5176517 52.9635893,46.0603351 L37.4319454,37.3426367 Z M39.648,33.9997052 L54.4565084,42.3113794 C55.1869939,39.9061316 55.6569716,37.1440518 55.8690391,34.0007547 L39.648,33.9997052 Z M10.829,33.9997052 L19.0020638,42.1717974 L27.175,33.9997052 L10.829,33.9997052 Z M44.9766746,21.8540449 L36.8320126,30 L53.1571134,30 L44.9766746,21.8540449 Z M56,10.8277052 L47.804883,19.0253874 L56,27.1857052 L56,10.8277052 Z M34.002,10.9257052 L33.999,27.1737052 L42.1422738,19.0315923 L34.002,10.9257052 Z M53.1508883,8.02122997 L36.825853,8.09263834 L44.9704823,16.2029348 L53.1508883,8.02122997 Z" id="Combined-Shape" fill="#000000"></path>
    </g>
</svg>