<?xml version="1.0" encoding="UTF-8"?>
<svg width="64px" height="64px" viewBox="0 0 64 64" version="1.1" xmlns="http://www.w3.org/2000/svg" xmlns:xlink="http://www.w3.org/1999/xlink">
    <title>duplicate</title>
    <g id="duplicate" stroke="none" stroke-width="1" fill="none" fill-rule="evenodd">
        <rect id="Rectangle" fill="#000000" fill-rule="nonzero" x="32" y="20" width="8" height="33" rx="4"></rect>
        <rect id="Rectangle-Copy" fill="#000000" fill-rule="nonzero" transform="translate(36.000000, 36.000000) rotate(90.000000) translate(-36.000000, -36.000000) " x="32" y="20" width="8" height="32" rx="4"></rect>
        <path d="M36,12 C49.254834,12 60,22.745166 60,36 C60,49.254834 49.254834,60 36,60 C22.745166,60 12,49.254834 12,36 C12,22.745166 22.745166,12 36,12 Z M36,16 C24.954305,16 16,24.954305 16,36 C16,47.045695 24.954305,56 36,56 C47.045695,56 56,47.045695 56,36 C56,24.954305 47.045695,16 36,16 Z" id="Oval" fill="#000000" fill-rule="nonzero"></path>
        <path d="M28,4 C35.0674775,4 41.4214507,7.05487476 45.813501,11.9162055 C43.0042504,10.7698505 39.9492596,10.1011809 36.7495777,10.0105975 C34.1071037,8.72266425 31.1379455,8 28,8 C16.954305,8 8,16.954305 8,28 C8,31.1379455 8.72266425,34.1071037 10.0106432,36.750125 C10.1011809,39.9492596 10.7698505,43.0042504 11.9158542,45.8137981 C7.05487476,41.4214507 4,35.0674775 4,28 C4,14.745166 14.745166,4 28,4 Z" id="Oval-Copy" fill="#000000" fill-rule="nonzero"></path>
    </g>
</svg>