<?xml version="1.0" encoding="UTF-8"?>
<svg width="64px" height="64px" viewBox="0 0 64 64" version="1.1" xmlns="http://www.w3.org/2000/svg" xmlns:xlink="http://www.w3.org/1999/xlink">
    <title>duplicate_location</title>
    <g id="duplicate_location" stroke="none" stroke-width="1" fill="none" fill-rule="evenodd">
        <path d="M32,4 C43.045695,4 52,11.4615385 52,23.2307692 C52,27.6531469 49.8820937,33.476601 45.646281,40.7011316 L44.8,42.1169231 L43.9008264,43.567705 C43.1294766,44.7912693 42.3030303,46.0512821 41.4214876,47.3477432 L40.3371901,48.9209917 L39.2,50.5292308 L38.0099174,52.1724603 L36.7669421,53.8506802 L35.4710744,55.5638907 L34.122314,57.3120915 L32.7206612,59.0952829 C32.4826446,59.3953973 32.2424242,59.6969697 32,60 L30.5719008,58.1993134 C30.338292,57.9021149 30.1068871,57.6063742 29.877686,57.3120915 L28.5289256,55.5638907 L27.2330579,53.8506802 L25.9900826,52.1724603 C25.7873278,51.8956728 25.5867769,51.6203433 25.3884298,51.3464717 L24.2247934,49.7207374 C24.0352617,49.4526976 23.8479339,49.1861157 23.6628099,48.9209917 L22.5785124,47.3477432 C19.5812672,42.9397754 17.2209366,38.9531511 15.4975207,35.3878703 L14.9157025,34.1470312 C12.9719008,29.8653274 12,26.2265734 12,23.2307692 C12,11.4615385 20.954305,4 32,4 Z M32,8 C22.6638298,8 16,14.1432314 16,23.2307692 C16,27.2534389 18.3274034,33.1169685 23.0076788,40.6706526 L23.9128093,42.1067381 L24.8731226,43.5822158 C25.0377755,43.8313992 25.2047292,44.0822147 25.3739845,44.3346577 L26.4171419,45.8688099 C26.5956067,46.1277447 26.7763747,46.3882979 26.9594467,46.6504649 L28.0855321,48.2427947 L29.2669495,49.8736338 L30.5037361,51.5427612 L32,53.516 L33.49734,51.5413245 L34.7351085,49.8708253 L35.9174134,48.2386801 L37.0442923,46.6451102 C37.2274887,46.3827421 37.4083772,46.1219906 37.5869586,45.8628602 L38.6307685,44.3275683 L39.6192457,42.831405 C45.0639117,34.4644292 47.8451927,27.9928102 47.9937153,23.5977758 L48,23.2307692 C48,14.1432314 41.3361702,8 32,8 Z" id="Oval" fill="#000000" fill-rule="nonzero"></path>
        <path d="M32,12 C33.6568542,12 35,13.3431458 35,15 L35,21 L41,21 C42.6568542,21 44,22.3431458 44,24 C44,25.6568542 42.6568542,27 41,27 L35,27 L35,33 C35,34.6568542 33.6568542,36 32,36 C30.3431458,36 29,34.6568542 29,33 L29,27 L23,27 C21.3431458,27 20,25.6568542 20,24 C20,22.3431458 21.3431458,21 23,21 L29,21 L29,15 C29,13.3431458 30.3431458,12 32,12 Z" id="Combined-Shape" fill="#000000"></path>
    </g>
</svg>