<?xml version="1.0" encoding="UTF-8"?>
<svg width="64px" height="64px" viewBox="0 0 64 64" version="1.1" xmlns="http://www.w3.org/2000/svg" xmlns:xlink="http://www.w3.org/1999/xlink">
    <title>duration</title>
    <g id="duration" stroke="none" stroke-width="1" fill="none" fill-rule="evenodd">
        <path d="M32,4 C47.463973,4 60,16.536027 60,32 C60,47.463973 47.463973,60 32,60 C16.536027,60 4,47.463973 4,32 C4,16.536027 16.536027,4 32,4 Z M30.0005127,8.08210526 C27.0776407,8.3231746 24.3032727,9.08800089 21.7714751,10.2825176 L23.2320508,12.8134665 C23.7843356,13.7700518 23.4565852,14.9932326 22.5,15.5455173 C21.5434148,16.0978021 20.3202339,15.7700518 19.7679492,14.8134665 L18.3081491,12.286162 C15.9610196,13.9193761 13.9193761,15.9610196 12.286162,18.3081491 L14.8134665,19.7679492 C15.7700518,20.3202339 16.0978021,21.5434148 15.5455173,22.5 C14.9932326,23.4565852 13.7700518,23.7843356 12.8134665,23.2320508 L10.2825176,21.7714751 C9.08800089,24.3032727 8.3231746,27.0776407 8.08210526,30.0005127 L11,30 C12.1045695,30 13,30.8954305 13,32 C13,33.1045695 12.1045695,34 11,34 L8.08218805,34.0004908 C8.32334966,36.9229943 9.08813759,39.6970171 10.2825176,42.2285249 L12.8134665,40.7679492 C13.7700518,40.2156644 14.9932326,40.5434148 15.5455173,41.5 C16.0978021,42.4565852 15.7700518,43.6797661 14.8134665,44.2320508 L12.286162,45.6918509 C13.9193761,48.0389804 15.9610196,50.0806239 18.3081491,51.713838 L19.7679492,49.1865335 C20.3202339,48.2299482 21.5434148,47.9021979 22.5,48.4544827 C23.4565852,49.0067674 23.7843356,50.2299482 23.2320508,51.1865335 L21.7714751,53.7174824 C24.3032727,54.9119991 27.0776407,55.6768254 30.0005127,55.9178947 L30,53 C30,51.8954305 30.8954305,51 32,51 C33.1045695,51 34,51.8954305 34,53 L34.0004908,55.917812 C36.9229943,55.6766503 39.6970171,54.9118624 42.2285249,53.7174824 L40.7679492,51.1865335 C40.2156644,50.2299482 40.5434148,49.0067674 41.5,48.4544827 C42.4565852,47.9021979 43.6797661,48.2299482 44.2320508,49.1865335 L45.6918509,51.713838 C48.0389804,50.0806239 50.0806239,48.0389804 51.713838,45.6918509 L49.1865335,44.2320508 C48.2299482,43.6797661 47.9021979,42.4565852 48.4544827,41.5 C49.0067674,40.5434148 50.2299482,40.2156644 51.1865335,40.7679492 L53.7174824,42.2285249 C54.8966883,39.7291787 55.6571484,36.9934405 55.9083671,34.1118059 L32,34.1111111 C30.8954305,34.1111111 30,33.2156806 30,32.1111111 Z M34.1185674,10.1058363 C33.0813164,10.0762611 32.1816081,10.8523653 32.0740931,11.901231 C31.9614584,13.0000427 32.7609128,13.9821141 33.8597245,14.0947489 C41.2938016,14.8567862 47.3896621,20.0310594 49.3893146,26.9222077 L49.3893146,26.9222077 L47.1834861,26.1204132 L47.0345412,26.0726541 C46.0378768,25.795075 44.9799169,26.3278785 44.6204132,27.3165139 C44.2429342,28.354581 44.7784467,29.5021079 45.8165139,29.8795868 L45.8165139,29.8795868 L51.3097471,31.8776075 C51.4110156,31.9149166 51.5159094,31.94421 51.6241525,31.9644953 C51.6401449,31.9675622 51.6561502,31.9704287 51.6713813,31.9733156 C51.708843,31.9795287 51.7466212,31.9846897 51.7851669,31.9886051 L51.7851669,31.9886051 L51.8258435,31.9927505 C51.8642826,31.9960652 51.9029935,31.9982783 51.9422046,31.9993413 C51.9599169,31.9998509 51.9776178,32.0001237 51.9946729,32.0001316 C52.0578499,32.0002253 52.1216012,31.9973402 52.1857783,31.9913529 L52.112,31.996 L52.1190514,31.9965844 L52.1625198,31.9935012 L52.1857783,31.9913529 C52.2040182,31.9896513 52.2221778,31.9877097 52.2404303,31.9855817 C52.2624154,31.9829112 52.2843417,31.9798773 52.3061587,31.9764922 C52.3443339,31.9706153 52.3821146,31.9636781 52.4188419,31.9556772 L52.4188419,31.9556772 L52.4562796,31.9475044 C52.495825,31.9382919 52.5348799,31.9279235 52.5730427,31.9161484 L52.5730427,31.9161484 L52.6070437,31.9060909 C52.7570842,31.8584663 52.898902,31.793834 53.0304488,31.7142543 C53.0415966,31.7075588 53.0526846,31.7007511 53.0637928,31.694128 C53.0971556,31.6731415 53.1298303,31.6512065 53.1616328,31.6282773 C53.1727465,31.620352 53.183787,31.6123069 53.194896,31.604175 C53.224525,31.5820616 53.253502,31.5591556 53.281882,31.5354162 L53.281882,31.5354162 L53.3214953,31.5014034 C53.3509862,31.4754035 53.379687,31.4485598 53.407563,31.4209141 L53.407563,31.4209141 L53.4466838,31.3810234 C53.471776,31.3547161 53.496146,31.3277377 53.5195448,31.3004775 L53.5195448,31.3004775 L53.553,31.259 L53.6384638,31.1469247 L53.58,31.225 L53.5980836,31.202574 L53.5980836,31.202574 L53.6517444,31.1278081 L57.1384638,26.1469247 L57.227098,26.0087432 C57.7481738,25.1188541 57.5065784,23.9632937 56.6469247,23.3615362 C55.7420261,22.7281071 54.4949652,22.9481767 53.8615362,23.8530753 L53.8615362,23.8530753 L53.0056096,25.0775094 C50.3496539,17.0040057 43.0726937,11.0181732 34.267611,10.1155997 L34.267611,10.1155997 Z" id="Combined-Shape" fill="#000000" fill-rule="nonzero"></path>
    </g>
</svg>