<?xml version="1.0" encoding="UTF-8"?>
<svg width="32px" height="32px" viewBox="0 0 32 32" version="1.1" xmlns="http://www.w3.org/2000/svg" xmlns:xlink="http://www.w3.org/1999/xlink">
    <title>earth-to-wood</title>
    <g id="earth-to-wood" stroke="none" stroke-width="1" fill="none" fill-rule="evenodd">
        <path d="M11,2 L11,25.584 L11.2928932,25.2928932 C11.7453693,24.8404171 12.4887656,24.9281848 12.8314402,25.4439582 L12.8944272,25.5527864 L13.273,26.311 L13.2928932,26.2928932 C13.6533772,25.9324093 14.2206082,25.9046797 14.6128994,26.2097046 L14.7071068,26.2928932 L15.415,27 L15.584,27 L16.2928932,26.2928932 C16.6533772,25.9324093 17.2206082,25.9046797 17.6128994,26.2097046 L17.7071068,26.2928932 L18.392,26.977 L19.1055728,25.5527864 C19.4547011,24.8545299 20.4170793,24.8177796 20.8307601,25.4425354 L20.8944272,25.5527864 L21,25.764 L21,2 L23,2 L23,22 L30,22 L30,24 L23,24 L23,28 C23,28.5128358 22.6139598,28.9355072 22.1166211,28.9932723 L22,29 L21,29 C20.6633137,29 20.3523135,28.8309117 20.1683896,28.5553977 L20.1055728,28.4472136 L20,28.236 L19.8944272,28.4472136 C19.7438565,28.748355 19.4535358,28.9509034 19.1248553,28.9921964 L19,29 L18,29 C17.7789863,29 17.565516,28.9268355 17.3919705,28.7939194 L17.2928932,28.7071068 L17,28.415 L16.7071068,28.7071068 C16.5508265,28.8633871 16.3481451,28.9625983 16.131444,28.9913276 L16,29 L15,29 C14.7789863,29 14.565516,28.9268355 14.3919705,28.7939194 L14.2928932,28.7071068 L14,28.415 L13.7071068,28.7071068 C13.2546307,29.1595829 12.5112344,29.0718152 12.1685598,28.5560418 L12.1055728,28.4472136 L11.726,27.688 L10.7071068,28.7071068 C10.1045317,29.3096819 9.09281919,28.9276677 9.00598327,28.1136309 L9,28 L9,24 L2,24 L2,22 L9,22 L9,2 L11,2 Z" id="Path-130" fill="#000000" fill-rule="nonzero"></path>
        <rect id="Rectangle" fill="#000000" x="13" y="4" width="2" height="7" rx="1"></rect>
        <rect id="Rectangle-Copy" fill="#000000" x="17" y="7" width="2" height="11" rx="1"></rect>
        <rect id="Rectangle-Copy-2" fill="#000000" x="13" y="17" width="2" height="6" rx="1"></rect>
    </g>
</svg>