<?xml version="1.0" encoding="UTF-8"?>
<svg width="32px" height="32px" viewBox="0 0 32 32" version="1.1" xmlns="http://www.w3.org/2000/svg" xmlns:xlink="http://www.w3.org/1999/xlink">
    <title>edit</title>
    <g id="edit" stroke="none" stroke-width="1" fill="none" fill-rule="evenodd">
        <path d="M18.5,8 L16.5,10 L4,10 L4,28 L22,28 L22,15.5 L24,13.5 L24,30 L2,30 L2,8 L18.5,8 Z" id="Rectangle-2" fill="#000000"></path>
        <path d="M21,0 C21.5522847,0 22,0.44771525 22,1 L22,1 L22,21 C22,21.1552451 21.9638549,21.3083582 21.8944272,21.4472136 L21.8944272,21.4472136 L19.8944272,25.4472136 C19.5259029,26.1842621 18.4740971,26.1842621 18.1055728,25.4472136 L18.1055728,25.4472136 L16.1055728,21.4472136 C16.0361451,21.3083582 16,21.1552451 16,21 L16,21 L16,1 C16,0.44771525 16.4477153,0 17,0 L17,0 Z M18,6 L18,20.764 L19,22.763 L20,20.762 L20,6 L18,6 Z M18,4 L20,4 L20,2 L18,2 L18,4 Z" id="Combined-Shape" fill="#000000" fill-rule="nonzero" transform="translate(19.000000, 13.000000) rotate(45.000000) translate(-19.000000, -13.000000) "></path>
    </g>
</svg>