<?xml version="1.0" encoding="UTF-8"?>
<svg width="64px" height="64px" viewBox="0 0 64 64" version="1.1" xmlns="http://www.w3.org/2000/svg" xmlns:xlink="http://www.w3.org/1999/xlink">
    <title>edit</title>
    <g id="edit" stroke="none" stroke-width="1" fill="none" fill-rule="evenodd">
        <g id="Group" transform="translate(8.000000, 3.662919)" fill="#000000">
            <path d="M33,8.33708124 L28.972,12.3360812 L4,12.3370812 L4,48.3370812 L40,48.3370812 L40,23.2300812 L44,19.2580812 L44,52.3370812 L0,52.3370812 L0,8.33708124 L33,8.33708124 Z" id="Rectangle-2"></path>
            <path d="M34.5789699,-2.87904977 C35.6713011,-2.87904977 36.5568104,-1.99847334 36.5568104,-0.912227264 L36.5568104,35.5957957 C36.5568104,35.9011353 36.4853212,36.2022815 36.3480043,36.4753855 L32.3923232,44.3426755 C31.663441,45.7923192 29.5831368,45.7923192 28.8542545,44.3426755 L24.8985735,36.4753855 C24.7612565,36.2022815 24.6897673,35.9011353 24.6897673,35.5957957 L24.6897673,-0.912227264 C24.6897673,-1.99847334 25.5752767,-2.87904977 26.6676078,-2.87904977 Z M28.6454484,8.92188526 L28.6454484,35.1316256 L30.6232889,39.0633038 L32.6011294,35.127692 L32.6011294,8.92188526 L28.6454484,8.92188526 Z M28.6454484,4.98824025 L32.6011294,4.98824025 L32.6011294,1.05459524 L28.6454484,1.05459524 L28.6454484,4.98824025 Z" id="Combined-Shape" fill-rule="nonzero" transform="translate(30.623289, 21.275429) rotate(45.000000) translate(-30.623289, -21.275429) "></path>
        </g>
    </g>
</svg>