<?xml version="1.0" encoding="UTF-8"?>
<svg width="64px" height="64px" viewBox="0 0 64 64" version="1.1" xmlns="http://www.w3.org/2000/svg" xmlns:xlink="http://www.w3.org/1999/xlink">
    <title>email</title>
    <g id="email" stroke="none" stroke-width="1" fill="none" fill-rule="evenodd">
        <path d="M6,52 C4.8954305,52 4,51.1045695 4,50 L4,14 C4,12.9389438 4.82627103,12.0708736 5.8704756,12.0041269 C5.88122328,12.0035753 5.89224083,12.0029422 5.90326337,12.0024007 C5.9352454,12.0007737 5.96753235,12 6,12 L58.012663,12.0000471 C58.0239694,12.0001249 58.0352737,12.0002989 58.0465747,12.000569 L58,12 C58.1067353,12 58.2115177,12.0083611 58.3137281,12.024464 C58.3221744,12.0263635 58.3308644,12.0278113 58.3395456,12.0293167 C59.2825696,12.1901537 60,13.0112944 60,14 L60,50 C60,51.1045695 59.1045695,52 58,52 L6,52 Z M38.486,33.335 L35.8756476,35.56657 C33.7402609,37.3909354 30.6571981,37.4738611 28.4356591,35.8153471 L28.1243524,35.56657 L26.053,33.796 L11.849,48 L53.15,48 L38.486,33.335 Z M8,18.373 L8,46.15 L22.979,31.171 L8,18.373 Z M56,18.372 L41.559,30.71 L56,45.15 L56,18.372 Z M52.584,16 L11.415,16 L30.7081175,32.4834555 C31.386018,33.0626191 32.3504419,33.1152704 33.0804376,32.6414092 L33.2918825,32.4834555 L52.584,16 Z" id="Combined-Shape" fill="#000000" fill-rule="nonzero"></path>
    </g>
</svg>