<?xml version="1.0" encoding="UTF-8"?>
<svg width="64px" height="64px" viewBox="0 0 64 64" version="1.1" xmlns="http://www.w3.org/2000/svg" xmlns:xlink="http://www.w3.org/1999/xlink">
    <title>employment</title>
    <g id="employment" stroke="none" stroke-width="1" fill="none" fill-rule="evenodd">
        <path d="M37,6 C42.4288867,6 45.6079931,8.85706511 45.9660586,13.9999345 L54,14 C57.2383969,14 59.8775718,16.5655749 59.9958615,19.7750617 L60,20 L60,50 C60,53.2383969 57.4344251,55.8775718 54.2249383,55.9958615 L54,56 L10,56 C6.76160306,56 4.12242824,53.4344251 4.00413847,50.2249383 L4,50 L4,20 C4,16.7616031 6.56557489,14.1224282 9.77506174,14.0041385 L10,14 L18.0339414,13.9999345 C18.3852096,8.95469336 21.4514305,6.10929635 26.6932628,6.00308483 L27,6 L37,6 Z M56,30.625 L51.5,34 C51.1213521,34.2839859 50.6710466,34.453809 50.2020088,34.4918275 L50,34.5 L40,34.5 L40,39 C40,40.0543618 39.1841222,40.9181651 38.1492623,40.9945143 L38,41 L26,41 C24.9456382,41 24.0818349,40.1841222 24.0054857,39.1492623 L24,39 L24,34.5 L14,34.5 C13.5266902,34.5 13.0645519,34.3656752 12.6665106,34.1146673 L12.5,34 L8,30.625 L8,50 C8,51.0543618 8.81587779,51.9181651 9.85073766,51.9945143 L10,52 L54,52 C55.0543618,52 55.9181651,51.1841222 55.9945143,50.1492623 L56,50 L56,30.625 Z M36,34.5 L28,34.5 L28,37 L36,37 L36,34.5 Z M54,18 L10,18 C8.9456382,18 8.08183488,18.8158778 8.00548574,19.8507377 L8,20 L8,24.375 L14.833,29.5 L49.167,29.5 L56,24.375 L56,20 C56,18.8954305 55.1045695,18 54,18 Z M37,10 L27,10 C23.7920658,10 22.3069267,11.1661889 22.0433173,13.9998322 L41.9567314,14.0003559 C41.7000597,11.239512 40.2840142,10.0613454 37.2450805,10.0023416 L37,10 Z" id="Combined-Shape" fill="#000000" fill-rule="nonzero"></path>
    </g>
</svg>