<?xml version="1.0" encoding="UTF-8"?>
<svg width="64px" height="64px" viewBox="0 0 64 64" version="1.1" xmlns="http://www.w3.org/2000/svg" xmlns:xlink="http://www.w3.org/1999/xlink">
    <title>entertainment_public_venues</title>
    <g id="entertainment_public_venues" stroke="none" stroke-width="1" fill="none" fill-rule="evenodd">
        <path d="M32,23 C42.6666667,23 49.3333333,25.3333333 52,30 L52,47 C48,51 42.3449278,52.980606 35.0347834,52.941818 C35.0154593,51.3074747 35.0041869,49.4281818 35.0009662,47.3039394 L35,46 L35,46 C35,44 34,43 32,43 C30,43 29,44 29,46 C28.9740268,50.2530638 28.9422348,52.5628207 28.9046242,52.9292707 C21.6348747,52.9764236 16,51 12,47 L12,30 C14.6666667,25.3333333 21.3333333,23 32,23 Z M40.5,44 L38,44 L38,47.5 L40.5,47.5 L40.5,44 Z M26,44 L23.5,44 L23.5,47.5 L26,47.5 L26,44 Z M45,43 L43,43.5 L43,47 L45,46.5 L45,43 Z M19,43 L19,46.5 L21,47 L21,43.5 L19,43 Z M49,41 L47.5,42 L47.5,45.5 L49,44.5 L49,41 Z M15,41 L15,44.5 L16.5,45.5 L16.5,42 L15,41 Z M32,32.5 C27.3333333,32.5 23.3333333,33.3333333 20,35 C23.6666667,36 27.6666667,36.5 32,36.5 C36.3333333,36.5 40.3333333,36 44,35 C40.6666667,33.3333333 36.6666667,32.5 32,32.5 Z M48,28 L43,33 C44,33.3333333 44.8333333,33.8333333 45.5,34.5 C47.5,33.5 48.5,33 50,31.5 C51,30.5 50.3333333,29.3333333 48,28 L48,28 Z M15.95,28 C13.6166667,29.3333333 12.95,30.5 13.95,31.5 C15.45,33 16.45,33.5 18.45,34.5 C19.1166667,33.8333333 19.95,33.3333333 20.95,33 L15.95,28 Z M46,27 C43.3333333,25.3333333 40.3333333,24.6666667 37,25 L37,25 L36,31 C37.6666667,31 39.5,31.3333333 41.5,32 C42.8333333,30.3333333 44.3333333,28.6666667 46,27 Z M18,27 C19.6666667,28.6666667 21.1666667,30.3333333 22.5,32 C24.5,31.3333333 26.3333333,31 28,31 L27,25 L27,25 C23.6666667,24.6666667 20.6666667,25.3333333 18,27 Z M32,24.5 C30.8333333,24.5 29.6666667,24.6666667 28.5,25 L29.5,31 L34,31 L35.5,25 C34.3333333,24.6666667 33.1666667,24.5 32,24.5 Z" id="Path-199" fill="#000000" fill-rule="nonzero"></path>
        <polygon id="Path-7" fill="#000000" fill-rule="nonzero" points="31 23 31 6.5 43.5 11 33 14 33 23"></polygon>
        <polygon id="Path-7-Copy" fill="#000000" fill-rule="nonzero" points="45 25 45 14 55 18 47 21 47 26"></polygon>
        <polygon id="Path-7-Copy-2" fill="#000000" fill-rule="nonzero" points="17 25.5 17 14 27 18 19 21 19 25"></polygon>
    </g>
</svg>