<?xml version="1.0" encoding="UTF-8"?>
<svg width="64px" height="64px" viewBox="0 0 64 64" version="1.1" xmlns="http://www.w3.org/2000/svg" xmlns:xlink="http://www.w3.org/1999/xlink">
    <title>equipment_maintenance</title>
    <g id="equipment_maintenance" stroke="none" stroke-width="1" fill="none" fill-rule="evenodd">
        <path d="M47,4 C39.8202983,4 34,9.8202983 34,17 L34.0085207,17.4737221 C34.019869,17.7888129 34.0425271,18.1023749 34.0763419,18.4139242 L34.098,18.587 L18.587,34.098 L18.4139242,34.0763419 C17.9466003,34.0256197 17.4747476,34 17,34 C9.8202983,34 4,39.8202983 4,47 C4,47.8565175 4.08338339,48.7046251 4.247783,49.534897 L4.28983541,49.7245214 C5.02629531,52.7188885 8.784877,53.8017702 11.0001809,51.5862293 L15.271,47.315 L16.25,47.535 L16.6,48.813 L12.4137707,52.9998192 C10.1520726,55.2612753 11.3276633,59.1309825 14.4651034,59.7522171 C15.2953753,59.9166166 16.1434828,60 17,60 C24.1797017,60 30,54.1797017 30,47 L29.9914793,46.5262779 C29.980131,46.2111871 29.9574729,45.8976251 29.9236581,45.5860758 L29.901,45.412 L45.412,29.901 L45.5860758,29.9236581 C46.0533997,29.9743803 46.5252524,30 47,30 C54.1797017,30 60,24.1797017 60,17 C60,16.1439806 59.9167135,15.2963602 59.7525031,14.4665482 L59.710472,14.2769179 C58.9743476,11.2824488 55.2158524,10.1991516 53.0003071,12.4144791 L48.784,16.629 L47.611,16.328 L47.346,15.239 L51.5862293,11.0001809 C53.8479273,8.73872484 52.6723368,4.86901791 49.534897,4.247783 C48.7046251,4.08338339 47.8565175,4 47,4 Z M47,8 C47.6015959,8 48.1894055,8.05902595 48.7579535,8.17160241 L42.9289322,14 L44.2918117,19.6055202 L50,21.0710678 L55.8285953,15.2430452 C55.9410431,15.8112828 56,16.3987563 56,17 C56,21.9705627 51.9705627,26 47,26 C45.9950431,26 45.0285571,25.8352869 44.1260657,25.5313846 L25.5313846,44.1260657 C25.8352869,45.0285571 26,45.9950431 26,47 C26,51.9705627 21.9705627,56 17,56 C16.3984041,56 15.8105945,55.940974 15.2420465,55.8283976 L21.0710678,50 L19.4745445,44.160836 L14,42.9289322 L8.17160241,48.7579535 C8.05902595,48.1894055 8,47.6015959 8,47 C8,42.0294373 12.0294373,38 17,38 C18.0049569,38 18.9714429,38.1647131 19.8739343,38.4686154 L38.4686154,19.8739343 C38.1647131,18.9714429 38,18.0049569 38,17 C38,12.0294373 42.0294373,8 47,8 Z" id="wrench" fill="#000000" fill-rule="nonzero"></path>
    </g>
</svg>