<?xml version="1.0" encoding="UTF-8"?>
<svg width="64px" height="64px" viewBox="0 0 64 64" version="1.1" xmlns="http://www.w3.org/2000/svg" xmlns:xlink="http://www.w3.org/1999/xlink">
    <title>equipment_insect_monitor</title>
    <g id="equipment_insect_monitor" stroke="none" stroke-width="1" fill="none" fill-rule="evenodd">
        <path d="M46.2454062,11.1478153 C47.18543,10.7648426 48.2632634,11.1467654 48.7524318,12.0361625 L48.7524318,12.0361625 L59.7524318,32.0361625 C60.246486,32.9344429 59.9813162,34.0608408 59.13842,34.6443844 L59.13842,34.6443844 L33.13842,52.6443844 C32.5944809,53.0209576 31.8995169,53.1041816 31.2820418,52.8666912 L31.2820418,52.8666912 L5.28204184,42.8666912 C4.00791733,42.3766433 3.58832574,40.7823594 4.45613953,39.7285855 L4.45613953,39.7285855 L18.4561395,22.7285855 C18.6669988,22.4725421 18.9382285,22.2729618 19.2454062,22.1478153 L19.2454062,22.1478153 Z M46.105,15.524 L22.6652417,25.0726855 L32.8462417,47.9796855 L55.377,32.382 L46.105,15.524 Z M19.4862417,27.7676855 L13.1232417,35.4946855 L20.1002417,31.8006855 L21.7782417,35.4376855 L11.3982417,40.9336855 L28.2112417,47.3996855 L19.4862417,27.7676855 Z M44.6288781,21.1996815 C45.5977834,20.7308564 46.7639551,21.1129409 47.2675758,22.0642246 L47.2675758,22.0642246 L51.7675758,30.5642246 C52.2562293,31.4872366 51.9524179,32.6308395 51.0701042,33.1896382 L51.0701042,33.1896382 L36.0701042,42.6896382 C35.056639,43.3314994 33.7100376,42.9429602 33.194279,41.8598672 L33.194279,41.8598672 L28.194279,31.3598672 C27.7214822,30.3669939 28.1389755,29.1786667 29.1288781,28.6996815 L29.1288781,28.6996815 Z M44.635,25.64 L32.66,31.435 L35.835,38.103 L47.366,30.8 L44.635,25.64 Z" id="Combined-Shape" fill="#000000" fill-rule="nonzero"></path>
    </g>
</svg>