<?xml version="1.0" encoding="UTF-8"?>
<svg width="64px" height="64px" viewBox="0 0 64 64" version="1.1" xmlns="http://www.w3.org/2000/svg" xmlns:xlink="http://www.w3.org/1999/xlink">
    <title>equipment_stinging_insect_trap</title>
    <g id="equipment_stinging_insect_trap" stroke="none" fill="none" fill-rule="nonzero">
        <path d="M10.4507809,39.4559209 L10.3729299,39.6017048 C10.1396963,40.037375 9.94450714,40.4106776 9.84327075,40.651114 C8.69659141,43.3744774 8.01269571,46.9625715 8.00017496,51.8627774 C8.00412916,51.8610672 8.01176023,51.8677517 8.02465053,51.8822886 C8.19692275,52.0765671 8.52519737,52.3201292 9.0011096,52.5797868 C10.1234428,53.1921315 11.8574254,53.7844312 14.0649427,54.2938583 C18.750104,55.3750494 25.1528175,56 32,56 C38.8471825,56 45.249896,55.3750494 49.9350573,54.2938583 C52.1425746,53.7844312 53.8765572,53.1921315 54.9988904,52.5797868 C55.4748026,52.3201292 55.8030773,52.0765671 55.9753495,51.8822886 C55.9865211,51.86969 55.9937424,51.8629893 55.998268,51.8617598 L56,52.3831546 C56,47.4126203 55.3140856,43.7829899 54.1567292,41.0342686 C54.0229891,40.7166358 53.7252807,40.1671223 53.3925036,39.5482663 C49.5410884,41.8012238 41.7704008,42.9624363 32.4566384,42.9991035 L32,43 C22.3556885,43 14.3073392,41.8063945 10.4507809,39.4559209 Z M14.3956453,24.2337397 L14.3264085,24.3449396 C14.091611,24.7216042 13.8995491,25.0355316 13.8096374,25.2265941 C12.6986851,27.5873678 12.0244636,30.9284929 12.0006525,35.7353574 C12.1348942,35.8598655 12.361498,36.015716 12.6755271,36.1844542 C13.598221,36.6802482 15.0422515,37.1660315 16.886893,37.5852682 C20.8289388,38.4811877 26.2260232,39 32,39 C37.7739768,39 43.1710612,38.4811877 47.113107,37.5852682 C48.9577485,37.1660315 50.401779,36.6802482 51.3244729,36.1844542 C51.6363363,36.0168797 51.8619761,35.8620158 51.9969376,35.7389833 C51.939316,31.1343864 51.2717289,27.9076522 50.1903626,25.6097487 C50.0704086,25.3548464 49.7686371,24.8812561 49.4261352,24.3317589 C46.0537424,26.1375173 39.6589619,27 32,27 C24.2039881,27 17.7178051,26.1063744 14.3956453,24.2337397 Z M18.1893762,11.9252567 C16.7951256,14.0444393 16.0545542,16.9147129 16.0029026,20.5843354 C16.088032,20.642753 16.2027104,20.7118486 16.3447415,20.7864707 C17.0684642,21.166709 18.2233562,21.5465902 19.7059389,21.876053 C22.9058589,22.5871464 27.2982894,23 32,23 C36.7017106,23 41.0941411,22.5871464 44.2940611,21.876053 C45.7766438,21.5465902 46.9315358,21.166709 47.6552585,20.7864707 C47.7919186,20.7146705 47.9032557,20.6479866 47.9883379,20.5905924 C47.888915,16.9368455 47.0863166,14.0988535 45.6182371,12.0239756 C42.8663649,13.3995077 37.9456033,14 32,14 C25.9131181,14 20.9003607,13.370631 18.1893762,11.9252567 Z M32,8 C28.3688066,8 24.9792141,8.30721645 22.5195632,8.83428448 C22.2693981,8.8878913 22.0318963,8.94322048 21.8101786,9 C22.0318963,9.05677952 22.2693981,9.1121087 22.5195632,9.16571552 C24.9792141,9.69278355 28.3688066,10 32,10 C35.6311934,10 39.0207859,9.69278355 41.4804368,9.16571552 C41.7306019,9.1121087 41.9681037,9.05677952 42.1898214,9 C41.9681037,8.94322048 41.7306019,8.8878913 41.4804368,8.83428448 C39.0207859,8.30721645 35.6311934,8 32,8 Z M6.15672925,39.098886 C6.61946661,37.9998848 7.06454829,37.1727746 7.67168337,36.1861801 C7.6971862,36.144738 7.87979349,35.8495664 7.92388298,35.7773557 C7.95629062,35.7242778 7.9836188,35.6788733 8.00664084,35.6398442 C8.03607952,30.3110689 8.82453459,26.4257904 10.1903626,23.5234059 C10.6688145,22.5066955 11.1313852,21.7627277 11.7575278,20.9017816 C11.8794649,20.7341181 11.9608527,20.6223324 12.0150416,20.5478431 C12.0782985,15.1812371 13.4568306,10.9671202 16.2032688,7.98440058 C17.3953711,5.17057071 23.6987972,4 32,4 C40.8366547,4 47.4094959,5.32645152 47.962286,8.5504055 C50.5984466,11.5213753 51.9229822,15.6730377 51.9849584,20.9309977 C52.0391473,21.0054871 52.1205351,21.1172728 52.2424722,21.2849362 C52.8686148,22.1458823 53.3311855,22.8898502 53.8096374,23.9065605 C55.1734815,26.8047291 55.9616287,30.6829383 55.9932261,35.9997867 L55.999,36.032 L56.0312185,36.0864863 C56.0449792,36.1093508 56.0599132,36.1339714 56.076117,36.1605104 C56.1202065,36.232721 56.3028138,36.5278927 56.3283166,36.5693348 C56.9354517,37.5559293 57.3805334,38.3830394 57.8432708,39.4820406 C59.1822299,42.6620685 59.9627196,46.7002931 59.9986986,51.9980797 L59.9991016,52.0629523 C59.9997,52.1691802 60,52.2759133 60,52.3831546 L59.9772484,52.3836709 C59.39316,57.2662205 47.6302385,59.9436134 32.4817665,59.9991192 L32,60 C16.225784,60 4,57.1786652 4,52 C4,46.512201 4.78551417,42.3555218 6.15672925,39.098886 Z" id="Combined-Shape" fill="#000000"></path>
    </g>
</svg>