<?xml version="1.0" encoding="UTF-8"?>
<svg width="64px" height="64px" viewBox="0 0 64 64" version="1.1" xmlns="http://www.w3.org/2000/svg" xmlns:xlink="http://www.w3.org/1999/xlink">
    <title>equipment_bird_deterrent</title>
    <g id="equipment_bird_deterrent" stroke="none" fill="none" fill-rule="nonzero">
        <path d="M43.549,24.705 L54.0711945,32.3390684 C54.7863689,32.892271 55.1345663,33.8113271 54.9520607,34.7213077 C54.7173143,35.8586809 53.6907755,36.6567581 52.5343349,36.6129466 L52.4656333,36.6085459 L52.3558865,36.5986343 L52.2821245,36.5898719 L40.6990891,34.882032 L37.3397447,35.6737416 L37.318701,35.7877646 C36.9585726,37.6002136 36.4021168,39.1858731 35.6891044,40.4023029 L35.6073733,40.5370905 L37.3713546,49.9044617 C37.3908839,50.0081729 37.397382,50.1108521 37.392103,50.2110045 L37.3857011,50.2765113 L37.3846992,50.3526676 L37.3815441,50.3921524 L37.3797876,50.4667642 C37.3061313,51.8345734 36.2189479,52.9435323 34.844735,53.0186936 L34.6964327,53.0227555 C34.5390437,53.0227928 34.3840207,53.0090915 34.2326753,52.9825465 L34.207777,52.9774387 L34.1455759,53.0462921 C33.6162684,53.6016752 32.8853015,53.9562558 32.0763357,53.9962211 L31.9237708,54 C31.054166,54 30.263974,53.6369808 29.7016203,53.046885 L29.6387889,52.9784183 L29.6124535,52.984249 C29.5120884,53.0017517 29.4101664,53.0135988 29.3070667,53.0195631 L29.1515811,53.0240691 C27.6577665,53.024423 26.4640195,51.8053863 26.464501,50.3032765 L26.4655619,50.2126768 L26.464494,50.1115975 L26.4713649,50.0092514 L26.4866544,49.9058861 L28.2524842,40.5499942 L28.1852909,40.4395042 L28.051,40.203 L43.549,24.705 Z M33.2869024,12.0701959 L34.066569,16.4874266 L34.2165306,16.6012905 C35.8486068,17.8648206 36.7528498,19.1759903 36.8172728,20.5916134 L36.8209729,20.7554213 C36.8208156,21.406072 36.6959941,22.0398888 36.4587833,22.6276927 L36.4040669,22.7534936 L36.4130454,22.7737461 C36.4553381,22.8786081 36.4967647,22.9851224 36.5373097,23.0932347 L36.573,23.195 L24.59,35.179 L23.3026762,34.8763395 L11.718696,36.5896207 L11.5352006,36.6083788 L11.4665099,36.6128111 C10.3096939,36.6571841 9.28285028,35.8590566 9.04710215,34.71416 C8.88512363,33.9045619 9.14786515,33.0783794 9.72819882,32.5145134 L9.78192681,32.4651628 L9.87311721,32.3859981 L9.96223897,32.3152108 L23.0898258,22.7920363 L23.2710582,22.6593668 C23.5851442,22.4496146 23.9413071,22.3002476 24.3220572,22.2168576 C25.3983641,21.985941 26.4842404,22.3250257 27.252027,23.0998528 L27.3020974,23.1531114 L27.3852205,22.9339682 L27.4563112,22.7536219 L27.4032277,22.6294829 C27.1923444,22.1071068 27.0704037,21.5479802 27.0460198,20.9729266 L27.0414656,20.7565756 C27.0418196,19.2921782 27.9162675,17.9304771 29.5460321,16.6176874 L29.7173504,16.482004 L30.7259853,12.0112959 C31.0372295,10.6305401 33.0408445,10.6766223 33.2869024,12.0701959 Z" id="Path-2" fill="#000000"></path>
        <path d="M32,4 C47.463973,4 60,16.536027 60,32 C60,47.463973 47.463973,60 32,60 C16.536027,60 4,47.463973 4,32 C4,16.536027 16.536027,4 32,4 Z M32,8 C18.745166,8 8,18.745166 8,32 C8,45.254834 18.745166,56 32,56 C45.254834,56 56,45.254834 56,32 C56,18.745166 45.254834,8 32,8 Z M6,30 L57,30 L57,34 L6,34 Z" id="Oval" fill="#000000" transform="translate(32, 32) rotate(-45) translate(-32, -32)"></path>
    </g>
</svg>