<?xml version="1.0" encoding="UTF-8"?>
<svg width="64px" height="64px" viewBox="0 0 64 64" version="1.1" xmlns="http://www.w3.org/2000/svg" xmlns:xlink="http://www.w3.org/1999/xlink">
    <title>equipment_map_viewer</title>
    <g id="equipment_map_viewer" stroke="none" stroke-width="1" fill="none" fill-rule="evenodd">
        <path d="M34,20 C41.7319865,20 48,26.2680135 48,34 C48,37.299834 46.8583528,40.333022 44.9484887,42.7261335 L47.9612552,43.011508 L58.6776691,53.7279219 C59.4587176,54.5089705 59.4587176,55.7753004 58.6776691,56.556349 L56.5563487,58.6776693 C55.7753001,59.4587179 54.5089702,59.4587179 53.7279216,58.6776693 L43.0115077,47.9612555 L42.5665534,45.0739698 C40.1988391,46.9082507 37.2269154,48 34,48 C26.2680135,48 20,41.7319865 20,34 C20,26.2680135 26.2680135,20 34,20 Z M34,44 C39.5228475,44 44,39.5228475 44,34 C44,28.4771525 39.5228475,24 34,24 C28.4771525,24 24,28.4771525 24,34 C24,39.5228475 28.4771525,44 34,44 Z" id="Shape" fill="#000000" fill-rule="nonzero"></path>
        <path d="M41.3333333,6 L41.3333333,14 L60,14 L60.0002115,53.9112684 C59.8550782,53.5884159 59.649933,53.2859722 59.3847758,53.0208151 L59.3847758,53.0208151 L56,49.636 L56,18 L38,18 L38,10 L8,10 L8,50 L43.637,50 L47.636,54 L4,54 L4,6 L41.3333333,6 Z M14,44 L14,48 L10,48 L10,44 L14,44 Z M22.8202938,44.0009232 C23.0057368,44.2080822 23.196853,44.4100565 23.3933983,44.6066017 C23.5902585,44.8034619 23.7925651,44.9948757 24.0000728,45.1805977 L24,48 L20,48 L20,44 Z M54,44 L54,47.636 L50.364,44 L54,44 Z M54,36 L54,40 L50,40 L50,36 L54,36 Z M14,36 L14,40 L10,40 L10,36 L14,36 Z M14,28 L14,32 L10,32 L10,28 L14,28 Z M54,28 L54,32 L50,32 L50,28 L54,28 Z M14,20 L14,24 L10,24 L10,20 L14,20 Z M54,20 L54,24 L50,24 L50,20 L54,20 Z M44,20 L44.0009232,22.8202938 C42.8207766,21.7638595 41.472365,20.8915429 40.0008439,20.2484998 L40,20 L44,20 Z M14,12 L14,16 L10,16 L10,12 L14,12 Z M24,12 L24,16 L20,16 L20,12 L24,12 Z M34,12 L34,16 L30,16 L30,12 L34,12 Z" id="Combined-Shape" fill="#000000" fill-rule="nonzero"></path>
    </g>
</svg>