<?xml version="1.0" encoding="UTF-8"?>
<svg width="64px" height="64px" viewBox="0 0 64 64" version="1.1" xmlns="http://www.w3.org/2000/svg" xmlns:xlink="http://www.w3.org/1999/xlink">
    <title>equipment_pick_up</title>
    <g id="equipment_pick_up" stroke="none" stroke-width="1" fill="none" fill-rule="evenodd">
        <polygon id="Path-62" fill="#000000" fill-rule="nonzero" points="28.4186583 46.0262918 16 40 16 44 34 52 34 36"></polygon>
        <polygon id="Path-63" fill="#000000" fill-rule="nonzero" points="35 52 35 37.6775855 40 45.6953945 48 40 48 44"></polygon>
        <polygon id="Path-64" fill="#000000" fill-rule="nonzero" points="17 27 29 33 29 21"></polygon>
        <polygon id="Path-65" fill="#000000" fill-rule="nonzero" points="30 21.4282088 46.3685894 28 35 35 30 33"></polygon>
        <polygon id="Path-66" fill="#000000" fill-rule="nonzero" points="30.5706286 19.8236037 47.3808394 26.6567047 56.0187136 20.0762589 39.9999995 13.7396662"></polygon>
        <polygon id="Path-67" fill="#000000" fill-rule="nonzero" points="16.236765 25.994911 27.8843332 19.8760908 20.0614759 14.6221664 8.73600222 20.7732613"></polygon>
        <polygon id="Path-68" fill="#000000" fill-rule="nonzero" points="16.3404351 28.2152403 33.6722566 35.8633581 27.6623227 44.7437813 11.486847 36.4795111"></polygon>
        <polygon id="Path-69" fill="#000000" fill-rule="nonzero" points="35.385096 36.2571742 47.7505311 28.0688633 52.7364773 35.8320617 39.9999999 44.4581989"></polygon>
    </g>
</svg>