<?xml version="1.0" encoding="UTF-8"?>
<svg width="64px" height="64px" viewBox="0 0 64 64" version="1.1" xmlns="http://www.w3.org/2000/svg" xmlns:xlink="http://www.w3.org/1999/xlink">
    <title>equipment_lethal_animal_trap</title>
    <g id="equipment_lethal_animal_trap" stroke="none" stroke-width="1" fill="none" fill-rule="evenodd">
        <path d="M45.2121614,16.1617099 C46.5318982,15.5961084 48,16.5641691 48,18 L48,18 L48.0004825,35.9846607 C47.1294768,36.1327002 46.2283414,35.9449524 45.4983079,35.4867349 C44.7473337,35.0153736 44.2137631,34.2379253 43.9999929,32.9220739 L44,32.9268458 L44,21.032 L39.7878386,22.8382901 C39.5388849,22.9449845 39.2708536,23 39,23 L39,23 L19.0869565,23 C18.8263256,23 18.5682075,22.9490582 18.3271188,22.8500396 L18.3271188,22.8500396 L15,21.484 L15.0002778,35.840074 C14.4105811,35.8404784 13.8441945,36.0157517 13.3654956,36.3278721 C12.7537304,36.7267542 12.2850953,37.3486136 12.0939914,38.1130293 C11.8930683,38.9167216 12.0369272,39.7257687 12.4319401,40.3841234 C12.8269529,41.0424782 13.4731196,41.5501406 14.276812,41.7510637 C14.5168446,41.8110718 14.7583352,41.8613257 15.0006943,41.9019928 L15,50.784 L18.2027952,49.2060494 C18.4228186,49.0976093 18.6604319,49.0308017 18.903665,49.0084163 L18.903665,49.0084163 L19.0869565,49 L39,49 C39.2708536,49 39.5388849,49.0550155 39.7878386,49.1617099 L39.7878386,49.1617099 L44,50.967 L44.0001834,41.4131172 C45.2666366,41.8883107 46.6347955,42.0987981 48.0008039,42.0150577 L48,54 C48,55.4358309 46.5318982,56.4038916 45.2121614,55.8382901 L45.2121614,55.8382901 L38.59,53 L19.551,53 L13.8841614,55.7939506 C12.5993626,56.4271728 11.1034195,55.5444407 11.0051176,54.1464199 L11.0051176,54.1464199 L11,54 L11,18.5 C11,17.0771992 12.4437188,16.1094115 13.7598377,16.6499604 L13.7598377,16.6499604 L19.483,19 L38.588,19 Z M52.9948293,9.85317809 L53,10 L53,46 C53,47.3863195 51.631401,48.3365726 50.3491489,47.8913734 L50.2121614,47.8382901 L49,47.3188458 L49.000604,41.9004801 C49.2399456,41.8600817 49.4784329,41.81033 49.7154981,41.7510637 C50.5191905,41.5501406 51.1653572,41.0424782 51.56037,40.3841234 C51.9553829,39.7257687 52.0992418,38.9167216 51.8983188,38.1130293 C51.7072148,37.3486136 51.2385797,36.7267542 50.6268145,36.3278721 C50.1825588,36.0382092 49.6623526,35.8549986 49.0014823,35.8574022 L49,14.032 L44.7878386,15.8382901 C44.5886756,15.9236456 44.377303,15.9759266 44.1620434,15.9934248 L44,16 L24.0869565,16 C23.8914834,16 23.6974236,15.9713452 23.5109015,15.9152444 L23.3271188,15.8500396 L20,14.484 L20,17.9998458 L19.6803161,18 L16,16.4888458 L16,10.5 C16,9.12626131 17.3458686,8.17669654 18.6232967,8.59937884 L18.7598377,8.64996036 L24.483,11 L43.588,11 L50.2121614,8.16170994 C51.4863901,7.61561194 52.898928,8.49922991 52.9948293,9.85317809 Z M20.0008958,41.409822 L20,43.784 L23.2027952,42.2060494 C23.3678128,42.1247193 23.5427246,42.0668075 23.7224809,42.0334909 L23.903665,42.0084163 L24.0869565,42 L43,41.9998458 L43,44.9998458 L24.551,45 L18.8841614,47.7939506 C17.643666,48.4053376 16.206337,47.6035162 16.0202064,46.2891636 L16.0051176,46.1464199 L16,46 L16.0005144,42.0156057 C17.3666825,42.0980617 18.7347731,41.8862901 20.0008958,41.409822 Z M16,22.9755833 L17.9472,23.7750595 C18.1641798,23.8641762 18.3903555,23.9273314 18.6210237,23.963597 L18.8530152,23.9908649 L19.0869565,24 L20,23.9998458 L20.0003357,32.8255558 C19.9775345,33.082445 19.9624199,33.2561767 19.9525282,33.3155267 C19.7914102,34.2822347 19.2257136,35.0297898 18.4695739,35.4878256 C17.7681048,35.9127443 16.9077286,36.0934802 16.0005285,35.9754551 L16,22.9755833 Z" id="Combined-Shape" fill="#000000" fill-rule="nonzero"></path>
        <path d="M24.8844978,34.1375216 C24.0355391,39.2312741 18.9949494,41.8998216 14.5193476,40.7809212 C13.4477578,40.5130237 12.7962364,39.4271547 13.0641339,38.3555649 C13.3198542,37.3326837 14.320875,36.6925508 15.3433539,36.8694717 L15.4894901,36.9003512 C17.8496941,37.4904021 20.5047818,36.0847674 20.9389221,33.4799257 C20.9655722,33.320025 20.981458,33.161552 20.9871896,33.0050316 L21,33 L21.0009673,26.1020824 C23.7011885,27.6570101 25.4554918,30.7115574 24.8844978,34.1375216 Z M10.0000689,28.9471514 L10.0013082,36.2835371 C9.08718049,37.4197796 8.040907,38.4874875 6.78041895,39.5378942 C5.93186515,40.2450224 4.67073575,40.1303743 3.96360759,39.2818205 C3.25647943,38.4332667 3.37112756,37.1721373 4.21968135,36.4650091 C5.62585878,35.2931946 6.69084831,34.1196109 7.60898582,32.8123465 C7.8470834,32.4733378 8.0710125,32.132681 8.30717251,31.7525548 L8.82811919,30.8851644 L9.62706138,29.5337123 C9.75173985,29.3297641 9.87580783,29.1343791 10.0000689,28.9471514 Z" id="Path-239" fill="#000000" fill-rule="nonzero"></path>
        <path d="M39.1078123,34.1375216 C39.956771,39.2312741 44.9973608,41.8998216 49.4729625,40.7809212 C50.5445523,40.5130237 51.1960737,39.4271547 50.9281763,38.3555649 C50.672456,37.3326837 49.6714352,36.6925508 48.6489562,36.8694717 L48.50282,36.9003512 C46.1426161,37.4904021 43.4875283,36.0847674 43.053388,33.4799257 C43.0266245,33.3193446 43.0107172,33.1602033 43.0050479,33.0030335 L43,33 L42.999369,26.0974665 C40.294599,27.6509596 38.5362527,30.7081641 39.1078123,34.1375216 Z M53.9997349,28.9584526 L53.999107,36.2936054 C54.9113133,37.4260879 55.9551269,38.4905906 57.2118912,39.5378942 C58.060445,40.2450224 59.3215744,40.1303743 60.0287025,39.2818205 C60.7358307,38.4332667 60.6211826,37.1721373 59.7726288,36.4650091 C58.3664513,35.2931946 57.3014618,34.1196109 56.3833243,32.8123465 C56.1452267,32.4733378 55.9212976,32.132681 55.6851376,31.7525548 L55.1641909,30.8851644 L54.3652487,29.5337123 C54.2430766,29.333864 54.1214907,29.142238 53.9997349,28.9584526 Z" id="Shape" fill="#000000" fill-rule="nonzero"></path>
    </g>
</svg>