<?xml version="1.0" encoding="UTF-8"?>
<svg width="64px" height="64px" viewBox="0 0 64 64" version="1.1" xmlns="http://www.w3.org/2000/svg" xmlns:xlink="http://www.w3.org/1999/xlink">
    <title>equipment_rodent_bait</title>
    <g id="equipment_rodent_bait" stroke="none" stroke-width="1" fill="none" fill-rule="evenodd">
        <path d="M57.1844186,45.6117019 L57.0481949,45.7033166 L44.0481949,53.7033166 C43.7855154,53.8649656 43.4897494,53.9632297 43.1842678,53.9914942 L43,54 L20,54 C19.7099551,54 19.4240944,53.9369232 19.1619827,53.8159652 L19.0077221,53.7364863 L5.00772212,45.7364863 C4.36836553,45.3711397 4.00716068,44.7063755 3.99977335,44.019635 L4,26 L4.00401488,25.8728696 C4.04278145,25.2561959 4.36087602,24.6559442 4.95208443,24.2959966 L5.10557281,24.2111456 L37.1055728,8.21114562 C37.5791461,7.97435899 38.1249282,7.93603343 38.623544,8.09967695 L38.7878386,8.16170994 L52.7878386,14.1617099 C53.2212118,14.3474413 53.5732238,14.6794391 53.7844563,15.0968182 L53.8569534,15.2572186 L57.8569534,25.2572186 C57.9297746,25.4392717 57.9740636,25.6265617 57.9915824,25.8137592 L58,26 L58.000265,44.0060833 C57.9978009,44.6234111 57.7096664,45.2265975 57.1844186,45.6117019 Z M40.9996578,35.9999995 L21.9996578,35.9999995 L21.9996578,49.9999995 L40.9996578,49.9999995 L40.9996578,35.9999995 Z M7.99965776,29.4459995 L7.99965776,42.8389995 L8.99965776,43.4099995 L9,35.3333333 C9,34.2287638 9.8954305,33.3333333 11,33.3333333 C11.3282817,33.3333333 11.6515162,33.414142 11.9411765,33.5686275 L13.8529412,34.5882353 C15.4822586,35.4572046 16.5,37.1534402 16.5,39 L16.4996578,47.6959995 L17.9996578,48.5529995 L17.9996578,35.1599995 L7.99965776,29.4459995 Z M53.9996578,29.5789995 L44.9996578,35.1169995 L44.9996578,48.4199995 L53.9996578,42.8819995 L53.9996578,29.5789995 Z M38.064,12.203 L10.236,26.117 L20.532,32 L42.432,32 L53.517,25.178 L50.451,17.512 L38.064,12.203 Z" id="Combined-Shape" fill="#000000" fill-rule="nonzero"></path>
    </g>
</svg>