<?xml version="1.0" encoding="UTF-8"?>
<svg width="64px" height="64px" viewBox="0 0 64 64" version="1.1" xmlns="http://www.w3.org/2000/svg" xmlns:xlink="http://www.w3.org/1999/xlink">
    <title>equipment_bear_trap</title>
    <g id="equipment_bear_trap" stroke="none" stroke-width="1" fill="none" fill-rule="evenodd">
        <path d="M46.7603401,41.2102482 L44.1089461,39.0962471 L40.0845814,45.3699231 L35.3727022,40.9726562 L30.7743566,46.5840993 L25.8959099,41.2102482 L21.8191636,45.6295956 L17.2325368,39.4154412 L14.0261949,42.8970588 L10.396829,36.013557 L8.578125,38.6268382 L6.35799632,31.6500519 L5.91130515,32 L4.83846507,27.7890625 L5.15280331,35.0326287 C5.15280331,35.0326287 5.8035386,41.8699449 14.4492188,45.8961397 C23.0948989,49.9223346 30.5803965,49.2045536 33.2402884,49.2045536 C35.9001804,49.2045536 40.9724659,48.0912027 45.4299173,45.9250919 C49.8873687,43.7589811 46.7603401,41.2102482 46.7603401,41.2102482 Z" id="Path-119" fill="#000000" fill-rule="nonzero"></path>
        <path d="M17.113511,17.7327665 L14.6459099,15.9848346 L12.9471507,22.0590533 L9.86626838,19.0220588 L8.55629596,25.5558364 L6.34972426,22.7357537 L6.21737132,29.3690257 L4.85914522,26.9568015 L5.5926011,34.872932 C5.5926011,34.872932 6.78538603,30.7311581 9.86626838,27.9800092 C12.9471507,25.2288603 14.0081965,24.6818803 16.53125,22.3435202 C19.0543035,20.0051601 17.113511,17.7327665 17.113511,17.7327665 Z" id="Path-120" fill="#000000" fill-rule="nonzero"></path>
        <path d="M21.1056985,16.0813419 L24.6633732,18.0059743 L27.6684283,12.4793199 L31.0032169,16.5863971 L34.3835018,11.7470129 L37.5397518,16.4956342 L41.1909467,12.2911305 L43.9152114,17.4172794 L47.6819853,13.6204044 L49.7683824,19.3157169 L53.1633732,15.9030331 L54.5443474,22.2373621 L57.1640625,19.0572151 L57.9347426,25.0418199 L59.9230239,22.808364 C59.9230239,22.808364 60.2975643,27.0512408 60.1102941,29.5158548 C59.9230239,31.9804687 59.2403493,36.0905331 57.9365809,38.1631434 C56.6328125,40.2357537 54.9767923,41.4935662 53.8664982,41.8118107 C52.756204,42.1300551 50.4471507,43.8616728 49.064568,41.7123162 C47.6819853,39.5629596 49.1332721,37.6737132 50.6835937,37.6737132 C52.2339154,37.6737132 54.3329504,38.9795496 54.3329504,38.9795496 L56.7745864,31.7019761 L57.4084674,33.4137687 L57.751382,31.3064697 L58.1653573,32 C58.1653573,32 57.5374574,29.0663204 56.7745864,27.7696141 C55.9186499,26.3147178 51.144761,20.7428768 42.9682904,19.5797335 C34.7918199,18.4165901 26.9873621,19.0317096 24.6096048,19.9701287 C22.2318474,20.9085478 19.0215993,20.1741728 19.0215993,18.0386029 C19.0215993,15.9030331 21.1056985,16.0813419 21.1056985,16.0813419 Z" id="Path-121" fill="#000000" fill-rule="nonzero"></path>
        <ellipse id="Oval-21" fill="#000000" fill-rule="nonzero" cx="33" cy="30" rx="11" ry="6"></ellipse>
        <polygon id="Path-122" fill="#000000" fill-rule="nonzero" points="17.7998621 21.6569393 44.8125 43.4588695 49.8745404 40.0376838 22.2008272 19.0181526"></polygon>
    </g>
</svg>