<?xml version="1.0" encoding="UTF-8"?>
<svg width="64px" height="64px" viewBox="0 0 64 64" version="1.1" xmlns="http://www.w3.org/2000/svg" xmlns:xlink="http://www.w3.org/1999/xlink">
    <title>equipment_termite_bait_station</title>
    <g id="equipment_termite_bait_station" stroke="none" stroke-width="1" fill="none" fill-rule="evenodd">
        <path d="M43.9373115,8.49922949 C44.0058308,8.76374396 44.0209526,9.04771705 43.9712923,9.33764847 L43.9712923,9.33764847 L42.7212923,16.6355208 C42.6641865,16.968922 42.5234534,17.2823928 42.3122559,17.5466143 L42.3122559,17.5466143 L40.218,20.167 L39.197,42.68 L40.7506099,41.4382624 C42.2093379,40.27128 44.2987881,41.5622868 43.9699356,43.3485856 L43.9699356,43.3485856 L43.9388938,43.4906024 L41.4388938,53.3707718 C41.3191878,53.8438582 41.0306455,54.2568555 40.6276048,54.5319889 L40.6276048,54.5319889 L33.1276048,59.6518195 C32.4475421,60.1160602 31.5524579,60.1160602 30.8723952,59.6518195 L30.8723952,59.6518195 L23.3723952,54.5319889 C22.9693545,54.2568555 22.6808122,53.8438582 22.5611062,53.3707718 L22.5611062,53.3707718 L20.0611062,43.4906024 C19.5908041,41.6319367 21.7522746,40.24057 23.2493901,41.4382624 L23.2493901,41.4382624 L24.802,42.68 L23.781,20.167 L21.6877441,17.5466143 C21.5117462,17.3264297 21.3846819,17.0720442 21.3141686,16.8004248 L21.3141686,16.8004248 L21.2787077,16.6355208 L20.0287077,9.33764847 C19.9790474,9.04771705 19.9941692,8.76374396 20.0626885,8.49922949 Z M39.628,11 L24.371,11 L25.134,15.452 L27.3122559,18.17679 C27.5385501,18.4598985 27.6829436,18.7982392 27.7316391,19.1551363 L27.7316391,19.1551363 L27.7479482,19.3349613 L28.9979482,46.9094294 C29.0758145,48.6271265 27.0932834,49.6358764 25.7506099,48.5617376 L25.7506099,48.5617376 L25.398,48.28 L26.252,51.655 L32,55.578 L37.747,51.655 L38.601,48.28 L38.2493901,48.5617376 C36.9474037,49.6033268 35.0437514,48.6863502 35.0005739,47.0635925 L35.0005739,47.0635925 L35.0020518,46.9094294 L36.2520518,19.3349613 C36.2712003,18.9125537 36.4237342,18.5070832 36.6877441,18.17679 L36.6877441,18.17679 L38.865,15.452 L39.628,11 Z" id="Combined-Shape" fill="#000000" fill-rule="nonzero"></path>
        <rect id="Rectangle" fill="#000000" x="16" y="4" width="32" height="4" rx="2"></rect>
        <rect id="Rectangle" fill="#000000" x="29" y="20" width="6" height="3" rx="1.5"></rect>
        <rect id="Rectangle-Copy" fill="#000000" x="29" y="25" width="6" height="3" rx="1.5"></rect>
        <rect id="Rectangle-Copy-2" fill="#000000" x="29" y="30" width="6" height="3" rx="1.5"></rect>
        <rect id="Rectangle-Copy-3" fill="#000000" x="29" y="35" width="6" height="3" rx="1.5"></rect>
        <rect id="Rectangle-Copy-4" fill="#000000" x="29" y="40" width="6" height="3" rx="1.5"></rect>
    </g>
</svg>