<?xml version="1.0" encoding="UTF-8"?>
<svg width="64px" height="64px" viewBox="0 0 64 64" version="1.1" xmlns="http://www.w3.org/2000/svg" xmlns:xlink="http://www.w3.org/1999/xlink">
    <title>equipment_termite_monitor</title>
    <g id="equipment_termite_monitor" stroke="none" stroke-width="1" fill="none" fill-rule="evenodd">
        <path d="M25.2572186,4.14304662 C25.8409674,3.90954711 26.5005371,3.96413476 27.0379563,4.29042497 L27.0379563,4.29042497 L55.0379563,21.290425 C56.3829399,22.1070222 56.3017827,24.0851766 54.8944272,24.7888544 L54.8944272,24.7888544 L43.1691002,30.6515179 L42.5286565,30.9661237 C40.0785957,32.1168841 37.1250914,32.7863001 34.0003797,33.0217136 L34,57 L32,60 L30,57 L30.0001231,33.092276 C23.4190835,32.8451193 16.7045116,30.8571762 12.7196312,27.5364426 C5.80040693,21.7704223 6.60104443,12.9634098 14.1055728,9.21114562 C18.1527736,7.1875452 21.8693176,5.49820703 25.2572186,4.14304662 Z M25.822,8.231 L25.3169066,8.43938371 C22.42379,9.64495631 19.2825408,11.0947976 15.8944272,12.7888544 C11.0180032,15.2270664 10.5376212,20.5112678 15.2803688,24.4635574 C20.9050444,29.1507871 34.0875887,30.7201377 41.1055728,27.2111456 L41.1055728,27.2111456 L49.867,22.83 L47.582674,21.4429953 L40.8944272,24.7888544 C40.3388473,25.0666443 39.688968,25.0692407 39.1346311,24.8031079 L38.9859597,24.7238684 L21.9859597,14.7238684 C20.6317068,13.927249 20.694399,11.9742574 22.0387836,11.2456485 L22.1877231,11.1723769 L27.082674,8.99699533 L25.822,8.231 Z M31.244674,11.5239953 L27.366,13.248 L40.077,20.725 L43.543674,18.9909953 L31.244674,11.5239953 Z" id="Combined-Shape" fill="#000000" fill-rule="nonzero"></path>
    </g>
</svg>