<?xml version="1.0" encoding="UTF-8"?>
<svg width="64px" height="64px" viewBox="0 0 64 64" version="1.1" xmlns="http://www.w3.org/2000/svg" xmlns:xlink="http://www.w3.org/1999/xlink">
    <title>equipment_pheromone_trap</title>
    <g id="equipment_pheromone_trap" stroke="none" stroke-width="1" fill="none" fill-rule="evenodd">
        <path d="M13.1364594,6.00452684 L13.2864884,6.02062526 L51.2864884,11.5206253 C52.2183697,11.6555028 52.9224697,12.4192913 52.9940041,13.3444014 L53,13.5 L52.999999,21.5536153 L59.8096374,36.0234059 C60.011793,36.4529866 60.0537467,36.938579 59.9316379,37.393457 L59.8781491,37.5624271 L52.8781491,56.6874271 C52.4931355,57.7393392 51.4284276,58.1691111 50.5045367,57.9402166 L12.587979,49.9570996 C12.0592229,49.8452689 11.5808662,49.5218507 11.2864266,49.0315341 L11.2111456,48.8944272 L4.21114562,34.8944272 C3.98671403,34.445564 3.94020882,33.9309695 4.0763619,33.4525992 L4.13599066,33.2751075 L10.999999,15.6216153 L11,8 C11,6.83219176 11.9923092,5.92450767 13.1364594,6.00452684 Z M9.48899899,36.5056153 L14.355999,46.2416153 L47.478999,53.2146153 L42.559999,42.7626153 L9.48899899,36.5056153 Z M51.231,27.188 L46.165,41.029 L50.768,50.811 L55.266999,38.5176153 L48.319,37.204 L49.681,33.391 L54.586999,34.3186153 L51.231,27.188 Z M14.279999,18.2256153 L8.80399899,32.3056153 L42.746999,38.7276153 L48.284999,23.5956153 L14.279999,18.2256153 Z M15,10.31 L14.999999,14.2906153 L48.999999,19.6586153 L49,15.231 L15,10.31 Z" id="Combined-Shape" fill="#000000" fill-rule="nonzero"></path>
        <circle id="Oval" fill="#000000" cx="32" cy="15" r="1.5"></circle>
    </g>
</svg>