<?xml version="1.0" encoding="UTF-8"?>
<svg width="64px" height="64px" viewBox="0 0 64 64" version="1.1" xmlns="http://www.w3.org/2000/svg" xmlns:xlink="http://www.w3.org/1999/xlink">
    <title>equipment_live_animal_trap</title>
    <g id="equipment_live_animal_trap" stroke="none" stroke-width="1" fill="none" fill-rule="evenodd">
        <path d="M41.0287141,5.25168545 C41.5073089,4.9857995 42.0739792,4.92773667 42.59655,5.09104004 L42.59655,5.09104004 L58.59655,10.09104 C59.4315004,10.351962 60,11.1252301 60,11.9999961 L60,11.9999961 L60,30.9999961 C60,31.6038118 59.7272089,32.1753035 59.2577385,32.5550221 L59.2577385,32.5550221 L25.2577385,60.0550221 C24.6867695,60.5168353 23.9086352,60.628598 23.2307692,60.3461538 L23.2307692,60.3461538 L5.23076923,52.8461538 C4.48547535,52.5356147 4,51.8074017 4,50.9999961 L4,50.9999961 L4,26.9999961 C4,26.2736657 4.39378377,25.6044245 5.02871414,25.2516854 L5.02871414,25.2516854 Z M8,29.9239961 L8,45.6149961 L13.177,32.6709961 L16.89,34.1559961 L10.303,50.6249961 L21.999,55.4989961 L22,35.368 L8,29.9239961 Z M56,16.2709961 L25.999,35.6829961 L25.999,54.3099961 L56,30.044 L56,16.2709961 Z M40.3956969,9.34440135 C39.5329369,8.89039541 38.451402,8.84690452 37.4883869,9.4086633 L37.4883869,9.4086633 L25.3189957,16.5151851 L25.1591278,16.6311617 C24.4336773,17.1948188 24,18.0666651 24,19 L24,19 L24,19.2869961 L10.694,26.6789961 L23.197,31.5409961 L52.713,12.4429961 L42.222,9.164 L41.0545835,9.81209583 C40.8565898,9.62741234 40.6346119,9.47012438 40.3956969,9.34440135 Z" id="Combined-Shape" fill="#000000" fill-rule="nonzero"></path>
        <path d="M37.9922579,10.2724422 C39.2825611,9.51976535 40.8923273,10.3961806 40.9948405,11.8524763 L41,12 L41,16 C41,17.1045695 40.1045695,18 39,18 C37.9456382,18 37.0818349,17.1841222 37.0054857,16.1492623 L37,16 L37,15.481 L29,20.148 L29,23 C29,24.0543618 28.1841222,24.9181651 27.1492623,24.9945143 L27,25 C25.9456382,25 25.0818349,24.1841222 25.0054857,23.1492623 L25,23 L25,19 C25,18.3433839 25.3219316,17.7323801 25.8547297,17.3603572 L25.9922579,17.2724422 L37.9922579,10.2724422 Z" id="Path-244" fill="#000000" fill-rule="nonzero"></path>
    </g>
</svg>