<?xml version="1.0" encoding="UTF-8"?>
<svg width="64px" height="64px" viewBox="0 0 64 64" version="1.1" xmlns="http://www.w3.org/2000/svg" xmlns:xlink="http://www.w3.org/1999/xlink">
    <title>equipment_flying_insect_light_trap</title>
    <g id="equipment_flying_insect_light_trap" stroke="none" stroke-width="1" fill="none" fill-rule="evenodd">
        <path d="M17.5,45 L17.5,46 C17.5,49.7926482 18.8190281,51.4218154 21.78038,51.4972448 L22,51.5 L39.2632224,51.4998607 C39.8474156,50.0298944 41.4040234,49.2082045 43.9330459,49.034791 C43.955579,49.0331809 43.9781635,49.0324325 44.0007539,49.0324495 C44.5135896,49.0328361 44.9359698,49.4191949 44.9933601,49.916577 L44.997,49.997 L48,49.9978027 C48.5522847,49.9978027 49,50.445518 49,50.9978027 C49,51.5106385 48.6139598,51.9333099 48.1166211,51.991075 L48,51.9978027 L45,51.9978027 L45,53.9978027 L48,53.9978027 C48.5522847,53.9978027 49,54.445518 49,54.9978027 C49,55.5500874 48.5522847,55.9978027 48,55.9978027 L48,55.9978027 L45,55.9978027 L45,55.9978027 L44.9994513,56.0006732 L44.9977556,56.0345114 C44.9607743,56.5855566 44.4840845,57.0022877 43.9330459,56.965209 C41.4045929,56.7918346 39.8481167,55.9704756 39.2636172,54.5011322 L22,54.5 C17.2079983,54.5 14.5995186,51.562258 14.5027914,46.3058239 L14.5,46 L14.5,45 L17.5,45 Z" id="Combined-Shape" fill="#000000" fill-rule="nonzero"></path>
        <path d="M54,14 C57.3137085,14 60,16.6862915 60,20 L60,20 L60,38 C60,41.3137085 57.3137085,44 54,44 L54,44 L10,44 C6.6862915,44 4,41.3137085 4,38 L4,38 L4,20 C4,16.6862915 6.6862915,14 10,14 L10,14 Z M54,18 L10,18 C8.8954305,18 8,18.8954305 8,20 L8,20 L8,38 C8,39.1045695 8.8954305,40 10,40 L10,40 L54,40 C55.1045695,40 56,39.1045695 56,38 L56,38 L56,20 C56,18.8954305 55.1045695,18 54,18 L54,18 Z M50,32 C51.1045695,32 52,32.8954305 52,34 C52,35.1045695 51.1045695,36 50,36 L14,36 C12.8954305,36 12,35.1045695 12,34 C12,32.8954305 12.8954305,32 14,32 L50,32 Z M50,22 C51.1045695,22 52,22.8954305 52,24 C52,25.1045695 51.1045695,26 50,26 L14,26 C12.8954305,26 12,25.1045695 12,24 C12,22.8954305 12.8954305,22 14,22 L50,22 Z" id="Rectangle" fill="#000000" fill-rule="nonzero"></path>
    </g>
</svg>