<?xml version="1.0" encoding="UTF-8"?>
<svg width="64px" height="64px" viewBox="0 0 64 64" version="1.1" xmlns="http://www.w3.org/2000/svg" xmlns:xlink="http://www.w3.org/1999/xlink">
    <title>equipment_flying_insect_bait_station</title>
    <g id="equipment_flying_insect_bait_station" stroke="none" stroke-width="1" fill="none" fill-rule="evenodd">
        <path d="M44,5 C45.7183176,5 46.6366735,7.02384342 45.5051534,8.31700922 L45.5051534,8.31700922 L38.5051534,16.3170092 C38.3593088,16.4836888 38.1885588,16.6230748 38.0008779,16.7315488 L37.9999905,44 L58,44 C59.7294035,44 60.6208836,46.0294248 59.5198305,47.3007999 L59.4142136,47.4142136 L51.4142136,55.4142136 C51.0808156,55.7476116 50.6418293,55.9511456 50.1758528,55.9922594 L50,56 L14,56 C13.528504,56 13.0741736,55.8335102 12.7156066,55.5330869 L12.5857864,55.4142136 L4.58578644,47.4142136 C3.36291347,46.1913406 4.16756191,44.1259489 5.84512195,44.0055131 L6,44 L25.9999905,44 L26.0001404,16.732137 C25.8120588,16.6235788 25.6409549,16.4839902 25.4948466,16.3170092 L25.4948466,16.3170092 L18.4948466,8.31700922 C17.3633265,7.02384342 18.2816824,5 20,5 L20,5 Z M53.17,48 L10.829,48 L14.829,52 L49.17,52 L53.17,48 Z M31,39 L28,39 L28,42 L31,42 L31,39 Z M36,39 L33,39 L33,42 L36,42 L36,39 Z M31,34 L28,34 L28,37 L31,37 L31,34 Z M36,34 L33,34 L33,37 L36,37 L36,34 Z M31,29 L28,29 L28,32 L31,32 L31,29 Z M36,29 L33,29 L33,32 L36,32 L36,29 Z M31,24 L28,24 L28,27 L31,27 L31,24 Z M36,24 L33,24 L33,27 L36,27 L36,24 Z M31,19 L28,19 L28,22 L31,22 L31,19 Z M36,19 L33,19 L33,22 L36,22 L36,19 Z M39.591,9 L24.408,9 L27.908,13 L36.091,13 L39.591,9 Z" id="Combined-Shape" fill="#000000" fill-rule="nonzero"></path>
    </g>
</svg>