<?xml version="1.0" encoding="UTF-8"?>
<svg width="64px" height="64px" viewBox="0 0 64 64" version="1.1" xmlns="http://www.w3.org/2000/svg" xmlns:xlink="http://www.w3.org/1999/xlink">
    <title>equipment_live_rodent_trap</title>
    <g id="equipment_live_rodent_trap" stroke="none" stroke-width="1" fill="none" fill-rule="evenodd">
        <path d="M37.7820418,13.6333088 C38.2724895,13.4446751 38.8174721,13.4566368 39.2991708,13.6666081 L39.2991708,13.6666081 L58.7991708,22.1666081 C59.5284691,22.4845073 60,23.2044273 60,23.9999998 L60,23.9999998 L60,33.9999998 C60,34.766909 59.5614621,35.4662829 58.8711219,35.8003185 L58.8711219,35.8003185 L27.8711219,50.8003185 C27.3007323,51.0763135 26.6332968,51.065683 26.071986,50.7716631 L26.071986,50.7716631 L5.07198601,39.7716631 C4.41295384,39.4264557 4,38.7439701 4,37.9999998 L4,37.9999998 L4,27.9999998 C4,27.1724565 4.50965776,26.4303796 5.28204184,26.1333088 L5.28204184,26.1333088 Z M56,27.0969998 L29,39.2899998 L29,45.8089998 L56,32.745 L56,27.0969998 Z M8,31.1669998 L8,36.79 L10,37.8379998 L10,34.618034 C10,34.0657492 10.4477153,33.618034 11,33.618034 C11.1552451,33.618034 11.3083582,33.6541791 11.4472136,33.7236068 L14.8944272,35.4472136 C15.5719952,35.7859976 16,36.4785239 16,37.236068 L16,40.9799998 L25,45.6939998 L25,39.262 L8,31.1669998 Z M38.451,17.66 L11.062,28.1949998 L27.021,35.7949998 L53.068,24.0319998 L38.451,17.66 Z" id="Combined-Shape" fill="#000000" fill-rule="nonzero"></path>
    </g>
</svg>