<?xml version="1.0" encoding="UTF-8"?>
<svg width="64px" height="64px" viewBox="0 0 64 64" version="1.1" xmlns="http://www.w3.org/2000/svg" xmlns:xlink="http://www.w3.org/1999/xlink">
    <title>equipment_mosquito_trap</title>
    <g id="equipment_mosquito_trap" stroke="none" stroke-width="1" fill="none" fill-rule="evenodd">
        <path d="M32.6773289,10 L34.6838475,10.007309 L36.6168833,10.0234261 L38.4766154,10.0483995 L40.263223,10.0822779 L41.9768852,10.1251095 L43.617781,10.176943 L44.6713743,10.2165235 L45.6927597,10.2601407 L46.6819902,10.3078089 L47.6391191,10.3595424 L48.5641992,10.4153557 L49.8918442,10.5067566 L50.7370349,10.5728319 C50.8752433,10.5841883 51.012124,10.5957167 51.1476783,10.6074175 L51.1476783,10.6074175 L51.9450945,10.6796932 L52.7107273,10.7561204 C52.8356871,10.769205 52.9593249,10.7824632 53.0816416,10.7958953 L53.0816416,10.7958953 L53.799699,10.8785766 C53.9167362,10.8927054 54.0324546,10.9070087 54.1468554,10.9214867 L54.1468554,10.9214867 L54.8174568,11.0104545 L55.4564871,11.1036312 L56.0639995,11.2010311 L56.6400471,11.3026686 L57.1846828,11.4085581 L57.6979599,11.5187139 C57.7808957,11.5374295 57.8625272,11.5563235 57.9428554,11.5753962 L57.9428554,11.5753962 L58.4091939,11.6919784 L58.63065,11.7518819 C60.7828864,12.3498234 60.2668937,15 57.9982374,15 L57.9982374,15 L44.398,15 L44.3577917,15.0170676 C41.5589484,16.2263652 39.2972831,18.2089894 37.5766712,21.0000873 L54,21 C55.1045695,21 56,21.8954305 56,23 C56,34.0511878 53.2228183,43.7713239 47.6641006,52.1094004 C47.3881194,52.5233721 46.9677483,52.8196157 46.4850713,52.940285 C38.1665913,55.019905 25.8334087,55.019905 17.5149287,52.940285 C17.0322517,52.8196157 16.6118806,52.5233721 16.3358994,52.1094004 C10.7771817,43.7713239 8,34.0511878 8,23 C8,21.9456382 8.81587779,21.0818349 9.85073766,21.0054857 L10,21 L26.4230039,20.9995602 C24.6946322,18.1960881 22.4203595,16.2083315 19.6041134,15.0006698 L6.00176262,15 C3.7331063,15 3.21711361,12.3498234 5.36934996,11.7518819 C5.4418255,11.7317465 5.51560145,11.7117902 5.59067889,11.6920128 L5.59067889,11.6920128 L6.0567702,11.5754925 C6.13705797,11.5564294 6.2186494,11.5375446 6.30154557,11.5188378 L6.30154557,11.5188378 L6.81458819,11.4087304 L7.3589966,11.3028811 L7.93482274,11.2012759 C8.0334148,11.1846946 8.13331809,11.1682896 8.2345337,11.1520606 L8.2345337,11.1520606 L8.85758384,11.0567957 C8.96405306,11.0412694 9.07183675,11.0259185 9.18093601,11.0107427 L9.18093601,11.0107427 L9.85132702,10.921787 L10.5533435,10.83702 C10.6729846,10.8232405 10.7939456,10.8096349 10.9162276,10.796203 L10.9162276,10.796203 L11.6657797,10.7176933 L12.4470872,10.6433377 L13.260202,10.5731225 L14.105176,10.5070338 L14.9820612,10.4450577 L15.8909095,10.3871804 L16.8317729,10.3333881 L18.3032098,10.2603286 L19.8469728,10.1963823 L21.4632371,10.1415026 L22.5811117,10.10993 L24.3186011,10.0700573 L25.5174548,10.0484462 L27.3766563,10.0234508 L28.6568137,10.0117145 L30.6382143,10.0014666 L32.6773289,10 Z M51.966,25 L12.033,25 L12.0630683,25.7645672 C12.452566,34.1999777 14.6460688,41.695897 18.6409945,48.2825743 L18.9981629,48.8613928 L19.238,49.238 L19.7298996,49.3469741 C26.7325384,50.8362992 36.4141614,50.8828406 43.5842368,49.4865983 L44.2701004,49.3469741 L44.761,49.238 L45.0018371,48.8613928 C49.2233411,42.1360207 51.5359782,34.448078 51.9370061,25.7645672 L51.966,25.038636 L51.966,25 Z M37.2758701,14.9997857 L26.7241458,14.9998011 C28.4180902,16.6411764 29.8339473,18.6440002 30.9726954,20.9993992 L33.0269204,21.000194 C34.1657378,18.6444433 35.5817282,16.6413485 37.2758701,14.9997857 Z" id="Combined-Shape" fill="#000000" fill-rule="nonzero"></path>
    </g>
</svg>