<?xml version="1.0" encoding="UTF-8"?>
<svg width="64px" height="64px" viewBox="0 0 64 64" version="1.1" xmlns="http://www.w3.org/2000/svg" xmlns:xlink="http://www.w3.org/1999/xlink">
    <title>equipment_maps</title>
    <g id="equipment_maps" stroke="none" stroke-width="1" fill="none" fill-rule="evenodd">
        <path d="M41.3333333,8 L41.3333333,16 L60,16 L60,56 L4,56 L4,8 L41.3333333,8 Z M38,12 L8,12 L8,52 L56,52 L56,20 L38,20 L38,12 Z M14,46 L14,50 L10,50 L10,46 L14,46 Z M24,46 L24,50 L20,50 L20,46 L24,46 Z M34,46 L34,50 L30,50 L30,46 L34,46 Z M44,46 L44,50 L40,50 L40,46 L44,46 Z M54,46 L54,50 L50,50 L50,46 L54,46 Z M54,38 L54,42 L50,42 L50,38 L54,38 Z M14,38 L14,42 L10,42 L10,38 L14,38 Z M14,30 L14,34 L10,34 L10,30 L14,30 Z M54,30 L54,34 L50,34 L50,30 L54,30 Z M14,22 L14,26 L10,26 L10,22 L14,22 Z M54,22 L54,26 L50,26 L50,22 L54,22 Z M44,22 L44,26 L40,26 L40,22 L44,22 Z M34,22 L34,26 L30,26 L30,22 L34,22 Z M14,14 L14,18 L10,18 L10,14 L14,14 Z M24,14 L24,18 L20,18 L20,14 L24,14 Z M34,14 L34,18 L30,18 L30,14 L34,14 Z" id="Combined-Shape" fill="#000000" fill-rule="nonzero"></path>
    </g>
</svg>