<?xml version="1.0" encoding="UTF-8"?>
<svg width="64px" height="64px" viewBox="0 0 64 64" version="1.1" xmlns="http://www.w3.org/2000/svg" xmlns:xlink="http://www.w3.org/1999/xlink">
    <title>equipment_rodent_trap</title>
    <g id="equipment_rodent_trap" stroke="none" stroke-width="1" fill="none" fill-rule="evenodd">
        <path d="M23.0352762,30.1362967 C24.1022084,30.4221803 24.7353734,31.5188542 24.4494897,32.5857864 L23.4142136,36.4494897 C23.1283299,37.5164219 22.031656,38.1495869 20.9647238,37.8637033 C19.8977916,37.5778197 19.2646266,36.4811458 19.5505103,35.4142136 L20.5857864,31.5505103 C20.8716701,30.4835781 21.968344,29.8504131 23.0352762,30.1362967 Z M28.0352762,30.1362967 C29.1022084,30.4221803 29.7353734,31.5188542 29.4494897,32.5857864 L28.4142136,36.4494897 C28.1283299,37.5164219 27.031656,38.1495869 25.9647238,37.8637033 C24.8977916,37.5778197 24.2646266,36.4811458 24.5505103,35.4142136 L25.5857864,31.5505103 C25.8716701,30.4835781 26.968344,29.8504131 28.0352762,30.1362967 Z M38.0352762,30.1362967 C39.1022084,30.4221803 39.7353734,31.5188542 39.4494897,32.5857864 L38.4142136,36.4494897 C38.1283299,37.5164219 37.031656,38.1495869 35.9647238,37.8637033 C34.8977916,37.5778197 34.2646266,36.4811458 34.5505103,35.4142136 L35.5857864,31.5505103 C35.8716701,30.4835781 36.968344,29.8504131 38.0352762,30.1362967 Z M43.0352762,30.1362967 C44.1022084,30.4221803 44.7353734,31.5188542 44.4494897,32.5857864 L43.4142136,36.4494897 C43.1283299,37.5164219 42.031656,38.1495869 40.9647238,37.8637033 C39.8977916,37.5778197 39.2646266,36.4811458 39.5505103,35.4142136 L40.5857864,31.5505103 C40.8716701,30.4835781 41.968344,29.8504131 43.0352762,30.1362967 Z" id="Combined-Shape" fill="#000000"></path>
        <path d="M32,10 C32.8284271,10 33.5,10.6715729 33.5,11.5 L33.5,40 L38,40 C39.1045695,40 40,40.8954305 40,42 L40,52 C40,53.1045695 39.1045695,54 38,54 L26,54 C24.8954305,54 24,53.1045695 24,52 L24,42 C24,40.8954305 24.8954305,40 26,40 L30.5,40 L30.5,11.5 C30.5,10.6715729 31.1715729,10 32,10 Z M36,44 L28,44 L28,50 L36,50 L36,44 Z" id="Combined-Shape" fill="#000000" fill-rule="nonzero"></path>
        <path d="M46,4 L18,4 C15.790861,4 14,5.790861 14,8 L14,56 C14,58.209139 15.790861,60 18,60 L46,60 C48.209139,60 50,58.209139 50,56 L50,8 C50,5.790861 48.209139,4 46,4 Z M18,8 L46,8 L46,56 L18,56 L18,8 Z" id="Rectangle" fill="#000000"></path>
        <path d="M29.4998022,12.5 L29.4998022,15.5 L25,15.5 C24.2203039,15.5 23.5795513,16.0948881 23.5068666,16.85554 L23.5,17 L23.5008576,29.2337075 C23.4332294,29.2103267 23.3642881,29.189179 23.2940952,29.1703709 C22.4938961,28.9559582 21.6825438,29.0861887 21.0176381,29.4700721 C20.8321561,29.5771602 20.6580704,29.7039872 20.4988022,29.8485778 L20.5,17 C20.5,14.5857267 22.4012365,12.6155109 24.7881643,12.504898 L25,12.5 L29.4998022,12.5 Z M39,12.5 C41.4142733,12.5 43.3844891,14.4012365 43.495102,16.7881643 L43.5,17 L43.5008576,29.2337075 C43.4332294,29.2103267 43.3642881,29.189179 43.2940952,29.1703709 C42.4938961,28.9559582 41.6825438,29.0861887 41.0176381,29.4700721 C40.8322917,29.5770819 40.658325,29.7038017 40.4991516,29.8482607 L40.5,17 C40.5,16.2203039 39.9051119,15.5795513 39.14446,15.5068666 L39,15.5 L34.4998022,15.5 L34.4998022,12.5 L39,12.5 Z" id="Path-228" fill="#000000" fill-rule="nonzero"></path>
    </g>
</svg>