<?xml version="1.0" encoding="UTF-8"?>
<svg width="64px" height="64px" viewBox="0 0 64 64" version="1.1" xmlns="http://www.w3.org/2000/svg" xmlns:xlink="http://www.w3.org/1999/xlink">
    <title>equipment_other</title>
    <g id="equipment_other" stroke="none" stroke-width="1" fill="none" fill-rule="evenodd">
        <path d="M54,16 C57.3137085,16 60,18.6862915 60,22 L60,22 L60,46 C60,49.3137085 57.3137085,52 54,52 L54,52 L10,52 C6.6862915,52 4,49.3137085 4,46 L4,46 L4,22 C4,18.6862915 6.6862915,16 10,16 L10,16 Z M54,20 L10,20 C8.8954305,20 8,20.8954305 8,22 L8,22 L8,28 L28,28 L28,32 L8,32 L8,46 C8,47.0543618 8.81587779,47.9181651 9.85073766,47.9945143 L10,48 L54,48 C55.1045695,48 56,47.1045695 56,46 L56,46 L56,32 L36,32 L36,28 L56,28 L56,22 C56,20.9456382 55.1841222,20.0818349 54.1492623,20.0054857 L54,20 Z" id="Combined-Shape" fill="#000000" fill-rule="nonzero"></path>
        <path d="M38,8 C41.2383969,8 43.8775718,10.5655749 43.9958615,13.7750617 L44,14 L44,15 L40,15 L40,14 C40,12.9456382 39.1841222,12.0818349 38.1492623,12.0054857 L38,12 L26,12 C24.9456382,12 24.0818349,12.8158778 24.0054857,13.8507377 L24,14 L24,15 L20,15 L20,14 C20,10.7616031 22.5655749,8.12242824 25.7750617,8.00413847 L26,8 L38,8 Z" id="Path-229" fill="#000000" fill-rule="nonzero"></path>
        <rect id="Rectangle" fill="#000000" x="29" y="26" width="6" height="8" rx="2"></rect>
    </g>
</svg>