<?xml version="1.0" encoding="UTF-8"?>
<svg width="64px" height="64px" viewBox="0 0 64 64" version="1.1" xmlns="http://www.w3.org/2000/svg" xmlns:xlink="http://www.w3.org/1999/xlink">
    <title>open</title>
    <g id="open" stroke="none" stroke-width="1" fill="none" fill-rule="evenodd">
        <g id="Group" transform="translate(4.000000, 4.000000)" fill="#000000" fill-rule="nonzero">
            <path d="M56,16 C56,17.1045695 55.1045695,18 54,18 C52.9743283,18 52.1289857,17.2279196 52.0134555,16.2332423 L52,16 L52,6.83 L23.4142136,35.4142136 C22.633165,36.1952621 21.366835,36.1952621 20.5857864,35.4142136 C19.8648185,34.6932456 19.8093594,33.5587835 20.4194092,32.7742011 L20.5857864,32.5857864 L49.17,4 L40,4 C38.9743283,4 38.1289857,3.22791962 38.0134555,2.23324225 L38,2 C38,0.974328322 38.7720804,0.128985679 39.7667577,0.0134554627 L40,0 L54,0 L54.1504771,0.00557572598 L54.4014515,0.0404801421 L54.624285,0.0994761717 L54.8464431,0.187346723 L55.0414175,0.291990908 L55.2340447,0.425855381 L55.4142816,0.585821869 C55.4850017,0.656574542 55.5493741,0.731348838 55.6073308,0.80938677 L55.7506577,1.03187581 L55.857549,1.25732795 L55.9283097,1.46801407 L55.9865445,1.76675775 L56,2 L56,16 Z" id="Path"></path>
            <path d="M38,12 C38.1151625,12 38.2295672,12.0032445 38.3431277,12.0096471 L34.355,16 L6,16 C4.9456382,16 4.08183488,16.8158778 4.00548574,17.8507377 L4,18 L4,50 C4,51.1045695 4.8954305,52 6,52 L6,52 L38,52 C39.1045695,52 40,51.1045695 40,50 L40,50 L40,21.647 L43.9902965,17.6558732 C43.9925373,17.6955011 43.9943935,17.7352318 43.9958615,17.7750617 L44,18 L44,50 C44,53.3137085 41.3137085,56 38,56 L38,56 L6,56 C2.6862915,56 0,53.3137085 0,50 L0,50 L0,18 C0,14.6862915 2.6862915,12 6,12 L6,12 Z" id="Rectangle"></path>
        </g>
    </g>
</svg>