<?xml version="1.0" encoding="UTF-8"?>
<svg width="64px" height="64px" viewBox="0 0 64 64" version="1.1" xmlns="http://www.w3.org/2000/svg" xmlns:xlink="http://www.w3.org/1999/xlink">
    <title>ews</title>
    <g id="ews" stroke="none" fill="none">
        <path d="M27,12 C36.9411255,12 45,20.0588745 45,30 C45,39.9411255 36.9411255,48 27,48 C17.0588745,48 9,39.9411255 9,30 C9,20.0588745 17.0588745,12 27,12 Z M27,14 C18.163444,14 11,21.163444 11,30 C11,38.836556 18.163444,46 27,46 C35.836556,46 43,38.836556 43,30 C43,21.163444 35.836556,14 27,14 Z" id="Oval" fill="#000000" fill-rule="nonzero"></path>
        <path d="M25,10.0709117 L25.2757238,10.0726847 C15.0369372,10.9479389 7,19.5354058 7,30 C7,41.045695 15.954305,50 27,50 C31.2243209,50 34.7243209,49 37.5,47 C34.1012219,50.3806078 29.9345552,52.0709117 25,52.0709117 C13.4020203,52.0709117 4,42.6688914 4,31.0709117 C4,19.472932 13.4020203,10.0709117 25,10.0709117 Z" id="Path" fill="#000000" fill-rule="evenodd"></path>
        <path d="M42,45 C44,39 44.5,35 47,32 C48.6666667,30 53,27.6666667 60,25 C60.6666667,32 59.8333333,37.1666667 57.5,40.5 C54,45.5 48.5,49 43.5,47 C50.1666667,42 54.1666667,36.6666667 55.5,31 C52.8333333,35.6666667 48.3333333,40.3333333 42,45 Z" id="Path" fill="#000000" fill-rule="evenodd"></path>
        <path d="M27,43 C24.3333333,40.3333333 23,38.6666667 23,38 C23,37 25.5,36 27,36 C28.5,36 31,37 31,38 C31,38.6666667 29.6666667,40.3333333 27,43 Z" id="Path" fill="#000000" fill-rule="evenodd"></path>
        <path d="M19.4393398,33.9393398 C24.0251263,29.3535534 29.9748737,29.3535534 34.5606602,33.9393398 C35.1464466,34.5251263 35.1464466,35.4748737 34.5606602,36.0606602 C33.9748737,36.6464466 33.0251263,36.6464466 32.4393398,36.0606602 C29.0251263,32.6464466 24.9748737,32.6464466 21.5606602,36.0606602 C20.9748737,36.6464466 20.0251263,36.6464466 19.4393398,36.0606602 C18.8535534,35.4748737 18.8535534,34.5251263 19.4393398,33.9393398 Z" id="Path" fill="#000000" fill-rule="nonzero"></path>
        <path d="M16.4393398,29.9393398 C22.5251263,23.8535534 31.4748737,23.8535534 37.5606602,29.9393398 C38.1464466,30.5251263 38.1464466,31.4748737 37.5606602,32.0606602 C36.9748737,32.6464466 36.0251263,32.6464466 35.4393398,32.0606602 C30.5251263,27.1464466 23.4748737,27.1464466 18.5606602,32.0606602 C17.9748737,32.6464466 17.0251263,32.6464466 16.4393398,32.0606602 C15.8535534,31.4748737 15.8535534,30.5251263 16.4393398,29.9393398 Z" id="Path-Copy" fill="#000000" fill-rule="nonzero"></path>
        <path d="M12.9393398,25.9393398 C20.5251263,18.3535534 33.4748737,18.3535534 41.0606602,25.9393398 C41.6464466,26.5251263 41.6464466,27.4748737 41.0606602,28.0606602 C40.4748737,28.6464466 39.5251263,28.6464466 38.9393398,28.0606602 C32.5251263,21.6464466 21.4748737,21.6464466 15.0606602,28.0606602 C14.4748737,28.6464466 13.5251263,28.6464466 12.9393398,28.0606602 C12.3535534,27.4748737 12.3535534,26.5251263 12.9393398,25.9393398 Z" id="Path-Copy-2" fill="#000000" fill-rule="nonzero"></path>
    </g>
</svg>