<svg xmlns="http://www.w3.org/2000/svg" width="32" height="32" viewBox="0 0 32 32">
  <g fill="none" fill-rule="evenodd">
    <path fill="#000" fill-rule="nonzero" d="M26,2 C27.1045695,2 28,2.8954305 28,4 L28,28 C28,29.1045695 27.1045695,30 26,30 L6,30 C4.8954305,30 4,29.1045695 4,28 L4,4 C4,2.8954305 4.8954305,2 6,2 L26,2 Z M26,4 L6,4 L6,28 L26,28 L26,4 Z"/>
    <rect width="9" height="2" x="15" y="6" fill="#000" rx="1"/>
    <rect width="9" height="2" x="15" y="9" fill="#000" rx="1"/>
    <rect width="9" height="2" x="15" y="13.5" fill="#000" rx="1"/>
    <rect width="9" height="2" x="15" y="16.5" fill="#000" rx="1"/>
    <rect width="9" height="2" x="15" y="21" fill="#000" rx="1"/>
    <rect width="9" height="2" x="15" y="24" fill="#000" rx="1"/>
    <circle cx="10.5" cy="8.5" r="2.5" fill="#000"/>
    <circle cx="10.5" cy="16" r="2.5" fill="#000"/>
    <circle cx="10.5" cy="23.5" r="2.5" fill="#000"/>
  </g>
</svg>
