<svg xmlns="http://www.w3.org/2000/svg" width="32" height="32" viewBox="0 0 32 32">
  <g fill="none" fill-rule="evenodd">
    <g fill="#000" transform="translate(6 10)">
      <path fill-rule="nonzero" d="M22,0 C23.1045695,0 24,0.8954305 24,2 L24,18 C24,19.1045695 23.1045695,20 22,20 L2,20 C0.8954305,20 0,19.1045695 0,18 L0,2 C0,0.8954305 0.8954305,0 2,0 L22,0 Z M22,2 L2,2 L2,18 L22,18 L22,2 Z"/>
      <rect width="9" height="2" x="11" y="4" rx="1"/>
      <rect width="9" height="2" x="11" y="7" rx="1"/>
      <rect width="9" height="2" x="11" y="11" rx="1"/>
      <rect width="9" height="2" x="11" y="14" rx="1"/>
      <circle cx="6.5" cy="6.5" r="2.5"/>
      <circle cx="6.5" cy="13.5" r="2.5"/>
    </g>
    <path fill="#000" fill-rule="nonzero" d="M22,0 C23.1045695,0 24,0.8954305 24,2 L24,7 L22,7 L22,2 L2,2 L2,18 L3,18 L3,20 L2,20 C0.8954305,20 0,19.1045695 0,18 L0,2 C0,0.8954305 0.8954305,0 2,0 L22,0 Z M6.5,4 C7.88071187,4 9,5.11928813 9,6.5 C9,6.67138643 8.98275399,6.83874484 8.94990271,7.00043449 L6,7 C5.3427691,7 4.7349003,7.21134427 4.24064771,7.5697787 C4.08617031,7.2460717 4,6.88309893 4,6.5 C4,5.11928813 5.11928813,4 6.5,4 Z M19,4 C19.5522847,4 20,4.44771525 20,5 C20,5.55228475 19.5522847,6 19,6 L12,6 C11.4477153,6 11,5.55228475 11,5 C11,4.44771525 11.4477153,4 12,4 L19,4 Z" transform="translate(2 2)"/>
  </g>
</svg>
