<?xml version="1.0" encoding="UTF-8"?>
<svg width="64px" height="64px" viewBox="0 0 64 64" version="1.1" xmlns="http://www.w3.org/2000/svg" xmlns:xlink="http://www.w3.org/1999/xlink">
    <title>exclusion</title>
    <g id="exclusion" stroke="none" stroke-width="1" fill="none" fill-rule="evenodd">
        <path d="M44.4437589,1.76942489 L44.4778895,1.85295708 L44.522,1.99986709 L45,2 L45,3.55286709 L50.4778895,21.3529571 L50,22 L45,21.9998671 L45,23.1828671 L50.480762,42.3626394 L50,43 L45,42.9998671 L45,44.0068671 L50.4767913,61.3494343 L50,62 L43,62 L43,57.2008671 L38.3535534,61.8484363 C38.1582912,62.0436985 37.8417088,62.0436985 37.6464466,61.8484363 C37.4728803,61.67487 37.4535951,61.4054456 37.5885912,61.2105774 L37.6464466,61.1413295 L43,55.7868671 L43,49.2018671 L30.3535534,61.8484363 C30.1582912,62.0436985 29.8417088,62.0436985 29.6464466,61.8484363 C29.4728803,61.67487 29.4535951,61.4054456 29.5885912,61.2105774 L29.6464466,61.1413295 L43,47.7868671 L43,41.2008671 L23,61.2008671 L23,62 L21,62 L21,39 L24.76,38.9998671 L25.761,39.9998671 L23,39.9998671 L23,43.8588671 L26.31,40.5488671 L27.018,41.2558671 L23,45.2738671 L23,51.7868671 L30.276,44.5108671 L30.984,45.2178671 L23,53.2008671 L23,59.7868671 L42.787,39.9998671 L36.202,39.9998671 L35.222,40.9798671 L34.515,40.2718671 L34.787,39.9998671 L34.242,39.9998671 L33.242,38.9998671 L35.9034687,38.9990859 C35.9713352,38.9848681 36.0415855,38.9848681 36.1094521,38.9990859 L43,38.9998671 L43,24.9998671 L33.285,24.9998671 L34.284,23.9998671 L37.787,23.9998671 L43,18.7868671 L43,12.2018671 L36.6694828,18.5334228 C36.5743654,18.3638284 36.4614842,18.2015111 36.3308355,18.04919 L36.1728559,17.8786797 C36.1286644,17.8344881 36.0834463,17.7919538 36.0372669,17.7510863 L43,10.7868671 L43,4.20086709 L23.201,23.9998671 L25.807,23.9998671 L24.807,24.9998671 L21,25 L21,2 L23,2 L23,6.85886709 L27.6998489,2.16069847 C27.895111,1.96543633 28.2116935,1.96543633 28.4069557,2.16069847 C28.580522,2.33426482 28.5998072,2.60368922 28.4648111,2.79855737 L28.4069557,2.86780525 L23,8.27386709 L23,14.7868671 L35.652907,2.13486914 C35.8481691,1.939607 36.1647516,1.939607 36.3600138,2.13486914 C36.5335801,2.3084355 36.5528653,2.5778599 36.4178692,2.77272804 L36.3600138,2.84197593 L23,16.2008671 L23,22.7868671 L43,2.78686709 L43,2 L43.4998672,2.00014464 C43.4997517,1.81545661 43.6027915,1.64257955 43.7694249,1.55624109 L43.8529571,1.5221105 C44.0875625,1.44992422 44.3346998,1.5589406 44.4437589,1.76942489 Z M45,47.3278671 L45,61 L49.318,61 L45,47.3278671 Z M45,26.8208671 L45,42 L49.337,42 L45,26.8208671 Z M43,20.2008671 L39.201,23.9998671 L43,23.9998671 L43,20.2008671 Z M45,6.94986709 L45,21 L49.323,21 L45,6.94986709 Z" id="Combined-Shape" fill="#000000" fill-rule="nonzero"></path>
        <path d="M11.2869988,18.4689537 L11.4142136,18.5857864 L22.025,29.197 L32.637322,18.5857864 L32.7645368,18.4689537 C33.5503242,17.8069014 34.7258084,17.8458457 35.4657492,18.5857864 C36.2467977,19.366835 36.2467977,20.633165 35.4657492,21.4142136 L35.4657492,21.4142136 L24.854,32.025 L35.4657492,42.637322 C36.2467977,43.4183706 36.2467977,44.6847006 35.4657492,45.4657492 C34.7258084,46.2056899 33.5503242,46.2446342 32.7645368,45.5825819 L32.637322,45.4657492 L22.025,34.854 L11.4142136,45.4657492 L11.2869988,45.5825819 C10.5012114,46.2446342 9.3257272,46.2056899 8.58578644,45.4657492 C7.80473785,44.6847006 7.80473785,43.4183706 8.58578644,42.637322 L8.58578644,42.637322 L19.197,32.025 L8.58578644,21.4142136 C7.80473785,20.633165 7.80473785,19.366835 8.58578644,18.5857864 C9.3257272,17.8458457 10.5012114,17.8069014 11.2869988,18.4689537 Z" id="Combined-Shape" fill="#000000" fill-rule="nonzero"></path>
    </g>
</svg>