<?xml version="1.0" encoding="UTF-8"?>
<svg width="32px" height="32px" viewBox="0 0 32 32" version="1.1" xmlns="http://www.w3.org/2000/svg" xmlns:xlink="http://www.w3.org/1999/xlink">
    <title>existing-location</title>
    <g id="existing-location" stroke="none" stroke-width="1" fill="none" fill-rule="evenodd">
        <path d="M12,2 C17.5228475,2 22,5.73076923 22,11.6153846 C22,12.2104164 21.9233159,12.8561777 21.7699477,13.5526684 L19.9715493,12.1824515 C19.9842143,12.0512739 19.9926495,11.9234139 19.9968577,11.7988879 L20,11.6153846 C20,7.07161572 16.6680851,4 12,4 C7.33191492,4 4,7.07161572 4,11.6153846 C4,13.6267194 5.1637017,16.5584843 7.50383938,20.3353263 L7.95640466,21.053369 L8.43656132,21.7911079 C8.51888774,21.9156996 8.60236459,22.0411073 8.68699224,22.1673289 L9.20857093,22.9344049 C9.29780336,23.0638724 9.38818737,23.194149 9.47972336,23.3252324 L10.0427661,24.1213974 L10.6334747,24.9368169 L11.2518681,25.7713806 L12,26.758 L12.74867,25.7706622 L13.3675542,24.9354126 L13.9587067,24.11934 L14.5221462,23.3225551 C14.6137443,23.1913711 14.7041886,23.0609953 14.7934793,22.9314301 L15.3153842,22.1637841 L15.7655482,21.4808093 C15.8671812,22.398053 15.9763154,23.4027874 16.0999282,24.5565835 L15.6,25.2646154 L15.0049587,26.0862301 L14.3834711,26.9253401 L13.7355372,27.7819453 L13.061157,28.6560458 L12.3603306,29.5476414 C12.2413223,29.6976987 12.1212121,29.8484848 12,30 L11.2859504,29.0996567 C11.169146,28.9510574 11.0534435,28.8031871 10.938843,28.6560458 L10.2644628,27.7819453 L9.61652893,26.9253401 L8.99504132,26.0862301 C8.89366391,25.9478364 8.79338843,25.8101716 8.69421488,25.6732359 L8.11239669,24.8603687 C8.01763085,24.7263488 7.92396694,24.5930579 7.83140496,24.4604959 L7.2892562,23.6738716 C5.79063361,21.4698877 4.61046832,19.4765755 3.74876033,17.6939352 L3.45785124,17.0735156 C2.48595041,14.9326637 2,13.1132867 2,11.6153846 C2,5.73076923 6.4771525,2 12,2 Z" id="Oval" fill="#000000" fill-rule="nonzero"></path>
        <circle id="Oval" fill="#020202" fill-rule="nonzero" cx="12" cy="12" r="3"></circle>
        <path d="M16.0080343,13.7299939 L17.4033121,27.7286348 L17.4193819,27.843309 L17.4536143,27.9822441 C17.8066914,29.2010507 19.3505778,29.5603443 20.1579101,28.5685247 L21.457,26.971 L22.5972923,29.1594189 C23.0141738,29.9596454 24.0165633,30.2438887 24.787156,29.7705464 L27.5777116,28.0564271 L27.6823226,27.9854313 L27.802812,27.8814507 C28.3745728,27.3415832 28.4849188,26.5128747 28.0835152,25.8736319 L26.781,23.8 L28.7513847,23.3977058 C30.0720658,23.1272931 30.4475944,21.4160668 29.3802432,20.603536 L18.4970763,12.3186261 C17.403728,11.4863048 15.8731121,12.3763366 16.0080343,13.7299939 Z M18.097,14.527 L27.424,21.627 L23.5533203,22.4197158 L26.164,26.579 L24.151,27.814 L21.8264013,23.3509223 L19.287,26.469 L18.097,14.527 Z" id="Path-109" fill="#000000" fill-rule="nonzero"></path>
    </g>
</svg>