<?xml version="1.0" encoding="UTF-8"?>
<svg width="64px" height="64px" viewBox="0 0 64 64" version="1.1" xmlns="http://www.w3.org/2000/svg" xmlns:xlink="http://www.w3.org/1999/xlink">
    <title>expand</title>
    <g id="expand" stroke="none" fill="none" fill-rule="nonzero">
        <path d="M6,42 L6.14926234,42.0054857 C7.18412221,42.0818349 8,42.9456382 8,44 L8,56 L20,56 C21.1045695,56 22,56.8954305 22,58 C22,59.1045695 21.1045695,60 20,60 L6,60 C4.8954305,60 4,59.1045695 4,58 L4,44 C4,42.8954305 4.8954305,42 6,42 Z M58,42 C59.1045695,42 60,42.8954305 60,44 L60,58 C60,59.1045695 59.1045695,60 58,60 L44,60 C42.8954305,60 42,59.1045695 42,58 C42,56.8954305 42.8954305,56 44,56 L56,56 L56,44 C56,42.9456382 56.8158778,42.0818349 57.8507377,42.0054857 L58,42 Z M20,4 C21.1045695,4 22,4.8954305 22,6 C22,7.1045695 21.1045695,8 20,8 L8,8 L8,20 C8,21.0543618 7.18412221,21.9181651 6.14926234,21.9945143 L6,22 C4.8954305,22 4,21.1045695 4,20 L4,6 C4,4.8954305 4.8954305,4 6,4 L20,4 Z M58,4 C59.1045695,4 60,4.8954305 60,6 L60,20 C60,21.1045695 59.1045695,22 58,22 L57.8507377,21.9945143 C56.8158778,21.9181651 56,21.0543618 56,20 L56,8 L44,8 C42.8954305,8 42,7.1045695 42,6 C42,4.8954305 42.8954305,4 44,4 Z M57.4142136,6.58578644 C58.1952621,7.36683502 58.1952621,8.63316498 57.4142136,9.41421356 L37.4142136,29.4142136 C36.633165,30.1952621 35.366835,30.1952621 34.5857864,29.4142136 C33.8047379,28.633165 33.8047379,27.366835 34.5857864,26.5857864 L54.5857864,6.58578644 C55.366835,5.80473785 56.633165,5.80473785 57.4142136,6.58578644 Z M9.41421356,6.58578644 L29.4142136,26.5857864 C30.1952621,27.366835 30.1952621,28.633165 29.4142136,29.4142136 C28.633165,30.1952621 27.366835,30.1952621 26.5857864,29.4142136 L6.58578644,9.41421356 C5.80473785,8.63316498 5.80473785,7.36683502 6.58578644,6.58578644 C7.36683502,5.80473785 8.63316498,5.80473785 9.41421356,6.58578644 Z M29.4142136,34.5857864 C30.1952621,35.366835 30.1952621,36.633165 29.4142136,37.4142136 L9.41421356,57.4142136 C8.63316498,58.1952621 7.36683502,58.1952621 6.58578644,57.4142136 C5.80473785,56.633165 5.80473785,55.366835 6.58578644,54.5857864 L26.5857864,34.5857864 C27.366835,33.8047379 28.633165,33.8047379 29.4142136,34.5857864 Z M37.4142136,34.5857864 L57.4142136,54.5857864 C58.1952621,55.366835 58.1952621,56.633165 57.4142136,57.4142136 C56.633165,58.1952621 55.366835,58.1952621 54.5857864,57.4142136 L34.5857864,37.4142136 C33.8047379,36.633165 33.8047379,35.366835 34.5857864,34.5857864 C35.366835,33.8047379 36.633165,33.8047379 37.4142136,34.5857864 Z" id="Combined-Shape" fill="#000000"></path>
    </g>
</svg>