<?xml version="1.0" encoding="UTF-8"?>
<svg width="64px" height="64px" viewBox="0 0 64 64" version="1.1" xmlns="http://www.w3.org/2000/svg" xmlns:xlink="http://www.w3.org/1999/xlink">
    <title>expand</title>
    <g id="expand" stroke="none" stroke-width="1" fill="none" fill-rule="evenodd">
        <path d="M20,4 C21.1045695,4 22,4.8954305 22,6 C22,7.1045695 21.1045695,8 20,8 L10.829,8 L32,29.171 L53.17,8 L44,8 C42.9456382,8 42.0818349,7.18412221 42.0054857,6.14926234 L42,6 C42,4.8954305 42.8954305,4 44,4 L58,4 C59.1045695,4 60,4.8954305 60,6 L60,20 C60,21.1045695 59.1045695,22 58,22 L57.8507377,21.9945143 C56.8158778,21.9181651 56,21.0543618 56,20 L56,10.828 L34.829,32 L56,53.171 L56,44 C56,42.9456382 56.8158778,42.0818349 57.8507377,42.0054857 L58,42 C59.1045695,42 60,42.8954305 60,44 L60,58 C60,59.1045695 59.1045695,60 58,60 L44,60 C42.8954305,60 42,59.1045695 42,58 C42,56.8954305 42.8954305,56 44,56 L53.171,56 L32,34.829 L10.828,56 L20,56 C21.0543618,56 21.9181651,56.8158778 21.9945143,57.8507377 L22,58 C22,59.1045695 21.1045695,60 20,60 L6,60 C4.8954305,60 4,59.1045695 4,58 L4,44 C4,42.8954305 4.8954305,42 6,42 L6.14926234,42.0054857 C7.18412221,42.0818349 8,42.9456382 8,44 L8,53.17 L29.171,32 L8,10.829 L8,20 C8,21.0543618 7.18412221,21.9181651 6.14926234,21.9945143 L6,22 C4.8954305,22 4,21.1045695 4,20 L4,6 C4,4.8954305 4.8954305,4 6,4 L20,4 Z" id="Combined-Shape" fill="#000000" fill-rule="nonzero"></path>
    </g>
</svg>