<?xml version="1.0" encoding="UTF-8"?>
<svg width="64px" height="64px" viewBox="0 0 64 64" version="1.1" xmlns="http://www.w3.org/2000/svg" xmlns:xlink="http://www.w3.org/1999/xlink">
    <title>expiring</title>
    <g id="expiring" stroke="none" stroke-width="1" fill="none" fill-rule="evenodd">
        <path d="M32,4 C47.463973,4 60,16.536027 60,32 C60,47.463973 47.463973,60 32,60 C16.536027,60 4,47.463973 4,32 C4,16.536027 16.536027,4 32,4 Z M32,8 C18.745166,8 8,18.745166 8,32 C8,45.254834 18.745166,56 32,56 C45.254834,56 56,45.254834 56,32 C56,18.745166 45.254834,8 32,8 Z" id="Oval" fill="#000000" fill-rule="nonzero"></path>
        <path d="M33,12 C33.5522847,12 34,12.4477153 34,13 L34.0002257,31.7162503 C34.1823377,32.0271591 34.1823271,32.4153223 34.0001938,32.7262221 L34,32.7768404 C34,33.3291252 33.5522847,33.7768404 33,33.7768404 L32.9974143,33.776 L22.6835947,44.1108089 C22.2934582,44.5017207 21.6602936,44.5023492 21.2693818,44.1122127 C21.2689134,44.1117453 21.2684455,44.1112773 21.267978,44.1108089 L19.886606,42.7266918 C19.4970171,42.3363287 19.4970171,41.7042458 19.886606,41.3138827 L30.0484143,31.131 L30.0484273,13 C30.0484273,12.4477153 30.4961426,12 31.0484273,12 L33,12 Z" id="Combined-Shape" fill="#000000"></path>
    </g>
</svg>