<?xml version="1.0" encoding="UTF-8"?>
<svg width="32px" height="32px" viewBox="0 0 32 32" version="1.1" xmlns="http://www.w3.org/2000/svg" xmlns:xlink="http://www.w3.org/1999/xlink">
    <title>expiring</title>
    <g id="expiring" stroke="none" stroke-width="1" fill="none" fill-rule="evenodd">
        <path d="M16,2 C23.7319865,2 30,8.2680135 30,16 C30,23.7319865 23.7319865,30 16,30 C8.2680135,30 2,23.7319865 2,16 C2,8.2680135 8.2680135,2 16,2 Z M16,4 C9.372583,4 4,9.372583 4,16 C4,22.627417 9.372583,28 16,28 C22.627417,28 28,22.627417 28,16 C28,9.372583 22.627417,4 16,4 Z" id="Oval" fill="#000000" fill-rule="nonzero"></path>
        <path d="M16,6 C16.5522847,6 17,6.44771525 17,7 L17,16 C17,16.2434286 16.9130201,16.466542 16.7684437,16.6399566 C16.7213532,16.7415836 16.655293,16.8370951 16.5710678,16.9213203 L11.6213203,21.8710678 C11.2307961,22.2615921 10.5976311,22.2615921 10.2071068,21.8710678 C9.81658249,21.4805435 9.81658249,20.8473785 10.2071068,20.4568542 L14.9992136,15.664 L15,7 C15,6.44771525 15.4477153,6 16,6 Z" id="Combined-Shape" fill="#000000"></path>
    </g>
</svg>