<?xml version="1.0" encoding="UTF-8"?>
<svg width="64px" height="64px" viewBox="0 0 64 64" version="1.1" xmlns="http://www.w3.org/2000/svg" xmlns:xlink="http://www.w3.org/1999/xlink">
    <title>expired</title>
    <g id="expired" stroke="none" stroke-width="1" fill="none" fill-rule="evenodd">
        <path d="M34.5769318,52.0007456 L6,52 C4.45139998,52 3.49032872,50.3157722 4.27814694,48.9825414 L30.2781469,4.98254138 C31.0522705,3.67248621 32.9477295,3.67248621 33.7218531,4.98254138 L51.0675551,34.3377861 C50.0794009,34.1166615 49.0518006,34 47.9969525,34 C47.4171223,34 46.8455249,34.0352492 46.2841865,34.1037217 L32,9.93 L9.504,48 L33.9969525,48 C33.9969525,49.3902178 34.1995871,50.7331077 34.5769318,52.0007456 Z" id="Path-35" fill="#000000" fill-rule="nonzero"></path>
        <path d="M48,36 C54.627417,36 60,41.372583 60,48 C60,54.627417 54.627417,60 48,60 C41.372583,60 36,54.627417 36,48 C36,41.372583 41.372583,36 48,36 Z M48,40 C43.581722,40 40,43.581722 40,48 C40,52.418278 43.581722,56 48,56 C52.418278,56 56,52.418278 56,48 C56,43.581722 52.418278,40 48,40 Z" id="Oval" fill="#000000" fill-rule="nonzero"></path>
        <path d="M48,41 C49.0543618,41 49.9181651,41.8158778 49.9945143,42.8507377 L50,43 L50,47.171 L52.4142136,49.5857864 C53.1541543,50.3257272 53.1930986,51.5012114 52.5310463,52.2869988 L52.4142136,52.4142136 C51.6742728,53.1541543 50.4987886,53.1930986 49.7130012,52.5310463 L49.5857864,52.4142136 L46.5857864,49.4142136 C46.2523884,49.0808156 46.0488544,48.6418293 46.0077406,48.1758528 L46,48 L46,43 C46,41.8954305 46.8954305,41 48,41 Z" id="Path-36" fill="#000000" fill-rule="nonzero"></path>
        <path d="M32.0198676,46 C31.2119165,46 30.5066255,45.7357886 29.9039735,45.2073579 C29.3013215,44.6789271 29,43.9398041 29,42.9899666 C29,42.160531 29.2880766,41.4548524 29.8642384,40.8729097 C30.4404002,40.290967 31.1456912,40 31.9801324,40 C32.8145737,40 33.5264871,40.290967 34.115894,40.8729097 C34.705301,41.4548524 35,42.160531 35,42.9899666 C35,43.9264261 34.7019897,44.6622047 34.1059603,45.1973244 C33.5099308,45.7324441 32.8145735,46 32.0198676,46 Z" id="!" fill="#000000" fill-rule="nonzero"></path>
        <path d="M32,38 C34,38 35,31.155796 35,25.9090909 C35,20.6623858 35,19 32,19 C29,19 29,20.6623858 29,25.9090909 C29,31.155796 30,38 32,38 Z" id="Oval" fill="#000000"></path>
    </g>
</svg>