<?xml version="1.0" encoding="UTF-8"?>
<svg width="64px" height="64px" viewBox="0 0 64 64" version="1.1" xmlns="http://www.w3.org/2000/svg" xmlns:xlink="http://www.w3.org/1999/xlink">
    <title>extras</title>
    <g id="extras" stroke="none" stroke-width="1" fill="none" fill-rule="evenodd">
        <rect id="Rectangle" fill="#000000" x="14" y="20" width="4" height="24" rx="2"></rect>
        <rect id="Rectangle-Copy" fill="#000000" x="4" y="30" width="24" height="4" rx="2"></rect>
        <path d="M56,6 C58.209139,6 60,7.790861 60,10 L60,16.8571429 C60,19.0662819 58.209139,20.8571429 56,20.8571429 L36,20.8571429 C33.790861,20.8571429 32,19.0662819 32,16.8571429 L32,10 C32,7.790861 33.790861,6 36,6 L56,6 Z M56,10 L36,10 L36,16.8571429 L56,16.8571429 L56,10 Z" id="Rectangle" fill="#000000" fill-rule="nonzero"></path>
        <path d="M56,24.5714286 C58.209139,24.5714286 60,26.3622896 60,28.5714286 L60,35.4285714 C60,37.6377104 58.209139,39.4285714 56,39.4285714 L36,39.4285714 C33.790861,39.4285714 32,37.6377104 32,35.4285714 L32,28.5714286 C32,26.3622896 33.790861,24.5714286 36,24.5714286 L56,24.5714286 Z M56,28.5714286 L36,28.5714286 L36,35.4285714 L56,35.4285714 L56,28.5714286 Z" id="Rectangle-Copy-2" fill="#000000" fill-rule="nonzero"></path>
        <path d="M56,43.1428571 C58.209139,43.1428571 60,44.9337181 60,47.1428571 L60,54 C60,56.209139 58.209139,58 56,58 L36,58 C33.790861,58 32,56.209139 32,54 L32,47.1428571 C32,44.9337181 33.790861,43.1428571 36,43.1428571 L56,43.1428571 Z M56,47.1428571 L36,47.1428571 L36,54 L56,54 L56,47.1428571 Z" id="Rectangle-Copy-3" fill="#000000" fill-rule="nonzero"></path>
    </g>
</svg>