<?xml version="1.0" encoding="UTF-8"?>
<svg width="64px" height="64px" viewBox="0 0 64 64" version="1.1" xmlns="http://www.w3.org/2000/svg" xmlns:xlink="http://www.w3.org/1999/xlink">
    <title>facebook</title>
    <g id="facebook" stroke="none" stroke-width="1" fill="none" fill-rule="evenodd">
        <path d="M56,4 L8,4 C5.790861,4 4,5.790861 4,8 L4,56 C4,58.209139 5.790861,60 8,60 L36,60 L36,37 C36,36.4477153 35.5522847,36 35,36 L29,36 L29,36 L29,32 L35,32 C35.5522847,32 36,31.5522847 36,31 L36,22 L36,22 L36.0029728,21.7577822 C36.1337293,16.4667318 40.5749014,13.6731045 48.7260736,14.6742947 L49,14.709 L49,18 L47,18 C43.2287638,18 41,20.2287638 41,24 L41,31 C41,31.5522847 41.4477153,32 42,32 L48.734,32 L48.734,32 L48.234,36 L42,36 C41.4477153,36 41,36.4477153 41,37 L41,60 L41,60 L56,60 C58.209139,60 60,58.209139 60,56 L60,8 C60,5.790861 58.209139,4 56,4 Z M8,56 L8,8 L56,8 L56,56 L45,56 L45,40 L50.8827822,40 C51.3871055,40 51.8125065,39.6244636 51.8750601,39.1240347 L53.1250601,29.1240347 C53.1935626,28.5760148 52.8048369,28.0762246 52.256817,28.0077221 C52.2156721,28.002579 52.1742472,28 52.1327822,28 L45,28 L45,28 L45,24 C45,22.4979835 45.4048658,22.0353478 46.824708,22.0019824 L52.0000001,22.000321 C52.5521593,21.9998227 52.9996789,21.5521594 53,21 L53,12.1662645 C53,11.6826046 52.6538544,11.268266 52.1779105,11.1822178 L50.9740568,10.9645673 L50.9740568,10.9645673 C39.5064997,9.0038469 32,13.3417962 32,22 L32,28 L26,28 C25.4477153,28 25,28.4477153 25,29 L25,39 C25,39.5522847 25.4477153,40 26,40 L32,40 L32,40 L32,56 L8,56 Z" id="Rectangle" fill="#000000" fill-rule="nonzero"></path>
    </g>
</svg>