<?xml version="1.0" encoding="UTF-8"?>
<svg width="32px" height="32px" viewBox="0 0 32 32" version="1.1" xmlns="http://www.w3.org/2000/svg" xmlns:xlink="http://www.w3.org/1999/xlink">
    <title>family</title>
    <g id="family" stroke="none" stroke-width="1" fill="none" fill-rule="evenodd">
        <path d="M16,2 C19.3137085,2 22,4.6862915 22,8 C22,9.91154424 21.1060911,11.6143049 19.7134944,12.7130609 C20.9302241,13.2355401 21.974306,14.0456561 22.8458099,15.1345891 C22.151975,15.2979684 21.5148297,15.6059946 20.9668274,16.0247665 C19.7472243,14.7179152 18.174229,14.0549112 16.24642,14.0032736 L16.24642,14.0032736 L16,14 C13.9594102,14 12.3043777,14.6626609 11.0322633,16.0248143 C10.4853308,15.6061172 9.84839808,15.2981488 9.15575946,15.1342461 C10.0259332,14.0453572 11.0703491,13.2350954 12.2868864,12.7115003 C10.8939089,11.6143049 10,9.91154424 10,8 C10,4.6862915 12.6862915,2 16,2 Z M16,4 C13.790861,4 12,5.790861 12,8 C12,10.209139 13.790861,12 16,12 C18.209139,12 20,10.209139 20,8 C20,5.790861 18.209139,4 16,4 Z" id="dad" fill="#000000" fill-rule="nonzero"></path>
        <path d="M24,16 C26.209139,16 28,17.790861 28,20 C28,21.0139269 27.6227502,21.9397423 27.0009561,22.6447407 C28.976049,23.6526605 30,25.823707 30,29 C30,29.5522847 29.5522847,30 29,30 L29,30 L19,30 C18.4477153,30 18,29.5522847 18,29 C18,25.823707 19.023951,23.6526605 20.9988474,22.6440515 C20.3772498,21.9397423 20,21.0139269 20,20 C20,17.790861 21.790861,16 24,16 Z M24,24 C21.5592387,24 20.2903832,25.2059872 20.0445622,27.9385023 L20.0445622,27.9385023 L20.039,28 L27.96,28 L27.929362,27.6865498 C27.6384821,25.2116384 26.4425913,24.0721964 24.2186631,24.0033312 L24.2186631,24.0033312 Z M24,18 C22.8954305,18 22,18.8954305 22,20 C22,21.1045695 22.8954305,22 24,22 C25.1045695,22 26,21.1045695 26,20 C26,18.8954305 25.1045695,18 24,18 Z" id="right-child" fill="#000000" fill-rule="nonzero"></path>
        <path d="M8,16 C9.461881,16 10.7405968,16.7842235 11.4384016,17.9549247 C11.1558514,18.5791565 11,19.2713777 11,20 C11,20.7288432 11.1559841,21.4212304 11.4362766,22.0455079 C11.3111116,22.2586287 11.1644917,22.4593219 11.0009561,22.6447407 C11.0566664,22.6724032 11.1114287,22.7016734 11.1654381,22.7318586 C10.6338921,23.2411624 10.1959553,23.858624 9.85454488,24.5822311 L9.96220021,24.3689533 C9.47333553,24.1436309 8.89330131,24.0242218 8.21866314,24.0033312 L8.21866314,24.0033312 L8,24 C5.55923867,24 4.29038323,25.2059872 4.04456218,27.9385023 L4.04456218,27.9385023 L4.039,28 L9.03390927,27.9993283 C9.01140053,28.3219748 9,28.6555677 9,29 C9,29.3645564 9.0975383,29.7063315 9.26794182,30.0006522 L3,30 C2.44771525,30 2,29.5522847 2,29 C2,25.823707 3.02395097,23.6526605 4.99884739,22.6440515 C4.37724984,21.9397423 4,21.0139269 4,20 C4,17.790861 5.790861,16 8,16 Z M8,18 C6.8954305,18 6,18.8954305 6,20 C6,21.1045695 6.8954305,22 8,22 C9.1045695,22 10,21.1045695 10,20 C10,18.8954305 9.1045695,18 8,18 Z" id="left-child" fill="#000000" fill-rule="nonzero"></path>
        <path d="M16,16 C17.461881,16 18.7405968,16.7842235 19.4384016,17.9549247 C19.1558514,18.5791565 19,19.2713777 19,20 C19,20.7288432 19.1559841,21.4212304 19.4362766,22.0455079 C19.3111116,22.2586287 19.1644917,22.4593219 19.0009561,22.6447407 C19.0566664,22.6724032 19.1114287,22.7016734 19.1654381,22.7318586 C18.6338921,23.2411624 18.1959553,23.858624 17.8545449,24.5822311 L17.9622002,24.3689533 C17.4733355,24.1436309 16.8933013,24.0242218 16.2186631,24.0033312 L16.2186631,24.0033312 L16,24 C13.5592387,24 12.2903832,25.2059872 12.0445622,27.9385023 L12.0445622,27.9385023 L12.039,28 L17.0339093,27.9993283 C17.0114005,28.3219748 17,28.6555677 17,29 C17,29.3645564 17.0975383,29.7063315 17.2679418,30.0006522 L11,30 C10.4477153,30 10,29.5522847 10,29 C10,25.823707 11.023951,23.6526605 12.9988474,22.6440515 C12.3772498,21.9397423 12,21.0139269 12,20 C12,17.790861 13.790861,16 16,16 Z M16,18 C14.8954305,18 14,18.8954305 14,20 C14,21.1045695 14.8954305,22 16,22 C17.1045695,22 18,21.1045695 18,20 C18,18.8954305 17.1045695,18 16,18 Z" id="middle-child" fill="#000000" fill-rule="nonzero"></path>
    </g>
</svg>