<?xml version="1.0" encoding="UTF-8"?>
<svg width="64px" height="64px" viewBox="0 0 64 64" version="1.1" xmlns="http://www.w3.org/2000/svg" xmlns:xlink="http://www.w3.org/1999/xlink">
    <title>farm_grain_seed</title>
    <g id="farm_grain_seed" stroke="none" stroke-width="1" fill="none" fill-rule="evenodd">
        <rect id="Rectangle-187" fill="#000000" fill-rule="nonzero" x="37" y="19" width="16" height="1"></rect>
        <rect id="Rectangle-187-Copy" fill="#000000" fill-rule="nonzero" x="37" y="29" width="16" height="1"></rect>
        <rect id="Rectangle-187-Copy-2" fill="#000000" fill-rule="nonzero" x="40" y="39" width="13" height="1"></rect>
        <rect id="Rectangle-187-Copy-3" fill="#000000" fill-rule="nonzero" x="39" y="48" width="14" height="1"></rect>
        <path d="M14.2925589,28.2490639 L24,22.8560411 L33.7074411,28.2490639 L40.8436615,39.4631245 C41.1401696,39.9290659 41.0028169,40.5471533 40.5368755,40.8436615 C40.1042156,41.1189905 39.5403686,41.0202251 39.2246255,40.6316523 L39.1563385,40.5368755 L32.293,29.751 L24,25.144 L15.706,29.751 L8.84366149,40.5368755 C8.56833249,40.9695353 8.01572338,41.1188713 7.56512521,40.9005966 L7.46312451,40.8436615 C7.03046466,40.5683325 6.88112866,40.0157234 7.09940342,39.5651252 L7.15633851,39.4631245 L14.2925589,28.2490639 Z" id="Path-602" fill="#000000" fill-rule="nonzero"></path>
        <path d="M24,22.8560411 L33.7354022,28.2645978 L39,37.740874 L39,57 L9,57 L9,37.740874 L14.2645978,28.2645978 L24,22.8560411 Z M24,50 L18.9516347,54.9998738 L29,55 L24,50 Z M17,43 L17,53 L22,48 L17,43 Z M31,43 L26,48 L31,53 L31,43 Z M29,41 L18.9516347,41.0001262 L24,46 L29,41 Z M24,25.144 L15.735,29.735 L11,38.258 L11,55 L15,55 L15,39 L33,39 L33,55 L37,55 L37,38.26 L32.264,29.735 L24,25.144 Z M28,29 L28,37 L20,37 L20,29 L28,29 Z M26,31 L22,31 L22,35 L26,35 L26,31 Z" id="Path-603" fill="#000000" fill-rule="nonzero"></path>
        <path d="M53,55 L53,19 C53,18.9621884 52.9976923,18.8853961 52.9909165,18.7742535 L52.9909165,18.7742535 L52.9670065,18.4701416 C52.9458928,18.249591 52.915119,18.0109766 52.8729811,17.758149 C52.7125454,16.7955347 52.4242634,15.8345947 51.9805728,14.9472136 C50.7381121,12.4622923 48.5446737,11 45,11 C41.575855,11 39.4122217,12.3665052 38.144764,14.7064271 C37.6805819,15.5633786 37.3666114,16.5052902 37.1791834,17.4692057 C37.0578477,18.093218 37.0078773,18.6179072 37.000576,18.9579903 L37.000576,18.9579903 L36.999,33.498 L35,30.356 L35.0007929,18.9371232 C35.0093345,18.5271276 35.0568156,17.9885373 35.1655412,17.3614964 L35.2159526,17.0874663 C35.4397886,15.9363098 35.8170181,14.8046214 36.38618,13.7538609 C37.9941143,10.7853668 40.820945,9 45,9 C49.3303263,9 52.1993879,10.9127077 53.7694272,14.0527864 C54.3101116,15.1341553 54.6546421,16.2825903 54.8457689,17.429351 C54.9353828,17.967034 54.9788976,18.416928 54.9938121,18.7470811 L54.9938121,18.7470811 L55,19 L55,57 L37,57 L37,55 L53,55 Z M39.758,37.834 L40.8320503,39.4452998 L40.542,39.678 L40.5,39 L39.758,37.834 Z" id="Path-604" fill="#000000" fill-rule="nonzero"></path>
    </g>
</svg>