<?xml version="1.0" encoding="UTF-8"?>
<svg width="64px" height="64px" viewBox="0 0 64 64" version="1.1" xmlns="http://www.w3.org/2000/svg" xmlns:xlink="http://www.w3.org/1999/xlink">
    <title>fast_and_frequent</title>
    <g id="fast_and_frequent" stroke="none" stroke-width="1" fill="none" fill-rule="evenodd">
        <polygon id="Path-185" fill="#000000" fill-rule="nonzero" points="8.08210283 57.8195132 56.0737802 57.8195132 56.0737802 52.7293326 47.9042023 52.7293326 46.7971947 50 40 51.3927927 32.0779415 51.3927927 24 51.3927927 17.1487132 50 15.9240024 52.7293326 8.08210283 52.7293326"></polygon>
        <polygon id="Path-186" fill="#000000" fill-rule="nonzero" points="18.0842636 46.9587541 25.0102604 48.3195132 31.9979426 48.3195132 39.0180595 48.3195132 45.9694641 46.9587541 43.0217042 35 39.0180595 36.3629053 31.9979426 36.3629053 25.0102604 36.3629053 21.0276417 35"></polygon>
        <polygon id="Path-186" fill="#000000" fill-rule="nonzero" points="22.0873187 32.0546817 25.9991127 33.2719436 31.9290484 33.2719436 38.0121897 33.2719436 41.8619962 32.0546817 38.9544636 20.99844 36.4352069 22.2125691 32 22.2125691 27.7873807 22.2125691 25.1388012 20.99844"></polygon>
        <polygon id="Path-186" fill="#000000" fill-rule="nonzero" points="25.9798412 18 29.0146474 19 31.9199611 19 34.9592386 19 37.9956999 18 34.9592386 6 31.9199611 6 29.0146474 6"></polygon>
    </g>
</svg>