<?xml version="1.0" encoding="UTF-8"?>
<svg width="64px" height="64px" viewBox="0 0 64 64" version="1.1" xmlns="http://www.w3.org/2000/svg" xmlns:xlink="http://www.w3.org/1999/xlink">
    <title>favorite</title>
    <g id="favorite" stroke="none" stroke-width="1" fill="none" fill-rule="evenodd">
        <path d="M43.627179,4.00323335 C38.3159627,4.09589545 34.4057513,6.17903894 32.0663789,10.1018414 L32,10.215 L31.9336211,10.1018414 C29.5398447,6.08781098 25.5013175,4 20,4 C8.58791293,4 3.18453664,10.2531244 3.94873483,23.3106854 L4.00589103,24.153393 C4.40634203,29.359256 7.34178923,35.2788939 12.7959648,41.9686277 L13.4625548,42.7750959 C13.5756677,42.9101245 13.6897879,43.0454621 13.8049152,43.181109 L14.5077631,43.9987071 C15.103539,44.6831387 15.7244859,45.3753276 16.3705875,46.0753301 L17.1579827,46.9190873 L17.9695202,47.7703671 L18.8051938,48.6291913 L19.6649971,49.4955813 L20.5489241,50.369559 L21.4569684,51.2511458 L22.3891237,52.1403635 L23.3453839,53.0372336 L24.3257427,53.9417778 L25.3301938,54.8540177 C25.4996097,55.0067002 25.6700292,55.1597043 25.8414521,55.3130303 L26.88203,56.2368543 L27.9466846,57.1684281 L29.0354097,58.1077733 C29.2188694,58.2649796 29.4033318,58.4225107 29.5887967,58.5803669 L30.7136158,59.5314097 C31.4574099,60.1561968 32.5425901,60.1561968 33.2863842,59.5314097 L34.4112033,58.5803669 L35.5119613,57.6371279 C35.6934155,57.4805705 35.8738669,57.3243374 36.0533154,57.1684281 L37.11797,56.2368543 L38.1585479,55.3130303 L39.1750429,54.3969345 L40.1674486,53.4885451 C40.3308418,53.3377879 40.493231,53.1873509 40.6546161,53.0372336 L41.6108763,52.1403635 L42.5430316,51.2511458 L43.4510759,50.369559 L44.3350029,49.4955813 L45.1948062,48.6291913 L46.0304798,47.7703671 L46.8420173,46.9190873 L47.6294125,46.0753301 C48.2755141,45.3753276 48.896461,44.6831387 49.4922369,43.9987071 L50.1950848,43.181109 C50.3102121,43.0454621 50.4243323,42.9101245 50.5374452,42.7750959 L51.2040352,41.9686277 C56.6582108,35.2788939 59.593658,29.359256 59.994109,24.153393 L60.0512652,23.3106854 C60.8154634,10.2531244 55.4120871,4 44,4 L43.627179,4.00323335 Z M44,8 L44.3155505,8.00176401 L44.9334986,8.01594504 C52.8530704,8.29322266 56.3423935,12.2100866 56.122221,21.5853597 L56.0979803,22.3173313 C56.0769583,22.8125307 56.0462295,23.3222075 56.005891,23.846607 L55.982295,24.1161589 C55.716841,26.8231093 54.5665353,29.8728586 52.5277442,33.252827 L52.1081384,33.9332198 C51.676684,34.6180081 51.2096805,35.3159717 50.7070989,36.0270098 L50.1926568,36.7424023 C49.7540704,37.3421884 49.2907702,37.9510308 48.8027394,38.5688712 L48.2052306,39.3145949 C48.103667,39.4396008 48.0011139,39.5649657 47.8975712,39.6906891 L47.2644383,40.4493281 L46.6075478,41.2165493 C46.4960859,41.3451335 46.3836339,41.4740743 46.2701915,41.6033712 L45.5776526,42.3834238 L44.86134,43.1720026 L44.1212473,43.9690854 L43.3573679,44.7746497 C43.0987763,45.0445822 42.8362192,45.3159246 42.5696955,45.5886732 L41.7582236,46.4111335 L40.9229457,47.2420083 L40.0638553,48.0812751 C39.9186888,48.221851 39.7725299,48.3627757 39.6253784,48.5040486 L38.7305572,49.3558617 L37.8119075,50.2160109 L36.8694227,51.084474 L35.9030963,51.9612286 L34.912922,52.8462522 L33.8988933,53.7395225 L32.8610036,54.6410172 L31.999,55.379 L31.1389964,54.6410172 L30.1011067,53.7395225 L29.087078,52.8462522 L28.0969037,51.9612286 L27.1305773,51.084474 L26.1880925,50.2160109 L25.2694428,49.3558617 L24.3746216,48.5040486 L23.5036226,47.6605941 L22.6564392,46.8255205 C22.5172263,46.6870412 22.3790054,46.548912 22.2417764,46.4111335 L21.4303045,45.5886732 C21.1637808,45.3159246 20.9012237,45.0445822 20.6426321,44.7746497 L19.8787527,43.9690854 L19.13866,43.1720026 L18.4223474,42.3834238 L17.7298085,41.6033712 C17.6163661,41.4740743 17.5039141,41.3451335 17.3924522,41.2165493 L16.7355617,40.4493281 L16.1024288,39.6906891 C15.9988861,39.5649657 15.896333,39.4396008 15.7947694,39.3145949 L15.1972606,38.5688712 C14.7092298,37.9510308 14.2459296,37.3421884 13.8073432,36.7424023 L13.2929011,36.0270098 C12.7903195,35.3159717 12.323316,34.6180081 11.8918616,33.9332198 L11.4722558,33.252827 C9.36550504,29.760193 8.20745917,26.6201595 7.99410897,23.846607 C7.96385515,23.4533074 7.93900674,23.0682893 7.91960474,22.6914492 L7.88807476,21.9486425 C7.56886487,12.3111172 11.0453967,8.2967775 19.0665014,8.01594504 L19.6844495,8.00176401 C19.7889013,8.00058672 19.8940843,8 20,8 C25.7065069,8 28.8911693,10.6538853 30.0388386,16.3922323 C30.4675767,18.5359226 33.5324233,18.5359226 33.9611614,16.3922323 C35.1088307,10.6538853 38.2934931,8 44,8 Z" id="Path-114" fill="#000000" fill-rule="nonzero"></path>
    </g>
</svg>