<?xml version="1.0" encoding="UTF-8"?>
<svg width="32px" height="32px" viewBox="0 0 32 32" version="1.1" xmlns="http://www.w3.org/2000/svg" xmlns:xlink="http://www.w3.org/1999/xlink">
    <title>features</title>
    <g id="features" stroke="none" stroke-width="1" fill="none" fill-rule="evenodd">
        <path d="M13.563,19.145 L9.72729107,19.4955242 L9.61611445,19.5115382 C8.82309985,19.669119 8.5268053,20.6897373 9.1592853,21.2436662 L12.056,23.781 L11.2042,27.5372666 L11.1856261,27.6433863 C11.0865575,28.4485816 11.9676258,29.0488436 12.6912585,28.6176778 L16,26.646 L19.3087415,28.6176778 L19.4039277,28.6681354 C20.1391,29.0111743 20.9822483,28.3587197 20.7958,27.5372666 L19.943,23.781 L22.8407147,21.2436662 L22.9212457,21.1653626 C23.4701843,20.5717548 23.1099872,19.5718996 22.2727089,19.4955242 L18.436,19.145 L16.9190526,15.6058652 C16.5726197,14.7980449 15.4273803,14.7980449 15.0809474,15.6058652 L13.563,19.145 Z M16,18.538 L16.8338169,20.4815168 L16.8882912,20.5899153 C17.049747,20.8678014 17.3370566,21.0536039 17.662028,21.0832473 L19.769,21.275 L18.1773552,22.6692614 L18.0910956,22.7545665 C17.8767028,22.9939916 17.7887777,23.3246554 17.8610068,23.6428819 L18.329,25.706 L16.5118626,24.6230925 L16.3902631,24.5614345 C16.0994575,24.4381184 15.7640886,24.4586711 15.4881374,24.6230925 L13.67,25.706 L14.1389932,23.6428819 L14.1586377,23.5231665 C14.1913546,23.2034506 14.0681281,22.8842569 13.8226448,22.6692614 L12.23,21.275 L14.337972,21.0832473 C14.7035648,21.0498984 15.021492,20.8189108 15.1661831,20.4815168 L16,18.538 Z" id="Star" fill="#000000" fill-rule="nonzero"></path>
        <path d="M6.063,7.145 L2.22729107,7.49552418 L2.11611445,7.51153818 C1.32309985,7.66911897 1.0268053,8.68973732 1.6592853,9.2436662 L4.556,11.781 L3.70420003,15.5372666 L3.68562612,15.6433863 C3.58655753,16.4485816 4.46762579,17.0488436 5.19125845,16.6176778 L8.499,14.646 L11.8087415,16.6176778 L11.9039277,16.6681354 C12.6391,17.0111743 13.4822483,16.3587197 13.2958,15.5372666 L12.443,11.781 L15.3407147,9.2436662 L15.4212457,9.16536262 C15.9701843,8.57175479 15.6099872,7.57189964 14.7727089,7.49552418 L10.936,7.145 L9.41905265,3.60586521 C9.07261974,2.79804493 7.92738026,2.79804493 7.58094735,3.60586521 L6.063,7.145 Z M8.5,6.538 L9.33381694,8.48151677 L9.38829121,8.58991533 C9.54974698,8.86780141 9.83705664,9.05360387 10.162028,9.08324734 L12.269,9.275 L10.6773552,10.6692614 L10.5910956,10.7545665 C10.3767028,10.9939916 10.2887777,11.3246554 10.3610068,11.6428819 L10.829,13.706 L9.01186259,12.6230925 L8.89026313,12.5614345 C8.59945751,12.4381184 8.26408859,12.4586711 7.98813741,12.6230925 L6.17,13.706 L6.63899325,11.6428819 L6.65863771,11.5231665 C6.69135459,11.2034506 6.56812814,10.8842569 6.32264477,10.6692614 L4.73,9.275 L6.83797198,9.08324734 C7.20356478,9.04989843 7.52149197,8.81891081 7.66618306,8.48151677 L8.5,6.538 Z" id="Star-Copy" fill="#000000" fill-rule="nonzero"></path>
        <path d="M21.063,7.145 L17.2272911,7.49552418 L17.1161144,7.51153818 C16.3230999,7.66911897 16.0268053,8.68973732 16.6592853,9.2436662 L19.556,11.781 L18.7042,15.5372666 L18.6856261,15.6433863 C18.5865575,16.4485816 19.4676258,17.0488436 20.1912585,16.6176778 L23.499,14.646 L26.8087415,16.6176778 L26.9039277,16.6681354 C27.6391,17.0111743 28.4822483,16.3587197 28.2958,15.5372666 L27.443,11.781 L30.3407147,9.2436662 L30.4212457,9.16536262 C30.9701843,8.57175479 30.6099872,7.57189964 29.7727089,7.49552418 L25.936,7.145 L24.4190526,3.60586521 C24.0726197,2.79804493 22.9273803,2.79804493 22.5809474,3.60586521 L21.063,7.145 Z M23.5,6.538 L24.3338169,8.48151677 L24.3882912,8.58991533 C24.549747,8.86780141 24.8370566,9.05360387 25.162028,9.08324734 L27.269,9.275 L25.6773552,10.6692614 L25.5910956,10.7545665 C25.3767028,10.9939916 25.2887777,11.3246554 25.3610068,11.6428819 L25.829,13.706 L24.0118626,12.6230925 L23.8902631,12.5614345 C23.5994575,12.4381184 23.2640886,12.4586711 22.9881374,12.6230925 L21.17,13.706 L21.6389932,11.6428819 L21.6586377,11.5231665 C21.6913546,11.2034506 21.5681281,10.8842569 21.3226448,10.6692614 L19.73,9.275 L21.837972,9.08324734 C22.2035648,9.04989843 22.521492,8.81891081 22.6661831,8.48151677 L23.5,6.538 Z" id="Star-Copy-2" fill="#000000" fill-rule="nonzero"></path>
    </g>
</svg>