<?xml version="1.0" encoding="UTF-8"?>
<svg width="64px" height="64px" viewBox="0 0 64 64" version="1.1" xmlns="http://www.w3.org/2000/svg" xmlns:xlink="http://www.w3.org/1999/xlink">
    <title>feedback</title>
    <g id="feedback" stroke="none" stroke-width="1" fill="none" fill-rule="evenodd">
        <path d="M51,8 C56.6375644,8 60,12.1545653 60,17 L60,17 L60,60 L47,48 L13,48 C7.5,48 4.1650394,44.4397052 4,39 L4,39 L4,17 C4,12.1541188 7.5,8 13,8 L13,8 Z M51,12 L13,12 C10.1681522,12 8,14.067987 8,17 L8,17 L8,39 C8,41.9586524 10.1705968,44.0279106 13,44 L13,44 L49,44 L56,51 L56,17 C56,14.1459541 53.9600919,12.1258165 51,12 L51,12 Z" id="Rectangle-204-Copy" fill="#000000" fill-rule="nonzero" transform="translate(32.000000, 34.000000) scale(-1, 1) translate(-32.000000, -34.000000) "></path>
        <path d="M19.7470144,34.6870027 L15.2673315,37.8688227 C14.817067,38.1886357 14.1927958,38.0828838 13.8729829,37.6326193 C13.7049934,37.396107 13.6479918,37.0982998 13.7167681,36.8164695 L15.1679699,30.8697617 C15.2557928,30.5098827 15.137477,30.1309388 14.8604909,29.8849624 L10.4115175,25.9340678 C9.998562,25.5673442 9.96108366,24.9352894 10.3278073,24.5223339 C10.5041909,24.323714 10.7523517,24.2034331 11.017538,24.1880287 L16.561544,23.8659825 C16.9642293,23.8425908 17.3134354,23.5795591 17.4470743,23.1989763 L19.3825653,17.6870016 C19.5655433,17.165909 20.1363053,16.8918129 20.6573979,17.0747909 C20.9438112,17.1753629 21.1690366,17.4005882 21.2696086,17.6870016 L23.2050996,23.1989763 C23.3387385,23.5795591 23.6879446,23.8425908 24.0906299,23.8659825 L29.6346359,24.1880287 C30.1859912,24.2200564 30.6069894,24.6929818 30.5749617,25.2443371 C30.5595572,25.5095233 30.4392763,25.7576841 30.2406564,25.9340678 L25.791683,29.8849624 C25.5146969,30.1309388 25.3963811,30.5098827 25.484204,30.8697617 L26.9354058,36.8164695 C27.06634,37.353009 26.7375318,37.8941034 26.2009923,38.0250375 C25.9191619,38.0938138 25.6213547,38.0368122 25.3848424,37.8688227 L20.9051595,34.6870027 C20.5583957,34.4407041 20.0937782,34.4407041 19.7470144,34.6870027 Z" id="Star" fill="#000000" fill-rule="nonzero"></path>
        <path d="M42.6600579,34.6870027 L38.1803749,37.8688227 C37.7301104,38.1886357 37.1058393,38.0828838 36.7860264,37.6326193 C36.6180369,37.396107 36.5610353,37.0982998 36.6298116,36.8164695 L38.0810134,30.8697617 C38.1688362,30.5098827 38.0505205,30.1309388 37.7735344,29.8849624 L33.324561,25.9340678 C32.9116055,25.5673442 32.8741271,24.9352894 33.2408507,24.5223339 C33.4172344,24.323714 33.6653952,24.2034331 33.9305815,24.1880287 L39.4745875,23.8659825 C39.8772728,23.8425908 40.2264789,23.5795591 40.3601178,23.1989763 L42.2956088,17.6870016 C42.4785868,17.165909 43.0493488,16.8918129 43.5704414,17.0747909 C43.8568547,17.1753629 44.08208,17.4005882 44.1826521,17.6870016 L46.1181431,23.1989763 C46.251782,23.5795591 46.6009881,23.8425908 47.0036734,23.8659825 L52.5476794,24.1880287 C53.0990347,24.2200564 53.5200329,24.6929818 53.4880052,25.2443371 C53.4726007,25.5095233 53.3523198,25.7576841 53.1536999,25.9340678 L48.7047265,29.8849624 C48.4277404,30.1309388 48.3094246,30.5098827 48.3972475,30.8697617 L49.8484493,36.8164695 C49.9793834,37.353009 49.6505753,37.8941034 49.1140357,38.0250375 C48.8322054,38.0938138 48.5343982,38.0368122 48.2978859,37.8688227 L43.818203,34.6870027 C43.4714392,34.4407041 43.0068216,34.4407041 42.6600579,34.6870027 Z" id="Star-Copy" fill="#000000" fill-rule="nonzero"></path>
    </g>
</svg>