<?xml version="1.0" encoding="UTF-8"?>
<svg width="64px" height="64px" viewBox="0 0 64 64" version="1.1" xmlns="http://www.w3.org/2000/svg" xmlns:xlink="http://www.w3.org/1999/xlink">
    <title>field_guide</title>
    <g id="field_guide" stroke="none" stroke-width="1" fill="none" fill-rule="evenodd">
        <path d="M46,10 L14,10 C13.5155537,10 13.0475738,10.1758365 12.6829908,10.4948466 L4.68299078,17.4948466 C3.77233641,18.2916692 3.77233641,19.7083308 4.68299078,20.5051534 L12.6829908,27.5051534 C13.0475738,27.8241635 13.5155537,28 14,28 L46,28 C47.1045695,28 48,27.1045695 48,26 L48,12 C48,10.8954305 47.1045695,10 46,10 Z M44,14 L44,24 L14.752,24 L9.036,19 L14.75,14 L44,14 Z" id="Path-110" fill="#000000" fill-rule="nonzero"></path>
        <path d="M58,34 L26,34 C25.5155537,34 25.0475738,34.1758365 24.6829908,34.4948466 L16.6829908,41.4948466 C15.7723364,42.2916692 15.7723364,43.7083308 16.6829908,44.5051534 L24.6829908,51.5051534 C25.0475738,51.8241635 25.5155537,52 26,52 L58,52 C59.1045695,52 60,51.1045695 60,50 L60,36 C60,34.8954305 59.1045695,34 58,34 Z M56,38 L56,48 L26.752,48 L21.036,43 L26.75,38 L56,38 Z" id="Path-110-Copy" fill="#000000" fill-rule="nonzero" transform="translate(38.000000, 43.000000) scale(-1, 1) translate(-38.000000, -43.000000) "></path>
        <path d="M34,52 L38,52 L38,59 C38,59.5522847 37.5522847,60 37,60 L35,60 C34.4477153,60 34,59.5522847 34,59 L34,52 L34,52 Z" id="Rectangle" fill="#000000"></path>
        <path d="M26,52 L30,52 L30,59 C30,59.5522847 29.5522847,60 29,60 L27,60 C26.4477153,60 26,59.5522847 26,59 L26,52 L26,52 Z" id="Rectangle-Copy-3" fill="#000000"></path>
        <rect id="Rectangle-Copy" fill="#000000" x="34" y="28" width="4" height="6"></rect>
        <rect id="Rectangle-Copy-2" fill="#000000" x="26" y="28" width="4" height="6"></rect>
        <path d="M36,4 C37.0256717,4 37.8710143,4.77208038 37.9865445,5.76675775 L38,6 L38,10 L34,10 L34,8 L30,8 L30,10 L26,10 L26,6 C26,4.97432832 26.7720804,4.12898568 27.7667577,4.01345546 L28,4 L36,4 Z" id="Path-111" fill="#000000" fill-rule="nonzero"></path>
    </g>
</svg>