<?xml version="1.0" encoding="UTF-8"?>
<svg width="64px" height="64px" viewBox="0 0 64 64" version="1.1" xmlns="http://www.w3.org/2000/svg" xmlns:xlink="http://www.w3.org/1999/xlink">
    <title>field_training</title>
    <g id="field_training" stroke="none" stroke-width="1" fill="none" fill-rule="evenodd">
        <path d="M32.6580799,4.11135778 L32.8381164,4.18408123 L58.8381164,16.1840812 C60.3356553,16.875253 60.3855732,18.955777 58.9878702,19.7395723 L58.8381164,19.8159188 L51.937,23 L42.392,23 L53.228,18 L32,8.202 L10.77,18 L32,27.796 L35,26.411 L35,30.817 L32.8381164,31.8159188 C32.3654139,32.0340891 31.8288205,32.0583303 31.3419201,31.8886422 L31.1618836,31.8159188 L20.9998942,27.124398 C20.1380204,28.6726837 19.5495531,30.5609908 19.2239085,32.802654 L19.1572258,33.2957561 L19.1070171,33.7207498 L19.3375723,33.8330714 C21.9992376,36.9169633 26.5270634,37.9335706 32,37.9335706 C33.0362574,37.9335706 34.0386321,37.8971248 35.0008721,37.8171012 L35.001796,41.915197 C34.0672166,41.9713266 33.0688672,42 32,42 C22.9993139,42 18.9990089,39.9667853 15.9697865,36.6272158 C15.5091907,36.1194315 14.9532277,35.5094688 15.003134,34.7485012 C15.2442251,31.0723564 16.0352443,27.962784 17.3572237,25.4436815 L10,22.048 L10.0011092,40.5357707 C11.1961002,41.2275472 12,42.5198932 12,44 C12,46.209139 10.209139,48 8,48 C5.790861,48 4,46.209139 4,44 C4,42.519485 4.80434324,41.2268344 5.99987956,40.5351985 L6,20.202 L5.16188365,19.8159188 C3.66434472,19.124747 3.61442676,17.044223 5.01212975,16.2604277 L5.16188365,16.1840812 L31.1618836,4.18408123 C31.6345861,3.96591088 32.1711795,3.94166973 32.6580799,4.11135778 Z" id="Combined-Shape" fill="#000000" fill-rule="nonzero"></path>
        <path d="M60,26 L60,58 C60,59.1045695 59.1045695,60 58,60 L38,60 C36.8954305,60 36,59.1045695 36,58 L36,26 C36,24.8954305 36.8954305,24 38,24 L58,24 C59.1045695,24 60,24.8954305 60,26 Z M56,28 L40,28 L40,55 L56,55 L56,28 Z M48,59 C48.8284271,59 49.5,58.3284271 49.5,57.5 C49.5,56.6715729 48.8284271,56 48,56 C47.1715729,56 46.5,56.6715729 46.5,57.5 C46.5,58.3284271 47.1715729,59 48,59 Z" id="Rectangle" fill="#000000" fill-rule="nonzero"></path>
    </g>
</svg>