<?xml version="1.0" encoding="UTF-8"?>
<svg width="64px" height="64px" viewBox="0 0 64 64" version="1.1" xmlns="http://www.w3.org/2000/svg" xmlns:xlink="http://www.w3.org/1999/xlink">
    <title>html</title>
    <g id="html" stroke="none" stroke-width="1" fill="none" fill-rule="evenodd">
        <path d="M42.9888357,4 L12,4 C10.8954305,4 10,4.8954305 10,6 L10,58 C10,59.1045695 10.8954305,60 12,60 L52,60 C53.1045695,60 54,59.1045695 54,58 L54,15.5318093 C54,15.0208036 53.8044005,14.52918 53.4533487,14.1578452 L44.4421844,4.62603586 C44.064403,4.22642709 43.5387502,4 42.9888357,4 Z M40,8 L40,17.0344802 C40,18.1254919 40.8743759,19.0152065 41.9652227,19.0341778 L50,19.173913 L50,19.173913 L50,56 L14,56 L14,8 L40,8 Z M44,10 L49,15 L44,15 L44,10 Z" id="page" fill="#000000" fill-rule="nonzero"></path>
        <path d="M22.2850141,20.9710085 C22.8533105,20.023848 24.081831,19.7167178 25.0289915,20.2850141 C25.928794,20.8248957 26.2509691,21.9606295 25.793694,22.8849249 L25.7149859,23.0289915 L20.331,31.999 L25.7149859,40.9710085 C26.2548674,41.870811 26.0046765,43.0245409 25.1662359,43.6249074 L25.0289915,43.7149859 C24.129189,44.2548674 22.9754591,44.0046765 22.3750926,43.1662359 L22.2850141,43.0289915 L16.2850141,33.0289915 C15.9342275,32.4443471 15.9072439,31.7251703 16.2040634,31.1198286 L16.2850141,30.9710085 L22.2850141,20.9710085 Z" id="Path" fill="#000000" fill-rule="nonzero"></path>
        <path d="M44.2850141,20.9710085 C44.8533105,20.023848 46.081831,19.7167178 47.0289915,20.2850141 C47.928794,20.8248957 48.2509691,21.9606295 47.793694,22.8849249 L47.7149859,23.0289915 L42.331,31.999 L47.7149859,40.9710085 C48.2548674,41.870811 48.0046765,43.0245409 47.1662359,43.6249074 L47.0289915,43.7149859 C46.129189,44.2548674 44.9754591,44.0046765 44.3750926,43.1662359 L44.2850141,43.0289915 L38.2850141,33.0289915 C37.9342275,32.4443471 37.9072439,31.7251703 38.2040634,31.1198286 L38.2850141,30.9710085 L44.2850141,20.9710085 Z" id="Path-Copy" fill="#000000" fill-rule="nonzero" transform="translate(43.000151, 32.000000) scale(-1, 1) translate(-43.000151, -32.000000) "></path>
        <path d="M33.0843474,21.4253042 C33.4017431,20.3673185 34.5167101,19.7669517 35.5746958,20.0843474 C36.5845912,20.3873161 37.177524,21.4169973 36.9532884,22.4301521 L36.9156526,22.5746958 L30.9156526,42.5746958 C30.5982569,43.6326815 29.4832899,44.2330483 28.4253042,43.9156526 C27.4154088,43.6126839 26.822476,42.5830027 27.0467116,41.5698479 L27.0843474,41.4253042 L33.0843474,21.4253042 Z" id="Path-91" fill="#000000" fill-rule="nonzero"></path>
    </g>
</svg>