<?xml version="1.0" encoding="UTF-8"?>
<svg width="64px" height="64px" viewBox="0 0 64 64" version="1.1" xmlns="http://www.w3.org/2000/svg" xmlns:xlink="http://www.w3.org/1999/xlink">
    <title>file_image</title>
    <g id="file_image" stroke="none" stroke-width="1" fill="none" fill-rule="evenodd">
        <g id="blank-page-wide" transform="translate(10.000000, 4.000000)" fill="#000000" fill-rule="nonzero">
            <path d="M32.9888357,0 C33.5387502,7.87160764e-16 34.064403,0.226427087 34.4421844,0.62603586 L34.4421844,0.62603586 L43.4533487,10.1578452 C43.8044005,10.52918 44,11.0208036 44,11.5318093 L44,11.5318093 L44,54 C44,55.1045695 43.1045695,56 42,56 L42,56 L2,56 C0.8954305,56 1.3527075e-16,55.1045695 0,54 L0,54 L0,2 C-1.3527075e-16,0.8954305 0.8954305,2.02906125e-16 2,0 L2,0 Z M15.1485673,27.2725663 L4,40.831 L4,52 L40,52 L40,47.376 L26.6894567,30.2358598 L21.7262656,36.2726021 L15.1485673,27.2725663 Z M30,4 L4,4 L4,36.428 L15.2656198,22.7274038 L21.8425496,31.726513 L26.7459346,25.7645065 L40,42.833 L40,15.173913 L31.9652227,15.0341778 C30.8743759,15.0152065 30,14.1254919 30,13.0344802 L30,13.0344802 L30,4 Z M34,6 L34,11 L39,11 L34,6 Z" id="page"></path>
        </g>
        <circle id="Oval-15" fill="#000000" fill-rule="nonzero" cx="22" cy="18" r="4"></circle>
    </g>
</svg>