<?xml version="1.0" encoding="UTF-8"?>
<svg width="64px" height="64px" viewBox="0 0 64 64" version="1.1" xmlns="http://www.w3.org/2000/svg" xmlns:xlink="http://www.w3.org/1999/xlink">
    <title>file_text</title>
    <g id="file_text" stroke="none" stroke-width="1" fill="none" fill-rule="evenodd">
        <g id="Group" transform="translate(10.000000, 4.000000)" fill="#000000" fill-rule="nonzero">
            <g id="page">
                <path d="M32.9888357,0 L2,0 C0.8954305,2.02906125e-16 -1.3527075e-16,0.8954305 0,2 L0,54 C1.3527075e-16,55.1045695 0.8954305,56 2,56 L42,56 C43.1045695,56 44,55.1045695 44,54 L44,11.5318093 C44,11.0208036 43.8044005,10.52918 43.4533487,10.1578452 L34.4421844,0.62603586 C34.064403,0.226427087 33.5387502,7.87160764e-16 32.9888357,0 Z M30,4 L30,13.0344802 C30,14.1254919 30.8743759,15.0152065 31.9652227,15.0341778 L40,15.173913 L40,15.173913 L40,52 L4,52 L4,4 L30,4 Z M34,6 L39,11 L34,11 L34,6 Z"></path>
            </g>
        </g>
        <path d="M19.5,13 L39,13 L39,13 L39,16 L19.5,16 C18.6715729,16 18,15.3284271 18,14.5 C18,13.6715729 18.6715729,13 19.5,13 Z" id="Rectangle-34" fill="#000000" fill-rule="nonzero"></path>
        <rect id="Rectangle-34-Copy" fill="#000000" fill-rule="nonzero" x="18" y="20" width="28" height="3" rx="1.5"></rect>
        <rect id="Rectangle-34-Copy-2" fill="#000000" fill-rule="nonzero" x="18" y="27" width="28" height="3" rx="1.5"></rect>
        <rect id="Rectangle-34-Copy-3" fill="#000000" fill-rule="nonzero" x="18" y="34" width="28" height="3" rx="1.5"></rect>
        <rect id="Rectangle-34-Copy-5" fill="#000000" fill-rule="nonzero" x="18" y="41" width="14" height="3" rx="1.5"></rect>
    </g>
</svg>