<?xml version="1.0" encoding="UTF-8"?>
<svg width="64px" height="64px" viewBox="0 0 64 64" version="1.1" xmlns="http://www.w3.org/2000/svg" xmlns:xlink="http://www.w3.org/1999/xlink">
    <title>file_spreadsheet</title>
    <g id="file_spreadsheet" stroke="none" stroke-width="1" fill="none" fill-rule="evenodd">
        <path d="M42.9888357,4 C43.5387502,4 44.064403,4.22642709 44.4421844,4.62603586 L44.4421844,4.62603586 L53.4533487,14.1578452 C53.8044005,14.52918 54,15.0208036 54,15.5318093 L54,15.5318093 L54,58 C54,59.1045695 53.1045695,60 52,60 L52,60 L12,60 C10.8954305,60 10,59.1045695 10,58 L10,58 L10,6 C10,4.8954305 10.8954305,4 12,4 L12,4 Z M14,52 L14,56 L21,56 L21,52 L14,52 Z M40.739,52 L33.173,52 L33.173913,56 L40.7391304,56 L40.739,52 Z M30.913,52 L23.26,52 L23.2608696,56 L30.9130435,56 L30.913,52 Z M50,52 L42.999,52 L43,56 L50,56 L50,52 Z M30.913,46 L23.26,46 L23.26,50 L30.913,50 L30.913,46 Z M40.739,46 L33.173,46 L33.173,50 L40.739,50 L40.739,46 Z M50,46 L42.999,46 L42.999,50 L50,50 L50,46 Z M30.913,40 L23.26,40 L23.26,44 L30.913,44 L30.913,40 Z M40.739,40 L33.173,40 L33.173,44 L40.739,44 L40.739,40 Z M50,40 L42.999,40 L42.999,44 L50,44 L50,40 Z M21,40 L14,40 L14,44 L21,44 L21,40 Z M30.913,34 L23.26,34 L23.26,38 L30.913,38 L30.913,34 Z M40.739,34 L33.173,34 L33.173,38 L40.739,38 L40.739,34 Z M50,34 L42.999,34 L42.999,38 L50,38 L50,34 Z M21,34 L14,34 L14,38 L21,38 L21,34 Z M30.913,28 L23.26,28 L23.26,32 L30.913,32 L30.913,28 Z M40.739,28 L33.173,28 L33.173,32 L40.739,32 L40.739,28 Z M50,28 L42.999,28 L42.999,32 L50,32 L50,28 Z M21,28 L14,28 L14,32 L21,32 L21,28 Z M30.913,22 L23.26,22 L23.26,26 L30.913,26 L30.913,22 Z M40.739,22 L33.173,22 L33.173,26 L40.739,26 L40.739,22 Z M50,22 L42.999,22 L42.999,26 L50,26 L50,22 Z M21,22 L14,22 L14,26 L21,26 L21,22 Z M30.913,16 L23.26,16 L23.26,20 L30.913,20 L30.913,16 Z M40,16 L33.173,16 L33.173,20 L40.739,20 L40.7386359,18.5866546 C40.3233268,18.2487365 40.0466131,17.7476456 40.0053579,17.1819439 L40,17.0344802 L40,16 Z M42.999,19.052 L42.999,20 L50,20 L50,19.173913 L42.999,19.052 Z M21,16 L14,16 L14,20 L21,20 L21,16 Z M44,10 L44,15 L49,15 L44,10 Z M30.9130435,8 L23.2608696,8 L23.26,13 L30.913,13 L30.9130435,8 Z M40,8 L33.173913,8 L33.173,13 L40,13 L40,8 Z M21,8 L14,8 L14,13 L21,13 L21,8 Z M14,50 L21,50 L21,46 L14,46 L14,50 Z" id="page" fill="#000000" fill-rule="nonzero"></path>
    </g>
</svg>