<?xml version="1.0" encoding="UTF-8"?>
<svg width="64px" height="64px" viewBox="0 0 64 64" version="1.1" xmlns="http://www.w3.org/2000/svg" xmlns:xlink="http://www.w3.org/1999/xlink">
    <title>pdf</title>
    <g id="pdf" stroke="none" stroke-width="1" fill="none" fill-rule="evenodd">
        <path d="M42.9888357,4 L12,4 C10.8954305,4 10,4.8954305 10,6 L10,58 C10,59.1045695 10.8954305,60 12,60 L52,60 C53.1045695,60 54,59.1045695 54,58 L54,15.5318093 C54,15.0208036 53.8044005,14.52918 53.4533487,14.1578452 L44.4421844,4.62603586 C44.064403,4.22642709 43.5387502,4 42.9888357,4 Z M40,8 L40,17.0344802 C40,18.1254919 40.8743759,19.0152065 41.9652227,19.0341778 L50,19.173913 L50,19.173913 L50,56 L14,56 L14,8 L40,8 Z M44,10 L49,15 L44,15 L44,10 Z" id="page" fill="#000000" fill-rule="nonzero"></path>
        <path d="M29.7218027,17.0108294 C32.799287,16.689265 34.6425118,18.7253549 34.9356998,21.9133142 C35.1327336,24.0557469 34.6909608,26.8618756 33.7321034,30.0496465 C34.4931872,31.0737188 35.3173886,32.0759835 36.167162,33.0142875 C39.338643,32.5203925 42.0914693,32.4865305 44.1127317,32.9949837 C47.2340378,33.7801555 48.8734707,36.0422957 47.9071653,39.1022627 C46.9320824,42.1900253 44.2873281,43.1328843 41.2813306,41.9906637 C39.307291,41.240567 37.0559766,39.5939596 34.7667503,37.3342933 C33.3457633,37.6294941 31.8848435,38.0104319 30.4493921,38.4588553 L30.3192649,38.5003208 C28.5654692,41.9599088 26.6055809,44.8759843 24.7331271,46.6964044 C22.0200702,49.3340679 19.0412399,49.9506102 16.946275,47.2994903 C14.9660112,44.7935214 15.9701922,42.0157943 18.7935591,39.710728 C20.7861386,38.083937 23.8116579,36.5431339 27.3473442,35.2795827 L27.4567663,35.2424081 C28.1548386,33.7471508 28.7837796,32.2094348 29.3066442,30.721028 C27.4444638,27.9480205 26.1690188,25.2970223 25.7455233,23.132168 C25.1077727,19.872069 26.4569779,17.351969 29.7218027,17.0108294 Z M24.1232048,41.1679704 L24.28,40.937 L24.2528828,40.9516631 C23.0771721,41.5621033 22.0804369,42.1910357 21.3232475,42.8092239 C19.9744687,43.9104001 19.7835739,44.438446 20.0846684,44.8194728 L20.1928353,44.9540814 C20.214095,44.9745641 20.2279917,44.9751609 20.2568241,44.9693746 L20.2914609,44.9619608 C20.6516977,44.887401 21.2395321,44.514107 21.9448302,43.8284085 C22.5605281,43.2298203 23.2123305,42.4475435 23.8744688,41.5217794 L24.1232048,41.1679704 Z M40.4578333,36.6299787 L40.022,36.641 L40.1325614,36.7257193 C40.9030189,37.3088883 41.6230972,37.7623176 42.2615087,38.0632242 L42.4970238,38.1688702 L42.7021382,38.2515053 L42.9963172,38.3588624 C43.7099601,38.6047533 43.8799563,38.5228103 44.0590192,38.0007989 L44.0928347,37.8977373 C44.2509868,37.3969221 44.2299339,37.216496 43.6880346,37.0304011 L43.4426867,36.9548879 L43.1369229,36.8741328 C42.434109,36.6973383 41.5241871,36.6161621 40.4578333,36.6299787 Z M30.9696365,22.5111426 L30.9525093,22.2796375 L30.9163575,21.9384985 C30.8141548,21.1143153 30.6563676,20.9544286 30.2221969,20.9819338 L30.1374972,20.9891706 C29.6390336,21.0412547 29.4926742,21.1388373 29.5716316,21.7767518 L29.6115547,22.0422642 C29.6282179,22.1398554 29.648154,22.2468557 29.6711155,22.3642316 C29.8028506,23.0376444 30.0764277,23.8318212 30.4726438,24.7074889 L30.626936,25.0396074 L30.76,25.313 L30.8021583,25.0568658 C30.9336663,24.2040894 30.9942374,23.4391024 30.9802208,22.7847428 L30.9696365,22.5111426 Z" id="Path-92" fill="#000000"></path>
    </g>
</svg>