<?xml version="1.0" encoding="UTF-8"?>
<svg width="64px" height="64px" viewBox="0 0 64 64" version="1.1" xmlns="http://www.w3.org/2000/svg" xmlns:xlink="http://www.w3.org/1999/xlink">
    <title>finance</title>
    <g id="finance" stroke="none" stroke-width="1" fill="none" fill-rule="evenodd">
        <path d="M24,6 C24.2869012,6 24.5723914,6.00181231 24.8563504,6.00540084 L25.7035134,6.02145905 L26.5407676,6.04795816 L27.3673914,6.0846817 C27.5042361,6.0916423 27.6406077,6.09901989 27.7764914,6.10680998 L28.5858165,6.15846428 C28.8535592,6.17730828 29.1192296,6.19776615 29.3827073,6.21980183 L30.1664421,6.29060615 L30.9362995,6.37066079 L31.6915577,6.45974927 L32.4314954,6.55765512 C32.5535015,6.57469552 32.6748392,6.59209428 32.7954934,6.60984691 L33.5110972,6.72057293 L34.2095763,6.83957514 L34.8902094,6.96663707 L35.5522747,7.10154226 L35.876119,7.17186842 L35.876119,7.17186842 L36.5089798,7.3181326 L37.121469,7.47169885 L37.7128651,7.63235071 L38.2824463,7.7998717 L38.8294913,7.97404536 C39.1865155,8.09233058 39.5280344,8.21490659 39.8530859,8.34148477 L40.3281925,8.53431759 C42.2530912,9.34904181 43.5174875,10.3141119 43.8873172,11.3593085 C42.6266511,11.1232157 41.3277149,11 40,11 C38.6849502,11 37.3981325,11.1208762 36.1500515,11.3521241 C32.9031957,10.4983156 28.5999049,10 24,10 C18.9904794,10 14.3327512,10.5910159 11.0072559,11.5886645 C10.6986586,11.6812437 10.4066647,11.7759762 10.1323977,11.8718951 L9.781,12 L9.86408124,12.0318265 C10.1264055,12.1284287 10.4068311,12.224167 10.7042347,12.3180744 L11.0072559,12.4113355 C14.3327512,13.4089841 18.9904794,14 24,14 C25.9446378,14 27.836264,13.9109397 29.6175264,13.7436047 C27.6366259,14.8710289 25.8584948,16.3119009 24.3488806,17.9981834 L24,18 L23.1436496,17.9945992 L22.2964866,17.9785409 L21.4592324,17.9520418 L20.6326086,17.9153183 C20.4957639,17.9083577 20.3593923,17.9009801 20.2235086,17.89319 L19.4141835,17.8415357 C19.1464408,17.8226917 18.8807704,17.8022338 18.6172927,17.7801982 L17.8335579,17.7093938 L17.0637005,17.6293392 L16.3084423,17.5402507 L15.5685046,17.4423449 C15.4464985,17.4253045 15.3251608,17.4079057 15.2045066,17.3901531 L14.4889028,17.2794271 L13.7904237,17.1604249 L13.1097906,17.0333629 L12.4477253,16.8984577 L12.123881,16.8281316 L12.123881,16.8281316 L11.4910202,16.6818674 L10.878531,16.5283011 L10.2871349,16.3676493 L9.71755365,16.2001283 L9.17050871,16.0259546 C8.81348454,15.9076694 8.47196563,15.7850934 8.14691408,15.6585152 L8,15.599 L8,19 C10.3840372,20.7880279 14.899437,21.7767949 21.5461993,21.9663009 C20.8710292,23.2078163 20.3160688,24.5254002 19.8988132,25.9028292 C14.7136831,25.6425976 10.7470636,24.8598185 7.9997541,23.554478 L8,27 C10.0800727,28.5600545 13.7826587,29.5116665 19.1077582,29.854836 C19.0366876,30.5595921 19,31.2755116 19,32 C19,32.6257178 19.0273661,33.2450439 19.0809668,33.8568467 C14.2941772,33.5576422 10.6005869,32.7902224 7.9997541,31.554478 L8,35 C10.1741627,36.630622 14.1209441,37.596512 19.8403443,37.8976699 C20.2555536,39.3223519 20.8184871,40.6842313 21.510807,41.9659481 C15.5285117,41.7955907 11.0249225,40.9918388 7.9997541,39.554478 L8,43 C10.6666667,45 16,46 24,46 C24.116283,46 24.2320025,45.9997887 24.3471587,45.9993662 C25.683046,47.4924971 27.2293617,48.7929407 28.939442,49.8545529 C27.4060823,49.9518077 25.7592655,50 24,50 C16.764512,50 11.4310967,49.184826 7.9997541,47.554478 L8,50.883 C11.5265265,52.8797381 16.6595898,53.9385274 23.4009962,53.9974018 L24,54 C28.4116951,54 32.1391389,53.4760488 35.1924293,52.4466839 C36.7364851,52.8087616 38.3459095,53 40,53 C41.007363,53 41.9981595,52.9290702 42.9676677,52.7919325 C38.5693458,56.2928519 32.2309866,58 24,58 C15.6402496,58 9.2715483,56.5847331 4.89059961,53.6641006 C4.38056872,53.32408 4.0572434,52.7710229 4.00689773,52.1661337 L4,52 L4,12 C4,10.7089447 5.35922997,9.51312903 7.67180753,8.53431759 L8.14691408,8.34148477 C8.47196563,8.21490659 8.81348454,8.09233058 9.17050871,7.97404536 L9.71755365,7.7998717 L10.2871349,7.63235071 L10.878531,7.47169885 L11.4910202,7.3181326 L12.123881,7.17186842 L12.4477253,7.10154226 L12.4477253,7.10154226 L13.1097906,6.96663707 L13.7904237,6.83957514 L14.4889028,6.72057293 L15.2045066,6.60984691 L15.9365133,6.50761355 C16.0598412,6.49129441 16.1838226,6.47533815 16.3084423,6.45974927 L17.0637005,6.37066079 L17.8335579,6.29060615 L18.6172927,6.21980183 C18.7490316,6.20878399 18.8813186,6.1981606 19.0141387,6.18793617 L19.8173369,6.13141319 C20.0871219,6.11419209 20.3589193,6.0986029 20.6326086,6.0846817 L21.4592324,6.04795816 L22.2964866,6.02145905 L23.1436496,6.00540084 C23.2856291,6.00360657 23.4279914,6.00225636 23.5707215,6.00135472 L24,6 Z" id="Combined-Shape-Copy-3" fill="#000000" fill-rule="nonzero"></path>
        <g id="Group" transform="translate(20.000000, 12.000000)" fill="#000000" fill-rule="nonzero">
            <path d="M20.0758182,5.5 C21.1803877,5.5 22.0758182,6.3954305 22.0758182,7.5 L22.0746796,8.790072 C22.3018936,8.82880082 22.5316065,8.87377682 22.7638182,8.925 C23.7158182,9.135 24.6258182,9.471 25.4938182,9.933 C26.3618182,10.395 27.0898182,11.004 27.6778182,11.76 C27.9858182,12.18 28.1678182,12.684 28.2238182,13.272 C28.2798182,13.86 28.0138182,14.392 27.4258182,14.868 C27.0058182,15.204 26.5158182,15.351 25.9558182,15.309 C25.3958182,15.267 24.9338182,15.078 24.5698182,14.742 C24.0938182,14.126 23.4568182,13.636 22.6588182,13.272 C22.4710173,13.1863364 22.2766256,13.1107529 22.0756431,13.0452493 L22.0750558,18.3929135 C22.6756241,18.568885 23.2832116,18.7659138 23.8978182,18.984 C24.7658182,19.292 25.5638182,19.698 26.2918182,20.202 C27.0198182,20.706 27.6078182,21.357 28.0558182,22.155 C28.5038182,22.953 28.7278182,23.968 28.7278182,25.2 C28.7278182,26.628 28.3078182,27.846 27.4678182,28.854 C26.6278182,29.862 25.5778182,30.625 24.3178182,31.143 C23.5800507,31.4463044 22.8326836,31.6608119 22.0757169,31.7865226 L22.0758182,32.5 C22.0758182,33.6045695 21.1803877,34.5 20.0758182,34.5 C18.9712487,34.5 18.0758182,33.6045695 18.0758182,32.5 L18.0757375,31.7217589 C17.2164311,31.5784922 16.3571246,31.3575726 15.4978182,31.059 C13.8458182,30.485 12.4738182,29.47 11.3818182,28.014 C11.1018182,27.622 10.9758182,27.118 11.0038182,26.502 C11.0318182,25.886 11.3958182,25.354 12.0958182,24.906 C12.5438182,24.626 13.0198182,24.507 13.5238182,24.549 C14.0278182,24.591 14.5178182,24.85 14.9938182,25.326 C15.8058182,26.138 16.6598182,26.768 17.5558182,27.216 C17.7214225,27.2988021 17.8946787,27.3739523 18.075587,27.4414504 L18.0760408,21.8332651 C17.7032965,21.7143944 17.326889,21.5906393 16.9468182,21.462 C16.0368182,21.154 15.2038182,20.755 14.4478182,20.265 C13.6918182,19.775 13.0758182,19.124 12.5998182,18.312 C12.1238182,17.5 11.8858182,16.478 11.8858182,15.246 C11.8858182,13.846 12.2778182,12.656 13.0618182,11.676 C13.8458182,10.696 14.8608182,9.94 16.1068182,9.408 C16.7462629,9.13497868 17.4023,8.93201435 18.0749295,8.79910702 L18.0758182,7.5 C18.0758182,6.3954305 18.9712487,5.5 20.0758182,5.5 Z M22.075,23.083 L22.075,27.74 L22.3018182,27.699 C22.7338182,27.615 23.1195325,27.4384286 23.458961,27.1692857 L23.6248182,27.027 C24.0028182,26.677 24.1918182,26.138 24.1918182,25.41 C24.1918182,24.794 23.9818182,24.304 23.5618182,23.94 C23.1418182,23.576 22.5888182,23.268 21.9028182,23.016 L22.075,23.083 Z M18.0744884,13.0080751 C17.7755564,13.1231978 17.5046663,13.2881728 17.2618182,13.503 C16.8978182,13.825 16.7158182,14.336 16.7158182,15.036 C16.7158182,15.68 16.9258182,16.191 17.3458182,16.569 C17.5530148,16.7554769 17.7959867,16.924918 18.0747341,17.0773232 Z" id="small-dollar"></path>
            <path d="M20,0 C31.045695,0 40,8.954305 40,20 C40,31.045695 31.045695,40 20,40 C8.954305,40 0,31.045695 0,20 C0,8.954305 8.954305,0 20,0 Z M20,4 C11.163444,4 4,11.163444 4,20 C4,28.836556 11.163444,36 20,36 C28.836556,36 36,28.836556 36,20 C36,11.163444 28.836556,4 20,4 Z" id="Oval"></path>
        </g>
    </g>
</svg>