<?xml version="1.0" encoding="UTF-8"?>
<svg width="64px" height="64px" viewBox="0 0 64 64" version="1.1" xmlns="http://www.w3.org/2000/svg" xmlns:xlink="http://www.w3.org/1999/xlink">
    <title>finding</title>
    <g id="finding" stroke="none" stroke-width="1" fill="none" fill-rule="evenodd">
        <path d="M24,4 C35.045695,4 44,12.954305 44,24 C44,28.4873136 42.5221899,32.6294661 40.0267084,35.966319 L40,36 L44,36 C44.530433,36 45.0391408,36.2107137 45.4142136,36.5857864 L45.4142136,36.5857864 L59.4142136,50.5857864 C60.1952621,51.366835 60.1952621,52.633165 59.4142136,53.4142136 L59.4142136,53.4142136 L53.4142136,59.4142136 C52.633165,60.1952621 51.366835,60.1952621 50.5857864,59.4142136 L50.5857864,59.4142136 L36.5857864,45.4142136 C36.2107137,45.0391408 36,44.530433 36,44 L36,44 L36,40 L36,40 L35.966319,40.0267084 C32.6294661,42.5221899 28.4873136,44 24,44 C12.954305,44 4,35.045695 4,24 C4,12.954305 12.954305,4 24,4 Z M43.17,40 L40.828,40 L40,40.828 L40,43.17 L52,55.17 L55.17,52 L43.17,40 Z M24,8 C20.3030082,8 16.8988736,9.25387079 14.18966,11.3595486 L17.636039,14.8076118 C18.0265633,15.1981361 18.0265633,15.8313011 17.636039,16.2218254 L16.2218254,17.636039 C15.8313011,18.0265633 15.1981361,18.0265633 14.8076118,17.636039 L11.3595486,14.18966 C9.25387079,16.8988736 8,20.3030082 8,24 C8,27.6969918 9.25387079,31.1011264 11.3595486,33.81034 L14.8076118,30.363961 C15.1981361,29.9734367 15.8313011,29.9734367 16.2218254,30.363961 L17.636039,31.7781746 C18.0265633,32.1686989 18.0265633,32.8018639 17.636039,33.1923882 L14.18966,36.6404514 C16.8988736,38.7461292 20.3030082,40 24,40 C27.6969918,40 31.1011264,38.7461292 33.81034,36.6404514 L30.363961,33.1923882 C29.9734367,32.8018639 29.9734367,32.1686989 30.363961,31.7781746 L31.7781746,30.363961 C32.1686989,29.9734367 32.8018639,29.9734367 33.1923882,30.363961 L36.6404514,33.81034 C38.7461292,31.1011264 40,27.6969918 40,24 C40,20.3030082 38.7461292,16.8988736 36.6404514,14.18966 L33.1923882,17.636039 C32.8018639,18.0265633 32.1686989,18.0265633 31.7781746,17.636039 L30.363961,16.2218254 C29.9734367,15.8313011 29.9734367,15.1981361 30.363961,14.8076118 L33.81034,11.3595486 C31.1011264,9.25387079 27.6969918,8 24,8 Z" id="Combined-Shape" fill="#000000" fill-rule="nonzero"></path>
    </g>
</svg>