<?xml version="1.0" encoding="UTF-8"?>
<svg width="64px" height="64px" viewBox="0 0 64 64" version="1.1" xmlns="http://www.w3.org/2000/svg" xmlns:xlink="http://www.w3.org/1999/xlink">
    <title>fogging</title>
    <g id="fogging" stroke="none" stroke-width="1" fill="none" fill-rule="evenodd">
        <path d="M33.5,40 C33.7761424,40 34,40.2238576 34,40.5 L34.0006929,41.1974599 C37.6215276,41.9297979 40,44.5660761 40,46.8492663 L39.9777575,46.8493134 C39.9923844,46.9474808 40,47.0484764 40,47.1519031 L40,60 L36,60 L36,49.7369031 L35.8948743,49.7545261 C34.7651898,49.9206716 33.4693122,50 32,50 C30.5306878,50 29.2348102,49.9206716 28.1051257,49.7545261 L28,49.7379031 L28,60 L24,60 L24,47.1519031 C24,47.1009279 24.0018499,47.0505432 24.0054775,47.0007966 C24,44.6894096 26.3724474,41.961292 29.9999315,41.203826 L30,40.5 C30,40.2238576 30.2238576,40 30.5,40 L33.5,40 Z M32,44.4285714 C30.5132823,44.4285714 29.3162977,45.0761787 28.6315094,45.788201 C29.5443808,45.926431 30.6704045,46 32,46 C33.365982,46 34.5170975,45.9223493 35.4432018,45.7775389 C34.7778913,45.0809847 33.5564635,44.4285714 32,44.4285714 Z" id="Combined-Shape" fill="#000000" fill-rule="nonzero"></path>
        <path d="M25.2834565,28.4551562 L32,35.171 L35.143837,32.0293638 C35.1061671,32.3704096 35.0873876,32.6938616 35.0873876,33 C35.0873876,34.4797988 35.3604667,35.8131427 35.8566871,36.9724461 L33.4141011,39.414326 C32.6741524,40.1541571 31.498763,40.1930604 30.7130195,39.5310616 L30.5858115,39.4142387 L21.1042354,29.9352472 C22.670131,29.7625326 24.0900042,29.2492648 25.2834565,28.4551562 Z M15.3292474,9.07326333 C13.9473079,11.6789406 12.9085343,13.9416071 12.2048916,15.8815775 C10.8159105,16.9840414 10,18.45779 10,20 C10,21.1913815 10.4835837,22.3265246 11.3227634,23.28246 C11.6857853,24.970457 12.4560221,26.3909104 13.5267538,27.4855567 C14.9064876,28.8961066 16.7980324,29.7791112 19.0260578,29.9637661 C18.8408192,29.9771396 18.6538486,29.9866736 18.4662379,29.992621 L18,30 C11.458403,30 6,25.6332776 6,20 C6,15.7161471 9.19337462,12.071654 13.7477604,10.6423411 L13.888,10.6 L13.9694321,10.4938592 C14.3698714,9.98606591 14.8216723,9.5142639 15.3174628,9.08217084 Z M40,6 C44.0790869,6 47.8302188,7.70365088 50.0311067,10.4945047 L50.112,10.6 L50.2525625,10.6429778 C54.7095937,12.041082 57.8634899,15.5620013 57.9956806,19.7274422 L58,20 C58,23.7015843 55.6432226,26.8563074 52.170972,28.5846111 C51.779269,27.469257 51.2603551,26.2398162 50.6126236,24.8917338 C52.6781631,23.7857122 54,21.9697178 54,20 C54,17.4534481 51.7753909,15.0936541 48.4259576,14.2852944 C47.9261873,14.1646787 47.4920598,13.8562368 47.2136941,13.4239972 C45.8953211,11.3768586 43.1310222,10 40,10 C37.3522564,10 34.946814,10.9829538 33.4580499,12.5683827 C32.6681252,13.4095968 31.3321586,13.4096292 30.5421932,12.5684532 C29.2742366,11.2182997 27.341672,10.3050902 25.1608527,10.06373 C24.4799773,8.81227899 23.7082869,7.47354177 22.8452863,6.04775483 C23.1080952,6.02483771 23.3737466,6.01096819 23.6409746,6.00440531 L24,6 C26.953537,6 29.7458477,6.89131941 31.9054267,8.46400163 L32,8.535 L32.0945942,8.46405046 C34.1601984,6.95972005 36.8048106,6.07879598 39.6157044,6.00503761 L40,6 Z" id="Combined-Shape" fill="#000000" fill-rule="nonzero"></path>
        <path d="M43.8625506,15.0908557 L45.6178422,17.9549204 C49.9269538,24.9859883 52.0873876,29.8843161 52.0873876,33 C52.0873876,37.8417272 48.5534108,41 43.9126124,41 C39.3238042,41 36.0873876,37.8651074 36.0873876,33 C36.0873876,29.9101022 38.1229013,25.0180692 42.181179,17.9989315 L43.8625506,15.0908557 Z M43.9633876,23.007 L43.8055822,23.3022415 C41.3244581,27.9546084 40.0873876,31.2465241 40.0873876,33 C40.0873876,35.6269369 41.5049175,37 43.9126124,37 C46.4382081,37 48.0873876,35.526148 48.0873876,33 C48.0873876,31.2590668 46.7649789,27.9512849 44.1136268,23.2712595 L43.9633876,23.007 Z" id="Oval-Copy-8" fill="#000000" fill-rule="nonzero"></path>
        <path d="M19.8625506,3.09085568 L21.6178422,5.95492042 C25.9269538,12.9859883 28.0873876,17.8843161 28.0873876,21 C28.0873876,25.8417272 24.5534108,29 19.9126124,29 C15.3238042,29 12.0873876,25.8651074 12.0873876,21 C12.0873876,17.9101022 14.1229013,13.0180692 18.181179,5.99893149 L19.8625506,3.09085568 Z M19.9633876,11.007 L19.8055822,11.3022415 C17.3244581,15.9546084 16.0873876,19.2465241 16.0873876,21 C16.0873876,23.6269369 17.5049175,25 19.9126124,25 C22.4382081,25 24.0873876,23.526148 24.0873876,21 C24.0873876,19.2590668 22.7649789,15.9512849 20.1136268,11.2712595 L19.9633876,11.007 Z" id="Oval-Copy-9" fill="#000000" fill-rule="nonzero"></path>
    </g>
</svg>