<?xml version="1.0" encoding="UTF-8"?>
<svg width="64px" height="64px" viewBox="0 0 64 64" version="1.1" xmlns="http://www.w3.org/2000/svg" xmlns:xlink="http://www.w3.org/1999/xlink">
    <title>formula</title>
    <g id="formula" stroke="none" stroke-width="1" fill="none" fill-rule="evenodd">
        <g id="f(x)" transform="translate(4.000000, 14.000000)" fill="#000000" fill-rule="nonzero">
            <path d="M10.7960199,2 C11.3067993,2 11.8059701,2.08108108 12.2935323,2.24324324 C12.7810945,2.40540541 13.1873964,2.66891892 13.5124378,3.03378378 C13.8374793,3.39864865 14,3.87837838 14,4.47297297 C14,5.14864865 13.831675,5.68243243 13.4950249,6.07432432 C13.1583748,6.46621622 12.7694859,6.66216216 12.3283582,6.66216216 C12.119403,6.66216216 11.8059701,6.60135135 11.3880597,6.47972973 C10.9701493,6.35810811 10.5638474,6.2972973 10.1691542,6.2972973 C9.58872305,6.2972973 9.14179104,6.44594595 8.82835821,6.74324324 C8.51492537,7.04054054 8.30016584,7.38513514 8.1840796,7.77702703 C8.06799337,8.16891892 8.00995025,8.51351351 8.00995025,8.81081081 L8.00995025,29.527027 C8.00995025,30.2297297 7.81260365,30.8175676 7.41791045,31.2905405 C7.02321725,31.7635135 6.52404643,32 5.92039801,32 C5.31674959,32 4.81757877,31.7635135 4.42288557,31.2905405 C4.02819237,30.8175676 3.83084577,30.2297297 3.83084577,29.527027 L3.83084577,8.85135135 C3.83084577,6.93243243 4.41127695,5.31081081 5.5721393,3.98648649 C6.73300166,2.66216216 8.47429519,2 10.7960199,2 Z M11.1791045,10.7162162 C11.7363184,10.7162162 12.2006633,10.9256757 12.5721393,11.3445946 C12.9436153,11.7635135 13.1293532,12.2972973 13.1293532,12.9459459 C13.1293532,13.5945946 12.9436153,14.1283784 12.5721393,14.5472973 C12.2006633,14.9662162 11.7363184,15.1756757 11.1791045,15.1756757 L1.95024876,15.1756757 C1.39303483,15.1756757 0.928689884,14.9662162 0.55721393,14.5472973 C0.185737977,14.1283784 0,13.5945946 0,12.9459459 C0,12.2972973 0.185737977,11.7635135 0.55721393,11.3445946 C0.928689884,10.9256757 1.39303483,10.7162162 1.95024876,10.7162162 L11.1791045,10.7162162 Z" id="f"></path>
            <path d="M24.2371795,36 C23.8846154,36 23.5673077,35.8911565 23.2852564,35.6734694 C21.4989316,34.2857143 19.9887821,32.6734694 18.7548077,30.8367347 C17.5208333,29 16.5865385,26.9931973 15.9519231,24.8163265 C15.3173077,22.6394558 15,20.3673469 15,18 C15,15.6326531 15.3173077,13.3605442 15.9519231,11.1836735 C16.5865385,9.00680272 17.5208333,7 18.7548077,5.16326531 C19.9887821,3.32653061 21.4989316,1.71428571 23.2852564,0.326530612 C23.5673077,0.108843537 23.8846154,0 24.2371795,0 C24.8012821,0 25.2361111,0.244897959 25.5416667,0.734693878 C25.8472222,1.2244898 26,1.68707483 26,2.12244898 C26,2.74829932 25.7532051,3.29251701 25.2596154,3.75510204 C23.9198718,4.97959184 22.8034188,6.34693878 21.9102564,7.85714286 C21.017094,9.36734694 20.3530983,10.9795918 19.9182692,12.6938776 C19.4834402,14.4081633 19.2660256,16.1768707 19.2660256,18 C19.2660256,19.8231293 19.471688,21.6054422 19.8830128,23.3469388 C20.2943376,25.0884354 20.9465812,26.7142857 21.8397436,28.2244898 C22.732906,29.7346939 23.8728632,31.0748299 25.2596154,32.244898 C25.7532051,32.6530612 26,33.1972789 26,33.877551 C26,34.3673469 25.829594,34.8435374 25.4887821,35.3061224 C25.1479701,35.7687075 24.7307692,36 24.2371795,36 Z" id="("></path>
            <path d="M29.1356674,7 C29.8125456,7 30.384391,7.34140286 30.8512035,8.02420857 L42.5448578,25.0260708 C42.8482859,25.4630664 43,25.9546865 43,26.5009311 C43,27.1837368 42.778264,27.7709497 42.3347921,28.2625698 C41.8913202,28.7541899 41.401167,29 40.8643326,29 C40.1874544,29 39.615609,28.644941 39.1487965,27.9348231 L27.4551422,10.9329609 C27.1517141,10.4959652 27,10.0043451 27,9.45810056 C27,8.74798262 27.2159008,8.16076971 27.6477024,7.69646182 C28.079504,7.23215394 28.5754923,7 29.1356674,7 Z M29.1706783,28.9590317 C28.7038658,28.9590317 28.2428884,28.7473619 27.7877462,28.3240223 C27.3326039,27.9006828 27.1050328,27.3885785 27.1050328,26.7877095 C27.1050328,26.2414649 27.2800875,25.7225326 27.6301969,25.2309125 L32.9868709,17.5698324 L35.0875274,21.6666667 L30.8512035,27.9348231 C30.4077316,28.6176288 29.8475565,28.9590317 29.1706783,28.9590317 Z M40.8293217,7 C41.3894967,7 41.8621444,7.22532588 42.2472648,7.67597765 C42.6323851,8.12662942 42.8249453,8.63873371 42.8249453,9.2122905 C42.8249453,9.48541279 42.7899344,9.75853507 42.7199125,10.0316574 C42.6498906,10.3047796 42.5215171,10.5642458 42.3347921,10.8100559 L37.04814,18.3482309 L34.8424508,14.7839851 L39.1487965,8.10614525 C39.615609,7.36871508 40.1757841,7 40.8293217,7 Z" id="x"></path>
            <path d="M46.7628205,36 C46.1987179,36 45.7638889,35.755102 45.4583333,35.2653061 C45.1527778,34.7755102 45,34.3129252 45,33.877551 C45,33.2244898 45.2467949,32.6802721 45.7403846,32.244898 C47.1036325,31.0204082 48.2259615,29.6530612 49.1073718,28.1428571 C49.9887821,26.6326531 50.6469017,25.0204082 51.0817308,23.3061224 C51.5165598,21.5918367 51.7339744,19.8231293 51.7339744,18 C51.7339744,16.1768707 51.528312,14.3945578 51.1169872,12.6530612 C50.7056624,10.9115646 50.0592949,9.27891156 49.1778846,7.75510204 C48.2964744,6.23129252 47.150641,4.89795918 45.7403846,3.75510204 C45.2467949,3.34693878 45,2.80272109 45,2.12244898 C45,1.63265306 45.170406,1.15646259 45.5112179,0.693877551 C45.8520299,0.231292517 46.2692308,0 46.7628205,0 C47.1153846,0 47.4326923,0.108843537 47.7147436,0.326530612 C49.5245726,1.71428571 51.0405983,3.32653061 52.2628205,5.16326531 C53.4850427,7 54.4134615,9.00680272 55.0480769,11.1836735 C55.6826923,13.3605442 56,15.6326531 56,18 C56,20.3673469 55.6826923,22.6394558 55.0480769,24.8163265 C54.4134615,26.9931973 53.4850427,29 52.2628205,30.8367347 C51.0405983,32.6734694 49.5245726,34.2857143 47.7147436,35.6734694 C47.4326923,35.8911565 47.1153846,36 46.7628205,36 Z" id=")"></path>
        </g>
    </g>
</svg>