<?xml version="1.0" encoding="UTF-8"?>
<svg width="64px" height="64px" viewBox="0 0 64 64" version="1.1" xmlns="http://www.w3.org/2000/svg" xmlns:xlink="http://www.w3.org/1999/xlink">
    <title>fumigation</title>
    <g id="fumigation" stroke="none" stroke-width="1" fill="none" fill-rule="evenodd">
        <path d="M33.5,40 C33.7761424,40 34,40.2238576 34,40.5 L34.0006929,41.1974599 C37.6215276,41.9297979 40,44.5660761 40,46.8492663 L39.9777575,46.8493134 C39.9923844,46.9474808 40,47.0484764 40,47.1519031 L40,60 L36,60 L36,49.7369031 L35.8948743,49.7545261 C34.7651898,49.9206716 33.4693122,50 32,50 C30.5306878,50 29.2348102,49.9206716 28.1051257,49.7545261 L28,49.7379031 L28,60 L24,60 L24,47.1519031 C24,47.1009279 24.0018499,47.0505432 24.0054775,47.0007966 C24,44.6894096 26.3724474,41.961292 29.9999315,41.203826 L30,40.5 C30,40.2238576 30.2238576,40 30.5,40 L33.5,40 Z M32,44.4285714 C30.5132823,44.4285714 29.3162977,45.0761787 28.6315094,45.788201 C29.5443808,45.926431 30.6704045,46 32,46 C33.365982,46 34.5170975,45.9223493 35.4432018,45.7775389 C34.7778913,45.0809847 33.5564635,44.4285714 32,44.4285714 Z" id="Combined-Shape" fill="#000000" fill-rule="nonzero"></path>
        <path d="M40,4 C44.4277684,4 48.45161,6.00879678 50.5358504,9.19446155 L50.556,9.228 L50.7348773,9.26004116 C55.9286932,10.2628099 59.8496642,14.0629951 59.9957763,18.7298127 L60,19 C60,24.6332776 54.541597,29 48,29 C46.7445977,29 45.5141136,28.839874 44.3430628,28.5297412 L44.309,28.52 L33.4141278,39.4142993 C32.674175,40.1541624 31.4987516,40.1930693 30.7129986,39.5310441 L30.5857893,39.4142165 L19.691,28.519 L19.6578344,28.5295036 C18.6329313,28.8010057 17.5624931,28.9576029 16.4696605,28.99251 L16,29 C9.45840301,29 4,24.6332776 4,19 C4,14.2104294 7.97111878,10.2822686 13.2643542,9.25964345 L13.442,9.226 L13.4639412,9.19363678 C15.4966591,6.08815683 19.37259,4.10116182 23.6687234,4.00375299 L24,4 C26.953537,4 29.7458477,4.89131941 31.9054267,6.46400163 L32,6.535 L32.0945942,6.46405046 C34.1601984,4.95972005 36.8048106,4.07879598 39.6157044,4.00503761 L40,4 Z M40,8 C37.3522564,8 34.946814,8.98295379 33.4580499,10.5683827 C32.6681252,11.4095968 31.3321586,11.4096292 30.5421932,10.5684532 C29.0532167,8.98295182 26.64774,8 24,8 C20.582464,8 17.6255541,9.64003266 16.4860876,11.9519711 C16.1823171,12.5683109 15.5834162,12.9855564 14.9000048,13.0569716 C10.894221,13.4755683 8,16.0935178 8,19 C8,22.2032784 11.495902,25 16,25 C17.2478749,25 18.4507899,24.7830551 19.5420293,24.3731318 C20.2766078,24.0971879 21.1046863,24.2763098 21.6595525,24.8311737 L32,35.171 L42.3415311,24.8314668 C42.8567211,24.3163392 43.6074091,24.1251093 44.3001039,24.3212679 L44.4587935,24.3734409 C45.5498186,24.7831653 46.7524416,25 48,25 C52.504098,25 56,22.2032784 56,19 C56,16.0934327 53.1057026,13.4756754 49.0996231,13.0575602 C48.4159404,12.9862041 47.816809,12.5687457 47.5130726,11.9520952 C46.3742714,9.64008255 43.4176462,8 40,8 Z" id="Path" fill="#000000" fill-rule="nonzero"></path>
        <path d="M36,30 C36.3390024,30 36.6583054,30.0843435 36.938069,30.2331905 L34.2333207,32.9383137 C34.0843926,32.6584915 34,32.3391012 34,32 C34,30.8954305 34.8954305,30 36,30 Z M28,26 C29.1045695,26 30,26.8954305 30,28 C30,29.1045695 29.1045695,30 28,30 C26.8954305,30 26,29.1045695 26,28 C26,26.8954305 26.8954305,26 28,26 Z M36,22 C37.1045695,22 38,22.8954305 38,24 C38,25.1045695 37.1045695,26 36,26 C34.8954305,26 34,25.1045695 34,24 C34,22.8954305 34.8954305,22 36,22 Z M20,22 C21.1045695,22 22,22.8954305 22,24 C22,24.3391012 21.9156074,24.6584915 21.7666793,24.9383137 L21.6595525,24.8311737 C21.1046863,24.2763098 20.2766078,24.0971879 19.5420293,24.3731318 C19.0974503,24.5401376 18.6343353,24.6751127 18.1571957,24.7764364 C18.0555767,24.5373878 18,24.2751842 18,24 C18,22.8954305 18.8954305,22 20,22 Z M52,22 C52.7877828,22 53.4691851,22.4554689 53.7952359,23.1174357 C52.8207715,23.8924965 51.5742936,24.4783146 50.1578539,24.7777226 C50.0558868,24.5388484 50,24.2759507 50,24 C50,22.8954305 50.8954305,22 52,22 Z M12,18 C13.1045695,18 14,18.8954305 14,20 C14,21.1045695 13.1045695,22 12,22 C10.8954305,22 10,21.1045695 10,20 C10,18.8954305 10.8954305,18 12,18 Z M28,18 C29.1045695,18 30,18.8954305 30,20 C30,21.1045695 29.1045695,22 28,22 C26.8954305,22 26,21.1045695 26,20 C26,18.8954305 26.8954305,18 28,18 Z M44,18 C45.1045695,18 46,18.8954305 46,20 C46,21.1045695 45.1045695,22 44,22 C42.8954305,22 42,21.1045695 42,20 C42,18.8954305 42.8954305,18 44,18 Z M20,14 C21.1045695,14 22,14.8954305 22,16 C22,17.1045695 21.1045695,18 20,18 C18.8954305,18 18,17.1045695 18,16 C18,14.8954305 18.8954305,14 20,14 Z M36,14 C37.1045695,14 38,14.8954305 38,16 C38,17.1045695 37.1045695,18 36,18 C34.8954305,18 34,17.1045695 34,16 C34,14.8954305 34.8954305,14 36,14 Z M52,14 C52.1939679,14 52.3814865,14.0276125 52.5588396,14.0791211 C52.874419,14.245096 53.172622,14.4274833 53.4515788,14.6242232 C53.7914342,14.9825378 54,15.4669123 54,16 C54,17.1045695 53.1045695,18 52,18 C50.8954305,18 50,17.1045695 50,16 C50,14.8954305 50.8954305,14 52,14 Z M13.5219799,13.2975867 C13.155145,13.7274456 12.6094018,14 12,14 C11.8827317,14 11.7678206,13.9899073 11.656088,13.9705431 C12.1726346,13.7160791 12.732386,13.5055472 13.327804,13.3460616 Z M28,10 C29.1045695,10 30,10.8954305 30,12 C30,13.1045695 29.1045695,14 28,14 C26.8954305,14 26,13.1045695 26,12 C26,10.8954305 26.8954305,10 28,10 Z M44,10 C45.1045695,10 46,10.8954305 46,12 C46,13.1045695 45.1045695,14 44,14 C42.8954305,14 42,13.1045695 42,12 C42,10.8954305 42.8954305,10 44,10 Z M21.9906153,8.19499743 C21.8925924,9.20805864 21.0387801,10 20,10 C19.5043717,10 19.050851,9.81971563 18.7014388,9.52114779 C19.6101827,8.91324576 20.7014274,8.45950672 21.9003327,8.21214155 Z M37.9906153,8.19499743 C37.8925924,9.20805864 37.0387801,10 36,10 C35.5048323,10 35.051694,9.82005058 34.7024133,9.52197992 C35.5826656,8.93161662 36.6249304,8.49256537 37.7617942,8.24141759 Z" id="Combined-Shape" fill="#000000"></path>
    </g>
</svg>