<?xml version="1.0" encoding="UTF-8"?>
<svg width="64px" height="64px" viewBox="0 0 64 64" version="1.1" xmlns="http://www.w3.org/2000/svg" xmlns:xlink="http://www.w3.org/1999/xlink">
    <title>fumigation</title>
    <g id="fumigation" stroke="none" stroke-width="1" fill="none" fill-rule="evenodd">
        <path d="M27,54.5270834 C27,54.5270834 29.0092773,55.5886925 32.21993,55.5886925 C35.4305827,55.5886925 37,54.5270834 37,54.5270834 L37,36.1519031 C37,36.1519031 34.7773031,37.3334835 32,37.3334835 C29.2226969,37.3334835 27,36.3264851 27,36.3264851 L27,54.5270834 Z" id="Path-34" fill="#000000" fill-rule="nonzero"></path>
        <path d="M27.5,35.7230463 C27.5,35.7230463 29.8254395,36.733843 32,36.733843 C34.1745605,36.733843 36.5,35.7230463 36.5,35.7230463 C36.5,35.7230463 35.4509277,33.824144 33,33.824144 C32.8780278,33.824144 32.3640137,34.1012217 32,34.1012217 C31.6359863,34.1012217 31.4126967,33.824144 30.9675293,33.824144 C29,33.824144 27.5,35.7230463 27.5,35.7230463 Z" id="Path-32" fill="#000000" fill-rule="nonzero"></path>
        <path d="M31,33.3273674 C31,33.3273674 31.6453044,33.4748527 32,33.4748527 C32.311971,33.4748527 33,33.3273674 33,33.3273674 L33,32.1474853 C33,32.1474853 32.2983805,32 32,32 C31.6317139,32 31,32.1474853 31,32.1474853 L31,33.3273674 Z" id="Path-33" fill="#000000" fill-rule="nonzero"></path>
        <path d="M32,8 C34.574587,8 36.8651179,8.7601179 38.3284272,9.94087522 C39.6415446,9.34895801 41.2555695,9 43,9 C47.418278,9 51,11.2385763 51,14 C51,16.2731051 48.5730279,18.1919291 45.2502697,18.7994807 L32,32 L18.8210472,18.8122948 C15.4617565,18.2193145 13,16.2893367 13,14 C13,11.2385763 16.581722,9 21,9 C22.7444305,9 24.3584554,9.34895801 25.6731199,9.94127727 C27.1348821,8.7601179 29.425413,8 32,8 Z" id="Path-57" fill="#000000" fill-rule="nonzero"></path>
    </g>
</svg>