<?xml version="1.0" encoding="UTF-8"?>
<svg width="64px" height="64px" viewBox="0 0 64 64" version="1.1" xmlns="http://www.w3.org/2000/svg" xmlns:xlink="http://www.w3.org/1999/xlink">
    <title>function</title>
    <g id="function" stroke="none" stroke-width="1" fill="none" fill-rule="evenodd">
        <path d="M42.7983857,4 C44.1761637,4 45.3937168,4.24950222 46.4510449,4.74850667 C47.4040009,5.19927253 47.8439196,6.31214723 47.4561763,7.29243802 L45.985226,11.0106736 C45.5788942,12.0377901 44.4168548,12.5410355 43.3897383,12.1347037 C43.0315458,11.9930012 42.7218949,11.750874 42.4980001,11.4374212 L42.0482281,10.8077404 L42.0482281,10.8077404 C41.8066898,10.4695868 41.5204699,10.232731 41.1243441,10.232731 C40.4352341,10.8659955 40.1548135,11.7149386 39.8721786,12.8439736 L36.2547571,27.8338119 L39.2646548,27.8338119 C40.3692243,27.8338119 41.2646548,28.7292424 41.2646548,29.8338119 C41.2646548,29.9692917 41.2508888,30.104421 41.2235689,30.2371177 L40.8515133,32.0442449 C40.6601212,32.9738636 39.8417155,33.640939 38.8925992,33.640939 L34.8594048,33.640939 L34.8594048,33.640939 L31.4216046,47.8939311 C30.8630893,50.2521067 30.3066929,52.0050045 29.7794736,53.1628195 C29.1940833,54.4483825 28.3991383,55.644171 27.3862465,56.7491394 C25.3298256,58.9854972 23.2772307,60 20.6386154,60 C19.4240964,60 18.1521543,59.632623 16.822789,58.8978691 C15.8543224,58.3666907 15.5021212,57.1503249 16.0351217,56.1828621 C16.0651322,56.1283893 16.0976672,56.075346 16.1325284,56.0238424 L17.9929538,53.2901562 C18.6158946,52.3780055 19.8602185,52.1429533 20.77267,52.7654531 C20.8568692,52.8228962 20.9365541,52.886692 21.0086103,52.95887 C21.4841079,53.4032241 21.9093322,53.6254011 22.2842833,53.6254011 C22.9505525,53.3569137 23.1020994,53.0995056 23.2461063,52.7957367 C23.7071325,51.7985787 24.1744578,50.1507465 24.6860649,47.8668562 L27.7428736,33.640939 L26.4422331,33.640939 C25.3376636,33.640939 24.4422331,32.7455085 24.4422331,31.640939 C24.4422331,31.5054592 24.4559991,31.3703299 24.483319,31.2376332 L24.8553746,29.430506 C25.0467667,28.5008873 25.8651724,27.8338119 26.8142887,27.8338119 L29.0089425,27.8338119 L29.0089425,27.8338119 L31.2676249,17.2852848 C31.7543339,15.0737273 32.2572597,13.3108838 32.7641951,11.9928519 C33.3236427,10.5382881 34.0016876,9.28930068 34.7874468,8.23414653 C36.9336797,5.36418402 39.6259584,4 42.7983857,4 Z" id="Path" fill="#000000" fill-rule="nonzero"></path>
    </g>
</svg>