<?xml version="1.0" encoding="UTF-8"?>
<svg width="64px" height="64px" viewBox="0 0 64 64" version="1.1" xmlns="http://www.w3.org/2000/svg" xmlns:xlink="http://www.w3.org/1999/xlink">
    <title>function_aggregate</title>
    <g id="function_aggregate" stroke="none" stroke-width="1" fill="none" fill-rule="evenodd">
        <path d="M42.7983857,4 C44.1761637,4 45.3937168,4.24950222 46.4510449,4.74850667 C47.4040009,5.19927253 47.8439196,6.31214723 47.4561763,7.29243802 L45.985226,11.0106736 C45.5788942,12.0377901 44.4168548,12.5410355 43.3897383,12.1347037 C43.0315458,11.9930012 42.7218949,11.750874 42.4980001,11.4374212 L42.0482281,10.8077404 L42.0482281,10.8077404 C41.8066898,10.4695868 41.5204699,10.232731 41.1243441,10.232731 C40.4352341,10.8659955 40.1548135,11.7149386 39.8721786,12.8439736 L36.2547571,27.8338119 L39.2646548,27.8338119 C40.3692243,27.8338119 41.2646548,28.7292424 41.2646548,29.8338119 C41.2646548,29.9692917 41.2508888,30.104421 41.2235689,30.2371177 L40.8515133,32.0442449 C40.6601212,32.9738636 39.8417155,33.640939 38.8925992,33.640939 L34.8594048,33.640939 L34.8594048,33.640939 L31.4216046,47.8939311 C30.8630893,50.2521067 30.3066929,52.0050045 29.7794736,53.1628195 C29.1940833,54.4483825 28.3991383,55.644171 27.3862465,56.7491394 C25.3298256,58.9854972 23.2772307,60 20.6386154,60 C19.4240964,60 18.1521543,59.632623 16.822789,58.8978691 C15.8543224,58.3666907 15.5021212,57.1503249 16.0351217,56.1828621 C16.0651322,56.1283893 16.0976672,56.075346 16.1325284,56.0238424 L17.9929538,53.2901562 C18.6158946,52.3780055 19.8602185,52.1429533 20.77267,52.7654531 C20.8568692,52.8228962 20.9365541,52.886692 21.0086103,52.95887 C21.4841079,53.4032241 21.9093322,53.6254011 22.2842833,53.6254011 C22.9505525,53.3569137 23.1020994,53.0995056 23.2461063,52.7957367 C23.7071325,51.7985787 24.1744578,50.1507465 24.6860649,47.8668562 L27.7428736,33.640939 L26.4422331,33.640939 C25.3376636,33.640939 24.4422331,32.7455085 24.4422331,31.640939 C24.4422331,31.5054592 24.4559991,31.3703299 24.483319,31.2376332 L24.8553746,29.430506 C25.0467667,28.5008873 25.8651724,27.8338119 26.8142887,27.8338119 L29.0089425,27.8338119 L29.0089425,27.8338119 L31.2676249,17.2852848 C31.7543339,15.0737273 32.2572597,13.3108838 32.7641951,11.9928519 C33.3236427,10.5382881 34.0016876,9.28930068 34.7874468,8.23414653 C36.9336797,5.36418402 39.6259584,4 42.7983857,4 Z" id="Path" fill="#000000" fill-rule="nonzero"></path>
        <path d="M24.7345809,38.1132155 L23.3807468,44.4230153 C23.1535036,44.6374778 22.9282948,44.8552526 22.7051172,45.07634 C22.8410551,45.3148081 22.9667983,45.5595813 23.0824938,45.8099492 L22.7306969,47.4466945 L22.6394683,47.8497299 C22.3676452,49.0371253 22.1104359,50.0303655 21.8097503,50.8629557 L21.75,51.018 L21.686432,50.9772679 C21.1524082,50.6597782 20.5703918,50.4805611 19.9845652,50.4312711 C19.9947928,50.2905739 20,50.145895 20,50 C20,46.6862915 17.3137085,44 14,44 C10.6862915,44 8,46.6862915 8,50 C8,53.2983115 10.661386,55.9750229 13.9538498,55.9998262 C13.7285593,56.7502987 13.7346187,57.5356973 13.9451967,58.2615376 C14.1279183,58.89136 14.4646247,59.4764091 14.9376456,59.9553791 C14.6292743,59.9853101 14.3163526,60 14,60 C8.4771525,60 4,55.5228475 4,50 C4,44.4771525 8.4771525,40 14,40 C16.2845677,40 18.3902039,40.7660972 20.0740229,42.055406 C21.546819,40.611418 23.1010716,39.297528 24.7345809,38.1132155 Z M48.1483417,25.265467 C48.4377927,24.7951091 49.0537395,24.6484551 49.5240974,24.9379061 L59.6160552,31.1483417 C59.7493757,31.230385 59.8615728,31.3425821 59.9436161,31.4759026 C60.2330671,31.9462605 60.0864131,32.5622073 59.6160552,32.8516583 L49.5240974,39.0620939 C49.3664897,39.1590832 49.1850598,39.2104356 49,39.2104356 C48.4477153,39.2104356 48,38.7627203 48,38.2104356 L47.9992067,34.1403117 C45.4278491,34.3248534 42.973629,34.6914479 40.6352311,35.2401978 C40.9166572,35.1052653 41.1795706,34.9372731 41.4198065,34.7414589 C42.1193416,34.1712738 42.6266059,33.3651891 42.8146798,32.4266159 L43.2589451,30.049661 C43.2716488,29.8088812 43.2630291,29.5724476 43.2348093,29.3420746 C44.7756067,29.5870386 46.3638733,29.7628348 47.9994528,29.8708618 L48,25.7895644 C48,25.6045046 48.0513523,25.4230747 48.1483417,25.265467 Z M36.215999,36.5432531 L36.4343607,35.640939 L38.8925992,35.640939 C38.9579515,35.640939 39.0229939,35.6393577 39.087686,35.636228 C38.1089914,35.9042521 37.1519779,36.2070826 36.215999,36.5432531 Z M14,4 C19.5228475,4 24,8.4771525 24,14 C24,16.0294466 23.3954516,17.9176934 22.3566187,19.4944766 C24.0621478,21.0892699 25.89012,22.5015029 27.8410964,23.7325088 L27.3918575,25.8338119 L26.8142887,25.8338119 C26.0381884,25.8338119 25.3057877,26.0568308 24.684926,26.4475735 C22.8693616,25.2260844 21.1515737,23.8534456 19.5323567,22.3318882 C17.9479091,23.3857361 16.045689,24 14,24 C8.4771525,24 4,19.5228475 4,14 C4,8.4771525 8.4771525,4 14,4 Z M14,8 C10.6862915,8 8,10.6862915 8,14 C8,17.3137085 10.6862915,20 14,20 C17.3137085,20 20,17.3137085 20,14 C20,10.6862915 17.3137085,8 14,8 Z" id="Shape" fill="#000000"></path>
    </g>
</svg>