<?xml version="1.0" encoding="UTF-8"?>
<svg width="64px" height="64px" viewBox="0 0 64 64" version="1.1" xmlns="http://www.w3.org/2000/svg" xmlns:xlink="http://www.w3.org/1999/xlink">
    <title>generate_invoices</title>
    <g id="generate_invoices" stroke="none" stroke-width="1" fill="none" fill-rule="evenodd">
        <path d="M32,4 C32.2210137,4 32.434484,4.07316447 32.6080295,4.20608063 L32.7071068,4.29289322 L43.7071068,15.2928932 C43.8633871,15.4491735 43.9625983,15.6518549 43.9913276,15.868556 L44,16 L44.0011334,22.4518703 C43.7918321,22.9050793 43.4630128,23.291642 43.0556385,23.571836 C42.6132993,23.876079 42.0773574,24.0534556 41.5,24.0534556 C40.9227213,24.0534556 40.3868358,23.8760712 39.9445254,23.5718414 L40,23.607 L40,18.5 L30,18.5 C29.4871642,18.5 29.0644928,18.1139598 29.0067277,17.6166211 L29,17.5 L29,8 L8,8 L8,56 L29.9587357,56.0007065 C29.9351792,56.3113776 29.8592768,56.6188514 29.7308127,56.9087593 C29.5035996,57.4215165 29.1252274,57.8493821 28.6553895,58.1398358 C29.252613,58.6021725 29.8728697,59.030323 30.512635,59.4232504 C30.840545,59.6246443 31.1743906,59.8172828 31.5138502,60.0008471 L5,60 C4.48716416,60 4.06449284,59.6139598 4.00672773,59.1166211 L4,59 L4,5 C4,4.48716416 4.38604019,4.06449284 4.88337887,4.00672773 L5,4 L32,4 Z M41.5,58.9556016 C42.0763739,58.9556016 42.6114655,59.1323221 43.0533527,59.4355962 C43.2270158,59.5547839 43.3864321,59.6932926 43.5284372,59.8480517 C43.4062582,59.9253201 43.2664932,59.9758649 43.1166211,59.9932723 L43,60 L39.3415218,60.0004909 C39.5136849,59.7833336 39.7178308,59.5926965 39.9467165,59.435612 C40.3885939,59.1323511 40.9236538,58.9556016 41.5,58.9556016 Z M21.8580494,34.0004848 C21.5363393,34.8429382 21.2672146,35.7113772 21.0546646,36.6017272 C20.9436847,37.0666102 20.8491636,37.5331309 20.7708567,38.0005154 L12,38 C10.8954305,38 10,37.1045695 10,36 C10,34.8954305 10.8954305,34 12,34 Z M26,28 C27.0570395,28 27.9225515,28.8200272 27.9950807,29.8586265 C27.7405776,29.9332906 27.4778979,29.9706459 27.2152057,29.9706459 C26.8322082,29.9706459 26.4492174,29.8917205 26.0928255,29.7332252 L26.0928255,29.7332252 L24.4922384,29.0214088 L23.5757165,30.5142415 L23.296445,30.9826512 C23.1034447,31.3161328 22.9193431,31.6554183 22.7444624,32.0001786 L12,32 C10.8954305,32 10,31.1045695 10,30 C10,28.8954305 10.8954305,28 12,28 L26,28 Z M26,22 C27.1045695,22 28,22.8954305 28,24 C28,25.1045695 27.1045695,26 26,26 L12,26 C10.8954305,26 10,25.1045695 10,24 C10,22.8954305 10.8954305,22 12,22 L26,22 Z M33.639625,21.9987272 C32.5475961,22.4392612 31.5010486,22.9687945 30.5089697,23.5784932 C30.3388953,23.6830153 30.1701998,23.7900297 30.0029433,23.8995163 L30,24 C30,22.8954305 30.8954305,22 32,22 Z M18,12 C19.1045695,12 20,12.8954305 20,14 C20,15.1045695 19.1045695,16 18,16 L12,16 C10.8954305,16 10,15.1045695 10,14 C10,12.8954305 10.8954305,12 12,12 L18,12 Z M33,10 L33,15 L38,15 L33,10 Z" id="Combined-Shape" fill="#000000" fill-rule="nonzero"></path>
        <path d="M56.9502943,41.5043841 C56.9501979,39.4796993 58.2166771,37.7515918 60,37.06613 C59.5291172,35.0941508 58.7515391,33.2408796 57.719875,31.5605636 C57.1056172,31.8338233 56.4451094,31.9704532 55.7848906,31.9704532 C54.5688047,31.9704532 53.3531042,31.5068945 52.4249245,30.5789099 C50.9928125,29.1468017 50.6666536,27.0286536 51.4440391,25.2823352 C49.7641042,24.2499993 47.9114062,23.4716524 45.9394219,23 C45.2550182,24.7853417 43.5260391,26.0534556 41.5,26.0534556 C39.4741536,26.0534556 37.7451745,24.7853417 37.0606745,23 C35.0886901,23.4716524 33.2360885,24.2499993 31.5561536,25.2824316 C32.3335391,27.0285572 32.0073802,29.146609 30.5751719,30.5790063 C29.6471849,31.5069908 28.4312917,31.9706459 27.2152057,31.9706459 C26.5547943,31.9706459 25.8945755,31.8339197 25.280125,31.56066 C24.2485573,33.2408796 23.4707865,35.0940544 23,37.06613 C24.7834193,37.7513991 26.0498021,39.4796993 26.0498021,41.5043841 C26.0498021,43.5285871 24.7844792,45.2560201 23.0021198,45.9418673 C23.4740625,47.9138466 24.2524115,49.7663469 25.2849427,51.4463738 C25.8978516,51.1745594 26.556625,51.0386041 27.2151094,51.0386041 C28.4312917,51.0386041 29.6469922,51.502259 30.5750755,52.4302436 C32.0050677,53.8602321 32.3324792,55.974237 31.5593333,57.7190137 C33.2395573,58.7509641 35.0920625,59.5288293 37.0640469,60 C37.7508594,58.2194759 39.4773333,56.9556016 41.5,56.9556016 C43.5226667,56.9556016 45.2491406,58.2192833 45.9358568,60 C47.9080339,59.5288293 49.7604427,58.7508678 51.440763,57.718821 C50.6677135,55.974237 50.9950286,53.8602321 52.4251172,52.4302436 C53.3529115,51.5021628 54.5688047,51.0385077 55.7847943,51.0385077 C56.4434714,51.0385077 57.1019557,51.1744631 57.7150573,51.4463738 C58.7475885,49.7663469 59.5259375,47.9138466 59.9978802,45.9418673 C58.2155208,45.2559238 56.9502943,43.5283945 56.9502943,41.5043841 L56.9502943,41.5043841 Z M41.5,52 C35.685625,52 31,47.288125 31,41.5 C31,35.7117437 35.685625,31 41.5,31 C47.3142438,31 52,35.7117437 52,41.5 C52,47.288125 47.3142438,52 41.5,52 L41.5,52 Z" id="Shape" fill="#000000" fill-rule="nonzero"></path>
    </g>
</svg>