<?xml version="1.0" encoding="UTF-8"?>
<svg width="64px" height="64px" viewBox="0 0 64 64" version="1.1" xmlns="http://www.w3.org/2000/svg" xmlns:xlink="http://www.w3.org/1999/xlink">
    <title>generate_orders</title>
    <g id="generate_orders" stroke="none" stroke-width="1" fill="none" fill-rule="evenodd">
        <path d="M56.9502943,41.5043841 C56.9501979,39.4796993 58.2166771,37.7515918 60,37.06613 C59.5291172,35.0941508 58.7515391,33.2408796 57.719875,31.5605636 C57.1056172,31.8338233 56.4451094,31.9704532 55.7848906,31.9704532 C54.5688047,31.9704532 53.3531042,31.5068945 52.4249245,30.5789099 C50.9928125,29.1468017 50.6666536,27.0286536 51.4440391,25.2823352 C49.7641042,24.2499993 47.9114062,23.4716524 45.9394219,23 C45.2550182,24.7853417 43.5260391,26.0534556 41.5,26.0534556 C39.4741536,26.0534556 37.7451745,24.7853417 37.0606745,23 C35.0886901,23.4716524 33.2360885,24.2499993 31.5561536,25.2824316 C32.3335391,27.0285572 32.0073802,29.146609 30.5751719,30.5790063 C29.6471849,31.5069908 28.4312917,31.9706459 27.2152057,31.9706459 C26.5547943,31.9706459 25.8945755,31.8339197 25.280125,31.56066 C24.2485573,33.2408796 23.4707865,35.0940544 23,37.06613 C24.7834193,37.7513991 26.0498021,39.4796993 26.0498021,41.5043841 C26.0498021,43.5285871 24.7844792,45.2560201 23.0021198,45.9418673 C23.4740625,47.9138466 24.2524115,49.7663469 25.2849427,51.4463738 C25.8978516,51.1745594 26.556625,51.0386041 27.2151094,51.0386041 C28.4312917,51.0386041 29.6469922,51.502259 30.5750755,52.4302436 C32.0050677,53.8602321 32.3324792,55.974237 31.5593333,57.7190137 C33.2395573,58.7509641 35.0920625,59.5288293 37.0640469,60 C37.7508594,58.2194759 39.4773333,56.9556016 41.5,56.9556016 C43.5226667,56.9556016 45.2491406,58.2192833 45.9358568,60 C47.9080339,59.5288293 49.7604427,58.7508678 51.440763,57.718821 C50.6677135,55.974237 50.9950286,53.8602321 52.4251172,52.4302436 C53.3529115,51.5021628 54.5688047,51.0385077 55.7847943,51.0385077 C56.4434714,51.0385077 57.1019557,51.1744631 57.7150573,51.4463738 C58.7475885,49.7663469 59.5259375,47.9138466 59.9978802,45.9418673 C58.2155208,45.2559238 56.9502943,43.5283945 56.9502943,41.5043841 L56.9502943,41.5043841 Z M41.5,52 C35.685625,52 31,47.288125 31,41.5 C31,35.7117437 35.685625,31 41.5,31 C47.3142438,31 52,35.7117437 52,41.5 C52,47.288125 47.3142438,52 41.5,52 L41.5,52 Z" id="Shape" fill="#000000" fill-rule="nonzero"></path>
        <path d="M11,11 L11,15 L10,15 C8.9456382,15 8.08183488,15.8158778 8.00548574,16.8507377 L8,17 L8,54 C8,55.0543618 8.81587779,55.9181651 9.85073766,55.9945143 L10,56 L29.9587357,56.0007065 C29.9351792,56.3113776 29.8592768,56.6188514 29.7308127,56.9087593 C29.5035996,57.4215165 29.1252274,57.8493821 28.6553895,58.1398358 C29.252613,58.6021725 29.8728697,59.030323 30.512635,59.4232504 C30.840545,59.6246443 31.1743906,59.8172828 31.5138502,60.0008471 L10,60 C6.76160306,60 4.12242824,57.4344251 4.00413847,54.2249383 L4,54 L4,17 C4,13.7616031 6.56557489,11.1224282 9.77506174,11.0041385 L10,11 L11,11 Z M39.5256129,59.8043208 L39.509602,59.8074742 C39.6418677,59.6690142 39.7883719,59.544284 39.9467165,59.435612 C40.3885939,59.1323511 40.9236538,58.9556016 41.5,58.9556016 L41.3756387,58.9610548 C40.8189674,59.3405637 40.1951179,59.6288265 39.5256129,59.8043208 Z M20.965,46 L21.0570474,46.4073706 C21.3548943,47.6519028 21.7630925,48.8534074 22.2709344,50.000975 L14,50 C12.8954305,50 12,49.1045695 12,48 C12,46.8954305 12.8954305,46 14,46 L20.965,46 Z M20.7708567,38.0005154 C20.7248102,38.2753494 20.6843701,38.5504821 20.6494867,38.8257561 C21.1874565,38.6977906 21.7584421,38.731631 22.2826451,38.9330531 C22.8076813,39.1347954 23.2549998,39.4928231 23.5687566,39.9494206 C23.8726485,40.3916624 24.0498021,40.9273601 24.0498021,41.5043841 C24.0498021,41.6739272 24.0345166,41.8398973 24.0052217,42.0009739 L14,42 C12.8954305,42 12,41.1045695 12,40 C12,38.8954305 12.8954305,38 14,38 Z M23.891,30 L23.5757165,30.5142415 L23.296445,30.9826512 C22.7406053,31.9430763 22.258574,32.9516419 21.8580494,34.0004848 L14,34 C12.8954305,34 12,33.1045695 12,32 C12,30.8954305 12.8954305,30 14,30 L23.891,30 Z M33.639625,21.9987272 C32.5475961,22.4392612 31.5010486,22.9687945 30.5089697,23.5784932 C29.8682879,23.972235 29.2471732,24.4013456 28.6488416,24.86474 C29.120254,25.1545933 29.5004658,25.5824415 29.7290473,26.0958701 L29.682,26 L14,26 C12.8954305,26 12,25.1045695 12,24 C12,22.8954305 12.8954305,22 14,22 Z M38,11 C41.2383969,11 43.8775718,13.5655749 43.9958615,16.7750617 L44,17 L44.0011334,22.4518703 C43.7918321,22.9050793 43.4630128,23.291642 43.0556385,23.571836 C42.6132993,23.876079 42.0773574,24.0534556 41.5,24.0534556 C40.9227213,24.0534556 40.3868358,23.8760712 39.9445254,23.5718414 L40,23.607 L40,17 C40,15.9456382 39.1841222,15.0818349 38.1492623,15.0054857 L38,15 L37,15 L37,11 L38,11 Z M24,4 C26.963829,4 29.0330253,5.3866802 29.735469,7.90524888 L29.735469,7.90524888 L29.76,8 L31,8 C33.1421954,8 34.8910789,9.68396847 34.9951047,11.8003597 L34.9951047,11.8003597 L35,12 L35,15 C35,17.209139 33.209139,19 31,19 L31,19 L17,19 C14.790861,19 13,17.209139 13,15 L13,15 L13,12 C13,9.790861 14.790861,8 17,8 L17,8 L18.239,8 L18.2645206,7.90528649 C18.945668,5.46301662 20.9120034,4.08508155 23.7330372,4.00381301 L23.7330372,4.00381301 Z M24,8 C22.6056662,8 22.1729885,8.34309099 22.0364954,9.38854796 L22.0364954,9.38854796 L22.007958,9.56596746 C21.7391369,10.9701091 20.5081567,12 19.061759,12 L19.061759,12 L17,12 L17,15 L31,15 L31,12 L28.9380147,12 C27.4314048,11.9998666 26.1585421,10.8823511 25.9634841,9.38839093 L25.9634841,9.38839093 L25.9429748,9.25016844 C25.7856835,8.31260686 25.3309483,8 24,8 Z" id="Combined-Shape" fill="#000000" fill-rule="nonzero"></path>
    </g>
</svg>