<?xml version="1.0" encoding="UTF-8"?>
<svg width="64px" height="64px" viewBox="0 0 64 64" version="1.1" xmlns="http://www.w3.org/2000/svg" xmlns:xlink="http://www.w3.org/1999/xlink">
    <title>geo</title>
    <g id="geo" stroke="none" stroke-width="1" fill="none" fill-rule="evenodd">
        <path d="M32,4 C47.463973,4 60,16.536027 60,32 C60,47.463973 47.463973,60 32,60 C16.536027,60 4,47.463973 4,32 C4,16.536027 16.536027,4 32,4 Z M30,48 L22.8467519,48.0011753 C24.6962955,50.4594187 27.0787184,52.5900266 30.0000784,54.4030257 L30,48 Z M41.1539563,48.0002339 L34,48 L34.0005597,54.4026297 C36.9220014,52.5894849 39.3044474,50.4586957 41.1539563,48.0002339 Z M18.048071,48.0009928 L14.1121041,48.0010683 C16.6212205,50.8041394 19.7795123,53.0139522 23.350639,54.3941663 C21.2205359,52.4911323 19.4524919,50.3584342 18.048071,48.0009928 Z M49.8878959,48.0010683 L45.951929,48.0009928 C44.5475081,50.3584342 42.7794641,52.4911323 40.6506259,54.3944044 C44.2204877,53.0139522 47.3787795,50.8041394 49.8878959,48.0010683 Z M14.049377,34.0001514 L8.08218805,34.0004908 C8.3809766,37.6213431 9.48353743,41.0142759 11.2110352,44.0004537 L16.0970828,44.0005333 C14.9153254,40.9674765 14.2312562,37.6315321 14.049377,34.0001514 Z M45.9453635,34.0011333 L34,34 L34,44 L43.5598998,44.0004762 C44.9460296,41.0439722 45.7387909,37.7148193 45.9453635,34.0011333 Z M55.917812,34.0004908 L49.950623,34.0001514 C49.7687438,37.6315321 49.0846746,40.9674765 47.9029172,44.0005333 L52.7889648,44.0004537 C54.5164626,41.0142759 55.6190234,37.6213431 55.917812,34.0004908 Z M30,34 L18.0545848,34.0002044 C18.2610794,37.7143075 19.0538734,41.0438035 20.4401488,44.0005798 L30,44 L30,34 Z M16.0966918,20.0004705 L11.2104601,20.0005404 C9.48313316,22.986753 8.38073975,26.3796856 8.08210526,30.0005127 L14.0493267,30.0008538 C14.2311099,26.3694841 14.9150654,23.0335394 16.0966918,20.0004705 Z M43.5603219,20.0004243 L34,20 L34,30 L45.945471,30.0007993 C45.7390868,26.2867128 44.9464309,22.9572166 43.5603219,20.0004243 Z M52.7895399,20.0005404 L47.9033082,20.0004705 C49.0849346,23.0335394 49.7688901,26.3694841 49.9506733,30.0008538 L55.9178947,30.0005127 C55.6192602,26.3796856 54.5168668,22.986753 52.7895399,20.0005404 Z M30,20 L20.4396781,20.0004243 C19.0535691,22.9572166 18.2609132,26.2867128 18.054529,30.0007993 L30,30 L30,20 Z M23.3493741,9.60559564 L23.0040377,9.74291716 C19.5746458,11.1303705 16.5389921,13.2874195 14.1112101,15.9999305 L18.0474744,16.0000086 C19.4519912,13.6421697 21.2202345,11.5091372 23.3493741,9.60559564 Z M34.0009168,9.59759194 L34,16 L41.1540015,15.9998262 C39.3045616,13.5414392 36.9222193,11.4107035 34.0009168,9.59759194 Z M40.649361,9.60583372 L40.7759869,9.718316 C42.8492649,11.5932316 44.5756665,13.6886002 45.9525256,16.0000086 L49.8887899,15.9999305 C47.3795297,13.1963856 44.2209118,10.9862117 40.649361,9.60583372 Z M30.0000784,9.59697428 C27.0783217,11.4102196 24.6956484,13.54116 22.8459985,15.9998262 L30,16 Z" id="Combined-Shape" fill="#000000" fill-rule="nonzero"></path>
    </g>
</svg>