<?xml version="1.0" encoding="UTF-8"?>
<svg width="64px" height="64px" viewBox="0 0 64 64" version="1.1" xmlns="http://www.w3.org/2000/svg" xmlns:xlink="http://www.w3.org/1999/xlink">
    <title>geo_heat_map</title>
    <g id="geo_heat_map" stroke="none" stroke-width="1" fill="none" fill-rule="evenodd">
        <path d="M32,4 C47.463973,4 60,16.536027 60,32 C60,35.7796559 59.2511027,39.3843975 57.8935991,42.6739336 C57.1635542,41.3442227 56.1078328,40.219699 54.8338841,39.4069833 C55.394168,37.6828311 55.7633682,35.8721094 55.917812,34.0004908 L49.950623,34.0001514 C49.881471,35.3808326 49.7397233,36.718806 49.5256272,38.0136621 C47.924771,38.0955087 46.4350533,38.5967515 45.1630874,39.4089162 C45.5319406,37.9028462 45.7777786,36.3171924 45.9028231,34.6525004 L45.9453635,34.0011333 L34,34 L34,44 L41.5119702,44.0004159 C41.1804093,44.9386351 41,45.9482491 41,47 C41,47.3382478 41.0186596,47.6721373 41.0550057,48.0006955 L34,48 L34.0005597,54.4026297 C36.7501519,52.6961405 39.0222946,50.7082777 40.822039,48.4306807 L41.0678737,48.1108201 C41.2603073,49.6742039 41.8536601,51.1135009 42.7419189,52.3226979 C42.0893807,53.0411733 41.3918745,53.7316965 40.6506259,54.3944044 C41.5989594,54.0276874 42.5182485,53.6024425 43.4040387,53.1230959 C44.4219691,54.2193883 45.7104093,55.0616574 47.1631217,55.5437725 C42.7937117,58.3630565 37.5880202,60 32,60 C16.536027,60 4,47.463973 4,32 C4,28.2732976 4.72806,24.7166428 6.04970316,21.4645123 C6.7532161,22.8726075 7.77932822,24.0913126 9.03110808,25.0240045 C8.54601144,26.6180581 8.22370532,28.2836671 8.08210526,30.0005127 L14.0493267,30.0008538 C14.1010046,28.9685152 14.1932667,27.9600521 14.3260095,26.9756355 C14.5493178,26.9924884 14.7737817,27 15,27 C16.2176535,27 17.3844763,26.7823678 18.4636926,26.383879 C18.259737,27.545419 18.1239585,28.7513469 18.054529,30.0007993 L30,30 L30,20 L24.5419205,20.0008825 C24.8395465,19.0535849 25,18.0455304 25,17 C25,16.6621244 24.9832433,16.3281626 24.9505155,15.9989003 L30,16 L30.0000784,9.59697428 C27.9031177,10.8983503 26.0838395,12.3633714 24.5400034,13.9957459 C24.1173833,12.6493786 23.4165241,11.4255242 22.5053189,10.3914702 C22.7801381,10.1246137 23.0614563,9.86300637 23.3493741,9.60559564 L23.0040377,9.74291716 C22.7392198,9.85005642 22.4767497,9.96178472 22.2167261,10.0780035 C21.1443237,8.95951091 19.8127604,8.08932538 18.3187978,7.56389415 C22.3642484,5.29438029 27.0309648,4 32,4 Z M50,39 C54.418278,39 58,42.581722 58,47 C58,51.418278 54.418278,55 50,55 C45.581722,55 42,51.418278 42,47 C42,42.581722 45.581722,39 50,39 Z M30,48 L22.8467519,48.0011753 C24.6962955,50.4594187 27.0787184,52.5900266 30.0000784,54.4030257 L30,48 Z M18.048071,48.0009928 L14.1121041,48.0010683 C16.6212205,50.8041394 19.7795123,53.0139522 23.350639,54.3941663 C21.3726861,52.6270633 19.7069168,50.6619336 18.3545834,48.5027171 L18.048071,48.0009928 Z M20,33 C17.5933842,33 15.470426,34.2144825 14.2105723,36.0640007 C14.1614767,35.607418 14.1211761,35.1449967 14.0893633,34.6775714 L14.049377,34.0001514 L8.08218805,34.0004908 C8.3809766,37.6213431 9.48353743,41.0142759 11.2110352,44.0005333 L14.255617,44.0013298 C15.5206629,45.8140641 17.6218364,47 20,47 C22.3781636,47 24.4793371,45.8140641 25.744383,44.0013298 L30,44 L30,34 L23.6076785,34.0000554 C22.5541156,33.3652014 21.3197065,33 20,33 Z M20,34 C23.3137085,34 26,36.6862915 26,40 C26,43.3137085 23.3137085,46 20,46 C16.6862915,46 14,43.3137085 14,40 C14,36.6862915 16.6862915,34 20,34 Z M34.0009168,9.59759194 L34,16 L39.708799,15.9996048 C38.5275984,17.041998 37.6565687,18.4277309 37.2518692,20.000644 L34,20 L34,30 L45.945471,30.0007993 L45.9420215,29.9451215 C47.3932163,29.7748948 48.7256556,29.2162626 49.8325795,28.3759847 C49.8842669,28.91011 49.9232037,29.4521089 49.9506733,30.0008538 L55.9178947,30.0005127 C55.6192602,26.3796856 54.5168668,22.986753 52.7895399,20.0004705 L52.7481308,20.000644 C52.2096871,17.9079177 50.8457587,16.1465326 49.0241282,15.0842712 C46.6691374,12.7132471 43.8221897,10.8321086 40.649361,9.60583372 L40.7759869,9.718316 C42.2368127,11.0393763 43.5254293,12.469882 44.6409039,14.0082894 C43.15669,14.0735616 41.7779679,14.543358 40.6116961,15.3099162 C38.9629753,13.2814555 36.9298467,11.4871651 34.5108472,9.92085198 L34.0009168,9.59759194 Z M45,15 C48.8659932,15 52,18.1340068 52,22 C52,25.8659932 48.8659932,29 45,29 C41.1340068,29 38,25.8659932 38,22 C38,18.1340068 41.1340068,15 45,15 Z M15,8 C19.9705627,8 24,12.0294373 24,17 C24,21.9705627 19.9705627,26 15,26 C10.0294373,26 6,21.9705627 6,17 C6,12.0294373 10.0294373,8 15,8 Z" id="Shape" fill="#000000" fill-rule="nonzero"></path>
    </g>
</svg>