<?xml version="1.0" encoding="UTF-8"?>
<svg width="64px" height="64px" viewBox="0 0 64 64" version="1.1" xmlns="http://www.w3.org/2000/svg" xmlns:xlink="http://www.w3.org/1999/xlink">
    <title>google_calendar</title>
    <g id="google_calendar" stroke="none" stroke-width="1" fill="none" fill-rule="evenodd">
        <g id="31" transform="translate(21.158359, 23.000000)" fill="#000000" fill-rule="nonzero">
            <polygon id="Path" points="20.8416408 18 17.8416408 18 17.8416408 4.5 15.3416408 6.5 13.3416408 4 18.3416408 2.49800181e-14 20.8416408 2.49800181e-14"></polygon>
            <path d="M5.84164079,0 C8.84164079,0 10.8416408,2.09963237 10.8416408,5 C10.8416408,6.29978034 10.4099431,7.48246222 9.56647317,8.41521486 L9.45764079,8.53 L9.52344146,8.5657447 C11.0171699,9.40038916 11.7837488,10.7601591 11.8384835,12.7657167 L11.8416408,13 C11.8416408,16.5649501 9.13257089,18.5 5.84164079,18.5 C3.41208176,18.5 1.47335695,16.9542109 0.140484239,14.4434919 L0,14.1708204 L2.68328157,12.8291796 C3.56206462,14.5867457 4.65796978,15.5 5.84164079,15.5 C7.65071068,15.5 8.84164079,14.5 8.84164079,13 C8.84164079,11.5 8.15708617,10.8013396 5.87090802,10.5804019 L5.42325669,10.5445371 C5.34544534,10.5394737 5.26601392,10.5348609 5.18493446,10.5306893 L4.67845726,10.5108759 C4.59067367,10.5084303 4.50118606,10.5064067 4.40996644,10.5047955 L3.84164079,10.5 L3.84164079,7.5 C6.76321366,7.5 7.84164079,6.42157288 7.84164079,5 C7.84164079,3.58786763 6.84164079,3 5.84164079,3 C4.5014182,3 3.53796953,3.59762503 2.79824354,4.95085089 L2.68328157,5.17082039 L0,3.82917961 C1.245684,1.3378116 3.25240141,0 5.84164079,0 Z" id="Path-3"></path>
        </g>
        <path d="M56,4 C58.209139,4 60,5.790861 60,8 L60,47 L47,60 L8,60 C5.790861,60 4,58.209139 4,56 L4,8 C4,5.790861 5.790861,4 8,4 L56,4 Z M16,48 L8,48 L8,56 L16,56 L16,48 Z M44,48 L20,48 L20,56 L44,56 L44,48 Z M53.342,48 L48,48 L48,53.342 L53.342,48 Z M44,8 L8,8 L8,44 L16,44 L16,16 L44,16 L44,8 Z M56,20 L48,20 L48,44 L56,44 L56,20 Z M44,20 L20,20 L20,44 L44,44 L44,20 Z M56,8 L48,8 L48,16 L56,16 L56,8 Z" id="Rectangle" fill="#000000" fill-rule="nonzero"></path>
    </g>
</svg>