<?xml version="1.0" encoding="UTF-8"?>
<svg width="64px" height="64px" viewBox="0 0 64 64" version="1.1" xmlns="http://www.w3.org/2000/svg" xmlns:xlink="http://www.w3.org/1999/xlink">
    <title>google</title>
    <g id="google" stroke="none" stroke-width="1" fill="none" fill-rule="evenodd">
        <path d="M32,4 C39.4779,4 46.2711317,6.93141334 51.2932386,11.7077835 L42.8030617,20.1975869 C39.9565757,17.5906991 36.1640517,16 32,16 C23.163444,16 16,23.163444 16,32 C16,40.836556 23.163444,48 32,48 C38.7145693,48 44.4630983,43.8638895 46.8367689,38.0004867 L32,38 L32,26 L59.3557171,26.0003489 C59.7776749,27.9331776 60,29.9406254 60,32 C60,47.463973 47.463973,60 32,60 C16.536027,60 4,47.463973 4,32 C4,16.536027 16.536027,4 32,4 Z M32,8 C18.745166,8 8,18.745166 8,32 C8,45.254834 18.745166,56 32,56 C45.254834,56 56,45.254834 56,32 C56,31.5628293 55.9883529,31.1273372 55.9651653,30.6938201 L55.917,30 L36,29.999 L36,34 L52,34 L50.5444707,39.5014688 C47.5114963,46.9934734 40.2206372,52 32,52 C20.954305,52 12,43.045695 12,32 C12,20.954305 20.954305,12 32,12 C35.6834918,12 39.215998,13.0025161 42.2769247,14.8389038 L42.418,14.925 L45.315,12.028 L45.2522005,11.9857423 C41.5074438,9.49956478 37.1074838,8.09554238 32.4795477,8.00470331 L32,8 Z" id="Path" fill="#000000" fill-rule="nonzero"></path>
    </g>
</svg>