<?xml version="1.0" encoding="UTF-8"?>
<svg width="64px" height="64px" viewBox="0 0 64 64" version="1.1" xmlns="http://www.w3.org/2000/svg" xmlns:xlink="http://www.w3.org/1999/xlink">
    <title>grain_seed</title>
    <g id="grain_seed" stroke="none" stroke-width="1" fill="none" fill-rule="evenodd">
        <path d="M16,6.75 L11,10.5 L11,20.5 L7,23.5 L7,57 L25,57 L25,23.5 L21,20.5 L21,10.5 L16,6.75 Z M16,9.25 L19,11.5 L19,21.5 L23,24.5 L23,55 L9,55 L9,24.5 L13,21.5 L13,11.5 L16,9.25 Z" id="Path-609" fill="#000000" fill-rule="nonzero"></path>
        <path d="M34,27 C31.1194549,27 29.1340044,28.2338958 27.9979707,30.2824812 C27.595281,31.0086429 27.3265779,31.7905831 27.1645092,32.5888322 C27.0578808,33.1140167 27.0108523,33.5723956 27.001202,33.926241 L26.9999623,57 L41,57 L41,34 C41,33.1086127 40.7888298,31.8415917 40.1444272,30.5527864 C39.0431379,28.3502077 37.0178263,27 34,27 Z M34,29 C36.2321737,29 37.5818621,29.8997923 38.3555728,31.4472136 C38.6352009,32.0064697 38.8180141,32.6158472 38.9198561,33.226899 L38.9433651,33.3770254 C38.9856144,33.6657744 39,33.8837767 39,34 L39,55 L28.999,55 L29.0008303,33.9535413 C29.0215267,33.2082704 29.2289389,32.186688 29.7470347,31.2524167 C30.5390187,29.824249 31.8653102,29 34,29 Z" id="Path-610" fill="#000000" fill-rule="nonzero"></path>
        <path d="M50,27 C47.1194549,27 45.1340044,28.2338958 43.9979707,30.2824812 C43.595281,31.0086429 43.3265779,31.7905831 43.1645092,32.5888322 C43.0578808,33.1140167 43.0108523,33.5723956 43.001202,33.926241 L42.9999623,57 L57,57 L57,34 C57,33.1086127 56.7888298,31.8415917 56.1444272,30.5527864 C55.0431379,28.3502077 53.0178263,27 50,27 Z M50,29 C52.2321737,29 53.5818621,29.8997923 54.3555728,31.4472136 C54.6352009,32.0064697 54.8180141,32.6158472 54.9198561,33.226899 L54.9433651,33.3770254 C54.9856144,33.6657744 55,33.8837767 55,34 L55,55 L44.999,55 L45.0008303,33.9535413 C45.0215267,33.2082704 45.2289389,32.186688 45.7470347,31.2524167 C46.5390187,29.824249 47.8653102,29 50,29 Z" id="Path-610-Copy" fill="#000000" fill-rule="nonzero"></path>
        <polygon id="Path-612" fill="#000000" fill-rule="nonzero" points="23.9616518 24.4985272 24.0383482 23.5014728 50.5 25.5369844 50.5 28 49.5 28 49.5 26.463"></polygon>
        <polygon id="Path-613" fill="#000000" fill-rule="nonzero" points="34.5 24.6083984 34.5 27.9886401 33.5 27.9886401 33.5 24.6083984"></polygon>
        <rect id="Rectangle-166" fill="#000000" fill-rule="nonzero" x="15" y="15" width="2" height="2"></rect>
        <rect id="Rectangle-166-Copy" fill="#000000" fill-rule="nonzero" x="12" y="26" width="2" height="2"></rect>
        <rect id="Rectangle-166-Copy-2" fill="#000000" fill-rule="nonzero" x="18" y="26" width="2" height="2"></rect>
        <rect id="Rectangle-181" fill="#000000" fill-rule="nonzero" x="29" y="34" width="10" height="1"></rect>
        <rect id="Rectangle-181-Copy-2" fill="#000000" fill-rule="nonzero" x="29" y="41" width="10" height="1"></rect>
        <rect id="Rectangle-181-Copy-3" fill="#000000" fill-rule="nonzero" x="29" y="48" width="10" height="1"></rect>
        <rect id="Rectangle-181-Copy-6" fill="#000000" fill-rule="nonzero" x="45" y="34" width="10" height="1"></rect>
        <rect id="Rectangle-181-Copy-5" fill="#000000" fill-rule="nonzero" x="45" y="41" width="10" height="1"></rect>
        <rect id="Rectangle-181-Copy-4" fill="#000000" fill-rule="nonzero" x="45" y="48" width="10" height="1"></rect>
    </g>
</svg>