<?xml version="1.0" encoding="UTF-8"?>
<svg width="64px" height="64px" viewBox="0 0 64 64" version="1.1" xmlns="http://www.w3.org/2000/svg" xmlns:xlink="http://www.w3.org/1999/xlink">
    <title>grid</title>
    <g id="grid" stroke="none" stroke-width="1" fill="none" fill-rule="evenodd">
        <path d="M57,4 C58.6568542,4 60,5.34314575 60,7 L60,57.6666667 C60,58.9553311 58.9553311,60 57.6666667,60 L6.33333333,60 C5.04466892,60 4,58.9553311 4,57.6666667 L4,6.33333333 C4,5.04466892 5.04466892,4 6.33333333,4 L57,4 Z M17,47 L8,47 L8,56 L17,56 L17,47 Z M30,47 L21,47 L21,56 L30,56 L30,47 Z M43,47 L34,47 L34,56 L43,56 L43,47 Z M56,47 L47,47 L47,56 L56,56 L56,47 Z M17,34 L8,34 L8,43 L17,43 L17,34 Z M30,34 L21,34 L21,43 L30,43 L30,34 Z M43,34 L34,34 L34,43 L43,43 L43,34 Z M56,34 L47,34 L47,43 L56,43 L56,34 Z M17,21 L8,21 L8,30 L17,30 L17,21 Z M30,21 L21,21 L21,30 L30,30 L30,21 Z M43,21 L34,21 L34,30 L43,30 L43,21 Z M56,21 L47,21 L47,30 L56,30 L56,21 Z M17,8 L8,8 L8,17 L17,17 L17,8 Z M30,8 L21,8 L21,17 L30,17 L30,8 Z M43,8 L34,8 L34,17 L43,17 L43,8 Z M56,8 L47,8 L47,17 L56,17 L56,8 Z" id="Rectangle" fill="#000000" fill-rule="nonzero"></path>
    </g>
</svg>