<?xml version="1.0" encoding="UTF-8"?>
<svg width="64px" height="64px" viewBox="0 0 64 64" version="1.1" xmlns="http://www.w3.org/2000/svg" xmlns:xlink="http://www.w3.org/1999/xlink">
    <title>grouping_separate</title>
    <g id="grouping_separate" stroke="none" stroke-width="1" fill="none" fill-rule="evenodd">
        <path d="M14,56 C8.4771525,56 4,51.5228475 4,46 C4,40.4771525 8.4771525,36 14,36 C18.738616,36 22.7074248,39.2959364 23.7390017,43.7203844 L48,43.72 L48,39.7895644 C48,39.6507696 48.0288857,39.5140165 48.0842459,39.3878239 L48.1483417,39.265467 C48.4171176,38.8287061 48.9674129,38.6710572 49.4212501,38.882515 L49.5240974,38.9379061 L59.6160552,45.1483417 C59.7493757,45.230385 59.8615728,45.3425821 59.9436161,45.4759026 C60.2123921,45.9126635 60.1051387,46.4749577 59.7118506,46.7848078 L59.6160552,46.8516583 L49.5240974,53.0620939 C49.3664897,53.1590832 49.1850598,53.2104356 49,53.2104356 C48.4871642,53.2104356 48.0644928,52.8243954 48.0067277,52.3270567 L48,52.2104356 L48,47.72 L23.852445,47.7211212 C23.0366582,52.4238234 18.9359595,56 14,56 Z M14,40 C10.6862915,40 8,42.6862915 8,46 C8,49.3137085 10.6862915,52 14,52 C17.3137085,52 20,49.3137085 20,46 C20,42.6862915 17.3137085,40 14,40 Z" id="Shape" fill="#000000"></path>
        <path d="M14,28 C8.4771525,28 4,23.5228475 4,18 C4,12.4771525 8.4771525,8 14,8 C18.738616,8 22.7074248,11.2959364 23.7390017,15.7203844 L48,15.72 L48,11.7895644 C48,11.6507696 48.0288857,11.5140165 48.0842459,11.3878239 L48.1483417,11.265467 C48.4171176,10.8287061 48.9674129,10.6710572 49.4212501,10.882515 L49.5240974,10.9379061 L59.6160552,17.1483417 C59.7493757,17.230385 59.8615728,17.3425821 59.9436161,17.4759026 C60.2123921,17.9126635 60.1051387,18.4749577 59.7118506,18.7848078 L59.6160552,18.8516583 L49.5240974,25.0620939 C49.3664897,25.1590832 49.1850598,25.2104356 49,25.2104356 C48.4871642,25.2104356 48.0644928,24.8243954 48.0067277,24.3270567 L48,24.2104356 L48,19.72 L23.852445,19.7211212 C23.0366582,24.4238234 18.9359595,28 14,28 Z M14,12 C10.6862915,12 8,14.6862915 8,18 C8,21.3137085 10.6862915,24 14,24 C17.3137085,24 20,21.3137085 20,18 C20,14.6862915 17.3137085,12 14,12 Z" id="Shape-Copy" fill="#000000"></path>
    </g>
</svg>