<?xml version="1.0" encoding="UTF-8"?>
<svg width="64px" height="64px" viewBox="0 0 64 64" version="1.1" xmlns="http://www.w3.org/2000/svg" xmlns:xlink="http://www.w3.org/1999/xlink">
    <title>grouping_combine</title>
    <g id="grouping_combine" stroke="none" stroke-width="1" fill="none" fill-rule="evenodd">
        <path d="M14,4 C19.5228475,4 24,8.4771525 24,14 C24,16.0294466 23.3954516,17.9176934 22.3566187,19.4944766 C29.0209166,25.7199852 37.5433681,29.180257 47.9994528,29.8708618 L48,25.7895644 C48,25.6045046 48.0513523,25.4230747 48.1483417,25.265467 C48.4171176,24.8287061 48.9674129,24.6710572 49.4212501,24.882515 L49.5240974,24.9379061 L59.6160552,31.1483417 C59.7493757,31.230385 59.8615728,31.3425821 59.9436161,31.4759026 C60.2123921,31.9126635 60.1051387,32.4749577 59.7118506,32.7848078 L59.6160552,32.8516583 L49.5240974,39.0620939 C49.3664897,39.1590832 49.1850598,39.2104356 49,39.2104356 C48.4871642,39.2104356 48.0644928,38.8243954 48.0067277,38.3270567 L48,38.2104356 L47.9992067,34.1403117 C37.7261553,34.8775899 29.3227961,38.5207059 22.7052511,45.0762074 C23.529645,46.5296764 24,48.2099096 24,50 C24,55.5228475 19.5228475,60 14,60 C8.4771525,60 4,55.5228475 4,50 C4,44.4771525 8.4771525,40 14,40 C16.2845677,40 18.3902039,40.7660972 20.0740229,42.055406 C24.7067708,37.517696 30.1308686,34.260333 36.32364,32.2843947 L36.993,32.076 L36.5629616,31.9545747 C30.0295063,30.0617136 24.3454605,26.8547 19.5323567,22.3318882 C17.9479091,23.3857361 16.045689,24 14,24 C8.4771525,24 4,19.5228475 4,14 C4,8.4771525 8.4771525,4 14,4 Z M14,44 C10.6862915,44 8,46.6862915 8,50 C8,53.3137085 10.6862915,56 14,56 C17.3137085,56 20,53.3137085 20,50 C20,46.6862915 17.3137085,44 14,44 Z M14,8 C10.6862915,8 8,10.6862915 8,14 C8,17.3137085 10.6862915,20 14,20 C17.3137085,20 20,17.3137085 20,14 C20,10.6862915 17.3137085,8 14,8 Z" id="Shape" fill="#000000"></path>
    </g>
</svg>