<?xml version="1.0" encoding="UTF-8"?>
<svg width="32px" height="32px" viewBox="0 0 32 32" version="1.1" xmlns="http://www.w3.org/2000/svg" xmlns:xlink="http://www.w3.org/1999/xlink">
    <title>guide</title>
    <g id="guide" stroke="none" stroke-width="1" fill="none" fill-rule="evenodd">
        <path d="M23,5 L7,5 C6.75777685,5 6.52378689,5.08791825 6.34149539,5.24742331 L2.34149539,8.74742331 C1.8861682,9.1458346 1.8861682,9.8541654 2.34149539,10.2525767 L6.34149539,13.7525767 C6.52378689,13.9120818 6.75777685,14 7,14 L23,14 C23.5522847,14 24,13.5522847 24,13 L24,6 C24,5.44771525 23.5522847,5 23,5 Z M22,7 L22,12 L7.376,12 L4.518,9.5 L7.375,7 L22,7 Z" id="Path-110" fill="#000000" fill-rule="nonzero"></path>
        <path d="M29,17 L13,17 C12.7577769,17 12.5237869,17.0879182 12.3414954,17.2474233 L8.34149539,20.7474233 C7.8861682,21.1458346 7.8861682,21.8541654 8.34149539,22.2525767 L12.3414954,25.7525767 C12.5237869,25.9120818 12.7577769,26 13,26 L29,26 C29.5522847,26 30,25.5522847 30,25 L30,18 C30,17.4477153 29.5522847,17 29,17 Z M28,19 L28,24 L13.376,24 L10.518,21.5 L13.375,19 L28,19 Z" id="Path-110-Copy" fill="#000000" fill-rule="nonzero" transform="translate(19.000000, 21.500000) scale(-1, 1) translate(-19.000000, -21.500000) "></path>
        <path d="M17,26 L19,26 L19,29 C19,29.5522847 18.5522847,30 18,30 C17.4477153,30 17,29.5522847 17,29 L17,26 L17,26 Z" id="Rectangle" fill="#000000"></path>
        <path d="M13,26 L15,26 L15,29 C15,29.5522847 14.5522847,30 14,30 C13.4477153,30 13,29.5522847 13,29 L13,26 L13,26 Z" id="Rectangle-Copy-3" fill="#000000"></path>
        <rect id="Rectangle-Copy" fill="#000000" x="17" y="14" width="2" height="3"></rect>
        <rect id="Rectangle-Copy-2" fill="#000000" x="13" y="14" width="2" height="3"></rect>
        <path d="M18,2 C18.5128358,2 18.9355072,2.38604019 18.9932723,2.88337887 L19,3 L19,5 L17,5 L17,4 L15,4 L15,5 L13,5 L13,3 C13,2.48716416 13.3860402,2.06449284 13.8833789,2.00672773 L14,2 L18,2 Z" id="Path-111" fill="#000000" fill-rule="nonzero"></path>
    </g>
</svg>