<?xml version="1.0" encoding="UTF-8"?>
<svg width="64px" height="64px" viewBox="0 0 64 64" version="1.1" xmlns="http://www.w3.org/2000/svg" xmlns:xlink="http://www.w3.org/1999/xlink">
    <title>has_many</title>
    <g id="has_many" stroke="none" stroke-width="1" fill="none" fill-rule="evenodd">
        <path d="M9.12132034,7.87867966 L30.243,29 L57,29 C58.6568542,29 60,30.3431458 60,32 C60,33.6568542 58.6568542,35 57,35 L30.242,35 L9.12132034,56.1213203 C7.94974747,57.2928932 6.05025253,57.2928932 4.87867966,56.1213203 C3.70710678,54.9497475 3.70710678,53.0502525 4.87867966,51.8786797 L21.756,35 L7,35 C5.34314575,35 4,33.6568542 4,32 C4,30.3431458 5.34314575,29 7,29 L21.756,29 L4.87867966,12.1213203 C3.7539697,10.9966104 3.7089813,9.20104745 4.74371446,8.02266925 L4.87867966,7.87867966 C6.05025253,6.70710678 7.94974747,6.70710678 9.12132034,7.87867966 Z" id="Combined-Shape" fill="#000000" transform="translate(32.000000, 32.000000) scale(-1, 1) translate(-32.000000, -32.000000) "></path>
    </g>
</svg>