<?xml version="1.0" encoding="UTF-8"?>
<svg width="64px" height="64px" viewBox="0 0 64 64" version="1.1" xmlns="http://www.w3.org/2000/svg" xmlns:xlink="http://www.w3.org/1999/xlink">
    <title>heat_treatment</title>
    <g id="heat_treatment" stroke="none" stroke-width="1" fill="none" fill-rule="evenodd">
        <path d="M40,28 L40,50 L31.7478729,50.0003581 C31.9124613,49.3610104 32,48.6907281 32,48 C32,43.581722 28.418278,40 24,40 C19.581722,40 16,43.581722 16,48 C16,48.6907281 16.0875387,49.3610104 16.2521271,50.0003581 L8,50 L8,28 L40,28 Z" id="Rectangle-6" fill="#000000" fill-rule="nonzero"></path>
        <circle id="Oval-5" fill="#000000" fill-rule="nonzero" cx="24" cy="48" r="7"></circle>
        <path d="M40,39 C40.4057184,39 41.0052145,38.9571789 41.743197,38.8341818 C42.9569167,38.6318951 44.175659,38.2662724 45.3416408,37.6832816 C48.8243768,35.9419136 51,32.6784788 51,28 L51,24 C51,24 51,24 51,23.5 L51,20 C51,17.6784788 51.8243768,16.4419136 53.3416408,15.6832816 C53.925659,15.3912724 54.5819167,15.1943951 55.243197,15.0841818 C55.4752106,15.0455128 55.6870841,15.0210659 55.8699911,15.0080011 C55.9604486,15.0015398 56.0066441,15 56,15 L56,9 C55.5942816,9 54.9947855,9.04282115 54.256803,9.16581823 C53.0430833,9.36810485 51.824341,9.73372755 50.6583592,10.3167184 C47.1756232,12.0580864 45,15.3215212 45,20 L45,23.5 L45,24 C45,24 45,24 45,28 C45,30.3215212 44.1756232,31.5580864 42.6583592,32.3167184 C42.074341,32.6087276 41.4180833,32.8056049 40.756803,32.9158182 C40.5247894,32.9544872 40.3129159,32.9789341 40.1300089,32.9919989 C40.0395514,32.9984602 39.9933559,33 40,33 L40,39 L40,39 Z" id="Shape" fill="#000000" fill-rule="nonzero"></path>
    </g>
</svg>