<?xml version="1.0" encoding="UTF-8"?>
<svg width="64px" height="64px" viewBox="0 0 64 64" version="1.1" xmlns="http://www.w3.org/2000/svg" xmlns:xlink="http://www.w3.org/1999/xlink">
    <title>help</title>
    <g id="help" stroke="none" stroke-width="1" fill="none" fill-rule="evenodd">
        <path d="M32,4 C47.463973,4 60,16.536027 60,32 C60,47.463973 47.463973,60 32,60 C16.536027,60 4,47.463973 4,32 C4,16.536027 16.536027,4 32,4 Z M32,8 C18.745166,8 8,18.745166 8,32 C8,45.254834 18.745166,56 32,56 C45.254834,56 56,45.254834 56,32 C56,18.745166 45.254834,8 32,8 Z" id="Oval" fill="#000000" fill-rule="nonzero"></path>
        <path d="M30.695,39.198 C31.3536667,39.198 31.8983333,38.9763333 32.329,38.533 C32.7596667,38.0896667 32.975,37.5386667 32.975,36.88 L32.975,36.88 L32.975,35.474 C32.975,35.4233333 32.994,35.3853333 33.032,35.36 C33.07,35.3346667 33.1143333,35.3093333 33.165,35.284 C34.2543333,35.1066667 35.2613333,34.809 36.186,34.391 C37.1106667,33.973 37.9213333,33.4156667 38.618,32.719 C39.3146667,32.0223333 39.853,31.1863333 40.233,30.211 C40.613,29.2356667 40.803,28.1146667 40.803,26.848 C40.803,25.1506667 40.385,23.6306667 39.549,22.288 C38.713,20.9453333 37.592,19.875 36.186,19.077 C34.78,18.279 33.203,17.88 31.455,17.88 C30.0616667,17.88 28.7506667,18.1396667 27.522,18.659 C26.2933333,19.1783333 25.223,19.9066667 24.311,20.844 C23.779,21.376 23.5383333,21.9586667 23.589,22.592 C23.6396667,23.2253333 23.969,23.77 24.577,24.226 C25.1596667,24.6566667 25.736,24.7896667 26.306,24.625 C26.876,24.4603333 27.3636667,24.2006667 27.769,23.846 C28.2756667,23.4153333 28.8393333,23.0733333 29.46,22.82 C30.0806667,22.5666667 30.7456667,22.44 31.455,22.44 C32.367,22.44 33.184,22.63 33.906,23.01 C34.628,23.39 35.198,23.9093333 35.616,24.568 C36.034,25.2266667 36.243,25.9866667 36.243,26.848 C36.243,28.0133333 35.996,28.9506667 35.502,29.66 C35.008,30.3693333 34.343,30.8823333 33.507,31.199 C32.671,31.5156667 31.7336667,31.674 30.695,31.674 C30.0363333,31.674 29.4916667,31.8956667 29.061,32.339 C28.6303333,32.7823333 28.415,33.3333333 28.415,33.992 L28.415,33.992 L28.415,36.88 C28.415,37.5386667 28.6303333,38.0896667 29.061,38.533 C29.4916667,38.9763333 30.0363333,39.198 30.695,39.198 Z M30.999,46 C31.7336667,46 32.2973333,45.8036667 32.69,45.411 C33.0826667,45.0183333 33.279,44.4546667 33.279,43.72 L33.279,43.72 L33.279,43.074 C33.279,42.3393333 33.0826667,41.7756667 32.69,41.383 C32.2973333,40.9903333 31.7336667,40.794 30.999,40.794 L30.999,40.794 L30.505,40.794 C29.7703333,40.794 29.2066667,40.9903333 28.814,41.383 C28.4213333,41.7756667 28.225,42.3393333 28.225,43.074 L28.225,43.074 L28.225,43.72 C28.225,44.4546667 28.4213333,45.0183333 28.814,45.411 C29.2066667,45.8036667 29.7703333,46 30.505,46 L30.505,46 L30.999,46 Z" id="?" fill="#000000" fill-rule="nonzero"></path>
    </g>
</svg>