<?xml version="1.0" encoding="UTF-8"?>
<svg width="32px" height="32px" viewBox="0 0 32 32" version="1.1" xmlns="http://www.w3.org/2000/svg" xmlns:xlink="http://www.w3.org/1999/xlink">
    <title>home</title>
    <g id="home" stroke="none" stroke-width="1" fill="none" fill-rule="evenodd">
        <path d="M2.3217199,14.2651966 L2.24382091,14.344864 C1.69004793,14.9738157 2.12761864,16 3,16 L7,16 L7,29 C7,29.5522847 7.44771525,30 8,30 L13,30 L13.1166211,29.9932723 C13.6139598,29.9355072 14,29.5128358 14,29 L14,22 L18,22 L18,29 C18,29.5522847 18.4477153,30 19,30 L24,30 L24.1166211,29.9932723 C24.6139598,29.9355072 25,29.5128358 25,29 L25,16 L29,16 C29.910311,16 30.3471798,14.8826424 29.6782801,14.2651966 L16.6782801,2.26519656 C16.2952184,1.91160115 15.7047816,1.91160115 15.3217199,2.26519656 L2.3217199,14.2651966 Z M16,4.36 L26.443,14 L24,14 L23.8833789,14.0067277 C23.3860402,14.0644928 23,14.4871642 23,15 L23,28 L20,28 L20,21 C20,20.4477153 19.5522847,20 19,20 L13,20 L12.8833789,20.0067277 C12.3860402,20.0644928 12,20.4871642 12,21 L12,28 L9,28 L9,15 L8.99327227,14.8833789 C8.93550716,14.3860402 8.51283584,14 8,14 L5.556,14 L16,4.36 Z" id="Path-95" fill="#000000" fill-rule="nonzero"></path>
    </g>
</svg>