<?xml version="1.0" encoding="UTF-8"?>
<svg width="64px" height="64px" viewBox="0 0 64 64" version="1.1" xmlns="http://www.w3.org/2000/svg" xmlns:xlink="http://www.w3.org/1999/xlink">
    <title>honeybee_removal</title>
    <g id="honeybee_removal" stroke="none" stroke-width="1" fill="none" fill-rule="evenodd">
        <path d="M25.9884581,54.3931818 C28.0374072,54.7973567 30.040916,55 31.9982453,55 C33.8605631,55 35.7653373,54.8165525 37.7119409,54.4506202 C36.1866641,56.921625 34.4971127,59.1393186 32,59.1393186 C29.6760397,59.1393186 27.7842463,57.1074042 26.1430935,54.6316693 L25.9884581,54.3931818 Z M40.2800164,7.91499195 C40.408396,8.15947774 40.3142733,8.46174483 40.0697875,8.59012438 C39.0711773,9.11449488 38.1834732,9.79207995 37.4048898,10.6244146 C37.0063664,11.0504509 36.5939689,11.6590551 36.1694631,12.4488466 L35.9133209,12.9444528 C35.6626262,13.4479762 35.4079226,14.0131983 35.1495618,14.6398443 C35.7999168,14.3959882 36.3667262,14.3959882 36.8441013,14.6423648 C37.3613807,15.111703 37.8786601,15.9444989 38.3959395,17.1407526 C38.9132188,18.3370063 38.3959395,19.4199756 36.8441013,20.3896608 C39.2297317,22.3997608 39.8968964,24.5364036 38.8455955,26.7995892 C45.9669938,32.6345137 50.0105488,37.1907233 50.9762603,40.4682178 C52.3926373,45.2752099 55.399387,54.5069783 53.8666549,56.3529959 C52.3926373,57.9702987 43.3376503,52.9088334 39.8097136,48.9822506 C39.6703799,49.3671629 39.5274084,49.7402267 39.380799,50.1014421 C35.8053004,50.6769436 33.3449881,50.9648725 31.9982453,50.9648725 C29.8355522,50.9648725 26.9558053,50.6882404 24.546982,50.1330633 L24.267,50.0643423 L24.1217438,49.7125925 C24.024682,49.4740746 23.9292005,49.2306274 23.8352994,48.9822506 C20.1470019,52.9088334 11.6839815,58.228706 10.3178057,56.3529959 C8.9848146,54.6979456 11.2061756,44.273186 11.9647364,41.2098151 L12.0454855,40.8899359 C12.0946098,40.6996861 12.1339366,40.5566659 12.1611824,40.4682178 C12.9820137,37.8035486 15.9297805,34.2936465 21.0044829,29.9385114 C21.3520939,29.6401899 21.7096847,29.3379024 22.0772553,29.0316491 C22.3762433,28.7825375 22.7674603,28.4630569 23.2509063,28.073207 C23.5513338,27.830943 24.082112,27.4064037 24.8432411,26.7995892 C23.7441537,24.5364036 24.4416441,22.3997608 26.9357123,20.3896608 C25.313336,19.4199756 24.7725439,18.3370063 25.313336,17.1407526 C25.8541281,15.9444989 26.3949202,15.111703 26.9357123,14.6423648 C27.4347862,14.3959882 28.0273597,14.3959882 28.7134328,14.6423648 C28.8403176,14.6085731 28.9635643,14.5761146 29.0831729,14.5449893 C28.8366414,13.9558571 28.595087,13.4223641 28.3571441,12.9444528 L28.1010018,12.4488466 C27.6764961,11.6590551 27.2640986,11.0504509 26.8655752,10.6244146 C26.0869918,9.79207995 25.1992877,9.11449488 24.2006775,8.59012438 C23.9561917,8.46174483 23.862069,8.15947774 23.9904485,7.91499195 C24.1188281,7.67050616 24.4210952,7.57638347 24.665581,7.70476302 C25.7636024,8.28133441 26.7409604,9.02735236 27.5958695,9.94128188 C28.397942,10.7987272 29.2107353,12.2342162 30.0445487,14.2558018 L30.063805,14.3002952 C31.2077437,14.0298321 31.853142,13.942065 32,14.0369937 L32.0310405,14.0216573 C32.2363406,13.9465991 32.9508782,14.0666393 34.174653,14.3817781 L34.2259163,14.2558018 C35.0597297,12.2342162 35.872523,10.7987272 36.6745955,9.94128188 C37.5295045,9.02735236 38.5068625,8.28133441 39.604884,7.70476302 C39.8493698,7.57638347 40.1516369,7.67050616 40.2800164,7.91499195 Z M25.7471845,43.4756193 L25.7043519,43.6025474 C25.3526006,44.6209319 24.9186875,45.6908097 24.3920927,46.7965354 L24.6847441,46.8878432 C27.1894377,47.6284582 29.6277091,48 31.9982453,48 C34.2725555,48 36.6101848,47.6580098 39.0099912,46.9762213 C38.421408,45.7598559 37.9458009,44.5872518 37.5681299,43.4771235 C34.9609943,43.9633905 33.1041611,44.2060907 31.9982453,44.2060907 C30.1851928,44.2060907 27.8681959,43.9630698 25.7471845,43.4756193 Z M36.3544565,36.6939503 C34.3759529,37.0360232 32.9240037,37.2060907 31.9982453,37.2060907 C30.5267179,37.2060907 28.7232206,37.0460024 26.9619748,36.7250726 C26.9923502,37.7214632 26.8845019,38.9627009 26.5946381,40.3827775 C28.4334197,40.7943412 30.2345792,41 31.9982453,41 C33.5523854,41 35.1360931,40.8403038 36.749004,40.5216108 C36.4349274,39.027486 36.3199031,37.7279088 36.3544565,36.6939503 Z" id="Combined-Shape" fill="#000000" fill-rule="nonzero"></path>
        <path d="M25.0240066,41.5831101 C25.4936108,41.7891986 25.725517,42.3125509 25.5785516,42.7911779 L25.5378468,42.9006716 L22.6531945,49.4737922 L23.2496796,50.6810478 C23.5419464,51.2725855 23.5236601,51.9702089 23.2008039,52.5456225 L22.5005456,53.7815097 L22.1863447,54.3262439 L21.7596407,55.052278 L21.3861203,55.6695062 L21.0654081,56.178462 L20.8807525,56.4578779 C20.551412,56.9442099 20.3460171,57.1970868 20.0756463,57.3581 C19.4704813,57.7184925 18.6559845,57.4328181 18.5016511,56.6679084 C18.4562692,56.4429856 18.476223,56.2530989 18.5321566,56.0031667 C18.6087376,55.6609743 18.8522405,55.3993354 19.1577754,55.2847775 L19.2833053,55.2462041 L19.490707,54.9289544 L19.8119424,54.4103683 L20.1880716,53.7812143 L20.7743194,52.7712701 L21.4565997,51.5669747 L20.8601168,50.3597225 C20.6244891,49.8828241 20.5895622,49.3341073 20.7580811,48.8345889 L20.8217928,48.6700709 L23.7064451,42.0969503 C23.9283866,41.5912227 24.518279,41.3611686 25.0240066,41.5831101 Z M38.6809478,41.5831101 C39.1866754,41.3611686 39.7765678,41.5912227 39.9985094,42.0969503 L39.9985094,42.0969503 L42.8831616,48.6700709 L42.9468733,48.8345889 C43.1153922,49.3341073 43.0804654,49.8828241 42.8448376,50.3597225 L42.8448376,50.3597225 L42.2483548,51.5669747 L42.9306351,52.7712701 L43.5168828,53.7812143 L43.8930121,54.4103683 L44.2142474,54.9289544 L44.4216491,55.2462041 L44.5471791,55.2847775 C44.852714,55.3993354 45.0962169,55.6609743 45.1727979,56.0031667 C45.2287314,56.2530989 45.2486852,56.4429856 45.2033033,56.6679084 C45.04897,57.4328181 44.2344732,57.7184925 43.6293081,57.3581 C43.3589373,57.1970868 43.1535424,56.9442099 42.824202,56.4578779 L42.824202,56.4578779 L42.6395464,56.178462 L42.3188341,55.6695062 L41.9453137,55.052278 L41.5186098,54.3262439 L41.2044088,53.7815097 L40.5041506,52.5456225 C40.1812943,51.9702089 40.163008,51.2725855 40.4552749,50.6810478 L40.4552749,50.6810478 L41.05176,49.4737922 L38.1671076,42.9006716 L38.1264028,42.7911779 C37.9794375,42.3125509 38.2113436,41.7891986 38.6809478,41.5831101 Z M17.1810465,16.475929 C17.3594639,16.5261823 17.4751422,16.5954313 17.6354034,16.7118927 C17.8416072,16.8617404 17.9737257,17.0756446 18.0243,17.3064811 L18.031,17.351 L18.1458029,17.4913833 L18.5973218,18.021346 L19.0368656,18.5230357 L19.9601788,19.5558301 L22.6587358,19.9494112 C23.1344706,20.0188007 23.5671951,20.2568316 23.8799022,20.6168126 L23.9913912,20.7574307 L26.8106581,24.6607343 C27.1340318,25.1084484 27.0332339,25.7335386 26.5855198,26.0569122 C26.1722452,26.355411 25.6078337,26.2924855 25.2691044,25.9288991 L25.1893419,25.8317739 L22.370075,21.9284703 L19.6716726,21.5348877 C19.2105283,21.4676889 18.7873412,21.2415406 18.4751833,20.8955273 L17.5267655,19.8345009 L16.9395639,19.1616133 L16.5035713,18.6434946 L16.4180628,18.5379727 C16.1613776,18.218045 16.0337984,18.0379966 15.9558072,17.8352222 C15.8511317,17.563069 15.819074,17.3050266 16.0088505,16.9601925 C16.2981599,16.4345017 16.7732024,16.3610549 17.1810465,16.475929 Z M46.7749973,16.5509273 C47.1847842,16.4431885 47.6584724,16.5249148 47.9385633,17.0555747 C48.1222926,17.4036683 48.0857363,17.6611119 47.976327,17.9313968 C47.8948089,18.1327792 47.7641068,18.3105736 47.5018772,18.6259728 L47.4145401,18.7299863 L46.9695715,19.240417 L46.3707158,19.902954 L45.403925,20.9472666 C45.0857758,21.2877793 44.6587064,21.5065076 44.1964595,21.565648 L41.4915992,21.9120771 L38.6046396,25.7655832 L38.5231942,25.8613016 C38.178171,26.2189209 37.6127473,26.2719865 37.2047451,25.9663206 C36.7627429,25.6351825 36.6728697,25.0084284 37.0040078,24.5664261 L39.8909674,20.71292 L40.0048935,20.574269 C40.3238355,20.2198004 40.7606483,19.9893578 41.2375216,19.9282816 L43.9425367,19.5818567 L44.883734,18.5653337 L45.3319664,18.0713915 L45.7926657,17.5493896 L45.9099011,17.4110313 L45.9173771,17.3666361 C45.9719723,17.1367174 46.1078039,16.9251515 46.3165915,16.7789254 C46.4788608,16.6652787 46.59573,16.5980591 46.7749973,16.5509273 Z" id="Combined-Shape" fill="#000000" fill-rule="nonzero"></path>
        <path d="" id="Path-3" stroke="#831A1A" stroke-width="3" fill="#000000"></path>
        <path d="" id="Path-4" stroke="#979797"></path>
    </g>
</svg>