<?xml version="1.0" encoding="UTF-8"?>
<svg width="64px" height="64px" viewBox="0 0 64 64" version="1.1" xmlns="http://www.w3.org/2000/svg" xmlns:xlink="http://www.w3.org/1999/xlink">
    <title>icon</title>
    <g id="icon" stroke="none" stroke-width="1" fill="none" fill-rule="evenodd">
        <circle id="Oval" fill="#000000" cx="38" cy="22" r="4"></circle>
        <path d="M32,4 C47.463973,4 60,16.536027 60,32 C60,47.463973 47.463973,60 32,60 C16.536027,60 4,47.463973 4,32 C4,16.536027 16.536027,4 32,4 Z M32,8 C18.745166,8 8,18.745166 8,32 C8,45.254834 18.745166,56 32,56 C45.254834,56 56,45.254834 56,32 C56,18.745166 45.254834,8 32,8 Z" id="Oval" fill="#000000" fill-rule="nonzero"></path>
        <path d="M24.3358994,24.4961509 L16.0729336,36.8905996 C15.4602287,37.809657 15.7085764,39.0513957 16.6276338,39.6641006 C16.9561688,39.8831239 17.3421842,40 17.7370342,40 L43.7299168,40 C44.8344863,40 45.7299168,39.1045695 45.7299168,38 C45.7299168,37.532127 45.5658843,37.0790612 45.2663593,36.7196312 L39.7147579,30.0577095 C39.0076297,29.2091557 37.7465003,29.0945076 36.8979465,29.8016357 C36.7501641,29.9247877 36.6209222,30.0686167 36.5142147,30.2286779 L35.6641006,31.5038491 C35.0513957,32.4229065 33.809657,32.6712542 32.8905996,32.0585493 C32.670895,31.9120796 32.4823691,31.7235537 32.3358994,31.5038491 L27.6641006,24.4961509 C27.0513957,23.5770935 25.809657,23.3287458 24.8905996,23.9414507 C24.670895,24.0879204 24.4823691,24.2764463 24.3358994,24.4961509 Z" id="Path-285" fill="#000000"></path>
    </g>
</svg>