<?xml version="1.0" encoding="UTF-8"?>
<svg width="64px" height="64px" viewBox="0 0 64 64" version="1.1" xmlns="http://www.w3.org/2000/svg" xmlns:xlink="http://www.w3.org/1999/xlink">
    <title>identifier</title>
    <g id="identifier" stroke="none" stroke-width="1" fill="none" fill-rule="evenodd">
        <path d="M26,4 C38.1502645,4 48,13.8497355 48,26 C48,28.0202879 47.7270861,30.0049794 47.1957074,31.913254 L47.091,32.271 L47.1515159,32.3341994 C47.9124226,33.1164008 49.1715383,34.386768 50.9147364,36.1307526 L51.6215335,36.8373224 C51.7028048,36.9185089 51.7849877,37.0005871 51.868081,37.0835559 L52.3775573,37.5920451 C54.2856282,39.4956184 56.6332307,41.8290479 59.4080016,44.5796017 C59.7868724,44.9551658 60,45.4665288 60,46 L60,58 C60,59.1045695 59.1045695,60 58,60 L46,60 C45.1391392,60 44.3748615,59.4491398 44.1026334,58.6324555 L42.418,53.581 L37.3675445,51.8973666 C36.826701,51.7170855 36.3911962,51.3156776 36.1659634,50.7977182 L36.1048067,50.6389384 C35.5621699,49.0293909 35.0858508,47.5884977 34.6757016,46.3156906 L34.649,46.233 C32.0929117,47.3277784 29.3388725,47.9307538 26.5015453,47.9943807 L26,48 C13.8497355,48 4,38.1502645 4,26 C4,13.8497355 13.8497355,4 26,4 Z M26,8 C16.0588745,8 8,16.0588745 8,26 C8,35.9411255 16.0588745,44 26,44 C29.1548901,44 32.1871458,43.1890455 34.8685472,41.6676245 C35.9811022,41.0363634 37.392112,41.5973719 37.7674836,42.8202234 C38.2221193,44.3012943 38.8156242,46.1370609 39.5475529,48.3258114 L39.578,48.417 L44.6324555,50.1026334 C45.1753737,50.2836061 45.6120283,50.6873566 45.8364974,51.2079628 L45.8973666,51.3675445 L47.441,56 L56,56 L56,46.834 L55.8363735,46.6712205 C53.2311881,44.0877366 51.0404447,41.9096217 49.2538794,40.1263055 L48.7544213,39.6275203 C48.5101824,39.3834899 48.2741721,39.1474962 48.0463605,38.9195082 L47.6016599,38.4741974 C45.071237,35.9387114 43.6540271,34.4901012 43.3025117,34.0794301 C42.8348563,33.533074 42.6965458,32.777701 42.9402729,32.1010891 C43.6385678,30.1625493 44,28.1074671 44,26 C44,16.0588745 35.9411255,8 26,8 Z" id="Oval" fill="#000000" fill-rule="nonzero"></path>
        <g id="id" transform="translate(15.264, 15.03)" fill="#000000" fill-rule="nonzero">
            <path d="M2.014,5.74 C2.57244332,5.74 3.03272392,5.93048424 3.39731985,6.30580358 C3.76003769,6.67918959 3.944,7.14252464 3.944,7.698 L3.944,19.262 C3.944,19.8174754 3.76003769,20.2808104 3.39731985,20.6541964 C3.03272392,21.0295158 2.57244332,21.22 2.014,21.22 C1.45555668,21.22 0.995276083,21.0295158 0.630680155,20.6541964 C0.267962313,20.2808104 0.084,19.8174754 0.084,19.262 L0.084,7.698 C0.084,7.14252464 0.267962313,6.67918959 0.630680155,6.30580358 C0.995276083,5.93048424 1.45555668,5.74 2.014,5.74 Z M2.014,0.588 C2.74684593,0.588 3.24970198,0.72097131 3.54045539,0.949420415 C3.84883341,1.19171743 4.028,1.6108 4.028,2.238 L4.028,2.77 C4.028,3.42465885 3.83321571,3.8485129 3.50136559,4.08080798 C3.1921073,4.29728878 2.69106004,4.42 1.986,4.42 C1.27272888,4.42 0.778910937,4.28751027 0.487544612,4.05857958 C0.179166592,3.81628257 0,3.3972 0,2.77 L0,2.238 C0,1.58229008 0.200308049,1.15770027 0.543787964,0.925020327 C0.863623565,0.708357501 1.35051191,0.588 2.014,0.588 Z" id="Shape"></path>
            <path d="M19.262,0 C19.8195556,0 20.2788511,0.185297664 20.6427767,0.549223305 C21.0056434,0.912090029 21.192,1.38022951 21.192,1.958 L21.192,19.262 C21.192,19.8174754 21.0080377,20.2808104 20.6453198,20.6541964 C20.2807239,21.0295158 19.8204433,21.22 19.262,21.22 C18.7035567,21.22 18.2432761,21.0295158 17.8786802,20.6541964 C17.6521424,20.4209958 17.4956895,20.152686 17.4098636,19.8490703 C17.2409244,19.9703674 17.074739,20.1089457 16.892,20.246 C16.4268636,20.5948523 15.8796838,20.8910521 15.2497448,21.1333364 C14.615497,21.3772779 13.9276793,21.5 13.186,21.5 C11.8485766,21.5 10.637458,21.1551574 9.55214729,20.4671479 C8.47012232,19.7812214 7.61425051,18.8351357 6.9861958,17.6273382 C6.36211454,16.4271819 6.048,15.0497656 6.048,13.494 C6.048,11.9193019 6.36223506,10.5325863 6.9861958,9.33266182 C7.61404107,8.12526707 8.46010152,7.17963529 9.52242479,6.4939539 C10.5898381,5.80498713 11.7735963,5.46 13.074,5.46 C13.9075882,5.46 14.6731153,5.58687971 15.3709111,5.83886153 C16.0683242,6.09070513 16.6732888,6.41104673 17.1866017,6.79845271 L17.332,1.958 C17.332,1.40252464 17.5159623,0.939189592 17.8786802,0.565803579 C18.2432761,0.190484241 18.7035567,0 19.262,0 Z M13.606,9.04 C12.8560294,9.04 12.1925323,9.23010776 11.616675,9.61401257 C11.0370087,10.0004568 10.5856463,10.5281326 10.2607773,11.1954311 C9.93113759,11.8725289 9.768,12.6389944 9.768,13.494 C9.768,14.330766 9.93132222,15.0878504 10.2607773,15.7645689 C10.5856463,16.4318674 11.0370087,16.9595432 11.616675,17.3459874 C12.1925323,17.7298922 12.8560294,17.92 13.606,17.92 C14.374,17.92 15.0469464,17.7302398 15.623325,17.3459874 C16.2029913,16.9595432 16.6543537,16.4318674 16.9792227,15.7645689 C17.3086778,15.0878504 17.472,14.330766 17.472,13.494 C17.472,12.6389944 17.3088624,11.8725289 16.9792227,11.1954311 C16.6543537,10.5281326 16.2029913,10.0004568 15.623325,9.61401257 C15.0469464,9.2297602 14.374,9.04 13.606,9.04 Z" id="Shape"></path>
        </g>
    </g>
</svg>