<svg xmlns="http://www.w3.org/2000/svg" width="32" height="32" viewBox="0 0 32 32">
  <g fill="none" fill-rule="evenodd">
    <path fill="#000" fill-rule="nonzero" d="M29.1071429,7 C29.6002542,7 30,7.41040565 30,7.91666667 L30,7.91666667 L30,28.0833333 C30,28.5895944 29.6002542,29 29.1071429,29 L29.1071429,29 L5.89285714,29 C5.39974576,29 5,28.5895944 5,28.0833333 L5,28.0833333 L5,7.91666667 C5,7.41040565 5.39974576,7 5.89285714,7 L5.89285714,7 Z M20.2358071,15.5674884 L12.9403215,22.8267099 L10.2045144,20.1049479 L6.999,23.293 L7,27 L28,27 L28,23.294 L20.2358071,15.5674884 Z M28,9 L7,9 L6.999,20.727 L10.2045144,17.5374595 L12.9403215,20.2592215 L20.2358071,13 L28,20.726 L28,9 Z M11,10 C12.1045695,10 13,10.8954305 13,12 C13,13.1045695 12.1045695,14 11,14 C9.8954305,14 9,13.1045695 9,12 C9,10.8954305 9.8954305,10 11,10 Z"/>
    <path fill="#000" fill-rule="nonzero" d="M26.1071429,3 C26.6002542,3 27,3.41040565 27,3.91666667 L27,3.91666667 L27,6 L25,6 L25,5 L4,5 L4,23 L4,23 L4,25 L2.89285714,25 C2.4376774,25 2.06205181,24.6503052 2.00695662,24.1983181 L2,24.0833333 L2,3.91666667 C2,3.41040565 2.39974576,3 2.89285714,3 L2.89285714,3 Z"/>
  </g>
</svg>
