<?xml version="1.0" encoding="UTF-8"?>
<svg width="32px" height="32px" viewBox="0 0 32 32" version="1.1" xmlns="http://www.w3.org/2000/svg" xmlns:xlink="http://www.w3.org/1999/xlink">
    <title>import-users</title>
    <g id="import-users" stroke="none" stroke-width="1" fill="none" fill-rule="evenodd">
        <path d="M20,4 C23.3137085,4 26,6.6862915 26,10 C26,11.911371 25.1062531,13.6139963 23.713873,14.7127622 C27.355814,16.2799036 29.4548896,20.4170809 29.9965458,26.9169545 C30.0451307,27.4999738 29.5850401,28 29,28 L29,28 L11,28 C10.4149599,28 9.9548693,27.4999738 10.0034542,26.9169545 C10.0633078,26.1987116 10.1421782,25.5093184 10.2400455,24.8490535 C10.6006815,24.998045 11.0027063,25.0417594 11.3933257,24.9640604 C11.756112,24.8918977 12.1116223,24.7168048 12.4142136,24.4142136 L12.3166695,24.5038456 C12.2389194,24.9588252 12.1709081,25.4326945 12.1126249,25.9256046 L12.1126249,25.9256046 L12.104,26 L27.895,26 L27.8411846,25.554488 C27.00805,19.185317 24.4847172,16.1167993 20.24642,16.0032736 L20.24642,16.0032736 L20,16 L20,16 L19.9927681,15.8295515 C19.9541978,15.3759099 19.7613463,14.9329191 19.4142136,14.5857864 L19.4142136,14.5857864 L18.5612018,13.7334273 C19.0076811,13.9056059 19.4928171,14 20,14 C22.209139,14 24,12.209139 24,10 C24,7.790861 22.209139,6 20,6 C17.790861,6 16,7.790861 16,10 C16,10.5071829 16.0943941,10.9923189 16.2665727,11.4387982 L14.0499561,9.22217484 C14.4313345,6.2759244 16.9498819,4 20,4 Z" id="Combined-Shape" fill="#000000" fill-rule="nonzero"></path>
        <path d="M10,9 L10,12 L3,12 C2.44771525,12 2,12.4477153 2,13 L2,19 L2.00672773,19.1166211 C2.06449284,19.6139598 2.48716416,20 3,20 L10,20 L10,23 C10,23.8909049 11.0771419,24.3370716 11.7071068,23.7071068 L18.7071068,16.7071068 C19.0976311,16.3165825 19.0976311,15.6834175 18.7071068,15.2928932 L11.7071068,8.29289322 C11.0771419,7.66292836 10,8.10909515 10,9 Z M12,11.415 L16.585,16 L12,20.584 L12,19 L11.9932723,18.8833789 C11.9355072,18.3860402 11.5128358,18 11,18 L4,18 L4,14 L11,14 C11.5522847,14 12,13.5522847 12,13 L12,11.415 Z" id="Path-65" fill="#000000" fill-rule="nonzero"></path>
    </g>
</svg>