<?xml version="1.0" encoding="UTF-8"?>
<svg width="32px" height="32px" viewBox="0 0 32 32" version="1.1" xmlns="http://www.w3.org/2000/svg" xmlns:xlink="http://www.w3.org/1999/xlink">
    <title>import-certs</title>
    <g id="import-certs" stroke="none" stroke-width="1" fill="none" fill-rule="evenodd">
        <path d="M21.5881905,2.34074174 L23.1772498,4.76479108 L26.0710678,4.92893219 L26.2352089,7.82275018 L28.6592583,9.41180955 L27.3544996,12 L28.6592583,14.5881905 L26.2352089,16.1772498 L26.0710678,19.0710678 L26.0107665,19.0737417 L29.8574929,25.4855042 C30.1372119,25.9517026 29.99125,26.5480624 29.5469425,26.8373064 L29.4472136,26.8944272 L23.4472136,29.8944272 C22.9737162,30.1311759 22.4056808,29.956429 22.1415625,29.5131383 L22.0861885,29.4061385 L19,22.461 L15.9138115,29.4061385 C15.6988074,29.8898977 15.1492359,30.1161095 14.6635519,29.9418219 L14.5527864,29.8944272 L8.5527864,26.8944272 C8.06650777,26.6512879 7.86947929,26.0697986 8.08903641,25.5872368 L8.14250707,25.4855042 L9.15902516,23.7896922 C9.20766344,23.903498 9.26624958,24.0106638 9.33307634,24.1106772 C9.55555134,24.4436345 9.87297085,24.6979536 10.2346331,24.8477591 C10.406647,24.9190095 10.5883017,24.9664653 10.7737713,24.9882375 L10.413,25.588 L14.511,27.637 L17.3867665,21.1677417 L16.4118095,21.6592583 L15.9197665,20.9077417 L18.4227665,18.4047417 L19,18.1147345 L20.894,19.069 L22.0573672,17.2955154 L24.175,17.175 L24.2955154,15.0573672 L26.069,13.894 L25.1147345,12 L26.069,10.105 L24.2955154,8.94263277 L24.175,6.824 L22.0573672,6.70448462 L20.894,4.93 L19,5.88526553 L17.105,4.93 L15.9426328,6.70448462 L13.824,6.824 L13.7077665,8.87974174 L12.4142136,7.58578644 L12.2814247,7.46383887 C12.1306773,7.33693985 11.9694225,7.23811895 11.8025791,7.16472855 L11.9289322,4.92893219 L14.8227502,4.76479108 L16.4118095,2.34074174 L19,3.64550037 L21.5881905,2.34074174 Z M23.7547665,19.2017417 L23.1772498,19.2352089 L21.5881905,21.6592583 L20.6127665,21.1667417 L23.488,27.637 L27.586,25.588 L23.7547665,19.2017417 Z M19,7 C21.7614237,7 24,9.23857625 24,12 C24,14.5016928 22.1627269,16.5742674 19.7638889,16.9420156 C19.9217134,16.6481907 20,16.3240954 20,16 C20,15.6244183 19.8948642,15.2488365 19.6845925,14.9211875 C21.0102599,14.6133821 22,13.4222741 22,12 C22,10.3431458 20.6568542,9 19,9 C17.5971582,9 16.419209,9.9628794 16.0909984,11.2637922 L14.5485877,9.72063945 C15.3773893,8.10530247 17.059616,7 19,7 Z" id="Star" fill="#000000" fill-rule="nonzero"></path>
        <path d="M10,9 L10,12 L3,12 C2.44771525,12 2,12.4477153 2,13 L2,19 L2.00672773,19.1166211 C2.06449284,19.6139598 2.48716416,20 3,20 L10,20 L10,23 C10,23.8909049 11.0771419,24.3370716 11.7071068,23.7071068 L18.7071068,16.7071068 C19.0976311,16.3165825 19.0976311,15.6834175 18.7071068,15.2928932 L11.7071068,8.29289322 C11.0771419,7.66292836 10,8.10909515 10,9 Z M12,11.415 L16.585,16 L12,20.584 L12,19 L11.9932723,18.8833789 C11.9355072,18.3860402 11.5128358,18 11,18 L4,18 L4,14 L11,14 C11.5522847,14 12,13.5522847 12,13 L12,11.415 Z" id="Path-65" fill="#000000" fill-rule="nonzero"></path>
    </g>
</svg>