<?xml version="1.0" encoding="UTF-8"?>
<svg width="64px" height="64px" viewBox="0 0 64 64" version="1.1" xmlns="http://www.w3.org/2000/svg" xmlns:xlink="http://www.w3.org/1999/xlink">
    <title>import</title>
    <g id="import" stroke="none" stroke-width="1" fill="none" fill-rule="evenodd">
        <path d="M54,20 C57.3137085,20 60,22.6862915 60,26 L60,54 C60,57.3137085 57.3137085,60 54,60 L10,60 C6.6862915,60 4,57.3137085 4,54 L4,26 C4,22.6862915 6.6862915,20 10,20 L28,20 L28,24 L10,24 C8.8954305,24 8,24.8954305 8,26 L8,54 C8,55.1045695 8.8954305,56 10,56 L54,56 C55.1045695,56 56,55.1045695 56,54 L56,26 C56,24.8954305 55.1045695,24 54,24 L36,24 L36,20 L54,20 Z" id="Rectangle" fill="#000000" fill-rule="nonzero"></path>
        <path d="M32,4 C33.6568542,4 35,5.34314575 35,7 L35,40.731 L43.8817791,31.8755848 C45.0550612,30.7057237 46.9545541,30.7084969 48.1244152,31.8817791 C49.2942763,33.0550612 49.2915031,34.9545541 48.1182209,36.1244152 L34.0772809,50.1244152 C32.9047588,51.2935185 31.0067634,51.2916169 29.8365864,50.1201664 L15.8775264,36.1459162 C14.7065908,34.9737064 14.7076237,33.0742117 15.8798336,31.9032761 C17.0520434,30.7323405 18.951538,30.7333735 20.1224736,31.9055833 L29,40.793 L29,7 C29,5.34314575 30.3431458,4 32,4 Z" id="Combined-Shape" fill="#000000"></path>
    </g>
</svg>