<?xml version="1.0" encoding="UTF-8"?>
<svg width="64px" height="64px" viewBox="0 0 64 64" version="1.1" xmlns="http://www.w3.org/2000/svg" xmlns:xlink="http://www.w3.org/1999/xlink">
    <title>import_data</title>
    <g id="import_data" stroke="none" stroke-width="1" fill="none" fill-rule="evenodd">
        <path d="M24,35.999 L24.0000043,37.8053369 C25.8787503,38.7548231 27.9850632,39.4947067 30.3203424,40.0222459 L29.1715544,41.1715913 C28.4991782,41.8439675 28.1162141,42.6961835 28.0226738,43.573418 C26.6105462,43.1947314 25.2693598,42.7391148 23.9993291,42.2068803 L24,50.883 C27.5265265,52.8797381 32.6595898,53.9385274 39.4009962,53.9974018 L40,54 C47.0038886,54 52.2831979,52.6794395 55.8783333,50.1124923 L56,50.023 L56.0007398,41.5551384 C51.5337772,43.857681 46.1910497,45 40,45 C38.8874934,45 37.8028631,44.9702811 36.7461696,44.9107249 L40.6620954,40.9952273 C46.8610412,40.9053066 51.9609144,39.5450776 56.0011803,36.9402888 L56.0007398,28.5551384 C53.5703804,29.8078926 50.88078,30.717201 47.9363582,31.2859475 C47.7960888,30.5109872 47.426903,29.7700488 46.8284271,29.1715729 L45.3189784,27.6620559 C49.4664316,27.1050889 53.0218908,25.8610584 56.0011803,23.9402888 L56,15.598 L55.8530859,15.6585152 C55.5280344,15.7850934 55.1865155,15.9076694 54.8294913,16.0259546 L54.2824463,16.2001283 L53.7128651,16.3676493 L53.121469,16.5283011 L52.5089798,16.6818674 L51.876119,16.8281316 L51.5522747,16.8984577 L50.8902094,17.0333629 L50.2095763,17.1604249 L49.5110972,17.2794271 L48.7954934,17.3901531 L48.0634867,17.4923864 C47.9401588,17.5087056 47.8161774,17.5246619 47.6915577,17.5402507 L46.9362995,17.6293392 L46.1664421,17.7093938 L45.3827073,17.7801982 C45.2509684,17.791216 45.1186814,17.8018394 44.9858613,17.8120638 L44.1826631,17.8685868 C43.9128781,17.8858079 43.6410807,17.9013971 43.3673914,17.9153183 L42.5407676,17.9520418 L41.7035134,17.9785409 L40.8563504,17.9945992 L40,18 L39.1436496,17.9945992 L38.2964866,17.9785409 L37.4592324,17.9520418 L36.6326086,17.9153183 C36.4957639,17.9083577 36.3593923,17.9009801 36.2235086,17.89319 L35.504,17.847 L34.8284271,17.1715729 C34.0896205,16.4327663 33.1347686,16.0423129 32.1486732,16.0183754 L31.9206423,16.0193659 C31.029127,16.0486899 30.1180619,16.3774795 29.3081707,17.0691133 L29.1097906,17.0333629 L28.4477253,16.8984577 L28.123881,16.8281316 L27.4910202,16.6818674 L26.878531,16.5283011 L26.2871349,16.3676493 L25.7175537,16.2001283 L25.1705087,16.0259546 C24.8134845,15.9076694 24.4719656,15.7850934 24.1469141,15.6585152 L24,15.599 L24,24.8053369 C26.8179507,26.2294797 30.1478626,27.1820738 33.9944595,27.6538677 L34.3428756,28 L20,27.999 L20,12 C20,10.7089447 21.35923,9.51312903 23.6718075,8.53431759 L24.1469141,8.34148477 C24.4719656,8.21490659 24.8134845,8.09233058 25.1705087,7.97404536 L25.7175537,7.7998717 L26.2871349,7.63235071 L26.878531,7.47169885 L27.4910202,7.3181326 L28.123881,7.17186842 L28.4477253,7.10154226 L29.1097906,6.96663707 L29.7904237,6.83957514 L30.4889028,6.72057293 L31.2045066,6.60984691 L31.9365133,6.50761355 C32.0598412,6.49129441 32.1838226,6.47533815 32.3084423,6.45974927 L33.0637005,6.37066079 L33.8335579,6.29060615 L34.6172927,6.21980183 C34.7490316,6.20878399 34.8813186,6.1981606 35.0141387,6.18793617 L35.8173369,6.13141319 C36.0871219,6.11419209 36.3589193,6.0986029 36.6326086,6.0846817 L37.4592324,6.04795816 L38.2964866,6.02145905 L39.1436496,6.00540084 C39.2856291,6.00360657 39.4279914,6.00225636 39.5707215,6.00135472 L40,6 C40.2869012,6 40.5723914,6.00181231 40.8563504,6.00540084 L41.7035134,6.02145905 L42.5407676,6.04795816 L43.3673914,6.0846817 C43.5042361,6.0916423 43.6406077,6.09901989 43.7764914,6.10680998 L44.5858165,6.15846428 C44.8535592,6.17730828 45.1192296,6.19776615 45.3827073,6.21980183 L46.1664421,6.29060615 L46.9362995,6.37066079 L47.6915577,6.45974927 L48.4314954,6.55765512 C48.5535015,6.57469552 48.6748392,6.59209428 48.7954934,6.60984691 L49.5110972,6.72057293 L50.2095763,6.83957514 L50.8902094,6.96663707 L51.5522747,7.10154226 L51.876119,7.17186842 L52.5089798,7.3181326 L53.121469,7.47169885 L53.7128651,7.63235071 L54.2824463,7.7998717 L54.8294913,7.97404536 C55.1865155,8.09233058 55.5280344,8.21490659 55.8530859,8.34148477 L56.3281925,8.53431759 C58.5518247,9.47548244 59.8940336,10.6172799 59.993991,11.8514617 L60,12 L60,51 C60,51.5935597 59.736354,52.1564549 59.2803688,52.5364426 C54.8720355,56.2100536 48.4282286,58 40,58 C31.6402496,58 25.2715483,56.5847331 20.8905996,53.6641006 C20.3805687,53.32408 20.0572434,52.7710229 20.0068977,52.1661337 L20,52 L20,35.999 L24,35.999 Z M40,10 C34.9904794,10 30.3327512,10.5910159 27.0072559,11.5886645 C26.6986586,11.6812437 26.4066647,11.7759762 26.1323977,11.8718951 L25.781,12 L25.8640812,12.0318265 C26.1264055,12.1284287 26.4068311,12.224167 26.7042347,12.3180744 L27.0072559,12.4113355 C30.3327512,13.4089841 34.9904794,14 40,14 C45.0095206,14 49.6672488,13.4089841 52.9927441,12.4113355 C53.3013414,12.3187563 53.5933353,12.2240238 53.8676023,12.1281049 L54.218,11.999 L54.1359188,11.9681735 C53.8735945,11.8715713 53.5931689,11.775833 53.2957653,11.6819256 L52.9927441,11.5886645 C49.6672488,10.5910159 45.0095206,10 40,10 Z" id="Combined-Shape-Copy-3" fill="#000000" fill-rule="nonzero"></path>
        <path d="M34.1213203,17.8786797 L46.1213203,29.8786797 C47.2928932,31.0502525 47.2928932,32.9497475 46.1213203,34.1213203 L34.1213203,46.1213203 C32.9497475,47.2928932 31.0502525,47.2928932 29.8786797,46.1213203 C28.7071068,44.9497475 28.7071068,43.0502525 29.8786797,41.8786797 L36.757,35 L7,35 C5.34314575,35 4,33.6568542 4,32 C4,30.3431458 5.34314575,29 7,29 L36.757,29 L29.8786797,22.1213203 C28.7539697,20.9966104 28.7089813,19.2010475 29.7437145,18.0226693 L29.8786797,17.8786797 C31.0502525,16.7071068 32.9497475,16.7071068 34.1213203,17.8786797 Z" id="Combined-Shape" fill="#000000"></path>
    </g>
</svg>