<svg xmlns="http://www.w3.org/2000/svg" width="32" height="32" viewBox="0 0 32 32">
  <g fill="none" fill-rule="evenodd">
    <path fill="#000" fill-rule="nonzero" d="M16,9 C16.5522847,9 17,9.49746139 17,10.1111111 L17,26.585 L20.2928932,23.2928932 C20.6533772,22.9324093 21.2206082,22.9046797 21.6128994,23.2097046 L21.7071068,23.2928932 C22.0675907,23.6533772 22.0953203,24.2206082 21.7902954,24.6128994 L21.7071068,24.7071068 L16.7071068,29.7071068 C16.3466228,30.0675907 15.7793918,30.0953203 15.3871006,29.7902954 L15.2928932,29.7071068 L10.2928932,24.7071068 C9.90236893,24.3165825 9.90236893,23.6834175 10.2928932,23.2928932 C10.6533772,22.9324093 11.2206082,22.9046797 11.6128994,23.2097046 L11.7071068,23.2928932 L15,26.585 L15,10.1111111 C15,9.49746139 15.4477153,9 16,9 Z" transform="matrix(1 0 0 -1 0 39)"/>
    <path fill="#000" fill-rule="nonzero" d="M29,2 C29.5522847,2 30,2.44771525 30,3 L30,3 L30,23 C30,23.5522847 29.5522847,24 29,24 L29,24 L18,24 L18,22 L28,22 L28,4 L4,4 L4,22 L14,22 L14,24 L3,24 C2.48716416,24 2.06449284,23.6139598 2.00672773,23.1166211 L2,23 L2,3 C2,2.44771525 2.44771525,2 3,2 L3,2 Z"/>
  </g>
</svg>
