<?xml version="1.0" encoding="UTF-8"?>
<svg width="64px" height="64px" viewBox="0 0 64 64" version="1.1" xmlns="http://www.w3.org/2000/svg" xmlns:xlink="http://www.w3.org/1999/xlink">
    <title>in_progress</title>
    <g id="in_progress" stroke="none" stroke-width="1" fill="none" fill-rule="evenodd">
        <path d="M32,4 C47.463973,4 60,16.536027 60,32 C60,47.463973 47.463973,60 32,60 C16.536027,60 4,47.463973 4,32 C4,16.536027 16.536027,4 32,4 Z M32,8 C18.745166,8 8,18.745166 8,32 C8,45.254834 18.745166,56 32,56 C45.254834,56 56,45.254834 56,32 C56,18.745166 45.254834,8 32,8 Z" id="Oval" fill="#000000" fill-rule="nonzero"></path>
        <rect id="Rectangle" fill="#000000" x="30" y="10" width="4" height="16" rx="2"></rect>
        <rect id="Rectangle" fill="#000000" transform="translate(41.899495, 22.100505) rotate(45.000000) translate(-41.899495, -22.100505) " x="39.8994949" y="14.1005051" width="4" height="16" rx="2"></rect>
        <rect id="Rectangle" fill="#000000" transform="translate(46.000000, 32.000000) rotate(90.000000) translate(-46.000000, -32.000000) " x="44" y="24" width="4" height="16" rx="2"></rect>
        <rect id="Rectangle" fill="#000000" transform="translate(41.899495, 41.899495) rotate(135.000000) translate(-41.899495, -41.899495) " x="39.8994949" y="33.8994949" width="4" height="16" rx="2"></rect>
    </g>
</svg>