<?xml version="1.0" encoding="UTF-8"?>
<svg width="64px" height="64px" viewBox="0 0 64 64" version="1.1" xmlns="http://www.w3.org/2000/svg" xmlns:xlink="http://www.w3.org/1999/xlink">
    <title>incomplete_certificate</title>
    <g id="incomplete_certificate" stroke="none" stroke-width="1" fill="none" fill-rule="evenodd">
        <path d="M40,23.5 C35.0294373,23.5 31,27.5294373 31,32.5 C31,37.4705627 35.0294373,41.5 40,41.5 C44.9705627,41.5 49,37.4705627 49,32.5 C49,27.5294373 44.9705627,23.5 40,23.5 Z M40,25.5 C43.8659932,25.5 47,28.6340068 47,32.5 C47,36.3659932 43.8659932,39.5 40,39.5 C36.1340068,39.5 33,36.3659932 33,32.5 C33,28.6340068 36.1340068,25.5 40,25.5 Z" id="Oval-28" fill="#000000" fill-rule="nonzero"></path>
        <polygon id="Path-162" fill="#000000" fill-rule="nonzero" points="32.7267461 37.8352783 34.7065668 38.1186685 32.82 51.29 39.8686399 47.7457114 46.978 51.305 45.2349226 38.1079646 47.2176897 37.8459822 49.4554629 54.7821651 39.87 49.983 30.2987863 54.7974874"></polygon>
        <path d="M8.34820825,46.9875964 L8.34820825,10.7617712 L13.6833204,10.7617712 L19.3402286,10.7617712 L19.3402286,25.7685481 L20.6065525,36.9941356 L20.6065525,39.1711322 L19.8846487,39.1711322 L19.8846487,43.0668823 L23.7383362,43.0668823 L23.7383362,39.1711322 L20.6065525,39.1711322 L20.6065525,36.9941356 L22.9083691,36.9941356 L24.1863201,25.7685481 L24.1863201,17.007556 L19.3402286,17.007556 L19.3402286,10.7617712 L55.6235051,10.7617712 L55.6235051,47.7395938 L49.2976988,47.7395938 L48.4438507,37.8777467 L48.8686369,37.1191999 L49.4762567,35.7125774 L49.8460587,34.3466902 L50.0141043,33.0517703 L50.0141043,32 L49.9079718,30.9639903 L49.7104423,29.9855627 L49.3791403,29.0278658 L48.980114,28.0410565 C48.7140219,27.5977329 48.5073656,27.2750677 48.3601451,27.0730608 C48.2129246,26.8710539 47.9670977,26.5202562 47.6226643,26.0206676 L46.6435661,24.9981521 L45.3835123,24.0516028 L44.0038231,23.3452184 L43.0026729,22.9672983 L41.9864517,22.6833409 L41.0027156,22.5462716 L40,22.4837536 L38.9786947,22.5462716 C38.5105943,22.6222314 38.1917126,22.6738843 38.0220498,22.7012303 C37.7296727,22.7483553 37.2999453,22.8674283 36.9645084,22.9672983 C36.7408837,23.0338784 36.4162126,23.1598517 35.9904951,23.3452184 L34.9780935,23.8367791 L33.9979336,24.5243048 L33.3810381,24.9981521 L32.8903809,25.5031895 L32.4018402,26.0060486 L31.9858567,26.5049642 L31.525937,27.1664505 L31.0618125,27.9762936 L30.7588408,28.643759 C30.6365978,28.9772238 30.5435606,29.2229949 30.4797291,29.3810721 C30.4158976,29.5391493 30.3395121,29.8240723 30.2505725,30.2358412 L30.0760468,31.0228417 L29.9868273,32 L29.9868273,33.0517703 L30.0760468,33.9872256 L30.2862756,35.0333948 L30.610987,36.0529875 L31.0618125,37.0553311 L31.4068605,37.6618333 L30.3311381,46.9875964 L8.34820825,46.9875964 Z" id="Path-173" fill="#000000" fill-rule="nonzero"></path>
    </g>
</svg>