<?xml version="1.0" encoding="UTF-8"?>
<svg width="64px" height="64px" viewBox="0 0 64 64" version="1.1" xmlns="http://www.w3.org/2000/svg" xmlns:xlink="http://www.w3.org/1999/xlink">
    <title>industrial</title>
    <g id="industrial" stroke="none" stroke-width="1" fill="none" fill-rule="evenodd">
        <path d="M47,24 L55,32 L55,51 L15,51 L15,24 L23,32 L23,24 L31,32 L31,24 L39,32 L39,24 L47,32 L47,24 Z M20,41 L16,41 L16,45 L20,45 L20,41 Z M28,41 L24,41 L24,45 L28,45 L28,41 Z M36,41 L32,41 L32,45 L36,45 L36,41 Z M44,41 L40,41 L40,45 L44,45 L44,41 Z M52,41 L48,41 L48,45 L52,45 L52,41 Z M20,34 L16,34 L16,38 L20,38 L20,34 Z M28,34 L24,34 L24,38 L28,38 L28,34 Z M36,34 L32,34 L32,38 L36,38 L36,34 Z M44,34 L40,34 L40,38 L44,38 L44,34 Z M52,34 L48,34 L48,38 L52,38 L52,34 Z" id="Path-591-Copy" fill="#000000" fill-rule="nonzero"></path>
        <rect id="Rectangle-153" fill="#000000" fill-rule="nonzero" x="9" y="8" width="6" height="43"></rect>
    </g>
</svg>