<?xml version="1.0" encoding="UTF-8"?>
<svg width="64px" height="64px" viewBox="0 0 64 64" version="1.1" xmlns="http://www.w3.org/2000/svg" xmlns:xlink="http://www.w3.org/1999/xlink">
    <title>info</title>
    <g id="info" stroke="none" stroke-width="1" fill="none" fill-rule="evenodd">
        <path d="M32,4 C47.463973,4 60,16.536027 60,32 C60,47.463973 47.463973,60 32,60 C16.536027,60 4,47.463973 4,32 C4,16.536027 16.536027,4 32,4 Z M32,8 C18.745166,8 8,18.745166 8,32 C8,45.254834 18.745166,56 32,56 C45.254834,56 56,45.254834 56,32 C56,18.745166 45.254834,8 32,8 Z" id="Oval" fill="#000000" fill-rule="nonzero"></path>
        <path d="M31.944,18.4 C33.2133333,18.4 34.128,18.204 34.688,17.812 C35.248,17.42 35.528,16.6826667 35.528,15.6 L35.528,15.6 L35.528,14.536 C35.528,13.4906667 35.2666667,12.7626667 34.744,12.352 C34.2213333,11.9413333 33.3066667,11.736 32,11.736 C30.8053333,11.736 29.9186667,11.932 29.34,12.324 C28.7613333,12.716 28.472,13.4533333 28.472,14.536 L28.472,14.536 L28.472,15.6 C28.472,16.6453333 28.7333333,17.3733333 29.256,17.784 C29.7786667,18.1946667 30.6746667,18.4 31.944,18.4 Z M32,52 C32.9706667,52 33.7733333,51.6733333 34.408,51.02 C35.0426667,50.3666667 35.36,49.5546667 35.36,48.584 L35.36,48.584 L35.36,25.456 C35.36,24.4853333 35.0426667,23.6733333 34.408,23.02 C33.7733333,22.3666667 32.9706667,22.04 32,22.04 C31.0293333,22.04 30.2266667,22.3666667 29.592,23.02 C28.9573333,23.6733333 28.64,24.4853333 28.64,25.456 L28.64,25.456 L28.64,48.584 C28.64,49.5546667 28.9573333,50.3666667 29.592,51.02 C30.2266667,51.6733333 31.0293333,52 32,52 Z" id="i" fill="#000000" fill-rule="nonzero"></path>
    </g>
</svg>