<?xml version="1.0" encoding="UTF-8"?>
<svg width="64px" height="64px" viewBox="0 0 64 64" version="1.1" xmlns="http://www.w3.org/2000/svg" xmlns:xlink="http://www.w3.org/1999/xlink">
    <title>information_technology</title>
    <g id="information_technology" stroke="none" stroke-width="1" fill="none" fill-rule="evenodd">
        <path d="M58,6 C59.1045695,6 60,6.8954305 60,8 L60,42 C60,43.1045695 59.1045695,44 58,44 L41.033,44 L45.8382901,55.2121614 C46.3843881,56.4863901 45.5007701,57.898928 44.1468219,57.9948293 L44,58 L20,58 C18.5641691,58 17.5961084,56.5318982 18.1617099,55.2121614 L22.966,44 L6,44 C4.9456382,44 4.08183488,43.1841222 4.00548574,42.1492623 L4,42 L4,8 C4,6.8954305 4.8954305,6 6,6 Z M36.68,44 L27.318,44 L23.032,54 L40.966,54 L36.68,44 Z M56,10 L8,10 L8,40 L56,40 L56,10 Z" id="Combined-Shape" fill="#000000" fill-rule="nonzero"></path>
        <path d="M35.6371698,17.0013398 C36.6964331,17.0013398 37.6549394,17.6934253 37.9530339,18.7074831 C38.2603591,19.6975115 38.477138,20.6961289 38.6018985,21.6900429 L38.6655893,22.3233398 L38.9158114,22.395819 C40.3579186,22.8377537 41.7530818,23.4179239 43.0884745,24.1306496 L43.3248674,24.2633398 L43.8247866,23.8583465 C44.4200939,23.397958 45.0560229,22.9700678 45.7330728,22.5751243 L46.4238482,22.1911797 C47.3560475,21.7251938 48.4901821,21.8969905 49.2367809,22.6434131 L51.7986777,25.2153627 L54.3635117,27.7795706 C54.677703,28.0936852 54.8898831,28.4775434 54.9934202,28.8896241 L54.9931452,30.0869692 C54.9475083,30.2720454 54.8804491,30.4551362 54.7914336,30.6328968 C54.3017997,31.5567691 53.7472822,32.4191597 53.1343532,33.2093411 L52.7394087,33.6933398 L52.8708894,33.9276846 C53.5800047,35.262845 54.1568977,36.6577002 54.5978598,38.101988 L54.6691097,38.3533398 L54.9921235,38.3883398 L54.9928726,39.0013398 L50.6886222,39.0012611 C50.1807547,37.4193921 49.4753507,35.9119581 48.5780992,34.4952163 L47.7079604,33.121285 L48.8753966,31.9891483 C49.4828877,31.4000258 50.0435086,30.7190053 50.5405007,29.9708943 L50.6777281,29.7493398 L48.9683158,28.0414115 L47.2622573,26.3273398 L47.0638934,26.4536782 C46.495811,26.8301617 45.9686299,27.2411597 45.4850401,27.6837836 L45.0160804,28.1368425 L43.8818742,29.2939132 L42.5148755,28.4242174 C40.590736,27.2000638 38.4973726,26.3292616 36.2908781,25.8358241 L34.7043428,25.4810278 L34.7277413,23.8552336 C34.7400928,22.9970093 34.6560225,22.1155547 34.4732844,21.2193491 L34.4222468,21.0013398 L29.5809969,21.0013398 L29.5309562,21.2279919 C29.3958216,21.8927052 29.3150497,22.5529288 29.2883112,23.2055152 L29.2795717,23.8554391 L29.3028006,25.4810651 L27.7164319,25.8358241 C25.4947109,26.3326667 23.4034879,27.1977051 21.4924344,28.4135332 L20.118257,29.2877963 L18.9840715,28.1188183 C18.3881123,27.5045774 17.7085439,26.9438748 16.9624218,26.4492652 L16.7449858,26.3133398 L13.3155171,29.7413398 L13.4404602,29.9421631 C13.8134239,30.5069553 14.2230856,31.0311486 14.6666645,31.5121581 L15.1214462,31.9786772 L16.2912471,33.1134545 L15.4160802,34.4883812 C14.5168697,35.9010812 13.8104016,37.4108329 13.3025337,39.0014373 L8.99999924,39.0013398 L8.99912349,38.3783398 L9.28432889,38.3480604 L9.32413558,38.3453398 L9.3985587,38.0864243 C9.83977835,36.6378424 10.4171635,35.2419145 11.1270738,33.9089479 L11.2518369,33.6813398 L10.8445221,33.1805498 C10.3818786,32.5838086 9.95438349,31.9469151 9.56295454,31.2702122 L9.18358165,30.5802522 C9.1034867,30.4201014 9.04221599,30.253989 8.99943311,30.0849185 L8.99824489,28.8888813 C9.10222245,28.475061 9.31556682,28.0863535 9.63311146,27.7688864 L14.7734663,22.6297863 C15.5171279,21.8863063 16.6512624,21.7145096 17.6199758,22.1992188 C18.5441904,22.6851686 19.4051364,23.2375004 20.1959876,23.8511528 L20.6863751,24.2493398 L20.9130222,24.124413 C22.2447826,23.4151941 23.6394668,22.8378214 25.0851694,22.3964001 L25.3396541,22.3233398 L25.4044271,21.6902621 C25.4971751,20.9480596 25.6410523,20.2062093 25.8350295,19.4700382 L26.0456686,18.7359574 C26.3512887,17.6971027 27.2970436,17.0013398 28.3701401,17.0013398 Z M31.9986223,30.1441969 C38.0522863,30.1441969 43.2772463,33.7874814 45.587802,39.0012573 L41.3833001,39.0010261 C39.4003004,35.9094481 35.9330569,33.8584826 31.9986223,33.8584826 C28.0656111,33.8584826 24.5994529,35.9115287 22.6160972,39.001514 L18.4078031,39.0012573 C20.7158005,33.7874814 25.9368976,30.1441969 31.9986223,30.1441969 Z" id="Combined-Shape" fill="#000000" fill-rule="nonzero"></path>
    </g>
</svg>