<?xml version="1.0" encoding="UTF-8"?>
<svg width="64px" height="64px" viewBox="0 0 64 64" version="1.1" xmlns="http://www.w3.org/2000/svg" xmlns:xlink="http://www.w3.org/1999/xlink">
    <title>inspections</title>
    <g id="inspections" stroke="none" stroke-width="1" fill="none" fill-rule="evenodd">
        <path d="M24,44 C12.954305,44 4,35.045695 4,24 C4,12.954305 12.954305,4 24,4 C35.045695,4 44,12.954305 44,24 C44,28.4873136 42.5221899,32.6294661 40.0267084,35.966319 L40,36 L44,36 C44.530433,36 45.0391408,36.2107137 45.4142136,36.5857864 L59.4142136,50.5857864 C60.1952621,51.366835 60.1952621,52.633165 59.4142136,53.4142136 L53.4142136,59.4142136 C52.633165,60.1952621 51.366835,60.1952621 50.5857864,59.4142136 L36.5857864,45.4142136 C36.2107137,45.0391408 36,44.530433 36,44 L36,40 L35.966319,40.0267084 C32.6294661,42.5221899 28.4873136,44 24,44 Z M43.17,40 L40.828,40 L40,40.828 L40,43.17 L52,55.17 L55.17,52 L43.17,40 Z M24,8 C15.163444,8 8,15.163444 8,24 C8,32.836556 15.163444,40 24,40 C32.836556,40 40,32.836556 40,24 C40,15.163444 32.836556,8 24,8 Z" id="Combined-Shape" fill="#000000" fill-rule="nonzero"></path>
        <path d="M34.0015065,42.4660425 L34.0008699,55.7001542 C36.3436783,55.0114239 38.6475962,53.182394 40.4523529,50.6949965 L43.3067099,53.5488773 C40.2758377,57.4566348 36.1379189,60 32,60 C26.1208378,60 20.2416755,54.8657659 17.5376788,47.9787573 C14.5221754,49.6629358 13,52.8978046 13,58 C13,59.1045695 12.1045695,60 11,60 C9.8954305,60 9,59.1045695 9,58 C9,51.3001035 11.3574477,46.5852082 16.1055728,44.2111456 C16.2025443,44.1626599 16.3015716,44.1227912 16.401784,44.0912492 C16.3656958,43.9103543 16.3322354,43.7273874 16.3010906,43.5437802 C17.6906599,44.0916873 19.1525162,44.495563 20.6684725,44.7372042 C22.1785718,50.1008657 26.0337101,54.53497 30.0001316,55.7004486 L30.0014396,44.1284951 C31.3990295,43.7115871 32.7375014,43.1522474 34.0015065,42.4660425 Z M50.0002547,12 C51.1048242,12 52.0002547,12.8954305 52.0002547,14 C52.0002547,21.445419 50.0110366,26.6138652 45.876733,29.2345169 C46.5781746,30.6078775 47.0883233,32.146431 47.4324845,33.8199783 C52.3148143,32.666707 56.3903214,33.5616396 59.4144683,36.5857864 C60.1955169,37.366835 60.1955169,38.633165 59.4144683,39.4142136 C58.6334197,40.1952621 57.3670897,40.1952621 56.5860412,39.4142136 C54.5634462,37.3916186 51.8005987,36.8218096 48.0352946,37.7910973 L46.1213203,35.8786797 C45.5720033,35.3293626 44.8315935,35.0150725 44.0563368,35.0005284 L43.60082,34.9527293 C43.4613371,34.1872094 43.2841239,33.4734783 43.0673458,32.8105134 C44.1990903,30.366522 44.8744442,27.6676152 44.9841428,24.8236158 C46.9636482,22.7559495 48.0002547,19.2018633 48.0002547,14 C48.0002547,12.8954305 48.8956852,12 50.0002547,12 Z M6.24128782,35.2134719 C6.96025134,36.3497061 7.78525292,37.4121822 8.70238358,38.3869911 C8.24269741,38.6714086 7.81399517,39.014432 7.41421356,39.4142136 C6.63316498,40.1952621 5.36683502,40.1952621 4.58578644,39.4142136 C3.80473785,38.633165 3.80473785,37.366835 4.58578644,36.5857864 C5.04646729,36.1251056 5.53154568,35.7138346 6.0401555,35.3516885 Z M24,9 C26.0593234,9 28.0217215,9.41498616 29.8081301,10.1658942 C30.6348339,11.5622426 31.2586545,13.1806446 31.6678063,15.0051255 C31.7779393,15.0015704 31.8887338,15 32,15 C32.1112662,15 32.2220607,15.0015704 32.3323491,15.0046843 C32.5595571,13.9924076 32.8528061,13.0431836 33.2102935,12.1601622 C33.7015246,12.5424897 34.1676053,12.9544019 34.6066017,13.3933983 C35.2415078,14.0283044 35.8197621,14.7198624 36.3331314,15.4598394 C36.302501,15.5803467 36.2735633,15.7022738 36.2457684,15.8256606 C36.4053022,15.8928523 36.5611475,15.9626218 36.7139656,16.0358449 C38.1623775,18.3442089 39,21.0742858 39,24 C39,25.1398445 38.8728619,26.2499942 38.6319931,27.3170419 C37.3470461,26.6584531 35.8113526,26.2527557 34.0005722,26.086758 L34.0009232,35.1797062 C32.8207766,36.2361405 31.472365,37.1084571 30.0008439,37.7515002 L30.0004352,26.0866657 C23.28714,26.7017222 20.3545047,30.6110094 20.0304742,38.4678908 C17.4834717,37.7719192 15.207246,36.4204495 13.3933983,34.6066017 C12.993626,34.2068294 12.6163142,33.7845965 12.2635183,33.3419583 C13.6159352,33.3017183 15.0528133,33.4624502 16.5672949,33.8203371 C16.9116767,32.146431 17.4218254,30.6078775 18.1233584,29.2330148 C14.1740092,26.7308519 12.1821899,21.902416 12.011947,14.9851291 C12.4345174,14.4216469 12.8966159,13.8901807 13.3933983,13.3933983 C13.831805,12.9549915 14.2972234,12.5435963 14.7869428,12.1619233 C15.5002739,12.4663785 16,13.1748306 16,14 C16,20.3495225 17.5444655,24.2439815 20.4646129,25.976641 C21.3340702,25.1066275 22.3477561,24.3638945 23.5191011,23.7640074 C23.1832501,23.3882092 23,22.8244438 23,22 C23,19.3284706 24.9241643,17.0064843 27.7533906,15.8266762 C27.0062164,12.5039413 25.4296338,10.2401612 23.0001324,9.03341522 C23.3297525,9.01107492 23.6635829,9 24,9 Z M32,19 C29.0498214,19 27,20.5943056 27,22 C27,22.1654722 27.0284043,22.333558 27.0833379,22.501349 C28.548172,22.1722347 30.1823081,22 32,22 C33.8176919,22 35.451828,22.1722347 36.9163103,22.5009957 C36.9715957,22.333558 37,22.1654722 37,22 C37,20.5943056 34.9501786,19 32,19 Z M46.0002547,4 C47.1048242,4 48.0002547,4.8954305 48.0002547,6 C48.0002547,7.1045695 47.1048242,8 46.0002547,8 C43.3388497,8 41.205086,8.64300194 39.5872806,9.92943569 C39.3488806,9.66325015 39.1022751,9.40379028 38.8492424,9.1507576 C38.1503829,8.4518981 37.4024951,7.80206694 36.6111809,7.20686609 C38.9619611,5.11343559 42.1231063,4 46.0002547,4 Z" id="Oval" fill="#000000" fill-rule="nonzero"></path>
    </g>
</svg>