<?xml version="1.0" encoding="UTF-8"?>
<svg width="64px" height="64px" viewBox="0 0 64 64" version="1.1" xmlns="http://www.w3.org/2000/svg" xmlns:xlink="http://www.w3.org/1999/xlink">
    <title>insulation</title>
    <g id="insulation" stroke="none" stroke-width="1" fill="none" fill-rule="evenodd">
        <path d="M31,7 C42.0535842,7 51.5,15.7716718 51.5,28 C51.5,34.1945904 49.0156449,38.8966918 45.0703215,41.9388974 L44.988,42 L59,42 L59,57 L32,57 C17.9110723,57 7,45.6003722 7,30 C7,15.7796897 18.3810793,7 31,7 Z M31,11 C20.3966985,11 11,18.2488817 11,30 C11,43.2951837 19.9780652,52.8082037 31.645621,52.9971346 L32,53 L55,53 L55,46 L36,46 C35.759003,46 35.5279617,45.9573745 35.3140041,45.8792516 L35.149,45.81 L35.0892789,45.8181746 C34.1945746,45.9256156 33.2798556,45.9857149 32.3495757,45.9977439 L32,46 C23.5543704,46 17,39.2684845 17,31 C17,23.5209466 23.0968637,18.5 30,18.5 C36.5968058,18.5 42.3310523,25.5575342 39.8569534,31.7427814 C37.2870063,38.1676491 29.0916517,37.6554394 26.2111456,31.8944272 C25.7171671,30.9064702 26.1176158,29.7051241 27.1055728,29.2111456 C28.0935298,28.7171671 29.2948759,29.1176158 29.7888544,30.1055728 C31.2309289,32.9897219 34.9568962,33.2225948 36.1430466,30.2572186 C37.49369,26.8806102 33.9344442,22.5 30,22.5 C25.1531363,22.5 21,25.9202299 21,31 C21,37.0828669 25.7877349,42 32,42 C40.7578432,42 47.5,37.0966132 47.5,28 C47.5,18.1654573 40.0834869,11.16434 31.310199,11.002853 L31,11 Z" id="Path-100" fill="#000000" fill-rule="nonzero"></path>
    </g>
</svg>