<?xml version="1.0" encoding="UTF-8"?>
<svg width="64px" height="64px" viewBox="0 0 64 64" version="1.1" xmlns="http://www.w3.org/2000/svg" xmlns:xlink="http://www.w3.org/1999/xlink">
    <title>integrations</title>
    <g id="integrations" stroke="none" stroke-width="1" fill="none" fill-rule="evenodd">
        <path d="M44,36 C45.3287578,36 46.2880857,37.2718098 45.9230479,38.5494423 C44.9242476,42.0452434 45.4698228,43 48,43 C50.5301772,43 51.0757524,42.0452434 50.0769521,38.5494423 C49.7119143,37.2718098 50.6712422,36 52,36 L58,36 C59.1045695,36 60,36.8954305 60,38 L60,58 C60,59.1045695 59.1045695,60 58,60 L38,60 C36.8954305,60 36,59.1045695 36,58 L36,54.426 L35.8151552,54.4432727 C31.6624641,54.7839116 29.1037725,52.6464607 29.0030859,48.2706985 L29,48 C29,43.4418143 31.5777153,41.2091366 35.8151552,41.5567273 L36,41.573 L36,38 C36,36.9456382 36.8158778,36.0818349 37.8507377,36.0054857 L38,36 L44,36 Z M41.573,40 L40,40 L40,44 C40,45.2795445 38.8206537,46.2165176 37.5924286,45.9582061 L37.4505577,45.9230479 C33.9547566,44.9242476 33,45.4698228 33,48 C33,50.5301772 33.9547566,51.0757524 37.4505577,50.0769521 C38.7281902,49.7119143 40,50.6712422 40,52 L40,56 L56,56 L56,40 L54.426,40 L54.4432727,40.1848448 C54.7839116,44.3375359 52.6464607,46.8962275 48.2706985,46.9969141 L48,47 C43.4418143,47 41.2091366,44.4222847 41.5567273,40.1848448 L41.573,40 Z" id="Path-310" fill="#000000" fill-rule="nonzero"></path>
        <path d="M27.5,32.5 C28.8287578,32.5 29.7880857,33.7718098 29.4230479,35.0494423 C28.4242476,38.5452434 28.9698228,39.5 31.5,39.5 C34.0301772,39.5 34.5757524,38.5452434 33.5769521,35.0494423 C33.2119143,33.7718098 34.1712422,32.5 35.5,32.5 L41.5,32.5 C42.6045695,32.5 43.5,33.3954305 43.5,34.5 L43.5,54.5 C43.5,55.6045695 42.6045695,56.5 41.5,56.5 L21.5,56.5 C20.3954305,56.5 19.5,55.6045695 19.5,54.5 L19.5,50.926 L19.3151552,50.9432727 C15.1624641,51.2839116 12.6037725,49.1464607 12.5030859,44.7706985 L12.5,44.5 C12.5,39.9418143 15.0777153,37.7091366 19.3151552,38.0567273 L19.5,38.073 L19.5,34.5 C19.5,33.4456382 20.3158778,32.5818349 21.3507377,32.5054857 L21.5,32.5 L27.5,32.5 Z M25.073,36.5 L23.5,36.5 L23.5,40.5 C23.5,41.7795445 22.3206537,42.7165176 21.0924286,42.4582061 L20.9505577,42.4230479 C17.4547566,41.4242476 16.5,41.9698228 16.5,44.5 C16.5,47.0301772 17.4547566,47.5757524 20.9505577,46.5769521 C22.2281902,46.2119143 23.5,47.1712422 23.5,48.5 L23.5,52.5 L39.5,52.5 L39.5,36.5 L37.926,36.5 L37.9432727,36.6848448 C38.2839116,40.8375359 36.1464607,43.3962275 31.7706985,43.4969141 L31.5,43.5 C26.9418143,43.5 24.7091366,40.9222847 25.0567273,36.6848448 L25.073,36.5 Z" id="Path-310-Copy" fill="#000000" fill-rule="nonzero" transform="translate(28, 44.5) rotate(90) translate(-28, -44.5)"></path>
        <path d="M47.5,19.5 C48.8287578,19.5 49.7880857,20.7718098 49.4230479,22.0494423 C48.4242476,25.5452434 48.9698228,26.5 51.5,26.5 C54.0301772,26.5 54.5757524,25.5452434 53.5769521,22.0494423 C53.2119143,20.7718098 54.1712422,19.5 55.5,19.5 L61.5,19.5 C62.6045695,19.5 63.5,20.3954305 63.5,21.5 L63.5,41.5 C63.5,42.6045695 62.6045695,43.5 61.5,43.5 L41.5,43.5 C40.3954305,43.5 39.5,42.6045695 39.5,41.5 L39.5,37.926 L39.3151552,37.9432727 C35.1624641,38.2839116 32.6037725,36.1464607 32.5030859,31.7706985 L32.5,31.5 C32.5,26.9418143 35.0777153,24.7091366 39.3151552,25.0567273 L39.5,25.073 L39.5,21.5 C39.5,20.4456382 40.3158778,19.5818349 41.3507377,19.5054857 L41.5,19.5 L47.5,19.5 Z M45.073,23.5 L43.5,23.5 L43.5,27.5 C43.5,28.7795445 42.3206537,29.7165176 41.0924286,29.4582061 L40.9505577,29.4230479 C37.4547566,28.4242476 36.5,28.9698228 36.5,31.5 C36.5,34.0301772 37.4547566,34.5757524 40.9505577,33.5769521 C42.2281902,33.2119143 43.5,34.1712422 43.5,35.5 L43.5,39.5 L59.5,39.5 L59.5,23.5 L57.926,23.5 L57.9432727,23.6848448 C58.2839116,27.8375359 56.1464607,30.3962275 51.7706985,30.4969141 L51.5,30.5 C46.9418143,30.5 44.7091366,27.9222847 45.0567273,23.6848448 L45.073,23.5 Z" id="Path-310-Copy-3" fill="#000000" fill-rule="nonzero" transform="translate(48, 31.5) rotate(-90) translate(-48, -31.5)"></path>
        <path d="M20.5,4.5 C21.8287578,4.5 22.7880857,5.77180984 22.4230479,7.04944226 C21.4242476,10.5452434 21.9698228,11.5 24.5,11.5 C27.0301772,11.5 27.5757524,10.5452434 26.5769521,7.04944226 C26.2119143,5.77180984 27.1712422,4.5 28.5,4.5 L34.5,4.5 C35.6045695,4.5 36.5,5.3954305 36.5,6.5 L36.5,26.5 C36.5,27.6045695 35.6045695,28.5 34.5,28.5 L14.5,28.5 C13.3954305,28.5 12.5,27.6045695 12.5,26.5 L12.5,22.926 L12.3151552,22.9432727 C8.1624641,23.2839116 5.6037725,21.1464607 5.50308591,16.7706985 L5.5,16.5 C5.5,11.9418143 8.0777153,9.70913655 12.3151552,10.0567273 L12.5,10.073 L12.5,6.5 C12.5,5.4456382 13.3158778,4.58183488 14.3507377,4.50548574 L14.5,4.5 L20.5,4.5 Z M18.073,8.5 L16.5,8.5 L16.5,12.5 C16.5,13.7795445 15.3206537,14.7165176 14.0924286,14.4582061 L13.9505577,14.4230479 C10.4547566,13.4242476 9.5,13.9698228 9.5,16.5 C9.5,19.0301772 10.4547566,19.5757524 13.9505577,18.5769521 C15.2281902,18.2119143 16.5,19.1712422 16.5,20.5 L16.5,24.5 L32.5,24.5 L32.5,8.5 L30.926,8.5 L30.9432727,8.68484475 C31.2839116,12.8375359 29.1464607,15.3962275 24.7706985,15.4969141 L24.5,15.5 C19.9418143,15.5 17.7091366,12.9222847 18.0567273,8.68484475 L18.073,8.5 Z" id="Path-310-Copy-2" fill="#000000" fill-rule="nonzero" transform="translate(21, 16.5) rotate(150) translate(-21, -16.5)"></path>
    </g>
</svg>