<?xml version="1.0" encoding="UTF-8"?>
<svg width="32px" height="32px" viewBox="0 0 32 32" version="1.1" xmlns="http://www.w3.org/2000/svg" xmlns:xlink="http://www.w3.org/1999/xlink">
    <title>invoice-charge</title>
    <g id="invoice-charge" stroke="none" stroke-width="1" fill="none" fill-rule="evenodd">
        <path d="M15,2 L15.0005374,2.01407313 C15.2062531,2.04896054 15.3974435,2.14765509 15.5458171,2.29831142 L15.5458171,2.29831142 L19.7124838,6.52908066 C19.8418415,6.66042844 19.9312846,6.82379747 19.973095,7.00035162 L20,7 L19.9998991,11.0493853 C19.3102902,11.1178608 18.641291,11.2563933 18.0001192,11.4577648 L18,9 L14,9 C13.4871642,9 13.0644928,8.61395981 13.0067277,8.11662113 L13,8 L13,4 L4,4 L4,26 L12.3383925,26.0009861 C12.760746,26.7309174 13.2727194,27.4025084 13.8592655,28.0007123 L3,28 C2.44771525,28 2,27.5522847 2,27 L2,27 L2,3 C2,2.44771525 2.44771525,2 3,2 L3,2 L15,2 Z M11,19 C11.0673773,19 11.1331983,19.0066635 11.1968399,19.0193675 C11.067446,19.6600324 11,20.3221398 11,21 L11,21 L6,21 C5.44771525,21 5,20.5522847 5,20 C5,19.4477153 5.44771525,19 6,19 L11,19 Z M11,15 C11.5522847,15 12,15.4477153 12,16 C12,16.5522847 11.5522847,17 11,17 L6,17 C5.44771525,17 5,16.5522847 5,16 C5,15.4477153 5.44771525,15 6,15 L11,15 Z M11,11 C11.5522847,11 12,11.4477153 12,12 C12,12.5522847 11.5522847,13 11,13 L6,13 C5.44771525,13 5,12.5522847 5,12 C5,11.4477153 5.44771525,11 6,11 L11,11 Z M16,11 C16.4971261,11 16.9095271,11.3627512 16.9869443,11.837995 C16.2762561,12.14966 15.6100155,12.5408559 14.9982257,13.0006007 L14,13 C13.4477153,13 13,12.5522847 13,12 C13,11.4477153 13.4477153,11 14,11 L16,11 Z M9,6 C9.55228475,6 10,6.44771525 10,7 C10,7.55228475 9.55228475,8 9,8 L6,8 C5.44771525,8 5,7.55228475 5,7 C5,6.44771525 5.44771525,6 6,6 L9,6 Z M15,4.596 L15,7 L17.369,7 L15,4.596 Z" id="Combined-Shape" fill="#000000" fill-rule="nonzero"></path>
        <path d="M21,12 C25.9705627,12 30,16.0294373 30,21 C30,25.9705627 25.9705627,30 21,30 C16.0294373,30 12,25.9705627 12,21 C12,16.0294373 16.0294373,12 21,12 Z M21,14 C17.1340068,14 14,17.1340068 14,21 C14,24.8659932 17.1340068,28 21,28 C24.8659932,28 28,24.8659932 28,21 C28,17.1340068 24.8659932,14 21,14 Z" id="Oval" fill="#101010" fill-rule="nonzero"></path>
        <path d="M21,16 C21.5522847,16 22,16.4477153 22,17 L22,20 L25,20 C25.5522847,20 26,20.4477153 26,21 C26,21.5522847 25.5522847,22 25,22 L22,22 L22,25 C22,25.5522847 21.5522847,26 21,26 C20.4477153,26 20,25.5522847 20,25 L20,22 L17,22 C16.4477153,22 16,21.5522847 16,21 C16,20.4477153 16.4477153,20 17,20 L20,20 L20,17 C20,16.4477153 20.4477153,16 21,16 Z" id="Combined-Shape" fill="#000000"></path>
    </g>
</svg>