<?xml version="1.0" encoding="UTF-8"?>
<svg width="64px" height="64px" viewBox="0 0 64 64" version="1.1" xmlns="http://www.w3.org/2000/svg" xmlns:xlink="http://www.w3.org/1999/xlink">
    <title>invoice</title>
    <g id="invoice" stroke="none" stroke-width="1" fill="none" fill-rule="evenodd">
        <path d="M40,4 C40.2652165,4 40.5195704,4.10535684 40.7071068,4.29289322 L40.7071068,4.29289322 L51.7071068,15.2928932 C51.8946432,15.4804296 52,15.7347835 52,16 L52,16 L52,59 C52,59.5522847 51.5522847,60 51,60 L51,60 L13,60 C12.4477153,60 12,59.5522847 12,59 L12,59 L12,5 C12,4.44771525 12.4477153,4 13,4 L13,4 Z M37.999,8 L16,8 L16,56 L48,56 L48,18 L40,18 C38.8954305,18 38,17.1045695 38,16 L37.999,8 Z M34.5,26 C35.3284271,26 36,26.6715729 36,27.5 C36,28.3284271 35.3284271,29 34.5,29 L19.5,29 C18.6715729,29 18,28.3284271 18,27.5 C18,26.6715729 18.6715729,26 19.5,26 L34.5,26 Z M44.5,26 C45.3284271,26 46,26.6715729 46,27.5 C46,28.3284271 45.3284271,29 44.5,29 L39.5,29 C38.6715729,29 38,28.3284271 38,27.5 C38,26.6715729 38.6715729,26 39.5,26 L44.5,26 Z M34.5,20 C35.3284271,20 36,20.6715729 36,21.5 C36,22.3284271 35.3284271,23 34.5,23 L19.5,23 C18.6715729,23 18,22.3284271 18,21.5 C18,20.6715729 18.6715729,20 19.5,20 L34.5,20 Z M44.5,20 C45.3284271,20 46,20.6715729 46,21.5 C46,22.3284271 45.3284271,23 44.5,23 L39.5,23 C38.6715729,23 38,22.3284271 38,21.5 C38,20.6715729 38.6715729,20 39.5,20 L44.5,20 Z M26,12 C27.1045695,12 28,12.8954305 28,14 C28,15.1045695 27.1045695,16 26,16 L20,16 C18.8954305,16 18,15.1045695 18,14 C18,12.8954305 18.8954305,12 20,12 L26,12 Z M40.999,9.999 L41,15 L46,15 L40.999,9.999 Z" fill="#000000" fill-rule="nonzero"></path>
        <path d="M32.004,54 C32.42,54 32.768,53.86 33.048,53.58 C33.328,53.3 33.468,52.952 33.468,52.536 L33.468,52.536 L33.468,51.058 L33.482963,51.0548148 C33.8174815,50.9807407 34.1435556,50.8844444 34.4611852,50.7659259 L34.776,50.64 C35.712,50.24 36.468,49.664 37.044,48.912 C37.62,48.16 37.908,47.264 37.908,46.224 C37.908,45.408 37.788,44.716 37.548,44.148 C37.308,43.58 36.948,43.108 36.468,42.732 C35.988,42.356 35.384,42.048 34.656,41.808 C34.344,41.7051429 34.0106939,41.6081633 33.6560816,41.5170612 L33.468,41.471 L33.468,37.034 L33.81,37.152 C33.924,37.194 34.0365,37.238 34.1475,37.284 L34.476,37.428 C34.908,37.628 35.252,37.84 35.508,38.064 C35.7,38.208 35.916,38.28 36.156,38.28 C36.524,38.28 36.844,38.136 37.116,37.848 C37.388,37.56 37.524,37.24 37.524,36.888 C37.524,36.408 37.292,35.984 36.828,35.616 C36.268,35.136 35.544,34.74 34.656,34.428 C34.323,34.311 33.9793125,34.2159375 33.6249375,34.1428125 L33.468,34.114 L33.468,33.24 C33.468,32.8834286 33.3710204,32.5768163 33.1770612,32.3201633 L33.072,32.196 C32.808,31.916 32.468,31.776 32.052,31.776 C31.636,31.776 31.288,31.916 31.008,32.196 C30.728,32.476 30.588,32.824 30.588,33.24 L30.588,33.24 L30.587,34.039 L30.3488889,34.0737778 C29.8961481,34.1496296 29.4623704,34.2634074 29.0475556,34.4151111 L28.74,34.536 C27.828,34.92 27.104,35.48 26.568,36.216 C26.032,36.952 25.764,37.84 25.764,38.88 C25.764,39.568 25.876,40.188 26.1,40.74 C26.324,41.292 26.656,41.772 27.096,42.18 C27.536,42.588 28.084,42.924 28.74,43.188 C29.2085714,43.3765714 29.7302041,43.530449 30.304898,43.6496327 L30.587,43.704 L30.587,48.393 L30.525,48.384 C30.2475,48.336 29.9896875,48.27 29.7515625,48.186 L29.52,48.096 C28.92,47.84 28.316,47.464 27.708,46.968 C27.468,46.776 27.196,46.68 26.892,46.68 C26.492,46.68 26.16,46.82 25.896,47.1 C25.632,47.38 25.5,47.704 25.5,48.072 C25.5,48.296 25.556,48.52 25.668,48.744 C25.78,48.968 25.94,49.168 26.148,49.344 C26.964,50.048 27.82,50.54 28.716,50.82 C29.276,50.995 29.87975,51.1153125 30.52725,51.1809375 L30.587,51.186 L30.588,52.536 C30.588,52.9 30.692125,53.2119375 30.900375,53.4718125 L30.996,53.58 C31.268,53.86 31.604,54 32.004,54 Z M30.587,40.809 L30.5006667,40.7823333 L30.5006667,40.7823333 L30.228,40.692 C29.7,40.508 29.296,40.26 29.016,39.948 C28.736,39.636 28.596,39.24 28.596,38.76 C28.596,38.36 28.716,38.008 28.956,37.704 C29.196,37.4 29.552,37.16 30.024,36.984 C30.1588571,36.9337143 30.3025306,36.8906122 30.4550204,36.8546939 L30.587,36.828 L30.587,40.809 Z M33.468,48.166 L33.468,44.397 L33.490875,44.4054375 C33.906375,44.5891875 34.236375,44.8021875 34.480875,45.0444375 L34.596,45.168 C34.884,45.504 35.028,45.912 35.028,46.392 C35.028,46.792 34.876,47.148 34.572,47.46 C34.268,47.772 33.868,48.02 33.372,48.204 L33.468,48.166 Z" id="$" fill="#000000" fill-rule="nonzero"></path>
    </g>
</svg>