<?xml version="1.0" encoding="UTF-8"?>
<svg width="64px" height="64px" viewBox="0 0 64 64" version="1.1" xmlns="http://www.w3.org/2000/svg" xmlns:xlink="http://www.w3.org/1999/xlink">
    <title>invoice_review</title>
    <g id="invoice_review" stroke="none" stroke-width="1" fill="none" fill-rule="evenodd">
        <path d="M36,4 C36.2652165,4 36.5195704,4.10535684 36.7071068,4.29289322 L36.7071068,4.29289322 L47.7071068,15.2928932 C47.8946432,15.4804296 48,15.7347835 48,16 L48,16 L48.001365,26.5140164 C47.3412137,25.3699619 46.5343956,24.3211922 45.6066017,23.3933983 C45.1053969,22.8921935 44.568888,22.4262929 44.0011251,21.9997466 L44,18 L36,18 C34.8954305,18 34,17.1045695 34,16 L34,8 L12,8 L12,56 L44,56 L44,53.243 L48,57.243 L48,59 C48,59.5128358 47.6139598,59.9355072 47.1166211,59.9932723 L47,60 L9,60 C8.44771525,60 8,59.5522847 8,59 L8,59 L8,5 C8,4.44771525 8.44771525,4 9,4 L9,4 Z M20.1566893,31.823958 C20.0534479,32.5343856 20,33.2609511 20,34 C20,36.7036879 20.7153155,39.2403049 21.9670192,41.4309237 L21.968,41.471 L21.9940223,41.477984 C22.6550266,42.6251495 23.4634423,43.6766457 24.3933983,44.6066017 C25.0126171,45.2258206 25.685723,45.7911525 26.4050782,46.2949597 C26.3946174,47.3050861 26.1067693,48.1772734 25.544,48.912 C24.968,49.664 24.212,50.24 23.276,50.64 L23.276,50.64 L22.9611852,50.7659259 C22.6435556,50.8844444 22.3174815,50.9807407 21.982963,51.0548148 L21.982963,51.0548148 L21.968,51.058 L21.968,52.536 L21.9614375,52.6888125 C21.9308125,53.0379375 21.793,53.335 21.548,53.58 C21.268,53.86 20.92,54 20.504,54 C20.104,54 19.768,53.86 19.496,53.58 L19.496,53.58 L19.400375,53.4718125 C19.192125,53.2119375 19.088,52.9 19.088,52.536 L19.088,52.536 L19.087,51.186 L19.02725,51.1809375 C18.37975,51.1153125 17.776,50.995 17.216,50.82 C16.32,50.54 15.464,50.048 14.648,49.344 C14.44,49.168 14.28,48.968 14.168,48.744 C14.056,48.52 14,48.296 14,48.072 C14,47.704 14.132,47.38 14.396,47.1 C14.66,46.82 14.992,46.68 15.392,46.68 C15.696,46.68 15.968,46.776 16.208,46.968 C16.816,47.464 17.42,47.84 18.02,48.096 L18.02,48.096 L18.2515625,48.186 C18.4896875,48.27 18.7475,48.336 19.025,48.384 L19.025,48.384 L19.087,48.393 L19.087,43.704 L18.804898,43.6496327 C18.2302041,43.530449 17.7085714,43.3765714 17.24,43.188 C16.584,42.924 16.036,42.588 15.596,42.18 C15.156,41.772 14.824,41.292 14.6,40.74 C14.376,40.188 14.264,39.568 14.264,38.88 C14.264,37.84 14.532,36.952 15.068,36.216 C15.604,35.48 16.328,34.92 17.24,34.536 L17.24,34.536 L17.5475556,34.4151111 C17.9623704,34.2634074 18.3961481,34.1496296 18.8488889,34.0737778 L18.8488889,34.0737778 L19.087,34.039 L19.088,33.24 L19.0945625,33.0871875 C19.1251875,32.7380625 19.263,32.441 19.508,32.196 C19.683,32.021 19.8845625,31.9006875 20.1126875,31.8350625 Z M21.968,44.397 L21.968,48.166 L22.0786939,48.1212245 C22.4803265,47.9478367 22.8114286,47.7274286 23.072,47.46 C23.376,47.148 23.528,46.792 23.528,46.392 C23.528,45.912 23.384,45.504 23.096,45.168 L23.096,45.168 L22.980875,45.0444375 C22.736375,44.8021875 22.406375,44.5891875 21.990875,44.4054375 L21.990875,44.4054375 L21.968,44.397 Z M19.087,36.828 L18.9550204,36.8546939 C18.8025306,36.8906122 18.6588571,36.9337143 18.524,36.984 C18.052,37.16 17.696,37.4 17.456,37.704 C17.216,38.008 17.096,38.36 17.096,38.76 C17.096,39.24 17.236,39.636 17.516,39.948 C17.796,40.26 18.2,40.508 18.728,40.692 L18.728,40.692 L19.0006667,40.7823333 L19.087,40.809 L19.087,36.828 Z M22.308687,26.0006882 C21.7180941,26.9357292 21.2279811,27.9405676 20.8535159,29.0000357 L15.5,29 C14.6715729,29 14,28.3284271 14,27.5 C14,26.6715729 14.6715729,26 15.5,26 Z M29.6049486,19.9994771 C27.8125959,20.6906075 26.1863579,21.7160101 24.8026442,22.9992755 L15.5,23 C14.6715729,23 14,22.3284271 14,21.5 C14,20.6715729 14.6715729,20 15.5,20 Z M22,12 C23.1045695,12 24,12.8954305 24,14 C24,15.1045695 23.1045695,16 22,16 L16,16 C14.8954305,16 14,15.1045695 14,14 C14,12.8954305 14.8954305,12 16,12 L22,12 Z M37,10 L37,15 L42,15 L37,10 Z" id="invoice" fill="#000000" fill-rule="nonzero"></path>
        <path d="M35,20 C42.7319865,20 49,26.2680135 49,34 C49,36.550378 48.3180432,38.9414765 47.1265335,41.0008915 L48,41 C48.530433,41 49.0391408,41.2107137 49.4142136,41.5857864 L49.4142136,41.5857864 L59.4142136,51.5857864 C60.1952621,52.366835 60.1952621,53.633165 59.4142136,54.4142136 L59.4142136,54.4142136 L54.4142136,59.4142136 C53.633165,60.1952621 52.366835,60.1952621 51.5857864,59.4142136 L51.5857864,59.4142136 L41.5857864,49.4142136 C41.2107137,49.0391408 41,48.530433 41,48 L41,48 L41.000696,46.652407 C39.1820083,47.5164946 37.1474685,48 35,48 C27.2680135,48 21,41.7319865 21,34 C21,26.2680135 27.2680135,20 35,20 Z M47,45 L45,45 L45,47.17 L53,55.17 L55.17,53 L47,45 Z M35,24 C29.4771525,24 25,28.4771525 25,34 C25,39.5228475 29.4771525,44 35,44 C40.5228475,44 45,39.5228475 45,34 C45,28.4771525 40.5228475,24 35,24 Z M40.5,28.5 C41.1398058,28.5 41.7796115,28.7440776 42.2677669,29.232233 C42.7232243,29.6876904 42.966119,30.2751752 42.9967054,30.8714559 C43.0285256,31.4917874 42.8298906,32.1214057 42.4022564,32.6222877 L35.267767,39.767767 C34.8123096,40.2232243 34.2248248,40.466119 33.6285441,40.4967054 C33.0083421,40.5285189 32.3788571,40.3299735 31.878026,39.9025242 L28.732233,36.7677669 C28.2440776,36.2796115 28,35.6398058 28,35 C28,34.3601942 28.2440776,33.7203885 28.732233,33.232233 C29.1876904,32.7767757 29.7751752,32.533881 30.3714559,32.5032946 C30.9915851,32.4714848 31.6209951,32.6699798 32.1217976,33.0973253 L33.4987535,34.4660044 L38.7322331,29.232233 C39.2203885,28.7440776 39.8601942,28.5 40.5,28.5 Z" id="Combined-Shape" fill="#000000" fill-rule="nonzero"></path>
    </g>
</svg>