<?xml version="1.0" encoding="UTF-8"?>
<svg width="32px" height="32px" viewBox="0 0 32 32" version="1.1" xmlns="http://www.w3.org/2000/svg" xmlns:xlink="http://www.w3.org/1999/xlink">
    <title>ipad</title>
    <g id="ipad" stroke="none" stroke-width="1" fill="none" fill-rule="evenodd">
        <path d="M22,2 C22.4828128,2 22.8857091,2.34216319 22.9794302,2.79723093 C22.1989544,3.04783164 21.5333823,3.45438787 20.9784172,4.00021181 L5,4 L5,27 L21,27 L21,26.207 L21.309243,26.1295979 L21.8847803,26.3579739 L22.2382335,26.4935757 C22.4983405,26.5888231 22.7503786,26.6704565 23.000628,26.7386265 L23,29 C23,29.5522847 22.5522847,30 22,30 L22,30 L4,30 C3.44771525,30 3,29.5522847 3,29 L3,29 L3,3 C3,2.44771525 3.44771525,2 4,2 L4,2 Z M13,27.5 C12.4477153,27.5 12,27.9477153 12,28.5 C12,29.0522847 12.4477153,29.5 13,29.5 C13.5522847,29.5 14,29.0522847 14,28.5 C14,27.9477153 13.5522847,27.5 13,27.5 Z" id="Rectangle" fill="#000000" fill-rule="nonzero"></path>
        <path d="M25,3.5 C25.5960113,3.5 26.0597022,4.01806559 25.9938837,4.61043153 C25.8205432,6.17049622 25.3882345,7.47628557 24.7018929,8.50744789 L24.7070505,8.50675414 L25,8.5 C26.6707526,8.5 28.1219356,9.32924742 29.3,10.9 C29.6313708,11.3418278 29.5418278,11.9686292 29.1,12.3 C28.0184725,13.1111456 27.5,14.1480906 27.5,15.5 C27.5,16.748452 28.2602168,17.7620744 29.9472136,18.6055728 C30.4283101,18.8461211 30.6329438,19.4241329 30.4103665,19.9138029 C28.5820794,23.9360346 26.8933804,26 25,26 C24.0003028,26 23.2055899,25.8092689 22.2536093,25.4284767 L22.2536093,25.4284767 L21.37849,25.081225 L21.2151322,25.0237102 L21.1480118,25.0063061 L21.0974773,24.9998572 L20.9606482,25.0007635 C20.9476438,25.0012981 20.9346801,25.0021384 20.9215403,25.0033612 L20.9215403,25.0033612 L20.838855,25.0159036 C20.824144,25.018964 20.8088234,25.0225606 20.7926765,25.0267703 L20.7926765,25.0267703 L20.6841458,25.0599996 L20.5453803,25.1116303 L20.3659763,25.1853504 L19.552612,25.5393598 C18.799594,25.853176 18.2181508,26 17.5,26 C14.7086327,26 11,21.1202201 11,16 C11,10.839024 13.4949589,8.5 17,8.5 C18.0195404,8.5 19.0283134,8.74519372 20.0218895,9.22699477 C20.22275,5.5493382 21.9097674,3.5 25,3.5 Z M25,10.5 C23.897335,10.5 22.7693317,10.9230012 21.6,11.8 C21.2444444,12.0666667 20.7555556,12.0666667 20.4,11.8 C19.2306683,10.9230012 18.102665,10.5 17,10.5 C14.5717078,10.5 13,11.973476 13,16 C13,18.2658438 13.7464137,20.3294582 14.9836622,21.9574167 C15.9216245,23.1915776 17.0656184,24 17.5,24 C17.9629137,24 18.365217,23.8822527 19.0313615,23.5861885 L19.0313615,23.5861885 L19.4220036,23.4138037 L19.7394146,23.2783071 L19.9995583,23.1754133 C20.2758614,23.0727223 20.4678366,23.0278462 20.6895584,23.0101627 L20.6895584,23.0101627 L20.8895512,23.0009506 L21,23 C21.3605173,23 21.7035431,23.0738825 22.0984451,23.2132597 L22.0984451,23.2132597 L22.248683,23.2698156 L22.9556135,23.5540565 L23.2645926,23.6744042 C23.8741046,23.8972004 24.3799434,24 25,24 C25.5737285,24 26.4436171,23.1177638 27.4690619,21.3101227 L27.4690619,21.3101227 L27.7400055,20.8175436 L28.0174518,20.2828098 L28.2,19.913 L28.0620579,19.8256354 C26.4637646,18.7693738 25.5823215,17.3956783 25.5054925,15.7386431 L25.5054925,15.7386431 L25.5,15.5 C25.5,13.8959901 26.0340018,12.5224609 27.0783541,11.4267147 L27.0783541,11.4267147 L27.094,11.41 L27.0714214,11.3876612 C26.4833409,10.8338911 25.860472,10.5494842 25.1854138,10.5059287 L25.1854138,10.5059287 Z M23.765,5.718 L23.7079242,5.74167784 C22.8777415,6.10966298 22.357634,6.91008725 22.1314601,8.22600187 L22.1314601,8.22600187 L22.108,8.374 L22.1611787,8.33645288 C22.8807614,7.78784705 23.394993,6.99090907 23.7101378,5.91980567 L23.7101378,5.91980567 L23.765,5.718 Z" id="Combined-Shape" fill="#000000" fill-rule="nonzero"></path>
    </g>
</svg>