<?xml version="1.0" encoding="UTF-8"?>
<svg width="32px" height="32px" viewBox="0 0 32 32" version="1.1" xmlns="http://www.w3.org/2000/svg" xmlns:xlink="http://www.w3.org/1999/xlink">
    <title>iphone</title>
    <g id="iphone" stroke="none" stroke-width="1" fill="none" fill-rule="evenodd">
        <path d="M17,4 C17.5522847,4 18,4.44771525 18,5 L18,5 L18.0004653,7.56801419 C17.6679244,7.52266232 17.3343735,7.5 17,7.5 C16.6576571,7.5 16.3239257,7.51954833 15.9996761,7.55873042 L16,6 L6,6 L6,25 L13.6252026,25.0014378 C14.8897721,26.2798495 16.2911069,27 17.5,27 C17.6726172,27 17.8386659,26.9932206 18.0011648,26.979306 L18,27 C18,27.5522847 17.5522847,28 17,28 L17,28 L5,28 C4.44771525,28 4,27.5522847 4,27 L4,27 L4,5 C4,4.44771525 4.44771525,4 5,4 L5,4 Z M11.5,26 L10.5,26 C10.2238576,26 10,26.2238576 10,26.5 C10,26.7761424 10.2238576,27 10.5,27 L10.5,27 L11.5,27 C11.7761424,27 12,26.7761424 12,26.5 C12,26.2238576 11.7761424,26 11.5,26 L11.5,26 Z" id="Rectangle" fill="#000000" fill-rule="nonzero"></path>
        <path d="M25,3.5 C25.5960113,3.5 26.0597022,4.01806559 25.9938837,4.61043153 C25.8205432,6.17049622 25.3882345,7.47628557 24.7018929,8.50744789 L24.7070505,8.50675414 L25,8.5 C26.6707526,8.5 28.1219356,9.32924742 29.3,10.9 C29.6313708,11.3418278 29.5418278,11.9686292 29.1,12.3 C28.0184725,13.1111456 27.5,14.1480906 27.5,15.5 C27.5,16.748452 28.2602168,17.7620744 29.9472136,18.6055728 C30.4283101,18.8461211 30.6329438,19.4241329 30.4103665,19.9138029 C28.5820794,23.9360346 26.8933804,26 25,26 C24.0003028,26 23.2055899,25.8092689 22.2536093,25.4284767 L22.2536093,25.4284767 L21.37849,25.081225 L21.2151322,25.0237102 L21.1480118,25.0063061 L21.0974773,24.9998572 L20.9606482,25.0007635 C20.9476438,25.0012981 20.9346801,25.0021384 20.9215403,25.0033612 L20.9215403,25.0033612 L20.838855,25.0159036 C20.824144,25.018964 20.8088234,25.0225606 20.7926765,25.0267703 L20.7926765,25.0267703 L20.6841458,25.0599996 L20.5453803,25.1116303 L20.3659763,25.1853504 L19.552612,25.5393598 C18.799594,25.853176 18.2181508,26 17.5,26 C14.7086327,26 11,21.1202201 11,16 C11,10.839024 13.4949589,8.5 17,8.5 C18.0195404,8.5 19.0283134,8.74519372 20.0218895,9.22699477 C20.22275,5.5493382 21.9097674,3.5 25,3.5 Z M25,10.5 C23.897335,10.5 22.7693317,10.9230012 21.6,11.8 C21.2444444,12.0666667 20.7555556,12.0666667 20.4,11.8 C19.2306683,10.9230012 18.102665,10.5 17,10.5 C14.5717078,10.5 13,11.973476 13,16 C13,18.2658438 13.7464137,20.3294582 14.9836622,21.9574167 C15.9216245,23.1915776 17.0656184,24 17.5,24 C17.9629137,24 18.365217,23.8822527 19.0313615,23.5861885 L19.0313615,23.5861885 L19.4220036,23.4138037 L19.7394146,23.2783071 L19.9995583,23.1754133 C20.2758614,23.0727223 20.4678366,23.0278462 20.6895584,23.0101627 L20.6895584,23.0101627 L20.8895512,23.0009506 L21,23 C21.3605173,23 21.7035431,23.0738825 22.0984451,23.2132597 L22.0984451,23.2132597 L22.248683,23.2698156 L22.9556135,23.5540565 L23.2645926,23.6744042 C23.8741046,23.8972004 24.3799434,24 25,24 C25.5737285,24 26.4436171,23.1177638 27.4690619,21.3101227 L27.4690619,21.3101227 L27.7400055,20.8175436 L28.0174518,20.2828098 L28.2,19.913 L28.0620579,19.8256354 C26.4637646,18.7693738 25.5823215,17.3956783 25.5054925,15.7386431 L25.5054925,15.7386431 L25.5,15.5 C25.5,13.8959901 26.0340018,12.5224609 27.0783541,11.4267147 L27.0783541,11.4267147 L27.094,11.41 L27.0714214,11.3876612 C26.4833409,10.8338911 25.860472,10.5494842 25.1854138,10.5059287 L25.1854138,10.5059287 Z M23.765,5.718 L23.7079242,5.74167784 C22.8777415,6.10966298 22.357634,6.91008725 22.1314601,8.22600187 L22.1314601,8.22600187 L22.108,8.374 L22.1611787,8.33645288 C22.8807614,7.78784705 23.394993,6.99090907 23.7101378,5.91980567 L23.7101378,5.91980567 L23.765,5.718 Z" id="Combined-Shape" fill="#000000" fill-rule="nonzero"></path>
    </g>
</svg>