<?xml version="1.0" encoding="UTF-8"?>
<svg width="64px" height="64px" viewBox="0 0 64 64" version="1.1" xmlns="http://www.w3.org/2000/svg" xmlns:xlink="http://www.w3.org/1999/xlink">
    <title>irrigation_maintenance</title>
    <g id="irrigation_maintenance" stroke="none" stroke-width="1" fill="none" fill-rule="evenodd">
        <path d="M60,48.0000003 L60,52.0000003 C60,54.2091393 58.209139,56.0000003 56,56.0000003 L8,56.0000003 C5.790861,56.0000003 4,54.2091393 4,52.0000003 L4,32.0000003 L10,32.0000003 L10,39.9160003 L9.98690958,40.110645 C9.67960272,45.1445959 12.6308842,48.0000003 18,48.0000003 L18,48.0000003 L38.6139605,48.0005784 C39.4155035,48.0661502 40.1145195,48.0385944 40.5833552,48.0080608 L40.696,48.0000003 L60,48.0000003 Z M20.7949578,33.3570353 C20.822887,33.3731608 20.8508244,33.3890301 20.8788992,33.4043581 C20.9068663,33.4177557 20.9349493,33.4309072 20.9631471,33.4438036 C22.2219867,34.0195397 23.7156186,34.0896398 24.7791526,34.1020378 L25.1194981,34.1060053 L25.4125489,34.1630954 C25.7977861,34.2381446 26.2873772,35.0448021 27.4261648,36.1448571 C27.7177065,36.4264828 28.0349724,36.7329536 28.3808436,37.0649585 C28.7075433,37.4059736 29.0284642,37.7391025 29.3393492,38.06181 C30.7415384,39.5173225 32.0436996,40.6579647 32.3782068,41.2366565 C32.4152952,42.0949453 32.5330237,43.0853942 32.8023034,44.0004001 L18,44.0000003 L17.7580971,43.9979374 C14.7475821,43.9455229 13.7662209,42.8885382 13.9930915,40.1660913 L13.9930915,40.1660913 L14,40.0000003 L14,32.0000003 L19.1575693,32.0007754 C19.5868211,32.5110836 20.1289196,32.9724839 20.7949578,33.3570353 Z M60,32.0000003 L60,44.0000003 L43.9178633,44.0005347 C44.1165063,43.7193 45.0951254,43.4730646 45.597965,42.0000003 C46.2166606,40.1875365 44.8357813,38.85572 44.3474747,37.9958427 C43.7010403,36.8575121 42.8403049,35.9440403 42.1115243,35.5829307 C42.0367959,35.5459029 41.9566061,35.5112892 41.8711793,35.4792012 L41.7516706,35.4459861 L41.7516706,35.4459861 C40.1799196,35.0156816 38.2182531,34.7969582 38.1622203,34.794187 C38.1443351,34.7991738 36.4854725,33.9160647 36.0612892,33.4487842 C35.6606043,33.0073896 35.2153731,32.5177653 34.7098678,32.000205 L60,32.0000003 Z" id="Rectangle-8" fill="#000000" fill-rule="nonzero"></path>
        <path d="M40.5714286,40.2899651 C40.2924571,40.3742151 43.4285714,42.0149651 43.4285714,42.0149651 C43.4285714,42.0149651 44,41.9367137 44,41.4399651 C44,40.6209693 42.7903356,37.9481461 41.7142857,37.4149651 C40.2924571,37.0257055 38.9865694,36.9079649 37.7142857,36.8399651 C36.5526528,36.9079649 35.4475794,35.0308298 33.1428571,32.8149651 C31.1692456,30.9454679 29.5945576,29.5525168 29.1428571,28.7899651 C28.8211242,27.9122203 29.6314479,25.4119719 28,24.1899651 C26.1472104,22.9630785 23.6848196,22.8067869 22.8571429,23.0399651 C21.8428306,23.8027111 22.1835396,23.9677706 22.2857143,24.1899651 C22.1835396,24.7440793 25.1428571,25.9149651 25.1428571,25.9149651 C25.1428571,25.9149651 25.1256444,28.3649509 23.4285714,28.7899651 C23.6848196,28.829929 21.098152,27.1157315 20.5714286,27.0649651 C20.3836308,27.1157315 20,27.2114828 20,27.6399651 C20.0092467,28.5617642 20.4080825,30.5808742 22.2857143,31.6649651 C23.853,32.3817705 25.8952905,32.0004362 26.2857143,32.2399651 C26.9150331,32.3625646 27.9448827,33.4443235 30.2857143,35.6899651 C32.6084715,38.1153287 34.6452993,40.1451361 34.8571429,40.8649651 C34.9446295,41.0241541 34.6079882,43.8900101 36,44.8899651 C37.7696111,46.3720268 40.3254199,46.0839392 41.1428571,46.0399651 C42.1343059,45.4404013 41.9909528,44.7581743 41.7142857,44.3149651 C41.2298629,44.3186645 38.8571429,43.1649651 38.8571429,43.1649651 C38.8571429,43.1649651 38.7991724,40.8089923 40.5714286,40.2899651 Z" id="wrench" fill="#000000" fill-rule="nonzero" transform="translate(32.000000, 34.519982) rotate(180.000000) translate(-32.000000, -34.519982) "></path>
        <path d="M11,19.0000003 L13,19.0000003 C13.5522847,19.0000003 14,19.4477156 14,20.0000003 L14,20.0000003 L14,20.0000003 C13.3333333,20.0000003 13,20.5000003 13,21.5000003 C13,22.5000003 13.3333333,23.0000003 14,23.0000003 L14,24.0000003 L10,24.0000003 L10,20.0000003 C10,19.4477156 10.4477153,19.0000003 11,19.0000003 Z" id="Rectangle" fill="#000000" fill-rule="nonzero"></path>
        <rect id="Rectangle" fill="#000000" fill-rule="nonzero" x="8" y="24.0000003" width="8" height="4"></rect>
        <rect id="Rectangle-Copy-9" fill="#000000" fill-rule="nonzero" x="9" y="28.0000003" width="6" height="4"></rect>
        <path d="M15.7071068,22.2071071 C16.3927518,21.5214621 17.1083292,20.8625885 17.8538977,20.23045 C18.2751495,19.873287 18.3271037,19.2422572 17.9699407,18.8210054 C17.6127777,18.3997536 16.9817479,18.3477994 16.5604961,18.7049624 C15.7732307,19.3724541 15.0173434,20.0684434 14.2928932,20.7928935 C13.9023689,21.1834178 13.9023689,21.8165828 14.2928932,22.2071071 C14.6834175,22.5976314 15.3165825,22.5976314 15.7071068,22.2071071 Z M20.9610681,17.8683386 C21.7587979,17.3251035 22.584741,16.8067779 23.4389487,16.3133637 C23.9171838,16.0371217 24.0809316,15.4254972 23.8046896,14.9472621 C23.5284477,14.469027 22.9168232,14.3052792 22.4385881,14.5815211 C21.5418583,15.0994972 20.6740934,15.6440684 19.8353446,16.2152365 C19.3788531,16.5260964 19.2607953,17.1481577 19.5716553,17.6046493 C19.8825152,18.0611408 20.5045765,18.1791986 20.9610681,17.8683386 Z M26.9158351,14.5144044 C27.7920607,14.1096392 28.6935729,13.7270888 29.6203982,13.3667721 C30.1351518,13.1666542 30.3902144,12.5871363 30.1900965,12.0723827 C29.9899786,11.5576291 29.4104607,11.3025665 28.8957071,11.5026844 C27.9306553,11.8778623 26.9911158,12.2765493 26.0771151,12.6987644 C25.57574,12.9303705 25.357049,13.5245692 25.5886551,14.0259444 C25.8202612,14.5273195 26.4144599,14.7460105 26.9158351,14.5144044 Z M33.3610527,12.0750241 C34.2866273,11.7929529 35.2342196,11.5302416 36.2038377,11.2869085 C36.7395117,11.152477 37.064783,10.6092492 36.9303515,10.0735752 C36.79592,9.53790123 36.2526922,9.21262991 35.7170182,9.3470614 C34.7153648,9.598434 33.7356963,9.87003812 32.7780209,10.1618921 C32.2497241,10.3228919 31.951971,10.8816771 32.1129708,11.409974 C32.2739706,11.9382708 32.8327559,12.2360238 33.3610527,12.0750241 Z M40.0270087,10.4493902 C40.9810518,10.2691632 41.9541231,10.1057212 42.9462228,9.95907702 C43.4925714,9.87832017 43.870008,9.36995077 43.7892512,8.82360218 C43.7084943,8.2772536 43.2001249,7.89981693 42.6537763,7.98057378 C41.6355286,8.13108297 40.636189,8.29893714 39.6557576,8.48414913 C39.1130713,8.58666729 38.7562444,9.10970888 38.8587626,9.65239523 C38.9612807,10.1950816 39.4843223,10.5519084 40.0270087,10.4493902 Z M46.8836658,9.47515172 C47.8531643,9.379013 48.8391333,9.29745447 49.8415702,9.23048417 C50.3926265,9.19366947 50.8095018,8.71710581 50.7726871,8.16604944 C50.7358724,7.61499307 50.2593087,7.19811783 49.7082524,7.23493253 C48.6846007,7.30332014 47.6772864,7.38664433 46.6863071,7.48491315 C46.1367179,7.53941225 45.7353681,8.02912258 45.7898672,8.57871179 C45.8443663,9.12830099 46.3340766,9.52965082 46.8836658,9.47515172 Z M53.8188253,9.04371811 C54.7956068,9.01645095 55.7867505,9.00193712 56.7922534,9.00018145 C57.3445373,8.99921722 57.7914702,8.55072094 57.790509,7.99843703 C57.7895416,7.44615312 57.3410453,6.99922027 56.7887614,7.00018145 C55.7659382,7.00197041 54.7573575,7.01673958 53.7630164,7.04449692 C53.2109467,7.05990813 52.775899,7.51994228 52.7913102,8.07201197 C52.8067214,8.62408165 53.2667556,9.05912932 53.8188253,9.04371811 Z" id="Path-102" fill="#000000" fill-rule="nonzero"></path>
        <path d="M15.4103647,22.4119218 C16.3144923,22.0050644 17.2216211,21.6192329 18.1317566,21.25442 C18.6443926,21.0489382 18.8933903,20.4667887 18.6879086,19.9541527 C18.4824268,19.4415167 17.9002773,19.192519 17.3876413,19.3980008 C16.4516743,19.7731678 15.5190038,20.169863 14.5896353,20.5880788 C14.085995,20.814717 13.8614403,21.4067247 14.0880785,21.910365 C14.3147166,22.4140053 14.9067243,22.63856 15.4103647,22.4119218 Z M21.8339262,19.8919392 C22.7715261,19.5773699 23.7122885,19.2846961 24.6562222,19.0139118 C25.1870952,18.8616213 25.4939969,18.307808 25.3417065,17.7769351 C25.189416,17.2460621 24.6356027,16.9391604 24.1047298,17.0914508 C23.1323331,17.3704003 22.1633422,17.671856 21.197766,17.9958115 C20.6741648,18.1714823 20.3921114,18.7383543 20.5677822,19.2619555 C20.743453,19.7855567 21.310325,20.06761 21.8339262,19.8919392 Z M28.4955298,18.0371184 C29.4582086,17.8231485 30.424166,17.6315229 31.3934132,17.4622382 C31.9374623,17.3672168 32.3014711,16.8491479 32.2064498,16.3050988 C32.1114284,15.7610497 31.5933595,15.3970408 31.0493104,15.4920622 C30.0499682,15.6666032 29.0540573,15.864171 28.061589,16.0847621 C27.5224607,16.2045915 27.1825518,16.7387823 27.3023812,17.2779107 C27.4222106,17.817039 27.9564015,18.1569479 28.4955298,18.0371184 Z M35.2873288,16.904315 C36.2647278,16.7946618 37.2454558,16.7073123 38.2295248,16.6422671 C38.780607,16.6058415 39.1978186,16.1295723 39.1613931,15.5784901 C39.1249675,15.0274078 38.6486983,14.6101962 38.0976161,14.6466218 C37.0831527,14.7136761 36.0720601,14.8037299 35.06435,14.9167837 C34.5155085,14.9783576 34.1204999,15.4731972 34.1820738,16.0220388 C34.2436477,16.5708804 34.7384872,16.9658889 35.2873288,16.904315 Z M42.1961026,16.5009737 C43.1778861,16.4956543 44.162975,16.5121372 45.1513795,16.5504262 C45.7032503,16.5718046 46.1679607,16.1417556 46.1893392,15.5898847 C46.2107176,15.0380139 45.7806686,14.5733036 45.2287977,14.5519251 C44.211043,14.5124992 43.1965292,14.4955239 42.1852665,14.5010031 C41.6329899,14.5039954 41.187707,14.9541298 41.1906695,15.5064064 C41.1936916,16.0586831 41.643826,16.503966 42.1961026,16.5009737 Z M49.0590071,16.813759 C50.0353582,16.9072857 51.014917,17.0217258 51.9976906,17.157085 C52.5448103,17.2324408 53.0494264,16.8500007 53.1247822,16.302881 C53.200138,15.7557613 52.8176978,15.2511452 52.2705781,15.1757894 C51.2605573,15.0366774 50.2536016,14.9190365 49.2497183,14.8228724 C48.6999501,14.770209 48.2115828,15.173192 48.1589194,15.7229601 C48.106256,16.2727283 48.509239,16.7610955 49.0590071,16.813759 Z M55.9056696,17.8023488 L56.7959171,17.9789613 C57.3370041,18.0896108 57.865341,17.7406723 57.9759905,17.1995854 C58.0866401,16.6584984 57.7377016,16.1301615 57.1966146,16.019512 L56.2832835,15.8383203 C55.7409321,15.7340451 55.2167376,16.0891761 55.1124624,16.6315276 C55.0081872,17.1738791 55.3633182,17.6980736 55.9056696,17.8023488 Z" id="Path-102-Copy" fill="#000000" fill-rule="nonzero"></path>
        <path d="M15.0637002,22.4979694 C16.063508,22.4341519 17.0564277,22.3792118 18.0424589,22.3331482 C18.594142,22.3073757 19.0204767,21.8392554 18.9947041,21.2875723 C18.9689316,20.7358892 18.5008113,20.3095545 17.9491282,20.335327 C16.9516933,20.3819234 15.9474173,20.4374918 14.9362998,20.5020312 C14.3851367,20.5372119 13.9668503,21.0125374 14.0020309,21.5637005 C14.0372115,22.1148636 14.512537,22.53315 15.0637002,22.4979694 Z M22.015487,22.1947262 C23.01662,22.1719645 24.0103714,22.1587086 24.996741,22.1549568 C25.5490218,22.1528565 25.995031,21.7034417 25.9929452,21.151161 C25.99083,20.5988802 25.5414152,20.152871 24.9891344,20.1549568 C23.9900981,20.1587712 22.983729,20.1721954 21.9700268,20.1952429 C21.4178848,20.2077964 20.9804618,20.6655726 20.9930153,21.2177147 C21.0055687,21.7698567 21.4633449,22.2072797 22.015487,22.1947262 Z M28.9741086,22.1922474 C29.974277,22.2150784 30.966534,22.2480893 31.9508797,22.2912785 C32.5026336,22.3154872 32.9695436,21.8878274 32.9937524,21.3360734 C33.0179611,20.7843195 32.5903013,20.3174095 32.0385474,20.2932008 C31.0401453,20.2493949 30.0338799,20.2159179 29.019751,20.1927683 C28.4676101,20.1801644 28.0097941,20.6175457 27.9971902,21.1696866 C27.9845864,21.7218275 28.4219677,22.1796436 28.9741086,22.1922474 Z M35.9275988,22.5242933 C36.9245817,22.5977129 37.913079,22.6820436 38.8930912,22.7772834 C39.4427863,22.830704 39.9317081,22.4283941 39.9851287,21.878699 C40.0385494,21.3290039 39.6362394,20.840082 39.0865443,20.7866614 C38.0909672,20.689909 37.0869471,20.604254 36.0744846,20.5296945 C35.5236913,20.4891331 35.0443037,20.9027577 35.0037423,21.453551 C34.9631809,22.0043443 35.3768055,22.4837319 35.9275988,22.5242933 Z M42.8277084,23.2242038 C43.8180626,23.3533299 44.7993295,23.4941349 45.77151,23.6466163 C46.3171244,23.7321931 46.8288059,23.3592589 46.9143827,22.8136445 C46.9999595,22.2680301 46.6270253,21.7563486 46.0814109,21.6707718 C45.0920928,21.5156024 44.0937179,21.3723426 43.0862873,21.24099 C42.5386379,21.1695854 42.0367955,21.555658 41.9653909,22.1033074 C41.8939863,22.6509568 42.280059,23.1527992 42.8277084,23.2242038 Z M49.6898881,24.3339719 C50.668968,24.5243786 51.6383464,24.7272509 52.5980255,24.9425863 C53.136911,25.063503 53.6717863,24.7246722 53.792703,24.1857867 C53.9136196,23.6469012 53.5747889,23.1120258 53.0359034,22.9911092 C52.057523,22.7715775 51.0694497,22.5647927 50.0716854,22.3707524 C49.5295573,22.265322 49.0046074,22.6193354 48.899177,23.1614635 C48.7937466,23.7035916 49.14776,24.2285415 49.6898881,24.3339719 Z M56.4314238,25.8827577 L56.739091,25.9653637 C57.2722465,26.1094598 57.8212673,25.7940648 57.9653634,25.2609093 C58.1094595,24.7277539 57.7940645,24.178733 57.260909,24.0346369 L56.9468392,23.9503119 C56.413209,23.8079838 55.8652366,24.1251969 55.7229086,24.6588271 C55.5805805,25.1924572 55.8977936,25.7404297 56.4314238,25.8827577 Z" id="Path-102-Copy-2" fill="#000000" fill-rule="nonzero"></path>
    </g>
</svg>