<?xml version="1.0" encoding="UTF-8"?>
<svg width="64px" height="64px" viewBox="0 0 64 64" version="1.1" xmlns="http://www.w3.org/2000/svg" xmlns:xlink="http://www.w3.org/1999/xlink">
    <title>items</title>
    <g id="items" stroke="none" stroke-width="1" fill="none" fill-rule="evenodd">
        <path d="M52,8 C54.209139,8 56,9.790861 56,12 L56,16 C56,18.209139 54.209139,20 52,20 L28,20 C25.790861,20 24,18.209139 24,16 L24,12 C24,9.790861 25.790861,8 28,8 L52,8 Z M52,12 L28,12 L28,16 L52,16 L52,12 Z" id="Rectangle-Copy-5" fill="#000000" fill-rule="nonzero"></path>
        <path d="M16.4,8 C18.3882251,8 20,9.6117749 20,11.6 L20,16.4 C20,18.3882251 18.3882251,20 16.4,20 L11.6,20 C9.6117749,20 8,18.3882251 8,16.4 L8,11.6 C8,9.6117749 9.6117749,8 11.6,8 L16.4,8 Z M16,12 L12,12 L12,16 L16,16 L16,12 Z" id="Rectangle" fill="#000000" fill-rule="nonzero"></path>
        <path d="M52,26 C54.209139,26 56,27.790861 56,30 L56,34 C56,36.209139 54.209139,38 52,38 L28,38 C25.790861,38 24,36.209139 24,34 L24,30 C24,27.790861 25.790861,26 28,26 L52,26 Z M52,30 L28,30 L28,34 L52,34 L52,30 Z" id="Rectangle-Copy-6" fill="#000000" fill-rule="nonzero"></path>
        <path d="M16.4,26 C18.3882251,26 20,27.6117749 20,29.6 L20,34.4 C20,36.3882251 18.3882251,38 16.4,38 L11.6,38 C9.6117749,38 8,36.3882251 8,34.4 L8,29.6 C8,27.6117749 9.6117749,26 11.6,26 L16.4,26 Z M16,30 L12,30 L12,34 L16,34 L16,30 Z" id="Rectangle-Copy" fill="#000000" fill-rule="nonzero"></path>
        <path d="M52,44 C54.209139,44 56,45.790861 56,48 L56,52 C56,54.209139 54.209139,56 52,56 L28,56 C25.790861,56 24,54.209139 24,52 L24,48 C24,45.790861 25.790861,44 28,44 L52,44 Z M52,48 L28,48 L28,52 L52,52 L52,48 Z" id="Rectangle-Copy-7" fill="#000000" fill-rule="nonzero"></path>
        <path d="M16.4,44 C18.3882251,44 20,45.6117749 20,47.6 L20,52.4 C20,54.3882251 18.3882251,56 16.4,56 L11.6,56 C9.6117749,56 8,54.3882251 8,52.4 L8,47.6 C8,45.6117749 9.6117749,44 11.6,44 L16.4,44 Z M16,48 L12,48 L12,52 L16,52 L16,48 Z" id="Rectangle-Copy-2" fill="#000000" fill-rule="nonzero"></path>
    </g>
</svg>