<?xml version="1.0" encoding="UTF-8"?>
<svg width="64px" height="64px" viewBox="0 0 64 64" version="1.1" xmlns="http://www.w3.org/2000/svg" xmlns:xlink="http://www.w3.org/1999/xlink">
    <title>job</title>
    <g id="job" stroke="none" stroke-width="1" fill="none" fill-rule="evenodd">
        <path d="M38,6 C41.2383969,6 43.8775718,8.56557489 43.9958615,11.7750617 L44,12 L44,15 L56,15 C58.1421954,15 59.8910789,16.6839685 59.9951047,18.8003597 L60,19 L60,54 C60,56.209139 58.209139,58 56,58 L56,58 L8,58 C5.790861,58 4,56.209139 4,54 L4,54 L4,19 C4,16.790861 5.790861,15 8,15 L8,15 L20,15 L20,12 C20,8.76160306 22.5655749,6.12242824 25.7750617,6.00413847 L26,6 L38,6 Z M7.99995605,32.2458732 L8,54 L56,54 L56.0007356,32.3170062 C54.3853023,33.4274964 52.4065275,34 50.1026334,34 L50.1026334,34 L38,34 L38,35 C38,36.5976809 36.75108,37.9036609 35.1762728,37.9949073 L35,38 L29,38 C27.3431458,38 26,36.6568542 26,35 L26,35 L26,34 L14,34 C11.6474119,34 9.63383149,33.4030403 7.99995605,32.2458732 Z M34,30 L30,30 L30,34 L34,34 L34,30 Z M56,19 L8,19 L8.00065565,25.6645638 C9.05103075,28.5604366 10.8574968,29.9141595 13.7193743,29.9960376 L14,30 L26,30 L26,29 C26,27.4023191 27.24892,26.0963391 28.8237272,26.0050927 L29,26 L35,26 C36.6568542,26 38,27.3431458 38,29 L38,29 L38,30 L50.1026334,30 L50.3832591,29.9960376 C53.1546522,29.9167482 54.936317,28.644767 56.0000712,25.9346253 L56,19 Z M38,10 L26,10 C24.9456382,10 24.0818349,10.8158778 24.0054857,11.8507377 L24,12 L24,15 L40,15 L40,12 C40,10.9456382 39.1841222,10.0818349 38.1492623,10.0054857 L38,10 Z" id="Combined-Shape" fill="#000000" fill-rule="nonzero"></path>
    </g>
</svg>