<?xml version="1.0" encoding="UTF-8"?>
<svg width="64px" height="64px" viewBox="0 0 64 64" version="1.1" xmlns="http://www.w3.org/2000/svg" xmlns:xlink="http://www.w3.org/1999/xlink">
    <title>job_plan_history</title>
    <g id="job_plan_history" stroke="none" stroke-width="1" fill="none" fill-rule="evenodd">
        <path d="M31,4 C37.0842824,4 42.4220323,7.19628573 45.4257278,12.0013353 L45.5,12 C53.5081289,12 60,18.7157288 60,27 C60,32.445231 57.1952518,37.2127888 52.9987243,39.8409814 C52.9875898,38.2583214 52.8009518,36.7183846 52.4578568,35.2384133 C54.5617094,33.2867867 55.9161949,30.4615418 55.996245,27.2972136 L56,27 C56,20.9935591 51.4194886,16.1582209 45.846755,16.0031893 L45.5719019,15.9993537 L43.2339843,16.0413857 L42.0339058,14.1216049 C39.6705274,10.3408787 35.5389441,8 31,8 C24.198075,8 18.5737144,13.2402208 18.0410591,19.9533118 L18.0201047,20.2641788 L17.8280528,23.7243993 L14.3757616,24.02721 C10.7836973,24.3422806 8,27.3654481 8,31 C8,33.4656095 9.2811931,35.6502787 11.2271489,36.8986263 C11.0776563,37.9100432 11,38.9459528 11,40 C11,40.4247281 11.0126089,40.8465112 11.0374729,41.2649954 C6.92084708,39.6749338 4,35.6785671 4,31 C4,25.2530046 8.40722066,20.5353708 14.0262516,20.0425089 C14.522612,11.0995259 21.9322144,4 31,4 Z" id="Path" fill="#000000" fill-rule="nonzero"></path>
        <path d="M39.7113943,15.9461651 C40.3290617,16.8618948 40.0874345,18.1049587 39.1717049,18.7226261 L36.3016031,20.659202 C45.7583418,22.2480594 52.9635836,30.473536 52.9635836,40.3818871 C52.9635836,51.4275821 44.0092786,60.3818871 32.9635836,60.3818871 C21.9178886,60.3818871 12.9635836,51.4275821 12.9635836,40.3818871 C12.9635836,35.4067254 14.7896336,30.7102323 18.0348538,27.0724798 C18.7701648,26.2482277 20.0344405,26.1761268 20.8586926,26.9114378 C21.6829447,27.6467488 21.7550456,28.9110245 21.0197346,29.7352766 C18.4221589,32.6470473 16.9635836,36.3984172 16.9635836,40.3818871 C16.9635836,49.2184431 24.1270276,56.3818871 32.9635836,56.3818871 C41.8001396,56.3818871 48.9635836,49.2184431 48.9635836,40.3818871 C48.9635836,32.3320526 43.0188869,25.6706764 35.2800884,24.5483536 L37.4216863,27.7256913 C38.0068449,28.5932247 37.8207807,29.7545428 37.0209569,30.3995676 L36.881997,30.5021523 C35.9662674,31.1198197 34.7232035,30.8781926 34.105536,29.962463 L29.3606269,22.9278459 C28.7429595,22.0121163 28.9845866,20.7690524 29.9003162,20.1513849 L36.9349333,15.4064758 C37.8506629,14.7888084 39.0937268,15.0304355 39.7113943,15.9461651 Z" id="Combined-Shape" fill="#000000" fill-rule="nonzero" transform="translate(32.9636, 37.7231) rotate(23) translate(-32.9636, -37.7231)"></path>
        <path d="M32,30 C33.1045695,30 34,30.8954305 34,32 L34,40.929 L39.1094004,44.3358994 C39.9825049,44.9179691 40.250294,46.0677417 39.7495722,46.9692406 L39.6641006,47.1094004 C39.0513957,48.0284578 37.809657,48.2768055 36.8905996,47.6641006 L30.8905996,43.6641006 C30.3342023,43.293169 30,42.6687064 30,42 L30,32 C30,30.8954305 30.8954305,30 32,30 Z" id="Path-294" fill="#000000" fill-rule="nonzero"></path>
    </g>
</svg>