<?xml version="1.0" encoding="UTF-8"?>
<svg width="64px" height="64px" viewBox="0 0 64 64" version="1.1" xmlns="http://www.w3.org/2000/svg" xmlns:xlink="http://www.w3.org/1999/xlink">
    <title>job_plan</title>
    <g id="job_plan" stroke="none" stroke-width="1" fill="none" fill-rule="evenodd">
        <path d="M31,4 C37.0842824,4 42.4220323,7.19628573 45.4257278,12.0013353 L45.5,12 C53.5081289,12 60,18.7157288 60,27 C60,31.5246911 58.0634035,35.5814688 55.0008924,38.3316965 L55,32 C55,31.9009406 54.9979424,31.8023618 54.9938675,31.704304 C55.6007105,30.3636985 55.9563946,28.8724723 55.996245,27.2972136 L56,27 C56,20.9935591 51.4194886,16.1582209 45.846755,16.0031893 L45.5719019,15.9993537 L43.2339843,16.0413857 L42.0339058,14.1216049 C39.6705274,10.3408787 35.5389441,8 31,8 C24.198075,8 18.5737144,13.2402208 18.0410591,19.9533118 L18.0201047,20.2641788 L17.8280528,23.7243993 L14.3757616,24.02721 C10.7836973,24.3422806 8,27.3654481 8,31 C8,32.3150326 8.36445089,33.5501483 8.99982919,34.6059141 L9.00057136,40.2214418 C5.99004252,38.258798 4,34.8617987 4,31 C4,25.2530046 8.40722066,20.5353708 14.0262516,20.0425089 C14.522612,11.0995259 21.9322144,4 31,4 Z" id="Path" fill="#000000" fill-rule="nonzero"></path>
        <path d="M48,26 C51.3137085,26 54,28.6862915 54,32 L54,54 C54,57.3137085 51.3137085,60 48,60 L16,60 C12.6862915,60 10,57.3137085 10,54 L10,32 C10,28.6862915 12.6862915,26 16,26 L48,26 Z M48,30 L16,30 C14.8954305,30 14,30.8954305 14,32 L14,54 C14,55.1045695 14.8954305,56 16,56 L48,56 C49.1045695,56 50,55.1045695 50,54 L50,32 C50,30.8954305 49.1045695,30 48,30 Z" id="Rectangle" fill="#000000" fill-rule="nonzero"></path>
        <rect id="Rectangle" fill="#000000" x="28" y="33" width="20" height="4" rx="2"></rect>
        <rect id="Rectangle-Copy-2" fill="#000000" x="28" y="41" width="20" height="4" rx="2"></rect>
        <rect id="Rectangle-Copy-3" fill="#000000" x="28" y="49" width="20" height="4" rx="2"></rect>
        <path d="M21.4,31.8 C22.0627417,30.9163444 23.3163444,30.7372583 24.2,31.4 C25.0836556,32.0627417 25.2627417,33.3163444 24.6,34.2 L21.6,38.2 C20.8697408,39.173679 19.4464052,39.2748323 18.5857864,38.4142136 L16.5857864,36.4142136 C15.8047379,35.633165 15.8047379,34.366835 16.5857864,33.5857864 C17.366835,32.8047379 18.633165,32.8047379 19.4142136,33.5857864 L19.784,33.955 L21.4,31.8 Z" id="Path-292" fill="#000000" fill-rule="nonzero"></path>
        <path d="M21.4,39.8 C22.0627417,38.9163444 23.3163444,38.7372583 24.2,39.4 C25.0836556,40.0627417 25.2627417,41.3163444 24.6,42.2 L21.6,46.2 C20.8697408,47.173679 19.4464052,47.2748323 18.5857864,46.4142136 L16.5857864,44.4142136 C15.8047379,43.633165 15.8047379,42.366835 16.5857864,41.5857864 C17.366835,40.8047379 18.633165,40.8047379 19.4142136,41.5857864 L19.784,41.955 L21.4,39.8 Z" id="Path-292-Copy" fill="#000000" fill-rule="nonzero"></path>
        <rect id="Rectangle" fill="#000000" x="17" y="48" width="6" height="6" rx="2"></rect>
    </g>
</svg>