<?xml version="1.0" encoding="UTF-8"?>
<svg width="64px" height="64px" viewBox="0 0 64 64" version="1.1" xmlns="http://www.w3.org/2000/svg" xmlns:xlink="http://www.w3.org/1999/xlink">
    <title>job_plan_scheduled</title>
    <g id="job_plan_scheduled" stroke="none" stroke-width="1" fill="none" fill-rule="evenodd">
        <path d="M31,4 C37.0842824,4 42.4220323,7.19628573 45.4257278,12.0013353 L45.5,12 C53.5081289,12 60,18.7157288 60,27 C60,31.5246911 58.0634035,35.5814688 55.0008924,38.3316965 L55,32 C55,31.9009406 54.9979424,31.8023618 54.9938675,31.704304 C55.6007105,30.3636985 55.9563946,28.8724723 55.996245,27.2972136 L56,27 C56,20.9935591 51.4194886,16.1582209 45.846755,16.0031893 L45.5719019,15.9993537 L43.2339843,16.0413857 L42.0339058,14.1216049 C39.6705274,10.3408787 35.5389441,8 31,8 C24.198075,8 18.5737144,13.2402208 18.0410591,19.9533118 L18.0201047,20.2641788 L17.8280528,23.7243993 L14.3757616,24.02721 C10.7836973,24.3422806 8,27.3654481 8,31 C8,32.3150326 8.36445089,33.5501483 8.99982919,34.6059141 L9.00057136,40.2214418 C5.99004252,38.258798 4,34.8617987 4,31 C4,25.2530046 8.40722066,20.5353708 14.0262516,20.0425089 C14.522612,11.0995259 21.9322144,4 31,4 Z" id="Path" fill="#000000" fill-rule="nonzero"></path>
        <path d="M19,26 L19,30 L16,30 C14.8954305,30 14,30.8954305 14,32 L14,54 C14,55.1045695 14.8954305,56 16,56 L48,56 C49.1045695,56 50,55.1045695 50,54 L50,32 C50,30.8954305 49.1045695,30 48,30 L45,30 L45,26 L48,26 C51.3137085,26 54,28.6862915 54,32 L54,54 C54,57.3137085 51.3137085,60 48,60 L16,60 C12.6862915,60 10,57.3137085 10,54 L10,32 C10,28.6862915 12.6862915,26 16,26 L19,26 Z M39,30 L25,30 L25,26 L39,26 L39,30 Z" id="Rectangle" fill="#000000" fill-rule="nonzero"></path>
        <rect id="Rectangle" fill="#000000" x="20" y="24" width="4" height="8" rx="2"></rect>
        <rect id="Rectangle-Copy-2" fill="#000000" x="40" y="24" width="4" height="8" rx="2"></rect>
        <path d="M32,31 C38.627417,31 44,36.372583 44,43 C44,49.627417 38.627417,55 32,55 C25.372583,55 20,49.627417 20,43 C20,36.372583 25.372583,31 32,31 Z M32,35 C27.581722,35 24,38.581722 24,43 C24,47.418278 27.581722,51 32,51 C36.418278,51 40,47.418278 40,43 C40,38.581722 36.418278,35 32,35 Z" id="Oval" fill="#000000" fill-rule="nonzero"></path>
        <path d="M32,36 C33.0543618,36 33.9181651,36.8158778 33.9945143,37.8507377 L34,38 L34,42.171 L36.4142136,44.5857864 C37.1541543,45.3257272 37.1930986,46.5012114 36.5310463,47.2869988 L36.4142136,47.4142136 C35.6742728,48.1541543 34.4987886,48.1930986 33.7130012,47.5310463 L33.5857864,47.4142136 L30.5857864,44.4142136 C30.2523884,44.0808156 30.0488544,43.6418293 30.0077406,43.1758528 L30,43 L30,38 C30,36.8954305 30.8954305,36 32,36 Z" id="Path-36" fill="#000000" fill-rule="nonzero"></path>
    </g>
</svg>