<?xml version="1.0" encoding="UTF-8"?>
<svg width="64px" height="64px" viewBox="0 0 64 64" version="1.1" xmlns="http://www.w3.org/2000/svg" xmlns:xlink="http://www.w3.org/1999/xlink">
    <title>job_plan_single_click</title>
    <g id="job_plan_single_click" stroke="none" stroke-width="1" fill="none" fill-rule="evenodd">
        <path d="M31,4 C37.0842824,4 42.4220323,7.19628573 45.4257278,12.0013353 L45.5,12 C53.5081289,12 60,18.7157288 60,27 C60,31.5246911 58.0634035,35.5814688 55.0008924,38.3316965 L55,32 C55,31.9009406 54.9979424,31.8023618 54.9938675,31.704304 C55.6007105,30.3636985 55.9563946,28.8724723 55.996245,27.2972136 L56,27 C56,20.9935591 51.4194886,16.1582209 45.846755,16.0031893 L45.5719019,15.9993537 L43.2339843,16.0413857 L42.0339058,14.1216049 C39.6705274,10.3408787 35.5389441,8 31,8 C24.198075,8 18.5737144,13.2402208 18.0410591,19.9533118 L18.0201047,20.2641788 L17.8280528,23.7243993 L14.3757616,24.02721 C10.7836973,24.3422806 8,27.3654481 8,31 C8,32.3150326 8.36445089,33.5501483 8.99982919,34.6059141 L9.00057136,40.2214418 C5.99004252,38.258798 4,34.8617987 4,31 C4,25.2530046 8.40722066,20.5353708 14.0262516,20.0425089 C14.522612,11.0995259 21.9322144,4 31,4 Z" id="Path" fill="#000000" fill-rule="nonzero"></path>
        <path d="M48,26 C51.3137085,26 54,28.6862915 54,32 L54,54 C54,57.3137085 51.3137085,60 48,60 L16,60 C12.6862915,60 10,57.3137085 10,54 L10,32 C10,28.6862915 12.6862915,26 16,26 L48,26 Z M48,30 L16,30 C14.8954305,30 14,30.8954305 14,32 L14,54 C14,55.1045695 14.8954305,56 16,56 L48,56 C49.1045695,56 50,55.1045695 50,54 L50,32 C50,30.8954305 49.1045695,30 48,30 Z" id="Rectangle" fill="#000000" fill-rule="nonzero"></path>
        <path d="M23.3752374,31.8565617 C23.1288629,29.4420914 25.8690893,27.885672 27.8166717,29.3338742 L43.2344914,40.7984068 C45.1745703,42.2410296 44.4872993,45.3001275 42.116279,45.7743315 L40.1995087,46.1566248 L41.5447671,48.2493232 C42.2968338,49.4192048 42.0677708,50.9492949 41.0437997,51.851112 L40.9057455,51.9650961 L40.8099927,52.0347371 L40.7320964,52.0879385 L40.6331075,52.1513614 L36.6798204,54.5233337 C35.3108123,55.3447385 33.5329996,54.8523129 32.7817021,53.44363 L31.5705087,51.1726248 L30.2719646,52.7309139 C28.811185,54.4838494 26.0192685,53.8264733 25.4384296,51.6921045 L25.3981705,51.5250248 L25.3789661,51.4199505 L25.3652389,51.3315572 L25.3518809,51.2276685 L23.3752374,31.8565617 Z M27.6335087,34.1826248 L29.0385087,47.9616248 L30.4003218,46.3289623 C31.2755515,45.2787624 32.9067306,45.4041606 33.6229338,46.5334467 L33.701417,46.6681943 L35.7115087,50.4386248 L37.5055087,49.3626248 L35.2489006,45.8523715 C34.5140094,44.7091043 35.1112167,43.1983078 36.3940556,42.8442085 L36.539382,42.8097016 L38.6645087,42.3846248 L27.6335087,34.1826248 Z" id="Path" fill="#000000" fill-rule="nonzero" transform="translate(33.8608, 41.8486) rotate(-19) translate(-33.8608, -41.8486)"></path>
    </g>
</svg>