<svg xmlns="http://www.w3.org/2000/svg" width="32" height="32" viewBox="0 0 32 32">
  <path d="M17,10.106 L16.6509975,10.1521793 C6.99093631,11.4694248 2,16.4733087 2,25 C2,26.0552244 3.42251648,26.391035 3.89442719,25.4472136 L4.02859399,25.1877784 C6.08804283,21.3358841 10.2611199,19.2678145 16.6851422,19.0243523 L17,19.014 L17,25 C17,25.8681423 18.0302995,26.3239158 18.6726728,25.7399401 L29.6726728,15.7399401 C30.1091091,15.3431798 30.1091091,14.6568202 29.6726728,14.2600599 L18.6726728,4.26005993 C18.0302995,3.67608421 17,4.13185769 17,5 L17,10.106 Z M19,7.26 L27.514,15 L19,22.739 L19,18 C19,17.4477153 18.5522847,17 18,17 L17.5493927,17.0026704 C11.7283703,17.0721051 7.34600364,18.4957864 4.47293108,21.2946936 L4.389,21.377 L4.42974062,21.2079199 C5.76982621,15.8155575 10.2585814,12.7791294 18.0995037,11.9950372 C18.6107055,11.943917 19,11.5137514 19,11 L19,7.26 Z"/>
</svg>
