<?xml version="1.0" encoding="UTF-8"?>
<svg width="64px" height="64px" viewBox="0 0 64 64" version="1.1" xmlns="http://www.w3.org/2000/svg" xmlns:xlink="http://www.w3.org/1999/xlink">
    <title>justice</title>
    <g id="justice" stroke="none" stroke-width="1" fill="none" fill-rule="evenodd">
        <path d="M50,8 C50.0625877,8 50.1245039,8.00287491 50.1856238,8.00849986 C50.8385651,8.06677142 51.4659042,8.43510715 51.7938857,9.11328824 C51.8256179,9.17882061 51.8542522,9.24553768 51.8792516,9.31400412 L51.8795868,9.31651387 L59.8795868,31.3165139 C60.145138,32.0467796 59.9636703,32.8647568 59.4142136,33.4142136 C57.6102016,35.2182255 54.4831037,36 50,36 C45.5168963,36 42.3897984,35.2182255 40.5857864,33.4142136 C40.0363297,32.8647568 39.854862,32.0467796 40.1204132,31.3165139 L40.1204132,31.3165139 L47.1439433,12 L33.9999433,12 L33.9999433,43.171 L43.4142136,52.5857864 C44.6370865,53.8086594 43.8324381,55.8740511 42.154878,55.9944869 L42,56 L22,56 C20.2705965,56 19.3791164,53.9705752 20.4801695,52.6992001 L20.5857864,52.5857864 L29.9999433,43.17 L29.9999433,12 L16.8549433,12 L23.8795868,31.3165139 C24.1261701,31.9946178 23.9873136,32.7483504 23.526293,33.2924926 L23.4142136,33.4142136 C21.6102016,35.2182255 18.4831037,36 14,36 C9.5168963,36 6.3897984,35.2182255 4.58578644,33.4142136 C4.0755766,32.9040037 3.88266343,32.1622635 4.07032266,31.4742121 L4.12041315,31.3165139 L12.1204132,9.31651387 C12.1206641,9.31582388 12.1209153,9.31513415 12.1211667,9.3144447 C12.1457478,9.24553768 12.1743821,9.17882061 12.2064177,9.11408647 C12.5315721,8.44032545 13.1517984,8.07245812 13.7995199,8.00968625 C13.8652947,8.00336832 13.932254,8 14,8 L50,8 Z M32,46.83 L26.828,52 L37.17,52 L32,46.83 Z M14,15.85 L8.412,31.212 L8.52322203,31.2601001 C9.52423127,31.6597737 11.0160951,31.9189432 12.9914649,31.9839309 L13.3929834,31.9943234 L14,32 C16.3364847,32 18.0944778,31.7565562 19.2643261,31.34018 L19.476778,31.2601001 L19.586,31.212 L14,15.85 Z M50,15.85 L44.412,31.212 L44.523222,31.2601001 C45.5909652,31.6864186 47.2171918,31.9528746 49.3929834,31.9943234 L49.3929834,31.9943234 L50,32 C52.482515,32 54.3119672,31.7251748 55.476778,31.2601001 L55.476778,31.2601001 L55.586,31.212 L50,15.85 Z" id="Combined-Shape" fill="#000000" fill-rule="nonzero"></path>
    </g>
</svg>