<?xml version="1.0" encoding="UTF-8"?>
<svg width="64px" height="64px" viewBox="0 0 64 64" version="1.1" xmlns="http://www.w3.org/2000/svg" xmlns:xlink="http://www.w3.org/1999/xlink">
    <title>k9_inspection</title>
    <g id="k9_inspection" stroke="none" stroke-width="1" fill="none" fill-rule="evenodd">
        <path d="M58.3048107,19.15271 C58.607423,16.9731445 55.6156018,17.7409668 54.4865734,16.8549805 C53.3575451,15.9689941 53.6973889,13.6778564 48.8872082,13.2884521 C44.0770275,12.8990479 41.7927246,18.1962891 40.5175781,19.7756348 C39.2424316,21.3549805 36.1339104,24.4915771 33.1846916,24.8607178 C30.2354729,25.2298584 20.3206789,26.1661377 19.9165041,25.8409424 C19.5123293,25.5157471 19.7631838,22.586792 20.1959231,20.7247314 C20.6286623,18.8626709 20.9635012,19.392334 20.9635012,15.0432129 C20.9635012,10.6940918 18.6025393,9.41894532 18.3245852,9.77978516 C18.0466311,10.140625 18.3245852,12.8807373 18.3245852,15.315918 C18.3245852,17.7510986 16.5820313,19.8764648 16.2910156,21.9382324 C16,24 15.9296877,29.1348871 15.9296877,29.1348871 C15.9296877,29.1348871 14.4150393,30.6401362 13.1997072,32.9548334 C11.9843752,35.2695307 12.4854741,36.0010981 11.7441408,38.3728022 C11.0028076,40.7445063 7.26965331,44.164308 6.85461425,44.7724623 C6.43957519,45.3806166 5.53417969,50.6354994 5.93310546,52.1416029 C6.33203123,53.6477064 7.59179686,54.2092299 8.73950191,54.2092299 C9.88720697,54.2092299 10.3348388,53.494264 10.0552978,52.5189222 C9.7757568,51.5435804 9.17358397,51.4367689 9.17358394,50.8801283 C9.17358392,50.3234877 8.84777831,48.6163343 9.36340328,47.6448988 C9.87902826,46.6734633 12.1237793,44.9287123 12.1237793,44.9287123 C12.1237793,44.9287123 12.0286863,48.3808607 12.329956,49.6647963 C12.6312258,50.9487318 13.2877195,52.291017 14.5655517,52.291017 C15.843384,52.291017 16.443115,51.8854994 16.4431152,51.0468763 C16.4431154,50.2082533 15.2812498,49.2075195 15.28125,48.2229004 C15.2812502,47.2382812 15.4012451,45.9484877 16.7265625,44.7724623 C18.0518798,43.5964369 19.7305908,42.5747084 20.7059326,41.4447016 C21.6812744,40.3146948 23.6829114,37.9216882 24.4814453,37.6689453 C25.3037102,37.4086914 27.7423105,37.1291498 29.2712411,38.0081781 C30.8001718,38.8872065 32.0322282,39.5468744 33.4431161,39.9999994 C34.8540041,40.4531244 36.3176279,40.6219477 36.3176279,40.6219477 C36.3176279,40.6219477 36.7351082,42.3066406 36.7351074,44.7724609 C36.7351067,47.2382812 37.4052742,49.9040527 37.7958984,50.817627 C38.1865227,51.7312012 37.9045389,53.7446302 39.6408681,53.7446302 C41.3771974,53.7446302 42.0461416,53.4581312 41.4914541,51.9510511 C40.9367666,50.4439711 40.5175771,51.3225111 40.3748769,48.4656996 C40.2321767,45.6088881 40.5175771,44.7724623 40.5175771,44.7724623 C40.5175771,44.7724623 41.4588613,47.1879896 41.7626943,49.6647963 C42.0665273,52.1416029 43.8897695,52.9960951 45.2055654,52.291017 C46.5213613,51.5859388 44.977659,50.4971937 44.2830801,48.7764906 C43.5885012,47.0557875 45.1503885,39.9100336 45.4812002,38.763061 C45.8120119,37.6160883 47.0109852,37.6230469 47.8530273,35.4577637 C48.6950695,33.2924805 48.0789807,30.4240723 48.8872082,27.2120361 C49.6954357,24 48.9007568,22.8446045 50.4798596,22.586792 C52.0589623,22.3289795 53.4400635,23.1179199 55.4940197,22.847168 C57.547976,22.576416 58.0021984,21.3322754 58.3048107,19.15271 Z" id="Path-15" fill="#000000" fill-rule="nonzero"></path>
    </g>
</svg>