<?xml version="1.0" encoding="UTF-8"?>
<svg width="64px" height="64px" viewBox="0 0 64 64" version="1.1" xmlns="http://www.w3.org/2000/svg" xmlns:xlink="http://www.w3.org/1999/xlink">
    <title>key</title>
    <g id="key" stroke="none" stroke-width="1" fill="none" fill-rule="evenodd">
        <path d="M46,4 C53.7319865,4 60,10.2680135 60,18 C60,25.7319865 53.7319865,32 46,32 C42.8555027,32 39.953138,30.9633069 37.6160433,29.213058 L21.036,45.793 L23.5355339,48.2928932 C24.3165825,49.0739418 24.3165825,50.3402718 23.5355339,51.1213203 L22.1213203,52.5355339 C21.3402718,53.3165825 20.0739418,53.3165825 19.2928932,52.5355339 L16.793,50.036 L15.036,51.793 L17.5355339,54.2928932 C18.3165825,55.0739418 18.3165825,56.3402718 17.5355339,57.1213203 L16.1213203,58.5355339 C15.3402718,59.3165825 14.0739418,59.3165825 13.2928932,58.5355339 L10.793,56.036 L9.41421356,57.4142136 C8.63316498,58.1952621 7.36683502,58.1952621 6.58578644,57.4142136 C5.80473785,56.633165 5.80473785,55.366835 6.58578644,54.5857864 L34.786942,26.3839567 C33.0366931,24.046862 32,21.1444973 32,18 C32,10.2680135 38.2680135,4 46,4 Z M46,8 C40.4771525,8 36,12.4771525 36,18 C36,23.5228475 40.4771525,28 46,28 C51.5228475,28 56,23.5228475 56,18 C56,12.4771525 51.5228475,8 46,8 Z" id="Combined-Shape" fill="#000000" fill-rule="nonzero"></path>
    </g>
</svg>