<?xml version="1.0" encoding="UTF-8"?>
<svg width="64px" height="64px" viewBox="0 0 64 64" version="1.1" xmlns="http://www.w3.org/2000/svg" xmlns:xlink="http://www.w3.org/1999/xlink">
    <title>label_bottom</title>
    <g id="label_bottom" stroke="none" stroke-width="1" fill="none" fill-rule="evenodd">
        <rect id="Rectangle-52" fill="#000000" fill-rule="nonzero" x="24" y="19" width="16" height="16"></rect>
        <path d="M21.8880185,45.0649237 C23.0881764,43.8635242 23.6934238,43.5 24.9927657,43.5 C26.2921075,43.5 26.897355,43.8635242 28.0975128,45.0649237 C29.5196421,46.4885242 30.3712208,47 31.9855313,47 C33.5998418,47 34.4514206,46.4885242 35.8735498,45.0649237 C37.0737077,43.8635242 37.6789551,43.5 38.978297,43.5 C40.2796874,43.5 40.8975755,43.8677682 42.1122188,45.0687584 C43.5505656,46.4909368 44.4040353,47 46,47 L46,43.5 C44.716588,43.5 44.1061029,43.1358681 42.8989992,41.9423336 C41.4530534,40.5126407 40.5917647,40 38.978297,40 C37.3639865,40 36.5124077,40.5114758 35.0902785,41.9350763 C33.8901206,43.1364758 33.2848732,43.5 31.9855313,43.5 C30.6861895,43.5 30.080942,43.1364758 28.8807842,41.9350763 C27.4586549,40.5114758 26.6070762,40 24.9927657,40 C23.3784552,40 22.5268764,40.5114758 21.1047472,41.9350763 C19.9045893,43.1364758 19.2993419,43.5 18,43.5 L18,47 C19.6143105,47 20.4658892,46.4885242 21.8880185,45.0649237 Z" id="Path-19" fill="#000000" fill-rule="nonzero"></path>
    </g>
</svg>