<?xml version="1.0" encoding="UTF-8"?>
<svg width="64px" height="64px" viewBox="0 0 64 64" version="1.1" xmlns="http://www.w3.org/2000/svg" xmlns:xlink="http://www.w3.org/1999/xlink">
    <title>label_left</title>
    <g id="label_left" stroke="none" stroke-width="1" fill="none" fill-rule="evenodd">
        <rect id="Rectangle-52" fill="#000000" fill-rule="nonzero" x="40" y="24" width="16" height="16"></rect>
        <path d="M11.8880185,34.0649237 C13.0881764,32.8635242 13.6934238,32.5 14.9927657,32.5 C16.2921075,32.5 16.897355,32.8635242 18.0975128,34.0649237 C19.5196421,35.4885242 20.3712208,36 21.9855313,36 C23.5998418,36 24.4514206,35.4885242 25.8735498,34.0649237 C27.0737077,32.8635242 27.6789551,32.5 28.978297,32.5 C30.2796874,32.5 30.8975755,32.8677682 32.1122188,34.0687584 C33.5505656,35.4909368 34.4040353,36 36,36 L36,32.5 C34.716588,32.5 34.1061029,32.1358681 32.8989992,30.9423336 C31.4530534,29.5126407 30.5917647,29 28.978297,29 C27.3639865,29 26.5124077,29.5114758 25.0902785,30.9350763 C23.8901206,32.1364758 23.2848732,32.5 21.9855313,32.5 C20.6861895,32.5 20.080942,32.1364758 18.8807842,30.9350763 C17.4586549,29.5114758 16.6070762,29 14.9927657,29 C13.3784552,29 12.5268764,29.5114758 11.1047472,30.9350763 C9.9045893,32.1364758 9.29934185,32.5 8,32.5 L8,36 C9.61431051,36 10.4658892,35.4885242 11.8880185,34.0649237 Z" id="Path-19" fill="#000000" fill-rule="nonzero"></path>
    </g>
</svg>