<?xml version="1.0" encoding="UTF-8"?>
<svg width="64px" height="64px" viewBox="0 0 64 64" version="1.1" xmlns="http://www.w3.org/2000/svg" xmlns:xlink="http://www.w3.org/1999/xlink">
    <title>label_right</title>
    <g id="label_right" stroke="none" stroke-width="1" fill="none" fill-rule="evenodd">
        <rect id="Rectangle-52" fill="#000000" fill-rule="nonzero" x="8" y="24" width="16" height="16"></rect>
        <path d="M31.8880185,34.0649237 C33.0881764,32.8635242 33.6934238,32.5 34.9927657,32.5 C36.2921075,32.5 36.897355,32.8635242 38.0975128,34.0649237 C39.5196421,35.4885242 40.3712208,36 41.9855313,36 C43.5998418,36 44.4514206,35.4885242 45.8735498,34.0649237 C47.0737077,32.8635242 47.6789551,32.5 48.978297,32.5 C50.2796874,32.5 50.8975755,32.8677682 52.1122188,34.0687584 C53.5505656,35.4909368 54.4040353,36 56,36 L56,32.5 C54.716588,32.5 54.1061029,32.1358681 52.8989992,30.9423336 C51.4530534,29.5126407 50.5917647,29 48.978297,29 C47.3639865,29 46.5124077,29.5114758 45.0902785,30.9350763 C43.8901206,32.1364758 43.2848732,32.5 41.9855313,32.5 C40.6861895,32.5 40.080942,32.1364758 38.8807842,30.9350763 C37.4586549,29.5114758 36.6070762,29 34.9927657,29 C33.3784552,29 32.5268764,29.5114758 31.1047472,30.9350763 C29.9045893,32.1364758 29.2993419,32.5 28,32.5 L28,36 C29.6143105,36 30.4658892,35.4885242 31.8880185,34.0649237 Z" id="Path-19" fill="#000000" fill-rule="nonzero"></path>
    </g>
</svg>