<?xml version="1.0" encoding="UTF-8"?>
<svg width="64px" height="64px" viewBox="0 0 64 64" version="1.1" xmlns="http://www.w3.org/2000/svg" xmlns:xlink="http://www.w3.org/1999/xlink">
    <title>labor</title>
    <g id="labor" stroke="none" stroke-width="1" fill="none" fill-rule="evenodd">
        <path d="M40,13 C41.06842,13 41.941166,13.8377796 41.9971468,14.8922474 C49.8195561,18.2055551 55.0976005,25.8454605 57.7409928,37.5904763 L57.7409928,37.5904763 L57.832,38.003 L59.4142136,39.5857864 C59.7476116,39.9191844 59.9511456,40.3581707 59.9922594,40.8241472 L59.9922594,40.8241472 L60,41 L60,45 C60,45.8832164 59.4206637,46.6618622 58.5746958,46.9156526 C51.6982133,48.9785973 42.8460567,50 32,50 C21.1539433,50 12.3017867,48.9785973 5.42530423,46.9156526 C4.57933631,46.6618622 4,45.8832164 4,45 L4,45 L4,41 C4,40.469567 4.21071368,39.9608592 4.58578644,39.5857864 L4.58578644,39.5857864 L6.167,38.003 L6.37460587,37.0866492 C9.05467405,25.6265724 14.2930454,18.1576805 22.0038295,14.8915102 L22,15 C22,13.8954305 22.8954305,13 24,13 L40,13 Z M34.0008681,17.0751401 L34,26 C34,27.1045695 33.1045695,28 32,28 C30.8954305,28 30,27.1045695 30,26 L30.0001329,17.0750631 C28.2226186,17.2116733 26.5562572,17.5350576 25.0000252,18.047737 L25,24 C25,25.1045695 24.1045695,26 23,26 C21.8954305,26 21,25.1045695 21,24 L21.0004585,19.9346671 C15.6205825,23.354373 11.9610869,29.7929034 9.95796084,39.4079085 C9.87854076,39.7891249 9.68956195,40.1388652 9.41421356,40.4142136 L9.41421356,40.4142136 L8,41.828 L8,43.486 L8.23107139,43.5486317 C14.270282,45.1283405 21.9077599,45.9494232 31.1307044,45.9977352 L31.1307044,45.9977352 L32,46 C41.6133369,46 49.5409927,45.1777064 55.7689286,43.5486317 L55.7689286,43.5486317 L56,43.486 L56,41.829 L54.5857864,40.4142136 C54.3497735,40.1782007 54.1772158,39.8875325 54.0827164,39.5692347 L54.0827164,39.5692347 L54.0420392,39.4079085 C52.0390369,29.7934976 48.3798699,23.3551689 43.000539,19.9353012 L43,24 C43,25.1045695 42.1045695,26 41,26 C39.8954305,26 39,25.1045695 39,24 L39.0009787,18.0480677 C37.4447516,17.5352929 35.7783893,17.2118241 34.0008681,17.0751401 Z M47,36 C48.1045695,36 49,36.8954305 49,38 C49,39.1045695 48.1045695,40 47,40 L17,40 C15.8954305,40 15,39.1045695 15,38 C15,36.8954305 15.8954305,36 17,36 L47,36 Z" id="Path-162" fill="#000000" fill-rule="nonzero"></path>
    </g>
</svg>