<?xml version="1.0" encoding="UTF-8"?>
<svg width="64px" height="64px" viewBox="0 0 64 64" version="1.1" xmlns="http://www.w3.org/2000/svg" xmlns:xlink="http://www.w3.org/1999/xlink">
    <title>landscape_maintenance</title>
    <g id="landscape_maintenance" stroke="none" stroke-width="1" fill="none" fill-rule="evenodd">
        <g id="wheelbarrow" transform="translate(4.000000, 31.000000)" fill="#000000">
            <rect id="Rectangle" x="14" y="0" width="40" height="4" rx="2"></rect>
            <path d="M10,0 C10.7632886,0 11.4548048,0.433727867 11.7905557,1.1089109 L11.8569534,1.25721865 L15.491,10.345 L49.5494423,20.0769521 C50.5632364,20.3666076 51.1696651,21.3883986 50.9587787,22.4044159 L50.9230479,22.5494423 C50.6333924,23.5632364 49.6116014,24.1696651 48.5955841,23.9587787 L48.4505577,23.9230479 L37.731,20.86 L15.7572657,28.8510939 C14.2589204,29.4640534 12.7148629,28.1404078 13.0408534,26.5959456 L13.0769521,26.4505577 L16.649,14.837 L13.4505577,13.9230479 C12.9096984,13.7685167 12.4615484,13.3943155 12.2118852,12.8959278 L12.1430466,12.7427814 L8.646,4 L2,4 C0.945638205,4 0.0818348781,3.18412221 0.00548573643,2.14926234 L0,2 C0,0.945638205 0.815877791,0.0818348781 1.85073766,0.00548573643 L2,0 L10,0 Z M20.484,15.933 L18.055,23.588 L31.105,18.967 L20.484,15.933 Z" id="Combined-Shape" fill-rule="nonzero"></path>
            <path d="M49,15 C52.8659932,15 56,18.1340068 56,22 C56,25.8659932 52.8659932,29 49,29 C45.1340068,29 42,25.8659932 42,22 C42,18.1340068 45.1340068,15 49,15 Z M49,19 C47.3431458,19 46,20.3431458 46,22 C46,23.6568542 47.3431458,25 49,25 C50.6568542,25 52,23.6568542 52,22 C52,20.3431458 50.6568542,19 49,19 Z" id="Oval" fill-rule="nonzero"></path>
            <path d="M48.059715,1.51492875 L51.940285,2.48507125 C50.1902991,9.48501485 47.0065184,14.4485716 42.4617934,17.2638097 L36.3909005,15.5012113 C42.126961,14.0886365 45.9246551,9.65594756 47.947895,1.95130056 L48.059715,1.51492875 Z M20,2 C20,5.99020703 20.6601986,9.07935771 22.0159413,11.3282542 L17.0650196,9.89114473 C16.3896152,7.72582272 16.0329509,5.22529152 16.0021785,2.401854 L16,2 L20,2 Z" id="Path-159" fill-rule="nonzero"></path>
        </g>
        <path d="M38.8944272,4.21114562 C41.5734726,5.55066832 43.664204,7.73296976 45.1559246,10.6973243 C46.1737865,10.3895969 47.274509,10.1715827 48.4563236,10.044215 L48.8189285,10.0082136 C49.9340452,9.90683934 50.915141,10.7406363 50.9949174,11.8575059 C51.6757591,21.38929 47.973452,26.9889779 40.2632815,27.8755609 L39.999,27.903 L40,29.9995117 L36,29.9999924 L35.999,27.903 L35.7367185,27.8755609 C28.1293503,27.000799 24.4236816,21.5377771 24.9801857,12.2366783 L25.0050826,11.8575059 C25.084859,10.7406363 26.0659548,9.90683934 27.1810715,10.0082136 C28.5011647,10.1282221 29.7229991,10.3584896 30.8448455,10.6963594 C32.335796,7.73296976 34.4265274,5.55066832 37.1055728,4.21114562 C37.6686278,3.92961813 38.3313722,3.92961813 38.8944272,4.21114562 Z M28.92,14.32 L28.923765,14.6108528 C29.0346836,20.231652 31.2230394,23.1506995 35.7151397,23.8389643 L35.972,23.875 L35.9597076,23.6257212 C35.6435408,18.4334805 33.4603183,15.4680558 29.1850116,14.3837049 L28.92,14.32 Z M47.079,14.32 L46.8149884,14.3837049 C42.5396817,15.4680558 40.3564592,18.4334805 40.0402924,23.6257212 L40.027,23.875 L40.2848603,23.8389643 C44.7769606,23.1506995 46.9653164,20.231652 47.076235,14.6108528 L47.079,14.32 Z M38,8.302 L37.7924646,8.44153093 C36.455773,9.36841098 35.3501605,10.6749317 34.4706894,12.3891245 C35.8378321,13.3137262 36.9556151,14.4903969 37.8199885,15.9095653 L38,16.215 C38.8887415,14.658216 40.0669668,13.3794206 41.5270876,12.3901968 C40.6497794,10.6748608 39.5441907,9.36838582 38.2075354,8.44153093 L38,8.302 Z" id="Combined-Shape" fill="#000000" fill-rule="nonzero"></path>
    </g>
</svg>