<?xml version="1.0" encoding="UTF-8"?>
<svg width="64px" height="64px" viewBox="0 0 64 64" version="1.1" xmlns="http://www.w3.org/2000/svg" xmlns:xlink="http://www.w3.org/1999/xlink">
    <title>landscape</title>
    <g id="landscape" stroke="none" stroke-width="1" fill="none" fill-rule="evenodd">
        <path d="M14.4724187,8.45387176 C16.0563842,2.91741381 23.9762119,2.12649124 26.7481515,8.45387176 C31.5000481,4.10379766 38.627893,7.26748792 38.2319016,14.385791 C42.9837982,15.5721748 43.3797896,23.4814005 38.627893,25.0632456 C38.627893,25.8541682 37.8359103,26.6450908 36.6479361,26.6450908 C35.8559533,29.808781 30.312074,29.808781 29.1240998,27.4360133 C26.8797772,29.3187206 25.9561688,30.2042423 26.7481515,36.5316228 C27.27614,40.7498765 28.7281085,44.309028 31.1040567,47.2090774 C28.7281085,47.2090774 26.6161544,46.6817957 24.7681946,45.6272323 C24.7681946,46.4181549 24.6361975,47.2090774 24.3722032,48 C23.4290008,46.5703967 22.3730237,45.7794741 21.2042722,45.6272323 C19.6203066,46.4181549 17.6403497,46.8136162 15.2644014,46.8136162 C17.6403497,45.231771 19.0923181,42.463542 19.6203066,38.5089292 C20.4122894,32.57701 20.4122894,28.6223972 18.0363411,27.8314746 C17.2443583,28.6223972 15.2644014,29.0178584 13.6804359,27.8314746 C12.0964704,29.0178584 8.53254793,28.6223972 8.13655654,25.4587069 C2.1966858,25.0632456 2.59267718,15.1767136 9.72052208,15.5721748 C8.53254793,12.0130233 10.1165135,8.05841048 14.4724187,8.45387176 Z M24.4,24 C23.8666667,24.969697 23.0666667,25.8181818 22,26.5454545 C22.5333333,26.7878788 23.0666667,27.2727273 23.6,28 C24.1333333,27.2727273 24.9333333,26.5454545 26,25.8181818 C25.4666667,25.5757576 24.9333333,24.969697 24.4,24 Z" id="tree" fill="#000000" fill-rule="nonzero"></path>
        <g id="grass" transform="translate(29.000000, 31.295171)" fill="#000000" fill-rule="nonzero">
            <path d="M23,28.7048292 C22.5759466,21.6958817 24.0204892,14.515058 27.3336279,7.16235817 C21.1112093,11.2045565 18,18.3853802 18,28.7048292 C19.2520729,28.7048292 21.7812229,28.7048292 23,28.7048292 Z" id="Path-81"></path>
            <path d="M17.8212764,28.7048292 C17.9404255,17.464369 19.6666667,7.89609264 23,-1.59872116e-14 C16.3333333,5.54124992 13,15.1095263 13,28.7048292 C14.2073179,28.7048292 16.6460642,28.7048292 17.8212764,28.7048292 Z" id="Path-81-Copy-2"></path>
            <path d="M12.8212764,28.7048292 C12.9404255,18.1523645 9.86769675,10.9715408 3.60309026,7.16235817 C6.6769309,13.5240055 8.14256749,20.7048292 8,28.7048292 C9.2073179,28.7048292 11.6460642,28.7048292 12.8212764,28.7048292 Z" id="Path-81-Copy-3"></path>
            <path d="M7.99674436,28.7048292 C8.14148227,22.1194156 5.47590082,17.9383364 -5.95079541e-14,16.1615916 C2.40206017,20.9612401 3.49915549,25.1423193 3.29128597,28.7048292 C4.46960134,28.7048292 6.84976341,28.7048292 7.99674436,28.7048292 Z" id="Path-81-Copy-4"></path>
            <path d="M27.2163215,28.7048292 C27.4491651,24.267573 28.7103913,19.9342396 31,15.7048292 C25.8240616,17.3849899 23.1573949,21.7183232 23,28.7048292 C24.2520729,28.7048292 25.9975444,28.7048292 27.2163215,28.7048292 Z" id="Path-81-Copy"></path>
        </g>
    </g>
</svg>