<?xml version="1.0" encoding="UTF-8"?>
<svg width="64px" height="64px" viewBox="0 0 64 64" version="1.1" xmlns="http://www.w3.org/2000/svg" xmlns:xlink="http://www.w3.org/1999/xlink">
    <title>laptop</title>
    <g id="laptop" stroke="none" stroke-width="1" fill="none" fill-rule="evenodd">
        <path d="M54,13 L10,13 C8.8954305,13 8,13.8954305 8,15 L8,43 C8,44.1045695 8.8954305,45 10,45 L54,45 C55.1045695,45 56,44.1045695 56,43 L56,15 C56,13.8954305 55.1045695,13 54,13 Z M52,17 L52,41 L12,41 L12,17 L52,17 Z" id="Combined-Shape" fill="#000000" fill-rule="nonzero"></path>
        <path d="M4,46 L26,46 L27,47 L37,47 L38,46 L60,46 C60,48.6666667 58.6666667,50 56,50 C52,50 12,50 8,50 C5.33333333,50 4,48.6666667 4,46 Z" id="Path-148" fill="#000000"></path>
    </g>
</svg>