<?xml version="1.0" encoding="UTF-8"?>
<svg width="64px" height="64px" viewBox="0 0 64 64" version="1.1" xmlns="http://www.w3.org/2000/svg" xmlns:xlink="http://www.w3.org/1999/xlink">
    <title>leads_source</title>
    <g id="leads_source" stroke="none" stroke-width="1" fill="none" fill-rule="evenodd">
        <path d="M32,4 C47.463973,4 60,16.536027 60,32 C60,33.6368074 59.8595528,35.2408117 59.5900523,36.800619 C58.6250662,34.4490542 57.2035589,32.3335013 55.4350288,30.5649712 C55.2427404,30.3726827 55.0463495,30.1844967 54.8459988,30.0005556 L55.9178947,30.0005127 C54.9562416,18.3408418 45.6600261,9.04431942 34.0004908,8.08210526 L34,10 C34,11.1045695 33.1045695,12 32,12 C30.8954305,12 30,11.1045695 30,10 L30.0005127,8.08210526 C18.3408418,9.04375843 9.04431942,18.3399739 8.08210526,29.9995092 L10,30 C11.1045695,30 12,30.8954305 12,32 C12,33.1045695 11.1045695,34 10,34 L8.08210526,33.9994873 C8.95482768,44.5809073 16.6918796,53.2160428 26.83015,55.4417826 C27.3615668,56.145428 27.9417198,56.8117775 28.5649712,57.4350288 C29.5288773,58.398935 30.5958701,59.2597544 31.7479938,59.9995313 L32,60 C16.536027,60 4,47.463973 4,32 C4,16.536027 16.536027,4 32,4 Z" id="Shape" fill="#000000"></path>
        <path d="M32.0011647,13.9992768 L32.0011647,17.4278493 C27.3827309,17.4278493 25.1099953,19.0862421 24.2272709,21.9593947 C23.8507821,23.1848163 23.7646177,24.4680486 23.8562252,25.8558815 L23.891717,26.3066788 L23.9233357,26.6341995 C23.9734129,27.1370364 23.7990428,27.6286588 23.4598679,27.9853773 L23.4134551,28.0304578 L23.385809,28.1272369 L23.3662923,28.2067765 C23.3027855,28.4814223 23.2542032,28.8543208 23.2247435,29.3261536 L23.2042733,29.7548265 L23.1937567,30.2320525 L23.1924146,30.4889028 C23.1924146,31.6427787 24.1295744,33.4836345 25.2409694,35.0424977 C23.9696098,37.4135485 23.187688,40.0875974 23.0297248,42.9281474 L22.9924436,42.9477625 L22.2296283,43.3218967 L20.7470499,44.0257384 L18.1372971,45.238059 L17.364997,45.6049144 L16.5888237,45.985466 L16.1053175,46.2348315 L15.8153563,46.3936796 L15.5823251,46.5311993 L15.4562176,46.6122844 L15.3518408,46.6857719 C15.1731411,46.8187486 14.9813718,47.0094181 14.7821808,47.2470527 C14.0146614,46.3838764 13.3121987,45.4606899 12.681377,44.4867814 C12.8910581,44.2728581 13.0998843,44.0878509 13.305036,43.9351903 L13.5432588,43.7668364 L13.8140677,43.5931014 L14.1258631,43.4092867 L14.3606454,43.2788236 L14.7594194,43.0677685 L15.2215812,42.8341046 L15.9509196,42.4792626 L16.8277939,42.0647371 L19.8892476,40.6407552 L20.7278154,40.2397213 L21.445593,39.8878262 L22.110926,39.5518491 L22.7269094,39.2297302 L23.0465978,39.0567468 L23.040366,39.0414902 C22.772594,38.4368508 22.5617463,37.7972689 22.396346,37.1487116 L22.3257405,36.8564605 L22.1415133,36.5880254 C21.8111663,36.0967791 21.477136,35.5540505 21.1638615,34.9775604 L20.978583,34.6277567 C20.2160094,33.149527 19.7638421,31.7702261 19.7638421,30.4889028 C19.7638421,28.5534913 19.9364899,27.2062021 20.4245912,26.3106121 L20.448597,26.2681715 L20.4395735,26.1499536 C20.3230132,24.4861363 20.4079646,22.9116524 20.8431718,21.3201088 L20.9498895,20.9524783 C22.2526948,16.7120172 25.7524413,14.0973642 31.6639794,14.0019794 L32.0011647,13.9992768 Z M32.0082477,13.9992768 L32.3454403,14.0019794 C38.14544,14.0955645 41.6238004,16.6142479 42.9834387,20.7141945 L43.0595302,20.9524783 L43.1662479,21.3201088 C43.5061483,22.5631174 43.6324018,23.79572 43.6158693,25.0686017 C43.082164,25.0228412 42.5437494,25 42,25 C41.3877133,25 40.782191,25.0289622 40.1847285,25.0855914 C40.2022231,23.9883218 40.087965,22.9547863 39.7821488,21.9593947 C38.9190405,19.1500899 36.7270128,17.5021555 32.3126791,17.4303013 L32.0082477,17.4278493 L32.0082477,13.9992768 Z" id="Path-2" fill="#000000" fill-rule="nonzero"></path>
        <g id="Group" transform="translate(24.000000, 26.000000)" fill="#101010" fill-rule="nonzero">
            <path d="M18,0 C27.9411255,0 36,8.0588745 36,18 C36,27.9411255 27.9411255,36 18,36 C8.0588745,36 0,27.9411255 0,18 C0,8.0588745 8.0588745,0 18,0 Z M18,4 C10.2680135,4 4,10.2680135 4,18 C4,25.7319865 10.2680135,32 18,32 C25.7319865,32 32,25.7319865 32,18 C32,10.2680135 25.7319865,4 18,4 Z" id="Oval"></path>
        </g>
        <rect id="Rectangle" fill="#000000" x="40" y="36" width="4" height="16" rx="2"></rect>
        <rect id="Rectangle-Copy" fill="#000000" x="34" y="42" width="16" height="4" rx="2"></rect>
    </g>
</svg>