<?xml version="1.0" encoding="UTF-8"?>
<svg width="64px" height="64px" viewBox="0 0 64 64" version="1.1" xmlns="http://www.w3.org/2000/svg" xmlns:xlink="http://www.w3.org/1999/xlink">
    <title>leads_report</title>
    <g id="leads_report" stroke="none" stroke-width="1" fill="none" fill-rule="evenodd">
        <path d="M32,4 C47.463973,4 60,16.536027 60,32 C60,47.463973 47.463973,60 32,60 C16.536027,60 4,47.463973 4,32 C4,16.536027 16.536027,4 32,4 Z M34.0004908,8.08210526 L34,10 C34,11.1045695 33.1045695,12 32,12 C30.8954305,12 30,11.1045695 30,10 L30.0005127,8.08210526 C18.3408418,9.04375843 9.04431942,18.3399739 8.08210526,29.9995092 L10,30 C11.1045695,30 12,30.8954305 12,32 C12,33.1045695 11.1045695,34 10,34 L8.08210526,33.9994873 C9.04378602,45.6594927 18.3405073,54.956214 30.0005127,55.9178947 L30,54 C30,52.8954305 30.8954305,52 32,52 C33.1045695,52 34,52.8954305 34,54 L34.0004908,55.9178947 C45.6596916,54.9557082 54.9557082,45.6596916 55.9178947,34.0004908 L54,34 C52.8954305,34 52,33.1045695 52,32 C52,30.8954305 52.8954305,30 54,30 L55.9178947,30.0005127 C54.9562416,18.3408418 45.6600261,9.04431942 34.0004908,8.08210526 Z" id="Shape" fill="#000000"></path>
        <path d="M30,20 C30.5118447,20 31.0236895,20.1953322 31.4142138,20.585997 C31.7906833,20.9626018 31.9856925,21.4519921 31.9992415,21.9454415 C32.010236,22.3458563 31.9018335,22.7489984 31.6737921,23.0966623 L31.5687346,23.2420948 L24.825,30.003 L44.0714286,30.0035951 C44.6039889,30.0035951 45.0861317,30.2275332 45.4351345,30.5895922 C45.7841373,30.9516511 46.0000005,31.4518309 46.0000005,32.0043142 C46.0000005,32.5567975 45.7841373,33.0569772 45.4351345,33.4190362 C45.0861317,33.7810951 44.6039889,34.0050332 44.0714286,34.0050332 L24.829,34.005 L31.4142138,40.5931873 C31.7906833,40.9697921 31.9856925,41.4591824 31.9992415,41.9526317 C32.0126656,42.4415324 31.8479596,42.9344177 31.5050451,43.3255012 C31.0724475,43.7535875 30.5760106,43.9697863 30.0808981,43.9970018 C29.6667636,44.019766 29.2554148,43.9127522 28.9025885,43.6810171 L28.7551227,43.5740809 L18.585787,33.4190362 C18.2093175,33.0424314 18.0143083,32.5530411 18.0007593,32.0595917 C17.9897654,31.6592006 18.0981545,31.2560826 18.3261681,30.9084328 L18.4312128,30.7630056 L28.5857868,20.585997 C28.976311,20.1953324 29.4881554,20 30,20 Z" id="Combined-Shape" fill="#000000" transform="translate(32.000000, 32.000000) rotate(-90.000000) translate(-32.000000, -32.000000) "></path>
    </g>
</svg>