<?xml version="1.0" encoding="UTF-8"?>
<svg width="64px" height="64px" viewBox="0 0 64 64" version="1.1" xmlns="http://www.w3.org/2000/svg" xmlns:xlink="http://www.w3.org/1999/xlink">
    <title>lead</title>
    <g id="lead" stroke="none" stroke-width="1" fill="none" fill-rule="evenodd">
        <path d="M32.0011647,13.9992768 L32.0011647,17.4278493 C27.3827309,17.4278493 25.1099953,19.0862421 24.2272709,21.9593947 C23.8507821,23.1848163 23.7646177,24.4680486 23.8562252,25.8558815 L23.891717,26.3066788 L23.9233357,26.6341995 C23.9734129,27.1370364 23.7990428,27.6286588 23.4598679,27.9853773 L23.4134551,28.0304578 L23.385809,28.1272369 L23.3662923,28.2067765 C23.3027855,28.4814223 23.2542032,28.8543208 23.2247435,29.3261536 L23.2042733,29.7548265 L23.1937567,30.2320525 L23.1924146,30.4889028 C23.1924146,31.6674922 24.1701482,33.5628041 25.3126128,35.1422627 C25.4537604,35.3373993 25.552208,35.5600867 25.6015405,35.7958138 C25.8033247,36.760005 26.1540129,37.7710868 26.6116304,38.4513645 L26.7390548,38.6284092 C27.3561493,39.4271163 27.1530835,40.5834438 26.3007787,41.1241057 C26.1522629,41.2183171 25.9985731,41.3132067 25.8396591,41.4088789 C25.2070272,41.7897472 24.5041819,42.1766783 23.7034278,42.5883766 L22.9924436,42.9477625 L22.2296283,43.3218967 L20.7470499,44.0257384 L18.1372971,45.238059 L17.364997,45.6049144 L16.5888237,45.985466 L16.1053175,46.2348315 L15.8153563,46.3936796 L15.5823251,46.5311993 L15.4562176,46.6122844 L15.3518408,46.6857719 C15.1731411,46.8187486 14.9813718,47.0094181 14.7821808,47.2470527 C14.0146614,46.3838764 13.3121987,45.4606899 12.681377,44.4867814 C12.8910581,44.2728581 13.0998843,44.0878509 13.305036,43.9351903 L13.5432588,43.7668364 L13.8140677,43.5931014 L14.1258631,43.4092867 L14.3606454,43.2788236 L14.7594194,43.0677685 L15.2215812,42.8341046 L15.9509196,42.4792626 L16.8277939,42.0647371 L19.8892476,40.6407552 L20.7278154,40.2397213 L21.445593,39.8878262 L22.110926,39.5518491 L22.7269094,39.2297302 L23.0465978,39.0567468 L23.040366,39.0414902 C22.772594,38.4368508 22.5617463,37.7972689 22.396346,37.1487116 L22.3257405,36.8564605 L22.1415133,36.5880254 C21.8111663,36.0967791 21.477136,35.5540505 21.1638615,34.9775604 L20.978583,34.6277567 C20.2160094,33.149527 19.7638421,31.7702261 19.7638421,30.4889028 C19.7638421,28.5534913 19.9364899,27.2062021 20.4245912,26.3106121 L20.448597,26.2681715 L20.4395735,26.1499536 C20.3230132,24.4861363 20.4079646,22.9116524 20.8431718,21.3201088 L20.9498895,20.9524783 C22.2526948,16.7120172 25.7524413,14.0973642 31.6639794,14.0019794 L32.0011647,13.9992768 Z M32.0082477,13.9992768 L32.3454403,14.0019794 C38.14544,14.0955645 41.6238004,16.6142479 42.9834387,20.7141945 L43.0595302,20.9524783 L43.1662479,21.3201088 C43.5651878,22.7790237 43.6698156,24.2236039 43.594702,25.7357988 L43.5608226,26.2681715 L43.5848284,26.3106121 C44.0729298,27.2062021 44.2455776,28.5534913 44.2455776,30.4889028 C44.2455776,31.6848045 43.8516896,32.9660557 43.1791706,34.3334295 L43.0308366,34.6277567 L42.8455582,34.9775604 C42.5949386,35.4387524 42.3310352,35.8783372 42.0663611,36.2872415 L41.8679064,36.5880254 L41.6836792,36.8564605 L41.6130737,37.1487116 C41.4807534,37.6675574 41.3193469,38.180659 41.1229778,38.6747212 L40.9628219,39.0567468 L41.2825103,39.2297302 L41.8984937,39.5518491 L42.5638267,39.8878262 L43.2816043,40.2397213 L44.1201721,40.6407552 L47.1816258,42.0647371 L48.0585001,42.4792626 L48.7878385,42.8341046 L49.2500003,43.0677685 L49.6487743,43.2788236 L49.8835566,43.4092867 L50.195352,43.5931014 L50.4661609,43.7668364 L50.7043837,43.9351903 C50.9075753,44.0863924 51.1143716,44.2693259 51.3227064,44.4799317 C50.6918509,45.4551158 49.9896039,46.3785813 49.2231651,47.243873 C49.0660738,47.0551867 48.9135149,46.8973621 48.7683876,46.7741472 L48.6575789,46.6857719 L48.5532021,46.6122844 L48.4270946,46.5311993 L48.1940634,46.3936796 L47.9041022,46.2348315 L47.4205959,45.985466 L46.6444227,45.6049144 L45.8721226,45.238059 L43.2623698,44.0257384 L41.7797914,43.3218967 L41.0169761,42.9477625 L40.3059918,42.5883766 C39.5052378,42.1766783 38.8023925,41.7897472 38.1697606,41.4088789 C38.0108466,41.3132067 37.8571568,41.2183171 37.7086409,41.1241057 C36.8950773,40.6080193 36.6730723,39.530965 37.1912833,38.7394491 L37.3977893,38.4513645 C37.8554068,37.7710868 38.206095,36.760005 38.4078791,35.7958138 C38.4572117,35.5600867 38.5556593,35.3373993 38.6968069,35.1422627 C39.8392715,33.5628041 40.8170051,31.6674922 40.8170051,30.4889028 L40.815663,30.2320525 L40.8051464,29.7548265 L40.7846762,29.3261536 C40.759425,28.9217254 40.7201246,28.5899838 40.6694186,28.3304993 L40.6431274,28.2067765 L40.6236107,28.1272369 L40.5959646,28.0304578 L40.5495518,27.9853773 C40.2442943,27.6643307 40.0725289,27.2340119 40.0777346,26.7845904 L40.086084,26.6341995 L40.1177027,26.3066788 L40.1531945,25.8558815 C40.244802,24.4680486 40.1586376,23.1848163 39.7821488,21.9593947 C38.9190405,19.1500899 36.7270128,17.5021555 32.3126791,17.4303013 L32.0082477,17.4278493 L32.0082477,13.9992768 Z" id="Path-2" fill="#000000" fill-rule="nonzero"></path>
        <path d="M32,4 C47.463973,4 60,16.536027 60,32 C60,47.463973 47.463973,60 32,60 C16.536027,60 4,47.463973 4,32 C4,16.536027 16.536027,4 32,4 Z M34.0004908,8.08210526 L34,10 C34,11.1045695 33.1045695,12 32,12 C30.8954305,12 30,11.1045695 30,10 L30.0005127,8.08210526 C18.3408418,9.04375843 9.04431942,18.3399739 8.08210526,29.9995092 L10,30 C11.1045695,30 12,30.8954305 12,32 C12,33.1045695 11.1045695,34 10,34 L8.08210526,33.9994873 C9.04378602,45.6594927 18.3405073,54.956214 30.0005127,55.9178947 L30,54 C30,52.8954305 30.8954305,52 32,52 C33.1045695,52 34,52.8954305 34,54 L34.0004908,55.9178947 C45.6596916,54.9557082 54.9557082,45.6596916 55.9178947,34.0004908 L54,34 C52.8954305,34 52,33.1045695 52,32 C52,30.8954305 52.8954305,30 54,30 L55.9178947,30.0005127 C54.9562416,18.3408418 45.6600261,9.04431942 34.0004908,8.08210526 Z" id="Shape" fill="#000000"></path>
    </g>
</svg>