<?xml version="1.0" encoding="UTF-8"?>
<svg width="64px" height="64px" viewBox="0 0 64 64" version="1.1" xmlns="http://www.w3.org/2000/svg" xmlns:xlink="http://www.w3.org/1999/xlink">
    <title>learning_hub</title>
    <g id="learning_hub" stroke="none" stroke-width="1" fill="none" fill-rule="evenodd">
        <circle id="Oval" fill="#000000" fill-rule="nonzero" cx="13.5" cy="25.5" r="2.5"></circle>
        <circle id="Oval" fill="#000000" fill-rule="nonzero" cx="50.5" cy="24.5" r="2.5"></circle>
        <circle id="Oval" fill="#000000" fill-rule="nonzero" cx="26.5" cy="48.5" r="2.5"></circle>
        <path d="M28.77,35.186 C29.19,35.186 29.61,34.836 29.68,34.416 L30.212,31.392 L31.948,31.392 C33.6,31.378 35.182,30.048 35.476,28.382 C35.77,26.73 34.664,25.386 32.998,25.386 L30.492,25.386 L30.492,25.386 C30.072,25.386 29.666,25.736 29.582,26.156 L28.126,34.416 C28.056,34.836 28.336,35.186 28.77,35.186 Z M32.214,29.838 L30.492,29.838 L30.996,26.94 L32.732,26.94 C33.53,26.94 34.062,27.584 33.922,28.382 C33.782,29.18 33.012,29.838 32.214,29.838 Z" id="P" stroke="#000000" fill="#000000" fill-rule="nonzero"></path>
        <path d="M31.5,7 C26.0554823,7 22.0899351,17.1054356 22.001509,29.5740302 L22,30 C22,42.6635904 25.9936128,53 31.5,53 C37.0063872,53 41,42.6635904 41,30 C41,17.3364096 37.0063872,7 31.5,7 Z M31.5,9 C35.3824535,9 39,18.3630614 39,30 C39,41.6369386 35.3824535,51 31.5,51 C27.6648935,51 24.0882722,41.8639134 24.0016079,30.4247143 L24,30 C24,18.3630614 27.6175465,9 31.5,9 Z" id="Oval" fill="#000000" fill-rule="nonzero"></path>
        <path d="M31.5,7 C26.0554823,7 22.0899351,17.1054356 22.001509,29.5740302 L22,30 C22,42.6635904 25.9936128,53 31.5,53 C37.0063872,53 41,42.6635904 41,30 C41,17.3364096 37.0063872,7 31.5,7 Z M31.5,9 C35.3824535,9 39,18.3630614 39,30 C39,41.6369386 35.3824535,51 31.5,51 C27.6648935,51 24.0882722,41.8639134 24.0016079,30.4247143 L24,30 C24,18.3630614 27.6175465,9 31.5,9 Z" id="Oval" fill="#000000" fill-rule="nonzero" transform="translate(31.500000, 30.000000) rotate(60.000000) translate(-31.500000, -30.000000) "></path>
        <path d="M31.5,7 C26.0554823,7 22.0899351,17.1054356 22.001509,29.5740302 L22,30 C22,42.6635904 25.9936128,53 31.5,53 C37.0063872,53 41,42.6635904 41,30 C41,17.3364096 37.0063872,7 31.5,7 Z M31.5,9 C35.3824535,9 39,18.3630614 39,30 C39,41.6369386 35.3824535,51 31.5,51 C27.6648935,51 24.0882722,41.8639134 24.0016079,30.4247143 L24,30 C24,18.3630614 27.6175465,9 31.5,9 Z" id="Oval" fill="#000000" fill-rule="nonzero" transform="translate(31.500000, 30.000000) rotate(-60.000000) translate(-31.500000, -30.000000) "></path>
    </g>
</svg>