<?xml version="1.0" encoding="UTF-8"?>
<svg width="64px" height="64px" viewBox="0 0 64 64" version="1.1" xmlns="http://www.w3.org/2000/svg" xmlns:xlink="http://www.w3.org/1999/xlink">
    <title>ledger</title>
    <g id="ledger" stroke="none" stroke-width="1" fill="none" fill-rule="evenodd">
        <path d="M45,6 C51.239961,6 56.052971,7.48092615 59.3565602,10.5303931 C59.7667246,10.9090064 60,11.4418039 60,12 L60,12 L60,56 C60,57.7435124 57.9245787,58.6521967 56.6434398,57.4696069 C54.1692512,55.1857405 50.3155945,54 45,54 C39.6844055,54 35.8307488,55.1857405 33.3565602,57.4696069 C32.5904368,58.1767977 31.4095632,58.1767977 30.6434398,57.4696069 C28.1692512,55.1857405 24.3155945,54 19,54 C13.6844055,54 9.83074877,55.1857405 7.35656021,57.4696069 C6.07542129,58.6521967 4,57.7435124 4,56 L4,56 L4,12 C4,11.4418039 4.23327538,10.9090064 4.64343979,10.5303931 C7.94702901,7.48092615 12.760039,6 19,6 C24.348538,6 28.6487038,7.08802737 31.8485632,9.31925637 L31.8485632,9.31925637 L32,9.428 L32.1514368,9.31925637 C35.2446342,7.16240167 39.3660068,6.07380538 44.4686427,6.0036288 L44.4686427,6.0036288 Z M19,10 C14.1827425,10 10.5661585,10.9738357 8.08886639,12.8562962 L8.08886639,12.8562962 L8,12.925 L8,52.219 L8.20297373,52.1172618 C10.9920339,50.7555427 14.4217246,50.0592861 18.4686427,50.0036288 L18.4686427,50.0036288 L19,50 C23.3795285,50 27.0561465,50.7294984 30.0013418,52.2187863 L30.0011354,12.9254766 C27.5217521,10.9976997 23.8759242,10 19,10 Z M45,10 C40.124735,10 36.4792337,10.99743 33.9998702,12.9246948 L33.9999911,52.2181124 C36.8250589,50.7898959 40.3229954,50.0606439 44.4686427,50.0036288 L44.4686427,50.0036288 L45,50 C49.2788304,50 52.8867026,50.6963375 55.7970263,52.1172618 L55.7970263,52.1172618 L56,52.219 L56,12.926 L55.9111336,12.8562962 C53.5192654,11.0387481 50.0653224,10.0682415 45.4940565,10.0034712 L45.4940565,10.0034712 Z" id="Combined-Shape" fill="#000000" fill-rule="nonzero"></path>
        <path d="M45.9206963,18 C46.360735,18 46.730431,18.1253994 47.0297842,18.376198 L47.1537718,18.4913607 L47.2542446,18.6034984 C47.4703878,18.8665478 47.5938982,19.1757781 47.6247758,19.5311891 L47.6324952,19.712743 L47.6324952,20.7340713 L47.964539,20.7984161 C48.3427896,20.8795297 48.7108317,20.9809215 49.0686654,21.1025918 C50.1421663,21.4676026 51.0174081,21.9308855 51.6943907,22.4924406 C52.2553192,22.9229662 52.5357834,23.4190065 52.5357834,23.9805616 C52.5357834,24.3923686 52.3713733,24.7667387 52.0425532,25.1036717 C51.713733,25.4406048 51.3268859,25.6090713 50.8820116,25.6090713 C50.5918762,25.6090713 50.3307544,25.524838 50.098646,25.3563715 C49.8407479,25.1379889 49.5089727,24.9293557 49.1033204,24.7304716 L48.8510638,24.612311 L48.453941,24.4438445 L48.2512996,24.3648758 L48.2512996,24.3648758 L48.0459381,24.2894168 L47.6324952,24.1507829 L47.6324952,29.3407802 L47.6433752,29.3434125 C48.15353,29.4650828 48.6286267,29.5961123 49.0686654,29.7365011 C49.9487428,30.0172786 50.6789168,30.3776098 51.2591876,30.8174946 C51.8394584,31.2573794 52.2746615,31.8095753 52.5647969,32.4740821 C52.8549323,33.1385889 53,33.9481641 53,34.9028078 C53,36.1195105 52.6518375,37.1677466 51.9555126,38.0475162 C51.3224899,38.8473068 50.5096312,39.4769291 49.5169366,39.9363833 L49.2137331,40.0691145 L48.8715184,40.2024838 C48.6415377,40.2867171 48.407882,40.3615911 48.1705513,40.4271058 L47.8117988,40.5183585 L47.6324952,40.5569654 L47.6324952,42.287257 L47.6262268,42.4465376 C47.5927956,42.8634287 47.4256394,43.2174626 47.1247582,43.5086393 C46.786267,43.8362131 46.3655706,44 45.8626692,44 C45.4395552,44 45.075677,43.8746006 44.7710348,43.623802 L44.6441006,43.5086393 L44.5405832,43.3965016 C44.3178901,43.1334522 44.190637,42.8242219 44.1588237,42.4688109 L44.1508704,42.287257 L44.1508704,40.7078834 L43.8184684,40.6739994 C43.1331279,40.593117 42.4895766,40.4616831 41.8878143,40.2796976 C40.8046421,39.9521239 39.7698259,39.3765299 38.7833656,38.5529158 C38.5319149,38.3470122 38.3384913,38.113031 38.2030948,37.8509719 C38.0676983,37.5889129 38,37.3268539 38,37.0647948 C38,36.6342692 38.1595745,36.2552196 38.4787234,35.9276458 C38.7978723,35.600072 39.1992263,35.4362851 39.6827853,35.4362851 C40.0502901,35.4362851 40.3791103,35.5485961 40.6692456,35.7732181 C41.299254,36.2705955 41.9257096,36.6648301 42.5486125,36.9559219 L42.8597679,37.0928726 L43.0824468,37.1782289 C43.3102031,37.2590929 43.5531915,37.3264795 43.811412,37.3803888 L44.0747099,37.4298056 L44.1508704,37.4412122 L44.1508704,31.9546436 L43.9133221,31.9116496 C43.1771035,31.7695059 42.5116054,31.5826134 41.9168279,31.3509719 C41.1237911,31.0421166 40.4613153,30.6490281 39.9294004,30.1717063 C39.3974855,29.6943844 38.9961316,29.1328294 38.7253385,28.487041 C38.4545454,27.8412527 38.3191489,27.1159107 38.3191489,26.3110151 C38.3191489,25.0943124 38.6431334,24.0554355 39.2911025,23.1943844 C39.8801653,22.4116107 40.6570568,21.7990052 41.6217769,21.3565678 L41.9168279,21.2289417 L42.2510638,21.1009071 C42.701354,20.9391793 43.1702128,20.8133909 43.6576402,20.7235421 L44.0266925,20.6628942 L44.1508704,20.6472057 L44.1508704,19.712743 L44.1571388,19.5534624 C44.19057,19.1365713 44.3577262,18.7825374 44.6586074,18.4913607 C44.9970986,18.1637869 45.4177949,18 45.9206963,18 Z M48.115942,33 L48.115942,36.9598267 L48,37 C48.5990338,36.8067481 49.0821256,36.5462781 49.4492754,36.21859 C49.8164251,35.8909019 50,35.5170014 50,35.0968885 C50,34.65577 49.8668478,34.2725482 49.6005435,33.9472233 L49.4782609,33.811343 L49.3555197,33.6957342 C49.1482555,33.5139965 48.8887744,33.3477936 48.5770764,33.1971255 L48.3335122,33.0870373 L48.115942,33 Z M44,24 L43.809488,24.0527307 C43.6774599,24.094162 43.5522088,24.1424984 43.4337349,24.1977401 C42.9598394,24.4187069 42.6024096,24.7200251 42.3614458,25.1016949 C42.1204819,25.4833647 42,25.9252982 42,26.4274953 C42,27.0301318 42.1405623,27.527307 42.4216867,27.9190207 C42.6626506,28.2547754 42.9950824,28.5314962 43.418982,28.7491833 L43.6385542,28.8531073 L43.8721416,28.9505746 L44,29 L44,24 Z" id="Combined-Shape" fill="#000000" fill-rule="nonzero"></path>
        <rect id="Rectangle" fill="#000000" x="12" y="16" width="14" height="4" rx="2"></rect>
        <rect id="Rectangle-Copy" fill="#000000" x="12" y="24" width="14" height="4" rx="2"></rect>
        <rect id="Rectangle-Copy-2" fill="#000000" x="12" y="32" width="14" height="4" rx="2"></rect>
        <rect id="Rectangle-Copy-3" fill="#000000" x="12" y="40" width="14" height="4" rx="2"></rect>
    </g>
</svg>