<?xml version="1.0" encoding="UTF-8"?>
<svg width="64px" height="64px" viewBox="0 0 64 64" version="1.1" xmlns="http://www.w3.org/2000/svg" xmlns:xlink="http://www.w3.org/1999/xlink">
    <title>legal</title>
    <g id="legal" stroke="none" stroke-width="1" fill="none" fill-rule="evenodd">
        <path d="M28,44 C29.1045695,44 30,44.8954305 30,46 L30,46 L30,50 C31.1045695,50 32,50.8954305 32,52 L32,52 L32,58 C32,59.1045695 31.1045695,60 30,60 L30,60 L6,60 C4.8954305,60 4,59.1045695 4,58 L4,58 L4,52 C4,50.8954305 4.8954305,50 6,50 L6,50 L6,46 C6,44.8954305 6.8954305,44 8,44 L8,44 Z M28,54 L8,54 L8,56 L28,56 L28,54 Z M26,48 L10,48 L10,50 L26,50 L26,48 Z" id="Combined-Shape" fill="#000000" fill-rule="nonzero"></path>
        <path d="M32,28 C32,29.1045695 31.1045695,30 30,30 L30,30 L24,30 C22.8954305,30 22,29.1045695 22,28 L22,28 L22,10 C22,8.8954305 22.8954305,8 24,8 L24,8 L30,8 C31.1045695,8 32,8.8954305 32,10 L32,10 L46,10 C46,8.8954305 46.8954305,8 48,8 L48,8 L54,8 C55.1045695,8 56,8.8954305 56,10 L56,10 L56,28 C56,29.1045695 55.1045695,30 54,30 L54,30 L48,30 C46.8954305,30 46,29.1045695 46,28 L46,28 L44,28 L44,56 C44,57.0543618 43.1841222,57.9181651 42.1492623,57.9945143 L42,58 L36,58 C34.8954305,58 34,57.1045695 34,56 L34,56 L34,28 Z M40,28 L38,28 L38,54 L40,54 L40,28 Z M52,12 L50,12 L50,26 L52,26 L52,12 Z M28,12 L26,12 L26,26 L28,26 L28,12 Z M46,14 L32,14 L32,24 L46,24 L46,14 Z" id="Combined-Shape" fill="#000000" fill-rule="nonzero" transform="translate(39.000000, 33.000000) rotate(-45.000000) translate(-39.000000, -33.000000) "></path>
    </g>
</svg>