<?xml version="1.0" encoding="UTF-8"?>
<svg width="32px" height="32px" viewBox="0 0 32 32" version="1.1" xmlns="http://www.w3.org/2000/svg" xmlns:xlink="http://www.w3.org/1999/xlink">
    <title>license</title>
    <g id="license" stroke="none" stroke-width="1" fill="none" fill-rule="evenodd">
        <path d="M26,6 C28.209139,6 30,7.790861 30,10 L30,22 C30,24.209139 28.209139,26 26,26 L6,26 C3.790861,26 2,24.209139 2,22 L2,10 C2,7.790861 3.790861,6 6,6 L26,6 Z M26,8 L6,8 C4.9456382,8 4.08183488,8.81587779 4.00548574,9.85073766 L4,10 L4,22 C4,23.0543618 4.81587779,23.9181651 5.85073766,23.9945143 L6,24 L26,24 C27.0543618,24 27.9181651,23.1841222 27.9945143,22.1492623 L28,22 L28,10 C28,8.9456382 27.1841222,8.08183488 26.1492623,8.00548574 L26,8 Z" id="Rectangle" fill="#000000" fill-rule="nonzero"></path>
        <path d="M10.5,10 C12.4329966,10 14,11.5670034 14,13.5 C14,14.4370289 13.6317747,15.2880541 13.0321322,15.9162674 C14.1112425,16.8765471 14.7623798,18.5739221 14.9950372,20.9004963 C15.0539058,21.4891821 14.5916219,22 14,22 L14,22 L7,22 C6.40837808,22 5.94609423,21.4891821 6.00496281,20.9004963 C6.23762023,18.5739221 6.88875747,16.8765471 7.9687571,15.9148999 C7.36822534,15.2880541 7,14.4370289 7,13.5 C7,11.5670034 8.56700338,10 10.5,10 Z M10.5,17 C9.36118815,17 8.58121632,17.8430998 8.18587789,19.7939479 L8.18587789,19.7939479 L8.146,20 L12.853,20 L12.8141221,19.7939479 C12.4345972,17.9211337 11.7005942,17.0692204 10.6349333,17.0040638 L10.6349333,17.0040638 Z M10.5,12 C9.67157288,12 9,12.6715729 9,13.5 C9,14.3284271 9.67157288,15 10.5,15 C11.3284271,15 12,14.3284271 12,13.5 C12,12.6715729 11.3284271,12 10.5,12 Z" id="Combined-Shape" fill="#000000" fill-rule="nonzero"></path>
        <rect id="Rectangle" fill="#000000" x="16" y="11" width="10" height="2" rx="1"></rect>
        <rect id="Rectangle-Copy" fill="#000000" x="16" y="15" width="10" height="2" rx="1"></rect>
        <rect id="Rectangle-Copy-2" fill="#000000" x="16" y="19" width="10" height="2" rx="1"></rect>
    </g>
</svg>