<?xml version="1.0" encoding="UTF-8"?>
<svg width="32px" height="32px" viewBox="0 0 32 32" version="1.1" xmlns="http://www.w3.org/2000/svg" xmlns:xlink="http://www.w3.org/1999/xlink">
    <title>limit</title>
    <g id="limit" stroke="none" stroke-width="1" fill="none" fill-rule="evenodd">
        <path d="M14.2928932,7.29289322 L3.29289322,16.2928932 C2.90236893,16.6834175 2.90236893,17.3165825 3.29289322,17.7071068 L14.2928932,26.7071068 L14.3774732,26.7832252 C15.0144864,27.2974338 16,26.8521699 16,26 L16,21 L28,21 C28.5522847,21 29,20.5522847 29,20 L29,14 L28.9932723,13.8833789 C28.9355072,13.3860402 28.5128358,13 28,13 L16,13 L16,8 C16,7.10909515 14.9228581,6.66292836 14.2928932,7.29289322 Z M14,10.414 L14,14 L14.0067277,14.1166211 C14.0644928,14.6139598 14.4871642,15 15,15 L27,15 L27,19 L15,19 L14.8833789,19.0067277 C14.3860402,19.0644928 14,19.4871642 14,20 L14,23.585 L5.415,17 L14,10.414 Z" id="Path-17" fill="#000000" fill-rule="nonzero" transform="translate(16.000000, 17.000000) rotate(90.000000) translate(-16.000000, -17.000000) "></path>
        <rect id="Rectangle" fill="#000000" x="4" y="2" width="24" height="2" rx="1"></rect>
    </g>
</svg>