<?xml version="1.0" encoding="UTF-8"?>
<svg width="64px" height="64px" viewBox="0 0 64 64" version="1.1" xmlns="http://www.w3.org/2000/svg" xmlns:xlink="http://www.w3.org/1999/xlink">
    <title>link</title>
    <g id="link" stroke="none" stroke-width="1" fill="none" fill-rule="evenodd">
        <g id="Group" transform="translate(-0.500000, -0.500000)" fill="#000000" fill-rule="nonzero">
            <path d="M41.6847826,4.33093751 C49.4103719,4.33093751 55.6731994,10.593765 55.6731994,18.3193543 L55.6731994,28.3110805 C55.6731994,30.5353553 55.1540598,32.6383785 54.2303368,34.5055943 C53.7725258,33.8883666 53.2644371,33.2942675 52.7049706,32.734801 C52.2354443,32.2652747 51.7306458,31.8191875 51.1893873,31.4037326 C51.4627517,30.5608927 51.6278218,29.668961 51.6672775,28.7445009 L51.6765089,28.3110805 L51.6765089,18.3193543 C51.6765089,12.8010762 47.2030606,8.32762801 41.6847826,8.32762801 C36.3117224,8.32762801 31.9292246,12.5687295 31.7022877,17.8859339 L31.6930564,18.3193543 L31.6930564,28.3110805 C31.6930564,33.8293586 36.1665046,38.3028068 41.6847826,38.3028068 C43.171324,38.3028068 44.5820439,37.9781763 45.8499169,37.3959408 C46.3592225,37.7039995 46.8139505,38.0657784 47.215368,38.4671959 C47.8087614,39.0605893 48.2897649,39.7339332 48.6639034,40.4367849 C46.6086993,41.6219411 44.2258668,42.2994973 41.6847826,42.2994973 C33.9591934,42.2994973 27.6963659,36.0366698 27.6963659,28.3110805 L27.6963659,18.3193543 C27.6963659,10.593765 33.9591934,4.33093751 41.6847826,4.33093751 Z" id="Rectangle" transform="translate(41.684783, 23.315217) rotate(45.000000) translate(-41.684783, -23.315217) "></path>
            <path d="M23.3152174,22.7005027 C31.0408066,22.7005027 37.3036341,28.9633302 37.3036341,36.6889195 L37.3036341,46.6806457 C37.3036341,48.9049205 36.7844946,51.0079437 35.8607715,52.8751595 C35.4029606,52.2579318 34.8948719,51.6638327 34.3354054,51.1043662 C33.8658791,50.6348399 33.3610806,50.1887527 32.8198221,49.7732979 C33.0931865,48.9304579 33.2582566,48.0385262 33.2977123,47.1140661 L33.3069436,46.6806457 L33.3069436,36.6889195 C33.3069436,31.1706414 28.8334954,26.6971932 23.3152174,26.6971932 C17.9421572,26.6971932 13.5596593,30.9382948 13.3327225,36.2554991 L13.3234911,36.6889195 L13.3234911,46.6806457 C13.3234911,52.1989238 17.7969394,56.672372 23.3152174,56.672372 C24.8017588,56.672372 26.2124787,56.3477415 27.4803517,55.765506 C27.9896573,56.0735648 28.4443853,56.4353436 28.8458028,56.8367611 C29.4391962,57.4301545 29.9201996,58.1034984 30.2943382,58.8063502 C28.2391341,59.9915063 25.8563016,60.6690625 23.3152174,60.6690625 C15.5896281,60.6690625 9.32680063,54.406235 9.32680063,46.6806457 L9.32680063,36.6889195 C9.32680063,28.9633302 15.5896281,22.7005027 23.3152174,22.7005027 Z" id="Rectangle-Copy" transform="translate(23.315217, 41.684783) rotate(-135.000000) translate(-23.315217, -41.684783) "></path>
        </g>
    </g>
</svg>