<?xml version="1.0" encoding="UTF-8"?>
<svg width="64px" height="64px" viewBox="0 0 64 64" version="1.1" xmlns="http://www.w3.org/2000/svg" xmlns:xlink="http://www.w3.org/1999/xlink">
    <title>location_kind</title>
    <g id="location_kind" stroke="none" stroke-width="1" fill="none" fill-rule="evenodd">
        <path d="M32,4 C43.045695,4 52,11.4615385 52,23.2307692 C52,27.6531469 49.8820937,33.476601 45.646281,40.7011316 L44.8,42.1169231 L43.9008264,43.567705 C43.1294766,44.7912693 42.3030303,46.0512821 41.4214876,47.3477432 L40.3371901,48.9209917 L39.2,50.5292308 L38.0099174,52.1724603 L36.7669421,53.8506802 L35.4710744,55.5638907 L34.122314,57.3120915 L32.7206612,59.0952829 C32.4826446,59.3953973 32.2424242,59.6969697 32,60 L30.5719008,58.1993134 C30.338292,57.9021149 30.1068871,57.6063742 29.877686,57.3120915 L28.5289256,55.5638907 L27.2330579,53.8506802 L25.9900826,52.1724603 C25.7873278,51.8956728 25.5867769,51.6203433 25.3884298,51.3464717 L24.2247934,49.7207374 C24.0352617,49.4526976 23.8479339,49.1861157 23.6628099,48.9209917 L22.5785124,47.3477432 C19.5812672,42.9397754 17.2209366,38.9531511 15.4975207,35.3878703 L14.9157025,34.1470312 C12.9719008,29.8653274 12,26.2265734 12,23.2307692 C12,11.4615385 20.954305,4 32,4 Z M32,26.633 L20.5424376,36.4539137 C21.2752075,37.7947475 22.096892,39.2006973 23.0076788,40.6706526 L23.9128093,42.1067381 L24.8731226,43.5822158 C25.0377755,43.8313992 25.2047292,44.0822147 25.3739845,44.3346577 L26.4171419,45.8688099 C26.5956067,46.1277447 26.7763747,46.3882979 26.9594467,46.6504649 L28.0855321,48.2427947 L29.2669495,49.8736338 L30.5037361,51.5427612 L32,53.516 L33.49734,51.5413245 L34.7351085,49.8708253 L35.9174134,48.2386801 L37.0442923,46.6451102 C37.2274887,46.3827421 37.4083772,46.1219906 37.5869586,45.8628602 L38.6307685,44.3275683 L39.6192457,42.831405 C41.0938272,40.565373 42.3730517,38.4383637 43.4575276,36.4539774 L32,26.633 Z M34.0009229,8.09702431 L34,23.08 L45.3187411,32.7809609 C47.0215294,29.1033863 47.9114529,26.0320603 47.9937153,23.5977758 L48,23.2307692 C48,14.8068176 42.2738441,8.91287611 34.0009229,8.09702431 Z M16,23.2307692 C16,25.7208082 16.8917749,28.9161966 18.6813652,32.7811904 L30,23.079 L30.0000756,8.09692587 C21.7266167,8.91240187 16,14.8064787 16,23.2307692 Z" id="Combined-Shape" fill="#000000" fill-rule="nonzero"></path>
    </g>
</svg>