<?xml version="1.0" encoding="UTF-8"?>
<svg width="64px" height="64px" viewBox="0 0 64 64" version="1.1" xmlns="http://www.w3.org/2000/svg" xmlns:xlink="http://www.w3.org/1999/xlink">
    <title>location_documents</title>
    <g id="location_documents" stroke="none" fill="none" fill-rule="nonzero">
        <path d="M52.6736064,24 L36,24 C34.8954305,24 34,24.8954305 34,26 L34,58 C34,59.1045695 34.8954305,60 36,60 L58,60 C59.1045695,60 60,59.1045695 60,58 L60,31.691632 C60,31.1841272 59.8070652,30.6956015 59.4602915,30.3250491 L54.1338979,24.6334171 C53.7557392,24.2293275 53.2270433,24 52.6736064,24 Z M48,28 L48,34 C48,35.1045695 48.8954305,36 50,36 L56,36 L56,36 L56,56 L38,56 L38,28 L48,28 Z M52,28.5 L55.5,32 L52,32 L52,28.5 Z" id="page" fill="#000000"></path>
        <path d="M30,23 L30,51 L33,51 L33,55 L28,55 C26.9456382,55 26.0818349,54.1841222 26.0054857,53.1492623 L26,53 L26,21 C26,19.8954305 26.8954305,19 28,19 L46.6736064,19 C47.2270433,19 47.7557392,19.2293275 48.1338979,19.6334171 L51.284,23 L30,23 Z" id="page-copy" fill="#000000"></path>
        <path d="M24,4 C33.3051827,4 41.1261439,9.29531865 43.3598581,18.0004145 L39.1809759,18.000805 C37.1307373,11.8659129 31.4062156,8 24,8 C14.6638298,8 8,14.1432314 8,23.2307692 C8,27.2534389 10.3274034,33.1169685 15.0076788,40.6706526 L15.9128093,42.1067381 L16.8731226,43.5822158 C17.0377755,43.8313992 17.2047292,44.0822147 17.3739845,44.3346577 L18.4171419,45.8688099 C18.5956067,46.1277447 18.7763747,46.3882979 18.9594467,46.6504649 L20.0855321,48.2427947 L21.2669495,49.8736338 L22.5037361,51.5427612 L24,53.516 L25,52.197 L25,52.9285714 C25,53.6996183 25.2448613,54.4043062 25.6492789,54.9436542 L25.7753056,55.1003994 C26.1483382,55.5332357 26.6321904,55.8374859 27.1732429,55.9509347 L26.122314,57.3120915 L24.7206612,59.0952829 C24.4826446,59.3953973 24.2424242,59.6969697 24,60 L22.5719008,58.1993134 C22.338292,57.9021149 22.1068871,57.6063742 21.877686,57.3120915 L20.5289256,55.5638907 L19.2330579,53.8506802 L17.9900826,52.1724603 C17.7873278,51.8956728 17.5867769,51.6203433 17.3884298,51.3464717 L16.2247934,49.7207374 C16.0352617,49.4526976 15.8479339,49.1861157 15.6628099,48.9209917 L14.5785124,47.3477432 C11.5812672,42.9397754 9.22093664,38.9531511 7.49752066,35.3878703 L6.91570248,34.1470312 C4.97190083,29.8653274 4,26.2265734 4,23.2307692 C4,11.4615385 12.954305,4 24,4 Z M24,15 C26.3786014,15 28.4801106,16.1863725 29.7450814,17.9996713 L27.6470588,18 C26.9160937,18 26.254329,18.3437814 25.7753056,18.8996006 C25.2962822,19.4554198 25,20.223277 25,21.0714286 L25.0010101,28.9289666 C24.6740854,28.9757782 24.3398714,29 24,29 C20.1340068,29 17,25.8659932 17,22 C17,18.1340068 20.1340068,15 24,15 Z" id="Oval" fill="#000000"></path>
    </g>
</svg>