<?xml version="1.0" encoding="UTF-8"?>
<svg width="64px" height="64px" viewBox="0 0 64 64" version="1.1" xmlns="http://www.w3.org/2000/svg" xmlns:xlink="http://www.w3.org/1999/xlink">
    <title>location_charge</title>
    <g id="location_charge" stroke="none" stroke-width="1" fill="none" fill-rule="evenodd">
        <path d="M28,4 C39.045695,4 48,11.4615385 48,23.2307692 C48,25.0123663 47.6562727,27.0213522 46.968818,29.2577269 C46.0039241,29.0884791 45.0122948,29 44,29 C43.6111692,29 43.2253874,29.0130541 42.8430689,29.0387481 C43.5584951,26.9703515 43.9411287,25.1539016 43.9937153,23.5977758 L44,23.2307692 C44,14.1432314 37.3361702,8 28,8 C18.6638298,8 12,14.1432314 12,23.2307692 C12,27.2534389 14.3274034,33.1169685 19.0076788,40.6706526 L19.9128093,42.1067381 L20.8731226,43.5822158 C21.0377755,43.8313992 21.2047292,44.0822147 21.3739845,44.3346577 L22.4171419,45.8688099 C22.5956067,46.1277447 22.7763747,46.3882979 22.9594467,46.6504649 L24.0855321,48.2427947 L25.2669495,49.8736338 L26.5037361,51.5427612 L28,53.516 L28.4613152,52.9060451 C29.0492478,54.2269197 29.8006579,55.4589688 30.6898478,56.5764945 L30.122314,57.3120915 L28.7206612,59.0952829 C28.4826446,59.3953973 28.2424242,59.6969697 28,60 L26.5719008,58.1993134 C26.338292,57.9021149 26.1068871,57.6063742 25.877686,57.3120915 L24.5289256,55.5638907 L23.2330579,53.8506802 L21.9900826,52.1724603 C21.7873278,51.8956728 21.5867769,51.6203433 21.3884298,51.3464717 L20.2247934,49.7207374 C20.0352617,49.4526976 19.8479339,49.1861157 19.6628099,48.9209917 L18.5785124,47.3477432 C15.5812672,42.9397754 13.2209366,38.9531511 11.4975207,35.3878703 L10.9157025,34.1470312 C8.97190083,29.8653274 8,26.2265734 8,23.2307692 C8,11.4615385 16.954305,4 28,4 Z M28,12 C29.1045695,12 30,12.8954305 30,14 L29.9993988,15.2901636 C30.2264376,15.3288717 30.4559713,15.3738172 30.688,15.425 C31.64,15.635 32.55,15.971 33.418,16.433 C34.286,16.895 35.014,17.504 35.602,18.26 C35.91,18.68 36.092,19.184 36.148,19.772 C36.204,20.36 35.938,20.892 35.35,21.368 C34.93,21.704 34.44,21.851 33.88,21.809 C33.32,21.767 32.858,21.578 32.494,21.242 C32.018,20.626 31.381,20.136 30.583,19.772 C30.3955069,19.6864769 30.2014447,19.6110007 30.0008133,19.5455715 L30.0002347,24.8932057 C30.6004784,25.069103 31.2077335,25.2660345 31.822,25.484 C32.69,25.792 33.488,26.198 34.216,26.702 C34.944,27.206 35.532,27.857 35.98,28.655 C36.2995314,29.2241653 36.5051116,29.903721 36.5967405,30.6936669 C34.8752218,31.5265866 33.3163435,32.6420259 31.9791847,33.9791847 C30.047254,35.9111154 28.5781527,38.3058755 27.7524675,40.9828782 C26.7650701,40.8633176 26,40.0210046 26,39 L26.0009185,38.2219254 C25.141279,38.0786635 24.2816395,37.8576883 23.422,37.559 C21.77,36.985 20.398,35.97 19.306,34.514 C19.026,34.122 18.9,33.618 18.928,33.002 C18.956,32.386 19.32,31.854 20.02,31.406 C20.468,31.126 20.944,31.007 21.448,31.049 C21.952,31.091 22.442,31.35 22.918,31.826 C23.73,32.638 24.584,33.268 25.48,33.716 C25.6458928,33.7989464 25.8194642,33.8742141 26.0007144,33.9418031 L26.0012202,28.3335832 C25.6281499,28.2146152 25.2514098,28.0907541 24.871,27.962 C23.961,27.654 23.128,27.255 22.372,26.765 C21.616,26.275 21,25.624 20.524,24.812 C20.048,24 19.81,22.978 19.81,21.746 C19.81,20.346 20.202,19.156 20.986,18.176 C21.77,17.196 22.785,16.44 24.031,15.908 C24.6707609,15.6348437 25.3271307,15.4318136 26.0001093,15.2989099 L26,14 C26,12.8954305 26.8954305,12 28,12 Z M30,29.583 L30,34.24 L30.226,34.199 C30.658,34.115 31.0437143,33.9384286 31.3831429,33.6692857 L31.549,33.527 C31.927,33.177 32.116,32.638 32.116,31.91 C32.116,31.294 31.906,30.804 31.486,30.44 C31.066,30.076 30.513,29.768 29.827,29.516 L30,29.583 Z M25.9996757,19.5076881 C25.7003456,19.622828 25.4291204,19.7879319 25.186,20.003 C24.822,20.325 24.64,20.836 24.64,21.536 C24.64,22.18 24.85,22.691 25.27,23.069 C25.4774515,23.2557063 25.7207663,23.4253348 25.9999446,23.5778855 Z" id="Oval" fill="#000000" fill-rule="nonzero"></path>
        <path d="M44,30 C52.836556,30 60,37.163444 60,46 C60,54.836556 52.836556,62 44,62 C35.163444,62 28,54.836556 28,46 C28,37.163444 35.163444,30 44,30 Z M44,34 C37.372583,34 32,39.372583 32,46 C32,52.627417 37.372583,58 44,58 C50.627417,58 56,52.627417 56,46 C56,39.372583 50.627417,34 44,34 Z M50,44 C51.1045695,44 52,44.8954305 52,46 C52,47.1045695 51.1045695,48 50,48 L38,48 C36.8954305,48 36,47.1045695 36,46 C36,44.8954305 36.8954305,44 38,44 L50,44 Z" id="Oval" fill="#101010" fill-rule="nonzero"></path>
    </g>
</svg>