<?xml version="1.0" encoding="UTF-8"?>
<svg width="64px" height="64px" viewBox="0 0 64 64" version="1.1" xmlns="http://www.w3.org/2000/svg" xmlns:xlink="http://www.w3.org/1999/xlink">
    <title>location_tags</title>
    <g id="location_tags" stroke="none" stroke-width="1" fill="none" fill-rule="evenodd">
        <g id="tag" transform="translate(20.000000, 20.000000)" fill="#000000">
            <path d="M33.6,0 C33.9713031,0 34.3292995,0.129062129 34.6140126,0.362343217 L34.7313708,0.46862915 L39.5313708,5.26862915 C39.7939218,5.53118008 39.9558028,5.87558249 39.9921707,6.24185966 L40,6.4 L40,17.6 C40,17.9713031 39.8709379,18.3292995 39.6376568,18.6140126 L39.5313708,18.7313708 L18.7313708,39.5313708 C18.1432872,40.1194545 17.2113087,40.1540476 16.5827668,39.6351503 L16.4686292,39.5313708 L0.46862915,23.5313708 C-0.119454489,22.9432872 -0.154047644,22.0113087 0.364849684,21.3827668 L0.46862915,21.2686292 L21.2686292,0.46862915 C21.5311801,0.20607822 21.8755825,0.0441972246 22.2418597,0.00782933396 L22.4,0 L33.6,0 Z M32.605,4 L23.394,4 L4.995,22.4 L17.6,35.005 L36,16.604 L36,7.395 L32.605,4 Z" id="Path" fill-rule="nonzero"></path>
            <circle id="Oval" cx="30" cy="10" r="3"></circle>
        </g>
        <path d="M22,4 C31.1418134,4 38.6918904,10.3098927 39.8469113,20.4770545 L35.9492961,24.3756914 C35.9719692,24.109557 35.9870358,23.8502403 35.9945009,23.5977758 L36,23.2307692 C36,14.1432314 30.1691489,8 22,8 C13.8308511,8 8,14.1432314 8,23.2307692 C8,27.2534389 10.036478,33.1169685 14.1317189,40.6706526 L14.9237082,42.1067381 L15.7639823,43.5822158 C15.9080536,43.8313992 16.054138,44.0822147 16.2022364,44.3346577 L17.1149991,45.8688099 C17.2711559,46.1277447 17.4293279,46.3882979 17.5895159,46.6504649 L18.5748406,48.2427947 L19.6085808,49.8736338 L20.6907691,51.5427612 L22,53.516 L23.3101725,51.5413245 L24.3932199,49.8708253 L24.782,49.256 L27.523,51.995 L27.4089256,52.1724603 L26.2902479,53.8506802 L25.1239669,55.5638907 L23.9100826,57.3120915 L22.648595,59.0952829 C22.4343802,59.3953973 22.2181818,59.6969697 22,60 L20.7147107,58.1993134 C20.5044628,57.9021149 20.2961983,57.6063742 20.0899174,57.3120915 L18.8760331,55.5638907 L17.7097521,53.8506802 L16.5910744,52.1724603 C16.408595,51.8956728 16.2280992,51.6203433 16.0495868,51.3464717 L15.002314,49.7207374 C14.8317355,49.4526976 14.6631405,49.1861157 14.4965289,48.9209917 L13.5206612,47.3477432 C10.8231405,42.9397754 8.69884298,38.9531511 7.1477686,35.3878703 L6.62413223,34.1470312 C4.87471074,29.8653274 4,26.2265734 4,23.2307692 C4,11.4615385 12.0588745,4 22,4 Z M22,16 C25.3137085,16 28,18.6862915 28,22 C28,25.3137085 25.3137085,28 22,28 C18.6862915,28 16,25.3137085 16,22 C16,18.6862915 18.6862915,16 22,16 Z" id="Combined-Shape" fill="#000000" fill-rule="nonzero"></path>
    </g>
</svg>