<?xml version="1.0" encoding="UTF-8"?>
<svg width="64px" height="64px" viewBox="0 0 64 64" version="1.1" xmlns="http://www.w3.org/2000/svg" xmlns:xlink="http://www.w3.org/1999/xlink">
    <title>locations</title>
    <g id="locations" stroke="none" stroke-width="1" fill="none" fill-rule="evenodd">
        <g id="Group-2" transform="translate(4.000000, 6.000000)" fill="#000000">
            <g id="Group" transform="translate(12.000000, 4.000000)">
                <path d="M16,0 C24.836556,0 32,6.3956044 32,16.4835165 C32,20.967033 29.6296296,27.1306471 24.8888889,34.974359 L23.9722222,36.4647436 L23,37.9945055 L21.9722222,39.5636447 L20.8888889,41.1721612 L19.75,42.8200549 L18.5555556,44.507326 L17.3055556,46.2339744 L16,48 L15.3402778,47.112065 L14.0625,45.365728 L12.8402778,43.6587683 L11.6736111,41.9911859 C11.4837963,41.7165369 11.2962963,41.4435287 11.1111111,41.1721612 L10.0277778,39.5636447 L9,37.9945055 L8.02777778,36.4647436 L7.11111111,34.974359 C2.37037037,27.1306471 0,20.967033 0,16.4835165 C0,6.3956044 7.163444,0 16,0 Z M16,4 C9.01741991,4 4,8.95583284 4,16.4835165 C4,19.4166458 5.38684188,23.5416559 8.17647819,28.7702396 L8.90312138,30.1003256 C9.53302683,31.2278046 10.2238752,32.4028624 10.9758106,33.6247005 L11.9074642,35.1133096 C12.2277955,35.6169634 12.5579099,36.128051 12.8978168,36.6465212 L13.9469238,38.2240285 C14.1266743,38.4906207 14.3088751,38.7590457 14.4935275,39.0292973 L15.6308701,40.6726735 L16,41.196 L16.9458537,39.8445218 L18.0550514,38.221099 L19.1052956,36.6417735 C19.2754267,36.3822444 19.4431036,36.1245656 19.6083276,35.8687433 L20.570246,34.3561407 L21.47335,32.8884046 C22.3470653,31.4432045 23.1326423,30.0657658 23.8303313,28.7574736 L24.4987335,27.4722814 C26.7356701,23.0551387 27.8969993,19.4906942 27.9934474,16.8383236 L28,16.4835165 C28,8.95583284 22.9825801,4 16,4 Z" id="Oval" fill-rule="nonzero"></path>
                <circle id="Oval" cx="16" cy="16" r="6"></circle>
            </g>
            <path d="M40,0 C48.836556,0 56,6.3956044 56,16.4835165 C56,20.967033 53.6296296,27.1306471 48.8888889,34.974359 L47.9722222,36.4647436 L47,37.9945055 L45.9722222,39.5636447 L44.8888889,41.1721612 L43.75,42.8200549 L42.5555556,44.507326 L41.3055556,46.2339744 L40,48 L39.3402778,47.112065 L38.0625,45.365728 L36.8402778,43.6587683 L36.6978912,43.4541319 C37.5074983,42.1702194 38.2642575,40.9237652 38.9681687,39.7147691 L39.6308701,40.6726735 L40,41.196 L40.9458537,39.8445218 L42.0550514,38.221099 L43.1052956,36.6417735 C43.2754267,36.3822444 43.4431036,36.1245656 43.6083276,35.8687433 L44.570246,34.3561407 L45.47335,32.8884046 C46.3470653,31.4432045 47.1326423,30.0657658 47.8303313,28.7574736 L48.4987335,27.4722814 C50.7356701,23.0551387 51.8969993,19.4906942 51.9934474,16.8383236 L52,16.4835165 C52,8.95583284 46.9825801,4 40,4 C38.994197,4 38.0291687,4.10282783 37.1140378,4.30135835 C35.3929794,3.33822916 33.4876689,2.66091034 31.460784,2.30092866 C33.9312592,0.807560395 36.8599993,0 40,0 Z M16,0 C19.1400007,0 22.0687408,0.807560395 24.5398782,2.30138871 C22.5123311,2.66091034 20.6070206,3.33822916 18.8851038,4.30244696 C17.9708313,4.10282783 17.005803,4 16,4 C9.01741991,4 4,8.95583284 4,16.4835165 C4,19.4166458 5.38684188,23.5416559 8.17647819,28.7702396 L8.90312138,30.1003256 C9.53302683,31.2278046 10.2238752,32.4028624 10.9758106,33.6247005 L11.9074642,35.1133096 C12.2277955,35.6169634 12.5579099,36.128051 12.8978168,36.6465212 L13.9469238,38.2240285 C14.1266743,38.4906207 14.3088751,38.7590457 14.4935275,39.0292973 L15.6308701,40.6726735 L16,41.196 L16.9458537,39.8445218 L17.0324127,39.7157676 C17.7361592,40.9244515 18.4927245,42.1705729 19.3021088,43.4541319 L19.1597222,43.6587683 L17.9375,45.365728 L16.6597222,47.112065 C16.4421296,47.4064026 16.2222222,47.702381 16,48 L15.3402778,47.112065 L14.0625,45.365728 L12.8402778,43.6587683 L11.6736111,41.9911859 C11.4837963,41.7165369 11.2962963,41.4435287 11.1111111,41.1721612 L10.0277778,39.5636447 L9,37.9945055 L8.02777778,36.4647436 L7.11111111,34.974359 C2.37037037,27.1306471 0,20.967033 0,16.4835165 C0,6.3956044 7.163444,0 16,0 Z" id="Combined-Shape" fill-rule="nonzero"></path>
        </g>
    </g>
</svg>