<?xml version="1.0" encoding="UTF-8"?>
<svg width="64px" height="64px" viewBox="0 0 64 64" version="1.1" xmlns="http://www.w3.org/2000/svg" xmlns:xlink="http://www.w3.org/1999/xlink">
    <title>location_setting</title>
    <g id="location_setting" stroke="none" fill="none">
        <path d="M24,4 C35.045695,4 44,11.4615385 44,23.2307692 C44,23.522031 43.9908132,23.8193701 43.9724397,24.1227867 C43.304037,24.7086524 42.4343736,25.0534556 41.5,25.0534556 C40.9344862,25.0534556 40.3926578,24.927121 39.9050895,24.697967 C39.9528484,24.3174891 39.9817811,23.9509286 39.9937153,23.5977758 L40,23.2307692 C40,14.1432314 33.3361702,8 24,8 C14.6638298,8 8,14.1432314 8,23.2307692 C8,27.2534389 10.3274034,33.1169685 15.0076788,40.6706526 L15.9128093,42.1067381 L16.8731226,43.5822158 C17.0377755,43.8313992 17.2047292,44.0822147 17.3739845,44.3346577 L18.4171419,45.8688099 C18.5956067,46.1277447 18.7763747,46.3882979 18.9594467,46.6504649 L20.0855321,48.2427947 L21.2669495,49.8736338 L22.5037361,51.5427612 L24,53.516 L24.763,52.508 L24.8908982,52.715053 L25.6903468,52.3605114 C26.1699266,52.1478262 26.6899861,52.0386041 27.2151094,52.0386041 C28.0521493,52.0386041 28.8601971,52.3138866 29.5214989,52.8306887 L28.7669421,53.8506802 L27.4710744,55.5638907 L26.122314,57.3120915 L24.7206612,59.0952829 C24.4826446,59.3953973 24.2424242,59.6969697 24,60 L22.5719008,58.1993134 C22.338292,57.9021149 22.1068871,57.6063742 21.877686,57.3120915 L20.5289256,55.5638907 L19.2330579,53.8506802 L17.9900826,52.1724603 C17.7873278,51.8956728 17.5867769,51.6203433 17.3884298,51.3464717 L16.2247934,49.7207374 C16.0352617,49.4526976 15.8479339,49.1861157 15.6628099,48.9209917 L14.5785124,47.3477432 C11.5812672,42.9397754 9.22093664,38.9531511 7.49752066,35.3878703 L6.91570248,34.1470312 C4.97190083,29.8653274 4,26.2265734 4,23.2307692 C4,11.4615385 12.954305,4 24,4 Z" id="Oval" fill="#000000" fill-rule="nonzero"></path>
        <path d="M56.9502943,41.5043841 C56.9501979,39.4796993 58.2166771,37.7515918 60,37.06613 C59.5291172,35.0941508 58.7515391,33.2408796 57.719875,31.5605636 C57.1056172,31.8338233 56.4451094,31.9704532 55.7848906,31.9704532 C54.5688047,31.9704532 53.3531042,31.5068945 52.4249245,30.5789099 C50.9928125,29.1468017 50.6666536,27.0286536 51.4440391,25.2823352 C49.7641042,24.2499993 47.9114062,23.4716524 45.9394219,23 C45.2550182,24.7853417 43.5260391,26.0534556 41.5,26.0534556 C39.4741536,26.0534556 37.7451745,24.7853417 37.0606745,23 C35.0886901,23.4716524 33.2360885,24.2499993 31.5561536,25.2824316 C32.3335391,27.0285572 32.0073802,29.146609 30.5751719,30.5790063 C29.6471849,31.5069908 28.4312917,31.9706459 27.2152057,31.9706459 C26.5547943,31.9706459 25.8945755,31.8339197 25.280125,31.56066 C24.2485573,33.2408796 23.4707865,35.0940544 23,37.06613 C24.7834193,37.7513991 26.0498021,39.4796993 26.0498021,41.5043841 C26.0498021,43.5285871 24.7844792,45.2560201 23.0021198,45.9418673 C23.4740625,47.9138466 24.2524115,49.7663469 25.2849427,51.4463738 C25.8978516,51.1745594 26.556625,51.0386041 27.2151094,51.0386041 C28.4312917,51.0386041 29.6469922,51.502259 30.5750755,52.4302436 C32.0050677,53.8602321 32.3324792,55.974237 31.5593333,57.7190137 C33.2395573,58.7509641 35.0920625,59.5288293 37.0640469,60 C37.7508594,58.2194759 39.4773333,56.9556016 41.5,56.9556016 C43.5226667,56.9556016 45.2491406,58.2192833 45.9358568,60 C47.9080339,59.5288293 49.7604427,58.7508678 51.440763,57.718821 C50.6677135,55.974237 50.9950286,53.8602321 52.4251172,52.4302436 C53.3529115,51.5021628 54.5688047,51.0385077 55.7847943,51.0385077 C56.4434714,51.0385077 57.1019557,51.1744631 57.7150573,51.4463738 C58.7475885,49.7663469 59.5259375,47.9138466 59.9978802,45.9418673 C58.2155208,45.2559238 56.9502943,43.5283945 56.9502943,41.5043841 L56.9502943,41.5043841 Z M41.5,52 C35.685625,52 31,47.288125 31,41.5 C31,35.7117437 35.685625,31 41.5,31 C47.3142438,31 52,35.7117437 52,41.5 C52,47.288125 47.3142438,52 41.5,52 L41.5,52 Z" id="Shape" fill="#000000" fill-rule="nonzero"></path>
        <circle id="Oval" fill="#000000" fill-rule="evenodd" cx="24" cy="23" r="6"></circle>
    </g>
</svg>