<?xml version="1.0" encoding="UTF-8"?>
<svg width="64px" height="64px" viewBox="0 0 64 64" version="1.1" xmlns="http://www.w3.org/2000/svg" xmlns:xlink="http://www.w3.org/1999/xlink">
    <title>location_integration</title>
    <g id="location_integration" stroke="none" stroke-width="1" fill="none" fill-rule="evenodd">
        <path d="M24,4 C32.9329108,4 40.3460006,10.0248087 41.7577691,19.7861268 C40.7544863,20.2243451 39.9353444,20.8360352 39.2966042,21.5930399 C38.6937736,22.3074864 38.2441192,23.1616775 37.9647962,24.1588741 C37.979619,23.9686796 37.9890709,23.781415 37.9945009,23.5977758 L38,23.2307692 C38,14.1432314 32.1691489,8 24,8 C15.8308511,8 10,14.1432314 10,23.2307692 C10,27.2534389 12.036478,33.1169685 16.1317189,40.6706526 L16.9237082,42.1067381 L17.7639823,43.5822158 C17.9080536,43.8313992 18.054138,44.0822147 18.2022364,44.3346577 L19.1149991,45.8688099 C19.2711559,46.1277447 19.4293279,46.3882979 19.5895159,46.6504649 L20.5748406,48.2427947 L21.6085808,49.8736338 L22.6907691,51.5427612 L24,53.516 L25.3101725,51.5413245 L26.3932199,49.8708253 L27.4277368,48.2386801 L28.4137558,46.6451102 C28.5740526,46.3827421 28.73233,46.1219906 28.8885888,45.8628602 L29.8019224,44.3275683 L30.66684,42.831405 C30.7792622,42.6339623 30.8903866,42.4375749 31.0002137,42.2422454 L31,49.71 L30.48,50.5292308 L29.4089256,52.1724603 L28.2902479,53.8506802 L27.1239669,55.5638907 L25.9100826,57.3120915 L24.648595,59.0952829 C24.4343802,59.3953973 24.2181818,59.6969697 24,60 L22.7147107,58.1993134 C22.5044628,57.9021149 22.2961983,57.6063742 22.0899174,57.3120915 L20.8760331,55.5638907 L19.7097521,53.8506802 L18.5910744,52.1724603 C18.408595,51.8956728 18.2280992,51.6203433 18.0495868,51.3464717 L17.002314,49.7207374 C16.8317355,49.4526976 16.6631405,49.1861157 16.4965289,48.9209917 L15.5206612,47.3477432 C12.8231405,42.9397754 10.698843,38.9531511 9.1477686,35.3878703 L8.62413223,34.1470312 C6.87471074,29.8653274 6,26.2265734 6,23.2307692 C6,11.4615385 14.0588745,4 24,4 Z" id="Oval" fill="#000000" fill-rule="nonzero"></path>
        <path d="M46,20 C51.4016935,20 53.9219302,23.1015424 53.2791961,28.2902347 L53.264,28.399 L58,28.4 C59.0543618,28.4 59.9181651,29.2158778 59.9945143,30.2507377 L60,30.4 L60,37.6 C60,38.9287578 58.7281902,39.8880857 57.4505577,39.5230479 C53.0214233,38.2575809 51.6,39.0698228 51.6,42.4 C51.6,45.7301772 53.0214233,46.5424191 57.4505577,45.2769521 C58.7281902,44.9119143 60,45.8712422 60,47.2 L60,54.4 C60,55.5045695 59.1045695,56.4 58,56.4 L34,56.4 C32.8954305,56.4 32,55.5045695 32,54.4 L32,30.4 C32,29.2954305 32.8954305,28.4 34,28.4 L38.735,28.399 L38.7208039,28.2902347 C38.0895472,23.1941976 40.5093067,20.1114349 45.7133817,20.0029613 L46,20 Z M46,24 C42.6698228,24 41.8575809,25.4214233 43.1230479,29.8505577 C43.4880857,31.1281902 42.5287578,32.4 41.2,32.4 L36,32.399 L36,52.4 L56,52.4 L56,49.664 L55.8902347,49.6791961 C50.7941976,50.3104528 47.7114349,47.8906933 47.6029613,42.6866183 L47.6,42.4 C47.6,36.9983065 50.7015424,34.4780698 55.8902347,35.1208039 L56,35.135 L56,32.399 L50.8,32.4 C49.5204555,32.4 48.5834824,31.2206537 48.8417939,29.9924286 L48.8769521,29.8505577 C50.1424191,25.4214233 49.3301772,24 46,24 Z" id="Path-311" fill="#000000" fill-rule="nonzero"></path>
        <circle id="Oval" fill="#000000" cx="24" cy="24" r="7"></circle>
    </g>
</svg>