<?xml version="1.0" encoding="UTF-8"?>
<svg width="64px" height="64px" viewBox="0 0 64 64" version="1.1" xmlns="http://www.w3.org/2000/svg" xmlns:xlink="http://www.w3.org/1999/xlink">
    <title>location_document</title>
    <g id="location_document" stroke="none" fill="none" fill-rule="nonzero">
        <path d="M52.1906459,20 L32,20 C30.8954305,20 30,20.8954305 30,22 L30,58 C30,59.1045695 30.8954305,60 32,60 L58,60 C59.1045695,60 60,59.1045695 60,58 L60,28.437625 C60,27.9426257 59.8164357,27.4652126 59.4848103,27.0977226 L53.6754562,20.6600976 C53.2962318,20.2398609 52.7566937,20 52.1906459,20 Z M48.6666667,24 L48.6666667,30.0368428 C48.6666667,31.1414123 49.5620972,32.0368428 50.6666667,32.0368428 C50.6712779,32.0368428 50.6758892,32.0368269 50.6805003,32.036795 L56,32 L56,32 L56,56 L34,56 L34,24 L48.6666667,24 Z M52,24.5 L55.5,28 L52,28 L52,24.5 Z" id="page" fill="#000000"></path>
        <path d="M24,4 C33.6563146,4 41.7142797,9.70249745 43.5886382,19.0003417 L39.4769917,19.0000957 C37.7357372,12.2886718 31.8006668,8 24,8 C14.6638298,8 8,14.1432314 8,23.2307692 C8,27.2534389 10.3274034,33.1169685 15.0076788,40.6706526 L15.9128093,42.1067381 L16.8731226,43.5822158 C17.0377755,43.8313992 17.2047292,44.0822147 17.3739845,44.3346577 L18.4171419,45.8688099 C18.5956067,46.1277447 18.7763747,46.3882979 18.9594467,46.6504649 L20.0855321,48.2427947 L21.2669495,49.8736338 L22.5037361,51.5427612 L24,53.516 L25.49734,51.5413245 L26.7351085,49.8708253 L27.9174134,48.2386801 L29,46.707 L29,53.534 L28.7669421,53.8506802 L27.4710744,55.5638907 L26.122314,57.3120915 L24.7206612,59.0952829 C24.4826446,59.3953973 24.2424242,59.6969697 24,60 L22.5719008,58.1993134 C22.338292,57.9021149 22.1068871,57.6063742 21.877686,57.3120915 L20.5289256,55.5638907 L19.2330579,53.8506802 L17.9900826,52.1724603 C17.7873278,51.8956728 17.5867769,51.6203433 17.3884298,51.3464717 L16.2247934,49.7207374 C16.0352617,49.4526976 15.8479339,49.1861157 15.6628099,48.9209917 L14.5785124,47.3477432 C11.5812672,42.9397754 9.22093664,38.9531511 7.49752066,35.3878703 L6.91570248,34.1470312 C4.97190083,29.8653274 4,26.2265734 4,23.2307692 C4,11.4615385 12.954305,4 24,4 Z M24,15 C26.9475908,15 29.4696663,16.821848 30.5016054,19.4009231 C30.2726305,19.5328054 30.0636359,19.6937234 29.8786797,19.8786797 C29.3357864,20.4215729 29,21.1715729 29,22 L29.0015996,26.8973499 C27.7309694,28.1948573 25.9595103,29 24,29 C20.1340068,29 17,25.8659932 17,22 C17,18.1340068 20.1340068,15 24,15 Z" id="Oval" fill="#000000"></path>
    </g>
</svg>