<?xml version="1.0" encoding="UTF-8"?>
<svg width="32px" height="32px" viewBox="0 0 32 32" version="1.1" xmlns="http://www.w3.org/2000/svg" xmlns:xlink="http://www.w3.org/1999/xlink">
    <title>location</title>
    <g id="location" stroke="none" stroke-width="1" fill="none" fill-rule="evenodd">
        <path d="M16,2 C21.5228475,2 26,5.73076923 26,11.6153846 C26,13.8265734 24.9410468,16.7383005 22.8231405,20.3505658 L22.4,21.0584615 L21.9504132,21.7838525 C21.5647383,22.3956347 21.1515152,23.025641 20.7107438,23.6738716 L20.168595,24.4604959 L19.6,25.2646154 L19.0049587,26.0862301 L18.3834711,26.9253401 L17.7355372,27.7819453 L17.061157,28.6560458 L16.3603306,29.5476414 C16.2413223,29.6976987 16.1212121,29.8484848 16,30 L15.2859504,29.0996567 C15.169146,28.9510574 15.0534435,28.8031871 14.938843,28.6560458 L14.2644628,27.7819453 L13.6165289,26.9253401 L12.9950413,26.0862301 C12.8936639,25.9478364 12.7933884,25.8101716 12.6942149,25.6732359 L12.1123967,24.8603687 C12.0176309,24.7263488 11.9239669,24.5930579 11.831405,24.4604959 L11.2892562,23.6738716 C9.79063361,21.4698877 8.61046832,19.4765755 7.74876033,17.6939352 L7.45785124,17.0735156 C6.48595041,14.9326637 6,13.1132867 6,11.6153846 C6,5.73076923 10.4771525,2 16,2 Z M16,4 C11.3319149,4 8,7.07161572 8,11.6153846 C8,13.6267194 9.1637017,16.5584843 11.5038394,20.3353263 L11.9564047,21.053369 L12.4365613,21.7911079 C12.5188877,21.9156996 12.6023646,22.0411073 12.6869922,22.1673289 L13.2085709,22.9344049 C13.2978034,23.0638724 13.3881874,23.194149 13.4797234,23.3252324 L14.0427661,24.1213974 L14.6334747,24.9368169 L15.2518681,25.7713806 L16,26.758 L16.74867,25.7706622 L17.3675542,24.9354126 L17.9587067,24.11934 L18.5221462,23.3225551 C18.6137443,23.1913711 18.7041886,23.0609953 18.7934793,22.9314301 L19.3153842,22.1637841 L19.8096229,21.4157025 C22.5319559,17.2322146 23.9225964,13.9964051 23.9968577,11.7988879 L24,11.6153846 C24,7.07161572 20.6680851,4 16,4 Z" id="Oval" fill="#000000" fill-rule="nonzero"></path>
        <circle id="Oval" fill="#000000" cx="16" cy="12" r="3"></circle>
    </g>
</svg>