<?xml version="1.0" encoding="UTF-8"?>
<svg width="64px" height="64px" viewBox="0 0 64 64" version="1.1" xmlns="http://www.w3.org/2000/svg" xmlns:xlink="http://www.w3.org/1999/xlink">
    <title>location</title>
    <g id="location" stroke="none" stroke-width="1" fill="none" fill-rule="evenodd">
        <g id="Group" transform="translate(12.000000, 4.000000)" fill="#000000">
            <path d="M20,0 C31.045695,0 40,7.46153846 40,19.2307692 C40,23.6531469 37.8820937,29.476601 33.646281,36.7011316 L32.8,38.1169231 L31.9008264,39.567705 C31.1294766,40.7912693 30.3030303,42.0512821 29.4214876,43.3477432 L28.3371901,44.9209917 L27.2,46.5292308 L26.0099174,48.1724603 L24.7669421,49.8506802 L23.4710744,51.5638907 L22.122314,53.3120915 L20.7206612,55.0952829 C20.4826446,55.3953973 20.2424242,55.6969697 20,56 L18.5719008,54.1993134 C18.338292,53.9021149 18.1068871,53.6063742 17.877686,53.3120915 L16.5289256,51.5638907 L15.2330579,49.8506802 L13.9900826,48.1724603 C13.7873278,47.8956728 13.5867769,47.6203433 13.3884298,47.3464717 L12.2247934,45.7207374 C12.0352617,45.4526976 11.8479339,45.1861157 11.6628099,44.9209917 L10.5785124,43.3477432 C7.58126722,38.9397754 5.22093664,34.9531511 3.49752066,31.3878703 L2.91570248,30.1470312 C0.971900826,25.8653274 0,22.2265734 0,19.2307692 C0,7.46153846 8.954305,0 20,0 Z M20,4 C10.6638298,4 4,10.1432314 4,19.2307692 C4,23.2534389 6.3274034,29.1169685 11.0076788,36.6706526 L11.9128093,38.1067381 L12.8731226,39.5822158 C13.0377755,39.8313992 13.2047292,40.0822147 13.3739845,40.3346577 L14.4171419,41.8688099 C14.5956067,42.1277447 14.7763747,42.3882979 14.9594467,42.6504649 L16.0855321,44.2427947 L17.2669495,45.8736338 L18.5037361,47.5427612 L20,49.516 L21.49734,47.5413245 L22.7351085,45.8708253 L23.9174134,44.2386801 L25.0442923,42.6451102 C25.2274887,42.3827421 25.4083772,42.1219906 25.5869586,41.8628602 L26.6307685,40.3275683 L27.6192457,38.831405 C33.0639117,30.4644292 35.8451927,23.9928102 35.9937153,19.5977758 L36,19.2307692 C36,10.1432314 29.3361702,4 20,4 Z" id="Oval" fill-rule="nonzero"></path>
            <circle id="Oval" cx="20" cy="20" r="8"></circle>
        </g>
    </g>
</svg>