<?xml version="1.0" encoding="UTF-8"?>
<svg width="64px" height="64px" viewBox="0 0 64 64" version="1.1" xmlns="http://www.w3.org/2000/svg" xmlns:xlink="http://www.w3.org/1999/xlink">
    <title>location_message</title>
    <g id="location_message" stroke="none" stroke-width="1" fill="none" fill-rule="evenodd">
        <path d="M58,30 C59.1045695,30 60,30.8954305 60,32 L60,58 C60,59.1045695 59.1045695,60 58,60 L22,60 C20.8954305,60 20,59.1045695 20,58 L20,32 C20,30.8954305 20.8954305,30 22,30 L58,30 Z M36.805,47.959 L26.291,56 L53.708,56 L43.193,47.96 L41.2714145,49.5438605 C40.5790599,50.1140349 39.5990443,50.1496708 38.8707321,49.6507682 L38.7285855,49.5438605 L36.805,47.959 Z M56,37.413 L46.364,45.349 L56,52.718 L56,37.413 Z M24,37.414 L24,52.717 L33.635,45.349 L24,37.414 Z M53.853,34 L26.146,34 L40,45.409 L53.853,34 Z" id="Rectangle" fill="#000000" fill-rule="nonzero"></path>
        <g id="Group" transform="translate(3.000000, 4.000000)" fill="#000000">
            <path d="M16,0 C24.836556,0 32,6.3956044 32,16.4835165 C32,18.6106714 31.4664478,21.1160035 30.3993434,23.9995127 L26.1100393,23.9997195 C27.2972598,21.1507225 27.923711,18.756109 27.9934474,16.8383236 L28,16.4835165 C28,8.95583284 22.9825801,4 16,4 C9.01741991,4 4,8.95583284 4,16.4835165 C4,19.4166458 5.38684188,23.5416559 8.17647819,28.7702396 L8.90312138,30.1003256 C9.53302683,31.2278046 10.2238752,32.4028624 10.9758106,33.6247005 L11.9074642,35.1133096 C12.2277955,35.6169634 12.5579099,36.128051 12.8978168,36.6465212 L13.9469238,38.2240285 C14.1266743,38.4906207 14.3088751,38.7590457 14.4935275,39.0292973 L15,39.762 L15,46.647 L14.0625,45.365728 L12.8402778,43.6587683 L11.6736111,41.9911859 C11.4837963,41.7165369 11.2962963,41.4435287 11.1111111,41.1721612 L10.0277778,39.5636447 L9,37.9945055 L8.02777778,36.4647436 L7.11111111,34.974359 C2.37037037,27.1306471 0,20.967033 0,16.4835165 C0,6.3956044 7.163444,0 16,0 Z" id="Oval" fill-rule="nonzero"></path>
            <circle id="Oval" cx="16" cy="16" r="6"></circle>
        </g>
    </g>
</svg>