<?xml version="1.0" encoding="UTF-8"?>
<svg width="64px" height="64px" viewBox="0 0 64 64" version="1.1" xmlns="http://www.w3.org/2000/svg" xmlns:xlink="http://www.w3.org/1999/xlink">
    <title>location_import</title>
    <g id="location_import" stroke="none" stroke-width="1" fill="none" fill-rule="evenodd">
        <path d="M40,4 C51.045695,4 60,11.4615385 60,23.2307692 C60,27.6531469 57.8820937,33.476601 53.646281,40.7011316 L52.8,42.1169231 L51.9008264,43.567705 C51.1294766,44.7912693 50.3030303,46.0512821 49.4214876,47.3477432 L48.3371901,48.9209917 L47.2,50.5292308 L46.0099174,52.1724603 L44.7669421,53.8506802 L43.4710744,55.5638907 L42.122314,57.3120915 L40.7206612,59.0952829 C40.4826446,59.3953973 40.2424242,59.6969697 40,60 L38.5719008,58.1993134 C38.338292,57.9021149 38.1068871,57.6063742 37.877686,57.3120915 L36.5289256,55.5638907 L35.2330579,53.8506802 L33.9900826,52.1724603 C33.7873278,51.8956728 33.5867769,51.6203433 33.3884298,51.3464717 L32.2247934,49.7207374 C32.0352617,49.4526976 31.8479339,49.1861157 31.6628099,48.9209917 L30.5785124,47.3477432 C27.5812672,42.9397754 25.2209366,38.9531511 23.4975207,35.3878703 L22.9157025,34.1470312 C21.9067089,31.9244734 21.1595909,29.8751563 20.6743483,27.9990799 L24.8179035,27.9986607 C25.3111391,29.6264641 26.0277361,31.4253477 26.9684473,33.3908561 C26.3227215,34.1388214 26,35.0694107 26,36 C26,37.0236893 26.3905243,38.0473785 27.1715729,38.8284271 C27.9526215,39.6094757 28.9763107,40 30,40 C30.190806,40 30.381612,39.9864326 30.5708468,39.9592979 C30.7131255,40.193141 30.8592184,40.4310465 31.0076788,40.6706526 L31.9128093,42.1067381 L32.8731226,43.5822158 C33.0377755,43.8313992 33.2047292,44.0822147 33.3739845,44.3346577 L34.4171419,45.8688099 C34.5956067,46.1277447 34.7763747,46.3882979 34.9594467,46.6504649 L36.0855321,48.2427947 L37.2669495,49.8736338 L38.5037361,51.5427612 L40,53.516 L41.49734,51.5413245 L42.7351085,49.8708253 L43.9174134,48.2386801 L45.0442923,46.6451102 C45.2274887,46.3827421 45.4083772,46.1219906 45.5869586,45.8628602 L46.6307685,44.3275683 L47.6192457,42.831405 C53.0639117,34.4644292 55.8451927,27.9928102 55.9937153,23.5977758 L56,23.2307692 C56,14.1432314 49.3361702,8 40,8 C37.431875,8 35.0659525,8.46482735 32.9853089,9.32790168 L32.8284271,9.17157288 C32.0327893,8.37593502 30.9865899,7.98430439 29.9206423,8.01936588 C28.9111705,8.05256975 27.8766332,8.46972644 26.9922931,9.36284661 C26.3000921,10.1511412 25.9697148,11.1464414 26.002177,12.1322609 C26.0268656,12.8820108 26.2611646,13.626167 26.7051488,14.2692557 C25.5348935,15.918214 24.7095039,17.8470408 24.2982621,20.0000493 L20.2358637,20.0004741 C21.7176226,10.1130829 30.0020952,4 40,4 Z" id="Oval" fill="#000000" fill-rule="nonzero"></path>
        <path d="M32.1213203,9.87867966 L44.1213203,21.8786797 C45.2928932,23.0502525 45.2928932,24.9497475 44.1213203,26.1213203 L32.1213203,38.1213203 C30.9497475,39.2928932 29.0502525,39.2928932 27.8786797,38.1213203 C26.7071068,36.9497475 26.7071068,35.0502525 27.8786797,33.8786797 L34.757,27 L7,27 C5.34314575,27 4,25.6568542 4,24 C4,22.3431458 5.34314575,21 7,21 L34.757,21 L27.8786797,14.1213203 C26.7539697,12.9966104 26.7089813,11.2010475 27.7437145,10.0226693 L27.8786797,9.87867966 C29.0502525,8.70710678 30.9497475,8.70710678 32.1213203,9.87867966 Z" id="Combined-Shape" fill="#000000"></path>
    </g>
</svg>