<?xml version="1.0" encoding="UTF-8"?>
<svg width="64px" height="64px" viewBox="0 0 64 64" version="1.1" xmlns="http://www.w3.org/2000/svg" xmlns:xlink="http://www.w3.org/1999/xlink">
    <title>location_origin</title>
    <g id="location_origin" stroke="none" stroke-width="1" fill="none" fill-rule="evenodd">
        <path d="M44,8 C52.836556,8 60,14.3956044 60,24.4835165 C60,28.967033 57.6296296,35.1306471 52.8888889,42.974359 L51.9722222,44.4647436 L51,45.9945055 L49.9722222,47.5636447 L48.8888889,49.1721612 L47.75,50.8200549 L46.5555556,52.507326 L45.3055556,54.2339744 L44,56 L43.3402778,55.112065 L42.0625,53.365728 L40.8402778,51.6587683 L39.6736111,49.9911859 C39.4837963,49.7165369 39.2962963,49.4435287 39.1111111,49.1721612 L38.0277778,47.5636447 L37,45.9945055 L36.0277778,44.4647436 L35.1111111,42.974359 C30.3703704,35.1306471 28,28.967033 28,24.4835165 L28.002,24.18 L32.0286419,23.5090188 C32.0096329,23.82878 32,24.1536794 32,24.4835165 C32,27.4166458 33.3868419,31.5416559 36.1764782,36.7702396 L36.9031214,38.1003256 C37.5330268,39.2278046 38.2238752,40.4028624 38.9758106,41.6247005 L39.9074642,43.1133096 C40.2277955,43.6169634 40.5579099,44.128051 40.8978168,44.6465212 L41.9469238,46.2240285 C42.1266743,46.4906207 42.3088751,46.7590457 42.4935275,47.0292973 L43.6308701,48.6726735 L44,49.196 L44.9458537,47.8445218 L46.0550514,46.221099 L47.1052956,44.6417735 C47.2754267,44.3822444 47.4431036,44.1245656 47.6083276,43.8687433 L48.570246,42.3561407 L49.47335,40.8884046 C50.3470653,39.4432045 51.1326423,38.0657658 51.8303313,36.7574736 L52.4987335,35.4722814 C54.7356701,31.0551387 55.8969993,27.4906942 55.9934474,24.8383236 L56,24.4835165 C56,16.9558328 50.9825801,12 44,12 C41.6623345,12 39.5449265,12.5554559 37.7623065,13.576913 L35.7286046,10.1428258 C38.1422712,8.7504974 40.9729692,8 44,8 Z M44,18 C47.3137085,18 50,20.6862915 50,24 C50,27.3137085 47.3137085,30 44,30 C40.6862915,30 38,27.3137085 38,24 C38,23.4753295 38.0673438,22.966388 38.1938592,22.4813478 L39.7241212,22.2264402 L39.8893925,22.1920301 C40.4305393,22.0560929 40.8711221,21.7084874 41.1214916,21.1701831 C41.325017,20.7325954 41.4104982,20.1291511 41.1858822,19.3521319 L41.1858822,19.3521319 L40.8961989,18.8641407 C41.801766,18.3156961 42.8640156,18 44,18 Z" id="Oval" fill="#000000" fill-rule="nonzero"></path>
        <path d="M32.6244336,8.82777607 C33.0995595,8.54621998 33.7129714,8.70313932 33.9945275,9.17826521 L33.9945275,9.17826521 L40.2556148,19.74385 C40.3186372,19.8502003 40.361394,19.9673142 40.3817172,20.0892534 C40.4725122,20.6340237 40.1044926,21.1492512 39.5597223,21.2400463 L39.5597223,21.2400463 L27.8201836,23.1966361 C27.6289526,23.2285079 27.4325802,23.2041058 27.2549658,23.1263995 C26.7489861,22.9050333 26.5182612,22.315403 26.7396273,21.8094233 L26.7396273,21.8094233 L28.3546888,18.1176846 C21.4850823,15.0745617 13.437795,16.4162733 9.4,21.8 C8.40588745,23.1254834 6.5254834,23.3941125 5.2,22.4 C3.8745166,21.4058875 3.60588745,19.5254834 4.6,18.2 C10.4370369,10.4172841 21.4879907,8.53019425 30.759205,12.6218765 L32.2180787,9.28724877 C32.302054,9.09530513 32.4441944,8.93458449 32.6244336,8.82777607 Z" id="Combined-Shape" fill="#000000"></path>
    </g>
</svg>