<?xml version="1.0" encoding="UTF-8"?>
<svg width="64px" height="64px" viewBox="0 0 64 64" version="1.1" xmlns="http://www.w3.org/2000/svg" xmlns:xlink="http://www.w3.org/1999/xlink">
    <title>log_in</title>
    <g id="log_in" stroke="none" stroke-width="1" fill="none" fill-rule="evenodd">
        <path d="M52,4 C54.209139,4 56,5.790861 56,8 L56,56 C56,58.209139 54.209139,60 52,60 L24,60 C21.790861,60 20,58.209139 20,56 L20,36 L24,36 L24,56 L52,56 L52,8 L24,8 L24,28 L20,28 L20,8 C20,5.790861 21.790861,4 24,4 L52,4 Z" id="Rectangle" fill="#000000" fill-rule="nonzero"></path>
        <path d="M33.2869988,20.4689537 L33.4142136,20.5857864 L43.4142136,30.5857864 C44.1541543,31.3257272 44.1930986,32.5012114 43.5310463,33.2869988 L43.4142136,33.4142136 L33.4142136,43.4142136 C32.633165,44.1952621 31.366835,44.1952621 30.5857864,43.4142136 C29.8458457,42.6742728 29.8069014,41.4987886 30.4689537,40.7130012 L30.5857864,40.5857864 L37.171,34 L8,34 C6.8954305,34 6,33.1045695 6,32 C6,30.8954305 6.8954305,30 8,30 L37.171,30 L30.5857864,23.4142136 C29.8458457,22.6742728 29.8069014,21.4987886 30.4689537,20.7130012 L30.5857864,20.5857864 C31.3257272,19.8458457 32.5012114,19.8069014 33.2869988,20.4689537 Z" id="Rectangle-2" fill="#000000"></path>
    </g>
</svg>