<?xml version="1.0" encoding="UTF-8"?>
<svg width="64px" height="64px" viewBox="0 0 64 64" version="1.1" xmlns="http://www.w3.org/2000/svg" xmlns:xlink="http://www.w3.org/1999/xlink">
    <title>log_out</title>
    <g id="log_out" stroke="none" stroke-width="1" fill="none" fill-rule="evenodd">
        <path d="M38,4 C40.209139,4 42,5.790861 42,8 L42,28 L38,28 L38,8 L10,8 L10,56 L38,56 L38,36 L42,36 L42,56 C42,58.209139 40.209139,60 38,60 L10,60 C7.790861,60 6,58.209139 6,56 L6,8 C6,5.790861 7.790861,4 10,4 L38,4 Z" id="Rectangle" fill="#000000" fill-rule="nonzero"></path>
        <path d="M48.2869988,20.4689537 L48.4142136,20.5857864 L58.4142136,30.5857864 C59.1541543,31.3257272 59.1930986,32.5012114 58.5310463,33.2869988 L58.4142136,33.4142136 L48.4142136,43.4142136 C47.633165,44.1952621 46.366835,44.1952621 45.5857864,43.4142136 C44.8458457,42.6742728 44.8069014,41.4987886 45.4689537,40.7130012 L45.5857864,40.5857864 L52.171,34 L23,34 C21.8954305,34 21,33.1045695 21,32 C21,30.8954305 21.8954305,30 23,30 L52.171,30 L45.5857864,23.4142136 C44.8458457,22.6742728 44.8069014,21.4987886 45.4689537,20.7130012 L45.5857864,20.5857864 C46.3257272,19.8458457 47.5012114,19.8069014 48.2869988,20.4689537 Z" id="Rectangle-2" fill="#000000"></path>
    </g>
</svg>