<?xml version="1.0" encoding="UTF-8"?>
<svg width="64px" height="64px" viewBox="0 0 64 64" version="1.1" xmlns="http://www.w3.org/2000/svg" xmlns:xlink="http://www.w3.org/1999/xlink">
    <title>log_report</title>
    <g id="log_report" stroke="none" stroke-width="1" fill="none" fill-rule="evenodd">
        <path d="M44,42.024 L44,52 C44,54.209139 42.209139,56 40,56 L12,56 C9.790861,56 8,54.209139 8,52 L8,50.5 L10,50.5 L10,52 C10,53.0543618 10.8158778,53.9181651 11.8507377,53.9945143 L12,54 L40,54 C41.0543618,54 41.9181651,53.1841222 41.9945143,52.1492623 L42,52 L42,44.038 L44,42.024 Z M28.4230765,45 C29.1697357,45 29.6855236,45.1809907 30.7804498,45.6957492 C30.880631,45.7428475 30.9223915,45.7624295 30.9758282,45.7872836 C31.6163646,46.0852067 31.9684532,46.2 32.2692302,46.2 C32.3407355,46.2 32.4157017,46.1933074 32.4969445,46.179125 L32.0027458,47.9902856 C31.4262547,47.947339 30.896689,47.7604609 30.1200514,47.3992351 C30.0633042,47.3728412 30.0199714,47.3525219 29.9172955,47.3042508 C29.1005284,46.9202635 28.7578012,46.8 28.4230765,46.8 C28.1091261,46.8 27.7568537,46.9181065 27.0652112,47.2427313 C27.0009532,47.2729387 27.0009532,47.2729387 26.9355754,47.3037674 C25.8438814,47.8185367 25.3270614,48 24.5769228,48 C23.8271362,48 23.3052408,47.8173854 22.213917,47.3042187 C21.9286528,47.1700806 21.8115707,47.1162411 21.6656107,47.0538502 C21.254863,46.8782751 20.9653302,46.8 20.7307691,46.8 C20.4743228,46.8 20.1562642,46.891873 19.6782984,47.1032059 C19.560179,47.1554325 19.46396,47.1998972 19.2402585,47.3047451 C18.1417276,47.8196217 17.6274744,48 16.8846154,48 C16.1669896,48 15.5388994,47.8532138 15.0089691,47.6045733 C14.6695436,47.4453167 14.4273323,47.2741951 14.2781572,47.1331306 C13.9045799,46.7798645 13.9076959,46.2100235 14.2851169,45.8603551 C14.662538,45.5106867 15.2713425,45.5136033 15.6449198,45.8668694 C15.6543691,45.8758049 15.7306304,45.9296833 15.8707501,45.9954267 C16.1400617,46.1217862 16.474734,46.2 16.8846154,46.2 C17.2157996,46.2 17.5595428,46.0794294 18.3792101,45.6952549 C18.6161731,45.5841914 18.7209726,45.5357615 18.8569035,45.4756596 C19.5701937,45.1602778 20.1250655,45 20.7307691,45 C21.2953472,45 21.8251817,45.1432406 22.4644786,45.4165096 C22.6396831,45.4914011 22.7701732,45.5514062 23.077208,45.6957813 C23.8918355,46.0788388 24.2381029,46.2 24.5769228,46.2 C24.9148005,46.2 25.2562805,46.0801012 26.0703677,45.6962326 C26.1362273,45.6651764 26.1362273,45.6651764 26.2031972,45.633694 L26.4534993,45.5182043 C27.2579379,45.1543687 27.777094,45 28.4230765,45 Z M10,42.5 L10,45.5 L8,45.5 L8,42.5 L10,42.5 Z M36.1153839,39 C36.4350089,39 36.7363982,39.0286534 37.0188637,39.0821374 L34.8347514,41.2039976 C34.7668652,41.2351738 34.6952898,41.2685014 34.6196536,41.3040946 C34.4763336,41.3715387 34.4165103,41.3995518 34.3371688,41.4361266 C33.5040843,41.8201616 32.9345387,42 32.2692302,42 C31.5811607,42 31.0144431,41.81523 30.1200514,41.3992351 C30.0633042,41.3728412 30.0199714,41.3525219 29.9172955,41.3042508 C29.1005284,40.9202635 28.7578012,40.8 28.4230765,40.8 C28.1091261,40.8 27.7568537,40.9181065 27.0652112,41.2427313 C27.0009532,41.2729387 27.0009532,41.2729387 26.9355754,41.3037674 C25.8438814,41.8185367 25.3270614,42 24.5769228,42 C23.8271362,42 23.3052408,41.8173854 22.213917,41.3042187 C21.9286528,41.1700806 21.8115707,41.1162411 21.6656107,41.0538502 C21.254863,40.8782751 20.9653302,40.8 20.7307691,40.8 C20.4743228,40.8 20.1562642,40.891873 19.6782984,41.1032059 C19.560179,41.1554325 19.46396,41.1998972 19.2402585,41.3047451 C18.1417276,41.8196217 17.6274744,42 16.8846154,42 C16.1669896,42 15.5388994,41.8532138 15.0089691,41.6045733 C14.6695436,41.4453167 14.4273323,41.2741951 14.2781572,41.1331306 C13.9045799,40.7798645 13.9076959,40.2100235 14.2851169,39.8603551 C14.662538,39.5106867 15.2713425,39.5136033 15.6449198,39.8668694 C15.6543691,39.8758049 15.7306304,39.9296833 15.8707501,39.9954267 C16.1400617,40.1217862 16.474734,40.2 16.8846154,40.2 C17.2157996,40.2 17.5595428,40.0794294 18.3792101,39.6952549 C18.6161731,39.5841914 18.7209726,39.5357615 18.8569035,39.4756596 C19.5701937,39.1602778 20.1250655,39 20.7307691,39 C21.2953472,39 21.8251817,39.1432406 22.4644786,39.4165096 C22.6396831,39.4914011 22.7701732,39.5514062 23.077208,39.6957813 C23.8918355,40.0788388 24.2381029,40.2 24.5769228,40.2 C24.9148005,40.2 25.2562805,40.0801012 26.0703677,39.6962326 C26.1362273,39.6651764 26.1362273,39.6651764 26.2031972,39.633694 L26.4534993,39.5182043 C27.2579379,39.1543687 27.777094,39 28.4230765,39 C29.1697357,39 29.6855236,39.1809907 30.7804498,39.6957492 C30.880631,39.7428475 30.9223915,39.7624295 30.9758282,39.7872836 C31.6163646,40.0852067 31.9684532,40.2 32.2692302,40.2 C32.5575396,40.2 32.9021131,40.0911983 33.4875099,39.8213422 L33.4875099,39.8213422 L33.5735896,39.7814304 C33.6190184,39.7602417 33.6727251,39.7350156 33.7558351,39.6959054 C34.8486317,39.1816529 35.3666787,39 36.1153839,39 Z M10,34.5 L10,37.5 L8,37.5 L8,34.5 L10,34.5 Z M36.1153839,33 C36.8390632,33 37.4692593,33.1468884 37.9979858,33.3962936 C38.1919351,33.4877813 38.3609012,33.5880056 38.5053514,33.6914431 C38.6032435,33.7615414 38.6775911,33.8240291 38.7291468,33.8738523 C39.0986038,34.2308945 39.0888773,34.8006703 38.707422,35.1464821 C38.3259666,35.4922939 37.7172319,35.4831899 37.3477748,35.1261477 C37.3411986,35.1197924 37.268971,35.0680719 37.1325195,35.0037064 C36.8662648,34.8781116 36.531142,34.8 36.1153839,34.8 C35.7784038,34.8 35.4349279,34.9204396 34.6196536,35.3040946 C34.4763336,35.3715387 34.4165103,35.3995518 34.3371688,35.4361266 C33.5040843,35.8201616 32.9345387,36 32.2692302,36 C31.5811607,36 31.0144431,35.81523 30.1200514,35.3992351 C30.0633042,35.3728412 30.0199714,35.3525219 29.9172955,35.3042508 C29.1005284,34.9202635 28.7578012,34.8 28.4230765,34.8 C28.1091261,34.8 27.7568537,34.9181065 27.0652112,35.2427313 C27.0009532,35.2729387 27.0009532,35.2729387 26.9355754,35.3037674 C25.8438814,35.8185367 25.3270614,36 24.5769228,36 C23.8271362,36 23.3052408,35.8173854 22.213917,35.3042187 C21.9286528,35.1700806 21.8115707,35.1162411 21.6656107,35.0538502 C21.254863,34.8782751 20.9653302,34.8 20.7307691,34.8 C20.4743228,34.8 20.1562642,34.891873 19.6782984,35.1032059 C19.560179,35.1554325 19.46396,35.1998972 19.2402585,35.3047451 C18.1417276,35.8196217 17.6274744,36 16.8846154,36 C16.1669896,36 15.5388994,35.8532138 15.0089691,35.6045733 C14.6695436,35.4453167 14.4273323,35.2741951 14.2781572,35.1331306 C13.9045799,34.7798645 13.9076959,34.2100235 14.2851169,33.8603551 C14.662538,33.5106867 15.2713425,33.5136033 15.6449198,33.8668694 C15.6543691,33.8758049 15.7306304,33.9296833 15.8707501,33.9954267 C16.1400617,34.1217862 16.474734,34.2 16.8846154,34.2 C17.2157996,34.2 17.5595428,34.0794294 18.3792101,33.6952549 C18.6161731,33.5841914 18.7209726,33.5357615 18.8569035,33.4756596 C19.5701937,33.1602778 20.1250655,33 20.7307691,33 C21.2953472,33 21.8251817,33.1432406 22.4644786,33.4165096 C22.6396831,33.4914011 22.7701732,33.5514062 23.077208,33.6957813 C23.8918355,34.0788388 24.2381029,34.2 24.5769228,34.2 C24.9148005,34.2 25.2562805,34.0801012 26.0703677,33.6962326 C26.1362273,33.6651764 26.1362273,33.6651764 26.2031972,33.633694 L26.4534993,33.5182043 C27.2579379,33.1543687 27.777094,33 28.4230765,33 C29.1697357,33 29.6855236,33.1809907 30.7804498,33.6957492 C30.880631,33.7428475 30.9223915,33.7624295 30.9758282,33.7872836 C31.6163646,34.0852067 31.9684532,34.2 32.2692302,34.2 C32.5575396,34.2 32.9021131,34.0911983 33.4875099,33.8213422 L33.4875099,33.8213422 L33.5735896,33.7814304 C33.6190184,33.7602417 33.6727251,33.7350156 33.7558351,33.6959054 C34.8486317,33.1816529 35.3666787,33 36.1153839,33 Z M40,8 C42.209139,8 44,9.790861 44,12 L44,32.297 L42,34.241 L42,12 C42,10.9456382 41.1841222,10.0818349 40.1492623,10.0054857 L40,10 L12,10 C10.9456382,10 10.0818349,10.8158778 10.0054857,11.8507377 L10,12 L10,13.5 L8,13.5 L8,12 C8,9.790861 9.790861,8 12,8 L40,8 Z M36.1153839,27 C36.8390632,27 37.4692593,27.1468884 37.9979858,27.3962936 C38.1919351,27.4877813 38.3609012,27.5880056 38.5053514,27.6914431 C38.6032435,27.7615414 38.6775911,27.8240291 38.7291468,27.8738523 C39.0986038,28.2308945 39.0888773,28.8006703 38.707422,29.1464821 C38.3259666,29.4922939 37.7172319,29.4831899 37.3477748,29.1261477 C37.3411986,29.1197924 37.268971,29.0680719 37.1325195,29.0037064 C36.8662648,28.8781116 36.531142,28.8 36.1153839,28.8 C35.7784038,28.8 35.4349279,28.9204396 34.6196536,29.3040946 C34.4763336,29.3715387 34.4165103,29.3995518 34.3371688,29.4361266 C33.5040843,29.8201616 32.9345387,30 32.2692302,30 C31.5811607,30 31.0144431,29.81523 30.1200514,29.3992351 C30.0633042,29.3728412 30.0199714,29.3525219 29.9172955,29.3042508 C29.1005284,28.9202635 28.7578012,28.8 28.4230765,28.8 C28.1091261,28.8 27.7568537,28.9181065 27.0652112,29.2427313 C27.0009532,29.2729387 27.0009532,29.2729387 26.9355754,29.3037674 C25.8438814,29.8185367 25.3270614,30 24.5769228,30 C23.8271362,30 23.3052408,29.8173854 22.213917,29.3042187 C21.9286528,29.1700806 21.8115707,29.1162411 21.6656107,29.0538502 C21.254863,28.8782751 20.9653302,28.8 20.7307691,28.8 C20.4743228,28.8 20.1562642,28.891873 19.6782984,29.1032059 C19.560179,29.1554325 19.46396,29.1998972 19.2402585,29.3047451 C18.1417276,29.8196217 17.6274744,30 16.8846154,30 C16.1669896,30 15.5388994,29.8532138 15.0089691,29.6045733 C14.6695436,29.4453167 14.4273323,29.2741951 14.2781572,29.1331306 C13.9045799,28.7798645 13.9076959,28.2100235 14.2851169,27.8603551 C14.662538,27.5106867 15.2713425,27.5136033 15.6449198,27.8668694 C15.6543691,27.8758049 15.7306304,27.9296833 15.8707501,27.9954267 C16.1400617,28.1217862 16.474734,28.2 16.8846154,28.2 C17.2157996,28.2 17.5595428,28.0794294 18.3792101,27.6952549 C18.6161731,27.5841914 18.7209726,27.5357615 18.8569035,27.4756596 C19.5701937,27.1602778 20.1250655,27 20.7307691,27 C21.2953472,27 21.8251817,27.1432406 22.4644786,27.4165096 C22.6396831,27.4914011 22.7701732,27.5514062 23.077208,27.6957813 C23.8918355,28.0788388 24.2381029,28.2 24.5769228,28.2 C24.9148005,28.2 25.2562805,28.0801012 26.0703677,27.6962326 C26.1362273,27.6651764 26.1362273,27.6651764 26.2031972,27.633694 L26.4534993,27.5182043 C27.2579379,27.1543687 27.777094,27 28.4230765,27 C29.1697357,27 29.6855236,27.1809907 30.7804498,27.6957492 C30.880631,27.7428475 30.9223915,27.7624295 30.9758282,27.7872836 C31.6163646,28.0852067 31.9684532,28.2 32.2692302,28.2 C32.5575396,28.2 32.9021131,28.0911983 33.4875099,27.8213422 L33.4875099,27.8213422 L33.5735896,27.7814304 C33.6190184,27.7602417 33.6727251,27.7350156 33.7558351,27.6959054 C34.8486317,27.1816529 35.3666787,27 36.1153839,27 Z M10,26.5 L10,29.5 L8,29.5 L8,26.5 L10,26.5 Z M36.1153839,21 C36.8390632,21 37.4692593,21.1468884 37.9979858,21.3962936 C38.1919351,21.4877813 38.3609012,21.5880056 38.5053514,21.6914431 C38.6032435,21.7615414 38.6775911,21.8240291 38.7291468,21.8738523 C39.0986038,22.2308945 39.0888773,22.8006703 38.707422,23.1464821 C38.3259666,23.4922939 37.7172319,23.4831899 37.3477748,23.1261477 C37.3411986,23.1197924 37.268971,23.0680719 37.1325195,23.0037064 C36.8662648,22.8781116 36.531142,22.8 36.1153839,22.8 C35.7784038,22.8 35.4349279,22.9204396 34.6196536,23.3040946 C34.4763336,23.3715387 34.4165103,23.3995518 34.3371688,23.4361266 C33.5040843,23.8201616 32.9345387,24 32.2692302,24 C31.5811607,24 31.0144431,23.81523 30.1200514,23.3992351 C30.0633042,23.3728412 30.0199714,23.3525219 29.9172955,23.3042508 C29.1005284,22.9202635 28.7578012,22.8 28.4230765,22.8 C28.1091261,22.8 27.7568537,22.9181065 27.0652112,23.2427313 C27.0009532,23.2729387 27.0009532,23.2729387 26.9355754,23.3037674 C25.8438814,23.8185367 25.3270614,24 24.5769228,24 C23.8271362,24 23.3052408,23.8173854 22.213917,23.3042187 C21.9286528,23.1700806 21.8115707,23.1162411 21.6656107,23.0538502 C21.254863,22.8782751 20.9653302,22.8 20.7307691,22.8 C20.4743228,22.8 20.1562642,22.891873 19.6782984,23.1032059 C19.560179,23.1554325 19.46396,23.1998972 19.2402585,23.3047451 C18.1417276,23.8196217 17.6274744,24 16.8846154,24 C16.1669896,24 15.5388994,23.8532138 15.0089691,23.6045733 C14.6695436,23.4453167 14.4273323,23.2741951 14.2781572,23.1331306 C13.9045799,22.7798645 13.9076959,22.2100235 14.2851169,21.8603551 C14.662538,21.5106867 15.2713425,21.5136033 15.6449198,21.8668694 C15.6543691,21.8758049 15.7306304,21.9296833 15.8707501,21.9954267 C16.1400617,22.1217862 16.474734,22.2 16.8846154,22.2 C17.2157996,22.2 17.5595428,22.0794294 18.3792101,21.6952549 C18.6161731,21.5841914 18.7209726,21.5357615 18.8569035,21.4756596 C19.5701937,21.1602778 20.1250655,21 20.7307691,21 C21.2953472,21 21.8251817,21.1432406 22.4644786,21.4165096 C22.6396831,21.4914011 22.7701732,21.5514062 23.077208,21.6957813 C23.8918355,22.0788388 24.2381029,22.2 24.5769228,22.2 C24.9148005,22.2 25.2562805,22.0801012 26.0703677,21.6962326 C26.1362273,21.6651764 26.1362273,21.6651764 26.2031972,21.633694 L26.4534993,21.5182043 C27.2579379,21.1543687 27.777094,21 28.4230765,21 C29.1697357,21 29.6855236,21.1809907 30.7804498,21.6957492 C30.880631,21.7428475 30.9223915,21.7624295 30.9758282,21.7872836 C31.6163646,22.0852067 31.9684532,22.2 32.2692302,22.2 C32.5575396,22.2 32.9021131,22.0911983 33.4875099,21.8213422 L33.4875099,21.8213422 L33.5735896,21.7814304 C33.6190184,21.7602417 33.6727251,21.7350156 33.7558351,21.6959054 C34.8486317,21.1816529 35.3666787,21 36.1153839,21 Z M10,18.5 L10,21.5 L8,21.5 L8,18.5 L10,18.5 Z M36.1153839,15 C36.8390632,15 37.4692593,15.1468884 37.9979858,15.3962936 C38.1919351,15.4877813 38.3609012,15.5880056 38.5053514,15.6914431 C38.6032435,15.7615414 38.6775911,15.8240291 38.7291468,15.8738523 C39.0986038,16.2308945 39.0888773,16.8006703 38.707422,17.1464821 C38.3259666,17.4922939 37.7172319,17.4831899 37.3477748,17.1261477 C37.3411986,17.1197924 37.268971,17.0680719 37.1325195,17.0037064 C36.8662648,16.8781116 36.531142,16.8 36.1153839,16.8 C35.7784038,16.8 35.4349279,16.9204396 34.6196536,17.3040946 C34.4763336,17.3715387 34.4165103,17.3995518 34.3371688,17.4361266 C33.5040843,17.8201616 32.9345387,18 32.2692302,18 C31.5811607,18 31.0144431,17.81523 30.1200514,17.3992351 C30.0633042,17.3728412 30.0199714,17.3525219 29.9172955,17.3042508 C29.1005284,16.9202635 28.7578012,16.8 28.4230765,16.8 C28.1091261,16.8 27.7568537,16.9181065 27.0652112,17.2427313 C27.0009532,17.2729387 27.0009532,17.2729387 26.9355754,17.3037674 C25.8438814,17.8185367 25.3270614,18 24.5769228,18 C23.8271362,18 23.3052408,17.8173854 22.213917,17.3042187 C21.9286528,17.1700806 21.8115707,17.1162411 21.6656107,17.0538502 C21.254863,16.8782751 20.9653302,16.8 20.7307691,16.8 C20.4743228,16.8 20.1562642,16.891873 19.6782984,17.1032059 C19.560179,17.1554325 19.46396,17.1998972 19.2402585,17.3047451 C18.1417276,17.8196217 17.6274744,18 16.8846154,18 C16.1669896,18 15.5388994,17.8532138 15.0089691,17.6045733 C14.6695436,17.4453167 14.4273323,17.2741951 14.2781572,17.1331306 C13.9045799,16.7798645 13.9076959,16.2100235 14.2851169,15.8603551 C14.662538,15.5106867 15.2713425,15.5136033 15.6449198,15.8668694 C15.6543691,15.8758049 15.7306304,15.9296833 15.8707501,15.9954267 C16.1400617,16.1217862 16.474734,16.2 16.8846154,16.2 C17.2157996,16.2 17.5595428,16.0794294 18.3792101,15.6952549 C18.6161731,15.5841914 18.7209726,15.5357615 18.8569035,15.4756596 C19.5701937,15.1602778 20.1250655,15 20.7307691,15 C21.2953472,15 21.8251817,15.1432406 22.4644786,15.4165096 C22.6396831,15.4914011 22.7701732,15.5514062 23.077208,15.6957813 C23.8918355,16.0788388 24.2381029,16.2 24.5769228,16.2 C24.9148005,16.2 25.2562805,16.0801012 26.0703677,15.6962326 C26.1362273,15.6651764 26.1362273,15.6651764 26.2031972,15.633694 L26.4534993,15.5182043 C27.2579379,15.1543687 27.777094,15 28.4230765,15 C29.1697357,15 29.6855236,15.1809907 30.7804498,15.6957492 C30.880631,15.7428475 30.9223915,15.7624295 30.9758282,15.7872836 C31.6163646,16.0852067 31.9684532,16.2 32.2692302,16.2 C32.5575396,16.2 32.9021131,16.0911983 33.4875099,15.8213422 L33.4875099,15.8213422 L33.5735896,15.7814304 C33.6190184,15.7602417 33.6727251,15.7350156 33.7558351,15.6959054 C34.8486317,15.1816529 35.3666787,15 36.1153839,15 Z" id="Rectangle" fill="#000000" fill-rule="nonzero"></path>
        <rect id="Rectangle" fill="#000000" fill-rule="nonzero" x="6" y="14.5" width="6" height="3" rx="1.5"></rect>
        <rect id="Rectangle-Copy-16" fill="#000000" fill-rule="nonzero" x="6" y="22.5" width="6" height="3" rx="1.5"></rect>
        <rect id="Rectangle-Copy-17" fill="#000000" fill-rule="nonzero" x="6" y="30.5" width="6" height="3" rx="1.5"></rect>
        <rect id="Rectangle-Copy-18" fill="#000000" fill-rule="nonzero" x="6" y="38.5" width="6" height="3" rx="1.5"></rect>
        <rect id="Rectangle-Copy-19" fill="#000000" fill-rule="nonzero" x="6" y="46.5" width="6" height="3" rx="1.5"></rect>
        <g id="pencil" transform="translate(32.661283, 22.302936)" fill="#000000" fill-rule="nonzero">
            <polygon id="Path-142" points="2.33871669 19.6970644 19.5466702 2.66421994 23.247307 6.95095526 5.90198764 24.2991905"></polygon>
            <polygon id="Path-144" points="19.859755 2.46224116 23.5732406 6.70407275 26.11488 4.26561223 26.3387167 3.98794475 26.4779677 3.68572837 26.4779677 3.39760145 26.3387167 2.96352388 23.5732406 0.091130147 23.1688613 -4.4408921e-16 22.7946397 -4.4408921e-16 22.4999758 0.091130147 22.1610586 0.370736721"></polygon>
            <polygon id="Path-143" points="2.08195703 20.0470584 3.91640318 22.3653433 5.60363203 24.5203819 1.11022302e-16 25.317252"></polygon>
        </g>
    </g>
</svg>