<?xml version="1.0" encoding="UTF-8"?>
<svg width="64px" height="64px" viewBox="0 0 64 64" version="1.1" xmlns="http://www.w3.org/2000/svg" xmlns:xlink="http://www.w3.org/1999/xlink">
    <title>logbook</title>
    <g id="logbook" stroke="none" stroke-width="1" fill="none" fill-rule="evenodd">
        <path d="M45,4 C51.239961,4 56.052971,5.59472235 59.3565602,8.87851413 C59.7667246,9.28622055 60,9.85995886 60,10.4610474 L60,10.4610474 L60,57.8420619 C60,59.719548 57.9245787,60.6980567 56.6434398,59.4245952 C54.1692512,56.9652338 50.3155945,55.6883795 45,55.6883795 C39.6844055,55.6883795 35.8307488,56.9652338 33.3565602,59.4245952 C32.5904368,60.1861275 31.4095632,60.1861275 30.6434398,59.4245952 C28.1692512,56.9652338 24.3155945,55.6883795 19,55.6883795 C13.6844055,55.6883795 9.83074877,56.9652338 7.35656021,59.4245952 C6.07542129,60.6980567 4,59.719548 4,57.8420619 L4,57.8420619 L4,10.4610474 C4,9.85995886 4.23327538,9.28622055 4.64343979,8.87851413 C7.94702901,5.59472235 12.760039,4 19,4 C24.348538,4 28.6487038,5.17163274 31.8485632,7.57431214 L31.8485632,7.57431214 L32,7.69141177 L32.1514368,7.57431214 C35.2446342,5.25172206 39.3660068,4.07947668 44.4686427,4.00390764 L44.4686427,4.00390764 Z M45,8 C40.124731,8 36.4792278,9.07947144 33.9998642,11.1652591 L34.0013563,13.1635832 C32.7398547,12.6528051 31.3983886,12.2982489 30.0009495,12.1239059 L30.0011429,11.1661065 C27.5217595,9.0797638 23.8759291,8 19,8 C14.1827425,8 10.5661585,9.05393476 8.08886639,11.0912296 L8.08886639,11.0912296 L8,11.1655844 L8,53.6915584 L8.20297373,53.5814521 C10.9920339,52.1077302 14.4217246,51.3542057 18.4686427,51.2939706 L18.4686427,51.2939706 L19,51.2900433 C23.3793631,51.2900433 27.0558688,52.0794841 30.0010081,53.6911445 L30.0008371,43.8759713 C31.0371868,43.746559 32.0427327,43.5179804 33.0077245,43.200174 L33.0077245,43.200174 L34,44.193 L33.9999911,53.6905978 C36.705155,52.2105124 40.0272829,51.4240325 43.9442861,51.3057612 L44.4686427,51.2939706 L45,51.2900433 C49.2788304,51.2900433 52.8867026,52.0436553 55.7970263,53.5814521 L55.7970263,53.5814521 L56,53.6915584 L56,11.1666667 L55.9111336,11.0912296 C53.5192654,9.12418631 50.0653224,8.07385443 45.4940565,8.00375668 L45.4940565,8.00375668 Z" id="Combined-Shape" fill="#000000" fill-rule="nonzero"></path>
        <path d="M28,14 C35.7319865,14 42,20.2680135 42,28 C42,29.7310023 41.6858457,31.38863 41.1114417,32.9189783 L49.6923882,41.5 C50.863961,42.6715729 50.863961,44.5710678 49.6923882,45.7426407 L46.1568542,49.2781746 C44.9852814,50.4497475 43.0857864,50.4497475 41.9142136,49.2781746 L33.5099954,40.8740253 C31.8189259,41.5987373 29.9563229,42 28,42 C20.2680135,42 14,35.7319865 14,28 C14,20.2680135 20.2680135,14 28,14 Z M39.7928932,35.8431458 L36.2573593,39.3786797 L44.0355339,47.1568542 L47.5710678,43.6213203 L39.7928932,35.8431458 Z M28,17 C21.9248678,17 17,21.9248678 17,28 C17,34.0751322 21.9248678,39 28,39 C34.0751322,39 39,34.0751322 39,28 C39,21.9248678 34.0751322,17 28,17 Z" id="Oval" fill="#000000" fill-rule="nonzero"></path>
        <path d="M33.4393398,22.9393398 C34.0251263,22.3535534 34.9748737,22.3535534 35.5606602,22.9393398 C36.109835,23.4885146 36.1441584,24.357577 35.6636304,24.9467378 L35.5606602,25.0606602 L26.5606602,34.0606602 C26.0114854,34.609835 25.142423,34.6441584 24.5532622,34.1636304 L24.4393398,34.0606602 L20.4393398,30.0606602 C19.8535534,29.4748737 19.8535534,28.5251263 20.4393398,27.9393398 C20.9885146,27.390165 21.857577,27.3558416 22.4467378,27.8363696 L22.5606602,27.9393398 L25.5,30.879 L33.4393398,22.9393398 Z" id="Path-2" fill="#000000" fill-rule="nonzero"></path>
    </g>
</svg>