<?xml version="1.0" encoding="UTF-8"?>
<svg width="64px" height="64px" viewBox="0 0 64 64" version="1.1" xmlns="http://www.w3.org/2000/svg" xmlns:xlink="http://www.w3.org/1999/xlink">
    <title>logbook_documents</title>
    <g id="logbook_documents" stroke="none" stroke-width="1" fill="none" fill-rule="evenodd">
        <path d="M55.9940966,31 C58.2064959,31 60,32.7979383 60,35.0028165 L60,51.9971835 C60,54.207878 58.2119177,56 55.9940966,56 L23.0059034,56 C20.7935041,56 19,54.2020617 19,51.9971835 L19,35.0028165 C19,32.792122 20.7880823,31 23.0059034,31 L55.9940966,31 Z M55.9940966,33 L23.0059034,33 C21.9451118,33 21.0817748,33.8152532 21.0054814,34.8531021 L21,35.0028165 L21,51.9971835 C21,53.0494949 21.8202107,53.9177285 22.856463,53.9944846 L23.0059034,54 L55.9940966,54 C57.0548882,54 57.9182252,53.1847468 57.9945186,52.1468979 L58,51.9971835 L58,35.0028165 C58,33.9505051 57.1797893,33.0822715 56.143537,33.0055154 L55.9940966,33 Z" id="Rectangle-2" fill="#000000" fill-rule="nonzero"></path>
        <path d="M33,35 L33,45 L31,45 L31,44.3333333 C31,44.3333333 31,41.1777453 28.2367283,41.007173 L28.013,40.999 L28.1492623,40.9945143 C29.1841222,40.9181651 30,40.0543618 30,39 C30,37.8954305 29.1045695,37 28,37 C26.8954305,37 26,37.8954305 26,39 C26,40.0998834 26.887849,40.9923986 27.9859532,40.9999517 C25.1616448,41.0100606 25.0087515,43.9832567 25.0004738,44.3051678 L25,45 L23,45 L23,35 L33,35 Z" id="Rectangle-5" fill="#000000" fill-rule="nonzero"></path>
        <rect id="Rectangle-4" fill="#000000" fill-rule="nonzero" x="36" y="36" width="19" height="3" rx="1.5"></rect>
        <rect id="Rectangle-4-Copy" fill="#000000" fill-rule="nonzero" x="36" y="41" width="19" height="3" rx="1.5"></rect>
        <path d="M54.3663564,48.8715116 C54.1889153,48.7406102 53.9815141,48.6138698 53.7438745,48.4983853 C53.0979453,48.1844866 52.3296596,48 51.4444354,48 C50.5442902,48 49.8986447,48.233237 48.527506,48.8979723 C48.3476034,48.98519 48.2736485,49.020867 48.178372,49.0661149 C47.3829249,49.4438813 46.9030027,49.6 46.4666622,49.6 C46.0125081,49.6 45.5248236,49.4361925 44.6569205,49.0203184 C44.5873266,48.9869711 44.5330735,48.9607624 44.4030896,48.8978061 C43.0293225,48.2324379 42.3863512,48 41.4888889,48 C40.6356361,48 39.9447513,48.2386334 38.7524866,48.8151382 C38.704853,48.8381708 38.6661676,48.8569428 38.5809937,48.8983204 C37.4842129,49.4311175 37.0173332,49.6 36.5111157,49.6 C36.0038848,49.6 35.5307227,49.4294341 34.4333737,48.8978403 C34.038916,48.7067514 33.8717908,48.6275774 33.648999,48.5294665 C32.8565277,48.1804858 32.2085101,48 31.5333425,48 C30.8081067,48 30.1266262,48.2027984 29.2393569,48.6069609 C29.0658182,48.68601 28.9313113,48.7500467 28.6263911,48.8972805 C27.5220854,49.4305055 27.0530363,49.6 26.5555692,49.6 C25.9737174,49.6 25.4935287,49.4843873 25.1068216,49.2974631 C24.9820997,49.2371758 24.8799998,49.175367 24.8004646,49.1174774 C24.765932,49.092343 24.7540168,49.0822056 24.76495,49.0928568 C24.3196159,48.6590087 23.6459763,48.7134471 23.2603339,49.2144484 C22.8746914,49.7154498 22.9230811,50.473295 23.3684152,50.9071432 C23.5504412,51.0844744 23.8483564,51.3013113 24.2646501,51.5025369 C24.9123387,51.8156127 25.6781775,52 26.5555692,52 C27.4481515,52 28.0895395,51.7682294 29.4678064,51.1027195 C29.7590878,50.9620714 29.8847435,50.9022486 30.0400019,50.8315265 C30.6944812,50.5334028 31.1427657,50.4 31.5333425,50.4 C31.8924376,50.4 32.3048624,50.5148685 32.871381,50.7643464 C33.0642471,50.8492789 33.2175352,50.9218977 33.5896432,51.1021597 C34.9590166,51.7655314 35.6094492,52 36.5111157,52 C37.4130318,52 38.0569822,51.7670664 39.4267036,51.1016796 C39.5113798,51.060544 39.5487515,51.0424095 39.5948988,51.0200956 C40.5301009,50.5678902 41.016172,50.4 41.4888889,50.4 C41.9909766,50.4 42.4591135,50.5692343 43.5595002,51.1021939 C43.6920582,51.1663968 43.7479347,51.1933897 43.8209431,51.2283732 C44.9395764,51.7643899 45.6410301,52 46.4666622,52 C47.264514,52 47.967664,51.7712652 49.0080453,51.277177 C49.1098905,51.2288096 49.1869248,51.191647 49.3717812,51.1020277 C50.4701081,50.569553 50.9394638,50.4 51.4444354,50.4 C52.033895,50.4 52.5149454,50.5155134 52.8978975,50.7016147 C53.0978595,50.7987891 53.2069968,50.8793016 53.2264143,50.8986337 C53.667571,51.3378503 54.3416925,51.2915736 54.7321068,50.7952719 C55.1225212,50.2989702 55.0813864,49.5405828 54.6402298,49.1013663 C54.5776449,49.0390566 54.4865587,48.9601869 54.3663564,48.8715116 Z" id="Path-8-Copy" fill="#000000" fill-rule="nonzero"></path>
        <path d="M42,30 L40,30 L40,16 L31,16 L31,7 L6,7 L6,57 L40,57 L40,56.999 L42,56.999 L42,59 L4,59 L4,5 L33,5 L42,14 L42,30 Z M10.4788666,48.2807378 C11.0727796,48.2807378 11.5067558,48.4193957 12.4051947,48.8050989 C13.1150128,49.1098266 13.4014069,49.203577 13.7016564,49.2068267 C13.9907189,49.2099553 14.3171323,49.1130303 14.9567792,48.850637 C15.0062419,48.8303216 15.0062419,48.8303216 15.0562801,48.8097163 C15.9829648,48.4280889 16.3941602,48.2988452 16.9590847,48.2988452 C17.3128054,48.2988452 17.600848,48.346994 18.0001286,48.4766211 L17.9990568,50.3634193 C17.4657288,50.15775 17.2139561,50.0919165 16.9590847,50.0919165 C16.663362,50.0919165 16.360198,50.1872046 15.6271495,50.4890888 C15.5767175,50.5098563 15.5767175,50.5098563 15.5256964,50.5308118 C14.7015165,50.8689035 14.2404373,51.005816 13.6856381,50.9998113 C13.1149271,50.9936344 12.7148618,50.862674 11.8132324,50.475601 C11.1063229,50.172122 10.7986198,50.0738091 10.4788666,50.0738091 C10.1353609,50.0738091 9.84577238,50.1553526 9.60548358,50.2887081 C9.52641542,50.3325894 9.46051909,50.3779734 9.40844063,50.4207059 C9.38549293,50.4395354 9.37731359,50.4473098 9.38463108,50.4394172 C9.06333029,50.7859715 8.54762302,50.7802213 8.23276665,50.4265737 C7.91791029,50.0729261 7.92313453,49.5053003 8.24443532,49.1587459 C8.37311987,49.019947 8.58177324,48.8487384 8.87203861,48.6876469 C9.33200916,48.4323724 9.87051504,48.2807378 10.4788666,48.2807378 Z M10.4788666,41.2807378 C11.0727796,41.2807378 11.5067558,41.4193957 12.4051947,41.8050989 C13.1150128,42.1098266 13.4014069,42.203577 13.7016564,42.2068267 C13.9907189,42.2099553 14.3171323,42.1130303 14.9567792,41.850637 C15.0062419,41.8303216 15.0062419,41.8303216 15.0562801,41.8097163 C15.9829648,41.4280889 16.3941602,41.2988452 16.9590847,41.2988452 C17.3128054,41.2988452 17.600848,41.346994 18.0001286,41.4766211 L17.9990568,43.3634193 C17.4657288,43.15775 17.2139561,43.0919165 16.9590847,43.0919165 C16.663362,43.0919165 16.360198,43.1872046 15.6271495,43.4890888 C15.5767175,43.5098563 15.5767175,43.5098563 15.5256964,43.5308118 C14.7015165,43.8689035 14.2404373,44.005816 13.6856381,43.9998113 C13.1149271,43.9936344 12.7148618,43.862674 11.8132324,43.475601 C11.1063229,43.172122 10.7986198,43.0738091 10.4788666,43.0738091 C10.1353609,43.0738091 9.84577238,43.1553526 9.60548358,43.2887081 C9.52641542,43.3325894 9.46051909,43.3779734 9.40844063,43.4207059 C9.38549293,43.4395354 9.37731359,43.4473098 9.38463108,43.4394172 C9.06333029,43.7859715 8.54762302,43.7802213 8.23276665,43.4265737 C7.91791029,43.0729261 7.92313453,42.5053003 8.24443532,42.1587459 C8.37311987,42.019947 8.58177324,41.8487384 8.87203861,41.6876469 C9.33200916,41.4323724 9.87051504,41.2807378 10.4788666,41.2807378 Z M10.4788666,35.2807378 C11.0727796,35.2807378 11.5067558,35.4193957 12.4051947,35.8050989 C13.1150128,36.1098266 13.4014069,36.203577 13.7016564,36.2068267 C13.9907189,36.2099553 14.3171323,36.1130303 14.9567792,35.850637 C15.0062419,35.8303216 15.0062419,35.8303216 15.0562801,35.8097163 C15.9829648,35.4280889 16.3941602,35.2988452 16.9590847,35.2988452 C17.3128054,35.2988452 17.600848,35.346994 18.0001286,35.4766211 L17.9990568,37.3634193 C17.4657288,37.15775 17.2139561,37.0919165 16.9590847,37.0919165 C16.663362,37.0919165 16.360198,37.1872046 15.6271495,37.4890888 C15.5767175,37.5098563 15.5767175,37.5098563 15.5256964,37.5308118 C14.7015165,37.8689035 14.2404373,38.005816 13.6856381,37.9998113 C13.1149271,37.9936344 12.7148618,37.862674 11.8132324,37.475601 C11.1063229,37.172122 10.7986198,37.0738091 10.4788666,37.0738091 C10.1353609,37.0738091 9.84577238,37.1553526 9.60548358,37.2887081 C9.52641542,37.3325894 9.46051909,37.3779734 9.40844063,37.4207059 C9.38549293,37.4395354 9.37731359,37.4473098 9.38463108,37.4394172 C9.06333029,37.7859715 8.54762302,37.7802213 8.23276665,37.4265737 C7.91791029,37.0729261 7.92313453,36.5053003 8.24443532,36.1587459 C8.37311987,36.019947 8.58177324,35.8487384 8.87203861,35.6876469 C9.33200916,35.4323724 9.87051504,35.2807378 10.4788666,35.2807378 Z M23.5238741,29 C24.1067476,29 24.5868222,29.1840587 25.3444742,29.5984524 C25.3925456,29.6247447 25.4292534,29.6449858 25.5162316,29.6930711 C25.7545854,29.8248432 25.9452828,29.9254381 26.1044641,30.0006983 L23.0053221,30 C21.4573142,30 20.0758065,30.6995389 19.1584333,31.7988848 L18.9176152,31.7192266 C18.7419153,31.6573506 18.5936524,31.5998407 18.3098241,31.485994 C17.5546364,31.1830796 17.259006,31.0919165 16.9590847,31.0919165 C16.663362,31.0919165 16.360198,31.1872046 15.6271495,31.4890888 C15.5767175,31.5098563 15.5767175,31.5098563 15.5256964,31.5308118 C14.7015165,31.8689035 14.2404373,32.005816 13.6856381,31.9998113 C13.1149271,31.9936344 12.7148618,31.862674 11.8132324,31.475601 C11.1063229,31.172122 10.7986198,31.0738091 10.4788666,31.0738091 C10.1353609,31.0738091 9.84577238,31.1553526 9.60548358,31.2887081 C9.52641542,31.3325894 9.46051909,31.3779734 9.40844063,31.4207059 C9.38549293,31.4395354 9.37731359,31.4473098 9.38463108,31.4394172 C9.06333029,31.7859715 8.54762302,31.7802213 8.23276665,31.4265737 C7.91791029,31.0729261 7.92313453,30.5053003 8.24443532,30.1587459 C8.37311987,30.019947 8.58177324,29.8487384 8.87203861,29.6876469 C9.33200916,29.4323724 9.87051504,29.2807378 10.4788666,29.2807378 C11.0727796,29.2807378 11.5067558,29.4193957 12.4051947,29.8050989 C13.1150128,30.1098266 13.4014069,30.203577 13.7016564,30.2068267 C13.9907189,30.2099553 14.3171323,30.1130303 14.9567792,29.850637 C15.0062419,29.8303216 15.0062419,29.8303216 15.0562801,29.8097163 C15.9829648,29.4280889 16.3941602,29.2988452 16.9590847,29.2988452 C17.5231414,29.2988452 17.920187,29.4212815 18.8676097,29.8013035 C19.1317463,29.9072517 19.2652496,29.9590365 19.4140541,30.0114407 C19.768355,30.1362142 20.0371574,30.1953809 20.2657424,30.1953809 C20.551203,30.1953809 20.8421664,30.0754049 21.5327969,29.6932267 C21.6542053,29.6260422 21.7048825,29.5981369 21.7720938,29.5617029 C22.4778116,29.1791461 22.9602818,29 23.5238741,29 Z M30.0401376,29 C30.6752925,29 31.1173976,29.1819117 32.0418736,29.6931031 C32.2835249,29.8267248 32.3827069,29.8803571 32.5063517,29.9425079 C32.548064,29.9634748 32.5883006,29.9830488 32.6271583,30.0012625 L27.4569778,30.0010927 C27.592276,29.9373569 27.7480659,29.856023 27.9322729,29.7543538 C27.9867068,29.7242626 27.9867068,29.7242626 28.0420893,29.6935526 C28.9668789,29.1807648 29.4046845,29 30.0401376,29 Z M36.5564011,29 C37.1643122,29 37.6963763,29.1462212 38.1452879,29.3939046 C38.43282,29.5525482 38.6380007,29.7230111 38.7643691,29.8635326 C38.8026083,29.9060546 38.8361884,29.9517266 38.865113,29.999781 L33.9708308,30.001717 C34.0392231,29.9698563 34.1120267,29.9337964 34.1898324,29.8933421 C34.2898929,29.8413166 34.3714014,29.797023 34.5609022,29.6925787 C35.4914834,29.1796839 35.9271146,29 36.5564011,29 Z M36.5769225,23 C37.1848131,23 37.7141778,23.1468884 38.158308,23.3962936 C38.3212255,23.4877813 38.463157,23.5880056 38.5844951,23.6914431 C38.6667245,23.7615414 38.7291765,23.8240291 38.7724833,23.8738523 C39.0828272,24.2308945 39.0746569,24.8006703 38.7542345,25.1464821 C38.433812,25.4922939 37.9224748,25.4831899 37.6121309,25.1261477 C37.6066068,25.1197924 37.5459356,25.0680719 37.4313164,25.0037064 C37.2076625,24.8781116 36.9261593,24.8 36.5769225,24.8 C36.2938592,24.8 36.0053394,24.9204396 35.320509,25.3040946 C35.2001202,25.3715387 35.1498686,25.3995518 35.0832218,25.4361266 C34.3834308,25.8201616 33.9050125,26 33.3461534,26 C32.768175,26 32.2921322,25.81523 31.5408432,25.3992351 C31.4931755,25.3728412 31.456776,25.3525219 31.3705282,25.3042508 C30.6844439,24.9202635 30.396553,24.8 30.1153843,24.8 C29.8516659,24.8 29.5557571,24.9181065 28.9747774,25.2427313 C28.9208007,25.2729387 28.9208007,25.2729387 28.8658834,25.3037674 C27.9488604,25.8185367 27.5147315,26 26.8846151,26 C26.2547944,26 25.8164023,25.8173854 24.8996903,25.3042187 C24.6600684,25.1700806 24.5617194,25.1162411 24.439113,25.0538502 C24.0940849,24.8782751 23.8508773,24.8 23.653846,24.8 C23.4384312,24.8 23.1712619,24.891873 22.7697706,25.1032059 C22.6705504,25.1554325 22.5897264,25.1998972 22.4018171,25.3047451 C21.4790512,25.8196217 21.0470785,26 20.4230769,26 C19.8202712,26 19.2926755,25.8532138 18.847534,25.6045733 C18.5624166,25.4453167 18.3589591,25.2741951 18.2336521,25.1331306 C17.9198471,24.7798645 17.9224645,24.2100235 18.2394982,23.8603551 C18.5565319,23.5106867 19.0679277,23.5136033 19.3817326,23.8668694 C19.38967,23.8758049 19.4537295,23.9296833 19.5714301,23.9954267 C19.7976518,24.1217862 20.0787766,24.2 20.4230769,24.2 C20.7012716,24.2 20.9900159,24.0794294 21.6785365,23.6952549 C21.8775854,23.5841914 21.965617,23.5357615 22.079799,23.4756596 C22.6789627,23.1602778 23.145055,23 23.653846,23 C24.1280916,23 24.5731526,23.1432406 25.110162,23.4165096 C25.2573338,23.4914011 25.3669455,23.5514062 25.6248547,23.6957813 C26.3091418,24.0788388 26.6000064,24.2 26.8846151,24.2 C27.1684324,24.2 27.4552757,24.0801012 28.1391089,23.6962326 C28.1944309,23.6651764 28.1944309,23.6651764 28.2506856,23.633694 C29.0505149,23.1867862 29.5184965,23 30.1153843,23 C30.742578,23 31.1758398,23.1809907 32.0955778,23.6957492 C32.17973,23.7428475 32.2148089,23.7624295 32.2596957,23.7872836 C32.7977463,24.0852067 33.0935007,24.2 33.3461534,24.2 C33.5883333,24.2 33.877775,24.0911983 34.3695083,23.8213422 C34.4308011,23.7877057 34.4785475,23.7610891 34.5949015,23.6959054 C35.5128506,23.1816529 35.9480101,23 36.5769225,23 Z M36.5769225,17 C37.1848131,17 37.7141778,17.1468884 38.158308,17.3962936 C38.3212255,17.4877813 38.463157,17.5880056 38.5844951,17.6914431 C38.6667245,17.7615414 38.7291765,17.8240291 38.7724833,17.8738523 C39.0828272,18.2308945 39.0746569,18.8006703 38.7542345,19.1464821 C38.433812,19.4922939 37.9224748,19.4831899 37.6121309,19.1261477 C37.6066068,19.1197924 37.5459356,19.0680719 37.4313164,19.0037064 C37.2076625,18.8781116 36.9261593,18.8 36.5769225,18.8 C36.2938592,18.8 36.0053394,18.9204396 35.320509,19.3040946 C35.2001202,19.3715387 35.1498686,19.3995518 35.0832218,19.4361266 C34.3834308,19.8201616 33.9050125,20 33.3461534,20 C32.768175,20 32.2921322,19.81523 31.5408432,19.3992351 C31.4931755,19.3728412 31.456776,19.3525219 31.3705282,19.3042508 C30.6844439,18.9202635 30.396553,18.8 30.1153843,18.8 C29.8516659,18.8 29.5557571,18.9181065 28.9747774,19.2427313 C28.9208007,19.2729387 28.9208007,19.2729387 28.8658834,19.3037674 C27.9488604,19.8185367 27.5147315,20 26.8846151,20 C26.2547944,20 25.8164023,19.8173854 24.8996903,19.3042187 C24.6600684,19.1700806 24.5617194,19.1162411 24.439113,19.0538502 C24.0940849,18.8782751 23.8508773,18.8 23.653846,18.8 C23.4384312,18.8 23.1712619,18.891873 22.7697706,19.1032059 C22.6705504,19.1554325 22.5897264,19.1998972 22.4018171,19.3047451 C21.4790512,19.8196217 21.0470785,20 20.4230769,20 C19.8202712,20 19.2926755,19.8532138 18.847534,19.6045733 C18.5624166,19.4453167 18.3589591,19.2741951 18.2336521,19.1331306 C17.9198471,18.7798645 17.9224645,18.2100235 18.2394982,17.8603551 C18.5565319,17.5106867 19.0679277,17.5136033 19.3817326,17.8668694 C19.38967,17.8758049 19.4537295,17.9296833 19.5714301,17.9954267 C19.7976518,18.1217862 20.0787766,18.2 20.4230769,18.2 C20.7012716,18.2 20.9900159,18.0794294 21.6785365,17.6952549 C21.8775854,17.5841914 21.965617,17.5357615 22.079799,17.4756596 C22.6789627,17.1602778 23.145055,17 23.653846,17 C24.1280916,17 24.5731526,17.1432406 25.110162,17.4165096 C25.2573338,17.4914011 25.3669455,17.5514062 25.6248547,17.6957813 C26.3091418,18.0788388 26.6000064,18.2 26.8846151,18.2 C27.1684324,18.2 27.4552757,18.0801012 28.1391089,17.6962326 C28.1944309,17.6651764 28.1944309,17.6651764 28.2506856,17.633694 C29.0505149,17.1867862 29.5184965,17 30.1153843,17 C30.742578,17 31.1758398,17.1809907 32.0955778,17.6957492 C32.17973,17.7428475 32.2148089,17.7624295 32.2596957,17.7872836 C32.7977463,18.0852067 33.0935007,18.2 33.3461534,18.2 C33.5883333,18.2 33.877775,18.0911983 34.3695083,17.8213422 C34.4308011,17.7877057 34.4785475,17.7610891 34.5949015,17.6959054 C35.5128506,17.1816529 35.9480101,17 36.5769225,17 Z M40,14 L33,7 L33,14 L40,14 Z M23.653846,11 C24.1280916,11 24.5731526,11.1432406 25.110162,11.4165096 C25.2573338,11.4914011 25.3669455,11.5514062 25.6248547,11.6957813 C26.3091418,12.0788388 26.6000064,12.2 26.8846151,12.2 C27.1684324,12.2 27.4552757,12.0801012 28.1391089,11.6962326 C28.1944309,11.6651764 28.1944309,11.6651764 28.2506856,11.633694 C29.0505149,11.1867862 29.5184965,11 30.1153843,11 L30,11.003 L30.0006469,12.8073624 C29.7898953,12.8340844 29.5400303,12.9359287 29.1407721,13.151451 L28.9747774,13.2427313 C28.9208007,13.2729387 28.9208007,13.2729387 28.8658834,13.3037674 C27.9488604,13.8185367 27.5147315,14 26.8846151,14 C26.2547944,14 25.8164023,13.8173854 24.8996903,13.3042187 C24.6600684,13.1700806 24.5617194,13.1162411 24.439113,13.0538502 C24.0940849,12.8782751 23.8508773,12.8 23.653846,12.8 C23.4384312,12.8 23.1712619,12.891873 22.7697706,13.1032059 C22.6705504,13.1554325 22.5897264,13.1998972 22.4018171,13.3047451 C21.4790512,13.8196217 21.0470785,14 20.4230769,14 C19.8202712,14 19.2926755,13.8532138 18.847534,13.6045733 C18.5624166,13.4453167 18.3589591,13.2741951 18.2336521,13.1331306 C17.9198471,12.7798645 17.9224645,12.2100235 18.2394982,11.8603551 C18.5565319,11.5106867 19.0679277,11.5136033 19.3817326,11.8668694 C19.38967,11.8758049 19.4537295,11.9296833 19.5714301,11.9954267 C19.7976518,12.1217862 20.0787766,12.2 20.4230769,12.2 C20.7012716,12.2 20.9900159,12.0794294 21.6785365,11.6952549 C21.8775854,11.5841914 21.965617,11.5357615 22.079799,11.4756596 C22.6789627,11.1602778 23.145055,11 23.653846,11 Z" id="Rectangle-2-Copy-2" fill="#000000" fill-rule="nonzero"></path>
        <polygon id="Path-7" fill="#000000" fill-rule="nonzero" points="10 14 8 23 12 21.2 16 23 14 14"></polygon>
        <circle id="Oval-3" fill="#000000" fill-rule="nonzero" cx="12" cy="13" r="4"></circle>
    </g>
</svg>