<?xml version="1.0" encoding="UTF-8"?>
<svg width="64px" height="64px" viewBox="0 0 64 64" version="1.1" xmlns="http://www.w3.org/2000/svg" xmlns:xlink="http://www.w3.org/1999/xlink">
    <title>lot_number</title>
    <g id="lot_number" stroke="none" stroke-width="1" fill="none" fill-rule="evenodd">
        <path d="M26.3979778,56.0000805 C28.4818171,57.7733295 30.9164371,59.1467033 33.5831828,60.0015472 L14,60 C10.6862915,60 8,57.3137085 8,54 L8,54 L8,17 C8,13.6862915 10.6862915,11 14,11 L14,11 L38,11 C41.3137085,11 44,13.6862915 44,17 L44,17 L44.001005,19.3806872 C42.7057821,19.1308389 41.3681706,19 40,19 L40,19 L40,17 C40,15.8954305 39.1045695,15 38,15 L38,15 L14,15 C12.8954305,15 12,15.8954305 12,17 L12,17 L12,54 C12,55.1045695 12.8954305,56 14,56 L14,56 Z" id="Rectangle" fill="#000000" fill-rule="nonzero"></path>
        <path d="M40,20 C51.045695,20 60,28.954305 60,40 C60,51.045695 51.045695,60 40,60 C28.954305,60 20,51.045695 20,40 C20,28.954305 28.954305,20 40,20 Z M40,24 C31.163444,24 24,31.163444 24,40 C24,48.836556 31.163444,56 40,56 C48.836556,56 56,48.836556 56,40 C56,31.163444 48.836556,24 40,24 Z" id="Oval" fill="#000000" fill-rule="nonzero"></path>
        <path d="M46.2543416,28.0657373 C47.3528601,28.1811962 48.1497874,29.1653194 48.0343284,30.263838 L47.746,32.9996192 L50,33 C51.1045695,33 52,33.8954305 52,35 C52,36.1045695 51.1045695,37 50,37 L47.326,36.9996192 L46.695,42.9996192 L50,43 C51.1045695,43 52,43.8954305 52,45 C52,46.1045695 51.1045695,47 50,47 L46.275,46.9996192 L45.9437592,50.1542759 C45.8283002,51.2527944 44.844177,52.0497217 43.7456584,51.9342627 C42.6471399,51.8188038 41.8502126,50.8346806 41.9656716,49.736162 L42.253,46.9996192 L36.275,46.9996192 L35.9437592,50.1542759 C35.8283002,51.2527944 34.844177,52.0497217 33.7456584,51.9342627 C32.6471399,51.8188038 31.8502126,50.8346806 31.9656716,49.736162 L32.253,46.9996192 L30,47 C28.8954305,47 28,46.1045695 28,45 C28,43.8954305 28.8954305,43 30,43 L32.673,42.9996192 L33.304,36.9996192 L30,37 C28.8954305,37 28,36.1045695 28,35 C28,33.8954305 28.8954305,33 30,33 L33.724,32.9996192 L34.0562408,29.8457241 C34.1716998,28.7472056 35.155823,27.9502783 36.2543416,28.0657373 C37.3528601,28.1811962 38.1497874,29.1653194 38.0343284,30.263838 L37.746,32.9996192 L43.724,32.9996192 L44.0562408,29.8457241 C44.1716998,28.7472056 45.155823,27.9502783 46.2543416,28.0657373 Z M43.304,36.9996192 L37.326,36.9996192 L36.695,42.9996192 L42.673,42.9996192 L43.304,36.9996192 Z" id="Combined-Shape" fill="#000000"></path>
        <rect id="Rectangle" fill="#000000" x="16" y="4" width="20" height="6" rx="2"></rect>
    </g>
</svg>