<?xml version="1.0" encoding="UTF-8"?>
<svg width="32px" height="32px" viewBox="0 0 32 32" version="1.1" xmlns="http://www.w3.org/2000/svg" xmlns:xlink="http://www.w3.org/1999/xlink">
    <title>simulator</title>
    <g id="simulator" stroke="none" stroke-width="1" fill="none" fill-rule="evenodd">
        <path d="M25,2 C25.5522847,2 26,2.44771525 26,3 L26,3 L26,29 C26,29.5522847 25.5522847,30 25,30 L25,30 L7,30 C6.44771525,30 6,29.5522847 6,29 L6,29 L6,3 C6,2.44771525 6.44771525,2 7,2 L7,2 Z M16,27.5 C15.4477153,27.5 15,27.9477153 15,28.5 C15,29.0522847 15.4477153,29.5 16,29.5 C16.5522847,29.5 17,29.0522847 17,28.5 C17,27.9477153 16.5522847,27.5 16,27.5 Z M24,4 L8,4 L8,27 L24,27 L24,4 Z" id="Rectangle" fill="#000000" fill-rule="nonzero"></path>
        <g id="cert" transform="translate(9.000000, 6.000000)" fill="#000000" fill-rule="nonzero">
            <path d="M8.81166889,0 L10.080097,1.36279784 L11.9495715,1.73094138 L12.3348844,3.51711255 L13.7612403,4.72901979 L13.1601939,6.45996117 L13.7612403,8.19090255 L12.3348844,9.40280979 L11.9495715,11.188981 L11.718,11.234 L13.9290055,16.1624182 C14.1088188,16.5632868 13.9349975,17.0224888 13.5438084,17.2257063 L13.4497375,17.2679155 L9.07489306,18.9398764 C8.62554017,19.1116084 8.12313077,18.9016586 7.94232035,18.4855965 L7.90863423,18.3933495 L7,15.3539576 L6.09136577,18.3933495 C5.95840957,18.8379605 5.47709328,19.0889998 5.0220724,18.9708981 L4.92510694,18.9398764 L0.550262519,17.2679155 C0.126438604,17.1059401 -0.0904996107,16.6638019 0.0357146472,16.2558188 L0.0709945024,16.1624182 L2.281,11.234 L2.05042854,11.188981 L1.66511556,9.40280979 L0.238759654,8.19090255 L0.839806064,6.45996117 L0.238759654,4.72901979 L1.66511556,3.51711255 L2.05042854,1.73094138 L3.91990303,1.36279784 L5.18833111,0 L7,0.574263932 L8.81166889,0 Z M4.001,11.645 L2.03192667,16.0336097 L4.6743327,17.0434742 L5.983,12.667 L5.18833111,12.9199223 L4.001,11.645 Z M9.998,11.645 L8.81166889,12.9199223 L8.016,12.667 L9.32479233,17.0434742 L11.9671984,16.0336097 L9.998,11.645 Z M8.26870488,1.93312681 L7,2.33583754 L5.73042015,1.93312681 L4.8417679,2.88836534 L3.53074837,3.14529852 L3.26183236,4.39789935 L2.26204349,5.24695348 L2.68353581,6.45996117 L2.26204349,7.67213288 L3.26183236,8.52202298 L3.53074837,9.77378783 L4.8417679,10.031557 L5.73042015,10.9859595 L7,10.5840848 L8.26870488,10.9859595 L9.1582321,10.031557 L10.4683767,9.77378783 L10.7381676,8.52202298 L11.7370815,7.67213288 L11.3164642,6.45996117 L11.7370815,5.24695348 L10.7381676,4.39789935 L10.4683767,3.14529852 L9.1582321,2.88836534 L8.26870488,1.93312681 Z M6.99975108,3.34392196 C8.93267897,3.34392196 10.4996266,4.84104682 10.4996266,6.68784392 C10.4996266,8.53464103 8.93267897,10.0317659 6.99975108,10.0317659 C5.06682319,10.0317659 3.49987554,8.53464103 3.49987554,6.68784392 C3.49987554,4.84104682 5.06682319,3.34392196 6.99975108,3.34392196 Z M6.99975108,5.01588294 C6.03328714,5.01588294 5.24981331,5.76444537 5.24981331,6.68784392 C5.24981331,7.61124248 6.03328714,8.3598049 6.99975108,8.3598049 C7.96621502,8.3598049 8.74968885,7.61124248 8.74968885,6.68784392 C8.74968885,5.76444537 7.96621502,5.01588294 6.99975108,5.01588294 Z"></path>
        </g>
    </g>
</svg>