<?xml version="1.0" encoding="UTF-8"?>
<svg width="64px" height="64px" viewBox="0 0 64 64" version="1.1" xmlns="http://www.w3.org/2000/svg" xmlns:xlink="http://www.w3.org/1999/xlink">
    <title>manager</title>
    <g id="manager" stroke="none" stroke-width="1" fill="none" fill-rule="evenodd">
        <path d="M32.008255,3.99929384 L32.4016462,4.00244683 C39.1683105,4.1116294 43.2263964,7.05009247 44.8126406,11.8333621 L44.901414,12.1113598 L45.0259179,12.5402619 C45.4913477,14.2423288 45.6134134,15.9276718 45.5257809,17.6918987 L45.486255,18.313 L45.5142618,18.3625139 C46.0837132,19.4073687 46.2851355,20.9792055 46.2851355,23.2371849 C46.2851355,24.6324032 45.8255997,26.1271958 45.0409944,27.7224648 L44.8679382,28.0658464 L44.65178,28.4739505 C44.3593906,29.0120078 44.0515035,29.5248565 43.742717,30.0019114 L43.5111867,30.3528259 L43.296255,30.666 L43.2138819,31.0069596 C43.0595083,31.6122795 42.8712007,32.2108979 42.6421035,32.7873036 L42.455255,33.233 L42.8282247,33.4348139 L43.5468718,33.8106191 L44.3230934,34.2025923 L45.1605003,34.6131364 L46.1388291,35.0810092 L49.7105241,36.7423209 L50.7335437,37.2259338 L51.5844383,37.639916 L52.1236269,37.9125239 L52.5888631,38.1587547 L52.8627757,38.3109616 L53.2265369,38.525412 L53.5424805,38.7281028 L53.820407,38.9245156 C56.6208792,41.0084457 60.008255,48.2588508 60.008255,52.868027 C60.008255,53.9957079 59.5518895,55.0385466 58.7061205,55.8824159 C58.1565885,56.4307136 57.4314825,56.895922 56.5620637,57.2805393 C55.1931739,57.8861148 53.2901776,58.370505 50.9360364,58.7528936 C49.2117166,59.0329789 47.2304174,59.2624642 45.0366106,59.447019 L44.3721378,59.5010432 L43.5349678,59.5640089 L42.7964617,59.6153555 L41.6944802,59.6855221 L40.6022482,59.7477362 L39.1665807,59.8188454 L37.761388,59.8770833 L36.3941803,59.9231736 L35.7271677,59.9418896 L34.4310185,59.9711156 L33.1916293,59.9900034 L32.01651,59.9992768 L32.004,56.9992938 L31.991745,59.9992768 L30.8166257,59.9900034 L29.5772365,59.9711156 L27.6140747,59.9231736 L26.246867,59.8770833 L24.8416743,59.8188454 L23.4060068,59.7477362 C22.681806,59.7088432 21.9489934,59.664852 21.2117933,59.6153555 L20.4732872,59.5640089 L19.6361172,59.5010432 C17.1766672,59.3078553 14.9689704,59.0609874 13.0722186,58.7528936 C10.7180774,58.370505 8.8150811,57.8861148 7.44619131,57.2805393 C6.57677252,56.895922 5.85166653,56.4307136 5.30213452,55.8824159 C4.45636549,55.0385466 4,53.9957079 4,52.868027 C4,48.2588508 7.38737582,41.0084457 10.187848,38.9245156 L10.4657745,38.7281028 L10.7817181,38.525412 L11.1454793,38.3109616 L11.4193919,38.1587547 L11.8846281,37.9125239 L12.4238167,37.639916 L13.2747113,37.2259338 L14.2977309,36.7423209 L17.8694259,35.0810092 L18.8477547,34.6131364 L19.6851616,34.2025923 L20.4613832,33.8106191 L21.1800303,33.4348139 L21.553,33.233 L21.5457296,33.2152006 C21.233329,32.5097882 20.9873401,31.7636095 20.7943731,31.0069596 L20.712,30.666 L20.4970683,30.3528259 C20.1116637,29.7797053 19.7219618,29.1465221 19.356475,28.4739505 L19.1403168,28.0658464 C18.2506478,26.3412457 17.7231195,24.7320617 17.7231195,23.2371849 C17.7231195,20.9792055 17.9245418,19.4073687 18.4939932,18.3625139 L18.522,18.313 L18.5114726,18.1750791 C18.3754855,16.2339596 18.4745955,14.3970622 18.9823371,12.5402619 L19.106841,12.1113598 C20.6267801,7.16415662 24.7098164,4.11372906 31.6066088,4.00244683 L32,3.99929384 L32,7.99929384 C26.6118204,7.99929384 23.9602963,9.93408486 22.9304514,13.2860952 C22.4912147,14.7157533 22.3906896,16.2128572 22.497565,17.8319951 L22.5389721,18.3579252 L22.5758605,18.7400325 C22.6342839,19.3266754 22.4308522,19.9002347 22.0351483,20.3164062 L21.981,20.369 L21.9487462,20.481909 L21.9259767,20.5747051 C21.8518855,20.8951251 21.7952062,21.3301732 21.7608366,21.8806447 L21.7369546,22.3807629 L21.7246853,22.9375264 L21.7231195,23.2371849 C21.7231195,24.6122056 22.8638084,26.823402 24.1966833,28.6661032 C24.3613554,28.8937625 24.476211,29.1535644 24.5337656,29.4285792 C24.7691804,30.5534686 25.1783165,31.7330638 25.7122034,32.5267208 L25.8608651,32.7332729 C26.5808085,33.6650976 26.3438985,35.0141459 25.3495432,35.6449179 C25.1762748,35.7548312 24.9969701,35.8655357 24.8115705,35.9771533 C24.0735002,36.4214995 23.2535143,36.872919 22.3193015,37.3532334 L21.4898201,37.7725168 L20.5998692,38.2090067 L18.8701948,39.030155 L15.8254842,40.4445286 L14.9244677,40.8725265 L14.0189325,41.3165032 L13.454842,41.6074295 L13.1165541,41.7927522 L12.8446844,41.9531919 L12.6975591,42.0477912 L12.5757861,42.1335266 C11.5987955,42.8605397 10.2869514,45.0656696 9.31839555,47.4609168 L9.08380087,48.0629439 C8.44160335,49.7756861 8,51.5299639 8,52.868027 C8,52.9043424 8.01504992,52.9387329 8.12737978,53.0508105 C8.29604357,53.2190954 8.614713,53.4235451 9.06445007,53.6225018 C10.0613651,54.0635215 11.6669424,54.4722064 13.7135425,54.8046404 C15.3273007,55.0667669 17.2118468,55.2849244 19.3076794,55.4611907 L19.9427082,55.5128159 L20.766769,55.5747951 C21.2769134,55.6114943 21.7859719,55.6454487 22.2923949,55.6767965 L23.8022071,55.763158 L25.2869067,55.8347085 C25.5317474,55.8454454 25.7751542,55.8555997 26.0169334,55.8651887 L27.4465288,55.9160771 L28.132,55.9342938 L29.9578889,41.3322656 C28.8312684,40.5787879 28,39.2893939 28,38 L28.0003757,37.7334711 C28.0082645,35.911157 28.1818182,35 32,35 C36,35 36,36 36,38 C36,39.2897727 35.1682432,40.5795455 34.0411181,41.3329295 L35.866,55.9342938 L36.5617262,55.9160771 L37.9913216,55.8651887 L38.7213483,55.8347085 L40.2060479,55.763158 L41.7158601,55.6767965 L42.4772775,55.6278026 L43.241486,55.5747951 L44.0655468,55.5128159 L44.7005756,55.4611907 C46.7964082,55.2849244 48.6809543,55.0667669 50.2947125,54.8046404 C52.3413126,54.4722064 53.9468899,54.0635215 54.9438049,53.6225018 C55.393542,53.4235451 55.7122114,53.2190954 55.8808752,53.0508105 C55.9932051,52.9387329 56.008255,52.9043424 56.008255,52.868027 C56.008255,51.6255398 55.6274848,50.0241736 55.0589097,48.430429 L54.9244541,48.0629439 L54.6898595,47.4609168 C53.7634147,45.1698108 52.5228839,43.0526496 51.5617457,42.236631 L51.4324689,42.1335266 L51.3106959,42.0477912 L51.1635706,41.9531919 L50.8917009,41.7927522 L50.553413,41.6074295 L49.9893225,41.3165032 L49.0837873,40.8725265 L48.1827708,40.4445286 L45.1380602,39.030155 L43.4083858,38.2090067 L42.5184349,37.7725168 L41.6889535,37.3532334 C40.7547407,36.872919 39.9347548,36.4214995 39.1966845,35.9771533 C39.0112849,35.8655357 38.8319802,35.7548312 38.6587118,35.6449179 C37.7095545,35.0428173 37.4505487,33.7862543 38.055128,32.8628194 L38.2960516,32.5267208 C38.8299385,31.7330638 39.2390746,30.5534686 39.4744894,29.4285792 C39.532044,29.1535644 39.6468996,28.8937625 39.8115717,28.6661032 C41.1444466,26.823402 42.2851355,24.6122056 42.2851355,23.2371849 L42.2835697,22.9375264 L42.2713004,22.3807629 L42.2474184,21.8806447 C42.2179587,21.408812 42.1721083,21.0217801 42.1129513,20.7190483 L42.0822783,20.5747051 L42.0595088,20.481909 L42.027255,20.369 L41.9731067,20.3164062 C41.6169732,19.9418518 41.4165802,19.4398134 41.4226536,18.9154885 L41.4323945,18.7400325 L41.4692829,18.3579252 L41.51069,17.8319951 C41.6175654,16.2128572 41.5170403,14.7157533 41.0778036,13.2860952 C40.0708442,10.008574 37.5134793,8.08598441 32.3634249,8.00215451 L32.008255,7.99929384 L32.008255,3.99929384 Z" id="Path-2" fill="#000000" fill-rule="nonzero"></path>
    </g>
</svg>