<svg xmlns="http://www.w3.org/2000/svg" width="32" height="32" viewBox="0 0 32 32">
  <path d="M22,3 C24.8589272,3 27.3856619,3.72192421 29.5547002,5.16794971 C29.8328989,5.35341548 30,5.66564681 30,6 L30,6 L30,28 C30,28.7986954 29.1098545,29.2750868 28.4452998,28.8320503 C26.6143381,27.6114091 24.4744061,27 22,27 C19.578299,27 17.8321708,27.5820427 16.7071068,28.7071068 C16.3165825,29.0976311 15.6834175,29.0976311 15.2928932,28.7071068 C14.1678292,27.5820427 12.421701,27 10,27 C7.52559389,27 5.38566195,27.6114091 3.5547002,28.8320503 C2.89014547,29.2750868 2,28.7986954 2,28 L2,28 L2,6 C2,5.66564681 2.16710114,5.35341548 2.4452998,5.16794971 C4.61433805,3.72192421 7.14107278,3 10,3 C12.4052615,3 14.3616543,3.51269548 15.8384498,4.56008428 L15.8384498,4.56008428 L16,4.679 L16.1615502,4.56008428 C17.5606196,3.5678212 19.3901309,3.05544909 21.6239566,3.00426383 L21.6239566,3.00426383 Z M10,5 C7.81670049,5 5.89380475,5.47601056 4.21379273,6.42653614 L4.21379273,6.42653614 L4,6.552 L4,26.285 L4.2315473,26.1767475 C5.84322801,25.4480152 7.61922022,25.0579984 9.55135476,25.0059997 L9.55135476,25.0059997 L10,25 C11.9755279,25 13.6482521,25.3458607 15.001147,26.0497703 L15.0016776,6.43972073 C13.8750707,5.48995262 12.2218776,5 10,5 Z M22,5 C19.7787841,5 18.125914,5.48966085 16.9993291,6.43887234 L16.9995709,26.0493969 C18.2656383,25.3908371 19.8117502,25.0457882 21.6239566,25.0042638 L21.6239566,25.0042638 L22,25 C24.106578,25 26.0327965,25.3919588 27.7684527,26.1767475 L27.7684527,26.1767475 L28,26.285 L28,6.552 L27.7862073,6.42653614 C26.2181961,5.53937894 24.4386061,5.06557703 22.433193,5.00634636 L22.433193,5.00634636 Z"/>
</svg>
