<?xml version="1.0" encoding="UTF-8"?>
<svg width="64px" height="64px" viewBox="0 0 64 64" version="1.1" xmlns="http://www.w3.org/2000/svg" xmlns:xlink="http://www.w3.org/1999/xlink">
    <title>map</title>
    <g id="map" stroke="none" stroke-width="1" fill="none" fill-rule="evenodd">
        <path d="M4,6.15641105 C4,4.55543944 5.68498077,3.51416739 7.11707544,4.23014366 L7.11707544,4.23014366 L23.3846154,12.361026 L39.6521553,4.23014366 C40.1718984,3.97029792 40.7705166,3.9331771 41.3127954,4.1187812 L41.3127954,4.1187812 L41.5786139,4.23014366 L58.8093831,12.8446733 C59.5390718,13.2094814 60,13.9552049 60,14.7709407 L60,14.7709407 L60,57.8435889 C60,59.4445606 58.3150192,60.4858326 56.8829246,59.7698563 L56.8829246,59.7698563 L40.6153846,51.6368203 L24.3478447,59.7698563 C23.8281016,60.0297021 23.2294834,60.0668229 22.6872046,59.8812188 L22.6872046,59.8812188 L22.4213861,59.7698563 L5.19061687,51.1553267 C4.46092819,50.7905186 4,50.0447951 4,49.2290593 L4,49.2290593 Z M39,9.371 L25,16.371 L25,54.625 L39,47.628 L39,9.371 Z M43,9.756 L43,48.013 L55.6923077,54.3590117 L55.6923077,16.1018855 L43,9.756 Z M8.30769231,9.6409883 L8.30769231,47.8981145 L21,54.242 L21,15.987 L8.30769231,9.6409883 Z" id="Combined-Shape" fill="#000000" fill-rule="nonzero"></path>
    </g>
</svg>