<?xml version="1.0" encoding="UTF-8"?>
<svg width="64px" height="64px" viewBox="0 0 64 64" version="1.1" xmlns="http://www.w3.org/2000/svg" xmlns:xlink="http://www.w3.org/1999/xlink">
    <title>market</title>
    <g id="market" stroke="none" stroke-width="1" fill="none" fill-rule="evenodd">
        <path d="M51.9999943,4 C53.1045695,4 53.9999943,4.8954305 53.9999943,6 L53.9999943,6 L53.9999943,13.448 L59.7149859,22.9710085 C59.9853353,23.4215908 60.066334,23.9582474 59.9452354,24.4648576 L59.9452354,24.4648576 L59.8973666,24.6324555 C59.0251388,27.249139 57.7137759,29.2149954 56.0006606,30.4550237 L56,58 C56,59.0543618 55.1841222,59.9181651 54.1492623,59.9945143 L54,60 L10,60 C8.9456382,60 8.08183488,59.1841222 8.00548574,58.1492623 L8,58 L8.0003307,30.4557425 C6.28673092,29.2157551 4.97502977,27.2496446 4.1026334,24.6324555 C3.91800389,24.078567 3.98462592,23.4716555 4.28501415,22.9710085 L4.28501415,22.9710085 L9.99999428,13.446 L9.99999428,6 C9.99999428,4.9456382 10.8158778,4.08183488 11.8507377,4.00548574 L11.8507377,4.00548574 L11.9999943,4 Z M44.302,28.83 L44.1941041,28.9872175 C42.8460336,30.8786522 40.8506215,31.9262481 38.2778592,31.996247 L38.2778592,31.996247 L37.9999943,32 C35.4794417,32 33.4934063,31.0865426 32.104651,29.3795603 L32.104651,29.3795603 L31.9999943,29.246 L31.895349,29.3795603 C30.5580291,31.023321 28.6668527,31.931248 26.2778592,31.996247 L26.2778592,31.996247 L25.9999943,32 C23.2927337,32 21.2021118,30.9462035 19.8058959,28.9872175 L19.8058959,28.9872175 L19.697,28.83 L19.6001641,28.9499194 C17.9957634,30.8732627 15.8747624,31.9234092 13.2891945,31.9959664 L13.2891945,31.9959664 L12.9999943,32 C12.6588006,32 12.3254533,31.9833543 12.0000673,31.9502935 L12,56 L33.9999943,56 L34,42 C34,40.9456382 34.8158778,40.0818349 35.8507377,40.0054857 L36,40 L46,40 C47.1045695,40 48,40.8954305 48,42 L48,42 L47.9999943,56 L52,56 L52.000926,31.9501917 C51.6752215,31.9833201 51.3415392,32 50.9999943,32 C48.2830574,32 46.0636588,30.9444976 44.3998359,28.9499194 L44.3998359,28.9499194 L44.302,28.83 Z M44,44 L38,44 L38,56 L44,56 L44,44 Z M28,34 C29.1045695,34 30,34.8954305 30,36 L30,36 L30,44 C30,45.1045695 29.1045695,46 28,46 L28,46 L18,46 C16.8954305,46 16,45.1045695 16,44 L16,44 L16,36 C16,34.8954305 16.8954305,34 18,34 L18,34 Z M26,38 L20,38 L20,42 L26,42 L26,38 Z M17.4347032,25.000844 L8.56529683,25.000844 C9.5748105,27.000896 10.9431457,27.9275491 12.7775169,27.9959035 L12.7775169,27.9959035 L13,28 C14.9467569,28 16.3847883,27.0809389 17.4347032,25.000844 Z M29.7278199,25.0013171 L22.2721801,25.0013171 C22.9041628,27.1263529 24.0808825,28 26,28 C27.9191175,28 29.0958372,27.1263529 29.7278199,25.0013171 Z M41.7278199,25.0013171 L34.2721801,25.0013171 C34.9041628,27.1263529 36.0808825,28 38,28 C39.9191175,28 41.0958372,27.1263529 41.7278199,25.0013171 Z M55.4347032,25.000844 L46.5652968,25.000844 C47.6152117,27.0809389 49.0532431,28 51,28 C52.9467569,28 54.3847883,27.0809389 55.4347032,25.000844 Z M20.3809943,15 L13.7289943,15 L13.7149859,15.0289915 L10.1309943,21 L18.7439943,21 L20.3809943,15 Z M29.9999943,15 L24.5269943,15 L22.8909943,21 L29.9999943,21 L29.9999943,15 Z M39.4719943,15 L33.9999943,15 L33.9999943,21 L41.1079943,21 L39.4719943,15 Z M50.2687195,15.0013332 L43.6179943,15 L45.2549943,21 L53.8679943,21 L50.2850141,15.0289915 C50.2795058,15.0198109 50.2740741,15.0105911 50.2687195,15.0013332 Z M50,8 L14,8 L13.9999943,11 L49.9999943,11 L50,8 Z" id="Combined-Shape" fill="#000000" fill-rule="nonzero"></path>
    </g>
</svg>