<?xml version="1.0" encoding="UTF-8"?>
<svg width="64px" height="64px" viewBox="0 0 64 64" version="1.1" xmlns="http://www.w3.org/2000/svg" xmlns:xlink="http://www.w3.org/1999/xlink">
    <title>markdown</title>
    <g id="markdown" stroke="none" stroke-width="1" fill="none" fill-rule="evenodd">
        <path d="M56,6 C58.209139,6 60,7.790861 60,10 L60,54 C60,56.209139 58.209139,58 56,58 L8,58 C5.790861,58 4,56.209139 4,54 L4,10 C4,7.790861 5.790861,6 8,6 L56,6 Z M56,10 L8,10 L8,54 L56,54 L56,10 Z" id="Rectangle" fill="#000000" fill-rule="nonzero"></path>
        <path d="M12,40 L12,24 C12,23.4477153 12.4477153,23 13,23 L16.5400651,23 C16.83199,23 17.1093395,23.1275627 17.2993217,23.3492086 L23,30 L23,30 L28.7006783,23.3492086 C28.8906605,23.1275627 29.16801,23 29.4599349,23 L33,23 C33.5522847,23 34,23.4477153 34,24 L34,40 C34,40.5522847 33.5522847,41 33,41 L30,41 C29.4477153,41 29,40.5522847 29,40 L29,31 L29,31 L23.7635886,36.2364114 C23.3730643,36.6269357 22.7398993,36.6269357 22.349375,36.2364114 C22.3312775,36.2183139 22.3138814,36.1995283 22.2972252,36.180096 L17,30 L17,30 L17,40 C17,40.5522847 16.5522847,41 16,41 L13,41 C12.4477153,41 12,40.5522847 12,40 Z" id="Path-163" fill="#000000"></path>
        <path d="M42.5,23 L46.5,23 C46.7761424,23 47,23.2238576 47,23.5 L47,31.5 C47,31.7761424 47.2238576,32 47.5,32 L51.8400323,32 C52.1161747,32 52.3400323,32.2238576 52.3400323,32.5 C52.3400323,32.6276662 52.2911975,32.7504968 52.2035389,32.8433118 L44.8635066,40.6151107 C44.6739007,40.8158698 44.3574474,40.8249113 44.1566882,40.6353055 C44.1497657,40.6287676 44.1430314,40.6220332 44.1364934,40.6151107 L36.7964611,32.8433118 C36.6068553,32.6425526 36.6158968,32.3260993 36.8166559,32.1364934 C36.9094709,32.0488348 37.0323015,32 37.1599677,32 L41.5,32 C41.7761424,32 42,31.7761424 42,31.5 L42,23.5 C42,23.2238576 42.2238576,23 42.5,23 Z" id="Path-164" fill="#000000"></path>
    </g>
</svg>