<?xml version="1.0" encoding="UTF-8"?>
<svg width="64px" height="64px" viewBox="0 0 64 64" version="1.1" xmlns="http://www.w3.org/2000/svg" xmlns:xlink="http://www.w3.org/1999/xlink">
    <title>materials</title>
    <g id="materials" stroke="none" stroke-width="1" fill="none" fill-rule="evenodd">
        <path d="M28.7881242,5.15384685 C29.1932736,4.98202006 29.6432789,4.95321178 30.0663868,5.07201546 L30.0663868,5.07201546 L58.5576149,13.0720152 C59.4097379,13.3112813 60,14.1002637 60,15 L60,15 L60,45 C60,45.7691763 59.5666316,46.4701987 58.8853663,46.8030455 L58.8853663,46.8030455 L34.3239628,58.8030451 C33.8509952,59.0341235 33.3068804,59.0630865 32.8128127,58.8834828 L32.8128127,58.8834828 L5.30404076,48.8834831 C4.5220195,48.5992024 4,47.8452266 4,47 L4,47 L4,17 C4,16.1925986 4.47695824,15.4643856 5.20917679,15.1538465 L5.20917679,15.1538465 Z M7.929,19.409 L7.92982456,45.5899994 L31.5,54.157 L31.5,26.38 L7.929,19.409 Z M56.07,17.965 L50,20.478 L50,28.6690193 L46,28.4007058 L42,32 L42,23.789 L35.5,26.48 L35.5,53.789 L56.0701754,43.7399995 L56.07,17.965 Z M17,40.0594743 L29,44.1704197 C29.5522847,44.3596208 30,44.9435592 30,45.4746828 L30,49.3214201 C30,49.8525437 29.5522847,50.1297267 29,49.9405257 L17,45.8295803 C16.4477153,45.6403792 16,45.0564408 16,44.5253172 L16,40.6785799 C16,40.1474563 16.4477153,39.8702733 17,40.0594743 Z M18.62,13.799 L12.273,16.491 L33.7654761,22.8465614 L39.923,20.297 L18.62,13.799 Z M29.6755088,9.11100057 L25.986,10.676 L47.392,17.205 L51.881,15.346 L29.6755088,9.11100057 Z" id="Combined-Shape" fill="#000000" fill-rule="nonzero"></path>
    </g>
</svg>