<?xml version="1.0" encoding="UTF-8"?>
<svg width="64px" height="64px" viewBox="0 0 64 64" version="1.1" xmlns="http://www.w3.org/2000/svg" xmlns:xlink="http://www.w3.org/1999/xlink">
    <title>mattress_encasement</title>
    <g id="mattress_encasement" stroke="none" stroke-width="1" fill="none" fill-rule="evenodd">
        <path d="M45.624695,13.7191315 C47.5211459,15.2362922 47.996748,17.7112655 47.1748341,20.9995833 L54,21.0000004 C56.1421954,21.0000004 57.8910789,22.6839688 57.9951047,24.80036 L58,25.0000004 L58,33.5000004 C58,33.5569045 57.995247,33.6126986 57.9861165,33.6670072 C59.1051317,34.0546651 59.9233676,35.0890349 59.9949073,36.3237276 L60,36.5000004 L60,42.5000004 C60,44.0976812 58.75108,45.4036612 57.1762728,45.4949077 L57,45.5000004 L5,45.5000004 C4.44771525,45.5000004 4,45.0522851 4,44.5000004 C4,43.9871645 4.38604019,43.5644932 4.88337887,43.5067281 L5,43.5000004 L57,43.5000004 C57.5128358,43.5000004 57.9355072,43.1139602 57.9932723,42.6166215 L58,42.5000004 L58,36.5000004 C58,35.9871645 57.6139598,35.5644932 57.1166211,35.5067281 L57,35.5000004 L32.7477477,35.5000004 C32.195463,35.5000004 31.7477477,35.0522851 31.7477477,34.5000004 C31.7477477,33.9871645 32.1337879,33.5644932 32.6311266,33.5067281 L32.7477477,33.5000004 L56,33.5000004 L56,25.0000004 C56,23.9456386 55.1841222,23.0818352 54.1492623,23.0054861 L54,23.0000004 L43,23.0000004 C42.4477153,23.0000004 42,22.5522851 42,22.0000004 C42,21.4871645 42.3860402,21.0644932 42.8833789,21.0067281 L43,21.0000004 L45.103,20.999677 L45.1306246,20.907736 C45.9173601,18.0972474 45.6191879,16.2759755 44.375305,15.2808692 C42.4299883,13.7246159 39.6080045,14.460901 36.9673346,17.4131195 L36.7592566,17.6507917 C33.7263958,21.1891293 29.6640391,22.9035239 24.4497619,22.9960378 L24,23.0000004 L5,23.0000004 C4.44771525,23.0000004 4,22.5522851 4,22.0000004 C4,21.4871645 4.38604019,21.0644932 4.88337887,21.0067281 L5,21.0000004 L24,21.0000004 C28.7288516,21.0000004 32.302421,19.6064528 34.9912495,16.6326394 L35.2407434,16.349209 C38.5636845,12.4724444 42.6397227,11.3311537 45.624695,13.7191315 Z M22.0408182,30.1886554 L22.1696074,30.1969136 L22.3426823,30.2185001 L28.131186,31.2251964 C28.6446371,31.3144922 29.0919417,31.5977392 29.3922053,32.0004924 L30,32.0000004 C30.5522847,32.0000004 31,32.4477156 31,33.0000004 C31,33.5522851 30.5522847,34.0000004 30,34.0000004 L29.6194482,34.0005812 C29.3816842,34.5404284 28.9084624,34.9703897 28.2933474,35.1308545 L28.2933474,35.1308545 L22.5048438,36.6408989 C22.3400075,36.6838996 22.1703528,36.7056643 22,36.7056643 C20.8954305,36.7056643 20,35.8102338 20,34.7056643 L20,34.7056643 L20,32.1889236 C20,32.0740588 20.0098954,31.9594075 20.0295765,31.8462413 C20.1930268,30.9064021 20.9877456,30.2346802 21.9024436,30.190872 L21.9024436,30.190872 L22.0408182,30.1886554 Z M22,32.1900004 L22,34.7056643 L27.7885036,33.1956199 L22.0570257,32.1971564 L22,32.1900004 Z M18,32.0000004 C18.5522847,32.0000004 19,32.4477156 19,33.0000004 C19,33.5522851 18.5522847,34.0000004 18,34.0000004 L5,34.0000004 C4.44771525,34.0000004 4,33.5522851 4,33.0000004 C4,32.4477156 4.44771525,32.0000004 5,32.0000004 L18,32.0000004 Z M44,16.0000004 C44.5522847,16.0000004 45,16.4477156 45,17.0000004 C45,17.5522851 44.5522847,18.0000004 44,18.0000004 C43.2370175,18.0000004 42.8676758,18.2975985 42.4199379,19.4379747 L42.2827926,19.8059161 L42.1908518,20.0771942 L41.4884901,22.2483 L41.1313743,23.3061832 L40.9363292,23.8511238 C39.4926134,27.7010326 36.7644206,30.4292254 32.4961389,32.8682435 C32.0166215,33.1422535 31.4057668,32.9756567 31.1317569,32.4961393 C30.8577469,32.0166219 31.0243436,31.4057672 31.5038611,31.1317572 C35.4022461,28.9041086 37.8073866,26.4989681 39.0636708,23.1488769 L39.1713396,22.8522361 L39.4370068,22.0782444 L39.9880227,20.399277 L40.3196791,19.3612229 C41.1195106,17.028381 42.051909,16.0000004 44,16.0000004 Z M43,30.0000004 C43.5522847,30.0000004 44,30.4477156 44,31.0000004 C44,31.5522851 43.5522847,32.0000004 43,32.0000004 C42.4477153,32.0000004 42,31.5522851 42,31.0000004 C42,30.4477156 42.4477153,30.0000004 43,30.0000004 Z M38,30.0000004 C38.5522847,30.0000004 39,30.4477156 39,31.0000004 C39,31.5522851 38.5522847,32.0000004 38,32.0000004 C37.4477153,32.0000004 37,31.5522851 37,31.0000004 C37,30.4477156 37.4477153,30.0000004 38,30.0000004 Z M48,30.0000004 C48.5522847,30.0000004 49,30.4477156 49,31.0000004 C49,31.5522851 48.5522847,32.0000004 48,32.0000004 C47.4477153,32.0000004 47,31.5522851 47,31.0000004 C47,30.4477156 47.4477153,30.0000004 48,30.0000004 Z M53,30.0000004 C53.5522847,30.0000004 54,30.4477156 54,31.0000004 C54,31.5522851 53.5522847,32.0000004 53,32.0000004 C52.4477153,32.0000004 52,31.5522851 52,31.0000004 C52,30.4477156 52.4477153,30.0000004 53,30.0000004 Z M43,25.0000004 C43.5522847,25.0000004 44,25.4477156 44,26.0000004 C44,26.5522851 43.5522847,27.0000004 43,27.0000004 C42.4477153,27.0000004 42,26.5522851 42,26.0000004 C42,25.4477156 42.4477153,25.0000004 43,25.0000004 Z M48,25.0000004 C48.5522847,25.0000004 49,25.4477156 49,26.0000004 C49,26.5522851 48.5522847,27.0000004 48,27.0000004 C47.4477153,27.0000004 47,26.5522851 47,26.0000004 C47,25.4477156 47.4477153,25.0000004 48,25.0000004 Z M53,25.0000004 C53.5522847,25.0000004 54,25.4477156 54,26.0000004 C54,26.5522851 53.5522847,27.0000004 53,27.0000004 C52.4477153,27.0000004 52,26.5522851 52,26.0000004 C52,25.4477156 52.4477153,25.0000004 53,25.0000004 Z" id="Combined-Shape" fill="#000000" fill-rule="nonzero"></path>
    </g>
</svg>