<?xml version="1.0" encoding="UTF-8"?>
<svg width="64px" height="64px" viewBox="0 0 64 64" version="1.1" xmlns="http://www.w3.org/2000/svg" xmlns:xlink="http://www.w3.org/1999/xlink">
    <title>merge</title>
    <g id="merge" stroke="none" stroke-width="1" fill="none" fill-rule="evenodd">
        <path d="M32,4 C37.5228475,4 42,8.4771525 42,14 C42,18.9524372 38.3999068,23.0640276 33.6739865,23.8605051 L41,32 L34.4465482,32.0007328 C35.4840304,36.3939363 38.338339,39.9517041 43.1035671,42.7600094 C44.8980198,41.0491559 47.3264881,40 50,40 C55.5228475,40 60,44.4771525 60,50 C60,55.5228475 55.5228475,60 50,60 C44.4771525,60 40,55.5228475 40,50 C40,48.5966535 40.2890717,47.2608233 40.8109183,46.0488063 C36.7886593,43.6243737 33.8689251,40.6390208 32.0849719,37.1244934 L31.999,36.952 L31.9150281,37.1244934 C30.1310509,40.639068 27.2112622,43.624454 23.1904408,46.0488738 C23.7109283,47.2608233 24,48.5966535 24,50 C24,55.5228475 19.5228475,60 14,60 C8.4771525,60 4,55.5228475 4,50 C4,44.4771525 8.4771525,40 14,40 C16.6740071,40 19.10288,41.0495446 20.8971458,42.7591611 C25.6622955,39.9510416 28.5162835,36.3933065 29.5535794,32.0001923 L23,32 L30.3260135,23.8605051 C25.6000932,23.0640276 22,18.9524372 22,14 C22,8.4771525 26.4771525,4 32,4 Z M14,44 C10.6862915,44 8,46.6862915 8,50 C8,53.3137085 10.6862915,56 14,56 C17.3137085,56 20,53.3137085 20,50 C20,46.6862915 17.3137085,44 14,44 Z M50,44 C46.6862915,44 44,46.6862915 44,50 C44,53.3137085 46.6862915,56 50,56 C53.3137085,56 56,53.3137085 56,50 C56,46.6862915 53.3137085,44 50,44 Z M32,8 C28.6862915,8 26,10.6862915 26,14 C26,17.3137085 28.6862915,20 32,20 C35.3137085,20 38,17.3137085 38,14 C38,10.6862915 35.3137085,8 32,8 Z" id="Combined-Shape" fill="#090707" fill-rule="nonzero"></path>
    </g>
</svg>