<?xml version="1.0" encoding="UTF-8"?>
<svg width="64px" height="64px" viewBox="0 0 64 64" version="1.1" xmlns="http://www.w3.org/2000/svg" xmlns:xlink="http://www.w3.org/1999/xlink">
    <title>message_complaint</title>
    <g id="message_complaint" stroke="none" stroke-width="1" fill="none" fill-rule="evenodd">
        <path d="M39.6367188,36 C40.3750037,36 41.0048802,36.2548803 41.5263672,36.7646484 C42.0478542,37.2744166 42.3085938,37.8925745 42.3085938,38.6191406 C42.3085938,39.4394572 42.0449245,40.083982 41.5175781,40.5527344 C40.9902317,41.0214867 40.3750035,41.2558594 39.671875,41.2558594 C38.9570277,41.2558594 38.3330105,41.0244164 37.7998047,40.5615234 C37.2665989,40.0986305 37,39.451176 37,38.6191406 C37,37.8925745 37.2548803,37.2744166 37.7646484,36.7646484 C38.2744166,36.2548803 38.8984338,36 39.6367188,36 Z M24.6367188,36 C25.3750037,36 26.0048802,36.2548803 26.5263672,36.7646484 C27.0478542,37.2744166 27.3085938,37.8925745 27.3085938,38.6191406 C27.3085938,39.4394572 27.0449245,40.083982 26.5175781,40.5527344 C25.9902317,41.0214867 25.3750035,41.2558594 24.671875,41.2558594 C23.9570277,41.2558594 23.3330105,41.0244164 22.7998047,40.5615234 C22.2665989,40.0986305 22,39.451176 22,38.6191406 C22,37.8925745 22.2548803,37.2744166 22.7646484,36.7646484 C23.2744166,36.2548803 23.8984338,36 24.6367188,36 Z M39.7773438,15 C40.7851613,15 41.4589827,15.3486293 41.7988281,16.0458984 C42.1386736,16.7431675 42.3085938,17.7480403 42.3085938,19.0605469 C42.3085938,19.8339882 42.2675785,20.6191366 42.1855469,21.4160156 L42.1855469,21.4160156 L41.4296875,30.0820312 C41.3476558,31.1132864 41.1718763,31.9042941 40.9023438,32.4550781 C40.6328112,33.0058621 40.1875031,33.28125 39.5664062,33.28125 C38.9335906,33.28125 38.4941419,33.0146511 38.2480469,32.4814453 C38.0019519,31.9482395 37.8261724,31.1367242 37.7207031,30.046875 L37.7207031,30.046875 L37.1582031,21.6269531 C37.0527338,19.9863199 37,18.8085973 37,18.09375 C37,17.1210889 37.2548803,16.3623074 37.7646484,15.8173828 C38.2744166,15.2724582 38.9453083,15 39.7773438,15 Z M24.7773438,15 C25.7851613,15 26.4589827,15.3486293 26.7988281,16.0458984 C27.1386736,16.7431675 27.3085938,17.7480403 27.3085938,19.0605469 C27.3085938,19.8339882 27.2675785,20.6191366 27.1855469,21.4160156 L27.1855469,21.4160156 L26.4296875,30.0820312 C26.3476558,31.1132864 26.1718763,31.9042941 25.9023438,32.4550781 C25.6328112,33.0058621 25.1875031,33.28125 24.5664062,33.28125 C23.9335906,33.28125 23.4941419,33.0146511 23.2480469,32.4814453 C23.0019519,31.9482395 22.8261724,31.1367242 22.7207031,30.046875 L22.7207031,30.046875 L22.1582031,21.6269531 C22.0527338,19.9863199 22,18.8085973 22,18.09375 C22,17.1210889 22.2548803,16.3623074 22.7646484,15.8173828 C23.2744166,15.2724582 23.9453083,15 24.7773438,15 Z M51,8 C56.6375644,8 60,12.1545653 60,17 L60,17 L60,60 L47,48 L13,48 C7.5,48 4.1650394,44.4397052 4,39 L4,39 L4,17 C4,12.1541188 7.5,8 13,8 L13,8 Z M51,12 L13,12 C10.1681522,12 8,14.067987 8,17 L8,17 L8,39 C8,41.9586524 10.1705968,44.0279106 13,44 L13,44 L49,44 L56,51 L56,17 C56,14.1459541 53.9600919,12.1258165 51,12 L51,12 Z" id="Rectangle-204-Copy" fill="#000000" fill-rule="nonzero" transform="translate(32.000000, 34.000000) scale(-1, 1) translate(-32.000000, -34.000000) "></path>
    </g>
</svg>