<?xml version="1.0" encoding="UTF-8"?>
<svg width="64px" height="64px" viewBox="0 0 64 64" version="1.1" xmlns="http://www.w3.org/2000/svg" xmlns:xlink="http://www.w3.org/1999/xlink">
    <title>message_misc</title>
    <g id="message_misc" stroke="none" stroke-width="1" fill="none" fill-rule="evenodd">
        <path d="M47.9929031,8 L16.0070969,8 C9.37912039,8 4,13.3718019 4,19.9984599 L4,44.0015401 C4,50.6262165 9.37777369,56 16.0070969,56 L47.9929031,56 C54.6208796,56 60,50.6281981 60,44.0015401 L60,19.9984599 C60,13.3737835 54.6222263,8 47.9929031,8 Z M47.9929031,12 C52.4151006,12 56,15.5849353 56,19.9984599 L56,44.0015401 C56,48.4189675 52.4118288,52 47.9929031,52 L16.0070969,52 C11.5848994,52 8,48.4150647 8,44.0015401 L8,19.9984599 C8,15.5810325 11.5881712,12 16.0070969,12 L47.9929031,12 Z" id="Rectangle-7-path" fill="#000000" fill-rule="nonzero"></path>
        <path d="M20,36 C22.209139,36 24,34.209139 24,32 C24,29.790861 22.209139,28 20,28 C17.790861,28 16,29.790861 16,32 C16,34.209139 17.790861,36 20,36 Z" id="Rectangle-7-path" fill="#000000" fill-rule="nonzero"></path>
        <path d="M32,36 C34.209139,36 36,34.209139 36,32 C36,29.790861 34.209139,28 32,28 C29.790861,28 28,29.790861 28,32 C28,34.209139 29.790861,36 32,36 Z" id="Rectangle-7-path" fill="#000000" fill-rule="nonzero"></path>
        <path d="M44,36 C46.209139,36 48,34.209139 48,32 C48,29.790861 46.209139,28 44,28 C41.790861,28 40,29.790861 40,32 C40,34.209139 41.790861,36 44,36 Z" id="Rectangle-7-path" fill="#000000" fill-rule="nonzero"></path>
    </g>
</svg>