<?xml version="1.0" encoding="UTF-8"?>
<svg width="64px" height="64px" viewBox="0 0 64 64" version="1.1" xmlns="http://www.w3.org/2000/svg" xmlns:xlink="http://www.w3.org/1999/xlink">
    <title>messages</title>
    <g id="messages" stroke="none" stroke-width="1" fill="none" fill-rule="evenodd">
        <path d="M51.9972261,18 L24.0027739,18 C19.5821896,18 16,21.5812041 16,26.0001757 L16,42.9998243 L16.0038099,43.2490066 C16.1355681,47.5520431 19.6680761,51 24.0053227,51 L48.3426039,51 C48.8730185,51 49.3817103,51.2106992 49.75678,51.585749 L58.2929119,60.1214294 C58.6834465,60.5119433 59.3166115,60.5119266 59.7071255,60.1213919 C59.8946504,59.9338571 60,59.6795112 60,59.4143039 L60,25.9992205 L60,25.9992205 C60,21.581589 56.4165707,18 51.9972261,18 Z M51.9972261,22 L52.1970044,22.0048962 C54.3148585,22.1089396 56,23.8580982 56,25.9992205 L56,52.171 L51.4142001,47.5857081 C51.0391337,47.2106833 50.5304595,47 50.0000649,47 L24.0053227,47 L24.0053227,47 C21.7931017,47 20,45.2083098 20,42.9998243 L20,26.0001757 C20,23.7905895 21.7910823,22 24.0027739,22 L51.9972261,22 Z" id="Rectangle-204" fill="#000000" fill-rule="nonzero"></path>
        <path d="M38.0000649,35 C38.5304595,35 39.0391337,35.2106833 39.4142001,35.5857081 L44,40.171 L44,13.9992205 C44,11.8580982 42.3148585,10.1089396 40.1970044,10.0048962 L39.9972261,10 L12.0027739,10 C9.79108228,10 8,11.7905895 8,14.0001757 L8,17 L4,17 L4,14.0001757 C4,9.66458088 7.44828792,6.13543802 11.753466,6.00380628 L12.0027739,6 L39.9972261,6 C44.4165707,6 48,9.58158901 48,13.9992205 L48,47.4143039 C48,47.6795112 47.8946504,47.9338571 47.7071255,48.1213919 C47.3166115,48.5119266 46.6834465,48.5119433 46.2929119,48.1214294 L37.75678,39.585749 C37.5416296,39.37061 37.282511,39.2095504 37.0005453,39.1113185 L37,35 Z" id="Rectangle-204-Copy" fill="#000000" fill-rule="nonzero" transform="translate(26.000000, 27.914214) scale(-1, 1) translate(-26.000000, -27.914214) "></path>
    </g>
</svg>