<?xml version="1.0" encoding="UTF-8"?>
<svg width="64px" height="64px" viewBox="0 0 64 64" version="1.1" xmlns="http://www.w3.org/2000/svg" xmlns:xlink="http://www.w3.org/1999/xlink">
    <title>message_collections</title>
    <g id="message_collections" stroke="none" stroke-width="1" fill="none" fill-rule="evenodd">
        <g id="collections" transform="translate(4.000000, 4.000000)" fill="#000000">
            <g id="Group" transform="translate(24.000000, 24.000000)" fill-rule="nonzero">
                <path d="M16,0 C24.836556,0 32,7.163444 32,16 C32,24.836556 24.836556,32 16,32 C7.163444,32 0,24.836556 0,16 C0,7.163444 7.163444,0 16,0 Z M16,4 C9.372583,4 4,9.372583 4,16 C4,22.627417 9.372583,28 16,28 C22.627417,28 28,22.627417 28,16 C28,9.372583 22.627417,4 16,4 Z" id="Oval"></path>
            </g>
            <path d="M24,0 C37.254834,0 48,10.745166 48,24 C48,24.3301904 47.993332,24.6588234 47.9801234,24.9857717 C46.7347286,24.322342 45.3975837,23.8096307 43.9924556,23.4714419 C43.7133898,12.6705134 34.8692483,4 24,4 C12.954305,4 4,12.954305 4,24 C4,34.8692483 12.6705134,43.7133898 23.472289,43.9931732 C23.8096307,45.3975837 24.322342,46.7347286 24.9853604,47.9796749 C24.6588234,47.993332 24.3301904,48 24,48 C10.745166,48 0,37.254834 0,24 C0,10.745166 10.745166,0 24,0 Z M24,9 C25.1045695,9 26,9.8954305 26,11 L25.9988614,12.290072 C26.2260754,12.3288008 26.4557883,12.3737768 26.688,12.425 C27.64,12.635 28.55,12.971 29.418,13.433 C30.286,13.895 31.014,14.504 31.602,15.26 C31.91,15.68 32.092,16.184 32.148,16.772 C32.204,17.36 31.938,17.892 31.35,18.368 C30.93,18.704 30.44,18.851 29.88,18.809 C29.32,18.767 28.858,18.578 28.494,18.242 C28.018,17.626 27.381,17.136 26.583,16.772 C26.3951991,16.6863364 26.2008074,16.6107529 25.9998249,16.5452493 L25.9992376,21.8929135 C26.599806,22.068885 27.2073934,22.2659138 27.822,22.484 C28.69,22.792 29.488,23.198 30.216,23.702 C30.7912818,24.100272 31.2791404,24.5903383 31.6795758,25.172199 C30.2992584,25.9481663 29.0389682,26.9109434 27.9322397,28.0263127 C27.8297328,27.8038525 27.6803496,27.6084363 27.486,27.44 C27.066,27.076 26.513,26.768 25.827,26.516 L25.9991818,26.583 L25.9994308,30.3544173 C24.5003584,32.5261888 23.4935592,35.0638703 23.1402386,37.8062565 C22.4660686,37.4849372 22,36.7968967 22,36 L21.9999194,35.2217589 C21.1406129,35.0784922 20.2813065,34.8575726 19.422,34.559 C17.77,33.985 16.398,32.97 15.306,31.514 C15.026,31.122 14.9,30.618 14.928,30.002 C14.956,29.386 15.32,28.854 16.02,28.406 C16.468,28.126 16.944,28.007 17.448,28.049 C17.952,28.091 18.442,28.35 18.918,28.826 C19.73,29.638 20.584,30.268 21.48,30.716 C21.6456043,30.7988021 21.8188606,30.8739523 21.9997688,30.9414504 L22.0002226,25.3332651 C21.6274783,25.2143944 21.2510708,25.0906393 20.871,24.962 C19.961,24.654 19.128,24.255 18.372,23.765 C17.616,23.275 17,22.624 16.524,21.812 C16.048,21 15.81,19.978 15.81,18.746 C15.81,17.346 16.202,16.156 16.986,15.176 C17.77,14.196 18.785,13.44 20.031,12.908 C20.6704447,12.6349787 21.3264818,12.4320144 21.9991113,12.299107 L22,11 C22,9.8954305 22.8954305,9 24,9 Z M21.9986702,16.5080751 C21.6997382,16.6231978 21.4288482,16.7881728 21.186,17.003 C20.822,17.325 20.64,17.836 20.64,18.536 C20.64,19.18 20.85,19.691 21.27,20.069 C21.4771966,20.2554769 21.7201686,20.424918 21.9989159,20.5773232 L21.9986702,16.5080751 Z" id="Oval-2" fill-rule="nonzero"></path>
            <path d="M40,30 C41.0543618,30 41.9181651,30.8158778 41.9945143,31.8507377 L42,32 L42,39.171 L44.4142136,41.5857864 C45.1541543,42.3257272 45.1930986,43.5012114 44.5310463,44.2869988 L44.4142136,44.4142136 C43.6742728,45.1541543 42.4987886,45.1930986 41.7130012,44.5310463 L41.5857864,44.4142136 L38.5857864,41.4142136 C38.2523884,41.0808156 38.0488544,40.6418293 38.0077406,40.1758528 L38,40 L38,32 C38,30.8954305 38.8954305,30 40,30 Z" id="Path-2"></path>
        </g>
    </g>
</svg>