<?xml version="1.0" encoding="UTF-8"?>
<svg width="64px" height="64px" viewBox="0 0 64 64" version="1.1" xmlns="http://www.w3.org/2000/svg" xmlns:xlink="http://www.w3.org/1999/xlink">
    <title>misc</title>
    <g id="misc" stroke="none" stroke-width="1" fill="none" fill-rule="evenodd">
        <path d="M44,27 C36.8202983,27 31,32.8202983 31,40 C31,47.1797017 36.8202983,53 44,53 C51.1797017,53 57,47.1797017 57,40 C57,32.8202983 51.1797017,27 44,27 Z M44,29 C50.0751322,29 55,33.9248678 55,40 C55,46.0751322 50.0751322,51 44,51 C37.9248678,51 33,46.0751322 33,40 C33,33.9248678 37.9248678,29 44,29 Z" id="Oval-79-Copy" fill="#000000" fill-rule="nonzero"></path>
        <polygon id="Path-621" fill="#000000" fill-rule="nonzero" points="11.0171278 28.8157115 12.9828722 29.1842885 10.204 44 20.322 44 22.322967 39 27.677033 39 29.677 44 34 44 34 46 28.322967 46 26.323 41 23.676 41 21.677033 46 7.79507371 46"></polygon>
        <path d="M43.8083338,27.2163751 L24.0100275,17.899525 L22.5052715,18.5803203 C21.718502,18.9396265 20.7975839,19.3635957 19.743456,19.8527891 L16.8067914,21.2235118 C14.2297853,22.4327663 11.3523574,23.7987845 8.17782902,25.3235513 L4.22656799,27.2266403 L6.71783368,27.9593655 C16.3320843,30.7870863 26.5533292,30.7870863 36.1367483,29.0958947 C37.5348194,28.8491762 38.7944057,28.5845573 39.8959999,28.3194678 L40.4415845,28.1847341 L41.2821663,27.9593655 L43.8083338,27.2163751 Z M23.992,20.101 L38.006,26.696 L37.9768211,26.7026883 C37.2948027,26.8472431 36.5643539,26.9895317 35.7891776,27.1263276 L35.0532674,27.2525389 C26.944564,28.6029001 18.3924816,28.6932848 10.2311958,26.8126464 L9.874,26.727 L14.2851202,24.6245159 C16.4010237,23.6213193 18.3487164,22.7067507 20.1267971,21.8799728 L22.9922598,20.556822 L23.992,20.101 Z" id="Path-622" fill="#000000" fill-rule="nonzero"></path>
        <path d="M23.9864227,6.13000488 C24.2318825,6.13000488 24.436031,6.30688004 24.478367,6.54012925 L24.4864227,6.63000488 L24.4864227,19 C24.4864227,19.2761424 24.262565,19.5 23.9864227,19.5 C23.7409628,19.5 23.5368143,19.3231248 23.4944783,19.0898756 L23.4864227,19 L23.4864227,6.63000488 C23.4864227,6.35386251 23.7102803,6.13000488 23.9864227,6.13000488 Z" id="Path-619-Copy" fill="#000000" fill-rule="nonzero"></path>
        <path d="M24,7.63000488 C28,7.63000488 27.9932114,8.63000488 32,8.63000488 L32,13.6300049 C27.9932114,13.6300049 28.0174435,12.8004055 24,12.6300049 C23.9563912,12.8004055 24.034887,9.89245605 24,7.63000488 Z" id="Path-620-Copy" fill="#000000" fill-rule="nonzero"></path>
        <circle id="Oval-89" fill="#000000" fill-rule="nonzero" cx="38" cy="40" r="2"></circle>
        <circle id="Oval-89-Copy" fill="#000000" fill-rule="nonzero" cx="44" cy="40" r="2"></circle>
        <circle id="Oval-89-Copy-2" fill="#000000" fill-rule="nonzero" cx="50" cy="40" r="2"></circle>
    </g>
</svg>