<?xml version="1.0" encoding="UTF-8"?>
<svg width="32px" height="32px" viewBox="0 0 32 32" version="1.1" xmlns="http://www.w3.org/2000/svg" xmlns:xlink="http://www.w3.org/1999/xlink">
    <title>missing</title>
    <g id="missing" stroke="none" stroke-width="1" fill="none" fill-rule="evenodd">
        <path d="M16,2 C23.7319865,2 30,8.2680135 30,16 C30,23.7319865 23.7319865,30 16,30 C8.2680135,30 2,23.7319865 2,16 C2,8.2680135 8.2680135,2 16,2 Z M16,4 C9.372583,4 4,9.372583 4,16 C4,22.627417 9.372583,28 16,28 C22.627417,28 28,22.627417 28,16 C28,9.372583 22.627417,4 16,4 Z" id="Oval" fill="#000000" fill-rule="nonzero"></path>
        <circle id="Oval" fill="#000000" cx="16" cy="22.5" r="1.5"></circle>
        <path d="M12.2,9.4 C14.1385315,6.81529129 17.9212425,6.39499007 19.8,8.9 C21.3711768,10.9949024 20.5879455,13.7107326 18.8661773,15.5430118 L18.7071068,15.7071068 C17.3779097,17.0363038 17,17.6661534 17,19 C17,19.5522847 16.5522847,20 16,20 C15.4477153,20 15,19.5522847 15,19 C15,17.0874475 15.5691714,16.055674 17.0808747,14.5073599 L17.2928932,14.2928932 C18.5071396,13.0786469 19.0738589,11.2651452 18.2,10.1 C17.1941421,8.75885609 14.9978321,9.00289053 13.8,10.6 C13.4686292,11.0418278 12.8418278,11.1313708 12.4,10.8 C11.9581722,10.4686292 11.8686292,9.8418278 12.2,9.4 Z" id="Path-20" fill="#000000" fill-rule="nonzero"></path>
    </g>
</svg>