<?xml version="1.0" encoding="UTF-8"?>
<svg width="32px" height="32px" viewBox="0 0 32 32" version="1.1" xmlns="http://www.w3.org/2000/svg" xmlns:xlink="http://www.w3.org/1999/xlink">
    <title>moisture</title>
    <g id="moisture" stroke="none" stroke-width="1" fill="none" fill-rule="evenodd">
        <path d="M15.0384761,2.72527887 C14.4976004,4.61834373 13.6276237,6.40473035 12.1533859,8.77709869 L11.6927116,9.5070813 L11.1941306,10.2763788 L9.65513428,12.6127492 L8.77389452,13.9759459 L8.17786162,14.9249148 L7.78988342,15.5642973 L7.5577369,15.9597631 L7.34579202,16.3328753 L7.06387237,16.8549007 L6.89867081,17.1806695 L6.75066228,17.4909174 L6.61898719,17.7875966 L6.50278594,18.0726594 L6.40119892,18.3480578 C6.38543785,18.3932607 6.37024989,18.4381422 6.35561713,18.4827431 L6.27433971,18.7473056 C6.26185613,18.7909465 6.24989193,18.8343881 6.2384292,18.877671 L6.1755273,19.1357902 L6.12380124,19.392054 C6.11606379,19.4347185 6.10875619,19.477387 6.10186052,19.5201003 L6.06528648,19.7772415 L6.03773927,20.037408 L6.01835932,20.302552 L6.00272259,20.7138713 L6,21 C6,26.6976467 9.6025672,30 16,30 C22.3974328,30 26,26.6976467 26,21 L25.9972774,20.7138713 L25.9885366,20.4376007 L25.9729179,20.1692358 C25.9696939,20.1250587 25.9661474,20.0811297 25.9622607,20.037408 L25.9347135,19.7772415 L25.8981395,19.5201003 C25.8912438,19.477387 25.8839362,19.4347185 25.8761988,19.392054 L25.8244727,19.1357902 L25.7615708,18.877671 L25.6866335,18.6157443 C25.6730932,18.5716641 25.6590156,18.5273439 25.6443829,18.4827431 L25.5497806,18.2114446 C25.5328554,18.1655584 25.5153392,18.1193102 25.4972141,18.0726594 L25.3810128,17.7875966 L25.2493377,17.4909174 L25.1013292,17.1806695 L24.9361276,16.8549007 L24.654208,16.3328753 L24.4422631,15.9597631 L24.0861991,15.3575716 L23.8221384,14.9249148 L23.2261055,13.9759459 L22.3448657,12.6127492 L20.8058694,10.2763788 L20.3072884,9.5070813 L19.8466141,8.77709869 C18.3723763,6.40473035 17.5023996,4.61834373 16.9615239,2.72527887 C16.6852272,1.75824038 15.3147728,1.75824038 15.0384761,2.72527887 Z M16,5.897 L16.0744526,6.06373124 C16.6862193,7.40071196 17.487185,8.80520486 18.552554,10.4755545 L19.1076203,11.3338023 L20.6216165,13.6328089 L21.4600521,14.929832 L22.0241954,15.8271329 L22.3896271,16.4278957 L22.6073943,16.7974598 L22.8974122,17.3099792 L23.1460479,17.7778148 L23.2902469,18.0679408 L23.4182016,18.3427974 L23.5307712,18.6042206 C23.5482984,18.6467737 23.5652204,18.6888436 23.581555,18.7304685 L23.6726578,18.9751842 C23.6867146,19.0151822 23.7002199,19.0548117 23.7131915,19.094111 L23.7847605,19.3262503 C23.7956691,19.3643817 23.8060799,19.4022594 23.8160106,19.4399216 L23.8699789,19.6636155 L23.9132873,19.8839741 L23.9467949,20.1028335 C23.9516105,20.1392872 23.9560535,20.1757549 23.9601418,20.2122748 L23.9805591,20.432328 L23.9933235,20.6554721 L24,21 C24,25.5523533 21.3298399,28 16,28 C10.7746667,28 8.10573472,25.6473984 8.00307969,21.2653553 L8.00070604,20.8835431 L8.00667654,20.6554721 L8.01944087,20.432328 L8.03985815,20.2122748 L8.06878753,19.9934765 C8.07436616,19.9570126 8.08033526,19.9205246 8.08671272,19.8839741 L8.13002109,19.6636155 L8.18398937,19.4399216 L8.24947669,19.2110566 C8.26139889,19.1723794 8.27383685,19.1334103 8.28680847,19.094111 L8.37118521,18.8540465 C8.38636304,18.8132733 8.40211032,18.7720934 8.41844496,18.7304685 L8.52364416,18.4750735 C8.5423998,18.4315157 8.56177858,18.3874364 8.5817984,18.3427974 L8.70975311,18.0679408 L8.85395207,17.7778148 L9.10258781,17.3099792 L9.3926057,16.7974598 L9.72690531,16.2340598 L10.1083862,15.6135828 L10.5399479,14.929832 L11.5649121,13.347723 L12.8923797,11.3338023 L13.447446,10.4755545 C14.512815,8.80520486 15.3137807,7.40071196 15.9255474,6.06373124 L16,5.897 Z" id="Path-129" fill="#000000" fill-rule="nonzero"></path>
    </g>
</svg>