<?xml version="1.0" encoding="UTF-8"?>
<svg width="64px" height="64px" viewBox="0 0 64 64" version="1.1" xmlns="http://www.w3.org/2000/svg" xmlns:xlink="http://www.w3.org/1999/xlink">
    <title>moodle</title>
    <g id="moodle" stroke="none" fill="none">
        <path d="M15.0108179,28.4649415 C18.4522848,28.396967 21.0127477,28.9409965 23.2982412,29.9657624 C23.4800633,30.0472875 23.7494495,30.1788882 24.0468431,30.3277068 C23.2069941,31.0439528 22.7423274,32.2872952 22.5,34.2840555 L22.5,51 L13.5,51 L13.5,33.7507669 L13.5275232,33.5030581 C13.7336865,31.6475881 14.1412594,29.9648287 14.7386028,28.4718978 Z M46,20.5 C53.7403783,20.5 58.5636069,25.3232286 59.4724768,33.5030581 L59.5,33.7507669 L59.5,51 L50.5,51 L50.5,34.2840555 C50.0567302,30.6315437 48.8695034,29.5 46,29.5 C43.1304966,29.5 41.9432698,30.6315437 41.5,34.2840555 L41.5,51 L31.5,51 L31.5,34.2840555 C31.2304019,32.0625864 30.6856059,30.7736513 29.6545079,30.1046559 C29.8338466,29.689827 29.9685956,29.1700623 30.10002,28.506818 C30.7436973,25.2584468 31.3088118,23.6649866 33.1284919,21.753071 C34.4065001,22.3467192 35.5339111,23.14659 36.5008903,24.1366967 C38.8017452,21.7789885 42.0140984,20.5 46,20.5 Z" id="Path" fill="#000000" fill-rule="nonzero"></path>
        <ellipse id="Oval" fill="#000000" fill-rule="evenodd" cx="6.5" cy="41" rx="2.5" ry="6"></ellipse>
        <polygon id="Path" fill="#000000" fill-rule="evenodd" points="3 22 19 12 38 12 23 22"></polygon>
        <rect id="Rectangle" fill="#000000" fill-rule="evenodd" x="5.5" y="22" width="2" height="15"></rect>
        <path d="M14,27.5 C9,17.5 25.5,8 33.5,20 C28,25 30,29.5 28,30.5 C26,31.5 24,27 14,27.5 Z" id="Path" fill="#000000" fill-rule="evenodd"></path>
    </g>
</svg>