<?xml version="1.0" encoding="UTF-8"?>
<svg width="64px" height="64px" viewBox="0 0 64 64" version="1.1" xmlns="http://www.w3.org/2000/svg" xmlns:xlink="http://www.w3.org/1999/xlink">
    <title>move_order</title>
    <g id="move_order" stroke="none" stroke-width="1" fill="none" fill-rule="evenodd">
        <path d="M40.0007653,42.0185519 C40.276517,42.323676 40.6655281,42.5675359 41.122175,42.7049172 C41.9037885,42.9400642 42.8774065,42.8550745 43.6526219,42.3292247 L43.6526219,42.3292247 L44,42.066 L44,54 C44,57.2383969 41.4344251,59.8775718 38.2249383,59.9958615 L38,60 L10,60 C6.76160306,60 4.12242824,57.4344251 4.00413847,54.2249383 L4,54 L4,17 C4,13.7616031 6.56557489,11.1224282 9.77506174,11.0041385 L10,11 L12,11 L12,15 L10,15 C8.9456382,15 8.08183488,15.8158778 8.00548574,16.8507377 L8,17 L8,54 C8,55.0543618 8.81587779,55.9181651 9.85073766,55.9945143 L10,56 L38,56 C39.0543618,56 39.9181651,55.1841222 39.9945143,54.1492623 L40,54 Z M26,46 C27.1045695,46 28,46.8954305 28,48 C28,49.1045695 27.1045695,50 26,50 L14,50 C12.8954305,50 12,49.1045695 12,48 C12,46.8954305 12.8954305,46 14,46 L17.3506703,46.0010309 C17.430962,46.1126313 17.5237004,46.2168911 17.6274786,46.3134075 C17.9903076,46.6508478 18.5092814,46.8880449 19.0757943,46.9685732 C19.6071813,47.0441083 20.1707282,46.9813917 20.6484032,46.7798037 C21.0483108,46.611035 21.3898213,46.3496801 21.6355807,46.0009256 L26,46 Z M18.0370344,37.9998907 C17.7122838,39.2590781 17.4569199,40.5923934 17.2717737,42.0002706 L14,42 C12.8954305,42 12,41.1045695 12,40 C12,38.8954305 12.8954305,38 14,38 Z M34,38 C35.1045695,38 36,38.8954305 36,40 C36,41.1045695 35.1045695,42 34,42 L24.0804678,41.9994271 C25.3253705,40.3948034 26.7862619,39.0619583 28.4750664,37.9997648 L34,38 Z M21.7154667,29.9998114 C20.8245981,31.2010468 20.0551301,32.5340056 19.4090749,33.9997384 L14,34 C12.8954305,34 12,33.1045695 12,32 C12,30.8954305 12.8954305,30 14,30 Z M34,22 C34.3738607,22 34.7237624,22.1025806 35.0230942,22.281131 C31.3937505,22.9336958 28.3125026,24.1782563 25.7741507,25.999795 L14,26 C12.8954305,26 12,25.1045695 12,24 C12,22.8954305 12.8954305,22 14,22 L34,22 Z M24,4 C26.963829,4 29.0330253,5.3866802 29.735469,7.90524888 L29.735469,7.90524888 L29.76,8 L31,8 C33.1421954,8 34.8910789,9.68396847 34.9951047,11.8003597 L34.9951047,11.8003597 L35,12 L35,15 C35,17.209139 33.209139,19 31,19 L31,19 L17,19 C14.790861,19 13,17.209139 13,15 L13,15 L13,12 C13,9.790861 14.790861,8 17,8 L17,8 L18.239,8 L18.2645206,7.90528649 C18.945668,5.46301662 20.9120034,4.08508155 23.7330372,4.00381301 L23.7330372,4.00381301 Z M38,11 C40.3620082,11 42.4052369,12.3648576 43.3840426,14.3489295 C42.6956674,13.9660475 41.8468422,13.912179 41.1337376,14.1301709 C40.6780686,14.2694662 40.2847071,14.5152975 40.0056166,14.8235561 C39.7700239,15.083771 39.6087667,15.3878079 39.5390411,15.7245577 C39.2030078,15.3175382 38.7080595,15.0467123 38.1492623,15.0054857 L38,15 L36,15 L36,11 L38,11 Z M24,8 C22.6056662,8 22.1729885,8.34309099 22.0364954,9.38854796 L22.0364954,9.38854796 L22.007958,9.56596746 C21.7391369,10.9701091 20.5081567,12 19.061759,12 L19.061759,12 L17,12 L17,15 L31,15 L31,12 L28.9380147,12 C27.4314048,11.9998666 26.1585421,10.8823511 25.9634841,9.38839093 L25.9634841,9.38839093 L25.9429748,9.25016844 C25.7856835,8.31260686 25.3309483,8 24,8 Z" id="Combined-Shape" fill="#000000" fill-rule="nonzero"></path>
        <path d="M43.0607537,15.3264551 L59.5606625,27.5035674 C60.1417972,27.9324512 60.1470811,28.6265969 59.5725122,29.0602722 L43.0726034,41.5141371 L42.9903938,41.5720244 C42.0406908,42.1951272 40.5001076,41.7041058 40.5001076,40.7402067 L40.5001076,33.8230534 L40.2751157,33.8285793 C30.8714823,34.0771565 24.4919151,37.8348755 20.9135379,45.2623542 C20.3379552,46.4570657 17.9344807,46.1154184 18.0013692,44.8483975 L18.0269169,44.4080553 C18.9051762,30.5323855 26.3615519,23.1657306 40.2392925,22.7649973 L40.5001076,22.7584863 L40.5001076,16.1092295 C40.5001076,15.1229887 42.1158116,14.6290775 43.0607537,15.3264551 Z M44.5,21.359 L44.5001076,26.6598775 L40.3547483,26.7633307 C32.7364395,26.9833168 27.6095477,29.4497106 24.7391019,34.3784393 L24.647,34.54 L24.7255851,34.4835496 C28.7113694,31.6258411 33.7180445,30.0781162 39.6780329,29.8460762 L40.1769039,29.8297852 L44.5001076,29.7236058 L44.5,35.424 L53.922,28.313 L44.5,21.359 Z" id="Path-32" fill="#000000" fill-rule="nonzero"></path>
    </g>
</svg>