<?xml version="1.0" encoding="UTF-8"?>
<svg width="64px" height="64px" viewBox="0 0 64 64" version="1.1" xmlns="http://www.w3.org/2000/svg" xmlns:xlink="http://www.w3.org/1999/xlink">
    <title>mowing</title>
    <g id="mowing" stroke="none" stroke-width="1" fill="none" fill-rule="evenodd">
        <path d="M31.9999998,30.9999996 C36.9705625,30.9999996 40.9999998,35.0294368 40.9999998,39.9999996 C40.9999998,44.9705623 36.9705625,48.9999996 31.9999998,48.9999996 C27.029437,48.9999996 22.9999998,44.9705623 22.9999998,39.9999996 C22.9999998,35.0294368 27.029437,30.9999996 31.9999998,30.9999996 Z M31.9999998,34.9999996 C29.238576,34.9999996 26.9999998,37.2385758 26.9999998,39.9999996 C26.9999998,42.7614233 29.238576,44.9999996 31.9999998,44.9999996 C34.7614235,44.9999996 36.9999998,42.7614233 36.9999998,39.9999996 C36.9999998,37.2385758 34.7614235,34.9999996 31.9999998,34.9999996 Z" id="Oval-15" fill="#000000" fill-rule="nonzero"></path>
        <path d="M54.9999998,36.9999996 C58.3137083,36.9999996 60.9999998,39.6862911 60.9999998,42.9999996 C60.9999998,46.3137081 58.3137083,48.9999996 54.9999998,48.9999996 C51.6862913,48.9999996 48.9999998,46.3137081 48.9999998,42.9999996 C48.9999998,39.6862911 51.6862913,36.9999996 54.9999998,36.9999996 Z M54.9999998,39.9999996 C53.3431455,39.9999996 51.9999998,41.3431453 51.9999998,42.9999996 C51.9999998,44.6568538 53.3431455,45.9999996 54.9999998,45.9999996 C56.656854,45.9999996 57.9999998,44.6568538 57.9999998,42.9999996 C57.9999998,41.3431453 56.656854,39.9999996 54.9999998,39.9999996 Z" id="Oval-15-Copy" fill="#000000" fill-rule="nonzero"></path>
        <circle id="Oval-Copy" fill="#000000" fill-rule="nonzero" cx="31.9999998" cy="39.9999996" r="3"></circle>
        <rect id="Rectangle" fill="#000000" fill-rule="nonzero" transform="translate(18.003411, 22.995462) rotate(37.000000) translate(-18.003411, -22.995462) " x="0.503411" y="21.495462" width="35" height="3" rx="1.5"></rect>
        <polygon id="Path-82" fill="#000000" fill-rule="nonzero" points="17.0292585 23.7042564 18.9397935 24.2957427 15.2249998 36.2929996 24.3817057 40.0757158 23.6182938 41.9242834 12.7748581 37.4462171"></polygon>
        <path d="M36.9999998,33.9999996 L49.9999998,33.9999996 C52.7614235,33.9999996 54.9999998,36.2385758 54.9999998,38.9999996 L54.9999998,38.9999996 L54.9999998,38.9999996 L50.6692326,39.9999996 L50.6692326,44.9999996 L36.9999998,44.9999996 L36.9999998,33.9999996 Z" id="Rectangle" fill="#000000" fill-rule="nonzero"></path>
        <rect id="Rectangle" fill="#000000" fill-rule="nonzero" x="37.9999998" y="26.9999996" width="12" height="6" rx="2"></rect>
    </g>
</svg>