<?xml version="1.0" encoding="UTF-8"?>
<svg width="64px" height="64px" viewBox="0 0 64 64" version="1.1" xmlns="http://www.w3.org/2000/svg" xmlns:xlink="http://www.w3.org/1999/xlink">
    <title>multi_housing</title>
    <g id="multi_housing" stroke="none" stroke-width="1" fill="none" fill-rule="evenodd">
        <rect id="ground" fill="#000000" fill-rule="nonzero" x="4" y="50" width="56" height="3" rx="1.5"></rect>
        <g id="building" transform="translate(6.000000, 12.000000)" fill="#000000" fill-rule="nonzero">
            <path d="M6.5,0 L13,6.33333333 L13,38 L7.8,38 L7.8,34.2 L5.2,34.2 L5.2,38 L0,38 L0,6.33333333 L6.5,0 Z M3.9,30.4 L1.3,30.4 L1.3,32.9333333 L3.9,32.9333333 L3.9,30.4 Z M7.8,30.4 L5.2,30.4 L5.2,32.9333333 L7.8,32.9333333 L7.8,30.4 Z M11.7,30.4 L9.1,30.4 L9.1,32.9333333 L11.7,32.9333333 L11.7,30.4 Z M3.9,26.6 L1.3,26.6 L1.3,29.1333333 L3.9,29.1333333 L3.9,26.6 Z M7.8,26.6 L5.2,26.6 L5.2,29.1333333 L7.8,29.1333333 L7.8,26.6 Z M11.7,26.6 L9.1,26.6 L9.1,29.1333333 L11.7,29.1333333 L11.7,26.6 Z M3.9,22.8 L1.3,22.8 L1.3,25.3333333 L3.9,25.3333333 L3.9,22.8 Z M7.8,22.8 L5.2,22.8 L5.2,25.3333333 L7.8,25.3333333 L7.8,22.8 Z M11.7,22.8 L9.1,22.8 L9.1,25.3333333 L11.7,25.3333333 L11.7,22.8 Z M3.9,19 L1.3,19 L1.3,21.5333333 L3.9,21.5333333 L3.9,19 Z M7.8,19 L5.2,19 L5.2,21.5333333 L7.8,21.5333333 L7.8,19 Z M11.7,19 L9.1,19 L9.1,21.5333333 L11.7,21.5333333 L11.7,19 Z M3.9,15.2 L1.3,15.2 L1.3,17.7333333 L3.9,17.7333333 L3.9,15.2 Z M7.8,15.2 L5.2,15.2 L5.2,17.7333333 L7.8,17.7333333 L7.8,15.2 Z M11.7,15.2 L9.1,15.2 L9.1,17.7333333 L11.7,17.7333333 L11.7,15.2 Z M3.9,11.4 L1.3,11.4 L1.3,13.9333333 L3.9,13.9333333 L3.9,11.4 Z M7.8,11.4 L5.2,11.4 L5.2,13.9333333 L7.8,13.9333333 L7.8,11.4 Z M11.7,11.4 L9.1,11.4 L9.1,13.9333333 L11.7,13.9333333 L11.7,11.4 Z M3.9,7.6 L1.3,7.6 L1.3,10.1333333 L3.9,10.1333333 L3.9,7.6 Z M7.8,7.6 L5.2,7.6 L5.2,10.1333333 L7.8,10.1333333 L7.8,7.6 Z M11.7,7.6 L9.1,7.6 L9.1,10.1333333 L11.7,10.1333333 L11.7,7.6 Z" id="Path-13"></path>
        </g>
        <g id="building-copy" transform="translate(19.000000, 12.000000)" fill="#000000" fill-rule="nonzero">
            <path d="M6.5,0 L13,6.33333333 L13,38 L7.8,38 L7.8,34.2 L5.2,34.2 L5.2,38 L0,38 L0,6.33333333 L6.5,0 Z M3.9,30.4 L1.3,30.4 L1.3,32.9333333 L3.9,32.9333333 L3.9,30.4 Z M7.8,30.4 L5.2,30.4 L5.2,32.9333333 L7.8,32.9333333 L7.8,30.4 Z M11.7,30.4 L9.1,30.4 L9.1,32.9333333 L11.7,32.9333333 L11.7,30.4 Z M3.9,26.6 L1.3,26.6 L1.3,29.1333333 L3.9,29.1333333 L3.9,26.6 Z M7.8,26.6 L5.2,26.6 L5.2,29.1333333 L7.8,29.1333333 L7.8,26.6 Z M11.7,26.6 L9.1,26.6 L9.1,29.1333333 L11.7,29.1333333 L11.7,26.6 Z M3.9,22.8 L1.3,22.8 L1.3,25.3333333 L3.9,25.3333333 L3.9,22.8 Z M7.8,22.8 L5.2,22.8 L5.2,25.3333333 L7.8,25.3333333 L7.8,22.8 Z M11.7,22.8 L9.1,22.8 L9.1,25.3333333 L11.7,25.3333333 L11.7,22.8 Z M3.9,19 L1.3,19 L1.3,21.5333333 L3.9,21.5333333 L3.9,19 Z M7.8,19 L5.2,19 L5.2,21.5333333 L7.8,21.5333333 L7.8,19 Z M11.7,19 L9.1,19 L9.1,21.5333333 L11.7,21.5333333 L11.7,19 Z M3.9,15.2 L1.3,15.2 L1.3,17.7333333 L3.9,17.7333333 L3.9,15.2 Z M7.8,15.2 L5.2,15.2 L5.2,17.7333333 L7.8,17.7333333 L7.8,15.2 Z M11.7,15.2 L9.1,15.2 L9.1,17.7333333 L11.7,17.7333333 L11.7,15.2 Z M3.9,11.4 L1.3,11.4 L1.3,13.9333333 L3.9,13.9333333 L3.9,11.4 Z M7.8,11.4 L5.2,11.4 L5.2,13.9333333 L7.8,13.9333333 L7.8,11.4 Z M11.7,11.4 L9.1,11.4 L9.1,13.9333333 L11.7,13.9333333 L11.7,11.4 Z M3.9,7.6 L1.3,7.6 L1.3,10.1333333 L3.9,10.1333333 L3.9,7.6 Z M7.8,7.6 L5.2,7.6 L5.2,10.1333333 L7.8,10.1333333 L7.8,7.6 Z M11.7,7.6 L9.1,7.6 L9.1,10.1333333 L11.7,10.1333333 L11.7,7.6 Z" id="Path-13"></path>
        </g>
        <g id="building-copy-2" transform="translate(32.000000, 12.000000)" fill="#000000" fill-rule="nonzero">
            <path d="M6.5,0 L13,6.33333333 L13,38 L7.8,38 L7.8,34.2 L5.2,34.2 L5.2,38 L0,38 L0,6.33333333 L6.5,0 Z M3.9,30.4 L1.3,30.4 L1.3,32.9333333 L3.9,32.9333333 L3.9,30.4 Z M7.8,30.4 L5.2,30.4 L5.2,32.9333333 L7.8,32.9333333 L7.8,30.4 Z M11.7,30.4 L9.1,30.4 L9.1,32.9333333 L11.7,32.9333333 L11.7,30.4 Z M3.9,26.6 L1.3,26.6 L1.3,29.1333333 L3.9,29.1333333 L3.9,26.6 Z M7.8,26.6 L5.2,26.6 L5.2,29.1333333 L7.8,29.1333333 L7.8,26.6 Z M11.7,26.6 L9.1,26.6 L9.1,29.1333333 L11.7,29.1333333 L11.7,26.6 Z M3.9,22.8 L1.3,22.8 L1.3,25.3333333 L3.9,25.3333333 L3.9,22.8 Z M7.8,22.8 L5.2,22.8 L5.2,25.3333333 L7.8,25.3333333 L7.8,22.8 Z M11.7,22.8 L9.1,22.8 L9.1,25.3333333 L11.7,25.3333333 L11.7,22.8 Z M3.9,19 L1.3,19 L1.3,21.5333333 L3.9,21.5333333 L3.9,19 Z M7.8,19 L5.2,19 L5.2,21.5333333 L7.8,21.5333333 L7.8,19 Z M11.7,19 L9.1,19 L9.1,21.5333333 L11.7,21.5333333 L11.7,19 Z M3.9,15.2 L1.3,15.2 L1.3,17.7333333 L3.9,17.7333333 L3.9,15.2 Z M7.8,15.2 L5.2,15.2 L5.2,17.7333333 L7.8,17.7333333 L7.8,15.2 Z M11.7,15.2 L9.1,15.2 L9.1,17.7333333 L11.7,17.7333333 L11.7,15.2 Z M3.9,11.4 L1.3,11.4 L1.3,13.9333333 L3.9,13.9333333 L3.9,11.4 Z M7.8,11.4 L5.2,11.4 L5.2,13.9333333 L7.8,13.9333333 L7.8,11.4 Z M11.7,11.4 L9.1,11.4 L9.1,13.9333333 L11.7,13.9333333 L11.7,11.4 Z M3.9,7.6 L1.3,7.6 L1.3,10.1333333 L3.9,10.1333333 L3.9,7.6 Z M7.8,7.6 L5.2,7.6 L5.2,10.1333333 L7.8,10.1333333 L7.8,7.6 Z M11.7,7.6 L9.1,7.6 L9.1,10.1333333 L11.7,10.1333333 L11.7,7.6 Z" id="Path-13"></path>
        </g>
        <g id="building-copy-3" transform="translate(45.000000, 12.000000)" fill="#000000" fill-rule="nonzero">
            <path d="M6.5,0 L13,6.33333333 L13,38 L7.8,38 L7.8,34.2 L5.2,34.2 L5.2,38 L0,38 L0,6.33333333 L6.5,0 Z M3.9,30.4 L1.3,30.4 L1.3,32.9333333 L3.9,32.9333333 L3.9,30.4 Z M7.8,30.4 L5.2,30.4 L5.2,32.9333333 L7.8,32.9333333 L7.8,30.4 Z M11.7,30.4 L9.1,30.4 L9.1,32.9333333 L11.7,32.9333333 L11.7,30.4 Z M3.9,26.6 L1.3,26.6 L1.3,29.1333333 L3.9,29.1333333 L3.9,26.6 Z M7.8,26.6 L5.2,26.6 L5.2,29.1333333 L7.8,29.1333333 L7.8,26.6 Z M11.7,26.6 L9.1,26.6 L9.1,29.1333333 L11.7,29.1333333 L11.7,26.6 Z M3.9,22.8 L1.3,22.8 L1.3,25.3333333 L3.9,25.3333333 L3.9,22.8 Z M7.8,22.8 L5.2,22.8 L5.2,25.3333333 L7.8,25.3333333 L7.8,22.8 Z M11.7,22.8 L9.1,22.8 L9.1,25.3333333 L11.7,25.3333333 L11.7,22.8 Z M3.9,19 L1.3,19 L1.3,21.5333333 L3.9,21.5333333 L3.9,19 Z M7.8,19 L5.2,19 L5.2,21.5333333 L7.8,21.5333333 L7.8,19 Z M11.7,19 L9.1,19 L9.1,21.5333333 L11.7,21.5333333 L11.7,19 Z M3.9,15.2 L1.3,15.2 L1.3,17.7333333 L3.9,17.7333333 L3.9,15.2 Z M7.8,15.2 L5.2,15.2 L5.2,17.7333333 L7.8,17.7333333 L7.8,15.2 Z M11.7,15.2 L9.1,15.2 L9.1,17.7333333 L11.7,17.7333333 L11.7,15.2 Z M3.9,11.4 L1.3,11.4 L1.3,13.9333333 L3.9,13.9333333 L3.9,11.4 Z M7.8,11.4 L5.2,11.4 L5.2,13.9333333 L7.8,13.9333333 L7.8,11.4 Z M11.7,11.4 L9.1,11.4 L9.1,13.9333333 L11.7,13.9333333 L11.7,11.4 Z M3.9,7.6 L1.3,7.6 L1.3,10.1333333 L3.9,10.1333333 L3.9,7.6 Z M7.8,7.6 L5.2,7.6 L5.2,10.1333333 L7.8,10.1333333 L7.8,7.6 Z M11.7,7.6 L9.1,7.6 L9.1,10.1333333 L11.7,10.1333333 L11.7,7.6 Z" id="Path-13"></path>
        </g>
        <polygon id="Path-12" fill="#000000" fill-rule="nonzero" points="31.986 14.225 38.4116549 7.55898123 45 14 51.2610188 7.56030161 60 16 58.5 17.5 51.5 10.5 45 17 38.411 10.44 31.9863367 17.1076854 25.5 10.5 19 17 12.5 10.5 5.5 17.5 4 16 12.7347529 7.55876523 19.136 14.224 25.5610184 7.55898123"></polygon>
    </g>
</svg>