<?xml version="1.0" encoding="UTF-8"?>
<svg width="64px" height="64px" viewBox="0 0 64 64" version="1.1" xmlns="http://www.w3.org/2000/svg" xmlns:xlink="http://www.w3.org/1999/xlink">
    <title>multi_tech_order</title>
    <g id="multi_tech_order" stroke="none" stroke-width="1" fill="none" fill-rule="evenodd">
        <path d="M12,11 L12,15 L10,15 C8.9456382,15 8.08183488,15.8158778 8.00548574,16.8507377 L8,17 L8,54 C8,55.1045695 8.8954305,56 10,56 L10.8291754,55.9997178 C10.1583277,57.2036093 9.547293,58.5580682 9.06614247,59.9264334 C6.19598772,59.4792497 4,56.996075 4,54 L4,17 C4,13.6862915 6.6862915,11 10,11 L12,11 Z M23.693158,45.9994224 C23.7860246,46.2908913 23.9012811,46.6219548 24.0481404,47.0114252 L24.07,47.071 L23.0512844,47.6039111 L22.270616,47.9942884 L20.885146,48.6610482 L18.01,50 L14,50 C12.8954305,50 12,49.1045695 12,48 C12,46.8954305 12.8954305,46 14,46 Z M20.6459325,38.0003857 C20.6548645,38.7777515 20.8028495,39.5804685 21.0719617,40.4127164 C21.2352836,40.9178004 21.4413292,41.4294072 21.7168334,41.9997404 L14,42 C12.8954305,42 12,41.1045695 12,40 C12,38.8954305 12.8954305,38 14,38 Z M21.4721897,30.0002623 C21.2953119,31.2945948 21.2861222,32.6181334 21.40058,34.0006431 L14,34 C12.8954305,34 12,33.1045695 12,32 C12,30.8954305 12.8954305,30 14,30 Z M26.278405,21.9991984 C26.1235785,22.1005416 25.972368,22.2054771 25.8247527,22.3139445 C24.5245629,23.269321 23.4942291,24.5021024 22.7334,26.0005107 L14,26 C12.8954305,26 12,25.1045695 12,24 C12,22.8954305 12.8954305,22 14,22 Z M24,4 C26.963829,4 29.0330253,5.3866802 29.735469,7.90524888 L29.76,8 L31,8 C33.1421954,8 34.8910789,9.68396847 34.9951047,11.8003597 L35,12 L35,15 C35,17.209139 33.209139,19 31,19 L17,19 C14.790861,19 13,17.209139 13,15 L13,12 C13,9.790861 14.790861,8 17,8 L18.239,8 L18.2645206,7.90528649 C18.945668,5.46301662 20.9120034,4.08508155 23.7330372,4.00381301 Z M38,11 C41.3137085,11 44,13.6862915 44,17 L44.001335,17.024037 C43.6743485,17.0080737 43.3405773,17 43,17 C41.929483,17 40.9299477,17.0797599 39.999761,17.2345547 L40,17 C40,15.8954305 39.1045695,15 38,15 L36,15 L36,11 L38,11 Z M24,8 C22.6056662,8 22.1729885,8.34309099 22.0364954,9.38854796 L22.007958,9.56596746 C21.7391369,10.9701091 20.5081567,12 19.061759,12 L17,12 L17,15 L31,15 L31,12 L28.9380147,12 C27.4314048,11.9998666 26.1585421,10.8823511 25.9634841,9.38839093 L25.9429748,9.25016844 C25.7856835,8.31260686 25.3309483,8 24,8 Z" id="Combined-Shape" fill="#000000" fill-rule="nonzero"></path>
        <path d="M34,21 C39.8161935,21 43.5274557,23.4624617 45.1689249,27.6094533 C46.0601392,29.8610081 46.2461973,32.2620931 46.0290772,34.5137923 L46.005,34.73 L46.1037311,34.8477483 C46.6370253,35.5341674 46.8903043,36.4596459 46.9237661,37.6470425 L46.9276134,37.925717 C46.9276134,38.7007866 46.7702347,39.5128847 46.4872263,40.3694957 C46.2228432,41.1697315 45.8536703,41.9927482 45.4061389,42.8277809 C45.1940862,43.2234425 44.9823919,43.5910578 44.7810387,43.9223993 L44.4880128,44.3911777 C44.3937547,44.5376831 44.3033297,44.6740915 44.2179857,44.7993746 L44.207,44.814 L44.1254552,45.0928872 C43.9707626,45.5901887 43.7513823,46.1561277 43.4540182,46.7412283 L43.298776,47.0351464 C43.1989199,47.2171709 43.094667,47.3933229 42.9856921,47.5631066 L42.823,47.804 L43.4288884,48.3358902 C43.7803184,48.6472469 44.136441,48.9675081 44.4882938,49.2876567 L44.785,49.559 L45.1530904,49.6445389 L45.7017,49.7764631 C46.7894036,50.0433797 47.8783214,50.3411509 48.9030202,50.6644928 C51.4818774,51.4782466 53.2001037,52.267058 54.0967038,53.3594057 C55.0542198,54.525969 55.809437,57.1854283 56.1867852,60.0001147 L52.4966944,59.9998348 C52.2995494,58.5002928 51.9347146,57.0858658 51.1906115,56.1297593 L51.004847,55.8972044 C50.9297231,55.8056792 50.7082059,55.6676879 50.3708554,55.5020392 L50.0966014,55.3729109 C50.0474318,55.3506232 49.9965716,55.3279768 49.9440806,55.3050085 L49.6100423,55.1636293 C49.5512668,55.1395202 49.4909798,55.1151626 49.429241,55.0905933 L49.0418647,54.9409307 L48.6225111,54.7879499 L48.174045,54.6334145 L47.6993316,54.4790876 C46.7664974,54.1847334 45.7580583,53.9089697 44.748405,53.6612062 L44.4876734,53.5978702 L43.9984601,53.4826513 L43.4151844,53.3525147 C43.0593514,53.2776767 42.7306534,53.1072466 42.4644447,52.8595556 L41.2864719,51.7851619 C40.9462683,51.4794364 40.6070476,51.1786244 40.2785031,50.8923276 L39.2432071,50.0119535 L38.9043695,49.7372892 L38.6076539,49.5062956 C37.4244205,48.609209 37.5968531,46.7810413 38.9269536,46.1210122 C39.188808,45.9910735 39.5010042,45.6413995 39.7918204,45.1112797 C39.9811336,44.7661868 40.1424062,44.3811294 40.2708854,43.9945184 C40.283521,43.9564963 40.2953045,43.9201764 40.3062416,43.8857235 L40.3617527,43.7027287 L40.4495991,43.3722066 C40.5141145,43.1651183 40.6120018,42.9695468 40.739721,42.7933378 C40.7498795,42.7793226 40.7617081,42.7627696 40.775112,42.7437667 L41.0055099,42.4037788 L41.2865611,41.9645416 C41.490097,41.6369522 41.6910077,41.2919376 41.8805573,40.938264 C42.2269856,40.2918759 42.5049508,39.6721932 42.6891431,39.1146792 C42.848571,38.6321224 42.9276134,38.2242515 42.9276134,37.925717 L42.923693,37.7066292 L42.915,37.573 L42.8604156,37.5456308 C42.1701779,37.161449 41.7181275,36.3791793 41.8470019,35.5079423 L41.8739187,35.3619654 C41.8751291,35.3564874 41.87688,35.3481134 41.8790887,35.3371072 L41.9301287,35.0474618 C42.236943,33.1278921 42.1811405,30.929555 41.4496837,29.0816097 C40.4187296,26.4770176 38.1926647,25 34,25 C29.4090623,25 27.2869471,26.7425116 26.5776707,29.8427713 C26.244889,31.297366 26.2674377,32.9137089 26.5131645,34.4397828 C26.5226871,34.4989225 26.5321514,34.5555754 26.5414835,34.6096354 L26.6199051,35.0233073 L26.7165825,35.4478164 C26.8766495,36.3400995 26.4161549,37.1633083 25.6960141,37.5552341 L25.657,37.574 L25.6528427,37.6408457 L25.6455027,37.925717 C25.6455027,38.1676691 25.7056557,38.4915942 25.8294261,38.8743624 C26.0057306,39.4195961 26.294499,40.0363535 26.6644168,40.6809403 C26.9133651,41.114736 27.1825161,41.5330057 27.4510925,41.9166352 L27.6559299,42.2027581 L27.7860032,42.375213 C28.0078799,42.6572881 28.1497695,42.9938683 28.1967917,43.3496556 L28.2487268,43.6472927 L28.2979504,43.8788421 C28.3942171,44.3065121 28.5215537,44.7317591 28.6777212,45.1117659 C28.9170485,45.6941278 29.1803254,46.0529358 29.3380308,46.1340563 C30.655142,46.811552 30.8045303,48.6357916 29.6151887,49.5185425 C29.1144861,49.890173 28.5389399,50.2678856 27.8869013,50.6572472 C27.2453192,51.0403647 26.539693,51.4296541 25.7486598,51.8396984 L24.9283665,52.2572012 C24.5031941,52.4699519 24.0548897,52.6891065 23.5807831,52.9164881 L23.3334005,53.0343516 L18.9749492,55.0688273 L18.3097301,55.389514 L17.75879,55.6651165 L17.3196582,55.8967747 L17.0877993,56.0273631 L16.9038026,56.1392651 L16.7669363,56.2328185 C16.071117,56.7505949 15.1436384,58.2621282 14.3831161,60.0000497 L10.0780782,60.0003787 C11.1498838,57.024624 12.8502929,54.161355 14.3790198,53.0237915 C14.4542013,52.9678471 14.5342854,52.9114126 14.6200401,52.853992 L14.8950837,52.6782767 C14.9929474,52.6183883 15.0972495,52.5570181 15.2087579,52.4936701 L15.56567,52.2971972 L15.9704272,52.0858827 L16.4276369,51.8567516 L16.9419062,51.6068285 L17.5178426,51.3331383 L21.3131495,49.5648469 L22.7110916,48.892085 L23.5065877,48.4942929 C23.6339969,48.4295179 23.758871,48.3654698 23.8812877,48.3020965 L24.5869182,47.929535 C24.8127121,47.807768 25.0292965,47.6882817 25.2372921,47.5706582 L25.382,47.487 L25.3460036,47.4218749 C25.2577009,47.2550787 25.1739341,47.082294 25.0943188,46.9039205 L24.9779613,46.6322186 C24.6795529,45.9060933 24.4797529,45.1983418 24.3540306,44.5916297 L24.32,44.419 L24.096013,44.1032942 C23.8649249,43.768479 23.6124856,43.3789574 23.3558828,42.9471708 L23.1951193,42.6719135 C22.6973649,41.8045699 22.2953894,40.9460225 22.0234546,40.1050456 C21.7800764,39.3523818 21.6455027,38.6277002 21.6455027,37.925717 C21.6455027,36.6133978 21.9086078,35.5829035 22.4920079,34.8492241 L22.524,34.811 L22.4998648,34.6473545 C22.2616183,32.9277101 22.2479651,31.1346741 22.5863964,29.3866894 L22.6784131,28.9507004 C23.7984407,24.0550403 27.5190169,21 34,21 Z" id="Path-11-Copy" fill="#000000" fill-rule="nonzero"></path>
        <path d="M43,18 C48.8161935,18 52.5274557,20.4624617 54.1689249,24.6094533 C55.0601392,26.8610081 55.2461973,29.2620931 55.0290772,31.5137923 L55.005,31.73 L55.1037311,31.8477483 C55.6370253,32.5341674 55.8903043,33.4596459 55.9237661,34.6470425 L55.9276134,34.925717 C55.9276134,35.7007866 55.7702347,36.5128847 55.4872263,37.3694957 C55.2228432,38.1697315 54.8536703,38.9927482 54.4061389,39.8277809 C54.1940862,40.2234425 53.9823919,40.5910578 53.7810387,40.9223993 L53.4880128,41.3911777 C53.3937547,41.5376831 53.3033297,41.6740915 53.2179857,41.7993746 L53.207,41.814 L53.1254552,42.0928872 C52.9707626,42.5901887 52.7513823,43.1561277 52.4540182,43.7412283 L52.298776,44.0351464 C52.1989199,44.2171709 52.094667,44.3933229 51.9856921,44.5631066 L51.823,44.804 L52.4288884,45.3358902 C52.7803184,45.6472469 53.136441,45.9675081 53.4882938,46.2876567 L53.785,46.559 L54.1530904,46.6445389 L54.7017,46.7764631 C55.7894036,47.0433797 56.8783214,47.3411509 57.9030202,47.6644928 C58.6796563,47.9095589 59.3782379,48.1523629 59.9998305,48.4018765 L60.0008873,52.8924945 C59.922155,52.8009777 59.7024686,52.6648707 59.3708554,52.5020392 L59.0966014,52.3729109 C59.0474318,52.3506232 58.9965716,52.3279768 58.9440806,52.3050085 L58.6100423,52.1636293 C58.5512668,52.1395202 58.4909798,52.1151626 58.429241,52.0905933 L58.0418647,51.9409307 L57.6225111,51.7879499 L57.174045,51.6334145 L56.6993316,51.4790876 C55.7664974,51.1847334 54.7580583,50.9089697 53.748405,50.6612062 L53.4876734,50.5978702 L52.9984601,50.4826513 L52.4151844,50.3525147 C52.0593514,50.2776767 51.7306534,50.1072466 51.4644447,49.8595556 L50.2864719,48.7851619 C49.9462683,48.4794364 49.6070476,48.1786244 49.2785031,47.8923276 L48.2432071,47.0119535 L47.9043695,46.7372892 L47.6076539,46.5062956 C46.4244205,45.609209 46.5968531,43.7810413 47.9269536,43.1210122 C48.188808,42.9910735 48.5010042,42.6413995 48.7918204,42.1112797 C48.9811336,41.7661868 49.1424062,41.3811294 49.2708854,40.9945184 C49.283521,40.9564963 49.2953045,40.9201764 49.3062416,40.8857235 L49.3617527,40.7027287 L49.4495991,40.3722066 C49.5141145,40.1651183 49.6120018,39.9695468 49.739721,39.7933378 C49.7498795,39.7793226 49.7617081,39.7627696 49.775112,39.7437667 L50.0055099,39.4037788 L50.2865611,38.9645416 C50.490097,38.6369522 50.6910077,38.2919376 50.8805573,37.938264 C51.2269856,37.2918759 51.5049508,36.6721932 51.6891431,36.1146792 C51.848571,35.6321224 51.9276134,35.2242515 51.9276134,34.925717 L51.923693,34.7066292 L51.915,34.573 L51.8604156,34.5456308 C51.1701779,34.161449 50.7181275,33.3791793 50.8470019,32.5079423 L50.8739187,32.3619654 C50.8751291,32.3564874 50.87688,32.3481134 50.8790887,32.3371072 L50.9301287,32.0474618 C51.236943,30.1278921 51.1811405,27.929555 50.4496837,26.0816097 C49.4187296,23.4770176 47.1926647,22 43,22 C42.614112,22 42.2456665,22.0123111 41.8940365,22.0367047 C41.7808989,21.9629314 41.6646343,21.8911785 41.5465155,21.8212791 C39.8919571,20.8421583 37.863421,20.2260711 35.4517759,20.0513104 C37.3189833,18.7313067 39.8291025,18 43,18 Z" id="Path-11-Copy-Copy" fill="#000000" fill-rule="nonzero"></path>
    </g>
</svg>