<?xml version="1.0" encoding="UTF-8"?>
<svg width="64px" height="64px" viewBox="0 0 64 64" version="1.1" xmlns="http://www.w3.org/2000/svg" xmlns:xlink="http://www.w3.org/1999/xlink">
    <title>mute</title>
    <g id="mute" stroke="none" stroke-width="1" fill="none" fill-rule="evenodd">
        <path d="M16,27 C17.1045695,27 18,27.8954305 18,29 L18,32 C18,39.7319865 24.2680135,46 32,46 C35.8042057,46 39.2540235,44.4826851 41.777283,42.0202256 L44.6063787,44.8483228 C41.8063534,47.5959473 38.1120954,49.4354763 34.0004182,49.8900962 L34,56 L44,56 C45.1045695,56 46,56.8954305 46,58 C46,59.1045695 45.1045695,60 44,60 L20,60 C18.8954305,60 18,59.1045695 18,58 C18,56.8954305 18.8954305,56 20,56 L30,56 L30.0005845,49.8902071 C21.0004022,48.8955843 14,41.2653079 14,32 L14,29 C14,27.8954305 14.8954305,27 16,27 Z M21,21.242 L25,25.242 L25,32 C25,35.7854517 28.0047834,38.8690987 31.7593502,38.995941 L32,39 C33.8714649,39 35.5713982,38.2655857 36.8273174,37.0692395 L39.6560646,39.8984086 C37.6758457,41.8182421 34.97593,43 32,43 C25.9248678,43 21,38.0751322 21,32 L21,21.242 Z M48,27 C49.1045695,27 50,27.8954305 50,29 L50,32 C50,34.8433757 49.3407172,37.5327676 48.1666779,39.9236494 L45.1252847,36.881937 C45.6908911,35.3618951 46,33.7170457 46,32 L46,29 C46,27.8954305 46.8954305,27 48,27 Z M32,4 C38.0751322,4 43,8.92486775 43,15 L43,32 C43,32.8515679 42.9032342,33.680535 42.7200986,34.4765053 L39,30.757 L39,15 C39,11.2145483 35.9952166,8.13090132 32.2406498,8.00405902 L32,8 C28.1340068,8 25,11.1340068 25,15 L25,16.757 L21.1909996,12.9483083 C22.1348699,7.94509238 26.4665927,4.13870023 31.7115925,4.0037074 Z" id="Rectangle-2" fill="#000000"></path>
        <path d="M10.5857864,6.58578644 C11.366835,5.80473785 12.633165,5.80473785 13.4142136,6.58578644 L53.4142136,46.5857864 C54.1952621,47.366835 54.1952621,48.633165 53.4142136,49.4142136 C52.633165,50.1952621 51.366835,50.1952621 50.5857864,49.4142136 L10.5857864,9.41421356 C9.80473785,8.63316498 9.80473785,7.36683502 10.5857864,6.58578644 Z" id="Path-267" fill="#000000" fill-rule="nonzero"></path>
    </g>
</svg>