<?xml version="1.0" encoding="UTF-8"?>
<svg width="64px" height="64px" viewBox="0 0 64 64" version="1.1" xmlns="http://www.w3.org/2000/svg" xmlns:xlink="http://www.w3.org/1999/xlink">
    <title>neighborhood</title>
    <g id="neighborhood" stroke="none" stroke-width="1" fill="none" fill-rule="evenodd">
        <rect id="Rectangle" fill="#000000" x="29" y="42" width="6" height="8"></rect>
        <rect id="Rectangle-Copy-5" fill="#000000" x="23" y="32" width="6" height="6"></rect>
        <rect id="Rectangle-Copy-8" fill="#000000" x="35" y="32" width="6" height="6"></rect>
        <rect id="Rectangle-Copy-9" fill="#000000" x="49" y="28" width="4" height="6"></rect>
        <rect id="Rectangle-Copy-10" fill="#000000" x="11" y="28" width="4" height="6"></rect>
        <path d="M34.6340184,14.3047661 L46.6340184,24.8047661 C47.5020783,25.5643185 48,26.6616226 48,27.8150729 L48,50 C48,52.209139 46.209139,54 44,54 L20,54 C17.790861,54 16,52.209139 16,50 L16,27.8150729 C16,26.6616226 16.4979217,25.5643185 17.3659816,24.8047661 L29.3659816,14.3047661 C30.8740855,12.9851752 33.1259145,12.9851752 34.6340184,14.3047661 Z M32,17.3150729 L20,27.8150729 L20,50 L44,50 L44,27.8150729 L32,17.3150729 Z" id="Rectangle" fill="#000000" fill-rule="nonzero"></path>
        <path d="M46.6340184,10.3047661 L58.6340184,20.8047661 C59.5020783,21.5643185 60,22.6616226 60,23.8150729 L60,46 C60,48.209139 58.209139,50 56,50 L49,50 L48.999,45.9990729 L56,46 L56,23.8150729 L44,13.3150729 L39.511,17.2430729 L36.473,14.5850729 L41.3659816,10.3047661 C42.8740855,8.98517517 45.1259145,8.98517517 46.6340184,10.3047661 Z" id="Rectangle-Copy" fill="#000000" fill-rule="nonzero"></path>
        <path d="M22.6340184,10.3047661 L27.527,14.5850729 L24.489,17.2430729 L20,13.3150729 L8,23.8150729 L8,46 L15,45.9990729 L15,50 L8,50 C5.790861,50 4,48.209139 4,46 L4,23.8150729 C4,22.6616226 4.49792173,21.5643185 5.36598157,20.8047661 L17.3659816,10.3047661 C18.8740855,8.98517517 21.1259145,8.98517517 22.6340184,10.3047661 Z" id="Rectangle-Copy-2" fill="#000000" fill-rule="nonzero"></path>
    </g>
</svg>