<?xml version="1.0" encoding="UTF-8"?>
<svg width="64px" height="64px" viewBox="0 0 64 64" version="1.1" xmlns="http://www.w3.org/2000/svg" xmlns:xlink="http://www.w3.org/1999/xlink">
    <title>new_location</title>
    <g id="new_location" stroke="none" stroke-width="1" fill="none" fill-rule="evenodd">
        <g id="Group" transform="translate(4.000000, 4.000000)" fill="#000000">
            <path d="M20,0 C31.045695,0 40,7.46153846 40,19.2307692 C40,19.8260125 39.9616307,20.4466385 39.8848921,21.0926473 C39.2639936,21.0312139 38.635642,21 38,21 C37.2724249,21 36.5544015,21.0408957 35.848103,21.1205139 C35.9293771,20.587771 35.9774106,20.0802604 35.9937153,19.5977758 L36,19.2307692 C36,10.1432314 29.3361702,4 20,4 C10.6638298,4 4,10.1432314 4,19.2307692 C4,23.2534389 6.3274034,29.1169685 11.0076788,36.6706526 L11.9128093,38.1067381 L12.8731226,39.5822158 C13.0377755,39.8313992 13.2047292,40.0822147 13.3739845,40.3346577 L14.4171419,41.8688099 C14.5956067,42.1277447 14.7763747,42.3882979 14.9594467,42.6504649 L16.0855321,44.2427947 L17.2669495,45.8736338 L18.5037361,47.5427612 L20,49.516 L20.9112132,48.3148801 C21.5394251,49.603579 22.3091174,50.8106375 23.2000754,51.9158408 L22.122314,53.3120915 L20.7206612,55.0952829 C20.4826446,55.3953973 20.2424242,55.6969697 20,56 L18.5719008,54.1993134 C18.338292,53.9021149 18.1068871,53.6063742 17.877686,53.3120915 L16.5289256,51.5638907 L15.2330579,49.8506802 L13.9900826,48.1724603 C13.7873278,47.8956728 13.5867769,47.6203433 13.3884298,47.3464717 L12.2247934,45.7207374 C12.0352617,45.4526976 11.8479339,45.1861157 11.6628099,44.9209917 L10.5785124,43.3477432 C7.58126722,38.9397754 5.22093664,34.9531511 3.49752066,31.3878703 L2.91570248,30.1470312 C0.971900826,25.8653274 0,22.2265734 0,19.2307692 C0,7.46153846 8.954305,0 20,0 Z" id="Oval" fill-rule="nonzero"></path>
            <circle id="Oval" cx="20" cy="20" r="8"></circle>
        </g>
        <path d="M42,26 C51.9411255,26 60,34.0588745 60,44 C60,53.9411255 51.9411255,62 42,62 C32.0588745,62 24,53.9411255 24,44 C24,34.0588745 32.0588745,26 42,26 Z M42,30 C34.2680135,30 28,36.2680135 28,44 C28,51.7319865 34.2680135,58 42,58 C49.7319865,58 56,51.7319865 56,44 C56,36.2680135 49.7319865,30 42,30 Z M42,36 C43.1045695,36 44,36.8954305 44,38 L44,42 L48,42 C49.1045695,42 50,42.8954305 50,44 C50,45.1045695 49.1045695,46 48,46 L44,46 L44,50 C44,51.1045695 43.1045695,52 42,52 C40.8954305,52 40,51.1045695 40,50 L40,46 L36,46 C34.8954305,46 34,45.1045695 34,44 C34,42.8954305 34.8954305,42 36,42 L40,42 L40,38 C40,36.8954305 40.8954305,36 42,36 Z" id="Oval" fill="#101010" fill-rule="nonzero"></path>
    </g>
</svg>