<?xml version="1.0" encoding="UTF-8"?>
<svg width="64px" height="64px" viewBox="0 0 64 64" version="1.1" xmlns="http://www.w3.org/2000/svg" xmlns:xlink="http://www.w3.org/1999/xlink">
    <title>new_ticket</title>
    <g id="new_ticket" stroke="none" stroke-width="1" fill="none" fill-rule="evenodd">
        <path d="M53,8 C53,11.6 56.675,15.2 60,15.2 L60.0010009,35.9040762 C59.1441311,33.3729193 57.7683822,31.0810251 56.0003687,29.155008 L56,18.5098824 L55.8139712,18.4218502 C53.3256378,17.2098028 51.1847647,15.0154662 49.9965078,12.4163604 L49.916,12.2352941 L14.109,12.2352941 L14.0228863,12.4345678 C12.8546558,15.0371369 10.7407263,17.2226753 8.24178673,18.4281832 L8,18.5405882 L8,33.4858824 L8.22349445,33.5919798 C10.7189545,34.8183083 12.8417233,37.0318585 14.0165238,39.623401 L14.078,39.7647059 L23.1301663,39.7641499 C23.0442028,40.4974811 23,41.2435785 23,42 C23,42.675777 23.03528,43.3433139 23.1040987,44.0008693 L11,44 C11,40.58 7.5,36.8 4,36.8 L4,15.2 C7.5,15.2 11,11.6 11,8 L53,8 Z M46,18 C48.209139,18 50,19.790861 50,22 L50.0003112,24.7614374 C48.7362614,24.1738068 47.3967786,23.7211163 46.0003701,23.4218731 L46,22 L18,22 L18,30 L27.2686239,29.9996213 C26.2756939,31.217049 25.4306739,32.5598757 24.7609693,34.0006957 L18,34 C15.790861,34 14,32.209139 14,30 L14,22 C14,19.790861 15.790861,18 18,18 L46,18 Z" id="Combined-Shape" fill="#000000" fill-rule="nonzero"></path>
        <path d="M42,24 C51.9411255,24 60,32.0588745 60,42 C60,51.9411255 51.9411255,60 42,60 C32.0588745,60 24,51.9411255 24,42 C24,32.0588745 32.0588745,24 42,24 Z M42,28 C34.2680135,28 28,34.2680135 28,42 C28,49.7319865 34.2680135,56 42,56 C49.7319865,56 56,49.7319865 56,42 C56,34.2680135 49.7319865,28 42,28 Z M42,34 C43.1045695,34 44,34.8954305 44,36 L44,40 L48,40 C49.1045695,40 50,40.8954305 50,42 C50,43.1045695 49.1045695,44 48,44 L44,44 L44,48 C44,49.1045695 43.1045695,50 42,50 C40.8954305,50 40,49.1045695 40,48 L40,44 L36,44 C34.8954305,44 34,43.1045695 34,42 C34,40.8954305 34.8954305,40 36,40 L40,40 L40,36 C40,34.8954305 40.8954305,34 42,34 Z" id="Oval" fill="#101010" fill-rule="nonzero"></path>
    </g>
</svg>