<?xml version="1.0" encoding="UTF-8"?>
<svg width="32px" height="32px" viewBox="0 0 32 32" version="1.1" xmlns="http://www.w3.org/2000/svg" xmlns:xlink="http://www.w3.org/1999/xlink">
    <title>new-location</title>
    <g id="new-location" stroke="none" stroke-width="1" fill="none" fill-rule="evenodd">
        <path d="M12,2 C17.3432738,2 21.7077479,5.49210373 21.9859181,11.0482605 C21.6613733,11.0162359 21.3325827,11 21,11 C20.6565241,11 20.3170927,11.0173168 19.9825314,11.0511251 C19.7181397,6.81934628 16.4722856,4 12,4 C7.33191492,4 4,7.07161572 4,11.6153846 C4,13.6267194 5.1637017,16.5584843 7.50383938,20.3353263 L7.95640466,21.053369 L8.43656132,21.7911079 C8.51888774,21.9156996 8.60236459,22.0411073 8.68699224,22.1673289 L9.20857093,22.9344049 C9.29780336,23.0638724 9.38818737,23.194149 9.47972336,23.3252324 L10.0427661,24.1213974 L10.6334747,24.9368169 L11.2518681,25.7713806 L12,26.758 L12.4413621,26.1748632 C12.8023386,26.7705988 13.2237606,27.3256286 13.6971227,27.8314475 L13.061157,28.6560458 L12.3603306,29.5476414 C12.2413223,29.6976987 12.1212121,29.8484848 12,30 L11.2859504,29.0996567 C11.169146,28.9510574 11.0534435,28.8031871 10.938843,28.6560458 L10.2644628,27.7819453 L9.61652893,26.9253401 L8.99504132,26.0862301 C8.89366391,25.9478364 8.79338843,25.8101716 8.69421488,25.6732359 L8.11239669,24.8603687 C8.01763085,24.7263488 7.92396694,24.5930579 7.83140496,24.4604959 L7.2892562,23.6738716 C5.79063361,21.4698877 4.61046832,19.4765755 3.74876033,17.6939352 L3.45785124,17.0735156 C2.48595041,14.9326637 2,13.1132867 2,11.6153846 C2,5.73076923 6.4771525,2 12,2 Z" id="Combined-Shape" fill="#000000" fill-rule="nonzero"></path>
        <g id="plus" transform="translate(12.000000, 12.000000)">
            <path d="M9,0 C13.9705627,0 18,4.02943725 18,9 C18,13.9705627 13.9705627,18 9,18 C4.02943725,18 0,13.9705627 0,9 C0,4.02943725 4.02943725,0 9,0 Z M9,2 C5.13400675,2 2,5.13400675 2,9 C2,12.8659932 5.13400675,16 9,16 C12.8659932,16 16,12.8659932 16,9 C16,5.13400675 12.8659932,2 9,2 Z" id="Oval" fill="#020202" fill-rule="nonzero"></path>
            <path d="M9,4 C9.55228475,4 10,4.44771525 10,5 L10,7.999 L13,8 C13.5522847,8 14,8.44771525 14,9 C14,9.55228475 13.5522847,10 13,10 L10,10 L10,13 C10,13.5522847 9.55228475,14 9,14 C8.44771525,14 8,13.5522847 8,13 L8,10 L5,10 C4.44771525,10 4,9.55228475 4,9 C4,8.44771525 4.44771525,8 5,8 L8,8 L8,5 C8,4.44771525 8.44771525,4 9,4 Z" id="Combined-Shape" fill="#000000"></path>
        </g>
        <circle id="Oval" fill="#020202" fill-rule="nonzero" cx="12" cy="12" r="3"></circle>
    </g>
</svg>