<?xml version="1.0" encoding="UTF-8"?>
<svg width="64px" height="64px" viewBox="0 0 64 64" version="1.1" xmlns="http://www.w3.org/2000/svg" xmlns:xlink="http://www.w3.org/1999/xlink">
    <title>no_charge</title>
    <g id="no_charge" stroke="none" stroke-width="1" fill="none" fill-rule="evenodd">
        <path d="M38.910722,30.7475357 C39.4843386,31.0371468 39.9963674,31.3610423 40.4468085,31.7192225 C41.2978723,32.3959683 41.9361702,33.2455004 42.3617021,34.2678186 C42.787234,35.2901368 43,36.5356371 43,38.0043197 C43,39.8761699 42.4893617,41.4888409 41.4680851,42.8423326 C40.4468085,44.1958243 39.106383,45.2325414 37.4468085,45.9524838 L37.4468085,45.9524838 L36.9448936,46.1576674 C36.4389362,46.3520518 35.9208511,46.5140389 35.3906383,46.6436285 L35.3906383,46.6436285 L35.1276596,46.7030238 L35.1276596,49.3650108 C35.1276596,50.1137509 34.8794326,50.7401008 34.3829787,51.2440605 C33.8865248,51.7480202 33.2695035,52 32.5319149,52 C31.822695,52 31.2269504,51.7480202 30.7446809,51.2440605 L30.7446809,51.2440605 L30.5928553,51.0715409 C30.2118028,50.5994009 30.0212766,50.0305576 30.0212766,49.3650108 L30.0212766,49.3650108 L30.0212766,46.9352052 L29.5337536,46.883076 C28.5285877,46.7586415 27.5847124,46.5564355 26.7021277,46.2764579 C25.9193235,46.0281331 25.1537392,45.6871634 24.4053748,45.2535486 L28.2390851,41.418 L28.4542553,41.5049676 C28.8105674,41.6376674 29.1922979,41.7467761 29.5994468,41.8322937 L29.9095745,41.8920086 L30.0212766,41.9095572 L30.0210851,39.636 L35.1730851,34.483 L35.173913,40.9296967 L35,41 C35.8985507,40.6618091 36.6231884,40.2059866 37.173913,39.6325325 C37.7246377,39.0590784 38,38.4047525 38,37.6695549 C38,36.7873178 37.7391304,36.0374163 37.2173913,35.4198503 L37.2173913,35.4198503 L37.0332797,35.2175349 C36.6446592,34.8199836 36.1336554,34.4649104 35.5002684,34.1523152 L35.5030851,34.154 Z M32.6170213,12 C33.3546099,12 33.9574468,12.2519798 34.4255319,12.7559395 L34.4255319,12.7559395 L34.572892,12.9284591 C34.9427371,13.4005991 35.1276596,13.9694424 35.1276596,14.6349892 L35.1276596,14.6349892 L35.1276596,16.2062635 L35.6146572,16.3052556 C36.1694247,16.4300456 36.7092199,16.5860331 37.2340426,16.7732181 C38.3515529,17.1717932 39.322576,17.6465326 40.1471116,18.1974366 L36.4000851,21.943 L36.3324468,21.9136069 C36.2340426,21.8722102 36.1349734,21.8317135 36.0352394,21.7921166 L35.7340426,21.6760259 L35.1276596,21.462743 L35.1270851,23.216 L26.0933685,32.2507116 C25.335097,31.8851646 24.6696164,31.4568216 24.0969267,30.9656827 L23.8297872,30.7257019 C23.0496454,29.9913607 22.4609929,29.1274298 22.0638298,28.1339093 C21.6666667,27.1403888 21.4680851,26.024478 21.4680851,24.7861771 C21.4680851,22.9143269 21.9432624,21.3160547 22.893617,19.9913607 C23.8439716,18.6666667 25.1276596,17.6587473 26.7446809,16.9676026 L26.7446809,16.9676026 L27.2348936,16.7706263 C28.0604255,16.4596112 28.9285106,16.2349892 29.8391489,16.0967603 L29.8391489,16.0967603 L30.0212766,16.0726242 L30.0212766,14.6349892 C30.0212766,13.8862491 30.2695035,13.2598992 30.7659574,12.7559395 C31.2624113,12.2519798 31.8794326,12 32.6170213,12 Z M30,21 L29.6189759,21.073823 C29.3549197,21.1318267 29.1044177,21.1994978 28.8674699,21.2768362 C27.9196787,21.5861896 27.2048193,22.0080352 26.7228916,22.5423729 C26.2409639,23.0767106 26,23.6954175 26,24.3984934 C26,25.2421846 26.2811245,25.9382298 26.8433735,26.486629 C27.4056225,27.0350282 28.2168675,27.4709353 29.2771084,27.7943503 L29.2771084,27.7943503 L29.7442833,27.9308044 L30,28 L30,21 Z" id="$" fill="#000000" fill-rule="nonzero"></path>
        <path d="M32,4 C47.463973,4 60,16.536027 60,32 C60,47.463973 47.463973,60 32,60 C16.536027,60 4,47.463973 4,32 C4,16.536027 16.536027,4 32,4 Z M50.3266105,16.5029101 L16.5029101,50.3266105 C20.6841934,53.8658878 26.0928724,56 32,56 C45.254834,56 56,45.254834 56,32 C56,26.0928724 53.8658878,20.6841934 50.3266105,16.5029101 Z M32,8 C18.745166,8 8,18.745166 8,32 C8,37.9071276 10.1341122,43.3158066 13.6733895,47.4970899 L47.4970899,13.6733895 C43.3158066,10.1341122 37.9071276,8 32,8 Z" id="Oval" fill="#000000" fill-rule="nonzero"></path>
    </g>
</svg>