<?xml version="1.0" encoding="UTF-8"?>
<svg width="64px" height="64px" viewBox="0 0 64 64" version="1.1" xmlns="http://www.w3.org/2000/svg" xmlns:xlink="http://www.w3.org/1999/xlink">
    <title>no_service</title>
    <g id="no_service" stroke="none" stroke-width="1" fill="none" fill-rule="evenodd">
        <path d="M14,11 L14,14 L11,14 C9.9456382,14 9.0818349,14.8158778 9.0054857,15.8507377 L9,16 L9,52 C9,53.0543618 9.8158778,53.9181651 10.8507377,53.9945143 L11,54 L24.3479899,54.0008217 C25.3447002,55.1143173 26.4584841,56.1208246 27.6699921,57.0009938 L11,57 C8.2385763,57 6,54.7614237 6,52 L6,16 C6,13.2385763 8.2385763,11 11,11 L14,11 Z M21.5297413,50.0009224 L14,50 C13.4477153,50 13,49.5522847 13,49 L13,48 C13,47.4477153 13.4477153,47 14,47 L20.1950827,47.0004039 C20.5627766,48.0406374 21.0101044,49.043252 21.5297413,50.0009224 Z M19.3806882,44.0010104 L14,44 C13.4477153,44 13,43.5522847 13,43 L13,42 C13,41.4477153 13.4477153,41 14,41 L19.0233998,41.0002053 C19.0712765,42.0212388 19.1920692,43.0232038 19.3806882,44.0010104 Z M19.0939975,38.0000253 L14,38 C13.4477153,38 13,37.5522847 13,37 L13,36 C13,35.4477153 13.4477153,35 14,35 L19.5988018,35.0003668 C19.3606912,35.9753402 19.1906493,36.9770002 19.0939975,38.0000253 Z M20.5772491,32.0007356 L14,32 C13.4477153,32 13,31.5522847 13,31 L13,30 C13,29.4477153 13.4477153,29 14,29 L22.1077963,29.0003223 C21.5210321,29.9527293 21.0081842,30.9555325 20.5772491,32.0007356 Z M24.3470994,26.0001732 L14,26 C13.4477153,26 13,25.5522847 13,25 L13,24 C13,23.4477153 13.4477153,23 14,23 L27.6679912,23.0004601 C26.456897,23.8805459 25.343488,24.8868954 24.3470994,26.0001732 Z M38,11 C40.7614237,11 43,13.2385763 43,16 L43.0005862,19.2127504 C42.0205905,19.0725448 41.0187671,19 40,19 L40,16 C40,14.9456382 39.1841222,14.0818349 38.1492623,14.0054857 L38,14 L35,14 L35,11 L38,11 Z" id="Rectangle" fill="#000000" fill-rule="nonzero"></path>
        <path d="M24.5,4 C26.8333333,4 28.3333333,5 29,7 L32,7 C33.6568542,7 35,8.34314575 35,10 L35,15 C35,16.6568542 33.6568542,18 32,18 L17,18 C15.3431458,18 14,16.6568542 14,15 L14,10 C14,8.34314575 15.3431458,7 17,7 L20,7 C20.6666667,5 22.1666667,4 24.5,4 Z M24.5,7 C23.4800063,7 23.1307493,7.1928383 22.8900467,7.82495371 L22.8460499,7.9486833 L22.1622777,10 L18,10 C17.4477153,10 17,10.4477153 17,11 L17,14 C17,14.5522847 17.4477153,15 18,15 L31,15 C31.5522847,15 32,14.5522847 32,14 L32,11 C32,10.4477153 31.5522847,10 31,10 L26.8377223,10 L26.8377223,10 L26.1539501,7.9486833 C25.9102878,7.21769636 25.5837433,7 24.5,7 Z" id="Rectangle" fill="#000000" fill-rule="nonzero"></path>
        <path d="M40,20 C51.045695,20 60,28.954305 60,40 C60,51.045695 51.045695,60 40,60 C28.954305,60 20,51.045695 20,40 C20,28.954305 28.954305,20 40,20 Z M40,24 C31.163444,24 24,31.163444 24,40 C24,48.836556 31.163444,56 40,56 C48.836556,56 56,48.836556 56,40 C56,31.163444 48.836556,24 40,24 Z" id="Oval-2" fill="#000000"></path>
        <path d="M40,28 C41.1045695,28 42,28.8954305 42,30 L42,38 L50,38 C51.1045695,38 52,38.8954305 52,40 C52,41.1045695 51.1045695,42 50,42 L42,42 L42,50 C42,51.1045695 41.1045695,52 40,52 C38.8954305,52 38,51.1045695 38,50 L38,42 L30,42 C28.8954305,42 28,41.1045695 28,40 C28,38.8954305 28.8954305,38 30,38 L38,38 L38,30 C38,28.8954305 38.8954305,28 40,28 Z" id="Combined-Shape" fill="#000000" transform="translate(40.000000, 40.000000) rotate(45.000000) translate(-40.000000, -40.000000) "></path>
    </g>
</svg>