<?xml version="1.0" encoding="UTF-8"?>
<svg width="64px" height="64px" viewBox="0 0 64 64" version="1.1" xmlns="http://www.w3.org/2000/svg" xmlns:xlink="http://www.w3.org/1999/xlink">
    <title>note_access</title>
    <g id="note_access" stroke="none" stroke-width="1" fill="none" fill-rule="evenodd">
        <path d="M48.5217391,4 C50.4427296,4 52,5.790861 52,8 L52,56 C52,58.209139 50.4427296,60 48.5217391,60 L15.4782609,60 C13.5572704,60 12,58.209139 12,56 L12,8 C12,5.790861 13.5572704,4 15.4782609,4 L48.5217391,4 Z M16,8 L16,56 L48,56 L48,8 L16,8 Z" id="Rectangle-2" fill="#000000" fill-rule="nonzero"></path>
        <g id="Group-3" transform="translate(19.000000, 11.000000)" fill="#000000" fill-rule="nonzero">
            <path d="M22.056,6.708 C22.128,6.708 22.206,6.72 22.29,6.744 C22.374,6.768 22.468,6.816 22.572,6.888 C22.708,6.992 22.87,7.084 23.058,7.164 C23.246,7.244 23.464,7.284 23.712,7.284 C23.96,7.284 24.194,7.222 24.414,7.098 C24.634,6.974 24.816,6.798 24.96,6.57 C25.104,6.342 25.176,6.068 25.176,5.748 C25.176,5.444 25.114,5.192 24.99,4.992 C24.866,4.792 24.702,4.64 24.498,4.536 C24.294,4.432 24.076,4.38 23.844,4.38 C23.668,4.38 23.522,4.396 23.406,4.428 C23.29,4.46 23.178,4.494 23.07,4.53 C22.962,4.566 22.836,4.584 22.692,4.584 C22.508,4.584 22.366,4.52 22.266,4.392 C22.166,4.264 22.116,4.112 22.116,3.936 C22.116,3.824 22.138,3.724 22.182,3.636 C22.226,3.548 22.292,3.452 22.38,3.348 L24.492,1.044 L24.816,1.32 L21.864,1.32 C21.672,1.32 21.512,1.256 21.384,1.128 C21.256,1 21.192,0.84 21.192,0.648 C21.192,0.464 21.256,0.31 21.384,0.186 C21.512,0.062 21.672,0 21.864,0 L25.536,0 C25.784,0 25.97,0.068 26.094,0.204 C26.218,0.34 26.28,0.512 26.28,0.72 C26.28,0.824 26.254,0.924 26.202,1.02 C26.15,1.116 26.08,1.208 25.992,1.296 L23.868,3.636 L23.544,3.228 C23.632,3.188 23.754,3.152 23.91,3.12 C24.066,3.088 24.196,3.072 24.3,3.072 C24.772,3.072 25.182,3.194 25.53,3.438 C25.878,3.682 26.146,3.998 26.334,4.386 C26.522,4.774 26.616,5.192 26.616,5.64 C26.616,6.232 26.484,6.744 26.22,7.176 C25.956,7.608 25.584,7.94 25.104,8.172 C24.624,8.404 24.064,8.52 23.424,8.52 C23.128,8.52 22.836,8.484 22.548,8.412 C22.26,8.34 22.012,8.244 21.804,8.124 C21.628,8.028 21.51,7.922 21.45,7.806 C21.39,7.69 21.36,7.58 21.36,7.476 C21.36,7.292 21.426,7.118 21.558,6.954 C21.69,6.79 21.856,6.708 22.056,6.708 Z" id="Path"></path>
            <path d="M15.082,7.2 C15.274,7.2 15.434,7.264 15.562,7.392 C15.69,7.52 15.754,7.68 15.754,7.872 C15.754,8.056 15.69,8.21 15.562,8.334 C15.434,8.458 15.274,8.52 15.082,8.52 L11.002,8.52 C10.794,8.52 10.63,8.456 10.51,8.328 C10.39,8.2 10.33,8.036 10.33,7.836 C10.33,7.636 10.402,7.46 10.546,7.308 L13.162,4.512 C13.45,4.2 13.682,3.882 13.858,3.558 C14.034,3.234 14.122,2.932 14.122,2.652 C14.122,2.404 14.062,2.18 13.942,1.98 C13.822,1.78 13.666,1.62 13.474,1.5 C13.282,1.38 13.074,1.32 12.85,1.32 C12.618,1.32 12.382,1.398 12.142,1.554 C11.902,1.71 11.69,1.916 11.506,2.172 C11.41,2.3 11.314,2.38 11.218,2.412 C11.122,2.444 11.034,2.46 10.954,2.46 C10.778,2.46 10.616,2.394 10.468,2.262 C10.32,2.13 10.246,1.976 10.246,1.8 C10.246,1.664 10.292,1.532 10.384,1.404 C10.476,1.276 10.59,1.144 10.726,1.008 C11.03,0.704 11.382,0.46 11.782,0.276 C12.182,0.092 12.566,0 12.934,0 C13.478,0 13.946,0.112 14.338,0.336 C14.73,0.56 15.034,0.868 15.25,1.26 C15.466,1.652 15.574,2.096 15.574,2.592 C15.574,2.928 15.512,3.27 15.388,3.618 C15.264,3.966 15.094,4.304 14.878,4.632 C14.662,4.96 14.414,5.276 14.134,5.58 L12.514,7.308 L12.382,7.2 L15.082,7.2 Z" id="Path"></path>
            <path d="M2.616,8.4 C2.392,8.4 2.208,8.33 2.064,8.19 C1.92,8.05 1.848,7.876 1.848,7.668 L1.848,1.62 L2.016,1.884 L1.104,2.436 C0.984,2.508 0.856,2.544 0.72,2.544 C0.512,2.544 0.34,2.466 0.204,2.31 C0.068,2.154 1.42108547e-14,1.988 1.42108547e-14,1.812 C1.42108547e-14,1.54 0.124,1.332 0.372,1.188 L2.184,0.108 C2.32,0.036 2.492,0 2.7,0 C2.908,0 3.078,0.07 3.21,0.21 C3.342,0.35 3.408,0.524 3.408,0.732 L3.408,7.668 C3.408,7.876 3.334,8.05 3.186,8.19 C3.038,8.33 2.848,8.4 2.616,8.4 Z" id="Path"></path>
        </g>
        <g id="Group-2" transform="translate(18.000000, 22.331186)" fill="#000000" fill-rule="nonzero">
            <path d="M24.82,8.556 C24.388,8.556 23.998,8.466 23.65,8.286 C23.302,8.106 23.006,7.86 22.762,7.548 C22.518,7.236 22.33,6.884 22.198,6.492 C22.066,6.1 22,5.696 22,5.28 C22,5.008 22.03,4.68 22.09,4.296 C22.15,3.912 22.256,3.508 22.408,3.084 C22.56,2.66 22.772,2.248 23.044,1.848 C23.316,1.448 23.662,1.088 24.082,0.768 C24.502,0.448 25.016,0.204 25.624,0.036 C25.72,0.012 25.812,0 25.9,0 C26.084,0 26.25,0.048 26.398,0.144 C26.546,0.24 26.62,0.416 26.62,0.672 C26.62,0.848 26.562,1.002 26.446,1.134 C26.33,1.266 26.176,1.36 25.984,1.416 C25.712,1.496 25.442,1.614 25.174,1.77 C24.906,1.926 24.658,2.116 24.43,2.34 C24.202,2.564 24.006,2.818 23.842,3.102 C23.678,3.386 23.56,3.692 23.488,4.02 L23.164,4.008 C23.276,3.872 23.414,3.726 23.578,3.57 C23.742,3.414 23.942,3.278 24.178,3.162 C24.414,3.046 24.692,2.988 25.012,2.988 C25.324,2.988 25.634,3.06 25.942,3.204 C26.25,3.348 26.53,3.546 26.782,3.798 C27.034,4.05 27.236,4.346 27.388,4.686 C27.54,5.026 27.616,5.388 27.616,5.772 C27.616,6.284 27.49,6.752 27.238,7.176 C26.986,7.6 26.65,7.936 26.23,8.184 C25.81,8.432 25.34,8.556 24.82,8.556 Z M24.82,7.236 C25.076,7.236 25.306,7.172 25.51,7.044 C25.714,6.916 25.876,6.74 25.996,6.516 C26.116,6.292 26.176,6.044 26.176,5.772 C26.176,5.492 26.116,5.242 25.996,5.022 C25.876,4.802 25.714,4.628 25.51,4.5 C25.306,4.372 25.076,4.308 24.82,4.308 C24.564,4.308 24.334,4.372 24.13,4.5 C23.926,4.628 23.764,4.802 23.644,5.022 C23.524,5.242 23.464,5.492 23.464,5.772 C23.464,6.044 23.524,6.292 23.644,6.516 C23.764,6.74 23.926,6.916 24.13,7.044 C24.334,7.172 24.564,7.236 24.82,7.236 Z" id="Shape"></path>
            <path d="M13.322,8.538 C13.026,8.538 12.71,8.492 12.374,8.4 C12.038,8.308 11.762,8.174 11.546,7.998 C11.442,7.91 11.36,7.796 11.3,7.656 C11.24,7.516 11.21,7.382 11.21,7.254 C11.21,7.118 11.268,6.99 11.384,6.87 C11.5,6.75 11.666,6.69 11.882,6.69 C12.026,6.69 12.206,6.766 12.422,6.918 C12.55,6.998 12.69,7.07 12.842,7.134 C12.994,7.198 13.15,7.23 13.31,7.23 C13.646,7.23 13.956,7.154 14.24,7.002 C14.524,6.85 14.752,6.646 14.924,6.39 C15.096,6.134 15.182,5.858 15.182,5.562 C15.182,5.258 15.112,4.998 14.972,4.782 C14.832,4.566 14.648,4.398 14.42,4.278 C14.192,4.158 13.946,4.098 13.682,4.098 C13.434,4.098 13.218,4.138 13.034,4.218 C12.85,4.298 12.682,4.38 12.53,4.464 C12.378,4.548 12.226,4.59 12.074,4.59 C11.81,4.59 11.614,4.532 11.486,4.416 C11.358,4.3 11.278,4.162 11.246,4.002 C11.214,3.842 11.206,3.698 11.222,3.57 L11.594,0.594 C11.626,0.426 11.708,0.288 11.84,0.18 C11.972,0.072 12.13,0.018 12.314,0.018 L15.782,0.018 C15.974,0.018 16.134,0.082 16.262,0.21 C16.39,0.338 16.454,0.498 16.454,0.69 C16.454,0.874 16.39,1.028 16.262,1.152 C16.134,1.276 15.974,1.338 15.782,1.338 L12.686,1.338 L12.818,1.23 L12.494,3.726 L12.338,3.27 C12.386,3.19 12.49,3.114 12.65,3.042 C12.81,2.97 12.994,2.908 13.202,2.856 C13.41,2.804 13.614,2.778 13.814,2.778 C14.35,2.778 14.83,2.9 15.254,3.144 C15.678,3.388 16.012,3.72 16.256,4.14 C16.5,4.56 16.622,5.034 16.622,5.562 C16.622,5.978 16.534,6.366 16.358,6.726 C16.182,7.086 15.94,7.402 15.632,7.674 C15.324,7.946 14.972,8.158 14.576,8.31 C14.18,8.462 13.762,8.538 13.322,8.538 Z" id="Path"></path>
            <path d="M4.548,8.478 C4.348,8.478 4.18,8.408 4.044,8.268 C3.908,8.128 3.84,7.954 3.84,7.746 L3.84,2.106 L4.092,2.166 L1.776,5.034 L1.716,4.878 L5.784,4.878 C5.976,4.878 6.136,4.942 6.264,5.07 C6.392,5.198 6.456,5.358 6.456,5.55 C6.456,5.734 6.392,5.888 6.264,6.012 C6.136,6.136 5.976,6.198 5.784,6.198 L0.72,6.198 C0.552,6.198 0.39,6.13 0.234,5.994 C0.078,5.858 1.42108547e-14,5.69 1.42108547e-14,5.49 C1.42108547e-14,5.314 0.06,5.154 0.18,5.01 L3.972,0.366 C4.036,0.278 4.12,0.208 4.224,0.156 C4.328,0.104 4.444,0.078 4.572,0.078 C4.78,0.078 4.95,0.148 5.082,0.288 C5.214,0.428 5.28,0.602 5.28,0.81 L5.28,7.746 C5.28,7.954 5.21,8.128 5.07,8.268 C4.93,8.408 4.756,8.478 4.548,8.478 Z" id="Path"></path>
        </g>
        <g id="Group" transform="translate(18.000000, 33.698372)" fill="#000000" fill-rule="nonzero">
            <path d="M24.796,0 C25.228,0 25.618,0.09 25.966,0.27 C26.314,0.45 26.61,0.696 26.854,1.008 C27.098,1.32 27.286,1.67 27.418,2.058 C27.55,2.446 27.616,2.852 27.616,3.276 C27.616,3.548 27.586,3.876 27.526,4.26 C27.466,4.644 27.36,5.048 27.208,5.472 C27.056,5.896 26.844,6.308 26.572,6.708 C26.3,7.108 25.954,7.468 25.534,7.788 C25.114,8.108 24.6,8.352 23.992,8.52 C23.896,8.544 23.804,8.556 23.716,8.556 C23.532,8.556 23.366,8.506 23.218,8.406 C23.07,8.306 22.996,8.132 22.996,7.884 C22.996,7.7 23.054,7.544 23.17,7.416 C23.286,7.288 23.44,7.196 23.632,7.14 C24,7.028 24.358,6.852 24.706,6.612 C25.054,6.372 25.356,6.076 25.612,5.724 C25.868,5.372 26.04,4.976 26.128,4.536 L26.452,4.548 C26.348,4.676 26.214,4.82 26.05,4.98 C25.886,5.14 25.686,5.278 25.45,5.394 C25.214,5.51 24.932,5.568 24.604,5.568 C24.292,5.568 23.982,5.496 23.674,5.352 C23.366,5.208 23.086,5.01 22.834,4.758 C22.582,4.506 22.38,4.21 22.228,3.87 C22.076,3.53 22,3.168 22,2.784 C22,2.264 22.126,1.794 22.378,1.374 C22.63,0.954 22.968,0.62 23.392,0.372 C23.816,0.124 24.284,0 24.796,0 Z M24.796,1.32 C24.548,1.32 24.32,1.384 24.112,1.512 C23.904,1.64 23.74,1.814 23.62,2.034 C23.5,2.254 23.44,2.504 23.44,2.784 C23.44,3.056 23.5,3.304 23.62,3.528 C23.74,3.752 23.904,3.928 24.112,4.056 C24.32,4.184 24.548,4.248 24.796,4.248 C25.052,4.248 25.282,4.184 25.486,4.056 C25.69,3.928 25.852,3.752 25.972,3.528 C26.092,3.304 26.152,3.056 26.152,2.784 C26.152,2.504 26.092,2.254 25.972,2.034 C25.852,1.814 25.69,1.64 25.486,1.512 C25.282,1.384 25.052,1.32 24.796,1.32 Z" id="Shape"></path>
            <path d="M1.74,8.508 C1.54,8.508 1.366,8.442 1.218,8.31 C1.07,8.178 0.996,8.012 0.996,7.812 C0.996,7.7 1.02,7.592 1.068,7.488 L4.008,1.044 L4.14,1.368 L0.672,1.368 C0.48,1.368 0.32,1.304 0.192,1.176 C0.064,1.048 0,0.888 0,0.696 C0,0.512 0.064,0.358 0.192,0.234 C0.32,0.11 0.48,0.048 0.672,0.048 L4.848,0.048 C5.056,0.048 5.238,0.114 5.394,0.246 C5.55,0.378 5.628,0.548 5.628,0.756 C5.628,0.86 5.604,0.968 5.556,1.08 L2.4,8.052 C2.344,8.196 2.254,8.308 2.13,8.388 C2.006,8.468 1.876,8.508 1.74,8.508 Z" id="Path"></path>
            <path d="M15.158,4.218 L15.134,3.942 C15.438,4.078 15.702,4.254 15.926,4.47 C16.15,4.686 16.322,4.922 16.442,5.178 C16.562,5.434 16.622,5.698 16.622,5.97 C16.622,6.426 16.496,6.844 16.244,7.224 C15.992,7.604 15.654,7.908 15.23,8.136 C14.806,8.364 14.334,8.478 13.814,8.478 C13.294,8.478 12.822,8.364 12.398,8.136 C11.974,7.908 11.636,7.604 11.384,7.224 C11.132,6.844 11.006,6.426 11.006,5.97 C11.006,5.602 11.084,5.284 11.24,5.016 C11.396,4.748 11.592,4.522 11.828,4.338 C12.064,4.154 12.298,4.002 12.53,3.882 L12.434,4.218 C12.234,4.138 12.04,4.024 11.852,3.876 C11.664,3.728 11.51,3.538 11.39,3.306 C11.27,3.074 11.21,2.802 11.21,2.49 C11.21,2.042 11.326,1.636 11.558,1.272 C11.79,0.908 12.104,0.618 12.5,0.402 C12.896,0.186 13.334,0.078 13.814,0.078 C14.302,0.078 14.74,0.186 15.128,0.402 C15.516,0.618 15.826,0.908 16.058,1.272 C16.29,1.636 16.406,2.042 16.406,2.49 C16.406,2.834 16.338,3.122 16.202,3.354 C16.066,3.586 15.902,3.77 15.71,3.906 C15.518,4.042 15.334,4.146 15.158,4.218 Z M12.65,2.514 C12.65,2.73 12.7,2.922 12.8,3.09 C12.9,3.258 13.038,3.392 13.214,3.492 C13.39,3.592 13.59,3.642 13.814,3.642 C14.038,3.642 14.236,3.592 14.408,3.492 C14.58,3.392 14.716,3.258 14.816,3.09 C14.916,2.922 14.966,2.73 14.966,2.514 C14.966,2.194 14.856,1.928 14.636,1.716 C14.416,1.504 14.142,1.398 13.814,1.398 C13.478,1.398 13.2,1.504 12.98,1.716 C12.76,1.928 12.65,2.194 12.65,2.514 Z M13.814,7.158 C14.198,7.158 14.522,7.04 14.786,6.804 C15.05,6.568 15.182,6.282 15.182,5.946 C15.182,5.714 15.122,5.506 15.002,5.322 C14.882,5.138 14.718,4.992 14.51,4.884 C14.302,4.776 14.07,4.722 13.814,4.722 C13.558,4.722 13.326,4.776 13.118,4.884 C12.91,4.992 12.746,5.138 12.626,5.322 C12.506,5.506 12.446,5.714 12.446,5.946 C12.446,6.282 12.578,6.568 12.842,6.804 C13.106,7.04 13.43,7.158 13.814,7.158 Z" id="Shape"></path>
        </g>
        <path d="M31.994,53.7055574 C31.306,53.7055574 30.724,53.5235574 30.248,53.1595574 C29.772,52.7955574 29.41,52.2875574 29.162,51.6355574 C28.914,50.9835574 28.79,50.2335574 28.79,49.3855574 C28.79,48.5295574 28.914,47.7775574 29.162,47.1295574 C29.41,46.4815574 29.772,45.9755574 30.248,45.6115574 C30.724,45.2475574 31.306,45.0655574 31.994,45.0655574 C32.682,45.0655574 33.264,45.2475574 33.74,45.6115574 C34.216,45.9755574 34.578,46.4815574 34.826,47.1295574 C35.074,47.7775574 35.198,48.5295574 35.198,49.3855574 C35.198,50.2335574 35.074,50.9835574 34.826,51.6355574 C34.578,52.2875574 34.216,52.7955574 33.74,53.1595574 C33.264,53.5235574 32.682,53.7055574 31.994,53.7055574 Z M31.994,52.2655574 C32.33,52.2655574 32.62,52.1595574 32.864,51.9475574 C33.108,51.7355574 33.298,51.4155574 33.434,50.9875574 C33.57,50.5595574 33.638,50.0255574 33.638,49.3855574 C33.638,48.7375574 33.57,48.2015574 33.434,47.7775574 C33.298,47.3535574 33.108,47.0355574 32.864,46.8235574 C32.62,46.6115574 32.33,46.5055574 31.994,46.5055574 C31.666,46.5055574 31.378,46.6115574 31.13,46.8235574 C30.882,47.0355574 30.69,47.3535574 30.554,47.7775574 C30.418,48.2015574 30.35,48.7375574 30.35,49.3855574 C30.35,50.0255574 30.418,50.5595574 30.554,50.9875574 C30.69,51.4155574 30.882,51.7355574 31.13,51.9475574 C31.378,52.1595574 31.666,52.2655574 31.994,52.2655574 Z" id="Shape" fill="#000000" fill-rule="nonzero"></path>
    </g>
</svg>