<?xml version="1.0" encoding="UTF-8"?>
<svg width="64px" height="64px" viewBox="0 0 64 64" version="1.1" xmlns="http://www.w3.org/2000/svg" xmlns:xlink="http://www.w3.org/1999/xlink">
    <title>note_sales</title>
    <g id="note_sales" stroke="none" stroke-width="1" fill="none" fill-rule="evenodd">
        <g id="sales" transform="translate(3.999981, 5.192528)" fill="#000000">
            <path d="M49.4934607,0.713051688 L55.0792471,0.713051688 C55.6315319,0.713051688 56.0792471,1.16076694 56.0792471,1.71305169 L56.0792471,7.29883813 C56.0792471,7.85112288 55.6315319,8.29883813 55.0792471,8.29883813 C54.8140306,8.29883813 54.5596767,8.19348129 54.3721403,8.00594491 L48.7863539,2.42015847 C48.3958296,2.02963418 48.3958296,1.3964692 48.7863539,1.00594491 C48.9738903,0.818408528 49.2282442,0.713051688 49.4934607,0.713051688 Z" id="Path-60" transform="translate(51.579247, 5.213052) rotate(-10.000000) translate(-51.579247, -5.213052) "></path>
            <rect id="Rectangle" x="1.91387201e-05" y="48.8074719" width="56" height="4" rx="2"></rect>
            <path d="M9.00001914,34.5693755 L9.00001914,47.8073755 L5.00001914,47.8073755 L5.00001914,38.1483755 L9.00001914,34.5693755 Z M21.4817408,23.4015292 L23.0000191,24.1603755 L23.0000191,47.8073755 L19.0000191,47.8073755 L19.0000191,25.6213755 L21.4817408,23.4015292 Z M37.0017908,29.04232 L37.0000191,47.8073755 L33.0000191,47.8073755 L33.0000191,29.1543755 L33.8446567,29.5761206 L34.0568447,29.6555103 C34.6271597,29.8446962 35.2301689,29.8544234 35.7903555,29.7015014 C36.2334438,29.5805453 36.6497297,29.3579818 37.0017908,29.04232 Z M51.0000191,10.9993755 L51.0000191,47.8073755 L47.0000191,47.8073755 L47.0000191,16.1773755 L51.0000191,10.9993755 Z" id="Combined-Shape"></path>
            <path d="M50.4174491,3.5845769 C51.0928354,2.71054762 52.3488849,2.54951564 53.2229141,3.2249019 C54.053242,3.86651884 54.2400897,5.03218434 53.6776394,5.89651769 L53.5825891,6.0303669 L36.5825891,28.0303669 C36.032583,28.7421395 35.0809499,28.9940511 34.2582147,28.6648842 L34.1055919,28.5963263 L21.3210191,22.2034719 L3.33360886,38.2979545 C2.55376281,38.9957115 1.37792825,38.9693917 0.630074698,38.2647711 L0.509536512,38.1410616 C-0.188220476,37.3612156 -0.161900637,36.185381 0.542719943,35.4375275 L0.66642942,35.3169893 L19.6664294,18.3169893 C20.2369165,17.8065535 21.0443008,17.6694943 21.7458575,17.9517088 L21.8944463,18.0186175 L34.4230191,24.2824719 L50.4174491,3.5845769 Z" id="Path-128"></path>
        </g>
    </g>
</svg>