<?xml version="1.0" encoding="UTF-8"?>
<svg width="64px" height="64px" viewBox="0 0 64 64" version="1.1" xmlns="http://www.w3.org/2000/svg" xmlns:xlink="http://www.w3.org/1999/xlink">
    <title>note_service</title>
    <g id="note_service" stroke="none" stroke-width="1" fill="none" fill-rule="evenodd">
        <g id="work-order" transform="translate(12.000000, 4.000000)" fill="#000000">
            <path d="M34,7 C37.3137085,7 40,9.6862915 40,13 L40,13 L40,50 C40,53.3137085 37.3137085,56 34,56 L34,56 L6,56 C2.6862915,56 0,53.3137085 0,50 L0,50 L0,13 C0,9.6862915 2.6862915,7 6,7 L6,7 L8,7 L8,11 L6,11 C4.9456382,11 4.08183488,11.8158778 4.00548574,12.8507377 L4,13 L4,50 C4,51.1045695 4.8954305,52 6,52 L6,52 L34,52 C35.1045695,52 36,51.1045695 36,50 L36,50 L36,13 C36,11.8954305 35.1045695,11 34,11 L34,11 L32,11 L32,7 Z" id="Rectangle" fill-rule="nonzero"></path>
            <path d="M19.7330372,0.00381300811 C16.9120034,0.0850815523 14.945668,1.46301662 14.2645206,3.90528649 L14.239,4 L13,4 C10.790861,4 9,5.790861 9,8 L9,11 C9,13.209139 10.790861,15 13,15 L27,15 C29.209139,15 31,13.209139 31,11 L31,8 L30.9951047,7.80035966 C30.8910789,5.68396847 29.1421954,4 27,4 L25.76,4 L25.735469,3.90524888 C25.0330253,1.3866802 22.963829,0 20,0 L19.7330372,0.00381300811 Z M20,4 C21.3309483,4 21.7856835,4.31260686 21.9429748,5.25016844 L21.9634841,5.38839093 C22.1585421,6.88235109 23.4314048,7.99986663 24.9380147,8 L27,8 L27,11 L13,11 L13,8 L15.061759,8 C16.5081567,8 17.7391369,6.9701091 18.007958,5.56596746 L18.0364954,5.38854796 C18.1729885,4.34309099 18.6056662,4 20,4 Z" id="Path-2" fill-rule="nonzero"></path>
            <rect id="Rectangle" x="8" y="18" width="24" height="4" rx="2"></rect>
            <rect id="Rectangle-Copy" x="8" y="26" width="24" height="4" rx="2"></rect>
            <rect id="Rectangle-Copy-2" x="8" y="34" width="24" height="4" rx="2"></rect>
            <rect id="Rectangle-Copy-3" x="8" y="42" width="16" height="4" rx="2"></rect>
        </g>
    </g>
</svg>