<?xml version="1.0" encoding="UTF-8"?>
<svg width="64px" height="64px" viewBox="0 0 64 64" version="1.1" xmlns="http://www.w3.org/2000/svg" xmlns:xlink="http://www.w3.org/1999/xlink">
    <title>note_directions</title>
    <g id="note_directions" stroke="none" stroke-width="1" fill="none" fill-rule="evenodd">
        <path d="M36,19.2037682 L36,22 L36,22 C36,22 37,22 30,22 C23.3333333,22 23.015873,28.3492063 23.0007559,28.9538927 L23.0000502,43 C22.9999723,43.5522847 23.447665,44.0000225 23.9999498,44.0000502 C23.9999665,44.0000502 23.9999833,44.0000502 24,44 L26,44 C26.5522847,44 27,43.5522847 27,43 L27,30 L27,30 C27,27.3333333 28.3333333,26 31,26 L36,26 L36,28.7962318 C36,29.3485165 36.4477153,29.7962318 37,29.7962318 C37.2422231,29.7962318 37.4762131,29.7083135 37.6585046,29.5488085 L43.1399123,24.7525767 C43.555549,24.3888946 43.5976665,23.757132 43.2339844,23.3414954 C43.20475,23.3080846 43.1733231,23.2766577 43.1399123,23.2474233 L37.6585046,18.4511915 C37.242868,18.0875095 36.6111054,18.129627 36.2474233,18.5452636 C36.0879182,18.7275551 36,18.9615451 36,19.2037682 Z" id="Rectangle-218-path" fill="#000000" fill-rule="nonzero"></path>
        <path d="M26.4831312,6.28685385 L6.2868538,26.4831312 C3.23628427,29.5337008 3.23914549,34.4691605 6.28685384,37.5168688 L26.4831312,57.7131462 C29.5337008,60.7637157 34.4691604,60.7608545 37.5168688,57.7131462 L57.7131462,37.5168687 C60.7637158,34.4662994 60.7608545,29.5308396 57.7131463,26.4831313 L37.5168688,6.28685378 C34.4662992,3.23628426 29.5308394,3.23914549 26.4831312,6.28685385 Z M34.6884417,9.11528093 L54.8847191,29.3115583 C56.3695044,30.7963437 56.3740145,33.1991463 54.8847191,34.6884416 L34.6884417,54.884719 C33.2036563,56.3695044 30.8008538,56.3740145 29.3115583,54.884719 L9.11528092,34.6884416 C7.6304956,33.2036563 7.6259855,30.8008538 9.11528092,29.3115583 L29.3115583,9.11528093 C30.7963436,7.6304956 33.1991462,7.62598549 34.6884417,9.11528093 Z" id="Rectangle-218-path" fill="#000000" fill-rule="nonzero"></path>
    </g>
</svg>