<?xml version="1.0" encoding="UTF-8"?>
<svg width="64px" height="64px" viewBox="0 0 64 64" version="1.1" xmlns="http://www.w3.org/2000/svg" xmlns:xlink="http://www.w3.org/1999/xlink">
    <title>note_preservice</title>
    <g id="note_preservice" stroke="none" stroke-width="1" fill="none" fill-rule="evenodd">
        <path d="M37.5322411,18.0308229 L37.451591,18.1862316 C37.1094607,18.922358 37.245474,19.8008456 37.8101704,20.4000637 L43.679,26.628 L43.517533,26.9695371 C41.2580242,31.6050169 37.576574,35.720459 32.9799794,39.2675597 C31.1693298,40.664802 29.3407477,41.8747319 27.5857385,42.8924378 L27.2200245,43.1022761 L26.448,43.529 L20.5189894,37.7579808 C19.8737461,37.1299402 18.8883712,37.0105171 18.1117808,37.4662377 L5.94724367,44.6046603 C5.22007908,45.0313767 4.83861221,45.8682838 4.99351931,46.6970534 L6.15234197,52.8968792 C6.17344612,53.0097887 6.20423801,53.1206702 6.24437612,53.228294 C6.35581301,53.5270937 6.56391437,53.9498482 6.89207119,54.4536808 C7.40552154,55.2420021 8.08433277,56.0186568 8.94948515,56.734803 C11.3265111,58.7024313 14.65514,59.8588867 19.0073831,59.8588867 C24.8372205,59.8588867 37.1826189,53.8727944 44.8941623,46.9074524 C47.5524956,44.5063507 50.257799,40.9688604 52.6270637,37.1580397 L53.1890391,36.2386366 C54.114258,34.6990246 54.9808082,33.1267268 55.764177,31.5769789 L56.2240205,30.6502781 C58.4713681,26.0347228 59.9259616,21.7215414 59.9259616,19.202098 C59.9259616,15.0880263 58.8647271,11.8060998 57.0634819,9.31572852 C56.4072979,8.4084995 55.6928503,7.66505201 54.9627981,7.07181255 C54.4854729,6.68393878 54.0755685,6.41760057 53.7713885,6.25704798 C53.6895676,6.21386121 53.6048486,6.17640396 53.5178419,6.14494611 L47.5245942,3.97804682 C46.6123555,3.64822073 45.5949565,4.02055963 45.1111156,4.86131092 L37.5322411,18.0308229 Z M47.742,8.309 L51.991,9.846 L52.1434167,9.94894059 L52.3313722,10.0894368 C52.3660775,10.1164854 52.4024027,10.1453696 52.440243,10.1761186 C52.9065482,10.5550376 53.3782718,11.0459088 53.8223989,11.6599514 C55.1300197,13.467846 55.9259616,15.9293402 55.9259616,19.202098 C55.9259616,20.9133056 54.9277058,23.9687622 53.33624,27.4340759 L52.9431059,28.2731421 L52.5284369,29.1250763 L52.0934772,29.9870081 L51.6394711,30.856067 C51.0991709,31.8730104 50.5225248,32.8986445 49.9184244,33.9124577 L49.3941079,34.778067 C47.1831694,38.3687236 44.6544519,41.7338508 42.213001,43.9390566 C40.8279741,45.1900624 39.2716167,46.410158 37.6291767,47.5630917 L36.8011778,48.1337939 C30.2651767,52.5578235 22.6265996,55.8588867 19.0073831,55.8588867 C15.5708392,55.8588867 13.1470344,55.0167916 11.5000902,53.6535023 C10.956853,53.2038275 10.5439318,52.7313881 10.2438208,52.2706153 L10.0816554,52.0050876 L10.041,51.93 L9.183,47.343 L18.821,41.687 L24.6863093,47.3961526 C25.2817847,47.9757523 26.1736209,48.1267565 26.9267085,47.7754934 L27.2152058,47.6375035 L27.5508298,47.4700833 L27.9316405,47.2732418 L28.5833384,46.9228342 L29.068629,46.6524786 L29.5923167,46.3527332 C31.4923473,45.2509313 33.4660389,43.9449859 35.4236926,42.4343034 C41.0233069,38.1131923 45.434192,32.9724483 47.8944019,26.9811137 L47.9514094,26.8239666 C48.1686403,26.1370446 47.9998534,25.3803442 47.499825,24.8497476 L41.74,18.737 L47.742,8.309 Z" id="Rectangle-219-path" fill="#000000" fill-rule="nonzero" transform="translate(32.442665, 31.858758) scale(-1, 1) translate(-32.442665, -31.858758) "></path>
    </g>
</svg>