<?xml version="1.0" encoding="UTF-8"?>
<svg width="64px" height="64px" viewBox="0 0 64 64" version="1.1" xmlns="http://www.w3.org/2000/svg" xmlns:xlink="http://www.w3.org/1999/xlink">
    <title>note</title>
    <g id="note" stroke="none" stroke-width="1" fill="none" fill-rule="evenodd">
        <g id="pencil" transform="translate(26.443152, 5.000000)" fill="#000000">
            <polygon id="Path-2" points="24.046496 3 29.5568482 8.51035222 9.06720041 29 3.5568482 23.4896478"></polygon>
            <polygon id="Path-2-Copy" points="8 29.8901815 0 32.5568482 2.66666667 24.5568482"></polygon>
            <path d="M25.4431518,1.86023063 L26.8015812,0.501801196 C27.4706495,-0.167267065 28.5554235,-0.167267065 29.2244918,0.501801196 L31.9413506,3.21866006 C32.6104188,3.88772832 32.6104188,4.97250231 31.9413506,5.6415706 L30.5829212,7 L25.4431518,1.86023063 Z" id="Path-3"></path>
        </g>
        <path d="M48,8 L44,12 L13.009,12 L13.0130854,12.2429859 C13.2093773,21.641825 15.6143105,32.7604427 20.2439707,45.5827913 L20.395,46 L53.342,46 L53.2532599,45.6853595 C51.0024595,37.6360814 49.4686579,30.1900323 48.6545325,23.3446811 L52.2989458,19.7011889 C53.01629,27.9300329 54.8874266,37.1758624 57.9180354,47.4333077 C58.2826312,48.6673241 57.4055456,49.9048041 56.1468756,49.9947765 L56,50 L52,50 L52,54 C52,55.0543618 51.1841222,55.9181651 50.1492623,55.9945143 L50,56 L10,56 C8.9456382,56 8.08183488,55.1841222 8.00548574,54.1492623 L8,54 L8,10 C8,8.9456382 8.81587779,8.08183488 9.85073766,8.00548574 L10,8 L48,8 Z M12,32.484 L12,52 L48,52 L48,50 L19,50 C18.2201474,50 17.5170011,49.547518 17.1898061,48.8504964 L17.1255563,48.6974674 C15.0277566,43.0596308 13.335112,37.7196106 12.0488331,32.6761988 L12,32.484 Z" id="Path-7" fill="#000000" fill-rule="nonzero"></path>
    </g>
</svg>