<?xml version="1.0" encoding="UTF-8"?>
<svg width="32px" height="32px" viewBox="0 0 32 32" version="1.1" xmlns="http://www.w3.org/2000/svg" xmlns:xlink="http://www.w3.org/1999/xlink">
    <title>note</title>
    <g id="note" stroke="none" stroke-width="1" fill="none" fill-rule="evenodd">
        <path d="M22.168,3.99921356 L20.194,5.99921356 L6.5045,6 L6.50654271,6.12149293 C6.60468866,10.8209125 7.80715526,16.3802213 10.1219853,22.7913957 L10.1975,23 L26.671,23 L26.6266299,22.8426798 C25.6406962,19.3167985 24.9299127,16.022408 24.4951796,12.9586574 L26.2823542,11.1706218 C26.7121343,14.9466993 27.603678,19.1293504 28.9590177,23.7166539 C29.1413156,24.333662 28.7027728,24.9524021 28.0734378,24.9973883 L28,25 L26,25 L26,27 C26,27.5271809 25.5920611,27.9590826 25.0746312,27.9972571 L25,28 L5,28 C4.4728191,28 4.04091744,27.5920611 4.00274287,27.0746312 L4,27 L4,5 C4,4.4728191 4.4079389,4.04091744 4.92536883,4.00274287 L5,4 L22.168,3.99921356 Z M6,16.242 L6,26 L24,26 L24,25 L9.5,25 C9.11007368,25 8.75850054,24.773759 8.59490305,24.4252482 L8.56277815,24.3487337 C7.51387831,21.5298154 6.66755598,18.8598053 6.02441654,16.3380994 L6,16.242 Z" id="Path-7" fill="#000000" fill-rule="nonzero"></path>
        <path d="M29.8994949,8.89949494 C30.4517797,8.89949494 30.8994949,9.34721019 30.8994949,9.89949494 L30.8994949,9.89949494 L30.8994949,13.8994949 C30.8994949,14.4517797 30.4517797,14.8994949 29.8994949,14.8994949 L29.8994949,14.8994949 L13.8994949,14.8994949 C13.7442498,14.8994949 13.5911368,14.8633498 13.4522813,14.7939221 L13.4522813,14.7939221 L9.45228134,12.7939221 C8.7152328,12.4253979 8.7152328,11.373592 9.45228134,11.0050677 L9.45228134,11.0050677 L13.4522813,9.00506775 C13.5911368,8.93564003 13.7442498,8.89949494 13.8994949,8.89949494 L13.8994949,8.89949494 Z M24.8994949,10.8994949 L14.1344949,10.8994949 L12.1354949,11.8994949 L14.1364949,12.8994949 L24.8994949,12.8994949 L24.8994949,10.8994949 Z M28.8994949,10.8994949 L26.8994949,10.8994949 L26.8994949,12.8994949 L28.8994949,12.8994949 L28.8994949,10.8994949 Z" id="Combined-Shape" fill="#000000" fill-rule="nonzero" transform="translate(19.899495, 11.899495) rotate(-45.000000) translate(-19.899495, -11.899495) "></path>
    </g>
</svg>