<?xml version="1.0" encoding="UTF-8"?>
<svg width="64px" height="64px" viewBox="0 0 64 64" version="1.1" xmlns="http://www.w3.org/2000/svg" xmlns:xlink="http://www.w3.org/1999/xlink">
    <title>notification</title>
    <g id="notification" stroke="none" stroke-width="1" fill="none" fill-rule="evenodd">
        <path d="M32,4 C36.2407638,4 38.9684507,6.58572879 39.8841751,11.1859988 C47.6894639,13.831044 52,20.8692665 52,32 L52,32 L52.0071073,32.8127409 C52.1539659,41.1298711 54.575955,46.9319662 59.2,50.4 C60.7376197,51.5532148 59.9220246,54 58,54 L58,54 L39.8336344,54.0008665 C39.151361,57.8543556 36.3942163,60 32,60 C27.605915,60 24.8488037,57.8544837 24.1664267,54.0012118 L6,54 C4.07797541,54 3.26238033,51.5532148 4.8,50.4 C9.57320777,46.8200942 12,40.7531136 12,32 L12,32 L12.0058471,31.2950338 C12.1850274,20.5714837 16.4767952,13.7744487 24.1152442,11.1859643 C25.0316047,6.58567625 27.7592793,4 32,4 Z M35.7336417,54.0011153 L28.2660909,54.0003226 C28.7449135,55.4203959 29.9025948,56 32,56 C34.0970148,56 35.2546556,55.4206116 35.7336417,54.0011153 Z M49.8600757,44.000699 L14.1397725,44.0011174 C13.3999249,46.0400967 12.4384601,47.8728656 11.2537177,49.4953121 L11.2537177,49.4953121 L10.87,50 L53.128,50 L52.7462823,49.4953121 C51.5614588,47.8727546 50.5999435,46.0398459 49.8600757,44.000699 Z M32,14 C21.5071157,14 16,19.7274003 16,32 L16,32 L15.9918131,32.9037121 C15.9452519,35.4519514 15.7000299,37.8189925 15.2547128,40.0012828 L48.7453472,40.0015769 C48.2979037,37.8089714 48.0524546,35.4298615 48.007545,32.8678503 L48.007545,32.8678503 L47.9947347,31.348796 C47.8017274,19.5246766 42.3055114,14 32,14 Z M32,8 C30.3424222,8 29.2386807,8.6517496 28.561414,10.1986438 C29.6584368,10.0664577 30.8051269,10 32,10 C33.1950626,10 34.341927,10.0664788 35.4391178,10.1988932 C34.7616469,8.65194305 33.6578238,8 32,8 Z" id="Combined-Shape" fill="#000000" fill-rule="nonzero"></path>
    </g>
</svg>