<?xml version="1.0" encoding="UTF-8"?>
<svg width="32px" height="32px" viewBox="0 0 32 32" version="1.1" xmlns="http://www.w3.org/2000/svg" xmlns:xlink="http://www.w3.org/1999/xlink">
    <title>nuke</title>
    <g id="nuke" stroke="none" stroke-width="1" fill="none" fill-rule="evenodd">
        <path d="M16,2 C23.7319865,2 30,8.2680135 30,16 C30,23.7319865 23.7319865,30 16,30 C8.2680135,30 2,23.7319865 2,16 C2,8.2680135 8.2680135,2 16,2 Z M22.4338481,5.86875827 L18.3944272,13.9472136 C18.1254291,14.4852098 17.4457764,14.6657013 16.9452998,14.3320503 C16.6023438,14.1034129 16.292105,14 16,14 C15.707895,14 15.3976562,14.1034129 15.0547002,14.3320503 C14.5542236,14.6657013 13.8745709,14.4852098 13.6055728,13.9472136 L13.6055728,13.9472136 L9.56615194,5.86875827 C6.35325431,7.91337339 4.17865846,11.4443015 4.0104998,15.4934071 L13.02492,14.9529337 C13.6253374,14.9168948 14.1214741,15.4152455 14.0827621,16.0154965 C14.0562344,16.4268238 14.1217955,16.7472049 14.267848,17.0001752 C14.4139005,17.2531456 14.6585781,17.4701138 15.0280619,17.6528037 C15.5672505,17.9194037 15.7507665,18.598246 15.4193472,19.1002032 L15.4193472,19.1002032 L10.4423553,26.6382063 C12.1039323,27.5080354 13.9945139,28 16,28 C18.0054861,28 19.8960677,27.5080354 21.5576447,26.6382063 L16.5806528,19.1002032 C16.2492335,18.598246 16.4327495,17.9194037 16.9719381,17.6528037 C17.3414219,17.4701138 17.5860995,17.2531456 17.732152,17.0001752 C17.8782045,16.7472049 17.9437656,16.4268238 17.9172379,16.0154965 C17.8785259,15.4152455 18.3746626,14.9168948 18.97508,14.9529337 L18.97508,14.9529337 L27.9895002,15.4934071 C27.8213415,11.4443015 25.6467457,7.91337339 22.4338481,5.86875827 Z M19.8389609,17.0090752 L19.8137828,17.1260164 C19.7567208,17.3582276 19.6770999,17.5805726 19.5744907,17.7921797 L19.5744907,17.7921797 L19.4642028,18.0001752 C19.3068928,18.2726442 19.112042,18.5193028 18.881949,18.7399998 L18.881949,18.7399998 L18.7934609,18.8199343 L23.2251476,25.5320277 L23.4697897,25.3428662 C24.5856945,24.4546537 25.4906601,23.4535574 26.189074,22.3382088 L26.189074,22.3382088 L26.392406,22.0001752 C27.1152682,20.7481412 27.5935647,19.3493287 27.8259532,17.7977698 L27.8259532,17.7977698 L27.8676476,17.4909818 L19.8389609,17.0090752 Z M12.1615391,17.0099412 L4.13285235,17.4918478 L4.17404685,17.7977698 C4.38530905,19.2082779 4.79980107,20.4925493 5.41651436,21.6550678 L5.41651436,21.6550678 L5.60759397,22.0001752 C6.33045618,23.2522093 7.30271507,24.3658325 8.53021027,25.3428662 L8.53021027,25.3428662 L8.77535235,25.5328937 L13.2070391,18.8208003 L13.118051,18.7399998 C12.9454812,18.5744771 12.7927352,18.3943509 12.6607827,18.1996852 L12.6607827,18.1996852 L12.5357972,18.0001752 C12.3784872,17.7277063 12.2622999,17.4356313 12.1862172,17.1260164 L12.1862172,17.1260164 L12.1615391,17.0099412 Z M16,4 L15.5701624,4.00755491 C15.5671695,4.00766028 15.564177,4.00776675 15.5611846,4.00787431 C14.2667468,4.05935244 12.9590774,4.34211232 11.6438366,4.85971449 L11.6438366,4.85971449 L11.357,4.977 L14.954,12.171 L15.0681662,12.1343343 C15.297798,12.0676458 15.5301649,12.025427 15.7647266,12.0084857 L15.7647266,12.0084857 L16,12 C16.31462,12 16.625658,12.0454164 16.9318338,12.1343343 L16.9318338,12.1343343 L17.045,12.171 L20.642,4.977 L20.3561634,4.85971449 C19.0289965,4.33741888 17.7095389,4.05424381 16.3944116,4.00707393 L16.3944116,4.00707393 L16,4 L16,4 Z" id="Combined-Shape" fill="#000000" fill-rule="nonzero"></path>
    </g>
</svg>