<?xml version="1.0" encoding="UTF-8"?>
<svg width="64px" height="64px" viewBox="0 0 64 64" version="1.1" xmlns="http://www.w3.org/2000/svg" xmlns:xlink="http://www.w3.org/1999/xlink">
    <title>number</title>
    <g id="number" stroke="none" stroke-width="1" fill="none" fill-rule="evenodd">
        <path d="M42,8 C43.1045695,8 44,8.8954305 44,10 L44,20 L54,20 C55.0543618,20 55.9181651,20.8158778 55.9945143,21.8507377 L56,22 C56,23.0543618 55.1841222,23.9181651 54.1492623,23.9945143 L54,24 L44,24 L44,40 L54,40 C55.0543618,40 55.9181651,40.8158778 55.9945143,41.8507377 L56,42 C56,43.0543618 55.1841222,43.9181651 54.1492623,43.9945143 L54,44 L44,44 L44,54 C44,55.1045695 43.1045695,56 42,56 C40.8954305,56 40,55.1045695 40,54 L40,44 L24,44 L24,54 C24,55.1045695 23.1045695,56 22,56 C20.8954305,56 20,55.1045695 20,54 L20,44 L10,44 C8.9456382,44 8.08183488,43.1841222 8.00548574,42.1492623 L8,42 C8,40.9456382 8.81587779,40.0818349 9.85073766,40.0054857 L10,40 L20,40 L20,24 L10,24 C8.9456382,24 8.08183488,23.1841222 8.00548574,22.1492623 L8,22 C8,20.9456382 8.81587779,20.0818349 9.85073766,20.0054857 L10,20 L20,20 L20,10 C20,8.8954305 20.8954305,8 22,8 C23.1045695,8 24,8.8954305 24,10 L24,20 L40,20 L40,10 C40,8.8954305 40.8954305,8 42,8 Z M40,40 L40,24 L24,24 L24,40 L40,40 Z" id="Combined-Shape" fill="#000000" fill-rule="nonzero"></path>
    </g>
</svg>