<svg xmlns="http://www.w3.org/2000/svg" width="32" height="32" viewBox="0 0 32 32">
  <g fill="none" fill-rule="evenodd">
    <path fill="#000" fill-rule="nonzero" d="M12,6 C15.3137085,6 18,8.6862915 18,12 C18,13.911371 17.1062531,15.6139963 15.713873,16.7127622 C19.355814,18.2799036 21.4548896,22.4170809 21.9965458,28.9169545 C22.0451307,29.4999738 21.5850401,30 21,30 L21,30 L3,30 C2.41495985,30 1.9548693,29.4999738 2.00345424,28.9169545 C2.54516003,22.416485 4.64457086,18.2791451 8.28688642,16.7115003 C6.89390886,15.6143049 6,13.9115442 6,12 C6,8.6862915 8.6862915,6 12,6 Z M12,18 C7.53018476,18 4.91030487,21.1795019 4.11262495,27.9256046 L4.11262495,27.9256046 L4.104,28 L19.895,28 L19.8411846,27.554488 C19.00805,21.185317 16.4847172,18.1167993 12.24642,18.0032736 L12.24642,18.0032736 Z M12,8 C9.790861,8 8,9.790861 8,12 C8,14.209139 9.790861,16 12,16 C14.209139,16 16,14.209139 16,12 C16,9.790861 14.209139,8 12,8 Z"/>
    <path fill="#000" fill-rule="nonzero" d="M20.5658632,2.1754102 L20.6643638,2.25259068 L29.6643638,10.2525907 C30.0771466,10.6195087 30.1143273,11.2515811 29.7474093,11.6643638 C29.4087158,12.0453941 28.8440919,12.1063847 28.4345659,11.8249223 L28.3356362,11.7474093 L26.999665,10.56 L27,20 C27,20.5128358 26.6139598,20.9355072 26.1166211,20.9932723 L26,21 L21.145093,21.0000882 C20.8039727,20.2646948 20.4205021,19.5977465 19.9958671,18.9996621 L25,19 L24.999665,8.783 L20,4.338 L16.9497475,7.05025253 C16.4678199,6.56832492 15.9159479,6.1563416 15.310665,5.83083585 L19.3356362,2.25259068 C19.6829483,1.94386874 20.1916524,1.91814191 20.5658632,2.1754102 Z"/>
  </g>
</svg>
