<?xml version="1.0" encoding="UTF-8"?>
<svg width="64px" height="64px" viewBox="0 0 64 64" version="1.1" xmlns="http://www.w3.org/2000/svg" xmlns:xlink="http://www.w3.org/1999/xlink">
    <title>office_training</title>
    <g id="office_training" stroke="none" stroke-width="1" fill="none" fill-rule="evenodd">
        <path d="M32.6580799,4.11135778 L32.8381164,4.18408123 L58.8381164,16.1840812 C60.3356553,16.875253 60.3855732,18.955777 58.9878702,19.7395723 L58.8381164,19.8159188 L46.6427763,25.4436815 C46.9031039,25.9397496 47.1428416,26.4587153 47.3618447,27.000396 L33.724,27 L53.228,18 L32,8.202 L10.77,18 L30.274,27 L28,27 L27.7946016,27.0069211 C27.0480111,27.0574026 26.3763318,27.3810275 25.8786797,27.8786797 C25.5550133,28.202346 25.3049609,28.5996265 25.155791,29.0432526 L20.9998942,27.124398 C20.1380204,28.6726837 19.5495531,30.5609908 19.2239085,32.802654 L19.1572258,33.2957561 L19.1070171,33.7207498 L19.3375723,33.8330714 C20.7473049,35.4664334 22.6805361,36.519877 25.0004198,37.1495081 L24.9997862,41.4446789 C20.6315834,40.6264668 18.0677829,38.9401542 15.9697865,36.6272158 C15.5091907,36.1194315 14.9532277,35.5094688 15.003134,34.7485012 C15.2442251,31.0723564 16.0352443,27.962784 17.3572237,25.4436815 L10,22.048 L10.0011092,40.5357707 C11.1961002,41.2275472 12,42.5198932 12,44 C12,46.209139 10.209139,48 8,48 C5.790861,48 4,46.209139 4,44 C4,42.519485 4.80434324,41.2268344 5.99987956,40.5351985 L6,20.202 L5.16188365,19.8159188 C3.66434472,19.124747 3.61442676,17.044223 5.01212975,16.2604277 L5.16188365,16.1840812 L31.1618836,4.18408123 C31.6345861,3.96591088 32.1711795,3.94166973 32.6580799,4.11135778 Z" id="Combined-Shape" fill="#000000" fill-rule="nonzero"></path>
        <path d="M58,28 C59.1045695,28 60,28.8954305 60,30 L60,52 C60,53.1045695 59.1045695,54 58,54 L45,54 L45,56 L49,56 C50.1045695,56 51,56.8954305 51,58 C51,59.1045695 50.1045695,60 49,60 L37,60 C35.8954305,60 35,59.1045695 35,58 C35,56.8954305 35.8954305,56 37,56 L41,56 L41,54 L28,54 C26.8954305,54 26,53.1045695 26,52 L26,30 C26,28.8954305 26.8954305,28 28,28 L58,28 Z M56,32 L30,32 L30,50 L56,50 L56,32 Z" id="Rectangle" fill="#000000" fill-rule="nonzero"></path>
    </g>
</svg>