<?xml version="1.0" encoding="UTF-8"?>
<svg width="64px" height="64px" viewBox="0 0 64 64" version="1.1" xmlns="http://www.w3.org/2000/svg" xmlns:xlink="http://www.w3.org/1999/xlink">
    <title>office_government</title>
    <g id="office_government" stroke="none" stroke-width="1" fill="none" fill-rule="evenodd">
        <path d="M32,8 L32,56 L23,56 L23,51 L17,51 L17,56 L8,56 L8,8 L32,8 Z M19,46 L10,46 L10,48 L19,48 L19,46 Z M30,46 L21,46 L21,48 L30,48 L30,46 Z M19,42 L10,42 L10,44 L19,44 L19,42 Z M30,42 L21,42 L21,44 L30,44 L30,42 Z M19,38 L10,38 L10,40 L19,40 L19,38 Z M30,38 L21,38 L21,40 L30,40 L30,38 Z M19,34 L10,34 L10,36 L19,36 L19,34 Z M30,34 L21,34 L21,36 L30,36 L30,34 Z M19,30 L10,30 L10,32 L19,32 L19,30 Z M30,30 L21,30 L21,32 L30,32 L30,30 Z M19,26 L10,26 L10,28 L19,28 L19,26 Z M30,26 L21,26 L21,28 L30,28 L30,26 Z M19,22 L10,22 L10,24 L19,24 L19,22 Z M30,22 L21,22 L21,24 L30,24 L30,22 Z M19,18 L10,18 L10,20 L19,20 L19,18 Z M30,18 L21,18 L21,20 L30,20 L30,18 Z M19,14 L10,14 L10,16 L19,16 L19,14 Z M30,14 L21,14 L21,16 L30,16 L30,14 Z M19,10 L10,10 L10,12 L19,12 L19,10 Z M30,10 L21,10 L21,12 L30,12 L30,10 Z" id="Rectangle-85" fill="#000000" fill-rule="nonzero"></path>
        <path d="M56,40 L56,56 L47,56 L47,51 L41,51 L41,56 L32,56 L32,40 L56,40 Z M43,46 L34,46 L34,48 L43,48 L43,46 Z M54,46 L45,46 L45,48 L54,48 L54,46 Z M43,42 L34,42 L34,44 L43,44 L43,42 Z M54,42 L45,42 L45,44 L54,44 L54,42 Z" id="Rectangle-86" fill="#000000" fill-rule="nonzero"></path>
    </g>
</svg>