<?xml version="1.0" encoding="UTF-8"?>
<svg width="64px" height="64px" viewBox="0 0 64 64" version="1.1" xmlns="http://www.w3.org/2000/svg" xmlns:xlink="http://www.w3.org/1999/xlink">
    <title>offline_mode</title>
    <g id="offline_mode" stroke="none" stroke-width="1" fill="none" fill-rule="evenodd">
        <path d="M31,10 C37.0842824,10 42.4220323,13.1962857 45.4257278,18.0013353 L45.5,18 C53.5081289,18 60,24.7157288 60,33 C60,41.1108771 53.7770414,47.7181854 46.0008047,47.991221 L14,48 L14.000274,47.9551817 C8.39364311,47.4500817 4,42.738136 4,37 C4,31.2530046 8.40722066,26.5353708 14.0262516,26.0425089 C14.522612,17.0995259 21.9322144,10 31,10 Z M31,14 C24.198075,14 18.5737144,19.2402208 18.0410591,25.9533118 L18.0201047,26.2641788 L17.8280528,29.7243993 L14.3757616,30.02721 C10.7836973,30.3422806 8,33.3654481 8,37 C8,40.5477617 10.652619,43.5138566 14.1214266,43.945814 L14.3591794,43.9713159 L14.681,44 L45.661,44 L45.860445,43.9936843 C51.3813003,43.7998386 55.8488599,39.123251 55.996245,33.2972136 L56,33 C56,26.9935591 51.4194886,22.1582209 45.846755,22.0031893 L45.5719019,21.9993537 L43.2339843,22.0413857 L42.0339058,20.1216049 C39.6705274,16.3408787 35.5389441,14 31,14 Z" id="Path" fill="#000000" fill-rule="nonzero"></path>
        <path d="M25.4142136,22.5857864 L32,29.171 L38.5857864,22.5857864 C39.366835,21.8047379 40.633165,21.8047379 41.4142136,22.5857864 C42.1952621,23.366835 42.1952621,24.633165 41.4142136,25.4142136 L34.829,32 L41.4142136,38.5857864 C42.1952621,39.366835 42.1952621,40.633165 41.4142136,41.4142136 C40.633165,42.1952621 39.366835,42.1952621 38.5857864,41.4142136 L32,34.829 L25.4142136,41.4142136 C24.633165,42.1952621 23.366835,42.1952621 22.5857864,41.4142136 C21.8047379,40.633165 21.8047379,39.366835 22.5857864,38.5857864 L29.171,32 L22.5857864,25.4142136 C21.8047379,24.633165 21.8047379,23.366835 22.5857864,22.5857864 C23.366835,21.8047379 24.633165,21.8047379 25.4142136,22.5857864 Z" id="Combined-Shape" fill="#000000" fill-rule="nonzero"></path>
    </g>
</svg>