<?xml version="1.0" encoding="UTF-8"?>
<svg width="64px" height="64px" viewBox="0 0 64 64" version="1.1" xmlns="http://www.w3.org/2000/svg" xmlns:xlink="http://www.w3.org/1999/xlink">
    <title>on_demand_order</title>
    <g id="on_demand_order" stroke="none" stroke-width="1" fill="none" fill-rule="evenodd">
        <path d="M20,11 L20,15 L18,15 C16.9456382,15 16.0818349,15.8158778 16.0054857,16.8507377 L16,17 L16,54 C16,55.1045695 16.8954305,56 18,56 L46,56 C47.1045695,56 48,55.1045695 48,54 L48,17 C48,15.8954305 47.1045695,15 46,15 L44,15 L44,11 L46,11 C49.3137085,11 52,13.6862915 52,17 L52,54 C52,57.3137085 49.3137085,60 46,60 L18,60 C14.6862915,60 12,57.3137085 12,54 L12,17 C12,13.6862915 14.6862915,11 18,11 L20,11 Z M32,4 C34.963829,4 37.0330253,5.3866802 37.735469,7.90524888 L37.76,8 L39,8 C41.1421954,8 42.8910789,9.68396847 42.9951047,11.8003597 L43,12 L43,15 C43,17.209139 41.209139,19 39,19 L25,19 C22.790861,19 21,17.209139 21,15 L21,12 C21,9.790861 22.790861,8 25,8 L26.239,8 L26.2645206,7.90528649 C26.945668,5.46301662 28.9120034,4.08508155 31.7330372,4.00381301 Z M32,8 C30.6056662,8 30.1729885,8.34309099 30.0364954,9.38854796 L30.007958,9.56596746 C29.7391369,10.9701091 28.5081567,12 27.061759,12 L25,12 L25,15 L39,15 L39,12 L36.9380147,12 C35.4314048,11.9998666 34.1585421,10.8823511 33.9634841,9.38839093 L33.9429748,9.25016844 C33.7856835,8.31260686 33.3309483,8 32,8 Z" id="Combined-Shape" fill="#000000" fill-rule="nonzero"></path>
        <path d="M31.8401924,22.4327291 L24.5914428,39.4837652 C24.3753698,39.9920279 24.6122363,40.5792179 25.1204989,40.7952909 C25.2442264,40.84789 25.3772898,40.875 25.5117337,40.875 L30.8309091,40.875 C31.3831938,40.875 31.8309091,41.3227153 31.8309091,41.875 C31.8309091,41.9268911 31.82687,41.9787035 31.8188286,42.0299678 L30.2515971,52.0210683 C30.1660108,52.5666812 30.538936,53.0783693 31.0845489,53.1639556 C31.5373578,53.2349845 31.9804867,52.9890825 32.1598076,52.5672709 L39.4085572,35.5162348 C39.6246302,35.0079721 39.3877637,34.4207821 38.8795011,34.2047091 C38.7557736,34.15211 38.6227102,34.125 38.4882663,34.125 L33.1690909,34.125 C32.6168062,34.125 32.1690909,33.6772847 32.1690909,33.125 C32.1690909,33.0731089 32.17313,33.0212965 32.1811714,32.9700322 L33.7484029,22.9789317 C33.8339892,22.4333188 33.461064,21.9216307 32.9154511,21.8360444 C32.4626422,21.7650155 32.0195133,22.0109175 31.8401924,22.4327291 Z" id="Path-78" fill="#000000"></path>
    </g>
</svg>