<?xml version="1.0" encoding="UTF-8"?>
<svg width="64px" height="64px" viewBox="0 0 64 64" version="1.1" xmlns="http://www.w3.org/2000/svg" xmlns:xlink="http://www.w3.org/1999/xlink">
    <title>on_demand</title>
    <g id="on_demand" stroke="none" stroke-width="1" fill="none" fill-rule="evenodd">
        <path d="M31.8397934,15.9292457 L24.5461061,34.2297702 C24.3416338,34.7428097 24.591777,35.3244679 25.1048165,35.5289402 C25.2226052,35.575885 25.3482473,35.6 25.4750463,35.6 L30.8421859,35.6 C31.3944706,35.6 31.8421859,36.0477153 31.8421859,36.6 C31.8421859,36.6486924 31.8386295,36.6973197 31.831545,36.745494 L30.2419073,47.5550305 C30.1615532,48.1014385 30.5393645,48.6095295 31.0857724,48.6898837 C31.5440899,48.7572833 31.9886988,48.501083 32.1602066,48.0707543 L39.4538939,29.7702298 C39.6583662,29.2571903 39.408223,28.6755321 38.8951835,28.4710598 C38.7773948,28.424115 38.6517527,28.4 38.5249537,28.4 L33.1578141,28.4 C32.6055294,28.4 32.1578141,27.9522847 32.1578141,27.4 C32.1578141,27.3513076 32.1613705,27.3026803 32.168455,27.254506 L33.7580927,16.4449695 C33.8384468,15.8985615 33.4606355,15.3904705 32.9142276,15.3101163 C32.4559101,15.2427167 32.0113012,15.498917 31.8397934,15.9292457 Z" id="Path-78" fill="#000000"></path>
        <path d="M32,4 C16.536027,4 4,16.536027 4,32 C4,47.463973 16.536027,60 32,60 C47.463973,60 60,47.463973 60,32 C60,16.536027 47.463973,4 32,4 Z M32,8 C45.254834,8 56,18.745166 56,32 C56,45.254834 45.254834,56 32,56 C18.745166,56 8,45.254834 8,32 C8,18.745166 18.745166,8 32,8 Z" id="Combined-Shape-path" fill="#000000" fill-rule="nonzero"></path>
    </g>
</svg>