<?xml version="1.0" encoding="UTF-8"?>
<svg width="64px" height="64px" viewBox="0 0 64 64" version="1.1" xmlns="http://www.w3.org/2000/svg" xmlns:xlink="http://www.w3.org/1999/xlink">
    <title>online_mode</title>
    <g id="online_mode" stroke="none" stroke-width="1" fill="none" fill-rule="evenodd">
        <path d="M31,10 C37.0842824,10 42.4220323,13.1962857 45.4257278,18.0013353 L45.5,18 C53.5081289,18 60,24.7157288 60,33 C60,41.1108771 53.7770414,47.7181854 46.0008047,47.991221 L14,48 L14.000274,47.9551817 C8.39364311,47.4500817 4,42.738136 4,37 C4,31.2530046 8.40722066,26.5353708 14.0262516,26.0425089 C14.522612,17.0995259 21.9322144,10 31,10 Z M31,14 C24.198075,14 18.5737144,19.2402208 18.0410591,25.9533118 L18.0201047,26.2641788 L17.8280528,29.7243993 L14.3757616,30.02721 C10.7836973,30.3422806 8,33.3654481 8,37 C8,40.5477617 10.652619,43.5138566 14.1214266,43.945814 L14.3591794,43.9713159 L14.681,44 L45.661,44 L45.860445,43.9936843 C51.3813003,43.7998386 55.8488599,39.123251 55.996245,33.2972136 L56,33 C56,26.9935591 51.4194886,22.1582209 45.846755,22.0031893 L45.5719019,21.9993537 L43.2339843,22.0413857 L42.0339058,20.1216049 C39.6705274,16.3408787 35.5389441,14 31,14 Z" id="Path" fill="#000000" fill-rule="nonzero"></path>
        <path d="M39.2635137,23.0077221 C39.8115337,22.0486872 41.033243,21.7154938 41.9922779,22.2635137 C42.9513128,22.8115337 43.2845062,24.033243 42.7364863,24.9922779 L33.5936291,40.9922779 C32.9665291,42.089703 31.491361,42.3374773 30.5401336,41.5051534 L23.6829908,35.5051534 C22.8517175,34.7777893 22.7674825,33.514264 23.4948466,32.6829908 C24.2222107,31.8517175 25.485736,31.7674825 26.3170092,32.4948466 L31.334,36.884 L39.2635137,23.0077221 Z" id="Path-305" fill="#000000" fill-rule="nonzero"></path>
    </g>
</svg>