<?xml version="1.0" encoding="UTF-8"?>
<svg width="64px" height="64px" viewBox="0 0 64 64" version="1.1" xmlns="http://www.w3.org/2000/svg" xmlns:xlink="http://www.w3.org/1999/xlink">
    <title>openai</title>
    <g id="openai" stroke="none" fill="none" fill-rule="evenodd" stroke-width="1">
        <g id="OpenAI-icon" transform="translate(4, 3.9997)" fill="#000000">
            <path d="M52.3214466,22.9161761 C53.6055988,19.1014919 53.1610753,14.9259678 51.1015789,11.4576428 C48.004928,6.14075319 41.7811445,3.40582455 35.7029072,4.69097612 C32.2775531,0.932507528 27.0802498,-0.738820451 22.0674043,0.306125693 C17.0545589,1.35107184 12.9871073,4.95367215 11.3961497,9.75780946 C7.40349769,10.5654208 3.95742884,13.0313064 1.93975013,16.5244761 C-1.19078031,21.8329054 -0.480329854,28.5291588 3.69657729,33.0832095 C2.40767471,36.8961061 2.84820188,41.0720666 4.90532736,44.5415095 C8.00586154,49.8602987 14.2337673,52.5951167 20.3153532,51.3084095 C23.0203474,54.3131889 26.9065081,56.0228464 30.9802663,56.0004968 C37.2105056,56.0059312 42.7300118,52.0385974 44.6332284,46.1867428 C48.6253259,45.3777398 52.0708963,42.9121259 54.089628,39.4198428 C57.1822372,34.1207615 56.468681,27.4607391 52.3214466,22.9164095 L52.3214466,22.9161761 Z M30.9802663,52.3350892 C28.4934998,52.3389588 26.0847128,51.4791981 24.1762571,49.9065428 L24.5119158,49.7189428 L35.8147935,43.2831428 C36.3871079,42.9520469 36.7401295,42.3479037 36.7437096,41.6934428 L36.7437096,25.9740095 L41.5219389,28.7007428 C41.569844,28.724685 41.6032531,28.7697817 41.6118263,28.8220761 L41.6118263,41.8481428 C41.5993354,47.6348959 36.846695,52.3228836 30.9802663,52.3350892 L30.9802663,52.3350892 Z M8.12826664,42.7091428 C6.88113103,40.5849235 6.43334822,38.0949218 6.86369171,35.6771761 L7.19958703,35.8759761 L18.5135823,42.3117761 C19.0836282,42.6417309 19.7900145,42.6417309 20.3600604,42.3117761 L34.1809702,34.4519428 L34.1809702,39.8942095 C34.1783399,39.9513515 34.1494242,40.0041877 34.102437,40.0377095 L22.6540835,46.5507428 C17.5667856,49.4415981 11.0671571,47.7226605 8.12826664,42.7091428 L8.12826664,42.7091428 Z M5.15157175,18.4233428 C6.40735528,16.2854706 8.38949013,14.6548441 10.7470674,13.8201428 L10.7470674,27.0669428 C10.7384024,27.7187463 11.0899768,28.3235666 11.6646294,28.6454428 L25.4183601,36.4721428 L20.6398943,39.1986428 C20.5873833,39.2261455 20.5244577,39.2261455 20.4719467,39.1986428 L9.04606513,32.6968095 C3.96887929,29.7937805 2.22761094,23.3873448 5.15157175,18.3682761 L5.15157175,18.4233428 Z M44.4094559,27.4202095 L30.611018,19.5162761 L35.3783661,16.8002761 C35.4308772,16.7727734 35.4938027,16.7727734 35.5463138,16.8002761 L46.9721953,23.3133095 C50.538419,25.3431213 52.595838,29.2216254 52.2533349,33.2689493 C51.9108319,37.3162732 49.2299962,40.8046222 45.3719616,42.2231095 L45.3719616,28.9763095 C45.351806,28.3263397 44.985963,27.7349314 44.4092194,27.4199761 L44.4094559,27.4202095 Z M49.1656864,20.3663095 L48.8297911,20.1675095 L37.5382676,13.6766428 C36.9647223,13.3446381 36.2539807,13.3446381 35.6804353,13.6766428 L21.8711163,21.5362428 L21.8711163,16.0942095 C21.8651243,16.0378412 21.890909,15.982763 21.9382953,15.9507095 L33.3641769,9.44864279 C36.9390438,7.41718314 41.3820863,7.60674929 44.7657805,9.93510181 C48.1494748,12.2634543 49.8641476,16.3110713 49.1659229,20.3219761 L49.1656864,20.3663095 Z M19.2631966,30.0139428 L14.4849674,27.2984095 C14.4365728,27.2696663 14.4036364,27.2211892 14.3950799,27.1661095 L14.3950799,14.1734095 C14.4004486,10.1045144 16.7888976,6.40511171 20.5245565,4.6796324 C24.2602154,2.95415309 28.6702404,3.51337989 31.8420034,6.11477612 L31.506108,6.30260946 L20.203467,12.7379428 C19.6311526,13.0690386 19.278131,13.6731819 19.2745508,14.3276428 L19.2631966,30.0139428 Z M21.8595255,24.4946761 L28.0144525,20.9951428 L34.1809702,24.4946761 L34.1809702,31.4932761 L28.0369244,34.9925761 L21.8708797,31.4932761 L21.8595255,24.4946761 Z" id="Shape" fill-rule="nonzero"></path>
        </g>
    </g>
</svg>