<?xml version="1.0" encoding="UTF-8"?>
<svg width="64px" height="64px" viewBox="0 0 64 64" version="1.1" xmlns="http://www.w3.org/2000/svg" xmlns:xlink="http://www.w3.org/1999/xlink">
    <title>open_invoice</title>
    <g id="open_invoice" stroke="none" stroke-width="1" fill="none" fill-rule="evenodd">
        <path d="M60,20 C60,21.1045695 59.1045695,22 58,22 C56.9743283,22 56.1289857,21.2279196 56.0134555,20.2332423 L56,20 L56,10.83 L31.4142136,35.4142136 C30.633165,36.1952621 29.366835,36.1952621 28.5857864,35.4142136 C27.8648185,34.6932456 27.8093594,33.5587835 28.4194092,32.7742011 L28.5857864,32.5857864 L53.17,8 L44,8 C42.9743283,8 42.1289857,7.22791962 42.0134555,6.23324225 L42,6 C42,4.97432832 42.7720804,4.12898568 43.7667577,4.01345546 L44,4 L58,4 L58.1504771,4.00557573 L58.4014515,4.04048014 L58.624285,4.09947617 L58.8464431,4.18734672 L59.0414175,4.29199091 L59.2340447,4.42585538 L59.4142816,4.58582187 C59.4850017,4.65657454 59.5493741,4.73134884 59.6073308,4.80938677 L59.7506577,5.03187581 L59.857549,5.25732795 L59.9283097,5.46801407 L59.9865445,5.76675775 L60,6 L60,20 Z" id="Path" fill="#000000" fill-rule="nonzero"></path>
        <path d="M36,4 C36.2652165,4 36.5195704,4.10535684 36.7071068,4.29289322 L36.7071068,4.29289322 L46.088,13.673 L41.765,18 L36,18 C34.8954305,18 34,17.1045695 34,16 L33.999,8 L12,8 L12,56 L44,56 L44,24.243 L48,20.243 L48,59 C48,59.5128358 47.6139598,59.9355072 47.1166211,59.9932723 L47,60 L9,60 C8.44771525,60 8,59.5522847 8,59 L8,59 L8,5 C8,4.44771525 8.44771525,4 9,4 L9,4 Z M28,31.777 L27.6725053,32.1069293 L27.5335066,32.2916262 C27.1405824,32.8578606 26.9643469,33.5290978 27.0059637,34.1894586 C27.0502939,34.8928744 27.3410967,35.5837374 27.8786797,36.1213203 C28.4644661,36.7071068 29.232233,37 30.0000001,37 C30.767767,37 31.5355339,36.7071068 32.1213203,36.1213203 L32.1213203,36.1213203 L32.717,35.525 L32.828,35.616 C33.2404444,35.9431111 33.4695802,36.3144691 33.5154074,36.7300741 L33.524,36.888 C33.524,37.24 33.388,37.56 33.116,37.848 C32.844,38.136 32.524,38.28 32.156,38.28 C31.916,38.28 31.7,38.208 31.508,38.064 C31.252,37.84 30.908,37.628 30.476,37.428 L30.476,37.428 L30.1475,37.284 C30.0365,37.238 29.924,37.194 29.81,37.152 L29.81,37.152 L29.468,37.034 L29.468,41.471 L29.6560816,41.5170612 C30.0106939,41.6081633 30.344,41.7051429 30.656,41.808 C31.384,42.048 31.988,42.356 32.468,42.732 C32.948,43.108 33.308,43.58 33.548,44.148 C33.788,44.716 33.908,45.408 33.908,46.224 C33.908,47.264 33.62,48.16 33.044,48.912 C32.468,49.664 31.712,50.24 30.776,50.64 L30.776,50.64 L30.4611852,50.7659259 C30.1435556,50.8844444 29.8174815,50.9807407 29.482963,51.0548148 L29.482963,51.0548148 L29.468,51.058 L29.468,52.536 L29.4614375,52.6888125 C29.4308125,53.0379375 29.293,53.335 29.048,53.58 C28.768,53.86 28.42,54 28.004,54 C27.604,54 27.268,53.86 26.996,53.58 L26.996,53.58 L26.900375,53.4718125 C26.692125,53.2119375 26.588,52.9 26.588,52.536 L26.588,52.536 L26.587,51.186 L26.52725,51.1809375 C25.87975,51.1153125 25.276,50.995 24.716,50.82 C23.82,50.54 22.964,50.048 22.148,49.344 C21.94,49.168 21.78,48.968 21.668,48.744 C21.556,48.52 21.5,48.296 21.5,48.072 C21.5,47.704 21.632,47.38 21.896,47.1 C22.16,46.82 22.492,46.68 22.892,46.68 C23.196,46.68 23.468,46.776 23.708,46.968 C24.316,47.464 24.92,47.84 25.52,48.096 L25.52,48.096 L25.7515625,48.186 C25.9896875,48.27 26.2475,48.336 26.525,48.384 L26.525,48.384 L26.587,48.393 L26.587,43.704 L26.304898,43.6496327 C25.7302041,43.530449 25.2085714,43.3765714 24.74,43.188 C24.084,42.924 23.536,42.588 23.096,42.18 C22.656,41.772 22.324,41.292 22.1,40.74 C21.876,40.188 21.764,39.568 21.764,38.88 C21.764,37.84 22.032,36.952 22.568,36.216 C23.104,35.48 23.828,34.92 24.74,34.536 L24.74,34.536 L25.0475556,34.4151111 C25.4623704,34.2634074 25.8961481,34.1496296 26.3488889,34.0737778 L26.3488889,34.0737778 L26.587,34.039 L26.588,33.24 L26.5945625,33.0871875 C26.6251875,32.7380625 26.763,32.441 27.008,32.196 C27.288,31.916 27.636,31.776 28.052,31.776 L28,31.777 Z M29.468,44.397 L29.468,48.165 L29.5786939,48.1212245 C29.9133878,47.9767347 30.199102,47.7995918 30.4358367,47.5897959 L30.572,47.46 C30.876,47.148 31.028,46.792 31.028,46.392 C31.028,45.912 30.884,45.504 30.596,45.168 L30.596,45.168 L30.480875,45.0444375 C30.236375,44.8021875 29.906375,44.5891875 29.490875,44.4054375 L29.490875,44.4054375 L29.468,44.397 Z M26.587,36.828 L26.4550204,36.8546939 C26.3025306,36.8906122 26.1588571,36.9337143 26.024,36.984 C25.552,37.16 25.196,37.4 24.956,37.704 C24.716,38.008 24.596,38.36 24.596,38.76 C24.596,39.24 24.736,39.636 25.016,39.948 C25.296,40.26 25.7,40.508 26.228,40.692 L26.228,40.692 L26.5006667,40.7823333 L26.587,40.809 L26.587,36.828 Z M30.5,26 C31.3284271,26 32,26.6715729 32,27.5 C32,27.605345 31.9891404,27.7081536 31.9684797,27.8073674 L30.8093916,28.9680567 C30.7095522,28.9889922 30.6060616,29 30.5,29 L15.5,29 C14.6715729,29 14,28.3284271 14,27.5 C14,26.6715729 14.6715729,26 15.5,26 L30.5,26 Z M30.5,20 C31.3284271,20 32,20.6715729 32,21.5 C32,22.3284271 31.3284271,23 30.5,23 L15.5,23 C14.6715729,23 14,22.3284271 14,21.5 C14,20.6715729 14.6715729,20 15.5,20 L30.5,20 Z M39.766,20 L36.769,23 L35.5,23 C34.6715729,23 34,22.3284271 34,21.5 C34,20.6715729 34.6715729,20 35.5,20 L39.766,20 Z M22,12 C23.1045695,12 24,12.8954305 24,14 C24,15.1045695 23.1045695,16 22,16 L16,16 C14.8954305,16 14,15.1045695 14,14 C14,12.8954305 14.8954305,12 16,12 L22,12 Z M36.999,9.999 L37,15 L42,15 L36.999,9.999 Z" id="invoice" fill="#000000" fill-rule="nonzero"></path>
    </g>
</svg>