<?xml version="1.0" encoding="UTF-8"?>
<svg width="64px" height="64px" viewBox="0 0 64 64" version="1.1" xmlns="http://www.w3.org/2000/svg" xmlns:xlink="http://www.w3.org/1999/xlink">
    <title>operations</title>
    <g id="operations" stroke="none" stroke-width="1" fill="none" fill-rule="evenodd">
        <path d="M44,25 C45.1045695,25 46,25.8954305 46,27 L45.9999985,27.0130594 C52.0665906,29.6495805 56.164552,35.6301811 58.2250657,44.7853742 L58.2965714,45.1095 L59.5397392,46.3531179 C59.8016948,46.6150735 59.9616144,46.9599912 59.9939181,47.3261156 L60,47.4642857 L60,50.6071429 C60,51.3010986 59.5448072,51.9128917 58.8801181,52.1122984 C53.4771676,53.7331836 46.5219017,54.5357143 38,54.5357143 C29.4780983,54.5357143 22.5228324,53.7331836 17.1198819,52.1122984 C16.4551928,51.9128917 16,51.3010986 16,50.6071429 L16,47.4642857 C16,47.0475169 16.1655607,46.6478179 16.4602608,46.3531179 L17.7026429,45.1095 L17.8657618,44.3895101 C19.954673,35.4572436 24.0216269,29.610903 30.0007457,27.0127359 C30.000012,27.0080843 30,27.0040436 30,27 C30,25.8954305 30.8954305,25 32,25 L44,25 Z M36.1423997,29.55125 C35.4533902,29.6178525 34.7863798,29.7228774 34.1417941,29.8668347 L34.1428571,32.8928571 C34.1428571,33.9974266 33.2474266,34.8928571 32.1428571,34.8928571 C31.0382876,34.8928571 30.1428571,33.9974266 30.1428571,32.8928571 L30.1423186,31.4320418 C29.30149,31.9309787 28.5169939,32.5264775 27.7904214,33.220445 C24.9459136,35.9373054 22.9977963,40.0174875 21.7637656,45.287155 L21.3486201,47.1195645 L20,48.7553306 C24.8332589,49.9623848 30.8330225,50.5357143 38,50.5357143 C45.1652783,50.5357143 51.1638961,49.9626567 55.9958132,48.3521704 L54.5227364,46.5955314 C53.313701,40.6865585 51.2875947,36.1530039 48.1672787,33.2191794 C47.5362669,32.6258812 46.8611514,32.1051263 46.1426713,31.6553649 L46.1428571,32.8928571 C46.1428571,33.9974266 45.2474266,34.8928571 44.1428571,34.8928571 C43.0382876,34.8928571 42.1428571,33.9974266 42.1428571,32.8928571 L42.1428208,29.9785817 C41.4996008,29.8184065 40.8329607,29.6962541 40.1432069,29.611482 L40.1428571,34.4642857 C40.1428571,35.5688552 39.2474266,36.4642857 38.1428571,36.4642857 C37.0382876,36.4642857 36.1428571,35.5688552 36.1428571,34.4642857 Z M48.9979066,44 C50.1024761,44 50.9979066,44.8954305 50.9979066,46 C50.9979066,47.1045695 50.1024761,48 48.9979066,48 L26.9979066,48 C25.8933371,48 24.9979066,47.1045695 24.9979066,46 C24.9979066,44.8954305 25.8933371,44 26.9979066,44 L48.9979066,44 Z" id="Path-162" fill="#000000" fill-rule="nonzero"></path>
        <path d="M16,11 L16,15 L14,15 C12.9456382,15 12.0818349,15.8158778 12.0054857,16.8507377 L12,17 L12,54 C12,55.1045695 12.8954305,56 14,56 L42,56 C42.5498236,56 43.0478274,55.7781331 43.4093667,55.4190439 C44.9659566,55.3491532 46.4618259,55.2476336 47.896995,55.1146043 C47.3743145,57.8956336 44.9329078,60 42,60 L14,60 C10.6862915,60 8,57.3137085 8,54 L8,17 C8,13.6862915 10.6862915,11 14,11 L16,11 Z M23.9352938,29.9998227 C22.8023993,31.1474148 21.775124,32.475306 20.852406,33.9995629 L18,34 C16.8954305,34 16,33.1045695 16,32 C16,30.8954305 16.8954305,30 18,30 Z M42,11 C45.3137085,11 48,13.6862915 48,17 L48.0011488,26.9395861 C47.6540494,26.7457355 47.2998599,26.5631228 46.9385536,26.3918037 C46.8181582,25.8077085 46.527787,25.2851463 46.1213203,24.8786797 C45.5784271,24.3357864 44.8284271,24 44,24 L44,17 C44,15.8954305 43.1045695,15 42,15 L40,15 L40,11 L42,11 Z M38,22 C39.1045695,22 40,22.8954305 40,24 L32,24 C31.1715729,24 30.4215729,24.3357864 29.8786797,24.8786797 C29.565472,25.1918873 29.3211979,25.5740284 29.1705667,26.0003935 L18,26 C16.8954305,26 16,25.1045695 16,24 C16,22.8954305 16.8954305,22 18,22 L38,22 Z M28,4 C30.963829,4 33.0330253,5.3866802 33.735469,7.90524888 L33.76,8 L35,8 C37.1421954,8 38.8910789,9.68396847 38.9951047,11.8003597 L39,12 L39,15 C39,17.209139 37.209139,19 35,19 L21,19 C18.790861,19 17,17.209139 17,15 L17,12 C17,9.790861 18.790861,8 21,8 L22.239,8 L22.2645206,7.90528649 C22.945668,5.46301662 24.9120034,4.08508155 27.7330372,4.00381301 Z M28,8 C26.6056662,8 26.1729885,8.34309099 26.0364954,9.38854796 L26.007958,9.56596746 C25.7391369,10.9701091 24.5081567,12 23.061759,12 L21,12 L21,15 L35,15 L35,12 L32.9380147,12 C31.4314048,11.9998666 30.1585421,10.8823511 29.9634841,9.38839093 L29.9429748,9.25016844 C29.7856835,8.31260686 29.3309483,8 28,8 Z" id="Combined-Shape" fill="#000000" fill-rule="nonzero"></path>
    </g>
</svg>