<?xml version="1.0" encoding="UTF-8"?>
<svg width="64px" height="64px" viewBox="0 0 64 64" version="1.1" xmlns="http://www.w3.org/2000/svg" xmlns:xlink="http://www.w3.org/1999/xlink">
    <title>options</title>
    <g id="options" stroke="none" stroke-width="1" fill="none" fill-rule="evenodd">
        <path d="M18,8 C20.6125579,8 22.8351204,9.66976896 23.6587023,12.0003218 L58,12 C59.1045695,12 60,12.8954305 60,14 C60,15.1045695 59.1045695,16 58,16 L23.6583461,16.0006859 C22.8344797,18.3307123 20.6121813,20 18,20 C15.3878187,20 13.1655203,18.3307123 12.3416539,16.0006859 L6,16 C4.8954305,16 4,15.1045695 4,14 C4,12.8954305 4.8954305,12 6,12 L12.3412977,12.0003218 C13.1648796,9.66976896 15.3874421,8 18,8 Z" id="Rectangle-2" fill="#000000"></path>
        <path d="M46,26 C48.6125579,26 50.8351204,27.669769 51.6587023,30.0003218 L58,30 C59.1045695,30 60,30.8954305 60,32 C60,33.1045695 59.1045695,34 58,34 L51.6583461,34.0006859 C50.8344797,36.3307123 48.6121813,38 46,38 C43.3878187,38 41.1655203,36.3307123 40.3416539,34.0006859 L6,34 C4.8954305,34 4,33.1045695 4,32 C4,30.8954305 4.8954305,30 6,30 L40.3412977,30.0003218 C41.1648796,27.669769 43.3874421,26 46,26 Z" id="Rectangle-2-Copy" fill="#000000"></path>
        <path d="M32,44 C34.6125579,44 36.8351204,45.669769 37.6587023,48.0003218 L58,48 C59.1045695,48 60,48.8954305 60,50 C60,51.1045695 59.1045695,52 58,52 L37.6583461,52.0006859 C36.8344797,54.3307123 34.6121813,56 32,56 C29.3878187,56 27.1655203,54.3307123 26.3416539,52.0006859 L6,52 C4.8954305,52 4,51.1045695 4,50 C4,48.8954305 4.8954305,48 6,48 L26.3412977,48.0003218 C27.1648796,45.669769 29.3874421,44 32,44 Z" id="Rectangle-2-Copy-2" fill="#000000"></path>
    </g>
</svg>