<?xml version="1.0" encoding="UTF-8"?>
<svg width="64px" height="64px" viewBox="0 0 64 64" version="1.1" xmlns="http://www.w3.org/2000/svg" xmlns:xlink="http://www.w3.org/1999/xlink">
    <title>order_approved</title>
    <g id="order_approved" stroke="none" stroke-width="1" fill="none" fill-rule="evenodd">
        <path d="M14,11 L14,15 L12,15 C10.9456382,15 10.0818349,15.8158778 10.0054857,16.8507377 L10,17 L10,54 C10,55.0543618 10.8158778,55.9181651 11.8507377,55.9945143 L12,56 L26.3984803,56.0005081 C28.4813187,57.7727932 30.9145725,59.1455992 33.5797671,60.000452 L12,60 C8.76160306,60 6.12242824,57.4344251 6.00413847,54.2249383 L6,54 L6,17 C6,13.7616031 8.56557489,11.1224282 11.7750617,11.0041385 L12,11 L14,11 Z M21.5297413,50.0009224 L16,50 C14.8954305,50 14,49.1045695 14,48 C14,46.8954305 14.8954305,46 16,46 L19.869764,46.00043 C20.2865423,47.4007158 20.845444,48.7397893 21.5297413,50.0009224 Z M19,40 C19,40.6749008 19.0318373,41.3423657 19.094092,42.0009746 L16,42 C14.8954305,42 14,41.1045695 14,40 C14,38.8954305 14.8954305,38 16,38 L19.0939975,38.0000253 C19.0318051,38.6583099 19,39.3254407 19,40 Z M19.8694678,34.0005652 L16,34 C14.8954305,34 14,33.1045695 14,32 C14,30.8954305 14.8954305,30 16,30 L21.5291994,30.0000763 C20.8449869,31.2612165 20.2861675,32.6002884 19.8694678,34.0005652 Z M24.3470994,26.0001732 L16,26 C14.8954305,26 14,25.1045695 14,24 C14,22.8954305 14.8954305,22 16,22 L29.1763386,22.0005433 C27.37199,23.0878899 25.7444661,24.4388774 24.3470994,26.0001732 Z M40,11 C43.2383969,11 45.8775718,13.5655749 45.9958615,16.7750617 L46,17 L46.00043,19.869764 C44.714577,19.4870453 43.3771075,19.2241703 42.0009746,19.094092 L42,17 C42,15.9456382 41.1841222,15.0818349 40.1492623,15.0054857 L40,15 L38,15 L38,11 L40,11 Z M26,4 C28.963829,4 31.0330253,5.3866802 31.735469,7.90524888 L31.735469,7.90524888 L31.76,8 L33,8 C35.1421954,8 36.8910789,9.68396847 36.9951047,11.8003597 L36.9951047,11.8003597 L37,12 L37,15 C37,17.209139 35.209139,19 33,19 L33,19 L19,19 C16.790861,19 15,17.209139 15,15 L15,15 L15,12 C15,9.790861 16.790861,8 19,8 L19,8 L20.239,8 L20.2645206,7.90528649 C20.945668,5.46301662 22.9120034,4.08508155 25.7330372,4.00381301 L25.7330372,4.00381301 Z M26,8 C24.6056662,8 24.1729885,8.34309099 24.0364954,9.38854796 L24.0364954,9.38854796 L24.007958,9.56596746 C23.7391369,10.9701091 22.5081567,12 21.061759,12 L21.061759,12 L19,12 L19,15 L33,15 L33,12 L30.9380147,12 C29.4314048,11.9998666 28.1585421,10.8823511 27.9634841,9.38839093 L27.9634841,9.38839093 L27.9429748,9.25016844 C27.7856835,8.31260686 27.3309483,8 26,8 Z" id="Combined-Shape" fill="#000000" fill-rule="nonzero"></path>
        <path d="M40,20 C51.045695,20 60,28.954305 60,40 C60,51.045695 51.045695,60 40,60 C28.954305,60 20,51.045695 20,40 C20,28.954305 28.954305,20 40,20 Z M40,24 C31.163444,24 24,31.163444 24,40 C24,48.836556 31.163444,56 40,56 C48.836556,56 56,48.836556 56,40 C56,31.163444 48.836556,24 40,24 Z" id="Oval" fill="#000000" fill-rule="nonzero"></path>
        <path d="M46.1723769,30.1877231 C46.6209851,29.1783547 47.8029086,28.7237687 48.8122769,29.1723769 C49.7735801,29.5996228 50.2316793,30.6920073 49.8856034,31.6670054 L49.8276231,31.8122769 L41.8276231,49.8122769 C41.2786965,51.0473617 39.7011255,51.3822503 38.6987958,50.5191371 L38.5857864,50.4142136 L30.5857864,42.4142136 C29.8047379,41.633165 29.8047379,40.366835 30.5857864,39.5857864 C31.3257272,38.8458457 32.5012114,38.8069014 33.2869988,39.4689537 L33.4142136,39.5857864 L39.355,45.526 L46.1723769,30.1877231 Z" id="Path-259" fill="#000000" fill-rule="nonzero"></path>
    </g>
</svg>