<?xml version="1.0" encoding="UTF-8"?>
<svg width="64px" height="64px" viewBox="0 0 64 64" version="1.1" xmlns="http://www.w3.org/2000/svg" xmlns:xlink="http://www.w3.org/1999/xlink">
    <title>order_split</title>
    <g id="order_split" stroke="none" fill="none" fill-rule="nonzero">
        <path d="M13.7037633,9.61399906 L13.7037633,13.6139991 L11.7037633,13.6139991 C10.6494015,13.6139991 9.78559818,14.4298768 9.70924904,15.4647367 L9.7037633,15.6139991 L9.7037633,52.6139991 C9.7037633,53.7185686 10.5991938,54.6139991 11.7037633,54.6139991 L26.7037633,54.6139991 L26.7037633,58.6139991 L11.7037633,58.6139991 C8.3900548,58.6139991 5.7037633,55.9277076 5.7037633,52.6139991 L5.7037633,15.6139991 C5.7037633,12.3002906 8.3900548,9.61399906 11.7037633,9.61399906 L13.7037633,9.61399906 Z M26.7037633,44.6139991 L26.7037633,48.6139991 L15.7037633,48.6139991 C14.5991938,48.6139991 13.7037633,47.7185686 13.7037633,46.6139991 C13.7037633,45.5094296 14.5991938,44.6139991 15.7037633,44.6139991 L26.7037633,44.6139991 Z M26.7037633,36.6139991 L26.7037633,40.6139991 L15.7037633,40.6139991 C14.5991938,40.6139991 13.7037633,39.7185686 13.7037633,38.6139991 C13.7037633,37.5094296 14.5991938,36.6139991 15.7037633,36.6139991 L26.7037633,36.6139991 Z M26.7037633,28.6139991 L26.7037633,32.6139991 L15.7037633,32.6139991 C14.5991938,32.6139991 13.7037633,31.7185686 13.7037633,30.6139991 C13.7037633,29.5094296 14.5991938,28.6139991 15.7037633,28.6139991 L26.7037633,28.6139991 Z M26.7037633,20.6139991 L26.7037633,24.6139991 L15.7037633,24.6139991 C14.5991938,24.6139991 13.7037633,23.7185686 13.7037633,22.6139991 C13.7037633,21.5094296 14.5991938,20.6139991 15.7037633,20.6139991 L26.7037633,20.6139991 Z M25.7037633,2.61399906 C26.0499248,2.61399906 26.3838825,2.63291498 26.7048841,2.67034089 L26.7053588,6.71321229 C26.4440636,6.64397809 26.1159279,6.61399906 25.7037633,6.61399906 C24.3094295,6.61399906 23.8767518,6.95709005 23.7402587,8.00254702 L23.7117214,8.17996652 C23.4429002,9.58410816 22.21192,10.6139991 20.7655223,10.6139991 L18.7037633,10.6139991 L18.7037633,13.6139991 L26.7037633,13.6139991 L26.7037633,17.6139991 L18.7037633,17.6139991 C16.5615679,17.6139991 14.8126844,15.9300306 14.7086586,13.8136394 L14.7037633,13.6139991 L14.7037633,10.6139991 C14.7037633,8.40486006 16.4946243,6.61399906 18.7037633,6.61399906 L19.9427633,6.61399906 L19.9682839,6.51928555 C20.6494313,4.07701568 22.6157667,2.69908061 25.4368005,2.61781207 Z M22.7037633,6.61399906 L26.7037633,6.61399906 L26.7037633,58.6139991 L22.7037633,58.6139991 Z" id="Combined-Shape" fill="#000000" transform="translate(25.7038, 30.614) rotate(-10) translate(-25.7038, -30.614)"></path>
        <path d="M52.2962434,9.61392245 C55.6099519,9.61392245 58.2962434,12.300214 58.2962434,15.6139225 L58.2962434,52.6139225 C58.2962434,55.927631 55.6099519,58.6139225 52.2962434,58.6139225 L37.2962434,58.6139225 L37.2962434,54.6139225 L52.2962434,54.6139225 C53.4008129,54.6139225 54.2962434,53.718492 54.2962434,52.6139225 L54.2962434,15.6139225 C54.2962434,14.509353 53.4008129,13.6139225 52.2962434,13.6139225 L50.2962434,13.6139225 L50.2962434,9.61392245 L52.2962434,9.61392245 Z M48.2962434,44.6139225 C49.4008129,44.6139225 50.2962434,45.509353 50.2962434,46.6139225 C50.2962434,47.718492 49.4008129,48.6139225 48.2962434,48.6139225 L37.2962434,48.6139225 L37.2962434,44.6139225 L48.2962434,44.6139225 Z M48.2962434,36.6139225 C49.4008129,36.6139225 50.2962434,37.509353 50.2962434,38.6139225 C50.2962434,39.718492 49.4008129,40.6139225 48.2962434,40.6139225 L37.2962434,40.6139225 L37.2962434,36.6139225 L48.2962434,36.6139225 Z M48.2962434,28.6139225 C49.4008129,28.6139225 50.2962434,29.509353 50.2962434,30.6139225 C50.2962434,31.718492 49.4008129,32.6139225 48.2962434,32.6139225 L37.2962434,32.6139225 L37.2962434,28.6139225 L48.2962434,28.6139225 Z M48.2962434,20.6139225 C49.4008129,20.6139225 50.2962434,21.509353 50.2962434,22.6139225 C50.2962434,23.718492 49.4008129,24.6139225 48.2962434,24.6139225 L37.2962434,24.6139225 L37.2962434,20.6139225 L48.2962434,20.6139225 Z M38.2962434,2.61392245 C41.2600724,2.61392245 43.3292687,4.00060266 44.0317124,6.51917134 L44.0562434,6.61392245 L45.2962434,6.61392245 C47.4384388,6.61392245 49.1873223,8.29789092 49.2913481,10.4142821 L49.2962434,10.6139225 L49.2962434,13.6139225 C49.2962434,15.8230615 47.5053824,17.6139225 45.2962434,17.6139225 L37.2962434,17.6139225 L37.2962434,13.6139225 L45.2962434,13.6139225 L45.2962434,10.6139225 L43.2342581,10.6139225 C41.7276482,10.6137891 40.4547855,9.49627354 40.2597275,8.00231338 L40.2392182,7.86409089 C40.0819269,6.92652932 39.6271917,6.61392245 38.2962434,6.61392245 C37.884543,6.61392245 37.5566822,6.64383396 37.2955303,6.71290546 L37.2962406,2.67013401 C37.5336062,2.64249369 37.7780542,2.62497281 38.0292806,2.61773546 Z M37.2962434,5.61392245 L41.2962434,5.61392245 L41.2962434,58.6139225 L37.2962434,58.6139225 Z" id="Combined-Shape-Copy" fill="#000000" transform="translate(38.2962, 30.6139) rotate(10) translate(-38.2962, -30.6139)"></path>
    </g>
</svg>