<?xml version="1.0" encoding="UTF-8"?>
<svg width="64px" height="64px" viewBox="0 0 64 64" version="1.1" xmlns="http://www.w3.org/2000/svg" xmlns:xlink="http://www.w3.org/1999/xlink">
    <title>order_editor</title>
    <g id="order_editor" stroke="none" stroke-width="1" fill="none" fill-rule="evenodd">
        <path d="M15,11 L15,15 L14,15 C12.9456382,15 12.0818349,15.8158778 12.0054857,16.8507377 L12,17 L12,54 C12,55.1045695 12.8954305,56 14,56 L14,56 L42,56 C43.1045695,56 44,55.1045695 44,54 L44,54 L44,52 L48,52 L48,54 C48,57.2383969 45.4344251,59.8775718 42.2249383,59.9958615 L42,60 L14,60 C10.6862915,60 8,57.3137085 8,54 L8,54 L8,17 C8,13.6862915 10.6862915,11 14,11 L14,11 L15,11 Z M42,11 C45.3137085,11 48,13.6862915 48,17 L48,17 L48,20 L44,20 L44,17 C44,15.9456382 43.1841222,15.0818349 42.1492623,15.0054857 L42,15 L41,15 L41,11 Z" id="Rectangle" fill="#000000" fill-rule="nonzero"></path>
        <path d="M27.7330372,4.00381301 C24.9120034,4.08508155 22.945668,5.46301662 22.2645206,7.90528649 L22.239,8 L21,8 C18.790861,8 17,9.790861 17,12 L17,15 C17,17.209139 18.790861,19 21,19 L35,19 C37.209139,19 39,17.209139 39,15 L39,12 L38.9951047,11.8003597 C38.8910789,9.68396847 37.1421954,8 35,8 L33.76,8 L33.735469,7.90524888 C33.0330253,5.3866802 30.963829,4 28,4 L27.7330372,4.00381301 Z M28,8 C29.3309483,8 29.7856835,8.31260686 29.9429748,9.25016844 L29.9634841,9.38839093 C30.1585421,10.8823511 31.4314048,11.9998666 32.9380147,12 L35,12 L35,15 L21,15 L21,12 L23.061759,12 C24.5081567,12 25.7391369,10.9701091 26.007958,9.56596746 L26.0364954,9.38854796 C26.1729885,8.34309099 26.6056662,8 28,8 Z" id="Path-2" fill="#000000" fill-rule="nonzero"></path>
        <rect id="Rectangle" fill="#000000" x="20" y="22" width="36" height="4" rx="2"></rect>
        <rect id="Rectangle-Copy" fill="#000000" x="20" y="30" width="36" height="4" rx="2"></rect>
        <rect id="Rectangle-Copy-2" fill="#000000" x="20" y="38" width="36" height="4" rx="2"></rect>
        <rect id="Rectangle-Copy-3" fill="#000000" x="20" y="46" width="36" height="4" rx="2"></rect>
    </g>
</svg>