<?xml version="1.0" encoding="UTF-8"?>
<svg width="64px" height="64px" viewBox="0 0 64 64" version="1.1" xmlns="http://www.w3.org/2000/svg" xmlns:xlink="http://www.w3.org/1999/xlink">
    <title>order_batch</title>
    <g id="order_batch" stroke="none" stroke-width="1" fill="none" fill-rule="evenodd">
        <path d="M22.1818741,10 L21.5436868,7.9486833 C21.3162686,7.21769636 21.0114937,7 20,7 C19.0480059,7 18.7220327,7.1928383 18.4973769,7.82495371 L18.4563132,7.9486833 L17.8181259,10 L13.9333333,10 C13.4178676,10 13,10.4477153 13,11 L13,14 C13,14.5522847 13.4178676,15 13.9333333,15 L17.6834126,14.9991972 C17.3497588,15.2209236 17.0395681,15.4751505 16.7573593,15.7573593 C16.1311897,16.3835289 15.642779,17.1474574 15.3414879,17.9997838 L12.8571429,18 C11.2791865,18 10,16.6568542 10,15 L10,14 L9,14 C7.9456382,14 7.0818349,14.8158778 7.0054857,15.8507377 L7,16 L7,47 C7,48.0543618 7.8158778,48.9181651 8.8507377,48.9945143 L9,49 L15,49 L15,51 C15,51.3409424 15.0284372,51.6752429 15.0830691,52.0006591 L9,52 C6.2385763,52 4,49.7614237 4,47 L4,16 C4,13.2385763 6.2385763,11 9,11 L10,11 L10,10 C10,8.34314575 11.2791865,7 12.8571429,7 L15.7142857,7 C16.3492064,5 17.7777778,4 20,4 C22.2222222,4 23.6507936,5 24.2857143,7 L27.1428571,7 C27.8557553,7 28.5076714,7.27414992 29.0081973,7.72752111 L28.8919677,7.79618587 L28.6884424,7.93076808 C27.9825221,8.42491234 27.4220376,9.1099195 27.0251128,10 L22.1818741,10 Z M15,42 L15,45 L11,45 C10.4477153,45 10,44.5522847 10,44 L10,43 C10,42.4477153 10.4477153,42 11,42 L15,42 Z M15,35 L15,38 L11,38 C10.4477153,38 10,37.5522847 10,37 L10,36 C10,35.4477153 10.4477153,35 11,35 L15,35 Z M15,28 L15,31 L11,31 C10.4477153,31 10,30.5522847 10,30 L10,29 C10,28.4477153 10.4477153,28 11,28 L15,28 Z M15,21 L15,24 L11,24 C10.4477153,24 10,23.5522847 10,23 L10,22 C10,21.4477153 10.4477153,21 11,21 L15,21 Z" id="order" fill="#000000" fill-rule="nonzero"></path>
        <path d="M34.1818741,14 L33.5436868,11.9486833 C33.3162686,11.2176964 33.0114937,11 32,11 C31.0480059,11 30.7220327,11.1928383 30.4973769,11.8249537 L30.4563132,11.9486833 L29.8181259,14 L25.9333333,14 C25.4178676,14 25,14.4477153 25,15 L25,18 C25,18.5522847 25.4178676,19 25.9333333,19 L29.6834126,18.9991972 C29.3497588,19.2209236 29.0395681,19.4751505 28.7573593,19.7573593 C28.1311897,20.3835289 27.642779,21.1474574 27.3414879,21.9997838 L24.8571429,22 C23.2791865,22 22,20.6568542 22,19 L22,18 L21,18 C19.9456382,18 19.0818349,18.8158778 19.0054857,19.8507377 L19,20 L19,51 C19,52.0543618 19.8158778,52.9181651 20.8507377,52.9945143 L21,53 L27,53 L27,55 C27,55.3409424 27.0284372,55.6752429 27.0830691,56.0006591 L21,56 C18.2385763,56 16,53.7614237 16,51 L16,20 C16,17.2385763 18.2385763,15 21,15 L22,15 L22,14 C22,12.3431457 23.2791865,11 24.8571429,11 L27.7142857,11 C28.3492064,9 29.7777778,8 32,8 C34.2222222,8 35.6507936,9 36.2857143,11 L39.1428571,11 C39.8557553,11 40.5076714,11.2741499 41.0081973,11.7275211 L40.8919677,11.7961859 L40.6884424,11.9307681 C39.9825221,12.4249123 39.4220376,13.1099195 39.0251128,14 L34.1818741,14 Z M27,46 L27,49 L23,49 C22.4477153,49 22,48.5522847 22,48 L22,47 C22,46.4477153 22.4477153,46 23,46 L27,46 Z M27,39 L27,42 L23,42 C22.4477153,42 22,41.5522847 22,41 L22,40 C22,39.4477153 22.4477153,39 23,39 L27,39 Z M27,32 L27,35 L23,35 C22.4477153,35 22,34.5522847 22,34 L22,33 C22,32.4477153 22.4477153,32 23,32 L27,32 Z M27,25 L27,28 L23,28 C22.4477153,28 22,27.5522847 22,27 L22,26 C22,25.4477153 22.4477153,25 23,25 L27,25 Z" id="order-copy" fill="#000000" fill-rule="nonzero"></path>
        <path d="M34,19 L34,22 L33,22 C31.9456382,22 31.0818349,22.8158778 31.0054857,23.8507377 L31,24 L31,55 C31,56.0543618 31.8158778,56.9181651 32.8507377,56.9945143 L33,57 L55,57 C56.0543618,57 56.9181651,56.1841222 56.9945143,55.1492623 L57,55 L57,39 L60,39 L60,55 C60,57.7614237 57.7614237,60 55,60 L33,60 C30.2385763,60 28,57.7614237 28,55 L28,24 C28,21.2385763 30.2385763,19 33,19 L34,19 Z M35,50 L47,50 C47.5522847,50 48,50.4477153 48,51 L48,52 C48,52.5522847 47.5522847,53 47,53 L35,53 C34.4477153,53 34,52.5522847 34,52 L34,51 C34,50.4477153 34.4477153,50 35,50 Z M35,43 L53,43 C53.5522847,43 54,43.4477153 54,44 L54,45 C54,45.5522847 53.5522847,46 53,46 L35,46 C34.4477153,46 34,45.5522847 34,45 L34,44 C34,43.4477153 34.4477153,43 35,43 Z M35,36 L53,36 C53.5522847,36 54,36.4477153 54,37 L54,38 C54,38.5522847 53.5522847,39 53,39 L35,39 C34.4477153,39 34,38.5522847 34,38 L34,37 C34,36.4477153 34.4477153,36 35,36 Z M54,23 C54,24.6568542 52.7208135,26 51.1428571,26 L36.8571429,26 C35.2791865,26 34,24.6568542 34,23 L34,18 C34,16.3431457 35.2791865,15 36.8571429,15 L39.7142857,15 C40.3492064,13 41.7777778,12 44,12 C46.2222222,12 47.6507936,13 48.2857143,15 L51.1428571,15 C52.7208135,15 54,16.3431457 54,18 L54,19 L55,19 C57.7614237,19 60,21.2385763 60,24 L60,39 L57,39 L57,24 C57,22.9456382 56.1841222,22.0818349 55.1492623,22.0054857 L55,22 L54,22 L54,23 Z M53,29 C53.5522847,29 54,29.4477153 54,30 L54,31 C54,31.5522847 53.5522847,32 53,32 L35,32 C34.4477153,32 34,31.5522847 34,31 L34,30 C34,29.4477153 34.4477153,29 35,29 L53,29 Z M44,15 C43.0480059,15 42.7220327,15.1928383 42.4973769,15.8249537 L42.4563132,15.9486833 L41.8181259,18 L37.9333333,18 C37.4178676,18 37,18.4477153 37,19 L37,22 C37,22.5522847 37.4178676,23 37.9333333,23 L50.0666667,23 C50.5821324,23 51,22.5522847 51,22 L51,19 C51,18.4477153 50.5821324,18 50.0666667,18 L46.1818741,18 L45.5436868,15.9486833 C45.3162686,15.2176964 45.0114937,15 44,15 Z" id="order-copy-2" fill="#000000" fill-rule="nonzero"></path>
    </g>
</svg>