<?xml version="1.0" encoding="UTF-8"?>
<svg width="64px" height="64px" viewBox="0 0 64 64" version="1.1" xmlns="http://www.w3.org/2000/svg" xmlns:xlink="http://www.w3.org/1999/xlink">
    <title>order_unapproved</title>
    <g id="order_unapproved" stroke="none" stroke-width="1" fill="none" fill-rule="evenodd">
        <path d="M14,11 L14,15 L12,15 C10.9456382,15 10.0818349,15.8158778 10.0054857,16.8507377 L10,17 L10,54 C10,55.0543618 10.8158778,55.9181651 11.8507377,55.9945143 L12,56 L26.3984803,56.0005081 C28.4813187,57.7727932 30.9145725,59.1455992 33.5797671,60.000452 L12,60 C8.76160306,60 6.12242824,57.4344251 6.00413847,54.2249383 L6,54 L6,17 C6,13.7616031 8.56557489,11.1224282 11.7750617,11.0041385 L12,11 L14,11 Z M21.5297413,50.0009224 L16,50 C14.8954305,50 14,49.1045695 14,48 C14,46.8954305 14.8954305,46 16,46 L19.869764,46.00043 C20.2865423,47.4007158 20.845444,48.7397893 21.5297413,50.0009224 Z M19,40 C19,40.6749008 19.0318373,41.3423657 19.094092,42.0009746 L16,42 C14.8954305,42 14,41.1045695 14,40 C14,38.8954305 14.8954305,38 16,38 L19.0939975,38.0000253 C19.0318051,38.6583099 19,39.3254407 19,40 Z M19.8694678,34.0005652 L16,34 C14.8954305,34 14,33.1045695 14,32 C14,30.8954305 14.8954305,30 16,30 L21.5291994,30.0000763 C20.8449869,31.2612165 20.2861675,32.6002884 19.8694678,34.0005652 Z M24.3470994,26.0001732 L16,26 C14.8954305,26 14,25.1045695 14,24 C14,22.8954305 14.8954305,22 16,22 L29.1763386,22.0005433 C27.37199,23.0878899 25.7444661,24.4388774 24.3470994,26.0001732 Z M40,11 C43.2383969,11 45.8775718,13.5655749 45.9958615,16.7750617 L46,17 L46.00043,19.869764 C44.714577,19.4870453 43.3771075,19.2241703 42.0009746,19.094092 L42,17 C42,15.9456382 41.1841222,15.0818349 40.1492623,15.0054857 L40,15 L38,15 L38,11 L40,11 Z M26,4 C28.963829,4 31.0330253,5.3866802 31.735469,7.90524888 L31.735469,7.90524888 L31.76,8 L33,8 C35.1421954,8 36.8910789,9.68396847 36.9951047,11.8003597 L36.9951047,11.8003597 L37,12 L37,15 C37,17.209139 35.209139,19 33,19 L33,19 L19,19 C16.790861,19 15,17.209139 15,15 L15,15 L15,12 C15,9.790861 16.790861,8 19,8 L19,8 L20.239,8 L20.2645206,7.90528649 C20.945668,5.46301662 22.9120034,4.08508155 25.7330372,4.00381301 L25.7330372,4.00381301 Z M26,8 C24.6056662,8 24.1729885,8.34309099 24.0364954,9.38854796 L24.0364954,9.38854796 L24.007958,9.56596746 C23.7391369,10.9701091 22.5081567,12 21.061759,12 L21.061759,12 L19,12 L19,15 L33,15 L33,12 L30.9380147,12 C29.4314048,11.9998666 28.1585421,10.8823511 27.9634841,9.38839093 L27.9634841,9.38839093 L27.9429748,9.25016844 C27.7856835,8.31260686 27.3309483,8 26,8 Z" id="Combined-Shape" fill="#000000" fill-rule="nonzero"></path>
        <path d="M39.6126087,47.318 C40.2712754,47.318 40.815942,47.0963333 41.2466087,46.653 C41.6772754,46.2096667 41.8926087,45.6586667 41.8926087,45 L41.8926087,45 L41.8926087,43.594 C41.8926087,43.5433333 41.9116087,43.5053333 41.9496087,43.48 C41.9876087,43.4546667 42.031942,43.4293333 42.0826087,43.404 C43.171942,43.2266667 44.178942,42.929 45.1036087,42.511 C46.0282754,42.093 46.838942,41.5356667 47.5356087,40.839 C48.2322754,40.1423333 48.7706087,39.3063333 49.1506087,38.331 C49.5306087,37.3556667 49.7206087,36.2346667 49.7206087,34.968 C49.7206087,33.2706667 49.3026087,31.7506667 48.4666087,30.408 C47.6306087,29.0653333 46.5096087,27.995 45.1036087,27.197 C43.6976087,26.399 42.1206087,26 40.3726087,26 C38.9792754,26 37.6682754,26.2596667 36.4396087,26.779 C35.210942,27.2983333 34.1406087,28.0266667 33.2286087,28.964 C32.6966087,29.496 32.455942,30.0786667 32.5066087,30.712 C32.5572754,31.3453333 32.8866087,31.89 33.4946087,32.346 C34.0772754,32.7766667 34.6536087,32.9096667 35.2236087,32.745 C35.7936087,32.5803333 36.2812754,32.3206667 36.6866087,31.966 C37.1932754,31.5353333 37.756942,31.1933333 38.3776087,30.94 C38.9982754,30.6866667 39.6632754,30.56 40.3726087,30.56 C41.2846087,30.56 42.1016087,30.75 42.8236087,31.13 C43.5456087,31.51 44.1156087,32.0293333 44.5336087,32.688 C44.9516087,33.3466667 45.1606087,34.1066667 45.1606087,34.968 C45.1606087,36.1333333 44.9136087,37.0706667 44.4196087,37.78 C43.9256087,38.4893333 43.2606087,39.0023333 42.4246087,39.319 C41.5886087,39.6356667 40.6512754,39.794 39.6126087,39.794 C38.953942,39.794 38.4092754,40.0156667 37.9786087,40.459 C37.547942,40.9023333 37.3326087,41.4533333 37.3326087,42.112 L37.3326087,42.112 L37.3326087,45 C37.3326087,45.6586667 37.547942,46.2096667 37.9786087,46.653 C38.4092754,47.0963333 38.953942,47.318 39.6126087,47.318 Z M39.9166087,54.12 C40.6512754,54.12 41.214942,53.9236667 41.6076087,53.531 C42.0002754,53.1383333 42.1966087,52.5746667 42.1966087,51.84 L42.1966087,51.84 L42.1966087,51.194 C42.1966087,50.4593333 42.0002754,49.8956667 41.6076087,49.503 C41.214942,49.1103333 40.6512754,48.914 39.9166087,48.914 L39.9166087,48.914 L39.4226087,48.914 C38.687942,48.914 38.1242754,49.1103333 37.7316087,49.503 C37.338942,49.8956667 37.1426087,50.4593333 37.1426087,51.194 L37.1426087,51.194 L37.1426087,51.84 C37.1426087,52.5746667 37.338942,53.1383333 37.7316087,53.531 C38.1242754,53.9236667 38.687942,54.12 39.4226087,54.12 L39.4226087,54.12 L39.9166087,54.12 Z" id="?" fill="#000000" fill-rule="nonzero"></path>
        <path d="M40,20 C51.045695,20 60,28.954305 60,40 C60,51.045695 51.045695,60 40,60 C28.954305,60 20,51.045695 20,40 C20,28.954305 28.954305,20 40,20 Z M40,24 C31.163444,24 24,31.163444 24,40 C24,48.836556 31.163444,56 40,56 C48.836556,56 56,48.836556 56,40 C56,31.163444 48.836556,24 40,24 Z" id="Oval" fill="#000000" fill-rule="nonzero"></path>
    </g>
</svg>