<?xml version="1.0" encoding="UTF-8"?>
<svg width="64px" height="64px" viewBox="0 0 64 64" version="1.1" xmlns="http://www.w3.org/2000/svg" xmlns:xlink="http://www.w3.org/1999/xlink">
    <title>order_actions</title>
    <g id="order_actions" stroke="none" stroke-width="1" fill="none" fill-rule="evenodd">
        <path d="M14,11 L14,15 L12,15 C10.9456382,15 10.0818349,15.8158778 10.0054857,16.8507377 L10,17 L10,54 C10,55.0543618 10.8158778,55.9181651 11.8507377,55.9945143 L12,56 L29.3813753,56.0015622 C29.5460256,56.2343133 29.7312684,56.4471115 29.9331172,56.6390189 C30.5281049,57.2047026 31.2693516,57.5883076 32.0583085,57.7607682 C32.8412453,57.9319128 33.6700348,57.8950423 34.4475511,57.6279142 C35.1683861,57.3802599 35.8470744,56.9356493 36.4028862,56.2686752 L36.4028862,56.2686752 L36.625,56 L40,56 C40.3398057,56 40.6598185,55.9152563 40.9400572,55.7657502 L41.9492969,57.6602285 L42.0738712,57.8789125 C42.3675123,58.3624298 42.7405852,58.7704863 43.166744,59.0957895 C42.3080913,59.6320719 41.3028288,59.9561345 40.2249383,59.9958615 L40,60 L12,60 C8.76160306,60 6.12242824,57.4344251 6.00413847,54.2249383 L6,54 L6,17 C6,13.7616031 8.56557489,11.1224282 11.7750617,11.0041385 L12,11 L14,11 Z M27.824,46 L28.2358144,49.9862441 C28.1584731,49.9953285 28.0797821,50 28,50 L16,50 C14.8954305,50 14,49.1045695 14,48 C14,46.8954305 14.8954305,46 16,46 L27.824,46 Z M26.998,38 L27.411,42 L16,42 C14.8954305,42 14,41.1045695 14,40 C14,38.8954305 14.8954305,38 16,38 L26.998,38 Z M26.172,30 L26.585,34 L16,34 C14.8954305,34 14,33.1045695 14,32 C14,30.8954305 14.8954305,30 16,30 L26.172,30 Z M25.346,22 L25.759,26 L16,26 C14.8954305,26 14,25.1045695 14,24 C14,22.8954305 14.8954305,22 16,22 L25.346,22 Z M40,11 C43.2383969,11 45.8775718,13.5655749 45.9958615,16.7750617 L46,17 L46,25.24 L42,22.265 L42,17 C42,15.9456382 41.1841222,15.0818349 40.1492623,15.0054857 L40,15 L38,15 L38,11 L40,11 Z M26,4 C28.963829,4 31.0330253,5.3866802 31.735469,7.90524888 L31.735469,7.90524888 L31.76,8 L33,8 C35.1421954,8 36.8910789,9.68396847 36.9951047,11.8003597 L36.9951047,11.8003597 L37,12 L37,15 C37,16.0603476 36.587416,17.0243311 35.9140281,17.7401705 L32.229,15 L33,15 L33,12 L30.9380147,12 C29.4314048,11.9998666 28.1585421,10.8823511 27.9634841,9.38839093 L27.9634841,9.38839093 L27.9429748,9.25016844 C27.7856835,8.31260686 27.3309483,8 26,8 C24.6056662,8 24.1729885,8.34309099 24.0364954,9.38854796 L24.0364954,9.38854796 L24.007958,9.56596746 C23.7391369,10.9701091 22.5081567,12 21.061759,12 L21.061759,12 L19,12 L19,15 L26.6360419,14.999351 C26.1636658,15.3804833 25.7667104,15.8581656 25.4821659,16.4097258 C25.1129447,17.1254228 24.9303191,17.9662596 25.024232,18.8866062 L25.024232,18.8866062 L25.036,19 L19,19 C16.8578046,19 15.1089211,17.3160315 15.0048953,15.1996403 L15,15 L15,12 C15,9.790861 16.790861,8 19,8 L19,8 L20.239,8 L20.2645206,7.90528649 C20.945668,5.46301662 22.9120034,4.08508155 25.7330372,4.00381301 L25.7330372,4.00381301 Z" id="Combined-Shape" fill="#000000" fill-rule="nonzero"></path>
        <path d="M29.590148,53.7816945 L29.6035059,53.8855832 L29.6283061,54.045278 L29.6475104,54.1503523 L29.68985,54.3289949 C30.3867922,56.9684031 33.8343822,57.78883 35.6346649,55.6284908 L39.5156508,50.9710325 L42.8316847,57.1897056 C43.7546852,58.9203315 45.9387982,59.5252958 47.6206786,58.5161676 L54.7628423,54.2308693 L54.8618312,54.1674465 L55.0025618,54.0713306 L55.0983146,54.0016896 L55.2495532,53.8777087 C56.5225438,52.7723742 56.8112054,50.8811668 55.882852,49.4370615 L52.1736508,43.6660325 L57.9562851,42.5112516 C60.8691056,41.9286875 61.7134451,38.1704651 59.3299817,36.3981461 L31.4755434,15.6858715 C29.0828616,13.9066978 25.7163853,15.8188206 26.0190661,18.7850925 L29.590148,53.7816945 Z M30.1296508,19.6690325 L55.9106508,38.8400325 L48.51312,40.3192351 L48.3677937,40.3537419 C47.0849547,40.7078413 46.4877474,42.2186377 47.2226386,43.361905 L52.1986508,51.1030325 L46.0776508,54.7770325 L41.6463284,46.4673411 L41.5678452,46.3325935 C40.851642,45.2033074 39.2204628,45.0779092 38.3452332,46.1281091 L33.4306508,52.0240325 L30.1296508,19.6690325 Z" id="pick" fill="#000000" fill-rule="nonzero"></path>
    </g>
</svg>