<?xml version="1.0" encoding="UTF-8"?>
<svg width="32px" height="32px" viewBox="0 0 32 32" version="1.1" xmlns="http://www.w3.org/2000/svg" xmlns:xlink="http://www.w3.org/1999/xlink">
    <title>org</title>
    <g id="org" stroke="none" stroke-width="1" fill="none" fill-rule="evenodd">
        <path d="M6,2 C6.51283584,2 6.93550716,2.38604019 6.99327227,2.88337887 L7,3 L7.00030729,4.26568992 C8.670341,4.75568387 10.3360729,5 12,5 C12.7010472,5 13.2766969,4.90622249 14.0728544,4.64916892 L14.5310698,4.49234749 C14.6117768,4.46337257 14.6948259,4.43294383 14.7804771,4.40100905 L15.3276876,4.19091025 L16.2904589,3.81193096 C17.8509151,3.21489368 18.7500911,3 20,3 C22.1089621,3 24.2155932,3.35110518 26.3162278,4.0513167 C26.6874479,4.17505674 26.9488234,4.50212306 26.9932782,4.88395576 L27,5 L27,18 C27,18.6825577 26.3313033,19.164527 25.6837722,18.9486833 C23.7844068,18.3155615 21.8910379,18 20,18 C19.2989528,18 18.7233031,18.0937775 17.9271456,18.3508311 L17.4689302,18.5076525 C17.3882232,18.5366274 17.3051741,18.5670562 17.2195229,18.5989909 L16.6723124,18.8090897 L15.7095411,19.188069 C14.1490849,19.7851063 13.2499089,20 12,20 C10.3314074,20 8.66427389,19.7802138 7.00041503,19.3416315 L7,29 C7,29.5522847 6.55228475,30 6,30 C5.48716416,30 5.06449284,29.6139598 5.00672773,29.1166211 L5,29 L5,3 C5,2.44771525 5.44771525,2 6,2 Z M20,5 C19.2989528,5 18.7233031,5.09377751 17.9271456,5.35083108 L17.4689302,5.50765251 C17.3882232,5.53662743 17.3051741,5.56705617 17.2195229,5.59899095 L16.6723124,5.80908975 L15.7095411,6.18806904 C14.1490849,6.78510632 13.2499089,7 12,7 C10.3314074,7 8.66427389,6.78021384 7.00041503,6.3416315 L7.00030729,17.2656899 C8.670341,17.7556839 10.3360729,18 12,18 C12.7010472,18 13.2766969,17.9062225 14.0728544,17.6491689 L14.5310698,17.4923475 C14.6117768,17.4633726 14.6948259,17.4329438 14.7804771,17.4010091 L15.3276876,17.1909103 L16.2904589,16.811931 C17.8509151,16.2148937 18.7500911,16 20,16 C21.5817216,16 23.162132,16.1974967 24.7396848,16.5916467 L25,16.66 L25,5.735 L24.6483274,5.6348257 C23.2684684,5.25830831 21.8914287,5.04956449 20.5157982,5.00782534 L20,5 Z" id="Combined-Shape" fill="#000000" fill-rule="nonzero"></path>
    </g>
</svg>