<?xml version="1.0" encoding="UTF-8"?>
<svg width="64px" height="64px" viewBox="0 0 64 64" version="1.1" xmlns="http://www.w3.org/2000/svg" xmlns:xlink="http://www.w3.org/1999/xlink">
    <title>org-unit</title>
    <g id="org-unit" stroke="none" stroke-width="1" fill="none" fill-rule="evenodd">
        <path d="M40,6 C42.209139,6 44,7.790861 44,10 L44,18 C44,20.209139 42.209139,22 40,22 L34,22 L34,28 L46,28 C47.0256717,28 47.8710143,28.7720804 47.9865445,29.7667577 L48,30 L48,36 L56,36 C58.209139,36 60,37.790861 60,40 L60,54 C60,56.209139 58.209139,58 56,58 L36,58 C33.790861,58 32,56.209139 32,54 L32,40 C32,37.790861 33.790861,36 36,36 L44,36 L44,32 L18,32 L18,38 L24,38 C26.209139,38 28,39.790861 28,42 L28,50 C28,52.209139 26.209139,54 24,54 L8,54 C5.790861,54 4,52.209139 4,50 L4,42 C4,39.790861 5.790861,38 8,38 L14,38 L14,30 C14,28.9743283 14.7720804,28.1289857 15.7667577,28.0134555 L16,28 L30,28 L30,22 L24,22 C21.790861,22 20,20.209139 20,18 L20,10 C20,7.790861 21.790861,6 24,6 L40,6 Z M56,40 L36,40 L36,54 L56,54 L56,40 Z M24,42 L8,42 L8,50 L24,50 L24,42 Z M40,10 L24,10 L24,18 L40,18 L40,10 Z" id="Combined-Shape" fill="#000000" fill-rule="nonzero"></path>
    </g>
</svg>