<?xml version="1.0" encoding="UTF-8"?>
<svg width="64px" height="64px" viewBox="0 0 64 64" version="1.1" xmlns="http://www.w3.org/2000/svg" xmlns:xlink="http://www.w3.org/1999/xlink">
    <title>org-structure</title>
    <g id="org-structure" stroke="none" stroke-width="1" fill="none" fill-rule="evenodd">
        <path d="M40,8 C42.209139,8 44,9.790861 44,12 L44,20 C44,22.209139 42.209139,24 40,24 L34,24 L34,30 L48,30 C49.0256717,30 49.8710143,30.7720804 49.9865445,31.7667577 L50,32 L50,40 L56,40 C58.209139,40 60,41.790861 60,44 L60,52 C60,54.209139 58.209139,56 56,56 L40,56 C37.790861,56 36,54.209139 36,52 L36,44 C36,41.790861 37.790861,40 40,40 L46,40 L46,34 L18,34 L18,40 L24,40 C26.209139,40 28,41.790861 28,44 L28,52 C28,54.209139 26.209139,56 24,56 L8,56 C5.790861,56 4,54.209139 4,52 L4,44 C4,41.790861 5.790861,40 8,40 L14,40 L14,32 C14,30.9743283 14.7720804,30.1289857 15.7667577,30.0134555 L16,30 L30,30 L30,24 L24,24 C21.790861,24 20,22.209139 20,20 L20,12 C20,9.790861 21.790861,8 24,8 L40,8 Z M24,44 L8,44 L8,52 L24,52 L24,44 Z M56,44 L40,44 L40,52 L56,52 L56,44 Z M40,12 L24,12 L24,20 L40,20 L40,12 Z" id="Combined-Shape" fill="#000000" fill-rule="nonzero"></path>
    </g>
</svg>