<svg xmlns="http://www.w3.org/2000/svg" width="32" height="32" viewBox="0 0 32 32">
  <g fill="none" fill-rule="evenodd">
    <path fill="#000" fill-rule="nonzero" d="M3,2 C3.51283584,2 3.93550716,2.38604019 3.99327227,2.88337887 L4,3 L4,25 C4,25.5522847 3.55228475,26 3,26 C2.48716416,26 2.06449284,25.6139598 2.00672773,25.1166211 L2,25 L2,3 C2,2.44771525 2.44771525,2 3,2 Z M3.29744583,14.0841502 C4.19937705,14.365144 5.09973386,14.5669308 5.99906331,14.6897862 C5.76549804,14.827285 5.56275662,15.0116567 5.40250031,15.2277548 C5.14668895,15.5727044 5,15.9983969 5,16.4454489 L5,16.4454489 L5.00088319,16.5567381 C4.41391496,16.4519173 3.82733756,16.3173352 3.24125804,16.1530459 L2.70255417,15.9936276 L3.29744583,14.0841502 Z M14.9,2.91666667 C16.7020786,2.91666667 18.5022545,3.19708622 20.2974458,3.75637241 C20.67735,3.87473035 20.9471426,4.20519205 20.9930561,4.59315259 L21,4.71111111 L21.00195,5.59551248 C20.9306263,5.52453698 20.8540872,5.45892894 20.7730324,5.39922046 C20.4292381,5.14596688 20.0046704,5 19.5589376,5 L19.5589376,5 L16.5066725,5.00062838 C16.1485511,4.96320617 15.7905769,4.93830212 15.4327152,4.9258988 L14.9,4.91666667 C14.2202123,4.91666667 13.6805344,5.01539967 12.8262199,5.29915994 L12.3707376,5.45685852 L11.5410791,5.76224568 L10.976743,5.96314653 C9.8238365,6.35920097 9.09012583,6.50555556 8.1,6.50555556 C6.47812924,6.50555556 4.85779973,6.27841572 3.24125804,5.82526812 L2.70255417,5.66584981 L3.29744583,3.75637241 C4.90225446,4.25634547 6.50207862,4.50555556 8.1,4.50555556 C8.83643667,4.50555556 9.40843889,4.3896814 10.3941768,4.04821754 L10.8806158,3.87420112 L11.149816,3.77443017 C11.3624869,3.69492185 11.5615458,3.62188804 11.7494528,3.55495246 L12.2821785,3.37206402 C13.2905593,3.04137116 13.9860377,2.91666667 14.9,2.91666667 Z"/>
    <g fill="#000" fill-rule="nonzero" transform="translate(6 6)">
      <path d="M13.5589376,0 L10.4441703,0 C9.98422367,0 9.57885773,0.298184124 9.44786397,0.74340756 L9.35758061,1.0580136 C9.27443882,1.37351551 9.21277072,1.69145137 9.17301741,2.00953814 L9.14525464,2.28085714 L9.03617836,2.31216871 C8.41652666,2.50134926 7.81874232,2.74879469 7.2479281,3.05274566 L7.15078345,3.10628571 L6.9405954,2.93563416 C6.60162368,2.67264026 6.23260818,2.43592663 5.83647478,2.22766246 C5.42126843,2.01992994 4.93515989,2.09355707 4.61641442,2.41219138 L2.41317461,4.61466283 C2.09428803,4.9334382 2.02056904,5.41981384 2.22049881,5.81953392 L2.38310421,6.11523103 C2.55087703,6.40524655 2.73410842,6.67820093 2.93240492,6.93394716 L3.1069867,7.14857143 L3.0535112,7.24611777 C2.74923209,7.81738915 2.5017554,8.41564399 2.31264147,9.0364648 L2.28074251,9.14742857 L2.26368071,9.14859455 C1.76297429,9.19401914 1.25144905,9.29568775 0.737535644,9.45091678 C0.29679673,9.58047632 0,9.99128233 0,10.4454489 L0,13.5545511 C0,14.0146494 0.29837104,14.4199865 0.743599022,14.5508903 L1.04515884,14.638075 C1.34781802,14.7188127 1.6534401,14.7801253 1.95900867,14.8212533 L2.28159961,14.856 L2.31301443,14.9669076 C2.50227519,15.5863911 2.74982419,16.1840098 3.05390012,16.7546616 L3.1069867,16.8497143 L2.94289488,17.0520644 C2.68022651,17.3903977 2.44225894,17.7615692 2.22976031,18.1624831 C2.01894397,18.5576191 2.09180201,19.0383145 2.3894305,19.3606329 L3.5112453,20.4876012 L4.61767598,21.5890671 C4.93515989,21.9064429 5.42126843,21.9800701 5.82082425,21.7803618 L6.11660439,21.6178239 C6.40670241,21.45012 6.67973765,21.2669615 6.93556236,21.0687416 L7.15078345,20.8928571 L7.24915807,20.9481903 C7.82035704,21.2526015 8.4172031,21.4997837 9.03667496,21.6885456 L9.14611174,21.7191429 L9.17359078,21.9823144 C9.22699219,22.4058549 9.31950996,22.8338634 9.4499672,23.2636295 C9.57932143,23.7033919 9.99015283,24 10.4441703,24 L13.5589376,24 C14.0188843,24 14.4242502,23.7018159 14.555244,23.2565924 L14.6455273,22.9419864 C14.7286691,22.6264845 14.7903372,22.3085486 14.8300905,21.9904619 L14.8569676,21.7191429 L14.96902,21.6879201 C15.5905108,21.4986301 16.1887538,21.2509734 16.7586321,20.9466772 L16.8522958,20.8928571 L17.0637778,21.0649873 C17.4032575,21.3281855 17.772339,21.5648867 18.1664016,21.7722157 C18.5592777,21.9816912 19.0397067,21.9089243 19.3619819,21.6115433 L20.4860232,20.4888624 L21.5866118,19.384076 C21.9042394,19.0665618 21.9779584,18.5801862 21.7780286,18.1804661 L21.6134125,17.8844713 C21.4440814,17.594359 21.260627,17.3218703 21.0632414,17.0667902 L20.8900929,16.8531429 L20.9465403,16.7544952 C21.2527049,16.1824798 21.5012137,15.5840675 21.6891129,14.96568 L21.7180513,14.8602857 L21.7343859,14.8601114 C22.2438143,14.8139006 22.7580979,14.7103397 23.2680559,14.5514952 C23.7017307,14.4241026 23.9985274,14.0132966 23.9985274,13.55913 L23.9985274,10.4500279 C24.024421,10.0079062 23.7061601,9.58635759 23.2549284,9.45368866 L22.9537772,9.36722496 C22.652049,9.28727938 22.3487933,9.22693135 22.0458418,9.18656973 L21.7163371,9.15085714 L21.6857982,9.04313494 C21.4967947,8.42415445 21.2495289,7.82635937 20.9455906,7.25414778 L20.8892358,7.15371429 L21.0585155,6.94628627 C21.3212268,6.60763711 21.558902,6.23804113 21.7687671,5.84209587 C21.9779584,5.42439278 21.9042394,4.93801714 21.5853528,4.61924178 L20.4860232,3.52029552 L19.3879525,2.41803144 C19.0679481,2.09813601 18.5818395,2.02450889 18.1822837,2.22421712 L17.8862061,2.38876482 C17.5960115,2.5580263 17.323442,2.74140781 17.0682836,2.93871715 L16.85401,3.11228571 L16.7526882,3.05541848 C16.1803171,2.74996464 15.5823275,2.50132025 14.9642168,2.31191967 L14.8569676,2.28085714 L14.8296686,2.00944418 C14.7761943,1.58348105 14.6832793,1.15550216 14.5515547,0.731204293 C14.4237865,0.296608091 14.0129551,0 13.5589376,0 Z M12.875551,1.92203638 C12.9471602,2.30571569 12.9736349,2.62377384 12.9691624,2.93450465 L12.9691624,2.93450465 L12.9567934,3.79385116 L13.7954842,3.98138761 C14.71865,4.18781321 15.5944589,4.55215696 16.3994859,5.06426823 L16.3994859,5.06426823 L17.1221633,5.52399348 L17.7158891,4.91806913 C18.0432968,4.61023976 18.2496068,4.43976065 18.4447374,4.30147724 L18.4447374,4.30147724 L19.137903,4.87931485 L19.748044,5.48886232 C19.52214,5.81951583 19.3157205,6.06460593 19.0938307,6.27976392 L19.0938307,6.27976392 L18.4766954,6.87817643 L18.936671,7.60439251 C19.4468271,8.40983426 19.8087717,9.28533277 20.0165332,10.2138249 L20.0165332,10.2138249 L20.2014339,11.0401515 L21.1317734,11.0399602 C21.5472817,11.0565067 21.7976783,11.0816161 22.0177019,11.1195923 L22.0177019,11.1195923 L22.0780507,12.8775034 C21.7241866,12.9451974 21.4216433,12.9736182 21.12599,12.9736182 L21.12599,12.9736182 L20.1977917,12.9736182 L20.0155768,13.8042286 C19.8140568,14.722839 19.4510452,15.5962265 18.9392688,16.3961057 L18.9392688,16.3961057 L18.4762139,17.1198359 L19.0842476,17.715214 C19.3892516,18.0393897 19.5594551,18.2447978 19.697081,18.4382174 L19.697081,18.4382174 L18.5094394,19.7462279 C18.1851497,19.5242194 17.9413639,19.3184907 17.725381,19.0959737 L17.725381,19.0959737 L17.1244043,18.4768157 L16.39744,18.9416155 C15.6033169,19.4493547 14.7294555,19.8106821 13.7964438,20.0183983 L13.7964438,20.0183983 L12.9568292,20.2053215 L12.9692146,21.0570827 C12.9571636,21.4994677 12.9329602,21.7635709 12.8938456,21.996129 L12.8938456,21.996129 L11.1286906,22.0779463 C11.0564689,21.6887857 11.0295554,21.3726955 11.0339471,21.0653867 L11.0339471,21.0653867 L11.0462381,20.2053124 L10.2066642,20.0183983 C9.27690715,19.8114067 8.40620987,19.4508703 7.60362206,18.9403107 L7.60362206,18.9403107 L6.87726135,18.4782424 L6.28367728,19.0900945 C5.95826895,19.3984336 5.75330295,19.5684899 5.55945607,19.7056709 L5.55945607,19.7056709 L4.85791006,19.1270983 L4.2471295,18.5140558 C4.45311521,18.209697 4.66835391,17.9517366 4.90091428,17.7284645 L4.90091428,17.7284645 L5.52562406,17.1287049 L5.06056452,16.3981519 C4.55180839,15.5989568 4.18988797,14.7244163 3.98199422,13.795333 L3.98199422,13.795333 L3.79709308,12.9690044 L2.8806515,12.969204 C2.46077575,12.9521555 2.2075809,12.9263035 1.98504062,12.8874359 L1.98504062,12.8874359 L1.92033339,11.1300509 C2.27429851,11.0637456 2.57221931,11.0355396 2.85879583,11.0355396 L2.85879583,11.0355396 L3.79790875,11.0355396 L3.98220863,10.2082856 C4.18984391,9.27628765 4.55129002,8.40185748 5.06056452,7.60184807 L5.06056452,7.60184807 L5.52322083,6.87507027 L4.91069392,6.28124572 C4.60566369,5.95955461 4.43592431,5.75561882 4.29948789,5.56373538 L4.29948789,5.56373538 L5.49333292,4.25286662 C5.81858487,4.47584514 6.06151933,4.68120961 6.27761433,4.90391027 L6.27761433,4.90391027 L6.87718344,5.52180719 L7.60362206,5.05968929 C8.40316724,4.55106525 9.27810705,4.18923331 10.2076238,3.98138761 L10.2076238,3.98138761 L11.046267,3.79386177 L11.0338933,2.94291734 C11.0459443,2.50053416 11.0701476,2.23643132 11.1092619,2.00387393 L11.1092619,2.00387393 L12.875551,1.92203638 Z"/>
      <path d="M12,6 C8.68965517,6 6,8.68965517 6,12 C6,15.3059428 8.69405723,18 12,18 C15.3059428,18 18,15.3103448 18,12 C18,8.68965517 15.3059428,6 12,6 Z M12,16 C9.79267342,16 8,14.2073266 8,12 C8,9.79579111 9.79579111,8 12,8 C14.2042089,8 16,9.79267342 16,12 C16,14.2042089 14.2042089,16 12,16 Z"/>
    </g>
  </g>
</svg>
