<?xml version="1.0" encoding="UTF-8"?>
<svg width="32px" height="32px" viewBox="0 0 32 32" version="1.1" xmlns="http://www.w3.org/2000/svg" xmlns:xlink="http://www.w3.org/1999/xlink">
    <title>org-feature</title>
    <g id="org-feature" stroke="none" stroke-width="1" fill="none" fill-rule="evenodd">
        <path d="M3,2 C3.51283584,2 3.93550716,2.38604019 3.99327227,2.88337887 L4,3 L4.00036714,3.95941597 C5.36957823,4.32383135 6.73548286,4.50555556 8.1,4.50555556 C8.83643667,4.50555556 9.40843889,4.3896814 10.3941768,4.04821754 L10.8806158,3.87420112 L11.149816,3.77443017 C11.3624869,3.69492185 11.5615458,3.62188804 11.7494528,3.55495246 L12.2821785,3.37206402 C13.2905593,3.04137116 13.9860377,2.91666667 14.9,2.91666667 C16.7020786,2.91666667 18.5022545,3.19708622 20.2974458,3.75637241 C20.67735,3.87473035 20.9471426,4.20519205 20.9930561,4.59315259 L21,4.71111111 L21.0014395,9.26539974 C20.6949112,9.08954999 20.3478193,9 20,9 C19.6049602,9 19.2108587,9.11551541 18.8760587,9.34178435 L19,9.265 L19,5.465 L18.6333864,5.36966746 C17.5648894,5.11060111 16.4983033,4.96283159 15.4327152,4.9258988 L14.9,4.91666667 C14.2202123,4.91666667 13.6805344,5.01539967 12.8262199,5.29915994 L12.3707376,5.45685852 L11.5410791,5.76224568 L10.976743,5.96314653 C9.8238365,6.35920097 9.09012583,6.50555556 8.1,6.50555556 C6.73189134,6.50555556 5.36487935,6.34393299 4.00031249,6.02136734 L4.00036714,14.2871937 C5.36957823,14.6516091 6.73548286,14.8333333 8.1,14.8333333 C8.7797877,14.8333333 9.31946556,14.7346003 10.1737801,14.4508401 L10.6292624,14.2931415 L11.4589209,13.9877543 L12.023257,13.7868535 C13.1761635,13.390799 13.9098742,13.2444444 14.9,13.2444444 C15.5654342,13.2444444 16.230609,13.2826803 16.8953691,13.3590739 L16.1175968,15.2926693 C15.7115749,15.2605109 15.3057261,15.2444444 14.9,15.2444444 C14.1635633,15.2444444 13.5915611,15.3603186 12.6058232,15.7017825 L12.386,15.779 L10.1939089,15.9314814 L10.014972,15.9658041 C9.6655207,16.0490462 9.36707794,16.2180782 9.12816954,16.4406707 C9.01255392,16.5483904 8.91098106,16.6690627 8.82481371,16.7993045 C8.59498968,16.8235442 8.35607017,16.8333333 8.1,16.8333333 C6.73189134,16.8333333 5.36487935,16.6717108 4.00031249,16.3491451 L4,25 C4,25.5522847 3.55228475,26 3,26 C2.48716416,26 2.06449284,25.6139598 2.00672773,25.1166211 L2,25 L2,3 C2,2.44771525 2.44771525,2 3,2 Z" id="Combined-Shape" fill="#000000" fill-rule="nonzero"></path>
        <path d="M16.718,16.483 L10.4214937,16.9121407 L10.3072963,16.9260306 C9.4926576,17.070216 9.18675691,18.124206 9.84804221,18.6770429 L14.69,22.725 L13.1522936,28.8464829 L13.1308769,28.9547258 C13.0121664,29.7763668 13.9220987,30.3962037 14.653609,29.9372524 L20,26.582 L25.346391,29.9372524 L25.442718,29.9910698 C26.1874615,30.3578712 27.0581459,29.6840143 26.8477064,28.8464829 L25.309,22.725 L30.1519578,18.6770429 L30.2361812,18.5986822 C30.8104877,18.0032012 30.4384467,16.9707014 29.5785063,16.9121407 L23.281,16.483 L20.927864,10.6270812 C20.5918228,9.79097295 19.4081772,9.79097295 19.072136,10.6270812 L16.718,16.483 Z M20,13.681 L21.6597968,17.8113094 L21.7143657,17.9256293 C21.8777091,18.2185426 22.1794939,18.412911 22.5197196,18.4360799 L26.96,18.738 L23.5455304,21.5932009 L23.4536685,21.6804259 C23.2255672,21.9262898 23.1339685,22.2733674 23.2170691,22.6041008 L24.301,26.92 L20.5314615,24.555309 L20.4201188,24.4948971 C20.1158011,24.353936 19.7574052,24.3740733 19.4685385,24.555309 L15.698,26.92 L16.7829309,22.6041008 L16.8059792,22.4795393 C16.8460018,22.1465566 16.7160997,21.8119246 16.4544696,21.5932009 L13.039,18.738 L17.4802804,18.4360799 C17.8630343,18.4100149 18.1971365,18.1672755 18.3402032,17.8113094 L20,13.681 Z" id="Star" fill="#000000" fill-rule="nonzero"></path>
    </g>
</svg>