<?xml version="1.0" encoding="UTF-8"?>
<svg width="64px" height="64px" viewBox="0 0 64 64" version="1.1" xmlns="http://www.w3.org/2000/svg" xmlns:xlink="http://www.w3.org/1999/xlink">
    <title>org-unit-settings</title>
    <g id="org-unit-settings" stroke="none" stroke-width="1" fill="none" fill-rule="evenodd">
        <path d="M40,4 C42.209139,4 44,5.790861 44,8 L44,16 C44,18.209139 42.209139,20 40,20 L34,20 L34,26 L40.6822457,25.999685 C40.6234715,26.2417581 40.5628673,26.5016087 40.4864306,26.8099103 L40.4234787,27.0602581 C39.7847881,27.276937 39.1101746,27.5063969 38.3150173,27.7138129 C37.7731532,27.3432237 37.2021259,26.9997158 36.5678225,26.6666935 C35.7688085,26.2669376 34.9013169,26.143568 34.0815781,26.26755 C33.2405619,26.3947501 32.4472749,26.7817288 31.8188619,27.4099226 L31.8188619,27.4099226 L29.226,30 L18,30 L18,36 L24,36 C25.7494103,36 27.2365181,37.1230501 27.7797002,38.6875269 C27.5180717,39.2524165 27.2746947,39.8429228 27.0406206,40.4775997 C26.3311423,40.6002504 25.6149438,40.7703399 24.8967707,40.9872661 C24.5789646,41.0806669 24.2785145,41.2126154 24.0001529,41.3771086 L24,40 L8,40 L8,48 L22,48 L22,51.1091021 L22.0072765,51.35442 C22.0203521,51.5743577 22.0509057,51.79039 22.0977701,52.0009165 L8,52 C5.790861,52 4,50.209139 4,48 L4,40 C4,37.790861 5.790861,36 8,36 L14,36 L14,28 C14,26.9743283 14.7720804,26.1289857 15.7667577,26.0134555 L16,26 L30,26 L30,20 L24,20 C21.790861,20 20,18.209139 20,16 L20,8 C20,5.790861 21.790861,4 24,4 L40,4 Z M40,8 L24,8 L24,16 L40,16 L40,8 Z" id="Combined-Shape" fill="#000000" fill-rule="nonzero"></path>
        <path d="M51.1178753,24 C52.0259103,24 52.8475731,24.5932162 53.1031094,25.4624086 C53.3665586,26.3110043 53.5523885,27.1669621 53.6593372,28.0188884 L53.6593372,28.0188884 L53.7139351,28.5617143 L53.9284336,28.6238393 C55.1646549,29.0026405 56.3606342,29.4999293 57.5053764,30.110837 L57.5053764,30.110837 L57.7080201,30.2245714 L58.1365671,29.8774343 C58.646884,29.4828156 59.192023,29.1160526 59.7724122,28.7775296 L59.7724122,28.7775296 L60,28.65 L60.0015312,33.3152499 C59.8842502,33.4187152 59.7583037,33.5326537 59.6211768,33.6594714 L59.4317782,33.8361383 L58.2443266,35.047987 L56.7989718,34.1285365 L56.3935362,33.8786496 C54.8963237,32.9850593 53.283439,32.3412222 51.5909684,31.9627752 L51.5909684,31.9627752 L49.9135869,31.5877023 L49.9383249,29.8690093 L49.9382863,29.6014315 C49.9302992,29.0631218 49.8738606,28.5018087 49.7511019,27.8440728 L49.7511019,27.8440728 L46.2185238,28.0077479 L46.1959444,28.1494685 C46.1308569,28.5820694 46.0894784,29.089545 46.0677867,29.8858347 L46.0677867,29.8858347 L46.0925341,31.5877235 L44.4152475,31.9627752 L43.9527873,32.0731058 C42.2656147,32.5011161 40.6730769,33.1869012 39.2072441,34.1193786 L39.2072441,34.1193786 L37.7543669,35.0436144 L36.5552287,33.8078205 L36.3663944,33.6188533 C35.9808591,33.2443491 35.5442406,32.8879821 34.9866658,32.5057332 L34.9866658,32.5057332 L32.5989758,35.1274708 L32.6830398,35.2435354 C32.9424502,35.5951671 33.2723334,35.9834475 33.8213878,36.5624914 L33.8213878,36.5624914 L35.0464417,37.7501405 L34.121129,39.2036961 L33.8726582,39.6067822 C32.9842343,41.0959912 32.3450819,42.7079083 31.9644173,44.4165713 L31.9644173,44.4165713 L31.5958175,46.0710793 L29.7175917,46.0710793 L29.4287105,46.0758719 C28.9427112,46.0919999 28.4306086,46.1495929 27.8406668,46.2601017 L27.8406668,46.2601017 L27.9700812,49.7748717 L28.1210853,49.7998309 C28.5318084,49.8638794 29.0148572,49.9080995 29.761303,49.9384079 L29.761303,49.9384079 L31.5941862,49.9380088 L31.9639884,51.590666 L32.0743448,52.0529109 C32.5024555,53.7392996 33.1884095,55.3311128 34.121129,56.7963039 L34.121129,56.7963039 L35.0512481,58.2574098 L33.8018286,59.4569289 L33.5720804,59.6860909 C33.4746625,59.7870061 33.3787157,59.891295 33.2840806,59.999189 L28.6370559,59.9987852 C29.0158493,59.3209722 29.432423,58.6880934 29.8857898,58.1041288 L29.8857898,58.1041288 L30.2139734,57.6994286 L30.1078002,57.5093232 C29.4996484,56.3680197 29.0045504,55.1727822 28.6260289,53.9338152 L28.6260289,53.9338152 L28.5631992,53.712 L27.9180173,53.6425066 C27.3068802,53.5602505 26.695636,53.4376255 26.0903177,53.27615 L26.0903177,53.27615 L25.487198,53.1017806 C24.5967421,52.8399731 24,52.0292987 24,51.1091021 L24,51.1091021 L24,44.8908979 C24,43.9825647 24.5935935,43.1609526 25.4750713,42.9018336 C26.5028981,42.5913755 27.5259486,42.3880383 28.5273614,42.2971891 L28.5273614,42.2971891 L28.561485,42.2948571 L28.6252829,42.0729296 C29.0035108,40.831288 29.4984642,39.6347783 30.1070224,38.4922355 L30.1070224,38.4922355 L30.2139734,38.2971429 L29.8648098,37.8678943 C29.4682168,37.3564019 29.1017541,36.8104931 28.7662084,36.2304621 L28.7662084,36.2304621 L28.4409976,35.6390678 C28.0411381,34.8396277 28.1885761,33.8668764 28.8263492,33.2293257 L28.8263492,33.2293257 L33.2328288,28.8243828 C33.8703198,28.1871141 34.8425369,28.0398599 35.6729496,28.4553249 C36.4652164,28.8718533 37.2032474,29.3452805 37.8811908,29.8712683 L37.8811908,29.8712683 L38.3015669,30.2125714 L38.4958562,30.1054913 C39.6374846,29.4975894 40.8330533,29.0026985 42.0723567,28.6243374 L42.0723567,28.6243374 L42.2905093,28.5617143 L42.3460348,28.0190763 C42.4255414,27.3829027 42.5488776,26.747031 42.7151612,26.1160272 L42.7151612,26.1160272 L42.8957279,25.4868151 C43.1577155,24.5963682 43.9684473,24 44.8883406,24 L44.8883406,24 Z M48,36 C54.6118855,36 60,41.3793103 60,48 C60,54.6206897 54.6118855,60 48,60 C41.3881145,60 36,54.6118855 36,48 C36,41.3793103 41.3793103,36 48,36 Z M48,40 C43.5915822,40 40,43.5915822 40,48 C40,52.4146532 43.5853468,56 48,56 C52.4084178,56 56,52.4084178 56,48 C56,43.5853468 52.4084178,40 48,40 Z" id="Combined-Shape" fill="#000000" fill-rule="nonzero"></path>
    </g>
</svg>