<?xml version="1.0" encoding="UTF-8"?>
<svg width="32px" height="32px" viewBox="0 0 32 32" version="1.1" xmlns="http://www.w3.org/2000/svg" xmlns:xlink="http://www.w3.org/1999/xlink">
    <title>orgs</title>
    <g id="orgs" stroke="none" stroke-width="1" fill="none" fill-rule="evenodd">
        <path d="M12,6 C12.5128358,6 12.9355072,6.38604019 12.9932723,6.88337887 L13,7 L13.0003671,7.95941597 C14.3695782,8.32383135 15.7354829,8.50555556 17.1,8.50555556 C17.8364367,8.50555556 18.4084389,8.3896814 19.3941768,8.04821754 L19.8806158,7.87420112 L20.149816,7.77443017 C20.3624869,7.69492185 20.5615458,7.62188804 20.7494528,7.55495246 L21.2821785,7.37206402 C22.2905593,7.04137116 22.9860377,6.91666667 23.9,6.91666667 C25.7020786,6.91666667 27.5022545,7.19708622 29.2974458,7.75637241 C29.67735,7.87473035 29.9471426,8.20519205 29.9930561,8.59315259 L30,8.71111111 L30,19.0388889 C30,19.7131655 29.3463122,20.1941884 28.7025542,19.9936276 C27.0977455,19.4936545 25.4979214,19.2444444 23.9,19.2444444 C23.1635633,19.2444444 22.5915611,19.3603186 21.6058232,19.7017825 L21.1193842,19.8757989 L20.850184,19.9755698 C20.6375131,20.0550782 20.4384542,20.128112 20.2505472,20.1950475 L19.7178215,20.377936 C18.7094407,20.7086288 18.0139623,20.8333333 17.1,20.8333333 C15.7318913,20.8333333 14.3648794,20.6717108 13.0003125,20.3491451 L13,29 C13,29.5522847 12.5522847,30 12,30 C11.4871642,30 11.0644928,29.6139598 11.0067277,29.1166211 L11,29 L11,7 C11,6.44771525 11.4477153,6 12,6 Z M23.9,8.91666667 C23.2202123,8.91666667 22.6805344,9.01539967 21.8262199,9.29915994 L21.3707376,9.45685852 L20.5410791,9.76224568 L19.976743,9.96314653 C18.8238365,10.359201 18.0901258,10.5055556 17.1,10.5055556 C15.7318913,10.5055556 14.3648794,10.343933 13.0003125,10.0213673 L13.0003671,18.2871937 C14.3695782,18.6516091 15.7354829,18.8333333 17.1,18.8333333 C17.7797877,18.8333333 18.3194656,18.7346003 19.1737801,18.4508401 L19.6292624,18.2931415 L20.4589209,17.9877543 L21.023257,17.7868535 C22.1761635,17.390799 22.9098742,17.2444444 23.9,17.2444444 C25.161455,17.2444444 26.4219777,17.38185 27.680511,17.6561285 L28,17.731 L28,9.465 L27.6333864,9.36966746 C26.5648894,9.11060111 25.4983033,8.96283159 24.4327152,8.9258988 L23.9,8.91666667 Z" id="Combined-Shape" fill="#000000" fill-rule="nonzero"></path>
        <path d="M3,2 C3.51283584,2 3.93550716,2.38604019 3.99327227,2.88337887 L4,3 L4.00036714,3.95941597 C5.36957823,4.32383135 6.73548286,4.50555556 8.1,4.50555556 C8.83643667,4.50555556 9.40843889,4.3896814 10.3941768,4.04821754 L10.8806158,3.87420112 L11.149816,3.77443017 C11.3624869,3.69492185 11.5615458,3.62188804 11.7494528,3.55495246 L12.2821785,3.37206402 C13.2905593,3.04137116 13.9860377,2.91666667 14.9,2.91666667 C16.7020786,2.91666667 18.5022545,3.19708622 20.2974458,3.75637241 C20.67735,3.87473035 20.9471426,4.20519205 20.9930561,4.59315259 L21,4.71111111 L20.9995542,6.33266667 L18.9995542,6.99966667 L19,5.465 L18.6333864,5.36966746 C17.5648894,5.11060111 16.4983033,4.96283159 15.4327152,4.9258988 L14.9,4.91666667 C14.2202123,4.91666667 13.6805344,5.01539967 12.8262199,5.29915994 L12.3707376,5.45685852 L11.5410791,5.76224568 L10.976743,5.96314653 C9.8238365,6.35920097 9.09012583,6.50555556 8.1,6.50555556 C6.73189134,6.50555556 5.36487935,6.34393299 4.00031249,6.02136734 L4.00036714,14.2871937 C5.36957823,14.6516091 6.73548286,14.8333333 8.1,14.8333333 C8.73182214,14.8333333 9.24260908,14.7480419 9.99747946,14.5081729 L9.99877966,16.5920437 C9.34061983,16.7641093 8.7809506,16.8333333 8.1,16.8333333 C6.73189134,16.8333333 5.36487935,16.6717108 4.00031249,16.3491451 L4,25 C4,25.5522847 3.55228475,26 3,26 C2.48716416,26 2.06449284,25.6139598 2.00672773,25.1166211 L2,25 L2,3 C2,2.44771525 2.44771525,2 3,2 Z" id="Combined-Shape" fill="#000000" fill-rule="nonzero"></path>
    </g>
</svg>