<?xml version="1.0" encoding="UTF-8"?>
<svg width="64px" height="64px" viewBox="0 0 64 64" version="1.1" xmlns="http://www.w3.org/2000/svg" xmlns:xlink="http://www.w3.org/1999/xlink">
    <title>origin</title>
    <g id="origin" stroke="none" stroke-width="1" fill="none" fill-rule="evenodd">
        <path d="M5.75722465,51.526 L5.76022465,51.532 L5.75718116,51.5264007 L5.74166975,51.5 C5.73664898,51.4913038 5.73170094,51.4825855 5.72705072,51.4742433 C5.71286584,51.4488174 5.69923187,51.4230823 5.68623422,51.3972905 L5.66698393,51.3579441 L5.66698393,51.3579441 L5.6486417,51.3181312 C5.64066684,51.3003691 5.63294784,51.2824862 5.62548849,51.264816 C5.61233613,51.2331454 5.60005779,51.2012803 5.58875296,51.1690563 L5.58875296,51.1690563 L5.57033834,51.1154558 C5.55485939,51.067747 5.54127095,51.0197154 5.52954656,50.9714597 L5.52954656,50.9714597 L5.49794875,50.8138932 L5.49794875,50.8138932 L5.47923544,50.6555944 C5.47879882,50.6499979 5.47838575,50.644397 5.47807441,50.6385775 C5.47495493,50.5931675 5.47339948,50.5477589 5.47322465,50.5026375 L5.47322465,50.5026375 L5.47381176,50.4606473 C5.4746139,50.4217601 5.47654949,50.3829508 5.47943437,50.3443034 L5.47943437,50.3443034 L5.48394574,50.2965799 C5.48783076,50.2588867 5.49278023,50.2213362 5.4987394,50.1836555 L5.4987394,50.1836555 L5.50838544,50.1290599 L5.50838544,50.1290599 L5.51043916,50.1183643 L5.5176271,50.0829988 L5.5176271,50.0829988 L5.54186891,49.9823619 L7.37199592,43.1522349 L7.42375077,42.9874474 C7.77323652,42.0211996 8.81070779,41.4671842 9.82148567,41.7380213 L9.82148567,41.7380213 L9.98627318,41.7897762 C10.952521,42.1392619 11.5065363,43.1767332 11.2356992,44.1875111 L11.2356992,44.1875111 L10.6548912,46.3539492 L27.0759182,36.87281 C27.0260229,36.5893849 27,36.2977314 27,36 C27,33.949887 28.2338472,32.1879545 29.9994676,31.4162763 L30,11.828 L28.4142136,13.4142136 C27.6742728,14.1541543 26.4987886,14.1930986 25.7130012,13.5310463 L25.5857864,13.4142136 C24.8458457,12.6742728 24.8069014,11.4987886 25.4689537,10.7130012 L25.5857864,10.5857864 L30.5857864,5.58578644 L30.6962247,5.483 L30.6762247,5.5 L30.6878531,5.49056628 C30.6933306,5.48580067 30.6988343,5.48106438 30.7043639,5.47635766 L30.7385471,5.44778839 L30.7385471,5.44778839 C30.7681999,5.42378727 30.7982449,5.40072562 30.8289456,5.3785145 C30.8419114,5.36894018 30.8549238,5.35975619 30.8680197,5.35074581 C30.9000469,5.32892372 30.9326889,5.30784281 30.9659651,5.28770454 C30.9778717,5.28030034 30.9899252,5.273182 31.0020362,5.26620096 C31.0411999,5.24379168 31.0813026,5.22243442 31.1221885,5.20243099 L31.1375062,5.19492799 L31.1375062,5.19492799 C31.2330671,5.14926784 31.332904,5.11086035 31.4362091,5.08056608 L31.4521828,5.07609351 L31.4521828,5.07609351 L31.4612247,5.073 L31.5082328,5.06090854 C31.5324192,5.05479364 31.556781,5.04911937 31.5813092,5.04389476 C31.5996218,5.04016953 31.6182592,5.03647223 31.636936,5.03304202 C31.6704952,5.02672028 31.7042303,5.02142109 31.7382341,5.01697605 C31.7572666,5.01460094 31.7766131,5.01234436 31.7959829,5.01036977 C31.8251112,5.00733091 31.8541383,5.00502542 31.8833332,5.00334615 C31.9121684,5.00170656 31.9412727,5.00064635 31.9703845,5.00021791 L31.9992247,5 L32.1112247,5.003 L32.0892247,5.002 L32.1025377,5.00258306 L32.1025377,5.00258306 L32.1132247,5.003 L32.1142247,5.003 L32.2037348,5.01024939 L32.2037348,5.01024939 C32.2233869,5.01234436 32.2427334,5.01460094 32.2620499,5.01713953 C32.2957697,5.02142109 32.3295048,5.02672028 32.3629491,5.03285138 L32.4189701,5.04413391 L32.4189701,5.04413391 L32.4757013,5.05693925 L32.4757013,5.05693925 L32.5320114,5.07153333 L32.5636922,5.08068802 C32.5531108,5.07759059 32.5425089,5.07458233 32.5320114,5.07153333 C32.6396288,5.10115565 32.7436136,5.13954497 32.8431495,5.18588504 L32.8624938,5.19492799 C32.8675589,5.19734816 32.8726159,5.19979086 32.8776647,5.20225609 C32.9186974,5.22243442 32.9588001,5.24379168 32.9980613,5.26644438 C33.0100748,5.273182 33.0221283,5.28030034 33.034122,5.287556 C33.0673111,5.30784281 33.0999531,5.32892372 33.1319239,5.35091025 C33.1450762,5.35975619 33.1580886,5.36894018 33.1710143,5.37829776 C33.2017551,5.40072562 33.2318001,5.42378727 33.2611548,5.44766487 C33.2700128,5.45476204 33.2785284,5.46181714 33.2869988,5.46895369 L33.2956361,5.47635766 L33.3121469,5.49056628 L33.3121469,5.49056628 L33.4142136,5.58578644 L38.4142136,10.5857864 C39.1952621,11.366835 39.1952621,12.633165 38.4142136,13.4142136 C37.6742728,14.1541543 36.4987886,14.1930986 35.7130012,13.5310463 L35.5857864,13.4142136 L34,11.829 L34.000321,31.416184 C35.7660544,32.1878139 37,33.9498052 37,36 C37,36.2977314 36.9739771,36.5893849 36.9240818,36.87281 L53.3447428,46.3525832 L52.7643008,44.1875111 C52.4934637,43.1767332 53.047479,42.1392619 54.0137268,41.7897762 L54.1785143,41.7380213 C55.1892922,41.4671842 56.2267635,42.0211996 56.5762492,42.9874474 L56.6280041,43.1522349 L58.4581311,49.9823619 L58.4912247,50.129 L58.4936105,50.1397674 L58.4936105,50.1397674 L58.5012606,50.1836555 L58.5012606,50.1836555 C58.5072198,50.2213362 58.5121692,50.2588867 58.5160543,50.2965799 C58.517863,50.3125958 58.5193103,50.3284569 58.5205656,50.3443034 C58.5234505,50.3829508 58.5253861,50.4217601 58.5261882,50.4606473 C58.5266472,50.4746608 58.5267851,50.4886586 58.5267753,50.5026375 C58.5266005,50.5477589 58.5250451,50.5931675 58.5219256,50.6385775 C58.5216142,50.644397 58.5212012,50.6499979 58.5207646,50.6555944 L58.5020512,50.8138932 L58.5020512,50.8138932 L58.4704534,50.9714597 L58.4663399,50.9875296 L58.4663399,50.9875296 L58.4704534,50.9714597 C58.458729,51.0197154 58.4451406,51.067747 58.4296617,51.1154558 L58.411247,51.1690563 L58.411247,51.1690563 C58.3999422,51.2012803 58.3876639,51.2331454 58.3745115,51.264816 C58.3670522,51.2824862 58.3593332,51.3003691 58.3513583,51.3181312 C58.3393961,51.3449426 58.3268463,51.371299 58.3136671,51.3974867 L58.2734382,51.4733664 L58.2734382,51.4733664 C58.2683655,51.4824685 58.2633847,51.4912454 58.2583302,51.5 L58.2433338,51.5255388 L58.2205372,51.5627906 L58.2205372,51.5627906 L58.2042247,51.587 L58.1475866,51.6713148 L58.1475866,51.6713148 C58.1359463,51.6872865 58.1243188,51.7029128 58.112462,51.7183721 C58.0918942,51.7454335 58.0704374,51.7719994 58.0484056,51.7978974 C58.0358739,51.8123612 58.0233533,51.826653 58.0106241,51.8407718 C57.9848323,51.8696544 57.9579514,51.8977649 57.9303749,51.9249687 C57.9224856,51.9325353 57.9145794,51.9402127 57.9066063,51.9478277 L57.9172247,51.936 L57.8069886,52.0368667 C57.7645087,52.0722587 57.7207241,52.1057311 57.6757743,52.1372464 L57.6582707,52.1494776 C57.6536423,52.152654 57.6489983,52.1558121 57.644339,52.1589519 C57.6063477,52.184398 57.5678004,52.2084494 57.528552,52.2311243 L57.4922385,52.2517979 L57.4922385,52.2517979 C57.458075,52.2703971 57.4234974,52.2881255 57.3884711,52.3048197 C57.3742342,52.311787 57.3597744,52.318464 57.3452076,52.3249792 C57.3104141,52.3403876 57.2754196,52.3548766 57.2400637,52.3683597 C57.2294884,52.3724823 57.2191207,52.3763295 57.208705,52.3800968 L57.1979743,52.383875 L57.1774139,52.3910694 L57.1774139,52.3910694 L57.0439175,52.4318517 L50.2137905,54.2619787 C49.1468583,54.5478623 48.0501844,53.9146973 47.7643008,52.8477651 C47.4934637,51.8369872 48.047479,50.799516 49.0137268,50.4500302 L49.1785143,50.3982754 L51.3456088,49.8171848 L34.7000378,40.2090272 C33.9212829,40.709624 32.9945519,41 32,41 C31.0055815,41 30.0789657,40.7097019 29.3002757,40.2092287 L12.6557572,49.8175508 L14.8214857,50.3982754 L14.9862732,50.4500302 C15.952521,50.799516 16.5065363,51.8369872 16.2356992,52.8477651 C15.9498156,53.9146973 14.8531417,54.5478623 13.7862095,54.2619787 L13.7862095,54.2619787 L6.95608247,52.4318517 L6.82258607,52.3910694 C6.81572018,52.3887086 6.8088666,52.3863104 6.80202565,52.383875 L6.80202565,52.383875 L6.79129495,52.3800968 L6.79129495,52.3800968 L6.75993632,52.3683597 C6.72458035,52.3548766 6.68958588,52.3403876 6.65479235,52.3249792 C6.64022559,52.318464 6.62576583,52.311787 6.6115289,52.3048197 C6.57650261,52.2881255 6.541925,52.2703971 6.50776154,52.2517979 L6.50776154,52.2517979 L6.47144802,52.2311243 C6.4321996,52.2084494 6.39365229,52.184398 6.35566101,52.1589519 C6.35100166,52.1558121 6.34635772,52.152654 6.34172925,52.1494776 L6.34172925,52.1494776 L6.32422569,52.1372464 C6.23432604,52.0742158 6.14908751,52.003357 6.06962513,51.9249687 L6.08222465,51.936 L6.0933937,51.9478277 C6.08940714,51.9440202 6.08543731,51.9401971 6.08147796,51.9363801 L6.02883125,51.8834998 L6.02883125,51.8834998 L5.98937588,51.8407718 C5.97664671,51.826653 5.96412606,51.8123612 5.95159442,51.7978974 C5.92956259,51.7719994 5.90810579,51.7454335 5.88753798,51.7183721 C5.87568124,51.7029128 5.86405372,51.6872865 5.85241337,51.6713148 L5.85241337,51.6713148 L5.80306596,51.5995443 L5.80306596,51.5995443 L5.75722465,51.526 Z" id="Oval-2" fill="#000000"></path>
    </g>
</svg>