<?xml version="1.0" encoding="UTF-8"?>
<svg width="64px" height="64px" viewBox="0 0 64 64" version="1.1" xmlns="http://www.w3.org/2000/svg" xmlns:xlink="http://www.w3.org/1999/xlink">
    <title>origin_client</title>
    <g id="origin_client" stroke="none" stroke-width="1" fill="none" fill-rule="evenodd">
        <path d="M26.1807326,33.9957186 C24.3437632,33.0508182 23.8755131,29.5078655 23.8755131,29.5078655 C23.8755131,29.5078655 21.1953072,26.1004802 21.1953072,23.5746612 C21.1953072,21.0488422 22.3439669,21.3497096 22.3439669,21.3497096 C22.3439669,21.3497096 18.7962187,8 32,8 C45.2037813,8 42.2540674,21.3497096 42.2540674,21.3497096 C42.2540674,21.3497096 43.402727,20.9684013 43.402727,23.5746612 C43.402727,26.1809211 40.7225212,29.8786907 40.7225212,29.8786907 C40.7225212,29.8786907 40.016164,33.0294049 38.0688343,33.9957186 C39.5775384,35.1395657 42.2540674,37.6299126 42.2540674,37.6299126 C42.2540674,37.6299126 49.9099584,39.2400827 51.3573308,41.0034487 C52.8047031,42.7668148 56,48.1309063 56,52.0654531 C56,56 32,56 32,56 C32,56 8,56 8,52.0654531 C8,48.1309063 10.9949533,42.3256467 12.7718032,41.0034487 C14.548653,39.6812508 22.5166828,36.7152428 26.1807326,33.9957186 Z" id="Path-11-Copy" fill="#000000" fill-rule="nonzero"></path>
    </g>
</svg>