<?xml version="1.0" encoding="UTF-8"?>
<svg width="64px" height="64px" viewBox="0 0 64 64" version="1.1" xmlns="http://www.w3.org/2000/svg" xmlns:xlink="http://www.w3.org/1999/xlink">
    <title>origin_tech</title>
    <g id="origin_tech" stroke="none" stroke-width="1" fill="none" fill-rule="evenodd">
        <path d="M30,16 L30,27 C30,27.5522847 30.4477153,28 31,28 L31,28 L32,28 C32.5522847,28 33,27.5522847 33,27 L33,27 L33,16 L36.8,16 C38.8597701,16 39.9251685,16.9943718 39.996195,18.9831153 L40,19.2 L40,19.2 L40,26 C40,26.5522847 40.4477153,27 41,27 L41,27 L42,27 C42.5522847,27 43,26.5522847 43,26 L43,26 L43.0009568,20.7934172 C48.8564318,24.5126802 52.6561128,30.9148745 54.4,40 L54.4,40 L56,41.6 L56,46.4 C51.6901155,47.4666667 43.6901155,48 32,48 C20.3098845,48 12.3098845,47.4666667 8,46.4 L8,46.4 L8,41.6 L9.6,40 C11.4177916,30.9468828 15.2177712,24.5535989 20.9999387,20.8201482 L21,26 C21,26.5522847 21.4477153,27 22,27 L22,27 L23,27 C23.5522847,27 24,26.5522847 24,26 L24,26 L24,19.2 C24.2679665,17.0666667 25.3346331,16 27.2,16 L27.2,16 L30,16 Z M48,38 L15,38 C14.4477153,38 14,38.4477153 14,39 L14,39 L14,40 C14,40.5522847 14.4477153,41 15,41 L15,41 L48,41 C48.5522847,41 49,40.5522847 49,40 L49,40 L49,39 C49,38.4477153 48.5522847,38 48,38 L48,38 Z" id="Path-176-Copy" fill="#000000" fill-rule="nonzero"></path>
    </g>
</svg>