<?xml version="1.0" encoding="UTF-8"?>
<svg width="64px" height="64px" viewBox="0 0 64 64" version="1.1" xmlns="http://www.w3.org/2000/svg" xmlns:xlink="http://www.w3.org/1999/xlink">
    <title>outbox</title>
    <g id="outbox" stroke="none" stroke-width="1" fill="none" fill-rule="evenodd">
        <path d="M48,27 C48.6544657,27 49.2675257,27.3202072 49.6414414,27.8573407 L58.6761899,39.0270755 C58.9893815,39.309189 59.2577643,39.6400855 59.4693693,40.0077962 L59.6414414,40.2224401 L59.5988433,40.2519708 C59.8558307,40.7800738 60,41.3732006 60,42 L60,56 C60,58.209139 58.209139,60 56,60 L8,60 C5.790861,60 4,58.209139 4,56 L4,42 C4,41.3732006 4.14416933,40.7800738 4.40115672,40.2519708 L4.35855862,40.2224401 L4.53063065,40.0077962 C4.7422357,39.6400855 5.01061853,39.309189 5.32381005,39.0270755 L14.3585586,27.8573407 C14.7324743,27.3202072 15.3455343,27 16,27 L21.768,27 L22.0289979,27.004745 C22.0832377,27.0045222 22.1374751,27.0036726 22.1916984,27.0021961 L24.893,27 L24.928,31 L17.044,31 L11.324,38 L18.7524414,38 C20.5282126,38.0018543 22.0901747,39.1742195 22.5879444,40.8787993 C23.97167,45.6262664 27.1090219,48 32,48 C36.8909781,48 40.02833,45.6262664 41.4120556,40.8787993 C41.9098253,39.1742195 43.4717874,38.0018543 45.2475586,38 L52.675,38 L46.955,31 L39,31 L39,27 L41.7843547,27.0015436 C41.9054656,27.0052408 42.0265757,27.0057899 42.1476091,27.0032508 L42.218,27 L48,27 Z M45.252,41.999 L45.1488899,42.3407496 C43.2398354,48.4586624 38.7246948,51.8744172 32.3557336,51.996604 L32,52 C25.324216,52 20.6271335,48.4461677 18.7483083,42.000046 L8.055,42 L8,42.068 L8,56 L56,56 L56,42.069 L55.944,42 L45.252,41.999 Z" id="Combined-Shape" fill="#000000" fill-rule="nonzero"></path>
        <path d="M32,4 C35.3137085,4 38,6.6862915 38,10 L38,24.528 L38.1289365,24.4153617 C40.4226034,22.4742942 43.8295239,22.5297533 46.0595763,24.5817389 L46.2426407,24.7573593 C48.5857864,27.1005051 48.5857864,30.8994949 46.2426407,33.2426407 L36.2426407,43.2426407 C33.8994949,45.5857864 30.1005051,45.5857864 27.7573593,43.2426407 L17.7573593,33.2426407 C15.4142136,30.8994949 15.4142136,27.1005051 17.7573593,24.7573593 C19.9803437,22.5343749 23.5136836,22.4203757 25.8710357,24.415334 L26,24.529 L26,10 C26,6.76160306 28.5655749,4.12242824 31.7750617,4.00413847 L32,4 Z M32,8 C30.8954305,8 30,8.8954305 30,10 L30,31.7571351 C30,32.3094199 29.5522847,32.7571351 29,32.7571351 C28.7347915,32.7571351 28.4804445,32.6517846 28.2929095,32.4642581 L26.5858189,30.7572461 L26.5858189,30.7572461 L23.4142136,27.5857864 C22.633165,26.8047379 21.366835,26.8047379 20.5857864,27.5857864 C19.8047379,28.366835 19.8047379,29.633165 20.5857864,30.4142136 L30.5857864,40.4142136 C31.366835,41.1952621 32.633165,41.1952621 33.4142136,40.4142136 L43.4142136,30.4142136 C44.1952621,29.633165 44.1952621,28.366835 43.4142136,27.5857864 C42.633165,26.8047379 41.366835,26.8047379 40.5855309,27.5860419 L37.413958,30.756469 L35.706979,32.4628314 C35.3163842,32.8532851 34.6832192,32.8531707 34.2927655,32.4625759 C34.1053072,32.2750499 34,32.0207508 34,31.7555969 L34,10 L34,10 C34,8.8954305 33.1045695,8 32,8 Z" id="Combined-Shape" fill="#000000" fill-rule="nonzero" transform="translate(32, 24.5) scale(1, -1) translate(-32, -24.5)"></path>
    </g>
</svg>