<svg xmlns="http://www.w3.org/2000/svg" width="32" height="32" viewBox="0 0 32 32">
  <path d="M16 12C13.790861 12 12 13.790861 12 16 12 18.209139 13.790861 20 16 20 18.209139 20 20 18.209139 20 16 20 13.790861 18.209139 12 16 12zM16 14C17.1045695 14 18 14.8954305 18 16 18 17.1045695 17.1045695 18 16 18 14.8954305 18 14 17.1045695 14 16 14 14.8954305 14.8954305 14 16 14zM6 2C3.790861 2 2 3.790861 2 6 2 8.209139 3.790861 10 6 10 8.209139 10 10 8.209139 10 6 10 3.790861 8.209139 2 6 2zM16 22C13.790861 22 12 23.790861 12 26 12 28.209139 13.790861 30 16 30 18.209139 30 20 28.209139 20 26 20 23.790861 18.209139 22 16 22zM16 24C17.1045695 24 18 24.8954305 18 26 18 27.1045695 17.1045695 28 16 28 14.8954305 28 14 27.1045695 14 26 14 24.8954305 14.8954305 24 16 24zM26 12C23.790861 12 22 13.790861 22 16 22 18.209139 23.790861 20 26 20 28.209139 20 30 18.209139 30 16 30 13.790861 28.209139 12 26 12zM26 14C27.1045695 14 28 14.8954305 28 16 28 17.1045695 27.1045695 18 26 18 24.8954305 18 24 17.1045695 24 16 24 14.8954305 24.8954305 14 26 14zM26 22C23.790861 22 22 23.790861 22 26 22 28.209139 23.790861 30 26 30 28.209139 30 30 28.209139 30 26 30 23.790861 28.209139 22 26 22zM26 24C27.1045695 24 28 24.8954305 28 26 28 27.1045695 27.1045695 28 26 28 24.8954305 28 24 27.1045695 24 26 24 24.8954305 24.8954305 24 26 24z"/>
</svg>
