<?xml version="1.0" encoding="UTF-8"?>
<svg width="64px" height="64px" viewBox="0 0 64 64" version="1.1" xmlns="http://www.w3.org/2000/svg" xmlns:xlink="http://www.w3.org/1999/xlink">
    <title>outlook</title>
    <g id="outlook" stroke="none" stroke-width="1" fill="none" fill-rule="evenodd">
        <path d="M58,16 C59.1045695,16 60,16.8954305 60,18 L60,18 L60,46 C60,47.1045695 59.1045695,48 58,48 L58,48 L36.8669424,48 L36.8669424,44 L56,44 L55.9999424,23.802 L42,33.427061 L36.8669424,29.898 L36.8669424,25.043 L41.999,28.572 L54.4679424,20 L36.8669424,20 L36.8669424,16 Z" id="Combined-Shape" fill="#000000" fill-rule="nonzero"></path>
        <path d="M33.5809418,5.04439517 L5.58094182,11.0443952 C4.65880026,11.2419969 4,12.0569244 4,13 L4,51 C4,51.9430756 4.65880026,52.7580031 5.58094182,52.9556048 L33.5809418,58.9556048 C34.8259663,59.2223958 36,58.2732884 36,57 L36,7 C36,5.72671159 34.8259663,4.77760421 33.5809418,5.04439517 Z M32,9.473 L32,54.526 L8,49.383 L8,14.616 L32,9.473 Z" id="Path-257" fill="#000000" fill-rule="nonzero"></path>
        <path d="M20,22.5 C15.9225307,22.5 13,26.883796 13,32 C13,37.116204 15.9225307,41.5 20,41.5 C24.0774693,41.5 27,37.116204 27,32 C27,26.883796 24.0774693,22.5 20,22.5 Z M20,26.5 C21.4453782,26.5 23,28.8319327 23,32 C23,35.1680673 21.4453782,37.5 20,37.5 C18.5546218,37.5 17,35.1680673 17,32 C17,28.8319327 18.5546218,26.5 20,26.5 Z" id="Oval" fill="#000000" fill-rule="nonzero"></path>
    </g>
</svg>