<?xml version="1.0" encoding="UTF-8"?>
<svg width="64px" height="64px" viewBox="0 0 64 64" version="1.1" xmlns="http://www.w3.org/2000/svg" xmlns:xlink="http://www.w3.org/1999/xlink">
    <title>overlap</title>
    <g id="overlap" stroke="none" stroke-width="1" fill="none" fill-rule="evenodd">
        <path d="M26,4 C34.6884285,4 42.2005013,9.0365781 45.7758449,16.349361 C44.0505267,15.727912 42.229111,15.3084707 40.3402002,15.1175899 C37.0524596,10.7930024 31.8524001,8 26,8 C16.0588745,8 8,16.0588745 8,26 C8,31.8524001 10.7930024,37.0524596 15.1187867,40.3399581 C15.3084707,42.229111 15.727912,44.0505267 16.3478317,45.7763651 C9.0365781,42.2005013 4,34.6884285 4,26 C4,13.8497355 13.8497355,4 26,4 Z" id="Oval" fill="#000000" fill-rule="nonzero"></path>
        <path d="M38,16 C50.1502645,16 60,25.8497355 60,38 C60,50.1502645 50.1502645,60 38,60 C25.8497355,60 16,50.1502645 16,38 C16,25.8497355 25.8497355,16 38,16 Z M38,20 C28.0588745,20 20,28.0588745 20,38 C20,47.9411255 28.0588745,56 38,56 C47.9411255,56 56,47.9411255 56,38 C56,28.0588745 47.9411255,20 38,20 Z" id="Oval-Copy" fill="#000000" fill-rule="nonzero"></path>
    </g>
</svg>