<?xml version="1.0" encoding="UTF-8"?>
<svg width="64px" height="64px" viewBox="0 0 64 64" version="1.1" xmlns="http://www.w3.org/2000/svg" xmlns:xlink="http://www.w3.org/1999/xlink">
    <title>password</title>
    <g id="password" stroke="none" stroke-width="1" fill="none" fill-rule="evenodd">
        <g id="Group" transform="translate(4.000000, 4.000000)" fill="#000000">
            <path d="M36.6896552,0 C26.0248462,0 17.3793103,8.64553587 17.3793103,19.3103448 L17.3968506,20.1400802 C17.4669094,21.7943473 17.7462254,23.4157283 18.223769,24.9742531 L18.3274483,25.2888276 L0.565586905,43.0483455 C0.203447692,43.4104847 0,43.9016509 0,44.4137931 L0,54.0689655 C0,55.1354464 0.864553587,56 1.93103448,56 L11.5862069,56 L11.8102923,55.98702 C12.5476244,55.9011761 13.1792008,55.3964511 13.4181471,54.6796122 L15.0427586,49.8013793 L19.9209915,48.1767677 L20.1311376,48.0927566 C20.6066593,47.8695046 20.9741052,47.4600138 21.142285,46.9554743 L22.7668966,42.0772414 L27.6451295,40.4526298 C27.9306925,40.3574421 28.1900485,40.1968143 28.4024942,39.9835685 L30.7073103,37.6706207 L31.0213657,37.7748882 C32.8409591,38.332901 34.7462922,38.6206897 36.6896552,38.6206897 C47.3544641,38.6206897 56,29.9751538 56,19.3103448 C56,8.64553587 47.3544641,0 36.6896552,0 Z M36.6896552,3.86206897 C45.2215023,3.86206897 52.137931,10.7784977 52.137931,19.3103448 C52.137931,27.842192 45.2215023,34.7586207 36.6896552,34.7586207 C34.6871955,34.7586207 32.7407411,34.3784529 30.9256941,33.6480053 C30.2069175,33.3587409 29.3848439,33.5271001 28.8376469,34.0756338 L25.9878621,36.9329655 L20.6307326,38.719784 L20.4205866,38.8037951 C19.9450649,39.0270471 19.577619,39.4365379 19.4094391,39.9410774 L17.7828966,44.8173793 L12.9065947,46.4439219 L12.6964486,46.5279331 C12.2209269,46.751185 11.853481,47.1606759 11.6853012,47.6652153 L10.193931,52.137931 L3.86206897,52.137931 L3.86206897,45.2132414 L21.92355,27.1562854 C22.471046,26.6091963 22.638982,25.788058 22.3502403,25.0699447 C21.6209347,23.2561298 21.2413793,21.3111927 21.2413793,19.3103448 C21.2413793,10.7784977 28.157808,3.86206897 36.6896552,3.86206897 Z" id="Oval" fill-rule="nonzero"></path>
            <circle id="Oval" cx="42" cy="14" r="4"></circle>
        </g>
    </g>
</svg>