<?xml version="1.0" encoding="UTF-8"?>
<svg width="64px" height="64px" viewBox="0 0 64 64" version="1.1" xmlns="http://www.w3.org/2000/svg" xmlns:xlink="http://www.w3.org/1999/xlink">
    <title>past_due</title>
    <g id="past_due" stroke="none" stroke-width="1" fill="none" fill-rule="evenodd">
        <path d="M34.5769318,52.0007456 L6,52 C4.45139998,52 3.49032872,50.3157722 4.27814694,48.9825414 L4.27814694,48.9825414 L30.2781469,4.98254138 C31.0522705,3.67248621 32.9477295,3.67248621 33.7218531,4.98254138 L33.7218531,4.98254138 L51.0675551,34.3377861 C50.0794009,34.1166615 49.0518006,34 47.9969525,34 C47.4171223,34 46.8455249,34.0352492 46.2841865,34.1037217 L32,9.93 L9.504,48 L33.9969525,48 L33.9969525,48 C33.9969525,49.3902178 34.1995871,50.7331077 34.5769318,52.0007456 Z M32,18 C33.1045695,18 34,18.8954305 34,20 L33.9988614,21.290072 C34.2260754,21.3288008 34.4557883,21.3737768 34.688,21.425 C35.64,21.635 36.55,21.971 37.418,22.433 C38.286,22.895 39.014,23.504 39.602,24.26 C39.91,24.68 40.092,25.184 40.148,25.772 C40.204,26.36 39.938,26.892 39.35,27.368 C38.93,27.704 38.44,27.851 37.88,27.809 C37.32,27.767 36.858,27.578 36.494,27.242 C36.018,26.626 35.381,26.136 34.583,25.772 C34.3951991,25.6863364 34.2008074,25.6107529 33.9998249,25.5452493 L33.9992376,30.8929135 C34.599806,31.068885 35.2073934,31.2659138 35.822,31.484 C36.69,31.792 37.488,32.198 38.216,32.702 C38.944,33.206 39.532,33.857 39.98,34.655 C40.2257778,35.0927917 40.4041373,35.5958947 40.5150787,36.1643092 C37.6384149,37.9871218 35.4717141,40.829457 34.5235272,44.1832933 C34.3503523,44.2234643 34.1753835,44.2573795 33.9998987,44.2865226 L34,45 C34,46.1045695 33.1045695,47 32,47 C30.8954305,47 30,46.1045695 30,45 L29.9999194,44.2217589 C29.1406129,44.0784922 28.2813065,43.8575726 27.422,43.559 C25.77,42.985 24.398,41.97 23.306,40.514 C23.026,40.122 22.9,39.618 22.928,39.002 C22.956,38.386 23.32,37.854 24.02,37.406 C24.468,37.126 24.944,37.007 25.448,37.049 C25.952,37.091 26.442,37.35 26.918,37.826 C27.73,38.638 28.584,39.268 29.48,39.716 C29.6456043,39.7988021 29.8188606,39.8739523 29.9997688,39.9414504 L30.0002226,34.3332651 C29.6274783,34.2143944 29.2510708,34.0906393 28.871,33.962 C27.961,33.654 27.128,33.255 26.372,32.765 C25.616,32.275 25,31.624 24.524,30.812 C24.048,30 23.81,28.978 23.81,27.746 C23.81,26.346 24.202,25.156 24.986,24.176 C25.77,23.196 26.785,22.44 28.031,21.908 C28.6704447,21.6349787 29.3264818,21.4320144 29.9991113,21.299107 L30,20 C30,18.8954305 30.8954305,18 32,18 Z M33.827,35.516 L33.9991818,35.583 L33.9991818,40.24 L34.226,40.199 C34.658,40.115 35.0437143,39.9384286 35.3831429,39.6692857 L35.549,39.527 C35.927,39.177 36.116,38.638 36.116,37.91 C36.116,37.294 35.906,36.804 35.486,36.44 C35.066,36.076 34.513,35.768 33.827,35.516 Z M29.9986702,25.5080751 C29.6997382,25.6231978 29.4288482,25.7881728 29.186,26.003 C28.822,26.325 28.64,26.836 28.64,27.536 C28.64,28.18 28.85,28.691 29.27,29.069 C29.4771966,29.2554769 29.7201686,29.424918 29.9989159,29.5773232 L29.9986702,25.5080751 Z" id="Path-35" fill="#000000" fill-rule="nonzero"></path>
        <path d="M48,36 C54.627417,36 60,41.372583 60,48 C60,54.627417 54.627417,60 48,60 C41.372583,60 36,54.627417 36,48 C36,41.372583 41.372583,36 48,36 Z M48,40 C43.581722,40 40,43.581722 40,48 C40,52.418278 43.581722,56 48,56 C52.418278,56 56,52.418278 56,48 C56,43.581722 52.418278,40 48,40 Z" id="Oval" fill="#000000" fill-rule="nonzero"></path>
        <path d="M48,41 C49.0543618,41 49.9181651,41.8158778 49.9945143,42.8507377 L50,43 L50,47.171 L52.4142136,49.5857864 C53.1541543,50.3257272 53.1930986,51.5012114 52.5310463,52.2869988 L52.4142136,52.4142136 C51.6742728,53.1541543 50.4987886,53.1930986 49.7130012,52.5310463 L49.5857864,52.4142136 L46.5857864,49.4142136 C46.2523884,49.0808156 46.0488544,48.6418293 46.0077406,48.1758528 L46,48 L46,43 C46,41.8954305 46.8954305,41 48,41 Z" id="Path-36" fill="#000000" fill-rule="nonzero"></path>
    </g>
</svg>