<?xml version="1.0" encoding="UTF-8"?>
<svg width="64px" height="64px" viewBox="0 0 64 64" version="1.1" xmlns="http://www.w3.org/2000/svg" xmlns:xlink="http://www.w3.org/1999/xlink">
    <title>pay_brackets</title>
    <g id="pay_brackets" stroke="none" stroke-width="1" fill="none" fill-rule="evenodd">
        <path d="M6.3285466,33.9860593 C3.83920241,33.7380786 3.83920241,30.2619214 6.3285466,30.0139407 L6.74254722,29.9938422 C7.49472823,29.9196178 8.05378267,29.1684278 8.48327406,27.4182255 L8.62172641,26.7973825 C8.6440311,26.6875947 8.6659577,26.574613 8.68751711,26.4583824 L8.81255449,25.7215682 L8.9293025,24.9041266 C8.94809878,24.7610201 8.96657148,24.6144437 8.98473148,24.4643422 L9.14002303,23.0167589 L9.23504187,21.9415316 L9.36611471,20.1568066 L9.53460823,17.5286512 L9.62555952,16.3008898 L9.77215669,14.6705386 L9.88066561,13.7048665 L10.0009944,12.8204717 L10.135884,12.0038921 C10.1597313,11.872699 10.1842995,11.7437705 10.2096457,11.6168263 L10.371516,10.8767285 L10.5547997,10.1707912 C10.6197678,9.93967636 10.6887615,9.71201127 10.7622379,9.48555224 C11.8752855,6.05506519 14.0093916,4 17.3846154,4 C18.5741518,4 19.5384615,4.8954305 19.5384615,6 C19.5384615,7.02567168 18.7069904,7.87101432 17.6357993,7.98654454 L17.3846154,8 C16.027447,8 15.1486252,9.12587469 14.5554784,11.9479221 L14.4070981,12.7229598 L14.2709184,13.5772005 C14.2491962,13.7262992 14.2279508,13.8787917 14.2071662,14.034725 L14.0878621,15.0119885 L13.9788583,16.0740797 L13.8793948,17.2232483 L13.7887112,18.4617442 L13.5898722,21.5620493 L13.473694,23.1142155 L13.3936043,24.0222601 L13.3089199,24.8440354 L13.2175111,25.592499 L13.1172481,26.2806085 L13.0060014,26.9213216 L12.8816412,27.5275957 L12.7420379,28.1123884 C12.6927263,28.3051788 12.6405192,28.4965486 12.5850617,28.6886573 C12.2118327,29.9815493 11.6958436,31.0758807 11.0184477,31.9290804 L10.9338462,32.028 L11.1333491,32.2977551 C11.6125562,32.9817107 11.9929584,33.8036248 12.2823058,34.7433083 L12.4007596,35.1531813 L12.5479166,35.7338992 C12.5708139,35.8310858 12.5929255,35.928674 12.6142948,36.026966 L12.7339489,36.6275831 L12.8378644,37.2596016 L12.9281186,37.9375298 L13.0067888,38.6758758 L13.0759523,39.489148 L13.1376865,40.3918545 L13.2471761,42.5236035 L13.3733662,45.5706885 L13.4404075,46.798812 L13.5208045,47.9393771 L13.61549,48.994491 C13.6325134,49.1633394 13.6501711,49.3287152 13.6684824,49.4906622 L13.7863493,50.4215504 C13.8283565,50.7183655 13.8731337,51.0018168 13.9208364,51.2722555 L14.0728764,52.0448849 C14.6636765,54.737296 15.6272686,55.8976762 17.1705547,55.9934892 L17.3846154,56 C18.5741518,56 19.5384615,56.8954305 19.5384615,58 C19.5384615,59.1045695 18.5741518,60 17.3846154,60 C13.8166712,60 11.5011402,57.9724107 10.3191228,54.5479374 C9.87576182,53.2634574 9.58891877,51.8994515 9.38893059,50.1538128 L9.27880297,49.0582168 L9.18617669,47.8565278 L9.10770792,46.5342446 L8.94032334,42.691411 L8.84503042,41.0176493 L8.73107505,39.5503747 L8.59694036,38.2796668 C8.58085926,38.1490301 8.56437637,38.0218497 8.54748234,37.8980645 L8.44110952,37.1956058 C8.40395739,36.9747071 8.36508579,36.7668992 8.32441979,36.5716923 L8.19696372,36.0233847 C7.84232625,34.6594262 7.36805377,34.0705782 6.73579408,34.0060216 L6.3285466,33.9860593 Z" id="Path-86-Copy" fill="#000000" fill-rule="nonzero"></path>
        <path d="M46.7900851,33.9860593 C44.3007409,33.7380786 44.3007409,30.2619214 46.7900851,30.0139407 L47.2040857,29.9938422 C47.9562667,29.9196178 48.5153211,29.1684278 48.9448125,27.4182255 L49.0832649,26.7973825 C49.1055696,26.6875947 49.1274962,26.574613 49.1490556,26.4583824 L49.2740929,25.7215682 L49.390841,24.9041266 C49.4096372,24.7610201 49.4281099,24.6144437 49.4462699,24.4643422 L49.6015615,23.0167589 L49.6965803,21.9415316 L49.8276532,20.1568066 L49.9961467,17.5286512 L50.087098,16.3008898 L50.2336952,14.6705386 L50.3422041,13.7048665 L50.4625328,12.8204717 L50.5974224,12.0038921 C50.6212697,11.872699 50.6458379,11.7437705 50.6711841,11.6168263 L50.8330545,10.8767285 L51.0163382,10.1707912 C51.0813062,9.93967636 51.1503,9.71201127 51.2237764,9.48555224 C52.3368239,6.05506519 54.4709301,4 57.8461538,4 C59.0356902,4 60,4.8954305 60,6 C60,7.02567168 59.1685288,7.87101432 58.0973378,7.98654454 L57.8461538,8 C56.4889854,8 55.6101637,9.12587469 55.0170169,11.9479221 L54.8686366,12.7229598 L54.7324568,13.5772005 C54.7107347,13.7262992 54.6894892,13.8787917 54.6687047,14.034725 L54.5494006,15.0119885 L54.4403968,16.0740797 L54.3409332,17.2232483 L54.2502497,18.4617442 L54.0514107,21.5620493 L53.9352325,23.1142155 L53.8551428,24.0222601 L53.7704583,24.8440354 L53.6790495,25.592499 L53.5787866,26.2806085 L53.4675399,26.9213216 L53.3431797,27.5275957 L53.2035764,28.1123884 C53.1542648,28.3051788 53.1020577,28.4965486 53.0466002,28.6886573 C52.6733712,29.9815493 52.1573821,31.0758807 51.4799862,31.9290804 L51.3953846,32.028 L51.5948876,32.2977551 C52.0740947,32.9817107 52.4544969,33.8036248 52.7438443,34.7433083 L52.8622981,35.1531813 L53.0094551,35.7338992 C53.0323523,35.8310858 53.054464,35.928674 53.0758333,36.026966 L53.1954874,36.6275831 L53.2994029,37.2596016 L53.389657,37.9375298 L53.4683272,38.6758758 L53.5374907,39.489148 L53.5992249,40.3918545 L53.7087145,42.5236035 L53.8349047,45.5706885 L53.901946,46.798812 L53.982343,47.9393771 L54.0770285,48.994491 C54.0940519,49.1633394 54.1117095,49.3287152 54.1300208,49.4906622 L54.2478878,50.4215504 C54.289895,50.7183655 54.3346722,51.0018168 54.3823749,51.2722555 L54.5344148,52.0448849 C55.1252149,54.737296 56.088807,55.8976762 57.6320932,55.9934892 L57.8461538,56 C59.0356902,56 60,56.8954305 60,58 C60,59.1045695 59.0356902,60 57.8461538,60 C54.2782097,60 51.9626786,57.9724107 50.7806612,54.5479374 C50.3373003,53.2634574 50.0504572,51.8994515 49.8504691,50.1538128 L49.7403414,49.0582168 L49.6477151,47.8565278 L49.5692464,46.5342446 L49.4018618,42.691411 L49.3065689,41.0176493 L49.1926135,39.5503747 L49.0584788,38.2796668 C49.0423977,38.1490301 49.0259148,38.0218497 49.0090208,37.8980645 L48.902648,37.1956058 C48.8654959,36.9747071 48.8266242,36.7668992 48.7859583,36.5716923 L48.6585022,36.0233847 C48.3038647,34.6594262 47.8295922,34.0705782 47.1973325,34.0060216 L46.7900851,33.9860593 Z" id="Path-86-Copy-3" fill="#000000" fill-rule="nonzero" transform="translate(52.461538, 32.000000) scale(-1, 1) translate(-52.461538, -32.000000) "></path>
        <path d="M32.0565882,9 C33.1611577,9 34.0565882,9.8954305 34.0565882,11 L34.0565645,12.3671061 C34.8688608,12.442581 35.719202,12.579879 36.6075882,12.779 C38.0382549,13.0996667 39.4442549,13.63 40.8255882,14.37 C42.2069216,15.11 43.4402549,16.1213333 44.5255882,17.404 C44.9695882,17.848 45.1915882,18.3536667 45.1915882,18.921 C45.1915882,19.4883333 44.9449216,19.994 44.4515882,20.438 C44.0569216,20.734 43.6005882,20.882 43.0825882,20.882 C42.5645882,20.882 42.1329216,20.6846667 41.7875882,20.29 C40.6035882,18.958 39.1975882,17.9466667 37.5695882,17.256 C36.4565186,16.7837886 35.2857967,16.4730036 34.0574226,16.3236449 L34.0564118,30.048 L34.0915882,30.058 C35.4071438,30.3868889 36.6798753,30.7671667 37.9097827,31.1988333 L38.6425882,31.464 C40.0979216,32.0066667 41.3805882,32.685 42.4905882,33.499 C43.6005882,34.313 44.4885882,35.3366667 45.1545882,36.57 C45.8205882,37.8033333 46.1535882,39.3573333 46.1535882,41.232 C46.1535882,43.4026667 45.5492549,45.2773333 44.3405882,46.856 C43.1319216,48.4346667 41.5162549,49.6433333 39.4935882,50.482 C37.8314471,51.1711805 36.0193927,51.5771914 34.0574249,51.7000328 L34.0565882,53 C34.0565882,54.1045695 33.1611577,55 32.0565882,55 C30.9520187,55 30.0565882,54.1045695 30.0565882,53 L30.0572191,51.5583197 C28.3429541,51.3252076 26.6660772,50.8677677 25.0265882,50.186 C22.5352549,49.15 20.3275882,47.4233333 18.4035882,45.006 C18.0089216,44.414 17.8239216,43.8343333 17.8485882,43.267 C17.8732549,42.6996667 18.1815882,42.2433333 18.7735882,41.898 C19.1682549,41.5526667 19.6245882,41.4046667 20.1425882,41.454 C20.6605882,41.5033333 21.1415882,41.75 21.5855882,42.194 C22.9175882,43.9206667 24.5332549,45.3143333 26.4325882,46.375 C27.5225997,46.9837077 28.7304093,47.4177493 30.056017,47.6771248 L30.0554498,33.3453285 C29.3186681,33.1132537 28.5920476,32.8684776 27.8755882,32.611 C26.2969216,32.0436667 24.9032549,31.3283333 23.6945882,30.465 C22.4859216,29.6016667 21.5115882,28.5533333 20.7715882,27.32 C20.0315882,26.0866667 19.6615882,24.582 19.6615882,22.806 C19.6615882,20.734 20.2289216,18.9086667 21.3635882,17.33 C22.4982549,15.7513333 24.0399216,14.518 25.9885882,13.63 C27.2380191,13.0606391 28.5939252,12.6738074 30.0563067,12.4695049 L30.0565882,11 C30.0565882,9.8954305 30.9520187,9 32.0565882,9 Z M34.0581488,34.4748697 L34.0566956,47.9360964 C35.149097,47.8593717 36.2337279,47.6350063 37.3105882,47.263 C38.6672549,46.7943333 39.7895882,46.079 40.6775882,45.117 C41.5655882,44.155 42.0095882,42.934 42.0095882,41.454 C42.0095882,39.9246667 41.5655882,38.6913333 40.6775882,37.754 C39.7895882,36.8166667 38.6425882,36.0766667 37.2365882,35.534 C36.2220592,35.1424274 35.1625793,34.789384 34.0581488,34.4748697 Z M30.0567989,16.4281553 C29.4474551,16.5444086 28.8560515,16.7093568 28.2825882,16.923 C27.0245882,17.3916667 25.9762549,18.0946667 25.1375882,19.032 C24.2989216,19.9693333 23.8795882,21.2026667 23.8795882,22.732 C23.9782549,24.1626667 24.4839216,25.322 25.3965882,26.21 C26.3092549,27.098 27.5179216,27.838 29.0225882,28.43 C29.3576316,28.5618203 29.7018476,28.6911946 30.0552362,28.8181229 Z" id="large-dollar-copy" fill="#000000" fill-rule="nonzero"></path>
    </g>
</svg>