<?xml version="1.0" encoding="UTF-8"?>
<svg width="64px" height="64px" viewBox="0 0 64 64" version="1.1" xmlns="http://www.w3.org/2000/svg" xmlns:xlink="http://www.w3.org/1999/xlink">
    <title>payment_application_initial</title>
    <g id="payment_application_initial" stroke="none" stroke-width="1" fill="none" fill-rule="evenodd">
        <path d="M27,6 C38.045695,6 47,14.954305 47,26 C47,27.8011488 46.7619079,29.5466882 46.31548,31.2068619 C52.3901964,32.2974383 57,37.6103805 57,44 C57,51.1797017 51.1797017,57 44,57 C37.3548908,57 31.8742824,52.014179 31.0949639,45.5793259 C29.7736712,45.8553864 28.4037237,46 27,46 C15.954305,46 7,37.045695 7,26 C7,14.954305 15.954305,6 27,6 Z M44,35 C42.8954305,35 42,35.8954305 42,37 L42,37 L42,42 L37,42 C35.9456382,42 35.0818349,42.8158778 35.0054857,43.8507377 L35,44 C35,45.1045695 35.8954305,46 37,46 L37,46 L42,46 L42,51 C42,52.0543618 42.8158778,52.9181651 43.8507377,52.9945143 L44,53 C45.1045695,53 46,52.1045695 46,51 L46,51 L46,46 L51,46 C52.0543618,46 52.9181651,45.1841222 52.9945143,44.1492623 L53,44 C53,42.8954305 52.1045695,42 51,42 L51,42 L46,42 L46,37 C46,35.9456382 45.1841222,35.0818349 44.1492623,35.0054857 L44,35 Z M27,9 C17.6111593,9 10,16.6111593 10,26 C10,35.3888407 17.6111593,43 27,43 C28.4083261,43 29.7766544,42.8287489 31.0852968,42.5059347 C31.7978765,36.2757012 36.914905,31.3839832 43.2451312,31.0215511 C43.7360537,29.4351805 44,27.7484142 44,26 C44,16.6111593 36.3888407,9 27,9 Z M27.464,11.368 C28.0186667,11.368 28.472,11.5546667 28.824,11.928 L28.824,11.928 L28.9348148,12.0558025 C29.2129383,12.4055638 29.352,12.826963 29.352,13.32 L29.352,13.32 L29.352,14.484 L29.7182222,14.5573333 C30.1354074,14.6497778 30.5413333,14.7653333 30.936,14.904 C32.12,15.32 33.0853333,15.848 33.832,16.488 C34.4506667,16.9786667 34.76,17.544 34.76,18.184 C34.76,18.6533333 34.5786667,19.08 34.216,19.464 C33.8533333,19.848 33.4266667,20.04 32.936,20.04 C32.616,20.04 32.328,19.944 32.072,19.752 C31.7306667,19.4533333 31.272,19.1706667 30.696,18.904 L30.696,18.904 L30.258,18.712 C30.11,18.6506667 29.96,18.592 29.808,18.536 L29.808,18.536 L29.352,18.378 L29.352,24.293 L29.364,24.296 C29.9266667,24.4346667 30.4506667,24.584 30.936,24.744 C31.9066667,25.064 32.712,25.4746667 33.352,25.976 C33.992,26.4773333 34.472,27.1066667 34.792,27.864 C35.112,28.6213333 35.272,29.544 35.272,30.632 C35.272,32.0186667 34.888,33.2133333 34.12,34.216 C33.352,35.2186667 32.344,35.9866667 31.096,36.52 L31.096,36.52 L30.71856,36.672 C30.33808,36.816 29.94848,36.936 29.54976,37.032 L29.54976,37.032 L29.352,37.076 L29.352,39.048 L29.3450864,39.2295309 C29.308214,39.7046584 29.1238519,40.1081481 28.792,40.44 C28.4186667,40.8133333 27.9546667,41 27.4,41 C26.8666667,41 26.4186667,40.8133333 26.056,40.44 L26.056,40.44 L25.9418272,40.3121975 C25.6552757,39.9624362 25.512,39.541037 25.512,39.048 L25.512,39.048 L25.512,37.248 L25.1453827,37.2093827 C24.3894979,37.1172016 23.6797037,36.9674074 23.016,36.76 C21.8213333,36.3866667 20.68,35.7306667 19.592,34.792 C19.3146667,34.5573333 19.1013333,34.2906667 18.952,33.992 C18.8026667,33.6933333 18.728,33.3946667 18.728,33.096 C18.728,32.6053333 18.904,32.1733333 19.256,31.8 C19.608,31.4266667 20.0506667,31.24 20.584,31.24 C20.9893333,31.24 21.352,31.368 21.672,31.624 C22.4826667,32.2853333 23.288,32.7866667 24.088,33.128 L24.088,33.128 L24.3336,33.22528 C24.6685333,33.34816 25.0333333,33.4437333 25.428,33.512 L25.428,33.512 L25.512,33.525 L25.512,27.272 L25.25,27.223 C24.438,27.061 23.704,26.848 23.048,26.584 C22.1733333,26.232 21.4426667,25.784 20.856,25.24 C20.2693333,24.696 19.8266667,24.056 19.528,23.32 C19.2293333,22.584 19.08,21.7573333 19.08,20.84 C19.08,19.4533333 19.4373333,18.2693333 20.152,17.288 C20.8666667,16.3066667 21.832,15.56 23.048,15.048 L23.048,15.048 L23.41664,14.90208 C24.03744,14.67168 24.69024,14.50528 25.37504,14.40288 L25.37504,14.40288 L25.512,14.385 L25.512,13.32 L25.5189136,13.1384691 C25.555786,12.6633416 25.7401481,12.2598519 26.072,11.928 C26.4453333,11.5546667 26.9093333,11.368 27.464,11.368 Z M29.352,28.194 L29.352,33.221 L29.224,33.272 C29.8853333,33.0266667 30.4186667,32.696 30.824,32.28 C31.2293333,31.864 31.432,31.3893333 31.432,30.856 C31.432,30.216 31.24,29.672 30.856,29.224 L30.856,29.224 L30.7204938,29.0772346 C30.4344691,28.7888395 30.0583704,28.5312593 29.5921975,28.3044938 L29.5921975,28.3044938 L29.352,28.194 Z M25.512,18.102 L25.259,18.158 C25.0836667,18.202 24.9173333,18.2533333 24.76,18.312 C24.1306667,18.5466667 23.656,18.8666667 23.336,19.272 C23.016,19.6773333 22.856,20.1466667 22.856,20.68 C22.856,21.32 23.0426667,21.848 23.416,22.264 C23.7893333,22.68 24.328,23.0106667 25.032,23.256 L25.032,23.256 L25.3422041,23.3595102 L25.512,23.412 L25.512,18.102 Z" id="Combined-Shape" fill="#000000" fill-rule="nonzero"></path>
    </g>
</svg>