<?xml version="1.0" encoding="UTF-8"?>
<svg width="64px" height="64px" viewBox="0 0 64 64" version="1.1" xmlns="http://www.w3.org/2000/svg" xmlns:xlink="http://www.w3.org/1999/xlink">
    <title>payment_ach</title>
    <g id="payment_ach" stroke="none" stroke-width="1" fill="none" fill-rule="evenodd">
        <path d="M32.77928,6.1580655 L58.77928,17.1580655 C59.5192194,17.4711168 60,18.1965627 60,19 L60,22 C60,23.1045695 59.1045695,24 58,24 L54,24 L54,25 C54,26.0543618 53.1841222,26.9181651 52.1492623,26.9945143 L52,27 L51.122,27 L51.997,48 L54,48 C55.1045695,48 56,48.8954305 56,50 L56,52 L58,52 C59.0543618,52 59.9181651,52.8158778 59.9945143,53.8507377 L60,54 L60,56 C60,57.1045695 59.1045695,58 58,58 L6,58 C4.8954305,58 4,57.1045695 4,56 L4,54 C4,52.8954305 4.8954305,52 6,52 L8,52 L8,50 C8,48.9456382 8.81587779,48.0818349 9.85073766,48.0054857 L10,48 L12.003,48 L12.878,27 L12,27 C10.8954305,27 10,26.1045695 10,25 L10,24 L6,24 C4.9456382,24 4.08183488,23.1841222 4.00548574,22.1492623 L4,22 L4,19 C4,18.1965627 4.48078062,17.4711168 5.22072002,17.1580655 L31.22072,6.1580655 C31.7188658,5.9473115 32.2811342,5.9473115 32.77928,6.1580655 Z M52,52 L12,52 L12,54 L52,54 L52,52 Z M46.003,48 L46.878,27 L39.788,27 L40.663,48 L46.003,48 Z M35.544,27 L28.455,27 L29.33,48 L34.669,48 L35.544,27 Z M24.211,27 L17.122,27 L17.997,48 L23.336,48 L24.211,27 Z M32,10.171 L8.767,20 L12,20 C13.0543618,20 13.9181651,20.8158778 13.9945143,21.8507377 L14,22 L14,23 L50,23 L50,22 C50,20.9456382 50.8158778,20.0818349 51.8507377,20.0054857 L52,20 L55.232,20 L32,10.171 Z" id="Combined-Shape" fill="#000000" fill-rule="nonzero"></path>
    </g>
</svg>