<?xml version="1.0" encoding="UTF-8"?>
<svg width="64px" height="64px" viewBox="0 0 64 64" version="1.1" xmlns="http://www.w3.org/2000/svg" xmlns:xlink="http://www.w3.org/1999/xlink">
    <title>payment_application_transfer</title>
    <g id="payment_application_transfer" stroke="none" stroke-width="1" fill="none" fill-rule="evenodd">
        <path d="M26,52 C14.954305,52 6,43.045695 6,32 C6,20.954305 14.954305,12 26,12 C35.6759243,12 43.7470009,18.8711704 45.5999808,28.0002624 L50.5,28 L50.5,24 L58.5,32 L50.5,40 L50.5,36 L45.599778,36.0007366 C43.7464121,45.1293309 35.6755714,52 26,52 Z M26,15 C16.6111593,15 9,22.6111593 9,32 C9,41.3888407 16.6111593,49 26,49 C35.3888407,49 43,41.3888407 43,32 C43,22.6111593 35.3888407,15 26,15 Z M26.464,17.368 C27.0186667,17.368 27.472,17.5546667 27.824,17.928 L27.824,17.928 L27.9348148,18.0558025 C28.2129383,18.4055638 28.352,18.826963 28.352,19.32 L28.352,19.32 L28.352,20.484 L28.7182222,20.5573333 C29.1354074,20.6497778 29.5413333,20.7653333 29.936,20.904 C31.12,21.32 32.0853333,21.848 32.832,22.488 C33.4506667,22.9786667 33.76,23.544 33.76,24.184 C33.76,24.6533333 33.5786667,25.08 33.216,25.464 C32.8533333,25.848 32.4266667,26.04 31.936,26.04 C31.616,26.04 31.328,25.944 31.072,25.752 C30.7306667,25.4533333 30.272,25.1706667 29.696,24.904 L29.696,24.904 L29.258,24.712 C29.11,24.6506667 28.96,24.592 28.808,24.536 L28.808,24.536 L28.352,24.378 L28.352,30.293 L28.364,30.296 C28.9266667,30.4346667 29.4506667,30.584 29.936,30.744 C30.9066667,31.064 31.712,31.4746667 32.352,31.976 C32.992,32.4773333 33.472,33.1066667 33.792,33.864 C34.112,34.6213333 34.272,35.544 34.272,36.632 C34.272,38.0186667 33.888,39.2133333 33.12,40.216 C32.352,41.2186667 31.344,41.9866667 30.096,42.52 L30.096,42.52 L29.71856,42.672 C29.33808,42.816 28.94848,42.936 28.54976,43.032 L28.54976,43.032 L28.352,43.076 L28.352,45.048 L28.3450864,45.2295309 C28.308214,45.7046584 28.1238519,46.1081481 27.792,46.44 C27.4186667,46.8133333 26.9546667,47 26.4,47 C25.8666667,47 25.4186667,46.8133333 25.056,46.44 L25.056,46.44 L24.9418272,46.3121975 C24.6552757,45.9624362 24.512,45.541037 24.512,45.048 L24.512,45.048 L24.512,43.248 L24.1453827,43.2093827 C23.3894979,43.1172016 22.6797037,42.9674074 22.016,42.76 C20.8213333,42.3866667 19.68,41.7306667 18.592,40.792 C18.3146667,40.5573333 18.1013333,40.2906667 17.952,39.992 C17.8026667,39.6933333 17.728,39.3946667 17.728,39.096 C17.728,38.6053333 17.904,38.1733333 18.256,37.8 C18.608,37.4266667 19.0506667,37.24 19.584,37.24 C19.9893333,37.24 20.352,37.368 20.672,37.624 C21.4826667,38.2853333 22.288,38.7866667 23.088,39.128 L23.088,39.128 L23.3336,39.22528 C23.6685333,39.34816 24.0333333,39.4437333 24.428,39.512 L24.428,39.512 L24.512,39.525 L24.512,33.272 L24.25,33.223 C23.438,33.061 22.704,32.848 22.048,32.584 C21.1733333,32.232 20.4426667,31.784 19.856,31.24 C19.2693333,30.696 18.8266667,30.056 18.528,29.32 C18.2293333,28.584 18.08,27.7573333 18.08,26.84 C18.08,25.4533333 18.4373333,24.2693333 19.152,23.288 C19.8666667,22.3066667 20.832,21.56 22.048,21.048 L22.048,21.048 L22.41664,20.90208 C23.03744,20.67168 23.69024,20.50528 24.37504,20.40288 L24.37504,20.40288 L24.512,20.385 L24.512,19.32 L24.5189136,19.1384691 C24.555786,18.6633416 24.7401481,18.2598519 25.072,17.928 C25.4453333,17.5546667 25.9093333,17.368 26.464,17.368 Z M28.352,34.194 L28.352,39.221 L28.224,39.272 C28.8853333,39.0266667 29.4186667,38.696 29.824,38.28 C30.2293333,37.864 30.432,37.3893333 30.432,36.856 C30.432,36.216 30.24,35.672 29.856,35.224 L29.856,35.224 L29.7204938,35.0772346 C29.4344691,34.7888395 29.0583704,34.5312593 28.5921975,34.3044938 L28.5921975,34.3044938 L28.352,34.194 Z M24.512,24.102 L24.259,24.158 C24.0836667,24.202 23.9173333,24.2533333 23.76,24.312 C23.1306667,24.5466667 22.656,24.8666667 22.336,25.272 C22.016,25.6773333 21.856,26.1466667 21.856,26.68 C21.856,27.32 22.0426667,27.848 22.416,28.264 C22.7893333,28.68 23.328,29.0106667 24.032,29.256 L24.032,29.256 L24.3422041,29.3595102 L24.512,29.412 L24.512,24.102 Z" id="Combined-Shape" fill="#000000" fill-rule="nonzero"></path>
    </g>
</svg>