<?xml version="1.0" encoding="UTF-8"?>
<svg width="64px" height="64px" viewBox="0 0 64 64" version="1.1" xmlns="http://www.w3.org/2000/svg" xmlns:xlink="http://www.w3.org/1999/xlink">
    <title>payment_application_correction</title>
    <g id="payment_application_correction" stroke="none" stroke-width="1" fill="none" fill-rule="evenodd">
        <path d="M18.4433703,34.6868501 L21.7573593,38 C21.8417657,38.0844064 21.9280612,38.1657722 22.0161097,38.2440974 C22.0055533,38.4940838 22,38.7463934 22,39 C22,48.3888407 29.6111593,56 39,56 C48.3888407,56 56,48.3888407 56,39 C56,38.6644064 55.9902758,38.331084 55.9710938,38.0002991 L59.976647,38.0007931 C59.9921578,38.3319147 60,38.6650415 60,39 C60,50.5979797 50.5979797,60 39,60 C27.4020203,60 18,50.5979797 18,39 C18,37.5216283 18.152765,36.0789368 18.4433703,34.6868501 Z M45.352,38.976 C45.992,39.4773333 46.472,40.1066667 46.792,40.864 C47.112,41.6213333 47.272,42.544 47.272,43.632 C47.272,45.0186667 46.888,46.2133333 46.12,47.216 C45.416,48.1351111 44.5103333,48.8570371 43.403,49.3817778 L43.096,49.52 L42.71856,49.672 C42.4649067,49.768 42.2072,49.8533333 41.94544,49.928 L41.54976,50.032 L41.352,50.076 L41.352,52.048 L41.3450864,52.2295309 C41.308214,52.7046584 41.1238519,53.1081481 40.792,53.44 C40.4186667,53.8133333 39.9546667,54 39.4,54 C38.925926,54 38.5192758,53.8525103 38.1800494,53.5575309 L38.056,53.44 L37.9418272,53.3121975 C37.6910946,53.0061564 37.5500576,52.6452675 37.518716,52.2295309 L37.512,52.048 L37.512,50.248 L37.1453827,50.2093827 C36.3894979,50.1172016 35.6797037,49.9674074 35.016,49.76 C33.8213333,49.3866667 32.68,48.7306667 31.592,47.792 C31.3146667,47.5573333 31.1013333,47.2906667 30.952,46.992 C30.8026667,46.6933333 30.728,46.3946667 30.728,46.096 C30.728,45.6053333 30.904,45.1733333 31.256,44.8 C31.608,44.4266667 32.0506667,44.24 32.584,44.24 C32.9893333,44.24 33.352,44.368 33.672,44.624 C34.3813334,45.2026666 35.0865833,45.6588334 35.78775,45.9925 L36.088,46.128 L36.3336,46.22528 C36.5848,46.31744 36.8528,46.39424 37.1376,46.45568 L37.428,46.512 L37.512,46.525 L37.512,40.272 L37.25,40.223 C36.438,40.061 35.704,39.848 35.048,39.584 C34.1733333,39.232 33.4426667,38.784 32.856,38.24 C32.7721905,38.1622857 32.6913197,38.0826122 32.6133877,38.0009796 L43.6300698,37.9997951 C44.2973195,38.274047 44.8712962,38.5994487 45.352,38.976 Z M41.352,41.194 L41.352,46.221 L41.466,46.176 C42.0166666,45.9426667 42.4693334,45.644 42.824,45.28 C43.2293333,44.864 43.432,44.3893333 43.432,43.856 C43.432,43.2871111 43.2802963,42.7940741 42.9768889,42.3768889 L42.856,42.224 L42.7204938,42.0772346 C42.4821399,41.8369054 42.1812346,41.6179753 41.8177778,41.4204444 L41.5921975,41.3044938 L41.352,41.194 Z M39,18 C46.1365407,18 52.4416334,21.5598524 56.2364193,27.0006985 L51.0418134,27.0002193 C47.9637739,23.9114656 43.7051103,22 39,22 C38.7463934,22 38.4940838,22.0055533 38.2431862,22.0165448 C38.1657722,21.9280612 38.0844064,21.8417657 38,21.7573593 L34.6858503,18.4435791 C36.0782461,18.1528381 37.5212744,18 39,18 Z M39.5328438,24.3700754 L39.464,24.368 C39.9570371,24.368 40.3700082,24.5154897 40.7029136,24.8104691 L40.824,24.928 L40.9348148,25.0558025 C41.1781729,25.3618436 41.3150617,25.7227325 41.3454815,26.1384691 L41.352,26.32 L41.352,27 L39.6738282,27.0005541 C39.7144906,26.7588584 39.7403074,26.5151517 39.7512785,26.2709025 L39.7573593,26 C39.7573593,25.4511518 39.6825208,24.9023036 39.5328438,24.3700754 Z" id="Combined-Shape" fill="#000000" fill-rule="nonzero"></path>
        <path d="M18.828,4 L37.2928932,22.4644661 C39.2455147,24.4170876 39.2455147,27.5829124 37.2928932,29.5355339 L29.5355339,37.2928932 C27.5829124,39.2455147 24.4170876,39.2455147 22.4644661,37.2928932 L4,18.828 L4,13.17 L16.999,26.171 L20.171,23 L4,6.829 L4,4 L6.829,4 L23,20.171 L26.171,16.999 L13.17,4 L18.828,4 Z M29,19.828 L19.828,29 L25.2928932,34.4644661 C25.6834175,34.8549904 26.3165825,34.8549904 26.7071068,34.4644661 L34.4644661,26.7071068 C34.8549904,26.3165825 34.8549904,25.6834175 34.4644661,25.2928932 L29,19.828 Z" id="Combined-Shape" fill="#000000" fill-rule="nonzero"></path>
    </g>
</svg>