<?xml version="1.0" encoding="UTF-8"?>
<svg width="64px" height="64px" viewBox="0 0 64 64" version="1.1" xmlns="http://www.w3.org/2000/svg" xmlns:xlink="http://www.w3.org/1999/xlink">
    <title>payment_applications</title>
    <g id="payment_applications" stroke="none" stroke-width="1" fill="none" fill-rule="evenodd">
        <path d="M32,2 L40,10 L36,10 L36.0007366,12.400222 C45.1293309,14.2535879 52,22.3244286 52,32 C52,41.6755714 45.1293309,49.7464121 36.0007366,51.599778 L36,54 L40,54 L32,62 L24,54 L28,54 L28.0002624,51.5999808 C18.8711704,49.7470009 12,41.6759243 12,32 C12,22.3240757 18.8711704,14.2529991 28.0002624,12.4000192 L28,10 L24,10 L32,2 Z M32,15 C22.6111593,15 15,22.6111593 15,32 C15,41.3888407 22.6111593,49 32,49 C41.3888407,49 49,41.3888407 49,32 C49,22.6111593 41.3888407,15 32,15 Z M32.464,17.368 C33.0186667,17.368 33.472,17.5546667 33.824,17.928 L33.824,17.928 L33.9348148,18.0558025 C34.2129383,18.4055638 34.352,18.826963 34.352,19.32 L34.352,19.32 L34.352,20.484 L34.7182222,20.5573333 C35.1354074,20.6497778 35.5413333,20.7653333 35.936,20.904 C37.12,21.32 38.0853333,21.848 38.832,22.488 C39.4506667,22.9786667 39.76,23.544 39.76,24.184 C39.76,24.6533333 39.5786667,25.08 39.216,25.464 C38.8533333,25.848 38.4266667,26.04 37.936,26.04 C37.616,26.04 37.328,25.944 37.072,25.752 C36.7306667,25.4533333 36.272,25.1706667 35.696,24.904 L35.696,24.904 L35.258,24.712 C35.11,24.6506667 34.96,24.592 34.808,24.536 L34.808,24.536 L34.352,24.378 L34.352,30.293 L34.364,30.296 C34.9266667,30.4346667 35.4506667,30.584 35.936,30.744 C36.9066667,31.064 37.712,31.4746667 38.352,31.976 C38.992,32.4773333 39.472,33.1066667 39.792,33.864 C40.112,34.6213333 40.272,35.544 40.272,36.632 C40.272,38.0186667 39.888,39.2133333 39.12,40.216 C38.352,41.2186667 37.344,41.9866667 36.096,42.52 L36.096,42.52 L35.71856,42.672 C35.33808,42.816 34.94848,42.936 34.54976,43.032 L34.54976,43.032 L34.352,43.076 L34.352,45.048 L34.3450864,45.2295309 C34.308214,45.7046584 34.1238519,46.1081481 33.792,46.44 C33.4186667,46.8133333 32.9546667,47 32.4,47 C31.8666667,47 31.4186667,46.8133333 31.056,46.44 L31.056,46.44 L30.9418272,46.3121975 C30.6552757,45.9624362 30.512,45.541037 30.512,45.048 L30.512,45.048 L30.512,43.248 L30.1453827,43.2093827 C29.3894979,43.1172016 28.6797037,42.9674074 28.016,42.76 C26.8213333,42.3866667 25.68,41.7306667 24.592,40.792 C24.3146667,40.5573333 24.1013333,40.2906667 23.952,39.992 C23.8026667,39.6933333 23.728,39.3946667 23.728,39.096 C23.728,38.6053333 23.904,38.1733333 24.256,37.8 C24.608,37.4266667 25.0506667,37.24 25.584,37.24 C25.9893333,37.24 26.352,37.368 26.672,37.624 C27.4826667,38.2853333 28.288,38.7866667 29.088,39.128 L29.088,39.128 L29.3336,39.22528 C29.6685333,39.34816 30.0333333,39.4437333 30.428,39.512 L30.428,39.512 L30.512,39.525 L30.512,33.272 L30.25,33.223 C29.438,33.061 28.704,32.848 28.048,32.584 C27.1733333,32.232 26.4426667,31.784 25.856,31.24 C25.2693333,30.696 24.8266667,30.056 24.528,29.32 C24.2293333,28.584 24.08,27.7573333 24.08,26.84 C24.08,25.4533333 24.4373333,24.2693333 25.152,23.288 C25.8666667,22.3066667 26.832,21.56 28.048,21.048 L28.048,21.048 L28.41664,20.90208 C29.03744,20.67168 29.69024,20.50528 30.37504,20.40288 L30.37504,20.40288 L30.512,20.385 L30.512,19.32 L30.5189136,19.1384691 C30.555786,18.6633416 30.7401481,18.2598519 31.072,17.928 C31.4453333,17.5546667 31.9093333,17.368 32.464,17.368 Z M34.352,34.194 L34.352,39.221 L34.224,39.272 C34.8853333,39.0266667 35.4186667,38.696 35.824,38.28 C36.2293333,37.864 36.432,37.3893333 36.432,36.856 C36.432,36.216 36.24,35.672 35.856,35.224 L35.856,35.224 L35.7204938,35.0772346 C35.4344691,34.7888395 35.0583704,34.5312593 34.5921975,34.3044938 L34.5921975,34.3044938 L34.352,34.194 Z M30.512,24.102 L30.259,24.158 C30.0836667,24.202 29.9173333,24.2533333 29.76,24.312 C29.1306667,24.5466667 28.656,24.8666667 28.336,25.272 C28.016,25.6773333 27.856,26.1466667 27.856,26.68 C27.856,27.32 28.0426667,27.848 28.416,28.264 C28.7893333,28.68 29.328,29.0106667 30.032,29.256 L30.032,29.256 L30.3422041,29.3595102 L30.512,29.412 L30.512,24.102 Z" id="Combined-Shape" fill="#000000" fill-rule="nonzero"></path>
    </g>
</svg>