<?xml version="1.0" encoding="UTF-8"?>
<svg width="64px" height="64px" viewBox="0 0 64 64" version="1.1" xmlns="http://www.w3.org/2000/svg" xmlns:xlink="http://www.w3.org/1999/xlink">
    <title>payment_declined</title>
    <g id="payment_declined" stroke="none" fill="none">
        <path d="M25.464,10.368 C26.0186667,10.368 26.472,10.5546667 26.824,10.928 L26.824,10.928 L26.9348148,11.0558025 C27.2129383,11.4055638 27.352,11.826963 27.352,12.32 L27.352,12.32 L27.352,13.484 L27.7182222,13.5573333 C28.1354074,13.6497778 28.5413333,13.7653333 28.936,13.904 C30.12,14.32 31.0853333,14.848 31.832,15.488 C32.4506667,15.9786667 32.76,16.544 32.76,17.184 C32.76,17.6533333 32.5786667,18.08 32.216,18.464 C31.8533333,18.848 31.4266667,19.04 30.936,19.04 C30.616,19.04 30.328,18.944 30.072,18.752 C29.7306667,18.4533333 29.272,18.1706667 28.696,17.904 L28.696,17.904 L28.258,17.712 C28.11,17.6506667 27.96,17.592 27.808,17.536 L27.808,17.536 L27.352,17.378 L27.352,23.293 L27.364,23.296 C27.9266667,23.4346667 28.4506667,23.584 28.936,23.744 C29.9066667,24.064 30.712,24.4746667 31.352,24.976 C31.992,25.4773333 32.472,26.1066667 32.792,26.864 C33.112,27.6213333 33.272,28.544 33.272,29.632 C33.272,31.0186667 32.888,32.2133333 32.12,33.216 C31.352,34.2186667 30.344,34.9866667 29.096,35.52 L29.096,35.52 L28.71856,35.672 C28.33808,35.816 27.94848,35.936 27.54976,36.032 L27.54976,36.032 L27.352,36.076 L27.352,38.048 L27.3450864,38.2295309 C27.308214,38.7046584 27.1238519,39.1081481 26.792,39.44 C26.4186667,39.8133333 25.9546667,40 25.4,40 C24.8666667,40 24.4186667,39.8133333 24.056,39.44 L24.056,39.44 L23.9418272,39.3121975 C23.6552757,38.9624362 23.512,38.541037 23.512,38.048 L23.512,38.048 L23.512,36.248 L23.1453827,36.2093827 C22.3894979,36.1172016 21.6797037,35.9674074 21.016,35.76 C19.8213333,35.3866667 18.68,34.7306667 17.592,33.792 C17.3146667,33.5573333 17.1013333,33.2906667 16.952,32.992 C16.8026667,32.6933333 16.728,32.3946667 16.728,32.096 C16.728,31.6053333 16.904,31.1733333 17.256,30.8 C17.608,30.4266667 18.0506667,30.24 18.584,30.24 C18.9893333,30.24 19.352,30.368 19.672,30.624 C20.4826667,31.2853333 21.288,31.7866667 22.088,32.128 L22.088,32.128 L22.3336,32.22528 C22.6685333,32.34816 23.0333333,32.4437333 23.428,32.512 L23.428,32.512 L23.512,32.525 L23.512,26.272 L23.25,26.223 C22.438,26.061 21.704,25.848 21.048,25.584 C20.1733333,25.232 19.4426667,24.784 18.856,24.24 C18.2693333,23.696 17.8266667,23.056 17.528,22.32 C17.2293333,21.584 17.08,20.7573333 17.08,19.84 C17.08,18.4533333 17.4373333,17.2693333 18.152,16.288 C18.8666667,15.3066667 19.832,14.56 21.048,14.048 L21.048,14.048 L21.41664,13.90208 C22.03744,13.67168 22.69024,13.50528 23.37504,13.40288 L23.37504,13.40288 L23.512,13.385 L23.512,12.32 L23.5189136,12.1384691 C23.555786,11.6633416 23.7401481,11.2598519 24.072,10.928 C24.4453333,10.5546667 24.9093333,10.368 25.464,10.368 Z M27.352,27.194 L27.352,32.221 L27.224,32.272 C27.8853333,32.0266667 28.4186667,31.696 28.824,31.28 C29.2293333,30.864 29.432,30.3893333 29.432,29.856 C29.432,29.216 29.24,28.672 28.856,28.224 L28.856,28.224 L28.7204938,28.0772346 C28.4344691,27.7888395 28.0583704,27.5312593 27.5921975,27.3044938 L27.5921975,27.3044938 L27.352,27.194 Z M23.512,17.102 L23.259,17.158 C23.0836667,17.202 22.9173333,17.2533333 22.76,17.312 C22.1306667,17.5466667 21.656,17.8666667 21.336,18.272 C21.016,18.6773333 20.856,19.1466667 20.856,19.68 C20.856,20.32 21.0426667,20.848 21.416,21.264 C21.7893333,21.68 22.328,22.0106667 23.032,22.256 L23.032,22.256 L23.3422041,22.3595102 L23.512,22.412 L23.512,17.102 Z" id="Combined-Shape" fill="#000000" fill-rule="nonzero"></path>
        <path d="M25,4 C36.5979797,4 46,13.4020203 46,25 C46,26.3723942 45.868352,27.7140403 45.6169956,29.0129989 C45.4122911,29.0039159 45.2066029,29 45,29 C43.7712019,29 42.5747573,29.1385214 41.4254295,29.4008006 C41.7999585,27.997502 42,26.5221121 42,25 C42,15.6111593 34.3888407,8 25,8 C15.6111593,8 8,15.6111593 8,25 C8,34.3888407 15.6111593,42 25,42 C26.5221121,42 27.997502,41.7999585 29.4013136,41.4247315 C29.1385214,42.5747573 29,43.7712019 29,45 C29,45.2066029 29.0039159,45.4122911 29.0116774,45.6169946 C27.7140403,45.868352 26.3723942,46 25,46 C13.4020203,46 4,36.5979797 4,25 C4,13.4020203 13.4020203,4 25,4 Z" id="Oval" fill="#000000" fill-rule="nonzero"></path>
        <path d="M45,30 C53.2842712,30 60,36.7157288 60,45 C60,53.2842712 53.2842712,60 45,60 C36.7157288,60 30,53.2842712 30,45 C30,36.7157288 36.7157288,30 45,30 Z M39.3431458,36.5147186 C38.5620972,35.73367 37.2957672,35.73367 36.5147186,36.5147186 C35.73367,37.2957672 35.73367,38.5620972 36.5147186,39.3431458 L42.171,45 L36.5147186,50.6568542 C35.7747779,51.396795 35.7358336,52.5722792 36.3978859,53.3580666 L36.5147186,53.4852814 C37.2957672,54.26633 38.5620972,54.26633 39.3431458,53.4852814 L45,47.829 L50.6568542,53.4852814 C51.396795,54.2252221 52.5722792,54.2641664 53.3580666,53.6021141 L53.4852814,53.4852814 C54.26633,52.7042328 54.26633,51.4379028 53.4852814,50.6568542 L47.829,45 L53.4852814,39.3431458 C54.2252221,38.603205 54.2641664,37.4277208 53.6021141,36.6419334 L53.4852814,36.5147186 C52.7042328,35.73367 51.4379028,35.73367 50.6568542,36.5147186 L45,42.171 Z" id="Oval-3" fill="#000000" fill-rule="evenodd"></path>
    </g>
</svg>