<?xml version="1.0" encoding="UTF-8"?>
<svg width="64px" height="64px" viewBox="0 0 64 64" version="1.1" xmlns="http://www.w3.org/2000/svg" xmlns:xlink="http://www.w3.org/1999/xlink">
    <title>payment_application_unapply_all</title>
    <g id="payment_application_unapply_all" stroke="none" stroke-width="1" fill="none" fill-rule="evenodd">
        <path d="M17.8912988,51.5545794 L17.9283991,51.5883665 C18.4828852,52.0892158 19.0642226,52.5608979 19.6699921,53.0009938 L13.441,53 L10.241,57 L53.758,57 L50.558,53 L44.3300079,53.0009938 C44.9494109,52.550993 45.5432697,52.0679683 46.108998,51.5545057 C47.6487751,51.2150816 49.1187277,50.68873 50.4935733,50.0005102 L52,50 L60,60 L4,60 L12,50 L13.5064267,50.0005102 C14.8812723,50.68873 16.3512249,51.2150816 17.8912988,51.5545794 Z" id="Path-202-2" fill="#000000" fill-rule="nonzero"></path>
        <g id="Group" transform="translate(14.000000, 9.000000)" fill="#000000" fill-rule="nonzero">
            <path d="M18,0 L25,7 L21,7 L21,11 C29,12.5 36,20.1778489 36,29 C36,38.9066859 27.9411255,47 18,47 C8.0588745,47 0,38.9066859 0,29 C0,20.17753 6.5,12 15,11 L15,7 L11,7 L18,0 Z M18,14 C9.71572879,14 3,20.7157288 3,29 C3,37.2842712 9.71572879,44 18,44 C26.2842712,44 33,37.2842712 33,29 C33,20.7157288 26.2842712,14 18,14 Z" id="coin"></path>
            <path d="M17.9206963,16 C18.360735,16 18.730431,16.1253994 19.0297842,16.376198 L19.1537718,16.4913607 L19.2542446,16.6034984 C19.4703878,16.8665478 19.5938982,17.1757781 19.6247758,17.5311891 L19.6324952,17.712743 L19.6324952,18.7340713 L19.964539,18.7984161 C20.3427896,18.8795297 20.7108317,18.9809215 21.0686654,19.1025918 C22.1421663,19.4676026 23.0174081,19.9308855 23.6943907,20.4924406 C24.2553192,20.9229662 24.5357834,21.4190065 24.5357834,21.9805616 C24.5357834,22.3923686 24.3713733,22.7667387 24.0425532,23.1036717 C23.713733,23.4406048 23.3268859,23.6090713 22.8820116,23.6090713 C22.5918762,23.6090713 22.3307544,23.524838 22.098646,23.3563715 C21.8407479,23.1379889 21.5089727,22.9293557 21.1033204,22.7304716 L20.8510638,22.612311 L20.453941,22.4438445 L20.2512996,22.3648758 L20.2512996,22.3648758 L20.0459381,22.2894168 L19.6324952,22.1507829 L19.6324952,27.3407802 L19.6433752,27.3434125 C20.15353,27.4650828 20.6286267,27.5961123 21.0686654,27.7365011 C21.9487428,28.0172786 22.6789168,28.3776098 23.2591876,28.8174946 C23.8394584,29.2573794 24.2746615,29.8095753 24.5647969,30.4740821 C24.8549323,31.1385889 25,31.9481641 25,32.9028078 C25,34.1195105 24.6518375,35.1677466 23.9555126,36.0475162 C23.3224899,36.8473068 22.5096312,37.4769291 21.5169366,37.9363833 L21.2137331,38.0691145 L20.8715184,38.2024838 C20.6415377,38.2867171 20.407882,38.3615911 20.1705513,38.4271058 L19.8117988,38.5183585 L19.6324952,38.5569654 L19.6324952,40.287257 L19.6262268,40.4465376 C19.5927956,40.8634287 19.4256394,41.2174626 19.1247582,41.5086393 C18.786267,41.8362131 18.3655706,42 17.8626692,42 C17.4395552,42 17.075677,41.8746006 16.7710348,41.623802 L16.6441006,41.5086393 L16.5405832,41.3965016 C16.3178901,41.1334522 16.190637,40.8242219 16.1588237,40.4688109 L16.1508704,40.287257 L16.1508704,38.7078834 L15.8184684,38.6739994 C15.1331279,38.593117 14.4895766,38.4616831 13.8878143,38.2796976 C12.8046421,37.9521239 11.7698259,37.3765299 10.7833656,36.5529158 C10.5319149,36.3470122 10.3384913,36.113031 10.2030948,35.8509719 C10.0676983,35.5889129 10,35.3268539 10,35.0647948 C10,34.6342692 10.1595745,34.2552196 10.4787234,33.9276458 C10.7978723,33.600072 11.1992263,33.4362851 11.6827853,33.4362851 C12.0502901,33.4362851 12.3791103,33.5485961 12.6692456,33.7732181 C13.299254,34.2705955 13.9257096,34.6648301 14.5486125,34.9559219 L14.8597679,35.0928726 L15.0824468,35.1782289 C15.3102031,35.2590929 15.5531915,35.3264795 15.811412,35.3803888 L16.0747099,35.4298056 L16.1508704,35.4412122 L16.1508704,29.9546436 L15.9133221,29.9116496 C15.1771035,29.7695059 14.5116054,29.5826134 13.9168279,29.3509719 C13.1237911,29.0421166 12.4613153,28.6490281 11.9294004,28.1717063 C11.3974855,27.6943844 10.9961316,27.1328294 10.7253385,26.487041 C10.4545454,25.8412527 10.3191489,25.1159107 10.3191489,24.3110151 C10.3191489,23.0943124 10.6431334,22.0554355 11.2911025,21.1943844 C11.8801653,20.4116107 12.6570568,19.7990052 13.6217769,19.3565678 L13.9168279,19.2289417 L14.2510638,19.1009071 C14.701354,18.9391793 15.1702128,18.8133909 15.6576402,18.7235421 L16.0266925,18.6628942 L16.1508704,18.6472057 L16.1508704,17.712743 L16.1571388,17.5534624 C16.19057,17.1365713 16.3577262,16.7825374 16.6586074,16.4913607 C16.9970986,16.1637869 17.4177949,16 17.9206963,16 Z M20.115942,31 L20.115942,34.9598267 L20,35 C20.5990338,34.8067481 21.0821256,34.5462781 21.4492754,34.21859 C21.8164251,33.8909019 22,33.5170014 22,33.0968885 C22,32.65577 21.8668478,32.2725482 21.6005435,31.9472233 L21.4782609,31.811343 L21.3555197,31.6957342 C21.1482555,31.5139965 20.8887744,31.3477936 20.5770764,31.1971255 L20.3335122,31.0870373 L20.115942,31 Z M16,22 L15.809488,22.0527307 C15.6774599,22.094162 15.5522088,22.1424984 15.4337349,22.1977401 C14.9598394,22.4187069 14.6024096,22.7200251 14.3614458,23.1016949 C14.1204819,23.4833647 14,23.9252982 14,24.4274953 C14,25.0301318 14.1405623,25.527307 14.4216867,25.9190207 C14.6626506,26.2547754 14.9950824,26.5314962 15.418982,26.7491833 L15.6385542,26.8531073 L15.8721416,26.9505746 L16,27 L16,22 Z" id="Combined-Shape"></path>
        </g>
        <path d="M22,4 L28.792,10.792 L28.585,11 L25,11 L25,14.584 L22.5857864,17 L28,17 L28,19.1359305 L27.8179499,19.170026 C26.0289139,18.4165086 24.0630974,18 22,18 C13.7157288,18 7,24.7157288 7,33 C7,38.7003203 10.1796774,43.6579873 14.8621414,46.1961101 C15.6077673,47.7511761 16.5600294,49.1900844 17.6827243,50.4770775 C9.82698576,48.5366367 4,41.4238994 4,33 C4,24.17753 10.5,16 19,15 L19,11 L15,11 L22,4 Z" id="coin" fill="#000000" fill-rule="nonzero"></path>
        <path d="M42,4 L49,11 L45,11 L45,15 C53,16.5 60,24.1778489 60,33 C60,41.4238994 54.1730142,48.5366367 46.31661,50.4771211 C47.4399706,49.1900844 48.3922327,47.7511761 49.1389049,46.1961684 C53.8203226,43.6579873 57,38.7003203 57,33 C57,24.7157288 50.2842712,18 42,18 C39.8992336,18 37.8993328,18.4318571 36.0842321,19.2116369 L36,19.1909362 L36,17 L41.4142136,17 L39,14.585 L39,11 L35.415,11 L35.208,10.793 L42,4 Z" id="coin-copy" fill="#000000" fill-rule="nonzero"></path>
    </g>
</svg>