<?xml version="1.0" encoding="UTF-8"?>
<svg width="64px" height="64px" viewBox="0 0 64 64" version="1.1" xmlns="http://www.w3.org/2000/svg" xmlns:xlink="http://www.w3.org/1999/xlink">
    <title>payment_cash</title>
    <g id="payment_cash" stroke="none" stroke-width="1" fill="none" fill-rule="evenodd">
        <path d="M58,17 L6,17 L6,47 L58,47 L58,17 Z M56,19 L56,45 L8,45 L8,19 L56,19 Z" id="Rectangle-268" fill="#000000" fill-rule="nonzero"></path>
        <path d="M7.99999994,26 C14.9999999,26 14.9999999,19 14.9999999,19 L7.99999994,19 C7.99999994,19 7.99999994,22.9380709 7.99999994,26 Z" id="Path-674" fill="#000000" fill-rule="nonzero"></path>
        <path d="M49,26 C56,26 56,19 56,19 L49,19 C49,19 49,22.9380709 49,26 Z" id="Path-674-Copy" fill="#000000" fill-rule="nonzero" transform="translate(52.500000, 22.500000) scale(-1, 1) translate(-52.500000, -22.500000) "></path>
        <path d="M49,45 C56,45 56,38 56,38 L49,38 C49,38 49,41.9380709 49,45 Z" id="Path-674-Copy-2" fill="#000000" fill-rule="nonzero" transform="translate(52.500000, 41.500000) rotate(180.000000) translate(-52.500000, -41.500000) "></path>
        <path d="M7.99999994,45 C14.9999999,45 14.9999999,38 14.9999999,38 L7.99999994,38 C7.99999994,38 7.99999994,41.9380709 7.99999994,45 Z" id="Path-674-Copy-3" fill="#000000" fill-rule="nonzero" transform="translate(11.500000, 41.500000) scale(-1, 1) rotate(-180.000000) translate(-11.500000, -41.500000) "></path>
        <path d="M31.1601562,37.4570312 L31.1601562,32.546875 C29.6288986,32.1093728 28.5058629,31.4472701 27.7910156,30.5605469 C27.0761683,29.6738237 26.71875,28.5976626 26.71875,27.3320312 C26.71875,26.0507748 27.1230428,24.9746137 27.9316406,24.1035156 C28.7402384,23.2324175 29.8163995,22.7304694 31.1601562,22.5976562 L31.1601562,21.4375 L32.859375,21.4375 L32.859375,22.5976562 C34.1015687,22.7460945 35.0898401,23.1699184 35.8242188,23.8691406 C36.5585974,24.5683629 37.0273427,25.5039004 37.2304688,26.6757812 L34.265625,27.0625 C34.0859366,26.1406204 33.6171913,25.5156266 32.859375,25.1875 L32.859375,29.7695312 C34.7343844,30.2773463 36.0117154,30.9355428 36.6914062,31.7441406 C37.3710971,32.5527384 37.7109375,33.5898374 37.7109375,34.8554688 C37.7109375,36.2695383 37.2832074,37.4609327 36.4277344,38.4296875 C35.5722613,39.3984423 34.3828201,39.9921864 32.859375,40.2109375 L32.859375,42.4023438 L31.1601562,42.4023438 L31.1601562,40.2695312 C29.808587,40.1054679 28.7109417,39.6015667 27.8671875,38.7578125 C27.0234333,37.9140583 26.4843762,36.7226639 26.25,35.1835938 L29.3085938,34.8554688 C29.4335944,35.4804719 29.667967,36.019529 30.0117188,36.4726562 C30.3554705,36.9257835 30.7382791,37.2539052 31.1601562,37.4570312 L31.1601562,37.4570312 Z M31.1601562,25.1523438 C30.6992164,25.3085945 30.3320326,25.5742169 30.0585938,25.9492188 C29.7851549,26.3242206 29.6484375,26.738279 29.6484375,27.1914062 C29.6484375,27.6054708 29.7734362,27.9902326 30.0234375,28.3457031 C30.2734388,28.7011737 30.6523412,28.9882802 31.1601562,29.2070312 L31.1601562,25.1523438 Z M32.859375,37.6210938 C33.4453154,37.5117182 33.9218732,37.2402365 34.2890625,36.8066406 C34.6562518,36.3730447 34.8398438,35.8632842 34.8398438,35.2773438 C34.8398438,34.7539036 34.6855484,34.3027363 34.3769531,33.9238281 C34.0683578,33.54492 33.5625035,33.2539073 32.859375,33.0507812 L32.859375,37.6210938 Z" id="$" fill="#000000" fill-rule="nonzero"></path>
    </g>
</svg>