<?xml version="1.0" encoding="UTF-8"?>
<svg width="64px" height="64px" viewBox="0 0 64 64" version="1.1" xmlns="http://www.w3.org/2000/svg" xmlns:xlink="http://www.w3.org/1999/xlink">
    <title>payment_application_apply</title>
    <g id="payment_application_apply" stroke="none" stroke-width="1" fill="none" fill-rule="evenodd">
        <polygon id="Path-202" fill="#000000" fill-rule="nonzero" points="24.405 50 27.443 53 13.441 53 10.241 57 31.494 57 32 57.5 32.506 57 53.758 57 50.558 53 36.557 53 39.595 50 52 50 60 60 4 60 12 50"></polygon>
        <g id="coin" transform="translate(12.000000, 4.000000)" fill="#000000" fill-rule="nonzero">
            <path d="M20,0 C31.045695,0 40,8.954305 40,20 C40,29.6755714 33.1293309,37.7464121 24.0007366,39.599778 L24,44 L28,44 L20,52 L12,44 L16,44 L16.0002624,39.5999808 C6.87117038,37.7470009 0,29.6759243 0,20 C0,8.954305 8.954305,0 20,0 Z M20,3 C10.6111593,3 3,10.6111593 3,20 C3,29.3888407 10.6111593,37 20,37 C29.3888407,37 37,29.3888407 37,20 C37,10.6111593 29.3888407,3 20,3 Z M20.464,5.368 C21.0186667,5.368 21.472,5.55466667 21.824,5.928 L21.824,5.928 L21.9348148,6.05580247 C22.2129383,6.40556379 22.352,6.82696296 22.352,7.32 L22.352,7.32 L22.352,8.484 L22.7182222,8.55733333 C23.1354074,8.64977778 23.5413333,8.76533333 23.936,8.904 C25.12,9.32 26.0853333,9.848 26.832,10.488 C27.4506667,10.9786667 27.76,11.544 27.76,12.184 C27.76,12.6533333 27.5786667,13.08 27.216,13.464 C26.8533333,13.848 26.4266667,14.04 25.936,14.04 C25.616,14.04 25.328,13.944 25.072,13.752 C24.7306667,13.4533333 24.272,13.1706667 23.696,12.904 L23.696,12.904 L23.258,12.712 C23.11,12.6506667 22.96,12.592 22.808,12.536 L22.808,12.536 L22.352,12.378 L22.352,18.293 L22.364,18.296 C22.9266667,18.4346667 23.4506667,18.584 23.936,18.744 C24.9066667,19.064 25.712,19.4746667 26.352,19.976 C26.992,20.4773333 27.472,21.1066667 27.792,21.864 C28.112,22.6213333 28.272,23.544 28.272,24.632 C28.272,26.0186667 27.888,27.2133333 27.12,28.216 C26.352,29.2186667 25.344,29.9866667 24.096,30.52 L24.096,30.52 L23.71856,30.672 C23.33808,30.816 22.94848,30.936 22.54976,31.032 L22.54976,31.032 L22.352,31.076 L22.352,33.048 L22.3450864,33.2295309 C22.308214,33.7046584 22.1238519,34.1081481 21.792,34.44 C21.4186667,34.8133333 20.9546667,35 20.4,35 C19.8666667,35 19.4186667,34.8133333 19.056,34.44 L19.056,34.44 L18.9418272,34.3121975 C18.6552757,33.9624362 18.512,33.541037 18.512,33.048 L18.512,33.048 L18.512,31.248 L18.1453827,31.2093827 C17.3894979,31.1172016 16.6797037,30.9674074 16.016,30.76 C14.8213333,30.3866667 13.68,29.7306667 12.592,28.792 C12.3146667,28.5573333 12.1013333,28.2906667 11.952,27.992 C11.8026667,27.6933333 11.728,27.3946667 11.728,27.096 C11.728,26.6053333 11.904,26.1733333 12.256,25.8 C12.608,25.4266667 13.0506667,25.24 13.584,25.24 C13.9893333,25.24 14.352,25.368 14.672,25.624 C15.4826667,26.2853333 16.288,26.7866667 17.088,27.128 L17.088,27.128 L17.3336,27.22528 C17.6685333,27.34816 18.0333333,27.4437333 18.428,27.512 L18.428,27.512 L18.512,27.525 L18.512,21.272 L18.25,21.223 C17.438,21.061 16.704,20.848 16.048,20.584 C15.1733333,20.232 14.4426667,19.784 13.856,19.24 C13.2693333,18.696 12.8266667,18.056 12.528,17.32 C12.2293333,16.584 12.08,15.7573333 12.08,14.84 C12.08,13.4533333 12.4373333,12.2693333 13.152,11.288 C13.8666667,10.3066667 14.832,9.56 16.048,9.048 L16.048,9.048 L16.41664,8.90208 C17.03744,8.67168 17.69024,8.50528 18.37504,8.40288 L18.37504,8.40288 L18.512,8.385 L18.512,7.32 L18.5189136,7.13846914 C18.555786,6.66334156 18.7401481,6.25985185 19.072,5.928 C19.4453333,5.55466667 19.9093333,5.368 20.464,5.368 Z M22.352,22.194 L22.352,27.221 L22.224,27.272 C22.8853333,27.0266667 23.4186667,26.696 23.824,26.28 C24.2293333,25.864 24.432,25.3893333 24.432,24.856 C24.432,24.216 24.24,23.672 23.856,23.224 L23.856,23.224 L23.7204938,23.0772346 C23.4344691,22.7888395 23.0583704,22.5312593 22.5921975,22.3044938 L22.5921975,22.3044938 L22.352,22.194 Z M18.512,12.102 L18.259,12.158 C18.0836667,12.202 17.9173333,12.2533333 17.76,12.312 C17.1306667,12.5466667 16.656,12.8666667 16.336,13.272 C16.016,13.6773333 15.856,14.1466667 15.856,14.68 C15.856,15.32 16.0426667,15.848 16.416,16.264 C16.7893333,16.68 17.328,17.0106667 18.032,17.256 L18.032,17.256 L18.3422041,17.3595102 L18.512,17.412 L18.512,12.102 Z" id="Combined-Shape"></path>
        </g>
    </g>
</svg>