<?xml version="1.0" encoding="UTF-8"?>
<svg width="64px" height="64px" viewBox="0 0 64 64" version="1.1" xmlns="http://www.w3.org/2000/svg" xmlns:xlink="http://www.w3.org/1999/xlink">
    <title>payment</title>
    <g id="payment" stroke="none" stroke-width="1" fill="none" fill-rule="evenodd">
        <g id="Group" transform="translate(24.000000, 4.000000)" fill="#000000" fill-rule="nonzero">
            <path d="M18,6 C19.1045695,6 20,6.8954305 20,8 L20.0009768,9.26693122 C20.7893512,9.43869404 21.5435665,9.70917643 22.2636227,10.0783784 C22.9980616,10.454955 23.6140426,10.9513514 24.1115658,11.5675676 C24.3721732,11.9099099 24.5261684,12.3207207 24.5735516,12.8 C24.6209347,13.2792793 24.3958647,13.7129129 23.8983416,14.1009009 C23.5429679,14.3747748 23.1283653,14.4945946 22.6545337,14.4603604 C22.1807021,14.4261261 21.7897911,14.2720721 21.4818006,13.9981982 C21.0790437,13.4960961 20.5400603,13.0966967 19.8648503,12.8 L20,12.863 L19.9999918,17.1594634 C20.1211946,17.1966798 20.2427288,17.2348542 20.3645946,17.2739865 L20.9132027,17.4558559 C21.6476416,17.7069069 22.3228516,18.0378378 22.9388327,18.4486486 C23.5548137,18.8594595 24.0523369,19.3900901 24.4314021,20.0405405 C24.8104674,20.690991 25,21.5183183 25,22.5225225 C25,23.6864865 24.6446263,24.6792793 23.933879,25.5009009 C23.2231316,26.3225225 22.3346974,26.9444444 21.2685764,27.3666667 C20.8495439,27.5326186 20.4268514,27.6659573 20.000499,27.7666828 L20,28 C20,29.1045695 19.1045695,30 18,30 C16.8954305,30 16,29.1045695 16,28 L16.00042,27.8405652 C15.2688563,27.7238537 14.5372927,27.5430647 13.8057291,27.2981982 C12.4079259,26.8303303 11.2470386,26.003003 10.323067,24.8162162 C10.0861512,24.4966967 9.97953909,24.0858859 10.0032307,23.5837838 C10.0269222,23.0816817 10.3349128,22.648048 10.9272022,22.2828829 C11.3062675,22.0546547 11.7090243,21.9576577 12.1354728,21.9918919 C12.5619212,22.0261261 12.9765238,22.2372372 13.3792806,22.6252252 C14.0663364,23.2870871 14.7889296,23.8006006 15.5470601,24.1657658 C15.6912292,24.235207 15.8422522,24.2980456 16.0001292,24.3542817 L16.0017794,19.7827602 C15.681638,19.6845033 15.3583009,19.5821418 15.0317683,19.4756757 C14.2617919,19.2246246 13.5569675,18.8993994 12.9172949,18.5 C12.2776222,18.1006006 11.7564075,17.56997 11.3536507,16.9081081 C10.9508938,16.2462462 10.7495154,15.4132132 10.7495154,14.409009 C10.7495154,13.2678679 11.0811975,12.2978979 11.7445617,11.4990991 C12.4079259,10.7003003 13.2667456,10.0840841 14.3210209,9.65045045 C14.8664123,9.42612567 15.4260692,9.25982408 15.9999914,9.15154566 L16,8 C16,6.8954305 16.8954305,6 18,6 Z M20.0024041,21.0798486 L20.0012989,24.4337822 C20.2501809,24.3353085 20.4771512,24.1946184 20.6822098,24.0117117 C21.0020461,23.7264264 21.1619642,23.2870871 21.1619642,22.6936937 C21.1619642,22.1915916 20.9842774,21.7921922 20.6289037,21.4954955 C20.4489323,21.3452398 20.2400991,21.2066909 20.0024041,21.0798486 Z M16.0000354,12.5796896 C15.7415068,12.6737315 15.5075945,12.8099311 15.2982985,12.9882883 C14.990308,13.2507508 14.8363127,13.6672673 14.8363127,14.2378378 C14.8363127,14.7627628 15.0139996,15.1792793 15.3693733,15.4873874 C15.5477994,15.6420824 15.7575801,15.7823943 15.9987153,15.9083229 Z" id="small-dollar"></path>
            <path d="M18,0 C27.9411255,0 36,8.0588745 36,18 C36,27.9411255 27.9411255,36 18,36 C8.0588745,36 0,27.9411255 0,18 C0,8.0588745 8.0588745,0 18,0 Z M18,4 C10.2680135,4 4,10.2680135 4,18 C4,25.7319865 10.2680135,32 18,32 C25.7319865,32 32,25.7319865 32,18 C32,10.2680135 25.7319865,4 18,4 Z" id="Oval"></path>
        </g>
        <path d="M15,36 C15.7460616,36 16.3967122,36.4085029 16.7404796,37.0140364 L17.0961824,37.0198882 L18.0881891,37.044657 C18.2504587,37.0496036 18.4112044,37.0549587 18.5704388,37.0607209 L19.5078127,37.1001697 C19.6610532,37.1075553 19.8128079,37.1153456 19.9630897,37.1235393 L20.8472059,37.1775309 L21.6965809,37.2411416 C21.8352823,37.2525416 21.9725616,37.2643398 22.1084315,37.276535 L22.9068409,37.3544601 C23.1674078,37.3820162 23.4224393,37.4111502 23.6720371,37.4418518 L24.4046313,37.5386492 C27.2706194,37.9445694 29.3688295,38.5747653 30.8752859,39.4116854 C31.6246177,39.8279809 32.2121534,40.2829311 32.7200003,40.8037997 L32.9312407,41.0314124 L33.356,41.519 L33.3765395,41.518806 L33.4449555,41.5401334 C33.6929919,41.6228122 34.0594028,41.7024667 34.5328427,41.770101 C34.7596282,41.8024989 35.0064861,41.8315686 35.2732271,41.8572488 L35.8331639,41.9040716 C35.9308864,41.9111162 36.0308042,41.9177796 36.1329102,41.9240595 L36.7717486,41.9571201 C36.8825793,41.9618573 36.9955843,41.9662065 37.1107564,41.9701656 L37.8277392,41.9892188 C37.951552,41.9916078 38.0775179,41.993602 38.20563,41.9951993 L39,42 C41.3753453,42 42.9847925,43.2701122 43.3961582,45.378153 L43.431,45.581 L46.7255359,44.3657992 L48.8114518,43.6168532 L49.633204,43.3337278 L50.2193371,43.1438331 L50.5149287,43.059715 C52.9808606,42.443232 54.8665783,42.2337079 56.3922323,42.5388386 C58.6340165,42.9871955 60,44.6015396 60,47 C60,48.5900531 58.4555497,50.2334486 55.7061548,51.9712395 L55.1766057,52.2981915 L54.619313,52.627416 L54.0347741,52.9589732 C53.9351081,53.0144305 53.8343275,53.0699874 53.7324428,53.1256454 L53.107967,53.4608143 L52.4574882,53.7984663 L51.7815039,54.1386614 L51.0805113,54.4814598 L50.3550077,54.8269215 L49.6054905,55.1751069 L48.8324569,55.5260759 L48.4372769,55.7026231 C47.7835874,55.9931518 47.1291988,56.2745504 46.4772212,56.5456355 L45.5014517,56.9443801 C44.6904652,57.2699749 43.8856755,57.5785303 43.0931567,57.8677353 L42.1484128,58.2053452 L41.2177815,58.523491 L40.3035952,58.8212854 C36.9845786,59.8748024 34.0442407,60.5 32,60.5 C27.5931087,60.5 22.487619,59.0308261 16.6540094,56.1255254 C16.2939676,56.6531173 15.6874932,57 15,57 L15,57 L6,57 C4.8954305,57 4,56.1045695 4,55 L4,55 L4,38 C4,36.8954305 4.8954305,36 6,36 L6,36 Z M17,41.019 L17.0012001,51.8072973 C22.9421003,54.9498101 27.9542465,56.5 32,56.5 C33.0187944,56.5 34.4168405,56.2755095 36.0566127,55.8713374 L36.7737708,55.6872505 C36.8956301,55.6547794 37.0186224,55.6214242 37.1426977,55.5872013 L37.8997438,55.3715813 C38.0279504,55.3339526 38.1571396,55.2954889 38.2872615,55.2562064 L39.0787827,55.0108169 L39.8902802,54.7465609 L40.7193483,54.4642222 L41.5635813,54.1645846 L42.4205735,53.848432 C42.5643351,53.7944072 42.7085282,53.7397269 42.8531025,53.6844075 L43.7247228,53.3449519 C43.8706218,53.2871413 44.0168018,53.2287241 44.1632127,53.1697168 L45.0440483,52.808722 C45.3383166,52.6861169 45.6331076,52.5612818 45.9280203,52.4343474 L46.8127231,52.0473769 C49.5929534,50.811719 52.0780875,49.5161514 53.8382542,48.3814985 C54.7013575,47.8251179 55.361113,47.3254972 55.7741924,46.9230096 L55.8916057,46.8041456 L55.949,46.741 L55.9398376,46.7195504 C55.8151691,46.4743756 55.4839511,46.3391968 54.8289027,46.3515584 L54.5493343,46.3644609 C54.4502026,46.371444 54.3450358,46.381139 54.2335561,46.393635 L53.8799,46.4396146 L53.486698,46.5029338 L53.0522821,46.5841264 L52.5749844,46.6837265 L52.0531367,46.8022681 C51.962357,46.8236331 51.8696515,46.8458096 51.7749855,46.8688087 L51.3947699,46.9650679 L51.0269944,47.0817663 L50.3211232,47.3239281 L48.2931864,48.0519572 L45.3414211,49.1388965 L40.7035724,50.8721607 C40.5348676,50.9355613 40.3586291,50.9757706 40.1796775,50.9919127 L40,51 L28,51 L27.8261728,50.9941619 C25.3900174,50.8279745 25.3912764,47.1681598 27.8299498,47.0055834 L28,47 L39.5,47 C39.6397899,46.9943469 39.9985545,46.9750803 40,46.5 C40.0009637,46.1832798 39.7525872,46.015938 39.2548706,45.9979746 L39,46 L38.1796308,45.9958666 L37.4041251,45.9830301 C37.2785575,45.980129 37.1548177,45.976838 37.032885,45.9731435 L36.3228087,45.9460245 L35.655108,45.9085655 C33.0677298,45.7371764 31.4734859,45.3019131 30.5857864,44.4142136 L30.4416047,44.2592112 L29.9037329,43.6476759 C29.8840079,43.6258353 29.8677938,43.6082968 29.8559997,43.5962003 C29.6137789,43.3477687 29.3345733,43.1315697 28.9327141,42.9083146 C28.6052376,42.7263831 28.2246234,42.5548761 27.786998,42.3949526 L27.3978383,42.2607391 C27.2634042,42.2169649 27.1242257,42.1741633 26.9802126,42.1323614 L26.5335788,42.0099817 L26.0573949,41.8937623 L25.5511188,41.7838652 L25.0142083,41.6804528 L24.4461215,41.5836872 C24.2515029,41.5525578 24.0515979,41.5225633 23.8463162,41.4937307 L23.2142503,41.4107454 L22.5493817,41.3348937 L21.8511684,41.2663376 C21.7319906,41.2555286 21.6114009,41.2450303 21.489388,41.2348462 L20.7401411,41.1775378 L19.9561943,41.1279307 L19.1370054,41.086187 L18.2820323,41.052469 L17.390733,41.0269389 L17,41.019 Z M13,40 L8,40 L8,53 L13,53 L13,40 Z" id="Combined-Shape" fill="#000000" fill-rule="nonzero"></path>
    </g>
</svg>