<?xml version="1.0" encoding="UTF-8"?>
<svg width="64px" height="64px" viewBox="0 0 64 64" version="1.1" xmlns="http://www.w3.org/2000/svg" xmlns:xlink="http://www.w3.org/1999/xlink">
    <title>payment_application_unapply</title>
    <g id="payment_application_unapply" stroke="none" stroke-width="1" fill="none" fill-rule="evenodd">
        <path d="M53.758,57 L50.558,53 L44.3300079,53.0009938 C45.541547,52.1208019 46.6553572,51.1142655 47.652087,50.0007357 L52,50 L60,60 L4,60 L12,50 L16.347913,50.0007357 C17.3446428,51.1142655 18.458453,52.1208019 19.6699921,53.0009938 L13.441,53 L10.241,57 L53.758,57 Z" id="Path-202" fill="#000000" fill-rule="nonzero"></path>
        <g id="coin" transform="translate(12.000000, 4.000000)" fill="#000000" fill-rule="nonzero">
            <path d="M20,0 L28,8 L24,8 L24.0007366,12.400222 C33.1293309,14.2535879 40,22.3244286 40,32 C40,43.045695 31.045695,52 20,52 C8.954305,52 0,43.045695 0,32 C0,22.3240757 6.87117038,14.2529991 16.0002624,12.4000192 L16,8 L12,8 L20,0 Z M20,15 C10.6111593,15 3,22.6111593 3,32 C3,41.3888407 10.6111593,49 20,49 C29.3888407,49 37,41.3888407 37,32 C37,22.6111593 29.3888407,15 20,15 Z M20.464,17.368 C21.0186667,17.368 21.472,17.5546667 21.824,17.928 L21.824,17.928 L21.9348148,18.0558025 C22.2129383,18.4055638 22.352,18.826963 22.352,19.32 L22.352,19.32 L22.352,20.484 L22.7182222,20.5573333 C23.1354074,20.6497778 23.5413333,20.7653333 23.936,20.904 C25.12,21.32 26.0853333,21.848 26.832,22.488 C27.4506667,22.9786667 27.76,23.544 27.76,24.184 C27.76,24.6533333 27.5786667,25.08 27.216,25.464 C26.8533333,25.848 26.4266667,26.04 25.936,26.04 C25.616,26.04 25.328,25.944 25.072,25.752 C24.7306667,25.4533333 24.272,25.1706667 23.696,24.904 L23.696,24.904 L23.258,24.712 C23.11,24.6506667 22.96,24.592 22.808,24.536 L22.808,24.536 L22.352,24.378 L22.352,30.293 L22.364,30.296 C22.9266667,30.4346667 23.4506667,30.584 23.936,30.744 C24.9066667,31.064 25.712,31.4746667 26.352,31.976 C26.992,32.4773333 27.472,33.1066667 27.792,33.864 C28.112,34.6213333 28.272,35.544 28.272,36.632 C28.272,38.0186667 27.888,39.2133333 27.12,40.216 C26.352,41.2186667 25.344,41.9866667 24.096,42.52 L24.096,42.52 L23.71856,42.672 C23.33808,42.816 22.94848,42.936 22.54976,43.032 L22.54976,43.032 L22.352,43.076 L22.352,45.048 L22.3450864,45.2295309 C22.308214,45.7046584 22.1238519,46.1081481 21.792,46.44 C21.4186667,46.8133333 20.9546667,47 20.4,47 C19.8666667,47 19.4186667,46.8133333 19.056,46.44 L19.056,46.44 L18.9418272,46.3121975 C18.6552757,45.9624362 18.512,45.541037 18.512,45.048 L18.512,45.048 L18.512,43.248 L18.1453827,43.2093827 C17.3894979,43.1172016 16.6797037,42.9674074 16.016,42.76 C14.8213333,42.3866667 13.68,41.7306667 12.592,40.792 C12.3146667,40.5573333 12.1013333,40.2906667 11.952,39.992 C11.8026667,39.6933333 11.728,39.3946667 11.728,39.096 C11.728,38.6053333 11.904,38.1733333 12.256,37.8 C12.608,37.4266667 13.0506667,37.24 13.584,37.24 C13.9893333,37.24 14.352,37.368 14.672,37.624 C15.4826667,38.2853333 16.288,38.7866667 17.088,39.128 L17.088,39.128 L17.3336,39.22528 C17.6685333,39.34816 18.0333333,39.4437333 18.428,39.512 L18.428,39.512 L18.512,39.525 L18.512,33.272 L18.25,33.223 C17.438,33.061 16.704,32.848 16.048,32.584 C15.1733333,32.232 14.4426667,31.784 13.856,31.24 C13.2693333,30.696 12.8266667,30.056 12.528,29.32 C12.2293333,28.584 12.08,27.7573333 12.08,26.84 C12.08,25.4533333 12.4373333,24.2693333 13.152,23.288 C13.8666667,22.3066667 14.832,21.56 16.048,21.048 L16.048,21.048 L16.41664,20.90208 C17.03744,20.67168 17.69024,20.50528 18.37504,20.40288 L18.37504,20.40288 L18.512,20.385 L18.512,19.32 L18.5189136,19.1384691 C18.555786,18.6633416 18.7401481,18.2598519 19.072,17.928 C19.4453333,17.5546667 19.9093333,17.368 20.464,17.368 Z M22.352,34.194 L22.352,39.221 L22.224,39.272 C22.8853333,39.0266667 23.4186667,38.696 23.824,38.28 C24.2293333,37.864 24.432,37.3893333 24.432,36.856 C24.432,36.216 24.24,35.672 23.856,35.224 L23.856,35.224 L23.7204938,35.0772346 C23.4344691,34.7888395 23.0583704,34.5312593 22.5921975,34.3044938 L22.5921975,34.3044938 L22.352,34.194 Z M18.512,24.102 L18.259,24.158 C18.0836667,24.202 17.9173333,24.2533333 17.76,24.312 C17.1306667,24.5466667 16.656,24.8666667 16.336,25.272 C16.016,25.6773333 15.856,26.1466667 15.856,26.68 C15.856,27.32 16.0426667,27.848 16.416,28.264 C16.7893333,28.68 17.328,29.0106667 18.032,29.256 L18.032,29.256 L18.3422041,29.3595102 L18.512,29.412 L18.512,24.102 Z" id="Combined-Shape"></path>
        </g>
    </g>
</svg>