<?xml version="1.0" encoding="UTF-8"?>
<svg width="64px" height="64px" viewBox="0 0 64 64" version="1.1" xmlns="http://www.w3.org/2000/svg" xmlns:xlink="http://www.w3.org/1999/xlink">
    <title>payment_batch</title>
    <g id="payment_batch" stroke="none" stroke-width="1" fill="none" fill-rule="evenodd">
        <path d="M39,18 C50.5979797,18 60,27.4020203 60,39 C60,50.5979797 50.5979797,60 39,60 C27.4020203,60 18,50.5979797 18,39 C18,27.4020203 27.4020203,18 39,18 Z M39,22 C29.6111593,22 22,29.6111593 22,39 C22,48.3888407 29.6111593,56 39,56 C48.3888407,56 56,48.3888407 56,39 C56,29.6111593 48.3888407,22 39,22 Z M39.464,24.368 C40.0186667,24.368 40.472,24.5546667 40.824,24.928 L40.824,24.928 L40.9348148,25.0558025 C41.2129383,25.4055638 41.352,25.826963 41.352,26.32 L41.352,26.32 L41.352,27.484 L41.7182222,27.5573333 C42.1354074,27.6497778 42.5413333,27.7653333 42.936,27.904 C44.12,28.32 45.0853333,28.848 45.832,29.488 C46.4506667,29.9786667 46.76,30.544 46.76,31.184 C46.76,31.6533333 46.5786667,32.08 46.216,32.464 C45.8533333,32.848 45.4266667,33.04 44.936,33.04 C44.616,33.04 44.328,32.944 44.072,32.752 C43.7306667,32.4533333 43.272,32.1706667 42.696,31.904 L42.696,31.904 L42.258,31.712 C42.11,31.6506667 41.96,31.592 41.808,31.536 L41.808,31.536 L41.352,31.378 L41.352,37.293 L41.364,37.296 C41.9266667,37.4346667 42.4506667,37.584 42.936,37.744 C43.9066667,38.064 44.712,38.4746667 45.352,38.976 C45.992,39.4773333 46.472,40.1066667 46.792,40.864 C47.112,41.6213333 47.272,42.544 47.272,43.632 C47.272,45.0186667 46.888,46.2133333 46.12,47.216 C45.352,48.2186667 44.344,48.9866667 43.096,49.52 L43.096,49.52 L42.71856,49.672 C42.33808,49.816 41.94848,49.936 41.54976,50.032 L41.54976,50.032 L41.352,50.076 L41.352,52.048 L41.3450864,52.2295309 C41.308214,52.7046584 41.1238519,53.1081481 40.792,53.44 C40.4186667,53.8133333 39.9546667,54 39.4,54 C38.8666667,54 38.4186667,53.8133333 38.056,53.44 L38.056,53.44 L37.9418272,53.3121975 C37.6552757,52.9624362 37.512,52.541037 37.512,52.048 L37.512,52.048 L37.512,50.248 L37.1453827,50.2093827 C36.3894979,50.1172016 35.6797037,49.9674074 35.016,49.76 C33.8213333,49.3866667 32.68,48.7306667 31.592,47.792 C31.3146667,47.5573333 31.1013333,47.2906667 30.952,46.992 C30.8026667,46.6933333 30.728,46.3946667 30.728,46.096 C30.728,45.6053333 30.904,45.1733333 31.256,44.8 C31.608,44.4266667 32.0506667,44.24 32.584,44.24 C32.9893333,44.24 33.352,44.368 33.672,44.624 C34.4826667,45.2853333 35.288,45.7866667 36.088,46.128 L36.088,46.128 L36.3336,46.22528 C36.6685333,46.34816 37.0333333,46.4437333 37.428,46.512 L37.428,46.512 L37.512,46.525 L37.512,40.272 L37.25,40.223 C36.438,40.061 35.704,39.848 35.048,39.584 C34.1733333,39.232 33.4426667,38.784 32.856,38.24 C32.2693333,37.696 31.8266667,37.056 31.528,36.32 C31.2293333,35.584 31.08,34.7573333 31.08,33.84 C31.08,32.4533333 31.4373333,31.2693333 32.152,30.288 C32.8666667,29.3066667 33.832,28.56 35.048,28.048 L35.048,28.048 L35.41664,27.90208 C36.03744,27.67168 36.69024,27.50528 37.37504,27.40288 L37.37504,27.40288 L37.512,27.385 L37.512,26.32 L37.5189136,26.1384691 C37.555786,25.6633416 37.7401481,25.2598518 38.072,24.928 C38.4453333,24.5546667 38.9093333,24.368 39.464,24.368 Z M41.352,41.194 L41.352,46.221 L41.224,46.272 C41.8853333,46.0266667 42.4186667,45.696 42.824,45.28 C43.2293333,44.864 43.432,44.3893333 43.432,43.856 C43.432,43.216 43.24,42.672 42.856,42.224 L42.856,42.224 L42.7204938,42.0772346 C42.4344691,41.7888395 42.0583704,41.5312593 41.5921975,41.3044938 L41.5921975,41.3044938 L41.352,41.194 Z M37.512,31.102 L37.259,31.158 C37.0836667,31.202 36.9173333,31.2533333 36.76,31.312 C36.1306667,31.5466667 35.656,31.8666667 35.336,32.272 C35.016,32.6773333 34.856,33.1466667 34.856,33.68 C34.856,34.32 35.0426667,34.848 35.416,35.264 C35.7893333,35.68 36.328,36.0106667 37.032,36.256 L37.032,36.256 L37.3422041,36.3595102 L37.512,36.412 L37.512,31.102 Z" id="Combined-Shape" fill="#000000" fill-rule="nonzero"></path>
        <path d="M32,11 C38.7974795,11 44.8406393,14.2296266 48.6787227,19.2381229 C46.0550944,17.95055 43.1376965,17.1702815 40.0541787,17.0248125 C37.6571075,15.7332655 34.9141854,15 32,15 C22.6111593,15 15,22.6111593 15,32 C15,34.9141854 15.7332655,37.6571075 17.0253575,40.0543274 C17.1702815,43.1376965 17.95055,46.0550944 19.2378549,48.6786091 C14.2296266,44.8406393 11,38.7974795 11,32 C11,20.4020203 20.4020203,11 32,11 Z" id="Combined-Shape" fill="#000000" fill-rule="nonzero"></path>
        <path d="M25,4 C31.7974795,4 37.8406393,7.22962655 41.6787227,12.2381229 C39.0550944,10.95055 36.1376965,10.1702815 33.0541787,10.0248125 C30.6571075,8.73326545 27.9141854,8 25,8 C15.6111593,8 8,15.6111593 8,25 C8,27.9141854 8.73326545,30.6571075 10.0253575,33.0543274 C10.1702815,36.1376965 10.95055,39.0550944 12.2378549,41.6786091 C7.22962655,37.8406393 4,31.7974795 4,25 C4,13.4020203 13.4020203,4 25,4 Z" id="Combined-Shape-Copy" fill="#000000" fill-rule="nonzero"></path>
    </g>
</svg>