<?xml version="1.0" encoding="UTF-8"?>
<svg width="64px" height="64px" viewBox="0 0 64 64" version="1.1" xmlns="http://www.w3.org/2000/svg" xmlns:xlink="http://www.w3.org/1999/xlink">
    <title>payment_method</title>
    <g id="payment_method" stroke="none" fill="none" fill-rule="nonzero">
        <path d="M46,10 C49.3137085,10 52,12.6862915 52,16 L52,18.342 L52.1379533,18.3920944 C54.3295824,19.2281155 55.905081,21.3119672 55.9958615,23.7750617 L56,24 L56,27 L52,27 L52,24 C52,22.8954305 51.1045695,22 50,22 L12,22 C11.322196,22 10.6706424,21.8876087 10.0629589,21.6804458 L10,21.657 L10,48 C10,49.1045695 10.8954305,50 12,50 L50,50 C51.1045695,50 52,49.1045695 52,48 L52,44 L56,44 L56,48 C56,51.3137085 53.3137085,54 50,54 L12,54 C8.6862915,54 6,51.3137085 6,48 L6,16 C6,12.6862915 8.6862915,10 12,10 L46,10 Z M46,14 L12,14 C10.9456382,14 10.0818349,14.8158778 10.0054857,15.8507377 L10,16 C10,17.0543618 10.8158778,17.9181651 11.8507377,17.9945143 L12,18 L48,18 L48,16 C48,14.9456382 47.1841222,14.0818349 46.1492623,14.0054857 L46,14 Z" id="Path" fill="#000000"></path>
        <path d="M57,28 C58.6568542,28 60,29.3431458 60,31 L60,40 C60,41.6568542 58.6568542,43 57,43 L45.5,43 C41.3578644,43 38,39.6421356 38,35.5 C38,31.3578644 41.3578644,28 45.5,28 L57,28 Z M56,39 L56,32 L45.5,32 C43.6314366,32 42.1048736,33.4642776 42.0051789,35.3079648 L42,35.5 C42,37.4329966 43.5670034,39 45.5,39 L56,39 Z" id="Rectangle" fill="#000000"></path>
    </g>
</svg>