<?xml version="1.0" encoding="UTF-8"?>
<svg width="64px" height="64px" viewBox="0 0 64 64" version="1.1" xmlns="http://www.w3.org/2000/svg" xmlns:xlink="http://www.w3.org/1999/xlink">
    <title>payment_check</title>
    <g id="payment_check" stroke="none" stroke-width="1" fill="none" fill-rule="evenodd">
        <path d="M59,18 L5,18 L5,46 L59,46 L59,18 Z M57,20 L57,44 L7,44 L7,20 L57,20 Z" id="Rectangle-269" fill="#000000" fill-rule="nonzero"></path>
        <rect id="Rectangle-270" fill="#000000" fill-rule="nonzero" x="7" y="20" width="50" height="3"></rect>
        <polygon id="Path-681" fill="#000000" fill-rule="nonzero" points="54 34 54 36 10 36 10 34"></polygon>
        <polygon id="Path-681-Copy" fill="#000000" fill-rule="nonzero" points="20 26 20 28 10 28 10 26"></polygon>
        <polygon id="Path-681-Copy-2" fill="#000000" fill-rule="nonzero" points="20 30 20 32 10 32 10 30"></polygon>
        <rect id="Rectangle-271" fill="#000000" fill-rule="nonzero" x="44" y="26" width="10" height="4"></rect>
        <path d="M36.730576,38.0019662 C39.1567465,37.2831115 41.0532014,37.4503478 41.508299,39.1253821 L41.5478105,39.29221 C41.7950582,40.5059716 42.4780779,40.7403915 43.36997,40.1449192 L44.4495692,39.4357169 L44.8830769,39.1686964 C45.2732482,38.932749 45.645476,38.723258 46.0033083,38.5413902 C48.070525,37.4907302 49.6640055,37.3160052 50.3020843,38.9829039 C50.6507291,39.8936935 51.0816862,40.033275 52.4485641,39.1718413 L52.7809999,38.9551748 L52.9604068,38.8333184 L54.0930906,40.4816592 C51.441475,42.3037593 49.4684937,42.1330845 48.5097614,39.8847496 L48.46,39.763 L48.450918,39.7723228 L48.4207235,39.7821346 L48.368149,39.7901896 C48.0306418,39.8271973 47.5237467,40.0121238 46.9094815,40.3243232 C46.6767523,40.4426075 46.4327145,40.5767786 46.1772666,40.7259558 L45.6100711,41.0687933 L45.0908289,41.4026653 L44.480503,41.8082642 C42.4560917,43.1598634 40.1321153,42.3622493 39.5880574,39.6914189 C39.5764528,39.6344511 39.4103286,39.5864745 39.0967224,39.5907488 L38.8658796,39.6018139 L38.5918019,39.6312091 C38.2470044,39.6773037 37.8148817,39.7666376 37.298745,39.9195647 C35.7251153,40.3858185 33.9678941,41.2917436 32.8944707,42.1785566 L32.6891604,42.3555284 L31.3498309,40.8702013 C32.6288043,39.7169423 34.7801555,38.5798601 36.730576,38.0019662 Z" id="Path-684" fill="#000000" fill-rule="nonzero"></path>
    </g>
</svg>