<?xml version="1.0" encoding="UTF-8"?>
<svg width="64px" height="64px" viewBox="0 0 64 64" version="1.1" xmlns="http://www.w3.org/2000/svg" xmlns:xlink="http://www.w3.org/1999/xlink">
    <title>payment_finance_charge</title>
    <g id="payment_finance_charge" stroke="none" stroke-width="1" fill="none" fill-rule="evenodd">
        <path d="M10.6448276,48 C12.0344828,48 13.1551724,46.8888889 13.1551724,45.5555556 L13.1551724,34.8888889 L23.6,34.8888889 C24.9448276,34.8888889 26.0655172,33.7777778 26.0655172,32.4 C26.0655172,31.1111111 24.9448276,29.9555556 23.6,29.9555556 L13.1551724,29.9555556 L13.1551724,21.8222222 L25.3034483,21.8222222 C26.6034483,21.8222222 27.7689655,20.7111111 27.7689655,19.3333333 C27.7689655,18 26.6034483,16.8888889 25.3034483,16.8888889 L10.7793103,16.8888889 L10.6896552,16.8888889 L10.6448276,16.8888889 C9.25517241,16.8888889 8.17931035,18 8.17931035,19.3333333 L8.17931035,45.5555556 C8.17931035,46.8888889 9.25517241,48 10.6448276,48 L10.6448276,48 Z" id="F" fill="#000000" fill-rule="nonzero"></path>
        <path d="M44.7586207,48 C48.7034483,48 52.2896552,46.7111111 55.1137931,44.5333333 C56.1896552,43.6888889 56.3689655,42.0888889 55.562069,40.9777778 C54.6655172,39.9111111 53.0068966,39.7333333 51.9758621,40.4888889 C49.9586207,42.0888889 47.537931,42.9333333 44.7586207,42.9333333 C41.6655172,42.9333333 38.7965517,41.6888889 36.6896552,39.7333333 C34.6724138,37.7777778 33.4172414,35.0222222 33.4172414,32 C33.4172414,28.9777778 34.6724138,26.3111111 36.6896552,24.2666667 C38.7965517,22.3111111 41.6655172,21.0666667 44.7586207,21.0666667 C47.537931,21.0666667 50.0034483,21.9111111 51.9758621,23.5111111 C53.0068966,24.3111111 54.6655172,24.1333333 55.562069,23.0222222 C56.3689655,21.9111111 56.1896552,20.3555556 55.1137931,19.4666667 C52.2896552,17.2888889 48.7034483,16 44.7586207,16 C35.7931034,16.0444444 28.3517241,23.2 28.3068966,32 C28.3517241,40.8444444 35.7931034,48 44.7586207,48 L44.7586207,48 Z" id="C" fill="#000000" fill-rule="nonzero"></path>
    </g>
</svg>