<?xml version="1.0" encoding="UTF-8"?>
<svg width="64px" height="64px" viewBox="0 0 64 64" version="1.1" xmlns="http://www.w3.org/2000/svg" xmlns:xlink="http://www.w3.org/1999/xlink">
    <title>payments</title>
    <g id="payments" stroke="none" stroke-width="1" fill="none" fill-rule="evenodd">
        <path d="M32,7 C18.1928813,7 7,18.1928813 7,32 C7,45.8071187 18.1928813,57 32,57 C45.8071187,57 57,45.8071187 57,32 C57,18.1928813 45.8071187,7 32,7 Z M32,10 C44.1502645,10 54,19.8497355 54,32 C54,44.1502645 44.1502645,54 32,54 C19.8497355,54 10,44.1502645 10,32 C10,19.8497355 19.8497355,10 32,10 Z" id="Oval-102" fill="#000000" fill-rule="nonzero"></path>
        <path d="M38.2882757,11.9577062 C42.5664245,13.2986233 46.2553467,15.9715312 48.8692067,19.4905944 L46.6023813,21.4729781 C44.3287434,18.3246575 41.0619685,15.9409523 37.2612909,14.7810969 L38.2882757,11.9577062 Z M17.6590417,16.6592039 L19.7820693,18.781631 C19.0449659,19.4632784 18.3649927,20.2058102 17.7501391,21.0012373 L15.4077568,19.1260527 C16.0922504,18.2451357 16.8453524,17.420179 17.6590417,16.6592039 Z M26.4919711,11.7297682 L27.6154459,14.5377749 C25.3742212,15.0987246 23.2995416,16.0798443 21.4799674,17.3925738 L19.5214127,15.1079458 C21.5872577,13.579322 23.9434025,12.4206375 26.4919711,11.7297682 Z M32,11 C32.8283044,11 33.6454083,11.0479553 34.4486867,11.1412409 L34.051537,14.1156297 C33.3782562,14.0392428 32.6937109,14 32,14 C31.3038803,14 30.6169901,14.0395158 29.9414501,14.1164267 L29.7409914,11.1200845 C30.4831164,11.0407126 31.2368037,11 32,11 Z" id="Oval-102-Copy" fill="#000000" fill-rule="nonzero"></path>
        <path d="M35.8876918,15.3773636 C36.1861689,15.5794476 36.3763498,15.7764421 36.5592935,16.0692265 L36.604,16.145 L37.5260488,16.4275149 C37.9282326,16.5564985 38.2531271,16.6848336 38.5415624,16.8324787 L38.7105751,16.9235426 C39.3367888,17.2785321 39.8071425,17.7649163 40.1291029,18.3075386 C40.4855861,18.9083447 40.6589768,19.5793258 40.658978,20.22304 C40.6589791,20.7533207 40.4984836,21.213971 40.1141713,21.8028794 L40.0204135,21.9401225 L40.0428494,22.0090826 C40.3476336,23.0092171 40.6202039,24.255421 40.6551919,24.6989185 L40.658978,24.7812852 C40.658978,25.0645608 40.6330473,25.297741 40.578715,25.5254883 L40.574,25.54 L40.6606078,25.6536958 C40.9191392,25.9987 41.0721575,26.2361779 41.2141377,26.4826565 L41.2670474,26.5757355 C41.3795349,26.7760505 41.4809878,26.9723452 41.5693865,27.1630197 C42.1269655,28.3657086 42.1617396,29.2437926 41.6264085,30.081559 C41.3137272,30.5708895 40.9693278,30.8757133 40.5458055,31.0486468 L40.432,31.09 L40.6008195,31.989009 C40.872472,32.3750308 40.9715507,33.1452311 40.8258343,33.9192917 L40.7842635,34.1126672 C40.5923239,34.9050517 40.1443599,35.641935 39.5281955,36.095069 C39.2704707,36.2606837 39.0375196,36.3847681 38.8076204,36.4766912 L38.7,36.515 L39.9227226,37.0766381 L38.981,38.789 L39.1073185,38.9218402 C39.2340467,39.0542711 39.3461488,39.1697497 39.4461383,39.2710152 L39.6307123,39.455407 C39.9705397,39.7895353 40.143381,39.9254714 40.3101164,40.0385203 C42.1006317,41.3956775 45,45.7975704 45,46.8813785 C45,47.631736 44.2788844,48.721325 42.7591535,49.7408687 C41.5159797,50.5748781 39.8216843,51.3958502 38.1709851,51.9541174 C34.5939789,53.1638626 30.5136807,53.3826054 27.0587969,52.2917928 C23.0796275,51.0354473 19.7160476,48.6705684 19.1705478,46.9450824 C18.9046352,46.1039666 18.9597202,45.0811924 19.3094259,43.81766 C19.4187018,43.4228322 19.5538131,43.0115772 19.7161212,42.568996 C19.771951,42.4167594 19.8289334,42.2662141 19.8916238,42.1047248 L19.9905098,41.8527036 L20.2434251,41.2146474 C20.4541982,40.6787359 20.5733182,40.4084263 21.2692995,39.3656113 L21.4067193,39.1607773 L23.0719381,36.73346 C23.862251,35.5873374 24.7026129,34.1539115 25.2415433,33.140986 L25.348,32.938 L25.3384708,32.9308411 C25.2911042,32.8927316 25.2504675,32.8564958 25.2112997,32.8188258 L25.1529919,32.7608316 C24.5488715,31.9652181 24.3999336,31.4061064 24.416086,30.7513582 L24.422612,30.5984135 L24.434,30.455 L24.3300072,30.28008 C24.2898982,30.2109329 24.249396,30.1390498 24.2086692,30.0644676 L24.0859827,29.8326611 C23.2413231,28.0922404 22.8759066,26.3929979 23.0731252,24.5724527 C23.1575887,23.7927609 23.2090051,23.3351703 23.2540652,22.9792501 L23.2674192,22.8753037 L23.3471587,22.3189288 C23.4718126,21.5388192 23.6218429,21.0318258 23.8669728,20.5119179 C23.9483421,20.3393378 24.0228568,20.1954184 24.1341964,20.0035258 L24.2252883,19.8494139 L24.5495068,19.3230746 C25.0739596,18.4825534 26.0214064,17.6898736 27.4547344,16.8337784 C27.6598179,16.7112866 28.0411106,16.4974044 28.4372006,16.2769013 L28.7765656,16.0882542 L28.7765656,16.0882542 C29.2135542,15.8455505 29.609263,15.631965 29.6683362,15.5898513 C30.3910714,15.1346187 31.0699591,14.9951762 32.2080097,15.0376353 C33.3342728,15.1072328 33.6316232,15.122994 33.8069726,15.1319046 L33.8385935,15.1335065 L33.876,15.151 L34.0359352,15.1026307 C34.7380959,14.9143526 35.3489589,15.0126144 35.8876918,15.3773636 Z M32.5589931,18.0221143 C31.8479153,17.9781889 31.3952413,18.0087421 31.3571919,18.035975 C31.3155201,18.0658006 31.2277957,18.1194497 31.1092455,18.1889792 L31.1092455,18.1889792 L28.9830955,19.3926559 C27.9804159,19.993902 27.3058637,20.5267208 27.0507664,20.9371723 C26.724738,21.4617518 26.6281505,21.6260583 26.5349217,21.8245735 L26.5349217,21.8245735 L26.4902218,21.925163 C26.4048942,22.128934 26.3428469,22.3533855 26.2833368,22.6908396 L26.2833368,22.6908396 L26.2239042,23.0693804 C26.2079172,23.1818692 26.192352,23.2981892 26.1756559,23.4312176 L26.1756559,23.4312176 L26.0049759,24.9434201 C25.872056,26.175269 26.1231301,27.3375162 26.6266173,28.3847494 C26.7705796,28.6841851 26.9242293,28.9497196 27.0762632,29.1768068 C27.1630174,29.3063881 27.2257628,29.3895977 27.2528615,29.4221301 L27.2528615,29.4221301 L27.5591025,29.789776 L27.4266894,30.2885667 C27.4171553,30.3283412 27.4041987,30.3876697 27.3909822,30.4589688 L27.3909822,30.4589688 L27.3719771,30.5719333 C27.3608747,30.6458202 27.3530418,30.7162907 27.3492816,30.7799209 L27.3492816,30.7799209 L27.3479325,30.8015462 L27.7362314,31.0439207 C27.9224386,31.1641946 28.0558709,31.2648382 28.1861861,31.3913754 C28.5042139,31.7001829 28.692684,32.0832201 28.6288948,32.5546795 C28.5267397,33.3096977 26.9994677,36.1550964 25.5207788,38.30799 L25.5207788,38.30799 L24.692241,39.5153468 C23.569169,41.1551095 23.2951319,41.5790194 23.1190205,41.9690297 L23.0748058,42.0707797 L22.6887576,43.0467846 L22.5326517,43.4611866 C22.3983272,43.8289102 22.2879985,44.165122 22.2015795,44.4785998 C22.0086443,45.1784558 21.9565238,45.7093497 22.0352743,45.9594326 C22.1254981,46.2459504 22.7869429,46.8731184 23.8102244,47.5176388 C24.9789814,48.253788 26.4717894,48.9401048 28.0071344,49.4267768 C30.8412979,50.3251469 34.2707723,50.1285657 37.2723342,49.1094225 C38.4869047,48.6970301 39.7907272,48.0752747 40.8538464,47.4256125 C41.3232632,47.1387563 41.7134499,46.8649347 41.9739564,46.6430111 L41.9739564,46.6430111 L42,46.6187178 L41.9579242,46.5391014 L41.8985023,46.4309398 L41.7023772,46.0936201 C41.4731609,45.7124207 41.1848836,45.2708624 40.8745375,44.8279326 C40.0322736,43.6258428 39.1841003,42.6336431 38.6997619,42.3014895 L38.6997619,42.3014895 L38.4413032,42.115362 C38.096272,41.8552279 37.7496712,41.5479633 37.4028083,41.2022836 C37.0347503,40.8354811 36.6860879,40.4453269 36.3660525,40.0552647 C36.1730723,39.8200586 36.0306624,39.6346776 35.9493834,39.5231834 L35.9493834,39.5231834 L35.6027542,39.0476959 L36.0105722,38.3011146 L35.8449398,38.2038497 C35.5993907,38.0543637 35.3824829,37.9055381 35.1977212,37.7541811 L35.1977212,37.7541811 L35.0652321,37.6401389 C34.9244082,37.5123945 34.8056884,37.3816373 34.7098758,37.2397362 C34.006651,36.198241 34.6324841,34.7065665 35.7321576,34.1209816 C36.160519,33.8928757 36.4840549,33.8555189 37.17792,33.8562711 L37.17792,33.8562711 L37.3966713,33.8548271 C37.6631261,33.848867 37.7869493,33.8243969 37.8633577,33.7765011 C37.9234115,33.7388569 38.0072026,33.5888568 38.0439111,33.3872862 C38.0498319,33.3547745 38.0540861,33.32296 38.0568051,33.2927683 L38.0568051,33.2927683 L38.0604826,33.2153897 L37.8648779,33.0883682 L37.6585057,32.9507117 C37.5119703,32.8477773 37.4001815,32.7536388 37.2951527,32.6351845 C37.0255247,32.3310907 36.8899497,31.9371558 37.0186642,31.4986354 C37.0983705,31.2270822 37.2444966,31.0241984 37.4318378,30.877799 L37.4318378,30.877799 L37.4989737,30.8299121 L37.4881758,30.7307135 L37.4687476,30.512572 C37.4113537,29.7232685 37.4764167,29.1911973 37.9134543,28.78817 C38.2247131,28.5011335 38.4789311,28.4217494 38.898634,28.4147645 L38.898634,28.4147645 L38.9990173,28.4142385 L38.9346451,28.2790917 L38.795084,28.0159016 C38.6895843,27.8272876 38.5832331,27.654385 38.4941687,27.5174967 L38.4941687,27.5174967 L38.4151197,27.3985576 L38.2992826,27.2756649 C37.9254663,26.8665999 37.6726258,26.4744926 37.6257951,25.9942267 L37.6257951,25.9942267 L37.6179315,25.8307287 C37.6179309,25.5446939 37.6683734,25.3371004 37.7695043,25.0828993 L37.7695043,25.0828993 L37.8132,24.9714911 C37.8296827,24.9246992 37.8320228,24.9004937 37.8320228,24.8431461 C37.8320229,24.7134969 37.4471448,23.0662461 37.3480708,22.7562583 L37.3480708,22.7562583 L37.2881168,22.6613302 L37.1587363,22.4796225 C37.1279282,22.4390034 37.1003607,22.404313 37.079979,22.3797007 L37.079979,22.3797007 L36.5716113,21.7658079 L37.1723059,21.0918837 C37.223253,21.0329017 37.2818842,20.9632048 37.3441102,20.8867004 L37.3441102,20.8867004 L37.5374833,20.6406717 C37.5860206,20.5766161 37.631001,20.5150548 37.6716638,20.4568607 L37.6716638,20.4568607 L37.7247432,20.3790893 C37.7412667,20.354248 37.7565917,20.3305415 37.7706318,20.3081267 L37.7706318,20.3081267 L37.8231622,20.2165039 L37.8077774,20.1320694 C37.7591006,19.9359156 37.636571,19.7326586 37.4351592,19.5833189 L37.4351592,19.5833189 L37.3278566,19.5134246 C37.2023691,19.4420067 37.0327005,19.3705472 36.806645,19.2931251 L36.806645,19.2931251 L36.5075315,19.1969777 C36.4148172,19.1687547 35.7987037,18.9908415 35.6318043,18.9375531 L35.6318043,18.9375531 L35.4731698,18.8852565 C35.0703741,18.7474296 34.8244031,18.6175537 34.6149713,18.3733915 C34.5572375,18.3060836 34.5089038,18.240495 34.46334,18.1691104 L34.46334,18.1691104 L34.4111228,18.0817439 L34.3691438,18.0886198 C34.1913549,18.1116296 33.9686141,18.1107789 33.6286605,18.0927798 L33.6286605,18.0927798 L32.5589931,18.0221143 Z" id="Path-686" fill="#000000" fill-rule="nonzero"></path>
        <rect id="Rectangle-277" fill="#000000" fill-rule="nonzero" x="12" y="33" width="9" height="3"></rect>
        <rect id="Rectangle-277-Copy" fill="#000000" fill-rule="nonzero" x="43" y="37" width="7" height="3"></rect>
    </g>
</svg>