<?xml version="1.0" encoding="UTF-8"?>
<svg width="64px" height="64px" viewBox="0 0 64 64" version="1.1" xmlns="http://www.w3.org/2000/svg" xmlns:xlink="http://www.w3.org/1999/xlink">
    <title>payment_application_refund</title>
    <g id="payment_application_refund" stroke="none" stroke-width="1" fill="none" fill-rule="evenodd">
        <path d="M24,8 C35.045695,8 44,16.954305 44,28 C44,32.591995 42.452436,36.8225371 39.8504067,40.1985277 C43.181444,43.2114442 45.9489443,47.4507734 48.4554461,53.0342042 C50.1756972,50.2734584 51.5389784,48.5525583 54,46.5 L51.5,44 L60,44 L60,52.5 L57.4554461,50.0342042 C54.818482,52.0114014 52.5,55.3333333 50.5,60 L45.5,60 C43.3289123,51.9056634 40.256999,47.1951175 36.3176087,43.7562279 C32.9223726,46.4156814 28.646205,48 24,48 C12.954305,48 4,39.045695 4,28 C4,16.954305 12.954305,8 24,8 Z M24,11 C14.6111593,11 7,18.6111593 7,28 C7,37.3888407 14.6111593,45 24,45 C33.3888407,45 41,37.3888407 41,28 C41,18.6111593 33.3888407,11 24,11 Z M24.464,13.368 C25.0186667,13.368 25.472,13.5546667 25.824,13.928 L25.824,13.928 L25.9348148,14.0558025 C26.2129383,14.4055638 26.352,14.826963 26.352,15.32 L26.352,15.32 L26.352,16.484 L26.7182222,16.5573333 C27.1354074,16.6497778 27.5413333,16.7653333 27.936,16.904 C29.12,17.32 30.0853333,17.848 30.832,18.488 C31.4506667,18.9786667 31.76,19.544 31.76,20.184 C31.76,20.6533333 31.5786667,21.08 31.216,21.464 C30.8533333,21.848 30.4266667,22.04 29.936,22.04 C29.616,22.04 29.328,21.944 29.072,21.752 C28.7306667,21.4533333 28.272,21.1706667 27.696,20.904 L27.696,20.904 L27.258,20.712 C27.11,20.6506667 26.96,20.592 26.808,20.536 L26.808,20.536 L26.352,20.378 L26.352,26.293 L26.364,26.296 C26.9266667,26.4346667 27.4506667,26.584 27.936,26.744 C28.9066667,27.064 29.712,27.4746667 30.352,27.976 C30.992,28.4773333 31.472,29.1066667 31.792,29.864 C32.112,30.6213333 32.272,31.544 32.272,32.632 C32.272,34.0186667 31.888,35.2133333 31.12,36.216 C30.352,37.2186667 29.344,37.9866667 28.096,38.52 L28.096,38.52 L27.71856,38.672 C27.33808,38.816 26.94848,38.936 26.54976,39.032 L26.54976,39.032 L26.352,39.076 L26.352,41.048 L26.3450864,41.2295309 C26.308214,41.7046584 26.1238519,42.1081481 25.792,42.44 C25.4186667,42.8133333 24.9546667,43 24.4,43 C23.8666667,43 23.4186667,42.8133333 23.056,42.44 L23.056,42.44 L22.9418272,42.3121975 C22.6552757,41.9624362 22.512,41.541037 22.512,41.048 L22.512,41.048 L22.512,39.248 L22.1453827,39.2093827 C21.3894979,39.1172016 20.6797037,38.9674074 20.016,38.76 C18.8213333,38.3866667 17.68,37.7306667 16.592,36.792 C16.3146667,36.5573333 16.1013333,36.2906667 15.952,35.992 C15.8026667,35.6933333 15.728,35.3946667 15.728,35.096 C15.728,34.6053333 15.904,34.1733333 16.256,33.8 C16.608,33.4266667 17.0506667,33.24 17.584,33.24 C17.9893333,33.24 18.352,33.368 18.672,33.624 C19.4826667,34.2853333 20.288,34.7866667 21.088,35.128 L21.088,35.128 L21.3336,35.22528 C21.6685333,35.34816 22.0333333,35.4437333 22.428,35.512 L22.428,35.512 L22.512,35.525 L22.512,29.272 L22.25,29.223 C21.438,29.061 20.704,28.848 20.048,28.584 C19.1733333,28.232 18.4426667,27.784 17.856,27.24 C17.2693333,26.696 16.8266667,26.056 16.528,25.32 C16.2293333,24.584 16.08,23.7573333 16.08,22.84 C16.08,21.4533333 16.4373333,20.2693333 17.152,19.288 C17.8666667,18.3066667 18.832,17.56 20.048,17.048 L20.048,17.048 L20.41664,16.90208 C21.03744,16.67168 21.69024,16.50528 22.37504,16.40288 L22.37504,16.40288 L22.512,16.385 L22.512,15.32 L22.5189136,15.1384691 C22.555786,14.6633416 22.7401481,14.2598519 23.072,13.928 C23.4453333,13.5546667 23.9093333,13.368 24.464,13.368 Z M26.352,30.194 L26.352,35.221 L26.224,35.272 C26.8853333,35.0266667 27.4186667,34.696 27.824,34.28 C28.2293333,33.864 28.432,33.3893333 28.432,32.856 C28.432,32.216 28.24,31.672 27.856,31.224 L27.856,31.224 L27.7204938,31.0772346 C27.4344691,30.7888395 27.0583704,30.5312593 26.5921975,30.3044938 L26.5921975,30.3044938 L26.352,30.194 Z M22.512,20.102 L22.259,20.158 C22.0836667,20.202 21.9173333,20.2533333 21.76,20.312 C21.1306667,20.5466667 20.656,20.8666667 20.336,21.272 C20.016,21.6773333 19.856,22.1466667 19.856,22.68 C19.856,23.32 20.0426667,23.848 20.416,24.264 C20.7893333,24.68 21.328,25.0106667 22.032,25.256 L22.032,25.256 L22.3422041,25.3595102 L22.512,25.412 L22.512,20.102 Z" id="Combined-Shape" fill="#000000" fill-rule="nonzero"></path>
    </g>
</svg>