<?xml version="1.0" encoding="UTF-8"?>
<svg width="64px" height="64px" viewBox="0 0 64 64" version="1.1" xmlns="http://www.w3.org/2000/svg" xmlns:xlink="http://www.w3.org/1999/xlink">
    <title>payroll</title>
    <g id="payroll" stroke="none" stroke-width="1" fill="none" fill-rule="evenodd">
        <path d="M43,23 C44.1045695,23 45,23.8954305 45,25 L44.9999828,26.1393113 C45.310141,26.1851606 45.6249576,26.2423271 45.9444325,26.3108108 C46.9110489,26.518018 47.8350205,26.8495495 48.7163472,27.3054054 C49.5976739,27.7612613 50.3368512,28.3621622 50.933879,29.1081081 C51.2466078,29.5225225 51.4314021,30.0198198 51.4882619,30.6 C51.5451217,31.1801802 51.2750377,31.7051051 50.6780099,32.1747748 C50.2515615,32.5063063 49.7540383,32.6513514 49.1854404,32.6099099 C48.6168426,32.5684685 48.1477493,32.381982 47.7781607,32.0504505 C47.2948525,31.4426426 46.6480724,30.9591592 45.8378204,30.6 C45.5717445,30.4820569 45.2926389,30.3834793 45.0005035,30.3042672 L45.0003292,35.5841258 C45.6896689,35.7747101 46.3881735,35.9920135 47.0958432,36.236036 C47.9771699,36.5399399 48.7874219,36.9405405 49.5265992,37.4378378 C50.2657764,37.9351351 50.8628042,38.5774775 51.3176825,39.3648649 C51.7725608,40.1522523 52,41.1537538 52,42.3693694 C52,43.7783784 51.5735516,44.9801802 50.7206547,45.9747748 C49.8677579,46.9693694 48.8016369,47.7222222 47.5222916,48.2333333 C46.6937941,48.5643263 45.8533737,48.7881446 45.0010304,48.9047882 L45,50 C45,51.1045695 44.1045695,52 43,52 C41.8954305,52 41,51.1045695 41,50 L41.0008864,48.7735373 C40.1895492,48.6320962 39.3782121,48.4244006 38.5668749,48.1504505 C36.8895111,47.5840841 35.4964463,46.5825826 34.3876804,45.1459459 C34.1033814,44.7591592 33.9754469,44.2618619 34.0038768,43.6540541 C34.0323067,43.0462462 34.4018953,42.5213213 35.1126427,42.0792793 C35.567521,41.803003 36.0508292,41.6855856 36.5625673,41.727027 C37.0743054,41.7684685 37.5718286,42.024024 38.0551368,42.4936937 C38.8796037,43.2948949 39.7467155,43.9165165 40.6564721,44.3585586 C40.7672658,44.4123922 40.8814327,44.4629477 40.9989728,44.5102252 L41.0010568,38.9902151 C40.6826938,38.890559 40.3617155,38.7875144 40.0381219,38.6810811 C39.1141503,38.3771772 38.268361,37.9834835 37.5007538,37.5 C36.7331467,37.0165165 36.107689,36.3741742 35.6243808,35.572973 C35.1410726,34.7717718 34.8994185,33.7633634 34.8994185,32.5477477 C34.8994185,31.1663664 35.297437,29.9921922 36.093474,29.0252252 C36.8895111,28.0582583 37.9200948,27.3123123 39.1852251,26.7873874 C39.7762582,26.5421573 40.3812521,26.3542095 41.0002068,26.223544 L41,25 C41,23.8954305 41.8954305,23 43,23 Z M45.001611,40.1900587 L44.9993614,44.9170175 C45.1536949,44.8932265 45.3123541,44.8659324 45.4753392,44.8351351 C45.9870773,44.7384384 46.4348482,44.5174174 46.8186517,44.1720721 C47.2024553,43.8267267 47.3943571,43.2948949 47.3943571,42.5765766 C47.3943571,41.9687688 47.1811329,41.4852853 46.7546845,41.1261261 C46.3282361,40.766967 45.7667456,40.4630631 45.0702132,40.2144144 C45.0474295,40.206281 45.024562,40.1981625 45.001611,40.1900587 Z M40.9994489,30.4159117 C40.7676534,30.5222134 40.5538232,30.6595522 40.3579582,30.8279279 C39.9883696,31.1456456 39.8035753,31.6498498 39.8035753,32.3405405 C39.8035753,32.975976 40.0167995,33.4801802 40.4432479,33.8531532 C40.6069918,33.9963641 40.7927413,34.1293919 41.0004964,34.2522365 Z" id="small-dollar" fill="#000000" fill-rule="nonzero"></path>
        <path d="M27.3358994,28.8905996 C27.9486043,27.9715422 29.190343,27.7231945 30.1094004,28.3358994 C30.9825049,28.9179691 31.250294,30.0677417 30.7495722,30.9692406 L30.6641006,31.1094004 L20.6641006,46.1094004 C19.9534283,47.1754089 18.4515087,47.2984745 17.5743148,46.402958 L17.4635574,46.2803688 L12.4635574,40.2803688 C11.7564293,39.431815 11.8710774,38.1706856 12.7196312,37.4635574 C13.5257573,36.7917857 14.7042329,36.861667 15.4263391,37.5978634 L15.5364426,37.7196312 L18.821,41.661 L27.3358994,28.8905996 Z" id="Path-19" fill="#000000" fill-rule="nonzero"></path>
        <path d="M8,20 L8,56 L56,56 L56,20 L8,20 Z M46,4 C47.6568542,4 49,5.34314575 49,7 L49,10 C49,11.6568542 47.6568542,13 46,13 C44.3431458,13 43,11.6568542 43,10 L43,7 C43,5.34314575 44.3431458,4 46,4 Z M18,4 C19.6568542,4 21,5.34314575 21,7 L21,10 C21,11.6568542 19.6568542,13 18,13 C16.3431458,13 15,11.6568542 15,10 L15,7 C15,5.34314575 16.3431458,4 18,4 Z M60,60 L4,60 L4,10 L14,10 L14.0003512,10.0230014 C14.0079012,10.3476543 14.1777778,14 18,14 C22,14 22,10 22,10 L42,10 L42.0003512,10.0230014 C42.0079012,10.3476543 42.1777778,14 46,14 C50,14 50,10 50,10 L60,10 L60,60 Z" id="Combined-Shape" fill="#000000" fill-rule="nonzero"></path>
    </g>
</svg>