<?xml version="1.0" encoding="UTF-8"?>
<svg width="64px" height="64px" viewBox="0 0 64 64" version="1.1" xmlns="http://www.w3.org/2000/svg" xmlns:xlink="http://www.w3.org/1999/xlink">
    <title>pending</title>
    <g id="pending" stroke="none" stroke-width="1" fill="none" fill-rule="evenodd">
        <g id="Group" transform="translate(4.000000, 4.000000)" fill="#000000">
            <path d="M28,0 C43.463973,0 56,12.536027 56,28 C56,43.463973 43.463973,56 28,56 C12.536027,56 0,43.463973 0,28 C0,12.536027 12.536027,0 28,0 Z M28,4 C14.745166,4 4,14.745166 4,28 C4,41.254834 14.745166,52 28,52 C41.254834,52 52,41.254834 52,28 C52,14.745166 41.254834,4 28,4 Z" id="Oval" fill-rule="nonzero"></path>
            <circle id="Oval" cx="16" cy="28" r="4"></circle>
            <circle id="Oval-Copy" cx="28" cy="28" r="4"></circle>
            <circle id="Oval-Copy-2" cx="40" cy="28" r="4"></circle>
        </g>
    </g>
</svg>