<?xml version="1.0" encoding="UTF-8"?>
<svg width="64px" height="64px" viewBox="0 0 64 64" version="1.1" xmlns="http://www.w3.org/2000/svg" xmlns:xlink="http://www.w3.org/1999/xlink">
    <title>periodic_assessment</title>
    <g id="periodic_assessment" stroke="none" stroke-width="1" fill="none" fill-rule="evenodd">
        <path d="M20,12 L20,20 L12,20 L12,12 L20,12 Z M19,13 L13,13 L13,19 L19,19 L19,13 Z" id="Rectangle-45" fill="#000000" fill-rule="nonzero"></path>
        <path d="M20,25 L20,33 L12,33 L12,25 L20,25 Z M19,26 L13,26 L13,32 L19,32 L19,26 Z" id="Rectangle-45-Copy" fill="#000000" fill-rule="nonzero"></path>
        <path d="M20,38 L20,46 L12,46 L12,38 L20,38 Z M19,39 L13,39 L13,45 L19,45 L19,39 Z" id="Rectangle-45-Copy-2" fill="#000000" fill-rule="nonzero"></path>
        <path d="M44.9999745,9 C47.2091276,9 49,10.7964248 49,13.0000255 L49,44.9999745 C49,47.2091276 47.2035752,49 44.9999745,49 L13.0000255,49 C10.7908724,49 9,47.2035752 9,44.9999745 L9,13.0000255 C9,10.7908724 10.7964248,9 13.0000255,9 L44.9999745,9 Z M44.9999745,10 L13.0000255,10 C11.4056292,10 10.0965755,11.2509116 10.0051054,12.8239635 L10,13.0000255 L10,44.9999745 C10,46.5943708 11.2509116,47.9034245 12.8239635,47.9948946 L13.0000255,48 L44.9999745,48 C46.5943708,48 47.9034245,46.7490884 47.9948946,45.1760365 L48,44.9999745 L48,13.0000255 C48,11.4056292 46.7490884,10.0965755 45.1760365,10.0051054 L44.9999745,10 Z" id="Rectangle-46" fill="#000000" fill-rule="nonzero"></path>
        <g id="magnifying-glass" transform="translate(27.000000, 27.000000)" fill="#000000" fill-rule="nonzero">
            <path d="M10,18 L10,18 C14.418278,18 18,14.418278 18,10 C18,5.581722 14.418278,2 10,2 C5.581722,2 2,5.581722 2,10 C2,14.418278 5.581722,18 10,18 L10,18 Z M10,20 L10,20 C4.4771525,20 -2.48689958e-14,15.5228475 -2.48689958e-14,10 C-2.48689958e-14,4.4771525 4.4771525,-5.32907052e-15 10,-5.32907052e-15 C15.5228475,-5.32907052e-15 20,4.4771525 20,10 C20,15.5228475 15.5228475,20 10,20 L10,20 Z" id="Shape"></path>
            <polygon id="Path-36" transform="translate(21.581395, 22.159091) rotate(-45.000000) translate(-21.581395, -22.159091) " points="18.8837207 29.9999998 18.8837207 17.4545453 21.5813951 14.3181816 24.2790696 17.4545453 24.2790696 29.9999998"></polygon>
        </g>
        <path d="M39.2467266,40 C40.4193718,40 41.0453441,40.2929376 42.0962369,41.1099049 C42.5989579,41.5007215 42.9592968,41.735913 43.3508668,41.8655055 C42.9582914,42.3775038 42.5030539,42.8424216 41.9976238,43.2472751 C41.8484728,43.1434449 41.6919002,43.0266359 41.5244162,42.8964334 C40.6416307,42.2101533 40.1925585,42 39.2467266,42 C38.3023835,42 37.8624983,42.2077281 36.9902407,42.8942421 C35.9566574,43.7077281 35.3377422,44 34.1644844,44 C33.586041,44 33.1423427,43.9289569 32.7172632,43.7594343 C31.3237762,42.8733425 30.22271,41.5694665 29.5912305,40.0238847 C30.4577861,40.1033777 31.0349686,40.4186361 31.9079985,41.1057579 C32.7802561,41.7922719 33.2201413,42 34.1644844,42 C35.1088275,42 35.5487127,41.7922719 36.4209703,41.1057579 C37.4545535,40.2922719 38.0734687,40 39.2467266,40 Z M27.5495222,40.2776453 C27.7658168,40.9013781 28.0421186,41.4970677 28.37152,42.0578065 C27.8501947,42.1584259 27.4479883,42.4045118 26.8257563,42.8942421 C25.7921731,43.7077281 25.1732578,44 24,44 L24,44 L24,42 C24.9443431,42 25.3842283,41.7922719 26.2564859,41.1057579 C26.7388247,40.7261311 27.1308581,40.4600132 27.5310662,40.2841367 L27.5495222,40.2776453 Z M37,29 C37.4510013,29 37.893286,29.03732 38.3239345,29.1090402 C37.8973205,29.2323826 37.5250525,29.4733162 36.9902407,29.8942421 C35.9566574,30.7077281 35.3377422,31 34.1644844,31 C33.3845731,31 32.8496142,30.8708511 32.2749758,30.5453052 C33.5985638,29.5733081 35.2323302,29 37,29 Z M29.0822422,27 C30.2555,27 30.8744153,27.2922719 31.9079985,28.1057579 C31.9820304,28.1640251 32.0529477,28.2188432 32.1213232,28.2703782 C31.5653854,28.5801642 31.0432195,28.9422892 30.5601443,29.3493314 C30.1080012,29.0902552 29.7047119,29 29.0822422,29 C28.1378991,29 27.6980139,29.2077281 26.8257563,29.8942421 C25.7921731,30.7077281 25.1732578,31 24,31 L24,31 L24,29 C24.9443431,29 25.3842283,28.7922719 26.2564859,28.1057579 C27.2900691,27.2922719 27.9089844,27 29.0822422,27 Z M39.2467266,27 C40.4193718,27 41.0453441,27.2929376 42.0962369,28.1099049 C42.9735426,28.7919246 43.4172345,29 44.35,29 L44.35,29 L44.3508571,30.2201835 C42.803866,28.5437334 40.6906311,27.3976847 38.3147744,27.0856592 C38.5919409,27.0263674 38.8943287,27 39.2467266,27 Z M39.2467266,14 C40.4193718,14 41.0453441,14.2929376 42.0962369,15.1099049 C42.9735426,15.7919246 43.4172345,16 44.35,16 L44.35,16 L44.35,18 C43.1900757,18 42.5697861,17.7091067 41.5244162,16.8964334 C40.6416307,16.2101533 40.1925585,16 39.2467266,16 C38.3023835,16 37.8624983,16.2077281 36.9902407,16.8942421 C35.9566574,17.7077281 35.3377422,18 34.1644844,18 C32.9912266,18 32.3723113,17.7077281 31.3387281,16.8942421 C30.4664705,16.2077281 30.0265853,16 29.0822422,16 C28.1378991,16 27.6980139,16.2077281 26.8257563,16.8942421 C25.7921731,17.7077281 25.1732578,18 24,18 L24,18 L24,16 C24.9443431,16 25.3842283,15.7922719 26.2564859,15.1057579 C27.2900691,14.2922719 27.9089844,14 29.0822422,14 C30.2555,14 30.8744153,14.2922719 31.9079985,15.1057579 C32.7802561,15.7922719 33.2201413,16 34.1644844,16 C35.1088275,16 35.5487127,15.7922719 36.4209703,15.1057579 C37.4545535,14.2922719 38.0734687,14 39.2467266,14 Z" id="Combined-Shape" fill="#000000" fill-rule="nonzero"></path>
    </g>
</svg>