<?xml version="1.0" encoding="UTF-8"?>
<svg width="64px" height="64px" viewBox="0 0 64 64" version="1.1" xmlns="http://www.w3.org/2000/svg" xmlns:xlink="http://www.w3.org/1999/xlink">
    <title>permission</title>
    <g id="permission" stroke="none" stroke-width="1" fill="none" fill-rule="evenodd">
        <path d="M28.0082477,3.9992768 L28.3454403,4.00197937 C34.14544,4.09556445 37.6238004,6.61424786 38.9834387,10.7141945 L39.0595302,10.9524783 L39.1662479,11.3201088 C39.5651878,12.7790237 39.6698156,14.2236039 39.594702,15.7357988 L39.5608226,16.2681715 L39.5848284,16.3106121 C39.7798918,16.6685229 39.9245741,17.0985745 40.0279902,17.6094741 C38.6838168,18.0415549 37.3619561,18.7282709 36.2325861,19.750593 L36.2296889,19.6022907 L36.2125995,19.2439437 L36.18073,18.8123152 L36.1580213,18.5949985 L36.1263833,18.3744042 L36.1096024,18.297436 L36.1031981,18.2799394 L36.0791923,18.2374988 C35.7393692,17.6367159 35.5615146,16.9595577 35.560823,16.2722279 L35.5688978,16.0141317 L35.5996275,15.5373559 C35.6528795,14.4652802 35.5866172,13.5526806 35.4003155,12.7367727 L35.3248245,12.4352171 L35.233,12.12 L35.1867624,11.9732613 C34.3642484,9.49299613 32.3864295,8.14417327 28.6478419,8.0104908 L28.3133817,8.0018509 L28.009,7.999 L27.7285124,8.00145877 C23.7824609,8.06512973 21.7082112,9.38899415 20.8609458,11.8535483 L20.7913129,12.0675865 L20.7015186,12.3751728 C20.4466629,13.3071746 20.3532532,14.2907831 20.405269,15.4517797 L20.4279718,15.845521 L20.4369953,15.963739 C20.4906914,16.6672166 20.3572758,17.3707575 20.0525141,18.0036247 L19.933,18.231 L19.913043,18.2910447 L19.8868121,18.4092478 L19.8596924,18.5800617 L19.8332323,18.8041342 L19.8089803,19.082113 L19.7884848,19.4146458 L19.7732941,19.8023805 L19.7649568,20.2459647 L19.7638421,20.4889028 C19.7638421,20.9454822 19.9616743,21.6355099 20.3990162,22.5281465 L20.5133656,22.7555088 L20.6784499,23.0676734 C20.8567095,23.3957079 21.0501886,23.722167 21.2449093,24.0273014 L21.439526,24.3245962 L21.6237532,24.5930313 C21.8535131,24.9278113 22.0306903,25.2952257 22.149584,25.6824836 L22.2138807,25.9171173 L22.2722871,26.1602377 C22.3686022,26.5379026 22.4792686,26.8841982 22.6027586,27.1951987 L22.7495959,27.5441975 C23.4951083,29.3693486 22.7977384,31.4537716 21.13231,32.4700142 L20.9501886,32.5747494 L20.5805027,32.7743306 L19.9139797,33.1224229 L19.2063964,33.4794236 L18.4535667,33.848292 L17.5762192,34.2676171 L14.5373228,35.6810212 L13.7008971,36.0761472 L13.0263784,36.4037975 L12.6305506,36.6031423 L12.3035416,36.7752723 L12.134,36.868 L11.905,37.003 L11.765,37.093 L11.6929742,37.1442012 C11.2089171,37.5044051 10.3016597,38.8193434 9.52041421,40.4810199 L9.39818693,40.7461827 C8.62791515,42.4511117 8.12929943,44.1878713 8.02263929,45.4214487 L8.005,45.693 L8.0485738,45.7260642 C8.13879113,45.7905521 8.26825444,45.8668039 8.43821725,45.9486014 L8.5733026,46.0108922 C9.09734946,46.2427223 9.85176026,46.4706667 10.8164486,46.6813315 L11.4203342,46.8055497 C11.7347329,46.8665149 12.0676951,46.9256838 12.4186783,46.9826948 C13.7467942,47.1984237 15.3158636,47.3829204 17.1006673,47.534267 L17.7035575,47.5834854 L19.0220961,47.6791868 L19.929771,47.7370311 L20.832769,47.788568 L22.0310993,47.8480522 L23.2046822,47.8968105 L24.3394604,47.9352377 L25.9854683,47.9756031 L27.0021647,47.9912768 L27.0031647,51.9912768 L26.9868508,51.9913282 L25.9245169,51.9751387 L24.2418063,51.9340455 L23.0699136,51.8945395 L21.8654624,51.8446213 L20.6348899,51.7836705 C20.0141461,51.7503336 19.3860208,51.7126268 18.7541348,51.6702013 L18.1211294,51.6261899 L17.4035549,51.5722193 C15.2954543,51.4066296 13.4031422,51.1950285 11.7773544,50.9309481 C9.75951847,50.6031863 8.1283783,50.1879946 6.95504385,49.6689297 C6.20982752,49.3392576 5.5883079,48.9405074 5.11728032,48.4705378 C4.39233522,47.747221 4.00116468,46.853359 4.00116468,45.8867751 C4.00116468,41.9360514 6.90463055,35.7214166 9.30503597,33.9351903 L9.5432588,33.7668364 L9.81406767,33.5931014 L10.1258631,33.4092867 L10.3606454,33.2788236 L10.7594194,33.0677685 L11.2215812,32.8341046 L11.9509196,32.4792626 L12.8277939,32.0647371 L15.8892476,30.6407552 L16.7278154,30.2397213 L17.445593,29.8878262 L18.110926,29.5518491 L18.7269094,29.2297302 L19.0465978,29.0567468 L19.040366,29.0414902 C18.772594,28.4368508 18.5617463,27.7972689 18.396346,27.1487116 L18.3257405,26.8564605 L18.1415133,26.5880254 C17.8111663,26.0967791 17.477136,25.5540505 17.1638615,24.9775604 L16.978583,24.6277567 C16.2160094,23.149527 15.7638421,21.7702261 15.7638421,20.4889028 C15.7638421,18.5534913 15.9364899,17.2062021 16.4245912,16.3106121 L16.448597,16.2681715 L16.4395735,16.1499536 C16.3230132,14.4861363 16.4079646,12.9116524 16.8431718,11.3201088 L16.9498895,10.9524783 C18.2526948,6.71201715 21.7524413,4.09736417 27.6639794,4.00197937 L28.0082477,3.9992768 Z" id="Path" fill="#000000" fill-rule="nonzero"></path>
        <path d="M43.8168322,18.0013913 L44,18 C44.2424242,18 44.4921947,18.0073462 44.7475304,18.022929 L45.1344853,18.052592 L45.1344853,18.052592 L45.5284526,18.0952778 C45.6607953,18.1117511 45.7940841,18.1305062 45.9280964,18.1516543 L46.3320811,18.2223892 C49.9834711,18.9256198 54,21.4545455 54,28 C54,30.9375 50.1649306,30.9986979 50.005136,28.1835938 L50,28 C50,24 48,22 44,22 C40,22 38,24 38,28 L38.0007806,33.519306 C39.998305,33.1733229 41.9983414,33 44,33 C48.9436422,33 53.8773886,34.0572314 58.7878386,36.1617099 C59.4741818,36.455857 59.9352783,37.1053466 59.9937074,37.8411132 L60,38 L60,58 C60,59.0543618 59.1841222,59.9181651 58.1492623,59.9945143 L58,60 L30,60 C28.9456382,60 28.0818349,59.1841222 28.0054857,58.1492623 L28,58 L28,38 C28,37.1999438 28.4767937,36.4768675 29.2121614,36.1617099 C30.8059243,35.4786687 32.4021414,34.9059474 34.0003544,34.4438874 L34,28 C34,21.4545455 38.0165289,18.9256198 41.6679189,18.2223892 L42.0719036,18.1516543 C42.2059159,18.1305062 42.3392047,18.1117511 42.4715474,18.0952778 L42.8655147,18.052592 L42.8655147,18.052592 L43.2524696,18.022929 C43.4439714,18.0112419 43.6323427,18.0041879 43.8168322,18.0013913 L43.8168322,18.0013913 Z M44,37 C40.4319088,37 36.8572795,37.6228868 33.2689153,38.8740221 L32.5959343,39.1159736 L32,39.341 L32,56 L56,56 L56,39.342 L55.4040657,39.1159736 C52.0029097,37.8562698 48.6144844,37.1607242 45.2326709,37.0247778 L44.5986568,37.0058445 L44,37 Z" id="Shape" fill="#000000"></path>
        <path d="M44,41 C45.6568542,41 47,42.3431458 47,44 C47,45.2858828 46.1909837,46.3828096 45.0541793,46.8095524 L47,52 L41,52 L42.9468268,46.8099299 C41.8094937,46.3834568 41,45.2862621 41,44 C41,42.3431458 42.3431458,41 44,41 Z" id="Oval-2" fill="#000000"></path>
    </g>
</svg>