<?xml version="1.0" encoding="UTF-8"?>
<svg width="64px" height="64px" viewBox="0 0 64 64" version="1.1" xmlns="http://www.w3.org/2000/svg" xmlns:xlink="http://www.w3.org/1999/xlink">
    <title>pest_bed_bugs</title>
    <g id="pest_bed_bugs" stroke="none" stroke-width="1" fill="none" fill-rule="evenodd">
        <path d="M48.7868322,12.3451716 C48.9704823,12.8239964 48.7614057,13.3568801 48.3177364,13.5889148 L48.2112587,13.6369592 L45.124,14.82 L42.30027,21.7430996 L41.7951055,22.2724897 L39.0800485,23.5308732 C39.2096487,23.6287025 39.3377515,23.7291305 39.4643058,23.8320956 C39.5579217,23.7673378 39.6636004,23.7189013 39.7781255,23.6897865 L39.8928175,23.6676168 L43.8858549,23.1320977 L44.6734523,23.367313 L51.482,29.264 L54.5887521,27.725525 C55.0482836,27.49786 55.5983986,27.656137 55.8709449,28.0761383 L55.9287454,28.1776511 C56.1564105,28.6371826 55.9981334,29.1872975 55.5781322,29.4598439 L55.4766193,29.5176444 L51.7744655,31.3517974 L50.6758576,31.2116488 L43.704,25.174 L41.1973287,25.509963 C42.9337902,27.4977185 44.224221,30.040012 44.8684199,32.8951007 C44.8848416,32.8965183 44.9022129,32.8996069 44.9195736,32.9031734 L45.0324438,32.9332743 L47.7958372,33.8436569 L48.4367283,34.4929751 L51.041,42.761 L51.2105266,43.0000106 C51.406932,43.267793 51.6290464,43.535733 51.8690203,43.7825564 C52.432578,44.3621995 52.9856599,44.7102221 53.4428112,44.7642005 L53.5650462,44.7715847 C54.1173309,44.7715847 54.5650462,45.2192999 54.5650462,45.7715847 C54.5650462,46.3238694 54.1173309,46.7715847 53.5650462,46.7715847 C52.4242664,46.7715847 51.3903697,46.1593202 50.43505,45.1767333 C49.9710546,44.6994942 49.609862,44.2264607 49.3703234,43.8608105 L49.2751672,43.7109786 L49.1735398,43.4881725 L46.683,35.583 L45.2285462,35.1036973 C45.2940346,35.7437588 45.3277538,36.3953149 45.3277538,37.0560109 C45.3277538,41.0456284 43.4898989,45.7180328 40.2901802,49.868306 C37.4738989,53.523224 34.1419604,55.973224 32,55.973224 C29.8580396,55.973224 26.5261011,53.523224 23.7098198,49.868306 C20.5101011,45.7180328 18.6722462,41.0456284 18.6722462,37.0560109 C18.6722462,36.3949964 18.7058954,35.7432536 18.7712499,35.1031129 L17.316,35.583 L14.8264602,43.4881725 L14.7248328,43.7109786 C14.4912378,44.0913941 14.0952304,44.6313172 13.56495,45.1767333 C12.6096303,46.1593202 11.5757336,46.7715847 10.4349538,46.7715847 C9.8826691,46.7715847 9.43495385,46.3238694 9.43495385,45.7715847 C9.43495385,45.2587489 9.82099404,44.8360775 10.3183327,44.7783124 L10.4349538,44.7715847 C10.9138664,44.7715847 11.5161894,44.4148943 12.1309797,43.7825564 C12.3709536,43.535733 12.593068,43.267793 12.7894734,43.0000106 L12.958,42.761 L15.5632717,34.4929751 L16.2041628,33.8436569 L18.9675562,32.9332743 C19.0219346,32.9153597 19.0767511,32.9023666 19.1315231,32.8940515 C19.7739687,30.0380389 21.0635568,27.4960704 22.7991904,25.5090838 L20.295,25.174 L13.3241424,31.2116488 L12.2255345,31.3517974 L8.52338067,29.5176444 C8.02850057,29.2724666 7.82607684,28.6725312 8.07125461,28.1776511 C8.29891968,27.7181196 8.83247274,27.5107571 9.30376175,27.6797814 L9.4112479,27.725525 L12.517,29.264 L19.3265477,23.367313 L20.1141451,23.1320977 L24.1071825,23.6676168 C24.2653551,23.6888299 24.4099047,23.7459341 24.5337259,23.8296232 C24.6600378,23.7274441 24.7878638,23.6272858 24.9171815,23.5297158 L22.2048945,22.2724897 L21.69973,21.7430996 L18.875,14.82 L15.7887413,13.6369592 C15.3099164,13.453309 15.0535202,12.9415092 15.1776865,12.4564677 L15.2131678,12.3451716 C15.396818,11.8663468 15.9086178,11.6099505 16.3936593,11.7341169 L16.5049555,11.7695982 L19.9955577,13.108396 L20.5633382,13.6642775 L23.403,20.623 L26.5104989,22.0646688 C26.6457936,22.1274138 26.7604356,22.2165677 26.8511379,22.323158 C28.4351912,21.5254598 30.1752341,21.084153 32,21.084153 C33.8243809,21.084153 35.5640746,21.5260982 37.148756,22.3250712 C37.2141755,22.2459734 37.2944312,22.17629 37.3865342,22.1198373 L37.4895011,22.0646688 L40.596,20.623 L43.4366618,13.6642775 L44.0044423,13.108396 L47.4950445,11.7695982 C48.0107021,11.5718211 48.5890551,11.8295141 48.7868322,12.3451716 Z M37.6061187,15.5013661 C37.9763341,15.5013661 38.3068835,15.6887978 38.4919912,15.9967213 C38.9415385,16.7464481 39.0605363,17.6702186 38.8093187,18.5136612 L38.8093187,18.5136612 L37.2359033,21.4054645 C35.622822,20.6423497 33.8642989,20.2273224 32.013222,20.2273224 C30.175367,20.2273224 28.403622,20.6423497 26.7905407,21.4054645 L26.7905407,21.4054645 L25.2171253,18.5136612 C24.9526857,17.6702186 25.0716835,16.7598361 25.5212308,15.9967213 C25.7063385,15.6887978 26.0501099,15.5013661 26.4071033,15.5013661 C26.5525451,15.5013661 26.6979868,15.5281421 26.8302066,15.595082 L26.8302066,15.595082 L26.8963165,15.6218579 C28.5093978,16.3715847 30.2414769,16.7464481 32.013222,16.7464481 C33.784967,16.7464481 35.5170462,16.3715847 37.1301275,15.6218579 L37.1301275,15.6218579 L37.1830154,15.595082 C37.3152352,15.5281421 37.4606769,15.5013661 37.6061187,15.5013661 Z M43.7778858,6.08862383 C44.2886189,6.29879069 44.5322761,6.8831956 44.3221092,7.39392874 C44.2274605,7.62393743 44.0816746,7.81900319 43.8928656,8.00694238 C43.7153667,8.18362355 43.4991651,8.35263897 43.2483985,8.52142635 C42.9957641,8.69147093 42.7483451,8.83610963 42.5483155,8.94344482 L42.4078379,9.0167659 L41.9086045,9.12345927 L41.0805971,9.09132679 L40.1207551,9.06664631 L39.6618674,9.06054371 C38.8514741,9.05373069 38.2244384,9.07187092 37.899377,9.11549092 C37.1926018,9.21149257 35.3026841,10.6257114 34.664194,11.5534014 L34.5817571,11.682424 C34.5494462,11.737593 34.5126662,11.7885206 34.4721455,11.8350164 C34.5718309,11.9568638 34.6651188,12.09086 34.7501714,12.2346995 L35.2431312,13.0658555 C35.3763161,12.7503381 35.6856201,12.529235 36.0459253,12.529235 C36.5278769,12.529235 36.9185758,12.9248391 36.9185758,13.4128415 C36.9185758,13.900844 36.5278769,14.2964481 36.0459253,14.2964481 C35.8376746,14.2964481 35.6464616,14.2225851 35.4964448,14.0993208 C35.4514741,14.3749913 35.313833,14.6355106 35.0939429,14.8319672 L34.4725099,15.3808743 C33.0445363,16.6125683 30.9554637,16.6125683 29.5407121,15.3808743 L28.9192791,14.8319672 C28.6970132,14.633388 28.5587832,14.3693543 28.5125793,14.0900274 C28.3627739,14.2189705 28.16736,14.2964481 27.9540747,14.2964481 C27.4721231,14.2964481 27.0814242,13.900844 27.0814242,13.4128415 C27.0814242,12.9248391 27.4721231,12.529235 27.9540747,12.529235 C28.3194002,12.529235 28.6322934,12.7565426 28.7623331,13.079099 L29.2630505,12.2346995 C29.3462741,12.0939533 29.4373825,11.9626316 29.5353197,11.8407345 C29.5168763,11.8227763 29.4995403,11.80164 29.4829857,11.7796563 L29.4182429,11.682424 C28.8799909,10.763388 26.8410542,9.21606407 26.1022158,9.11570596 L25.8711137,9.09248238 C25.517413,9.06561296 24.9864472,9.0550933 24.3381326,9.06054371 L23.8792449,9.06664631 L22.4297979,9.10894321 L22.0913955,9.12345927 L21.5921621,9.0167659 C21.3750385,8.90684111 21.0673945,8.73398207 20.7516015,8.52142635 C20.5008349,8.35263897 20.2846333,8.18362355 20.1071344,8.00694238 C19.9183254,7.81900319 19.7725395,7.62393743 19.6778908,7.39392874 C19.4677239,6.8831956 19.7113811,6.29879069 20.2221142,6.08862383 C20.6963664,5.89346889 21.2341417,6.08962135 21.4768184,6.52756036 L21.5250924,6.62812537 L21.5138905,6.60014193 C21.5073492,6.58414828 21.5057697,6.5791397 21.5091912,6.58130809 L21.518079,6.58946737 C21.5915863,6.66263598 21.7142246,6.7585084 21.8683642,6.86225753 C21.9622073,6.92542197 22.0573542,6.98514468 22.1473349,7.03892684 L22.276,7.113 L22.8538556,7.0924012 C23.3568423,7.07590762 23.8544811,7.06453911 24.3213191,7.06061438 L24.8918601,7.05979653 C25.5206168,7.06395434 26.0187478,7.08657766 26.3698122,7.13368941 C27.7689858,7.32373991 30.3147361,9.25567847 31.1440428,10.6716744 L31.191666,10.7635228 C31.7208504,10.6242317 32.2799215,10.623187 32.8095543,10.7603887 L32.8559572,10.6716744 L32.8559572,10.6716744 C33.6852639,9.25567847 36.2310142,7.32373991 37.6317806,7.13347437 C38.0815564,7.07311715 38.7760348,7.05302579 39.6786809,7.06061438 C39.9899062,7.06323087 40.3148208,7.0691557 40.6458831,7.07770185 L41.723,7.113 L41.9210182,6.99751541 L42.1316358,6.86225753 C42.2472405,6.78444568 42.3451258,6.71106448 42.417854,6.64836912 L42.481921,6.58946737 C42.4903532,6.58107406 42.4937649,6.57795364 42.4921952,6.58391424 L42.474,6.628 L42.5231816,6.52756036 C42.7658583,6.08962135 43.3036336,5.89346889 43.7778858,6.08862383 Z" id="Combined-Shape" fill="#000000" fill-rule="nonzero"></path>
    </g>
</svg>