<?xml version="1.0" encoding="UTF-8"?>
<svg width="64px" height="64px" viewBox="0 0 64 64" version="1.1" xmlns="http://www.w3.org/2000/svg" xmlns:xlink="http://www.w3.org/1999/xlink">
    <title>pest_ticks</title>
    <g id="pest_ticks" stroke="none" stroke-width="1" fill="none" fill-rule="evenodd">
        <path d="M43.8221922,5.93079008 C46.1548854,9.30023586 45.8990395,12.4252114 43.5092566,15.2132914 C42.7851967,16.058028 41.9741892,16.8015471 40.9437161,17.560494 L40.4520473,17.9122975 L39.9263164,18.2688403 C39.8356953,18.3288006 39.7435343,18.3890646 39.649773,18.4496854 L39.0675206,18.8181158 C38.9671173,18.8803759 38.8649932,18.943099 38.7610879,19.0063381 L38.1157996,19.39239 L37.4248684,19.7933752 C37.3057487,19.8615921 37.1846067,19.9305374 37.0613819,20.0002642 L36.4637634,20.3339096 L38.841,20.9290001 L43.4855042,18.1425071 C43.6020658,18.0725702 43.7312392,18.0273784 43.865003,18.0091536 L44,18.0000001 L45,18.0000001 C45.5522847,18.0000001 46,18.4477153 46,19.0000001 C46,19.5128359 45.6139598,19.9355072 45.1166211,19.9932723 L45,20.0000001 L44.276,20.0000001 L39.5144958,22.857493 C39.324978,22.9712036 39.104286,23.0182952 38.8870871,22.9936089 L38.7574644,22.9701426 L36.2619823,22.3463809 C36.9920814,22.8069321 37.7222553,23.386222 38.4524695,24.0841434 L45.7576627,26.0337651 C45.8707508,26.063922 45.9773685,26.1136151 46.0728151,26.1803152 L46.1643638,26.2525907 L50.38,30.0000001 L51.5,30.0000001 C52.0128358,30.0000001 52.4355072,30.3860402 52.4932723,30.8833789 L52.5,31.0000001 C52.5,31.5128359 52.1139598,31.9355072 51.6166211,31.9932723 L51.5,32.0000001 L50,32.0000001 C49.7959049,32.0000001 49.5977233,31.9375844 49.4313998,31.8226171 L49.3356362,31.7474094 L45.013,27.9050001 L40.8422969,26.7915715 C40.8948646,26.8604336 40.9474323,26.9299098 41,27.0000001 C38,30.3333334 35,32.0000001 32,32.0000001 C29,32.0000001 26,30.3333334 23,27.0000001 L23.2857634,26.6249096 L18.4867634,27.9050001 L14.1641273,31.7474094 L14.0683637,31.8226171 C13.9020401,31.9375844 13.7038586,32.0000001 13.4997634,32.0000001 L13.4997634,32.0000001 L11.9997634,32.0000001 L11.8831423,31.9932723 C11.3858036,31.9355072 10.9997634,31.5128359 10.9997634,31.0000001 L10.9997634,31.0000001 L11.0064912,30.8833789 C11.0642563,30.3860402 11.4869276,30.0000001 11.9997634,30.0000001 L11.9997634,30.0000001 L13.1197634,30.0000001 L17.3353996,26.2525907 L17.4269483,26.1803152 C17.5223949,26.1136151 17.6290126,26.063922 17.7421008,26.0337651 L17.7421008,26.0337651 L25.2421008,24.0337651 L25.3565177,24.0102168 C25.4476352,23.996914 25.5382955,23.9965074 25.6264067,24.007786 C26.4484179,23.2329321 27.2702947,22.6070098 28.0921715,22.1311944 L24.7422991,22.9701426 L24.6126763,22.9936089 C24.3954775,23.0182952 24.1747854,22.9712036 23.9852677,22.857493 L23.9852677,22.857493 L19.2237634,20.0000001 L18.4997634,20.0000001 L18.3831423,19.9932723 C17.8858036,19.9355072 17.4997634,19.5128359 17.4997634,19.0000001 C17.4997634,18.4477153 17.9474787,18.0000001 18.4997634,18.0000001 L18.4997634,18.0000001 L19.4997634,18.0000001 L19.6347604,18.0091536 C19.7685243,18.0273784 19.8976977,18.0725702 20.0142592,18.1425071 L20.0142592,18.1425071 L24.6587634,20.9290001 L27.0347634,20.3339096 L26.4383816,20.0002642 C26.3767692,19.9654008 26.3156775,19.9307328 26.2550989,19.8962535 L26.0748951,19.7933752 L25.3839638,19.39239 L24.7386756,19.0063381 C24.6347703,18.943099 24.5326461,18.8803759 24.4322428,18.8181158 L24.4322428,18.8181158 L23.8499904,18.4496854 C23.7562292,18.3890646 23.6640681,18.3288006 23.573447,18.2688403 L23.573447,18.2688403 L23.0477162,17.9122975 L22.5560473,17.560494 C21.5255742,16.8015471 20.7145668,16.058028 19.9905068,15.2132914 C17.600724,12.4252114 17.344878,9.30023586 19.6775713,5.93079008 C19.9919372,5.47670587 20.6148892,5.36344188 21.0689734,5.67780787 C21.5230576,5.99217386 21.6363216,6.61512583 21.3219556,7.06921004 C19.5213688,9.67005769 19.6954085,11.7958286 21.50902,13.9117087 C22.2852936,14.8173612 23.2188052,15.6175497 24.5287192,16.4986295 L24.5287192,16.4986295 L25.0380089,16.8331902 C25.1259739,16.8897036 25.2155161,16.946624 25.3066892,17.0039968 L25.3066892,17.0039968 L25.8737261,17.3540275 L26.4824715,17.7171014 L27.1354938,18.0954024 L27.4613504,18.2791248 C27.7201869,15.9404159 29.6567254,13.5000001 32,13.5000001 C34.2552016,13.5000001 36.1336673,15.7604153 36.5025767,18.0156048 L37.0172919,17.7171014 L37.6260373,17.3540275 L38.1930742,17.0039968 C38.2842473,16.946624 38.3737896,16.8897036 38.4617545,16.8331902 L38.9710442,16.4986295 C40.2809582,15.6175497 41.2144698,14.8173612 41.9907434,13.9117087 C43.8043549,11.7958286 43.9783946,9.67005769 42.1778078,7.06921004 C41.8634418,6.61512583 41.9767058,5.99217386 42.43079,5.67780787 C42.8848742,5.36344188 43.5078262,5.47670587 43.8221922,5.93079008 Z" id="Combined-Shape" fill="#000000" fill-rule="nonzero"></path>
        <path d="M32.5,33.0000001 C34.8333333,32.6666667 37,31.6666667 39,30.0000001 C39,38.5000001 39,49.5000001 39,56.5000001 C37.6666667,57.5000001 35.5,58.1666667 32.5,58.5000001 L32.5,33.0000001 Z" id="Path-214" fill="#000000" fill-rule="nonzero"></path>
        <path d="M25,33.0000001 C27.3333333,32.6666667 29.5,31.6666667 31.5,30.0000001 C31.5,38.5000001 31.5,49.5000001 31.5,56.5000001 C30.1666667,57.5000001 28,58.1666667 25,58.5000001 L25,33.0000001 Z" id="Path-214-Copy" fill="#000000" fill-rule="nonzero" transform="translate(28.250000, 44.250000) scale(-1, 1) translate(-28.250000, -44.250000) "></path>
        <path d="M41.5,27.5000001 C41.9830769,28.4661539 42.42726,29.4193431 42.8325491,30.3595677 L49.06921,34.6778079 C49.2174551,34.7804391 49.3344867,34.9207257 49.4089681,35.0831305 L49.4566739,35.2088384 L52.741,46.0000001 L53.5,46.0000001 C54.0128358,46.0000001 54.4355072,46.3860402 54.4932723,46.8833789 L54.5,47.0000001 C54.5,47.5128359 54.1139598,47.9355072 53.6166211,47.9932723 L53.5,48.0000001 L52,48.0000001 C51.5998773,48.0000001 51.2425203,47.7621714 51.0845718,47.4025769 L51.0433261,47.2911617 L47.644,36.1240001 L44.1226611,33.6857248 C45.3742204,37.3324098 46,40.7705015 46,44.0000001 C46,49.0000001 44,53.0000001 40,56.0000001 L40,56.0000001 L40,29.0000001 L41.5,27.5000001 Z" id="Combined-Shape" fill="#000000" fill-rule="nonzero"></path>
        <path d="M22.5,27.5000001 L24,29.0000001 L24,56.0000001 C20,53.0000001 18,49.0000001 18,44.0000001 C18,40.6361503 18.6789291,37.0459908 20.0367873,33.2295216 L15.8557634,36.1240001 L12.4564373,47.2911617 L12.4151917,47.4025769 C12.2572432,47.7621714 11.8998862,48.0000001 11.4997634,48.0000001 L11.4997634,48.0000001 L9.99976345,48.0000001 L9.88314232,47.9932723 C9.38580364,47.9355072 8.99976345,47.5128359 8.99976345,47.0000001 L8.99976345,47.0000001 L9.00649118,46.8833789 C9.06425629,46.3860402 9.48692761,46.0000001 9.99976345,46.0000001 L9.99976345,46.0000001 L10.7587634,46.0000001 L14.0430896,35.2088384 L14.0907953,35.0831305 C14.1652768,34.9207257 14.2823084,34.7804391 14.4305535,34.6778079 L14.4305535,34.6778079 L20.9305535,30.1778079 L21.0381225,30.1128134 C21.1275459,30.0661397 21.2216088,30.0342456 21.31717,30.01656 C21.6805013,29.1891207 22.0752137,28.3495727 22.5,27.5000001 Z" id="Combined-Shape" fill="#000000" fill-rule="nonzero"></path>
    </g>
</svg>