<?xml version="1.0" encoding="UTF-8"?>
<svg width="64px" height="64px" viewBox="0 0 64 64" version="1.1" xmlns="http://www.w3.org/2000/svg" xmlns:xlink="http://www.w3.org/1999/xlink">
    <title>pest_mosquitoes</title>
    <g id="pest_mosquitoes" stroke="none" stroke-width="1" fill="none" fill-rule="evenodd">
        <path d="M48.1474,4.94022323 C48.6266642,4.79534951 49.1489988,5.0295389 49.3530346,5.50003862 L49.3530346,5.50003862 L49.3932609,5.609709 C49.5381346,6.08897321 49.3039452,6.61130778 48.8334455,6.81534359 L48.8334455,6.81534359 L45.43,8.291 L39.559,12.16 L41.3901652,19.8169576 L41.046259,20.8272819 L34.5729111,26.060149 L34.470462,26.1329471 C34.3151003,26.2293423 34.1409344,26.278445 33.9668707,26.2822586 C33.9889135,26.5135537 34,26.7541874 34,27 C34,27.1200471 33.9973558,27.2388591 33.9921776,27.3562156 C37.1334491,26.7541776 47.4574278,24.7887447 48.9116383,24.660611 C50.6302507,24.5091803 53.2134606,24.6524921 51.914359,26.3531422 C50.6152575,28.0537923 49.9926059,28.169486 48.0126448,29.1140663 C46.7908366,29.6969545 45.134003,30.2829341 43.1191,30.5031425 L43.4367194,30.9366306 L45.261,39.73 L48.314,46.114 L49.972,48.162 L52.9261884,51.0874925 L53.0098563,51.1812744 C53.3168779,51.5720049 53.2920415,52.13937 52.9334007,52.5016877 C52.5448731,52.8941985 51.9117163,52.8974276 51.5192055,52.5089 L51.5192055,52.5089 L48.5313312,49.5513469 L48.4578278,49.4701502 L46.6853262,47.2823678 L46.5601473,47.0842338 L43.403938,40.4833367 L43.3269525,40.2550581 L41.572,31.789 L40.6839393,31.2934404 L40.5854434,31.2306368 C40.3550575,31.064195 40.2133768,30.8126376 40.1797284,30.5443607 C39.7871767,30.5126581 39.384553,30.4660739 38.9730267,30.4024299 C38.3911675,30.3124433 37.8527166,30.1863129 37.3575514,30.0366866 L37.4431077,30.1153227 L40.7004319,34.2348894 L40.8108665,35.3014893 L36.279,44.386 L38.649,49.937 L42.02,53.045 L46.618,55.48 L50.8159631,57.0315723 L50.9230192,57.0783135 C51.3694877,57.3049156 51.585053,57.8352076 51.4072609,58.3162384 C51.2157925,58.8342715 50.6406279,59.0990045 50.1225948,58.9075362 L50.1225948,58.9075362 L45.858394,57.33146 L45.7370148,57.277173 L40.9675242,54.7509351 L40.7577894,54.6024881 L37.1364515,51.2641092 L36.8945664,50.9215223 L34.2581732,44.7466123 L34.2830056,43.907586 L38.738,34.977 L35.968,31.472 L33.4645535,29.7240527 C33.2873577,30.10495 33.0734615,30.4166308 32.8341222,30.6365807 C33.5218189,31.7406003 34,34.1748511 34,37 C34,40.8659932 33.1045695,44 32,44 C30.8954305,44 30,40.8659932 30,37 C30,34.1748511 30.4781811,31.7406003 31.1667193,30.6346314 C30.9270173,30.4173283 30.7128406,30.1053762 30.5354465,29.7240527 L28.032,31.472 L25.262,34.977 L29.7169944,43.907586 L29.7418268,44.7466123 L27.1054336,50.9215223 L26.8635485,51.2641092 L23.2422106,54.6024881 L23.0324758,54.7509351 L18.2629852,57.277173 L18.141606,57.33146 L13.8774052,58.9075362 C13.3593721,59.0990045 12.7842075,58.8342715 12.5927391,58.3162384 C12.414947,57.8352076 12.6305123,57.3049156 13.0769808,57.0783135 L13.1840369,57.0315723 L17.382,55.48 L21.98,53.045 L25.351,49.937 L27.721,44.386 L23.1891335,35.3014893 L23.2995681,34.2348894 L26.5568923,30.1153227 L26.6417632,30.0368936 C26.1467866,30.1864292 25.608564,30.3124849 25.0269733,30.4024299 C24.6151071,30.4661265 24.2121582,30.512735 23.8185014,30.5440523 C23.7866232,30.8126376 23.6449425,31.064195 23.4145566,31.2306368 L23.3160607,31.2934404 L22.428,31.789 L20.6730475,40.2550581 L20.596062,40.4833367 L17.4398527,47.0842338 L17.3146738,47.2823678 L15.5421722,49.4701502 L15.4686688,49.5513469 L12.4807945,52.5089 C12.0882837,52.8974276 11.4551269,52.8941985 11.0665993,52.5016877 C10.7079585,52.13937 10.6831221,51.5720049 10.9901437,51.1812744 L11.0738116,51.0874925 L14.028,48.162 L15.686,46.114 L18.739,39.73 L20.5632806,30.9366306 L20.8809,30.5031425 C18.865997,30.2829341 17.2091634,29.6969545 15.9873552,29.1140663 C14.0073941,28.169486 13.3847425,28.0537923 12.085641,26.3531422 C10.7865394,24.6524921 13.3697493,24.5091803 15.0883617,24.660611 C16.5427311,24.7887587 26.8688071,26.7546071 30.0097703,27.3560906 L30.003166,27.2269833 L30.003166,27.2269833 L30,27 C30,26.7541874 30.0110865,26.5135537 30.032314,26.2799896 C29.8590656,26.278445 29.6848997,26.2293423 29.529538,26.1329471 L29.4270889,26.060149 L22.953741,20.8272819 L22.6098348,19.8169576 L24.441,12.16 L18.57,8.291 L15.1665545,6.81534359 C14.6960548,6.61130778 14.4618654,6.08897321 14.6067391,5.609709 L14.6469654,5.50003862 C14.8510012,5.0295389 15.3733358,4.79534951 15.8526,4.94022323 L15.9622704,4.98044953 L19.4474592,6.4918284 L19.5999809,6.5743609 L26.1271619,10.8771096 L26.5493448,11.9446654 L24.701,19.667 L30.4995232,24.3552564 C30.603837,24.118712 30.7219159,23.9070266 30.8512534,23.7252128 C30.3359263,23.4559784 30,23.0074116 30,22.5 C30,22.4427005 30.0042838,22.3861513 30.0126242,22.3305229 C29.4254418,21.7088262 29.2131496,21.1470681 29.1670412,20.4052279 L29.1534219,20.0632466 C29.1460601,19.9362753 29.133738,19.8944935 29.0817937,19.8203277 C28.7157795,19.2977348 28.4358035,19.0068954 28.2916209,18.8926995 L28.2524896,18.8636849 C27.7961194,18.5526468 27.6783044,17.9305395 27.9893425,17.4741693 C28.3003805,17.0177991 28.9224878,16.8999841 29.378858,17.2110221 C29.7064895,17.4343186 30.178488,17.8998676 30.7199641,18.672984 C30.8921761,18.9188672 31.0028902,19.1594248 31.0697483,19.4145367 L31.0690918,12.9465011 C31.0690918,12.3942164 31.516807,11.9465011 32.0690918,11.9465011 C32.5819276,11.9465011 33.004599,12.3325413 33.0623641,12.82988 L33.0690918,12.9465011 L33.0672745,18.9859727 C33.1196917,18.8815846 33.1819119,18.7777679 33.2553006,18.672984 C33.7967767,17.8998676 34.2687752,17.4343186 34.5964067,17.2110221 C35.0527769,16.8999841 35.6748842,17.0177991 35.9859223,17.4741693 C36.2969603,17.9305395 36.1791453,18.5526468 35.7227751,18.8636849 L35.7227751,18.8636849 L35.6836439,18.8926995 C35.5394612,19.0068954 35.2594853,19.2977348 34.893471,19.8203277 C34.8415267,19.8944935 34.8292046,19.9362753 34.8218428,20.0632466 L34.8218428,20.0632466 L34.8082236,20.4052279 C34.7626841,21.1379142 34.5550368,21.6949352 33.9830432,22.3084477 C33.9944469,22.3704955 34,22.4347614 34,22.5 C34,23.0074932 33.6639657,23.4561225 33.1496713,23.7275574 C33.2785071,23.9077851 33.3963498,24.1191358 33.5004768,24.3552564 L39.299,19.667 L37.4506552,11.9446654 L37.8728381,10.8771096 L44.4000191,6.5743609 L44.5525408,6.4918284 L48.0377296,4.98044953 L48.1474,4.94022323 Z" id="Combined-Shape" fill="#000000" fill-rule="nonzero"></path>
    </g>
</svg>