<?xml version="1.0" encoding="UTF-8"?>
<svg width="64px" height="64px" viewBox="0 0 64 64" version="1.1" xmlns="http://www.w3.org/2000/svg" xmlns:xlink="http://www.w3.org/1999/xlink">
    <title>pest_birds</title>
    <g id="pest_birds" stroke="none" stroke-width="1" fill="none" fill-rule="evenodd">
        <path d="M54.9277342,6.31127307 C56.775182,5.13790728 58.894563,7.35817004 57.6366174,9.14909817 L53.649,14.8255403 L53.6868449,15.1125019 C54.0721232,18.2621877 53.6170914,20.6757666 52.138327,22.2941101 L51.9631467,22.4773096 C51.2512387,23.1888976 50.4227413,23.7470633 49.5228663,24.1331806 L49.326,24.2115403 L49.3135692,24.2434183 C49.2446625,24.4039304 49.1730104,24.5653121 49.0986556,24.727487 L48.985,24.9645403 C50.6783144,24.827753 52.3286515,25.5658267 53.3350435,26.9805393 L53.4626102,27.168888 C53.7792917,27.6650659 54.0018019,28.2141389 54.1125998,28.7837427 L54.1294429,28.8838157 L54.1603706,29.1020843 L57.9728663,53.8303203 C58.1422147,55.20999 57.5139481,56.5924488 56.3208907,57.390245 C54.8225182,58.3802148 52.8378353,58.1415361 51.6334072,56.8412208 L51.5638215,56.7620052 L51.4558148,56.6323103 L51.3855203,56.542843 L40.71,42.1305403 L36.206,39.3585403 L36.0584828,39.4604824 C33.6858733,41.0531449 31.3487356,42.1851019 29.2459519,42.7436061 L29.01,42.8025403 L20.6734436,54.9600118 C20.5811444,55.0946129 20.4758621,55.2139727 20.3605899,55.3178143 L20.282,55.3825403 L20.1976087,55.464764 L20.151,55.5045403 L20.0674811,55.5842571 C18.4914884,57.0007606 16.1010619,57.0364848 14.5306573,55.6304754 L14.365612,55.474312 C14.1951288,55.3039054 14.0422363,55.1210323 13.9073759,54.9280919 L13.886,54.8955403 L13.7433223,54.9034984 C12.5625894,54.9378183 11.3831272,54.534086 10.4633504,53.7017201 L10.2939985,53.5406307 C9.35204557,52.5991012 8.89364398,51.3460096 8.93014776,50.0914817 L8.937,49.9485403 L8.90210231,49.9263982 C8.77426724,49.8368524 8.6509327,49.7394338 8.53275785,49.6343044 L8.35944771,49.4708475 C6.7413528,47.85348 6.78208689,45.2271633 8.42574543,43.5844999 L8.52419262,43.4887117 L8.526,43.4865403 L8.63541289,43.3748113 C8.67349928,43.3387125 8.71330126,43.3038364 8.75480855,43.2702941 L8.88443608,43.173779 L21.031,34.8515403 L21.0790973,34.6579051 C21.6397666,32.5096813 22.8033988,30.1138703 24.4486757,27.6840543 L24.521,27.5775403 L21.877,23.2845403 L7.45813946,12.6136398 L7.36865933,12.5433983 L7.23890615,12.4354399 L7.15967006,12.3658986 C5.85837164,11.1616433 5.6194249,9.17651775 6.616511,7.66878702 C7.32670646,6.6077356 8.51498877,5.98850063 9.76025905,6.00016079 L9.87242703,6.00436105 L10.0577776,6.01651778 L10.2317242,6.03559836 L34.8653484,9.83479482 L35.106747,9.86912032 L35.2067371,9.88593437 C35.7763175,9.99662805 36.3254102,10.2189462 36.8289579,10.5400648 C38.2471276,11.4530678 39.0521435,12.9999688 39.0360357,14.679055 L39.032,14.7915403 L39.1188223,14.7514181 C39.2811587,14.6770133 39.4427175,14.605301 39.6034274,14.536321 L39.636,14.5215403 L39.7143077,14.3282545 C40.0573544,13.528438 40.536921,12.7847415 41.139558,12.129273 L41.3712895,11.8876707 C42.9735568,10.2861237 45.4100752,9.7435342 48.6110509,10.0724344 L48.945,10.1095403 L54.9277342,6.31127307 Z M10.902,10.1855403 L24.3765149,20.1600595 L24.5493284,20.30325 C24.6888688,20.4274268 24.8152461,20.55918 24.9818823,20.7599144 L25.1011088,20.9134503 L25.2245121,21.0914932 L28.6215053,26.6085376 C29.0498266,27.3041726 29.0120195,28.1903813 28.5260085,28.8470093 C26.4644009,31.632357 25.1463278,34.3383325 24.7910329,36.3922169 C24.6990238,36.9241023 24.395927,37.396213 23.9506128,37.7012754 L11.334,46.3435403 L11.3001371,46.3751684 L11.253,46.4125403 L11.234364,46.4324706 C11.1696864,46.4971191 11.1558242,46.5697924 11.1708734,46.6142747 L11.1872389,46.6417846 C11.2036406,46.658179 11.2243792,46.6656622 11.2752525,46.6622004 C12.9345687,46.5492867 13.9987282,48.3931532 13.0708377,49.7734064 C12.858192,50.0897206 12.889132,50.4790147 13.1217897,50.7115678 C13.3548774,50.9445508 13.7456752,50.9755823 14.0628381,50.7625578 C15.4446667,49.8344434 17.2893533,50.9020038 17.1730825,52.5625241 C17.1700183,52.6062856 17.1785814,52.6304339 17.1934032,52.6452491 C17.229082,52.6809118 17.3240235,52.6794406 17.4053554,52.5981452 L17.494,52.5145403 L17.515,52.4925403 L26.1613292,39.8839898 C26.4318073,39.4895482 26.8334151,39.2067679 27.2915526,39.0836259 L27.4658582,39.0450244 C29.505757,38.6878705 32.1845894,37.3865789 34.9450012,35.3539216 C35.6011954,34.8707264 36.4849354,34.8339756 37.1789824,35.2610204 L42.9016161,38.7821379 L43.0795025,38.9053343 L43.2924833,39.0724151 C43.5139247,39.2581707 43.7113252,39.4623272 43.8900295,39.702697 L53.814,53.1015403 L50.2036899,29.6887151 L50.18,29.5255403 L50.166692,29.4754927 C50.1582619,29.4508463 50.1479731,29.4257866 50.1360401,29.4010073 L50.0955231,29.3282047 C49.9023792,29.0284635 49.5539307,28.8901845 49.0975111,28.9879092 L48.8102901,29.0361975 C47.2475557,29.2475232 45.6734572,28.7027511 44.6008424,27.544469 C43.997993,26.8934714 43.8961051,25.923116 44.3505872,25.161098 C45.0319307,24.0187076 45.5677495,22.9196959 45.9404506,21.9083029 C46.1714131,21.2815433 46.7000235,20.8114581 47.3494699,20.6552832 C48.0151702,20.4951997 48.6308713,20.1525041 49.1353555,19.6482467 C49.8025923,18.9813098 50.0444863,17.3547695 49.5792666,14.677793 C49.5591106,14.561811 49.5493629,14.4451047 49.5497343,14.3289665 L49.556,14.1825403 L49.4557152,14.1899328 C49.3959034,14.1915667 49.3359012,14.1905189 49.2758862,14.1867522 L49.0959808,14.1672587 C46.483656,13.7639754 44.883269,14.0328529 44.1990807,14.7167336 C43.6947762,15.2208115 43.3524741,15.8354755 43.1937056,16.4980988 C43.0379531,17.1481341 42.5677564,17.6773876 41.9405871,17.9086091 C40.9260529,18.2826423 39.8262374,18.8185702 38.68254,19.5003379 C37.8711523,19.9840129 36.8319917,19.8340498 36.1904622,19.1407019 C35.2067719,18.0775555 34.7610051,16.6241318 34.9680353,15.1066853 L35.0336015,14.7420623 C35.082648,14.3976587 34.9440347,14.0838222 34.6710171,13.9080339 C34.5929374,13.858245 34.5133322,13.8260143 34.4436443,13.8124709 L34.463,13.8175403 L34.2789512,13.7915086 L10.902,10.1855403 Z" id="Combined-Shape" fill="#000000" fill-rule="nonzero"></path>
    </g>
</svg>