<?xml version="1.0" encoding="UTF-8"?>
<svg width="64px" height="64px" viewBox="0 0 64 64" version="1.1" xmlns="http://www.w3.org/2000/svg" xmlns:xlink="http://www.w3.org/1999/xlink">
    <title>pest_ornamental_diseases</title>
    <g id="pest_ornamental_diseases" stroke="none" stroke-width="1" fill="none" fill-rule="evenodd">
        <path d="M10,4 C10,4 13.03308,5.73776693 16.2621805,7.87197257 C16.0964177,8.1929695 16,8.5814717 16,9 C16,10.1045695 16.6715729,11 17.5,11 C18.1460029,11 18.696626,10.4555071 18.9078015,9.6919449 C20.1631809,10.5967394 21.3251336,11.5067188 22.2081174,12.3339586 C22.8347483,11.066254 23.2355226,9.3604477 23.2355226,9.3604477 C23.2355226,9.3604477 24.9674619,10.7085599 27.1230497,12.7533031 C27.0433719,13.1464741 27,13.565133 27,14 C27,16.209139 28.1192881,18 29.5,18 C30.1308365,18 30.7071007,17.6261569 31.1469725,17.0093827 C32.0790261,18.1297576 32.9468134,19.3066475 33.6508018,20.489371 C33.9327183,19.5215914 34.591422,16.4640907 34.591422,16.4640907 C34.591422,16.4640907 41.1738763,24.0906382 43.1809818,28.8517777 C43.6140983,26.9891001 45.0077793,24.932433 45.0077793,24.932433 C45.0077793,24.932433 47.2005831,38.6130215 48.8845358,42.5117752 C49.3133807,43.504654 49.8555629,44.8004106 50.4255435,46.1803871 C50.0018415,46.0651724 49.5161426,46 49,46 C47.3431458,46 46,46.6715729 46,47.5 C46,48.3284271 47.3431458,49 49,49 C49.9529175,49 50.8020659,48.7778557 51.3515999,48.4314897 C52.7263327,51.7989017 54,54.9793881 54,54.9793881 C54,54.9793881 46.3317083,55.9759647 35.0004799,55.9995738 C35,54.8954305 33.8807119,54 32.5,54 C31.4046352,54 30.4738048,54.5635641 30.1358458,55.3480225 C20.7815779,52.6565561 13.9409019,42.5117752 13.9409019,42.5117752 L20.931677,44.6619149 L10.7417154,31.4256596 L15.6965465,32.6188571 L11.2457153,18.8391063 L15.7924951,20.9529407 L10,4 Z M29,43 C27.8954305,43 27,44.1192881 27,45.5 C27,46.8807119 27.8954305,48 29,48 C30.1045695,48 31,46.8807119 31,45.5 C31,44.1192881 30.1045695,43 29,43 Z M39.0950055,36.800914 C37.9923199,37.6318471 37.5025793,38.8417935 38.0011392,39.5034048 C38.4996991,40.1650161 39.797765,40.0277536 40.9004505,39.1968205 C42.0031361,38.3658873 42.4928767,37.155941 41.9943168,36.4943297 C41.4957569,35.8327183 40.197691,35.9699808 39.0950055,36.800914 Z M19.8184932,32.2560303 C19.1916631,33.4862536 19.2818928,34.7884343 20.0200267,35.1645323 C20.7581607,35.5406304 21.8646827,34.8482251 22.4915128,33.6180018 C23.1183428,32.3877785 23.0281132,31.0855978 22.2899792,30.7094997 C21.5518453,30.3334017 20.4453233,31.025807 19.8184932,32.2560303 Z M30.8169873,25.8528857 C29.8604021,26.4051704 29.8684382,28.2099504 30.8349365,29.8839746 C31.8014348,31.5579988 33.3604021,32.4673483 34.3169873,31.9150635 C35.2735725,31.3627788 35.2655364,29.5579988 34.2990381,27.8839746 C33.3325398,26.2099504 31.7735725,25.3006009 30.8169873,25.8528857 Z M20,18 C18.8954305,18 18,18.8954305 18,20 C18,21.1045695 18.8954305,22 20,22 C21.1045695,22 22,21.1045695 22,20 C22,18.8954305 21.1045695,18 20,18 Z" id="Path-707" fill="#000000" fill-rule="nonzero"></path>
    </g>
</svg>