<?xml version="1.0" encoding="UTF-8"?>
<svg width="64px" height="64px" viewBox="0 0 64 64" version="1.1" xmlns="http://www.w3.org/2000/svg" xmlns:xlink="http://www.w3.org/1999/xlink">
    <title>pest_stinging_insects</title>
    <g id="pest_stinging_insects" stroke="none" stroke-width="1" fill="none" fill-rule="evenodd">
        <path d="M33.2234234,51.4045226 L32,58 L30.7765766,51.4045226 L33.2234234,51.4045226 Z M27.6108108,23.3015075 L12.9675676,23.3015075 C12.8792793,23.3015075 12.790991,23.2638191 12.7153153,23.2135678 L12.7153153,23.2135678 L10.4828829,21.580402 C10.7225225,21.7437186 10.8864865,22.0326633 10.8864865,22.3467337 C10.8864865,22.861809 10.4576577,23.2889447 9.94054054,23.2889447 L9.94054054,23.2889447 L5.8036036,23.2889447 C4.83243243,23.2889447 4.05045045,22.5100503 4.05045045,21.5427136 L4.05045045,21.5427136 L4.05045045,14.3567839 C4.05045045,12.6984925 5.41261261,11.3417085 7.07747748,11.3417085 C7.53153153,11.3417085 7.96036036,11.4422111 8.33873874,11.6180905 L8.33873874,11.6180905 L27.1084505,21.6195025 L27.1441441,21.5552764 L27.6612613,21.8316583 C27.7117117,21.8567839 27.7495495,21.8693467 27.8,21.8693467 C27.9009009,21.8693467 28.0018018,21.8190955 28.0522523,21.718593 C28.1279279,21.580402 28.0774775,21.4170854 27.9387387,21.3417085 L27.9387387,21.3417085 L27.4468468,21.0778894 C27.4507122,21.0721369 27.4545851,21.0663918 27.4584656,21.060654 C27.4541207,21.0583253 27.4496235,21.0545885 27.4451526,21.0508065 L27.3544524,20.9638074 L25.256,18.685 L24.9985997,18.5233485 C24.7107141,18.3483564 24.3891998,18.1726548 24.0444752,18.0090472 C23.131299,17.5756502 22.2322923,17.310239 21.4350448,17.2879386 C21.0574261,17.277376 20.7129113,17.3222269 20.4034913,17.424344 C19.8790302,17.5974307 19.313556,17.3125855 19.1404693,16.7881244 C18.9673826,16.2636633 19.2522278,15.6981891 19.7766889,15.5251024 C20.3172771,15.3466933 20.8914068,15.2719499 21.4909663,15.2887206 C22.6078928,15.3199629 23.7593382,15.6599008 24.9020049,16.2022149 C25.342959,16.4114934 25.7242835,16.6212688 26.0295709,16.8066759 C25.9853541,16.6501685 25.9630631,16.4859816 25.9630631,16.3165829 C25.9630631,15.2698509 26.8141639,14.4221106 27.8630631,14.4221106 C27.9274782,14.4221106 27.9911474,14.4253078 28.0539193,14.4315519 C28.3982261,13.9123914 28.846842,13.440688 29.3259706,13.0417493 L29.3225225,12.9874372 C29.3225225,11.6470937 27.3834214,9.25586863 25.5893167,9.10772599 L25.4162162,9.10050251 C24.8639315,9.10050251 24.4162162,8.65278726 24.4162162,8.10050251 C24.4162162,7.54821776 24.8639315,7.10050251 25.4162162,7.10050251 C28.0284554,7.10050251 30.5144693,9.66842762 31.1606237,11.921847 C31.4916795,11.7892327 31.7863046,11.718593 32.0126126,11.718593 C32.2337781,11.718593 32.5201911,11.7860588 32.8420588,11.9109612 C33.4921397,9.6616056 35.9750168,7.10050251 38.5837838,7.10050251 C39.1360685,7.10050251 39.5837838,7.54821776 39.5837838,8.10050251 C39.5837838,8.61333835 39.1977436,9.03600967 38.7004049,9.09377478 L38.5837838,9.10050251 C36.8012023,9.10050251 34.8063955,11.4498419 34.6834609,12.8545565 L34.6774775,12.9874372 L34.6761413,13.0225802 C35.1630152,13.4247789 35.6197214,13.9022216 35.9696551,14.429121 L35.9885103,14.4278074 L35.9885103,14.4278074 L36.1369369,14.4221106 C37.1858361,14.4221106 38.0369369,15.2698509 38.0369369,16.3165829 C38.0369369,16.4841756 38.0151187,16.6466671 37.9741636,16.8013946 C38.2755593,16.617824 38.6548637,16.4096706 39.0929595,16.2020079 C40.2368134,15.6598072 41.3894187,15.3199512 42.5073545,15.2887196 C43.107391,15.2719565 43.6819581,15.3466636 44.2229587,15.5249862 C44.747484,15.6978782 45.032539,16.2632467 44.859647,16.787772 C44.6991044,17.2748312 44.2001509,17.5554084 43.7097267,17.4545788 L43.5968612,17.4244603 C43.2867923,17.3222566 42.9415681,17.2773694 42.5632064,17.2879396 C41.7645785,17.3102507 40.8641718,17.5757438 39.9496162,18.0092542 C39.6044043,18.1728888 39.2824398,18.348617 38.9941507,18.5236359 L38.733,18.687 L36.6466772,20.9625786 C36.6167797,20.9951566 36.585221,21.0253002 36.5522499,21.0529989 L36.5783784,21.0904523 L36.0864865,21.3542714 C35.9477477,21.4170854 35.8972973,21.5929648 35.972973,21.7311558 C36.0234234,21.8316583 36.1243243,21.8819095 36.2252252,21.8819095 C36.2756757,21.8819095 36.3261261,21.8693467 36.363964,21.8442211 L36.363964,21.8442211 L36.8810811,21.5678392 C36.8829229,21.5711095 36.8847622,21.5743819 36.886599,21.5776562 L55.6612613,11.6180905 L55.8589173,11.5365485 C56.192042,11.411502 56.5441441,11.3417085 56.9225225,11.3417085 C58.5873874,11.3417085 59.9495495,12.6984925 59.9117117,14.3316583 L59.9117117,14.3316583 L59.9117117,21.5175879 C59.9117117,22.4849246 59.1297297,23.2638191 58.1585586,23.2638191 L58.1585586,23.2638191 L54.0216216,23.2638191 C53.5045045,23.2638191 53.0756757,22.8366834 53.0756757,22.321608 C53.0756757,22.0075377 53.2396396,21.7311558 53.4792793,21.5552764 L53.4792793,21.5552764 L51.2468468,23.1884422 L51.1950169,23.2286825 C51.1388514,23.2622487 51.0702703,23.2763819 50.9945946,23.2763819 L50.9945946,23.2763819 L36.3513514,23.2763819 L36.3500616,23.2523664 C36.1992104,23.2650928 36.0864865,23.3858051 36.0864865,23.540201 C36.0864865,23.7035176 36.2252252,23.8291457 36.3765766,23.8291457 L36.3765766,23.8291457 L37.7135135,23.8291457 C37.7387387,23.9422111 37.763964,24.0552764 37.7765766,24.1683417 L37.7765766,24.1683417 L36.363964,24.1683417 C36.2,24.1683417 36.0738739,24.2939698 36.0738739,24.4572864 C36.0738739,24.620603 36.2126126,24.7462312 36.363964,24.7462312 L36.363964,24.7462312 L37.8522523,24.7462312 C37.8526527,24.7506182 37.8530499,24.755002 37.8534439,24.7593828 L49.7207207,24.758794 C51.6882883,24.758794 53.2900901,26.3542714 53.2900901,28.3140704 C53.2900901,30.2738693 51.7009009,31.8567839 49.7333333,31.8567839 C49.1657658,31.8567839 48.636036,31.718593 48.1693694,31.4924623 L48.1693694,31.4924623 L42.5414505,28.8835025 L42.6476986,29.0652697 L42.967955,29.5994022 C43.0814115,29.7863967 43.201399,29.9819294 43.3273971,30.1847643 C44.046994,31.3431898 44.8135228,32.5012234 45.5926305,33.5787841 C46.298325,34.5548093 46.9798073,35.4158717 47.6212449,36.1291053 C48.520323,37.1288171 49.3087943,37.7986843 49.9058684,38.0687947 C50.4090577,38.2964325 50.6324363,38.8888849 50.4047985,39.3920742 C50.1771607,39.8952635 49.5847083,40.1186421 49.081519,39.8910043 C48.1756117,39.4811809 47.2026734,38.6545947 46.1341667,37.4664902 C45.4402554,36.6949095 44.7162161,35.7800758 43.9718929,34.7506244 C43.1625774,33.6312841 42.3710574,32.4354951 41.6284942,31.2400979 L41.2577309,30.6362893 L41.012,30.227 L37.1473119,30.7740563 L37.0354505,30.7835025 L41.5474316,36.0017165 L41.7879236,36.7340435 L41.14,44.985 L41.154956,45.0779476 L41.2011479,45.3231529 C41.2295229,45.4604981 41.2660615,45.6192125 41.3118664,45.7959448 L41.3608009,45.9785591 C41.5944323,46.8231946 41.9369612,47.6672896 42.4051498,48.4481554 C43.0536988,49.5298342 43.8914901,50.4010934 44.943621,51.000438 C45.423506,51.2738037 45.5909231,51.8844341 45.3175574,52.3643191 C45.0441917,52.8442041 44.4335613,53.0116211 43.9536763,52.7382555 C42.5824736,51.9571522 41.5057469,50.8374126 40.6898434,49.4766125 C40.1212771,48.5283323 39.7120087,47.5197708 39.4331838,46.51175 C39.3067882,46.0547986 39.2251683,45.6691927 39.1779001,45.380229 L39.1416964,45.1244161 L39.1382025,44.9317856 L39.761,36.994 L35.7224532,32.3235922 C34.6647961,33.9164907 33.3415761,35.0351759 32.0252252,35.0351759 C30.6997618,35.0351759 29.3673338,33.9009487 28.3060703,32.2904432 L24.238,36.994 L24.8617975,44.9317856 L24.8583036,45.1244161 L24.8220999,45.380229 C24.7748317,45.6691927 24.6932118,46.0547986 24.5668162,46.51175 C24.2879913,47.5197708 23.8787229,48.5283323 23.3101566,49.4766125 C22.4942531,50.8374126 21.4175264,51.9571522 20.0463237,52.7382555 C19.5664387,53.0116211 18.9558083,52.8442041 18.6824426,52.3643191 C18.4090769,51.8844341 18.576494,51.2738037 19.056379,51.000438 C20.1085099,50.4010934 20.9463012,49.5298342 21.5948502,48.4481554 C22.0630388,47.6672896 22.4055677,46.8231946 22.6391991,45.9785591 C22.7434089,45.6018151 22.8090836,45.2926748 22.845044,45.0779476 L22.859,44.985 L22.2120764,36.7340435 L22.4525684,36.0017165 L26.9634505,30.7835025 L26.8526881,30.7740563 L22.987,30.227 L22.6831552,30.7335273 L22.3715058,31.2400979 C21.6289426,32.4354951 20.8374226,33.6312841 20.0281071,34.7506244 C19.2837839,35.7800758 18.5597446,36.6949095 17.8658333,37.4664902 C16.7973266,38.6545947 15.8243883,39.4811809 14.918481,39.8910043 C14.4152917,40.1186421 13.8228393,39.8952635 13.5952015,39.3920742 C13.3675637,38.8888849 13.5909423,38.2964325 14.0941316,38.0687947 C14.6912057,37.7986843 15.479677,37.1288171 16.3787551,36.1291053 C17.0201927,35.4158717 17.701675,34.5548093 18.4073695,33.5787841 C19.0306556,32.7167355 19.6458913,31.8031843 20.2354878,30.8791319 L20.6726029,30.1847643 C20.8616,29.880512 21.0370733,29.5926894 21.1972665,29.3254687 L21.4614505,28.8755025 L15.8432432,31.4798995 C15.4324324,31.6844939 14.984556,31.8060199 14.5154992,31.8365662 L14.2792793,31.8442211 C12.3117117,31.8442211 10.7225225,30.2613065 10.7225225,28.3015075 C10.7225225,26.3417085 12.3117117,24.758794 14.2918919,24.7462312 L14.2918919,24.7462312 L26.1714505,24.7455025 L26.172973,24.7336683 L27.6612613,24.7336683 C27.8252252,24.7336683 27.9513514,24.6080402 27.9513514,24.4447236 C27.9513514,24.281407 27.8126126,24.1557789 27.6612613,24.1557789 L27.6612613,24.1557789 L26.2486486,24.1557789 C26.2612613,24.0427136 26.2864865,23.9296482 26.3117117,23.8165829 L26.3117117,23.8165829 L27.6486486,23.8165829 C27.8126126,23.8165829 27.9387387,23.6909548 27.9387387,23.5276382 C27.9387387,23.3643216 27.8,23.2386935 27.6486486,23.2386935 L27.6486486,23.2386935 L27.6114505,23.2385025 L27.6108108,23.3015075 Z M35.6198198,48.4522613 C35.1153153,49.218593 34.5981982,49.8969849 34.1063063,50.4623116 C32.7063063,50.5879397 31.2810811,50.5879397 29.8810811,50.4623116 C29.4018018,49.8969849 28.8720721,49.218593 28.3675676,48.4522613 C29.5657658,48.6658291 30.7765766,48.7788945 31.9873874,48.7788945 C33.2108108,48.7788945 34.4216216,48.6658291 35.6198198,48.4522613 Z M37.372973,45.1482412 C37.0576577,45.9396985 36.6792793,46.7060302 36.2630631,47.4221106 C34.8756757,47.7236181 33.4378378,47.8869347 32,47.8869347 C30.5621622,47.8869347 29.1243243,47.7236181 27.7369369,47.4221106 C27.3333333,46.718593 26.9423423,45.9522613 26.627027,45.1482412 C28.354955,45.7261307 30.1585586,46.0276382 32,46.0150754 C33.8414414,46.0150754 35.645045,45.7261307 37.372973,45.1482412 Z M38.1801802,42.3090452 C38.0918919,42.9120603 37.9405405,43.5025126 37.763964,44.080402 C35.9225225,44.7839196 33.9801802,45.1356784 32,45.1356784 C30.0072072,45.1356784 28.0774775,44.7839196 26.236036,44.080402 C26.0594595,43.5025126 25.9081081,42.9120603 25.8198198,42.3090452 C27.8,43.0125628 29.8684685,43.3768844 32,43.3768844 C34.1315315,43.3768844 36.2,43.0125628 38.1801802,42.3090452 Z M38.2558559,39.6331658 C38.2810811,40.0100503 38.2936937,40.3994975 38.2936937,40.7889447 C38.2936937,40.9648241 38.2936937,41.1532663 38.2810811,41.3291457 C36.2882883,42.1080402 34.1693694,42.4974874 32,42.4974874 C29.8306306,42.4974874 27.7243243,42.1080402 25.7189189,41.3291457 C25.7063063,41.1532663 25.7063063,40.9648241 25.7063063,40.7889447 C25.7063063,40.3994975 25.7189189,40.0100503 25.7441441,39.6331658 C27.7369369,40.3994975 29.8432432,40.7763819 32,40.7763819 C34.1567568,40.7763819 36.2630631,40.3869347 38.2558559,39.6331658 Z M37.8144144,36.8065327 C37.9657658,37.4095477 38.0918919,38.0502513 38.1675676,38.7160804 C36.2126126,39.4949749 34.1315315,39.8844221 32,39.8844221 C29.8684685,39.8844221 27.8,39.4949749 25.8324324,38.7160804 C25.9081081,38.0628141 26.0342342,37.4221106 26.1855856,36.8065327 C28.0522523,37.459799 29.9945946,37.7864322 32,37.7864322 C33.9927928,37.7864322 35.9477477,37.459799 37.8144144,36.8065327 Z M36.1873874,33.0125628 C36.7423423,33.8417085 37.2216216,34.8341709 37.5747748,35.9522613 C35.7963964,36.580402 33.9171171,36.8944724 32,36.8944724 C30.0828829,36.8944724 28.2162162,36.580402 26.4252252,35.9522613 C26.7783784,34.8341709 27.245045,33.8417085 27.8126126,33.0125628 C28.9981982,34.7211055 30.4990991,35.9145729 32,35.9145729 C33.5009009,35.9145729 35.0018018,34.7211055 36.1873874,33.0125628 Z M24.90057,25.6302431 L24.836036,25.638191 L21.0900901,26.4547739 L20.0432432,25.8768844 C19.9045045,25.8015075 19.7279279,25.8517588 19.6522523,25.9899497 C19.5765766,26.1281407 19.627027,26.3040201 19.7657658,26.379397 L19.7657658,26.379397 L20.245045,26.6432161 L19.1225225,26.8944724 L17.8234234,27.1834171 L16.436036,26.4673367 C16.2972973,26.4045226 16.1207207,26.4547739 16.0576577,26.5929648 C15.9945946,26.7311558 16.045045,26.8944724 16.1837838,26.9698492 L16.1837838,26.9698492 L16.9657658,27.3718593 L15.2504505,27.7487437 L13.0558559,26.9447236 C12.9045045,26.8819095 12.7405405,26.9572864 12.6900901,27.1080402 C12.6396396,27.258794 12.7153153,27.4221106 12.8666667,27.4723618 L12.8666667,27.4723618 L14.7585586,28.1633166 L13.8126126,29.3065327 L13.8126126,30.4748744 C13.8126126,30.638191 13.9387387,30.7638191 14.1027027,30.7638191 C14.2666667,30.7638191 14.3927928,30.6256281 14.3927928,30.4748744 L14.3927928,30.4748744 L14.3927928,29.5075377 L15.4018018,28.2889447 L18.5801802,27.5854271 L18.163964,28.2261307 L17.4702703,28.8291457 C17.3567568,28.9296482 17.3441441,29.1180905 17.445045,29.2311558 C17.4954955,29.2939698 17.5837838,29.3316583 17.6594595,29.3316583 C17.7225225,29.3316583 17.7981982,29.3065327 17.8486486,29.2562814 L17.8486486,29.2562814 L18.5927928,28.6030151 L19.3621622,27.4221106 L24.9621622,26.1909548 C25.1135135,26.1532663 25.2144144,26.0025126 25.1765766,25.8517588 C25.1387387,25.701005 24.9873874,25.6005025 24.836036,25.638191 L24.90057,25.6302431 Z M39.1513514,25.638191 C39,25.6005025 38.8486486,25.701005 38.8108108,25.8517588 C38.772973,26.0025126 38.8738739,26.1532663 39.0252252,26.1909548 L39.0252252,26.1909548 L44.6252252,27.4221106 L45.3945946,28.6030151 L46.1387387,29.2562814 C46.1891892,29.3065327 46.2648649,29.3316583 46.3279279,29.3316583 C46.4036036,29.3316583 46.4918919,29.2939698 46.5423423,29.2311558 C46.6432432,29.1055276 46.6306306,28.9296482 46.5171171,28.8291457 L46.5171171,28.8291457 L45.8234234,28.2261307 L45.4072072,27.5854271 L48.5855856,28.2889447 L49.5945946,29.5075377 L49.5945946,30.4748744 C49.5945946,30.638191 49.7207207,30.7638191 49.8846847,30.7638191 C50.0486486,30.7638191 50.1747748,30.6256281 50.1747748,30.4748744 L50.1747748,30.4748744 L50.1747748,29.3065327 L49.2288288,28.1633166 L51.1333333,27.4723618 C51.2846847,27.4221106 51.3603604,27.258794 51.2972973,27.1080402 C51.2468468,26.9698492 51.0828829,26.8944724 50.9315315,26.9447236 L50.9315315,26.9447236 L48.7369369,27.7487437 L47.0216216,27.3718593 L47.8036036,26.9698492 C47.9423423,26.9070352 48.0054054,26.7311558 47.9297297,26.5929648 C47.8666667,26.4547739 47.6900901,26.3919598 47.5513514,26.4673367 L47.5513514,26.4673367 L46.163964,27.1834171 L44.8648649,26.8944724 L43.7423423,26.6432161 L44.2216216,26.379397 C44.3603604,26.3040201 44.4108108,26.1281407 44.3351351,25.9899497 C44.2594595,25.8517588 44.0828829,25.8015075 43.9441441,25.8768844 L43.9441441,25.8768844 L42.8972973,26.4547739 L39.1513514,25.638191 Z M28.0522523,26.1281407 C27.9891892,25.9899497 27.8126126,25.9271357 27.6738739,25.9899497 L27.6738739,25.9899497 L27.6604505,25.9955025 L27.6612613,26.0025126 L22.9234505,28.1975025 L26.6565876,28.7266297 C26.5319792,28.31526 26.4274501,27.9017324 26.3456046,27.4922078 L26.2990991,27.2462312 L27.9135135,26.5050251 C28.0522523,26.4422111 28.1153153,26.2663317 28.0522523,26.1281407 Z M36.3513514,26.0025126 C36.2126126,25.9396985 36.036036,26.0025126 35.9981982,26.1281407 C35.9351351,26.2663317 35.9981982,26.4422111 36.1369369,26.5050251 L36.1369369,26.5050251 L37.7513514,27.2462312 C37.6646091,27.7330605 37.5447736,28.2273613 37.3962799,28.7186416 L41.0644505,28.1995025 L36.3513514,26.0150754 L36.3513514,26.0025126 Z M54.563964,14.0427136 C54.4630631,13.9170854 54.2738739,13.9045226 54.1603604,14.0050251 C54.0342342,14.1055276 54.0216216,14.2939698 54.1225225,14.4070352 L54.1225225,14.4070352 L55.3837838,15.8894472 L53.9837838,17.9120603 L47.4504505,19.5577889 L49.3423423,17.6482412 L50.4648649,17.9748744 C50.6162162,18.0251256 50.7675676,17.9371859 50.818018,17.7864322 C50.8684685,17.6356784 50.7801802,17.4849246 50.6288288,17.4346734 L50.6288288,17.4346734 L49.1783784,17.0075377 L46.4162162,19.7964824 C46.4036036,19.7964824 46.4036036,19.8090452 46.390991,19.821608 L46.390991,19.821608 L38.1171171,21.9070352 C37.9657658,21.9447236 37.8774775,22.0954774 37.9153153,22.2462312 C37.9531532,22.3718593 38.0666667,22.459799 38.1927928,22.459799 C38.218018,22.459799 38.2432432,22.4472362 38.2684685,22.4472362 L38.2684685,22.4472362 L43.1621622,21.2160804 L45.6594595,22.0075377 C45.6846847,22.0201005 45.7225225,22.0201005 45.7477477,22.0201005 C45.8612613,22.0201005 45.9747748,21.9447236 46.0126126,21.8190955 C46.0504505,21.6683417 45.9747748,21.5175879 45.8234234,21.4673367 L45.8234234,21.4673367 L44.1963964,20.9522613 L50.2,19.4447236 L53.0504505,20.2864322 L54.2486486,19.9221106 C54.4,19.8718593 54.4882883,19.7211055 54.4378378,19.5703518 C54.3873874,19.419598 54.236036,19.3316583 54.0846847,19.3819095 L54.0846847,19.3819095 L53.0504505,19.6959799 L51.2846847,19.1809045 L55.9009009,18.0125628 L57.5783784,19.2562814 L57.0108108,21.1155779 C56.9603604,21.2663317 57.0486486,21.4170854 57.2,21.4673367 C57.2252252,21.4798995 57.2504505,21.4798995 57.2756757,21.4798995 C57.4018018,21.4798995 57.5153153,21.4045226 57.5531532,21.2788945 L57.5531532,21.2788945 L58.2216216,19.0552764 L56.1153153,17.4849246 C56.1153153,17.4723618 56.1027027,17.4723618 56.1027027,17.4723618 C56.0900901,17.4723618 56.0900901,17.459799 56.0774775,17.459799 C56.0648649,17.459799 56.0648649,17.4472362 56.0522523,17.4472362 C56.0396396,17.4346734 56.0396396,17.4346734 56.027027,17.4346734 C56.0144144,17.4221106 56.0144144,17.4221106 56.0018018,17.4221106 L56.0018018,17.4221106 L55.8882883,17.4221106 L54.8288288,17.6859296 L57.1243243,14.3819095 C57.2126126,14.2562814 57.1747748,14.080402 57.0486486,13.9924623 C56.9225225,13.9045226 56.7459459,13.9422111 56.6576577,14.0678392 L56.6576577,14.0678392 L55.7243243,15.4120603 L54.563964,14.0427136 Z M9.83963964,13.9798995 C9.71351351,13.879397 9.53693694,13.9045226 9.43603604,14.0175879 L9.43603604,14.0175879 L8.27567568,15.3869347 L7.34234234,14.0427136 C7.25405405,13.9170854 7.07747748,13.879397 6.95135135,13.9673367 C6.82522523,14.0552764 6.78738739,14.2311558 6.87567568,14.3567839 L6.87567568,14.3567839 L9.17117117,17.6733668 L8.11171171,17.4095477 L7.9981982,17.4095477 C7.98558559,17.4221106 7.98558559,17.4221106 7.97297297,17.4221106 C7.96036036,17.4221106 7.96036036,17.4346734 7.94774775,17.4346734 C7.93513514,17.4346734 7.93513514,17.4472362 7.92252252,17.4472362 C7.90990991,17.4472362 7.90990991,17.459799 7.8972973,17.459799 C7.8972973,17.4723618 7.88468468,17.4723618 7.88468468,17.4723618 L7.88468468,17.4723618 L5.77837838,19.0427136 L6.44684685,21.2537688 C6.48468468,21.379397 6.5981982,21.4547739 6.72432432,21.4547739 C6.74954955,21.4547739 6.77477477,21.4547739 6.8,21.4422111 C6.95135135,21.3919598 7.03963964,21.241206 6.98918919,21.0904523 L6.98918919,21.0904523 L6.42162162,19.2311558 L8.0990991,17.9874372 L12.7153153,19.1557789 L10.9495495,19.6708543 L9.91531532,19.3567839 C9.76396396,19.3190955 9.61261261,19.3944724 9.56216216,19.5452261 C9.51171171,19.6959799 9.6,19.8467337 9.75135135,19.8969849 L9.75135135,19.8969849 L10.9495495,20.2613065 L13.8,19.419598 L19.8036036,20.9271357 L18.1765766,21.4422111 C18.0252252,21.4924623 17.9369369,21.6432161 17.9873874,21.7939698 C18.0252252,21.919598 18.1261261,21.9949749 18.2522523,21.9949749 C18.2774775,21.9949749 18.3153153,21.9949749 18.3405405,21.9824121 L18.3405405,21.9824121 L20.8378378,21.1909548 L25.7315315,22.4221106 C25.7567568,22.4346734 25.781982,22.4346734 25.8072072,22.4346734 C25.9333333,22.4346734 26.0468468,22.3467337 26.0846847,22.2211055 C26.1225225,22.0703518 26.0342342,21.919598 25.8828829,21.8819095 L25.8828829,21.8819095 L17.609009,19.7964824 C17.5963964,19.7964824 17.5963964,19.7839196 17.5837838,19.7713568 L17.5837838,19.7713568 L14.8216216,16.9824121 L13.3711712,17.4095477 C13.2198198,17.459799 13.1315315,17.6105528 13.181982,17.7613065 C13.2324324,17.9120603 13.3837838,18 13.5351351,17.9497487 L13.5351351,17.9497487 L14.6576577,17.6231156 L16.5495495,19.5326633 L10.0162162,17.8869347 L8.61621622,15.8643216 L9.87747748,14.3819095 C9.97837838,14.2562814 9.95315315,14.080402 9.83963964,13.9798995 Z M32.0252252,17.6231156 C30.7765766,17.6231156 29.6036036,18.0251256 28.6072072,18.741206 C28.3415198,18.6015358 28.1146988,18.427454 27.9317981,18.2088928 L27.8630631,18.2110553 C27.7412051,18.2110553 27.6220169,18.1996132 27.5065228,18.1777465 L28.8133747,19.5951954 C29.7341417,18.8737964 30.8346693,18.4522613 32.0126126,18.4522613 C33.1847471,18.4522613 34.2751172,18.8696492 35.1926432,19.5877848 L36.4884388,18.1786934 C36.3745178,18.1999434 36.2570237,18.2110553 36.1369369,18.2110553 C36.1278249,18.2110553 36.1187277,18.2109913 36.109646,18.2108638 C35.9300551,18.4285315 35.7081081,18.6019682 35.4432432,18.741206 C34.4342342,18.0376884 33.2738739,17.6231156 32.0252252,17.6231156 Z M36.1369369,15.4221106 C35.6394388,15.4221106 35.2369369,15.8230232 35.2369369,16.3165829 C35.2369369,16.8101426 35.6394388,17.2110553 36.1369369,17.2110553 C36.634435,17.2110553 37.0369369,16.8101426 37.0369369,16.3165829 C37.0369369,15.8230232 36.634435,15.4221106 36.1369369,15.4221106 Z M27.8630631,15.4221106 C27.365565,15.4221106 26.9630631,15.8230232 26.9630631,16.3165829 C26.9630631,16.8101426 27.365565,17.2110553 27.8630631,17.2110553 C28.3605612,17.2110553 28.7630631,16.8101426 28.7630631,16.3165829 C28.7630631,15.8230232 28.3605612,15.4221106 27.8630631,15.4221106 Z" id="Combined-Shape" fill="#000000" fill-rule="nonzero"></path>
    </g>
</svg>