<?xml version="1.0" encoding="UTF-8"?>
<svg width="64px" height="64px" viewBox="0 0 64 64" version="1.1" xmlns="http://www.w3.org/2000/svg" xmlns:xlink="http://www.w3.org/1999/xlink">
    <title>pest_stored_product_pests</title>
    <g id="pest_stored_product_pests" stroke="none" stroke-width="1" fill="none" fill-rule="evenodd">
        <path d="M28.6655629,16.9012563 C28.7284768,16.9012563 28.7788079,16.9012563 28.8417219,16.9135678 L28.8417219,16.9135678 L28.8417219,16.9505025 C28.8165563,17.2829146 28.7662252,17.7138191 29.0933775,18.0585427 C29.4708609,18.4648241 30.2384106,18.6371859 31.7357616,18.661809 L31.7357616,18.661809 L31.7231788,18.661809 L31.7231788,49.8346734 L28.0364238,55.079397 C27.1556291,56.248995 25.7463576,57 24.1483444,57 C21.4807947,57 19.3165563,54.8824121 19.3165563,52.2723618 C19.3165563,51.9153266 19.3543046,51.570603 19.4298013,51.238191 L19.4298013,51.238191 L22.2450989,39.1824194 C20.2419073,42.2543343 18.1955418,44.1774849 15.7076182,44.8307784 C15.1734425,44.9710454 14.6266988,44.6517193 14.4864318,44.1175436 C14.3461648,43.583368 14.6654909,43.0366242 15.1996666,42.8963573 C17.2262649,42.3642012 19.0597312,40.537088 20.9431113,37.5025561 L21.1525935,37.1604216 C21.6962038,36.2606932 21.9881769,35.731028 22.9528128,33.9351045 C23.090458,33.6788418 23.3237946,33.5069063 23.5849271,33.4397434 L25.2689968,26.2288693 L24.295,26.07 L24.2093418,26.235461 L24.0548748,26.5214199 C23.5962456,27.3590209 23.084864,28.1970519 22.5308633,28.9837404 C21.6277317,30.2661994 20.701235,31.287688 19.7432039,31.9622334 L19.5030344,32.1235921 L19.28642,32.2278337 C16.7633014,33.0865232 13.7526033,32.6033946 12.2709761,30.5033757 C11.9525888,30.0521019 12.0603145,29.4281684 12.5115882,29.1097811 C12.9628619,28.7913938 13.5867955,28.8991195 13.9051828,29.3503932 C14.7536681,30.5530137 16.7063587,30.9090218 18.4281341,30.4023112 L18.523,30.372 L18.6224702,30.3050569 C19.2832787,29.8315833 19.9833303,29.0811705 20.6851015,28.1251075 L20.8956469,27.8321904 C21.4023083,27.1127244 21.875658,26.3370185 22.3006319,25.5608826 L22.5751614,25.0458359 L22.8278162,24.5405462 L23.8940607,23.9783638 L25.6304845,24.2615296 L25.7239968,24.2818693 L26.5709968,20.6548693 L26.4764024,20.6287242 L25.967,20.452 L25.7383319,20.7737169 C25.5638025,21.0116813 25.3800326,21.2479044 25.1877753,21.4788499 L24.8931178,21.8208679 C23.9373269,22.8921179 22.9479137,23.6466299 21.8964441,23.9351971 C19.2307359,24.666779 17.2128332,24.3563158 15.5661974,22.5949822 C15.18903,22.191543 15.2103276,21.5587363 15.6137668,21.1815689 C16.0172061,20.8044016 16.6500128,20.8256991 17.0271801,21.2291384 C18.0902368,22.3662431 19.3500785,22.5600753 21.367132,22.0065114 C21.9660026,21.8421562 22.6786938,21.2986685 23.4007703,20.4893654 C23.7422335,20.1066535 24.0616898,19.6926766 24.3479525,19.2785917 L24.5642125,18.9561415 L24.6966713,18.7440651 L25.8845248,18.3077079 L27.0269968,18.7018693 L27.1807947,18.0462312 L27.219285,17.9179611 C27.425404,17.3302457 27.9961589,16.9012563 28.6655629,16.9012563 Z M35.3596026,16.8889447 C36.0768212,16.8889447 36.6807947,17.381407 36.8443709,18.0339196 L36.8443709,18.0339196 L37.0009968,18.7058693 L38.1532236,18.3077079 L39.3410771,18.7440651 L39.4197235,18.8720594 C39.4851497,18.9756176 39.5761022,19.1141316 39.6897959,19.2785917 C39.9760586,19.6926766 40.2955149,20.1066535 40.6369781,20.4893654 C41.3590546,21.2986685 42.0717457,21.8421562 42.6706163,22.0065114 C44.6876699,22.5600753 45.9475116,22.3662431 47.0105682,21.2291384 C47.3877356,20.8256991 48.0205423,20.8044016 48.4239815,21.1815689 C48.8274208,21.5587363 48.8487183,22.191543 48.471551,22.5949822 C46.8249151,24.3563158 44.8070124,24.666779 42.1413042,23.9351971 C41.0898346,23.6466299 40.1004214,22.8921179 39.1446306,21.8208679 C38.8437957,21.4836923 38.5612105,21.1306634 38.2994165,20.7737169 L38.07,20.452 L37.5613459,20.6287242 L37.4569968,20.6578693 L38.3019968,24.2758693 L38.3695155,24.2615296 L40.1059393,23.9783638 L41.1721838,24.5405462 L41.305455,24.8119728 C41.4186911,25.0371889 41.5505569,25.2891065 41.6993681,25.5608826 C42.124342,26.3370185 42.5976917,27.1127244 43.1043531,27.8321904 C43.876267,28.9283186 44.6506404,29.784236 45.3775298,30.3050569 L45.476,30.372 L45.5718659,30.4023112 C47.2219007,30.8879088 49.0840085,30.5811833 49.983102,29.4963102 L50.0948172,29.3503932 C50.4132045,28.8991195 51.0371381,28.7913938 51.4884118,29.1097811 C51.9396855,29.4281684 52.0474112,30.0521019 51.7290239,30.5033757 C50.2951911,32.535652 47.4293461,33.0536711 44.9592072,32.3067346 L44.71358,32.2278337 L44.4969656,32.1235921 C43.4533433,31.4561238 42.4475292,30.373071 41.4691367,28.9837404 C40.915136,28.1970519 40.4037544,27.3590209 39.9451252,26.5214199 L39.7906582,26.235461 L39.704,26.07 L38.7569968,26.2238693 L40.4437509,33.4475729 C40.6932289,33.5196593 40.9146012,33.6882608 41.0471872,33.9351045 L41.9769106,35.652318 C42.3023067,36.2426686 42.5326847,36.6395262 42.8474065,37.1604216 C44.8047214,40.39997 46.6986759,42.3444918 48.8003334,42.8963573 C49.3345091,43.0366242 49.6538352,43.583368 49.5135682,44.1175436 C49.3733012,44.6517193 48.8265575,44.9710454 48.2923818,44.8307784 C45.822473,44.1822153 43.7877509,42.2821184 41.7984227,39.2489689 L44.5953642,51.2258794 L44.6447123,51.4773045 C44.6865894,51.7306533 44.7054636,51.989196 44.6960265,52.2477387 C44.6960265,54.8577889 42.5317881,56.9753769 39.8642384,56.9753769 C38.2788079,56.9753769 36.8569536,56.2243719 35.9761589,55.0547739 L35.9761589,55.0547739 L32.289404,49.8100503 L32.289404,18.6494975 C33.786755,18.6248744 34.5543046,18.4525126 34.9317881,18.0462312 C35.2589404,17.689196 35.2211921,17.270603 35.1834437,16.938191 L35.1834437,16.938191 L35.1834437,16.9012563 C35.2463576,16.8889447 35.2966887,16.8889447 35.3596026,16.8889447 Z M34.7682119,15.7562814 C34.818543,16.0025126 34.7304636,16.3103015 34.7556291,16.630402 C34.7556291,17.5168342 35.3596026,18.2309045 32.0377483,18.2309045 C29.2868377,18.2309045 29.225072,17.7448904 29.2877007,17.0770399 L29.2998875,16.9536766 C29.3102339,16.8493169 29.3198675,16.741206 29.3198675,16.630402 C29.3198675,16.3103015 29.2317881,16.0025126 29.2821192,15.7562814 C29.9364238,16.5565327 30.9178808,17.0613065 32.0251656,17.0613065 C33.1198675,17.0613065 34.1139073,16.5565327 34.7682119,15.7562814 Z M32.0125828,8.07386935 C32.4407313,8.07386935 33.5020022,9.39670742 34.2701245,10.8324194 L34.3388907,10.7999474 L34.3388907,10.7999474 C36.9251602,9.78149041 38.766192,9.5386193 40.7434224,9.87807982 L40.9564933,9.91994356 C42.135641,10.1723671 45.3449844,11.1112654 45.3365021,11.1141899 L45.8433647,11.2463036 L46.3606329,11.3728293 C46.8980891,11.4999483 47.2307332,12.038693 47.1036142,12.5761492 C46.9764952,13.1136055 46.4377505,13.4462495 45.9002942,13.3191305 L45.354057,13.185525 L44.7852287,13.0361129 C44.4612031,12.9386518 41.1799891,11.9822933 40.405004,11.8492401 C38.9941715,11.6070216 37.6771251,11.7311985 35.8269158,12.3791842 C36.4383099,12.5143316 36.894702,13.0489864 36.894702,13.6879397 C36.894702,14.4290836 36.2806501,15.0298995 35.5231788,15.0298995 C34.7657075,15.0298995 34.1516556,14.4290836 34.1516556,13.6879397 C34.1516556,13.3074594 34.3134876,12.9639622 34.5734763,12.7197509 C34.5696063,12.7213439 34.5649652,12.7206929 34.5603307,12.7200096 C34.2996508,12.9610769 34.1390728,13.3070509 34.1390728,13.6879397 C34.1390728,14.180402 34.415894,14.6236181 34.818543,14.8575377 C34.3152318,15.9163317 33.2456954,16.6427136 32.0125828,16.6427136 C30.7668874,16.6427136 29.697351,15.9040201 29.1940397,14.8452261 C29.584106,14.6113065 29.8483444,14.180402 29.8483444,13.7002513 L29.8414587,13.8232514 C29.7721183,14.5008521 29.1876136,15.0298995 28.4768212,15.0298995 C27.7193499,15.0298995 27.105298,14.4290836 27.105298,13.6879397 C27.105298,13.0416622 27.5722132,12.5020879 28.1939885,12.3745455 C26.3511035,11.7359311 25.0375464,11.6142104 23.6327459,11.8553957 C22.7953673,11.9991623 19.0857063,13.0919569 19.154513,13.0735353 C18.8148596,13.164471 18.4791607,13.2497738 18.1397467,13.330897 C17.6025915,13.4592821 17.0630644,13.1279085 16.9346793,12.5907533 C16.8062941,12.0535982 17.1376677,11.5140711 17.6748229,11.385686 L18.1555551,11.2672252 L18.6484825,11.1374319 C18.9251084,11.0522991 22.3827901,10.0407341 23.2943244,9.88423592 C25.2689797,9.54521423 27.1095467,9.78654592 29.6969091,10.7991825 L29.764107,10.8300947 C30.5314917,9.39273689 31.5861162,8.07386935 32.0125828,8.07386935 Z" id="Combined-Shape" fill="#000000" fill-rule="nonzero"></path>
    </g>
</svg>