<?xml version="1.0" encoding="UTF-8"?>
<svg width="64px" height="64px" viewBox="0 0 64 64" version="1.1" xmlns="http://www.w3.org/2000/svg" xmlns:xlink="http://www.w3.org/1999/xlink">
    <title>pest_spiders</title>
    <g id="pest_spiders" stroke="none" stroke-width="1" fill="none" fill-rule="evenodd">
        <path d="M23.5976819,5.08165731 C24.068641,5.28463066 24.3040087,5.80643532 24.1602171,6.28602529 L24.1202384,6.39578619 L22.816,9.42 L23.201,20.458 L30.0649652,27.2227076 C30.100916,27.2581378 30.1336197,27.2956186 30.1630735,27.3347794 C30.3025281,27.2538748 30.4487072,27.1821968 30.5998672,27.1202491 C30.5805252,27.0282899 30.5706161,26.9319336 30.5706161,26.8332524 C30.5706161,26.7420271 30.5790844,26.6527888 30.5952742,26.5662873 C30.3436406,26.4084402 30.1047535,26.2098113 29.8761249,25.9803867 C29.5976711,25.7009634 29.3809822,25.4248942 29.2304327,25.2006342 L29.1480747,25.072683 L29.0145207,24.3792242 C29.055817,24.1395435 29.1305167,23.8025561 29.2425628,23.4528629 C29.4241863,22.8860202 29.6289807,22.4847015 30.007367,22.210186 C30.4543983,21.8858691 31.0796996,21.9853489 31.4040164,22.4323802 C31.7033858,22.8450245 31.6416505,23.4095675 31.278779,23.7490626 L31.1916046,23.8207446 L31.2616105,23.7687178 C31.2373267,23.8177426 31.2121052,23.8775081 31.1862488,23.9485433 L31.1471829,24.063127 C31.1315739,24.111842 31.1168144,24.1610653 31.1029741,24.2098916 L31.072,24.324 L31.1465666,24.4126457 L31.292794,24.5686329 C31.5751249,24.8519468 31.835732,25 32,25 C32.164268,25 32.4248751,24.8519468 32.707206,24.5686329 L32.8069571,24.4642776 L32.93,24.321 L32.8982461,24.1984169 L32.8548035,24.0498224 C32.8250938,23.9542885 32.7951587,23.8716818 32.7674191,23.8073281 L32.7405008,23.749256 C32.7382571,23.744805 32.7555517,23.7679624 32.8466909,23.82936 C32.388648,23.5207905 32.2674759,22.8993284 32.5760454,22.4412855 C32.8846149,21.9832426 33.506077,21.8620704 33.9641199,22.17064 C34.3705047,22.444409 34.5780895,22.8562174 34.7645846,23.4559066 C34.8517727,23.7362665 34.9157183,24.008608 34.958335,24.2291846 L34.9863283,24.3842276 L34.8519253,25.072683 C34.7032228,25.3146006 34.4580196,25.6450787 34.1238751,25.9803867 C33.8952465,26.2098113 33.6563594,26.4084402 33.4056008,26.5678766 C33.4209156,26.6527888 33.4293839,26.7420271 33.4293839,26.8332524 C33.4293839,26.9322925 33.4194026,27.0289906 33.4003956,27.1223871 C33.5519338,27.1824854 33.6982433,27.2542661 33.8387875,27.335019 L33.8511614,27.3163058 L33.8511614,27.3163058 L33.9350348,27.2227076 L40.798,20.458 L41.183,9.42 L39.8797616,6.39578619 C39.6767882,5.92482715 39.8640179,5.38388066 40.2978827,5.13399271 L40.4023181,5.08165731 C40.8732771,4.87868397 41.4142236,5.06591368 41.6641116,5.49977839 L41.716447,5.60421381 L43.108864,8.83503905 L43.1899138,9.26567639 L42.7832788,20.926356 L42.4858183,21.6037488 L36.6626046,27.3417446 L43.665,24.831 L50.054,13.205 L48.5079055,8.92710745 C48.3335559,8.4448183 48.5529057,7.91608042 49.0009823,7.69267505 L49.1083697,7.64670019 C49.5906589,7.47235061 50.1193967,7.69170038 50.3428021,8.13977696 L50.388777,8.2471644 L52.0892509,12.9510479 L52.0251827,13.7726624 L45.2356092,26.1265459 L44.6967785,26.5862153 L38.3746046,28.8527446 L44.6429126,29.164335 L45.5019977,29.7455107 L51.208,42.162 L58.6118998,48.9079104 C58.9887332,49.2512673 59.042771,49.816599 58.7562902,50.2226302 L58.6775656,50.3205986 C58.3342087,50.697432 57.768877,50.7514697 57.3628458,50.464989 L57.2648774,50.3862644 L49.7113229,43.5037401 L49.4762013,43.1821592 L43.937,31.131 L39.4996046,30.9107446 L43.9397457,32.1588964 L44.6535238,32.9452627 L47.238,47.374 L52.0347338,56.5361592 C52.2726079,56.99049 52.1266599,57.5440036 51.7128522,57.8258647 L51.6126559,57.8859186 C51.1583251,58.1237928 50.6048116,57.9778448 50.3229504,57.564037 L50.2628966,57.4638408 L45.395598,48.1674815 L45.2971871,47.87998 L42.795,33.914 L35.4814263,31.8596003 C35.4292476,32.0018844 35.3686724,32.140088 35.3003044,32.2736048 C40.1372934,33.7022435 43.6691943,38.1967329 43.6691943,43.5196602 C43.6691943,49.9936893 38.4445498,55.242233 32,55.242233 C25.5554502,55.242233 20.3308057,49.9936893 20.3308057,43.5196602 C20.3308057,38.1967329 23.8627066,33.7022435 28.7006277,32.2722545 C28.6313276,32.140088 28.5707524,32.0018844 28.5185737,31.8596003 L21.204,33.914 L18.7028129,47.87998 L18.604402,48.1674815 L13.7371034,57.4638408 C13.4809312,57.9531201 12.8766234,58.1420908 12.3873441,57.8859186 C11.9330133,57.6480444 11.7376221,57.1099921 11.9171328,56.6425967 L11.9652662,56.5361592 L16.761,47.374 L19.3464762,32.9452627 L20.0602543,32.1588964 L24.4996046,30.9107446 L20.062,31.131 L14.5237987,43.1821592 L14.2886771,43.5037401 L6.73512259,50.3862644 C6.3268864,50.7582344 5.69440434,50.7288348 5.32243437,50.3205986 C4.97907747,49.9437652 4.97771593,49.3758584 5.30062698,48.9981534 L5.38810016,48.9079104 L12.791,42.162 L18.4980023,29.7455107 L19.3570874,29.164335 L25.6246046,28.8527446 L19.3032215,26.5862153 L18.7643908,26.1265459 L11.9748173,13.7726624 L11.9107491,12.9510479 L13.611223,8.2471644 C13.7989841,7.72777609 14.372242,7.4589391 14.8916303,7.64670019 C15.3739194,7.82104977 15.640172,8.32779198 15.5254154,8.81514554 L15.4920945,8.92710745 L13.945,13.205 L20.334,24.831 L27.3366046,27.3417446 L21.5141817,21.6037488 L21.2167212,20.926356 L20.8100862,9.26567639 L20.891136,8.83503905 L22.283553,5.60421381 C22.5021397,5.09702715 23.0904953,4.86307064 23.5976819,5.08165731 Z M34.8341232,43.2597087 L29.1781991,43.2597087 L31.5563981,45.661165 L29.1658768,48.0626214 L34.8218009,48.0626214 L32.4436019,45.661165 L34.8341232,43.2597087 Z" id="Combined-Shape" fill="#000000" fill-rule="nonzero"></path>
    </g>
</svg>