<?xml version="1.0" encoding="UTF-8"?>
<svg width="64px" height="64px" viewBox="0 0 64 64" version="1.1" xmlns="http://www.w3.org/2000/svg" xmlns:xlink="http://www.w3.org/1999/xlink">
    <title>pest_rodents</title>
    <g id="pest_rodents" stroke="none" stroke-width="1" fill="none" fill-rule="evenodd">
        <path d="M31.9192661,48.8743405 C32.4715508,48.8743405 32.9192661,49.3220558 32.9192661,49.8743405 C32.9192661,52.029789 32.2891668,53.4677818 31.0469117,54.0009281 C30.0223889,54.4406289 28.8426029,54.1244459 27.9038266,53.3491313 L27.7407427,53.2076054 C24.9161676,50.6437898 22.2464496,51.0751685 21.3236606,53.5754514 C20.4152516,56.0410528 22.2356443,57.9872902 24.559633,57.9872902 C26.8921756,57.9872902 29.4969124,56.807892 31.1013622,55.3283635 L31.2966165,55.1419228 C33.0851304,53.3720967 35.7963081,52.6376362 38.1898118,53.4885923 L38.8754896,53.7347925 C40.919626,54.4776203 41.815954,54.8992406 43.2850597,55.810552 C44.6875691,56.6766569 46.637075,56.2616446 46.9201054,54.9834653 L46.943349,54.8481779 C47.0111725,54.3000735 47.5104807,53.9107289 48.0585851,53.9785524 C48.6066895,54.0463759 48.9960341,54.5456841 48.9282106,55.0937885 C48.5444023,58.1954715 44.7674106,59.0765834 42.2324996,57.5111734 L41.8254534,57.2628789 C40.582198,56.5192578 39.7136732,56.1530064 37.5198396,55.3730384 C35.8854915,54.7919829 33.9689853,55.3111662 32.7033835,56.563544 C30.7683947,58.4783145 27.5551504,59.9872902 24.559633,59.9872902 C20.9717486,59.9872902 18.0003468,56.8104738 19.4471768,52.8834918 C20.8917767,48.9693692 25.268126,48.2622294 29.0863582,51.727972 C29.5258594,52.1284326 30.0021396,52.2729075 30.2581342,52.1630407 C30.6157028,52.0095808 30.9192661,51.3167982 30.9192661,49.8743405 C30.9192661,49.3220558 31.3669813,48.8743405 31.9192661,48.8743405 Z" id="Shape" fill="#000000" fill-rule="nonzero"></path>
        <path d="M27.9184987,6.09595529 C28.1272122,5.96676844 28.3938891,6.00972019 28.5526475,6.18576933 L28.6067992,6.25795045 L29.8655148,8.29152359 C30.01085,8.52632625 29.9383223,8.83448888 29.7035196,8.97982408 C29.4948062,9.10901093 29.2281293,9.06605919 29.0693709,8.89001004 L29.0152191,8.81782893 L27.7565036,6.78425579 C27.6111683,6.54945313 27.683696,6.2412905 27.9184987,6.09595529 Z" id="Shape" fill="#000000" fill-rule="nonzero"></path>
        <path d="M26.3121307,7.21247548 C26.471883,7.02611623 26.7390366,6.98623701 26.9436787,7.10589971 L27.0171573,7.15827727 L29.2263316,9.05204225 C29.4359858,9.23176356 29.4602512,9.54741474 29.2805299,9.75706889 C29.1207776,9.94342813 28.8536239,9.98330735 28.6489819,9.86364465 L28.5755032,9.8112671 L26.3663289,7.91750211 C26.1566748,7.7377808 26.1324094,7.42212963 26.3121307,7.21247548 Z" id="Shape" fill="#000000" fill-rule="nonzero"></path>
        <path d="M26.2754742,9.6553838 C26.3902635,9.43841839 26.6420759,9.34068432 26.8680465,9.41234189 L26.951256,9.44725168 L28.2485037,10.1335826 C28.4925898,10.2627205 28.5857737,10.5652783 28.4566359,10.8093644 C28.3418466,11.0263298 28.0900342,11.1240639 27.8640636,11.0524063 L27.7808541,11.0174965 L26.4836064,10.3311656 C26.2395203,10.2020277 26.1463364,9.89946988 26.2754742,9.6553838 Z" id="Shape" fill="#000000" fill-rule="nonzero"></path>
        <path d="M35.3216412,6.25795045 C35.4669764,6.02314779 35.775139,5.95062009 36.0099417,6.09595529 C36.2186551,6.22514214 36.2991514,6.48298276 36.2123891,6.70359518 L36.1719368,6.78425579 L34.9132212,8.81782893 C34.767886,9.05263159 34.4597234,9.12515929 34.2249207,8.97982408 C34.0162073,8.85063723 33.935711,8.59279662 34.0224732,8.37218419 L34.0629256,8.29152359 L35.3216412,6.25795045 Z" id="Shape" fill="#000000" fill-rule="nonzero"></path>
        <path d="M36.8599069,7.15827727 C37.069561,6.97855596 37.3852122,7.00282133 37.5649335,7.21247548 C37.7246858,7.39883472 37.7232634,7.6689447 37.5737283,7.85289243 L37.5107353,7.91750211 L35.301561,9.8112671 C35.0919068,9.9909884 34.7762557,9.96672304 34.5965344,9.75706889 C34.4367821,9.57070964 34.4382045,9.30059966 34.5877396,9.11665193 L34.6507326,9.05204225 L36.8599069,7.15827727 Z" id="Shape" fill="#000000" fill-rule="nonzero"></path>
        <path d="M36.9258082,9.44725168 C37.1698943,9.31811379 37.4724521,9.41129772 37.60159,9.6553838 C37.7163792,9.87234921 37.6555068,10.1355145 37.469133,10.2820148 L37.3934579,10.3311656 L36.0962102,11.0174965 C35.8521241,11.1466344 35.5495663,11.0534505 35.4204284,10.8093644 C35.3056391,10.592399 35.3665116,10.3292337 35.5528854,10.1827334 L35.6285605,10.1335826 L36.9258082,9.44725168 Z" id="Shape" fill="#000000" fill-rule="nonzero"></path>
        <path d="M41.693578,26.4501199 C41.5522936,26.6026379 41.3981651,26.742446 41.2440367,26.8695444 C40.5247706,27.4414868 39.6256881,27.7338129 38.6623853,27.7338129 C38.2899083,27.7338129 37.9045872,27.6956835 37.506422,27.5940048 C36.2348624,27.3016787 35.0275229,26.5645084 34.0899083,25.4968825 C33.3577982,25.6366906 32.6,25.7129496 31.8550459,25.7129496 C31.1100917,25.7129496 30.3908257,25.6366906 29.6972477,25.5095923 C28.4256881,26.9458034 26.7174312,27.7338129 25.1376147,27.7338129 C24.187156,27.7338129 23.2880734,27.4541966 22.5559633,26.8695444 C22.4146789,26.7551559 22.2733945,26.6280576 22.1577982,26.5009592 C21.053211,28.6870504 20.3211009,31.6103118 20.3211009,35.5122302 C20.3211009,43.4431655 25.5229358,49.8743405 31.9449541,49.8743405 C38.3669725,49.8743405 43.5688073,43.4431655 43.5688073,35.5122302 C43.5431193,31.5848921 42.8110092,28.636211 41.693578,26.4501199 L41.693578,26.4501199 Z" id="Shape" fill="#000000" fill-rule="nonzero"></path>
        <path d="M32.6,7.27098321 L33.1137615,6.76258993 C32.6385321,6.3177458 32.2275229,6.0381295 31.9577982,6.01270983 C31.6880734,6.05083933 31.2770642,6.3177458 30.8018349,6.76258993 L31.3155963,7.27098321 C31.6495413,7.62685851 32.240367,7.62685851 32.6,7.27098321 L32.6,7.27098321 Z" id="Shape" fill="#000000" fill-rule="nonzero"></path>
        <path d="M33.5633028,7.23285372 C35.4642202,9.26642686 38.1100917,13.5242206 38.6238532,17.4007194 C38.1486239,17.2100719 37.6605505,17.0702638 37.1724771,17.0067146 C36.9284404,16.9685851 36.7100917,17.1465228 36.6715596,17.3880096 C36.6330275,17.6294964 36.812844,17.8455635 37.0568807,17.883693 C37.4920827,17.9437844 37.9352598,18.0670109 38.3612746,18.2533726 C38.3753626,18.2602305 38.3894071,18.2659588 38.4034415,18.2717555 C38.5033941,18.3168633 38.6028242,18.3654206 38.7009174,18.417506 L38.4395516,18.286831 C39.2535111,18.6302755 40.0313737,19.2042195 40.666055,19.9935252 C42.3614679,22.0906475 42.3614679,24.8486811 40.6917431,26.1705036 C39.0220183,27.4923261 36.2990826,26.8695444 34.6165138,24.7851319 C34.2568807,24.3402878 33.9743119,23.870024 33.7688073,23.3870504 L33.7804679,23.3678537 L33.7431193,23.2853717 C33.6517839,23.0820144 33.438668,22.9690381 33.2300625,23.017855 L33.1522936,23.0438849 C32.9211009,23.1455635 32.8055046,23.3997602 32.9082569,23.6285372 C33.0366972,23.9081535 33.1779817,24.1877698 33.3321101,24.4546763 L33.3321101,24.4546763 L30.4807339,24.4546763 C30.6477064,24.1877698 30.7889908,23.9081535 30.9045872,23.6285372 C30.9944954,23.3997602 30.8917431,23.1455635 30.6605505,23.0438849 C30.4293578,22.9549161 30.1724771,23.0565947 30.0697248,23.2853717 C29.9027523,23.6793765 29.6844037,24.0606715 29.4275229,24.4165468 L29.5838872,24.190408 C29.4564794,24.3927721 29.3144497,24.5913635 29.1577982,24.7851319 C27.4752294,26.8695444 24.7522936,27.4923261 23.0825688,26.1705036 C21.412844,24.8486811 21.412844,22.0906475 23.1082569,19.9935252 C23.7986308,19.1349588 24.6584167,18.5312077 25.5497941,18.201755 C25.9352173,18.0429126 26.3327463,17.932865 26.7302752,17.883693 C26.9743119,17.8582734 27.1541284,17.6294964 27.1155963,17.3880096 C27.0899083,17.1465228 26.8587156,16.9685851 26.6146789,17.0067146 C26.1779817,17.0702638 25.7284404,17.1846523 25.3045872,17.3498801 C25.8440367,13.4860911 28.4642202,9.25371703 30.3522936,7.23285372 L30.3522936,7.23285372 L30.853211,7.72853717 C31.1614679,8.03357314 31.559633,8.18609113 31.9577982,8.18609113 C32.3559633,8.18609113 32.7541284,8.03357314 33.0623853,7.72853717 L33.0623853,7.72853717 L33.5633028,7.23285372 Z M29.0293578,12.5709832 C28.4642202,12.5709832 28.0018349,13.0285372 28.0018349,13.5877698 C28.0018349,14.1470024 28.4642202,14.6045564 29.0293578,14.6045564 C29.5944954,14.6045564 30.0568807,14.1470024 30.0568807,13.5877698 C30.0568807,13.0285372 29.5944954,12.5709832 29.0293578,12.5709832 Z M34.8605505,12.5709832 C34.2954128,12.5709832 33.8330275,13.0285372 33.8330275,13.5877698 C33.8330275,14.1470024 34.2954128,14.6045564 34.8605505,14.6045564 C35.4256881,14.6045564 35.8880734,14.1470024 35.8880734,13.5877698 C35.8880734,13.0285372 35.4256881,12.5709832 34.8605505,12.5709832 Z" id="Shape" fill="#000000" fill-rule="nonzero"></path>
    </g>
</svg>