<?xml version="1.0" encoding="UTF-8"?>
<svg width="64px" height="64px" viewBox="0 0 64 64" version="1.1" xmlns="http://www.w3.org/2000/svg" xmlns:xlink="http://www.w3.org/1999/xlink">
    <title>pest_bats</title>
    <g id="pest_bats" stroke="none" stroke-width="1" fill="none" fill-rule="evenodd">
        <path d="M36.4744766,16.1408234 L37.253723,18.2149499 C37.4814937,18.8212088 37.5760436,19.4637355 37.5302182,20.1058592 L37.5302182,20.1058592 L37.5115718,20.2706025 C37.4309283,20.7895477 37.2657217,21.2840211 36.9816685,21.9814762 L36.9816685,21.9814762 L36.6171705,22.8640326 L36.522611,23.1193433 L36.5378538,23.4032246 L36.5485499,23.9924882 C36.5571403,24.1941603 36.5776385,24.3236788 36.629893,24.437354 L36.629893,24.437354 L36.637611,24.4523433 L36.764522,24.4803682 C38.276895,24.7823892 40.2433604,24.5246871 42.6084805,23.2509591 L42.6084805,23.2509591 L42.9192307,23.0790212 C45.0457805,21.8712102 46.741317,20.7381333 48.0459907,19.7167791 C48.1083906,19.6679298 48.1686298,19.6203704 48.2267314,19.5741222 L48.2267314,19.5741222 L48.5498762,19.3125364 L48.822834,19.0834341 L49.0467189,18.8878311 L49.2929721,18.6594597 L49.3990496,18.5520489 L51.390611,20.3533433 L51.7603344,20.3629526 L52.3226801,20.3870886 C52.7647884,20.4129914 53.1521481,20.4547728 53.5712659,20.5229714 L53.5712659,20.5229714 L53.7982926,20.561908 C54.7323467,20.7299486 55.5786368,21.009662 56.335324,21.4398534 C56.8698933,21.742713 57.5099448,22.252004 58.2662968,22.9588613 L58.2662968,22.9588613 L58.6904514,23.36396 C58.7630878,23.4347242 58.8367017,23.5071079 58.9113011,23.5811044 L58.9113011,23.5811044 L59.370789,24.0443837 L59.8543201,24.5460505 L60.3622845,25.0857851 L60.8950724,25.6632678 L61.3040392,26.1134882 L61.9893585,26.8803165 C62.6675605,27.6462752 63.3529959,28.4406836 64.0248274,29.2348615 L64.0248274,29.2348615 L64.8827227,30.2583808 L67.9954286,34.0608253 L63.594413,33.9172803 L62.9331761,33.9167426 C61.3731262,33.9458941 59.8441276,34.1751441 59.3832066,34.5229892 L59.4120574,34.5038234 L59.411584,34.5432744 L59.3927365,34.6434408 L59.2606352,35.2090193 L59.1896261,35.4502128 L58.3204258,38.0988728 L56.1143583,36.5579763 L55.7106881,36.2876044 L55.1664434,35.9414458 C54.8782483,35.7630184 54.5822877,35.5875939 54.2855673,35.4212045 C53.934779,35.2244958 53.5982305,35.0492109 53.2839907,34.9011744 C52.8641195,34.7033756 52.4995117,34.5618598 52.2186344,34.4865436 L52.2186344,34.4865436 L52.0777579,34.4482731 C52.0444781,34.4360336 52.0536902,34.4272259 52.1189236,34.4101404 L52.0277866,34.4367269 C51.9950949,34.4470952 51.9601268,34.4589552 51.9229906,34.4722633 L51.9229906,34.4722633 L51.6750241,34.5691413 C51.6296494,34.5880678 51.5823235,34.6083554 51.5331548,34.6299606 L51.5331548,34.6299606 L51.2168966,34.7750537 L50.8616162,34.9496786 L50.4725182,35.1517458 C50.2775314,35.2554881 50.0747485,35.3667307 49.865704,35.4844071 C49.3738869,35.7612633 48.8712284,36.0600322 48.3870277,36.3589651 L48.3870277,36.3589651 L47.8302872,36.7083222 L46.6839717,37.451729 L45.527742,36.7152085 L45.3316837,36.6048477 L45.0728663,36.4728609 C44.977264,36.4264033 44.872897,36.3780548 44.7614603,36.329529 C44.2415307,36.1031227 43.7433562,35.9578046 43.3399663,35.925157 C43.2834768,35.9205851 43.2299523,35.9183433 43.179611,35.9183433 C43.1496875,35.9183433 43.1007864,35.9329278 43.0350181,35.960581 L43.0350181,35.960581 L42.8816173,36.0328629 L42.6869891,36.1372993 L42.4548854,36.2711953 L42.1890581,36.4318557 L41.7352926,36.7171342 L41.0472564,37.1660274 L40.4853821,37.542298 L39.4991154,38.2178948 L38.5744462,38.8658341 L37.9030574,39.3468234 L38.659611,40.6950032 L37.8143014,42.9183433 L34.553424,42.1798749 C34.1137294,42.70899 33.7366473,43.2696192 33.4271625,43.8541648 L33.4271625,43.8541648 L31.659611,47.1926626 L29.8920596,43.8541648 C29.585779,43.2756713 29.2132937,42.7206016 28.7637282,42.1807639 L25.5049207,42.9183433 L24.659611,40.6950032 L25.3508548,39.4629847 C24.9527893,39.1924664 24.5516008,38.9241601 24.1578665,38.665797 L24.1578665,38.665797 L23.6646475,38.3448194 C23.5461726,38.268388 23.4292467,38.1934578 23.3139567,38.1200906 L23.3139567,38.1200906 L22.6425415,37.6991351 C22.5341421,37.6322661 22.4275521,37.5670834 22.3228585,37.5036485 L22.3228585,37.5036485 L21.7181455,37.1445073 C21.4278608,36.9759174 21.1562045,36.8241685 20.90552,36.6909254 L20.90552,36.6909254 L20.7149219,36.5911289 L20.3671155,36.4181554 L20.0669521,36.2819209 L19.9359077,36.2280483 L19.8394113,36.1906572 L19.7934813,36.1686218 L19.7940643,36.1624459 L19.810611,36.1583433 L19.6505347,36.1651525 C19.3095259,36.1890108 18.9397725,36.2712653 18.5653097,36.3994223 L18.5653097,36.3994223 L18.3402591,36.4817249 C18.2937584,36.4998129 18.249045,36.5177949 18.2062713,36.5355049 L18.2062713,36.5355049 L17.9741261,36.6371734 C17.9397213,36.6531316 17.907561,36.6684859 17.8777977,36.6830702 L17.8777977,36.6830702 L17.7292014,36.7600095 L16.6004298,37.4410863 L15.5468094,36.7498383 L14.9336739,36.3601186 C14.4563889,36.0627478 13.9601515,35.7655367 13.4737335,35.4901938 L13.4737335,35.4901938 L12.8427833,35.1432506 L12.4591504,34.9442917 L12.1091612,34.7729945 L11.7981809,34.6314241 C11.7498997,34.610421 11.7034674,34.5907425 11.6589957,34.5724318 L11.6589957,34.5724318 L11.4165884,34.4793238 C11.3442249,34.453988 11.2805983,34.4344671 11.2266029,34.4211054 L11.2620574,34.4298234 L11.2771631,34.4398789 C11.2798532,34.4435399 11.2770993,34.4470645 11.2694075,34.450861 L11.2542296,34.4568106 L10.9561729,34.5404602 C10.6979968,34.6220862 10.3856094,34.7479593 10.0351375,34.9123813 C9.72169735,35.05943 9.3862297,35.2331621 9.03663661,35.4279032 C8.58961957,35.6769143 8.14418581,35.9461835 7.72409681,36.2154239 L7.72409681,36.2154239 L7.32075754,36.4792561 L4.99561602,38.0891858 L4.15940366,35.5422118 L4.10384196,35.3676787 L4.03727065,35.1264027 L3.9604801,34.796823 L3.907524,34.545286 L3.90361103,34.4913433 C3.90015807,34.4943621 3.89732565,34.4944801 3.89299256,34.4930077 L3.89299256,34.4930077 L3.82438981,34.4497603 C3.78516846,34.4271615 3.73515286,34.4034823 3.67523084,34.3792393 L3.67523084,34.3792393 L3.46663336,34.3053354 C3.19066881,34.2183457 2.80422667,34.1307758 2.34537294,34.0647699 C1.8575786,33.9946008 1.3231517,33.9505017 0.776071665,33.9289254 C0.699851899,33.9259193 0.625353734,33.9234128 0.552818211,33.9213623 L0.552818211,33.9213623 L0.143085092,33.9141861 L-0.207974688,33.9158746 L-4.6619426,34.0556572 L-1.89081973,30.6549493 L-1.15990559,29.7716887 L-0.036496847,28.4430931 C0.640841038,27.6515311 1.32520911,26.8692915 1.99592621,26.1250452 C2.24633712,25.8471823 2.49189683,25.5779517 2.73199273,25.318225 C2.82413045,25.2185539 2.91513291,25.1205874 3.00501161,25.0243321 L3.00501161,25.0243321 L3.53089095,24.4673884 L4.03035308,23.9518316 L4.50395085,23.4779788 C4.73437579,23.2515312 4.95530892,23.0408415 5.16706121,22.8460881 L5.16706121,22.8460881 L5.57841682,22.4778825 C6.1108152,22.0154137 6.57940192,21.667115 6.99007407,21.4363688 C7.7322003,21.019387 8.55490699,20.7443553 9.45825642,20.5754263 C10.2474285,20.4278489 10.8844399,20.3755639 11.8630642,20.3556804 L11.8630642,20.3556804 L11.894611,20.3543433 L13.8738246,18.5041297 L13.9585261,18.5906898 L14.274965,18.885994 C14.5774537,19.1573484 14.9528664,19.4698944 15.4056631,19.8196487 C16.6959869,20.8163349 18.3489938,21.9135724 20.4003432,23.0792211 C23.010906,24.5626345 25.1496476,24.8201018 26.7476146,24.4390601 L26.7476146,24.4390601 L26.680611,24.4533433 L26.7170298,24.3667972 C26.7573757,24.2445323 26.769935,24.095162 26.7745563,23.8623759 L26.7745563,23.8623759 L26.7783932,23.5470296 L26.7858768,23.2761251 L26.795611,23.1183433 L26.7437489,22.9715557 L26.2365376,21.7290011 C26.01352,21.1600204 25.8782133,20.7246796 25.8076502,20.2706025 L25.8076502,20.2706025 L25.7890038,20.1058592 C25.7431785,19.4637355 25.8377284,18.8212088 26.065499,18.2149499 L26.065499,18.2149499 L26.8428525,16.1458618 L28.9850876,17.2068555 C29.268291,17.3529601 29.6225987,17.5506957 29.9875888,17.7830383 C30.2692418,17.9623307 30.5231167,18.1421731 30.7482565,18.3287614 L30.5410574,18.1658234 L30.6401024,18.1378894 C30.7663056,18.1062826 30.8943606,18.0795746 31.0260511,18.0579611 L31.2265365,18.0293861 L31.5404161,18.0011731 L31.659611,17.9940567 L31.778806,18.0011731 C32.1009815,18.0204081 32.3935897,18.0664175 32.6768894,18.1370116 L32.6768894,18.1370116 L32.779611,18.1663433 L32.9443852,18.0448642 L33.068856,17.9580893 L33.330771,17.7854091 C33.7674745,17.507102 34.1890027,17.2777605 34.490705,17.1276749 L34.490705,17.1276749 L36.4744766,16.1408234 Z M31.659611,22.0083433 L31.5738945,22.0286899 L31.4597604,22.0665349 L31.0566758,22.2206517 C30.9515806,22.257603 30.852811,22.2873835 30.7396497,22.3144582 L30.7396497,22.3144582 L30.726611,22.3173433 L30.7477551,22.3998774 C30.8064241,22.6673333 30.8299174,22.9223632 30.8101321,23.1978607 L30.8101321,23.1978607 L30.7844602,23.4311659 L30.7714452,24.0042524 C30.7272074,25.4431881 30.3978482,26.4410934 29.2734492,27.5877422 L29.2734492,27.5877422 L29.0075343,27.858919 L28.6607226,28.0137393 C28.440607,28.1120011 28.1100447,28.2263316 27.6754179,28.3299701 C25.1202546,28.9392592 21.9436252,28.5568482 18.4241656,26.5569678 C17.0620452,25.7829632 15.852778,25.0303292 14.7883817,24.3065819 L14.7883817,24.3065819 L14.488611,24.1003433 L14.3740044,24.1496769 C14.1591099,24.2301603 13.9339806,24.2730466 13.6735173,24.3008727 L13.6735173,24.3008727 L13.3806167,24.325747 L13.0931323,24.3387172 L11.77634,24.3591115 L11.363819,24.3747769 L11.0011865,24.3987247 L10.6702566,24.4328504 C10.6167332,24.4394915 10.5637729,24.4466356 10.510997,24.4543223 L10.510997,24.4543223 L10.1935223,24.5072687 C9.69186438,24.6010802 9.27611027,24.7400672 8.949462,24.9236025 C8.85484495,24.9767654 8.73697155,25.0584761 8.59819479,25.1665825 L8.59819479,25.1665825 L8.37464623,25.34827 L8.12150736,25.5679373 L7.84054288,25.8239703 L7.53351753,26.1147553 L7.20219605,26.4386782 L6.66351889,26.9831658 L6.080102,27.5931354 L5.66924322,28.0334707 L4.96732443,28.8028788 L4.31621634,29.5325487 L3.69561103,30.2403433 L3.84242674,30.2698214 C4.72375685,30.4597684 5.46428181,30.7305994 6.04382188,31.1177308 L6.04382188,31.1177308 L6.23101182,31.2511307 C6.5556997,31.4785816 6.81404147,31.7103816 7.02343115,31.9599458 L7.02343115,31.9599458 L7.02961103,31.9673433 L7.37277139,31.7784657 C7.56022568,31.6773291 7.74560769,31.5806938 7.92861198,31.4889779 L7.92861198,31.4889779 L8.33623037,31.291095 C9.84892417,30.5814228 11.0505352,30.2568823 12.1874607,30.538226 C12.887886,30.7115534 13.7193547,31.0787333 14.7215444,31.6119255 C14.9560772,31.7367033 15.1973308,31.8694647 15.4441909,32.0092029 C15.9840888,32.3148187 16.527132,32.6400633 17.0488987,32.9651482 L16.777611,32.7983433 L16.890171,32.7538241 C17.7365071,32.4246141 18.6154209,32.2098484 19.5137433,32.1661869 L19.5137433,32.1661869 L19.8514982,32.1579451 C20.7093529,32.1579451 21.7898512,32.5802602 23.2781857,33.4187602 L23.2781857,33.4187602 L23.7896562,33.713666 L24.3328611,34.0393499 L24.9093244,34.3957614 L25.8397134,34.9878825 L26.3459347,35.3173198 L27.1518946,35.8526126 L28.1329838,36.5192355 L29.1940623,37.258037 L30.0369953,37.8638605 L30.4178767,38.1510751 L30.5829306,38.2869824 L30.9519419,38.6457746 C31.1744702,38.8692089 31.3887267,39.098425 31.5944216,39.3330842 L31.5944216,39.3330842 L31.657611,39.4073433 L31.7009082,39.3567466 C31.8997768,39.128848 32.1052565,38.9083242 32.3165004,38.6960657 L32.3165004,38.6960657 L32.6375835,38.3839881 C32.727294,38.2906759 32.8414949,38.1820345 32.9771742,38.0604603 L32.9771742,38.0604603 L33.2762781,37.8007779 C33.3306042,37.7548602 33.3870938,37.707683 33.4456351,37.6593351 L33.4456351,37.6593351 L33.8206123,37.3559091 L34.2394783,37.0286458 L34.9383552,36.5023753 L35.443516,36.1341572 L35.9738238,35.7570125 L36.523924,35.3752014 L37.0884617,34.9929841 L37.6620822,34.6146207 L38.2394307,34.2443713 L38.8151524,33.8864963 L39.3838927,33.5452557 C40.9803756,32.6059964 42.4283092,31.9183433 43.179611,31.9183433 C43.3396888,31.9183433 43.500709,31.9250874 43.6626438,31.9381933 C44.5664266,32.0113393 45.4674768,32.2741767 46.358441,32.6621522 L46.358441,32.6621522 L46.593611,32.7673433 L47.088535,32.46972 L47.3597751,32.3103617 L47.9035339,31.9987381 C48.1392034,31.8660739 48.3695915,31.7396876 48.5937006,31.6204508 C49.5912921,31.0896845 50.4172088,30.7209201 51.105457,30.5406591 C52.2537647,30.2399027 53.4644139,30.5645339 54.9886769,31.2826049 C55.3943975,31.4737374 55.8133389,31.6919352 56.2420036,31.932314 L56.2420036,31.932314 L56.286611,31.9573433 L56.4029348,31.8261064 C56.5342179,31.6849159 56.6826285,31.5504854 56.8514556,31.4202577 L56.8514556,31.4202577 L57.02721,31.2913363 C57.6956967,30.7843898 58.5341766,30.4503912 59.5102807,30.2383845 L59.5102807,30.2383845 L59.599611,30.2203433 L58.9965919,29.534256 L58.3444199,28.8043766 L57.9388625,28.3578507 L57.5090377,27.8919128 L56.8967264,27.2431322 L56.3286431,26.6595551 L55.8107691,26.146865 C55.7562385,26.0940482 55.7027484,26.0426493 55.6503359,25.9927034 L55.6503359,25.9927034 L55.3490859,25.7107458 L55.0754681,25.4653456 L54.8312546,25.2581871 L54.6182178,25.0909541 C54.519789,25.0175997 54.433716,24.959849 54.3609958,24.9186491 C54.0334902,24.7324568 53.6084269,24.5919661 53.0900446,24.4987068 C52.9848943,24.4797898 52.8820276,24.4632204 52.7784482,24.4486988 L52.7784482,24.4486988 L52.4625751,24.4109781 C52.3545737,24.4002525 52.242863,24.3912751 52.1244467,24.3837461 L52.1244467,24.3837461 L51.7460846,24.3652043 L51.3095102,24.3535544 L50.6238718,24.345408 L50.2298992,24.3387297 L49.9414892,24.325791 L49.6476636,24.300973 C49.3864086,24.2732165 49.1609786,24.2304585 48.9458869,24.1500093 L48.9458869,24.1500093 L48.830611,24.1003433 L48.3550434,24.4260112 C47.4645366,25.0252162 46.4744034,25.6442142 45.3801151,26.2786371 L45.3801151,26.2786371 L44.8947046,26.5571677 C41.3781696,28.5544451 38.2018119,28.9367736 35.6454353,28.3295573 C35.21137,28.2264538 34.8812341,28.112741 34.6614571,28.0150567 L34.6614571,28.0150567 L34.3128623,27.8601168 L34.0457729,27.5877422 C32.8552328,26.3736435 32.5560175,25.3263022 32.5428261,23.7456243 L32.5428261,23.7456243 L32.5387238,23.5064562 L32.5340073,23.4260658 L32.5082166,23.1919567 C32.4889303,22.9198329 32.5126375,22.6662489 32.5713982,22.3994126 L32.5713982,22.3994126 L32.591611,22.3143433 L32.4202681,22.2701248 L32.2653333,22.2199311 L31.8918896,22.0777981 L31.7476915,22.028896 L31.659611,22.0083433 Z" id="Combined-Shape" fill="#000000" fill-rule="nonzero" transform="translate(31.666743, 31.666743) rotate(45.000000) translate(-31.666743, -31.666743) "></path>
    </g>
</svg>