<?xml version="1.0" encoding="UTF-8"?>
<svg width="64px" height="64px" viewBox="0 0 64 64" version="1.1" xmlns="http://www.w3.org/2000/svg" xmlns:xlink="http://www.w3.org/1999/xlink">
    <title>pest_scorpions</title>
    <g id="pest_scorpions" stroke="none" stroke-width="1" fill="none" fill-rule="evenodd">
        <path d="M30,23 C32.9143364,23 34,30 35,35 C36,40 33,48 30,48 C27,48 24,40 25,35 C26,30 27,23 30,23 Z M21.5,43.5 L24.5,44 L25.013,43.589 L25.0861955,43.7850296 C25.2765775,44.2800227 25.4842107,44.7535385 25.7055856,45.1981775 L25,45.5 L22,45 L20,46 L18.5,47 L19.5,45 L21.5,43.5 Z M38.5,43.5 L40.5,45 L41.5,47 L40,46 L38,45 L35,45.5 L34.2949206,45.1971607 C34.5161058,44.7528167 34.7235676,44.2796455 34.9138045,43.7850296 C34.9386083,43.7205396 34.9631181,43.6556889 34.9873278,43.5904956 L35.5,44 L38.5,43.5 Z M20,37.5 L23,38.5 L23.8236224,37.8403192 C23.8637024,38.7094323 23.9748637,39.6019399 24.1456861,40.4836993 L23.5,41 L20,39 L18,39.5 L16,41 L17.5,38.5 L20,37.5 Z M40,37.5 L42.5,38.5 L44,41 L42,39.5 L40,39 L36.5,41 L35.8543139,40.4836993 C36.0251363,39.6019399 36.1362976,38.7094323 36.1763776,37.8403192 L37,38.5 L40,37.5 Z M20.5,31 L23,33 L24.4641053,32.5126136 C24.4185942,32.7472557 24.3736821,32.9806475 24.3292254,33.2120913 C24.224502,33.7572874 24.1219657,34.2911518 24.0194193,34.8038839 C24.0064832,34.8685644 23.9941637,34.9337185 23.9824538,34.9993251 L22.5,35 L20,32.5 L18,32 L16,32.5 L18,31 L20.5,31 Z M42,31 L44,32.5 L42,32 L40,32.5 L37.5,35 L36.016,35 L35.9805807,34.8038839 C35.922859,34.5152753 35.8648527,34.2199778 35.8062217,33.9197359 L35.7177639,33.4658826 C35.6564771,33.1511394 35.5942423,32.8322292 35.5307373,32.5109504 L37,33 L39.5,31 L42,31 Z M42.5,25 L40,26 L38.5,27 L37,30 L35.067939,30.275976 C34.9352933,29.6737055 34.7956379,29.0776106 34.6468778,28.4993882 L36,28.5 L37.5,26 L40,25 L42.5,25 Z M20,25 L22.5,26 L24,28.5 L25.3292584,28.4998238 C25.1836417,29.077257 25.0472732,29.6725084 24.917764,30.2739696 L23,30 L21.5,27 L20,26 L17.5,25 L20,25 Z M35,4 C40.3333333,6 43,9 43,13 C43,17 40.6666667,21 36,25 L36,25 L33.2582006,24.5431659 C32.9095297,23.868756 32.5207901,23.3124811 32.0971552,22.9050443 C31.8526471,22.6698852 31.5956485,22.47959 31.3266046,22.3352899 L32,22 L36,22 L39,19 L38.7588676,18.7562847 C35.8702671,15.8037563 36.1099576,14.7847505 36.1197157,11.4455175 L36.1197157,11.4455175 L36.1192374,10.9622586 C36.1147959,10.130102 36.0892857,9.16071429 36,8 C37.3333333,10.6666667 38.3333333,13 39,15 C39.5256419,13.2435923 39.5256419,11.5769256 39,10 C38.4743581,8.42307442 37.1410248,6.42307442 35,4 Z M25,4 C22.8589752,6.42307442 21.5256419,8.42307442 21,10 C20.4743581,11.5769256 20.4743581,13.2435923 21,15 C21.6666667,13 22.6666667,10.6666667 24,8 C23.9107143,9.16071429 23.8852041,10.130102 23.8807626,10.9622586 L23.8802843,11.4455175 C23.8900424,14.7847505 24.1297329,15.8037563 21.2411324,18.7562847 L21,19 L24,22 L28,22 L28.6619864,22.3298594 C28.3957887,22.4694351 28.1420668,22.6525071 27.9009203,22.8775483 C27.459208,23.2897602 27.0573978,23.857518 26.700553,24.5490571 L24,25 C19.3333333,21 17,17 17,13 C17,9 19.6666667,6 25,4 Z" id="Path-207" fill="#000000"></path>
        <path d="M34.0049259,53.5125051 L37.7805945,56.8282744 L36.2685318,59.6056232 L31.8108648,55.5585002 L34.0049259,53.5125051 Z M31.6919646,48.8327391 L33.5,52.5 L30.8125449,53.7547936 L28.8159052,50.1473804 L31.6919646,48.8327391 Z M38.5,60 L44,60 L43,57 L39.5,57 L38.5,60 Z M47.5,54.5 L50,56.5 L45.8456747,58.8787577 L44.1653565,56.3436975 L47.5,54.5 Z M50.7475398,50.2057122 L53.5248886,51.717775 L51.2814721,55.1771221 L48.5041234,53.6650594 L50.7475398,50.2057122 Z M48.4995755,42.7391574 C49.3476063,44.07364 54.6829287,44.804622 55.0458115,46.2600656 C55.4086944,47.7155092 55.7715772,49.1709527 53.8309858,49.6547965 C52.5372581,49.9773591 51.6887927,49.3300606 51.2855896,47.712901 C49.4265081,47.1458084 48.4978368,45.4878939 48.4995755,42.7391574 Z" id="Combined-Shape" fill="#000000"></path>
    </g>
</svg>