<?xml version="1.0" encoding="UTF-8"?>
<svg width="64px" height="64px" viewBox="0 0 64 64" version="1.1" xmlns="http://www.w3.org/2000/svg" xmlns:xlink="http://www.w3.org/1999/xlink">
    <title>pest_flying_insects</title>
    <g id="pest_flying_insects" stroke="none" stroke-width="1" fill="none" fill-rule="evenodd">
        <path d="M43.0133201,5.32883169 L43.9969892,7.07020908 C41.9776039,8.21091918 41.3168353,11.5225222 42.2661664,17.1406773 L42.4387307,18.1160955 L39.5790634,20.4452859 C39.9554688,21.1898018 40.1649485,22.0153835 40.1649485,22.8844125 L40.1649485,22.8844125 L40.1649485,23.6326139 L39.6453608,22.3731415 C39.5958763,22.2359712 39.4350515,22.1611511 39.2865979,22.2235012 C39.1381443,22.2858513 39.0762887,22.4479616 39.1257732,22.5851319 L39.1257732,22.5851319 L39.4647848,23.4148317 L39.4721649,23.4081535 L40.2787848,25.3818317 L40.4026722,25.1034057 L46.1835127,27.6464746 L46.2997775,28.1276171 C47.2791012,32.1803842 49.1852988,35.0794642 52.0241298,36.8830388 L52.321129,37.0657099 L51.2981518,38.7842901 C48.0308322,36.8394325 45.7930035,33.7235457 44.5898854,29.4893606 L44.478,29.08 L41.2037848,27.6398317 L45.7177848,38.6738317 L45.9275311,38.3950368 L51.1503891,42.3099087 L51.1830077,42.7649519 C51.4006791,45.801559 53.1192268,49.3040973 56.375983,53.2479823 L56.7067874,53.643841 L55.1795104,54.9351292 C51.691487,50.8096534 49.7061295,47.0361704 49.2573784,43.5923294 L49.231,43.371 L46.9357848,41.6498317 L51.4969072,52.8 L51.5796875,53.0044646 C51.7599871,53.4891637 51.8479381,54.0251799 51.7938144,54.5707434 C51.6329897,56.5659472 49.9010309,58.0623501 47.9216495,57.9002398 C47.1175258,57.8378897 46.4,57.5136691 45.8309278,57.0148681 L45.8309278,57.0148681 L33.9298969,46.016307 C33.2989691,45.4800959 32.9154639,44.6570743 32.9896907,43.7592326 C33.0020619,43.6345324 33.014433,43.5223022 33.0391753,43.4100719 L33.0391753,43.4100719 L34.7237848,33.2668317 L34.7092784,33.2719424 L35.8845361,26.2139089 C35.9216495,26.0642686 35.8103093,25.9146283 35.6618557,25.8896882 C35.5134021,25.8522782 35.3649485,25.9645084 35.3402062,26.1141487 L35.3402062,26.1141487 L34.1278351,33.4215827 C33.4721649,33.571223 32.7793814,33.6585132 32.0742268,33.6585132 L32.0742268,33.6585132 L31.9134021,33.6585132 C31.1958763,33.6585132 30.5154639,33.571223 29.8597938,33.4215827 L29.8597938,33.4215827 L28.6474227,26.1141487 C28.6226804,25.9645084 28.4742268,25.8647482 28.3257732,25.8896882 C28.1773196,25.9146283 28.0783505,26.0642686 28.1030928,26.2139089 L28.1030928,26.2139089 L28.2347848,27.0088317 L28.2515464,27.0244604 L30.985567,43.422542 C31.0103093,43.5347722 31.0226804,43.6470024 31.0350515,43.7717026 C31.1092784,44.6695444 30.7257732,45.4925659 30.0948454,46.028777 L18.1938144,57.0273381 C17.6247423,57.5261391 16.9072165,57.8503597 16.1030928,57.9127098 C14.1237113,58.0748201 12.3917526,56.5784173 12.2309278,54.5832134 C12.1659794,54.0376499 12.2431057,53.5111811 12.4208682,53.0288688 L12.5030928,52.82494 L17.1457848,41.4758317 L14.6195722,43.371 L14.5931938,43.5923294 C14.1444427,47.0361704 12.1590851,50.8096534 8.67106176,54.9351292 L8.67106176,54.9351292 L7.14378477,53.643841 L7.47458914,53.2479823 C10.7313454,49.3040973 12.4498931,45.801559 12.6675645,42.7649519 L12.6675645,42.7649519 L12.7001831,42.3099087 L17.9230411,38.3950368 L18.2357848,38.8128317 L22.8417848,27.5538317 L19.3725722,29.08 L19.2606868,29.4893606 C18.0575687,33.7235457 15.81974,36.8394325 12.5524204,38.7842901 L12.5524204,38.7842901 L11.5294431,37.0657099 L11.8264424,36.8830388 C14.6652734,35.0794642 16.571471,32.1803842 17.5507947,28.1276171 L17.5507947,28.1276171 L17.6670595,27.6464746 L23.4479,25.1034057 L23.6537848,25.5708317 L23.8347848,25.1268317 L23.8350515,25.0916067 L24.8618557,22.5851319 C24.9237113,22.4479616 24.8494845,22.2858513 24.7134021,22.2235012 C24.5773196,22.1611511 24.4164948,22.2359712 24.3546392,22.3731415 L24.3546392,22.3731415 L23.8350515,23.6326139 L23.8350515,22.8844125 C23.8350515,22.0490783 24.0286019,21.2538876 24.3779089,20.5322505 L21.4118415,18.1160955 L21.5844058,17.1406773 C22.5337369,11.5225222 21.8729683,8.21091918 19.853583,7.07020908 L19.853583,7.07020908 L20.8372521,5.32883169 L21.0241427,5.4393312 C23.7837386,7.14599388 24.5756202,11.0644165 23.6217989,17.0748383 L23.6217989,17.0748383 L23.5845722,17.306 L25.5486339,18.9058392 C26.7768735,17.6891567 28.5591862,16.923741 30.5402062,16.923741 L30.5402062,16.923741 L33.4597938,16.923741 C35.404701,16.923741 37.1580795,17.661505 38.3836457,18.8397529 L40.266,17.306 L40.2287733,17.0748383 C39.274952,11.0644165 40.0668336,7.14599388 42.8264295,5.4393312 L43.0133201,5.32883169 Z M26.4082474,25.0292566 C26.3454247,25.0239795 26.2848175,25.0432672 26.2348635,25.0786142 L26.2474227,25.0916067 C26.1731959,25.1414868 26.1113402,25.216307 26.1113402,25.3160671 L25.7896907,29.8426859 L23.1670103,32.1870504 C23.1298969,32.2244604 23.1051546,32.2618705 23.0804124,32.3117506 L22.3010309,34.8306954 C22.2515464,34.9803357 22.3381443,35.129976 22.4865979,35.1798561 C22.5113402,35.1923261 22.5360825,35.1923261 22.5731959,35.1923261 C22.6969072,35.1923261 22.7958763,35.117506 22.8329897,34.9928058 L23.5876289,32.5486811 L25.7278351,30.6407674 L25.5546392,33.1098321 L25.5175258,33.1971223 L22.6474227,39.1453237 L19.5546392,40.4297362 C19.4185567,40.4920863 19.3443299,40.6541966 19.4061856,40.7913669 C19.4556701,40.9035971 19.5546392,40.9659472 19.6659794,40.9659472 C19.7030928,40.9659472 19.7402062,40.9534772 19.7773196,40.9410072 L22.2886598,39.8935252 L19.9134021,44.8191847 L17.5628866,45.3429257 C17.4886598,45.3553957 17.414433,45.4177458 17.3773196,45.4925659 L16.6597938,46.9016787 C16.585567,47.0388489 16.6474227,47.2134293 16.7835052,47.2757794 C16.8206186,47.3007194 16.8701031,47.3131894 16.9072165,47.3131894 C17.0061856,47.3131894 17.1051546,47.2633094 17.1546392,47.1635492 L17.8226804,45.8666667 L19.6164948,45.4676259 L18.5154639,47.7496403 C18.4783505,47.7870504 18.4659794,47.8369305 18.4536082,47.8743405 L15.9175258,53.1366906 C15.8556701,53.2738609 15.9051546,53.4484412 16.0412371,53.5107914 C16.0783505,53.5357314 16.1278351,53.5357314 16.1649485,53.5357314 C16.2639175,53.5357314 16.3628866,53.4733813 16.4123711,53.3736211 L18.7505155,48.5227818 L19.4680412,49.7323741 L19.6783505,51.8148681 C19.6907216,51.9645084 19.814433,52.0642686 19.9505155,52.0642686 L19.9752577,52.0642686 C20.1237113,52.0517986 20.2350515,51.9146283 20.2226804,51.752518 L20.0123711,49.6076739 C20.0123711,49.5702638 20,49.5328537 19.9752577,49.4954436 L19.0474227,47.9242206 L25.4556701,34.606235 L25.0597938,40.0306954 L23.4268041,41.6268585 C23.3896907,41.6642686 23.3649485,41.7016787 23.3525773,41.7515588 L22.1649485,45.8791367 C22.1278351,46.028777 22.2020619,46.1784173 22.3505155,46.2282974 C22.3752577,46.2407674 22.4,46.2407674 22.4247423,46.2407674 C22.5484536,46.2407674 22.6597938,46.1659472 22.6969072,46.041247 L23.8597938,41.9760192 L24.9979381,40.8661871 L24.8,43.5846523 C24.7876289,43.6719424 24.8247423,43.7592326 24.8865979,43.8091127 L26.4082474,45.1808153 C26.457732,45.2306954 26.5319588,45.2556355 26.5938144,45.2556355 C26.6680412,45.2556355 26.742268,45.2182254 26.8041237,45.1683453 C26.9030928,45.0561151 26.9030928,44.8815348 26.7793814,44.7693046 L25.3690722,43.4973621 L26.0618557,33.8954436 L27.4474227,34.9928058 L26.8783505,37.7736211 C26.8412371,37.9232614 26.9402062,38.0729017 27.0886598,38.1103118 L27.1505155,38.1103118 C27.2742268,38.1103118 27.3979381,38.0230216 27.4226804,37.8858513 L28.028866,34.9429257 C28.0536082,34.8431655 28.0164948,34.7309353 27.9298969,34.6685851 L26.1237113,33.2345324 L26.1237113,33.1971223 L26.2387848,31.5898317 L26.2226804,31.5760192 L26.6680412,25.3285372 C26.6804124,25.1788969 26.556701,25.0417266 26.4082474,25.0292566 Z M37.5793814,25.0292566 C37.4185567,25.0417266 37.3072165,25.1788969 37.3195876,25.3285372 L37.3195876,25.3285372 L37.3307848,25.4908317 L37.3319588,25.4906475 L37.8886598,33.1971223 L37.8886598,33.2345324 L36.0824742,34.6685851 C35.9958763,34.7309353 35.9587629,34.8431655 35.9835052,34.9429257 L35.9835052,34.9429257 L36.5896907,37.8858513 C36.614433,38.0230216 36.7381443,38.1103118 36.8618557,38.1103118 L36.8618557,38.1103118 L36.9237113,38.1103118 C37.0721649,38.0729017 37.171134,37.9232614 37.1340206,37.7736211 L37.1340206,37.7736211 L36.5649485,34.9928058 L37.9505155,33.8954436 L38.643299,43.4973621 L37.2329897,44.7693046 C37.1092784,44.8815348 37.1092784,45.0561151 37.2082474,45.1683453 C37.2701031,45.2182254 37.3443299,45.2556355 37.4185567,45.2556355 C37.4804124,45.2556355 37.5546392,45.2306954 37.6041237,45.1808153 L37.6041237,45.1808153 L39.1257732,43.8091127 C39.1876289,43.7592326 39.2247423,43.6719424 39.2123711,43.5846523 L39.2123711,43.5846523 L39.014433,40.8661871 L40.1525773,41.9760192 L41.3154639,46.041247 C41.3525773,46.1659472 41.4639175,46.2407674 41.5876289,46.2407674 C41.6123711,46.2407674 41.6371134,46.2407674 41.6618557,46.2282974 C41.8103093,46.1784173 41.8845361,46.028777 41.8474227,45.8791367 L41.8474227,45.8791367 L40.6597938,41.7515588 C40.6474227,41.7016787 40.6226804,41.6642686 40.585567,41.6268585 L40.585567,41.6268585 L38.9525773,40.0306954 L38.556701,34.606235 L44.9649485,47.9242206 L44.0371134,49.4954436 C44.0123711,49.5328537 44,49.5702638 44,49.6076739 L44,49.6076739 L43.7896907,51.752518 C43.7773196,51.9146283 43.8886598,52.0517986 44.0371134,52.0642686 L44.0371134,52.0642686 L44.0618557,52.0642686 C44.1979381,52.0642686 44.3216495,51.9645084 44.3340206,51.8148681 L44.3340206,51.8148681 L44.5443299,49.7323741 L45.2618557,48.5227818 L47.5752577,53.3611511 C47.6247423,53.4609113 47.7237113,53.5232614 47.8226804,53.5232614 C47.8597938,53.5232614 47.9092784,53.5232614 47.9463918,53.4983213 C48.0824742,53.4359712 48.1319588,53.2613909 48.0701031,53.1242206 L48.0701031,53.1242206 L45.5340206,47.8618705 C45.5216495,47.8244604 45.5092784,47.7745803 45.4721649,47.7371703 L45.4721649,47.7371703 L44.371134,45.4551559 L46.1649485,45.8541966 L46.8329897,47.1510791 C46.8824742,47.2508393 46.9814433,47.3007194 47.0804124,47.3007194 C47.1175258,47.3007194 47.1670103,47.2882494 47.2041237,47.2633094 C47.3402062,47.2009592 47.4020619,47.0263789 47.3278351,46.8892086 L47.3278351,46.8892086 L46.6103093,45.4800959 C46.5731959,45.4052758 46.4989691,45.3429257 46.4247423,45.3304556 L46.4247423,45.3304556 L44.0742268,44.8067146 L41.6989691,39.8810552 L44.2103093,40.9285372 C44.2474227,40.9410072 44.2845361,40.9534772 44.3216495,40.9534772 C44.4329897,40.9534772 44.5319588,40.8911271 44.5814433,40.7788969 C44.643299,40.6417266 44.5690722,40.4796163 44.4329897,40.4172662 L44.4329897,40.4172662 L41.3402062,39.1328537 L38.4701031,33.1846523 L38.4329897,33.0973621 L38.2597938,30.6282974 L40.4,32.536211 L41.1546392,34.9803357 C41.1917526,35.105036 41.2907216,35.1798561 41.414433,35.1798561 C41.4515464,35.1798561 41.4762887,35.1798561 41.5010309,35.1673861 C41.6494845,35.117506 41.7360825,34.9678657 41.6865979,34.8182254 L41.6865979,34.8182254 L40.9072165,32.2992806 C40.8824742,32.2494005 40.857732,32.2119904 40.8206186,32.1745803 L40.8206186,32.1745803 L38.1979381,29.8302158 L37.8762887,25.3035971 C37.8762887,25.2038369 37.814433,25.1290168 37.7402062,25.0791367 L37.7402062,25.0791367 L37.7479605,25.0715795 C37.6989488,25.0399704 37.6402034,25.0241476 37.5793814,25.0292566 Z M34.0659794,34.070024 L32.5319588,43.2978417 C32.5072165,43.422542 32.4948454,43.5597122 32.4824742,43.6844125 C32.4082474,44.6570743 32.8041237,45.8292566 33.5463918,46.4527578 L33.5463918,46.4527578 L38.4082474,50.9419664 C36.5649485,52.1266187 34.3628866,52.81247 31.9876289,52.81247 C29.5628866,52.81247 27.3979381,52.2139089 25.5175258,50.9294964 L25.5175258,50.9294964 L30.3793814,46.4402878 C31.2948454,45.6172662 31.542268,44.6446043 31.4680412,43.6719424 C31.4680412,43.5472422 31.443299,43.4100719 31.4185567,43.2853717 L31.4185567,43.2853717 L29.9340206,34.070024 C30.5773196,34.2196643 31.1958763,34.2820144 31.9010309,34.2820144 L31.9010309,34.2820144 L32.0618557,34.2820144 C32.7546392,34.2820144 33.4226804,34.2071942 34.0659794,34.070024 L34.0659794,34.070024 Z M32.6680412,10.9630695 C33.0391753,10.9630695 33.3484536,11.2748201 33.3484536,11.6489209 L33.3484536,11.6489209 L33.3484536,11.6613909 C33.3484536,12.0354916 33.0391753,12.3472422 32.6680412,12.3472422 L32.6680412,12.3472422 L32.6697013,13.0010878 C33.2966843,13.0342842 33.8932481,13.1131241 34.4494845,13.2326139 C34.2886598,13.5443645 34.2020619,13.8935252 34.2020619,14.2551559 C34.2020619,15.4772182 35.1917526,16.4748201 36.4041237,16.4748201 C37.1835052,16.4748201 37.8762887,16.0633094 38.2474227,15.4398082 C38.4453608,15.7764988 38.556701,16.1256595 38.556701,16.4997602 C38.556701,16.9860911 38.371134,17.435012 38.0494845,17.8589928 C36.8123711,16.898801 35.2041237,16.3127098 33.4474227,16.3127098 L33.4474227,16.3127098 L30.5278351,16.3127098 C28.771134,16.3127098 27.1505155,16.898801 25.9257732,17.8589928 C25.6041237,17.435012 25.4185567,16.9860911 25.4185567,16.4997602 C25.4185567,16.1505995 25.5051546,15.8263789 25.6783505,15.5146283 C26.0742268,16.1007194 26.742268,16.4748201 27.4845361,16.4748201 C28.6969072,16.4748201 29.6865979,15.4772182 29.6865979,14.2551559 C29.6865979,13.8935252 29.6,13.5568345 29.4515464,13.257554 C30.0354893,13.1267516 30.6611002,13.0379501 31.3179725,13.0016393 L31.3195876,12.3472422 C30.9484536,12.3472422 30.6391753,12.0354916 30.6391753,11.6613909 L30.6391753,11.6613909 L30.6391753,11.6489209 C30.6391753,11.2748201 30.9484536,10.9630695 31.3195876,10.9630695 L31.3195876,10.9630695 L32.6680412,10.9630695 Z M27.4969072,12.5717026 C28.4192797,12.5717026 29.1670103,13.3254103 29.1670103,14.2551559 C29.1670103,15.1849014 28.4192797,15.9386091 27.4969072,15.9386091 C26.5745347,15.9386091 25.8268041,15.1849014 25.8268041,14.2551559 C25.8268041,13.3254103 26.5745347,12.5717026 27.4969072,12.5717026 Z M36.4041237,12.5717026 C37.3264962,12.5717026 38.0742268,13.3254103 38.0742268,14.2551559 C38.0742268,15.1849014 37.3264962,15.9386091 36.4041237,15.9386091 C35.4817512,15.9386091 34.7340206,15.1849014 34.7340206,14.2551559 C34.7340206,13.3254103 35.4817512,12.5717026 36.4041237,12.5717026 Z" id="Combined-Shape" fill="#000000" fill-rule="nonzero"></path>
    </g>
</svg>