<?xml version="1.0" encoding="UTF-8"?>
<svg width="64px" height="64px" viewBox="0 0 64 64" version="1.1" xmlns="http://www.w3.org/2000/svg" xmlns:xlink="http://www.w3.org/1999/xlink">
    <title>pest_fall_invaders</title>
    <g id="pest_fall_invaders" stroke="none" stroke-width="1" fill="none" fill-rule="evenodd">
        <path d="M38.3874016,28.95 C39.0191443,30.677955 39.5236177,32.6010621 39.7832201,34.6493116 L45.0302379,33.9341703 L46.1634999,34.9858729 L45.482,46.153 L48.4503535,47.929318 C48.8904599,48.19258 49.0550168,48.7408492 48.8492832,49.1973098 L48.7951898,49.3008456 C48.5319278,49.7409521 47.9836586,49.9055089 47.5271981,49.6997753 L47.4236623,49.645682 L43.9338985,47.558182 L43.4490986,46.6391271 L44.093,36.08 L39.9839354,36.6408297 L39.9529689,36.6426816 C39.9673729,36.9760048 39.9748031,37.3118682 39.9748031,37.65 C39.9748031,38.8276319 39.8856309,39.9782712 39.7256087,41.0904911 C39.8555582,41.1105377 39.9831342,41.1585565 40.0994836,41.2334838 L40.2006945,41.3079936 L42.7707733,43.4579936 L43.1097262,44.4210576 L41.02,54.871 L42.7556894,58.534378 C42.9752458,58.9978384 42.8073281,59.5450877 42.3826032,59.8102129 L42.2800906,59.8662209 C41.8166301,60.0857773 41.2693808,59.9178596 41.0042556,59.4931347 L40.9482476,59.390622 L39.0710822,55.428122 L38.9942108,54.8039424 L41.031,44.611 L39.3329038,43.189676 C39.0300126,44.5044709 38.6359311,45.7485564 38.1858268,46.9 L38.1858268,46.9 L32.5291339,40.0875 L38.3874016,28.95 Z M25.6125984,28.95 L31.4708661,40.0875 L25.8141732,46.9 C25.3640689,45.7485564 24.9699874,44.5044709 24.6670962,43.189676 L22.968,44.611 L25.0057892,54.8039424 L24.9289178,55.428122 L23.0517524,59.390622 C22.8153071,59.8897333 22.2190207,60.1026662 21.7199094,59.8662209 C21.256449,59.6466646 21.0397444,59.1168371 21.2004625,58.6426512 L21.2443106,58.534378 L22.979,54.871 L20.8902738,44.4210576 L21.2292267,43.4579936 L23.7993055,41.3079936 C23.940786,41.189638 24.1053647,41.1170733 24.2750328,41.0886966 C24.1143691,39.9782712 24.0251969,38.8276319 24.0251969,37.65 C24.0251969,37.3129902 24.0324933,36.9781096 24.0466745,36.6456306 L23.9782693,36.6408297 L19.868,36.08 L20.5131062,46.6391271 L20.0283062,47.558182 L16.5385424,49.645682 C16.0645816,49.9291949 15.4505278,49.7748064 15.1670149,49.3008456 C14.9037529,48.8607391 15.0180691,48.2998382 15.4152228,47.9949586 L15.5118513,47.929318 L18.479,46.153 L17.7987049,34.9858729 L18.9319669,33.9341703 L24.2144949,34.6545056 C24.4713681,32.6103812 24.9726315,30.6855769 25.6125984,28.95 L25.6125984,28.95 Z M32,40.825 L37.6692913,47.6375 C37.7070866,47.7 37.7700787,47.7375 37.8330709,47.7625 C35.9307087,52.15 33.2598425,55 32,55 C30.7401575,55 28.0692913,52.15 26.1795276,47.7625 C26.2425197,47.7375 26.2929134,47.7 26.3433071,47.6375 L26.3433071,47.6375 L32,40.825 Z M37.392126,28.9375 L32,39.2 L26.607874,28.9375 C28.384252,29.1375 30.1984252,29.2375 32,29.2375 C33.8015748,29.2375 35.6031496,29.1375 37.392126,28.9375 L37.392126,28.9375 Z M42.9239399,13.1783732 C43.3773518,13.4179941 43.5706708,13.9567945 43.3893625,14.4234956 L43.3408198,14.529747 L41.151,18.673 L41.1385813,26.1391335 L40.5699206,27.0396905 L38.1384245,28.2021905 C37.7888474,28.3693235 37.3906508,28.3154333 37.1018598,28.0963165 C35.558668,28.2629646 33.9998064,28.3520494 32.4409449,28.3625 L32.4409449,28.3625 L32.4409449,23.7125 L35.5401575,23.7125 C35.6031496,23.7125 35.6661417,23.7 35.7165354,23.675 C36.2537722,24.4662307 36.7854159,25.3795491 37.2853795,26.3927696 L39.139,25.506 L39.1511824,18.4233665 L39.2670543,17.957753 L41.5725661,13.595253 C41.8306194,13.1069633 42.4356501,12.9203198 42.9239399,13.1783732 Z M22.3669949,13.4952887 L22.4274339,13.595253 L24.7329457,17.957753 L24.8488176,18.4233665 L24.86,25.506 L26.7156713,26.3923325 C27.217327,25.3742972 27.756695,24.4568695 28.296063,23.6625 C28.3464567,23.6875 28.4094488,23.7 28.4724409,23.7 L28.4724409,23.7 L31.5590551,23.7 L31.5590551,28.35 C30.0033925,28.3395709 28.44773,28.2508299 26.9140182,28.0837772 C26.6537238,28.2903114 26.298015,28.3590092 25.9696919,28.2464239 L25.8615755,28.2021905 L23.4300794,27.0396905 L22.8614187,26.1391335 L22.848,18.673 L20.6591802,14.529747 C20.4195593,14.076335 20.5633759,13.5222639 20.9760958,13.2388122 L21.0760601,13.1783732 C21.5294721,12.9387522 22.0835432,13.0825688 22.3669949,13.4952887 Z M40.8961095,4.95878201 C40.9395843,5.50935298 40.5285016,5.99092218 39.9779306,6.03439692 C37.4500839,6.23400333 35.8256491,8.53802209 34.8729389,12.3032924 C34.7456267,12.8164573 34.6371028,13.3278772 34.5378068,13.8661798 L34.3649813,14.8865225 C34.3546053,14.9513214 34.3438443,15.0185148 34.3330472,15.0857872 L36.9495436,17.9961858 C37.1515466,17.8196116 37.4167095,17.7125 37.7070866,17.7125 C38.3402572,17.7125 38.8535433,18.2217761 38.8535433,18.85 C38.8535433,19.4782239 38.3402572,19.9875 37.7070866,19.9875 C37.5109042,19.9875 37.326231,19.9386087 37.1647686,19.8524364 L35.5275591,22.825 L35.0890445,22.8244492 L35.0992126,22.8375 L32.4409449,22.8375 L32.4400445,22.8244492 L31.5590445,22.8244492 L31.5590551,22.8375 L28.9007874,22.8375 C28.9041428,22.8330751 28.9074979,22.8286554 28.9108524,22.824241 L28.4724409,22.825 L26.8352314,19.8524364 C26.673769,19.9386087 26.4890958,19.9875 26.2929134,19.9875 C25.6597428,19.9875 25.1464567,19.4782239 25.1464567,18.85 C25.1464567,18.2217761 25.6597428,17.7125 26.2929134,17.7125 C26.583346,17.7125 26.8485547,17.8196526 27.0505721,17.996287 L29.6680445,15.0834492 L29.5587672,14.4145034 C29.433159,13.66863 29.2968107,12.9875123 29.1281887,12.3077927 C28.1743509,8.53802209 26.5499161,6.23400333 24.0220694,6.03439692 C23.4714984,5.99092218 23.0604157,5.50935298 23.1038905,4.95878201 C23.1442599,4.44753754 23.562374,4.05656611 24.0627166,4.03812975 L24.1795054,4.04060308 C27.8280895,4.32870629 29.9247731,7.30253956 31.0682144,11.8217076 C31.180775,12.2754126 31.2792296,12.7252953 31.3693427,13.1883318 L32,12.4875 L32.6305278,13.1890713 C32.7207968,12.7252719 32.8195791,12.2740023 32.9329131,11.8172073 C34.0752269,7.30253956 36.1719105,4.32870629 39.8204946,4.04060308 C40.3710656,3.99712833 40.8526348,4.40821104 40.8961095,4.95878201 Z" id="Combined-Shape" fill="#000000" fill-rule="nonzero"></path>
    </g>
</svg>