<?xml version="1.0" encoding="UTF-8"?>
<svg width="64px" height="64px" viewBox="0 0 64 64" version="1.1" xmlns="http://www.w3.org/2000/svg" xmlns:xlink="http://www.w3.org/1999/xlink">
    <title>pest_dermestids</title>
    <g id="pest_dermestids" stroke="none" stroke-width="1" fill="none" fill-rule="evenodd">
        <path d="M50.8,4.4 C51.1058808,4.80784105 51.053113,5.37329269 50.6956754,5.71850414 L50.6,5.8 L46.765,8.676 L43.3575286,14.6409249 C45.0920921,16.7794593 46.553165,19.3953692 47.4502598,22.430932 L47.5189749,22.6759411 L50.8038839,22.0194193 C51.3840013,21.9033958 51.9276725,22.3121242 51.9933653,22.8836347 L52,23 L52,33.323 L56.3713907,35.0715233 C56.8475468,35.2619858 57.0966155,35.7773913 56.9655421,36.2606121 L56.9284767,36.3713907 C56.7380142,36.8475468 56.2226087,37.0966155 55.7393879,36.9655421 L55.6286093,36.9284767 L50.6286093,34.9284767 C50.2869168,34.7917997 50.0510973,34.4802879 50.0073503,34.1212609 L50,34 L50,24.219 L48.0167933,24.6150702 C48.6533655,27.4442046 49,30.5854735 49,34 C49,34.5264423 48.9917603,35.0463891 48.9754886,35.5596979 L52.7071068,39.2928932 C52.8888937,39.4746801 52.9925132,39.7181787 52.9996146,39.9719816 L52.9950372,40.0995037 L52.048,49.571 L57.6401844,54.2317787 C58.0318246,54.5581456 58.110795,55.1205366 57.8425391,55.5388324 L57.7682213,55.6401844 C57.4418544,56.0318246 56.8794634,56.110795 56.4611676,55.8425391 L56.3598156,55.7682213 L50.3598156,50.7682213 C50.1367478,50.5823315 50.0070833,50.310209 50.0002736,50.0238723 L50.0049628,49.9004963 L50.957,40.372 L48.8141283,38.2290744 C48.6012892,40.5892017 48.2101588,42.7890067 47.6640557,44.8125 L47.4502598,45.569068 C44.760381,54.671 35,60 32,60 C29,60 19.239619,54.671 16.5497402,45.569068 L16.3359443,44.8125 C15.7898412,42.7890067 15.3987108,40.5892017 15.1858717,38.2290744 L13.043,40.372 L13.9950372,49.9004963 L13.9997264,50.0238723 C13.9929167,50.310209 13.8632522,50.5823315 13.6401844,50.7682213 L13.6401844,50.7682213 L7.6401844,55.7682213 L7.53883241,55.8425391 C7.12053661,56.110795 6.55814556,56.0318246 6.23177872,55.6401844 L6.23177872,55.6401844 L6.15746088,55.5388324 C5.88920504,55.1205366 5.96817539,54.5581456 6.3598156,54.2317787 L6.3598156,54.2317787 L11.952,49.571 L11.0049628,40.0995037 L11.0003854,39.9719816 C11.0074868,39.7181787 11.1111063,39.4746801 11.2928932,39.2928932 L11.2928932,39.2928932 L15.0245114,35.5596979 C15.0082397,35.0463891 15,34.5264423 15,34 C15,30.5854735 15.3466345,27.4442046 15.9832067,24.6150702 L14,24.219 L14,34 L13.9926497,34.1212609 C13.9489027,34.4802879 13.7130832,34.7917997 13.3713907,34.9284767 L13.3713907,34.9284767 L8.37139068,36.9284767 L8.26061206,36.9655421 C7.77739126,37.0966155 7.26198576,36.8475468 7.07152331,36.3713907 L7.07152331,36.3713907 L7.03445785,36.2606121 C6.90338446,35.7773913 7.1524532,35.2619858 7.62860932,35.0715233 L7.62860932,35.0715233 L12,33.323 L12,23 L12.0066347,22.8836347 C12.0723275,22.3121242 12.6159987,21.9033958 13.1961161,22.0194193 L13.1961161,22.0194193 L16.4799749,22.6759411 L16.5497402,22.430932 C17.446835,19.3953692 18.9079079,16.7794593 20.6424714,14.6409249 L17.235,8.676 L13.4,5.8 L13.3043246,5.71850414 C12.946887,5.37329269 12.8941192,4.80784105 13.2,4.4 C13.5313708,3.9581722 14.1581722,3.86862915 14.6,4.2 L14.6,4.2 L18.6,7.2 L18.7030342,7.28884384 C18.7674614,7.35253544 18.8230866,7.42483714 18.8682431,7.50386106 L18.8682431,7.50386106 L22.0481223,13.0683247 C23.4466416,11.6482118 24.9573338,10.5072851 26.4561818,9.67018806 L23.2191312,5.62469505 L23.1468548,5.52187726 C22.8870169,5.09830105 22.977217,4.53760154 23.375305,4.21913119 C23.8065669,3.87412164 24.4358593,3.94404302 24.7808688,4.37530495 L24.7808688,4.37530495 L28.3095647,8.78583475 C29.6196137,8.26778777 30.8791629,8 32,8 C33.1208371,8 34.3803863,8.26778777 35.6904353,8.78583475 L39.2191312,4.37530495 C39.5641407,3.94404302 40.1934331,3.87412164 40.624695,4.21913119 C41.022783,4.53760154 41.1129831,5.09830105 40.8531452,5.52187726 L40.7808688,5.62469505 L37.5438182,9.67018806 C39.0426662,10.5072851 40.5533584,11.6482118 41.9518777,13.0683247 L45.1317569,7.50386106 C45.1769134,7.42483714 45.2325386,7.35253544 45.2969658,7.28884384 L45.4,7.2 L49.4,4.2 C49.8418278,3.86862915 50.4686292,3.9581722 50.8,4.4 Z M21.7680068,20.8431601 L21.4679929,20.8592425 C20.8096288,22.2396984 20.2686527,23.7643751 19.8948589,25.4209744 L19.7369651,26.1608803 C19.2597117,28.5308094 19,31.1550513 19,34 C19,36.8449487 19.2597117,39.4691906 19.7369651,41.8391197 L19.8948589,42.5790256 C21.4735909,49.5757332 26.3805684,54.2191719 30.0007693,55.5827806 L30.00072,23.8592459 C27.6135748,21.7151364 24.9026245,20.7208703 21.7680068,20.8431601 Z M34.000276,23.8583514 L34.0002262,55.5824056 C37.6203311,54.2183207 42.5265538,49.5750919 44.1051411,42.5790256 L44.2630349,41.8391197 C44.7402883,39.4691906 45,36.8449487 45,34 C45,31.1550513 44.7402883,28.5308094 44.2630349,26.1608803 L44.1051411,25.4209744 C43.7313473,23.7643751 43.1903712,22.2396984 42.5320071,20.8592425 C39.2698699,20.6590672 36.4627911,21.6469588 34.000276,23.8583514 Z M32,12 C29.6356465,12 26.5000824,13.7504824 23.939155,16.9190464 C26.8663276,17.2206269 29.5395628,18.3333359 31.9194291,20.2428971 L32,20.308 L32.0805709,20.2428971 C34.4603661,18.333393 37.1335127,17.2206934 40.0599794,16.9181422 C37.4999176,13.7504824 34.3643535,12 32,12 Z" id="Combined-Shape" fill="#000000" fill-rule="nonzero"></path>
    </g>
</svg>