<?xml version="1.0" encoding="UTF-8"?>
<svg width="64px" height="64px" viewBox="0 0 64 64" version="1.1" xmlns="http://www.w3.org/2000/svg" xmlns:xlink="http://www.w3.org/1999/xlink">
    <title>pest_weeds</title>
    <g id="pest_weeds" stroke="none" stroke-width="1" fill="none" fill-rule="evenodd">
        <path d="M21.9258025,7.21801758 C26.4704496,7.21801758 30.0161018,8.76076306 30.0161018,11.996523 C30.0161018,15.2322829 24.9581656,14.9689224 24.9581656,14.9689224 L24.9581656,14.9689224 L24.5158736,18.0546532 L23.2756808,17.989159 C23.4985831,25.5317844 26.2317564,36.871419 29.562009,45.0127601 C29.4189518,44.2694646 29.3771159,43.7613075 29.3898965,43.2843477 L29.4084021,42.7750694 C29.4158437,42.3154074 29.3804003,41.8845716 29.2553818,41.1028425 L29.2151423,40.8574173 C28.884765,38.8859756 29.3201644,37.2476326 30.5887222,34.4790884 L31.2125706,33.1281799 C31.9176594,31.5735805 32.1499485,30.8860993 32.1877722,30.1707181 L32.0590642,30.1691148 C28.0206605,30.1691149 31.9523289,24.2644916 31.9523289,24.2644916 C31.9523289,24.2644916 32.6841854,23.2383632 33.8836089,24.2644916 C33.8836089,25.2101732 37.7331674,29.9091172 34.1912364,30.1748187 C34.1598615,31.2305016 33.9035252,32.0361904 33.0685169,33.8792527 L32.563765,34.9733076 C31.3358813,37.6025609 30.9325428,39.0046564 31.1876367,40.5268636 C31.3813855,41.6830093 31.4266421,42.2809188 31.4040102,42.9748555 L31.3879202,43.4209942 C31.3844346,44.0905927 31.5472938,44.9801366 32.1608602,47.2156112 L33.8777625,43.0487129 L31.8054179,42.8886099 L35.4176298,40.2825885 L33.3386891,40.0097538 L37.1104043,37.4636961 L34.2915119,36.937215 L40.1025918,33.4185465 L38.3966252,31.6658082 L47.2928363,27.5079269 L44.2478808,37.4636961 L42.2283041,35.218656 L41.0620106,41.1166833 L38.3558499,39.1378819 L37.8227728,44.8883985 L35.3834505,42.9161932 L35.7504282,48.3471034 L34.2237529,45.7482777 L33.0048581,49.5160176 L36.0028752,49.1985876 L40.3940153,46.6927056 L37.7945899,46.3730992 L42.9592614,44.0273201 L40.1529613,43.0679013 L45.6840108,41.001553 L43.4047915,39.7477125 L52.4011419,38.6881544 L46.2836476,46.6783143 L44.8972874,44.1916206 L40.272289,52.2945122 L41.1255721,47.9831239 L35.1609852,52.9409207 L37.0672305,51.0814471 L32.4299057,51.1984675 C32.4217481,51.5323757 32.24655,51.8546299 31.9375724,52.0366262 C31.5325869,52.2751737 31.0282835,52.1958796 30.7142576,51.8736423 L28.8576035,53.2245489 L31.522989,54.3974384 L26.1922181,55.4701886 L29.3648962,56.1699647 L20.6287882,58.7819824 L22.6009935,52.6704845 L23.6737437,54.9371115 L25.2663789,51.0244816 L26.8596138,52.9433192 L29.7740676,50.2509502 C29.7243839,50.1562602 29.6747532,50.0607114 29.6251807,49.9643218 L24.6805338,48.6277334 L26.066894,50.9603204 L21.3285643,48.141428 L21.1750573,50.5807504 L16.5968306,43.1302635 L16.4900952,46.3754977 L13.8846735,37.6052104 L11.5988581,40.6375735 L12.6050486,29.3020401 L20.0621314,36.6050162 L16.0703495,36.2854098 L21.4077163,40.9170042 L18.3819492,41.503449 L23.4548763,44.4290768 L21.5012597,45.2817603 C21.5012597,45.2817603 24.8426195,45.1318491 26.066894,45.2817603 C26.5663754,45.3429212 26.066894,47.3924817 26.066894,47.3924817 L28.6909367,48.0350145 C24.8036108,39.5375811 21.4877952,26.4031449 21.2721458,17.8833193 L20.0401847,17.8201953 L20.2198359,15.2423568 C20.2198359,15.2423568 14.7889257,13.8092249 14.7889257,11.2163955 C14.7889257,8.62356616 17.3811554,7.21801758 21.9258025,7.21801758 Z" id="Combined-Shape" fill="#000000" fill-rule="nonzero"></path>
    </g>
</svg>