<?xml version="1.0" encoding="UTF-8"?>
<svg width="64px" height="64px" viewBox="0 0 64 64" version="1.1" xmlns="http://www.w3.org/2000/svg" xmlns:xlink="http://www.w3.org/1999/xlink">
    <title>pest_viruses_and_bacteria</title>
    <g id="pest_viruses_and_bacteria" stroke="none" stroke-width="1" fill="none" fill-rule="evenodd">
        <path d="M32,4 C34.209139,4 36,4.8954305 36,6 C36,6.83658897 34.9726935,7.55320779 33.514423,7.85168513 C33.5690928,10.7165696 33.9045366,12.8246665 34.521003,14.1757767 C36.1633398,14.405255 37.7352415,14.8572679 39.2047775,15.4998455 C40.0185109,14.781295 40.8776846,13.6615417 41.7817878,12.1415337 C40.7075753,11.2830249 40.1424805,10.3153943 40.4689111,9.75 C40.8831246,9.03256106 42.5759758,9.23446358 44.25,10.2009619 C45.9240242,11.1674602 46.9453025,12.5325611 46.5310889,13.25 C46.2133664,13.8003115 45.1433375,13.8097141 43.9065555,13.3480454 C43.0489444,14.8741782 42.5005842,16.16233 42.261387,17.2125587 C43.5409267,18.0990125 44.6981303,19.1487781 45.7052187,20.3303961 C47.1650576,20.3181878 48.9792984,19.7478883 51.1461791,18.620603 C50.5958847,17.0159545 50.6143988,15.6811751 51.2990381,15.2858984 C52.2556234,14.7336136 54.150377,16.2245623 55.5310889,18.6160254 C56.9118008,21.0074885 57.2556234,23.3938677 56.2990381,23.9461524 C55.5585537,24.3736713 54.2559023,23.576849 53.0646904,22.0857345 C51.0515105,23.3687874 49.6655757,24.6117258 48.9064171,25.8145578 C49.3356461,26.9802688 49.6451874,28.2028895 49.8232705,29.4677221 C51.1250715,30.034088 53.184363,30.3172573 56,30.3172573 L55.6174281,30.3155428 C55.8948354,28.9654529 56.632991,28 57.5,28 C58.6045695,28 59.5,29.5670034 59.5,31.5 C59.5,33.4329966 58.6045695,35 57.5,35 C56.6488139,35 55.921821,34.0694646 55.6330745,32.7579867 C53.0833551,32.7793319 51.1841698,33.0311062 49.9356155,33.5130407 C49.7950071,35.2220895 49.414182,36.8626941 48.8281895,38.4021218 C49.604725,39.3424672 50.9070707,40.3712812 52.7330409,41.4874805 C53.4321144,40.7784975 54.1968309,40.4600505 54.6990381,40.75 C55.416477,41.1642136 55.3265033,42.6631983 54.4980762,44.0980762 C53.6696491,45.5329541 52.416477,46.360366 51.6990381,45.9461524 C51.1474905,45.6277163 51.0731333,44.6681676 51.4446345,43.5895035 C49.7016694,42.6402005 48.256042,42.0396658 47.107743,41.7872494 C46.0809208,43.3709596 44.8119617,44.7816019 43.3535814,45.9684225 C43.4976061,47.6142963 44.371173,49.8893865 45.9732471,52.7919537 C47.4920324,52.3117437 48.9196832,52.5570396 49.4641016,53.5 C50.1544576,54.6957316 49.1631705,56.560494 47.25,57.6650635 C45.3368295,58.769633 43.2262543,58.6957316 42.5358984,57.5 C42.0249631,56.6150341 42.4351547,55.3636037 43.4584706,54.3251093 C41.7668014,51.5048642 40.2646135,49.5986921 38.9521985,48.6064088 C37.3773156,49.2683911 35.6879637,49.7111022 33.9223958,49.8985513 C33.4459592,50.9567557 33.1943568,52.5295953 33.1672485,54.6163983 C34.5267983,54.8227825 35.5,55.3782278 35.5,56.0310889 C35.5,56.859516 33.9329966,57.5310889 32,57.5310889 C30.0670034,57.5310889 28.5,56.859516 28.5,56.0310889 C28.5,55.3956439 29.4219709,54.8524866 30.72389,54.6339124 C30.6994561,52.5325031 30.4605378,50.9509498 30.0072166,49.8890902 C27.9707761,49.6665802 26.0371935,49.1027823 24.2637116,48.2573349 C22.9973059,49.2728354 21.635467,50.9837583 20.1782732,53.3889228 C21.3806369,54.524498 21.9134497,55.855681 21.3971143,56.75 C20.7067584,57.9457316 18.4023168,57.9077042 16.25,56.6650635 C14.0976832,55.4224228 12.9125297,53.4457316 13.6028857,52.25 C14.1291893,51.3384154 15.5936016,51.1438931 17.2135361,51.653519 C18.6933968,48.9671945 19.5277686,46.8016774 19.717324,45.1570451 C18.8797598,44.3759553 18.1174915,43.5154144 17.4417198,42.5878221 C16.613905,42.9167228 15.6897821,43.3645815 14.6688793,43.92995 C15.1686812,45.2973275 15.0301029,46.5806963 14.25,47.0310889 C13.2934148,47.5833737 11.7344475,46.6740242 10.7679492,45 C9.80145088,43.3259758 9.79341475,41.5211958 10.75,40.9689111 C11.455279,40.5617181 12.488009,40.9490604 13.3693116,41.8516069 C14.3738387,41.2520883 15.2306613,40.6799685 15.939823,40.1352561 C15.1104795,38.5029335 14.523448,36.7269485 14.2251114,34.8547031 C12.7520246,34.3085161 10.5935761,34.0015474 7.75075705,33.9337197 C7.40974092,35.1665403 6.75353669,36 6,36 C4.8954305,36 4,34.209139 4,32 C4,29.790861 4.8954305,28 6,28 C6.9272419,28 7.70710499,29.2620073 7.93360556,30.9740546 C10.6043597,30.9046096 12.658408,30.6311529 14.0956626,30.1539974 C14.2511322,28.607082 14.6044631,27.1185917 15.1283708,25.7131903 C14.0769995,24.5309662 12.3627413,23.2229398 9.98664739,21.7893922 C8.91144571,22.9646589 7.55241596,23.4660518 6.60945554,22.9216334 C5.41372398,22.2312774 5.33982253,20.1207022 6.44439203,18.2075318 C7.54896153,16.2943613 9.41372398,15.3030742 10.6094555,15.9934301 C11.4944215,16.5043654 11.7649002,17.7932318 11.39793,19.2042522 C13.75584,20.5135981 15.6959995,21.3542548 17.2183198,21.7263909 C18.2109322,20.3003642 19.4045431,19.0252097 20.7580535,17.9414632 C20.4966557,16.8068596 19.9114592,15.4051999 19.0038928,13.7380395 C18.0439859,14.0025001 17.2224985,13.895925 16.932549,13.3937178 C16.5183355,12.6762788 17.3457474,11.4231068 18.7806252,10.5946797 C20.2155031,9.76625255 21.7144879,9.67627885 22.1287014,10.3937178 C22.4471376,10.9452654 22.0317585,11.8134376 21.1706969,12.5618374 C22.0900275,14.0664569 22.9437549,15.2153398 23.731657,16.0088845 C25.505598,15.0882538 27.4515603,14.4558319 29.5086065,14.171021 C30.1593096,12.8226303 30.5135408,10.7217344 30.5720324,7.86853294 C29.0676191,7.58101273 28,6.85284531 28,6 C28,4.8954305 29.790861,4 32,4 Z" id="Combined-Shape" fill="#000000" fill-rule="nonzero"></path>
    </g>
</svg>