<?xml version="1.0" encoding="UTF-8"?>
<svg width="64px" height="64px" viewBox="0 0 64 64" version="1.1" xmlns="http://www.w3.org/2000/svg" xmlns:xlink="http://www.w3.org/1999/xlink">
    <title>pest_ornamental</title>
    <g id="pest_ornamental" stroke="none" stroke-width="1" fill="none" fill-rule="evenodd">
        <path d="M21.4999996,10.6312362 C23.4999996,3.63123618 33.4999996,2.63123618 36.9999996,10.6312362 C42.9999996,5.13123618 51.9999996,9.13123618 51.4999996,18.1312362 C57.4999996,19.6312362 57.9999996,29.6312362 51.9999996,31.6312362 C51.9999996,32.6312362 50.9999996,33.6312362 49.4999996,33.6312362 C48.4999996,37.6312362 41.4999996,37.6312362 39.9999996,34.6312362 C37.1661972,37.0116301 35.9999996,38.1312362 36.9999996,46.1312362 C37.6666663,51.4645695 39.4999996,55.9645695 42.4999996,59.6312362 C39.4999996,59.6312362 36.8333329,58.9645695 34.4999996,57.6312362 C34.4999996,58.6312362 34.3333329,59.6312362 33.9999996,60.6312362 C32.8090614,58.8237225 31.4757281,57.8237225 29.9999996,57.6312362 C27.9999996,58.6312362 25.4999996,59.1312362 22.4999996,59.1312362 C25.4999996,57.1312362 27.3333329,53.6312362 27.9999996,48.6312362 C28.9999996,41.1312362 28.9999996,36.1312362 25.9999996,35.1312362 C24.9999996,36.1312362 22.4999996,36.6312362 20.4999996,35.1312362 C18.4999996,36.6312362 13.9999996,36.1312362 13.4999996,32.1312362 C5.99999958,31.6312362 6.49999958,19.1312362 15.4999996,19.6312362 C13.9999996,15.1312362 15.9999996,10.1312362 21.4999996,10.6312362 Z M34.4999996,30.1312362 C33.8333329,31.4645695 32.8333329,32.6312362 31.4999996,33.6312362 C32.1666663,33.9645695 32.8333329,34.6312362 33.4999996,35.6312362 C34.1666663,34.6312362 35.1666663,33.6312362 36.4999996,32.6312362 C35.8333329,32.2979028 35.1666663,31.4645695 34.4999996,30.1312362 Z" id="Path-193" fill="#000000" fill-rule="nonzero"></path>
    </g>
</svg>