<?xml version="1.0" encoding="UTF-8"?>
<svg width="64px" height="64px" viewBox="0 0 64 64" version="1.1" xmlns="http://www.w3.org/2000/svg" xmlns:xlink="http://www.w3.org/1999/xlink">
    <title>pest_crawling_insects</title>
    <g id="pest_crawling_insects" stroke="none" stroke-width="1" fill="none" fill-rule="evenodd">
        <path d="M52.556911,7.97819648 C53.0694943,8.18380968 53.3183428,8.76602299 53.1127296,9.27860631 C52.9071164,9.79118963 52.3249031,10.0400381 51.8123198,9.83442488 C45.3621448,7.24705797 40.2273516,7.62591524 36.3148944,9.78408227 C35.7882971,10.0745608 35.3221284,10.3799304 34.9165688,10.6871074 L34.9181189,12.6096448 L37.16,12.299 L39.1656486,10.6266183 C39.5896923,10.2727747 40.2202947,10.3296831 40.5741384,10.7537269 C40.9007633,11.1451519 40.8773982,11.7125795 40.538349,12.0758675 L40.4470298,12.1622166 L38.2218584,14.0190127 L37.7181162,14.2417918 L34.9181189,14.6286448 L34.9181189,16.8776448 L38.055,16.319 L41.7972121,13.6078318 C42.2443661,13.2836841 42.8696296,13.3834003 43.1937774,13.8305543 C43.4929907,14.2433119 43.4310417,14.8078314 43.0680419,15.1471892 L42.9710549,15.2271196 L39.0435664,18.074207 L38.6316531,18.2491301 L34.9181189,18.9086448 L34.9181189,20.2196448 L38.482,20.041 L42.496677,17.0877821 C42.9414992,16.7604418 43.5674606,16.8556797 43.8948009,17.3005018 C44.1969611,17.7111069 44.1390548,18.2760555 43.7784935,18.618003 L43.6820811,18.6986257 L39.4262887,21.8304218 L38.883543,22.0237514 L34.9181189,22.2216448 L34.9181189,22.8576448 L38.649,23.011 L43.3608446,20.7429133 C43.8584635,20.5033431 44.4560733,20.712533 44.6956434,21.210152 C44.9181014,21.6722267 44.7536183,22.220518 44.3305642,22.4883011 L44.2284047,22.5449508 L39.2916856,24.9216498 L38.8169845,25.0197935 L34.9181189,24.8596448 L34.9181189,25.6026448 L39.129,25.933 L44.2887241,24.6827288 C44.8254801,24.5526851 45.3660282,24.8823906 45.4960719,25.4191466 C45.6168268,25.917563 45.3411653,26.4192489 44.871412,26.5924957 L44.7596541,26.6264945 L39.4459933,27.9138731 L39.1324573,27.9389381 L34.9181189,27.6086448 L34.9181189,28.7026448 L39.595,29.194 L44.471734,28.9389981 C44.9838638,28.9120973 45.426203,29.2754347 45.5099765,29.7690587 L45.5228124,29.8851663 C45.5497132,30.3972961 45.1863757,30.8396353 44.6927518,30.9234088 L44.5766441,30.9362446 L39.6277655,31.1961961 L39.4708307,31.1920998 L34.9181189,30.7136448 L34.9181189,32.3536448 L39.2105283,32.3541262 L39.3262255,32.3608417 L44.6398863,32.9797737 C45.1884622,33.0436715 45.5813714,33.5401795 45.5174736,34.0887554 C45.4581399,34.5981473 45.0257903,34.9733165 44.5251082,34.973153 L44.4084919,34.9663428 L39.154,34.354 L34.9181189,34.3536448 L34.9181189,34.8226448 L39.4809043,36.1049637 L39.6820292,36.1858529 L45.9562831,39.5404645 C46.443324,39.8008673 46.6270505,40.4067901 46.3666478,40.893831 C46.1248452,41.3460833 45.5851197,41.5368043 45.1192976,41.3532497 L45.0132813,41.3041957 L38.836,38.001 L34.9181189,36.9006448 L34.9181189,38.6376448 L34.9932068,38.6626515 L39.5773032,40.469933 L39.8915139,40.6679459 L44.9498272,45.3718294 C45.3542635,45.7479274 45.3772363,46.3806755 45.0011383,46.7851119 C44.6539709,47.1584377 44.0881194,47.2067295 43.6850195,46.9161387 L43.5878559,46.836423 L38.668,42.261 L34.9181189,40.7826448 L34.9184487,42.5109331 C34.9257171,42.513162 34.9329744,42.5154782 34.9402194,42.5178823 L35.0487706,42.5610376 L38.9276214,44.3683192 L39.1702673,44.5279002 L43.0491181,47.981541 C43.4615958,48.3488018 43.4982514,48.9809049 43.1309905,49.3933827 C42.7919805,49.7741314 42.2273061,49.8346529 41.8180142,49.5528503 L41.7191489,49.4752551 L37.951,46.12 L34.9181189,44.7066448 L34.9188483,46.2245214 C35.0133832,46.2533581 35.1047014,46.2966129 35.1894473,46.354493 L35.2886037,46.4317159 L40.578,51.106 L50.9026612,54.7801998 C51.3858193,54.9521264 51.654612,55.4575258 51.5423031,55.9454492 L51.5095446,56.057577 C51.337618,56.5407352 50.8322186,56.8095279 50.3442951,56.6972189 L50.2321674,56.6644604 L39.7264399,52.9261109 L39.399515,52.7333326 L34.9181189,48.7726448 L34.9182576,51.3402913 C34.9182576,51.6718704 34.8654835,51.9903947 34.7679813,52.287673 C34.9153193,52.8290557 35.0877054,53.3605492 35.2846529,53.8662354 C35.8849411,55.4075472 36.6333026,56.4912697 37.4666,56.9468543 L37.6238232,57.0248738 C38.1281879,57.2498954 38.3546402,57.8411798 38.1296186,58.3455444 C37.904597,58.8499091 37.3133126,59.0763614 36.8089479,58.8513398 C35.3171029,58.1857553 34.2321376,56.6747368 33.4210069,54.5920617 L33.2180784,54.0427811 C32.8477703,54.215184 32.4353399,54.311165 32,54.311165 C31.5642672,54.311165 31.1514853,54.2150107 30.780919,54.0423141 L30.5789931,54.5920617 L30.5789931,54.5920617 C29.7678624,56.6747368 28.6828971,58.1857553 27.1910521,58.8513398 C26.6866874,59.0763614 26.095403,58.8499091 25.8703814,58.3455444 C25.6614328,57.8772058 25.8417653,57.3339211 26.2724157,57.0785336 L26.3761768,57.0248738 C27.2725738,56.6249475 28.0775409,55.5038792 28.7153471,53.8662354 C28.9122946,53.3605492 29.0846807,52.8290557 29.2334908,52.2874968 C29.1345165,51.9903947 29.0817424,51.6718704 29.0817424,51.3402913 L29.0817424,51.3402913 L29.0811189,48.7726448 L24.600485,52.7333326 L24.2735601,52.9261109 L13.7678326,56.6644604 C13.2475084,56.8496122 12.6756072,56.5779012 12.4904554,56.057577 C12.3185288,55.5744188 12.5405297,55.0467886 12.989722,54.8256351 L13.0973388,54.7801998 L23.421,51.106 L28.7113963,46.4317159 C28.8221269,46.3338678 28.9484712,46.2649939 29.0811517,46.2245214 L29.0811189,44.7066448 L26.048,46.12 L22.2808511,49.4752551 C21.9001024,49.8142651 21.3322174,49.8091097 20.9582428,49.4818856 L20.8690095,49.3933827 C20.5299995,49.0126339 20.5351549,48.4447489 20.862379,48.0707743 L20.9508819,47.981541 L24.8297327,44.5279002 L25.0723786,44.3683192 L28.9512294,42.5610376 C28.9940746,42.5410747 29.0376105,42.5244079 29.0815513,42.5109331 L29.0811189,40.7826448 L25.331,42.261 L20.4121441,46.836423 C20.0388183,47.1835904 19.4709546,47.1907211 19.0899887,46.8716638 L18.9988617,46.7851119 C18.6516943,46.411786 18.6445636,45.8439223 18.9636209,45.4629565 L19.0501728,45.3718294 L24.1084861,40.6679459 L24.4226968,40.469933 L29.0067932,38.6626515 L29.0811189,38.6376448 L29.0811189,36.9006448 L25.163,38.001 L18.9867187,41.3041957 C18.5344664,41.5459982 17.9797089,41.4048526 17.6942721,40.993503 L17.6333522,40.893831 C17.3915497,40.4415787 17.5326953,39.8868212 17.9440448,39.6013845 L18.0437169,39.5404645 L24.3179708,36.1858529 L24.5190957,36.1049637 L29.0811189,34.8226448 L29.0811189,34.3536448 L24.845,34.354 L19.5915081,34.9663428 C19.0821162,35.0256764 18.6176196,34.6911306 18.5027017,34.203815 L18.4825264,34.0887554 C18.4231927,33.5793635 18.7577386,33.1148669 19.2450542,32.999949 L19.3601137,32.9797737 L24.6737745,32.3608417 L24.7894717,32.3541262 L29.0811189,32.3536448 L29.0811189,30.7136448 L24.5291693,31.1920998 L24.3722345,31.1961961 L19.4233559,30.9362446 C18.8718315,30.9072745 18.4482175,30.4366907 18.4771876,29.8851663 C18.5040885,29.3730365 18.9117684,28.9711968 19.4114525,28.9395992 L19.528266,28.9389981 L24.404,29.194 L29.0811189,28.7026448 L29.0811189,27.6086448 L24.8675427,27.9389381 L24.5540067,27.9138731 L19.2403459,26.6264945 C18.7035899,26.4964507 18.3738844,25.9559027 18.5039281,25.4191466 C18.624683,24.9207303 19.0993931,24.6008423 19.5963497,24.6618072 L19.7112759,24.6827288 L24.87,25.933 L29.0811189,25.6026448 L29.0811189,24.8596448 L25.1830155,25.0197935 L24.7083144,24.9216498 L19.7715953,22.5449508 C19.2739763,22.3053807 19.0647864,21.7077709 19.3043566,21.210152 C19.5268145,20.7480772 20.0579904,20.534699 20.5311593,20.6983872 L20.6391554,20.7429133 L25.35,23.011 L29.0811189,22.8576448 L29.0811189,22.2216448 L25.116457,22.0237514 L24.5737113,21.8304218 L20.3179189,18.6986257 C19.8730967,18.3712854 19.7778588,17.745324 20.1051991,17.3005018 C20.4073594,16.8898967 20.9639661,16.7771623 21.3976746,17.0197102 L21.503323,17.0877821 L25.517,20.041 L29.0811189,20.2196448 L29.0811189,18.9086448 L25.3683469,18.2491301 L24.9564336,18.074207 L21.0289451,15.2271196 C20.5817912,14.9029719 20.4820749,14.2777083 20.8062226,13.8305543 C21.1054359,13.4177968 21.6612213,13.3010809 22.096655,13.5405179 L22.2027879,13.6078318 L25.944,16.319 L29.0811189,16.8776448 L29.0811189,14.6286448 L26.2818838,14.2417918 L25.7781416,14.0190127 L23.5529702,12.1622166 C23.1289264,11.808373 23.072018,11.1777706 23.4258616,10.7537269 C23.7524866,10.3623018 24.3149295,10.2837022 24.7330484,10.5522337 L24.8343514,10.6266183 L26.839,12.299 L29.0811189,12.6096448 L29.0834312,10.6871074 C28.6778716,10.3799304 28.2117029,10.0745608 27.6851056,9.78408227 C23.7726484,7.62591524 18.6378552,7.24705797 12.1876802,9.83442488 C11.6750969,10.0400381 11.0928836,9.79118963 10.8872704,9.27860631 C10.6816572,8.76602299 10.9305057,8.18380968 11.443089,7.97819648 C18.4589618,5.16391048 24.2208223,5.58903426 28.6511127,8.03284549 C28.95199,8.19881368 29.2314169,8.36538767 29.4894683,8.53003382 C29.99453,7.65650531 30.9277792,7.07427184 32,7.07427184 C33.0703512,7.07427184 34.002215,7.65989905 34.51004,8.52968698 C34.7677807,8.36586602 35.047578,8.19905198 35.3488873,8.03284549 C39.7791777,5.58903426 45.5410382,5.16391048 52.556911,7.97819648 Z M32,12.0876214 C31.7689713,12.0876214 31.5744208,12.2856796 31.5744208,12.5208738 L31.5744208,12.5208738 L31.5744208,49.4587379 C31.5744208,49.693932 31.7689713,49.8919903 32,49.8919903 C32.2310287,49.8919903 32.4255792,49.693932 32.4255792,49.4587379 L32.4255792,49.4587379 L32.4255792,12.5208738 C32.4255792,12.2856796 32.2310287,12.0876214 32,12.0876214 Z" id="Combined-Shape" fill="#000000" fill-rule="nonzero"></path>
    </g>
</svg>