<?xml version="1.0" encoding="UTF-8"?>
<svg width="64px" height="64px" viewBox="0 0 64 64" version="1.1" xmlns="http://www.w3.org/2000/svg" xmlns:xlink="http://www.w3.org/1999/xlink">
    <title>pest_roaches</title>
    <g id="pest_roaches" stroke="none" stroke-width="1" fill="none" fill-rule="evenodd">
        <path d="M20.6590578,13.0007177 L21.4598574,13.4017854 L24.347,17.263 L25.5604402,18.040714 L25.7166667,17.7665072 C26.1427171,18.4022898 26.942407,19.1801985 28.1055319,20.1002331 L28.3803922,20.3150718 C28.4058824,20.3404306 31.2352941,22.5212919 32.0637255,22.5212919 C32.8794118,22.5212919 35.7215686,20.3404306 35.7470588,20.3150718 C37.0598039,19.3007177 37.9519608,18.4511962 38.4107843,17.7665072 C38.4624023,17.8549651 38.5136026,17.9443493 38.5643718,18.0346405 L39.766,17.263 L42.6439382,13.4030637 L43.4456923,13.0007177 L48.0352941,13.0007177 C48.5875789,13.0007177 49.0352941,13.448433 49.0352941,14.0007177 C49.0352941,14.5135535 48.6492539,14.9362249 48.1519152,14.99399 L48.0352941,15.0007177 L43.947,15 L41.2607208,18.6050703 L40.9987619,18.8492126 L39.5750893,19.7621313 C39.5377699,19.7860621 39.4994604,19.8072006 39.4604062,19.8256006 C40.7281606,22.6737421 41.5851382,26.1516791 41.7286486,29.8243738 L43.816456,28.9306103 L45.0528525,29.3121625 L49.716,36.623 L54.4693027,39.1622659 C54.9216201,39.4039467 55.1124863,39.9436208 54.9290571,40.4094924 L54.8800317,40.5155219 C54.6383509,40.9678392 54.0986767,41.1587055 53.6328052,40.9752763 L53.5267757,40.9262508 L48.5434424,38.2635714 L48.1716573,37.9194164 L43.823,31.103 L42.1433479,31.8217821 C42.0142828,31.8770007 41.8800511,31.9029673 41.7480504,31.9026461 C41.740889,33.9355806 41.6950119,35.8389903 41.4313725,37.6858852 C41.3888371,37.9869351 41.3349161,38.2938935 41.2705129,38.6055126 C41.2841256,38.6079022 41.2970781,38.6120711 41.3099879,38.6165204 L41.4180353,38.660922 L46.5160745,41.1080512 L47.0714585,42.1632202 L45.356,53.195 L49.5574838,58.3012108 C49.8814075,58.6948741 49.8541385,59.2621275 49.5125974,59.6230739 L49.4206862,59.7087926 C49.0270229,60.0327163 48.4597695,60.0054472 48.0988231,59.6639062 L48.0131044,59.5719949 L43.5268299,54.1198418 L43.3108944,53.3307989 L44.981,42.59 L40.7531758,40.5601843 C38.8985563,46.3968198 34.2650943,52.9138756 32.0637255,52.9138756 C29.8612286,52.9138756 25.2241453,46.3994188 23.3714262,40.5552348 L19.132,42.59 L20.7912325,53.3318708 L20.5751309,54.1198418 L16.0888564,59.5719949 C15.737939,59.9984635 15.1077432,60.0597099 14.6812746,59.7087926 C14.2876113,59.3848688 14.2051432,58.82298 14.4707912,58.4030232 L14.544477,58.3012108 L18.746,53.195 L17.0430813,42.1621484 L17.5986314,41.1080512 L22.6966706,38.660922 C22.7487232,38.635936 22.8018631,38.6158561 22.855567,38.6004985 C22.791961,38.2917702 22.7383874,37.9859334 22.6960784,37.6858852 C22.4435609,35.8399906 22.3896544,33.9282334 22.3795636,31.9019827 C22.2807638,31.9040979 22.1801195,31.8908344 22.0812246,31.8614693 L21.971358,31.8217821 L20.291,31.102 L15.9430485,37.9194164 L15.5703275,38.2640709 L10.5742491,40.9267503 C10.0868622,41.186505 9.48118434,41.0019727 9.22142962,40.5145859 C8.98022882,40.0620124 9.12211223,39.507443 9.53384109,39.2225537 L9.63359406,39.1617664 L14.396,36.623 L19.0618534,29.3121625 L20.2982499,28.9306103 L22.3986069,29.8293898 C22.5414657,26.1565657 23.3979109,22.6782967 24.6653821,19.8282288 C24.6577518,19.8272639 24.6495687,19.823402 24.6414194,19.8194194 L24.5396166,19.7621313 L23.115944,18.8492126 L22.8549396,18.6063486 L20.158,15 L16.0794118,15.0007177 C15.5665759,15.0007177 15.1439046,14.6146775 15.0861395,14.1173388 L15.0794118,14.0007177 C15.0794118,13.4878819 15.465452,13.0652105 15.9627906,13.0074454 L16.0794118,13.0007177 L20.6590578,13.0007177 Z M28.1509804,50.9739234 C28.9794118,51.9882775 29.7696078,52.7744019 30.4578431,53.2308612 C30.05,54.8411483 29.2470588,55.9696172 28.5588235,55.842823 C27.7941176,55.6906699 27.4754902,54.0423445 27.8323529,52.15311 C27.9215686,51.734689 28.0235294,51.3416268 28.1509804,50.9739234 Z M35.8745098,51.0753589 C35.9892157,51.4050239 36.0911765,51.7727273 36.154902,52.15311 C36.5117647,54.0550239 36.1931373,55.7033493 35.4284314,55.842823 C34.7529412,55.9696172 33.9627451,54.8665072 33.5421569,53.2942584 C34.2431373,52.8631579 35.0460784,52.0770335 35.8745098,51.0753589 Z M53.4840361,13.6703317 L53.5671251,14.3667944 L53.7959556,16.4756556 L53.91084,17.4619718 C53.9582224,17.8490472 54.0054182,18.2084614 54.0549995,18.5574665 C54.7414573,23.3894731 55.9605605,26.1360302 58.257788,27.0580898 C58.7703274,27.2638125 59.0190515,27.8460789 58.8133288,28.3586183 C58.6076061,28.8711577 58.0253396,29.1198817 57.5128002,28.914159 C54.3195143,27.6324402 52.8556118,24.3343668 52.0748815,18.8387714 L51.9748607,18.0976902 C51.9421734,17.8430186 51.9098746,17.5789445 51.877171,17.3001935 L51.5388299,14.2284631 C50.8598303,8.29166714 45.9616442,6.1255553 40.6442527,7.31790232 C39.2038775,7.64234457 38.0691585,8.2100291 36.927807,9.07043606 L35.1808395,10.4850977 C35.0736292,10.5699334 34.9752317,10.6465429 34.8907646,10.7103922 C34.9220122,10.7818572 34.9472757,10.856452 34.9696078,10.9322967 C34.890016,10.8961991 34.8093492,10.8615987 34.7276569,10.8285249 L34.6991908,10.8492093 L34.6991908,10.8492093 C34.2408876,11.1573921 33.6195279,11.0356955 33.3113451,10.5773923 C33.2768291,10.5260629 33.2477053,10.4726882 33.2238427,10.4179372 C32.8465255,10.354872 32.4533632,10.3236842 32.0509804,10.3236842 C31.6080882,10.3236842 31.1786005,10.3636902 30.7643879,10.4381191 C30.7445462,10.4866828 30.7186345,10.5328091 30.6886549,10.5773923 C30.3835539,11.0311125 29.7715083,11.1549245 29.3146068,10.8583259 L29.1323529,10.9322967 C29.1488551,10.8762521 29.1669578,10.82089 29.1866078,10.766261 L29.0973129,10.7013654 C28.9065566,10.5567112 28.6480569,10.349969 28.3781382,10.1310399 L28.0523593,9.86566914 C27.620292,9.51255842 27.2166683,9.17934867 27.072193,9.07043606 C25.9308415,8.2100291 24.7961225,7.64234457 23.3566882,7.31811377 C18.0383558,6.1255553 13.1401697,8.29166714 12.4611214,14.2288881 L12.1722871,16.8704 L12.0251393,18.0976902 C11.9924519,18.3523618 11.9593761,18.5976307 11.9251185,18.8387714 C11.1443882,24.3343668 9.68048569,27.6324402 6.48719978,28.914159 C5.97466039,29.1198817 5.39239394,28.8711577 5.18667124,28.3586183 C4.98094854,27.8460789 5.22967261,27.2638125 5.74221199,27.0580898 C8.03943949,26.1360302 9.2585427,23.3894731 9.94500046,18.5574665 L10.0417445,17.8404658 C10.0575925,17.7169486 10.0733659,17.5909969 10.08916,17.4619718 L10.474124,14.0012019 C11.3136376,6.66095992 17.4550001,3.94508144 23.7952331,5.36678667 C25.5351719,5.75870517 26.9217236,6.45237819 28.2761237,7.47339164 L28.7702273,7.86778945 C28.8894432,7.96488151 29.0192409,8.07113955 29.152255,8.18006384 L29.5535815,8.50833582 C29.8177449,8.72385005 30.0653128,8.92403053 30.2373626,9.0568796 L30.4168378,9.18954666 L30.4512541,9.21574644 C30.916863,8.92929688 31.4654731,8.76411483 32.0509804,8.76411483 C32.6132694,8.76411483 33.1415295,8.91645606 33.594927,9.18224385 L33.7626374,9.0568796 C34.2596701,8.67309338 35.3869531,7.72738094 35.7238763,7.47339164 C37.0782764,6.45237819 38.4648281,5.75870517 40.2057078,5.36657523 C46.44895,3.96661923 52.5002151,6.57961038 53.4840361,13.6703317 Z M32.0509804,11.0844498 C35.5303922,11.0844498 38.3470588,13.442823 38.3343568,16.3590909 C38.3343568,17.7665072 32.777451,21.6337321 32.0509804,21.6337321 C31.3245098,21.6337321 25.7676471,17.7665072 25.7676471,16.3590909 C25.7676471,13.442823 28.5843137,11.0844498 32.0509804,11.0844498 Z" id="Combined-Shape" fill="#000000" fill-rule="nonzero"></path>
    </g>
</svg>