<?xml version="1.0" encoding="UTF-8"?>
<svg width="64px" height="64px" viewBox="0 0 64 64" version="1.1" xmlns="http://www.w3.org/2000/svg" xmlns:xlink="http://www.w3.org/1999/xlink">
    <title>pest_ants</title>
    <g id="pest_ants" stroke="none" stroke-width="1" fill="none" fill-rule="evenodd">
        <path d="M43.8816819,4.11682826 C44.4086059,4.37327241 44.6473219,4.97615004 44.4547238,5.50943438 L44.4025564,5.63107524 L42.8565923,8.72535396 L44.4983668,16.8166248 L44.2561883,17.7612674 L38.8231218,24.2154869 L38.3677485,24.5426163 L36.308667,25.3565505 C36.4276519,26.1691808 36.4915047,27.029412 36.4915047,27.9196801 C36.4915047,29.4436493 36.3043975,30.8796015 35.973927,32.1394343 L37.2696343,32.8085269 L43.9383361,28.187535 L45.6591225,28.6903767 L49.297002,37.6018675 L53.5060196,40.4755667 C53.9863241,40.8035097 54.1340708,41.4289054 53.8708706,41.9271455 L53.7964638,42.0488107 C53.4642282,42.5229094 52.8306465,42.6687472 52.3258847,42.4089477 L52.202627,42.3355023 L47.7111224,39.2687856 L47.3002672,38.7614462 L44.0731905,30.8568151 L38.0149587,35.055572 L36.8254618,35.131926 L36.3401529,34.8802408 L36.8526459,35.4703631 L43.9306281,40.0902279 L44.4386328,40.9209347 L45.7445811,53.8126088 L48.9146925,58.2138262 C49.2531446,58.6836213 49.1762935,59.3212999 48.7569291,59.7012834 L48.6449944,59.7906645 C48.1690499,60.1247436 47.5230245,60.0488855 47.1380672,59.6349394 L47.0475162,59.5244509 L43.7011544,54.8794659 L43.4948523,54.3366412 L42.2116349,41.6794298 L35.4524572,37.2674746 L35.215023,37.0607105 L34.1625671,35.8501863 C33.8832863,36.1597712 33.585892,36.4112534 33.2743987,36.5965469 L33.336,36.6578979 C33.7940571,37.11983 33.7940571,37.8640541 33.336,38.313155 C36.4106208,39.1235822 38.6289498,42.727604 38.1710475,47.7057766 C37.6366474,53.5312552 32.9797333,59.3695652 32,59.3695652 C31.0202667,59.3695652 26.3633525,53.5312552 25.8289525,47.7057766 C25.3714914,42.7324015 27.5851059,39.1305299 30.6594601,38.3191516 L30.6512762,38.313155 C30.1932191,37.8512227 30.1932191,37.1069986 30.6512762,36.6578979 L30.7174423,36.5916765 C30.4089142,36.4068558 30.1142743,36.157067 29.8374329,35.8501863 L28.7849769,37.0607105 L28.5475428,37.2674746 L21.7872195,41.6794298 L20.5051477,54.3366412 L20.2988456,54.8794659 L16.9524838,59.5244509 C16.5858274,60.0333957 15.870612,60.1525835 15.3550056,59.7906645 C14.8790611,59.4565854 14.7395642,58.8293465 15.0093045,58.3345263 L15.0853074,58.2138262 L18.2542733,53.8126088 L19.5613672,40.9209347 L20.0693718,40.0902279 L27.1462085,35.4703631 L27.6578575,34.8813716 L27.1745382,35.131926 L25.9850412,35.055572 L19.9256638,30.8568151 L16.6997328,38.7614462 L16.2888776,39.2687856 L11.797373,42.3355023 C11.2770431,42.6907739 10.5634581,42.5624177 10.2035361,42.0488107 C9.87130057,41.5747119 9.95654413,40.9380735 10.3808779,40.5635037 L10.4939804,40.4755667 L14.7018524,37.6018675 L18.3408774,28.6903767 L20.0616638,28.187535 L26.72922,32.8085269 L28.0260729,32.1394343 C27.6956025,30.8796015 27.5084953,29.4436493 27.5084953,27.9196801 C27.5084953,27.029412 27.572348,26.1691808 27.6913329,25.3565505 L25.6322515,24.5426163 L25.1768782,24.2154869 L19.7438116,17.7612674 L19.5016332,16.8166248 L21.142262,8.72535396 L19.5974435,5.63107524 C19.3376426,5.11095927 19.520164,4.48924793 20.0019015,4.18196803 L20.118318,4.11682826 C20.645242,3.86038412 21.2750912,4.04054719 21.5863931,4.51606051 L21.6523856,4.63097295 L23.3700999,8.06980169 L23.4659101,8.79183812 L21.8548083,16.7300859 L26.7544226,22.5501672 L28.1927535,23.1179928 C28.7712706,21.2611981 29.675362,19.8576712 30.743843,19.2320471 C30.6146169,18.9126961 30.6740696,18.5368398 30.9199302,18.2698723 C30.239221,18.4446736 29.7235546,18.7308538 29.3534477,18.8350132 C28.7936001,19.001822 28.195581,18.7195301 27.9538287,18.1806091 C27.7502477,17.7315084 27.661181,17.2310818 27.6739049,16.7434868 C28.2464763,16.6793295 28.6918096,16.1917344 28.6918096,15.6014877 C28.6918096,15.2935329 28.5772952,15.0240724 28.3864381,14.8187692 C28.4500572,14.7289491 28.5264001,14.6519604 28.6027429,14.5749717 L28.6027429,14.5749717 L29.3464316,13.7336817 L29.2926243,13.473161 C28.9020487,11.7336663 27.9773551,10.6118915 26.3600387,10.0990747 L26.1115925,10.0265484 L25.8845087,9.05527816 L25.9755561,8.97426426 L26.1941797,8.7639239 C26.3129733,8.64422946 26.4432954,8.50432894 26.5730212,8.35133238 C26.7935202,8.091279 26.9670257,7.8420341 27.0748516,7.62141808 C27.1333381,7.50175226 27.16897,7.39735197 27.1831305,7.31294683 L27.1901852,7.23538198 C27.1901852,6.92312802 27.4466304,6.66999619 27.7629715,6.66999619 C28.0793126,6.66999619 28.3357579,6.92312802 28.3357579,7.23538198 C28.3357579,7.52077342 28.2535917,7.81206221 28.10663,8.1127519 C27.9829044,8.36589931 27.814651,8.62268216 27.6108694,8.88206883 L27.4515123,9.07708091 L27.303152,9.24437811 L27.4467583,9.30760203 C28.8753879,9.97241532 29.797716,11.1232644 30.2703241,12.6917009 L30.8421334,12.0471759 C30.9211034,11.9988241 31.0024178,11.9558313 31.0855742,11.9181972 C30.8833527,11.7747795 30.7530667,11.5360419 30.7530667,11.2644574 C30.7530667,10.9436711 30.9439238,10.6613793 31.2111238,10.5330648 L31.2111238,10.5330648 L31.4892055,11.7804994 C31.8237364,11.7011786 32.1735846,11.6998223 32.5108742,11.7764308 L32.7888762,10.5330648 C33.0560762,10.6613793 33.2469333,10.9436711 33.2469333,11.2644574 C33.2469333,11.5325017 33.1200218,11.7685498 32.9230089,11.915311 C33.0117005,11.9513371 33.0987191,11.9962888 33.1833142,12.0471759 L33.1833142,12.0471759 L33.6046016,12.523126 C34.0915449,11.0406351 34.9981603,9.94836528 36.3751083,9.30760203 L36.5169931,9.24437811 L36.3703543,9.07708091 C36.1493711,8.81645683 35.9616662,8.55817865 35.8162392,8.30327798 L35.7152367,8.1127519 C35.5682749,7.81206221 35.4861087,7.52077342 35.4861087,7.23538198 C35.4861087,6.92312802 35.742554,6.66999619 36.0588951,6.66999619 C36.3400872,6.66999619 36.5739542,6.87000159 36.6224531,7.13375316 L36.6316814,7.23538198 C36.6316814,7.32944791 36.669033,7.46186361 36.747015,7.62141808 C36.8548409,7.8420341 37.0283464,8.091279 37.2488455,8.35133238 C37.3785712,8.50432894 37.5088933,8.64422946 37.6276869,8.7639239 L37.8463106,8.97426426 L37.937358,9.05527816 L37.7102741,10.0265484 C35.9149757,10.507299 34.9129378,11.677082 34.5131792,13.5464545 L35.4227047,14.5749717 C35.5117713,14.6776232 35.6008379,14.7674433 35.6771809,14.870095 C35.5244951,15.0753982 35.4227047,15.3191958 35.4227047,15.6014877 C35.4227047,16.1660715 35.8171428,16.6408351 36.3515427,16.7306552 C36.3642666,17.2310818 36.2751999,17.718677 36.0716189,18.1806091 C35.8298666,18.7195301 35.2445714,19.001822 34.6719999,18.8350132 C34.2928229,18.7283012 33.7608649,18.4305378 33.054949,18.2577881 L33.0433523,18.2447664 C33.3080075,18.5116606 33.3760618,18.8989295 33.2475149,19.2277306 C34.3194081,19.8495601 35.2270569,21.2558304 35.8072464,23.1179928 L37.2444317,22.5501672 L42.1440461,16.7300859 L40.5340899,8.79183812 L40.6299001,8.06980169 L42.3476144,4.63097295 C42.6273999,4.07084806 43.3142254,3.84065764 43.8816819,4.11682826 Z" id="Combined-Shape" fill="#000000" fill-rule="nonzero"></path>
    </g>
</svg>