<?xml version="1.0" encoding="UTF-8"?>
<svg width="64px" height="64px" viewBox="0 0 64 64" version="1.1" xmlns="http://www.w3.org/2000/svg" xmlns:xlink="http://www.w3.org/1999/xlink">
    <title>pest_moles</title>
    <g id="pest_moles" stroke="none" stroke-width="1" fill="none" fill-rule="evenodd">
        <g id="mole" transform="translate(32.500000, 32.500000) scale(-1, 1) rotate(45.000000) translate(-32.500000, -32.500000) translate(-3.000000, 18.000000)" fill="#000000" fill-rule="nonzero">
            <path d="M31.1403509,-1.13686838e-13 C38.6140351,-1.13686838e-13 43.5964912,3.14538492 47.3333333,3.14538492 C51.0701754,3.14538492 54.1842105,3.14538492 56.6754386,3.77446191 C59.1666667,4.40353889 64.7719298,8.80707778 66.0175439,9.43615477 C66.2282631,9.54257509 66.5102767,9.66699843 66.8334327,9.80942478 C66.6849021,11.4981793 66.6759926,13.2636912 66.8053736,15.0949588 C65.3902439,15.3162686 64.037959,15.4685276 63.5263158,15.7269246 C62.2807018,16.3560016 60.4058154,17.5261532 57.9210526,18.2432325 C57.7702584,18.2867503 57.6180753,18.3303108 57.4644344,18.3738829 C57.9805362,18.8063619 58.4200428,19.2802318 58.7811786,19.7960532 L58.9745639,20.0882686 L56.8675414,21.4308123 C56.4176894,20.7105164 55.6995719,20.06864 54.6994451,19.5148688 C55.1075257,19.8988352 55.5459845,20.3340797 56.0167275,20.8212363 L56.3280569,21.1460274 L54.5315922,22.8893615 L53.9839204,22.3222909 C53.0686334,21.389948 52.3135413,20.7022121 51.7407184,20.2684129 C52.2595064,20.8452239 52.7382275,21.5112036 53.1776318,22.2625965 L53.4072681,22.6696155 L51.2243109,23.8820813 C50.2875654,22.16141 49.1888406,21.0391819 47.9291133,20.4673692 C45.5196159,20.8444675 42.8040588,21.1595484 39.6970354,21.375718 C35.4401566,21.6718881 32.3247187,22.0490105 29.6335507,22.4042439 C29.8300746,22.5905156 30.0059728,22.788877 30.1622495,22.9987825 L30.3083433,23.2070272 L28.2355163,24.6028237 C27.8035391,23.9483347 26.8442025,23.3952017 25.3401644,22.9994982 L25.2566712,22.9780743 C25.1643412,22.9892597 25.0720255,23.0003288 24.9796854,23.011276 C25.4844352,23.3348904 25.9971821,23.6767389 26.5167895,24.0344453 L27.1831902,24.499242 L25.7554063,26.5612766 C24.0599144,25.3635359 22.4473145,24.3432002 20.9186024,23.500098 C21.9719314,24.5757291 23.259781,25.5823073 24.7825733,26.5181921 L25.289864,26.8222659 L24.0417626,29 C21.277333,27.3835915 19.119464,25.5312051 17.579932,23.436932 C14.8740042,23.3886968 12.7901033,23.1237908 11.8333333,22.9613099 C8.12900729,22.3322329 4.18456284,21.1789251 0,19.5013865 C2.49122807,18.6626172 3.73684211,17.8238479 3.73684211,16.9850786 C3.73684211,15.7269246 6.22807018,7.54892381 11.8333333,4.40353889 C17.4385965,1.25815397 23.6666667,-1.13686838e-13 31.1403509,-1.13686838e-13 Z M71,13.2106167 C71,14.1627712 69.414675,14.6345403 67.683729,14.9490791 C67.5470354,13.2691742 67.5517846,11.6901943 67.6950926,10.1967578 C69.2108587,10.9000986 71,11.9047616 71,13.2106167 Z M59.7894737,8.80707778 C59.10154,8.80707778 58.5438596,9.3703725 58.5438596,10.0652318 C58.5438596,10.760091 59.10154,11.3233857 59.7894737,11.3233857 C60.4774073,11.3233857 61.0350877,10.760091 61.0350877,10.0652318 C61.0350877,9.3703725 60.4774073,8.80707778 59.7894737,8.80707778 Z" id="Path-126"></path>
        </g>
    </g>
</svg>