<?xml version="1.0" encoding="UTF-8"?>
<svg width="64px" height="64px" viewBox="0 0 64 64" version="1.1" xmlns="http://www.w3.org/2000/svg" xmlns:xlink="http://www.w3.org/1999/xlink">
    <title>pick_list</title>
    <g id="pick_list" stroke="none" stroke-width="1" fill="none" fill-rule="evenodd">
        <polygon id="Path-170" fill="#000000" fill-rule="nonzero" points="32.8190569 20.6196585 33.7658032 20.6196585 34.2211914 20.8924016 34.4329924 21.3468474 34.4329924 51.1667048 35.3152931 54.0417699 35.3152931 54.4551434 35.1387665 54.7543848 34.83942 54.9535006 30.9439239 54.9535006 30.642979 54.7543848 30.4164185 54.4551434 30.4164185 54.0417699 31.2210204 51.1667048 31.2210204 21.3468474 31.4649622 20.8924016 32.0167263 20.6196585"></polygon>
        <polygon id="Path-171" fill="#000000" fill-rule="nonzero" points="14.5261475 18.1575882 16.2080322 20.9783318 17.241655 20.1086199 19.0886528 19.0824446 21.4066194 18.1575882 23.484275 17.4733644 25.7220561 17.054502 27.9986383 16.772863 29.609924 16.5271859 30.3940843 18.9964486 35.1991717 18.9964486 35.9950669 16.5271859 38.284709 16.5271859 41.0522667 16.772863 43.777995 17.054502 46.6278868 17.4733644 49.5616267 18.1575882 48.212264 17.1897757 46.9756256 16.3474804 45.4550596 15.6280235 43.9975523 14.9723038 41.2479756 14.1873864 38.4843926 13.59761 35.9950669 13.2913654 35.1991717 11.0234898 30.3940843 11.0234898 29.609924 13.2913654 26.9631228 13.59761 25.3620774 13.922617 24.0577739 14.1873864 21.4066194 14.8814298 19.0030346 15.621512 17.6177713 16.1690559 16.4644979 16.772863"></polygon>
    </g>
</svg>