<?xml version="1.0" encoding="UTF-8"?>
<svg width="64px" height="64px" viewBox="0 0 64 64" version="1.1" xmlns="http://www.w3.org/2000/svg" xmlns:xlink="http://www.w3.org/1999/xlink">
    <title>pick_date</title>
    <g id="pick_date" stroke="none" stroke-width="1" fill="none" fill-rule="evenodd">
        <path d="M13,8 L13.0003512,8.02300137 C13.0079012,8.34765432 13.1777778,12 17,12 C21,12 21,8 21,8 L40,8 L40.0003512,8.02300137 C40.0079012,8.34765432 40.1777778,12 44,12 C48,12 48,8 48,8 L56,8 L56,34.676 L52,31.701 L52,16 L8,16 L8,52 L28.2335533,52.0000142 C28.3674876,53.396297 28.5122854,54.8474743 28.6684757,56.3556952 L28.631,56 L4,56 L4,8 L13,8 Z M44,3 C45.6568542,3 47,4.34314575 47,6 L47,8 C47,9.65685425 45.6568542,11 44,11 C42.3431458,11 41,9.65685425 41,8 L41,6 C41,4.34314575 42.3431458,3 44,3 Z M17,3 C18.6568542,3 20,4.34314575 20,6 L20,8 C20,9.65685425 18.6568542,11 17,11 C15.3431458,11 14,9.65685425 14,8 L14,6 C14,4.34314575 15.3431458,3 17,3 Z" id="Combined-Shape-Copy-2" fill="#000000" fill-rule="nonzero"></path>
        <path d="M29.590148,55.7816945 L29.6035059,55.8855832 L29.6283061,56.045278 L29.6475104,56.1503523 L29.68985,56.3289949 C30.3867922,58.9684031 33.8343822,59.78883 35.6346649,57.6284908 L39.5156508,52.9710325 L42.8316847,59.1897056 C43.7546852,60.9203315 45.9387982,61.5252958 47.6206786,60.5161676 L54.7628423,56.2308693 L54.8618312,56.1674465 L55.0025618,56.0713306 L55.0983146,56.0016896 L55.2495532,55.8777087 C56.5225438,54.7723742 56.8112054,52.8811668 55.882852,51.4370615 L52.1736508,45.6660325 L57.9562851,44.5112516 C60.8691056,43.9286875 61.7134451,40.1704651 59.3299817,38.3981461 L31.4755434,17.6858715 C29.0828616,15.9066978 25.7163853,17.8188206 26.0190661,20.7850925 L29.590148,55.7816945 Z M30.1296508,21.6690325 L55.9106508,40.8400325 L48.51312,42.3192351 L48.3677937,42.3537419 C47.0849547,42.7078413 46.4877474,44.2186377 47.2226386,45.361905 L52.1986508,53.1030325 L46.0776508,56.7770325 L41.6463284,48.4673411 L41.5678452,48.3325935 C40.851642,47.2033074 39.2204628,47.0779092 38.3452332,48.1281091 L33.4306508,54.0240325 L30.1296508,21.6690325 Z" id="Path" fill="#000000" fill-rule="nonzero"></path>
    </g>
</svg>