<?xml version="1.0" encoding="UTF-8"?>
<svg width="64px" height="64px" viewBox="0 0 64 64" version="1.1" xmlns="http://www.w3.org/2000/svg" xmlns:xlink="http://www.w3.org/1999/xlink">
    <title>platform_android</title>
    <g id="platform_android" stroke="none" stroke-width="1" fill="none" fill-rule="evenodd">
        <path d="M43,22 C45.209139,22 47,23.790861 47,26 L47,26 L47,45 C47,46.8635652 45.7256022,48.429479 44.0007613,48.8737865 L44,55 L43.9953805,55.2168896 C43.8818181,57.8776933 41.6887547,60 39,60 C36.2385763,60 34,57.7614237 34,55 L34,55 L34,49 L30,49 L30,55 L29.9953805,55.2168896 C29.8818181,57.8776933 27.6887547,60 25,60 C22.2385763,60 20,57.7614237 20,55 L20,55 L20.0002435,48.8740452 C18.2748927,48.4300871 17,46.8639271 17,45 L17,45 L17,26 C17,23.790861 18.790861,22 21,22 L21,22 Z M26,49 L24,49 L24,55 L24.0067277,55.1166211 C24.0644928,55.6139598 24.4871642,56 25,56 C25.5522847,56 26,55.5522847 26,55 L26,55 L26,49 Z M40,49 L38,49 L38,55 L38.0067277,55.1166211 C38.0644928,55.6139598 38.4871642,56 39,56 C39.5522847,56 40,55.5522847 40,55 L40,55 L40,49 Z M43,26 L21,26 L21,45 L43,45 L43,26 Z" id="Rectangle" fill="#000000" fill-rule="nonzero"></path>
        <path d="M11,20 C8.14242766,20 6,21.9690592 6,25 L6,39 C6,42.0309408 8.14242766,44 11,44 C13.8575723,44 16,42.0309408 16,39 L16,25 C16,21.9690592 13.8575723,20 11,20 Z M11,24 C11.7202752,24 12,24.257089 12,25 L12,39 C12,39.742911 11.7202752,40 11,40 C10.2797248,40 10,39.742911 10,39 L10,25 C10,24.257089 10.2797248,24 11,24 Z" id="Rectangle-Copy-4" fill="#000000" fill-rule="nonzero"></path>
        <path d="M53,20 C50.1424277,20 48,21.9690592 48,25 L48,39 C48,42.0309408 50.1424277,44 53,44 C55.8575723,44 58,42.0309408 58,39 L58,25 C58,21.9690592 55.8575723,20 53,20 Z M53,24 C53.7202752,24 54,24.257089 54,25 L54,39 C54,39.742911 53.7202752,40 53,40 C52.2797248,40 52,39.742911 52,39 L52,25 C52,24.257089 52.2797248,24 53,24 Z" id="Rectangle-Copy-6" fill="#000000" fill-rule="nonzero"></path>
        <path d="M41.8,3.6 C42.7565852,4.15228475 43.0843356,5.37546556 42.5320508,6.33205081 L41.5435908,8.04495549 C44.9069946,10.565864 47,14.4612874 47,19 L47,19 L46.9945143,19.1492623 C46.9181651,20.1841222 46.0543618,21 45,21 L45,21 L19,21 C17.8954305,21 17,20.1045695 17,19 C17,14.4824221 19.0735584,10.6021564 22.4095064,8.08026096 L21.4,6.33205081 C20.8477153,5.37546556 21.1754656,4.15228475 22.1320508,3.6 C23.0886361,3.04771525 24.3118169,3.37546556 24.8641016,4.33205081 L24.8641016,4.33205081 L25.9011663,6.12838926 C27.749796,5.39900612 29.8084758,5 32,5 C34.1693956,5 36.208616,5.39098898 38.0427707,6.10639584 L39.0679492,4.33205081 C39.6202339,3.37546556 40.8434148,3.04771525 41.8,3.6 Z M32,9 C26.4756883,9 22.2470497,12.2345896 21.2329149,16.8316326 L21.2329149,16.8316326 L21.197,16.999 L42.802,16.999 L42.7670851,16.8316326 C41.772085,12.3213263 37.6827386,9.12254502 32.3113002,9.00344195 L32.3113002,9.00344195 Z" id="Path" fill="#000000" fill-rule="nonzero"></path>
        <circle id="Oval" fill="#000000" cx="27" cy="13" r="1.5"></circle>
        <circle id="Oval-Copy" fill="#000000" cx="37" cy="13" r="1.5"></circle>
    </g>
</svg>