<?xml version="1.0" encoding="UTF-8"?>
<svg width="64px" height="64px" viewBox="0 0 64 64" version="1.1" xmlns="http://www.w3.org/2000/svg" xmlns:xlink="http://www.w3.org/1999/xlink">
    <title>platform_ios</title>
    <g id="platform_ios" stroke="none" stroke-width="1" fill="none" fill-rule="evenodd">
        <path d="M48.9997039,7 C50.1917138,7 51.1190858,8.03613118 50.9874503,9.22086305 C50.6407716,12.3410039 49.7761583,14.9525904 48.4034809,17.0149186 L48.4138111,17.0135083 L48.9997039,17 C52.3411737,17 55.2435089,18.6584948 57.5996129,21.8 C58.2623476,22.6836556 58.0832634,23.9372583 57.1996171,24.6 C55.036585,26.2222912 53.999651,28.2961813 53.999651,31 C53.999651,33.496904 55.5200685,35.5241488 58.8940264,37.2111456 C59.8562093,37.6922422 60.2654722,38.8482659 59.8203224,39.8276059 C56.1637868,47.8720691 52.7864246,52 48.9997039,52 C47.0003305,52 45.4109215,51.6185378 43.5069806,50.8569534 L43.5069806,50.8569534 L41.7567604,50.1624501 L41.4300482,50.0474204 L41.2958089,50.0126122 L41.194741,49.9997145 L40.9210856,50.0015269 C40.8950772,50.0025961 40.86915,50.0042767 40.8428708,50.0067224 L40.8428708,50.0067224 L40.6775018,50.0318072 C40.6480801,50.037928 40.6174393,50.0451212 40.5851459,50.0535405 L40.5851459,50.0535405 L40.3680868,50.1199992 L40.0905586,50.2232605 L39.7317545,50.3707009 L38.1050431,51.0787196 C36.599023,51.706352 35.4361489,52 33.9998625,52 C28.4171869,52 21,42.2404403 21,32 C21,21.678048 25.9898651,17 32.9998731,17 C35.0382628,17 37.055132,17.4900655 39.0416306,18.4530405 C39.4457284,11.098162 42.8196918,7 48.9997039,7 Z M48.9997039,21 C46.7943972,21 44.5384144,21.8460025 42.1997758,23.6 C41.4886722,24.1333333 40.5109047,24.1333333 39.7998012,23.6 C37.4611626,21.8460025 35.2051798,21 32.9998731,21 C28.1433399,21 24.9999577,23.946952 24.9999577,32 C24.9999577,36.5316877 26.4927693,40.6589164 28.9672401,43.9148335 C30.8431448,46.3831552 33.1311085,48 33.9998625,48 C34.9256801,48 35.7302782,47.7645054 37.0625532,47.1723769 L37.0625532,47.1723769 L37.8438291,46.8276074 L38.4786443,46.5566141 L38.9989261,46.3508265 C39.5515266,46.1454446 39.9354729,46.0556924 40.3789119,46.0203254 L40.3789119,46.0203254 L40.7788933,46.0019013 L40.9997885,46 C41.7208154,46 42.4068597,46.1477649 43.1966555,46.4265193 L43.1966555,46.4265193 L43.497128,46.5396312 L44.9109742,47.108113 L45.5289259,47.3488085 C46.7479368,47.7944007 47.7596038,48 48.9997039,48 C50.1471488,48 51.8869075,46.2355277 53.9377755,42.6202454 L53.9377755,42.6202454 L54.4796569,41.6350871 L55.0345435,40.5656196 L55.3996362,39.826 L55.123755,39.6512707 C51.9272021,37.5387475 50.1643345,34.7913566 50.0106782,31.4772862 L50.0106782,31.4772862 L49.9996933,31 C49.9996933,27.7919802 51.0676855,25.0449218 53.1563681,22.8534294 L53.1563681,22.8534294 L53.1876596,22.82 L53.1425027,22.7753225 C51.9663543,21.6677821 50.7206296,21.0989684 49.3705275,21.0118574 L49.3705275,21.0118574 Z M46.52973,11.436 L46.4155797,11.4833557 C44.7552317,12.219326 43.7150277,13.8201745 43.2626847,16.4520037 L43.2626847,16.4520037 L43.215765,16.748 L43.3221212,16.6729058 C44.7612716,15.5756941 45.7897238,13.9818181 46.4200067,11.8396113 L46.4200067,11.8396113 L46.52973,11.436 Z" id="Combined-Shape" fill="#000000" fill-rule="nonzero"></path>
        <path d="M31.9989586,8 C33.1034839,8 33.9988785,8.8954305 33.9988785,10 L33.9988785,10 L33.9989141,16.0363513 C33.6664139,16.0121218 33.3333855,15.9999938 32.9998731,15.9999938 C31.9545908,15.9999938 30.9517344,16.0971659 29.9990345,16.2931305 L29.9990387,12 L9.99983979,12 L9.99983979,50 L27.6794085,50.0016092 C29.7743402,51.9079662 32.0120016,52.9999938 33.9998625,52.9999938 L33.998,52.999 L33.9988785,54 C33.9988785,55.0543618 33.1830334,55.9181651 32.148215,55.9945143 L31.9989586,56 L7.99991989,56 C6.89539464,56 6,55.1045695 6,54 L6,54 L6,10 C6,8.8954305 6.89539464,8 7.99991989,8 L7.99991989,8 Z M20.9993592,52 L18.9995194,52 C18.4472346,52 17.9995194,52.4477153 17.9995194,53 C17.9995194,53.5522847 18.4472346,54 18.9995194,54 L18.9995194,54 L20.9993592,54 C21.5516439,54 21.9993592,53.5522847 21.9993592,53 C21.9993592,52.4477153 21.5516439,52 20.9993592,52 L20.9993592,52 Z" id="Rectangle" fill="#000000" fill-rule="nonzero"></path>
    </g>
</svg>