<?xml version="1.0" encoding="UTF-8"?>
<svg width="64px" height="64px" viewBox="0 0 64 64" version="1.1" xmlns="http://www.w3.org/2000/svg" xmlns:xlink="http://www.w3.org/1999/xlink">
    <title>platform_macos</title>
    <g id="platform_macos" stroke="none" stroke-width="1" fill="none" fill-rule="evenodd">
        <path d="M47,4 C54.1797017,4 60,9.82029825 60,17 L60,47 C60,54.1797017 54.1797017,60 47,60 L17,60 C9.82029825,60 4,54.1797017 4,47 L4,17 C4,9.82029825 9.82029825,4 17,4 L47,4 Z M47,8 L17,8 C12.1181973,8 8.14420858,11.8868137 8.00383711,16.7346377 L8,17 L8,47 C8,51.8818027 11.8868137,55.8557914 16.7346377,55.9961629 L17,56 L47,56 C51.8818027,56 55.8557914,52.1131863 55.9961629,47.2653623 L56,47 L56,17 C56,12.1181973 52.1131863,8.14420858 47.2653623,8.00383711 L47,8 Z M18,20 C19.1045695,20 20,20.8954305 20,22 L20,24 C20,25.1045695 19.1045695,26 18,26 C16.8954305,26 16,25.1045695 16,24 L16,22 C16,20.8954305 16.8954305,20 18,20 Z M30.1840812,5.16188365 L33.8159188,6.83811635 C30.2487546,14.5669721 28.3188177,23.4187381 28.0363239,33.4066343 L28.022,34 L36,34 L36,36 C36,38.8796192 36.1573779,42.0818537 36.4725354,45.6054697 C40.7893278,44.9154741 43.7168008,43.3192475 45.3358994,40.8905996 C45.9486043,39.9715422 47.190343,39.7231945 48.1094004,40.3358994 C49.0284578,40.9486043 49.2768055,42.190343 48.6641006,43.1094004 C46.3256995,46.617002 42.3681332,48.7501331 36.8808408,49.5891922 C36.9300454,50.0230711 36.9819933,50.4625708 37.0360599,50.9063729 L37.2429509,52.5464103 L37.4686906,54.2246888 C37.507885,54.5075874 37.547865,54.7920786 37.5886309,55.0781619 L37.8426564,56.8137629 L37.9767434,57.6958856 L34.0232566,58.3041144 L33.8806327,57.3652907 L33.6109982,55.5184918 C33.5677942,55.2141186 33.525458,54.9114585 33.4839895,54.6105108 L33.245594,52.825371 C33.1198047,51.8517405 33.0035302,50.8968679 32.896776,49.9607355 C32.2792332,49.9873569 31.6470985,50 31,50 C22.3979692,50 16.4401869,47.7658317 13.3358994,43.1094004 C12.7231945,42.190343 12.9715422,40.9486043 13.8905996,40.3358994 C14.809657,39.7231945 16.0513957,39.9715422 16.6641006,40.8905996 C18.8931464,44.2341683 23.6020308,46 31,46 C31.5095369,46 32.0063174,45.9916232 32.4904097,45.9749312 C32.2547973,43.3516242 32.1044432,40.8956321 32.0385487,38.6047499 L32.023,38 L24,38 L24,36 C24,24.6866202 25.9528675,14.6321962 29.8706964,5.85237877 L30.1840812,5.16188365 Z M43,20 C44.1045695,20 45,20.8954305 45,22 L45,24 C45,25.1045695 44.1045695,26 43,26 C41.8954305,26 41,25.1045695 41,24 L41,22 C41,20.8954305 41.8954305,20 43,20 Z" id="Rectangle" fill="#000000" fill-rule="nonzero"></path>
    </g>
</svg>