<?xml version="1.0" encoding="UTF-8"?>
<svg width="64px" height="64px" viewBox="0 0 64 64" version="1.1" xmlns="http://www.w3.org/2000/svg" xmlns:xlink="http://www.w3.org/1999/xlink">
    <title>play</title>
    <g id="play" stroke="none" stroke-width="1" fill="none" fill-rule="evenodd">
        <g id="Group" transform="translate(4.000000, 4.000000)" fill="#000000" fill-rule="nonzero">
            <path d="M28,0 C43.463973,0 56,12.536027 56,28 C56,43.463973 43.463973,56 28,56 C12.536027,56 0,43.463973 0,28 C0,12.536027 12.536027,0 28,0 Z M28,4 C14.745166,4 4,14.745166 4,28 C4,41.254834 14.745166,52 28,52 C41.254834,52 52,41.254834 52,28 C52,14.745166 41.254834,4 28,4 Z" id="Oval"></path>
            <path d="M18,14.0030442 L18,41.9969558 C18,43.61465 19.8213697,44.56275 21.1469247,43.6350633 L41.1469247,29.6381076 C42.2843584,28.8420771 42.2843584,27.1579229 41.1469247,26.3618924 L21.1469247,12.3649367 C19.8213697,11.43725 18,12.38535 18,14.0030442 Z M22,17.8442088 L36.51,28 L22,38.1537916 L22,17.8442088 Z" id="Path-103"></path>
        </g>
    </g>
</svg>