<?xml version="1.0" encoding="UTF-8"?>
<svg width="64px" height="64px" viewBox="0 0 64 64" version="1.1" xmlns="http://www.w3.org/2000/svg" xmlns:xlink="http://www.w3.org/1999/xlink">
    <title>plus_outline</title>
    <g id="plus_outline" stroke="none" stroke-width="1" fill="none" fill-rule="evenodd">
        <path d="M32,14 C33.1045695,14 34,14.8954305 34,16 L34,29.999 L48,30 C49.1045695,30 50,30.8954305 50,32 C50,33.1045695 49.1045695,34 48,34 L34,34 L34,48 C34,49.1045695 33.1045695,50 32,50 C30.8954305,50 30,49.1045695 30,48 L30,34 L16,34 C14.8954305,34 14,33.1045695 14,32 C14,30.8954305 14.8954305,30 16,30 L30,30 L30,16 C30,14.8954305 30.8954305,14 32,14 Z" id="Combined-Shape" fill="#000000"></path>
        <path d="M32,4 C47.463973,4 60,16.536027 60,32 C60,47.463973 47.463973,60 32,60 C16.536027,60 4,47.463973 4,32 C4,16.536027 16.536027,4 32,4 Z M32,8 C18.745166,8 8,18.745166 8,32 C8,45.254834 18.745166,56 32,56 C45.254834,56 56,45.254834 56,32 C56,18.745166 45.254834,8 32,8 Z" id="Oval-2" fill="#000000" fill-rule="nonzero"></path>
    </g>
</svg>