<?xml version="1.0" encoding="UTF-8"?>
<svg width="64px" height="64px" viewBox="0 0 64 64" version="1.1" xmlns="http://www.w3.org/2000/svg" xmlns:xlink="http://www.w3.org/1999/xlink">
    <title>plus_filled</title>
    <g id="plus_filled" stroke="none" stroke-width="1" fill="none" fill-rule="evenodd">
        <path d="M32,4 C47.463973,4 60,16.536027 60,32 C60,47.463973 47.463973,60 32,60 C16.536027,60 4,47.463973 4,32 C4,16.536027 16.536027,4 32,4 Z M32,12 C29.790861,12 28,13.790861 28,16 L28,16 L28,28 L16,28 C13.790861,28 12,29.790861 12,32 C12,34.209139 13.790861,36 16,36 L16,36 L28,36 L28,48 C28,50.209139 29.790861,52 32,52 C34.209139,52 36,50.209139 36,48 L36,48 L36,36 L48,36 C50.209139,36 52,34.209139 52,32 C52,29.790861 50.209139,28 48,28 L48,28 L36,27.999 L36,16 C36,13.790861 34.209139,12 32,12 Z" id="Oval-2" fill="#000000"></path>
    </g>
</svg>