<?xml version="1.0" encoding="UTF-8"?>
<svg width="64px" height="64px" viewBox="0 0 64 64" version="1.1" xmlns="http://www.w3.org/2000/svg" xmlns:xlink="http://www.w3.org/1999/xlink">
    <title>preview</title>
    <g id="preview" stroke="none" fill="none" fill-rule="nonzero">
        <path d="M32,8 C44.8143334,8 54.1821518,14.4854128 59.8276231,27.1877231 C60.057459,27.7048538 60.057459,28.2951462 59.8276231,28.8122769 C57.9145119,33.1167772 55.5739392,36.7073505 52.8166393,39.5735477 L49.9902273,36.746273 C52.1070209,34.5343528 53.950928,31.8112819 55.5293725,28.5698334 L55.8,27.998 L55.5293725,27.4301666 C50.5915279,17.2899504 43.0558012,12.2227057 32.6949137,12.0071829 L32,12 C21.2804029,12 13.518202,17.0646122 8.47062747,27.4301666 L8.198,28 L8.47062747,28.5698334 C13.4084721,38.7100496 20.9441988,43.7772943 31.3050863,43.9928171 L32,44 C34.1646637,44 36.2087312,43.7934762 38.1342016,43.3784825 L41.4087705,46.6534077 C38.515289,47.5494973 35.3773489,48 32,48 C19.1856666,48 9.81784815,41.5145872 4.1723769,28.8122769 C3.94254103,28.2951462 3.94254103,27.7048538 4.1723769,27.1877231 C9.81784815,14.4854128 19.1856666,8 32,8 Z" id="Path-68" fill="#000000"></path>
        <path d="M32,16 C38.627417,16 44,21.372583 44,28 C44,29.7848906 43.6103114,31.4787645 42.9113722,33.0011836 L44,33 C44.530433,33 45.0391408,33.2107137 45.4142136,33.5857864 L59.4142136,47.5857864 C60.1952621,48.366835 60.1952621,49.633165 59.4142136,50.4142136 L54.4142136,55.4142136 C53.633165,56.1952621 52.366835,56.1952621 51.5857864,55.4142136 L37.5857864,41.4142136 C37.2107137,41.0391408 37,40.530433 37,40 L37.0011836,38.9113722 C35.4787645,39.6103114 33.7848906,40 32,40 C25.372583,40 20,34.627417 20,28 C20,21.372583 25.372583,16 32,16 Z M41,37 L41,39.1715729 L53,51.1715729 L55.1715729,49 L43.1715729,37 L41,37 Z M32,20 C27.581722,20 24,23.581722 24,28 C24,32.418278 27.581722,36 32,36 C34.0065121,36 35.8404911,35.2612978 37.2448175,34.0410129 C37.4288978,33.7049826 37.7049826,33.4288978 38.0391478,33.2455026 C39.2612978,31.8404911 40,30.0065121 40,28 C40,23.581722 36.418278,20 32,20 Z" id="Combined-Shape" fill="#000000"></path>
    </g>
</svg>