<?xml version="1.0" encoding="UTF-8"?>
<svg width="64px" height="64px" viewBox="0 0 64 64" version="1.1" xmlns="http://www.w3.org/2000/svg" xmlns:xlink="http://www.w3.org/1999/xlink">
    <title>price_increase_alt</title>
    <g id="price_increase_alt" stroke="none" stroke-width="1" fill="none" fill-rule="evenodd">
        <polygon id="Path-135" fill="#000000" fill-rule="nonzero" points="15.4599915 28 30.1862984 58.2615055 35.7328671 55.7245824 35.7328671 46.0552897 33.3828177 46.0552897 33.3828177 38.6765421 29.0354232 38.6033983 35.5412202 29.7152839 42.0619373 38.6033983 37.7095617 38.6033983 37.7095617 46.0552897 35.7328671 46.0552897 35.7328671 55.7245824 54.0190193 47.2186894 44.2451555 28"></polygon>
        <polygon id="Path-134" fill="#000000" fill-rule="nonzero" points="25.7695 6.10604171 15.5 10.8537114 15.4899902 28.0413499 24.8585098 28.1166841 24.7079211 20.4201233 23.8606054 20.4201233 23.3639351 20.2921283 22.9939259 20.1299055 22.5470533 19.8856819 22.2836908 19.6645268 22.0303371 19.352217 21.8414965 19.1194328 21.6412575 18.8589463 21.4035011 18.3969132 21.1394153 17.8321444 21.0174051 17.4115815 20.9485494 17.0117011 20.9542769 16.4210151 20.9592845 15.9045619 21.075697 15.4721812 21.2834219 15.0762286 21.5125407 14.7196791 21.781821 14.3006309 22.0957334 13.9757411 22.4010504 13.7320474 22.8813278 13.4465041 23.3639351 13.1595756 23.9530429 13.0383449 24.5626365 12.9706397 25.0439413 13.0383449 25.4700968 13.1595756 25.8034601 13.2881735 26.1835697 13.4132029 26.4749632 13.6027386 26.8489383 13.845989 27.1654561 14.1262162 27.3644088 14.3541862 27.5908085 14.7196791 27.7968538 15.0395372 27.9249173 15.3892784 28.0338337 15.6867289 28.1713184 16.0621995 28.1991608 16.3941881 28.2288042 16.7476527 28.1713184 17.1060417 28.1316378 17.4616081 28.0426823 17.761159 27.9302981 18.1396041 27.7968538 18.4717091 27.6728463 18.6810242 27.4443458 19.0160056 27.1654561 19.352217 26.9642229 19.496343 26.6201768 19.7765023 26.1835697 20.026934 25.9030041 20.2103364 25.4700968 20.2921283 24.7079211 20.4201233 24.8585098 28.1166841 44.1910533 27.9913688 38.9788771 16.9186127"></polygon>
        <polygon id="tag-edge" fill="#000000" fill-rule="nonzero" points="21.3355911 4.97339518 11.1003213 9.92532553 11.1485262 26.9040181 25.8438851 57.3993075 27.6459223 56.4047035 13.6182775 26.9284971 13.5651767 10.1961019 22.3068059 5.99726741"></polygon>
    </g>
</svg>