<?xml version="1.0" encoding="UTF-8"?>
<svg width="64px" height="64px" viewBox="0 0 64 64" version="1.1" xmlns="http://www.w3.org/2000/svg" xmlns:xlink="http://www.w3.org/1999/xlink">
    <title>price_increase</title>
    <g id="price_increase" stroke="none" stroke-width="1" fill="none" fill-rule="evenodd">
        <path d="M48,12 C45.790861,12 44,13.790861 44,16 C44,18.209139 45.790861,20 48,20 C50.209139,20 52,18.209139 52,16 C52,13.790861 50.209139,12 48,12 Z M48,14 C49.1045695,14 50,14.8954305 50,16 C50,17.1045695 49.1045695,18 48,18 C46.8954305,18 46,17.1045695 46,16 C46,14.8954305 46.8954305,14 48,14 Z" id="Oval-29" fill="#000000" fill-rule="nonzero"></path>
        <polygon id="Path-163" fill="#000000" fill-rule="nonzero" points="57.5 6.5 57.5 28.5849058 51.3924227 34.7496888 49.2612373 32.6382796 54.5 27.349 54.5 9.5 37.28 9.5 10.143 36.121 28.284 53.883 32.1016859 50.0206413 34.2357096 52.1291818 28.3199663 58.1164209 5.85694779 36.1234432 36.0551283 6.5"></polygon>
        <polygon id="Path-164" fill="#000000" fill-rule="nonzero" points="51.1265417 38.0264556 40.1217717 22.4100342 28.6599998 38.0264556 36.0775696 38.0264556 36.0775696 56.9722811 43.9270561 56.9722811 43.9270561 38.0264556"></polygon>
    </g>
</svg>