<?xml version="1.0" encoding="UTF-8"?>
<svg width="64px" height="64px" viewBox="0 0 64 64" version="1.1" xmlns="http://www.w3.org/2000/svg" xmlns:xlink="http://www.w3.org/1999/xlink">
    <title>pricing_table</title>
    <g id="pricing_table" stroke="none" stroke-width="1" fill="none" fill-rule="evenodd">
        <path d="M56,6 C57,6 58,7 58,8 L58,55.8333333 L58,55.8333333 C58,57.0299503 57.0299503,58 55.8333333,58 L8.16666667,58 C6.97004971,58 6,57.0299503 6,55.8333333 L6,8.16666667 C6,6.97004971 6.97004971,6 8.16666667,6 L56,6 L56,6 Z M22,48 L10,48 L10,54 L22,54 L22,48 Z M40,54 L40,48 L37.703,48 L38.2180271,47.7913358 L38.6131356,47.6139818 C39.9158893,47.0040882 41.0437001,46.2211184 42.0003562,45.2699451 L42,46 L54,46 L54,39 L44.9596826,39.0008825 C44.976081,38.8047731 44.9874918,38.6061405 44.9938881,38.404975 L45,38.0176626 C45,37.6674695 44.9891141,37.3280202 44.9676798,36.999235 L54,37 L54,30 L42,30 L42.0012611,30.4367251 C41.9880553,30.4252121 41.9748066,30.4137338 41.961515,30.4022902 L41.6878348,30.1763532 C40.6753061,29.3748226 39.4070246,28.7059054 37.8697056,28.1937402 L37.8697056,28.1937402 L37.478198,28.0667663 C37.3457252,28.0249429 37.2112452,27.9836131 37.0746472,27.9427543 L37.264,28 L40,28 L40.0011517,25.6430746 C40.7221703,25.6347314 41.390314,25.4599996 42.0008135,25.1071151 L42,28 L54,28 L54,20 L44.1671045,20.0005299 C43.9818466,19.2918148 43.616913,18.6208385 43.0435903,17.9999246 L54,18 L54,10 L42,10 L42.0016356,17.0689117 C41.412107,16.6058253 40.746277,16.1802146 40.0022254,15.7952776 L40,10 L24,10 L23.9999537,16.1863505 C23.2524362,16.6857359 22.5863985,17.2620411 22.0003653,17.9134131 L22,10 L10,10 L10,18 L21.9233586,17.9999605 C21.7773516,18.1658894 21.6364281,18.3365869 21.5005647,18.5120232 L21.2780314,18.8098755 C21.0047979,19.1890273 20.7616005,19.5858715 20.5490932,20.0006409 L10,20 L10,28 L19.9140788,28.001336 C19.9668858,28.1799939 20.0243099,28.3557603 20.0862941,28.5286472 L20.2135358,28.863645 C20.3723216,29.2590745 20.5550029,29.638415 20.7616246,30.0016348 L10,30 L10,37 L22,37 L21.9996452,31.688857 C22.0661059,31.7604989 22.1338558,31.8312725 22.2028957,31.9011774 L22.4686057,32.1599635 C22.9254741,32.5880826 23.4353424,32.9819032 23.9995711,33.3393093 L24.0008689,36.9235631 C23.8083927,36.897619 23.6116426,36.8846652 23.4106311,36.8846652 C22.1308391,36.8846652 21.0764672,37.3506448 20.2346375,38.2529313 C20.0117371,38.4918396 19.8197029,38.7410685 19.6579819,39.0004003 L10,39 L10,46 L21.9098509,46.0012667 C23.0949663,46.8800684 24.3206332,47.5447764 25.5832722,48.0022372 L24,48 L24,54 L40,54 Z M54,48 L42,48 L42,54 L54,54 L54,48 Z M28.034,37 L28.007,39 L27.7066523,39.0017152 C27.2795979,38.7452746 26.8501623,38.4480125 26.4161726,38.1099647 L26.0668102,37.8298718 C25.5582689,37.4187387 25.005379,37.1423417 24.4085516,36.9994798 L28.034,37 Z" id="Rectangle" fill="#000000" fill-rule="nonzero"></path>
        <path d="M32.5319149,52 C33.2695035,52 33.8865248,51.7480202 34.3829787,51.2440605 C34.8794326,50.7401008 35.1276596,50.1137509 35.1276596,49.3650108 L35.1276596,46.7030238 L35.3906383,46.6436285 C35.9208511,46.5140389 36.4389362,46.3520518 36.9448936,46.1576674 L37.4468085,45.9524838 C39.106383,45.2325414 40.4468085,44.1958243 41.4680851,42.8423326 C42.4893617,41.4888409 43,39.8761699 43,38.0043197 C43,36.5356371 42.787234,35.2901368 42.3617021,34.2678186 C41.9361702,33.2455004 41.2978723,32.3959683 40.4468085,31.7192225 C39.5957447,31.0424766 38.5248227,30.488121 37.2340426,30.0561555 C36.5886525,29.8401728 35.891844,29.6385889 35.143617,29.4514039 L35.1276596,29.4473542 L35.1276596,21.462743 L35.7340426,21.6760259 C35.9361702,21.7516199 36.1356383,21.8308135 36.3324468,21.9136069 L36.9148936,22.1727862 C37.6808511,22.5327574 38.2907801,22.9143269 38.7446809,23.3174946 C39.0851064,23.5766739 39.4680851,23.7062635 39.893617,23.7062635 C40.5460993,23.7062635 41.1134752,23.4470842 41.5957447,22.9287257 C42.0780142,22.4103672 42.3191489,21.8344132 42.3191489,21.2008639 C42.3191489,20.336933 41.9078014,19.5737941 41.0851064,18.9114471 C40.0921986,18.0475162 38.8085106,17.3347732 37.2340426,16.7732181 C36.7092199,16.5860331 36.1694247,16.4300456 35.6146572,16.3052556 L35.1276596,16.2062635 L35.1276596,14.6349892 C35.1276596,13.9694424 34.9427371,13.4005991 34.572892,12.9284591 L34.4255319,12.7559395 C33.9574468,12.2519798 33.3546099,12 32.6170213,12 C31.8794326,12 31.2624113,12.2519798 30.7659574,12.7559395 C30.2695035,13.2598992 30.0212766,13.8862491 30.0212766,14.6349892 L30.0212766,16.0726242 L29.8391489,16.0967603 C28.9285106,16.2349892 28.0604255,16.4596112 27.2348936,16.7706263 L26.7446809,16.9676026 C25.1276596,17.6587473 23.8439716,18.6666667 22.893617,19.9913607 C21.9432624,21.3160547 21.4680851,22.9143269 21.4680851,24.7861771 C21.4680851,26.024478 21.6666667,27.1403888 22.0638298,28.1339093 C22.4609929,29.1274298 23.0496454,29.9913607 23.8297872,30.7257019 C24.6099291,31.4600432 25.5815603,32.0647948 26.7446809,32.5399568 C27.6170213,32.8963283 28.5930851,33.1838553 29.6728723,33.4025378 L30.0212766,33.4686825 L30.0212766,41.9095572 L29.9095745,41.8920086 C29.3847518,41.799856 28.8996454,41.6708423 28.4542553,41.5049676 L28.1276596,41.3736501 C27.0638298,40.912887 25.9929078,40.2361411 24.9148936,39.3434125 C24.4893617,38.9978402 24.0070922,38.825054 23.4680851,38.825054 C22.7588652,38.825054 22.1702128,39.0770338 21.7021277,39.5809935 C21.2340426,40.0849532 21,40.6681066 21,41.3304536 C21,41.7336213 21.0992908,42.1367891 21.2978723,42.5399568 C21.4964539,42.9431246 21.7801418,43.3030958 22.1489362,43.6198704 C23.5957447,44.886969 25.1134752,45.7724982 26.7021277,46.2764579 C27.5847124,46.5564355 28.5285877,46.7586415 29.5337536,46.883076 L30.0212766,46.9352052 L30.0212766,49.3650108 C30.0212766,50.0305576 30.2118028,50.5994009 30.5928553,51.0715409 L30.7446809,51.2440605 C31.2269504,51.7480202 31.822695,52 32.5319149,52 Z M30,28 L29.7442833,27.9308044 L29.2771084,27.7943503 C28.2168675,27.4709353 27.4056225,27.0350282 26.8433735,26.486629 C26.2811245,25.9382298 26,25.2421846 26,24.3984934 C26,23.6954175 26.2409639,23.0767106 26.7228916,22.5423729 C27.2048193,22.0080352 27.9196787,21.5861896 28.8674699,21.2768362 C29.1044177,21.1994978 29.3549197,21.1318267 29.6189759,21.073823 L30,21 L30,28 Z M35.173913,40.9296967 L35.173913,34 L35.5002684,34.1523152 C36.1336554,34.4649104 36.6446592,34.8199836 37.0332797,35.2175349 L37.2173913,35.4198503 C37.7391304,36.0374163 38,36.7873178 38,37.6695549 C38,38.4047525 37.7246377,39.0590784 37.173913,39.6325325 C36.6231884,40.2059866 35.8985507,40.6618091 35,41 L35.173913,40.9296967 Z" id="$" fill="#000000" fill-rule="nonzero"></path>
    </g>
</svg>