<?xml version="1.0" encoding="UTF-8"?>
<svg width="32px" height="32px" viewBox="0 0 32 32" version="1.1" xmlns="http://www.w3.org/2000/svg" xmlns:xlink="http://www.w3.org/1999/xlink">
    <title>pricing</title>
    <g id="pricing" stroke="none" stroke-width="1" fill="none" fill-rule="evenodd">
        <path d="M16,8 C16.5522847,8 17,8.44771525 17,9 L17,10.132 L17.162,10.165 C17.5609333,10.253 17.9457867,10.38324 18.31656,10.55572 L18.592,10.693 C19.0466667,10.935 19.428,11.254 19.736,11.65 C19.8973333,11.87 19.9926667,12.134 20.022,12.442 C20.0513333,12.75 19.912,13.0286667 19.604,13.278 C19.384,13.454 19.1273333,13.531 18.834,13.509 C18.5406667,13.487 18.2986667,13.388 18.108,13.212 C17.8586667,12.8893333 17.525,12.6326667 17.107,12.442 C17.0724922,12.4262596 17.0375596,12.4111689 17.0022022,12.396728 L17.000018,15.1839512 C17.2497182,15.2604192 17.5017122,15.3437688 17.756,15.434 C18.2106667,15.5953333 18.6286667,15.808 19.01,16.072 C19.3913333,16.336 19.6993333,16.677 19.934,17.095 C20.1686667,17.513 20.286,18.0446667 20.286,18.69 C20.286,19.438 20.066,20.076 19.626,20.604 C19.186,21.132 18.636,21.5316667 17.976,21.803 C17.6543193,21.9352465 17.3291545,22.0352649 17.0005056,22.1030551 L17,23 C17,23.5522847 16.5522847,24 16,24 C15.4477153,24 15,23.5522847 15,23 L15.0003666,22.1493953 C14.4522444,22.079581 13.9041222,21.9494492 13.356,21.759 C12.4906667,21.4583333 11.772,20.9266667 11.2,20.164 C11.0533333,19.9586667 10.9873333,19.6946667 11.002,19.372 C11.0166667,19.0493333 11.2073333,18.7706667 11.574,18.536 C11.8086667,18.3893333 12.058,18.327 12.322,18.349 C12.586,18.371 12.8426667,18.5066667 13.092,18.756 C13.5173333,19.1813333 13.9646667,19.5113333 14.434,19.746 C14.6068366,19.8324183 14.7955854,19.9029244 15.0002464,19.9575183 L15.0010742,17.0189229 C14.7100648,16.9290802 14.4147067,16.8334392 14.115,16.732 C13.6383333,16.5706667 13.202,16.3616667 12.806,16.105 C12.41,15.8483333 12.0873333,15.5073333 11.838,15.082 C11.5886667,14.6566667 11.464,14.1213333 11.464,13.476 C11.464,12.7426667 11.6693333,12.1193333 12.08,11.606 C12.4906667,11.0926667 13.0223333,10.6966667 13.675,10.418 C14.1023934,10.2355174 14.5439378,10.1127834 14.9996332,10.0497981 L15,9 C15,8.44771525 15.4477153,8 16,8 Z M17.0025153,17.666595 L17.0016953,19.9807416 C17.231926,19.9224193 17.4356942,19.811172 17.613,19.647 C17.811,19.4636667 17.91,19.1813333 17.91,18.8 C17.91,18.4773333 17.8,18.2206667 17.58,18.03 C17.4229895,17.8939242 17.2304946,17.7727892 17.0025153,17.666595 Z M15,12.223 L14.951,12.233 C14.6943333,12.2843333 14.4706667,12.3943333 14.28,12.563 C14.0893333,12.7316667 13.994,12.9993333 13.994,13.366 C13.994,13.7033333 14.104,13.971 14.324,14.169 C14.544,14.367 14.841,14.5283333 15.215,14.653 L15,14.573 L15,12.223 Z" id="s-2" fill="#000000" fill-rule="nonzero" transform="translate(15.643000, 16.000000) rotate(45.000000) translate(-15.643000, -16.000000) "></path>
        <path d="M25,2 L18,2 C17.7347835,2 17.4804296,2.10535684 17.2928932,2.29289322 L2.29289322,17.2928932 C1.90236893,17.6834175 1.90236893,18.3165825 2.29289322,18.7071068 L13.2928932,29.7071068 C13.6834175,30.0976311 14.3165825,30.0976311 14.7071068,29.7071068 L29.7071068,14.7071068 C29.8946432,14.5195704 30,14.2652165 30,14 L30,7 C30,6.73478351 29.8946432,6.4804296 29.7071068,6.29289322 L25.7071068,2.29289322 C25.5195704,2.10535684 25.2652165,2 25,2 Z M24.585,4 L28,7.415 L28,13.584 L14,27.585 L4.415,18 L18.414,4 L24.585,4 Z" id="Path-84" fill="#000000" fill-rule="nonzero"></path>
        <circle id="Oval" fill="#000000" cx="24" cy="8" r="2"></circle>
    </g>
</svg>