<?xml version="1.0" encoding="UTF-8"?>
<svg width="64px" height="64px" viewBox="0 0 64 64" version="1.1" xmlns="http://www.w3.org/2000/svg" xmlns:xlink="http://www.w3.org/1999/xlink">
    <title>print</title>
    <g id="print" stroke="none" stroke-width="1" fill="none" fill-rule="evenodd">
        <g id="Group" transform="translate(4.000000, 4.000000)" fill="#000000">
            <rect id="Rectangle" x="16" y="46" width="8" height="4" rx="1"></rect>
            <rect id="Rectangle-Copy" x="16" y="40" width="14" height="4" rx="1"></rect>
            <path d="M44,0 C45.0256717,0 45.8710143,0.77208038 45.9865445,1.76675775 L46,2 L46,10 C46,11.1045695 45.1045695,12 44,12 C42.9743283,12 42.1289857,11.2279196 42.0134555,10.2332423 L42,10 L42,4 L14,4 L14,14 L54,14 C55.0256717,14 55.8710143,14.7720804 55.9865445,15.7667577 L56,16 L56,40 C56,41.0256717 55.2279196,41.8710143 54.2332423,41.9865445 L54,42 L46,42 L46,54 C46,55.0256717 45.2279196,55.8710143 44.2332423,55.9865445 L44,56 L12,56 C10.9743283,56 10.1289857,55.2279196 10.0134555,54.2332423 L10,54 L10,42 L2,42 C0.974328322,42 0.128985679,41.2279196 0.0134554627,40.2332423 L0,40 L0,16 C0,14.9743283 0.77208038,14.1289857 1.76675775,14.0134555 L2,14 L10,14 L10,2 C10,0.974328322 10.7720804,0.128985679 11.7667577,0.0134554627 L12,0 L44,0 Z M42,36 L14,36 L14,52 L42,52 L42,36 Z M52,18 L4,18 L4,38 L10,38 L10,36 C8.8954305,36 8,35.1045695 8,34 C8,32.9743283 8.77208038,32.1289857 9.76675775,32.0134555 L10,32 L46,32 C47.1045695,32 48,32.8954305 48,34 C48,35.0256717 47.2279196,35.8710143 46.2332423,35.9865445 L46,36 L46,38 L52,38 L52,18 Z M48,20 C49.1045695,20 50,20.8954305 50,22 C50,23.1045695 49.1045695,24 48,24 L44,24 C42.8954305,24 42,23.1045695 42,22 C42,20.8954305 42.8954305,20 44,20 L48,20 Z" id="Combined-Shape" fill-rule="nonzero"></path>
        </g>
    </g>
</svg>