<?xml version="1.0" encoding="UTF-8"?>
<svg width="64px" height="64px" viewBox="0 0 64 64" version="1.1" xmlns="http://www.w3.org/2000/svg" xmlns:xlink="http://www.w3.org/1999/xlink">
    <title>privacy</title>
    <g id="privacy" stroke="none" stroke-width="1" fill="none" fill-rule="evenodd">
        <path d="M59.4142136,4.58578644 C60.1541543,5.3257272 60.1930986,6.50121136 59.5310463,7.28699879 L59.4142136,7.41421356 L7.41421356,59.4142136 C6.63316498,60.1952621 5.36683502,60.1952621 4.58578644,59.4142136 C3.84584567,58.6742728 3.80690142,57.4987886 4.46895369,56.7130012 L4.58578644,56.5857864 L56.5857864,4.58578644 C57.366835,3.80473785 58.633165,3.80473785 59.4142136,4.58578644 Z M50.2053767,18.0286294 C54.1215631,21.1894878 57.3368746,25.583539 59.8276231,31.1877231 C60.057459,31.7048538 60.057459,32.2951462 59.8276231,32.8122769 C54.1821518,45.5145872 44.8143334,52 32,52 C27.1693826,52 22.8285366,51.0783822 18.9922382,49.2495308 C20.1375653,48.1026817 21.1666245,47.0734174 22.0801273,46.1597327 L22.0281991,46.2128102 C24.8229149,47.3315005 27.912551,47.922247 31.3050863,47.9928171 L31.3050863,47.9928171 L32,48 C42.7195971,48 50.481798,42.9353878 55.5293725,32.5698334 L55.5293725,32.5698334 L55.8,31.998 L55.5293725,31.4301666 C53.3286154,26.9107548 50.6118117,23.3990443 47.35884,20.8754473 L47.3518196,20.8830061 C48.0893495,20.1453293 48.8903625,19.3441567 49.7548586,18.4794884 Z M32,12 C36.8310364,12 41.1722164,12.9217777 45.00876,14.7509451 L41.9728008,17.7875901 C39.177822,16.6686404 36.0878535,16.0777614 32.6949137,16.0071829 L32.6949137,16.0071829 L32,16 C21.2804029,16 13.518202,21.0646122 8.47062747,31.4301666 L8.47062747,31.4301666 L8.198,32 L8.47062747,32.5698334 C10.67161,37.089708 13.3887446,40.6016749 16.6421593,43.1253279 L13.7956195,45.9721746 C9.87898219,42.8112573 6.66333655,38.4169361 4.1723769,32.8122769 C3.94254103,32.2951462 3.94254103,31.7048538 4.1723769,31.1877231 C9.81784815,18.4854128 19.1856666,12 32,12 Z M32,20 C34.226614,20 36.3115874,20.6064352 38.0987632,21.6631485 L35.1279998,24.6346334 C34.1671479,24.2260531 33.1099727,24 32,24 C27.581722,24 24,27.581722 24,32 C24,33.1103586 24.2262103,34.1678831 24.6350597,35.129002 L21.6643241,38.100751 C20.606885,36.3131335 20,34.2274396 20,32 C20,25.372583 25.372583,20 32,20 Z" id="Path-68" fill="#000000" fill-rule="nonzero"></path>
    </g>
</svg>