<?xml version="1.0" encoding="UTF-8"?>
<svg width="64px" height="64px" viewBox="0 0 64 64" version="1.1" xmlns="http://www.w3.org/2000/svg" xmlns:xlink="http://www.w3.org/1999/xlink">
    <title>processor_square</title>
    <g id="processor_square" stroke="none" fill="none" fill-rule="evenodd" stroke-width="1">
        <g id="Square,_Inc._logo" transform="translate(4, 24)" fill="#000000">
            <g id="Group" transform="translate(0, -0)">
                <path d="M2.33933636,9.84328544e-08 L11.6606636,9.84328544e-08 C12.2811818,-0.000179788203 12.8764364,0.246205371 13.3152727,0.684937371 C13.7541091,1.12366555 14.0007,1.71878646 14.0007,2.33933646 L14.0007,11.6599637 C14.0007,12.9523546 12.9529909,14.0000001 11.6606636,14.0000001 L2.33933636,14.0000001 C1.04724455,13.9996183 0,12.9521001 0,11.6599637 L0,2.33933646 C0,1.04735283 1.04735273,9.84328544e-08 2.33933636,9.84328544e-08 Z M10.7185273,11.4548637 C11.1263091,11.4548637 11.4569,11.1242728 11.4569,10.716491 L11.4548636,3.28416464 C11.4548636,2.87638919 11.1242727,2.54582373 10.7164909,2.54582373 L3.28484545,2.54582373 C3.08890909,2.54582373 2.90100364,2.62370828 2.76251818,2.76232101 C2.62403273,2.90093373 2.54632636,3.08890919 2.54650424,3.28484555 L2.54650424,10.716491 C2.54650424,11.1242728 2.87707,11.4548637 3.28484545,11.4548637 L10.7185273,11.4548637 Z" id="Shape"></path>
                <path d="M5.51482273,8.89814555 C5.28206636,8.8963001 5.09436603,8.70710919 5.09436603,8.47432737 L5.09436603,5.50735828 C5.09383,5.39459464 5.13824182,5.2862601 5.21779364,5.20633283 C5.29733909,5.12640555 5.40545727,5.08147192 5.51822091,5.08147192 L8.48928182,5.08147192 C8.60198182,5.0816501 8.70997273,5.12664101 8.78951818,5.2065301 C8.869,5.28642555 8.91348182,5.39465192 8.91310244,5.50735828 L8.91310244,8.47362737 C8.91348182,8.58632737 8.869,8.69457283 8.78951818,8.77443646 C8.70997273,8.85436373 8.60198182,8.89935464 8.48928182,8.89954555 L5.51482273,8.89814555 Z" id="Path"></path>
                <path d="M21.1246636,6.37610919 C20.6913,6.25792373 20.2810364,6.14652828 19.9624727,6.00456828 C19.3728818,5.74101828 19.0984818,5.3755801 19.0984818,4.85527646 C19.0984818,3.87172555 20.0494,3.42885464 20.9963091,3.42885464 C21.8962545,3.42885464 22.6821636,3.80108283 23.2099636,4.47625828 L23.2459182,4.52244555 L24.0066909,3.92742646 L23.9700364,3.88123283 C23.2683818,2.98870101 22.2291364,2.49964283 21.0424455,2.49964283 C20.2525273,2.49964283 19.5284091,2.71292646 19.0047455,3.10077737 C18.4151545,3.53209828 18.1040364,4.15768828 18.1040364,4.90418101 C18.1040364,6.63969101 19.7382818,7.06280919 21.0519909,7.40313646 C22.3812909,7.75364555 23.1957091,8.0199001 23.1957091,9.03330919 C23.1957091,10.0311274 22.3887364,10.6757637 21.1402545,10.6757637 C20.5228545,10.6757637 19.3796909,10.512091 18.6610455,9.41442737 L18.6277636,9.36275464 L17.8276,9.94216373 L17.8588455,9.98906373 C18.5381,11.0174274 19.7104727,11.6077183 21.0791636,11.6077183 C22.9382364,11.6077183 24.1880545,10.5582274 24.1880545,8.99735464 C24.1880545,7.21089101 22.4885818,6.74831828 21.1246636,6.37610919 Z" id="Path"></path>
                <path d="M30.2524091,6.01543101 L30.2524091,5.07603101 L31.1469455,5.07603101 L31.1469455,13.9986637 L30.2524091,13.9986637 L30.2524091,10.5127274 C29.7416,11.2130456 28.9754182,11.5961365 28.0747091,11.5961365 C26.3739,11.5961365 25.1851727,10.2342546 25.1851727,8.26782737 C25.1851727,6.30139373 26.3765727,4.92863646 28.0747091,4.92863646 C28.9693091,4.92863646 29.7354909,5.3137701 30.2524091,6.01543101 Z M26.1280091,8.25694555 C26.1280091,10.0773274 27.1706273,10.7260365 28.1466818,10.7260365 L28.1487182,10.7266728 C29.4264091,10.7266728 30.2524091,9.74858192 30.2524091,8.25694555 C30.2524091,6.76530919 29.4250727,5.80078555 28.1466818,5.80078555 C26.6584818,5.80078555 26.1280091,7.06961828 26.1280091,8.25694555 Z" id="Shape"></path>
                <path d="M37.0611818,5.07603101 L37.0611818,8.59790919 C37.0611818,9.8308001 36.2168545,10.7260365 35.0539636,10.7260365 C34.0880909,10.7260365 33.6180727,10.1527365 33.6180727,8.97425464 L33.6180727,5.07603101 L32.7234727,5.07603101 L32.7234727,9.15695464 C32.7234727,10.6852456 33.5541818,11.5974728 34.9452727,11.5974728 C35.812,11.5974728 36.5564818,11.2300365 37.0618182,10.5582274 L37.0618182,11.4521274 L37.9564182,11.4521274 L37.9564182,5.07603101 L37.0611818,5.07603101 Z" id="Path"></path>
                <path d="M39.641,5.74577192 C40.3005273,5.22750464 41.1957636,4.93067283 42.0957727,4.93067283 C43.5174727,4.93067283 44.3658091,5.63776828 44.3631427,6.82372737 L44.3631427,11.4535274 L43.4679,11.4535274 L43.4679,10.7464001 C43.0161455,11.312191 42.3627273,11.5988728 41.5218364,11.5988728 C40.1517455,11.5988728 39.2999727,10.8496183 39.2999727,9.64466373 C39.2999727,8.07761828 40.7766545,7.83172737 41.4057,7.72710919 C41.5082182,7.71018192 41.6141727,7.69389101 41.7200636,7.67753646 L41.7201909,7.67753646 L41.7240091,7.67696373 C42.5834182,7.54466373 43.4705727,7.40816373 43.4705727,6.67908192 C43.4705727,5.85376919 42.3993818,5.78992283 42.0713364,5.78992283 C41.4919273,5.78992283 40.6734364,5.96177283 40.1171273,6.44400919 L40.0662182,6.48817283 L39.5988727,5.77905373 L39.641,5.74577192 Z M40.2339636,9.59439101 C40.2339636,10.6160092 41.1957636,10.7266728 41.6094636,10.7266728 L41.6101,10.7266728 C42.5094727,10.7266728 43.4719727,10.2471728 43.4699396,8.89954555 L43.4699396,7.97707283 C43.0335818,8.25268192 42.4125545,8.36035464 41.8586,8.45638192 L41.8492455,8.45803646 L41.5714091,8.50760919 C40.6843182,8.67198192 40.2339636,8.88389101 40.2339636,9.59439101 Z" id="Shape"></path>
                <path d="M49.5458091,5.19625283 C49.3332,5.04478555 48.9983455,4.95444101 48.6491727,4.95444101 C47.9317364,4.96387192 47.2604364,5.30972919 46.8362364,5.88841283 L46.8362364,5.07331373 L45.9417,5.07331373 L45.9417,11.4487546 L46.8362364,11.4487546 L46.8362364,8.03892737 C46.8362364,6.52692737 47.6860364,5.8496901 48.5275636,5.8496901 C48.7739,5.8464001 49.0177545,5.89814919 49.2415,6.00116373 L49.3019545,6.0330901 L49.5852,5.2220701 L49.5458091,5.19625283 Z" id="Path"></path>
                <path d="M49.8079909,8.28138192 C49.8079909,6.30887101 51.0380818,4.93067283 52.7966727,4.93067283 C54.4906727,4.93067283 55.6746273,6.15399919 55.6712617,7.90847283 C55.6707455,8.06100919 55.6623455,8.21335464 55.6461182,8.36493646 L55.6406455,8.41724555 L50.7500636,8.41724555 C50.7724636,9.82125464 51.6174909,10.7266728 52.9141455,10.7266728 C53.6572909,10.7266728 54.3011636,10.4244637 54.7270818,9.8749001 L54.7657727,9.82469101 L55.4137818,10.4020001 L55.3778273,10.4454637 C54.9471364,10.9705274 54.1619273,11.5968365 52.8645727,11.5968365 C51.0373818,11.5968365 49.8079909,10.2648001 49.8079909,8.28138192 Z M52.7721727,5.78924192 C51.6792818,5.78924192 50.9042545,6.50853646 50.7833455,7.62866373 L54.7257455,7.62866373 C54.6483,6.72795464 54.0981,5.78924192 52.7721727,5.78924192 Z" id="Shape"></path>
            </g>
        </g>
    </g>
</svg>