<?xml version="1.0" encoding="UTF-8"?>
<svg width="64px" height="64px" viewBox="0 0 64 64" version="1.1" xmlns="http://www.w3.org/2000/svg" xmlns:xlink="http://www.w3.org/1999/xlink">
    <title>processor_stripe</title>
    <g id="processor_stripe" stroke="none" fill="none" fill-rule="evenodd" stroke-width="1">
        <g id="Stripe-wordmark---Slate" transform="translate(4, 20)" fill="#061B31">
            <g id="Group" transform="translate(0, 0.1219)">
                <path d="M56,11.7894117 C56,7.89007399 54.0711111,4.8132528 50.3844444,4.8132528 C46.6822222,4.8132528 44.4422222,7.89007399 44.4422222,11.7589482 C44.4422222,16.3437011 47.0866667,18.6589329 50.8822222,18.6589329 C52.7333333,18.6589329 54.1333333,18.2476747 55.1911111,17.6688667 L55.1911111,14.6225243 C54.1333333,15.1403899 52.92,15.4602574 51.38,15.4602574 C49.8711111,15.4602574 48.5333333,14.9424071 48.3622222,13.1450561 L55.9688889,13.1450561 C55.9688889,12.9470429 56,12.1549899 56,11.7894117 Z M48.3155556,10.3423919 C48.3155556,8.62121505 49.3888889,7.90530578 50.3688889,7.90530578 C51.3177778,7.90530578 52.3288889,8.62121505 52.3288889,10.3423919 L48.3155556,10.3423919 Z" id="Shape"></path>
                <path d="M38.4377778,4.8132528 C36.9133333,4.8132528 35.9333333,5.51391505 35.3888889,6.00133227 L35.1866667,5.05696141 L31.7644444,5.05696141 L31.7644444,22.8172111 L35.6533333,22.0099263 L35.6688889,17.6993303 C36.2288889,18.0953568 37.0533333,18.6589329 38.4222222,18.6589329 C41.2066667,18.6589329 43.7422222,16.4655555 43.7422222,11.6370939 C43.7266667,7.21987532 41.16,4.8132528 38.4377778,4.8132528 Z M37.5044444,15.3079396 C36.5866667,15.3079396 36.0422222,14.9880872 35.6688889,14.592076 L35.6533333,8.94106737 C36.0577778,8.49934552 36.6177778,8.19472499 37.5044444,8.19472499 C38.92,8.19472499 39.9,9.74835214 39.9,11.7437164 C39.9,13.784776 38.9355556,15.3079396 37.5044444,15.3079396 Z" id="Shape"></path>
                <polygon id="Path" points="26.4133333 3.91456207 30.3177778 3.09204552 30.3177778 0 26.4133333 0.807284921"></polygon>
                <polygon id="Path" points="30.3177778 5.0721932 26.4133333 5.0721932 26.4133333 18.3999925 30.3177778 18.3999925"></polygon>
                <path d="M22.2288889,6.19934552 L21.98,5.0721932 L18.62,5.0721932 L18.62,18.3999925 L22.5088889,18.3999925 L22.5088889,9.36755744 C23.4266667,8.19470975 24.9822222,8.40795479 25.4644444,8.57550446 L25.4644444,5.0721932 C24.9666667,4.88941174 23.1466667,4.5543124 22.2288889,6.19934552 Z" id="Path"></path>
                <path d="M14.4510956,1.76689519 L10.65554,2.55894817 L10.6399844,14.7596104 C10.6399844,17.0138998 12.3666511,18.6741647 14.6688733,18.6741647 C15.9444444,18.6741647 16.8777778,18.4456879 17.3911111,18.1715157 L17.3911111,15.079478 C16.8933333,15.277476 14.43554,15.9781382 14.43554,13.7238488 L14.43554,8.31656406 L17.3911111,8.31656406 L17.3911111,5.07220843 L14.43554,5.07220843 L14.4510956,1.76689519 Z" id="Path"></path>
                <path d="M3.93555556,8.94106737 C3.93555556,8.34702764 4.43333333,8.11856605 5.25777778,8.11856605 C6.44,8.11856605 7.93333333,8.46888194 9.11555556,9.09338525 L9.11555556,5.51391505 C7.82444444,5.01126605 6.54888889,4.8132528 5.25777778,4.8132528 C2.1,4.8132528 0,6.42782234 0,9.12384883 C0,13.3278223 5.91111111,12.6576237 5.91111111,14.4702064 C5.91111111,15.1708535 5.28888889,15.3993303 4.41777778,15.3993303 C3.12666667,15.3993303 1.47777778,14.88148 0.171111111,14.1808177 L0.171111111,17.8059528 C1.61777778,18.4152243 3.08,18.6741647 4.41777778,18.6741647 C7.65333333,18.6741647 9.87777778,17.1052905 9.87777778,14.3788157 C9.86222222,9.83974287 3.93555556,10.6470276 3.93555556,8.94106737 Z" id="Path"></path>
            </g>
        </g>
    </g>
</svg>