<?xml version="1.0" encoding="UTF-8"?>
<svg width="64px" height="64px" viewBox="0 0 64 64" version="1.1" xmlns="http://www.w3.org/2000/svg" xmlns:xlink="http://www.w3.org/1999/xlink">
    <title>processor_plaid</title>
    <g id="processor_plaid" stroke="none" fill="none" fill-rule="evenodd">
        <path d="M26.2038975,4 L8.87277678,8.49434415 L4.09650243,25.7509742 L10.0701217,31.8236471 L4,37.7960525 L8.4951068,55.1281781 L25.7511701,59.9020917 L31.8224832,53.9285067 L37.7961025,60 L55.1272232,55.5056558 L59.9023062,38.2478461 L53.9298783,32.1775325 L60,26.2051271 L55.5048932,8.87182188 L38.2464471,4.09790828 L32.1775168,10.0703137 L26.2038975,4 Z M15.5683772,11.8137889 L24.6979832,9.44511617 L28.6903242,13.5030017 L22.8680112,19.2312262 L15.5683772,11.8137889 Z M35.6099055,13.5572641 L39.6665816,9.56661681 L48.7568718,12.0815622 L41.3380989,19.379858 L35.6099055,13.5572641 Z M9.56616458,24.3342532 L12.0811846,15.2452973 L19.3784359,22.6627346 L13.5573143,28.3909591 L9.56616458,24.3330735 L9.56616458,24.3342532 Z M44.7681048,22.8679881 L52.1868777,15.567333 L54.5529742,24.6975755 L50.4974896,28.6894024 L44.7681048,22.8679881 Z M26.2992086,22.7181766 L32.1215216,16.9899522 L37.8485235,22.8125461 L32.0274019,28.5407705 L26.2992086,22.7181766 Z M16.989703,31.8779095 L22.8108246,26.1496851 L28.5414007,31.972279 L22.7178963,37.7005034 L16.989703,31.8779095 Z M35.4597907,32.027721 L41.2809123,26.2994966 L47.0091056,32.1220905 L41.1867926,37.8503149 L35.4597907,32.027721 Z M9.44464301,39.3024245 L13.5025104,35.309418 L19.2295124,41.1331915 L11.8131223,48.4303078 L9.44464301,39.3024245 Z M26.1490937,41.1874539 L31.9714067,35.4592295 L37.6996,41.2818234 L31.8784784,47.0100478 L26.1490937,41.1874539 Z M44.61799,41.338445 L50.440303,35.6102205 L54.432644,39.6669265 L51.9188154,48.7558823 L44.61799,41.338445 Z M15.2431282,51.9196175 L22.6607097,44.6189624 L28.3912858,50.4415563 L24.3334184,54.4345628 L15.2431282,51.9184378 L15.2431282,51.9196175 Z M35.3096758,50.4969983 L41.1307974,44.7687738 L48.4292401,52.1873907 L39.3008255,54.5548838 L35.3096758,50.4969983 Z" id="Shape" fill="#000000"></path>
    </g>
</svg>