<?xml version="1.0" encoding="UTF-8"?>
<svg width="64px" height="64px" viewBox="0 0 64 64" version="1.1" xmlns="http://www.w3.org/2000/svg" xmlns:xlink="http://www.w3.org/1999/xlink">
    <title>processor_square</title>
    <g id="processor_square" stroke="none" fill="none" fill-rule="evenodd" stroke-width="1">
        <g id="Group" transform="translate(8, 8)" fill="#000000">
            <path d="M8.02018081,3.37483221e-07 L39.9774193,3.37483221e-07 C42.1048039,-0.000616416694 44.1455745,0.844132695 45.6500811,2.34835668 C47.1545877,3.85256758 48,5.89298211 48,8.0205821 L48,39.9770182 C48,44.4080728 44.4080341,48.0000003 39.9774193,48.0000003 L8.02018081,48.0000003 C3.59037321,47.9986909 0,44.4072 0,39.9770182 L0,8.0205821 C0,3.59092395 3.5907441,3.37483221e-07 8.02018081,3.37483221e-07 Z M36.747399,39.2738182 C38.1454382,39.2738182 39.2788361,38.1403637 39.2788361,36.7422546 L39.2718546,11.259993 C39.2718546,9.86190572 38.1384567,8.72853846 36.7404175,8.72853846 L11.2617642,8.72853846 C10.590016,8.72853846 9.94580089,8.99557118 9.47101736,9.47081482 C8.99623382,9.94605845 8.72982533,10.5905457 8.73043516,11.2623275 L8.73043516,36.7422546 C8.73043516,38.1403637 9.86374681,39.2738182 11.2617642,39.2738182 L36.747399,39.2738182 Z" id="Shape"></path>
            <path d="M18.9070183,30.5079274 C18.1090364,30.5016001 17.4655245,29.8529456 17.4655245,29.0548365 L17.4655245,18.8823711 C17.4636868,18.4957529 17.6159483,18.1243202 17.8886837,17.8502838 C18.1613974,17.5762475 18.5320698,17.4221893 18.9186686,17.4221893 L29.1046539,17.4221893 C29.4910345,17.4228002 29.8612706,17.5770548 30.1339842,17.8509602 C30.4064797,18.1248875 30.5589811,18.4959493 30.5576805,18.8823711 L30.5576805,29.0524365 C30.5589811,29.4388365 30.4064797,29.8099638 30.1339842,30.0837819 C29.8612706,30.3578183 29.4910345,30.5120729 29.1046539,30.5127274 L18.9070183,30.5079274 Z" id="Path"></path>
        </g>
    </g>
</svg>