<?xml version="1.0" encoding="UTF-8"?>
<svg width="64px" height="64px" viewBox="0 0 64 64" version="1.1" xmlns="http://www.w3.org/2000/svg" xmlns:xlink="http://www.w3.org/1999/xlink">
    <title>processor_worldpay</title>
    <g id="processor_worldpay" stroke="none" fill="none" fill-rule="evenodd" stroke-width="1">
        <g id="Worldpay_logo" transform="translate(3.5, 25)" fill="#000000">
            <g id="svg20670" transform="translate(0.5378, 0.5451)">
                <path d="M14.4568768,2.87281771 C12.5501285,2.87281771 11.0569698,4.45669107 11.0569698,6.47908486 C11.0569698,8.50147865 12.5501285,10.0361148 14.4568768,10.0361148 C16.3636657,10.0361148 17.8568245,8.47321359 17.8568245,6.47908486 C17.8568245,4.48491492 16.3636657,2.87281771 14.4568768,2.87281771 Z M14.4568768,8.5829364 C13.4449992,8.5829364 12.6827064,7.67886655 12.6827064,6.47986771 C12.6827064,5.28086886 13.4457717,4.32760298 14.4568768,4.32760298 C15.4679819,4.32760298 16.2434471,5.25264501 16.2434471,6.47986771 C16.2434471,7.70709041 15.4751779,8.5829364 14.4568768,8.5829364 Z M26.1116623,0 L24.8417842,0 C24.7368927,0 24.6519224,0.0861136627 24.6519224,0.192416653 L24.6519224,9.63751975 C24.6519224,9.74341072 24.7372992,9.82993641 24.8417842,9.82993641 L26.1116623,9.82993641 C26.2165537,9.82993641 26.301524,9.74382274 26.301524,9.63751975 L26.301524,0.192416653 C26.301524,0.0865256898 26.2165537,0 26.1116623,0 Z M23.3605782,3.04788803 C23.0605397,2.98525991 22.5644193,2.87360056 21.8140793,2.87360056 C20.5036269,2.87360056 19.1871981,3.2848036 19.1871981,5.38412285 L19.1871981,9.6382614 C19.1871981,9.74456439 19.2721683,9.83067805 19.3770598,9.83067805 L20.6481169,9.83067805 C20.7530084,9.83067805 20.8379786,9.74456439 20.8379786,9.6382614 L20.8379786,5.42124649 C20.8379786,5.11428631 20.8908309,4.34853395 22.0254478,4.34853395 C22.4967683,4.34853395 22.954144,4.42640708 23.0488716,4.44124005 C23.149291,4.45772113 23.2379202,4.41651843 23.2647529,4.31763192 L23.5399914,3.27635705 C23.5725159,3.15728122 23.4993358,3.07652391 23.3607001,3.04850607 L23.3605782,3.04788803 Z M10.3093943,3.08085019 L8.95352961,3.08085019 C8.86937248,3.08085019 8.79578582,3.13812196 8.77423835,3.22052738 L7.4837072,7.84141124 L6.30144195,3.73045211 C6.19736358,3.34932705 5.85081512,3.08134463 5.45869173,3.08134463 L5.04034546,3.08134463 C4.64801879,3.08134463 4.30151099,3.34833818 4.19767655,3.73045211 L3.01535438,7.84141124 L1.72482323,3.22052738 C1.70449543,3.13853399 1.6296891,3.08085019 1.54553198,3.08085019 L0.189667254,3.08085019 C0.0628217385,3.08085019 -0.0302796172,3.20651846 0.00915632823,3.33136267 L1.85939331,9.2048913 C1.97770115,9.57983596 2.31717553,9.83100768 2.70490812,9.83100768 L3.25109189,9.83100768 C3.64138579,9.83100768 3.99110538,9.56607425 4.10254242,9.18676211 L5.25057564,5.25454033 L6.39860886,9.18676211 C6.50959869,9.56582704 6.85915566,9.83100768 7.25005938,9.83100768 L7.7962269,9.83100768 C8.18408146,9.83100768 8.52351518,9.57967115 8.6417417,9.2048913 L10.4919787,3.33136267 C10.5326343,3.2056944 10.4375002,3.08085019 10.3114678,3.08085019 L10.3093943,3.08085019 Z M55.7293989,3.08085019 L54.4337045,3.08085019 C54.4337045,3.08085019 54.2816525,3.08085019 54.2312395,3.20940265 L52.4534509,7.97029332 L50.6740766,3.20054406 C50.6456177,3.12596716 50.5667458,3.07982013 50.4878739,3.07982013 L49.1917729,3.07982013 C49.0141079,3.07982013 48.9567835,3.2269138 48.9990653,3.34186936 L51.6000489,9.95486302 L50.5487354,12.6453175 C50.4971027,12.7788143 50.5528009,12.9086029 50.7251807,12.9086029 L52.0057919,12.9086029 C52.0838507,12.9086029 52.1533718,12.8616318 52.1822373,12.7870549 L55.9042181,3.35810323 C55.9712998,3.1949405 55.8594969,3.0779248 55.730212,3.0779248 L55.7293989,3.08085019 Z M33.5723333,0.00107127045 L32.3024552,0.00107127045 C32.1975637,0.00107127045 32.1125935,0.0871849332 32.1125935,0.193487924 L32.1125935,3.02559736 C31.8662205,2.97285789 31.4299044,2.87397139 30.7189597,2.87397139 C28.1915628,2.87397139 27.6633244,5.17876855 27.6633244,6.43825297 C27.6633244,9.22273208 29.3149587,10.0380513 30.8590589,10.0380513 C32.1763008,10.0380513 33.0723506,9.71996637 33.5026496,9.52812656 C33.7620324,9.41481911 33.7620324,9.26154503 33.7620324,9.12681217 L33.7620324,0.193652734 C33.7620324,0.0877617711 33.6766556,0.00123608128 33.5721707,0.00123608128 L33.5723333,0.00107127045 Z M32.113,8.43514229 C32.113,8.43514229 31.6106186,8.58553217 31.0445705,8.58553217 C29.716189,8.58553217 29.3957414,7.63259591 29.3957414,6.50219958 C29.3957414,6.09923708 29.3542727,4.34185912 30.9816763,4.34185912 C31.5361782,4.34185912 32.1125935,4.49636928 32.1125935,4.49636928 L32.1125935,8.4354307 L32.113,8.43514229 Z M45.542769,2.87388898 C44.4162019,2.87388898 43.7828688,3.02345482 43.1686437,3.19856633 C43.0048016,3.24594945 42.9356871,3.36049298 42.982441,3.54796531 L43.1723027,4.32863305 C43.1966961,4.44111644 43.2991483,4.59439052 43.4820985,4.54741943 C43.8768645,4.44853293 44.4824299,4.25323209 45.3701452,4.25323209 C46.2578606,4.25323209 46.4879307,4.58821012 46.4879307,5.39129213 L45.3908389,5.39129213 C43.0569628,5.39129213 42.4076926,6.63948701 42.4076926,7.6613966 C42.4076926,8.95034096 43.026715,10.0375569 45.222484,10.0375569 C46.8764357,10.0375569 47.7004844,9.61436383 47.8851828,9.51634258 C48.0347955,9.43723338 48.1250509,9.37625337 48.1250509,9.11255603 L48.1250509,5.21865277 C48.1250509,3.45851423 47.0976023,2.87434221 45.542769,2.87434221 L45.542769,2.87388898 Z M46.4750428,8.53559449 C46.4750428,8.53559449 45.9670916,8.70699776 45.2760275,8.70699776 C44.3242389,8.70699776 44.0519683,8.22410201 44.0519683,7.72303586 C44.0519683,7.08480589 44.4667775,6.6729024 45.3755524,6.6729024 L46.4742297,6.6729024 L46.4742297,8.53551209 L46.4750428,8.53559449 Z M38.2070733,2.87388898 C36.889872,2.87388898 35.9937817,3.1919739 35.5634826,3.38381372 C35.3040998,3.49712117 35.3040998,3.65039525 35.3040998,3.78512811 L35.3040998,12.7174223 C35.3040998,12.8233132 35.3890701,12.9098389 35.4939615,12.9098389 L36.763799,12.9098389 C36.8682839,12.9098389 36.9536607,12.8233132 36.9536607,12.7174223 L36.9536607,9.88535405 C37.2000337,9.93809352 37.6363498,10.03698 38.3473351,10.03698 C40.8746914,10.03698 41.4029298,7.73218286 41.4029298,6.47265723 C41.4029298,3.68821933 39.7513361,2.87285892 38.2071952,2.87285892 L38.2070733,2.87388898 Z M38.0846999,8.56950432 C37.530198,8.56950432 36.9533761,8.41499416 36.9533761,8.41499416 L36.9533761,4.47589153 C36.9533761,4.47589153 37.4557575,4.32550164 38.0218056,4.32550164 C39.3501872,4.32550164 39.6706347,5.2783967 39.6706347,6.40883424 C39.6706347,6.81179674 39.7121034,8.5691747 38.0846999,8.5691747 L38.0846999,8.56950432 Z" id="path18708" fill-rule="nonzero"></path>
            </g>
        </g>
    </g>
</svg>