<?xml version="1.0" encoding="UTF-8"?>
<svg width="64px" height="64px" viewBox="0 0 64 64" version="1.1" xmlns="http://www.w3.org/2000/svg" xmlns:xlink="http://www.w3.org/1999/xlink">
    <title>processor_heartland</title>
    <g id="processor_heartland" stroke="none" fill="none" fill-rule="evenodd" stroke-width="1">
        <g id="layer" transform="translate(3.5031, 26.0307)" fill="#000000">
            <polygon id="Path" points="5.95186047 0 5.95186047 3.88960205 2.16069767 3.88960205 2.16069767 0 0 0 0 9.73042362 2.16069767 9.73042362 2.16069767 5.46854942 5.97837209 5.46854942 5.97837209 9.73042362 8.13906977 9.73042362 8.13906977 0"></polygon>
            <g id="Group" transform="translate(8.9079, 0)">
                <path d="M2.04139535,5.58408216 C2.08116279,4.78818999 2.45232558,4.05648267 3.36697674,4.05648267 C4.56,4.05648267 4.58651163,5.26315789 4.58651163,5.58408216 L2.04139535,5.58408216 Z M6.68093023,6.84210526 C6.70744186,6.27727856 6.73395349,5.27599487 6.27,4.35173299 C5.63372093,3.08087291 4.44069767,2.70860077 3.43325581,2.70860077 C2.6644186,2.70860077 2.00162791,2.92682927 1.45813953,3.27342747 C0.278372093,4.06931964 0,5.3915276 0,6.49550706 C0,7.58664955 0.265116279,8.49807445 0.901395349,9.15275995 C1.64372093,9.89730424 2.78372093,10 3.38023256,10 C4.41418605,10 5.32883721,9.73042362 5.84581395,9.20410783 C6.41581395,8.62644416 6.48209302,8.04878049 6.50860465,7.72785623 L4.62627907,7.72785623 C4.42744186,8.48523748 3.92372093,8.66495507 3.40674419,8.66495507 C1.97511628,8.66495507 1.97511628,7.29139923 1.97511628,6.84210526 L6.68093023,6.84210526 L6.68093023,6.84210526 Z" id="Shape" fill-rule="nonzero"></path>
                <path d="M11.5325581,6.53401797 C11.5325581,7.26572529 11.5060465,7.79204108 11.1481395,8.2156611 C10.9493023,8.4338896 10.6444186,8.60077022 10.2732558,8.60077022 C9.5972093,8.60077022 9.27906977,8.0872914 9.27906977,7.63799743 C9.26581395,6.82926829 10.2069767,6.41848524 11.5325581,6.53401797 M13.6534884,9.73042362 C13.534186,9.16559692 13.4811628,8.58793325 13.4811628,8.01026958 L13.467907,5.27599487 C13.467907,4.96790757 13.4546512,4.15917843 12.9774419,3.6071887 C12.2881395,2.8241335 11.0553488,2.73427471 10.472093,2.73427471 C9.80930233,2.73427471 8.98744186,2.83697047 8.33790698,3.28626444 C7.5955814,3.79974326 7.55581395,4.51861361 7.54255814,4.89088575 L9.58395349,4.89088575 C9.58395349,4.72400513 9.58395349,4.51861361 9.74302326,4.28754814 C9.92860465,4.03080873 10.2334884,3.91527599 10.5251163,3.91527599 C10.7239535,3.91527599 11.2674419,3.97946085 11.4397674,4.4801027 C11.5193023,4.72400513 11.5325581,4.94223363 11.5325581,5.37869063 C10.8565116,5.37869063 9.61046512,5.37869063 8.74883721,5.75096277 C7.44976744,6.32862644 7.26418605,7.32991014 7.26418605,7.8690629 C7.26418605,8.40821566 7.46302326,8.96020539 7.87395349,9.35815148 C8.15232558,9.61489089 8.61627907,9.89730424 9.62372093,9.89730424 C10.0081395,9.89730424 10.9493023,9.89730424 11.7181395,8.80616175 C11.7181395,9.01155327 11.7181395,9.31964056 11.7844186,9.73042362 L13.6534884,9.73042362 Z" id="Shape" fill-rule="nonzero"></path>
                <path d="M14.4753488,9.73042362 L16.53,9.73042362 L16.53,6.37997433 C16.53,5.53273427 16.6493023,4.49293967 18.7437209,4.68549422 L18.7437209,2.88831836 C17.0734884,2.81129653 16.6227907,3.63286264 16.3576744,4.21052632 L16.317907,2.90115533 L14.3825581,2.90115533 C14.4223256,3.28626444 14.4753488,4.27471117 14.4753488,4.59563543 L14.4753488,9.73042362 L14.4753488,9.73042362 Z" id="Path"></path>
                <path d="M23.012093,8.33119384 C22.7602326,8.35686778 22.6276744,8.36970475 22.3227907,8.36970475 C21.4081395,8.36970475 21.4081395,7.98459564 21.3948837,7.35558408 L21.3948837,4.28754814 L23.0651163,4.28754814 L23.0651163,2.96534018 L21.3948837,2.96534018 L21.3948837,0.911424904 L19.3534884,1.64313222 L19.3534884,2.97817715 L19.3534884,4.30038511 L19.3534884,8.03594352 C19.3534884,8.60077022 19.3534884,9.8716303 21.4213953,9.8716303 C21.7527907,9.8716303 22.3493023,9.83311938 23.0253488,9.6534018 L23.0253488,8.33119384 L23.012093,8.33119384 Z" id="Path"></path>
                <rect id="Rectangle" x="23.7411628" y="0" width="2.05465116" height="9.73042362"></rect>
                <path d="M30.7534884,6.53401797 C30.7534884,7.26572529 30.7269767,7.79204108 30.3690698,8.2156611 C30.1702326,8.4338896 29.8653488,8.60077022 29.494186,8.60077022 C28.8181395,8.60077022 28.5,8.0872914 28.5,7.63799743 C28.4867442,6.82926829 29.427907,6.41848524 30.7534884,6.53401797 M32.8876744,9.73042362 C32.7683721,9.16559692 32.7153488,8.58793325 32.7153488,8.01026958 L32.702093,5.27599487 C32.702093,4.96790757 32.6888372,4.15917843 32.2116279,3.6071887 C31.5223256,2.8241335 30.2895349,2.73427471 29.7062791,2.73427471 C29.0434884,2.73427471 28.2216279,2.83697047 27.572093,3.28626444 C26.8297674,3.79974326 26.79,4.51861361 26.7767442,4.89088575 L28.8048837,4.89088575 C28.8048837,4.72400513 28.8048837,4.51861361 28.9639535,4.28754814 C29.1495349,4.03080873 29.4544186,3.91527599 29.7460465,3.91527599 C29.9448837,3.91527599 30.4883721,3.97946085 30.6606977,4.4801027 C30.7402326,4.72400513 30.7534884,4.94223363 30.7534884,5.37869063 C30.0774419,5.37869063 28.8313953,5.37869063 27.9697674,5.75096277 C26.6706977,6.32862644 26.4851163,7.32991014 26.4851163,7.8690629 C26.4851163,8.40821566 26.6839535,8.96020539 27.0948837,9.35815148 C27.3732558,9.61489089 27.8372093,9.89730424 28.8446512,9.89730424 C29.2290698,9.89730424 30.1702326,9.89730424 30.9390698,8.80616175 C30.9390698,9.01155327 30.9390698,9.31964056 31.0053488,9.73042362 L32.8876744,9.73042362 Z" id="Shape" fill-rule="nonzero"></path>
                <path d="M33.5637209,9.73042362 L35.6316279,9.73042362 L35.6316279,5.75096277 C35.6316279,5.22464698 35.7509302,4.89088575 35.8834884,4.71116816 C36.1088372,4.3902439 36.5065116,4.18485237 36.9572093,4.18485237 C37.4874419,4.18485237 37.8055814,4.46726573 37.9646512,4.76251605 C38.0706977,4.98074454 38.0706977,5.22464698 38.0706977,5.50706033 L38.0706977,9.73042362 L40.1651163,9.73042362 L40.1651163,6.05905006 C40.1651163,4.78818999 40.1253488,4.44159178 39.9662791,4.03080873 C39.7806977,3.55584082 39.1974419,2.74711168 37.8188372,2.74711168 C36.2944186,2.74711168 35.7376744,3.62002567 35.5388372,3.92811297 L35.485814,2.90115533 L33.5106977,2.90115533 C33.5504651,3.37612323 33.5504651,4.10783055 33.5504651,4.14634146 L33.5504651,9.73042362 L33.5637209,9.73042362 Z" id="Path"></path>
                <path d="M42.9886047,6.43132221 C42.9886047,5.75096277 43.1476744,4.14634146 44.5130233,4.14634146 C45.4409302,4.14634146 46.0374419,4.87804878 46.0374419,6.20025674 C46.0374419,6.53401797 46.0109302,7.24005135 45.7060465,7.80487805 C45.4806977,8.22849807 45.0034884,8.57509628 44.3937209,8.57509628 C43.3862791,8.57509628 42.9886047,7.56097561 42.9886047,6.43132221 M45.9844186,3.77406932 C45.7988372,3.53016688 45.2818605,2.84980745 44.0093023,2.84980745 C42.18,2.84980745 40.9074419,4.24903723 40.9074419,6.49550706 C40.9074419,8.62644416 42.0209302,9.8716303 43.89,9.8716303 C44.1948837,9.8716303 44.7383721,9.84595635 45.2553488,9.52503209 C45.6927907,9.25545571 45.8253488,8.9987163 45.957907,8.75481386 L46.0109302,9.74326059 L48.092093,9.74326059 C48.0655814,9.48652118 48.0390698,9.03722721 48.0390698,8.63928113 L48.0390698,0.0256739409 L45.9711628,0.0256739409 L45.9711628,3.77406932 L45.9844186,3.77406932 Z" id="Shape" fill-rule="nonzero"></path>
            </g>
        </g>
    </g>
</svg>