<?xml version="1.0" encoding="UTF-8"?>
<svg width="64px" height="64px" viewBox="0 0 64 64" version="1.1" xmlns="http://www.w3.org/2000/svg" xmlns:xlink="http://www.w3.org/1999/xlink">
    <title>product_sale</title>
    <g id="product_sale" stroke="none" stroke-width="1" fill="none" fill-rule="evenodd">
        <rect id="Rectangle-205" fill="#000000" fill-rule="nonzero" x="8" y="28" width="48" height="4" rx="2"></rect>
        <path d="M53,32 L49,52 L15,52 L11,32 L53,32 Z M22,43 C20.3431458,43 19,44.3431458 19,46 C19,47.6568542 20.3431458,49 22,49 C23.6568542,49 25,47.6568542 25,46 C25,44.3431458 23.6568542,43 22,43 Z M32,43 C30.3431458,43 29,44.3431458 29,46 C29,47.6568542 30.3431458,49 32,49 C33.6568542,49 35,47.6568542 35,46 C35,44.3431458 33.6568542,43 32,43 Z M41,43 C39.3431458,43 38,44.3431458 38,46 C38,47.6568542 39.3431458,49 41,49 C42.6568542,49 44,47.6568542 44,46 C44,44.3431458 42.6568542,43 41,43 Z M18,34 C16.3431458,34 15,35.3431458 15,37 C15,38.6568542 16.3431458,40 18,40 C19.6568542,40 21,38.6568542 21,37 C21,35.3431458 19.6568542,34 18,34 Z M27,34 C25.3431458,34 24,35.3431458 24,37 C24,38.6568542 25.3431458,40 27,40 C28.6568542,40 30,38.6568542 30,37 C30,35.3431458 28.6568542,34 27,34 Z M37,34 C35.3431458,34 34,35.3431458 34,37 C34,38.6568542 35.3431458,40 37,40 C38.6568542,40 40,38.6568542 40,37 C40,35.3431458 38.6568542,34 37,34 Z M46,34 C44.3431458,34 43,35.3431458 43,37 C43,38.6568542 44.3431458,40 46,40 C47.6568542,40 49,38.6568542 49,37 C49,35.3431458 47.6568542,34 46,34 Z" id="Path-654" fill="#000000" fill-rule="nonzero"></path>
        <rect id="Rectangle-206" fill="#000000" fill-rule="nonzero" transform="translate(24.299587, 20.080966) rotate(20.000000) translate(-24.299587, -20.080966) " x="22.2995865" y="11.0809664" width="4" height="18" rx="2"></rect>
        <rect id="Rectangle-206-Copy" fill="#000000" fill-rule="nonzero" transform="translate(39.299587, 20.080966) scale(-1, 1) rotate(20.000000) translate(-39.299587, -20.080966) " x="37.2995875" y="11.0809664" width="4" height="18" rx="2"></rect>
    </g>
</svg>