<?xml version="1.0" encoding="UTF-8"?>
<svg width="64px" height="64px" viewBox="0 0 64 64" version="1.1" xmlns="http://www.w3.org/2000/svg" xmlns:xlink="http://www.w3.org/1999/xlink">
    <title>production</title>
    <g id="production" stroke="none" stroke-width="1" fill="none" fill-rule="evenodd">
        <path d="M32,3.99929384 L32,7.99929384 C26.6118204,7.99929384 23.9602963,9.93408486 22.9304514,13.2860952 C22.4912147,14.7157533 22.3906896,16.2128572 22.497565,17.8319951 L22.5389721,18.3579252 L22.5758605,18.7400325 C22.6342839,19.3266754 22.4308522,19.9002347 22.0351483,20.3164062 L21.981,20.369 L21.9487462,20.481909 L21.9259767,20.5747051 C21.8518855,20.8951251 21.7952062,21.3301732 21.7608366,21.8806447 L21.7369546,22.3807629 L21.7246853,22.9375264 L21.7231195,23.2371849 C21.7231195,24.6122056 22.8638084,26.823402 24.1966833,28.6661032 C24.3613554,28.8937625 24.476211,29.1535644 24.5337656,29.4285792 C24.7691804,30.5534686 25.1783165,31.7330638 25.7122034,32.5267208 L25.8608651,32.7332729 C26.5808085,33.6650976 26.3438985,35.0141459 25.3495432,35.6449179 C25.1762748,35.7548312 24.9969701,35.8655357 24.8115705,35.9771533 C24.0735002,36.4214995 23.2535143,36.872919 22.3193015,37.3532334 L21.4898201,37.7725168 L20.5998692,38.2090067 L18.8701948,39.030155 L15.8254842,40.4445286 L14.9244677,40.8725265 L14.0189325,41.3165032 L13.454842,41.6074295 L13.1165541,41.7927522 L12.8446844,41.9531919 L12.6975591,42.0477912 L12.5757861,42.1335266 C11.5987955,42.8605397 10.2869514,45.0656696 9.31839555,47.4609168 L9.08380087,48.0629439 C8.44160335,49.7756861 8,51.5299639 8,52.868027 C8,52.9043424 8.01504992,52.9387329 8.12737978,53.0508105 C8.29604357,53.2190954 8.614713,53.4235451 9.06445007,53.6225018 C10.0613651,54.0635215 11.6669424,54.4722064 13.7135425,54.8046404 C15.3273007,55.0667669 17.2118468,55.2849244 19.3076794,55.4611907 L19.9427082,55.5128159 L20.766769,55.5747951 C21.2769134,55.6114943 21.7859719,55.6454487 22.2923949,55.6767965 L23.8022071,55.763158 L25.2869067,55.8347085 C25.5317474,55.8454454 25.7751542,55.8555997 26.0169334,55.8651887 L27.4465288,55.9160771 L28.8277643,55.9542271 L30.1513412,55.9804674 L31.4079604,55.9956272 L32.004,55.9992938 L32.6002946,55.9956272 L33.8569138,55.9804674 L35.1804907,55.9542271 L36.5617262,55.9160771 L37.9913216,55.8651887 L38.7213483,55.8347085 L40.2060479,55.763158 L41.7158601,55.6767965 L42.4772775,55.6278026 L43.241486,55.5747951 L44.0655468,55.5128159 L44.7005756,55.4611907 C46.7964082,55.2849244 48.6809543,55.0667669 50.2947125,54.8046404 C52.3413126,54.4722064 53.9468899,54.0635215 54.9438049,53.6225018 C55.393542,53.4235451 55.7122114,53.2190954 55.8808752,53.0508105 C55.9932051,52.9387329 56.008255,52.9043424 56.008255,52.868027 C56.008255,51.6255398 55.6274848,50.0241736 55.0589097,48.430429 L54.9244541,48.0629439 L54.6898595,47.4609168 L54.5707431,47.1717294 C55.8657723,46.5971232 57.0094116,45.8844959 58.0047614,45.0377761 C59.1798029,47.6632103 60.008255,50.5886019 60.008255,52.868027 C60.008255,53.9957079 59.5518895,55.0385466 58.7061205,55.8824159 C58.1565885,56.4307136 57.4314825,56.895922 56.5620637,57.2805393 C55.1931739,57.8861148 53.2901776,58.370505 50.9360364,58.7528936 C49.2117166,59.0329789 47.2304174,59.2624642 45.0366106,59.447019 L44.3721378,59.5010432 L43.5349678,59.5640089 L42.7964617,59.6153555 L41.6944802,59.6855221 L40.6022482,59.7477362 L39.1665807,59.8188454 L37.761388,59.8770833 L36.3941803,59.9231736 L35.7271677,59.9418896 L34.4310185,59.9711156 L33.1916293,59.9900034 L32.01651,59.9992768 L32.004,56.9762938 L31.991745,59.9992768 L30.8166257,59.9900034 L29.5772365,59.9711156 L27.6140747,59.9231736 L26.246867,59.8770833 L24.8416743,59.8188454 L23.4060068,59.7477362 C22.681806,59.7088432 21.9489934,59.664852 21.2117933,59.6153555 L20.4732872,59.5640089 L19.6361172,59.5010432 C17.1766672,59.3078553 14.9689704,59.0609874 13.0722186,58.7528936 C10.7180774,58.370505 8.8150811,57.8861148 7.44619131,57.2805393 C6.57677252,56.895922 5.85166653,56.4307136 5.30213452,55.8824159 C4.45636549,55.0385466 4,53.9957079 4,52.868027 C4,48.2588508 7.38737582,41.0084457 10.187848,38.9245156 L10.4657745,38.7281028 L10.7817181,38.525412 L11.1454793,38.3109616 L11.4193919,38.1587547 L11.8846281,37.9125239 L12.4238167,37.639916 L13.2747113,37.2259338 L14.2977309,36.7423209 L17.8694259,35.0810092 L18.8477547,34.6131364 L19.6851616,34.2025923 L20.4613832,33.8106191 L21.1800303,33.4348139 L21.553,33.233 L21.5457296,33.2152006 C21.233329,32.5097882 20.9873401,31.7636095 20.7943731,31.0069596 L20.712,30.666 L20.4970683,30.3528259 C20.1116637,29.7797053 19.7219618,29.1465221 19.356475,28.4739505 L19.1403168,28.0658464 C18.2506478,26.3412457 17.7231195,24.7320617 17.7231195,23.2371849 C17.7231195,20.9792055 17.9245418,19.4073687 18.4939932,18.3625139 L18.522,18.313 L18.5114726,18.1750791 C18.3754855,16.2339596 18.4745955,14.3970622 18.9823371,12.5402619 L19.106841,12.1113598 C20.6267801,7.16415662 24.7098164,4.11372906 31.6066088,4.00244683 L32,3.99929384 Z M32.008255,3.99929384 L32.4016462,4.00244683 C35.8248474,4.05768142 38.5548511,4.83700441 40.6223078,6.21295474 C40.1001223,6.38657358 39.5941219,6.58609896 39.1026588,6.81005682 C38.0389953,7.29476423 37.0807178,7.86922967 36.2259942,8.53127983 C35.1414942,8.20669224 33.8622601,8.02655177 32.3634249,8.00215451 L32.008255,7.99929384 L32.008255,3.99929384 Z" id="Path-2" fill="#000000" fill-rule="nonzero"></path>
        <path d="M46,4 C47.1045695,4 48,4.8954305 48,6 L47.9999763,7.36710605 C48.8122726,7.44258097 49.6626138,7.57987896 50.551,7.779 C51.9816667,8.09966667 53.3876667,8.63 54.769,9.37 C56.1503333,10.11 57.3836667,11.1213333 58.469,12.404 C58.913,12.848 59.135,13.3536667 59.135,13.921 C59.135,14.4883333 58.8883333,14.994 58.395,15.438 C58.0003333,15.734 57.544,15.882 57.026,15.882 C56.508,15.882 56.0763333,15.6846667 55.731,15.29 C54.547,13.958 53.141,12.9466667 51.513,12.256 C50.3999304,11.7837886 49.2292085,11.4730036 48.0008343,11.3236449 L47.9998235,25.048 L48.035,25.058 C49.3505556,25.3868889 50.623287,25.7671667 51.8531944,26.1988333 L52.586,26.464 C54.0413333,27.0066667 55.324,27.685 56.434,28.499 C57.544,29.313 58.432,30.3366667 59.098,31.57 C59.764,32.8033333 60.097,34.3573333 60.097,36.232 C60.097,38.4026667 59.4926667,40.2773333 58.284,41.856 C57.0753333,43.4346667 55.4596667,44.6433333 53.437,45.482 C51.7748589,46.1711805 49.9628044,46.5771914 48.0008367,46.7000328 L48,48 C48,49.1045695 47.1045695,50 46,50 C44.8954305,50 44,49.1045695 44,48 L44.0006308,46.5583197 C42.2863659,46.3252076 40.609489,45.8677677 38.97,45.186 C36.4786667,44.15 34.271,42.4233333 32.347,40.006 C31.9523333,39.414 31.7673333,38.8343333 31.792,38.267 C31.8166667,37.6996667 32.125,37.2433333 32.717,36.898 C33.1116667,36.5526667 33.568,36.4046667 34.086,36.454 C34.604,36.5033333 35.085,36.75 35.529,37.194 C36.861,38.9206667 38.4766667,40.3143333 40.376,41.375 C41.4660115,41.9837077 42.6738211,42.4177493 43.9994287,42.6771248 L43.9988615,28.3453285 C43.2620799,28.1132537 42.5354594,27.8684776 41.819,27.611 C40.2403333,27.0436667 38.8466667,26.3283333 37.638,25.465 C36.4293333,24.6016667 35.455,23.5533333 34.715,22.32 C33.975,21.0866667 33.605,19.582 33.605,17.806 C33.605,15.734 34.1723333,13.9086667 35.307,12.33 C36.4416667,10.7513333 37.9833333,9.518 39.932,8.63 C41.1814308,8.06063912 42.537337,7.67380741 43.9997185,7.46950488 L44,6 C44,4.8954305 44.8954305,4 46,4 Z M48.0015605,29.4748697 L48.0001073,42.9360964 C49.0925088,42.8593717 50.1771397,42.6350063 51.254,42.263 C52.6106667,41.7943333 53.733,41.079 54.621,40.117 C55.509,39.155 55.953,37.934 55.953,36.454 C55.953,34.9246667 55.509,33.6913333 54.621,32.754 C53.733,31.8166667 52.586,31.0766667 51.18,30.534 C50.1654709,30.1424274 49.1059911,29.789384 48.0015605,29.4748697 Z M44.0002106,11.4281553 C43.3908668,11.5444086 42.7994633,11.7093568 42.226,11.923 C40.968,12.3916667 39.9196667,13.0946667 39.081,14.032 C38.2423333,14.9693333 37.823,16.2026667 37.823,17.732 C37.9216667,19.1626667 38.4273333,20.322 39.34,21.21 C40.2526667,22.098 41.4613333,22.838 42.966,23.43 C43.3010434,23.5618203 43.6452593,23.6911946 43.9986479,23.8181229 Z" id="large-dollar" fill="#000000" fill-rule="nonzero"></path>
    </g>
</svg>