<svg xmlns="http://www.w3.org/2000/svg" width="32" height="32" viewBox="0 0 32 32">
  <path d="M16,2 C23.7319865,2 30,8.2680135 30,16 C30,23.7319865 23.7319865,30 16,30 C8.2680135,30 2,23.7319865 2,16 C2,8.2680135 8.2680135,2 16,2 Z M16,4 C9.372583,4 4,9.372583 4,16 C4,22.627417 9.372583,28 16,28 C22.627417,28 28,22.627417 28,16 C28,9.372583 22.627417,4 16,4 Z M16,6 C19.3137085,6 22,8.6862915 22,12 C22,13.9110878 21.106518,15.6134917 19.7144919,16.7122737 C22.5530194,17.9340062 24.4547211,20.7180939 25.4116751,24.9660912 C25.5466791,25.565385 20.752146,29.0635362 16,29 L16,29 L16.2665258,28.9956217 C19.9972622,28.8781357 23.6727069,26.4368308 23.6350428,26.2305549 C22.6359808,20.7589645 20.1797048,18.1086293 16.24642,18.0032736 L16.24642,18.0032736 L16,18 C11.9352345,18 9.40031739,20.6293654 8.37439075,26.1792079 C8.35571855,26.2802168 8.84921744,26.6813417 9.6702334,27.1507491 L9.82628001,27.238 L9.79942392,27.2249149 C7.93462825,26.2219276 6.67256786,25.0938448 6.65428001,24.708593 L6.65772604,24.6674868 C7.63564632,20.5874483 9.51403747,17.9051602 12.2863723,16.7117216 C10.8939089,15.6143049 10,13.9115442 10,12 C10,8.6862915 12.6862915,6 16,6 Z M16,8 C13.790861,8 12,9.790861 12,12 C12,14.209139 13.790861,16 16,16 C18.209139,16 20,14.209139 20,12 C20,9.790861 18.209139,8 16,8 Z"/>
</svg>
