<?xml version="1.0" encoding="UTF-8"?>
<svg width="64px" height="64px" viewBox="0 0 64 64" version="1.1" xmlns="http://www.w3.org/2000/svg" xmlns:xlink="http://www.w3.org/1999/xlink">
    <title>professional_consultation</title>
    <g id="professional_consultation" stroke="none" stroke-width="1" fill="none" fill-rule="evenodd">
        <path d="M29,53.7590332 L8.1706543,53.5827637 C8.1706543,53.5827637 8.44995117,45.9208984 9.09863281,45.2507324 C9.74731445,44.5805664 23.6711426,39.4990234 23.6711426,39.4990234 L25.7126953,35.9802246 L27.5987305,35.371582 C27.5987305,35.371582 26.0915527,35.2758789 25.5056152,33.6379395 C24.9196777,32 25.1801758,29.6008301 25.1801758,29.6008301 C25.1801758,29.6008301 22.9904785,29.9289551 22.5998535,25.9570313 C22.2092285,21.9851074 23.4462891,22.8723145 23.4462891,22.8723145 C23.4462891,22.8723145 22.3151855,20.6774901 22.7058105,16.8383789 C23.0964355,12.9992677 25.2834473,10.6606445 29.3803711,10.0527344 C33.4772949,9.44482422 33.206543,9.81640625 34.7363281,9.81640625 C36.2661133,9.81640625 38.0458984,11.9001465 38.0458984,11.9001465 C38.0458984,11.9001465 39.3457031,11.7458495 40.2329102,12.5461426 C41.1201172,13.3464356 40.9516602,15.1506347 40.9516602,16.7541504 C40.9516602,18.3576661 40.7346191,22.5251465 40.7346191,22.5251465 C40.7346191,22.5251465 41.7165527,22.7932138 41.7165527,25.9543457 C41.7165527,29.1154776 39.279541,29.7397461 39.279541,29.7397461 C39.279541,29.7397461 39.3012695,32.8244638 38.8481445,33.5788574 C38.3950195,34.3332511 36.9650879,35.355957 36.9650879,35.355957 L39.197998,35.8769531 C39.197998,35.8769531 39.7990723,38.5258798 40.2668457,39.2629395 C40.7346191,39.9999991 54.746582,44.265624 55.373291,45.326416 C56,46.3872081 56.1955566,53.7128906 56.1955566,53.7128906 L35,53.7128906 L33,43 L34.5,40.0061026 L32.0598145,38.6196289 L29.5,40.0061035 L31,43 L29,53.7590332 Z" id="Path-35" fill="#000000" fill-rule="nonzero"></path>
    </g>
</svg>