<?xml version="1.0" encoding="UTF-8"?>
<svg width="64px" height="64px" viewBox="0 0 64 64" version="1.1" xmlns="http://www.w3.org/2000/svg" xmlns:xlink="http://www.w3.org/1999/xlink">
    <title>program_review</title>
    <g id="program_review" stroke="none" stroke-width="1" fill="none" fill-rule="evenodd">
        <path d="M29.1411389,6.38971989 C29.6433579,4.81081452 31.3304424,3.93798771 32.9093478,4.44020664 C33.8369877,4.73527075 34.563797,5.46208003 34.8588611,6.38971989 L40.037,22.67 L56.9292258,22.6329649 C58.5269027,22.6294243 59.8356472,23.875447 59.9303834,25.4500482 L59.9358741,25.6263092 C59.9379898,26.5843252 59.4824373,27.4857432 58.7098626,28.0522477 L52.1078062,32.8919337 C51.6426744,31.607559 51.0071416,30.4048043 50.2285194,29.310981 L53.872,26.639 L47.8095234,26.6518496 C45.1795992,24.376493 41.7505482,23 38,23 C37.3175175,23 36.6456807,23.0455793 35.9873674,23.1338599 L31.999,10.597 L27.5522068,24.5813687 C27.1554317,25.8287738 25.9956824,26.6749144 24.6866975,26.6720136 L10.127,26.639 L21.9606034,35.3160373 C22.487623,35.7024841 22.8595342,36.2376296 23.0471652,36.831307 C23.0151387,37.2168847 23,37.6066744 23,38 C23,38.2447955 23.005864,38.4882214 23.0174591,38.7301449 L18.512,52.686 L26.0692582,47.0929169 C26.8908567,48.1692855 27.8548062,49.1311747 28.9330097,49.9504875 L18.3880605,57.7551222 C17.1074611,58.702817 15.3212944,58.4797741 14.3095942,57.2772289 L14.1919896,57.1282341 C13.6163888,56.3504373 13.451282,55.3427638 13.7485656,54.4219454 L19.013,38.114 L5.29013743,28.0522477 C4.00539026,27.1101835 3.68886209,25.3381932 4.53740561,24.0154589 L4.64483578,23.8589691 C5.21134027,23.0863943 6.11275827,22.6308418 7.07077424,22.6329649 L23.962,22.67 Z" id="Combined-Shape-Copy-2-path" fill="#000000" fill-rule="nonzero"></path>
        <path d="M38,24 C45.7319865,24 52,30.2680135 52,38 C52,39.7310023 51.6858457,41.38863 51.1114417,42.9189783 L59.6923882,51.5 C60.863961,52.6715729 60.863961,54.5710678 59.6923882,55.7426407 L56.1568542,59.2781746 C54.9852814,60.4497475 53.0857864,60.4497475 51.9142136,59.2781746 L43.5099954,50.8740253 C41.8189259,51.5987373 39.9563229,52 38,52 C30.2680135,52 24,45.7319865 24,38 C24,30.2680135 30.2680135,24 38,24 Z M49.3823593,45.8431458 L46.2573593,48.9681458 L54.1323594,56.8431458 L57.2573593,53.7181458 L49.3823593,45.8431458 Z M38,28 C32.4771525,28 28,32.4771525 28,38 C28,43.5228475 32.4771525,48 38,48 C43.5228475,48 48,43.5228475 48,38 C48,32.4771525 43.5228475,28 38,28 Z" id="Oval" fill="#000000" fill-rule="nonzero"></path>
    </g>
</svg>