<?xml version="1.0" encoding="UTF-8"?>
<svg width="64px" height="64px" viewBox="0 0 64 64" version="1.1" xmlns="http://www.w3.org/2000/svg" xmlns:xlink="http://www.w3.org/1999/xlink">
    <title>program</title>
    <g id="program" stroke="none" stroke-width="1" fill="none" fill-rule="evenodd">
        <path d="M29.1411389,7.38971989 L23.962,23.67 L7.07077424,23.6329649 C6.11275827,23.6308418 5.21134027,24.0863943 4.64483578,24.8589691 L4.53740561,25.0154589 C3.68886209,26.3381932 4.00539026,28.1101835 5.29013743,29.0522477 L19.013,39.114 L13.7485656,55.4219454 C13.451282,56.3427638 13.6163888,57.3504373 14.1919896,58.1282341 L14.3095942,58.2772289 C15.3212944,59.4797741 17.1074611,59.702817 18.3880605,58.7551222 L32,48.681 L45.6119395,58.7551222 C46.3897362,59.3307229 47.3974097,59.4958297 48.3182281,59.1985462 L48.4844108,59.1395431 C49.9550178,58.568878 50.7422938,56.9423537 50.2514344,55.4219454 L44.986,39.114 L58.7098626,29.0522477 C59.4824373,28.4857432 59.9379898,27.5843252 59.9358741,26.6263092 L59.9303834,26.4500482 C59.8356472,24.875447 58.5269027,23.6294243 56.9292258,23.6329649 L40.037,23.67 L34.8588611,7.38971989 C34.563797,6.46208003 33.8369877,5.73527075 32.9093478,5.44020664 C31.3304424,4.93798771 29.6433579,5.81081452 29.1411389,7.38971989 Z M31.999,11.597 L36.4477932,25.5813687 L36.5095994,25.7567914 C36.955359,26.9074334 38.0666502,27.6747763 39.3133025,27.6720136 L53.872,27.639 L42.0393966,36.3160373 L41.8875992,36.4349809 C40.9554029,37.2148236 40.5811635,38.488304 40.9584816,39.6570247 L45.487,53.686 L33.7845914,45.0262129 L33.6140568,44.9088348 C32.5728528,44.2436926 31.2199411,44.2828186 30.2154086,45.0262129 L18.512,53.686 L23.0415184,39.6570247 L23.0948775,39.4717065 C23.3936206,38.2936161 22.9509957,37.0422606 21.9606034,36.3160373 L10.127,27.639 L24.6866975,27.6720136 C25.9956824,27.6749144 27.1554317,26.8287738 27.5522068,25.5813687 L31.999,11.597 Z" id="program-star" fill="#000000" fill-rule="nonzero"></path>
    </g>
</svg>