<?xml version="1.0" encoding="UTF-8"?>
<svg width="64px" height="64px" viewBox="0 0 64 64" version="1.1" xmlns="http://www.w3.org/2000/svg" xmlns:xlink="http://www.w3.org/1999/xlink">
    <title>program_primary</title>
    <g id="program_primary" stroke="none" fill="none" fill-rule="nonzero">
        <path d="M29.0962726,5.54962274 C29.6176199,3.88440574 31.3689617,2.96386542 33.0080039,3.4935384 C33.9709754,3.80473233 34.7254672,4.571273 35.0317697,5.54962274 L40.407132,22.7198724 L57.942744,22.6808127 C59.6012728,22.6770785 60.9598644,23.9912157 61.0582088,25.6518932 L61.0639087,25.8377897 C61.0661049,26.8481761 60.5932015,27.7988705 59.7912012,28.3963433 L45.5446281,39.0081262 L51.0106109,56.2075534 C51.5201659,57.8110756 50.7029044,59.5265147 49.1762853,60.1283754 L49.0037732,60.190604 C48.0478829,60.5041386 47.0018295,60.3300062 46.1944082,59.72294 L32.0640211,49.0981109 L17.9336341,59.72294 C16.6042596,60.722441 14.7500619,60.4872053 13.6998283,59.2189224 L13.5777444,59.0617827 C12.9802203,58.2414673 12.808825,57.1787088 13.1174314,56.2075534 L18.5823761,39.0081262 L4.3368411,28.3963433 C3.00316086,27.4027806 2.67457685,25.5339237 3.55543945,24.1388814 L3.66696138,23.973837 C4.25504274,23.159029 5.19079368,22.6785736 6.18529828,22.6808127 L23.7198721,22.7198724 Z M32.062983,9.98689589 L27.4468217,24.735727 C27.0349343,26.0513221 25.8310128,26.9437174 24.4721717,26.9406579 L9.35792868,26.9058397 L21.6422469,36.0572115 C22.670361,36.8231341 23.1298445,38.1428956 22.819723,39.3853869 L22.7643315,39.5808356 L18.0622941,54.3767117 L30.2114587,45.2435331 C31.2542516,44.4595008 32.6586925,44.4182359 33.7395536,45.1197385 L33.9165835,45.2435331 L46.0647101,54.3767117 L41.3637107,39.5808356 C40.9720215,38.3482262 41.3605148,37.0051304 42.3282163,36.1826572 L42.4857954,36.0572115 L54.7690755,26.9058397 L39.6558706,26.9406579 C38.3617361,26.9435717 37.2081184,26.1342816 36.7453808,24.9207393 L36.6812205,24.735727 L32.062983,9.98689589 Z" id="program-star" fill="#000000"></path>
        <path d="M39.7997216,28.3330916 L43.9956094,28.3238803 C45.9302561,28.3196332 46.7430789,30.791202 45.1835509,31.9360812 L41.7085343,34.4871569 L39.1748556,36.3471787 L40.1404807,39.3418061 L41.4444036,43.3855734 C42.0412467,45.2365225 39.9126363,46.7641469 38.3501234,45.6062229 L35.0866637,43.1877866 L32.5003269,41.2711423 L29.91399,43.1877866 L26.649664,45.606865 C25.0871966,46.7647552 22.9586267,45.2372493 23.5553498,43.386321 L24.8593403,39.3415757 L25.8247075,36.3471794 L23.2913343,34.4872464 L19.8163931,31.9360401 C18.2569333,30.7911276 19.0697794,28.3196331 21.0043908,28.3238804 L25.2000245,28.3330916 L28.3871924,28.3400888 L29.3539246,25.2972447 L30.593888,21.3944119 C31.184595,19.5351385 33.8155503,19.5352161 34.4061477,21.3945243 L35.6457505,25.2970192 L36.6123676,28.3400888 L39.7997216,28.3330916 Z M31.755382,30.9488885 C31.4910762,31.7808058 30.71777,32.3452151 29.8448781,32.3432987 L27.1219691,32.3373207 L29.3543041,33.9762397 C30.0484227,34.4858425 30.3384397,35.3825204 30.0742197,36.2020834 L29.2743386,38.6831714 L31.3095352,37.1749581 C32.0168684,36.650778 32.9837854,36.650778 33.6911186,37.1749581 L35.7249715,38.6821756 L34.9252932,36.2021878 C34.6610075,35.3825763 34.951041,34.4858155 35.6452308,33.9761975 L37.877671,32.3373207 L35.1545959,32.3432987 C34.281663,32.345215 33.5083304,31.7807535 33.2440586,30.9487823 L32.499809,28.6057625 L31.755382,30.9488885 Z" id="Path" fill="#000000"></path>
    </g>
</svg>