<?xml version="1.0" encoding="UTF-8"?>
<svg width="64px" height="64px" viewBox="0 0 64 64" version="1.1" xmlns="http://www.w3.org/2000/svg" xmlns:xlink="http://www.w3.org/1999/xlink">
    <title>program_bundle</title>
    <g id="program_bundle" stroke="none" fill="none">
        <path d="M29.1346848,6.09625096 C29.6380547,4.5137272 31.3290056,3.63890012 32.9115294,4.14226999 C33.8412951,4.4380103 34.56977,5.16648522 34.8655103,6.09625096 L40.0555161,22.4138408 L56.9864539,22.3767208 C58.5877923,22.3731721 59.8995361,23.6220503 59.9944894,25.20026 L60,25.376925 C60.0021132,26.3371365 59.5455167,27.2406203 58.7711715,27.808423 L55.781,30 L49,30 L53.9222219,26.3919366 L39.3301601,26.4250258 C38.0806508,26.4277948 36.9668129,25.6586934 36.5200316,24.5054145 L36.4580838,24.3295898 L31.9990953,10.3131729 L27.5421114,24.3295898 C27.1444269,25.5798536 25.9820198,26.4279333 24.6700351,26.4250258 L10.076971,26.3919366 L21.9376936,35.0888592 C22.9303556,35.8167467 23.3739949,37.0709699 23.0745672,38.2517603 L23.0210858,38.4375032 L18.481187,52.4986288 L25,47.674 L25,52.662 L18.3569635,57.5793679 C17.1247707,58.4912399 15.4255793,58.3216874 14.3944766,57.2402909 L14.2691505,57.1003794 L14.1512763,56.9510432 C13.5743565,56.1714639 13.4088713,55.1614811 13.7068361,54.2385525 L18.9833351,37.893234 L5.22902373,27.808423 C3.94133229,26.8641999 3.62407872,25.0881487 4.47456686,23.7623831 L4.58224322,23.6055346 C5.15004598,22.8311893 6.05352977,22.3745929 7.01374124,22.3767208 L23.9436768,22.4138408 Z" id="program-star" fill="#000000" fill-rule="nonzero"></path>
        <path d="M56,31 C58.209139,31 60,32.790861 60,35 L60,39 C60,40.4801068 59.1961002,41.7724528 58.0011092,42.4642293 L58,56 C58,58.1147616 56.5337035,60 54.4444444,60 L29.5555556,60 C27.4662965,60 26,58.1147616 26,56 L25.9998796,42.4648015 C24.8043432,41.7731656 24,40.480515 24,39 L24,35 C24,32.790861 25.790861,31 28,31 L56,31 Z M54,43 L30,43 L30,56 L54,56 L54,43 Z M56,35 L28,35 L28,39 L56,39 L56,35 Z" id="Combined-Shape" fill="#000000" fill-rule="nonzero"></path>
        <rect id="Rectangle" fill="#000000" fill-rule="evenodd" x="36" y="45" width="12" height="4" rx="1"></rect>
    </g>
</svg>