<?xml version="1.0" encoding="UTF-8"?>
<svg width="64px" height="64px" viewBox="0 0 64 64" version="1.1" xmlns="http://www.w3.org/2000/svg" xmlns:xlink="http://www.w3.org/1999/xlink">
    <title>program_required</title>
    <g id="program_required" stroke="none" fill="none" fill-rule="nonzero">
        <path d="M27.0401185,14.992811 C27.3165237,16.2679628 28.207024,17.2868596 29.5605992,17.9676545 L30.1939238,18.2702619 L27.5522068,26.5813687 C27.1743257,27.7693736 26.1044046,28.5934197 24.8726138,28.6667005 L24.6866975,28.6720136 L10.127,28.639 L21.9606034,37.3160373 C22.9509957,38.0422606 23.3936206,39.2936161 23.0948775,40.4717065 L23.0415184,40.6570247 L18.512,54.686 L30.2154086,46.0262129 C31.2199411,45.2828186 32.5728528,45.2436926 33.6140568,45.9088348 L33.7845914,46.0262129 L45.487,54.686 L40.9584816,40.6570247 C40.7540726,40.0238799 40.7702338,39.3599898 40.9761842,38.7604952 C41.7256902,39.5248073 42.7719725,40 43.9484643,40 C44.5391538,40 45.0968332,39.8802933 45.6006026,39.6643019 L44.986,40.114 L50.2514344,56.4219454 C50.7422938,57.9423537 49.9550178,59.568878 48.4844108,60.1395431 L48.3182281,60.1985462 C47.3974097,60.4958297 46.3897362,60.3307229 45.6119395,59.7551222 L32,49.681 L18.3880605,59.7551222 C17.1074611,60.702817 15.3212944,60.4797741 14.3095942,59.2772289 L14.1919896,59.1282341 C13.6163888,58.3504373 13.451282,57.3427638 13.7485656,56.4219454 L19.013,40.114 L5.29013743,30.0522477 C4.00539026,29.1101835 3.68886209,27.3381932 4.53740561,26.0154589 L4.64483578,25.8589691 C5.21134027,25.0863943 6.11275827,24.6308418 7.07077424,24.6329649 L23.962,24.67 Z M51.4189238,30.4362619 L53.9329212,32.1596042 C54.3206031,32.4196379 54.6663366,32.6221425 54.9977864,32.7748779 L47.0992933,38.565385 C47.8079663,37.7434882 48.1987465,36.6397848 48.0999099,35.4467222 L47.9209238,33.0012619 L51.4189238,30.4362619 Z M29.1411389,8.38971989 C29.6433579,6.81081452 31.3304424,5.93798771 32.9093478,6.44020664 C33.8369877,6.73527075 34.563797,7.46208003 34.8588611,8.38971989 L36.1039238,12.3072619 L33.9640074,10.8403958 C32.8764508,10.1109392 32.28637,9.87064746 31.3199146,9.84185059 L31.1067377,9.8388158 C29.9946074,9.93609667 29.0180213,10.384401 28.2912145,11.060898 Z" id="program-star" fill="#000000"></path>
        <path d="M47.1033238,7.47071787 L47.1040865,7.46092694 L46.3919723,17.2209324 L54.5066044,11.6595975 C55.3846583,11.0707623 55.9611112,10.8388158 56.7901909,10.8388158 C58.5272524,10.8388158 59.9484643,12.3670377 59.9484643,14.118421 C59.9484643,15.6111281 59.1463408,16.5332687 57.869337,17.0829555 L48.6390292,21.5000728 L57.83356,25.9007797 C59.1463407,26.4667313 59.9484643,27.3888719 59.9484643,28.881579 C59.9484643,30.6329623 58.5272524,32.1611842 56.7901909,32.1611842 C55.9611113,32.1611842 55.3846584,31.9292378 54.4982467,31.3347364 L46.3919642,25.7790729 L47.1033238,35.5292821 C47.2594013,37.413302 45.8299202,39 43.9484643,39 C42.0670084,39 40.6375273,37.4133019 40.7928421,35.5390731 L41.5049563,25.7790676 L33.3903241,31.3404026 C32.5122703,31.9292377 31.9358174,32.1611842 31.1067377,32.1611842 C29.3696762,32.1611842 27.9484643,30.6329623 27.9484643,28.881579 C27.9484643,27.5536715 28.858598,26.4201672 30.0275916,25.9170445 L39.2577852,21.4999818 L30.0099274,17.0742878 C28.7323699,16.4317267 27.9484643,15.4460429 27.9484643,14.118421 C27.9484643,12.4127129 29.3067739,10.9992451 31.1067377,10.8388158 C32.0122894,10.8388158 32.4305859,11.0159835 33.3986819,11.6652637 L41.5049644,17.2209272 L40.7936049,7.47071792 C40.6375273,5.58669811 42.0670084,4 43.9484643,4 C45.8299202,4 47.2594013,5.58669807 47.1033238,7.47071787 Z" id="asterisk" fill="#000000"></path>
    </g>
</svg>