<?xml version="1.0" encoding="UTF-8"?>
<svg width="64px" height="64px" viewBox="0 0 64 64" version="1.1" xmlns="http://www.w3.org/2000/svg" xmlns:xlink="http://www.w3.org/1999/xlink">
    <title>program_initiation</title>
    <g id="program_initiation" stroke="none" stroke-width="1" fill="none" fill-rule="evenodd">
        <path d="M45,30 C46.6568542,30 48,31.3431458 48,33 L48,42 L57,42 C58.6568542,42 60,43.3431458 60,45 C60,46.6568542 58.6568542,48 57,48 L48,48 L48,57 C48,58.6568542 46.6568542,60 45,60 C43.3431458,60 42,58.6568542 42,57 L42,48 L33,48 C31.3431458,48 30,46.6568542 30,45 C30,43.3431458 31.3431458,42 33,42 L42,42 L42,33 C42,31.3431458 43.3431458,30 45,30 Z" id="Path" fill="#000000" fill-rule="nonzero"></path>
        <path d="M29.1411389,7.38971989 C29.6433579,5.81081452 31.3304424,4.93798771 32.9093478,5.44020664 C33.8369877,5.73527075 34.563797,6.46208003 34.8588611,7.38971989 L40.037,23.67 L56.9292258,23.6329649 C58.5269027,23.6294243 59.8356472,24.875447 59.9303834,26.4500482 L59.9358887,26.6263092 C59.9379898,27.5843252 59.4824373,28.4857432 58.7098626,29.0522477 L49.9999238,35.4372619 L50,33 C50,32.2253019 49.8238143,31.4917543 49.509326,30.8372402 L53.872,27.639 L39.3133025,27.6720136 C38.0666502,27.6747763 36.955359,26.9074334 36.5095994,25.7567914 L36.4477932,25.5813687 L31.999,11.597 L27.5522068,25.5813687 C27.1554317,26.8287738 25.9956824,27.6749144 24.6866975,27.6720136 L10.127,27.639 L21.9606034,36.3160373 C22.9509957,37.0422606 23.3936206,38.2936161 23.0948775,39.4717065 L23.0415184,39.6570247 L18.512,53.686 L28.227949,46.4969652 C28.471989,47.2757062 28.9013899,47.9724577 29.4644661,48.5355339 C29.8685142,48.939582 30.341393,49.2747993 30.8640056,49.5220886 L18.3880605,58.7551222 C17.1074611,59.702817 15.3212944,59.4797741 14.3095942,58.2772289 L14.1919896,58.1282341 C13.6163888,57.3504373 13.451282,56.3427638 13.7485656,55.4219454 L19.013,39.114 L5.29013743,29.0522477 C4.00539026,28.1101835 3.68886209,26.3381932 4.53740561,25.0154589 L4.64483578,24.8589691 C5.21134027,24.0863943 6.11275827,23.6308418 7.07077424,23.6329649 L23.962,23.67 Z M33.7819238,49.9992619 L40,50 L39.9999238,54.6012619 L33.7819238,49.9992619 Z" id="Combined-Shape-Copy-2-path" fill="#000000" fill-rule="nonzero"></path>
    </g>
</svg>