<?xml version="1.0" encoding="UTF-8"?>
<svg width="64px" height="64px" viewBox="0 0 64 64" version="1.1" xmlns="http://www.w3.org/2000/svg" xmlns:xlink="http://www.w3.org/1999/xlink">
    <title>program_order</title>
    <g id="program_order" stroke="none" stroke-width="1" fill="none" fill-rule="evenodd">
        <path d="M12,11 L12,15 L10,15 C8.9456382,15 8.08183488,15.8158778 8.00548574,16.8507377 L8,17 L8,54 C8,55.1045695 8.8954305,56 10,56 L24.338,56 L24.3035752,56.1095391 C23.9400173,57.2501876 24.0898646,58.4981914 24.9098725,59.696282 L25.0715157,59.9203007 C25.09495,59.9478103 25.1186887,59.9749302 25.1427232,60.0016591 L10,60 C6.6862915,60 4,57.3137085 4,54 L4,17 C4,13.6862915 6.6862915,11 10,11 L12,11 Z M39.9939005,54.1573585 L43.3666856,56.6859664 C42.3812242,58.6511282 40.3481351,60 38,60 L31.212,60 L36.547,56 L38,56 C39.0516107,56 39.913656,55.1883743 39.9939005,54.1573585 Z M26,46 C26.523243,46 26.9995555,46.2009337 27.355985,46.5298486 L26.2557863,49.9837965 C26.1720324,49.9944883 26.0866599,50 26,50 L14,50 C12.8954305,50 12,49.1045695 12,48 C12,46.8954305 12.8954305,46 14,46 L26,46 Z M18.3330021,38.0013984 C18.4323852,38.092067 18.5372678,38.1785999 18.6475821,38.260535 L23.683,42 L14,42 C12.8954305,42 12,41.1045695 12,40 C12,38.8954305 12.8954305,38 14,38 Z M32.586,30 L32.2494217,31.0734247 L21.0415182,31.0493924 C19.7941581,31.0465924 18.6022226,31.6100244 17.67752,32.8713118 C17.4459722,33.2274303 17.27802,33.6085474 17.1716321,34.0004576 L14,34 C12.8954305,34 12,33.1045695 12,32 C12,30.8954305 12.8954305,30 14,30 L32.586,30 Z M34,22 C34.3697113,22 34.7159924,22.1003162 35.0131089,22.2752141 L33.842,26 L14,26 C12.8954305,26 12,25.1045695 12,24 C12,22.8954305 12.8954305,22 14,22 L34,22 Z M38,11 C41.3137085,11 44,13.6862915 44,17 L44,22.318 L43.3162652,20.1394156 C42.9473422,18.9645887 42.0596268,18.0294672 40.9157997,17.5967245 L40.6983949,17.5215366 C40.4666051,17.4487492 40.2331525,17.398142 40.0003261,17.3685201 L40,17 C40,15.8954305 39.1045695,15 38,15 L36,15 L36,11 L38,11 Z M24,4 C26.963829,4 29.0330253,5.3866802 29.735469,7.90524888 L29.76,8 L31,8 C33.1421954,8 34.8910789,9.68396847 34.9951047,11.8003597 L35,12 L35,15 C35,17.209139 33.209139,19 31,19 L17,19 C14.790861,19 13,17.209139 13,15 L13,12 C13,9.790861 14.790861,8 17,8 L18.239,8 L18.2645206,7.90528649 C18.945668,5.46301662 20.9120034,4.08508155 23.7330372,4.00381301 Z M24,8 C22.6056662,8 22.1729885,8.34309099 22.0364954,9.38854796 L22.007958,9.56596746 C21.7391369,10.9701091 20.5081567,12 19.061759,12 L17,12 L17,15 L31,15 L31,12 L28.9380147,12 C27.4314048,11.9998666 26.1585421,10.8823511 25.9634841,9.38839093 L25.9429748,9.25016844 C25.7856835,8.31260686 25.3309483,8 24,8 Z" id="Combined-Shape" fill="#000000" fill-rule="nonzero"></path>
        <path d="M36.6378041,20.4390016 L32.983,32.075 L21.039374,32.0493901 C20.0878105,32.0472541 19.1916602,32.4966835 18.6242754,33.2605893 L18.5158875,33.4164173 C17.6592473,34.7339224 17.9649014,36.5078207 19.2438465,37.4577469 L28.99,44.696 L25.256373,56.4131448 C24.9617529,57.3375036 25.1323315,58.3472747 25.7142386,59.1235636 L25.8327573,59.2718323 C26.8518336,60.4681332 28.6393382,60.6801876 29.9140854,59.7246355 L39.5,52.538 L49.0859146,59.7246355 C49.8622035,60.3065426 50.8719746,60.4771213 51.7963334,60.1825012 L51.9627352,60.124119 C53.4354627,59.5589487 54.2288062,57.9353752 53.743627,56.4131448 L50.009,44.696 L59.7561535,37.4577469 C60.5200592,36.890362 60.9694887,35.9942118 60.9673603,35.0426483 L60.9618643,34.8663874 C60.8670831,33.2917889 59.5583029,32.0458037 57.960626,32.0493901 L46.016,32.075 L42.3621959,20.4390016 C42.0682134,19.5028209 41.3349768,18.7695844 40.3987962,18.4756019 C38.8180491,17.9792105 37.1341955,18.8582544 36.6378041,20.4390016 Z M39.5,24.676 L42.4207469,33.9766469 L42.4821122,34.1528369 C42.9252001,35.308579 44.0391041,36.0806504 45.289677,36.0778432 L54.934,36.056 L47.0508957,41.9118398 L46.9010579,42.0306749 C45.9809009,42.8092643 45.6115535,44.0709701 45.9813639,45.2312356 L48.982,54.648 L41.2993874,48.8888015 L41.1278021,48.7692255 C40.0797675,48.0916283 38.7109024,48.1314869 37.7006126,48.8888015 L30.017,54.648 L33.0186361,45.2312356 L33.0709121,45.047278 C33.3634381,43.8779539 32.9267195,42.6379556 31.9491043,41.9118398 L24.065,36.056 L33.710323,36.0778432 C35.0234246,36.0807907 36.1858486,35.2294347 36.5792531,33.9766469 L39.5,24.676 Z" id="Combined-Shape-Copy-2-path" fill="#000000" fill-rule="nonzero"></path>
    </g>
</svg>