<?xml version="1.0" encoding="UTF-8"?>
<svg width="64px" height="64px" viewBox="0 0 64 64" version="1.1" xmlns="http://www.w3.org/2000/svg" xmlns:xlink="http://www.w3.org/1999/xlink">
    <title>program_prime</title>
    <g id="program_prime" stroke="none" fill="none">
        <path d="M29.1411389,7.38971989 C29.6433579,5.81081452 31.3304424,4.93798771 32.9093478,5.44020664 C33.8369877,5.73527075 34.563797,6.46208003 34.8588611,7.38971989 L40.037,23.67 L56.9292258,23.6329649 C58.5269027,23.6294243 59.8356472,24.875447 59.9303834,26.4500482 L59.9358741,26.6263092 C59.9379898,27.5843252 59.4824373,28.4857432 58.7098626,29.0522477 L44.986,39.114 L50.2514344,55.4219454 C50.7422938,56.9423537 49.9550178,58.568878 48.4844108,59.1395431 L48.3182281,59.1985462 C47.3974097,59.4958297 46.3897362,59.3307229 45.6119395,58.7551222 L32,48.681 L18.3880605,58.7551222 C17.1074611,59.702817 15.3212944,59.4797741 14.3095942,58.2772289 L14.1919896,58.1282341 C13.6163888,57.3504373 13.451282,56.3427638 13.7485656,55.4219454 L19.013,39.114 L5.29013743,29.0522477 C4.00539026,28.1101835 3.68886209,26.3381932 4.53740561,25.0154589 L4.64483578,24.8589691 C5.21134027,24.0863943 6.11275827,23.6308418 7.07077424,23.6329649 L23.962,23.67 Z M31.999,11.597 L27.5522068,25.5813687 C27.1554317,26.8287738 25.9956824,27.6749144 24.6866975,27.6720136 L10.127,27.639 L21.9606034,36.3160373 C22.9509957,37.0422606 23.3936206,38.2936161 23.0948775,39.4717065 L23.0415184,39.6570247 L18.512,53.686 L30.2154086,45.0262129 C31.2199411,44.2828186 32.5728528,44.2436926 33.6140568,44.9088348 L33.7845914,45.0262129 L45.487,53.686 L40.9584816,39.6570247 C40.5811635,38.488304 40.9554029,37.2148236 41.8875992,36.4349809 L42.0393966,36.3160373 L53.872,27.639 L39.3133025,27.6720136 C38.0666502,27.6747763 36.955359,26.9074334 36.5095994,25.7567914 L36.4477932,25.5813687 L31.999,11.597 Z" id="program-star" fill="#000000" fill-rule="nonzero"></path>
        <g id="`" stroke-width="1" fill-rule="evenodd" transform="translate(51.2187, 11.0335) rotate(74) translate(-51.2187, -11.0335)translate(44.7187, 6.0335)" fill="#000000">
            <path d="M10.2970297,10 C10.0825083,10 9.84653465,9.9689441 9.58910891,9.9068323 C9.33168317,9.8447205 9.07425743,9.7515528 8.81683168,9.62732919 L2.38118812,6.33540373 C1.60891089,5.92132505 1.0189769,5.42443064 0.611386139,4.8447205 C0.20379538,4.26501035 0,3.66459627 0,3.04347826 C0,2.09109731 0.386138614,1.34575569 1.15841584,0.807453416 C1.93069307,0.269151139 2.68151815,0 3.41089109,0 C4.01155116,0 4.580033,0.134575569 5.11633663,0.403726708 C5.65264026,0.672877847 6.13531353,0.99378882 6.56435644,1.36645963 L12.0990099,6.08695652 C12.69967,6.6252588 13,7.18426501 13,7.76397516 C13,8.42650104 12.7533003,8.96480331 12.259901,9.37888199 C11.7665017,9.79296066 11.1122112,10 10.2970297,10 Z" id="Path" fill-rule="nonzero"></path>
        </g>
    </g>
</svg>