<?xml version="1.0" encoding="UTF-8"?>
<svg width="64px" height="64px" viewBox="0 0 64 64" version="1.1" xmlns="http://www.w3.org/2000/svg" xmlns:xlink="http://www.w3.org/1999/xlink">
    <title>program_elements</title>
    <g id="program_elements" stroke="none" stroke-width="1" fill="none" fill-rule="evenodd">
        <path d="M50.3773436,55.9998144 C50.5328898,57.3357518 49.7695851,58.6408347 48.4844108,59.1395431 L48.3182281,59.1985462 C47.3974097,59.4958297 46.3897362,59.3307229 45.6119395,58.7551222 L41.8889238,55.9992619 Z M29.1411389,7.38971989 C29.6433579,5.81081452 31.3304424,4.93798771 32.9093478,5.44020664 C33.8369877,5.73527075 34.563797,6.46208003 34.8588611,7.38971989 L35.6879238,9.99926194 L35.5,10 C34.322386,10 33.2421279,10.5001812 32.4311119,11.3405138 L32.2725496,11.5130683 C32.1977195,11.5985884 32.1255447,11.6872141 32.0562035,11.7787654 L31.999,11.597 L31.8456272,12.0792908 C31.3626951,12.8253958 31.0565865,13.731489 31.0070903,14.7169508 L27.5522068,25.5813687 C27.1554317,26.8287738 25.9956824,27.6749144 24.6866975,27.6720136 L10.127,27.639 L21.9606034,36.3160373 C22.9509957,37.0422606 23.3936206,38.2936161 23.0948775,39.4717065 L23.0415184,39.6570247 L18.512,53.686 L30.2154086,45.0262129 C30.638638,44.7130061 31.1237084,44.5248143 31.6212526,44.4616374 C31.2281535,45.2036802 31,46.0708779 31,47 L30.9999238,49.4202619 L18.3880605,58.7551222 C17.1586851,59.6649092 15.4633789,59.4957443 14.4346338,58.4168204 L14.3095942,58.2772289 L14.1919896,58.1282341 C13.6163888,57.3504373 13.451282,56.3427638 13.7485656,55.4219454 L19.013,39.114 L5.29013743,29.0522477 C4.00539026,28.1101835 3.68886209,26.3381932 4.53740561,25.0154589 L4.64483578,24.8589691 C5.21134027,24.0863943 6.11275827,23.6308418 7.07077424,23.6329649 L23.962,23.67 Z M45.2719238,39.9992619 L45.9179238,41.9992619 L41.7139238,41.9992619 L41.0689238,39.9992619 L45.2719238,39.9992619 Z M57.8427481,23.7724646 C59.0003591,24.1391548 59.8545287,25.1892738 59.9303834,26.4500482 L59.9358741,26.6263092 C59.9365986,26.9543571 59.8836594,27.2757687 59.7827038,27.5793693 L59.7274504,27.5130683 C58.9014738,26.569095 57.7561216,26 56.5,26 L36.6168793,26.0009347 C36.5777539,25.9216679 36.5419265,25.8402376 36.5095994,25.7567914 L36.4477932,25.5813687 L35.9439238,23.9992619 L56.5,24 C56.892538,24 57.2742587,23.9444243 57.6387959,23.8392 Z" id="program-star" fill="#000000" fill-rule="nonzero"></path>
        <path d="M56.5,27 C58.4329966,27 60,28.790861 60,31 L60,35 C60,37.209139 58.4329966,39 56.5,39 L35.5,39 C33.5670034,39 32,37.209139 32,35 L32,31 C32,28.790861 33.5670034,27 35.5,27 L56.5,27 Z M57,31 L36,31 L36,35 L57,35 L57,31 Z M56.5,11 C58.4329966,11 60,12.790861 60,15 L60,19 C60,21.209139 58.4329966,23 56.5,23 L35.5,23 C33.5670034,23 32,21.209139 32,19 L32,15 C32,12.790861 33.5670034,11 35.5,11 L56.5,11 Z M57,15 L36,15 L36,19 L57,19 L57,15 Z M56.5,43 C58.4329966,43 60,44.790861 60,47 L60,51 C60,53.209139 58.4329966,55 56.5,55 L35.5,55 C33.5670034,55 32,53.209139 32,51 L32,47 C32,44.790861 33.5670034,43 35.5,43 L56.5,43 Z M57,47 L36,47 L36,51 L57,51 L57,47 Z" id="Combined-Shape" fill="#000000" fill-rule="nonzero"></path>
    </g>
</svg>