<?xml version="1.0" encoding="UTF-8"?>
<svg width="64px" height="64px" viewBox="0 0 64 64" version="1.1" xmlns="http://www.w3.org/2000/svg" xmlns:xlink="http://www.w3.org/1999/xlink">
    <title>promo</title>
    <g id="promo" stroke="none" stroke-width="1" fill="none" fill-rule="evenodd">
        <path d="M46,6 L32,6 C31.469567,6 30.9608592,6.21071368 30.5857864,6.58578644 L4.58578644,32.5857864 C3.80473785,33.366835 3.80473785,34.633165 4.58578644,35.4142136 L28.5857864,59.4142136 C29.366835,60.1952621 30.633165,60.1952621 31.4142136,59.4142136 L57.4142136,33.4142136 C57.7892863,33.0391408 58,32.530433 58,32 L58,18 C58,17.469567 57.7892863,16.9608592 57.4142136,16.5857864 L47.4142136,6.58578644 C47.0391408,6.21071368 46.530433,6 46,6 Z M45.171,10 L54,18.829 L54,31.17 L30,55.171 L8.829,34 L32.828,10 L45.171,10 Z" id="Path-4" fill="#000000" fill-rule="nonzero"></path>
        <circle id="Oval" fill="#000000" cx="45" cy="19" r="3"></circle>
        <path d="M26,22 C28.7614237,22 31,24.2385763 31,27 C31,29.7614237 28.7614237,32 26,32 C23.2385763,32 21,29.7614237 21,27 C21,24.2385763 23.2385763,22 26,22 Z M26,25 C24.8954305,25 24,25.8954305 24,27 C24,28.1045695 24.8954305,29 26,29 C27.1045695,29 28,28.1045695 28,27 C28,25.8954305 27.1045695,25 26,25 Z" id="Oval" fill="#000000" fill-rule="nonzero"></path>
        <path d="M37,33 C39.7614237,33 42,35.2385763 42,38 C42,40.7614237 39.7614237,43 37,43 C34.2385763,43 32,40.7614237 32,38 C32,35.2385763 34.2385763,33 37,33 Z M37,36 C35.8954305,36 35,36.8954305 35,38 C35,39.1045695 35.8954305,40 37,40 C38.1045695,40 39,39.1045695 39,38 C39,36.8954305 38.1045695,36 37,36 Z" id="Oval-Copy" fill="#000000" fill-rule="nonzero"></path>
        <rect id="Rectangle" fill="#000000" transform="translate(31.338835, 32.424621) rotate(-45.000000) translate(-31.338835, -32.424621) " x="20.3388348" y="30.9246212" width="22" height="3" rx="1.5"></rect>
    </g>
</svg>