<?xml version="1.0" encoding="UTF-8"?>
<svg width="64px" height="64px" viewBox="0 0 64 64" version="1.1" xmlns="http://www.w3.org/2000/svg" xmlns:xlink="http://www.w3.org/1999/xlink">
    <title>proposal_exclusive</title>
    <g id="proposal_exclusive" stroke="none" fill="none" fill-rule="nonzero">
        <path d="M50,14 C50.2652165,14 50.5195704,14.1053568 50.7071068,14.2928932 L59.7071068,23.2928932 C59.8946432,23.4804296 60,23.7347835 60,24 L60,59 C60,59.5522847 59.5522847,60 59,60 L31,60 C30.4477153,60 30,59.5522847 30,59 L30,15 C30,14.4477153 30.4477153,14 31,14 Z M34,18 L34,56 L56,56 L56,27 L48,27 C47.4871642,27 47.0644928,26.6139598 47.0067277,26.1166211 L47,26 L47,18 L34,18 Z M51,20 L51,23 L54,23 L51,20 Z" id="Combined-Shape" fill="#000000"></path>
        <path d="M21,51 L22.3333333,51 L22.3333333,55 L19,55 C17.8954305,55 17,54.1045695 17,53 L17,49.5 L21,49.5 L21,51 Z M29,55 L25.6666667,55 L25.6666667,51 L29,51 L29,55 Z M21,46 L17,46 L17,39 L21,39 L21,46 Z M21,35.5 L17,35.5 L17,28.5 L21,28.5 L21,35.5 Z M21,25 L17,25 L17,18 L21,18 L21,25 Z M22,13 L21,13 L21,14.5 L17,14.5 L17,11 C17,9.8954305 17.8954305,9 19,9 L22,9 L22,13 Z M38.4142136,9.58578644 L41.5,13 L34,13 L34,9 L37,9 C37.530433,9 38.0391408,9.21071368 38.4142136,9.58578644 Z M31,13 L25,13 L25,9 L31,9 L31,13 Z" id="Path" fill="#000000"></path>
        <path d="M8,46 L9.33333334,46 L9.33333334,50 L6,50 C4.8954305,50 4,49.1045695 4,48 L4,44.5 L8,44.5 L8,46 Z M16,50 L12.6666667,50 L12.6666667,46 L16,46 L16,50 Z M8,41 L4,41 L4,34 L8,34 L8,41 Z M8,30.5 L4,30.5 L4,23.5 L8,23.5 L8,30.5 Z M8,20 L4,20 L4,13 L8,13 L8,20 Z M9,8 L8,8 L8,9.5 L4,9.5 L4,6 C4,4.8954305 4.8954305,4 6,4 L9,4 L9,8 Z M25.4142136,4.58578644 L28.5,8 L21,8 L21,4 L24,4 C24.530433,4 25.0391408,4.21071368 25.4142136,4.58578644 Z M18,8 L12,8 L12,4 L18,4 L18,8 Z" id="Path-2" fill="#000000"></path>
    </g>
</svg>