<?xml version="1.0" encoding="UTF-8"?>
<svg width="64px" height="64px" viewBox="0 0 64 64" version="1.1" xmlns="http://www.w3.org/2000/svg" xmlns:xlink="http://www.w3.org/1999/xlink">
    <title>proposal_reminder</title>
    <g id="proposal_reminder" stroke="none" fill="none" fill-rule="nonzero">
        <path d="M36,4 C36.2652165,4 36.5195704,4.10535684 36.7071068,4.29289322 L47.7071068,15.2928932 C47.8946432,15.4804296 48,15.7347835 48,16 L48.0008689,18.5285648 C46.939252,17.5780225 45.5371282,17 44,17 C42.2229369,17 40.6263141,17.7725565 39.5276693,19.0001315 L34,19 C33.4871642,19 33.0644928,18.6139598 33.0067277,18.1166211 L33,18 L33,8 L12,8 L12,56 L34,56 L35.5133707,56.0002406 C36.0762868,57.5965565 37.0695106,58.9716208 38.3440109,60.0010891 L9,60 C8.44771525,60 8,59.5522847 8,59 L8,5 C8,4.44771525 8.44771525,4 9,4 Z M28.6164285,44.0012472 C28.4929101,44.6523085 28.3390134,45.2461268 28.1539501,45.8013167 C28.0320113,46.167133 27.9924611,46.2717349 27.6770466,47.0631388 C27.5226766,47.450467 27.4146248,47.7393175 27.3302903,48.0005165 L18,48 C16.8954305,48 16,47.1045695 16,46 C16,44.8954305 16.8954305,44 18,44 Z M29.2177185,35.9997071 C29.0738338,36.9637792 29,37.9657654 29,39 C29,39.3456322 28.996364,39.6790976 28.9890567,40.0012341 L18,40 C16.8954305,40 16,39.1045695 16,38 C16,36.8954305 16.8954305,36 18,36 Z M26.5630664,27.9997563 C26.2611287,28.5977015 25.9782996,29.2265038 25.7145699,29.885828 C25.4328207,30.5902009 25.4369477,31.338089 25.6718999,32.0010401 L18,32 C16.8954305,32 16,31.1045695 16,30 C16,28.8954305 16.8954305,28 18,28 Z M38,20 C38.2564042,20 38.5015391,20.0482499 38.7268203,20.1361653 C38.2633033,20.986604 38,21.9625531 38,23 C38,23.3744624 38.0344347,23.7444824 38.102995,24.1062433 L38.0834908,23.9982889 C38.055802,23.9994259 38.0279681,24 38,24 L36.999576,24.0003502 C37.0009687,23.5914792 36.9176516,23.1778124 36.7434635,22.7855862 L36.6047294,22.5115832 C35.7826995,21.0730308 33.9501355,20.5732407 32.5115832,21.3952706 C31.32138,22.0753867 30.2428755,22.9452078 29.2759404,24.00001 L18,24 C16.8954305,24 16,23.1045695 16,22 C16,20.8954305 16.8954305,20 18,20 L38,20 Z M27,12 C28.1045695,12 29,12.8954305 29,14 C29,15.1045695 28.1045695,16 27,16 L18,16 C16.8954305,16 16,15.1045695 16,14 C16,12.8954305 16.8954305,12 18,12 L27,12 Z M37,10 L37,15 L42,15 L37,10 Z" id="page" fill="#000000"></path>
        <path d="M44,18 C46.7614237,18 49,20.2385763 49,23 C49,23.6054499 48.8923876,24.1857655 48.6952465,24.7228634 C54.3591729,26.5799729 58,31.8796426 58,39 C58,42.250818 58.3203527,44.3865029 58.8973666,46.1175445 C59.0300813,46.5156886 59.0804888,46.6467073 59.3940132,47.4333685 C59.6380716,48.0457332 59.7613649,48.3965908 59.8617449,48.8267908 C59.9526753,49.2164922 60,49.6014001 60,50 C60,51.5985404 59.5110486,52.9024108 58.3743901,53.8117376 C57.3207993,54.6546103 55.8960666,55 54,55 L51.7478729,55.0003581 C50.8596627,58.4506308 47.7275499,61 44,61 C40.2724501,61 37.1403373,58.4506308 36.2521271,55.0003581 L34,55 C32.1039334,55 30.6792007,54.6546103 29.6256099,53.8117376 C28.4889514,52.9024108 28,51.5985404 28,50 C28,49.6014001 28.0473247,49.2164922 28.1382551,48.8267908 C28.2386351,48.3965908 28.3619284,48.0457332 28.6059868,47.4333685 C28.9195112,46.6467073 28.9699187,46.5156886 29.1026334,46.1175445 C29.6796473,44.3865029 30,42.250818 30,39 C30,31.8800609 33.6403994,26.5805955 39.305601,24.7228758 C39.1076124,24.1857655 39,23.6054499 39,23 C39,20.2385763 41.2385763,18 44,18 Z M44,57 C45.4801068,57 46.7724528,56.1961002 47.4642293,55.0011092 L40.5357707,55.0011092 C41.2275472,56.1961002 42.5198932,57 44,57 Z M44,28 C37.9920499,28 34,32.2268764 34,39 C34,42.6658487 33.6158073,45.2271335 32.8973666,47.3824555 C32.7227316,47.9063605 32.0900781,49.4937457 32.0336199,49.7357092 C32.0100314,49.836803 32,49.9183915 32,50 C32,50.2888541 32.0304241,50.489295 32.0757834,50.6102531 C32.0940097,50.6588566 32.1024626,50.6707204 32.1243901,50.6882624 C32.1948541,50.7446336 32.3376367,50.8099056 32.5805751,50.8687998 C32.9284703,50.953138 33.4000188,51 34,51 L54,51 C54.5999812,51 55.0715297,50.953138 55.4194249,50.8687998 C55.6623633,50.8099056 55.8051459,50.7446336 55.8756099,50.6882624 C55.8975374,50.6707204 55.9059903,50.6588566 55.9242166,50.6102531 C55.9695759,50.489295 56,50.2888541 56,50 C56,49.9183915 55.9899686,49.836803 55.9663801,49.7357092 C55.9099219,49.4937457 55.2772684,47.9063605 55.1026334,47.3824555 C54.3841927,45.2271335 54,42.6658487 54,39 C54,32.2268764 50.0079501,28 44,28 Z M33.0077221,22.2635137 C33.966757,21.7154938 35.1884663,22.0486872 35.7364863,23.0077221 C36.2845062,23.966757 35.9513128,25.1884663 34.9922779,25.7364863 C33.0856698,26.8259766 31.5334587,28.801518 30.3569534,31.7427814 C29.9467266,32.7683484 28.7827857,33.2671802 27.7572186,32.8569534 C26.7316516,32.4467266 26.2328198,31.2827857 26.6430466,30.2572186 C28.1332079,26.5318154 30.2476635,23.84069 33.0077221,22.2635137 Z M54.9922779,22.2635137 C57.7523365,23.84069 59.8667921,26.5318154 61.3569534,30.2572186 C61.7671802,31.2827857 61.2683484,32.4467266 60.2427814,32.8569534 C59.2172143,33.2671802 58.0532734,32.7683484 57.6430466,31.7427814 C56.4665413,28.801518 54.9143302,26.8259766 53.0077221,25.7364863 C52.0486872,25.1884663 51.7154938,23.966757 52.2635137,23.0077221 C52.8115337,22.0486872 54.033243,21.7154938 54.9922779,22.2635137 Z M44,22 C43.4477153,22 43,22.4477153 43,23 C43,23.5522847 43.4477153,24 44,24 C44.5522847,24 45,23.5522847 45,23 C45,22.4477153 44.5522847,22 44,22 Z" id="bell" fill="#000000"></path>
    </g>
</svg>