<?xml version="1.0" encoding="UTF-8"?>
<svg width="64px" height="64px" viewBox="0 0 64 64" version="1.1" xmlns="http://www.w3.org/2000/svg" xmlns:xlink="http://www.w3.org/1999/xlink">
    <title>proposal_bundle</title>
    <g id="proposal_bundle" stroke="none" fill="none" fill-rule="nonzero">
        <path d="M36,4 C36.2652165,4 36.5195704,4.10535684 36.7071068,4.29289322 L47.7071068,15.2928932 C47.8946432,15.4804296 48,15.7347835 48,16 L48,30 L44,30 L44,19 L34,19 C33.4871642,19 33.0644928,18.6139598 33.0067277,18.1166211 L33,18 L33,8 L12,8 L12,56 L25,56 C25,57.3404903 25.4853002,58.6017682 26.2970282,59.5149621 C26.4526992,59.690092 26.6201707,59.8527363 26.7985063,60.0012298 L9,60 C8.44771525,60 8,59.5522847 8,59 L8,5 C8,4.44771525 8.44771525,4 9,4 Z M23,36 L23,39 C23,39.3427224 23.0344819,39.6773912 23.1001656,40.0007263 L18,40 C16.8954305,40 16,39.1045695 16,38 C16,36.8954305 16.8954305,36 18,36 L23,36 Z M38,28 C39.1045695,28 40,28.8954305 40,30 L28,30 C26.6192881,30 25.3692881,30.5596441 24.4644661,31.4644661 C24.2972057,31.6317265 24.1417404,31.8107821 23.999425,32.0002781 L18,32 C16.8954305,32 16,31.1045695 16,30 C16,28.8954305 16.8954305,28 18,28 L38,28 Z M38,20 C39.1045695,20 40,20.8954305 40,22 C40,23.1045695 39.1045695,24 38,24 L18,24 C16.8954305,24 16,23.1045695 16,22 C16,20.8954305 16.8954305,20 18,20 L38,20 Z M27,12 C28.1045695,12 29,12.8954305 29,14 C29,15.1045695 28.1045695,16 27,16 L18,16 C16.8954305,16 16,15.1045695 16,14 C16,12.8954305 16.8954305,12 18,12 L27,12 Z M37,10 L37,15 L42,15 L37,10 Z" id="page" fill="#000000"></path>
        <path d="M56,31 C58.209139,31 60,32.790861 60,35 L60,39 C60,40.4801068 59.1961002,41.7724528 58.0011092,42.4642293 L58,56 C58,58.1147616 56.5337035,60 54.4444444,60 L29.5555556,60 C27.4662965,60 26,58.1147616 26,56 L25.9998796,42.4648015 C24.8043432,41.7731656 24,40.480515 24,39 L24,35 C24,32.790861 25.790861,31 28,31 L56,31 Z M54,43 L30,43 L30,56 L54,56 L54,43 Z M47,45 C47.5522847,45 48,45.4477153 48,46 L48,48 C48,48.5522847 47.5522847,49 47,49 L37,49 C36.4477153,49 36,48.5522847 36,48 L36,46 C36,45.4477153 36.4477153,45 37,45 L47,45 Z M56,35 L28,35 L28,39 L56,39 L56,35 Z" id="bundle" fill="#000000"></path>
    </g>
</svg>