<?xml version="1.0" encoding="UTF-8"?>
<svg width="64px" height="64px" viewBox="0 0 64 64" version="1.1" xmlns="http://www.w3.org/2000/svg" xmlns:xlink="http://www.w3.org/1999/xlink">
    <title>proposal_expired</title>
    <g id="proposal_expired" stroke="none" fill="none" fill-rule="nonzero">
        <path d="M32,4 C32.2652165,4 32.5195704,4.10535684 32.7071068,4.29289322 L43.7071068,15.2928932 C43.8946432,15.4804296 44,15.7347835 44,16 L44,26.321 L40,19.048 L40,19 L39.973,19 L38.6286477,16.5542438 C37.5214341,14.541128 34.6797871,14.4836104 33.473463,16.381691 L33.3713523,16.5542438 L32.026,19 L30,19 C29.4871642,19 29.0644928,18.6139598 29.0067277,18.1166211 L29,18 L29,8 L8,8 L8,56 L11.676,56 L11.3713523,56.5542438 C10.7139757,57.7494738 10.9665185,59.1044643 11.7634834,60.0010602 L5,60 C4.44771525,60 4,59.5522847 4,59 L4,5 C4,4.44771525 4.44771525,4 5,4 Z M22.676,36 L20.476,40 L14,40 C12.8954305,40 12,39.1045695 12,38 C12,36.8954305 12.8954305,36 14,36 L22.676,36 Z M27.076,28 L24.876,32 L14,32 C12.8954305,32 12,31.1045695 12,30 C12,28.8954305 12.8954305,28 14,28 L27.076,28 Z M31.476,20 L29.276,24 L14,24 C12.8954305,24 12,23.1045695 12,22 C12,20.8954305 12.8954305,20 14,20 L31.476,20 Z M23,12 C24.1045695,12 25,12.8954305 25,14 C25,15.1045695 24.1045695,16 23,16 L14,16 C12.8954305,16 12,15.1045695 12,14 C12,12.8954305 12.8954305,12 14,12 L23,12 Z M33,10 L33,15 L38,15 L33,10 Z" id="Combined-Shape" fill="#000000"></path>
        <path d="M37.7524318,17.0361625 L59.7524318,57.0361625 C60.4855296,58.3690676 59.5212063,60 58,60 L14,60 C12.4787937,60 11.5144704,58.3690676 12.2475682,57.0361625 L34.2475682,17.0361625 C35.0074207,15.6546125 36.9925793,15.6546125 37.7524318,17.0361625 Z M17.3825424,56 L54.6174576,56 L36,22.1500772 L17.3825424,56 Z" id="Path-2" fill="#000000"></path>
        <path d="M38,34 L38,44.1715729 L44.4142136,50.5857864 C45.1952621,51.366835 45.1952621,52.633165 44.4142136,53.4142136 C43.633165,54.1952621 42.366835,54.1952621 41.5857864,53.4142136 L34.5857864,46.4142136 C34.2107137,46.0391408 34,45.530433 34,45 L34,34 C34,32.8954305 34.8954305,32 36,32 C37.1045695,32 38,32.8954305 38,34 Z" id="Path" fill="#000000"></path>
    </g>
</svg>