<?xml version="1.0" encoding="UTF-8"?>
<svg width="64px" height="64px" viewBox="0 0 64 64" version="1.1" xmlns="http://www.w3.org/2000/svg" xmlns:xlink="http://www.w3.org/1999/xlink">
    <title>proposal_inclusive</title>
    <g id="proposal_inclusive" stroke="none" fill="none" fill-rule="nonzero">
        <path d="M50,14 C50.2652165,14 50.5195704,14.1053568 50.7071068,14.2928932 L59.7071068,23.2928932 C59.8946432,23.4804296 60,23.7347835 60,24 L60,59 C60,59.5522847 59.5522847,60 59,60 L31,60 C30.4477153,60 30,59.5522847 30,59 L30,15 C30,14.4477153 30.4477153,14 31,14 Z M34,18 L34,56 L56,56 L56,27 L48,27 C47.4871642,27 47.0644928,26.6139598 47.0067277,26.1166211 L47,26 L47,18 L34,18 Z M51,20 L51,23 L54,23 L51,20 Z" id="Combined-Shape" fill="#000000"></path>
        <path d="M37,9 C37.2652165,9 37.5195704,9.10535684 37.7071068,9.29289322 L41.415,13 L29,13 L21,13 L21,51 L29,51 L29,55 L18,55 C17.4871642,55 17.0644928,54.6139598 17.0067277,54.1166211 L17,54 L17,10 C17,9.44771525 17.4477153,9 18,9 Z" id="Combined-Shape-2" fill="#000000"></path>
        <path d="M24,4 C24.2652165,4 24.5195704,4.10535684 24.7071068,4.29289322 L28.415,8 L16,8 L8,8 L8,46 L16,46 L16,50 L5,50 C4.48716416,50 4.06449284,49.6139598 4.00672773,49.1166211 L4,49 L4,5 C4,4.44771525 4.44771525,4 5,4 Z" id="Combined-Shape-3" fill="#000000"></path>
    </g>
</svg>