<?xml version="1.0" encoding="UTF-8"?>
<svg width="64px" height="64px" viewBox="0 0 64 64" version="1.1" xmlns="http://www.w3.org/2000/svg" xmlns:xlink="http://www.w3.org/1999/xlink">
    <title>proposal_start</title>
    <g id="proposal_start" stroke="none" fill="none">
        <g id="Group" stroke-width="1" fill-rule="evenodd" transform="translate(24, 26)">
            <path d="M18,0 C27.9411255,0 36,8.0588745 36,18 C36,27.9411255 27.9411255,36 18,36 C8.0588745,36 0,27.9411255 0,18 C0,8.0588745 8.0588745,0 18,0 Z M18,4 C10.2680135,4 4,10.2680135 4,18 C4,25.7319865 10.2680135,32 18,32 C25.7319865,32 32,25.7319865 32,18 C32,10.2680135 25.7319865,4 18,4 Z" id="Oval" fill="#101010" fill-rule="nonzero"></path>
            <path d="M13,26.0568107 L13,9.94318932 C13,9.39090457 13.4477153,8.94318932 14,8.94318932 C14.208423,8.94318932 14.4116374,9.00831246 14.5812382,9.12945585 L25.8607731,17.1862665 C26.3101857,17.5072755 26.4142774,18.1318256 26.0932684,18.5812382 C26.0291288,18.6710337 25.9505687,18.7495938 25.8607731,18.8137335 L14.5812382,26.8705441 C14.1318256,27.1915531 13.5072755,27.0874615 13.1862665,26.6380489 C13.0651231,26.4684481 13,26.2652337 13,26.0568107 Z" id="Path-2" fill="#000000"></path>
        </g>
        <path d="M36,4 C36.2652165,4 36.5195704,4.10535684 36.7071068,4.29289322 L47.7071068,15.2928932 C47.8946432,15.4804296 48,15.7347835 48,16 L48.0005002,25.9669791 C46.7222233,25.5418391 45.3836154,25.2488147 44.0008693,25.1040987 L44,19 L34,19 C33.4871642,19 33.0644928,18.6139598 33.0067277,18.1166211 L33,18 L33,8 L12,8 L12,56 L27.2694428,56.0013827 C27.6770028,56.5010212 28.1094772,56.9795348 28.5649712,57.4350288 C29.5297169,58.3997746 30.5977291,59.261254 31.7510048,60.0014642 L9,60 C8.44771525,60 8,59.5522847 8,59 L8,5 C8,4.44771525 8.44771525,4 9,4 Z M24.7609693,36.0006957 C24.1734256,37.2647528 23.7208199,38.6042342 23.421658,40.0006339 L18,40 C16.8954305,40 16,39.1045695 16,38 C16,36.8954305 16.8954305,36 18,36 Z M31.7489974,27.9998243 C30.5964898,28.7397457 29.5291572,29.6007851 28.5649712,30.5649712 C28.1091721,31.0207702 27.6764235,31.4996198 27.2686239,31.9996213 L18,32 C16.8954305,32 16,31.1045695 16,30 C16,28.8954305 16.8954305,28 18,28 Z M38,20 C39.1045695,20 40,20.8954305 40,22 C40,23.1045695 39.1045695,24 38,24 L18,24 C16.8954305,24 16,23.1045695 16,22 C16,20.8954305 16.8954305,20 18,20 L38,20 Z M27,12 C28.1045695,12 29,12.8954305 29,14 C29,15.1045695 28.1045695,16 27,16 L18,16 C16.8954305,16 16,15.1045695 16,14 C16,12.8954305 16.8954305,12 18,12 L27,12 Z M37,10 L37,15 L42,15 L37,10 Z" id="page" fill="#000000" fill-rule="nonzero"></path>
    </g>
</svg>