<?xml version="1.0" encoding="UTF-8"?>
<svg width="64px" height="64px" viewBox="0 0 64 64" version="1.1" xmlns="http://www.w3.org/2000/svg" xmlns:xlink="http://www.w3.org/1999/xlink">
    <title>proposal_staged</title>
    <g id="proposal_staged" stroke="none" fill="none" fill-rule="nonzero">
        <path d="M42,26 C51.9411255,26 60,34.0588745 60,44 C60,53.9411255 51.9411255,62 42,62 C32.0588745,62 24,53.9411255 24,44 C24,34.0588745 32.0588745,26 42,26 Z M42,30 C34.2680135,30 28,36.2680135 28,44 C28,51.7319865 34.2680135,58 42,58 C49.7319865,58 56,51.7319865 56,44 C56,36.2680135 49.7319865,30 42,30 Z" id="Oval" fill="#101010"></path>
        <path d="M43.4142136,32.5857864 L51.4142136,40.5857864 C52.1952621,41.366835 52.1952621,42.633165 51.4142136,43.4142136 C50.633165,44.1952621 49.366835,44.1952621 48.5857864,43.4142136 L44,38.828 L44,54 C44,55.1045695 43.1045695,56 42,56 C40.8954305,56 40,55.1045695 40,54 L40,38.828 L35.4142136,43.4142136 C34.633165,44.1952621 33.366835,44.1952621 32.5857864,43.4142136 C31.8047379,42.633165 31.8047379,41.366835 32.5857864,40.5857864 L40.5857864,32.5857864 C41.366835,31.8047379 42.633165,31.8047379 43.4142136,32.5857864 Z" id="Combined-Shape" fill="#000000"></path>
        <path d="M36,4 C36.2652165,4 36.5195704,4.10535684 36.7071068,4.29289322 L47.7071068,15.2928932 C47.8946432,15.4804296 48,15.7347835 48,16 L48.0005002,25.9669791 C46.7222233,25.5418391 45.3836154,25.2488147 44.0008693,25.1040987 L44,19 L34,19 C33.4871642,19 33.0644928,18.6139598 33.0067277,18.1166211 L33,18 L33,8 L12,8 L12,56 L27.2694428,56.0013827 C27.6770028,56.5010212 28.1094772,56.9795348 28.5649712,57.4350288 C29.5297169,58.3997746 30.5977291,59.261254 31.7510048,60.0014642 L9,60 C8.44771525,60 8,59.5522847 8,59 L8,5 C8,4.44771525 8.44771525,4 9,4 Z M24.7609693,36.0006957 C24.1734256,37.2647528 23.7208199,38.6042342 23.421658,40.0006339 L18,40 C16.8954305,40 16,39.1045695 16,38 C16,36.8954305 16.8954305,36 18,36 Z M31.7489974,27.9998243 C30.5964898,28.7397457 29.5291572,29.6007851 28.5649712,30.5649712 C28.1091721,31.0207702 27.6764235,31.4996198 27.2686239,31.9996213 L18,32 C16.8954305,32 16,31.1045695 16,30 C16,28.8954305 16.8954305,28 18,28 Z M38,20 C39.1045695,20 40,20.8954305 40,22 C40,23.1045695 39.1045695,24 38,24 L18,24 C16.8954305,24 16,23.1045695 16,22 C16,20.8954305 16.8954305,20 18,20 L38,20 Z M27,12 C28.1045695,12 29,12.8954305 29,14 C29,15.1045695 28.1045695,16 27,16 L18,16 C16.8954305,16 16,15.1045695 16,14 C16,12.8954305 16.8954305,12 18,12 L27,12 Z M37,10 L37,15 L42,15 L37,10 Z" id="page" fill="#000000"></path>
    </g>
</svg>