<?xml version="1.0" encoding="UTF-8"?>
<svg width="64px" height="64px" viewBox="0 0 64 64" version="1.1" xmlns="http://www.w3.org/2000/svg" xmlns:xlink="http://www.w3.org/1999/xlink">
    <title>proposal</title>
    <g id="proposal" stroke="none" stroke-width="1" fill="none" fill-rule="evenodd">
        <g id="Group" transform="translate(24.000000, 26.000000)" fill-rule="nonzero">
            <path d="M18,0 C27.9411255,0 36,8.0588745 36,18 C36,27.9411255 27.9411255,36 18,36 C8.0588745,36 0,27.9411255 0,18 C0,8.0588745 8.0588745,0 18,0 Z M18,4 C10.2680135,4 4,10.2680135 4,18 C4,25.7319865 10.2680135,32 18,32 C25.7319865,32 32,25.7319865 32,18 C32,10.2680135 25.7319865,4 18,4 Z" id="Oval" fill="#101010"></path>
            <path d="M23.2850141,9.97100849 C23.8533105,9.02384796 25.081831,8.71671783 26.0289915,9.28501415 C26.9084977,9.81271787 27.236141,10.9096965 26.82345,11.8220652 L26.7149859,12.0289915 L17.7149859,27.0289915 C17.0873932,28.0749793 15.6948985,28.3069487 14.7651932,27.573764 L14.5857864,27.4142136 L8.58578644,21.4142136 C7.80473785,20.633165 7.80473785,19.366835 8.58578644,18.5857864 C9.30675436,17.8648185 10.4412165,17.8093594 11.2257989,18.4194092 L11.4142136,18.5857864 L15.602,22.772 L23.2850141,9.97100849 Z" id="Path-115" fill="#000000"></path>
        </g>
        <path d="M36,4 C36.2652165,4 36.5195704,4.10535684 36.7071068,4.29289322 L36.7071068,4.29289322 L47.7071068,15.2928932 C47.8946432,15.4804296 48,15.7347835 48,16 L48,16 L48.0005002,25.9669791 C46.7222233,25.5418391 45.3836154,25.2488147 44.0008693,25.1040987 L44,19 L34,19 C33.4871642,19 33.0644928,18.6139598 33.0067277,18.1166211 L33,18 L33,8 L12,8 L12,56 L27.2694428,56.0013827 C27.6770028,56.5010212 28.1094772,56.9795348 28.5649712,57.4350288 C29.5297169,58.3997746 30.5977291,59.261254 31.7510048,60.0014642 L9,60 C8.44771525,60 8,59.5522847 8,59 L8,59 L8,5 C8,4.44771525 8.44771525,4 9,4 L9,4 Z M24.7609693,36.0006957 C24.1734256,37.2647528 23.7208199,38.6042342 23.421658,40.0006339 L18,40 C16.8954305,40 16,39.1045695 16,38 C16,36.8954305 16.8954305,36 18,36 Z M31.7489974,27.9998243 C30.5964898,28.7397457 29.5291572,29.6007851 28.5649712,30.5649712 C28.1091721,31.0207702 27.6764235,31.4996198 27.2686239,31.9996213 L18,32 C16.8954305,32 16,31.1045695 16,30 C16,28.8954305 16.8954305,28 18,28 Z M38,20 C39.1045695,20 40,20.8954305 40,22 C40,23.1045695 39.1045695,24 38,24 L18,24 C16.8954305,24 16,23.1045695 16,22 C16,20.8954305 16.8954305,20 18,20 L38,20 Z M27,12 C28.1045695,12 29,12.8954305 29,14 C29,15.1045695 28.1045695,16 27,16 L18,16 C16.8954305,16 16,15.1045695 16,14 C16,12.8954305 16.8954305,12 18,12 L27,12 Z M37,10 L37,15 L42,15 L37,10 Z" id="page" fill="#000000" fill-rule="nonzero"></path>
    </g>
</svg>