<?xml version="1.0" encoding="UTF-8"?>
<svg width="64px" height="64px" viewBox="0 0 64 64" version="1.1" xmlns="http://www.w3.org/2000/svg" xmlns:xlink="http://www.w3.org/1999/xlink">
    <title>proposal_options</title>
    <g id="proposal_options" stroke="none" fill="none" fill-rule="nonzero">
        <path d="M36,4 C36.2652165,4 36.5195704,4.10535684 36.7071068,4.29289322 L47.7071068,15.2928932 C47.8946432,15.4804296 48,15.7347835 48,16 L48.0012567,22.5586823 C47.4018277,22.3529938 46.7915025,22.1755927 46.1720375,22.0274313 L45.3194631,21.8235154 L45.0056797,22.6420537 C44.7874527,23.2113228 44.4391038,23.7072228 44.0008099,24.0988498 L44,19 L34,19 C33.4871642,19 33.0644928,18.6139598 33.0067277,18.1166211 L33,18 L33,8 L12,8 L12,56 L30.9614592,56.0007582 C30.936643,56.446754 30.8321366,56.8917355 30.645073,57.3138865 L30.2907735,58.1134428 L31.0359841,58.571132 C31.931177,59.1209365 32.8673865,59.5989247 33.8366792,60.0007798 L9,60 C8.44771525,60 8,59.5522847 8,59 L8,5 C8,4.44771525 8.44771525,4 9,4 Z M41.5,57.9556016 C42.9309309,57.9556016 44.2100653,58.7640635 44.8423902,60.000829 L38.1580063,59.9999513 C38.7906148,58.7637278 40.0695333,57.9556016 41.5,57.9556016 Z M22.2455567,36.0002047 C22.1669029,36.2761495 22.0941319,36.5541119 22.0273323,36.8339286 L21.8240277,37.6855505 L22.6413225,37.9995916 C23.5930276,38.365279 24.3393458,39.0949258 24.7356797,40.0003961 L18,40 C16.8954305,40 16,39.1045695 16,38 C16,36.8954305 16.8954305,36 18,36 Z M30.884935,28.0007208 C30.737736,28.6920698 30.3949621,29.344933 29.8680184,29.8719462 C29.154225,30.5857377 28.2048957,30.9706459 27.2152057,30.9706459 C26.6886642,30.9706459 26.1674798,30.8608559 25.6864753,30.6469426 L24.8861817,30.2910344 L24.4279207,31.0374508 C24.2339887,31.3533277 24.0489902,31.674331 23.8731179,32.0001051 L18,32 C16.8954305,32 16,31.1045695 16,30 C16,28.8954305 16.8954305,28 18,28 Z M38,20 C39.1045695,20 40,20.8954305 40,22 C40,22.8389669 39.4834225,23.5572807 38.7509888,23.8542202 C38.4283096,23.508149 38.1694899,23.0986871 37.9943998,22.6420097 L37.6805928,21.8235154 L36.8280588,22.0274313 C35.0526359,22.4520708 33.3523725,23.1168895 31.7684942,23.9995249 L18,24 C16.8954305,24 16,23.1045695 16,22 C16,20.8954305 16.8954305,20 18,20 L38,20 Z M27,12 C28.1045695,12 29,12.8954305 29,14 C29,15.1045695 28.1045695,16 27,16 L18,16 C16.8954305,16 16,15.1045695 16,14 C16,12.8954305 16.8954305,12 18,12 L27,12 Z M37,10 L37,15 L42,15 L37,10 Z" id="page" fill="#000000"></path>
        <path d="M56.9502943,41.5043841 C56.9501979,39.4796993 58.2166771,37.7515918 60,37.06613 C59.5291172,35.0941508 58.7515391,33.2408796 57.719875,31.5605636 C57.1056172,31.8338233 56.4451094,31.9704532 55.7848906,31.9704532 C54.5688047,31.9704532 53.3531042,31.5068945 52.4249245,30.5789099 C50.9928125,29.1468017 50.6666536,27.0286536 51.4440391,25.2823352 C49.7641042,24.2499993 47.9114062,23.4716524 45.9394219,23 C45.2550182,24.7853417 43.5260391,26.0534556 41.5,26.0534556 C39.4741536,26.0534556 37.7451745,24.7853417 37.0606745,23 C35.0886901,23.4716524 33.2360885,24.2499993 31.5561536,25.2824316 C32.3335391,27.0285572 32.0073802,29.146609 30.5751719,30.5790063 C29.6471849,31.5069908 28.4312917,31.9706459 27.2152057,31.9706459 C26.5547943,31.9706459 25.8945755,31.8339197 25.280125,31.56066 C24.2485573,33.2408796 23.4707865,35.0940544 23,37.06613 C24.7834193,37.7513991 26.0498021,39.4796993 26.0498021,41.5043841 C26.0498021,43.5285871 24.7844792,45.2560201 23.0021198,45.9418673 C23.4740625,47.9138466 24.2524115,49.7663469 25.2849427,51.4463738 C25.8978516,51.1745594 26.556625,51.0386041 27.2151094,51.0386041 C28.4312917,51.0386041 29.6469922,51.502259 30.5750755,52.4302436 C32.0050677,53.8602321 32.3324792,55.974237 31.5593333,57.7190137 C33.2395573,58.7509641 35.0920625,59.5288293 37.0640469,60 C37.7508594,58.2194759 39.4773333,56.9556016 41.5,56.9556016 C43.5226667,56.9556016 45.2491406,58.2192833 45.9358568,60 C47.9080339,59.5288293 49.7604427,58.7508678 51.440763,57.718821 C50.6677135,55.974237 50.9950286,53.8602321 52.4251172,52.4302436 C53.3529115,51.5021628 54.5688047,51.0385077 55.7847943,51.0385077 C56.4434714,51.0385077 57.1019557,51.1744631 57.7150573,51.4463738 C58.7475885,49.7663469 59.5259375,47.9138466 59.9978802,45.9418673 C58.2155208,45.2559238 56.9502943,43.5283945 56.9502943,41.5043841 L56.9502943,41.5043841 Z M41.5,52 C35.685625,52 31,47.288125 31,41.5 C31,35.7117437 35.685625,31 41.5,31 C47.3142438,31 52,35.7117437 52,41.5 C52,47.288125 47.3142438,52 41.5,52 L41.5,52 Z" id="Shape" fill="#000000"></path>
    </g>
</svg>