<?xml version="1.0" encoding="UTF-8"?>
<svg width="64px" height="64px" viewBox="0 0 64 64" version="1.1" xmlns="http://www.w3.org/2000/svg" xmlns:xlink="http://www.w3.org/1999/xlink">
    <title>protection</title>
    <g id="protection" stroke="none" stroke-width="1" fill="none" fill-rule="evenodd">
        <path d="M43.9957423,28 C46.2072328,28 48,29.7941203 48,31.9968389 L48,52.0031611 C48,54.2105543 46.2109725,56 43.9957423,56 L20.0042577,56 C17.7927672,56 16,54.2058797 16,52.0031611 L16,31.9968389 C16,29.7894457 17.7890275,28 20.0042577,28 L43.9957423,28 Z M32,34 C29.2385763,34 27,36.2385763 27,39 C27,41.0504975 28.23431,42.8127064 30.0004611,43.5841577 L30,50 L34,50 L34.0005324,43.5837237 C35.7661528,42.8120455 37,41.050113 37,39 C37,36.2385763 34.7614237,34 32,34 Z" id="Rectangle-2" fill="#000000" fill-rule="nonzero"></path>
        <path d="M32,8 C36.3482236,8 39.2755077,10.195463 40.8276232,13.6877231 C41.3455155,14.8529807 41.6723807,16.0787255 41.8534069,17.3006525 C41.9383702,17.8741548 41.9798482,18.3575055 41.9940871,18.7198137 L42,19 L42,28 C42,29.1045695 41.1045695,30 40,30 C38.9456382,30 38.0818349,29.1841222 38.0054857,28.1492623 L38,28 L38,19 L37.9948482,18.8206873 C37.9841075,18.6048685 37.9552892,18.2830458 37.8965931,17.8868471 C37.7651193,16.9993992 37.5294847,16.1157692 37.172377,15.3122769 C36.2244926,13.179537 34.6517766,12 32,12 C29.3364411,12 27.7187832,13.1942433 26.7176078,15.3442682 C26.3417085,16.1515124 26.0865293,17.0379213 25.9358324,17.9277167 L25.8639226,18.4066788 C25.839391,18.5946556 25.8241836,18.7459359 25.8159784,18.8465079 L25.8086322,18.9575833 L25.9995502,27.9575833 C26.0229762,29.0619044 25.1467377,29.9761241 24.0424167,29.9995502 C22.988292,30.0219114 22.1073796,29.224537 22.0091,28.1915291 L22.0004498,28.0424167 L21.8095319,18.9575833 C21.8174519,18.5842286 21.8672488,17.9963432 21.9919935,17.2597833 C22.1985431,16.0402037 22.5506103,14.8172376 23.0914742,13.6557318 C24.7096226,10.1807567 27.6635589,8 32,8 Z" id="Path-28" fill="#000000" fill-rule="nonzero"></path>
    </g>
</svg>