<?xml version="1.0" encoding="UTF-8"?>
<svg width="64px" height="64px" viewBox="0 0 64 64" version="1.1" xmlns="http://www.w3.org/2000/svg" xmlns:xlink="http://www.w3.org/1999/xlink">
    <title>purchase_order</title>
    <g id="purchase_order" stroke="none" stroke-width="1" fill="none" fill-rule="evenodd">
        <path d="M52,8 L52,56 L12,56 L12,8 L52,8 Z M48,51 L48,27 L16,27 L16,51 L48,51 Z M47,50 L33,50 L33,48 L47,48 L47,50 Z M32,48 L32,50 L25,50 L25,48 L32,48 Z M24,48 L24,50 L17,50 L17,48 L24,48 Z M47,47 L40,47 L40,43 L47,43 L47,47 Z M24,43 L24,47 L17,47 L17,43 L24,43 Z M32,43 L32,47 L25,47 L25,43 L32,43 Z M39,43 L39,47 L33,47 L33,43 L39,43 Z M47,42 L40,42 L40,38 L47,38 L47,42 Z M24,38 L24,42 L17,42 L17,38 L24,38 Z M32,38 L32,42 L25,42 L25,38 L32,38 Z M39,38 L39,42 L33,42 L33,38 L39,38 Z M47,37 L33,37 L33,28 L47,28 L47,37 Z M32,33 L32,37 L17,37 L17,33 L32,33 Z M32,28 L32,32 L17,32 L17,28 L32,28 Z M30,21 L14,21 L14,22 L30,22 L30,21 Z M30,18 L14,18 L14,19 L30,19 L30,18 Z M30,15 L14,15 L14,16 L30,16 L30,15 Z M30,12 L14,12 L14,13 L30,13 L30,12 Z" id="Combined-Shape" fill="#000000" fill-rule="nonzero"></path>
        <path d="M31.8544922,11.9151583 L36.536394,11.9151583 C37.4619183,11.9151583 38.2079931,12.1760483 38.7746406,12.6978363 C39.3412881,13.2196242 39.6246076,13.9527135 39.6246076,14.897126 C39.6246076,15.7093208 39.3719811,16.4164391 38.8667204,17.0185021 C38.3614596,17.6205651 37.584692,17.9215921 36.536394,17.9215921 L33.2640209,17.9215921 L33.2640209,22.3201716 L31.8544922,22.3201716 L31.8544922,11.9151583 Z M38.2009128,14.9042091 C38.2009128,14.1392349 37.9175933,13.6198158 37.3509458,13.3459362 C37.0392896,13.1995522 36.6119494,13.1263613 36.0689121,13.1263613 L33.2640209,13.1263613 L33.2640209,16.7316382 L36.0689121,16.7316382 C36.7016686,16.7316382 37.2151852,16.5970615 37.6094774,16.3279039 C38.0037697,16.0587463 38.2009128,15.5841861 38.2009128,14.9042091 Z M45.8860316,11.6318359 C47.722914,11.6318359 49.0828477,12.2220849 49.9658734,13.4026006 C50.6552946,14.3234029 51,15.5015399 51,16.9370469 C51,18.4906056 50.6057137,19.7820704 49.8171292,20.8114801 C48.8916049,22.0203282 47.5718081,22.6247431 45.8576993,22.6247431 C44.2569201,22.6247431 42.9985092,22.09588 42.082429,21.038138 C41.2655122,20.0181724 40.8570599,18.7290686 40.8570599,17.1707879 C40.8570599,15.7636132 41.2064873,14.5595052 41.9053526,13.5584279 C42.8025445,12.2740268 44.1294242,11.6318359 45.8860316,11.6318359 Z M45.9710283,12.8855373 C44.894398,12.8855373 44.0161075,13.2550332 43.3361304,13.994036 C42.6561534,14.7330389 42.31617,15.8226385 42.31617,17.2628676 C42.31617,18.415051 42.607753,19.3866008 43.1909277,20.1775463 C43.7741025,20.9684918 44.7196814,21.3639587 46.0276928,21.3639587 C47.2695953,21.3639587 48.1679542,20.9189109 48.7227966,20.0288021 C49.277639,19.1386933 49.555056,18.1152015 49.555056,16.9582961 C49.555056,15.7352819 49.2351411,14.7507465 48.5953016,14.0046606 C47.955462,13.2585747 47.080713,12.8855373 45.9710283,12.8855373 Z" id="PO" fill="#FFFFFF" fill-rule="nonzero"></path>
    </g>
</svg>