<?xml version="1.0" encoding="UTF-8"?>
<svg width="64px" height="64px" viewBox="0 0 64 64" version="1.1" xmlns="http://www.w3.org/2000/svg" xmlns:xlink="http://www.w3.org/1999/xlink">
    <title>quality</title>
    <g id="quality" stroke="none" stroke-width="1" fill="none" fill-rule="evenodd">
        <path d="M39.5025774,4 L44.1089003,11.1134153 L52.4974226,11.5950902 L52.9732305,20.0870498 L60,24.7501723 L56.2178005,32.3452625 L60,39.9403527 L52.9732305,44.6034753 L52.4974226,53.0954349 L44.1089003,53.5771098 L39.5025774,60.6905251 L32,56.861688 L24.4974226,60.6905251 L19.8910997,53.5771098 L11.5025774,53.0954349 L11.0267695,44.6034753 L4,39.9403527 L7.78219949,32.3452625 L4,24.7501723 L11.0267695,20.0870498 L11.5025774,11.5950902 L19.8910997,11.1134153 L24.4974226,4 L32,7.82883706 L39.5025774,4 Z M38.1065322,9.20323068 L32,12.3196153 L25.8934678,9.20323068 L22.145875,14.9905333 L15.2965669,15.3838255 L14.9083911,22.3117763 L9.15543733,26.129566 L12.250727,32.3452625 L9.15543733,38.560959 L14.9083911,42.3787487 L15.2965669,49.3066996 L22.145875,49.6999918 L25.8934678,55.4872944 L32,52.3709098 L38.1065322,55.4872944 L41.854125,49.6999918 L48.7034331,49.3066996 L49.0916089,42.3787487 L54.8445627,38.560959 L51.749273,32.3452625 L54.8445627,26.129566 L49.0916089,22.3117763 L48.7034331,15.3838255 L41.854125,14.9905333 L38.1065322,9.20323068 Z" id="Star" fill="#000000" fill-rule="nonzero"></path>
        <path d="M25.379449,46.288658 C26.6360928,47.7519987 28.9272591,47.6662806 30.0710488,46.1131339 L46.4111719,22.135481 C47.3936632,20.8013607 47.1086115,18.923376 45.7744913,17.9408847 C44.440371,16.9583934 42.5623863,17.2434451 41.579895,18.5775653 L25.2397719,42.5552183 L29.9313718,42.3796942 L22.280284,32.8121975 C21.2008534,31.5552187 19.3068194,31.4112874 18.0498406,32.490718 C16.7928618,33.5701485 16.6489305,35.4641825 17.7283611,36.7211613 L25.379449,46.288658 Z" id="Shape" fill="#000000" fill-rule="nonzero"></path>
    </g>
</svg>