<?xml version="1.0" encoding="UTF-8"?>
<svg width="64px" height="64px" viewBox="0 0 64 64" version="1.1" xmlns="http://www.w3.org/2000/svg" xmlns:xlink="http://www.w3.org/1999/xlink">
    <title>query</title>
    <g id="query" stroke="none" stroke-width="1" fill="none" fill-rule="evenodd">
        <path d="M33.9081174,19.9540585 C41.6401039,19.9540585 47.9081174,26.222072 47.9081174,33.9540585 C47.9081174,37.2538925 46.7664701,40.2870805 44.8566061,42.6801921 L47.8693726,42.9655666 L57.5251263,52.6213203 C58.8919613,53.9881553 58.8919613,56.2042327 57.5251263,57.5710677 C56.1582912,58.9379027 53.9422138,58.9379027 52.5753788,57.5710677 L42.9196251,47.915314 L42.4746708,45.0280284 C40.1069564,46.8623093 37.1350328,47.9540585 33.9081174,47.9540585 C26.1761309,47.9540585 19.9081174,41.686045 19.9081174,33.9540585 C19.9081174,26.222072 26.1761309,19.9540585 33.9081174,19.9540585 Z M33.9081174,43.9540585 C39.4309649,43.9540585 43.9081174,39.476906 43.9081174,33.9540585 C43.9081174,28.431211 39.4309649,23.9540585 33.9081174,23.9540585 C28.3852699,23.9540585 23.9081174,28.431211 23.9081174,33.9540585 C23.9081174,39.476906 28.3852699,43.9540585 33.9081174,43.9540585 Z" id="Combined-Shape" fill="#000000" fill-rule="nonzero"></path>
        <path d="M20.1768693,40.0010342 C20.8263108,41.4736198 21.7056902,42.8220096 22.769515,44.0007112 L9,44 C8.44771525,44 8,44.4477153 8,45 L8,47 C8,47.5522847 8.44771525,48 9,48 L28.6341801,48.0006787 C30.2748402,48.6169713 32.0521133,48.9540585 33.9081174,48.9540585 C35.7626842,48.9540585 37.5386112,48.6174423 39.1781915,48.0020368 L41.921,48 L41.9811326,48.3910351 L45.59,52 L8,52 C5.790861,52 4,50.209139 4,48 L4,44 C4,41.790861 5.790861,40 8,40 Z M52,40 C54.209139,40 56,41.790861 56,44 L56,48 C56,48.5007533 55.907984,48.9800151 55.739938,49.4217994 L52,45.682 L52,45 C52,44.4477153 51.5522847,44 51,44 L50.318,44 L48.321982,42.0039624 L46.6658391,41.8470897 C47.0312517,41.2576989 47.3569705,40.6411144 47.6392559,40.0010692 L52,40 Z M22.6869707,23.9996214 C21.6380128,25.1811937 20.7728373,26.5295976 20.1362602,28.0000171 L9,28 C8.44771525,28 8,28.4477153 8,29 L8,31 C8,31.5522847 8.44771525,32 9,32 L19.0342318,32.0000615 C18.951032,32.6396177 18.9081174,33.2918265 18.9081174,33.9540585 C18.9081174,34.6481743 18.9552638,35.3312784 19.0465289,36.0003432 L8,36 C5.790861,36 4,34.209139 4,32 L4,28 C4,25.790861 5.790861,24 8,24 Z M52,24 C54.209139,24 56,25.790861 56,28 L56,32 C56,34.209139 54.209139,36 52,36 L48.7695973,36.0010223 C48.8609326,35.3317433 48.9081174,34.6484124 48.9081174,33.9540585 C48.9081174,33.2918265 48.8652028,32.6396177 48.7820029,32.0000615 L51,32 C51.5522847,32 52,31.5522847 52,31 L52,29 C52,28.4477153 51.5522847,28 51,28 L47.6799746,28.0000171 C47.0433974,26.5295976 46.178222,25.1811937 45.1292641,23.9996214 L52,24 Z M52,8 C54.209139,8 56,9.790861 56,12 L56,16 C56,18.209139 54.209139,20 52,20 L39.4202234,19.99924 C37.7139124,19.3246975 35.8542986,18.9540585 33.9081174,18.9540585 C31.9619362,18.9540585 30.1023223,19.3246975 28.3960113,19.99924 L8,20 C5.790861,20 4,18.209139 4,16 L4,12 C4,9.790861 5.790861,8 8,8 L52,8 Z M51,12 L9,12 C8.44771525,12 8,12.4477153 8,13 L8,15 C8,15.5522847 8.44771525,16 9,16 L51,16 C51.5522847,16 52,15.5522847 52,15 L52,13 C52,12.4477153 51.5522847,12 51,12 Z" id="Combined-Shape" fill="#000000" fill-rule="nonzero"></path>
    </g>
</svg>