<?xml version="1.0" encoding="UTF-8"?>
<svg width="64px" height="64px" viewBox="0 0 64 64" version="1.1" xmlns="http://www.w3.org/2000/svg" xmlns:xlink="http://www.w3.org/1999/xlink">
    <title>radio_checked</title>
    <g id="radio_checked" stroke="none" stroke-width="1" fill="none" fill-rule="evenodd">
        <path d="M25.379449,46.288658 C26.6360928,47.7519987 28.9272591,47.6662806 30.0710488,46.1131339 L46.4111719,22.135481 C47.3936632,20.8013607 47.1086115,18.923376 45.7744913,17.9408847 C44.440371,16.9583934 42.5623863,17.2434451 41.579895,18.5775653 L25.2397719,42.5552183 L29.9313718,42.3796942 L22.280284,32.8121975 C21.2008534,31.5552187 19.3068194,31.4112874 18.0498406,32.490718 C16.7928618,33.5701485 16.6489305,35.4641825 17.7283611,36.7211613 L25.379449,46.288658 Z" id="Shape" fill="#000000" fill-rule="nonzero"></path>
        <path d="M32,4 C47.463973,4 60,16.536027 60,32 C60,47.463973 47.463973,60 32,60 C16.536027,60 4,47.463973 4,32 C4,16.536027 16.536027,4 32,4 Z M32,8 C18.745166,8 8,18.745166 8,32 C8,45.254834 18.745166,56 32,56 C45.254834,56 56,45.254834 56,32 C56,18.745166 45.254834,8 32,8 Z" id="Oval-2" fill="#000000" fill-rule="nonzero"></path>
    </g>
</svg>