<?xml version="1.0" encoding="UTF-8"?>
<svg width="32px" height="32px" viewBox="0 0 32 32" version="1.1" xmlns="http://www.w3.org/2000/svg" xmlns:xlink="http://www.w3.org/1999/xlink">
    <title>checkmark</title>
    <g id="checkmark" stroke="none" stroke-width="1" fill="none" fill-rule="evenodd">
        <path d="M16,2 C23.7319865,2 30,8.2680135 30,16 C30,23.7319865 23.7319865,30 16,30 C8.2680135,30 2,23.7319865 2,16 C2,8.2680135 8.2680135,2 16,2 Z M16,4 C9.372583,4 4,9.372583 4,16 C4,22.627417 9.372583,28 16,28 C22.627417,28 28,22.627417 28,16 C28,9.372583 22.627417,4 16,4 Z" id="Oval" fill="#000000" fill-rule="nonzero"></path>
        <path d="M21.7928932,10.7928932 C22.1834175,10.4023689 22.8165825,10.4023689 23.2071068,10.7928932 C23.5675907,11.1533772 23.5953203,11.7206082 23.2902954,12.1128994 L23.2071068,12.2071068 L14.2071068,21.2071068 C13.8466228,21.5675907 13.2793918,21.5953203 12.8871006,21.2902954 L12.7928932,21.2071068 L8.79289322,17.2071068 C8.40236893,16.8165825 8.40236893,16.1834175 8.79289322,15.7928932 C9.15337718,15.4324093 9.72060824,15.4046797 10.1128994,15.7097046 L10.2071068,15.7928932 L13.5,19.085 L21.7928932,10.7928932 Z" id="Path-6" fill="#000000" fill-rule="nonzero"></path>
    </g>
</svg>