<?xml version="1.0" encoding="UTF-8"?>
<svg width="64px" height="64px" viewBox="0 0 64 64" version="1.1" xmlns="http://www.w3.org/2000/svg" xmlns:xlink="http://www.w3.org/1999/xlink">
    <title>reassign</title>
    <g id="reassign" stroke="none" stroke-width="1" fill="none" fill-rule="evenodd">
        <path d="M24.8839614,6.32645507 L38.6338854,18.5035674 C39.1181643,18.9324512 39.1225676,19.6265969 38.6437602,20.0602722 L24.8938362,32.5141371 L24.8253281,32.5720244 C24.033909,33.1951272 22.7500897,32.7041058 22.7500897,31.7402067 L22.7500897,24.8230534 L22.5625964,24.8285793 C14.7262353,25.0771565 9.40992925,28.8348755 6.42794829,36.2623542 C5.94829602,37.4570657 3.94540055,37.1154184 4.00114099,35.8483975 L4.02243073,35.4080553 C4.75431348,21.5323855 10.9679599,14.1657306 22.5327437,13.7649973 L22.7500897,13.7584863 L22.7500897,7.1092295 C22.7500897,6.12298873 24.0965097,5.62907753 24.8839614,6.32645507 Z M26.75,13.322 L26.7500897,17.6404547 L22.6712653,17.762598 C17.2082038,17.9518995 13.3211636,19.9502004 10.9174421,23.9974493 L10.718,24.343 L11.0041764,24.1552138 C14.082709,22.1589902 17.7621082,21.046453 22.0039427,20.8476234 L22.6322512,20.8247895 L26.7500897,20.7034269 L26.75,25.435 L33.512,19.311 L26.75,13.322 Z" id="Path-32" fill="#000000" fill-rule="nonzero"></path>
        <path d="M36.0035373,5.9992768 L36.3406801,6.00220458 C42.1398232,6.10358842 45.6176698,8.83216211 46.9771074,13.273771 L47.0531876,13.5319117 L47.1598896,13.9301781 C47.5587706,15.5106693 47.6633829,17.0756311 47.5882804,18.7138423 L47.554406,19.2905794 L47.5784083,19.3365567 C48.0664376,20.3067792 48.2390598,21.7663425 48.2390598,23.8630383 C48.2390598,25.1585985 47.8452301,26.5466206 47.1728104,28.0279423 L47.0244983,28.3467967 L46.8392472,28.7257507 C46.5886646,29.2253754 46.3248003,29.7015922 46.0601652,30.1445719 L45.8617399,30.4704212 L45.6775399,30.7612258 L45.6069448,31.0778312 C45.4746441,31.6399141 45.3132613,32.1957742 45.1169212,32.7310082 L44.956789,33.1448694 L45.2764302,33.332268 L45.8923226,33.6812301 L46.5575573,34.0452054 L47.2752289,34.426425 L48.1136729,34.8608784 L51.1746744,36.4035255 L52.0514192,36.8525947 L52.7806499,37.2370069 L53.2427434,37.4901428 L53.6414586,37.7187858 L53.8762062,37.8601209 L54.1879555,38.0592534 L54.4587244,38.2474664 L54.6969121,38.4298498 C57.096963,40.3649283 60,47.0974493 60,51.3774 C60,52.4245325 59.6088872,53.3928831 58.8840492,54.1764762 C58.4130912,54.68561 57.7916634,55.1175894 57.0465571,55.4747341 C55.8733959,56.0370544 54.2424967,56.4868454 52.2249587,56.8419207 C50.7471882,57.1019999 49.049182,57.3150935 47.1690534,57.4864659 L46.5995892,57.5366312 L45.8821207,57.5950993 L45.2492088,57.6427783 L44.3047924,57.7079331 L43.3687315,57.7657033 L42.1383407,57.8317333 L40.9340674,57.8858114 L39.7623478,57.9286096 L39.1907069,57.9459887 L38.0798857,57.9731271 L37.0177087,57.9906658 L35.989388,57.9992768 L34.9822913,57.9906658 L33.9201143,57.9731271 L32.2376522,57.9286096 L31.0659326,57.8858114 L29.8616593,57.8317333 L28.6312685,57.7657033 C28.0106164,57.7295883 27.3825839,57.6887393 26.7507912,57.6427783 L26.1178793,57.5950993 L25.4004108,57.5366312 C23.2926215,57.3572423 21.4005889,57.1280078 19.7750413,56.8419207 C17.7575033,56.4868454 16.1266041,56.0370544 14.9534429,55.4747341 C14.2083366,55.1175894 13.5869088,54.68561 13.1159508,54.1764762 C12.3911128,53.3928831 12,52.4245325 12,51.3774 C12,47.0974493 14.903037,40.3649283 17.3030879,38.4298498 L17.5412756,38.2474664 L17.8120445,38.0592534 L18.1237938,37.8601209 L18.3585414,37.7187858 L18.7572566,37.4901428 L19.2193501,37.2370069 L19.9485808,36.8525947 L20.8253256,36.4035255 L23.8863271,34.8608784 L24.7247711,34.426425 L25.4424427,34.0452054 L26.1076774,33.6812301 L26.7235698,33.332268 L27.043211,33.1448694 L27.0369801,33.1283413 C26.9159468,32.832225 26.8065452,32.5283724 26.707715,32.2193827 L30.0155142,29.2245568 C30.0696785,29.3547289 30.1169587,29.4877608 30.1571283,29.6231042 L30.226585,29.8907036 L30.286653,30.1613725 C30.3885114,30.5941205 30.5060912,30.9926709 30.6380166,31.3524468 L30.7860733,31.7338477 C31.4488328,33.491877 30.7971687,35.4637655 29.2426866,36.4859458 L29.066272,36.595554 L28.6954337,36.8124624 L28.0276372,37.1903261 L27.3188969,37.5777568 L26.5650541,37.977954 L25.6865117,38.4328996 L22.6488447,39.9636909 L21.813871,40.3910538 L21.141103,40.7451212 L20.7470963,40.9600907 L20.4217439,41.1456204 L20.266,41.238 L20.022,41.394 L19.905,41.475 L19.796,41.558 L19.7379847,41.6097513 C19.5725602,41.7636302 19.3705309,42.0112699 19.1473925,42.3338805 L18.9177916,42.6807855 C18.6823021,43.051289 18.4308686,43.4905002 18.1789867,43.9796295 L17.9275292,44.4847021 C17.8022996,44.7448622 17.6782493,45.015936 17.5573151,45.2955748 L17.4434265,45.5637336 C16.5959356,47.5962011 16.0651155,49.6778925 16.0055986,51.1155548 L16,51.3774 C16,51.389815 16,51.3966773 16.0069331,51.4073645 L16.0523218,51.4602793 C16.1506914,51.5666228 16.3567059,51.7115864 16.6823751,51.8676863 C17.245445,52.1375774 18.0859899,52.403958 19.1782268,52.6472133 L19.7987986,52.7774866 C20.013873,52.820068 20.2371127,52.861767 20.468363,52.9024658 C21.7879367,53.1347032 23.3490283,53.3335783 25.1252844,53.4967736 L25.7253026,53.5498474 L26.4183591,53.6064013 L27.0410123,53.6533208 L27.9461615,53.7158225 L28.8456236,53.771451 L30.041099,53.8357602 L31.211939,53.888477 L32.3434543,53.9300091 L33.9861533,53.9736723 L35.0164913,53.990812 L35.983,53.999 L36.9516696,53.991211 L37.982191,53.9743204 L39.0691543,53.947836 L39.6163414,53.9312752 L40.7546277,53.8898382 L41.9239857,53.837481 L43.122335,53.7732994 L44.029489,53.7174183 L44.948729,53.6540803 L45.5572289,53.6083155 L46.2485797,53.5520619 L46.8059614,53.5029794 C48.6175337,53.3378559 50.1983339,53.1371195 51.531637,52.9024658 C51.7628873,52.861767 51.986127,52.820068 52.2012014,52.7774866 L52.8217732,52.6472133 C53.9140101,52.403958 54.754555,52.1375774 55.3176249,51.8676863 C55.6432941,51.7115864 55.8493086,51.5666228 55.9476782,51.4602793 L55.9930669,51.4073645 C55.9964025,51.4020209 55.9981358,51.3976335 55.9990352,51.3930302 L56,51.3774 C56,49.9382962 55.4570326,47.7232303 54.5565735,45.5637336 C54.3685267,45.1127564 54.1711301,44.6813865 53.9720723,44.2789469 L53.7328976,43.8105024 C53.4939095,43.3571377 53.2569577,42.9508025 53.0353277,42.6076065 L52.819297,42.2860535 C52.6093577,41.9867403 52.4191686,41.7559363 52.2620153,41.6097513 L52.203,41.558 L52.094,41.475 L51.977,41.394 L51.7229612,41.2311053 L51.6516189,41.1887336 L51.3209905,40.9982571 L50.9153597,40.775466 L50.2279,40.4127602 L49.3744898,39.9755467 L46.2733899,38.4124075 L45.3987747,37.9589764 L44.6375976,37.5543013 L43.9204587,37.1614245 L43.2533692,36.7829526 L42.933728,36.595554 C41.3020291,35.6389246 40.5713707,33.6774713 41.1559152,31.8983295 L41.226298,31.7014577 L41.3616147,31.3534479 C41.4498133,31.1130134 41.5314926,30.8555785 41.6031909,30.5961266 L41.7028199,30.207309 L41.773415,29.8907036 C41.8537587,29.5303775 41.9834986,29.1833475 42.1586103,28.8593489 L42.2983883,28.6208205 L42.445329,28.3900037 L42.6262575,28.0931632 C42.796128,27.8088124 42.9592126,27.5185632 43.1054304,27.241284 L43.2456527,26.9690269 L43.3976473,26.6598019 L43.5305036,26.3745817 C44.0199847,25.2962686 44.2390598,24.463089 44.2390598,23.8630383 L44.2335656,23.2827949 L44.217204,22.7650114 C44.202714,22.4401361 44.1811001,22.1553819 44.1526041,21.9077109 L44.1111742,21.602218 L44.0601571,21.3195303 L44.0325156,21.1876767 L44.0085134,21.1416994 C43.7106358,20.5711032 43.5554077,19.9381431 43.5544098,19.2968259 L43.5612877,19.0560456 L43.5924772,18.5306579 C43.6483138,17.312693 43.5779422,16.2652673 43.377447,15.316597 L43.2961542,14.9653346 L43.2163558,14.6627175 L43.1522501,14.4444402 C42.2879376,11.6205239 40.3088955,10.1551609 36.6345649,10.0113172 L36.305945,10.0020538 L35.997,9.999 L35.7292394,10.0015934 C34.0011933,10.0318041 32.6308294,10.3336839 31.5638173,10.9079509 L28.464978,8.16464707 C30.2539433,6.81865806 32.6425365,6.05494567 35.6593199,6.00220458 L36.0035373,5.9992768 Z" id="Combined-Shape" fill="#000000" fill-rule="nonzero"></path>
    </g>
</svg>