<?xml version="1.0" encoding="UTF-8"?>
<svg width="64px" height="64px" viewBox="0 0 64 64" version="1.1" xmlns="http://www.w3.org/2000/svg" xmlns:xlink="http://www.w3.org/1999/xlink">
    <title>receipt</title>
    <g id="receipt" stroke="none" stroke-width="1" fill="none" fill-rule="evenodd">
        <path d="M50,4 L14,4 C12.8954305,4 12,4.8954305 12,6 L12,58 L12.0051476,58.1478304 C12.1108276,59.6551439 13.8218256,60.5224838 15.1094004,59.6641006 L19.999,56.404 L24.8905996,59.6641006 L25.0375216,59.7532168 C25.6863897,60.1096814 26.4855872,60.0799761 27.1094004,59.6641006 L31.999,56.404 L36.8905996,59.6641006 L37.0375216,59.7532168 C37.6863897,60.1096814 38.4855872,60.0799761 39.1094004,59.6641006 L44,56.404 L48.8905996,59.6641006 C50.2197091,60.5501736 52,59.5973908 52,58 L52,6 C52,4.8954305 51.1045695,4 50,4 Z M48,8 L48,54.262 L45.1094004,52.3358994 L44.9624784,52.2467832 C44.3136103,51.8903186 43.5144128,51.9200239 42.8905996,52.3358994 L38,55.595 L33.1094004,52.3358994 L32.9624784,52.2467832 C32.3136103,51.8903186 31.5144128,51.9200239 30.8905996,52.3358994 L26,55.595 L21.1094004,52.3358994 L20.9624784,52.2467832 C20.3136103,51.8903186 19.5144128,51.9200239 18.8905996,52.3358994 L16,54.262 L16,8 L48,8 Z" id="Path-3" fill="#000000" fill-rule="nonzero"></path>
        <path d="M32.0976456,38 C32.6155762,38 33.048845,37.8236141 33.3974521,37.4708423 C33.7460593,37.1180706 33.9203628,36.6796256 33.9203628,36.1555076 L33.9203628,34.2921166 L34.105025,34.25054 C34.4773374,34.1598272 34.8411339,34.0464363 35.1964143,33.9103672 L35.5488561,33.7667387 C36.7142,33.262779 37.6554392,32.537077 38.3725739,31.5896328 C39.0897085,30.6421886 39.4482759,29.5133189 39.4482759,28.2030238 C39.4482759,27.174946 39.2988728,26.3030958 39.0000667,25.587473 C38.7012606,24.8718503 38.2530514,24.2771778 37.6554392,23.8034557 C37.057827,23.3297336 36.3058316,22.9416847 35.3994531,22.6393089 C34.9462638,22.488121 34.4569688,22.3470122 33.9315681,22.2159827 L33.9203628,22.2131479 L33.9203628,16.6239201 L34.3461615,16.7732181 C34.4880944,16.8261339 34.6281598,16.8815695 34.7663576,16.9395248 L35.1753485,17.1209503 C35.7131995,17.3729302 36.1414883,17.6400288 36.4602148,17.9222462 C36.6992597,18.1036717 36.9681852,18.1943844 37.2669913,18.1943844 C37.7251606,18.1943844 38.1235688,18.012959 38.4622157,17.650108 C38.8008626,17.287257 38.9701861,16.8840893 38.9701861,16.4406048 C38.9701861,15.8358531 38.6813402,15.3016559 38.1036484,14.838013 C37.4064341,14.2332613 36.5050357,13.7343413 35.3994531,13.3412527 C35.0309255,13.2102232 34.6518845,13.1010319 34.2623298,13.0136789 L33.9203628,12.9443844 L33.9203628,11.8444924 C33.9203628,11.3786097 33.7905113,10.9804193 33.5308082,10.6499213 L33.4273328,10.5291577 C33.098646,10.1763859 32.6753374,10 32.1574068,10 C31.6394762,10 31.2062073,10.1763859 30.8576002,10.5291577 C30.5089931,10.8819294 30.3346895,11.3203744 30.3346895,11.8444924 L30.3346895,12.8508369 L30.2068005,12.8677322 C29.5673554,12.9644924 28.957791,13.1217279 28.3781071,13.3394384 L28.0338825,13.4773218 C26.8984193,13.9611231 25.9970208,14.6666667 25.3296872,15.5939525 C24.6623535,16.5212383 24.3286867,17.6400288 24.3286867,18.950324 C24.3286867,19.8171346 24.4681296,20.5982721 24.7470153,21.2937365 C25.025901,21.9892009 25.4392494,22.5939525 25.9870606,23.1079914 C26.5348718,23.6220302 27.2171458,24.0453564 28.0338825,24.3779698 C28.646435,24.6274298 29.3318215,24.8286987 30.090042,24.9817765 L30.3346895,25.0280778 L30.3346895,30.9366901 L30.2562529,30.924406 C29.8877254,30.8598992 29.5470864,30.7695896 29.234336,30.6534773 L29.0050023,30.5615551 C28.2579871,30.2390209 27.5059917,29.7652988 26.7490162,29.1403888 C26.4502101,28.8984881 26.1115632,28.7775378 25.7330754,28.7775378 C25.2350653,28.7775378 24.8217168,28.9539237 24.4930301,29.3066955 C24.1643434,29.6594672 24,30.0676746 24,30.5313175 C24,30.8135349 24.0697214,31.0957523 24.2091643,31.3779698 C24.3486071,31.6601872 24.5478112,31.912167 24.8067765,32.1339093 C25.8227173,33.0208783 26.8884591,33.6407487 28.0040019,33.9935205 C28.6237479,34.1895048 29.2865318,34.3310491 29.9923536,34.4181532 L30.3346895,34.4546436 L30.3346895,36.1555076 C30.3346895,36.6213903 30.468476,37.0195807 30.7360488,37.3500787 L30.8426599,37.4708423 C31.1813068,37.8236141 31.5996354,38 32.0976456,38 Z M30.7586207,20.6206897 L30.5734465,20.5729686 L30.2351475,20.4788623 C29.4673868,20.2558175 28.8799335,19.9551919 28.4727877,19.5769855 C28.0656419,19.1987791 27.862069,18.718748 27.862069,18.136892 C27.862069,17.652012 28.03656,17.2253177 28.3855422,16.8568089 C28.7345243,16.4883001 29.2521811,16.1973721 29.9385127,15.9840249 C30.1100956,15.9306881 30.2914936,15.8840184 30.4827067,15.8440158 L30.7586207,15.7931034 L30.7586207,20.6206897 Z M33.7671164,30.2273771 L33.7671164,25.4482759 L33.9771842,25.5533209 C34.3848816,25.7689037 34.7138036,26.0137818 34.9639501,26.2879551 L35.0824588,26.427483 C35.4182909,26.8533906 35.5862069,27.370564 35.5862069,27.9790034 C35.5862069,28.4860362 35.4089622,28.9372954 35.0544728,29.332781 C34.6999833,29.7282666 34.2335499,30.042627 33.6551724,30.2758621 L33.7671164,30.2273771 Z" id="$" fill="#000000" fill-rule="nonzero"></path>
        <rect id="Rectangle" fill="#000000" x="20" y="40" width="24" height="4" rx="2"></rect>
        <rect id="Rectangle-Copy" fill="#000000" x="20" y="46" width="24" height="4" rx="2"></rect>
    </g>
</svg>