<?xml version="1.0" encoding="UTF-8"?>
<svg width="32px" height="32px" viewBox="0 0 32 32" version="1.1" xmlns="http://www.w3.org/2000/svg" xmlns:xlink="http://www.w3.org/1999/xlink">
    <title>reciprocity</title>
    <g id="reciprocity" stroke="none" stroke-width="1" fill="none" fill-rule="evenodd">
        <path d="M21.6128994,2.20970461 L21.7071068,2.29289322 L27.7071068,8.29289322 C27.7355731,8.32135953 27.7623312,8.35153408 27.787214,8.38324992 L27.7071068,8.29289322 C27.7425008,8.32828727 27.774687,8.36567442 27.8036654,8.40469339 C27.8215099,8.42886931 27.8382813,8.45372505 27.8539326,8.47933981 C27.8613931,8.49138689 27.8685012,8.50360556 27.8753288,8.5159379 C27.8862061,8.53570605 27.8966234,8.5561086 27.9063462,8.57690085 C27.914321,8.5939015 27.9218036,8.61120435 27.9287745,8.62866398 C27.9366843,8.6484208 27.9438775,8.66820232 27.9504533,8.68826359 C27.9552713,8.70314866 27.9599023,8.71853672 27.9641549,8.73400703 C27.9701664,8.75556352 27.9753602,8.77725392 27.9798348,8.7992059 C27.9832978,8.81662474 27.9863719,8.83405099 27.9889822,8.85153313 C27.9920328,8.87147534 27.9944666,8.89211395 27.9962623,8.91293499 C27.9978436,8.93173451 27.9989053,8.94973363 27.9994829,8.96774538 C27.9998183,8.97778921 28,8.98887338 28,9 L27.9994506,9.03324678 C27.9988772,9.05059097 27.997855,9.06792309 27.996384,9.08522423 L28,9 C28,9.05062028 27.9962388,9.10036209 27.9889807,9.14896122 C27.9863719,9.16594901 27.9832978,9.18337526 27.9797599,9.20072576 C27.9753602,9.22274608 27.9701664,9.24443648 27.964279,9.26583961 C27.9599023,9.28146328 27.9552713,9.29685134 27.9502619,9.31214252 C27.9438775,9.33179768 27.9366843,9.3515792 27.928896,9.37105852 C27.9218036,9.38879565 27.914321,9.4060985 27.9063266,9.42322155 C27.8966234,9.4438914 27.8862061,9.46429395 27.8751242,9.48427695 C27.8685012,9.49639444 27.8613931,9.50861311 27.8540045,9.52070875 C27.8382813,9.54627495 27.8215099,9.57113069 27.8036865,9.5951593 C27.7992821,9.60120864 27.7948255,9.60707334 27.7902954,9.61289944 C27.7849289,9.61966276 27.7826279,9.62256244 27.7803112,9.62544899 L27.7071068,9.70710678 L21.7071068,15.7071068 C21.3165825,16.0976311 20.6834175,16.0976311 20.2928932,15.7071068 C19.9324093,15.3466228 19.9046797,14.7793918 20.2097046,14.3871006 L20.2928932,14.2928932 L24.585,10 L5,10 C4.44771525,10 4,9.55228475 4,9 C4,8.48716416 4.38604019,8.06449284 4.88337887,8.00672773 L5,8 L24.585,8 L20.2928932,3.70710678 C19.9324093,3.34662282 19.9046797,2.77939176 20.2097046,2.38710056 L20.2928932,2.29289322 C20.6533772,1.93240926 21.2206082,1.90467972 21.6128994,2.20970461 Z" id="Combined-Shape" fill="#000000" fill-rule="nonzero"></path>
        <path d="M21.6128994,16.2097046 L21.7071068,16.2928932 L27.7071068,22.2928932 C27.7355731,22.3213595 27.7623312,22.3515341 27.787214,22.3832499 L27.7071068,22.2928932 C27.7425008,22.3282873 27.774687,22.3656744 27.8036654,22.4046934 C27.8215099,22.4288693 27.8382813,22.453725 27.8539326,22.4793398 C27.8613931,22.4913869 27.8685012,22.5036056 27.8753288,22.5159379 C27.8862061,22.5357061 27.8966234,22.5561086 27.9063462,22.5769009 C27.914321,22.5939015 27.9218036,22.6112044 27.9287745,22.628664 C27.9366843,22.6484208 27.9438775,22.6682023 27.9504533,22.6882636 C27.9552713,22.7031487 27.9599023,22.7185367 27.9641549,22.734007 C27.9701664,22.7555635 27.9753602,22.7772539 27.9798348,22.7992059 C27.9832978,22.8166247 27.9863719,22.834051 27.9889822,22.8515331 C27.9920328,22.8714753 27.9944666,22.892114 27.9962623,22.912935 C27.9978436,22.9317345 27.9989053,22.9497336 27.9994829,22.9677454 C27.9998183,22.9777892 28,22.9888734 28,23 L27.9994506,23.0332468 C27.9988772,23.050591 27.997855,23.0679231 27.996384,23.0852242 L28,23 C28,23.0506203 27.9962388,23.1003621 27.9889807,23.1489612 C27.9863719,23.165949 27.9832978,23.1833753 27.9797599,23.2007258 C27.9753602,23.2227461 27.9701664,23.2444365 27.964279,23.2658396 C27.9599023,23.2814633 27.9552713,23.2968513 27.9502619,23.3121425 C27.9438775,23.3317977 27.9366843,23.3515792 27.928896,23.3710585 C27.9218036,23.3887956 27.914321,23.4060985 27.9063266,23.4232215 C27.8966234,23.4438914 27.8862061,23.4642939 27.8751242,23.484277 C27.8685012,23.4963944 27.8613931,23.5086131 27.8540045,23.5207088 C27.8382813,23.546275 27.8215099,23.5711307 27.8036865,23.5951593 C27.7992821,23.6012086 27.7948255,23.6070733 27.7902954,23.6128994 C27.7849289,23.6196628 27.7826279,23.6225624 27.7803112,23.625449 L27.7071068,23.7071068 L21.7071068,29.7071068 C21.3165825,30.0976311 20.6834175,30.0976311 20.2928932,29.7071068 C19.9324093,29.3466228 19.9046797,28.7793918 20.2097046,28.3871006 L20.2928932,28.2928932 L24.585,24 L5,24 C4.44771525,24 4,23.5522847 4,23 C4,22.4871642 4.38604019,22.0644928 4.88337887,22.0067277 L5,22 L24.585,22 L20.2928932,17.7071068 C19.9324093,17.3466228 19.9046797,16.7793918 20.2097046,16.3871006 L20.2928932,16.2928932 C20.6533772,15.9324093 21.2206082,15.9046797 21.6128994,16.2097046 Z" id="Combined-Shape-Copy" fill="#000000" fill-rule="nonzero" transform="translate(16.000000, 23.000000) scale(-1, 1) translate(-16.000000, -23.000000) "></path>
    </g>
</svg>