<?xml version="1.0" encoding="UTF-8"?>
<svg width="64px" height="64px" viewBox="0 0 64 64" version="1.1" xmlns="http://www.w3.org/2000/svg" xmlns:xlink="http://www.w3.org/1999/xlink">
    <title>record_details</title>
    <g id="record_details" stroke="none" stroke-width="1" fill="none" fill-rule="evenodd">
        <path d="M33,16 C40.7319865,16 47,22.2680135 47,30 C47,33.299834 45.8583528,36.333022 43.9484887,38.7261335 L46.9612552,39.011508 L59.0918826,51.1421354 L54.1421351,56.0918829 L42.0115077,43.9612555 L41.5665534,41.0739698 C39.1988391,42.9082507 36.2269154,44 33,44 C25.2680135,44 19,37.7319865 19,30 C19,22.2680135 25.2680135,16 33,16 Z M33,40 C38.5228475,40 43,35.5228475 43,30 C43,24.4771525 38.5228475,20 33,20 C27.4771525,20 23,24.4771525 23,30 C23,35.5228475 27.4771525,40 33,40 Z" id="Combined-Shape" fill="#000000" fill-rule="nonzero"></path>
        <path d="M38.6588526,24.3451448 C40.1053935,25.7927018 41,27.7918776 41,30 C41,30.7264554 40.9031714,31.4302953 40.7217163,32.0993175 C36.9525855,33.3627663 32.71089,34 28,34 C27.3412851,34 26.6919486,33.9898488 26.0519888,33.9695684 C25.3828014,32.7994343 25,31.4444212 25,30 C25,28.5287539 25.3971517,27.1502675 26.0900955,25.9659006 C26.7145382,25.9889561 27.3512204,26 28,26 C31.9846335,26 35.5007756,25.4677895 38.5512134,24.3858584 Z" id="Combined-Shape" fill="#000000"></path>
        <path d="M28,6 C28.2869012,6 28.5723914,6.00181231 28.8563504,6.00540084 L29.7035134,6.02145905 L30.5407676,6.04795816 L31.3673914,6.0846817 C31.5042361,6.0916423 31.6406077,6.09901989 31.7764914,6.10680998 L32.5858165,6.15846428 C32.8535592,6.17730828 33.1192296,6.19776615 33.3827073,6.21980183 L34.1664421,6.29060615 L34.9362995,6.37066079 L35.6915577,6.45974927 L36.4314954,6.55765512 C36.5535015,6.57469552 36.6748392,6.59209428 36.7954934,6.60984691 L37.5110972,6.72057293 L38.2095763,6.83957514 L38.8902094,6.96663707 L39.5522747,7.10154226 L39.876119,7.17186842 L39.876119,7.17186842 L40.5089798,7.3181326 L41.121469,7.47169885 L41.7128651,7.63235071 L42.2824463,7.7998717 L42.8294913,7.97404536 C43.1865155,8.09233058 43.5280344,8.21490659 43.8530859,8.34148477 L44.3281925,8.53431759 C46.5518247,9.47548244 47.8940336,10.6172799 47.993991,11.8514617 L48,12 L48.000863,24.4220884 C47.1401621,22.1083062 45.759453,20.0475077 44.000784,18.3817412 L44,15.598 L43.8530859,15.6585152 C43.5280344,15.7850934 43.1865155,15.9076694 42.8294913,16.0259546 L42.2824463,16.2001283 L41.7128651,16.3676493 L41.480994,16.4301417 C39.0222701,14.8902229 36.1150964,14 33,14 C29.0610056,14 25.4544638,15.4233986 22.666676,17.7838942 C22.650485,17.7829672 22.6338845,17.7815858 22.6172927,17.7801982 L21.8335579,17.7093938 L21.0637005,17.6293392 L20.3084423,17.5402507 L19.5685046,17.4423449 C19.4464985,17.4253045 19.3251608,17.4079057 19.2045066,17.3901531 L18.4889028,17.2794271 L17.7904237,17.1604249 L17.1097906,17.0333629 L16.4477253,16.8984577 L16.123881,16.8281316 L16.123881,16.8281316 L15.4910202,16.6818674 L14.878531,16.5283011 L14.2871349,16.3676493 L13.7175537,16.2001283 L13.1705087,16.0259546 C12.8134845,15.9076694 12.4719656,15.7850934 12.1469141,15.6585152 L12,15.599 L12.0000043,24.8053369 C13.6078927,25.6179363 15.3824614,26.277013 17.3245879,26.7808484 C17.1115714,27.82045 17,28.8971956 17,30 C17,30.2771539 17.0070469,30.5526619 17.0209713,30.8263546 C15.2397864,30.4030132 13.5654568,29.8632008 11.9993291,29.2068803 L12.0000043,37.8053369 C14.5558604,39.097023 17.532875,40.0007969 20.9345718,40.5097558 C22.6713688,42.5006123 24.8913788,44.0575329 27.4120758,44.9971346 L28,45 C21.796053,45 16.4590019,44.0758049 11.9993291,42.2068803 L12,50.883 C15.5265265,52.8797381 20.6595898,53.9385274 27.4009962,53.9974018 L28,54 C35.0038886,54 40.2831979,52.6794395 43.8783333,50.1124923 L44,50.023 L44,49 L47.4142053,52.4142352 C47.3716572,52.4567768 47.3270196,52.4975669 47.2803688,52.5364426 C42.8720355,56.2100536 36.4282286,58 28,58 C19.6402496,58 13.2715483,56.5847331 8.89059961,53.6641006 C8.38056872,53.32408 8.0572434,52.7710229 8.00689773,52.1661337 L8,52 L8,12 C8,10.7089447 9.35922997,9.51312903 11.6718075,8.53431759 L12.1469141,8.34148477 C12.4719656,8.21490659 12.8134845,8.09233058 13.1705087,7.97404536 L13.7175537,7.7998717 L14.2871349,7.63235071 L14.878531,7.47169885 L15.4910202,7.3181326 L16.123881,7.17186842 L16.4477253,7.10154226 L16.4477253,7.10154226 L17.1097906,6.96663707 L17.7904237,6.83957514 L18.4889028,6.72057293 L19.2045066,6.60984691 L19.9365133,6.50761355 C20.0598412,6.49129441 20.1838226,6.47533815 20.3084423,6.45974927 L21.0637005,6.37066079 L21.8335579,6.29060615 L22.6172927,6.21980183 C22.7490316,6.20878399 22.8813186,6.1981606 23.0141387,6.18793617 L23.8173369,6.13141319 C24.0871219,6.11419209 24.3589193,6.0986029 24.6326086,6.0846817 L25.4592324,6.04795816 L26.2964866,6.02145905 L27.1436496,6.00540084 C27.2856291,6.00360657 27.4279914,6.00225636 27.5707215,6.00135472 L28,6 Z M28,10 C22.9904794,10 18.3327512,10.5910159 15.0072559,11.5886645 C14.6986586,11.6812437 14.4066647,11.7759762 14.1323977,11.8718951 L13.781,12 L13.8640812,12.0318265 C14.1264055,12.1284287 14.4068311,12.224167 14.7042347,12.3180744 L15.0072559,12.4113355 C18.3327512,13.4089841 22.9904794,14 28,14 C33.0095206,14 37.6672488,13.4089841 40.9927441,12.4113355 C41.3013414,12.3187563 41.5933353,12.2240238 41.8676023,12.1281049 L42.218,11.999 L42.1359188,11.9681735 C41.8735945,11.8715713 41.5931689,11.775833 41.2957653,11.6819256 L40.9927441,11.5886645 C37.6672488,10.5910159 33.0095206,10 28,10 Z" id="Combined-Shape-Copy-3" fill="#000000" fill-rule="nonzero"></path>
    </g>
</svg>