<?xml version="1.0" encoding="UTF-8"?>
<svg width="32px" height="32px" viewBox="0 0 32 32" version="1.1" xmlns="http://www.w3.org/2000/svg" xmlns:xlink="http://www.w3.org/1999/xlink">
    <title>action-log</title>
    <g id="action-log" stroke="none" stroke-width="1" fill="none" fill-rule="evenodd">
        <path d="M13,2 L13.3278146,2.00196592 C19.2087219,2.07263479 24,4.04291129 24,7 L24,7 L24.0007117,12.4977792 C23.4941326,11.5503621 22.8133001,10.7101329 22.0010304,10.0199079 L22.001425,9.97583119 C21.9915042,9.98216131 21.9815513,9.98847847 21.9715664,9.99478263 C21.388496,9.50412827 20.7392254,9.09056308 20.0387697,8.76939753 C21.2688716,8.23934883 22,7.60250221 22,7 C22,5.59357162 18.016071,4 13,4 C7.98392904,4 4,5.59357162 4,7 C4,8.2247756 7.02126902,9.59147391 11.1144036,9.92408476 C10.4736081,10.4489127 9.9108769,11.0662328 9.44645268,11.7552958 C7.23248181,11.438854 5.32810601,10.8238611 3.99956717,9.97646415 L4,13 C4,13.8932011 5.60684822,14.8618832 8.06444347,15.4499155 C8.02183395,15.793939 8,16.1444197 8,16.5 C8,16.8414124 8.02012869,17.1781235 8.05926407,17.5090113 L7.82798117,17.458653 C6.30452025,17.1123295 4.99153009,16.6091791 3.99956717,15.9764642 L4,19 C4,20.0938769 6.40997901,21.3009615 9.84114399,21.7834411 C10.5602188,22.6886518 11.4604289,23.4441067 12.4868654,23.9948659 C8.99513365,23.9291773 5.90505919,23.1918657 3.99956717,21.9764642 L4,25 C4,26.4064284 7.98392904,28 13,28 C16.5667303,28 19.6116023,27.1942788 21.0733974,26.2230342 L22.4860887,27.6364206 C20.5662868,29.1169838 17.0183704,30 13,30 C7.08000549,30 2.18109111,28.0834888 2.00490579,25.1632617 L2,25 L2,7 L2.00490579,6.83673833 C2.18109111,3.91651125 7.08000549,2 13,2 L13,2 Z" id="database" fill="#000000" fill-rule="nonzero"></path>
        <path d="M16.5,9 C20.6421356,9 24,12.3578644 24,16.5 C24,17.7645134 23.6870598,18.9559356 23.1344007,20.0010455 L23.3846154,20 C23.6090293,20 23.8242519,20.0891481 23.9829365,20.2478327 L23.9829365,20.2478327 L30.7521673,27.0170635 C31.0826109,27.3475071 31.0826109,27.8832621 30.7521673,28.2137057 L30.7521673,28.2137057 L28.2137057,30.7521673 C27.8832621,31.0826109 27.3475071,31.0826109 27.0170635,30.7521673 L27.0170635,30.7521673 L20.2478327,23.9829365 C20.0891481,23.8242519 20,23.6090293 20,23.3846154 L20,23.3846154 L20.0010455,23.1344007 C18.9559356,23.6870598 17.7645134,24 16.5,24 C12.3578644,24 9,20.6421356 9,16.5 C9,12.3578644 12.3578644,9 16.5,9 Z M23.0334615,21.6923077 L22.0426154,21.6923077 L21.6923077,22.0426154 L21.6923077,23.0334615 L27.6153846,28.9565385 L28.9565385,27.6153846 L23.0334615,21.6923077 Z M16.5,11 C13.4624339,11 11,13.4624339 11,16.5 C11,19.5375661 13.4624339,22 16.5,22 C19.5375661,22 22,19.5375661 22,16.5 C22,13.4624339 19.5375661,11 16.5,11 Z" id="Combined-Shape" fill="#000000" fill-rule="nonzero"></path>
    </g>
</svg>