<?xml version="1.0" encoding="UTF-8"?>
<svg width="64px" height="64px" viewBox="0 0 64 64" version="1.1" xmlns="http://www.w3.org/2000/svg" xmlns:xlink="http://www.w3.org/1999/xlink">
    <title>recommendation</title>
    <g id="recommendation" stroke="none" stroke-width="1" fill="none" fill-rule="evenodd">
        <path d="M18,24 L6,24 C4.8954305,24 4,24.8954305 4,26 L4,54 C4,55.1045695 4.8954305,56 6,56 L18,56 C19.1045695,56 20,55.1045695 20,54 L20,26 C20,24.8954305 19.1045695,24 18,24 Z M16,28 L16,52 L8,52 L8,28 L16,28 Z" id="Rectangle" fill="#000000" fill-rule="nonzero"></path>
        <path d="M34.1026334,9.36754447 C31.9996532,15.676485 28.0552832,22.0860863 23.2121614,24.1617099 C22.4767937,24.4768675 22,25.1999438 22,26 L22,52 C22,52.7575441 22.4280048,53.4500704 23.1055728,53.7888544 C24.5934341,54.532785 26.7189498,55.2412903 29.5149287,55.940285 C31.3884877,56.4086747 34.1944228,56.765681 37.2660329,56.9667065 L38.8208909,57.0540144 L40.4015086,57.1140866 C45.9571439,57.2752318 51.6458176,56.9131592 53.8944272,55.7888544 C56.7848487,54.3436436 58.5349628,48.8798518 59.3805476,42.016743 L59.5285523,40.7141513 C59.5514723,40.4945328 59.5735233,40.2737077 59.5947126,40.0517558 L59.7115651,38.7071634 C59.7471074,38.2548854 59.7792602,37.7987399 59.8080812,37.3393665 L59.8846061,35.952202 L59.9414853,34.5495067 C59.9493472,34.314643 59.956405,34.0792922 59.9626657,33.8435339 L59.990724,32.4247364 L60,31 L59.9920427,30.5420531 C59.8224908,25.7226087 56.9498856,23 52,23 L45.138,23 L45.4119815,22.3503692 C47.6536279,16.9093192 48.1802033,12.5653434 46.8569534,9.25721865 C44.3386088,2.9613571 35.861258,4.09167053 34.1026334,9.36754447 Z M43.1430466,10.7427814 C44.2107863,13.4121306 43.3127327,17.9023987 40.2111456,24.1055728 C39.5462445,25.435375 40.513236,27 42,27 L52,27 C54.8954305,27 56,28.1045695 56,31 L55.9903727,32.2154086 C55.9871807,32.4191877 55.9832037,32.6234943 55.9784544,32.8282114 L55.9407947,34.0605034 L55.885219,35.297031 L55.8123453,36.532178 L55.7227913,37.7603282 L55.6171749,38.9758655 L55.4961139,40.1731738 L55.3602262,41.346637 L55.2101297,42.490639 L55.0464422,43.5995636 L54.8697815,44.6677948 C54.808801,45.0164655 54.7457613,45.3574181 54.6807654,45.6897163 L54.480012,46.6597121 L54.2681389,47.5721661 C54.2319344,47.7191347 54.1952923,47.8634716 54.1582255,48.0050599 L53.9308315,48.8206709 C53.3888343,50.6424349 52.7686413,51.8796114 52.1055728,52.2111456 C51.2469294,52.6404673 49.4235477,52.9100473 47.1554271,53.0445411 L45.8772896,53.1046525 C44.999961,53.1359931 44.0763258,53.1500639 43.1313877,53.1483959 L41.701129,53.1331148 C41.2211341,53.1242141 40.7389389,53.1114404 40.2576689,53.0949421 L38.81976,53.0344211 C38.343466,53.0106216 37.8712226,52.9832455 37.4061554,52.9524412 L36.0356076,52.8498914 C33.7976604,52.6623275 31.8172539,52.3927607 30.4850713,52.059715 L29.8645614,51.9013435 C28.4490167,51.5323422 27.2599622,51.1673121 26.3039104,50.811397 L26,50.694 L26,27.246 L26.4929327,26.9711799 C31.8334918,23.8151372 35.6838742,17.2729327 37.8973666,10.6324555 C38.5337759,8.72322766 41.8665189,8.21370573 43.0236743,10.4795318 L43.1430466,10.7427814 Z" id="Path-121" fill="#000000" fill-rule="nonzero"></path>
        <circle id="Oval" fill="#000000" cx="12" cy="48" r="2"></circle>
    </g>
</svg>