<?xml version="1.0" encoding="UTF-8"?>
<svg width="64px" height="64px" viewBox="0 0 64 64" version="1.1" xmlns="http://www.w3.org/2000/svg" xmlns:xlink="http://www.w3.org/1999/xlink">
    <title>recurring_revenue</title>
    <g id="recurring_revenue" stroke="none" stroke-width="1" fill="none" fill-rule="evenodd">
        <g id="Group-2" transform="translate(0.965706, 0.883168)" fill="#000000" fill-rule="nonzero">
            <path d="M31.0527852,15.9918319 C32.1573547,15.9918319 33.0527852,16.8872624 33.0527852,17.9918319 L33.0527852,20.2548319 L33.3767852,20.3218319 C34.2316423,20.5104033 35.054173,20.7959544 35.844377,21.178485 L36.2367852,21.3778319 C37.1461185,21.8618319 37.9087852,22.4998319 38.5247852,23.2918319 C38.8474519,23.7318319 39.0381185,24.2598319 39.0967852,24.8758319 C39.1554519,25.4918319 38.8767852,26.0491652 38.2607852,26.5478319 C37.8207852,26.8998319 37.3074519,27.0538319 36.7207852,27.0098319 C36.1341185,26.9658319 35.6501185,26.7678319 35.2687852,26.4158319 C34.7701185,25.7704986 34.1027852,25.2571652 33.2667852,24.8758319 C33.1968724,24.8439418 33.1260877,24.8133852 33.0544311,24.7841621 L33.0532295,30.3598593 C33.5524962,30.5127612 34.0563481,30.6794187 34.5647852,30.8598319 C35.4741185,31.1824986 36.3101185,31.6078319 37.0727852,32.1358319 C37.8354519,32.6638319 38.4514519,33.3458319 38.9207852,34.1818319 C39.3901185,35.0178319 39.6247852,36.0811652 39.6247852,37.3718319 C39.6247852,38.8678319 39.1847852,40.1438319 38.3047852,41.1998319 C37.4247852,42.2558319 36.3247852,43.0551652 35.0047852,43.5978319 C34.3614486,43.8623148 33.7111442,44.0623463 33.0538722,44.1979265 L33.0527852,45.9918319 C33.0527852,47.0964014 32.1573547,47.9918319 31.0527852,47.9918319 C29.9482157,47.9918319 29.0527852,47.0964014 29.0527852,45.9918319 L29.0527852,44.2905291 C27.9567852,44.1508779 26.8607852,43.8906455 25.7647852,43.5098319 C24.0341185,42.9084986 22.5967852,41.8451652 21.4527852,40.3198319 C21.1594519,39.9091652 21.0274519,39.3811652 21.0567852,38.7358319 C21.0861185,38.0904986 21.4674519,37.5331652 22.2007852,37.0638319 C22.6701185,36.7704986 23.1687852,36.6458319 23.6967852,36.6898319 C24.2247852,36.7338319 24.7381185,37.0051652 25.2367852,37.5038319 C26.0874519,38.3544986 26.9821185,39.0144986 27.9207852,39.4838319 C28.2661966,39.6565376 28.6433842,39.7974671 29.052348,39.9066204 L29.0545085,34.0295466 C28.4726272,33.8498991 27.8820527,33.6586609 27.2827852,33.4558319 C26.3294519,33.1331652 25.4567852,32.7151652 24.6647852,32.2018319 C23.8727852,31.6884986 23.2274519,31.0064986 22.7287852,30.1558319 C22.2301185,29.3051652 21.9807852,28.2344986 21.9807852,26.9438319 C21.9807852,25.4771652 22.3914519,24.2304986 23.2127852,23.2038319 C24.0341185,22.1771652 25.0974519,21.3851652 26.4027852,20.8278319 C27.2578098,20.4627652 28.141152,20.2172623 29.052812,20.091323 L29.0527852,17.9918319 C29.0527852,16.8872624 29.9482157,15.9918319 31.0527852,15.9918319 Z M33.054929,35.3236781 L33.0540511,39.9538526 C33.5153836,39.8373545 33.9236282,39.6146809 34.2787852,39.2858319 C34.6747852,38.9191652 34.8727852,38.3544986 34.8727852,37.5918319 C34.8727852,36.9464986 34.6527852,36.4331652 34.2127852,36.0518319 C33.8981017,35.7791062 33.5121496,35.5363882 33.054929,35.3236781 Z M29.0527852,24.4388319 L28.9547852,24.4578319 C28.4414519,24.5604986 27.9941185,24.7804986 27.6127852,25.1178319 C27.2314519,25.4551652 27.0407852,25.9904986 27.0407852,26.7238319 C27.0407852,27.3984986 27.2607852,27.9338319 27.7007852,28.3298319 C28.0526578,28.6465172 28.503019,28.9163032 29.0518689,29.1391898 L29.0527852,24.4388319 Z" id="s-2"></path>
            <g id="Group" transform="translate(31.034294, 31.116832) rotate(21.000000) translate(-31.034294, -31.116832) translate(7.052785, 6.991832)">
                <path d="M24,0 C31.1560918,0 37.7753526,3.15795321 42.2709418,8.43574967 L42.570806,4.12659032 C42.6419299,3.1094714 43.4617349,2.3233418 44.4540954,2.26901984 L44.7054471,2.27097517 C45.722566,2.34209905 46.5086956,3.16190405 46.5630176,4.15426458 L46.5610622,4.40561621 L45.8705084,14.2809965 C45.7993845,15.2981154 44.9795795,16.084245 43.987219,16.138567 L43.7358673,16.1366116 L33.8604871,15.4460578 C32.7586082,15.3690069 31.927821,14.4132955 32.0048719,13.3114167 C32.0759958,12.2942978 32.8958008,11.5081682 33.8881613,11.4538462 L34.1395129,11.4558016 L39.8942336,11.8575631 C36.1519654,6.96184717 30.3299473,4 24,4 C12.954305,4 4,12.954305 4,24 C4,27 0,27 0,24 C0,10.745166 10.745166,0 24,0 Z" id="Combined-Shape"></path>
                <path d="M25.4,22 C32.5560918,22 39.1753526,25.1579532 43.6709418,30.4357497 L43.970806,26.1265903 C44.0419299,25.1094714 44.8617349,24.3233418 45.8540954,24.2690198 L46.1054471,24.2709752 C47.122566,24.342099 47.9086956,25.161904 47.9630176,26.1542646 L47.9610622,26.4056162 L47.2705084,36.2809965 C47.1993845,37.2981154 46.3795795,38.084245 45.387219,38.138567 L45.1358673,38.1366116 L35.2604871,37.4460578 C34.1586082,37.3690069 33.327821,36.4132955 33.4048719,35.3114167 C33.4759958,34.2942978 34.2958008,33.5081682 35.2881613,33.4538462 L35.5395129,33.4558016 L41.2942336,33.8575631 C37.5519654,28.9618472 31.7299473,26 25.4,26 C14.354305,26 5.4,34.954305 5.4,46 C5.4,49 1.4,49 1.4,46 C1.4,32.745166 12.145166,22 25.4,22 Z" id="Combined-Shape-Copy" transform="translate(24.681509, 35.125000) rotate(180.000000) translate(-24.681509, -35.125000) "></path>
            </g>
        </g>
    </g>
</svg>