<svg xmlns="http://www.w3.org/2000/svg" width="32" height="32" viewBox="0 0 32 32">
  <path d="M10.9999944,17 L10.9999944,14 L18.9999944,14 C21.7810486,14 22.9999944,15.2189514 22.9999944,18 C22.9999944,20.7810486 21.7810486,22 18.9999944,22 L2.99999439,22 C2.44771525,22 1.99999439,22.4477153 1.99999439,23 L1.99999439,28 C1.99999439,28.5522847 2.44771525,29 2.99999439,29 L18.9999944,29 C26.2189514,29 29.9999944,25.2189514 29.9999944,18 L29.9971434,17.6588403 C29.8791005,10.6619679 26.1043649,7 18.9999944,7 L10.9999944,7 L10.9999944,4 C10.9999944,3.10909515 9.92285808,2.66292836 9.29289322,3.29289322 L2.29289322,10.2928932 C1.88099642,10.70479 1.90693403,11.3801641 2.34920863,11.7592566 L9.34920863,17.7592566 C9.99788195,18.3152623 10.9999944,17.8543532 10.9999944,17 Z M4.471,10.943 L9,6.414 L9,8 C9,8.55228475 9.44771525,9 10,9 L19,9 C25.1143819,9 28,11.8856181 28,18 L27.9973337,18.3188301 C27.8977565,24.2147435 25.0071121,27 19,27 L4,27 L4,24 L19,24 C22.8856181,24 25,21.8856181 25,18 C25,14.1143819 22.8856181,12 19,12 L10,12 L9.88337887,12.0067277 C9.38604019,12.0644928 9,12.4871642 9,13 L9,14.826 L4.471,10.943 Z" transform="matrix(-1 0 0 1 32 0)"/>
</svg>
