<?xml version="1.0" encoding="UTF-8"?>
<svg width="64px" height="64px" viewBox="0 0 64 64" version="1.1" xmlns="http://www.w3.org/2000/svg" xmlns:xlink="http://www.w3.org/1999/xlink">
    <title>refresh</title>
    <g id="refresh" stroke="none" stroke-width="1" fill="none" fill-rule="evenodd">
        <g id="Group" transform="translate(4.000000, 4.000000)" fill="#000000" fill-rule="nonzero">
            <path d="M28,0 C36.3940988,0 44.1550761,3.72439085 49.5183259,10.02632 L49.8808025,4.82934905 L49.9004277,4.65325602 C49.9715523,4.1901136 50.1908104,3.78039011 50.5056467,3.46985336 C50.867241,3.11319712 51.3563382,2.89395686 52.1521892,2.86513326 C52.6831028,2.90495606 53.1538912,3.13740779 53.5008569,3.48917738 C53.8575737,3.85083301 54.0768278,4.34003475 54.1055917,5.13612481 L54.1055917,5.13612481 L53.3007331,16.6461381 L53.2811072,16.8222403 C53.2099812,17.2854043 52.990723,17.6951278 52.6758867,18.0056646 C52.3142311,18.3623813 51.8250294,18.5816354 51.0289393,18.6103993 L51.0289393,18.6103993 L39.518926,17.8055408 L39.3272229,17.7834591 C38.8237195,17.7023092 38.3843228,17.4458733 38.0682305,17.0822507 C37.7126266,16.6731752 37.5130797,16.1284414 37.5538772,15.5450107 C37.591308,15.0097251 37.8245328,14.534838 38.1787236,14.1854842 C38.5403803,13.8287664 39.0295839,13.609512 39.8256781,13.5807492 L39.8256781,13.5807492 L46.6922954,14.0603308 C42.5251728,8.30053601 35.5742651,4.64710579 28,4.30769231 C15.1133558,4.66666667 4.66666667,15.1133558 4.30769231,28 C4.66666667,40.8866442 15.1133558,51.3333333 28,51.6923077 C40.8866442,51.3333333 51.3333333,40.8866442 51.6923077,28 C51.3333333,26.7113356 52.3780023,25.6666667 53.8461538,25.8461538 C54.9553311,25.6666667 56,26.7113356 56,28 C56,43.463973 43.463973,56 28,56 C12.536027,56 0,43.463973 0,28 C0,12.536027 12.536027,0 28,0 Z" id="Combined-Shape" transform="translate(28.000000, 28.000000) scale(-1, 1) translate(-28.000000, -28.000000) "></path>
        </g>
    </g>
</svg>