<?xml version="1.0" encoding="UTF-8"?>
<svg width="64px" height="64px" viewBox="0 0 64 64" version="1.1" xmlns="http://www.w3.org/2000/svg" xmlns:xlink="http://www.w3.org/1999/xlink">
    <title>refund</title>
    <g id="refund" stroke="none" stroke-width="1" fill="none" fill-rule="evenodd">
        <path d="M32,18 C33.1045695,18 34,18.8954305 34,20 L33.9988614,21.290072 C34.2260754,21.3288008 34.4557883,21.3737768 34.688,21.425 C35.64,21.635 36.55,21.971 37.418,22.433 C38.286,22.895 39.014,23.504 39.602,24.26 C39.91,24.68 40.092,25.184 40.148,25.772 C40.204,26.36 39.938,26.892 39.35,27.368 C38.93,27.704 38.44,27.851 37.88,27.809 C37.32,27.767 36.858,27.578 36.494,27.242 C36.018,26.626 35.381,26.136 34.583,25.772 C34.3951991,25.6863364 34.2008074,25.6107529 33.9998249,25.5452493 L33.9992376,30.8929135 C34.599806,31.068885 35.2073934,31.2659138 35.822,31.484 C36.69,31.792 37.488,32.198 38.216,32.702 C38.944,33.206 39.532,33.857 39.98,34.655 C40.428,35.453 40.652,36.468 40.652,37.7 C40.652,39.128 40.232,40.346 39.392,41.354 C38.552,42.362 37.502,43.125 36.242,43.643 C35.5042326,43.9463044 34.7568655,44.1608119 33.9998987,44.2865226 L34,45 C34,46.1045695 33.1045695,47 32,47 C30.8954305,47 30,46.1045695 30,45 L29.9999194,44.2217589 C29.1406129,44.0784922 28.2813065,43.8575726 27.422,43.559 C25.77,42.985 24.398,41.97 23.306,40.514 C23.026,40.122 22.9,39.618 22.928,39.002 C22.956,38.386 23.32,37.854 24.02,37.406 C24.468,37.126 24.944,37.007 25.448,37.049 C25.952,37.091 26.442,37.35 26.918,37.826 C27.73,38.638 28.584,39.268 29.48,39.716 C29.6456043,39.7988021 29.8188606,39.8739523 29.9997688,39.9414504 L30.0002226,34.3332651 C29.6274783,34.2143944 29.2510708,34.0906393 28.871,33.962 C27.961,33.654 27.128,33.255 26.372,32.765 C25.616,32.275 25,31.624 24.524,30.812 C24.048,30 23.81,28.978 23.81,27.746 C23.81,26.346 24.202,25.156 24.986,24.176 C25.77,23.196 26.785,22.44 28.031,21.908 C28.6704447,21.6349787 29.3264818,21.4320144 29.9991113,21.299107 L30,20 C30,18.8954305 30.8954305,18 32,18 Z M33.9991818,35.583 L33.9991818,40.24 L34.226,40.199 C34.658,40.115 35.0437143,39.9384286 35.3831429,39.6692857 L35.549,39.527 C35.927,39.177 36.116,38.638 36.116,37.91 C36.116,37.294 35.906,36.804 35.486,36.44 C35.066,36.076 34.513,35.768 33.827,35.516 L33.9991818,35.583 Z M29.9986702,25.5080751 C29.6997382,25.6231978 29.4288482,25.7881728 29.186,26.003 C28.822,26.325 28.64,26.836 28.64,27.536 C28.64,28.18 28.85,28.691 29.27,29.069 C29.4771966,29.2554769 29.7201686,29.424918 29.9989159,29.5773232 Z" id="small-dollar" fill="#000000" fill-rule="nonzero"></path>
        <g id="Group" transform="translate(4.000000, 4.000000)" fill="#000000" fill-rule="nonzero">
            <path d="M28,0 C36.3940988,0 44.1550761,3.72439085 49.5183259,10.02632 L49.8808025,4.82934905 L49.9004277,4.65325602 C49.9715523,4.1901136 50.1908104,3.78039011 50.5056467,3.46985336 C50.867241,3.11319712 51.3563382,2.89395686 52.1521892,2.86513326 C52.6831028,2.90495606 53.1538912,3.13740779 53.5008569,3.48917738 C53.8575737,3.85083301 54.0768278,4.34003475 54.1055917,5.13612481 L54.1055917,5.13612481 L53.3007331,16.6461381 L53.2811072,16.8222403 C53.2099812,17.2854043 52.990723,17.6951278 52.6758867,18.0056646 C52.3142311,18.3623813 51.8250294,18.5816354 51.0289393,18.6103993 L51.0289393,18.6103993 L39.518926,17.8055408 L39.3272229,17.7834591 C38.8237195,17.7023092 38.3843228,17.4458733 38.0682305,17.0822507 C37.7126266,16.6731752 37.5130797,16.1284414 37.5538772,15.5450107 C37.591308,15.0097251 37.8245328,14.534838 38.1787236,14.1854842 C38.5403803,13.8287664 39.0295839,13.609512 39.8256781,13.5807492 L39.8256781,13.5807492 L46.6922954,14.0603308 C42.5251728,8.30053601 35.5742651,4.64710579 28,4.30769231 C15.1133558,4.66666667 4.66666667,15.1133558 4.30769231,28 C4.66666667,40.8866442 15.1133558,51.3333333 28,51.6923077 C40.8866442,51.3333333 51.3333333,40.8866442 51.6923077,28 C51.3333333,26.7113356 52.3780023,25.6666667 53.8461538,25.8461538 C54.9553311,25.6666667 56,26.7113356 56,28 C56,43.463973 43.463973,56 28,56 C12.536027,56 0,43.463973 0,28 C0,12.536027 12.536027,0 28,0 Z" id="Combined-Shape" transform="translate(28.000000, 28.000000) scale(-1, 1) translate(-28.000000, -28.000000) "></path>
        </g>
    </g>
</svg>