<?xml version="1.0" encoding="UTF-8"?>
<svg width="64px" height="64px" viewBox="0 0 64 64" version="1.1" xmlns="http://www.w3.org/2000/svg" xmlns:xlink="http://www.w3.org/1999/xlink">
    <title>region</title>
    <g id="region" stroke="none" stroke-width="1" fill="none" fill-rule="evenodd">
        <path d="M32,4 L32.4790694,4.24008373 C39.293068,4.35439705 45.5145585,6.90277438 50.3116211,11.0532958 C48.3489661,10.3635649 46.222759,10 44,10 C43.1307327,10 42.2762321,10.0556037 41.4405109,10.1645411 C41.2989933,10.1034733 41.156352,10.0440116 41.0130217,9.98589464 C41.0870984,10.0541173 41.1607385,10.1234748 41.2339236,10.1931232 C39.6085557,10.4224822 38.056521,10.8546833 36.6070968,11.4724182 C35.7923907,10.8316413 34.9236352,10.2223107 34.0011339,9.6449211 L34.0000753,12.8548554 C32.9225316,13.5503684 31.9273042,14.3645058 31.0310498,15.2878448 C29.6692583,16.6907893 28.5311632,18.3493975 27.6838492,20.2366775 L20.3930957,20.2361574 C19.03382,23.196992 18.2563256,26.5264629 18.0536404,30.2362077 L26.1009948,30.2359223 C26.2372496,31.4667835 26.5118669,32.8003276 26.9278419,34.2360203 L18.0536952,34.2369315 C18.2564886,37.9466919 19.034118,41.2761624 20.3935559,44.2369809 L30,44.236 L29.9997899,41.8641206 C30.8787118,43.6345615 31.9055888,45.50757 33.0834725,47.4826016 L33.3994569,48.008883 L34,48.986 L34.0005597,54.8275742 C34.9172395,54.2538554 35.7808521,53.648599 36.5915847,53.0114926 L37.4522596,54.2893951 L37.7406813,54.7107828 L38.027475,55.1270704 L39.2015134,56.8052636 L40.4363537,58.5300511 L40.6806351,58.8644412 C38.0923117,59.7076518 35.338323,60.1839841 32.4800718,60.2320354 L32,60.472136 L31.5209306,60.2320522 C16.2779468,59.9763322 4,47.5400341 4,32.236068 C4,16.9317664 16.278485,4.49525861 31.5219329,4.24006693 L32,4 Z M30,48.236 L22.746611,48.2368973 C24.6099803,50.772989 27.0255993,52.9664121 29.9998608,54.8278374 L30,48.236 Z M17.9684669,48.2363056 L14.1121041,48.2371363 C16.5357106,50.9446796 19.5649992,53.0987117 22.9869783,54.4862413 C20.9794854,52.6158144 19.3058035,50.5308213 17.9684669,48.2363056 Z M14.0485356,34.2360681 L8.08218123,34.2364762 C8.38095984,37.8573595 9.48352431,41.2503212 11.2110352,44.2365217 L16.0583434,44.236936 C14.8985536,41.2005061 14.2271592,37.864449 14.0485356,34.2360681 Z M16.0579624,20.2361973 L11.2104601,20.2366084 C9.48313316,23.222821 8.38073975,26.6157535 8.08210526,30.2365807 L14.0485345,30.2360919 C14.2271366,26.608099 14.898404,23.2723671 16.0579624,20.2361973 Z M22.9869964,9.98505098 L22.6581169,10.1221069 C19.3704029,11.5126927 16.4570429,13.6150477 14.1112101,16.2359985 L17.9678809,16.2368358 C19.3053146,13.9419237 20.9791922,11.8565949 22.9869964,9.98505098 Z M29.9998608,9.64429855 C27.0252087,11.5059683 24.6093458,13.6997231 22.7458769,16.2362378 L30,16.236 Z" id="Combined-Shape" fill="#000000" fill-rule="nonzero"></path>
        <g id="Group" transform="translate(28.000000, 12.000000)" fill="#000000">
            <path d="M16,0 C24.836556,0 32,6.3956044 32,16.4835165 C32,20.967033 29.6296296,27.1306471 24.8888889,34.974359 L23.9722222,36.4647436 L23,37.9945055 L21.9722222,39.5636447 L20.8888889,41.1721612 L19.75,42.8200549 L18.5555556,44.507326 L17.3055556,46.2339744 L16,48 L15.3402778,47.112065 L14.0625,45.365728 L12.8402778,43.6587683 L11.6736111,41.9911859 C11.4837963,41.7165369 11.2962963,41.4435287 11.1111111,41.1721612 L10.0277778,39.5636447 L9,37.9945055 L8.02777778,36.4647436 L7.11111111,34.974359 C2.37037037,27.1306471 0,20.967033 0,16.4835165 C0,6.3956044 7.163444,0 16,0 Z M16,4 C9.01741991,4 4,8.95583284 4,16.4835165 C4,19.4166458 5.38684188,23.5416559 8.17647819,28.7702396 L8.90312138,30.1003256 C9.53302683,31.2278046 10.2238752,32.4028624 10.9758106,33.6247005 L11.9074642,35.1133096 C12.2277955,35.6169634 12.5579099,36.128051 12.8978168,36.6465212 L13.9469238,38.2240285 C14.1266743,38.4906207 14.3088751,38.7590457 14.4935275,39.0292973 L15.6308701,40.6726735 L16,41.196 L16.9458537,39.8445218 L18.0550514,38.221099 L19.1052956,36.6417735 C19.2754267,36.3822444 19.4431036,36.1245656 19.6083276,35.8687433 L20.570246,34.3561407 L21.47335,32.8884046 C22.3470653,31.4432045 23.1326423,30.0657658 23.8303313,28.7574736 L24.4987335,27.4722814 C26.7356701,23.0551387 27.8969993,19.4906942 27.9934474,16.8383236 L28,16.4835165 C28,8.95583284 22.9825801,4 16,4 Z" id="Oval" fill-rule="nonzero"></path>
            <circle id="Oval" cx="16" cy="16" r="6"></circle>
        </g>
    </g>
</svg>