<?xml version="1.0" encoding="UTF-8"?>
<svg width="64px" height="64px" viewBox="0 0 64 64" version="1.1" xmlns="http://www.w3.org/2000/svg" xmlns:xlink="http://www.w3.org/1999/xlink">
    <title>released</title>
    <g id="released" stroke="none" stroke-width="1" fill="none" fill-rule="evenodd">
        <path d="M60,20 L60,52 L28,52 L28,20 L60,20 Z M37.99944,23.9991148 L32,24 L32,48 L37.99944,47.9991148 L37.99944,23.9991148 Z M56,24 L40.99944,23.9991148 L40.99944,47.9991148 L56,48 L56,24 Z M29,30 L59,30 L59,33 L29,33 L29,30 Z M50,21 L49.99944,38.9991148 L59,39 L59,42 L49.99944,41.9991148 L50,51 L47,51 L46.99944,41.9991148 L29,42 L29,39 L46.99944,38.9991148 L47,21 L50,21 Z M6.33911709,5.35511484 L31.78056,21.2526928 L29.6608829,24.6448852 L4.21944003,8.74730723 L6.33911709,5.35511484 Z" id="Combined-Shape" fill="#000000" fill-rule="nonzero" transform="translate(32.109720, 28.677557) scale(-1, 1) translate(-32.109720, -28.677557) "></path>
        <path d="M53.2869988,28.4689537 L53.4142136,28.5857864 L59.4142136,34.5857864 C60.1541543,35.3257272 60.1930986,36.5012114 59.5310463,37.2869988 L59.4142136,37.4142136 L53.4142136,43.4142136 C52.633165,44.1952621 51.366835,44.1952621 50.5857864,43.4142136 C49.8458457,42.6742728 49.8069014,41.4987886 50.4689537,40.7130012 L50.5857864,40.5857864 L53.171,38 L40,38 C38.8954305,38 38,37.1045695 38,36 C38,34.8954305 38.8954305,34 40,34 L53.171,34 L50.5857864,31.4142136 C49.8458457,30.6742728 49.8069014,29.4987886 50.4689537,28.7130012 L50.5857864,28.5857864 C51.3257272,27.8458457 52.5012114,27.8069014 53.2869988,28.4689537 Z" id="Combined-Shape" fill="#000000"></path>
    </g>
</svg>