<?xml version="1.0" encoding="UTF-8"?>
<svg width="64px" height="64px" viewBox="0 0 64 64" version="1.1" xmlns="http://www.w3.org/2000/svg" xmlns:xlink="http://www.w3.org/1999/xlink">
    <title>remote_photo</title>
    <g id="remote_photo" stroke="none" fill="none">
        <path d="M32,28 C34.209139,28 36,29.790861 36,32 C36,34.209139 34.209139,36 32,36 C29.790861,36 28,34.209139 28,32 C28,29.790861 29.790861,28 32,28 Z M32,22 C37.5228475,22 42,26.4771525 42,32 C42,33.1045695 41.1045695,34 40,34 C38.8954305,34 38,33.1045695 38,32 C38,28.6862915 35.3137085,26 32,26 C30.8954305,26 30,25.1045695 30,24 C30,22.8954305 30.8954305,22 32,22 Z M32,16 C40.836556,16 48,23.163444 48,32 C48,33.1045695 47.1045695,34 46,34 C44.8954305,34 44,33.1045695 44,32 C44,25.372583 38.627417,20 32,20 C30.8954305,20 30,19.1045695 30,18 C30,16.8954305 30.8954305,16 32,16 Z M32,10 C44.1502645,10 54,19.8497355 54,32 C54,33.1045695 53.1045695,34 52,34 C50.8954305,34 50,33.1045695 50,32 C50,22.0588745 41.9411255,14 32,14 C30.8954305,14 30,13.1045695 30,12 C30,10.8954305 30.8954305,10 32,10 Z M32,4 C47.463973,4 60,16.536027 60,32 C60,33.1045695 59.1045695,34 58,34 C56.8954305,34 56,33.1045695 56,32 C56,18.745166 45.254834,8 32,8 C30.8954305,8 30,7.1045695 30,6 C30,4.8954305 30.8954305,4 32,4 Z" id="Combined-Shape" fill="#000000" fill-rule="evenodd"></path>
        <path d="M29.7637323,16.0001801 C29.2887882,16.530915 29,17.2317325 29,18 C29,18.8284271 29.3357864,19.5784271 29.8786797,20.1213203 L29.765,20 L8,20 L8,43.168 L16,36.1715728 L22,41.17 L28.2802393,35.3412308 C28.3399203,35.4076294 28.4013535,35.4724213 28.4644661,35.5355339 C29.3692881,36.4403559 30.6192881,37 32,37 C32.21332,37 32.4235198,36.9866412 32.6298086,36.9607144 L22,46.8284272 L16,41.83 L8,48.828 L8,56 L52,56 L52,48.83 L36.4611552,34.2602707 C36.8057684,33.5814458 37,32.8134055 37,32 C37,32.8284271 37.3357864,33.5784271 37.8786797,34.1213203 C38.4215729,34.6642136 39.1715729,35 40,35 C40.8284271,35 41.5784271,34.6642136 42.1213203,34.1213203 C42.1578364,34.0848043 42.1934154,34.0473513 42.2280183,34.0090005 L52,43.17 L52,35 C52.8284271,35 53.5784271,34.6642136 54.1213203,34.1213203 C54.6642136,33.5784271 55,32.8284271 55,32 C55,32.8284271 55.3357864,33.5784271 55.8786797,34.1213203 C55.918104,34.1607447 55.9586206,34.1990769 56.0001801,34.2362677 L56,58 C56,59.1045694 55.1045694,60 54,60 L6,60 C4.8954305,60 4,59.1045694 4,58 L4,18 C4,16.8954305 4.8954305,16 6,16 Z" id="Combined-Shape" fill="#000000" fill-rule="nonzero"></path>
        <circle id="Oval" fill="#000000" fill-rule="nonzero" cx="16" cy="28" r="4"></circle>
    </g>
</svg>