<?xml version="1.0" encoding="UTF-8"?>
<svg width="64px" height="64px" viewBox="0 0 64 64" version="1.1" xmlns="http://www.w3.org/2000/svg" xmlns:xlink="http://www.w3.org/1999/xlink">
    <title>remote_camera</title>
    <g id="remote_camera" stroke="none" fill="none" fill-rule="evenodd">
        <path d="M29.765,14 L29.8786797,14.1213203 C30.4215729,14.6642136 31.1715729,15 32,15 C31.1715729,15 30.4215729,15.3357864 29.8786797,15.8786797 C29.3357864,16.4215729 29,17.1715729 29,18 L27,18 L21.6,23.2 C21.2695048,23.6406602 20.7743483,23.9226651 20.2339976,23.9862809 L20,24 L10,24 C8.8954305,24 8,24.8954305 8,26 L8,54 C8,55.1045695 8.8954305,56 10,56 L50,56 C51.1045695,56 52,55.1045695 52,54 L52,35 C52.8284271,35 53.5784271,34.6642136 54.1213203,34.1213203 C54.6642136,33.5784271 55,32.8284271 55,32 C55,32.8284271 55.3357864,33.5784271 55.8786797,34.1213203 C55.918104,34.1607447 55.9586206,34.1990769 56.0001801,34.2362677 L56,54 C56,57.3137085 53.3137085,60 50,60 L10,60 C6.6862915,60 4,57.3137085 4,54 L4,26 C4,22.6862915 6.6862915,20 10,20 L19,20 L24.4,14.8 C24.7304952,14.3593398 25.2256517,14.0773349 25.7660024,14.0137191 L26,14 L29.765,14 Z M29.7671077,26.001898 L29.8786797,26.1213203 C30.4215729,26.6642136 31.1715729,27 32,27 C30.6192881,27 29.3692881,27.5596441 28.4644661,28.4644661 C27.9319609,28.9969713 27.5190097,29.6490307 27.2693287,30.3769281 C23.0743198,31.5649792 20,35.4234667 20,40 C20,45.5228475 24.4771525,50 30,50 C35.5228475,50 40,45.5228475 40,40 C40,37.973118 39.3969786,36.0870791 38.3605549,34.5115026 C38.8306186,34.8205277 39.3943503,35 40,35 C40.8284271,35 41.5784271,34.6642136 42.1213203,34.1213203 C42.258709,33.9839317 42.3828338,33.8332793 42.4916094,33.6714487 C43.4561386,35.5719013 44,37.7224379 44,40 C44,47.7319865 37.7319865,54 30,54 C22.2680135,54 16,47.7319865 16,40 C16,32.345794 22.1425406,26.1262553 29.7671077,26.001898 Z M16,15 C17.1045695,15 18,15.8954305 18,17 L18,19 L10,19 L10,17 C10,15.8954305 10.8954305,15 12,15 L16,15 Z" id="Combined-Shape" fill="#000000"></path>
        <path d="M32,28 C34.209139,28 36,29.790861 36,32 C36,34.209139 34.209139,36 32,36 C29.790861,36 28,34.209139 28,32 C28,29.790861 29.790861,28 32,28 Z M32,22 C37.5228475,22 42,26.4771525 42,32 C42,33.1045695 41.1045695,34 40,34 C38.8954305,34 38,33.1045695 38,32 C38,28.6862915 35.3137085,26 32,26 C30.8954305,26 30,25.1045695 30,24 C30,22.8954305 30.8954305,22 32,22 Z M32,16 C40.836556,16 48,23.163444 48,32 C48,33.1045695 47.1045695,34 46,34 C44.8954305,34 44,33.1045695 44,32 C44,25.372583 38.627417,20 32,20 C30.8954305,20 30,19.1045695 30,18 C30,16.8954305 30.8954305,16 32,16 Z M32,10 C44.1502645,10 54,19.8497355 54,32 C54,33.1045695 53.1045695,34 52,34 C50.8954305,34 50,33.1045695 50,32 C50,22.0588745 41.9411255,14 32,14 C30.8954305,14 30,13.1045695 30,12 C30,10.8954305 30.8954305,10 32,10 Z M32,4 C47.463973,4 60,16.536027 60,32 C60,33.1045695 59.1045695,34 58,34 C56.8954305,34 56,33.1045695 56,32 C56,18.745166 45.254834,8 32,8 C30.8954305,8 30,7.1045695 30,6 C30,4.8954305 30.8954305,4 32,4 Z" id="Combined-Shape" fill="#000000"></path>
    </g>
</svg>