<?xml version="1.0" encoding="UTF-8"?>
<svg width="64px" height="64px" viewBox="0 0 64 64" version="1.1" xmlns="http://www.w3.org/2000/svg" xmlns:xlink="http://www.w3.org/1999/xlink">
    <title>remove</title>
    <g id="remove" stroke="none" stroke-width="1" fill="none" fill-rule="evenodd">
        <path d="M32,4 C16.536027,4 4,16.536027 4,32 C4,47.463973 16.536027,60 32,60 C47.463973,60 60,47.463973 60,32 C60,16.536027 47.463973,4 32,4 Z M32,8 C45.254834,8 56,18.745166 56,32 C56,45.254834 45.254834,56 32,56 C18.745166,56 8,45.254834 8,32 C8,18.745166 18.745166,8 32,8 Z" id="Combined-Shape-path" fill="#000000" fill-rule="nonzero"></path>
        <path d="M44,28 L20,28 C17.790861,28 16,29.790861 16,32 C16,34.209139 17.790861,36 20,36 L44,36 C46.209139,36 48,34.209139 48,32 C48,29.790861 46.209139,28 44,28 Z" id="Combined-Shape-path" fill="#000000" fill-rule="nonzero"></path>
    </g>
</svg>