<?xml version="1.0" encoding="UTF-8"?>
<svg width="64px" height="64px" viewBox="0 0 64 64" version="1.1" xmlns="http://www.w3.org/2000/svg" xmlns:xlink="http://www.w3.org/1999/xlink">
    <title>renewal</title>
    <g id="renewal" stroke="none" stroke-width="1" fill="none" fill-rule="evenodd">
        <path d="M32,6 L32.0003937,6.02803087 C32.3532713,6.08775008 32.6848049,6.24133982 32.9593032,6.47385647 L33.0916342,6.59662285 L41.4249676,15.0581613 C41.6835428,15.3207146 41.8623754,15.6472411 41.9460541,16.0001297 L42,16 L42.0009781,20.0988476 C41.3428489,20.033472 40.6753334,20 40,20 C39.3250081,20 38.657826,20.0334382 38.0000201,20.0987485 L38,20 L30,20 C28.9743283,20 28.1289857,19.2279196 28.0134555,18.2332423 L28,18 L28,10 L12,10 L12,52 L23.998922,52.0005148 C25.1367811,53.5152785 26.4847215,54.8632189 27.9994852,56.001078 L10,56 C8.9456382,56 8.08183488,55.1841222 8.00548574,54.1492623 L8,54 L8,8 C8,6.9456382 8.81587779,6.08183488 9.85073766,6.00548574 L10,6 L32,6 Z M40,28 C40.681707,28 41.3501372,28.0568447 42.0008092,28.1660527 L42.0008092,51.8339473 C41.3501372,51.9431553 40.681707,52 40,52 C39.318641,52 38.6505452,51.9432133 38.0001873,51.8341145 L38.0001873,28.1658855 C38.6505452,28.0567867 39.318641,28 40,28 Z M21.2595945,47.0010145 C21.5157114,47.6862927 21.8083394,48.3537594 22.1351116,49.0010475 L14.9166667,49 C14.4104057,49 14,48.5522847 14,48 C14,47.4477153 14.4104057,47 14.9166667,47 Z M35.0833333,47 C35.5895943,47 36,47.4477153 36,48 C36,48.5522847 35.5895943,49 35.0833333,49 L32.0630574,49.0004682 C31.3876708,48.4044302 30.7798902,47.7335584 30.2526901,47.0008275 L35.0833333,47 Z M20.0988476,42.0009781 C20.1661067,42.6780686 20.2671342,43.3452241 20.400222,44.0007366 L14.9166667,44 C14.4104057,44 14,43.5522847 14,43 C14,42.4477153 14.4104057,42 14.9166667,42 Z M35.0833333,42 C35.5895943,42 36,42.4477153 36,43 C36,43.5522847 35.5895943,44 35.0833333,44 L28.6831465,44.0009157 C28.4557168,43.3576249 28.2815836,42.6891541 28.1660527,42.0008092 L35.0833333,42 Z M20.2234886,37.0000811 C20.1246699,37.6570375 20.057806,38.3244584 20.02453,39.0007105 L14.9166667,39 C14.4104057,39 14,38.5522847 14,38 C14,37.4477153 14.4104057,37 14.9166667,37 Z M35.0833333,37 C35.5895943,37 36,37.4477153 36,38 C36,38.5522847 35.5895943,39 35.0833333,39 L28.0410297,39.0005348 C28.0974883,38.315802 28.2114356,37.6473685 28.378034,37.0000718 L35.0833333,37 Z M21.6641945,31.9999548 C21.3803826,32.6495266 21.1300768,33.3170879 20.9154619,34.0004541 L14.9166667,34 C14.4104057,34 14,33.5522847 14,33 C14,32.4477153 14.4104057,32 14.9166667,32 Z M35.0833333,32 C35.5895943,32 36,32.4477153 36,33 C36,33.5522847 35.5895943,34 35.0833333,34 L29.6054206,33.9999408 C30.020063,33.2831571 30.5067178,32.6132431 31.0554921,32.0000915 L35.0833333,32 Z M24.8002422,27.000685 C24.2580029,27.6341135 23.75467,28.3018363 23.2939463,29.0001509 L14.9166667,29 C14.4104057,29 14,28.5522847 14,28 C14,27.4477153 14.4104057,27 14.9166667,27 Z M31.2719384,21.9999082 C30.1139484,22.5624475 29.0183935,23.2334392 27.9984803,23.9996769 L14.9166667,24 C14.4104057,24 14,23.5522847 14,23 C14,22.4477153 14.4104057,22 14.9166667,22 Z M25.2,17 C25.6418278,17 26,17.4477153 26,18 C26,18.5522847 25.6418278,19 25.2,19 L14.8,19 C14.3581722,19 14,18.5522847 14,18 C14,17.4477153 14.3581722,17 14.8,17 L25.2,17 Z M32,11.19 L32,16 L36.738,16 L32,11.19 Z M25.2,12 C25.6418278,12 26,12.4477153 26,13 C26,13.5522847 25.6418278,14 25.2,14 L14.8,14 C14.3581722,14 14,13.5522847 14,13 C14,12.4477153 14.3581722,12 14.8,12 L25.2,12 Z" id="page" fill="#000000" fill-rule="nonzero"></path>
        <path d="M40,22 C44.3652892,22 48.4781434,23.5649716 51.6890558,26.3103962 L53.9902976,24.0097024 C54.1557157,23.8442843 54.3738929,23.7420956 54.6068686,23.720916 C55.1568853,23.6709145 55.6432961,24.0762568 55.6932976,24.6262734 L55.6932976,24.6262734 L56.3913571,32.3049282 C56.3968328,32.3651611 56.3968328,32.4257667 56.3913571,32.4859996 C56.3413556,33.0360163 55.8549448,33.4413586 55.3049282,33.3913571 L55.3049282,33.3913571 L47.6262734,32.6932976 C47.3932977,32.672118 47.1751205,32.5699292 47.0097024,32.4045112 C46.6191781,32.0139869 46.6191781,31.3808219 47.0097024,30.9902976 L47.0097024,30.9902976 L48.8499748,29.1502743 C46.3892142,27.1392627 43.2888485,26 40,26 C32.2680135,26 26,32.2680135 26,40 C26,47.7319865 32.2680135,54 40,54 C47.6275002,54 53.8303269,47.9002476 53.996578,40.312645 C53.9984739,40.1394252 54.1394335,40 54.3126638,40 L57.6802193,40 C57.855292,40.0000195 57.9972164,40.141944 57.9972164,40.3170166 L57.9971675,40.3225867 C57.8250773,50.1148803 49.8333728,58 40,58 C30.0588745,58 22,49.9411255 22,40 C22,30.0588745 30.0588745,22 40,22 Z" id="Combined-Shape" fill="#000000" fill-rule="nonzero"></path>
    </g>
</svg>