<?xml version="1.0" encoding="UTF-8"?>
<svg width="32px" height="32px" viewBox="0 0 32 32" version="1.1" xmlns="http://www.w3.org/2000/svg" xmlns:xlink="http://www.w3.org/1999/xlink">
    <title>renewal</title>
    <g id="renewal" stroke="none" stroke-width="1" fill="none" fill-rule="evenodd">
        <path d="M16,4 C19.5784463,4 22.8884172,5.57933007 25.1362256,8.21876094 L25.285403,6.06329516 C25.320965,5.5547357 25.7308675,5.1616709 26.2270477,5.13450992 L26.3527235,5.13548758 C26.861283,5.17104952 27.2543478,5.58095202 27.2815088,6.07713229 L27.2805311,6.20280811 L26.9352542,11.1404982 C26.8996922,11.6490577 26.4897897,12.0421225 25.9936095,12.0692835 L25.8679337,12.0683058 L20.9302435,11.7230289 C20.3793041,11.6845034 19.9639105,11.2066478 20.0024359,10.6557084 C20.0379979,10.1471489 20.4479004,9.7540841 20.9440807,9.72692312 L21.0697565,9.72790079 L23.9459704,9.92728207 C22.0747938,7.48031882 19.1643273,6 16,6 C10.4771525,6 6,10.4771525 6,16 C6,21.5228475 10.4771525,26 16,26 C21.5228475,26 26,21.5228475 26,16 C26,15.4477153 26.4477153,15 27,15 C27.5522847,15 28,15.4477153 28,16 C28,22.627417 22.627417,28 16,28 C9.372583,28 4,22.627417 4,16 C4,9.372583 9.372583,4 16,4 Z" id="Combined-Shape" fill="#000000" fill-rule="nonzero"></path>
    </g>
</svg>