<?xml version="1.0" encoding="UTF-8"?>
<svg width="64px" height="64px" viewBox="0 0 64 64" version="1.1" xmlns="http://www.w3.org/2000/svg" xmlns:xlink="http://www.w3.org/1999/xlink">
    <title>report</title>
    <g id="report" stroke="none" stroke-width="1" fill="none" fill-rule="evenodd">
        <path d="M45.924026,6 C46.7196754,6 47.4827372,6.31607052 48.0453463,6.87867966 L57.1213203,15.9546537 C57.6839295,16.5172628 58,17.2803246 58,18.075974 L58,55.8333333 C58,57.0299503 57.0299503,58 55.8333333,58 L8.16666667,58 C6.97004971,58 6,57.0299503 6,55.8333333 L6,8.16666667 C6,6.97004971 6.97004971,6 8.16666667,6 L45.924026,6 Z M22,48 L10,48 L10,54 L22,54 L22,48 Z M40,10 L24,10 L24,18 L27.415983,18.0001388 C27.1808964,18.5382394 27.037781,19.1257164 27.006506,19.7427007 L27,20 L24,20 L24,28 L26.999,28 L26.999,30 L24,30 L24,31.002 L23.9727385,30.9796147 L23.7542244,30.8266542 C23.2086658,30.4658864 22.6127033,30.2248055 22.0004653,30.1002367 L22,30 L10,30 L10,37 L16.416692,37.0009588 C16.689215,37.6265794 17.0938575,38.2045337 17.6261716,38.6903405 L17.833811,38.8697865 L17.993,39 L10,39 L10,46 L22,46 L22,42.278 L24,43.915 L24,46 L26.549,46 L28.993,48 L24,48 L24,54 L40,54 L40,48 L35.005,48 L37.447,46 L40,46 L40,43.91 L42,42.272 L42,46 L54,46 L54,39 L45.997,39 L46.3517782,38.7102902 L46.5450207,38.5263852 C46.9934028,38.0764643 47.3405531,37.5575875 47.5831318,37.0009706 L54,37 L54,30 L43.0293639,29.9999531 C43.0026842,29.9997817 42.9759995,29.9998228 42.9493124,30.0000765 L42,30 L42.0004531,30.0998988 C41.3140938,30.2392967 40.6481528,30.5251306 40.0508203,30.9622196 L40,31.001 L40,30 L36.999,30 L36.999,28 L40,28 L40,20 L37,20 L36.993494,19.7427007 C36.962219,19.1257164 36.8191036,18.5382394 36.584017,18.0001388 L40,18 L40,10 Z M54,48 L42,48 L42,54 L54,54 L54,48 Z M22,20 L10,20 L10,28 L22,28 L22,20 Z M54,20 L42,20 L42,28 L54,28 L54,20 Z M22,10 L10,10 L10,18 L22,18 L22,10 Z M45,10 L42,10 L42,18 L45,18 L45,10 Z" id="Rectangle" fill="#000000" fill-rule="nonzero"></path>
        <path d="M32,17 C33.6568542,17 35,18.3431458 35,20 L34.9999096,37.668 L41.1002866,32.6781281 C42.3826211,31.6289454 44.2726892,31.8179522 45.3218719,33.1002866 C46.3307014,34.3333005 46.1947552,36.1281983 45.0428147,37.197163 L44.8997134,37.3218719 L32,47.8761828 L19.1002866,37.3218719 C17.8179522,36.2726892 17.6289454,34.3826211 18.6781281,33.1002866 C19.6869576,31.8672727 21.473233,31.6451017 22.7491371,32.5625552 L22.8997134,32.6781281 L28.9999096,37.669 L29,20 C29,18.3431458 30.3431458,17 32,17 Z" id="Path" fill="#000000"></path>
    </g>
</svg>