<?xml version="1.0" encoding="UTF-8"?>
<svg width="64px" height="64px" viewBox="0 0 64 64" version="1.1" xmlns="http://www.w3.org/2000/svg" xmlns:xlink="http://www.w3.org/1999/xlink">
    <title>required_input</title>
    <g id="required_input" stroke="none" stroke-width="1" fill="none" fill-rule="evenodd">
        <path d="M28.6685873,53.6095933 C28.503305,55.5929803 29.9908452,57.2458027 31.9742322,57.2458027 C33.9576191,57.2458027 35.4451593,55.5929803 35.2798771,53.6095933 L33.9576191,35.5938285 L48.9983035,45.8413278 C49.989997,46.5024567 50.6511259,46.8330212 51.6428194,46.8330212 C53.4609241,46.8330212 54.9484643,45.1801988 54.9484643,43.3620941 C54.9484643,41.5439894 53.7914886,40.7175781 52.6345129,40.2217314 L35.6104416,32.1229014 L52.6345129,24.0240713 C53.7914886,23.5282246 54.9484643,22.7018134 54.9484643,20.8837086 C54.9484643,19.0656039 53.4609241,17.4127815 51.6428194,17.4127815 C50.6511259,17.4127815 49.989997,17.743346 48.9983035,18.404475 L33.9576191,28.6519742 L35.2798771,10.6362094 C35.4451593,8.65282246 33.9576191,7 31.9742322,7 C29.9908452,7 28.503305,8.65282246 28.6685873,10.6362094 L29.9908452,28.6519742 L14.9501608,18.404475 C13.9584674,17.743346 13.4626206,17.4127815 12.3056449,17.4127815 C10.4875402,17.5780637 9,19.0656039 9,20.8837086 C9,22.3712489 9.99169347,23.3629423 11.3139514,24.0240713 L28.3380228,32.1229014 L11.3139514,40.2217314 C10.1569757,40.7175781 9,41.8745539 9,43.3620941 C9,45.1801988 10.4875402,46.8330212 12.3056449,46.8330212 C13.2973384,46.8330212 13.9584674,46.5024567 14.9501608,45.8413278 L29.9908452,35.5938285 L28.6685873,53.6095933 Z" id="asterisk" fill="#000000" fill-rule="nonzero"></path>
    </g>
</svg>