<?xml version="1.0" encoding="UTF-8"?>
<svg width="64px" height="64px" viewBox="0 0 64 64" version="1.1" xmlns="http://www.w3.org/2000/svg" xmlns:xlink="http://www.w3.org/1999/xlink">
    <title>reschedule</title>
    <g id="reschedule" stroke="none" stroke-width="1" fill="none" fill-rule="evenodd">
        <path d="M22,24 L22,30.897 L38.4232004,38.9076003 L37.23316,35.4502278 C36.8924743,34.4608047 37.3727698,33.3872145 38.3122849,32.9711781 L38.4730608,32.9080543 C39.4624838,32.5673686 40.536074,33.0476641 40.9521105,33.9871793 L41.0152343,34.1479551 L43.718,42 L52,42 L52,52 L42,52 L42,44.898 L34.5148797,47.4756572 C33.4704887,47.8352698 32.3323189,47.2801473 31.9727062,46.2357563 C31.6320205,45.2463333 32.112316,44.1727431 33.0518312,43.7567066 L33.212607,43.6935829 L36.6697158,42.5027764 L19.4389351,34.0987632 L19.486,34 L12,34 L12,24 L22,24 Z" id="Combined-Shape" fill="#000000"></path>
        <path d="M8,20 L8,56 L56,56 L56,20 L8,20 Z M46,4 C47.6568542,4 49,5.34314575 49,7 L49,10 C49,11.6568542 47.6568542,13 46,13 C44.3431458,13 43,11.6568542 43,10 L43,7 C43,5.34314575 44.3431458,4 46,4 Z M18,4 C19.6568542,4 21,5.34314575 21,7 L21,10 C21,11.6568542 19.6568542,13 18,13 C16.3431458,13 15,11.6568542 15,10 L15,7 C15,5.34314575 16.3431458,4 18,4 Z M60,60 L4,60 L4,10 L14,10 L14.0003512,10.0230014 C14.0079012,10.3476543 14.1777778,14 18,14 C22,14 22,10 22,10 L42,10 L42.0003512,10.0230014 C42.0079012,10.3476543 42.1777778,14 46,14 C50,14 50,10 50,10 L60,10 L60,60 Z" id="Combined-Shape" fill="#000000" fill-rule="nonzero"></path>
    </g>
</svg>