<?xml version="1.0" encoding="UTF-8"?>
<svg width="64px" height="64px" viewBox="0 0 64 64" version="1.1" xmlns="http://www.w3.org/2000/svg" xmlns:xlink="http://www.w3.org/1999/xlink">
    <title>restaurant_bar</title>
    <g id="restaurant_bar" stroke="none" stroke-width="1" fill="none" fill-rule="evenodd">
        <path d="M32,26 L23,26 L23,35 L32,35 L32,26 Z M30,28 L30,33 L25,33 L25,28 L30,28 Z" id="Rectangle-122" fill="#000000" fill-rule="nonzero"></path>
        <polygon id="Rectangle-122-Copy" fill="#000000" fill-rule="nonzero" points="44 26 44 29 42 29 42 28 37 28 37 32.9067756 35 32.9067756 35 26"></polygon>
        <polygon id="Path-621" fill="#000000" fill-rule="nonzero" points="4 22 11.6363636 15 44.3636364 15 52 22"></polygon>
        <path d="M45,28 C37.8202983,28 32,33.8202983 32,41 C32,48.1797017 37.8202983,54 45,54 C52.1797017,54 58,48.1797017 58,41 C58,33.8202983 52.1797017,28 45,28 Z M45,30 C51.0751322,30 56,34.9248678 56,41 C56,47.0751322 51.0751322,52 45,52 C38.9248678,52 34,47.0751322 34,41 C34,34.9248678 38.9248678,30 45,30 Z" id="Oval-79" fill="#000000" fill-rule="nonzero"></path>
        <path d="M43.5,33 C43.7454599,33 43.9496084,33.1768752 43.9919443,33.4101244 L44,33.5358658 L44,37.5 C44,38.1339131 43.6998961,38.5840689 43.2236068,38.8222136 C43.0080847,38.9299746 42.7995335,38.9791013 42.6245388,38.9944415 L42.5,39 L40.5808904,38.9934134 L40.5122761,39.0018529 C40.2939149,39.0219618 40.0511071,38.9997711 39.8071566,38.8977926 C39.3460674,38.7050435 39.0520726,38.284676 39.0062755,37.6718728 L39,37.5 L39,33.5 C39,33.2238576 39.2238576,33 39.5,33 C39.7454599,33 39.9496084,33.1768752 39.9919443,33.4101244 L40,33.5 L40,37.5 C40,37.8120835 40.0708498,37.9241658 40.1928434,37.9751628 C40.2395533,37.9946889 40.294204,38.0047693 40.3461097,38.0074172 L40.5,38 L42.5,38 C42.5543064,38 42.6707958,37.9805851 42.7763932,37.9277864 C42.9038595,37.8640533 42.9770947,37.7724099 42.9954177,37.5957053 L43,37.4213958 L43,33.5 C43,33.2238576 43.2238576,33 43.5,33 Z" id="Path-622" fill="#000000" fill-rule="nonzero"></path>
        <path d="M20,30 L20,44 L12,44 L12,30 L20,30 Z M14,37 C13.4477153,37 13,37.4477153 13,38 C13,38.5522847 13.4477153,39 14,39 C14.5522847,39 15,38.5522847 15,38 C15,37.4477153 14.5522847,37 14,37 Z" id="door-copy-2" fill="#000000" fill-rule="nonzero"></path>
        <path d="M41.5,33 C41.7454599,33 41.9496084,33.1768752 41.9919443,33.4101244 L42,33.5 L42,49.5 C42,49.7761424 41.7761424,50 41.5,50 C41.2545401,50 41.0503916,49.8231248 41.0080557,49.5898756 L41,49.5 L41,33.5 C41,33.2238576 41.2238576,33 41.5,33 Z" id="Path-623" fill="#000000" fill-rule="nonzero"></path>
        <path d="M39,38 L44,38 L44,39 C44,39.5522847 43.5562834,40 43.0001925,40 L39.9998075,40 C39.4476291,40 39,39.5561352 39,39 L39,38 Z" id="Rectangle-176" fill="#000000" fill-rule="nonzero"></path>
        <ellipse id="Oval-81" fill="#000000" fill-rule="nonzero" cx="48.5" cy="36" rx="2" ry="3"></ellipse>
        <path d="M48.5,37.1546631 C48.7454599,37.1546631 48.9496084,37.3315382 48.9919443,37.5647875 L49,37.6546631 L49,49.425782 C49,49.7019244 48.7761424,49.925782 48.5,49.925782 C48.2545401,49.925782 48.0503916,49.7489068 48.0080557,49.5156576 L48,49.425782 L48,37.6546631 C48,37.3785207 48.2238576,37.1546631 48.5,37.1546631 Z" id="Path-624" fill="#000000" fill-rule="nonzero"></path>
        <polygon id="Path-622" fill="#000000" fill-rule="nonzero" points="9 22 9 45 34 45 34 47 7 47 7 22"></polygon>
        <polygon id="Path-623" fill="#000000" fill-rule="nonzero" points="49 22 49 29 47 29 47 22"></polygon>
    </g>
</svg>