<?xml version="1.0" encoding="UTF-8"?>
<svg width="64px" height="64px" viewBox="0 0 64 64" version="1.1" xmlns="http://www.w3.org/2000/svg" xmlns:xlink="http://www.w3.org/1999/xlink">
    <title>revenue</title>
    <g id="revenue" stroke="none" stroke-width="1" fill="none" fill-rule="evenodd">
        <path d="M21,4 C22.1045695,4 23,4.8954305 23,6 L22.9988614,7.290072 C23.2260754,7.32880082 23.4557883,7.37377682 23.688,7.425 C24.64,7.635 25.55,7.971 26.418,8.433 C27.286,8.895 28.014,9.504 28.602,10.26 C28.91,10.68 29.092,11.184 29.148,11.772 C29.204,12.36 28.938,12.892 28.35,13.368 C27.93,13.704 27.44,13.851 26.88,13.809 C26.32,13.767 25.858,13.578 25.494,13.242 C25.018,12.626 24.381,12.136 23.583,11.772 C23.3951991,11.6863364 23.2008074,11.6107529 22.9998249,11.5452493 L22.9992376,16.8929135 C23.599806,17.068885 24.2073934,17.2659138 24.822,17.484 C25.69,17.792 26.488,18.198 27.216,18.702 C27.944,19.206 28.532,19.857 28.98,20.655 C29.428,21.453 29.652,22.468 29.652,23.7 C29.652,25.128 29.232,26.346 28.392,27.354 C27.552,28.362 26.502,29.125 25.242,29.643 C24.5042326,29.9463044 23.7568655,30.1608119 22.9998987,30.2865226 L23,31 C23,32.1045695 22.1045695,33 21,33 C19.8954305,33 19,32.1045695 19,31 L18.9999194,30.2217589 C18.1406129,30.0784922 17.2813065,29.8575726 16.422,29.559 C14.77,28.985 13.398,27.97 12.306,26.514 C12.026,26.122 11.9,25.618 11.928,25.002 C11.956,24.386 12.32,23.854 13.02,23.406 C13.468,23.126 13.944,23.007 14.448,23.049 C14.952,23.091 15.442,23.35 15.918,23.826 C16.73,24.638 17.584,25.268 18.48,25.716 C18.6456043,25.7988021 18.8188606,25.8739523 18.9997688,25.9414504 L19.0002226,20.3332651 C18.6274783,20.2143944 18.2510708,20.0906393 17.871,19.962 C16.961,19.654 16.128,19.255 15.372,18.765 C14.616,18.275 14,17.624 13.524,16.812 C13.048,16 12.81,14.978 12.81,13.746 C12.81,12.346 13.202,11.156 13.986,10.176 C14.77,9.196 15.785,8.44 17.031,7.908 C17.6704447,7.63497868 18.3264818,7.43201435 18.9991113,7.29910702 L19,6 C19,4.8954305 19.8954305,4 21,4 Z M22.9991818,21.583 L22.9991818,26.24 L23.226,26.199 C23.658,26.115 24.0437143,25.9384286 24.3831429,25.6692857 L24.549,25.527 C24.927,25.177 25.116,24.638 25.116,23.91 C25.116,23.294 24.906,22.804 24.486,22.44 C24.066,22.076 23.513,21.768 22.827,21.516 L22.9991818,21.583 Z M18.9986702,11.5080751 C18.6997382,11.6231978 18.4288482,11.7881728 18.186,12.003 C17.822,12.325 17.64,12.836 17.64,13.536 C17.64,14.18 17.85,14.691 18.27,15.069 C18.4771966,15.2554769 18.7201686,15.424918 18.9989159,15.5773232 Z" id="small-dollar" fill="#000000" fill-rule="nonzero"></path>
        <path d="M6,4 C7.0543618,4 7.91816512,4.81587779 7.99451426,5.85073766 L8,6 L8,56 L58,56 C59.0543618,56 59.9181651,56.8158778 59.9945143,57.8507377 L60,58 C60,59.0543618 59.1841222,59.9181651 58.1492623,59.9945143 L58,60 L6,60 C4.9456382,60 4.08183488,59.1841222 4.00548574,58.1492623 L4,58 L4,6 C4,4.8954305 4.8954305,4 6,4 Z" id="Path-69" fill="#000000" fill-rule="nonzero"></path>
        <rect id="Rectangle" fill="#000000" x="12" y="36" width="4" height="18"></rect>
        <rect id="Rectangle-Copy" fill="#000000" x="20" y="40" width="4" height="14"></rect>
        <rect id="Rectangle-Copy-4" fill="#000000" x="28" y="36" width="4" height="18"></rect>
        <rect id="Rectangle-Copy-2" fill="#000000" x="36" y="26" width="4" height="28"></rect>
        <rect id="Rectangle-Copy-5" fill="#000000" x="44" y="16" width="4" height="38"></rect>
        <rect id="Rectangle-Copy-3" fill="#000000" x="52" y="8" width="4" height="46"></rect>
    </g>
</svg>