<?xml version="1.0" encoding="UTF-8"?>
<svg width="64px" height="64px" viewBox="0 0 64 64" version="1.1" xmlns="http://www.w3.org/2000/svg" xmlns:xlink="http://www.w3.org/1999/xlink">
    <title>review</title>
    <g id="review" stroke="none" stroke-width="1" fill="none" fill-rule="evenodd">
        <path d="M39,22 C46.7319865,22 53,28.2680135 53,36 C53,37.7310023 52.6858457,39.38863 52.1114417,40.9189783 L60.6923882,49.5 C61.863961,50.6715729 61.863961,52.5710678 60.6923882,53.7426407 L57.1568542,57.2781746 C55.9852814,58.4497475 54.0857864,58.4497475 52.9142136,57.2781746 L44.5099954,48.8740253 C42.8189259,49.5987373 40.9563229,50 39,50 C31.2680135,50 25,43.7319865 25,36 C25,28.2680135 31.2680135,22 39,22 Z M50.7928932,43.8431458 L47.2573593,47.3786797 L55.0355339,55.1568542 L58.5710678,51.6213203 L50.7928932,43.8431458 Z M39,25 C32.9248678,25 28,29.9248678 28,36 C28,42.0751322 32.9248678,47 39,47 C45.0751322,47 50,42.0751322 50,36 C50,29.9248678 45.0751322,25 39,25 Z" id="Oval" fill="#000000" fill-rule="nonzero"></path>
        <path d="M16,12 L16,15 L13,15 C11.9456382,15 11.0818349,15.8158778 11.0054857,16.8507377 L11,17 L11,53 C11,54.0543618 11.8158778,54.9181651 12.8507377,54.9945143 L13,55 L40,55 C41.0543618,55 41.9181651,54.1841222 41.9945143,53.1492623 L42,53 L42.0003703,50.6998705 C43.0439725,50.4880029 44.0482289,50.167789 45.000887,49.7514814 L45,53 C45,55.7614237 42.7614237,58 40,58 L13,58 C10.2385763,58 8,55.7614237 8,53 L8,17 C8,14.2385763 10.2385763,12 13,12 L16,12 Z M30.0000239,48.0011165 C32.1055278,49.5826153 34.6407473,50.6229412 37.3991719,50.9155834 C37.2777064,50.9702668 37.1423255,51 37,51 L16,51 C15.4477153,51 15,50.5522847 15,50 L15,49 C15,48.4477153 15.4477153,48 16,48 Z M25.2485186,42.000887 C25.7165653,43.0719421 26.3060753,44.0777766 26.9996365,45.0009785 L16,45 C15.4477153,45 15,44.5522847 15,44 L15,43 C15,42.4477153 15.4477153,42 16,42 Z M24,36 C24,37.0275283 24.1033171,38.0309257 24.3001295,39.0003703 L16,39 C15.4477153,39 15,38.5522847 15,38 L15,37 C15,36.4477153 15.4477153,36 16,36 Z M25.2480818,30.0001128 C24.8318545,30.9527768 24.5117193,31.9570316 24.2999273,33.0006257 L16,33 C15.4477153,33 15,32.5522847 15,32 L15,31 C15,30.4477153 15.4477153,30 16,30 Z M29.9980192,24.0003895 C28.8624584,24.8536346 27.8519433,25.8643159 26.9988835,27.0000239 L16,27 C15.4477153,27 15,26.5522847 15,26 L15,25 C15,24.4477153 15.4477153,24 16,24 Z M40,12 C42.7614237,12 45,14.2385763 45,17 L45.000887,22.2485186 C44.0482289,21.832211 43.0439725,21.5119971 42.0003703,21.3001295 L42,17 C42,15.9456382 41.1841222,15.0818349 40.1492623,15.0054857 L40,15 L37,15 L37,12 L40,12 Z" id="Rectangle" fill="#000000" fill-rule="nonzero"></path>
        <path d="M26.5,5 C28.8333333,5 30.3333333,6 31,8 L34,8 C35.6568542,8 37,9.34314575 37,11 L37,16 C37,17.6568542 35.6568542,19 34,19 L19,19 C17.3431458,19 16,17.6568542 16,16 L16,11 C16,9.34314575 17.3431458,8 19,8 L22,8 C22.6666667,6 24.1666667,5 26.5,5 Z M26.5,8 C25.4800063,8 25.1307493,8.1928383 24.8900467,8.82495371 L24.8460499,8.9486833 L24.1622777,11 L20,11 C19.4477153,11 19,11.4477153 19,12 L19,15 C19,15.5522847 19.4477153,16 20,16 L33,16 C33.5522847,16 34,15.5522847 34,15 L34,12 C34,11.4477153 33.5522847,11 33,11 L28.8377223,11 L28.8377223,11 L28.1539501,8.9486833 C27.9102878,8.21769636 27.5837433,8 26.5,8 Z" id="Rectangle" fill="#000000" fill-rule="nonzero"></path>
        <path d="M44.4393398,30.9393398 C45.0251263,30.3535534 45.9748737,30.3535534 46.5606602,30.9393398 C47.109835,31.4885146 47.1441584,32.357577 46.6636304,32.9467378 L46.5606602,33.0606602 L37.5606602,42.0606602 C37.0114854,42.609835 36.142423,42.6441584 35.5532622,42.1636304 L35.4393398,42.0606602 L31.4393398,38.0606602 C30.8535534,37.4748737 30.8535534,36.5251263 31.4393398,35.9393398 C31.9885146,35.390165 32.857577,35.3558416 33.4467378,35.8363696 L33.5606602,35.9393398 L36.5,38.879 L44.4393398,30.9393398 Z" id="Path-2" fill="#000000" fill-rule="nonzero"></path>
    </g>
</svg>