<?xml version="1.0" encoding="UTF-8"?>
<svg width="64px" height="64px" viewBox="0 0 64 64" version="1.1" xmlns="http://www.w3.org/2000/svg" xmlns:xlink="http://www.w3.org/1999/xlink">
    <title>rfid</title>
    <g id="rfid" stroke="none" stroke-width="1" fill="none" fill-rule="evenodd">
        <path d="M58,4 L6,4 C4.8954305,4 4,4.8954305 4,6 L4,58 C4,59.1045695 4.8954305,60 6,60 L47,60 C47.530433,60 48.0391408,59.7892863 48.4142136,59.4142136 L59.4142136,48.4142136 C59.7892863,48.0391408 60,47.530433 60,47 L60,6 C60,4.8954305 59.1045695,4 58,4 Z M56,8 L56,46.17 L46.17,56 L8,56 L8,8 L56,8 Z" id="Rectangle" fill="#000000" fill-rule="nonzero"></path>
        <path d="M48,14 C49.1045695,14 50,14.8954305 50,16 L50,32 C50,33.1045695 49.1045695,34 48,34 L40,34 L40,38 C40,39.0543618 39.1841222,39.9181651 38.1492623,39.9945143 L38,40 L26,40 C24.8954305,40 24,39.1045695 24,38 L24,26 C24,24.8954305 24.8954305,24 26,24 L38,24 C39.1045695,24 40,24.8954305 40,26 L40,30 L46,30 L46,18 L18,18 L18,46 L41.17,46 L47.5857864,39.5857864 C48.3257272,38.8458457 49.5012114,38.8069014 50.2869988,39.4689537 L50.4142136,39.5857864 C51.1952621,40.366835 51.1952621,41.633165 50.4142136,42.4142136 L43.4142136,49.4142136 C43.0391408,49.7892863 42.530433,50 42,50 L16,50 C14.8954305,50 14,49.1045695 14,48 L14,16 C14,14.8954305 14.8954305,14 16,14 L48,14 Z M36,28 L28,28 L28,36 L36,36 L36,28 Z" id="Combined-Shape" fill="#000000" fill-rule="nonzero"></path>
    </g>
</svg>