<?xml version="1.0" encoding="UTF-8"?>
<svg width="64px" height="64px" viewBox="0 0 64 64" version="1.1" xmlns="http://www.w3.org/2000/svg" xmlns:xlink="http://www.w3.org/1999/xlink">
    <title>ride_along</title>
    <g id="ride_along" stroke="none" stroke-width="1" fill="none" fill-rule="evenodd">
        <path d="M39.6000006,23.8 C43.1153327,24.8241211 43.3835456,26.2094725 44.8378913,27.2946775 C46.292237,28.3798826 56.1464837,28.5142579 56.9174805,30.4571289 C57.6884772,32.3999999 58.2571283,36.0256837 57.4373047,36.8728516 C57.0479985,37.2751427 55.2643507,37.6575486 53.4983994,37.9482393 L53.5,38 C53.5,35.5147186 51.4852814,33.5 49,33.5 C46.5147186,33.5 44.5,35.5147186 44.5,38 C44.5,38.1595108 44.5082993,38.3170832 44.5244898,38.4723089 L21.478643,38.4412326 C21.4927704,38.2960649 21.5,38.1488768 21.5,38 C21.5,35.5147186 19.4852814,33.5 17,33.5 C15.139284,33.5 13.5423387,34.6293368 12.8572085,36.239966 C12.7303858,36.2175589 12.6020204,36.1993669 12.4731446,36.1853027 C9.87133837,35.9013672 5.11904298,37.6723632 5.11904298,35.0572266 C5.11904298,32.4420899 6.58349609,33.1118164 6.58349609,33.1118164 L6.58349609,27.8362043 L23.0990116,27.8362043 C23.0990116,27.8362043 23.0990111,23.7612305 24.0117188,23.3271484 C24.9244264,22.8930664 36.0846686,22.7758788 39.6000006,23.8 Z" id="Path-16" fill="#000000" fill-rule="nonzero"></path>
        <circle id="Oval-8" fill="#000000" fill-rule="nonzero" cx="17" cy="38" r="4"></circle>
        <circle id="Oval-9" fill="#000000" fill-rule="nonzero" cx="49" cy="38" r="4"></circle>
    </g>
</svg>