<?xml version="1.0" encoding="UTF-8"?>
<svg width="64px" height="64px" viewBox="0 0 64 64" version="1.1" xmlns="http://www.w3.org/2000/svg" xmlns:xlink="http://www.w3.org/1999/xlink">
    <title>ring_central</title>
    <g id="ring_central" stroke="none" fill="none" transform="translate(0, -0)" fill-rule="nonzero">
        <path d="M47.5,4 C54.4035594,4 60,9.59644063 60,16.5 L60,47.5 C60,54.4035594 54.4035594,60 47.5,60 L16.5,60 C9.59644063,60 4,54.4035594 4,47.5 L4,16.5 C4,9.59644063 9.59644063,4 16.5,4 L47.5,4 Z M16.5,9 C12.3578644,9 9,12.3578644 9,16.5 L9,47.5 C9,51.6421356 12.3578644,55 16.5,55 L47.5,55 C51.6421356,55 55,51.6421356 55,47.5 L55,16.5 C55,12.3578644 51.6421356,9 47.5,9 L16.5,9 Z" id="Rectangle" fill="#000000"></path>
        <path d="M43,16 C45.7614237,16 48,18.2385763 48,21 L48,31.3069995 C48,33.3912223 46.9515186,36.2681805 45,37 L41.5837952,38.5183133 C41.079111,38.7426173 40.851818,39.3335791 41.0761221,39.8382633 C41.0991204,39.8900095 41.1264725,39.9397087 41.1578833,39.986825 L45.9817666,47.2226499 C46.1349428,47.4524142 46.0728559,47.7628489 45.8430916,47.9160251 C45.7609578,47.970781 45.6644539,48 45.5657415,48 L39.0416041,48 C38.7037217,48 38.3886886,47.8293768 38.2040731,47.5463897 L32.1624689,38.2855439 C32.0564502,38.1230335 32,37.9331893 32,37.7391542 L31.9999998,33.2279981 C31.9999998,32.6757134 32.447715,32.2279981 32.9999998,32.2279981 C32.9999998,32.2279981 32.9999999,32.2279981 33,32.2279981 L39,32.228 C39.5522847,32.2280001 40.0000001,31.780285 40.0000002,31.2280002 C40.0000002,31.2280002 40.0000002,31.2280001 40.0000002,31.228 L40,24.5 C40,23.9477153 39.5522847,23.5 39,23.5 L25,23.5 C24.4477153,23.5 24,23.9477153 24,24.5 L24,47 C24,47.5522847 23.5522847,48 23,48 L17,48 C16.4477153,48 16,47.5522847 16,47 L16,21 L16,21 C16,18.2385763 18.2385763,16 21,16 L43,16 Z" id="Path" fill="#000000"></path>
    </g>
</svg>