<?xml version="1.0" encoding="UTF-8"?>
<svg width="64px" height="64px" viewBox="0 0 64 64" version="1.1" xmlns="http://www.w3.org/2000/svg" xmlns:xlink="http://www.w3.org/1999/xlink">
    <title>rodent_exclusion</title>
    <g id="rodent_exclusion" stroke="none" stroke-width="1" fill="none" fill-rule="evenodd">
        <path d="M32,4 C47.463973,4 60,16.536027 60,32 C60,47.463973 47.463973,60 32,60 C16.536027,60 4,47.463973 4,32 C4,16.536027 16.536027,4 32,4 Z M32,6 C17.6405965,6 6,17.6405965 6,32 C6,46.3594035 17.6405965,58 32,58 C46.3594035,58 58,46.3594035 58,32 C58,17.6405965 46.3594035,6 32,6 Z" id="Oval" fill="#000000" fill-rule="nonzero"></path>
        <polygon id="Path-35" fill="#000000" fill-rule="nonzero" points="50.1696961 12.4241294 51.5839097 13.838343 13.7151459 51.7071068 12.3009323 50.2928932"></polygon>
        <g id="mouse" transform="translate(21.426916, 9.000000)" fill="#000000" fill-rule="nonzero">
            <path d="M10.754335,36 C11.2166868,36 11.591497,36.3625893 11.591497,36.809866 C11.591497,38.5554904 11.0640018,39.7200719 10.0240331,40.1518489 C9.1663415,40.5079476 8.1786696,40.2518818 7.39276178,39.6239809 L7.25623413,39.5093639 C4.89160726,37.4330168 2.65662089,37.7823757 1.88409703,39.8072698 C1.12361162,41.8040765 2.64757514,43.380268 4.5931301,43.380268 C6.54584606,43.380268 8.72643263,42.4251135 10.069617,41.2268937 L10.2330765,41.0759017 C11.7303523,39.6425798 14.0000472,39.0477651 16.0037974,39.7369255 L16.5778208,39.9363148 C18.289094,40.5379057 19.0394658,40.8793616 20.2693451,41.6174017 C21.4434727,42.3188307 23.0755249,41.9827263 23.3124672,40.9475724 L23.3319259,40.8380077 C23.3887051,40.3941166 23.806707,40.0787997 24.2655591,40.1337276 C24.7244113,40.1886556 25.0503557,40.5930283 24.9935765,41.0369194 C24.6722668,43.548867 21.510313,44.2624495 19.3881819,42.9946772 L19.0474183,42.7935919 C18.0066121,42.1913585 17.2795163,41.8947439 15.4429222,41.2630744 C14.0747081,40.7924973 12.470282,41.2129662 11.4107683,42.2272244 C9.7908693,43.7779319 7.10086332,45 4.5931301,45 C1.58948968,45 -0.898054898,42.4272045 0.313176161,39.2468752 C1.5225403,36.0769604 5.18625348,35.5042719 8.38273225,38.311059 C8.75066592,38.6353785 9.1493896,38.7523838 9.3636986,38.6634064 C9.6630414,38.5391244 9.917173,37.9780634 9.917173,36.809866 C9.917173,36.3625893 10.2919832,36 10.754335,36 Z" id="Shape"></path>
            <path d="M7.20976687,0.0740886322 C7.3945628,-0.0536626708 7.63067984,-0.0111882138 7.77124529,0.162904642 L7.81919149,0.234283672 L8.93366443,2.24525939 C9.06234493,2.47745288 8.99812855,2.78219115 8.79023313,2.92591137 C8.60543719,3.05366267 8.36932016,3.01118821 8.22875471,2.83709536 L8.18080851,2.76571633 L7.06633557,0.754740612 C6.93765507,0.522547122 7.00187145,0.217808842 7.20976687,0.0740886322 Z" id="Shape"></path>
            <path d="M6.11254853,1.62066892 C6.26188729,1.49186919 6.51162643,1.46430719 6.7029288,1.54701049 L6.77161774,1.58321054 L8.83678619,2.89206122 C9.03277395,3.01627323 9.05545757,3.23443138 8.88745147,3.37933108 C8.73811271,3.50813081 8.48837357,3.5356928 8.2970712,3.45298951 L8.22838226,3.41678946 L6.16321381,2.10793877 C5.96722604,1.98372676 5.94454242,1.76556862 6.11254853,1.62066892 Z" id="Shape"></path>
            <path d="M6.05061544,3.15788341 C6.15054305,3.02923746 6.36975357,2.9712877 6.56646803,3.01377584 L6.63890453,3.034475 L7.76819906,3.44142327 C7.9806836,3.51799338 8.06180311,3.69738989 7.94938455,3.84211659 C7.84945695,3.97076254 7.63024643,4.0287123 7.43353197,3.98622416 L7.36109546,3.96552499 L6.23180093,3.55857673 C6.01931639,3.48200661 5.93819689,3.3026101 6.05061544,3.15788341 Z" id="Shape"></path>
            <path d="M13.1808085,0.234283672 C13.309489,0.00209017825 13.5823377,-0.0696315838 13.7902331,0.0740886322 C13.9750291,0.201839932 14.0463008,0.456815382 13.9694811,0.674976322 L13.9336644,0.754740612 L12.8191915,2.76571633 C12.690511,2.99790982 12.4176623,3.06963158 12.2097669,2.92591137 C12.0249709,2.79816006 11.9536992,2.54318462 12.0305189,2.32502367 L12.0663356,2.24525939 L13.1808085,0.234283672 Z" id="Shape"></path>
            <path d="M14.2283823,1.58321054 C14.42437,1.45899853 14.7194454,1.47576922 14.8874515,1.62066892 C15.0367902,1.74946865 15.0354606,1.9361516 14.8956729,2.06328465 L14.8367862,2.10793877 L12.7716177,3.41678946 C12.57563,3.54100146 12.2805546,3.52423078 12.1125485,3.37933108 C11.9632098,3.25053134 11.9645394,3.06384839 12.1043271,2.93671535 L12.1632138,2.89206122 L14.2283823,1.58321054 Z" id="Shape"></path>
            <path d="M14.3610955,3.034475 C14.57358,2.95790489 14.836966,3.01315671 14.9493846,3.15788341 C15.0493122,3.28652936 14.9963208,3.44256874 14.8340766,3.52943358 L14.7681991,3.55857673 L13.6389045,3.96552499 C13.42642,4.04209511 13.163034,3.98684328 13.0506154,3.84211659 C12.9506878,3.71347064 13.0036792,3.55743125 13.1659234,3.47056641 L13.2318009,3.44142327 L14.3610955,3.034475 Z" id="Shape"></path>
            <path d="M18.8807801,17.6924139 C19.5574666,19.3708689 19.982367,21.5106868 20,24.2168926 C20,30.7236705 15.7486188,36 10.5,36 C7.93129741,36 5.60145086,34.7362257 3.89191516,32.6829406 L18.8807801,17.6924139 Z M12.2530387,16 C12.6244029,16.4244854 13.0475395,16.7852973 13.5033323,17.0717542 L1.7526035,28.8215311 C1.26803977,27.4069283 1,25.8506989 1,24.2168926 C1,21.0156413 1.59834254,18.6173097 2.50110497,16.8237747 C2.59558011,16.92805 2.71104972,17.0323253 2.82651933,17.1261731 C3.42486188,17.6058394 4.15966851,17.835245 4.93646409,17.835245 C6.22762431,17.835245 7.6237569,17.1887382 8.66298342,16.0104275 C9.2298343,16.1147028 9.8176796,16.177268 10.4265193,16.177268 C11.0353591,16.177268 11.6546961,16.1147028 12.2530387,16 Z" id="Shape-3"></path>
            <path d="M11.1286397,0.825000002 L11.5730841,0.491666662 C11.161973,0.200000002 10.8064174,0.0166666622 10.5730841,-2.22044605e-16 C10.3397508,0.0250000022 9.9841952,0.200000002 9.5730841,0.491666662 L10.0175285,0.825000002 C10.3064174,1.05833333 10.8175285,1.05833333 11.1286397,0.825000002 L11.1286397,0.825000002 Z" id="Shape"></path>
            <path d="M11.9171165,1 C13.5242679,2.65737121 15.7612488,6.12749218 16.195614,9.28685603 C15.7938262,9.13147753 15.3811792,9.01753323 14.9685322,8.96574038 C14.7622087,8.93466467 14.5776035,9.07968463 14.5450261,9.27649753 C14.5124487,9.47331033 14.6644766,9.64940603 14.8708001,9.68048173 C15.3377427,9.74263313 15.8155444,9.88765313 16.2607688,10.1155416 L16.0298588,10.0050137 C16.7216337,10.2844525 17.3830357,10.7536215 17.9222157,11.4000043 C18.1212275,11.6373021 18.2926088,11.8849828 18.4364178,12.1384723 L14.1454731,16.4291449 C13.6574622,16.1502463 13.1991832,15.7728556 12.8075652,15.3051852 C12.5035096,14.9426353 12.2646087,14.5593682 12.0908626,14.1657425 L12.101,14.149 L12.0691444,14.082874 C11.9931305,13.9197265 11.8173483,13.827956 11.6436446,13.8630781 L11.5696244,13.8860611 C11.37416,13.9689297 11.2764278,14.1761011 11.3633009,14.3625554 C11.4718922,14.5904439 11.5913426,14.8183324 11.7216522,15.0358624 L11.7216522,15.0358624 L9.3109252,15.0358624 C9.4520939,14.8183324 9.5715443,14.5904439 9.6692765,14.3625554 C9.7452904,14.1761011 9.6584174,13.9689297 9.462953,13.8860611 C9.2674887,13.8135511 9.05030607,13.8964197 8.96343302,14.082874 C8.82226432,14.4039896 8.6376591,14.7147467 8.42047649,15.0047867 L8.55555671,14.8160672 C8.44709986,14.9825217 8.32605921,15.1458541 8.19243475,15.3051852 C6.76988865,17.0039907 4.46775296,17.5115607 3.05606599,16.4342694 C1.64437901,15.3569781 1.64437901,13.1091684 3.07778425,11.4000043 C3.66206252,10.6995566 4.38986361,10.2072076 5.14430975,9.93888443 C5.46970015,9.80975803 5.80487961,9.72044783 6.14005907,9.68048173 C6.34638255,9.65976453 6.49841038,9.47331033 6.46583299,9.27649753 C6.44411473,9.07968463 6.24865038,8.93466467 6.0423269,8.96574038 C5.67311646,9.01753323 5.29304689,9.11076033 4.93469558,9.24542173 C5.39077906,6.09641647 7.6060417,2.64701264 9.2023339,1 L9.2023339,1 L9.62584,1.40398423 C9.8864591,1.65258991 10.2230922,1.77689275 10.5597252,1.77689275 C10.8963583,1.77689275 11.2329913,1.65258991 11.4936104,1.40398423 L11.4936104,1.40398423 L11.9171165,1 Z M8.08384344,5.35059943 C7.6060417,5.35059943 7.215113,5.72350795 7.215113,6.17928503 C7.215113,6.63506212 7.6060417,7.00797064 8.08384344,7.00797064 C8.56164519,7.00797064 8.95257389,6.63506212 8.95257389,6.17928503 C8.95257389,5.72350795 8.56164519,5.35059943 8.08384344,5.35059943 Z M13.0138887,5.35059943 C12.536087,5.35059943 12.1451583,5.72350795 12.1451583,6.17928503 C12.1451583,6.63506212 12.536087,7.00797064 13.0138887,7.00797064 C13.4916905,7.00797064 13.8826192,6.63506212 13.8826192,6.17928503 C13.8826192,5.72350795 13.4916905,5.35059943 13.0138887,5.35059943 Z" id="Shape"></path>
        </g>
    </g>
</svg>