<?xml version="1.0" encoding="UTF-8"?>
<svg width="32px" height="32px" viewBox="0 0 32 32" version="1.1" xmlns="http://www.w3.org/2000/svg" xmlns:xlink="http://www.w3.org/1999/xlink">
    <title>role-tech</title>
    <g id="role-tech" stroke="none" stroke-width="1" fill="none" fill-rule="evenodd">
        <path d="M15,15 C17.209139,15 19,13.209139 19,11 L21,11 L21,11 C21,12.911371 20.1062531,14.6139963 18.713873,15.7127622 C22.355814,17.2799036 24.4548896,21.4170809 24.9965458,27.9169545 C25.0451307,28.4999738 24.5850401,29 24,29 L24,29 L6,29 C5.41495985,29 4.9548693,28.4999738 5.00345424,27.9169545 C5.54516003,21.416485 7.64457086,17.2791451 11.2868864,15.7115003 C9.89390886,14.6143049 9,12.9115442 9,11 L11,11 L11,11 C11,13.209139 12.790861,15 15,15 Z M15,17 C10.5301848,17 7.91030487,20.1795019 7.11262495,26.9256046 L7.11262495,26.9256046 L7.104,27 L22.895,27 L22.8411846,26.554488 C22.00805,20.185317 19.4847172,17.1167993 15.24642,17.0032736 L15.24642,17.0032736 Z" id="Combined-Shape" fill="#000000" fill-rule="nonzero"></path>
        <path d="M9,11 C8.33013748,11 7.84969014,10.354264 8.04217371,9.71265211 C9.16316778,5.97600522 11.534374,4 15,4 C18.2380582,4 20.5207063,5.72501952 21.7208707,8.99939525 L26,9 C26.5522847,9 27,9.44771525 27,10 C27,10.5522847 26.5522847,11 26,11 Z M15,6 C12.874396,6 11.3858078,6.95479064 10.438,9 L10.438,9 L19.561,9 C18.6504801,7.03312298 17.2393045,6.0750458 15.2424402,6.00424447 L15.2424402,6.00424447 Z" id="Combined-Shape" fill="#000000" fill-rule="nonzero"></path>
    </g>
</svg>