<?xml version="1.0" encoding="UTF-8"?>
<svg width="32px" height="32px" viewBox="0 0 32 32" version="1.1" xmlns="http://www.w3.org/2000/svg" xmlns:xlink="http://www.w3.org/1999/xlink">
    <title>role-admin</title>
    <g id="role-admin" stroke="none" stroke-width="1" fill="none" fill-rule="evenodd">
        <path d="M12,6 C15.3137085,6 18,8.6862915 18,12 C18,13.911371 17.1062531,15.6139963 15.713873,16.7127622 C19.355814,18.2799036 21.4548896,22.4170809 21.9965458,28.9169545 C22.0451307,29.4999738 21.5850401,30 21,30 L21,30 L3,30 C2.41495985,30 1.9548693,29.4999738 2.00345424,28.9169545 C2.54516003,22.416485 4.64457086,18.2791451 8.28688642,16.7115003 C6.89390886,15.6143049 6,13.9115442 6,12 C6,8.6862915 8.6862915,6 12,6 Z M12,18 C7.53018476,18 4.91030487,21.1795019 4.11262495,27.9256046 L4.11262495,27.9256046 L4.104,28 L19.895,28 L19.8411846,27.554488 C19.00805,21.185317 16.4847172,18.1167993 12.24642,18.0032736 L12.24642,18.0032736 Z M12,8 C9.790861,8 8,9.790861 8,12 C8,14.209139 9.790861,16 12,16 C14.209139,16 16,14.209139 16,12 C16,9.790861 14.209139,8 12,8 Z" id="Combined-Shape" fill="#000000" fill-rule="nonzero"></path>
        <path d="M28,2 C29.1045695,2 30,2.8954305 30,4 L30,14 C30,15.1045695 29.1045695,16 28,16 L23.4773238,16 L24.9284767,19.6286093 C25.1766255,20.2489813 24.7589115,20.9207862 24.1157498,20.9935164 L24,21 L21.1542071,20.9998459 C20.8176463,20.2674642 20.4386322,19.6005598 20.0172288,19.0000013 L22.523,19 L21.323,16 L18.676,16 L18.2482361,17.0687035 C17.9771953,16.8452969 17.6949524,16.6397425 17.4015161,16.4521585 C17.989167,15.7408815 18.4392469,14.9096306 18.7098107,14.0010432 L28,14 L28,4 L12,4 L12,5 L12,5 C11.3045478,5 10.6327829,5.10141736 9.9986882,5.29026923 L10,4 C10,2.8954305 10.8954305,2 12,2 L28,2 Z" id="Combined-Shape" fill="#000000" fill-rule="nonzero"></path>
    </g>
</svg>