<?xml version="1.0" encoding="UTF-8"?>
<svg width="32px" height="32px" viewBox="0 0 32 32" version="1.1" xmlns="http://www.w3.org/2000/svg" xmlns:xlink="http://www.w3.org/1999/xlink">
    <title>role-super</title>
    <g id="role-super" stroke="none" stroke-width="1" fill="none" fill-rule="evenodd">
        <path d="M16,4 C19.3137085,4 22,6.6862915 22,10 C22,11.911371 21.1062531,13.6139963 19.713873,14.7127622 C23.355814,16.2799036 25.4548896,20.4170809 25.9965458,26.9169545 C26.0451307,27.4999738 25.5850401,28 25,28 L25,28 L7,28 C6.41495985,28 5.9548693,27.4999738 6.00345424,26.9169545 C6.54516003,20.416485 8.64457086,16.2791451 12.2868864,14.7115003 C10.8939089,13.6143049 10,11.9115442 10,10 C10,6.6862915 12.6862915,4 16,4 Z M16,16 C11.5301848,16 8.91030487,19.1795019 8.11262495,25.9256046 L8.11262495,25.9256046 L8.104,26 L23.895,26 L23.8411846,25.554488 C23.00805,19.185317 20.4847172,16.1167993 16.24642,16.0032736 L16.24642,16.0032736 Z M19.8985922,10.898918 L19.8,10.96 C19.2,11.32 18.6,11.5 18,11.5 C17,11.5 16.3333333,11.3333333 16,11 C15.6666667,11.3333333 15,11.5 14,11.5 C13.3673333,11.5 12.7346667,11.2998664 12.102,10.8995993 C12.5093055,12.6752011 14.0999411,14 16,14 C17.9000589,14 19.4906945,12.6752011 19.8985922,10.898918 Z M14,9 C13.4477153,9 13,9.33578644 13,9.75 C13,10.1642136 13.4477153,10.5 14,10.5 C14.5522847,10.5 15,10.1642136 15,9.75 C15,9.33578644 14.5522847,9 14,9 Z M18,9 C17.4477153,9 17,9.33578644 17,9.75 C17,10.1642136 17.4477153,10.5 18,10.5 C18.5522847,10.5 19,10.1642136 19,9.75 C19,9.33578644 18.5522847,9 18,9 Z M16,6 C14.519485,6 13.2268344,6.80434324 12.5351985,7.99987956 L19.4648015,7.99987956 C18.7731656,6.80434324 17.480515,6 16,6 Z" id="Combined-Shape" fill="#000000" fill-rule="nonzero"></path>
    </g>
</svg>