<?xml version="1.0" encoding="UTF-8"?>
<svg width="32px" height="32px" viewBox="0 0 32 32" version="1.1" xmlns="http://www.w3.org/2000/svg" xmlns:xlink="http://www.w3.org/1999/xlink">
    <title>role-customer</title>
    <g id="role-customer" stroke="none" stroke-width="1" fill="none" fill-rule="evenodd">
        <path d="M12,6 C15.3137085,6 18,8.6862915 18,12 C18,13.911371 17.1062531,15.6139963 15.713873,16.7127622 C19.355814,18.2799036 21.4548896,22.4170809 21.9965458,28.9169545 C22.0451307,29.4999738 21.5850401,30 21,30 L21,30 L3,30 C2.41495985,30 1.9548693,29.4999738 2.00345424,28.9169545 C2.54516003,22.416485 4.64457086,18.2791451 8.28688642,16.7115003 C6.89390886,15.6143049 6,13.9115442 6,12 C6,8.6862915 8.6862915,6 12,6 Z M12,18 C7.53018476,18 4.91030487,21.1795019 4.11262495,27.9256046 L4.11262495,27.9256046 L4.104,28 L19.895,28 L19.8411846,27.554488 C19.00805,21.185317 16.4847172,18.1167993 12.24642,18.0032736 L12.24642,18.0032736 Z M12,8 C9.790861,8 8,9.790861 8,12 C8,14.209139 9.790861,16 12,16 C14.209139,16 16,14.209139 16,12 C16,9.790861 14.209139,8 12,8 Z" id="Combined-Shape" fill="#000000" fill-rule="nonzero"></path>
        <path d="M19.072136,2.62708116 C19.4081772,1.79097295 20.5918228,1.79097295 20.927864,2.62708116 L20.927864,2.62708116 L23.281,8.483 L29.5785063,8.91214073 C30.4384467,8.97070139 30.8104877,10.0032012 30.2361812,10.5986822 L30.2361812,10.5986822 L30.1519578,10.6770429 L25.309,14.725 L26.8477064,20.8464829 C27.0581459,21.6840143 26.1874615,22.3578712 25.442718,21.9910698 L25.442718,21.9910698 L25.346391,21.9372524 L20,18.582 L19.7867291,18.716 L19.7327965,18.6447355 C19.3233276,18.1156436 18.8789109,17.6425805 18.3994069,17.2265827 L19.4685385,16.555309 C19.7574052,16.3740733 20.1158011,16.353936 20.4201188,16.4948971 L20.4201188,16.4948971 L20.5314615,16.555309 L24.301,18.92 L23.2170691,14.6041008 C23.1339685,14.2733674 23.2255672,13.9262898 23.4536685,13.6804259 L23.4536685,13.6804259 L23.5455304,13.5932009 L26.96,10.738 L22.5197196,10.4360799 C22.1794939,10.412911 21.8777091,10.2185426 21.7143657,9.92562927 L21.7143657,9.92562927 L21.6597968,9.81130939 L20,5.681 L18.5037088,9.40618612 C18.1928092,8.62732963 17.746054,7.91740992 17.1927291,7.30571267 Z" id="Star" fill="#000000" fill-rule="nonzero"></path>
    </g>
</svg>