<?xml version="1.0" encoding="UTF-8"?>
<svg width="32px" height="32px" viewBox="0 0 32 32" version="1.1" xmlns="http://www.w3.org/2000/svg" xmlns:xlink="http://www.w3.org/1999/xlink">
    <title>roster</title>
    <g id="roster" stroke="none" stroke-width="1" fill="none" fill-rule="evenodd">
        <path d="M26,2 C27.1045695,2 28,2.8954305 28,4 L28,28 C28,29.1045695 27.1045695,30 26,30 L6,30 C4.8954305,30 4,29.1045695 4,28 L4,4 C4,2.8954305 4.8954305,2 6,2 L26,2 Z M26,4 L6,4 L6,28 L26,28 L26,4 Z" id="Rectangle" fill="#000000" fill-rule="nonzero"></path>
        <path d="M14.2928932,6.29289322 C14.6834175,5.90236893 15.3165825,5.90236893 15.7071068,6.29289322 C16.0675907,6.65337718 16.0953203,7.22060824 15.7902954,7.61289944 L15.7071068,7.70710678 L11.7071068,11.7071068 C11.3466228,12.0675907 10.7793918,12.0953203 10.3871006,11.7902954 L10.2928932,11.7071068 L8.29289322,9.70710678 C7.90236893,9.31658249 7.90236893,8.68341751 8.29289322,8.29289322 C8.65337718,7.93240926 9.22060824,7.90467972 9.61289944,8.20970461 L9.70710678,8.29289322 L11,9.585 L14.2928932,6.29289322 Z" id="Path-2" fill="#000000" fill-rule="nonzero"></path>
        <path d="M14.2928932,13.2928932 C14.6834175,12.9023689 15.3165825,12.9023689 15.7071068,13.2928932 C16.0675907,13.6533772 16.0953203,14.2206082 15.7902954,14.6128994 L15.7071068,14.7071068 L11.7071068,18.7071068 C11.3466228,19.0675907 10.7793918,19.0953203 10.3871006,18.7902954 L10.2928932,18.7071068 L8.29289322,16.7071068 C7.90236893,16.3165825 7.90236893,15.6834175 8.29289322,15.2928932 C8.65337718,14.9324093 9.22060824,14.9046797 9.61289944,15.2097046 L9.70710678,15.2928932 L11,16.585 L14.2928932,13.2928932 Z" id="Path-2-Copy" fill="#000000" fill-rule="nonzero"></path>
        <path d="M14.2928932,20.2928932 C14.6834175,19.9023689 15.3165825,19.9023689 15.7071068,20.2928932 C16.0675907,20.6533772 16.0953203,21.2206082 15.7902954,21.6128994 L15.7071068,21.7071068 L11.7071068,25.7071068 C11.3466228,26.0675907 10.7793918,26.0953203 10.3871006,25.7902954 L10.2928932,25.7071068 L8.29289322,23.7071068 C7.90236893,23.3165825 7.90236893,22.6834175 8.29289322,22.2928932 C8.65337718,21.9324093 9.22060824,21.9046797 9.61289944,22.2097046 L9.70710678,22.2928932 L11,23.585 L14.2928932,20.2928932 Z" id="Path-2-Copy-2" fill="#000000" fill-rule="nonzero"></path>
        <rect id="Rectangle" fill="#000000" x="18" y="8" width="6" height="2" rx="1"></rect>
        <rect id="Rectangle-Copy" fill="#000000" x="18" y="15" width="6" height="2" rx="1"></rect>
        <rect id="Rectangle-Copy-2" fill="#000000" x="18" y="22" width="6" height="2" rx="1"></rect>
    </g>
</svg>