<?xml version="1.0" encoding="UTF-8"?>
<svg width="64px" height="64px" viewBox="0 0 64 64" version="1.1" xmlns="http://www.w3.org/2000/svg" xmlns:xlink="http://www.w3.org/1999/xlink">
    <title>route_change</title>
    <g id="route_change" stroke="none" stroke-width="1" fill="none" fill-rule="evenodd">
        <g id="Group" transform="translate(4.000000, 15.000000)" fill="#000000">
            <path d="M16,0 C24.836556,0 32,5.99587912 32,15.4532967 C32,19.006993 30.3056749,23.6865544 26.9170248,29.4919807 L26.24,30.6296703 L25.5206612,31.7954773 C24.9035813,32.7786986 24.2424242,33.7912088 23.5371901,34.8330079 L22.6697521,36.0972255 L21.76,37.3895604 L20.8079339,38.7100127 L19.8135537,40.0585823 L18.7768595,41.4352693 L17.6978512,42.8400736 L16.5765289,44.2729952 C16.3861157,44.5141586 16.1939394,44.7564935 16,45 L14.8575207,43.5530197 C14.6706336,43.3141994 14.4855096,43.0765507 14.3021488,42.8400736 L13.2231405,41.4352693 L12.1864463,40.0585823 L11.1920661,38.7100127 C11.0298623,38.4875942 10.8694215,38.2663473 10.7107438,38.0462719 L9.77983471,36.7398783 C9.62820937,36.5244891 9.47834711,36.3102715 9.33024793,36.0972255 L8.46280992,34.8330079 C6.06501377,31.2908909 4.17674931,28.0873536 2.79801653,25.2223958 L2.33256198,24.2252929 C0.777520661,20.7846381 0,17.8606394 0,15.4532967 C0,5.99587912 7.163444,0 16,0 Z M16,4 C12.5785744,4 9.45472032,5.13123854 7.2450002,7.26545483 C5.1983779,9.24214618 4,12.0619183 4,15.4532967 C4,17.4126097 4.71084514,19.7710642 5.96769826,22.5560379 L5.96769826,22.5560379 L6.41237231,23.5086246 L6.66258982,24.0198013 C7.94205315,26.594175 9.64695219,29.4460105 11.7682356,32.5803824 L11.7682356,32.5803824 L12.6215461,33.8240103 L12.8316224,34.1252182 L12.8316224,34.1252182 L13.0441075,34.4280269 L13.9617927,35.7158627 L14.1885656,36.0294501 L14.1885656,36.0294501 L14.4177764,36.3446576 L15.3939109,37.6684826 L15.999,38.472 L16.6060891,37.6684826 L17.5758404,36.3533144 L18.5021928,35.0685253 L19.3850926,33.814335 L20.2317638,32.5803832 L20.7284428,31.8401623 C21.2173083,31.1051464 21.6827258,30.3857406 22.1246289,29.6819015 L22.1246289,29.6819015 L22.8190154,28.5565338 L23.4708833,27.4611186 L23.738731,26.9985466 C26.4679859,22.2484035 28,18.4204043 28,15.4532967 C28,12.0619183 26.8016221,9.24214618 24.7549998,7.26545483 C22.5452797,5.13123854 19.4214256,4 16,4 Z" id="Oval" fill-rule="nonzero"></path>
            <circle id="Oval" cx="16" cy="16" r="6"></circle>
        </g>
        <path d="M36.872355,6.47380402 C37.2081657,6.66969358 37.4796044,6.95920885 37.6534673,7.30693463 L58.5527864,49.1055728 C59.0467649,50.0935298 58.6463162,51.2948759 57.6583592,51.7888544 C57.3806483,51.9277098 57.0744222,52 56.763932,52 L27.256,52 L27.4874598,51.672859 L28.3617528,50.3987784 C28.9166801,49.5790458 29.4426992,48.7802162 29.9414808,47.9998783 L53.528,48 L35.729,12.402 L32.1293766,18.5740724 C31.1593508,17.6537777 30.0690525,16.8594372 28.8818194,16.2030062 L34.1370551,7.19361977 C34.6936157,6.23951594 35.9182512,5.91724346 36.872355,6.47380402 Z" id="Path-117" fill="#000000" fill-rule="nonzero"></path>
    </g>
</svg>