<?xml version="1.0" encoding="UTF-8"?>
<svg width="64px" height="64px" viewBox="0 0 64 64" version="1.1" xmlns="http://www.w3.org/2000/svg" xmlns:xlink="http://www.w3.org/1999/xlink">
    <title>routific</title>
    <g id="routific" stroke="none" fill="none" fill-rule="evenodd">
        <path d="M40.4912874,4.92174253 L54.1983534,8.59453979 C54.8885375,8.77947407 55.4276327,9.31856923 55.612567,10.0087534 L59.2853643,23.7158193 C59.4702985,24.4060035 59.272976,25.1424212 58.7677262,25.647671 L52.0309228,32.3836602 L58.4558033,38.8081731 C58.9610532,39.313423 59.1583757,40.0498407 58.9734414,40.7400248 L55.3006442,54.4470908 C55.1157099,55.1372749 54.5766147,55.6763701 53.8864306,55.8613043 L40.1793646,59.5341016 C39.4891805,59.7190359 38.7527628,59.5217133 38.247513,59.0164635 L31.8229228,52.5916602 L25.3989337,59.0164635 C24.8936838,59.5217133 24.1572661,59.7190359 23.467082,59.5341016 L9.76001601,55.8613043 C9.06983189,55.6763701 8.53073673,55.1372749 8.34580245,54.4470908 L4.67300519,40.7400248 C4.48807091,40.0498407 4.68539343,39.313423 5.19064328,38.8081731 L11.6139228,32.3836602 L4.87872045,25.647671 C4.3734706,25.1424212 4.17614808,24.4060035 4.36108236,23.7158193 L8.03387962,10.0087534 C8.2188139,9.31856923 8.75790906,8.77947407 9.44809318,8.59453979 L23.1551592,4.92174253 C23.8453433,4.73680825 24.581761,4.93413078 25.0870108,5.43938062 L31.8229228,12.1746602 L38.5594358,5.43938062 C39.0646856,4.93413078 39.8011033,4.73680825 40.4912874,4.92174253 Z M39.5509228,34.2566602 L34.9332482,35.4939084 L33.8939228,39.3726602 L35.9508405,47.0503431 C36.1357748,47.7405272 35.9384522,48.4769449 35.4332024,48.9821948 L34.6519228,49.7636602 L40.2594435,55.3715398 L51.7357994,52.2964595 L54.8108796,40.8201036 L49.2029228,35.2126602 L48.7334574,35.6819397 C48.2282076,36.1871896 47.4917899,36.3845121 46.8016058,36.1995778 L39.5509228,34.2566602 Z M23.0750803,9.08430435 L11.5987244,12.1593846 L8.52364418,23.6357405 L14.4429228,29.5556602 L15.224912,28.7739044 C15.7301618,28.2686546 16.4665795,28.071332 17.1567637,28.2562663 L24.0959228,30.1156602 L28.4012756,28.9619357 L29.7519228,23.9176602 L28.007529,17.405501 C27.8225947,16.7153169 28.0199172,15.9788992 28.5251671,15.4736493 L28.9949228,15.0036602 L23.0750803,9.08430435 Z" id="Combined-Shape" fill="#000000"></path>
    </g>
</svg>