<?xml version="1.0" encoding="UTF-8"?>
<svg width="64px" height="64px" viewBox="0 0 64 64" version="1.1" xmlns="http://www.w3.org/2000/svg" xmlns:xlink="http://www.w3.org/1999/xlink">
    <title>route_optimization</title>
    <g id="route_optimization" stroke="none" stroke-width="1" fill="none" fill-rule="evenodd">
        <path d="M50,4 C55.5228475,4 60,8.4771525 60,14 C60,17.3419632 57.2537601,23.6922413 51.7612802,33.0508344 C51.9134437,33.3333749 52,33.6565793 52,34 C52,35.1045695 51.1045695,36 50,36 L49.4892854,36.0009859 L48.4882365,36.0088307 L47.5143117,36.0244112 L46.567451,36.0476138 L45.6475945,36.0783247 L44.7546824,36.1164303 L43.8886548,36.1618169 L43.0494517,36.2143707 L42.2370134,36.2739781 L41.4512799,36.3405253 L40.6921913,36.4138986 L39.9596878,36.4939845 L39.2537094,36.580669 L38.5741964,36.6738386 C38.4631463,36.6899009 38.3531965,36.7062288 38.2443457,36.7228197 L37.6044183,36.8255036 L36.9908065,36.9343883 L36.4034504,37.0493601 L35.8422901,37.1703052 C35.7509431,37.1909542 35.660685,37.2118473 35.5715147,37.2329822 L35.0495359,37.3626742 C34.9647116,37.3847668 34.8809726,37.4070964 34.7983175,37.4296607 L34.3153854,37.5678437 L33.8584096,37.7115453 C31.2683069,38.565679 30,39.6956851 30,41 C30,41.841658 30.4481088,42.4584538 31.709459,43.0562211 L32.0279842,43.1994254 L32.3788597,43.3425312 C32.440097,43.3664091 32.5027291,43.3903092 32.5667792,43.4142448 L32.968283,43.5583887 L33.4049412,43.704015 L33.8778755,43.851756 L34.3882075,44.0022442 L34.9370589,44.1561117 L35.8350138,44.3946326 L37.8767223,44.9147088 L38.4814994,45.0759926 L39.033617,45.2295783 L39.539105,45.3777987 L40.003993,45.5229869 L40.4343108,45.6674757 L40.8360879,45.8135981 L41.2153541,45.963687 C41.2770242,45.989162 41.3380076,46.0148994 41.3984299,46.0409479 L41.7552355,46.2013608 L42.1046044,46.3715726 L42.4525663,46.5539161 C44.6974469,47.769893 46,49.5609036 46,52 C46,56.2062819 42.5574234,58.4103705 36.5763711,59.3580725 L35.9894199,59.4473323 L35.4000037,59.5292425 L34.8041397,59.604053 L34.197845,59.6720137 L33.5771369,59.7333747 L32.9380325,59.7883858 L32.2765491,59.8372969 L31.5887038,59.8803581 L30.8705137,59.9178193 L29.7276199,59.9640577 L28.4940471,59.9991018 L27.1563534,60.0237953 L25.1875628,60.0420769 L24.1148351,60.0455045 L22.8002137,60.0451624 L19.4433082,60.0291308 L15.2502327,60.0022646 L14,60 C12.8954305,60 12,59.1045695 12,58 C12,57.2726107 12.3883109,56.6359163 12.9689445,56.285905 C6.98974762,46.2490244 4,39.4869818 4,36 C4,30.4771525 8.4771525,26 14,26 C19.5228475,26 24,30.4771525 24,36 C24,39.4544182 21.0658319,46.1230136 15.1974957,56.0057863 L22.6006822,56.0445734 L24.5350324,56.0442007 L26.0303052,56.0356324 L26.957225,56.0253157 L27.8325252,56.0110587 L29.0567945,55.9818037 L30.1857635,55.9424454 L30.8916409,55.9102269 L31.8895683,55.8523795 L32.5196647,55.8071473 L33.1259334,55.7563247 L33.7120802,55.6996915 L34.2818106,55.6370277 L34.8388303,55.5681134 L35.5333275,55.4712986 L35.9503779,55.4073596 C40.2103502,54.732364 42,53.5865516 42,52 C42,51.158342 41.5518912,50.5415462 40.290541,49.9437789 L39.9720158,49.8005746 L39.6211403,49.6574688 C39.559903,49.6335909 39.4972709,49.6096908 39.4332208,49.5857552 L39.031717,49.4416113 L38.5950588,49.295985 L38.1221245,49.148244 L37.6117925,48.9977558 L37.0629411,48.8438883 L36.1649862,48.6053674 L34.1232777,48.0852912 L33.5185006,47.9240074 L32.966383,47.7704217 L32.460895,47.6222013 L31.996007,47.4770131 L31.5656892,47.3325243 L31.1639121,47.1864019 L30.7846459,47.036313 C30.7229758,47.010838 30.6619924,46.9851006 30.6015701,46.9590521 L30.2447645,46.7986392 L29.8953956,46.6284274 L29.5474337,46.4460839 C27.3025531,45.230107 26,43.4390964 26,41 C26,36.7872693 29.5669741,34.2172169 36.5246148,32.9550745 L37.2316745,32.8332076 C37.4711242,32.7940302 37.7143347,32.7562937 37.9612996,32.7199857 L38.7134507,32.6153343 C38.8406842,32.5986025 38.9688547,32.5822247 39.0979613,32.5661994 L39.883828,32.4742645 L40.6921229,32.3907143 L41.5228068,32.3154743 C41.6631177,32.3036226 41.8043598,32.2921142 41.9465323,32.2809473 L42.8107262,32.2180332 C42.9566172,32.2082266 43.1034369,32.1987585 43.2511847,32.1896274 L44.1488003,32.1388717 L45.0686482,32.0961287 C45.2238067,32.0896685 45.3798899,32.083539 45.536897,32.0777387 L46.4900198,32.0468752 L47.4652769,32.0238384 L47.6377525,32.0199277 C42.5459175,23.2244095 40,17.2177669 40,14 C40,8.4771525 44.4771525,4 50,4 Z M14,32 C11.790861,32 10,33.790861 10,36 C10,38.209139 11.790861,40 14,40 C16.209139,40 18,38.209139 18,36 C18,33.790861 16.209139,32 14,32 Z M50,10 C47.790861,10 46,11.790861 46,14 C46,16.209139 47.790861,18 50,18 C52.209139,18 54,16.209139 54,14 C54,11.790861 52.209139,10 50,10 Z" id="Combined-Shape" fill="#000000"></path>
    </g>
</svg>