<?xml version="1.0" encoding="UTF-8"?>
<svg width="64px" height="64px" viewBox="0 0 64 64" version="1.1" xmlns="http://www.w3.org/2000/svg" xmlns:xlink="http://www.w3.org/1999/xlink">
    <title>script</title>
    <g id="script" stroke="none" stroke-width="1" fill="none" fill-rule="evenodd">
        <path d="M43.9999975,6 C44.5767252,6 45.1253772,6.24896086 45.5051534,6.68299078 L45.5051534,6.68299078 L59.5051534,22.6829908 C60.1392593,23.4076833 60.1669254,24.4813565 59.5709833,25.2377445 L59.5709833,25.2377445 L33.5709833,58.2377445 C32.77023,59.2540852 31.22977,59.2540852 30.4290167,58.2377445 L30.4290167,58.2377445 L4.42901666,25.2377445 C3.83307463,24.4813565 3.86074065,23.4076833 4.49484661,22.6829908 L4.49484661,22.6829908 L18.4948466,6.68299078 C18.8746228,6.24896086 19.4232748,6 19.9999975,6 L19.9999975,6 Z M41.1139975,26 L22.8849975,26 L32,50.304 L41.1139975,26 Z M18.6139975,26 L10.1209975,26 L26.3279975,46.571 L18.6139975,26 Z M53.8779975,26 L45.3849975,26 L37.6719975,46.569 L53.8779975,26 Z M24.7639975,10 L20.907,10 L10.4069975,22 L18.7639975,22 L24.7639975,10 Z M34.764,10 L29.235,10 L23.2349975,22 L40.7639975,22 L34.764,10 Z M43.092,10 L39.2349975,10 L45.2349975,22 L53.5919975,22 L43.092,10 Z" id="Path-61" fill="#000000" fill-rule="nonzero"></path>
    </g>
</svg>