<?xml version="1.0" encoding="UTF-8"?>
<svg width="64px" height="64px" viewBox="0 0 64 64" version="1.1" xmlns="http://www.w3.org/2000/svg" xmlns:xlink="http://www.w3.org/1999/xlink">
    <title>sales_tax</title>
    <g id="sales_tax" stroke="none" stroke-width="1" fill="none" fill-rule="evenodd">
        <g id="Group" transform="translate(4.000000, 4.000000)" fill="#000000" fill-rule="nonzero">
            <path d="M25,6 C11.1928813,6 0,17.1928813 0,31 C0,44.8071187 11.1928813,56 25,56 C38.8071187,56 50,44.8071187 50,31 L49.9865445,30.7667577 C49.8710143,29.7720804 49.0256717,29 48,29 L27,29 L27,8 C27,6.8954305 26.1045695,6 25,6 Z M23,10.094 L23,31 L23.0134555,31.2332423 C23.1289857,32.2279196 23.9743283,33 25,33 L45.904,33 L45.880748,33.2512106 C44.7575057,43.7906037 35.8374565,52 25,52 C13.4020203,52 4,42.5979797 4,31 C4,20.1625435 12.2093963,11.2424943 22.7487894,10.119252 L23,10.094 Z" id="Oval"></path>
            <path d="M30,0 C28.8954305,0 28,0.8954305 28,2 L28,26 C28,27.1045695 28.8954305,28 30,28 L54,28 C55.1045695,28 56,27.1045695 56,26 C56,10.8954305 45.1045695,0 30,0 Z M32,4.076 L32.4090668,4.10874812 C43.2280299,5.09937229 50.9006277,12.7719701 51.8912519,23.5909332 L51.924,24 L32,24 L32,4.076 Z" id="Path-63"></path>
        </g>
    </g>
</svg>