<?xml version="1.0" encoding="UTF-8"?>
<svg width="64px" height="64px" viewBox="0 0 64 64" version="1.1" xmlns="http://www.w3.org/2000/svg" xmlns:xlink="http://www.w3.org/1999/xlink">
    <title>sales_pipeline</title>
    <g id="sales_pipeline" stroke="none" stroke-width="1" fill="none" fill-rule="evenodd">
        <path d="M23.790362,30.8660942 L27.558,32.748 L27.5930036,32.7907258 C27.8063117,33.0717044 27.9412813,33.4038949 27.984716,33.7531635 L28,34 L28,55.0580014 L28.142197,55.1525319 C28.9647953,55.6503567 30.0752642,55.9385469 31.5097776,55.9912067 L32,56 C33.6744109,56 34.9438049,55.7056706 35.857803,55.1525319 L36,55.0580014 L36,36.965 L37.4307005,37.6793368 L37.6878692,37.778755 C38.3792828,38.019038 39.1124765,38.0611701 39.8091235,37.9173147 C39.8733509,37.904052 39.9372674,37.8892109 40.0008115,37.8728014 L40,56 C40,56.4420285 39.8536671,56.8689689 39.5878349,57.2160598 L39.4142098,57.4142143 C37.6643388,59.1640857 35.1565965,60 32,60 C28.8434035,60 26.3356612,59.1640857 24.5857902,57.4142143 C24.2732297,57.1016537 24.0748074,56.6962911 24.0173489,56.262889 L24,56 L24,34.7720071 L22.04,32.616 L23.790362,30.8660942 Z M32,4 C32.5154658,4 33.0276783,4.00397969 33.5362816,4.0118374 L35.0509085,4.04694291 C35.3014231,4.05469895 35.5509465,4.06339907 35.7994341,4.07303057 L37.2775755,4.14189443 L38.7287242,4.2325013 C38.9682143,4.24938047 39.2064908,4.26714019 39.4435091,4.28576773 L40.8501656,4.40784531 L42.2244917,4.55014082 C42.4507332,4.57550767 42.6755387,4.60169152 42.8988636,4.62867966 L44.2206907,4.80015823 C44.4379155,4.83031268 44.6535708,4.86124599 44.8676121,4.89294546 L46.1321361,5.09223452 C46.546951,5.16166106 46.954954,5.23405056 47.3557893,5.30930136 L48.5364363,5.54353594 C48.7295084,5.58397179 48.9206996,5.62509754 49.1099654,5.66690049 L50.2221,5.92574286 C50.4034864,5.97020376 50.5828585,6.01531643 50.7601718,6.06106817 L51.7989899,6.34314575 C56.8659932,7.790861 60,9.790861 60,12 C60,12.7760677 59.6132298,13.5263253 58.891758,14.2358962 C58.8358133,14.1778502 58.7789403,14.121831 58.7204342,14.0675423 C58.0066084,13.4051734 57.0506488,13 56,13 L56,13 L53.1344983,13.0019878 C53.8350064,12.7296137 54.4420241,12.4508831 54.9453529,12.1730261 L55.242,12 L54.9453529,11.8269739 C54.039929,11.3271449 52.7989744,10.824489 51.2818546,10.3610927 L50.7001054,10.1892415 C45.8676976,8.8085536 39.1769736,8 32,8 C24.8230264,8 18.1323024,8.8085536 13.2998946,10.1892415 C11.5165069,10.6987809 10.073249,11.2646662 9.0546471,11.8269739 L8.756,12 L9.0546471,12.1730261 C9.96007101,12.6728551 11.2010256,13.175511 12.7181454,13.6389073 L13.2998946,13.8107585 C18.1323024,15.1914464 24.8230264,16 32,16 C36.4647498,16 40.7413207,15.6870893 44.499387,15.1181861 C44.1864714,15.711668 44.0037023,16.4322471 44.0109067,17.296417 C44.0607539,17.9720611 44.2779702,18.6013129 44.6216293,19.1423845 L43.5643522,19.2879558 C43.3440329,19.3165398 43.1221885,19.3443322 42.8988636,19.3713203 L41.5415034,19.523496 C41.3124342,19.5472162 41.0819735,19.5701067 40.8501656,19.5921547 L39.4435091,19.7142323 L38.0066574,19.8154819 C37.7647844,19.8305873 37.5217423,19.8447994 37.2775755,19.8581056 L35.7994341,19.9269694 C35.5509465,19.9366009 35.3014231,19.9453011 35.0509085,19.9530571 L33.5362816,19.9881626 L32,20 L30.4637184,19.9881626 L28.9490915,19.9530571 C28.6985769,19.9453011 28.4490535,19.9366009 28.2005659,19.9269694 L26.7224245,19.8581056 L25.2712758,19.7674987 C25.0317857,19.7506195 24.7935092,19.7328598 24.5564909,19.7142323 L23.1498344,19.5921547 L21.7755083,19.4498592 C21.5492668,19.4244923 21.3244613,19.3983085 21.1011364,19.3713203 L19.7793093,19.1998418 C19.5620845,19.1696873 19.3464292,19.138754 19.1323879,19.1070545 L17.8678639,18.9077655 C17.453049,18.8383389 17.045046,18.7659494 16.6442107,18.6906986 L15.4635637,18.4564641 C15.2704916,18.4160282 15.0793004,18.3749025 14.8900346,18.3330995 L14.345,18.206 L19.484,23.859 L16.653,26.691 L6.00297015,14.9770712 C4.75941023,14.0914127 4.05419231,13.1274675 4.0029985,12.1182877 C4.0018508,12.0911053 4.00080672,12.0637846 4.0003196,12.0364608 C4.00009324,12.0240935 4,12.0120498 4,12 L4.00009039,11.9815298 C4.00033402,11.9558283 4.00107006,11.930135 4.00229779,11.9044652 L4,12 C4,9.790861 7.13400675,7.790861 12.2010101,6.34314575 L13.2398282,6.06106817 C13.4171415,6.01531643 13.5965136,5.97020376 13.7779,5.92574286 L14.8900346,5.66690049 C15.0793004,5.62509754 15.2704916,5.58397179 15.4635637,5.54353594 L16.6442107,5.30930136 C17.045046,5.23405056 17.453049,5.16166106 17.8678639,5.09223452 L19.1323879,4.89294546 L20.4356478,4.71204421 C20.6559671,4.68346021 20.8778115,4.65566779 21.1011364,4.62867966 L22.4584966,4.47650395 C22.6875658,4.4527838 22.9180265,4.42989335 23.1498344,4.40784531 L24.5564909,4.28576773 L25.9933426,4.18451811 C26.2352156,4.16941273 26.4782577,4.1552006 26.7224245,4.14189443 L28.2005659,4.07303057 C28.4490535,4.06339907 28.6985769,4.05469895 28.9490915,4.04694291 L30.4637184,4.0118374 C30.7180201,4.00790855 30.973224,4.0049492 31.2292858,4.00297206 L32,4 Z" id="Combined-Shape" fill="#000000" fill-rule="nonzero"></path>
        <path d="M56,15 C57.0543618,15 57.9181651,15.8158778 57.9945143,16.8507377 L58,17 L58,25 C58,26.1045695 57.1045695,27 56,27 C54.9456382,27 54.0818349,26.1841222 54.0054857,25.1492623 L54,25 L54,21.828 L40.4142136,35.4142136 C39.8460744,35.9823527 38.9981149,36.1516871 38.2615586,35.8587299 L38.1055728,35.7888544 L23.395,28.433 L8.41421356,43.4142136 C7.6742728,44.1541543 6.49878864,44.1930986 5.71300121,43.5310463 L5.58578644,43.4142136 C4.84584567,42.6742728 4.80690142,41.4987886 5.46895369,40.7130012 L5.58578644,40.5857864 L21.5857864,24.5857864 C22.1539256,24.0176473 23.0018851,23.8483129 23.7384414,24.1412701 L23.8944272,24.2111456 L38.604,31.566 L51.17,19 L48,19 C46.9456382,19 46.0818349,18.1841222 46.0054857,17.1492623 L46,17 C46,15.9456382 46.8158778,15.0818349 47.8507377,15.0054857 L48,15 L56,15 Z" id="Path-38" fill="#000000" fill-rule="nonzero"></path>
    </g>
</svg>