<?xml version="1.0" encoding="UTF-8"?>
<svg width="64px" height="64px" viewBox="0 0 64 64" version="1.1" xmlns="http://www.w3.org/2000/svg" xmlns:xlink="http://www.w3.org/1999/xlink">
    <title>sales_contest</title>
    <g id="sales_contest" stroke="none" stroke-width="1" fill="none" fill-rule="evenodd">
        <polygon id="Star" fill="#000000" points="32 25.3894579 27.8855032 27.663119 28.776434 23.0474001 25.3426044 19.836881 30.0077266 19.257871 32 15 33.9922734 19.257871 38.6573956 19.836881 35.223566 23.0474001 36.1144968 27.663119"></polygon>
        <path d="M46,4 C47.0802479,4 47.9652829,4.85780972 47.9990242,5.9375305 C48.0060005,6.16077456 48.0123936,6.38295999 48.0182028,6.60408563 L48.0182028,6.60408563 L48.0460463,7.91811285 C48.046486,7.94558225 48.0469162,7.97303462 48.0473371,8.00046994 L51.9978386,8 L52.2404116,8.00392537 C55.200855,8.10059685 56.9978386,9.9771297 56.9978386,13 C56.9978386,17.9872435 52.4515916,24.9814696 45.7856772,27.8382901 L45.9380791,27.7722852 C44.150572,33.6518497 41.2217164,37.454219 37.1032136,39.0855589 C37.4939892,41.0931931 39.0229231,42.7753936 41.8944272,44.2111456 C42.5235975,44.5257308 42.9375832,45.1453284 42.9935139,45.8387695 L43,46 L43,50 L43.0625,50 C45.7512547,50 47.9443181,52.1223067 48.0578805,54.7831104 L48.0625,55 L48.0625,57 C48.0625,58.6568542 46.7193542,60 45.0625,60 L45.0625,60 L18.9375,60 C17.2806458,60 15.9375,58.6568542 15.9375,57 L15.9375,57 L15.9375,55 C15.9375,52.2385763 18.1760763,50 20.9375,50 L20.9375,50 L21,50 L21,46 C21,45.2424559 21.4280048,44.5499296 22.1055728,44.2111456 C24.9770769,42.7753936 26.5060108,41.0931931 26.897729,39.0847692 C22.7785169,37.4543114 19.8497598,33.6522805 18.0622247,27.7732844 L18.2121614,27.8382901 C11.546247,24.9814696 7,17.9872435 7,13 C7,9.9771297 8.79698363,8.10059685 11.757427,8.00392537 L12,8 L15.952,8 L15.9539537,7.91811285 L15.9817972,6.60408563 L16.0009758,5.9375305 C16.0347171,4.85780972 16.9197521,4 18,4 L18,4 Z M43.0625,54 L20.9375,54 C20.3852153,54 19.9375,54.4477153 19.9375,55 L19.9375,55 L19.937,56 L44.062,56 L44.0625,55 C44.0625,54.4871642 43.6764598,54.0644928 43.1791211,54.0067277 L43.1791211,54.0067277 L43.0625,54 Z M33.1935799,39.9568548 L32.9929881,39.9702087 C32.6674238,39.9900601 32.3364326,40 32,40 C31.5936503,40 31.1952387,39.9854994 30.8047396,39.9565482 C30.2182013,42.8352165 28.2999132,45.2282514 25.1867806,47.083641 L25,47.192 L25,50 L39,50 L39,47.192 L38.8132194,47.083641 C35.7000034,45.2282017 33.7816959,42.8350883 33.1935799,39.9568548 Z M44.047,8 L19.952,8 L19.9459041,8.4520289 L19.9368618,9.55105529 L19.9368618,9.55105529 L19.9361518,10.0918915 L19.9427793,11.1562395 C19.9466866,11.5071762 19.9523202,11.8542697 19.9596759,12.1975277 L19.9596759,12.1975277 L19.9869054,13.2158037 L20.0244434,14.2111148 L20.0722655,15.1835083 L20.1303473,16.1330318 L20.1986644,17.0597325 C20.22314,17.3648343 20.2493173,17.6661401 20.2771924,17.963658 L20.2771924,17.963658 L20.3659069,18.8448555 L20.4647835,19.7033725 L20.5737978,20.5392563 L20.6929255,21.3525545 L20.822142,22.1433143 C21.0458968,23.4424918 21.3115871,24.647957 21.6187046,25.7606975 L21.6187046,25.7606975 L21.8079423,26.4172228 C23.717584,32.7637945 27.0657691,35.8894927 31.7481106,35.9971203 L31.7481106,35.9971203 L32,36 C37.9138695,36 41.7449897,31.2875647 43.2893266,21.4662984 L43.2893266,21.4662984 L43.4111048,20.6475586 C43.4305415,20.5091819 43.449548,20.3698445 43.4681239,20.2295453 L43.4681239,20.2295453 L43.5744065,19.3762012 L43.6703273,18.4997264 C43.6854492,18.351717 43.7001383,18.2027418 43.7143941,18.0527997 L43.7143941,18.0527997 L43.794725,17.1415371 L43.864631,16.2070215 L43.9240871,15.2492041 L43.9730681,14.2680358 L44.0115489,13.2634678 L44.0395041,12.2354512 C44.0432848,12.0621583 44.0466258,11.8878864 44.0495268,11.7126343 L44.0495268,11.7126343 L44.0616466,10.6493531 L44.063178,9.56250089 L44.0540959,8.4520289 L44.047,8 Z M15.9603624,12.0013845 L11.8650884,12.0009691 C11.1845856,12.0117594 11.0314584,12.120857 11.0048471,12.7291217 L11,13 C11,15.7080391 13.288757,19.7786696 16.8437685,22.4445837 C16.3323917,19.3574269 16.0392878,15.8738919 15.9603624,12.0013845 Z M48.0396376,12.0013845 C47.9607293,15.8730538 47.6677352,19.3559189 47.1565465,22.4419974 C50.7103633,19.7763899 52.9978386,15.7072807 52.9978386,13 L52.9978386,13 L52.9929914,12.7291217 C52.9663802,12.120857 52.813253,12.0117594 52.1327502,12.0009691 L52.1327502,12.0009691 Z" id="Combined-Shape" fill="#000000" fill-rule="nonzero"></path>
    </g>
</svg>