<?xml version="1.0" encoding="UTF-8"?>
<svg width="64px" height="64px" viewBox="0 0 64 64" version="1.1" xmlns="http://www.w3.org/2000/svg" xmlns:xlink="http://www.w3.org/1999/xlink">
    <title>schedule_lock_morning</title>
    <g id="schedule_lock_morning" stroke="none" stroke-width="1" fill="none" fill-rule="evenodd">
        <path d="M32,4 C47.463973,4 60,16.536027 60,32 C60,47.463973 47.463973,60 32,60 C16.536027,60 4,47.463973 4,32 C4,16.536027 16.536027,4 32,4 Z M34.0004908,8.08210526 L34,13 C34,14.0890691 33.1295242,14.9748278 32.0463756,14.9994729 L32.0461255,32 L23.4436636,46.691083 C23.4625394,46.7011983 23.4813205,46.7116473 23.5,46.7224319 C24.4565852,47.2747166 24.7843356,48.4978974 24.2320508,49.4544827 L21.7714751,53.7174824 C24.3032727,54.9119991 27.0776407,55.6768254 30.0005127,55.9178947 L30,51 C30,49.8954305 30.8954305,49 32,49 C33.1045695,49 34,49.8954305 34,51 L34.0004908,55.9178947 C36.9229943,55.6766503 39.6970171,54.9118624 42.2285249,53.7174824 L39.7679492,49.4544827 C39.2156644,48.4978974 39.5434148,47.2747166 40.5,46.7224319 C41.4565852,46.1701471 42.6797661,46.4978974 43.2320508,47.4544827 L45.6918509,51.713838 C48.0389804,50.0806239 50.0806239,48.0389804 51.713838,45.6918509 L47.4544827,43.2320508 C46.4978974,42.6797661 46.1701471,41.4565852 46.7224319,40.5 C47.2747166,39.5434148 48.4978974,39.2156644 49.4544827,39.7679492 L53.7174824,42.2285249 C54.9118624,39.6970171 55.6766503,36.9229943 55.9178947,34.0004908 L51,34 C49.8954305,34 49,33.1045695 49,32 C49,30.8954305 49.8954305,30 51,30 L55.9178947,30.0005127 C55.6768254,27.0776407 54.9119991,24.3032727 53.7174824,21.7714751 L49.4544827,24.2320508 C48.4978974,24.7843356 47.2747166,24.4565852 46.7224319,23.5 C46.1701471,22.5434148 46.4978974,21.3202339 47.4544827,20.7679492 L51.713838,18.3081491 C50.0806239,15.9610196 48.0389804,13.9193761 45.6918509,12.286162 L43.2320508,16.5455173 C42.6797661,17.5021026 41.4565852,17.8298529 40.5,17.2775681 C39.5434148,16.7252834 39.2156644,15.5021026 39.7679492,14.5455173 L42.2285249,10.2825176 C39.6970171,9.0881376 36.9229943,8.32334966 34.0004908,8.08210526 Z" id="clock" fill="#000000" fill-rule="nonzero"></path>
    </g>
</svg>