<?xml version="1.0" encoding="UTF-8"?>
<svg width="64px" height="64px" viewBox="0 0 64 64" version="1.1" xmlns="http://www.w3.org/2000/svg" xmlns:xlink="http://www.w3.org/1999/xlink">
    <title>schedule_lock</title>
    <g id="schedule_lock" stroke="none" stroke-width="1" fill="none" fill-rule="evenodd">
        <path d="M8,20 L8,56 L56,56 L56,20 L8,20 Z M46,4 C47.6568542,4 49,5.34314575 49,7 L49,10 C49,11.6568542 47.6568542,13 46,13 C44.3431458,13 43,11.6568542 43,10 L43,7 C43,5.34314575 44.3431458,4 46,4 Z M18,4 C19.6568542,4 21,5.34314575 21,7 L21,10 C21,11.6568542 19.6568542,13 18,13 C16.3431458,13 15,11.6568542 15,10 L15,7 C15,5.34314575 16.3431458,4 18,4 Z M60,60 L4,60 L4,10 L14,10 L14.0003512,10.0230014 C14.0079012,10.3476543 14.1777778,14 18,14 C22,14 22,10 22,10 L42,10 L42.0003512,10.0230014 C42.0079012,10.3476543 42.1777778,14 46,14 C50,14 50,10 50,10 L60,10 L60,60 Z" id="Combined-Shape" fill="#000000" fill-rule="nonzero"></path>
        <g id="Group" transform="translate(20.000000, 22.000000)" fill="#000000" fill-rule="nonzero">
            <path d="M12,0 C16.8792271,0 19.5555556,3.10198981 19.5555556,8.4391486 L19.5565356,11.3538009 C20.5658486,11.5181586 21.5420253,11.7181382 22.4850713,11.9538997 C23.3754053,12.1764832 24,12.9764494 24,13.8941847 L24,28.8941847 C24,29.831582 23.348936,30.6432088 22.4338609,30.8465589 C18.9589332,31.618765 15.4801557,32.0052958 12,32.0052958 C8.5198443,32.0052958 5.04106679,31.618765 1.56613908,30.8465589 C0.651063973,30.6432088 0,29.831582 0,28.8941847 L0,13.8941847 C0,12.9764494 0.624594747,12.1764832 1.51492875,11.9538997 C2.45797472,11.7181382 3.43415141,11.5181586 4.4434644,11.3538009 L4.44444444,8.4391486 C4.44444444,3.10198981 7.12077291,0 12,0 Z M12,14.7830736 C9.16217383,14.7830736 6.56471364,15.0086175 4.20772381,15.4567148 L4,15.4970736 L4,27.2600736 L4.82698192,27.4072057 C6.95362761,27.7617364 9.0788369,27.9585554 11.2033421,27.997916 L12,28.0052958 C14.6554258,28.0052958 17.3118087,27.7593167 19.970579,27.2668635 L20,27.2600736 L20,15.4980736 L19.7922762,15.4567148 C17.6317022,15.0459589 15.2690663,14.8222098 12.7044489,14.7877707 Z M12,4 C9.47181968,4 8.44444444,5.19077593 8.44444444,8.4391486 L8.44372699,10.9000135 C9.59255849,10.8219918 10.7779807,10.7830736 12,10.7830736 C13.2220193,10.7830736 14.4074415,10.8219918 15.556273,10.9000135 L15.5555556,8.4391486 C15.5555556,5.19077593 14.5281803,4 12,4 Z" id="Combined-Shape"></path>
        </g>
        <path d="M33.5009713,42.5005469 C34.1076422,42.9566946 34.5,43.6825273 34.5,44.5 C34.5,45.8807119 33.3807119,47 32,47 C30.6192881,47 29.5,45.8807119 29.5,44.5 C29.5,43.7268014 29.8510088,43.0355852 30.4023716,42.5770062 L30.5,42.5 L30.5,40.5 C30.5,39.6715729 31.1715729,39 32,39 C32.8284271,39 33.5,39.6715729 33.5,40.5 Z" id="Combined-Shape" fill="#000000"></path>
    </g>
</svg>