<?xml version="1.0" encoding="UTF-8"?>
<svg width="64px" height="64px" viewBox="0 0 64 64" version="1.1" xmlns="http://www.w3.org/2000/svg" xmlns:xlink="http://www.w3.org/1999/xlink">
    <title>schedule_lock_none</title>
    <g id="schedule_lock_none" stroke="none" stroke-width="1" fill="none" fill-rule="evenodd">
        <path d="M8,20 L8,56 L56,56 L56,20 L8,20 Z M46,4 C47.6568542,4 49,5.34314575 49,7 L49,10 C49,11.6568542 47.6568542,13 46,13 C44.3431458,13 43,11.6568542 43,10 L43,7 C43,5.34314575 44.3431458,4 46,4 Z M18,4 C19.6568542,4 21,5.34314575 21,7 L21,10 C21,11.6568542 19.6568542,13 18,13 C16.3431458,13 15,11.6568542 15,10 L15,7 C15,5.34314575 16.3431458,4 18,4 Z M60,60 L4,60 L4,10 L14,10 L14.0003512,10.0230014 C14.0079012,10.3476543 14.1777778,14 18,14 C22,14 22,10 22,10 L42,10 L42.0003512,10.0230014 C42.0079012,10.3476543 42.1777778,14 46,14 C50,14 50,10 50,10 L60,10 L60,60 Z" id="Combined-Shape" fill="#000000" fill-rule="nonzero"></path>
    </g>
</svg>