<?xml version="1.0" encoding="UTF-8"?>
<svg width="64px" height="64px" viewBox="0 0 64 64" version="1.1" xmlns="http://www.w3.org/2000/svg" xmlns:xlink="http://www.w3.org/1999/xlink">
    <title>schedule_lock_four_hour</title>
    <g id="schedule_lock_four_hour" stroke="none" fill="none" fill-rule="nonzero">
        <path d="M32,4 C47.463973,4 60,16.536027 60,32 C60,47.463973 47.463973,60 32,60 C16.536027,60 4,47.463973 4,32 C4,16.536027 16.536027,4 32,4 Z M36.656,18.32 C35.8357792,18.32 35.1171706,18.612457 34.5627206,19.1832143 C34.0154272,19.7466046 33.736,20.4616096 33.736,21.272 L33.735,30.989 L31.9538745,32 L27.959,29.673 L27.96,22.552 C27.96,21.9263513 27.7969613,21.357489 27.4747083,20.8706273 L27.3464078,20.6919472 L27.1595894,20.4739871 C26.6143219,19.8956731 25.8962587,19.6 25.072,19.6 C24.5791051,19.6 24.1166039,19.7036641 23.6967864,19.9135728 C23.2785473,20.1226923 22.9298481,20.413275 22.6632639,20.7798283 L19.449,24.714 L17.2997774,23.460527 C17.2925391,23.4737331 17.2851362,23.4868916 17.2775681,23.5 C16.7252834,24.4565852 15.5021026,24.7843356 14.5455173,24.2320508 L10.2825176,21.7714751 C9.08800089,24.3032727 8.3231746,27.0776407 8.08210526,30.0005127 L13,30 C13.6199961,30 14.174101,30.2821134 14.5409491,30.7249743 L12.5854188,33.1195255 C12.3595137,33.3905734 12.1855922,33.6854123 12.066966,33.9989031 L8.08210526,34.0004908 C8.32334966,36.9229943 9.0881376,39.6970171 10.2825176,42.2285249 L14.5455173,39.7679492 C15.5021026,39.2156644 16.7252834,39.5434148 17.2775681,40.5 C17.8298529,41.4565852 17.5021026,42.6797661 16.5455173,43.2320508 L12.286162,45.6918509 C13.9193761,48.0389804 15.9610196,50.0806239 18.3081491,51.713838 L20.7679492,47.4544827 C21.3202339,46.4978974 22.5434148,46.1701471 23.5,46.7224319 C24.4565852,47.2747166 24.7843356,48.4978974 24.2320508,49.4544827 L21.7714751,53.7174824 C24.3032727,54.9119991 27.0776407,55.6768254 30.0005127,55.9178947 L30,51 C30,49.8954305 30.8954305,49 32,49 C33.1045695,49 34,49.8954305 34,51 L34.0004908,55.9178947 C36.9229943,55.6766503 39.6970171,54.9118624 42.2285249,53.7174824 L39.7679492,49.4544827 C39.2156644,48.4978974 39.5434148,47.2747166 40.5,46.7224319 C41.4565852,46.1701471 42.6797661,46.4978974 43.2320508,47.4544827 L45.6918509,51.713838 C48.0389804,50.0806239 50.0806239,48.0389804 51.713838,45.6918509 L48.4667587,43.8166774 C48.8530699,43.6730542 49.2012148,43.4456757 49.5012794,43.1367857 C50.0485728,42.5733954 50.328,41.8583904 50.328,41.048 L50.327,40.27 L53.7174824,42.2285249 C54.9118624,39.6970171 55.6766503,36.9229943 55.9178947,34.0004908 L51,34 C50.7638378,34 50.5372359,33.9590677 50.3269018,33.8839105 L50.328,32.856 C50.328,31.9199179 50.259339,31.0353801 50.1212195,30.2026337 C50.3856729,30.0731495 50.684294,30 51,30 L55.9178947,30.0005127 C55.6768254,27.0776407 54.9119991,24.3032727 53.7174824,21.7714751 L49.4544827,24.2320508 C48.5299906,24.7658066 47.3564914,24.4775866 46.7802491,23.5941468 L44.948765,24.6314398 C44.5637229,24.5836136 44.1566605,24.56 43.728,24.56 C42.9069546,24.56 42.1374504,24.6924556 41.4248766,24.9596708 C40.7521561,25.211941 40.134921,25.5430695 39.576,25.9530368 L39.576,21.272 C39.576,20.5629084 39.3620635,19.9268462 38.9419356,19.4014828 L38.7492794,19.1832143 C38.1948294,18.612457 37.4762208,18.32 36.656,18.32 Z" id="clock" fill="#000000"></path>
        <path d="M25.008,43 C24.4746667,43 24.0266667,42.8133333 23.664,42.44 C23.3013333,42.0666667 23.12,41.6026667 23.12,41.048 L23.12,26.008 L23.792,26.168 L17.616,33.816 L17.456,33.4 L28.304,33.4 C28.816,33.4 29.2426667,33.5706667 29.584,33.912 C29.9253333,34.2533333 30.096,34.68 30.096,35.192 C30.096,35.6826667 29.9253333,36.0933333 29.584,36.424 C29.2426667,36.7546667 28.816,36.92 28.304,36.92 L14.8,36.92 C14.352,36.92 13.92,36.7386667 13.504,36.376 C13.088,36.0133333 12.88,35.5653333 12.88,35.032 C12.88,34.5626667 13.04,34.136 13.36,33.752 L23.472,21.368 C23.6426667,21.1333333 23.8666667,20.9466667 24.144,20.808 C24.4213333,20.6693333 24.7306667,20.6 25.072,20.6 C25.6266667,20.6 26.08,20.7866667 26.432,21.16 C26.784,21.5333333 26.96,21.9973333 26.96,22.552 L26.96,41.048 C26.96,41.6026667 26.7733333,42.0666667 26.4,42.44 C26.0266667,42.8133333 25.5626667,43 25.008,43 Z M43.728,25.56 C45.264,25.56 46.432,25.8906667 47.232,26.552 C48.032,27.2133333 48.5813333,28.0933333 48.88,29.192 C49.1786667,30.2906667 49.328,31.512 49.328,32.856 L49.328,41.048 C49.328,41.6026667 49.1466667,42.0666667 48.784,42.44 C48.4213333,42.8133333 47.9626667,43 47.408,43 C46.8533333,43 46.3946667,42.8133333 46.032,42.44 C45.6693333,42.0666667 45.488,41.6026667 45.488,41.048 L45.488,32.856 C45.488,32.152 45.4026667,31.5173333 45.232,30.952 C45.0613333,30.3866667 44.752,29.9333333 44.304,29.592 C43.856,29.2506667 43.216,29.08 42.384,29.08 C41.5733333,29.08 40.88,29.2506667 40.304,29.592 C39.728,29.9333333 39.296,30.3866667 39.008,30.952 C38.72,31.5173333 38.576,32.152 38.576,32.856 L38.576,41.048 C38.576,41.6026667 38.3946667,42.0666667 38.032,42.44 C37.6693333,42.8133333 37.2106667,43 36.656,43 C36.1013333,43 35.6426667,42.8133333 35.28,42.44 C34.9173333,42.0666667 34.736,41.6026667 34.736,41.048 L34.736,21.272 C34.736,20.7173333 34.9173333,20.2533333 35.28,19.88 C35.6426667,19.5066667 36.1013333,19.32 36.656,19.32 C37.2106667,19.32 37.6693333,19.5066667 38.032,19.88 C38.3946667,20.2533333 38.576,20.7173333 38.576,21.272 L38.576,29.208 L38.096,29.112 C38.288,28.7493333 38.5546667,28.36 38.896,27.944 C39.2373333,27.528 39.6533333,27.1386667 40.144,26.776 C40.6346667,26.4133333 41.1786667,26.12 41.776,25.896 C42.3733333,25.672 43.024,25.56 43.728,25.56 Z" id="Combined-Shape" fill="#000000"></path>
    </g>
</svg>