<?xml version="1.0" encoding="UTF-8"?>
<svg width="64px" height="64px" viewBox="0 0 64 64" version="1.1" xmlns="http://www.w3.org/2000/svg" xmlns:xlink="http://www.w3.org/1999/xlink">
    <title>schedule_tyoe_every</title>
    <g id="schedule_tyoe_every" stroke="none" stroke-width="1" fill="none" fill-rule="evenodd">
        <path d="M12,20 L12,52 L52,52 L52,20 L12,20 Z M45,6 C46.6568542,6 48,7.34314575 48,9 L48,12 C48,13.6568542 46.6568542,15 45,15 C43.3431458,15 42,13.6568542 42,12 L42,9 C42,7.34314575 43.3431458,6 45,6 Z M19,6 C20.6568542,6 22,7.34314575 22,9 L22,12 C22,13.6568542 20.6568542,15 19,15 C17.3431458,15 16,13.6568542 16,12 L16,9 C16,7.34314575 17.3431458,6 19,6 Z M56,56 L8,56 L8,12 L14.0511362,12 L14.05157,12.0462462 C14.0615309,12.5500178 14.2830189,17 19,17 C23.7169811,17 23.9839801,12.5500178 23.9990932,12.0462462 L23.9999664,12.0052728 C24,12.00178 24,12 24,12 L40,12 L40.0009068,12.0462462 C40.0160199,12.5500178 40.2830189,17 45,17 C49.7169811,17 49.9839801,12.5500178 49.9990932,12.0462462 L49.9999664,12.0052728 C50,12.00178 50,12 50,12 L56,12 L56,56 Z" id="Combined-Shape" fill="#000000" fill-rule="nonzero"></path>
        <path d="M31.8404528,22.606326 L24.6846092,37.5685445 C24.4463229,38.0667795 24.6570529,38.6638479 25.1552879,38.9021342 C25.2899959,38.9665598 25.4374219,39 25.5867434,39 L30.8080779,39 C31.3603626,39 31.8080779,39.4477153 31.8080779,40 C31.8080779,40.0582611 31.8029863,40.1164108 31.7928614,40.1737853 L30.2726294,48.7884332 C30.1766505,49.3323141 30.5397467,49.8510231 31.0836277,49.947002 C31.5258223,50.0250364 31.965812,49.7987568 32.1595472,49.393674 L39.3153908,34.4314555 C39.5536771,33.9332205 39.3429471,33.3361521 38.8447121,33.0978658 C38.7100041,33.0334402 38.5625781,33 38.4132566,33 L33.1919221,33 C32.6396374,33 32.1919221,32.5522847 32.1919221,32 C32.1919221,31.9417389 32.1970137,31.8835892 32.2071386,31.8262147 L33.7273706,23.2115668 C33.8233495,22.6676859 33.4602533,22.1489769 32.9163723,22.052998 C32.4741777,21.9749636 32.034188,22.2012432 31.8404528,22.606326 Z" id="Path-78" fill="#000000"></path>
    </g>
</svg>