<?xml version="1.0" encoding="UTF-8"?>
<svg width="64px" height="64px" viewBox="0 0 64 64" version="1.1" xmlns="http://www.w3.org/2000/svg" xmlns:xlink="http://www.w3.org/1999/xlink">
    <title>schedule_lock_three_hour</title>
    <g id="schedule_lock_three_hour" stroke="none" fill="none" fill-rule="nonzero">
        <path d="M32,4 C47.463973,4 60,16.536027 60,32 C60,47.463973 47.463973,60 32,60 C16.536027,60 4,47.463973 4,32 C4,16.536027 16.536027,4 32,4 Z M48.9680614,15.0269363 L39.623,24.348 L39.624,21.272 C39.624,20.6416963 39.4549638,20.0690949 39.1223309,19.5806522 L38.9899356,19.4014828 L38.7972794,19.1832143 C38.2428294,18.612457 37.5242208,18.32 36.704,18.32 C35.8837792,18.32 35.1651706,18.612457 34.6107206,19.1832143 C34.0634272,19.7466046 33.784,20.4616096 33.784,21.272 L33.783,30.174 L31.9538745,32 L31.2951896,31.3384682 C30.7424019,30.3844281 30.0093514,29.5853336 29.1020938,28.9492105 C28.9333593,28.8309023 28.7600977,28.7216906 28.5824072,28.6215946 L27.735,27.772 L30.5004553,24.7281056 C30.7144091,24.515474 30.914096,24.2667412 31.0807697,23.9997097 L31.199292,23.7962831 C31.4161956,23.3958457 31.528,22.9658288 31.528,22.52 C31.528,21.8234602 31.3347466,21.2002703 30.9483695,20.6845767 L30.7709559,20.4702462 C30.2327491,19.8799549 29.4669902,19.6 28.544,19.6 L19.583,19.6 L15.0269363,15.0319386 C14.0199637,16.0392062 13.1020936,17.135555 12.286162,18.3081491 L16.4724181,20.7244866 C16.1340541,21.1835591 15.96,21.7281424 15.96,22.328 C15.96,23.1009642 16.2328329,23.7830464 16.7648932,24.3151068 L16.6360999,24.177002 C16.0253903,24.5734569 15.2193178,24.6210697 14.5455173,24.2320508 L10.2825176,21.7714751 C9.08800089,24.3032727 8.3231746,27.0776407 8.08210526,30.0005127 L13,30 C14.1045695,30 15,30.8954305 15,32 C15,33.1045695 14.1045695,34 13,34 L8.08210526,34.0004908 C8.32334966,36.9229943 9.0881376,39.6970171 10.2825176,42.2285249 L14.5455173,39.7679492 C15.1751817,39.4044123 15.9203572,39.422179 16.513667,39.7496058 C16.4432876,40.0048321 16.408,40.2673312 16.408,40.536 C16.408,40.9836317 16.5301223,41.4314134 16.7597824,41.8754229 C16.8832364,42.1141008 17.0495665,42.3314951 17.2561771,42.5304751 C17.0906423,42.812623 16.8499182,43.0563049 16.5455173,43.2320508 L12.286162,45.6918509 C13.9193761,48.0389804 15.9610196,50.0806239 18.3081491,51.713838 L20.7679492,47.4544827 C21.3202339,46.4978974 22.5434148,46.1701471 23.5,46.7224319 C24.4565852,47.2747166 24.7843356,48.4978974 24.2320508,49.4544827 L21.7714751,53.7174824 C24.3032727,54.9119991 27.0776407,55.6768254 30.0005127,55.9178947 L30,51 C30,49.8954305 30.8954305,49 32,49 C33.1045695,49 34,49.8954305 34,51 L34.0004908,55.9178947 C36.9229943,55.6766503 39.6970171,54.9118624 42.2285249,53.7174824 L39.7679492,49.4544827 C39.2156644,48.4978974 39.5434148,47.2747166 40.5,46.7224319 C41.4565852,46.1701471 42.6797661,46.4978974 43.2320508,47.4544827 L45.6918509,51.713838 C48.0389804,50.0806239 50.0806239,48.0389804 51.713838,45.6918509 L48.4849103,43.8275806 C48.8831505,43.6846831 49.2415062,43.453611 49.5492794,43.1367857 C50.0965728,42.5733954 50.376,41.8583904 50.376,41.048 L50.375,40.298 L53.7174824,42.2285249 C54.9118624,39.6970171 55.6766503,36.9229943 55.9178947,34.0004908 L51,34 C50.7816895,34 50.5715485,33.965022 50.3748756,33.9003645 L50.376,32.856 C50.376,31.911736 50.3061334,31.0199213 50.1655818,30.1808096 C50.4188805,30.0652534 50.7018199,30 51,30 L55.9178947,30.0005127 C55.6768254,27.0776407 54.9119991,24.3032727 53.7174824,21.7714751 L49.4544827,24.2320508 C48.4978974,24.7843356 47.2747166,24.4565852 46.7224319,23.5 C46.1701471,22.5434148 46.4978974,21.3202339 47.4544827,20.7679492 L51.713838,18.3081491 C50.8965555,17.1336137 49.9769967,16.0355761 48.9680614,15.0269363 Z" id="clock" fill="#000000"></path>
        <path d="M19.264,38.488 C19.456,38.488 19.664,38.52 19.888,38.584 C20.112,38.648 20.3626667,38.776 20.64,38.968 C21.0026667,39.2453333 21.4346667,39.4906667 21.936,39.704 C22.4373333,39.9173333 23.0186667,40.024 23.68,40.024 C24.3413333,40.024 24.9653333,39.8586667 25.552,39.528 C26.1386667,39.1973333 26.624,38.728 27.008,38.12 C27.392,37.512 27.584,36.7813333 27.584,35.928 C27.584,35.1173333 27.4186667,34.4453333 27.088,33.912 C26.7573333,33.3786667 26.32,32.9733333 25.776,32.696 C25.232,32.4186667 24.6506667,32.28 24.032,32.28 C23.5626667,32.28 23.1733333,32.3226667 22.864,32.408 C22.5546667,32.4933333 22.256,32.584 21.968,32.68 C21.68,32.776 21.344,32.824 20.96,32.824 C20.4693333,32.824 20.0906667,32.6533333 19.824,32.312 C19.5573333,31.9706667 19.424,31.5653333 19.424,31.096 C19.424,30.7973333 19.4826667,30.5306667 19.6,30.296 C19.7173333,30.0613333 19.8933333,29.8053333 20.128,29.528 L25.76,23.384 L26.624,24.12 L18.752,24.12 C18.24,24.12 17.8133333,23.9493333 17.472,23.608 C17.1306667,23.2666667 16.96,22.84 16.96,22.328 C16.96,21.8373333 17.1306667,21.4266667 17.472,21.096 C17.8133333,20.7653333 18.24,20.6 18.752,20.6 L28.544,20.6 C29.2053333,20.6 29.7013333,20.7813333 30.032,21.144 C30.3626667,21.5066667 30.528,21.9653333 30.528,22.52 C30.528,22.7973333 30.4586667,23.064 30.32,23.32 C30.1813333,23.576 29.9946667,23.8213333 29.76,24.056 L24.096,30.296 L23.232,29.208 C23.4666667,29.1013333 23.792,29.0053333 24.208,28.92 C24.624,28.8346667 24.9706667,28.792 25.248,28.792 C26.5066667,28.792 27.6,29.1173333 28.528,29.768 C29.456,30.4186667 30.1706667,31.2613333 30.672,32.296 C31.1733333,33.3306667 31.424,34.4453333 31.424,35.64 C31.424,37.2186667 31.072,38.584 30.368,39.736 C29.664,40.888 28.672,41.7733333 27.392,42.392 C26.112,43.0106667 24.6186667,43.32 22.912,43.32 C22.1226667,43.32 21.344,43.224 20.576,43.032 C19.808,42.84 19.1466667,42.584 18.592,42.264 C18.1226667,42.008 17.808,41.7253333 17.648,41.416 C17.488,41.1066667 17.408,40.8133333 17.408,40.536 C17.408,40.0453333 17.584,39.5813333 17.936,39.144 C18.288,38.7066667 18.7306667,38.488 19.264,38.488 Z M43.776,25.56 C45.312,25.56 46.48,25.8906667 47.28,26.552 C48.08,27.2133333 48.6293333,28.0933333 48.928,29.192 C49.2266667,30.2906667 49.376,31.512 49.376,32.856 L49.376,41.048 C49.376,41.6026667 49.1946667,42.0666667 48.832,42.44 C48.4693333,42.8133333 48.0106667,43 47.456,43 C46.9013333,43 46.4426667,42.8133333 46.08,42.44 C45.7173333,42.0666667 45.536,41.6026667 45.536,41.048 L45.536,32.856 C45.536,32.152 45.4506667,31.5173333 45.28,30.952 C45.1093333,30.3866667 44.8,29.9333333 44.352,29.592 C43.904,29.2506667 43.264,29.08 42.432,29.08 C41.6213333,29.08 40.928,29.2506667 40.352,29.592 C39.776,29.9333333 39.344,30.3866667 39.056,30.952 C38.768,31.5173333 38.624,32.152 38.624,32.856 L38.624,41.048 C38.624,41.6026667 38.4426667,42.0666667 38.08,42.44 C37.7173333,42.8133333 37.2586667,43 36.704,43 C36.1493333,43 35.6906667,42.8133333 35.328,42.44 C34.9653333,42.0666667 34.784,41.6026667 34.784,41.048 L34.784,21.272 C34.784,20.7173333 34.9653333,20.2533333 35.328,19.88 C35.6906667,19.5066667 36.1493333,19.32 36.704,19.32 C37.2586667,19.32 37.7173333,19.5066667 38.08,19.88 C38.4426667,20.2533333 38.624,20.7173333 38.624,21.272 L38.624,29.208 L38.144,29.112 C38.336,28.7493333 38.6026667,28.36 38.944,27.944 C39.2853333,27.528 39.7013333,27.1386667 40.192,26.776 C40.6826667,26.4133333 41.2266667,26.12 41.824,25.896 C42.4213333,25.672 43.072,25.56 43.776,25.56 Z" id="Combined-Shape" fill="#000000"></path>
    </g>
</svg>