<?xml version="1.0" encoding="UTF-8"?>
<svg width="64px" height="64px" viewBox="0 0 64 64" version="1.1" xmlns="http://www.w3.org/2000/svg" xmlns:xlink="http://www.w3.org/1999/xlink">
    <title>scheduled</title>
    <g id="scheduled" stroke="none" stroke-width="1" fill="none" fill-rule="evenodd">
        <path d="M50.7279221,28.2720779 C53.7989611,31.343117 55.597928,35.3328504 55.9402901,39.5212025 L59.5494133,39.521504 C59.7833498,39.521504 60.0098827,39.6035202 60.1895977,39.7532827 C60.5812379,40.0796496 60.6602082,40.6420406 60.3919524,41.0603364 L60.3176346,41.1616884 L54.738784,47.8563091 C54.7000648,47.9027721 54.6572102,47.9456267 54.6107471,47.9843459 C54.2191069,48.3107128 53.6516949,48.2869738 53.2886304,47.9476852 L53.2023415,47.8563091 L47.6234909,41.1616884 C47.4737284,40.9819734 47.3917122,40.7554405 47.3917122,40.521504 C47.3917122,40.0086682 47.7777524,39.5859968 48.2750911,39.5282317 L48.3917122,39.521504 L51.9232335,39.5222174 C51.5930852,36.3836678 50.209429,33.4104391 47.8994949,31.1005051 C42.4321549,25.633165 33.5678451,25.633165 28.1005051,31.1005051 C22.633165,36.5678451 22.633165,45.4321549 28.1005051,50.8994949 C33.4939622,56.292952 42.1931993,56.3658366 47.6760018,51.1181486 C47.7998274,50.9970043 47.9980893,50.9980893 48.1205816,51.1205816 L50.501803,53.501803 C50.6079012,53.6079249 50.6230581,53.7705466 50.5472649,53.8928026 L50.4978159,53.9540224 C43.4519326,60.7565335 32.2253226,60.6811667 25.2720779,53.7279221 C18.2426407,46.6984848 18.2426407,35.3015152 25.2720779,28.2720779 C32.3015152,21.2426407 43.6984848,21.2426407 50.7279221,28.2720779 Z" id="Path" fill="#000000" fill-rule="nonzero"></path>
        <path d="M10.0511362,12 L10.05157,12.0462462 C10.0615309,12.5500178 10.2830189,17 15,17 C19.7169811,17 19.9839801,12.5500178 19.9990932,12.0462462 L19.9999664,12.0052728 L36,12 L36.0009068,12.0462462 C36.0160199,12.5500178 36.2830189,17 41,17 C45.7169811,17 45.9839801,12.5500178 45.9990932,12.0462462 L45.9999664,12.0052728 L52,12 L51.9999726,28.1545765 C50.8272351,26.8771126 49.4819256,25.7606199 48.0009916,24.8420458 L48,20 L8,20 L8,52 L22.5068235,52.0008649 C23.5827615,53.5134404 24.874659,54.8617014 26.3375376,56.0006695 L4,56 L4,12 L10.0511362,12 Z M41,6 C42.6568542,6 44,7.34314575 44,9 L44,12 C44,13.6568542 42.6568542,15 41,15 C39.3431458,15 38,13.6568542 38,12 L38,9 C38,7.34314575 39.3431458,6 41,6 Z M15,6 C16.6568542,6 18,7.34314575 18,9 L18,12 C18,13.6568542 16.6568542,15 15,15 C13.3431458,15 12,13.6568542 12,12 L12,9 C12,7.34314575 13.3431458,6 15,6 Z" id="Combined-Shape" fill="#000000" fill-rule="nonzero"></path>
    </g>
</svg>