<?xml version="1.0" encoding="UTF-8"?>
<svg width="64px" height="64px" viewBox="0 0 64 64" version="1.1" xmlns="http://www.w3.org/2000/svg" xmlns:xlink="http://www.w3.org/1999/xlink">
    <title>schedule_lock_two_hour</title>
    <g id="schedule_lock_two_hour" stroke="none" fill="none" fill-rule="nonzero">
        <path d="M32,4 C47.463973,4 60,16.536027 60,32 C60,47.463973 47.463973,60 32,60 C16.536027,60 4,47.463973 4,32 C4,16.536027 16.536027,4 32,4 Z M45.6918509,12.286162 L43.2320508,16.5455173 C42.7118475,17.446536 41.5964269,17.789654 40.6692147,17.3649531 L37.8508887,22.0958355 C37.5433357,21.8036918 37.2087229,21.5377071 36.8475262,21.2983337 L36.4081389,21.0277569 C35.2036933,20.3395022 33.785059,20 32.168,20 C31.0351651,20 29.8703577,20.2790684 28.6780944,20.8275095 C27.7906649,21.2357271 26.9814924,21.746175 26.2527195,22.3577636 L23.3068074,17.3757466 C22.3844203,17.7837075 21.283676,17.4387825 20.7679492,16.5455173 L18.3081491,12.286162 C15.9610196,13.9193761 13.9193761,15.9610196 12.286162,18.3081491 L16.5455173,20.7679492 C17.5021026,21.3202339 17.8298529,22.5434148 17.2775681,23.5 C16.7252834,24.4565852 15.5021026,24.7843356 14.5455173,24.2320508 L10.2825176,21.7714751 C9.08800089,24.3032727 8.3231746,27.0776407 8.08210526,30.0005127 L13,30 C14.1045695,30 15,30.8954305 15,32 C15,33.1045695 14.1045695,34 13,34 L8.08210526,34.0004908 C8.32334966,36.9229943 9.0881376,39.6970171 10.2825176,42.2285249 L14.5455173,39.7679492 C15.5021026,39.2156644 16.7252834,39.5434148 17.2775681,40.5 C17.8298529,41.4565852 17.5021026,42.6797661 16.5455173,43.2320508 L12.286162,45.6918509 C13.9193761,48.0389804 15.9610196,50.0806239 18.3081491,51.713838 L20.7679492,47.4544827 C21.3202339,46.4978974 22.5434148,46.1701471 23.5,46.7224319 C24.4565852,47.2747166 24.7843356,48.4978974 24.2320508,49.4544827 L21.7714751,53.7174824 C24.3032727,54.9119991 27.0776407,55.6768254 30.0005127,55.9178947 L30,51 C30,49.8954305 30.8954305,49 32,49 C33.1045695,49 34,49.8954305 34,51 L34.0004908,55.9178947 C36.9229943,55.6766503 39.6970171,54.9118624 42.2285249,53.7174824 L39.7679492,49.4544827 C39.2156644,48.4978974 39.5434148,47.2747166 40.5,46.7224319 C41.4565852,46.1701471 42.6797661,46.4978974 43.2320508,47.4544827 L45.6918509,51.713838 C48.0389804,50.0806239 50.0806239,48.0389804 51.713838,45.6918509 L47.4544827,43.2320508 C46.4978974,42.6797661 46.1701471,41.4565852 46.7224319,40.5 C47.2747166,39.5434148 48.4978974,39.2156644 49.4544827,39.7679492 L53.7174824,42.2285249 C54.9118624,39.6970171 55.6766503,36.9229943 55.9178947,34.0004908 L51,34 C49.8954305,34 49,33.1045695 49,32 C49,30.8954305 49.8954305,30 51,30 L55.9178947,30.0005127 C55.6768254,27.0776407 54.9119991,24.3032727 53.7174824,21.7714751 L49.4544827,24.2320508 C48.4978974,24.7843356 47.2747166,24.4565852 46.7224319,23.5 C46.1701471,22.5434148 46.4978974,21.3202339 47.4544827,20.7679492 L51.713838,18.3081491 C50.0806239,15.9610196 48.0389804,13.9193761 45.6918509,12.286162 Z M31.944,25.52 C32.3533778,25.52 32.7244832,25.6270496 33.0780011,25.8479983 C33.4549718,26.083605 33.759174,26.3956073 33.9985071,26.7944958 C34.2237018,27.1698203 34.336,27.5890669 34.336,28.072 L34.333,28.002 L31.9538745,32 L29.1993673,27.3378085 C29.6208276,26.7634734 30.0838812,26.3185633 30.6009884,25.9824436 C31.0867573,25.6666938 31.5306001,25.52 31.944,25.52 Z" id="clock" fill="#000000"></path>
        <path d="M37.896,40.2 C38.408,40.2 38.8346667,40.3706667 39.176,40.712 C39.5173333,41.0533333 39.688,41.48 39.688,41.992 C39.688,42.4826667 39.5173333,42.8933333 39.176,43.224 C38.8346667,43.5546667 38.408,43.72 37.896,43.72 L27.016,43.72 C26.4613333,43.72 26.024,43.5493333 25.704,43.208 C25.384,42.8666667 25.224,42.4293333 25.224,41.896 C25.224,41.3626667 25.416,40.8933333 25.8,40.488 L32.776,33.032 C33.544,32.2 34.1626667,31.352 34.632,30.488 C35.1013333,29.624 35.336,28.8186667 35.336,28.072 C35.336,27.4106667 35.176,26.8133333 34.856,26.28 C34.536,25.7466667 34.12,25.32 33.608,25 C33.096,24.68 32.5413333,24.52 31.944,24.52 C31.3253333,24.52 30.696,24.728 30.056,25.144 C29.416,25.56 28.8506667,26.1093333 28.36,26.792 C28.104,27.1333333 27.848,27.3466667 27.592,27.432 C27.336,27.5173333 27.1013333,27.56 26.888,27.56 C26.4186667,27.56 25.9866667,27.384 25.592,27.032 C25.1973333,26.68 25,26.2693333 25,25.8 C25,25.4373333 25.1226667,25.0853333 25.368,24.744 C25.6133333,24.4026667 25.9173333,24.0506667 26.28,23.688 C27.0906667,22.8773333 28.0293333,22.2266667 29.096,21.736 C30.1626667,21.2453333 31.1866667,21 32.168,21 C33.6186667,21 34.8666667,21.2986667 35.912,21.896 C36.9573333,22.4933333 37.768,23.3146667 38.344,24.36 C38.92,25.4053333 39.208,26.5893333 39.208,27.912 C39.208,28.808 39.0426667,29.72 38.712,30.648 C38.3813333,31.576 37.928,32.4773333 37.352,33.352 C36.776,34.2266667 36.1146667,35.0693333 35.368,35.88 L31.048,40.488 L30.696,40.2 L37.896,40.2 Z" id="Path" fill="#000000"></path>
    </g>
</svg>