<?xml version="1.0" encoding="UTF-8"?>
<svg width="64px" height="64px" viewBox="0 0 64 64" version="1.1" xmlns="http://www.w3.org/2000/svg" xmlns:xlink="http://www.w3.org/1999/xlink">
    <title>schedule_lock_two_hour</title>
    <g id="schedule_lock_two_hour" stroke="none" fill="none" fill-rule="nonzero">
        <path d="M32,4 C47.463973,4 60,16.536027 60,32 C60,47.463973 47.463973,60 32,60 C16.536027,60 4,47.463973 4,32 C4,16.536027 16.536027,4 32,4 Z M45.6918509,12.286162 L43.2320508,16.5455173 C42.7118475,17.446536 41.5964269,17.789654 40.6692147,17.3649531 L38.9226627,20.2983983 C38.8167427,19.9733823 38.6548118,19.6726831 38.4379356,19.4014828 L38.2452794,19.1832143 C37.6908294,18.612457 36.9722208,18.32 36.152,18.32 C35.3317792,18.32 34.6131706,18.612457 34.0587206,19.1832143 C33.5114272,19.7466046 33.232,20.4616096 33.232,21.272 L33.231,29.853 L31.9538745,32 L31.067,30.501 L31.1579866,30.2636504 C31.4801388,29.3595458 31.6626912,28.4616797 31.7032956,27.5725255 L31.712,27.192 C31.712,25.7048617 31.383586,24.3547152 30.7238383,23.1573952 C30.0589175,21.9506873 29.116712,20.9960843 27.9121389,20.3077569 C26.904737,19.7320986 25.747495,19.4004171 24.4496369,19.3072998 L23.3068074,17.3757466 C22.3844203,17.7837075 21.283676,17.4387825 20.7679492,16.5455173 L18.3081491,12.286162 C15.9610196,13.9193761 13.9193761,15.9610196 12.286162,18.3081491 L16.5455173,20.7679492 C16.9980847,21.0292391 17.3098997,21.440696 17.4543613,21.9030434 C17.3246533,22.0190982 17.1994435,22.1383429 17.0768932,22.2608932 C16.677671,22.6601155 16.3386052,23.0527179 16.0599846,23.440364 C15.8200751,23.7741512 15.6544775,24.129017 15.5697248,24.4989638 C15.2230984,24.5049716 14.869059,24.4188477 14.5455173,24.2320508 L10.2825176,21.7714751 C9.08800089,24.3032727 8.3231746,27.0776407 8.08210526,30.0005127 L13,30 C14.1045695,30 15,30.8954305 15,32 C15,33.1045695 14.1045695,34 13,34 L8.08210526,34.0004908 C8.32334966,36.9229943 9.0881376,39.6970171 10.2825176,42.2285249 L14.5455173,39.7679492 C15.0594591,39.4712248 15.6503553,39.4285277 16.1728146,39.6009005 C15.8802499,40.0726551 15.728,40.6039858 15.728,41.176 C15.728,41.9547993 15.9779889,42.6381023 16.4784628,43.1719411 C16.4988169,43.1936522 16.5194554,43.2149341 16.540374,43.2357871 L12.286162,45.6918509 C13.9193761,48.0389804 15.9610196,50.0806239 18.3081491,51.713838 L20.7679492,47.4544827 C21.3202339,46.4978974 22.5434148,46.1701471 23.5,46.7224319 C24.4565852,47.2747166 24.7843356,48.4978974 24.2320508,49.4544827 L21.7714751,53.7174824 C24.3032727,54.9119991 27.0776407,55.6768254 30.0005127,55.9178947 L30,51 C30,49.8954305 30.8954305,49 32,49 C33.1045695,49 34,49.8954305 34,51 L34.0004908,55.9178947 C36.9229943,55.6766503 39.6970171,54.9118624 42.2285249,53.7174824 L39.7679492,49.4544827 C39.2156644,48.4978974 39.5434148,47.2747166 40.5,46.7224319 C41.4565852,46.1701471 42.6797661,46.4978974 43.2320508,47.4544827 L45.6918509,51.713838 C48.0389804,50.0806239 50.0806239,48.0389804 51.713838,45.6918509 L48.247174,43.6922823 C48.5213556,43.5533721 48.7727748,43.3678933 48.9972794,43.1367857 C49.5445728,42.5733954 49.824,41.8583904 49.824,41.048 L49.824,39.98 L53.7174824,42.2285249 C54.9118624,39.6970171 55.6766503,36.9229943 55.9178947,34.0004908 L51,34 C50.5604624,34 50.154041,33.8582125 49.823979,33.6178807 L49.824,32.856 C49.824,32.0344643 49.7711146,31.25263 49.6648049,30.5106641 C50.0174867,30.1938149 50.4861094,30 51,30 L55.9178947,30.0005127 C55.6768254,27.0776407 54.9119991,24.3032727 53.7174824,21.7714751 L49.4544827,24.2320508 C48.4978974,24.7843356 47.2747166,24.4565852 46.7224319,23.5 C46.1701471,22.5434148 46.4978974,21.3202339 47.4544827,20.7679492 L51.713838,18.3081491 C50.0806239,15.9610196 48.0389804,13.9193761 45.6918509,12.286162 Z" id="clock" fill="#000000"></path>
        <path d="M29.4,39.48 C29.912,39.48 30.3386667,39.6506667 30.68,39.992 C31.0213333,40.3333333 31.192,40.76 31.192,41.272 C31.192,41.7626667 31.0213333,42.1733333 30.68,42.504 C30.3386667,42.8346667 29.912,43 29.4,43 L18.52,43 C17.9653333,43 17.528,42.8293333 17.208,42.488 C16.888,42.1466667 16.728,41.7093333 16.728,41.176 C16.728,40.6426667 16.92,40.1733333 17.304,39.768 L24.28,32.312 C25.048,31.48 25.6666667,30.632 26.136,29.768 C26.6053333,28.904 26.84,28.0986667 26.84,27.352 C26.84,26.6906667 26.68,26.0933333 26.36,25.56 C26.04,25.0266667 25.624,24.6 25.112,24.28 C24.6,23.96 24.0453333,23.8 23.448,23.8 C22.8293333,23.8 22.2,24.008 21.56,24.424 C20.92,24.84 20.3546667,25.3893333 19.864,26.072 C19.608,26.4133333 19.352,26.6266667 19.096,26.712 C18.84,26.7973333 18.6053333,26.84 18.392,26.84 C17.9226667,26.84 17.4906667,26.664 17.096,26.312 C16.7013333,25.96 16.504,25.5493333 16.504,25.08 C16.504,24.7173333 16.6266667,24.3653333 16.872,24.024 C17.1173333,23.6826667 17.4213333,23.3306667 17.784,22.968 C18.5946667,22.1573333 19.5333333,21.5066667 20.6,21.016 C21.6666667,20.5253333 22.6906667,20.28 23.672,20.28 C25.1226667,20.28 26.3706667,20.5786667 27.416,21.176 C28.4613333,21.7733333 29.272,22.5946667 29.848,23.64 C30.424,24.6853333 30.712,25.8693333 30.712,27.192 C30.712,28.088 30.5466667,29 30.216,29.928 C29.8853333,30.856 29.432,31.7573333 28.856,32.632 C28.28,33.5066667 27.6186667,34.3493333 26.872,35.16 L22.552,39.768 L22.2,39.48 L29.4,39.48 Z M43.224,25.56 C44.76,25.56 45.928,25.8906667 46.728,26.552 C47.528,27.2133333 48.0773333,28.0933333 48.376,29.192 C48.6746667,30.2906667 48.824,31.512 48.824,32.856 L48.824,41.048 C48.824,41.6026667 48.6426667,42.0666667 48.28,42.44 C47.9173333,42.8133333 47.4586667,43 46.904,43 C46.3493333,43 45.8906667,42.8133333 45.528,42.44 C45.1653333,42.0666667 44.984,41.6026667 44.984,41.048 L44.984,32.856 C44.984,32.152 44.8986667,31.5173333 44.728,30.952 C44.5573333,30.3866667 44.248,29.9333333 43.8,29.592 C43.352,29.2506667 42.712,29.08 41.88,29.08 C41.0693333,29.08 40.376,29.2506667 39.8,29.592 C39.224,29.9333333 38.792,30.3866667 38.504,30.952 C38.216,31.5173333 38.072,32.152 38.072,32.856 L38.072,41.048 C38.072,41.6026667 37.8906667,42.0666667 37.528,42.44 C37.1653333,42.8133333 36.7066667,43 36.152,43 C35.5973333,43 35.1386667,42.8133333 34.776,42.44 C34.4133333,42.0666667 34.232,41.6026667 34.232,41.048 L34.232,21.272 C34.232,20.7173333 34.4133333,20.2533333 34.776,19.88 C35.1386667,19.5066667 35.5973333,19.32 36.152,19.32 C36.7066667,19.32 37.1653333,19.5066667 37.528,19.88 C37.8906667,20.2533333 38.072,20.7173333 38.072,21.272 L38.072,29.208 L37.592,29.112 C37.784,28.7493333 38.0506667,28.36 38.392,27.944 C38.7333333,27.528 39.1493333,27.1386667 39.64,26.776 C40.1306667,26.4133333 40.6746667,26.12 41.272,25.896 C41.8693333,25.672 42.52,25.56 43.224,25.56 Z" id="Combined-Shape" fill="#000000"></path>
    </g>
</svg>