<?xml version="1.0" encoding="UTF-8"?>
<svg width="64px" height="64px" viewBox="0 0 64 64" version="1.1" xmlns="http://www.w3.org/2000/svg" xmlns:xlink="http://www.w3.org/1999/xlink">
    <title>schedule_lock_exact</title>
    <g id="schedule_lock_exact" stroke="none" fill="none" fill-rule="nonzero">
        <path d="M32,4 C47.463973,4 60,16.536027 60,32 C60,47.463973 47.463973,60 32,60 C16.536027,60 4,47.463973 4,32 C4,16.536027 16.536027,4 32,4 Z M34.0004908,8.08210526 L34,13 C34,14.1045695 33.1045695,15 32,15 C30.8954305,15 30,14.1045695 30,13 L30.0005127,8.08210526 C27.0776407,8.3231746 24.3032727,9.08800089 21.7714751,10.2825176 L24.2320508,14.5455173 C24.7843356,15.5021026 24.4565852,16.7252834 23.5,17.2775681 C22.5434148,17.8298529 21.3202339,17.5021026 20.7679492,16.5455173 L18.3081491,12.286162 C15.9610196,13.9193761 13.9193761,15.9610196 12.286162,18.3081491 L16.5455173,20.7679492 C17.5021026,21.3202339 17.8298529,22.5434148 17.2775681,23.5 C16.7252834,24.4565852 15.5021026,24.7843356 14.5455173,24.2320508 L10.2825176,21.7714751 C9.08800089,24.3032727 8.3231746,27.0776407 8.08210526,30.0005127 L13,30 C14.1045695,30 15,30.8954305 15,32 C15,33.1045695 14.1045695,34 13,34 L8.08210526,34.0004908 C8.32334966,36.9229943 9.0881376,39.6970171 10.2825176,42.2285249 L14.5455173,39.7679492 C15.5021026,39.2156644 16.7252834,39.5434148 17.2775681,40.5 C17.8298529,41.4565852 17.5021026,42.6797661 16.5455173,43.2320508 L12.286162,45.6918509 C13.9193761,48.0389804 15.9610196,50.0806239 18.3081491,51.713838 L20.7679492,47.4544827 C21.3202339,46.4978974 22.5434148,46.1701471 23.5,46.7224319 C24.4565852,47.2747166 24.7843356,48.4978974 24.2320508,49.4544827 L21.7714751,53.7174824 C24.3032727,54.9119991 27.0776407,55.6768254 30.0005127,55.9178947 L30,51 C30,49.8954305 30.8954305,49 32,49 C33.1045695,49 34,49.8954305 34,51 L34.0004908,55.9178947 C36.9229943,55.6766503 39.6970171,54.9118624 42.2285249,53.7174824 L39.7679492,49.4544827 C39.2156644,48.4978974 39.5434148,47.2747166 40.5,46.7224319 C41.4565852,46.1701471 42.6797661,46.4978974 43.2320508,47.4544827 L45.6918509,51.713838 C48.0389804,50.0806239 50.0806239,48.0389804 51.713838,45.6918509 L47.4544827,43.2320508 C46.4978974,42.6797661 46.1701471,41.4565852 46.7224319,40.5 C47.2747166,39.5434148 48.4978974,39.2156644 49.4544827,39.7679492 L53.7174824,42.2285249 C54.9118624,39.6970171 55.6766503,36.9229943 55.9178947,34.0004908 L51,34 C49.8954305,34 49,33.1045695 49,32 C49,30.8954305 49.8954305,30 51,30 L55.9178947,30.0005127 C55.6768254,27.0776407 54.9119991,24.3032727 53.7174824,21.7714751 L49.4544827,24.2320508 C48.4978974,24.7843356 47.2747166,24.4565852 46.7224319,23.5 C46.1701471,22.5434148 46.4978974,21.3202339 47.4544827,20.7679492 L51.713838,18.3081491 C50.0806239,15.9610196 48.0389804,13.9193761 45.6918509,12.286162 L43.2320508,16.5455173 C42.6797661,17.5021026 41.4565852,17.8298529 40.5,17.2775681 C39.5434148,16.7252834 39.2156644,15.5021026 39.7679492,14.5455173 L42.2285249,10.2825176 C39.6970171,9.0881376 36.9229943,8.32334966 34.0004908,8.08210526 Z" id="clock" fill="#000000"></path>
        <path d="M32,17 C33.1045695,17 34,17.8954305 34,19 L34.0008092,20.1660527 C39.0255324,21.0093958 42.9912445,24.975413 43.8341319,30.0002908 L45,30 C46.1045695,30 47,30.8954305 47,32 C47,33.1045695 46.1045695,34 45,34 L43.8339473,34.0008092 C42.9906657,39.0251658 39.0251658,42.9906657 34.0008092,43.8339473 L34,45 C34,46.1045695 33.1045695,47 32,47 C30.8954305,47 30,46.1045695 30,45 L30.0001873,43.8341145 C24.9753585,42.99119 21.00939,39.0254979 20.1660527,34.0008092 L19,34 C17.8954305,34 17,33.1045695 17,32 C17,30.8954305 17.8954305,30 19,30 L20.1658872,30.0001766 C21.0088713,24.9750208 24.9750299,21.0088651 30.0001873,20.1658855 L30,19 C30,17.8954305 30.8954305,17 32,17 Z M30.000644,24.2518692 C27.1889332,24.9753025 24.9753473,27.1888703 24.2518881,30.0005707 L25,30 C26.1045695,30 27,30.8954305 27,32 C27,33.1045695 26.1045695,34 25,34 L24.2521271,34.0003581 C24.9758348,36.8116172 27.1892428,39.0247771 30.000644,39.7481308 L30,39 C30,37.8954305 30.8954305,37 32,37 C33.1045695,37 34,37.8954305 34,39 L34.0003581,39.7478729 C36.8112832,39.0242512 39.0242512,36.8112832 39.7478729,34.0003581 L39,34 C37.8954305,34 37,33.1045695 37,32 C37,30.8954305 37.8954305,30 39,30 L39.7479598,29.9999798 C39.0244285,27.1888942 36.8113958,24.9757778 34.0003581,24.2521271 L34,25 C34,26.1045695 33.1045695,27 32,27 C30.8954305,27 30,26.1045695 30,25 L30.000644,24.2518692 Z" id="Combined-Shape" fill="#000000"></path>
    </g>
</svg>