<?xml version="1.0" encoding="UTF-8"?>
<svg width="64px" height="64px" viewBox="0 0 64 64" version="1.1" xmlns="http://www.w3.org/2000/svg" xmlns:xlink="http://www.w3.org/1999/xlink">
    <title>schedule_type_none</title>
    <g id="schedule_type_none" stroke="none" stroke-width="1" fill="none" fill-rule="evenodd">
        <path d="M12,20 L12,52 L52,52 L52,20 L12,20 Z M45,6 C46.6568542,6 48,7.34314575 48,9 L48,12 C48,13.6568542 46.6568542,15 45,15 C43.3431458,15 42,13.6568542 42,12 L42,9 C42,7.34314575 43.3431458,6 45,6 Z M19,6 C20.6568542,6 22,7.34314575 22,9 L22,12 C22,13.6568542 20.6568542,15 19,15 C17.3431458,15 16,13.6568542 16,12 L16,9 C16,7.34314575 17.3431458,6 19,6 Z M56,56 L8,56 L8,12 L14.0511362,12 L14.05157,12.0462462 C14.0615309,12.5500178 14.2830189,17 19,17 C23.7169811,17 23.9839801,12.5500178 23.9990932,12.0462462 L23.9999664,12.0052728 C24,12.00178 24,12 24,12 L40,12 L40.0009068,12.0462462 C40.0160199,12.5500178 40.2830189,17 45,17 C49.7169811,17 49.9839801,12.5500178 49.9990932,12.0462462 L49.9999664,12.0052728 C50,12.00178 50,12 50,12 L56,12 L56,56 Z" id="Combined-Shape" fill="#000000" fill-rule="nonzero"></path>
        <g id="Group" transform="translate(32.000000, 36.000000) rotate(45.000000) translate(-32.000000, -36.000000) translate(18.000000, 22.000000)" fill="#000000">
            <rect id="Rectangle" x="12" y="0" width="4" height="28" rx="2"></rect>
            <rect id="Rectangle-Copy" x="0" y="12" width="28" height="4" rx="2"></rect>
        </g>
    </g>
</svg>