<?xml version="1.0" encoding="UTF-8"?>
<svg width="64px" height="64px" viewBox="0 0 64 64" version="1.1" xmlns="http://www.w3.org/2000/svg" xmlns:xlink="http://www.w3.org/1999/xlink">
    <title>scheduling_comment</title>
    <g id="scheduling_comment" stroke="none" stroke-width="1" fill="none" fill-rule="evenodd">
        <path d="M11.0511362,10 L11.05157,10.0462462 C11.0615309,10.5500178 11.2830189,15 16,15 C20.7169811,15 20.9839801,10.5500178 20.9990932,10.0462462 L20.9999664,10.0052728 L37,10 L37.0009068,10.0462462 C37.0160199,10.5500178 37.2830189,15 42,15 C46.7169811,15 46.9839801,10.5500178 46.9990932,10.0462462 L46.9999664,10.0052728 L53,10 L53,28 L49,28 L49,18 L9,18 L9,50 L28.6465623,50.0010569 C29.0243847,50.8884573 29.5562462,51.6590933 30.2143054,52.2910276 C31.064509,53.1074782 32.1308261,53.6990448 33.3706431,54.0016288 L5,54 L5,10 L11.0511362,10 Z M15,40 C16.1045695,40 17,40.8954305 17,42 L17,44 C17,45.1045695 16.1045695,46 15,46 L13,46 C11.8954305,46 11,45.1045695 11,44 L11,42 C11,40.8954305 11.8954305,40 13,40 L15,40 Z M25,40 C26.1045695,40 27,40.8954305 27,42 L27,44 C27,45.1045695 26.1045695,46 25,46 L23,46 C21.8954305,46 21,45.1045695 21,44 L21,42 C21,40.8954305 21.8954305,40 23,40 L25,40 Z M15,30 C16.1045695,30 17,30.8954305 17,32 L17,34 C17,35.1045695 16.1045695,36 15,36 L13,36 C11.8954305,36 11,35.1045695 11,34 L11,32 C11,30.8954305 11.8954305,30 13,30 L15,30 Z M25,30 C26.1045695,30 27,30.8954305 27,32 L27,34 C27,35.1045695 26.1045695,36 25,36 L23,36 C21.8954305,36 21,35.1045695 21,34 L21,32 C21,30.8954305 21.8954305,30 23,30 L25,30 Z M15,20 C16.1045695,20 17,20.8954305 17,22 L17,24 C17,25.1045695 16.1045695,26 15,26 L13,26 C11.8954305,26 11,25.1045695 11,24 L11,22 C11,20.8954305 11.8954305,20 13,20 L15,20 Z M25,20 C26.1045695,20 27,20.8954305 27,22 L27,24 C27,25.1045695 26.1045695,26 25,26 L23,26 C21.8954305,26 21,25.1045695 21,24 L21,22 C21,20.8954305 21.8954305,20 23,20 L25,20 Z M35,20 C36.1045695,20 37,20.8954305 37,22 L37,24 C37,25.1045695 36.1045695,26 35,26 L33,26 C31.8954305,26 31,25.1045695 31,24 L31,22 C31,20.8954305 31.8954305,20 33,20 L35,20 Z M45,20 C46.1045695,20 47,20.8954305 47,22 L47,24 C47,25.1045695 46.1045695,26 45,26 L43,26 C41.8954305,26 41,25.1045695 41,24 L41,22 C41,20.8954305 41.8954305,20 43,20 L45,20 Z M42,4 C43.6568542,4 45,5.34314575 45,7 L45,10 C45,11.6568542 43.6568542,13 42,13 C40.3431458,13 39,11.6568542 39,10 L39,7 C39,5.34314575 40.3431458,4 42,4 Z M16,4 C17.6568542,4 19,5.34314575 19,7 L19,10 C19,11.6568542 17.6568542,13 16,13 C14.3431458,13 13,11.6568542 13,10 L13,7 C13,5.34314575 14.3431458,4 16,4 Z" id="Combined-Shape" fill="#000000" fill-rule="nonzero"></path>
        <path d="M53.6607143,29 C57.3801097,29 60,31.7798188 60,35.3269231 L60,60.0349499 L56.7889227,57.5916318 L51.057,53.23 L35.3392857,53.2307692 C31.7073437,53.2307692 29.226197,50.7934451 29.0111385,47.153849 L29,46.9038462 L29,35.3269231 C29,31.8003571 31.6687061,29 35.3392857,29 L53.6607143,29 Z M53.6607143,33 L35.3392857,33 C33.9220749,33 33,33.9675621 33,35.3269231 L32.9990749,46.8430214 C33.0476149,48.4383431 33.8280481,49.2307692 35.3392857,49.2307692 L52.4065312,49.2307692 L52.9432201,49.6391374 L56,51.965 L56,35.3269231 C56,33.9955897 55.1883546,33.078926 53.8396548,33.0048487 L53.6607143,33 Z" id="Rectangle-204-Copy" fill="#000000" fill-rule="nonzero"></path>
    </g>
</svg>