<?xml version="1.0" encoding="UTF-8"?>
<svg width="64px" height="64px" viewBox="0 0 64 64" version="1.1" xmlns="http://www.w3.org/2000/svg" xmlns:xlink="http://www.w3.org/1999/xlink">
    <title>schedule_lock_afternoon</title>
    <g id="schedule_lock_afternoon" stroke="none" fill="none" fill-rule="nonzero">
        <path d="M32,4 C47.463973,4 60,16.536027 60,32 C60,47.463973 47.463973,60 32,60 C16.536027,60 4,47.463973 4,32 C4,16.536027 16.536027,4 32,4 Z M30.0005127,8.08210526 C27.0776407,8.3231746 24.3032727,9.08800089 21.7714751,10.2825176 L24.2320508,14.5455173 C24.7843356,15.5021026 24.4565852,16.7252834 23.5,17.2775681 C22.5434148,17.8298529 21.3202339,17.5021026 20.7679492,16.5455173 L18.3081491,12.286162 C15.9610196,13.9193761 13.9193761,15.9610196 12.286162,18.3081491 L16.5455173,20.7679492 C17.3866417,21.2535726 17.7415719,22.2579105 17.4395309,23.1436141 C17.0767304,23.2159464 16.7242331,23.3183776 16.3800047,23.4495123 C15.7661008,23.6833804 15.2062959,23.971013 14.7022339,24.312877 C14.6502389,24.2894603 14.5974847,24.2620542 14.5455173,24.2320508 L10.2825176,21.7714751 C9.08800089,24.3032727 8.3231746,27.0776407 8.08210526,30.0005127 L9,30 L9,33.999 L8.08210526,34.0004908 C8.22074333,35.6799919 8.5322847,37.3104564 8.99889824,38.8740374 L9,45.888 C9,46.721115 9.28024723,47.4464608 9.83689322,48.0031068 C10.3913756,48.5575891 11.1057089,48.84 11.92,48.84 C12.7402208,48.84 13.4588294,48.547543 14.0132794,47.9767857 C14.0269063,47.962758 14.0403671,47.9486364 14.0536616,47.9344216 C15.3144147,49.354695 16.7433961,50.6250286 18.3081491,51.713838 L20.7679492,47.4544827 C21.3202339,46.4978974 22.5434148,46.1701471 23.5,46.7224319 C24.4565852,47.2747166 24.7843356,48.4978974 24.2320508,49.4544827 L21.7714751,53.7174824 C24.3032727,54.9119991 27.0776407,55.6768254 30.0005127,55.9178947 L30,51 C30,49.8954305 30.8954305,49 32,49 C33.1045695,49 34,49.8954305 34,51 L34.0004908,55.9178947 C36.9229943,55.6766503 39.6970171,54.9118624 42.2285249,53.7174824 L39.7679492,49.4544827 C39.2156644,48.4978974 39.5434148,47.2747166 40.5,46.7224319 L40.555,46.692 L34.775,36.819 L34.776,31.296 C34.776,30.8243545 34.8558599,30.4050016 35.0136558,30.0298535 L35.0990395,29.8459258 C35.2997666,29.4519058 35.5985516,29.1383661 36.0138024,28.8922915 C36.4270352,28.6474128 36.9446499,28.52 37.584,28.52 C38.2144271,28.52 38.6452356,28.6348823 38.8979568,28.8274317 C39.176279,29.0394867 39.3641042,29.3147478 39.4746723,29.6810046 C39.6156824,30.1481005 39.688,30.6859628 39.688,31.296 L39.688,39.488 C39.688,40.2983904 39.9674272,41.0133954 40.5147206,41.5767857 C41.0691706,42.147543 41.7877792,42.44 42.608,42.44 C43.4282208,42.44 44.1468294,42.147543 44.7012794,41.5767857 C45.2485728,41.0133954 45.528,40.2983904 45.528,39.488 L45.528,31.296 C45.528,30.7457469 45.6366982,30.2666699 45.8510395,29.8459258 C46.0517666,29.4519058 46.3505516,29.1383661 46.7658024,28.8922915 C47.1790352,28.6474128 47.6966499,28.52 48.336,28.52 C48.9664271,28.52 49.3972356,28.6348823 49.6499568,28.8274317 C49.928279,29.0394867 50.1161042,29.3147478 50.2266723,29.6810046 C50.3676824,30.1481005 50.44,30.6859628 50.44,31.296 L50.44,39.488 C50.44,40.2983904 50.7194272,41.0133954 51.2667206,41.5767857 C51.8211706,42.147543 52.5397792,42.44 53.36,42.44 C54.1802208,42.44 54.8988294,42.147543 55.4532794,41.5767857 C56.0005728,41.0133954 56.28,40.2983904 56.28,39.488 L56.28,31.296 C56.28,29.8667733 56.1199393,28.5577053 55.7969797,27.3696754 C55.4454253,26.0764575 54.7844173,25.0175611 53.821147,24.2212577 C52.8198321,23.393504 51.4298744,23 49.68,23 C48.5841951,23 47.5775681,23.2342465 46.6738609,23.7051925 C45.8197954,24.1502689 45.0844665,24.6972078 44.4726063,25.3457796 C44.397313,25.4255906 44.3243613,25.5049338 44.2542359,25.5837348 C44.0126336,25.2014102 43.7323009,24.8502831 43.4157132,24.5295298 C42.3933975,23.4937626 40.8800471,23 38.928,23 C38.1069546,23 37.3374504,23.1324556 36.6248766,23.3996708 C35.9416779,23.6558703 35.3157065,23.9934039 34.7496089,24.4118239 C34.6144707,24.5117086 34.4840049,24.6136947 34.3584243,24.7178754 C34.2471817,24.5266161 34.109744,24.3483985 33.9492794,24.1832143 C33.3948294,23.612457 32.6762208,23.32 31.856,23.32 L31.953,23.322 L31.953,14.998 L31.8507377,14.9945143 C30.8158778,14.9181651 30,14.0543618 30,13 L30.0005127,8.08210526 Z M14.84,41.6257469 C15.2732665,41.8766487 15.7416516,42.094908 16.2438135,42.2814253 C16.5653978,42.4008709 16.8950591,42.4978985 17.2325096,42.5725743 C17.0664687,42.8367642 16.8347343,43.0650713 16.5455173,43.2320508 L14.84,44.216 Z" id="clock" fill="#000000"></path>
        <path d="M18.864,24 C20.3573333,24 21.696,24.3786667 22.88,25.136 C24.064,25.8933333 25.0026667,26.9333333 25.696,28.256 C26.3893333,29.5786667 26.736,31.1146667 26.736,32.864 C26.736,34.6133333 26.3893333,36.1546667 25.696,37.488 C25.0026667,38.8213333 24.0746667,39.8666667 22.912,40.624 C21.7493333,41.3813333 20.4426667,41.76 18.992,41.76 C18.1386667,41.76 17.3386667,41.6213333 16.592,41.344 C15.8453333,41.0666667 15.1893333,40.7146667 14.624,40.288 C14.0586667,39.8613333 13.6213333,39.4293333 13.312,38.992 C13.0026667,38.5546667 12.848,38.1866667 12.848,37.888 L13.84,37.472 L13.84,45.888 C13.84,46.4426667 13.6586667,46.9066667 13.296,47.28 C12.9333333,47.6533333 12.4746667,47.84 11.92,47.84 C11.3653333,47.84 10.9066667,47.6586667 10.544,47.296 C10.1813333,46.9333333 10,46.464 10,45.888 L10,26.272 C10,25.7173333 10.1813333,25.2533333 10.544,24.88 C10.9066667,24.5066667 11.3653333,24.32 11.92,24.32 C12.4746667,24.32 12.9333333,24.5066667 13.296,24.88 C13.6586667,25.2533333 13.84,25.7173333 13.84,26.272 L13.84,27.84 L13.296,27.552 C13.296,27.2746667 13.4453333,26.9386667 13.744,26.544 C14.0426667,26.1493333 14.448,25.7546667 14.96,25.36 C15.472,24.9653333 16.064,24.64 16.736,24.384 C17.408,24.128 18.1173333,24 18.864,24 Z M18.384,27.52 C17.4453333,27.52 16.624,27.7546667 15.92,28.224 C15.216,28.6933333 14.6666667,29.328 14.272,30.128 C13.8773333,30.928 13.68,31.84 13.68,32.864 C13.68,33.8666667 13.8773333,34.7786667 14.272,35.6 C14.6666667,36.4213333 15.216,37.0666667 15.92,37.536 C16.624,38.0053333 17.4453333,38.24 18.384,38.24 C19.3226667,38.24 20.1386667,38.0053333 20.832,37.536 C21.5253333,37.0666667 22.0693333,36.4213333 22.464,35.6 C22.8586667,34.7786667 23.056,33.8666667 23.056,32.864 C23.056,31.84 22.8586667,30.928 22.464,30.128 C22.0693333,29.328 21.5253333,28.6933333 20.832,28.224 C20.1386667,27.7546667 19.3226667,27.52 18.384,27.52 Z M38.928,24 C40.6346667,24 41.8933333,24.4106667 42.704,25.232 C43.5146667,26.0533333 44.048,27.1146667 44.304,28.416 L43.76,28.128 L44.016,27.616 C44.272,27.1253333 44.6666667,26.5973333 45.2,26.032 C45.7333333,25.4666667 46.3786667,24.9866667 47.136,24.592 C47.8933333,24.1973333 48.7413333,24 49.68,24 C51.216,24 52.384,24.3306667 53.184,24.992 C53.984,25.6533333 54.5333333,26.5333333 54.832,27.632 C55.1306667,28.7306667 55.28,29.952 55.28,31.296 L55.28,39.488 C55.28,40.0426667 55.0986667,40.5066667 54.736,40.88 C54.3733333,41.2533333 53.9146667,41.44 53.36,41.44 C52.8053333,41.44 52.3466667,41.2533333 51.984,40.88 C51.6213333,40.5066667 51.44,40.0426667 51.44,39.488 L51.44,31.296 C51.44,30.592 51.3546667,29.9573333 51.184,29.392 C51.0133333,28.8266667 50.704,28.3733333 50.256,28.032 C49.808,27.6906667 49.168,27.52 48.336,27.52 C47.5253333,27.52 46.832,27.6906667 46.256,28.032 C45.68,28.3733333 45.248,28.8266667 44.96,29.392 C44.672,29.9573333 44.528,30.592 44.528,31.296 L44.528,39.488 C44.528,40.0426667 44.3466667,40.5066667 43.984,40.88 C43.6213333,41.2533333 43.1626667,41.44 42.608,41.44 C42.0533333,41.44 41.5946667,41.2533333 41.232,40.88 C40.8693333,40.5066667 40.688,40.0426667 40.688,39.488 L40.688,31.296 C40.688,30.592 40.6026667,29.9573333 40.432,29.392 C40.2613333,28.8266667 39.952,28.3733333 39.504,28.032 C39.056,27.6906667 38.416,27.52 37.584,27.52 C36.7733333,27.52 36.08,27.6906667 35.504,28.032 C34.928,28.3733333 34.496,28.8266667 34.208,29.392 C33.92,29.9573333 33.776,30.592 33.776,31.296 L33.776,39.488 C33.776,40.0426667 33.5946667,40.5066667 33.232,40.88 C32.8693333,41.2533333 32.4106667,41.44 31.856,41.44 C31.3013333,41.44 30.8426667,41.2533333 30.48,40.88 C30.1173333,40.5066667 29.936,40.0426667 29.936,39.488 L29.936,26.272 C29.936,25.7173333 30.1173333,25.2533333 30.48,24.88 C30.8426667,24.5066667 31.3013333,24.32 31.856,24.32 C32.4106667,24.32 32.8693333,24.5066667 33.232,24.88 C33.5946667,25.2533333 33.776,25.7173333 33.776,26.272 L33.776,27.648 L33.296,27.552 C33.488,27.1893333 33.7546667,26.8 34.096,26.384 C34.4373333,25.968 34.8533333,25.5786667 35.344,25.216 C35.8346667,24.8533333 36.3786667,24.56 36.976,24.336 C37.5733333,24.112 38.224,24 38.928,24 Z" id="Combined-Shape" fill="#000000"></path>
    </g>
</svg>