<?xml version="1.0" encoding="UTF-8"?>
<svg width="64px" height="64px" viewBox="0 0 64 64" version="1.1" xmlns="http://www.w3.org/2000/svg" xmlns:xlink="http://www.w3.org/1999/xlink">
    <title>schedule_lock_morning</title>
    <g id="schedule_lock_morning" stroke="none" fill="none" fill-rule="nonzero">
        <path d="M32,4 C47.463973,4 60,16.536027 60,32 C60,47.463973 47.463973,60 32,60 C16.536027,60 4,47.463973 4,32 C4,16.536027 16.536027,4 32,4 Z M34.0004908,8.08210526 L34,13 C34,14.0890691 33.1295242,14.9748278 32.0463756,14.9994729 L32.0462728,23.3278587 C31.9704622,23.3226236 31.8936869,23.32 31.816,23.32 C30.9957792,23.32 30.2771706,23.612457 29.7227206,24.1832143 C29.1754272,24.7466046 28.896,25.4616096 28.896,26.272 L28.895,37.381 L23.4436636,46.691083 C23.4625394,46.7011983 23.4813205,46.7116473 23.5,46.7224319 C24.4565852,47.2747166 24.7843356,48.4978974 24.2320508,49.4544827 L21.7714751,53.7174824 C24.3032727,54.9119991 27.0776407,55.6768254 30.0005127,55.9178947 L30,51 C30,49.8954305 30.8954305,49 32,49 C33.1045695,49 34,49.8954305 34,51 L34.0004908,55.9178947 C36.9229943,55.6766503 39.6970171,54.9118624 42.2285249,53.7174824 L39.7679492,49.4544827 C39.2156644,48.4978974 39.5434148,47.2747166 40.5,46.7224319 C41.4565852,46.1701471 42.6797661,46.4978974 43.2320508,47.4544827 L45.6918509,51.713838 C48.0389804,50.0806239 50.0806239,48.0389804 51.713838,45.6918509 L47.4544827,43.2320508 C46.4978974,42.6797661 46.1701471,41.4565852 46.7224319,40.5 C47.2747166,39.5434148 48.4978974,39.2156644 49.4544827,39.7679492 L50.5261801,40.3871516 C50.6579413,40.8317442 50.8923337,41.2325639 51.2267206,41.5767857 C51.7811706,42.147543 52.4997792,42.44 53.32,42.44 C54.1402208,42.44 54.8588294,42.147543 55.4132794,41.5767857 C55.9605728,41.0133954 56.24,40.2983904 56.24,39.488 L56.24,31.296 C56.24,29.8667733 56.0799393,28.5577053 55.7569797,27.3696754 C55.6319595,26.9097796 55.4678037,26.4795176 55.2648359,26.0801609 C54.8846899,24.5832674 54.364028,23.1418391 53.7174824,21.7714751 L51.3362855,23.144941 C50.8153312,23.0477397 50.2494981,23 49.64,23 C48.5441951,23 47.5375681,23.2342465 46.6338609,23.7051925 L46.7998312,23.6236014 C46.7727651,23.5836536 46.746938,23.5424459 46.7224319,23.5 C46.1701471,22.5434148 46.4978974,21.3202339 47.4544827,20.7679492 L51.713838,18.3081491 C50.0806239,15.9610196 48.0389804,13.9193761 45.6918509,12.286162 L43.2320508,16.5455173 C42.6797661,17.5021026 41.4565852,17.8298529 40.5,17.2775681 C39.5434148,16.7252834 39.2156644,15.5021026 39.7679492,14.5455173 L42.2285249,10.2825176 C39.6970171,9.0881376 36.9229943,8.32334966 34.0004908,8.08210526 Z M23.816,23 C22.9957792,23 22.2771706,23.292457 21.7227206,23.8632143 C21.5844218,24.0055808 21.4632276,24.1576287 21.359593,24.3185842 C20.8356752,23.9876113 20.2525378,23.7068798 19.6116445,23.4754461 C18.7313097,23.1575474 17.773906,23 16.744,23 C15.1234647,23 13.6336738,23.4335047 12.2976992,24.2958156 C10.9755347,25.1492127 9.9247552,26.3260857 9.1527832,27.8106473 C8.38221305,29.2925129 8,30.991891 8,32.896 C8,34.7792039 8.38248008,36.4680006 9.1527832,37.9493527 C9.92626304,39.436814 10.99045,40.6152357 12.3365892,41.4685918 C13.6931124,42.3285306 15.2123709,42.76 16.872,42.76 C17.8027806,42.76 18.6764186,42.6050996 19.4869791,42.2933456 C20.2259841,42.0091129 20.8810458,41.6610274 21.4490943,41.2465828 C21.5290254,41.3627032 21.6212767,41.4723582 21.7227206,41.5767857 C22.2771706,42.147543 22.9957792,42.44 23.816,42.44 C24.6362208,42.44 25.3548294,42.147543 25.9092794,41.5767857 C26.4565728,41.0133954 26.736,40.2983904 26.736,39.488 L26.736,25.952 C26.736,25.2230244 26.5214357,24.5765595 26.0948853,24.0534243 L25.8991068,23.8368932 C25.3446244,23.2824109 24.6302911,23 23.816,23 Z M17.352,28.52 C18.0984061,28.52 18.7263381,28.6994091 19.2612998,29.0560503 C19.8149635,29.4251594 20.2467114,29.9281667 20.5648907,30.5817243 C20.8908438,31.2512495 21.056,32.0190026 21.056,32.896 C21.056,33.7509428 20.8912445,34.5079274 20.5648907,35.1782757 C20.2467114,35.8318333 19.8149635,36.3348406 19.2612998,36.7039497 C18.7263381,37.0605909 18.0984061,37.24 17.352,37.24 C16.6280157,37.24 16.0107542,37.0613191 15.4747002,36.7039497 C14.9210365,36.3348406 14.4892886,35.8318333 14.1711093,35.1782757 C13.8447555,34.5079274 13.68,33.7509428 13.68,32.896 C13.68,32.0190026 13.8451562,31.2512495 14.1711093,30.5817243 C14.4892886,29.9281667 14.9210365,29.4251594 15.4747002,29.0560503 C16.0107542,28.6986809 16.6280157,28.52 17.352,28.52 Z" id="clock" fill="#000000"></path>
        <path d="M23.816,24 C24.3706667,24 24.8293333,24.1813333 25.192,24.544 C25.5546667,24.9066667 25.736,25.376 25.736,25.952 L25.736,39.488 C25.736,40.0426667 25.5546667,40.5066667 25.192,40.88 C24.8293333,41.2533333 24.3706667,41.44 23.816,41.44 C23.2613333,41.44 22.8026667,41.2533333 22.44,40.88 C22.0773333,40.5066667 21.896,40.0426667 21.896,39.488 L21.896,37.92 L22.6,38.208 C22.6,38.4853333 22.4506667,38.8213333 22.152,39.216 C21.8533333,39.6106667 21.448,40 20.936,40.384 C20.424,40.768 19.8213333,41.0933333 19.128,41.36 C18.4346667,41.6266667 17.6826667,41.76 16.872,41.76 C15.4,41.76 14.0666667,41.3813333 12.872,40.624 C11.6773333,39.8666667 10.7333333,38.8213333 10.04,37.488 C9.34666667,36.1546667 9,34.624 9,32.896 C9,31.1466667 9.34666667,29.6053333 10.04,28.272 C10.7333333,26.9386667 11.6666667,25.8933333 12.84,25.136 C14.0133333,24.3786667 15.3146667,24 16.744,24 C17.6613333,24 18.504,24.1386667 19.272,24.416 C20.04,24.6933333 20.7066667,25.0453333 21.272,25.472 C21.8373333,25.8986667 22.2746667,26.3306667 22.584,26.768 C22.8933333,27.2053333 23.048,27.5733333 23.048,27.872 L21.896,28.288 L21.896,25.952 C21.896,25.3973333 22.0773333,24.9333333 22.44,24.56 C22.8026667,24.1866667 23.2613333,24 23.816,24 Z M17.352,38.24 C18.2906667,38.24 19.112,38.0053333 19.816,37.536 C20.52,37.0666667 21.0693333,36.4266667 21.464,35.616 C21.8586667,34.8053333 22.056,33.8986667 22.056,32.896 C22.056,31.872 21.8586667,30.9546667 21.464,30.144 C21.0693333,29.3333333 20.52,28.6933333 19.816,28.224 C19.112,27.7546667 18.2906667,27.52 17.352,27.52 C16.4346667,27.52 15.624,27.7546667 14.92,28.224 C14.216,28.6933333 13.6666667,29.3333333 13.272,30.144 C12.8773333,30.9546667 12.68,31.872 12.68,32.896 C12.68,33.8986667 12.8773333,34.8053333 13.272,35.616 C13.6666667,36.4266667 14.216,37.0666667 14.92,37.536 C15.624,38.0053333 16.4346667,38.24 17.352,38.24 Z M38.888,24 C40.5946667,24 41.8533333,24.4106667 42.664,25.232 C43.4746667,26.0533333 44.008,27.1146667 44.264,28.416 L43.72,28.128 L43.976,27.616 C44.232,27.1253333 44.6266667,26.5973333 45.16,26.032 C45.6933333,25.4666667 46.3386667,24.9866667 47.096,24.592 C47.8533333,24.1973333 48.7013333,24 49.64,24 C51.176,24 52.344,24.3306667 53.144,24.992 C53.944,25.6533333 54.4933333,26.5333333 54.792,27.632 C55.0906667,28.7306667 55.24,29.952 55.24,31.296 L55.24,39.488 C55.24,40.0426667 55.0586667,40.5066667 54.696,40.88 C54.3333333,41.2533333 53.8746667,41.44 53.32,41.44 C52.7653333,41.44 52.3066667,41.2533333 51.944,40.88 C51.5813333,40.5066667 51.4,40.0426667 51.4,39.488 L51.4,31.296 C51.4,30.592 51.3146667,29.9573333 51.144,29.392 C50.9733333,28.8266667 50.664,28.3733333 50.216,28.032 C49.768,27.6906667 49.128,27.52 48.296,27.52 C47.4853333,27.52 46.792,27.6906667 46.216,28.032 C45.64,28.3733333 45.208,28.8266667 44.92,29.392 C44.632,29.9573333 44.488,30.592 44.488,31.296 L44.488,39.488 C44.488,40.0426667 44.3066667,40.5066667 43.944,40.88 C43.5813333,41.2533333 43.1226667,41.44 42.568,41.44 C42.0133333,41.44 41.5546667,41.2533333 41.192,40.88 C40.8293333,40.5066667 40.648,40.0426667 40.648,39.488 L40.648,31.296 C40.648,30.592 40.5626667,29.9573333 40.392,29.392 C40.2213333,28.8266667 39.912,28.3733333 39.464,28.032 C39.016,27.6906667 38.376,27.52 37.544,27.52 C36.7333333,27.52 36.04,27.6906667 35.464,28.032 C34.888,28.3733333 34.456,28.8266667 34.168,29.392 C33.88,29.9573333 33.736,30.592 33.736,31.296 L33.736,39.488 C33.736,40.0426667 33.5546667,40.5066667 33.192,40.88 C32.8293333,41.2533333 32.3706667,41.44 31.816,41.44 C31.2613333,41.44 30.8026667,41.2533333 30.44,40.88 C30.0773333,40.5066667 29.896,40.0426667 29.896,39.488 L29.896,26.272 C29.896,25.7173333 30.0773333,25.2533333 30.44,24.88 C30.8026667,24.5066667 31.2613333,24.32 31.816,24.32 C32.3706667,24.32 32.8293333,24.5066667 33.192,24.88 C33.5546667,25.2533333 33.736,25.7173333 33.736,26.272 L33.736,27.648 L33.256,27.552 C33.448,27.1893333 33.7146667,26.8 34.056,26.384 C34.3973333,25.968 34.8133333,25.5786667 35.304,25.216 C35.7946667,24.8533333 36.3386667,24.56 36.936,24.336 C37.5333333,24.112 38.184,24 38.888,24 Z" id="Combined-Shape" fill="#000000"></path>
    </g>
</svg>