<?xml version="1.0" encoding="UTF-8"?>
<svg width="64px" height="64px" viewBox="0 0 64 64" version="1.1" xmlns="http://www.w3.org/2000/svg" xmlns:xlink="http://www.w3.org/1999/xlink">
    <title>scheduling</title>
    <g id="scheduling" stroke="none" stroke-width="1" fill="none" fill-rule="evenodd">
        <path d="M12.0511362,12 L12.05157,12.0462462 C12.0615309,12.5500178 12.2830189,17 17,17 C21.7169811,17 21.9839801,12.5500178 21.9990932,12.0462462 L21.9999664,12.0052728 L38,12 L38.0009068,12.0462462 C38.0160199,12.5500178 38.2830189,17 43,17 C47.7169811,17 47.9839801,12.5500178 47.9990932,12.0462462 L47.9999664,12.0052728 L54,12 L54.0009735,30.2515068 C52.780374,29.3620879 51.4368132,28.6312637 50.0005852,28.0893281 L50,20 L10,20 L10,52 L28.9965215,52.0005969 C29.7858369,53.4777077 30.7869074,54.8246189 31.9591857,56.0007831 L6,56 L6,12 L12.0511362,12 Z M16,42 C17.1045695,42 18,42.8954305 18,44 L18,46 C18,47.1045695 17.1045695,48 16,48 L14,48 C12.8954305,48 12,47.1045695 12,46 L12,44 C12,42.8954305 12.8954305,42 14,42 L16,42 Z M26,42 C26.3987571,42 26.7702579,42.1166978 27.0822135,42.3178043 C27.0277915,42.8718134 27,43.4326612 27,44 C27,45.1892248 27.122111,46.349929 27.3544785,47.4702581 C26.9986593,47.7994442 26.5227508,48 26,48 L24,48 C22.8954305,48 22,47.1045695 22,46 L22,44 C22,42.8954305 22.8954305,42 24,42 L26,42 Z M16,32 C17.1045695,32 18,32.8954305 18,34 L18,36 C18,37.1045695 17.1045695,38 16,38 L14,38 C12.8954305,38 12,37.1045695 12,36 L12,34 C12,32.8954305 12.8954305,32 14,32 L16,32 Z M26,32 C27.1045695,32 28,32.8954305 28,34 L28,36 C28,37.1045695 27.1045695,38 26,38 L24,38 C22.8954305,38 22,37.1045695 22,36 L22,34 C22,32.8954305 22.8954305,32 24,32 L26,32 Z M16,22 C17.1045695,22 18,22.8954305 18,24 L18,26 C18,27.1045695 17.1045695,28 16,28 L14,28 C12.8954305,28 12,27.1045695 12,26 L12,24 C12,22.8954305 12.8954305,22 14,22 L16,22 Z M26,22 C27.1045695,22 28,22.8954305 28,24 L28,26 C28,27.1045695 27.1045695,28 26,28 L24,28 C22.8954305,28 22,27.1045695 22,26 L22,24 C22,22.8954305 22.8954305,22 24,22 L26,22 Z M36,22 C37.1045695,22 38,22.8954305 38,24 L38,26 C38,27.1045695 37.1045695,28 36,28 L34,28 C32.8954305,28 32,27.1045695 32,26 L32,24 C32,22.8954305 32.8954305,22 34,22 L36,22 Z M46,22 C47.1045695,22 48,22.8954305 48,24 L48,26 C48,26.5227508 47.7994442,26.9986593 47.4710794,27.3549787 C46.349929,27.122111 45.1892248,27 44,27 C43.4326612,27 42.8718134,27.0277915 42.3187438,27.0820874 C42.1166978,26.7702579 42,26.3987571 42,26 L42,24 C42,22.8954305 42.8954305,22 44,22 L46,22 Z M43,6 C44.6568542,6 46,7.34314575 46,9 L46,12 C46,13.6568542 44.6568542,15 43,15 C41.3431458,15 40,13.6568542 40,12 L40,9 C40,7.34314575 41.3431458,6 43,6 Z M17,6 C18.6568542,6 20,7.34314575 20,9 L20,12 C20,13.6568542 18.6568542,15 17,15 C15.3431458,15 14,13.6568542 14,12 L14,9 C14,7.34314575 15.3431458,6 17,6 Z" id="Combined-Shape" fill="#000000" fill-rule="nonzero"></path>
        <path d="M44,28 C52.836556,28 60,35.163444 60,44 C60,52.836556 52.836556,60 44,60 C35.163444,60 28,52.836556 28,44 C28,35.163444 35.163444,28 44,28 Z M44,32 C37.372583,32 32,37.372583 32,44 C32,50.627417 37.372583,56 44,56 C50.627417,56 56,50.627417 56,44 C56,37.372583 50.627417,32 44,32 Z" id="Oval" fill="#000000" fill-rule="nonzero"></path>
        <path d="M44.2424733,35 C45.2968351,35 46.1606384,35.8158778 46.2369875,36.8507377 L46.2424733,37 L46.2424733,43.171 L48.6566868,45.5857864 C49.3966276,46.3257272 49.4355718,47.5012114 48.7735196,48.2869988 L48.6566868,48.4142136 C47.9167461,49.1541543 46.7412619,49.1930986 45.9554745,48.5310463 L45.8282597,48.4142136 L42.8282597,45.4142136 C42.4948617,45.0808156 42.2913277,44.6418293 42.2502139,44.1758528 L42.2424733,44 L42.2424733,37 C42.2424733,35.8954305 43.1379038,35 44.2424733,35 Z" id="Path-44" fill="#000000" fill-rule="nonzero"></path>
    </g>
</svg>