<?xml version="1.0" encoding="UTF-8"?>
<svg width="64px" height="64px" viewBox="0 0 64 64" version="1.1" xmlns="http://www.w3.org/2000/svg" xmlns:xlink="http://www.w3.org/1999/xlink">
    <title>schedule_lock_afternoon</title>
    <g id="schedule_lock_afternoon" stroke="none" stroke-width="1" fill="none" fill-rule="evenodd">
        <path d="M32,4 C47.463973,4 60,16.536027 60,32 C60,47.463973 47.463973,60 32,60 C16.536027,60 4,47.463973 4,32 C4,16.536027 16.536027,4 32,4 Z M30.0005127,8.08210526 C27.0776407,8.3231746 24.3032727,9.08800089 21.7714751,10.2825176 L24.2320508,14.5455173 C24.7843356,15.5021026 24.4565852,16.7252834 23.5,17.2775681 C22.5434148,17.8298529 21.3202339,17.5021026 20.7679492,16.5455173 L18.3081491,12.286162 C15.9610196,13.9193761 13.9193761,15.9610196 12.286162,18.3081491 L16.5455173,20.7679492 C17.5021026,21.3202339 17.8298529,22.5434148 17.2775681,23.5 C16.7252834,24.4565852 15.5021026,24.7843356 14.5455173,24.2320508 L10.2825176,21.7714751 C9.08800089,24.3032727 8.3231746,27.0776407 8.08210526,30.0005127 L13,30 C14.1045695,30 15,30.8954305 15,32 C15,33.1045695 14.1045695,34 13,34 L8.08210526,34.0004908 C8.32334966,36.9229943 9.0881376,39.6970171 10.2825176,42.2285249 L14.5455173,39.7679492 C15.5021026,39.2156644 16.7252834,39.5434148 17.2775681,40.5 C17.8298529,41.4565852 17.5021026,42.6797661 16.5455173,43.2320508 L12.286162,45.6918509 C13.9193761,48.0389804 15.9610196,50.0806239 18.3081491,51.713838 L20.7679492,47.4544827 C21.3202339,46.4978974 22.5434148,46.1701471 23.5,46.7224319 C24.4565852,47.2747166 24.7843356,48.4978974 24.2320508,49.4544827 L21.7714751,53.7174824 C24.3032727,54.9119991 27.0776407,55.6768254 30.0005127,55.9178947 L30,51 C30,49.8954305 30.8954305,49 32,49 C33.1045695,49 34,49.8954305 34,51 L34.0004908,55.9178947 C36.9229943,55.6766503 39.6970171,54.9118624 42.2285249,53.7174824 L39.7679492,49.4544827 C39.2156644,48.4978974 39.5434148,47.2747166 40.5,46.7224319 L40.556,46.693 L31.9538745,32 L31.953,14.998 L31.8507377,14.9945143 C30.8158778,14.9181651 30,14.0543618 30,13 L30.0005127,8.08210526 Z" id="clock" fill="#000000" fill-rule="nonzero"></path>
    </g>
</svg>