<?xml version="1.0" encoding="UTF-8"?>
<svg width="64px" height="64px" viewBox="0 0 64 64" version="1.1" xmlns="http://www.w3.org/2000/svg" xmlns:xlink="http://www.w3.org/1999/xlink">
    <title>schedule_tyoe_every</title>
    <g id="schedule_tyoe_every" stroke="none" stroke-width="1" fill="none" fill-rule="evenodd">
        <path d="M12,20 L12,52 L52,52 L52,20 L12,20 Z M45,6 C46.6568542,6 48,7.34314575 48,9 L48,12 C48,13.6568542 46.6568542,15 45,15 C43.3431458,15 42,13.6568542 42,12 L42,9 C42,7.34314575 43.3431458,6 45,6 Z M19,6 C20.6568542,6 22,7.34314575 22,9 L22,12 C22,13.6568542 20.6568542,15 19,15 C17.3431458,15 16,13.6568542 16,12 L16,9 C16,7.34314575 17.3431458,6 19,6 Z M56,56 L8,56 L8,12 L14.0511362,12 L14.05157,12.0462462 C14.0615309,12.5500178 14.2830189,17 19,17 C23.7169811,17 23.9839801,12.5500178 23.9990932,12.0462462 L23.9999664,12.0052728 L40,12 L40.0009068,12.0462462 C40.0160199,12.5500178 40.2830189,17 45,17 C49.7169811,17 49.9839801,12.5500178 49.9990932,12.0462462 L49.9999664,12.0052728 L56,12 L56,56 Z" id="Combined-Shape" fill="#000000" fill-rule="nonzero"></path>
        <path d="M38.3359496,26.8908122 C38.9486545,25.9717548 40.1903932,25.723407 41.1094505,26.336112 C41.982555,26.9181816 42.2503441,28.0679543 41.7496224,28.9694532 L41.6641507,29.1096129 L30.6641507,46.1096129 C29.9534784,47.1756214 28.4515588,47.298687 27.5743649,46.4031705 L27.4636076,46.2805813 L21.4636076,39.2805813 C20.7564794,38.4320276 20.8711276,37.1708981 21.7196813,36.46377 C22.5258075,35.7919982 23.704283,35.8618796 24.4263893,36.598076 L24.5364927,36.7198437 L28.8210501,41.6612125 L38.3359496,26.8908122 Z" id="Path-19" fill="#000000" fill-rule="nonzero"></path>
    </g>
</svg>