<?xml version="1.0" encoding="UTF-8"?>
<svg width="32px" height="32px" viewBox="0 0 32 32" version="1.1" xmlns="http://www.w3.org/2000/svg" xmlns:xlink="http://www.w3.org/1999/xlink">
    <title>scope</title>
    <g id="scope" stroke="none" stroke-width="1" fill="none" fill-rule="evenodd">
        <path d="M16,2 C16.5522847,2 17,2.44771525 17,3 L17.0007248,5.04490836 C22.2776141,5.52078445 26.4797758,9.72324908 26.9551817,15.000274 L29,15 C29.5522847,15 30,15.4477153 30,16 C30,16.5522847 29.5522847,17 29,17 L26.9550916,17.0007248 C26.4792456,22.2772812 22.2772812,26.4792456 17.0007248,26.9550916 L17,29 C17,29.5522847 16.5522847,30 16,30 C15.4477153,30 15,29.5522847 15,29 L15.000274,26.9551817 C9.72324908,26.4797758 5.52078445,22.2776141 5.04490836,17.0007248 L3,17 C2.44771525,17 2,16.5522847 2,16 C2,15.4477153 2.44771525,15 3,15 L5.04481833,15.000274 C5.52025417,9.72291615 9.72291615,5.52025417 15.000274,5.04481833 L15,3 C15,2.44771525 15.4477153,2 16,2 Z M17.0006955,7.05500569 L17,9 C17,9.55228475 16.5522847,10 16,10 C15.4477153,10 15,9.55228475 15,9 L15.0003032,7.05489527 C10.8287757,7.51589149 7.51645693,10.8279142 7.05500569,14.9993045 L9,15 C9.55228475,15 10,15.4477153 10,16 C10,16.5522847 9.55228475,17 9,17 L7.05489527,16.9996968 C7.51592828,21.1715572 10.8284428,24.4840717 15.0003032,24.9451047 L15,23 C15,22.4477153 15.4477153,22 16,22 C16.5522847,22 17,22.4477153 17,23 L17.0006955,24.9449943 C21.1717529,24.4835799 24.4835799,21.1717529 24.9449943,17.0006955 L23,17 C22.4477153,17 22,16.5522847 22,16 C22,15.4477153 22.4477153,15 23,15 L24.9451047,15.0003032 C24.4841085,10.8287757 21.1720858,7.51645693 17.0006955,7.05500569 Z" id="Combined-Shape" fill="#000000" fill-rule="nonzero"></path>
        <circle id="Oval" fill="#000000" cx="16" cy="16" r="2"></circle>
    </g>
</svg>