<?xml version="1.0" encoding="UTF-8"?>
<svg width="32px" height="32px" viewBox="0 0 32 32" version="1.1" xmlns="http://www.w3.org/2000/svg" xmlns:xlink="http://www.w3.org/1999/xlink">
    <title>scrape</title>
    <g id="scrape" stroke="none" stroke-width="1" fill="none" fill-rule="evenodd">
        <path d="M9,24 C9,24.5118446 9.19526215,25.0236893 9.58578644,25.4142136 L9.58578644,25.4142136 L10.172,26 L3,26 C2.48716416,26 2.06449284,25.6139598 2.00672773,25.1166211 L2,25 L2,3 C2,2.44771525 2.44771525,2 3,2 L3,2 L29,2 C29.5522847,2 30,2.44771525 30,3 L30,3 L30,25 C30,25.5522847 29.5522847,26 29,26 L29,26 L21.818,26 L22.5345717,25.282757 L22.6451484,25.1377101 C22.8790201,24.8005098 22.9985687,24.4076721 22.9916728,24.0005149 L24.8875222,24.0002304 L24.8875222,24.0002304 L22.9916556,23.9995112 C22.9904065,23.9279116 22.9852473,23.8558704 22.9761122,23.783612 C22.9454088,23.5407492 22.8690289,23.2920636 22.7230336,23.0383625 L22.6392704,22.6272712 C22.4419796,21.7385668 22.163551,20.9024679 21.8034662,20.1181092 L18,20.117 L18,18.117 L20.6269904,18.1180221 C19.9139064,17.1474084 19.0390505,16.277174 18.0009893,15.5049261 L18.0008027,12.2599265 C22.2465469,12.8674839 25.8776974,15.3800165 28.0006207,18.9038909 L28,10 L4,10 L4,18.901 L4.17427075,18.6212315 C6.31861966,15.2457203 9.86842527,12.8507342 14.000174,12.2597868 L13.9997076,15.5044077 C12.9613411,16.2767845 12.0862532,17.1471912 11.3730096,18.1180221 L14,18.117 L14,20.117 L10.1965338,20.1181092 C9.79167232,21.0000032 9.49003765,21.9473053 9.29089291,22.9612455 C9.0966936,23.2796261 9,23.639813 9,24 L9,23.999 L7.11247782,24.0002304 Z M5.6054206,20.1179748 C4.92189011,21.2995796 4.43405255,22.6085524 4.18622489,24.0005761 L7.11247782,24.0002304 C7.26444472,22.6139098 7.57022364,21.319481 8.02873247,20.1187501 L5.6054206,20.1179748 Z M26.3945794,20.1179748 L23.9712675,20.1187501 C24.4297764,21.319481 24.7355553,22.6139098 24.8875222,24.0002304 L27.8137751,24.0005761 C27.5659474,22.6085524 27.0781099,21.2995796 26.3945794,20.1179748 Z M11.4923629,14.9935838 L11.3954208,15.0332203 C9.72434403,15.7281677 8.24418712,16.7899834 7.05549208,18.1181255 L8.98433908,18.117734 C9.65273775,16.9709801 10.4891645,15.9288977 11.4923629,14.9935838 Z M20.507784,14.9934636 L20.6236191,15.1029012 C21.5754686,16.0098948 22.3731878,17.0154599 23.0156609,18.117734 L24.9445079,18.1181255 C23.7329119,16.7643958 22.2185153,15.6873533 20.507784,14.9934636 Z M28,4 L4,4 L4,8 L28,8 L28,4 Z M26,5 C26.5522847,5 27,5.44771525 27,6 C27,6.55228475 26.5522847,7 26,7 C25.4477153,7 25,6.55228475 25,6 C25,5.44771525 25.4477153,5 26,5 Z M23,5 C23.5522847,5 24,5.44771525 24,6 C24,6.55228475 23.5522847,7 23,7 C22.4477153,7 22,6.55228475 22,6 C22,5.44771525 22.4477153,5 23,5 Z M20,5 C20.5522847,5 21,5.44771525 21,6 C21,6.55228475 20.5522847,7 20,7 C19.4477153,7 19,6.55228475 19,6 C19,5.44771525 19.4477153,5 20,5 Z" id="Combined-Shape" fill="#000000" fill-rule="nonzero"></path>
        <path d="M16,11 C16.5522847,11 17,11.4477153 17,12 L17,26.585 L20.2928932,23.2928932 C20.6533772,22.9324093 21.2206082,22.9046797 21.6128994,23.2097046 L21.7071068,23.2928932 C22.0675907,23.6533772 22.0953203,24.2206082 21.7902954,24.6128994 L21.7071068,24.7071068 L16.7071068,29.7071068 C16.3466228,30.0675907 15.7793918,30.0953203 15.3871006,29.7902954 L15.2928932,29.7071068 L10.2928932,24.7071068 C9.90236893,24.3165825 9.90236893,23.6834175 10.2928932,23.2928932 C10.6533772,22.9324093 11.2206082,22.9046797 11.6128994,23.2097046 L11.7071068,23.2928932 L15,26.585 L15,12 C15,11.4477153 15.4477153,11 16,11 Z" id="Combined-Shape" fill="#000000" fill-rule="nonzero"></path>
    </g>
</svg>