<svg xmlns="http://www.w3.org/2000/svg" width="32" height="32" viewBox="0 0 32 32">
  <g fill="none" fill-rule="evenodd">
    <path fill="#000" fill-rule="nonzero" d="M20,2 C20.2652165,2 20.5195704,2.10535684 20.7071068,2.29289322 L20.7071068,2.29289322 L25.7071068,7.29289322 C25.8946432,7.4804296 26,7.73478351 26,8 L26,8 L26,29 C26,29.5522847 25.5522847,30 25,30 L25,30 L7,30 C6.44771525,30 6,29.5522847 6,29 L6,29 L6,3 C6,2.44771525 6.44771525,2 7,2 L7,2 Z M18,4 L8,4 L8,28 L24,28 L24,10 L19,10 C18.4871642,10 18.0644928,9.61395981 18.0067277,9.11662113 L18,9 L18,4 Z M23.585,8 L20,4.415 L20,8 L23.585,8 Z"/>
    <path fill="#000" fill-rule="nonzero" d="M13.2928932,11.2928932 C13.6834175,10.9023689 14.3165825,10.9023689 14.7071068,11.2928932 C15.0675907,11.6533772 15.0953203,12.2206082 14.7902954,12.6128994 L14.7071068,12.7071068 L11.415,16 L14.7071068,19.2928932 C15.0675907,19.6533772 15.0953203,20.2206082 14.7902954,20.6128994 L14.7071068,20.7071068 C14.3466228,21.0675907 13.7793918,21.0953203 13.3871006,20.7902954 L13.2928932,20.7071068 L9.29289322,16.7071068 C8.93240926,16.3466228 8.90467972,15.7793918 9.20970461,15.3871006 L9.29289322,15.2928932 L13.2928932,11.2928932 Z"/>
    <path fill="#000" fill-rule="nonzero" d="M21.2928932,11.2928932 C21.6834175,10.9023689 22.3165825,10.9023689 22.7071068,11.2928932 C23.0675907,11.6533772 23.0953203,12.2206082 22.7902954,12.6128994 L22.7071068,12.7071068 L19.415,16 L22.7071068,19.2928932 C23.0675907,19.6533772 23.0953203,20.2206082 22.7902954,20.6128994 L22.7071068,20.7071068 C22.3466228,21.0675907 21.7793918,21.0953203 21.3871006,20.7902954 L21.2928932,20.7071068 L17.2928932,16.7071068 C16.9324093,16.3466228 16.9046797,15.7793918 17.2097046,15.3871006 L17.2928932,15.2928932 L21.2928932,11.2928932 Z" transform="matrix(-1 0 0 1 40 0)"/>
  </g>
</svg>
