<?xml version="1.0" encoding="UTF-8"?>
<svg width="64px" height="64px" viewBox="0 0 64 64" version="1.1" xmlns="http://www.w3.org/2000/svg" xmlns:xlink="http://www.w3.org/1999/xlink">
    <title>seeding</title>
    <g id="seeding" stroke="none" stroke-width="1" fill="none" fill-rule="evenodd">
        <path d="M10.7254583,38 C14.5487853,38.0002227 18.037453,40.1804601 19.7142197,43.6180357 C23.1469691,50.6666752 27.2270171,54 32,54 C36.7729829,54 40.8530309,50.6666752 44.2863236,43.616921 C45.9172437,40.2733375 49.263962,38.118991 52.9654121,38.0047771 L53.2746582,38 L58,38 C59.1045695,38 60,38.8954305 60,40 C60,41.0543618 59.1841222,41.9181651 58.1492623,41.9945143 L58,42 L53.2747747,42 C50.980692,42.0001336 48.8872984,43.3083967 47.8819814,45.3694173 C43.8431891,53.6624757 38.5339833,58 32,58 C25.4660167,58 20.1568109,53.6624757 16.1185619,45.370532 C15.1486252,43.3820444 13.1674489,42.0945426 10.970316,42.0049947 L10.7253418,42 L6,42 C4.8954305,42 4,41.1045695 4,40 C4,38.9456382 4.81587779,38.0818349 5.85073766,38.0054857 L6,38 L10.7254583,38 Z" id="Path-155" fill="#000000" fill-rule="nonzero"></path>
        <path d="M32.2,24.4 L31,23.5 L29.8,24.4 C26.6297216,26.7777088 25,30.0371521 25,34 C25,37.9628479 26.6297216,41.2222912 29.8,43.6 L31,44.5 L32.2,43.6 C35.3702784,41.2222912 37,37.9628479 37,34 C37,30.0371521 35.3702784,26.7777088 32.2,24.4 Z M31,28.669 L31.1186843,28.7974652 C32.3864231,30.2130178 33,31.9201394 33,34 L32.9953931,34.3091937 C32.9370069,36.2498438 32.3230361,37.8577599 31.1186843,39.2025348 L30.999,39.33 L30.8813157,39.2025348 C29.6135769,37.7869822 29,36.0798606 29,34 C29,31.9201394 29.6135769,30.2130178 30.8813157,28.7974652 L31,28.669 Z" id="Path-156" fill="#000000" fill-rule="nonzero" transform="translate(31.000000, 34.000000) rotate(-34.000000) translate(-31.000000, -34.000000) "></path>
        <path d="M21.2,5.4 L20,4.5 L18.8,5.4 C15.6297216,7.77770876 14,11.0371521 14,15 C14,18.9628479 15.6297216,22.2222912 18.8,24.6 L20,25.5 L21.2,24.6 C24.3702784,22.2222912 26,18.9628479 26,15 C26,11.0371521 24.3702784,7.77770876 21.2,5.4 Z M20,9.669 L20.1186843,9.79746521 C21.3864231,11.2130178 22,12.9201394 22,15 L21.9953931,15.3091937 C21.9370069,17.2498438 21.3230361,18.8577599 20.1186843,20.2025348 L19.999,20.33 L19.8813157,20.2025348 C18.6135769,18.7869822 18,17.0798606 18,15 C18,12.9201394 18.6135769,11.2130178 19.8813157,9.79746521 L20,9.669 Z" id="Path-156-Copy" fill="#000000" fill-rule="nonzero" transform="translate(20.000000, 15.000000) rotate(-80.000000) translate(-20.000000, -15.000000) "></path>
        <path d="M45.2,5.4 L44,4.5 L42.8,5.4 C39.6297216,7.77770876 38,11.0371521 38,15 C38,18.9628479 39.6297216,22.2222912 42.8,24.6 L44,25.5 L45.2,24.6 C48.3702784,22.2222912 50,18.9628479 50,15 C50,11.0371521 48.3702784,7.77770876 45.2,5.4 Z M44,9.669 L44.1186843,9.79746521 C45.3864231,11.2130178 46,12.9201394 46,15 L45.9953931,15.3091937 C45.9370069,17.2498438 45.3230361,18.8577599 44.1186843,20.2025348 L43.999,20.33 L43.8813157,20.2025348 C42.6135769,18.7869822 42,17.0798606 42,15 C42,12.9201394 42.6135769,11.2130178 43.8813157,9.79746521 L44,9.669 Z" id="Path-156-Copy-2" fill="#000000" fill-rule="nonzero" transform="translate(44.000000, 15.000000) rotate(15.000000) translate(-44.000000, -15.000000) "></path>
    </g>
</svg>