<?xml version="1.0" encoding="UTF-8"?>
<svg width="64px" height="64px" viewBox="0 0 64 64" version="1.1" xmlns="http://www.w3.org/2000/svg" xmlns:xlink="http://www.w3.org/1999/xlink">
    <title>segment</title>
    <g id="segment" stroke="none" stroke-width="1" fill="none" fill-rule="evenodd">
        <path d="M31,8 C16.6405965,8 5,19.6405965 5,34 C5,48.3594035 16.6405965,60 31,60 C45.3594035,60 57,48.3594035 57,34 C57,28.6766812 55.3946497,23.588178 52.4431162,19.2925192 L52.3448246,19.1611589 C51.6944208,18.36172 50.5284366,18.1826229 49.6635889,18.7757203 L33,30.202 L33,10 C33,8.8954305 32.1045695,8 31,8 Z M29,12.09 L29,34 L29.0052154,34.1489042 C29.1122808,35.6668724 30.8454164,36.5311274 32.1311333,35.6494052 L50.202,23.256 L50.373717,23.5657335 C52.0846481,26.7343311 53,30.296988 53,34 C53,46.1502645 43.1502645,56 31,56 C18.8497355,56 9,46.1502645 9,34 C9,22.5787514 17.7032263,13.1902502 28.8394287,12.1047465 L29,12.09 Z" id="Path" fill="#000000" fill-rule="nonzero"></path>
        <path d="M34.1752199,4 C42.0013069,4 49.8273938,8.17391304 53.9699421,14.4251255 L35.7407865,26.9263618 C35.2853159,27.2387156 34.6628711,27.1226965 34.3505173,26.6672258 C34.2363319,26.500722 34.1752199,26.3035547 34.1752199,26.1016592 L34.1752199,4 Z M38.175,8.432 L38.175,20.407 L48.08,13.613 L48.0163424,13.5515962 C45.3838138,11.079207 41.9559972,9.27372437 38.3392636,8.46768338 L38.175,8.432 Z" id="Shape" fill="#000000" fill-rule="nonzero"></path>
    </g>
</svg>