<?xml version="1.0" encoding="UTF-8"?>
<svg width="64px" height="64px" viewBox="0 0 64 64" version="1.1" xmlns="http://www.w3.org/2000/svg" xmlns:xlink="http://www.w3.org/1999/xlink">
    <title>sellify</title>
    <g id="sellify" stroke="none" fill="none" fill-rule="evenodd">
        <path d="M32,4 C47.463973,4 60,16.536027 60,32 C60,47.463973 47.463973,60 32,60 C16.536027,60 4,47.463973 4,32 C4,16.536027 16.536027,4 32,4 Z M41,42 L25,42 C23.8954305,42 23,42.8954305 23,44 L23,46 C23,47.1045695 23.8954305,48 25,48 L41,48 C42.1045695,48 43,47.1045695 43,46 L43,44 C43,42.8954305 42.1045695,42 41,42 Z M47,34 L44,34 C42.8954305,34 42,34.8954305 42,36 L42,41 C42,42.1045695 42.8954305,43 44,43 L47,43 C48.1045695,43 49,42.1045695 49,41 L49,36 C49,34.8954305 48.1045695,34 47,34 Z M22,37 L19,37 C17.8954305,37 17,37.8954305 17,39 L17,41 C17,42.1045695 17.8954305,43 19,43 L22,43 C23.1045695,43 24,42.1045695 24,41 L24,39 C24,37.8954305 23.1045695,37 22,37 Z M41,29 L25,29 C23.8954305,29 23,29.8954305 23,31 L23,33 C23,34.1045695 23.8954305,35 25,35 L41,35 C42.1045695,35 43,34.1045695 43,33 L43,31 C43,29.8954305 42.1045695,29 41,29 Z M22,21 L19,21 C17.8954305,21 17,21.8954305 17,23 L17,28 C17,29.1045695 17.8954305,30 19,30 L22,30 C23.1045695,30 24,29.1045695 24,28 L24,23 C24,21.8954305 23.1045695,21 22,21 Z M47,21 L44,21 C42.8954305,21 42,21.8954305 42,23 L42,25 C42,26.1045695 42.8954305,27 44,27 L47,27 C48.1045695,27 49,26.1045695 49,25 L49,23 C49,21.8954305 48.1045695,21 47,21 Z M41,16 L25,16 C23.8954305,16 23,16.8954305 23,18 L23,20 C23,21.1045695 23.8954305,22 25,22 L41,22 C42.1045695,22 43,21.1045695 43,20 L43,18 C43,16.8954305 42.1045695,16 41,16 Z" id="Oval-2" fill="#000000"></path>
    </g>
</svg>