<?xml version="1.0" encoding="UTF-8"?>
<svg width="64px" height="64px" viewBox="0 0 64 64" version="1.1" xmlns="http://www.w3.org/2000/svg" xmlns:xlink="http://www.w3.org/1999/xlink">
    <title>sentiment</title>
    <g id="sentiment" stroke="none" fill="none">
        <path d="M32,4 C47.463973,4 60,16.536027 60,32 C60,47.463973 47.463973,60 32,60 C16.536027,60 4,47.463973 4,32 C4,16.536027 16.536027,4 32,4 Z M32,8 C18.745166,8 8,18.745166 8,32 C8,45.254834 18.745166,56 32,56 C45.254834,56 56,45.254834 56,32 C56,18.745166 45.254834,8 32,8 Z" id="Oval" fill="#000000" fill-rule="nonzero"></path>
        <path d="M44.2111456,38.1055728 C44.7051241,37.1176158 45.9064702,36.7171671 46.8944272,37.2111456 C47.8823842,37.7051241 48.2828329,38.9064702 47.7888544,39.8944272 C44.7708332,45.9304695 39.3991548,49 32,49 C24.6008452,49 19.2291668,45.9304695 16.2111456,39.8944272 C15.7171671,38.9064702 16.1176158,37.7051241 17.1055728,37.2111456 C18.0935298,36.7171671 19.2948759,37.1176158 19.7888544,38.1055728 C22.1041666,42.7361972 26.0658215,45 32,45 C37.9341785,45 41.8958334,42.7361972 44.2111456,38.1055728 Z" id="Path" fill="#000000" fill-rule="nonzero"></path>
        <circle id="Oval-2" fill="#000000" fill-rule="evenodd" cx="24" cy="24" r="4"></circle>
        <circle id="Oval-2-Copy" fill="#000000" fill-rule="evenodd" cx="40" cy="24" r="4"></circle>
    </g>
</svg>