<?xml version="1.0" encoding="UTF-8"?>
<svg width="64px" height="64px" viewBox="0 0 64 64" version="1.1" xmlns="http://www.w3.org/2000/svg" xmlns:xlink="http://www.w3.org/1999/xlink">
    <title>sentricon</title>
    <g id="sentricon" stroke="none" stroke-width="1" fill="none" fill-rule="evenodd">
        <path d="M20.4142136,14 L43.5857864,14 C43.8510029,14 44.1053568,14.1053568 44.2928932,14.2928932 L49.2928932,19.2928932 C49.6834175,19.6834175 49.6834175,20.3165825 49.2928932,20.7071068 L43.2928932,26.7071068 C43.1053568,26.8946432 42.8510029,27 42.5857864,27 L21.4142136,27 C21.1489971,27 20.8946432,26.8946432 20.7071068,26.7071068 L14.7071068,20.7071068 C14.3165825,20.3165825 14.3165825,19.6834175 14.7071068,19.2928932 L19.7071068,14.2928932 C19.8946432,14.1053568 20.1489971,14 20.4142136,14 Z" id="Path-94" fill="#000000" fill-rule="nonzero"></path>
        <path d="M34,50 L42.5698682,50 C42.8444606,50 43.1069714,49.8870857 43.2958209,49.6877446 L60.3305919,31.7065974 C60.7031857,31.3133039 60.6948295,30.6948295 60.311746,30.311746 L51.7071068,21.7071068 C51.3165825,21.3165825 50.6834175,21.3165825 50.2928932,21.7071068 L33.2928932,38.7071068 C33.1053568,38.8946432 33,39.1489971 33,39.4142136 L33,49 C33,49.5522847 33.4477153,50 34,50 Z" id="Path-95" fill="#000000" fill-rule="nonzero"></path>
        <path d="M4.39536027,50 L12.9652285,50 C13.2398209,50 13.5023317,49.8870857 13.6911812,49.6877446 L30.7259522,31.7065974 C31.098546,31.3133039 31.0901898,30.6948295 30.7071063,30.311746 L22.1024671,21.7071068 C21.7119428,21.3165825 21.0787778,21.3165825 20.6882535,21.7071068 L3.68825349,38.7071068 C3.50071711,38.8946432 3.39536027,39.1489971 3.39536027,39.4142136 L3.39536027,49 C3.39536027,49.5522847 3.84307552,50 4.39536027,50 Z" id="Path-95-Copy" fill="#000000" fill-rule="nonzero" transform="translate(17.197680, 35.707107) scale(-1, 1) translate(-17.197680, -35.707107) "></path>
    </g>
</svg>