<?xml version="1.0" encoding="UTF-8"?>
<svg width="64px" height="64px" viewBox="0 0 64 64" version="1.1" xmlns="http://www.w3.org/2000/svg" xmlns:xlink="http://www.w3.org/1999/xlink">
    <title>service_report</title>
    <g id="service_report" stroke="none" stroke-width="1" fill="none" fill-rule="evenodd">
        <path d="M16,12 L16,15 L13,15 C11.9456382,15 11.0818349,15.8158778 11.0054857,16.8507377 L11,17 L11,53 C11,54.0543618 11.8158778,54.9181651 12.8507377,54.9945143 L13,55 L40,55 C41.0543618,55 41.9181651,54.1841222 41.9945143,53.1492623 L42,53 L42,41.998 L45,38.623 L45,53 C45,55.7614237 42.7614237,58 40,58 L13,58 C10.2385763,58 8,55.7614237 8,53 L8,17 C8,14.2385763 10.2385763,12 13,12 L16,12 Z M28,48 C28.5522847,48 29,48.4477153 29,49 L29,50 C29,50.5522847 28.5522847,51 28,51 L16,51 C15.4477153,51 15,50.5522847 15,50 L15,49 C15,48.4477153 15.4477153,48 16,48 L28,48 Z M32.167,42 L31.166,45 L16,45 C15.4477153,45 15,44.5522847 15,44 L15,43 C15,42.4477153 15.4477153,42 16,42 L32.167,42 Z M36,36 C36.3021209,36 36.5729493,36.1339792 36.7563117,36.3457641 L34.329,39 L16,39 C15.4477153,39 15,38.5522847 15,38 L15,37 C15,36.4477153 15.4477153,36 16,36 L36,36 Z M36,30 C36.5522847,30 37,30.4477153 37,31 L37,32 C37,32.5522847 36.5522847,33 36,33 L16,33 C15.4477153,33 15,32.5522847 15,32 L15,31 C15,30.4477153 15.4477153,30 16,30 L36,30 Z M40,12 C42.7614237,12 45,14.2385763 45,17 L45,27.328 L42,30.609 L42,17 C42,15.9456382 41.1841222,15.0818349 40.1492623,15.0054857 L40,15 L37,15 L37,12 L40,12 Z M36,24 C36.5522847,24 37,24.4477153 37,25 L37,26 C37,26.5522847 36.5522847,27 36,27 L16,27 C15.4477153,27 15,26.5522847 15,26 L15,25 C15,24.4477153 15.4477153,24 16,24 L36,24 Z" id="Rectangle" fill="#000000" fill-rule="nonzero"></path>
        <path d="M26.5,5 C28.8333333,5 30.3333333,6 31,8 L34,8 C35.6568542,8 37,9.34314575 37,11 L37,16 C37,17.6568542 35.6568542,19 34,19 L19,19 C17.3431458,19 16,17.6568542 16,16 L16,11 C16,9.34314575 17.3431458,8 19,8 L22,8 C22.6666667,6 24.1666667,5 26.5,5 Z M26.5,8 C25.4800063,8 25.1307493,8.1928383 24.8900467,8.82495371 L24.8460499,8.9486833 L24.1622777,11 L20,11 C19.4477153,11 19,11.4477153 19,12 L19,15 C19,15.5522847 19.4477153,16 20,16 L33,16 C33.5522847,16 34,15.5522847 34,15 L34,12 C34,11.4477153 33.5522847,11 33,11 L28.8377223,11 L28.8377223,11 L28.1539501,8.9486833 C27.9102878,8.21769636 27.5837433,8 26.5,8 Z" id="Rectangle" fill="#000000" fill-rule="nonzero"></path>
        <g id="Group" transform="translate(45.000000, 33.000000) rotate(42.000000) translate(-45.000000, -33.000000) translate(42.000000, 11.000000)" fill="#000000">
            <rect id="Rectangle" x="-5.19584376e-14" y="5" width="6" height="31"></rect>
            <path d="M2,1.42108547e-13 L4,1.42108547e-13 C5.1045695,1.41905641e-13 6,0.8954305 6,2 L6,4 L6,4 L-5.19584376e-14,4 L-5.19584376e-14,2 C-5.20937083e-14,0.8954305 0.8954305,1.42311453e-13 2,1.42108547e-13 Z" id="Rectangle"></path>
            <polygon id="Path-3" points="-5.19584376e-14 37 3 44 6 37"></polygon>
        </g>
    </g>
</svg>