<?xml version="1.0" encoding="UTF-8"?>
<svg width="64px" height="64px" viewBox="0 0 64 64" version="1.1" xmlns="http://www.w3.org/2000/svg" xmlns:xlink="http://www.w3.org/1999/xlink">
    <title>service_digest</title>
    <g id="service_digest" stroke="none" stroke-width="1" fill="none" fill-rule="evenodd">
        <path d="M4,47 L4,16 C4,13.2385763 6.2385763,11 9,11 L10,11 L10,10 C10,8.34314575 11.2791865,7 12.8571429,7 L15.7142857,7 C16.3492064,5 17.7777778,4 20,4 C22.2222222,4 23.6507936,5 24.2857143,7 L27.1428571,7 C28.7208135,7 30,8.34314575 30,10 L29.9998887,10.8027576 C29.54449,11.0662046 29.1269307,11.387788 28.7573593,11.7573593 C27.6715729,12.8431458 27,14.3431458 27,16 L27,18 L12.8571429,18 C11.2791865,18 10,16.6568542 10,15 L10,14 L9,14 C7.9456382,14 7.0818349,14.8158778 7.0054857,15.8507377 L7,16 L7.00046109,51.5841577 C5.23431006,50.8127064 4,49.0504974 4,47 Z M57,16 C57,14.9456382 56.1841222,14.0818349 55.1492623,14.0054857 L55,14 L54,14 L54,15 C54,16.6568542 52.7208135,18 51.1428571,18 L36.8571429,18 C35.2791865,18 34,16.6568542 34,15 L34,14 L33,14 C31.9456382,14 31.0818349,14.8158778 31.0054857,15.8507377 L31,16 L31,27 L28,27 L28,16 C28,13.2385763 30.2385763,11 33,11 L34,11 L34,10 C34,8.34314575 35.2791865,7 36.8571429,7 L39.7142857,7 C40.3492064,5 41.7777778,4 44,4 C46.2222222,4 47.6507936,5 48.2857143,7 L51.1428571,7 C52.7208135,7 54,8.34314575 54,10 L54,11 L55,11 C57.7614237,11 60,13.2385763 60,16 L60,47 C60,49.0501129 58.7661528,50.8120455 57.0005324,51.5837237 L57,16 Z M27,21 L27,24 L11,24 C10.4477153,24 10,23.5522847 10,23 L10,22 C10,21.4477153 10.4477153,21 11,21 L27,21 Z M53,21 C53.5522847,21 54,21.4477153 54,22 L54,23 C54,23.5522847 53.5522847,24 53,24 L35,24 C34.4477153,24 34,23.5522847 34,23 L34,22 C34,21.4477153 34.4477153,21 35,21 L53,21 Z M20,7 C19.0480059,7 18.7220327,7.1928383 18.4973769,7.82495371 L18.4563132,7.9486833 L17.8181259,10 L13.9333333,10 C13.4178676,10 13,10.4477153 13,11 L13,14 C13,14.5522847 13.4178676,15 13.9333333,15 L26.0666667,15 C26.5821324,15 27,14.5522847 27,14 L27,11 C27,10.4477153 26.5821324,10 26.0666667,10 L22.1818741,10 L21.5436868,7.9486833 C21.3162686,7.21769636 21.0114937,7 20,7 Z M44,7 C43.0480059,7 42.7220327,7.1928383 42.4973769,7.82495371 L42.4563132,7.9486833 L41.8181259,10 L37.9333333,10 C37.4178676,10 37,10.4477153 37,11 L37,14 C37,14.5522847 37.4178676,15 37.9333333,15 L50.0666667,15 C50.5821324,15 51,14.5522847 51,14 L51,11 C51,10.4477153 50.5821324,10 50.0666667,10 L46.1818741,10 L45.5436868,7.9486833 C45.3162686,7.21769636 45.0114937,7 44,7 Z" id="Combined-Shape" fill="#000000" fill-rule="nonzero"></path>
        <path d="M10,60 C8.8954305,60 8,59.1045695 8,58 L8,30 C8,28.9389438 8.82627103,28.0708736 9.8704756,28.0041269 C9.88122328,28.0035753 9.89224083,28.0029422 9.90326337,28.0024007 C9.9352454,28.0007737 9.96753235,28 10,28 L54.012663,28.0000471 C54.0239694,28.0001249 54.0352737,28.0002989 54.0465747,28.000569 L54,28 C54.1067353,28 54.2115177,28.0083611 54.3137281,28.024464 C54.3221744,28.0263635 54.3308644,28.0278113 54.3395456,28.0293167 C55.2825696,28.1901537 56,29.0112944 56,30 L56,58 C56,59.1045695 55.1045695,60 54,60 L10,60 Z M38.529,45.378 L35.8756476,47.56657 C33.7402609,49.3909354 30.6571981,49.4738611 28.4356591,47.8153471 L28.1243524,47.56657 L26.019,45.83 L15.849,56 L49.15,56 L38.529,45.378 Z M12,34.274 L12,54.15 L22.895,43.255 L12,34.274 Z M52,34.273 L41.652,42.803 L52,53.15 L52,34.273 Z M48.434,32 L15.565,32 L30.7081175,44.4834555 C31.386018,45.0626191 32.3504419,45.1152704 33.0804376,44.6414092 L33.2918825,44.4834555 L48.434,32 Z" id="Combined-Shape" fill="#000000" fill-rule="nonzero"></path>
    </g>
</svg>