<?xml version="1.0" encoding="UTF-8"?>
<svg width="32px" height="32px" viewBox="0 0 32 32" version="1.1" xmlns="http://www.w3.org/2000/svg" xmlns:xlink="http://www.w3.org/1999/xlink">
    <title>new-service-form</title>
    <g id="new-service-form" stroke="none" stroke-width="1" fill="none" fill-rule="evenodd">
        <path d="M6.59838507,3.99889691 C6.32806589,4.57424329 6.14106584,5.23827889 6.0545563,5.99958939 L4,6 L4,28 L13.859,27.9998969 L13.9289322,28.0710678 C14.7140441,28.8561797 15.6290981,29.5113495 16.6390671,30.0015502 L3,30 C2.44771525,30 2,29.5522847 2,29 L2,29 L2,5 C2,4.44771525 2.44771525,4 3,4 L3,4 Z M21,4 C21.5522847,4 22,4.44771525 22,5 L22,5 L22.000554,11.0494303 C21.6714684,11.0167382 21.3376889,11 21,11 C20.6626515,11 20.3292046,11.0167045 20.0004412,11.0493314 L20,6 L17.9454437,5.99958939 C17.8589342,5.23827889 17.6719341,4.57424329 17.4016149,3.99889691 Z" id="Rectangle" fill="#000000" fill-rule="nonzero"></path>
        <path d="M12,2 C8.78104858,2 7,3.78104858 7,7 C7,7.55228475 7.44771525,8 8,8 L16,8 C16.5522847,8 17,7.55228475 17,7 C17,3.78104858 15.2189514,2 12,2 Z M12.207355,4.00296477 C13.76587,4.048522 14.608868,4.62134898 14.8909807,5.87607734 L14.915,6 L9.084,6 L9.10901934,5.87607734 C9.40339779,4.56679557 10.3084945,4 12,4 L12.207355,4.00296477 Z" id="Path" fill="#000000" fill-rule="nonzero"></path>
        <g id="plus" transform="translate(12.000000, 12.000000)">
            <path d="M9,0 C13.9705627,0 18,4.02943725 18,9 C18,13.9705627 13.9705627,18 9,18 C4.02943725,18 0,13.9705627 0,9 C0,4.02943725 4.02943725,0 9,0 Z M9,2 C5.13400675,2 2,5.13400675 2,9 C2,12.8659932 5.13400675,16 9,16 C12.8659932,16 16,12.8659932 16,9 C16,5.13400675 12.8659932,2 9,2 Z" id="Oval" fill="#020202" fill-rule="nonzero"></path>
            <path d="M9,4 C9.55228475,4 10,4.44771525 10,5 L10,7.999 L13,8 C13.5522847,8 14,8.44771525 14,9 C14,9.55228475 13.5522847,10 13,10 L10,10 L10,13 C10,13.5522847 9.55228475,14 9,14 C8.44771525,14 8,13.5522847 8,13 L8,10 L5,10 C4.44771525,10 4,9.55228475 4,9 C4,8.44771525 4.44771525,8 5,8 L8,8 L8,5 C8,4.44771525 8.44771525,4 9,4 Z" id="Combined-Shape" fill="#000000"></path>
        </g>
    </g>
</svg>