<?xml version="1.0" encoding="UTF-8"?>
<svg width="32px" height="32px" viewBox="0 0 32 32" version="1.1" xmlns="http://www.w3.org/2000/svg" xmlns:xlink="http://www.w3.org/1999/xlink">
    <title>service-form-template</title>
    <g id="service-form-template" stroke="none" stroke-width="1" fill="none" fill-rule="evenodd">
        <path d="M12.0081733,29.1820408 C12.0349014,29.4782723 12.126222,29.7558738 12.2679418,30.0006522 L3,30 C2.44771525,30 2,29.5522847 2,29 L2,29 L2,5 C2,4.44771525 2.44771525,4 3,4 L3,4 L6.59821276,3.9992637 C6.32798642,4.57452551 6.14104746,5.23844067 6.0545563,5.99958939 L4,6 L4,28 L9.765,28 L9.87867966,28.1213203 C10.3763318,28.6189725 11.0480111,28.9425974 11.7946016,28.9930789 L12,29 Z M12,2 C15.2189514,2 17,3.78104858 17,7 C17,7.55228475 16.5522847,8 16,8 L16,8 L8,8 C7.44771525,8 7,7.55228475 7,7 C7,3.78104858 8.78104858,2 12,2 Z M21,4 C21.5522847,4 22,4.44771525 22,5 L22,5 L22.0006859,6.34165389 C21.3749342,6.1203964 20.7015272,6 20,6 L17.9454437,5.99958939 C17.8589525,5.23844067 17.6720136,4.57452551 17.4017872,3.9992637 Z M12,4 C10.3084945,4 9.40339779,4.56679557 9.10901934,5.87607734 L9.10901934,5.87607734 L9.084,6 L14.915,6 L14.8909807,5.87607734 C14.608868,4.62134898 13.76587,4.048522 12.207355,4.00296477 L12.207355,4.00296477 Z" id="Rectangle" fill="#000000" fill-rule="nonzero"></path>
        <path d="M12,28 C10.8954305,28 10,27.1045695 10,26 L10,23 C10,21.8954305 10.8954305,21 12,21 L17,21 L16.9998057,16.0002202 C15.7854695,15.0880049 15,13.6357306 15,12 C15,9.23857625 17.2385763,7 20,7 C22.7614237,7 25,9.23857625 25,12 C25,13.6352792 24.2149639,15.0872034 23.0011995,15.9994649 L23,21 L28,21 C29.1045695,21 30,21.8954305 30,23 L30,26 C30,27.1045695 29.1045695,28 28,28 L27,28 L27,29 C27,29.5522847 26.5522847,30 26,30 L14,30 C13.4477153,30 13,29.5522847 13,29 L13,28 L12,28 Z M28,23 L12,23 L12,26 L28,26 L28,23 Z M21,17 L19,17 L19,21 L21,21 L21,17 Z M20,9 C18.3431458,9 17,10.3431458 17,12 C17,13.6568542 18.3431458,15 20,15 C21.6568542,15 23,13.6568542 23,12 C23,10.3431458 21.6568542,9 20,9 Z" id="Combined-Shape" fill="#000000" fill-rule="nonzero"></path>
    </g>
</svg>