<svg xmlns="http://www.w3.org/2000/svg" width="64" height="64" viewBox="0 0 64 64">
  <g fill="none" fill-rule="evenodd">
    <path fill="#000" fill-rule="nonzero" d="M11,13 L11,16 L11,16 L9,16 C7.8954305,16 7,16.8954305 7,18 L7,18 L7,54 C7,55.1045695 7.8954305,56 9,56 L9,56 L36,56 C37.1045695,56 38,55.1045695 38,54 L38,54 L38,50.5 L40.5,50.5 C40.6730179,50.5 40.8409045,50.4780301 41.0010222,50.4367279 L41,54 C41,56.7614237 38.7614237,59 36,59 L9,59 C6.23857625,59 4,56.7614237 4,54 L4,18 C4,15.2385763 6.23857625,13 9,13 L11,13 Z M20.5632721,49.0010222 C20.7856488,49.8631171 21.5684484,50.5 22.5,50.5 L22.5,50.5 L25,50.5 L25,51 C25,51.5522847 24.5522847,52 24,52 L12,52 C11.4477153,52 11,51.5522847 11,51 L11,50 C11,49.4477153 11.4477153,49 12,49 Z M20.5,43 L20.5,46 L12,46 C11.4477153,46 11,45.5522847 11,45 L11,44 C11,43.4477153 11.4477153,43 12,43 L20.5,43 Z M20.5,37 L20.5,40 L12,40 C11.4477153,40 11,39.5522847 11,39 L11,38 C11,37.4477153 11.4477153,37 12,37 L20.5,37 Z M20.5,31 L20.5,34 L12,34 C11.4477153,34 11,33.5522847 11,33 L11,32 C11,31.4477153 11.4477153,31 12,31 L20.5,31 Z M20.5,25 L20.5,28 L12,28 C11.4477153,28 11,27.5522847 11,27 L11,26 C11,25.4477153 11.4477153,25 12,25 L20.5,25 Z M36,13 C38.7614237,13 41,15.2385763 41,18 L41.0010222,20.0632721 C40.8409045,20.0219699 40.6730179,20 40.5,20 L40.5,20 L38,20 L38,18 C38,16.9456382 37.1841222,16.0818349 36.1492623,16.0054857 L36,16 L34,16 L34,13 L34,13 L36,13 Z"/>
    <path fill="#000" fill-rule="nonzero" d="M22.5 6C24.8333333 6 26.3333333 7 27 9L30 9C31.6568542 9 33 10.3431457 33 12L33 17C33 18.6568542 31.6568542 20 30 20L15 20C13.3431458 20 12 18.6568542 12 17L12 12C12 10.3431457 13.3431458 9 15 9L18 9C18.6666667 7 20.1666667 6 22.5 6zM22.5 9C21.4800063 9 21.1307493 9.1928383 20.8900467 9.82495371L20.8460499 9.9486833 20.1622777 12 16 12C15.4477153 12 15 12.4477153 15 13L15 16C15 16.5522847 15.4477153 17 16 17L29 17C29.5522847 17 30 16.5522847 30 16L30 13C30 12.4477153 29.5522847 12 29 12L24.8377223 12 24.8377223 12 24.1539501 9.9486833C23.9102878 9.21769636 23.5837433 9 22.5 9zM58.5 21C59.3284271 21 60 21.6715729 60 22.5L60 22.5 60 57.5C60 58.8363573 58.3842871 59.5056075 57.4393398 58.5606602L57.4393398 58.5606602 48.379 49.5 23 49.5C22.2203039 49.5 21.5795513 48.9051119 21.5068666 48.14446L21.5068666 48.14446 21.5 48 21.5 22.5C21.5 21.6715729 22.1715729 21 23 21L23 21zM57 24L24.5 24 24.5 46.5 49 46.5C49.3480966 46.5 49.6837183 46.6209957 49.9506368 46.8396968L49.9506368 46.8396968 50.0606602 46.9393398 57 53.879 57 24zM43.7272727 39C44.1540382 39 44.5 39.4477153 44.5 40L44.5 41C44.5 41.5522847 44.1540382 42 43.7272727 42L28.2727273 42C27.8459618 42 27.5 41.5522847 27.5 41L27.5 40C27.5 39.4477153 27.8459618 39 28.2727273 39L43.7272727 39zM52.7954545 33C53.4607066 33 54 33.4477153 54 34L54 35C54 35.5522847 53.4607066 36 52.7954545 36L28.7045455 36C28.0392934 36 27.5 35.5522847 27.5 35L27.5 34C27.5 33.4477153 28.0392934 33 28.7045455 33L52.7954545 33zM52.7954545 27C53.4607066 27 54 27.4477153 54 28L54 29C54 29.5522847 53.4607066 30 52.7954545 30L28.7045455 30C28.0392934 30 27.5 29.5522847 27.5 29L27.5 28C27.5 27.4477153 28.0392934 27 28.7045455 27L52.7954545 27z"/>
  </g>
</svg>
