<?xml version="1.0" encoding="UTF-8"?>
<svg width="64px" height="64px" viewBox="0 0 64 64" version="1.1" xmlns="http://www.w3.org/2000/svg" xmlns:xlink="http://www.w3.org/1999/xlink">
    <title>service_reminder</title>
    <g id="service_reminder" stroke="none" stroke-width="1" fill="none" fill-rule="evenodd">
        <path d="M15.9997847,10 L16,11 L16.006506,11.2572993 C16.0713039,12.5356135 16.6161954,13.6872633 17.4644661,14.5355339 C18.3692881,15.4403559 19.6192881,16 21,16 C22.3807119,16 23.6307119,15.4403559 24.5355339,14.5355339 C25.4403559,13.6307119 26,12.3807119 26,11 L26,11 L25.9997847,10 L39.9997847,10 L40,11 L40.006506,11.2572993 C40.0713039,12.5356135 40.6161954,13.6872633 41.4644661,14.5355339 C42.3692881,15.4403559 43.6192881,16 45,16 C46.3807119,16 47.6307119,15.4403559 48.5355339,14.5355339 C49.4403559,13.6307119 50,12.3807119 50,11 L50,11 L49.9997847,10 L58,10 L58,56 L28.6182588,56.000784 C29.7340711,54.8227411 30.6726333,53.4751085 31.3912515,52.0005801 L54,52 L54,20 L12,20 L11.9999793,29.7967639 C10.5661846,30.2680307 9.22185215,30.9364685 7.99905684,31.7700025 L8,10 L15.9997847,10 Z" id="Rectangle" fill="#000000" fill-rule="nonzero"></path>
        <rect id="Rectangle-Copy-3" fill="#000000" fill-rule="nonzero" x="18" y="5" width="6" height="9" rx="3"></rect>
        <rect id="Rectangle-Copy-3-Copy" fill="#000000" fill-rule="nonzero" x="42" y="5" width="6" height="9" rx="3"></rect>
        <path d="M31,45 C31,52.7319865 24.7319865,59 17,59 C9.2680135,59 3,52.7319865 3,45 C3,37.9470009 8.21549345,32.1121456 15.0001595,31.1417549 L15,30 C13.8954305,30 13,29.1045695 13,28 C13,26.8954305 13.8954305,26 15,26 L19,26 C20.1045695,26 21,26.8954305 21,28 C21,29.1045695 20.1045695,30 19,30 L19.0008423,31.1418982 C21.3725966,31.4812983 23.5525623,32.4151565 25.3849608,33.7876941 L26.1715729,33 C25.3905243,32.2189514 25.3905243,30.9526215 26.1715729,30.1715729 C26.9526215,29.3905243 28.2189514,29.3905243 29,30.1715729 L31.8284271,33 C32.6094757,33.7810486 32.6094757,35.0473785 31.8284271,35.8284271 C31.0473785,36.6094757 29.7810486,36.6094757 29,35.8284271 L28.213058,36.6160433 C29.9633069,38.953138 31,41.8555027 31,45 Z M17,35 C11.4771525,35 7,39.4771525 7,45 C7,50.5228475 11.4771525,55 17,55 C22.5228475,55 27,50.5228475 27,45 C27,39.4771525 22.5228475,35 17,35 Z" id="Oval" fill="#000000" fill-rule="nonzero"></path>
        <path d="M17,37 C18.0543618,37 18.9181651,37.8158778 18.9945143,38.8507377 L19,39 L19,44.171 L21.4142136,46.5857864 C22.1541543,47.3257272 22.1930986,48.5012114 21.5310463,49.2869988 L21.4142136,49.4142136 C20.6742728,50.1541543 19.4987886,50.1930986 18.7130012,49.5310463 L18.5857864,49.4142136 L15.5857864,46.4142136 C15.2523884,46.0808156 15.0488544,45.6418293 15.0077406,45.1758528 L15,45 L15,39 C15,37.8954305 15.8954305,37 17,37 Z" id="Path-44" fill="#000000" fill-rule="nonzero"></path>
    </g>
</svg>