<?xml version="1.0" encoding="UTF-8"?>
<svg width="64px" height="64px" viewBox="0 0 64 64" version="1.1" xmlns="http://www.w3.org/2000/svg" xmlns:xlink="http://www.w3.org/1999/xlink">
    <title>service_form</title>
    <g id="service_form" stroke="none" stroke-width="1" fill="none" fill-rule="evenodd">
        <g id="pencil" transform="translate(29.661283, 16.302936)" fill="#000000" fill-rule="nonzero">
            <polygon id="Path-142" points="2.33871669 19.6970644 19.5466702 2.66421994 23.247307 6.95095526 5.90198764 24.2991905"></polygon>
            <polygon id="Path-144" points="19.859755 2.46224116 23.5732406 6.70407275 26.11488 4.26561223 26.3387167 3.98794475 26.4779677 3.68572837 26.4779677 3.39760145 26.3387167 2.96352388 23.5732406 0.091130147 23.1688613 -4.4408921e-16 22.7946397 -4.4408921e-16 22.4999758 0.091130147 22.1610586 0.370736721"></polygon>
            <polygon id="Path-143" points="2.08195703 20.0470584 3.91640318 22.3653433 5.60363203 24.5203819 1.11022302e-16 25.317252"></polygon>
        </g>
        <g id="clipboard" transform="translate(10.579257, 7.330169)" fill="#000000" fill-rule="nonzero">
            <polygon id="Path-146" points="10.3369881 3.88228056 10.1529085 4.26003415 10.1529085 9.20500381 10.3369881 9.53508927 10.6662029 9.68661016 24.4475156 9.68661016 24.7864164 9.53508927 24.9508606 9.20500381 24.9508606 4.26003415 24.7864164 3.88228056 24.3058172 3.76580178 19.7562639 3.76580178 19.7562639 1.12206727 19.491554 0.707834425 19.0138932 0.333725851 17.9075427 -4.4408921e-16 16.6918171 -4.4408921e-16 15.7772492 0.333725851 15.3176544 0.707834425 14.9658375 1.12206727 14.9658375 3.76580178 10.8200904 3.76580178"></polygon>
            <polygon id="Path-141" points="25.8813286 5.10094968 33.5666926 5.10094968 34.5302774 5.7115644 34.9514215 6.71676196 34.9514215 14.419966 31.4916649 17.9173388 31.4916649 11.0511231 31.4916649 9.75183295 31.4916649 8.43586819 29.7155995 8.43586819 25.8813286 8.43586819"></polygon>
            <polygon id="Path-145" points="9.14357921 5.07497863 1.44936148 5.07497863 0.67731309 5.61682911 0 6.43698296 0 7.3737114 0 45.7654113 0 47.0444854 0.67731309 47.9717698 2.23882228 48.3049665 33.5224237 48.3049665 34.3375604 47.9717698 34.9673583 47.0444854 34.9673583 24.3305629 31.618864 27.6174903 31.618864 42.1093962 31.618864 43.2081486 30.1568122 43.2081486 5.43473666 43.2081486 3.37239945 43.2081486 3.37239945 41.6327685 3.37239945 9.83387785 3.37239945 8.36238193 5.06966638 8.36238193 9.14357921 8.36238193"></polygon>
        </g>
        <g id="form" transform="translate(16.000000, 20.313274)" fill="#000000" fill-rule="nonzero">
            <path d="M8.74002719,0.04928597 L0.707480899,0.04928597 L0.707480899,7.39596052 L8.74002719,7.39596052 L8.74002719,0.04928597 Z M7.74,1.04872573 L7.74,6.39572573 L1.707,6.39572573 L1.707,1.04872573 L7.74,1.04872573 Z" id="Path-147"></path>
            <polygon id="Path-148" points="23.5006733 -8.8817842e-16 23.5006733 1 10.788141 1 10.788141 -8.8817842e-16"></polygon>
            <polygon id="Path-149" points="23.6635826 3.26231763 23.6635826 4.26231763 10.8149974 4.26231763 10.8149974 3.26231763"></polygon>
            <polygon id="Path-149" points="17.5071414 10.1867257 17.5071414 11.1867257 0 11.1867257 0 10.1867257"></polygon>
            <polygon id="Path-149" points="12.8485851 13.1867257 12.8485851 14.1867257 0 14.1867257 0 13.1867257"></polygon>
            <polygon id="Path-149" points="10.511898 16.1867257 10.511898 17.1867257 0 17.1867257 0 16.1867257"></polygon>
            <polygon id="Path-149" points="10.511898 19.1867257 10.511898 20.1867257 0 20.1867257 0 19.1867257"></polygon>
            <polygon id="Path-149" points="10.511898 22.1867257 10.511898 23.1867257 0 23.1867257 0 22.1867257"></polygon>
        </g>
    </g>
</svg>