<?xml version="1.0" encoding="UTF-8"?>
<svg width="64px" height="64px" viewBox="0 0 64 64" version="1.1" xmlns="http://www.w3.org/2000/svg" xmlns:xlink="http://www.w3.org/1999/xlink">
    <title>service_agreement</title>
    <g id="service_agreement" stroke="none" stroke-width="1" fill="none" fill-rule="evenodd">
        <path d="M18.0481302,21.0049158 L28.250253,21.0049158 L24.4788763,28.2735425 C24.4788763,28.2735425 22.6399843,30.508677 24.907686,32.5743887 C27.1753878,34.6401004 29.7645744,31.7918885 29.7645744,31.7918885 L34.2393136,25.21415 L48.0582786,35.706177 C48.0582786,35.706177 50.0171341,38.1771455 48.4633404,40 C46.9095467,41.8228545 45.1315844,40.7378196 45.1315844,40.7378196 C45.1315844,40.7378196 46.8136944,43.5472668 45.1315844,44.9759664 C43.4494745,46.404666 40.6432902,44.9759664 40.6432902,44.9759664 C40.6432902,44.9759664 41.7894581,47.2068697 39.5035617,48.7307564 C37.2176652,50.2546431 35.14737,48 35.14737,48 C35.14737,48 35.5896676,50.205671 33.843852,51.2553438 C32.0980363,52.3050167 29.0753993,50.9678353 29.0753993,50.9678353 L12,37.3060346 L18.0481302,21.0049158 Z" id="Path-131" fill="#000000" fill-rule="nonzero"></path>
        <path d="M45.1220466,19 L30.1715652,19.3208653 L25.3436063,28.8288458 C25.3436063,28.8288458 24.2844136,30.8733565 25.8853343,31.8712565 C27.4862551,32.8691565 29.28175,30.9274299 29.28175,30.9274299 L34.0756468,24.2799769 L48.113916,34.6937986 L50.6559784,33.6328874 L45.1220466,19 Z" id="Path-130" fill="#000000" fill-rule="nonzero"></path>
        <path d="M10.6666812,17.1632788 C11.3150381,15.4572065 13.2885886,14.5789038 15.0666322,15.1987122 L15.0666322,15.1987122 C16.8483012,15.8197843 17.7681304,17.7034176 17.1186752,19.4123801 L10.6603316,36.4067263 C10.0119747,38.1127986 8.03842424,38.9911013 6.26038064,38.3712929 L6.26038064,38.3712929 C4.4787117,37.7502208 3.55888243,35.8665875 4.20833766,34.157625" id="Rectangle-53" fill="#000000" fill-rule="nonzero"></path>
        <path d="M45.2284316,16.4669823 C44.5490847,14.772007 45.4369004,12.8690903 47.2033788,12.2196564 L47.2033788,12.2196564 C48.973459,11.5688984 50.9579611,12.4125324 51.6384589,14.110379 L58.405497,30.9941862 C59.0848439,32.6891614 58.1970282,34.5920782 56.4305498,35.2415121 L56.4305498,35.2415121 C54.6604696,35.8922701 52.6759675,35.0486361 51.9954697,33.3507895" id="Rectangle-53" fill="#000000" fill-rule="nonzero"></path>
    </g>
</svg>