<?xml version="1.0" encoding="UTF-8"?>
<svg width="64px" height="64px" viewBox="0 0 64 64" version="1.1" xmlns="http://www.w3.org/2000/svg" xmlns:xlink="http://www.w3.org/1999/xlink">
    <title>services</title>
    <g id="services" stroke="none" stroke-width="1" fill="none" fill-rule="evenodd">
        <path d="M14.2905469,9.07506287 C14.0522288,9.14226291 13.8284613,9.25313318 13.6306242,9.4020354 L13.4224833,9.56197141 C11.5927715,10.9982611 10.9411323,12.3522 11.6326586,13.808483 L11.645,13.833 L11.6615677,13.9760882 C11.8091539,15.0097081 12.6306426,15.7092508 14.2087086,16.5884567 L14.7049084,16.8581221 L15.2469988,17.1416497 L15.737398,17.3891394 C16.0671449,17.5521023 16.4014166,17.7106986 16.7335923,17.8630916 L17.339,18.134 L17.3238044,18.2136909 C17.2520666,18.5415532 17.1595562,18.8600743 17.0450382,19.1573273 L16.9632792,19.3574249 C16.7953093,19.7449041 16.6005368,20.0561714 16.3773206,20.2927378 L16.286,20.381 L15.8680228,20.0949088 L15.2299544,19.6725507 L14.6588278,19.3047124 C14.5653487,19.2453195 14.4727454,19.1869094 14.3810501,19.1295215 L13.8420322,18.7977726 C13.6661635,18.6914871 13.4941844,18.5896036 13.3263527,18.4924358 L12.8355575,18.2153927 L12.3711925,17.9685254 C11.545029,17.5447464 10.8599121,17.282591 10.3587092,17.2342414 C10.1188987,17.2111076 9.87688131,17.2314934 9.64431953,17.2944163 C9.30249697,17.3869013 9.13720406,17.4385921 8.8667842,17.5601179 C7.76905056,18.0534356 7,19.0221592 7,20.4 C7.03717159,24.118943 8.81861825,28.1333264 12.665974,30.3566507 L12.8342183,30.443524 C13.6657833,30.8241816 14.5663361,31.0940031 15.5404004,31.2758022 L15.7827804,31.3194822 L16.2538024,31.3945691 C16.486584,31.428246 16.7171216,31.4563478 16.9537403,31.4798846 L17.4375523,31.5211712 L17.9523805,31.5520809 L18.513025,31.5744099 L19.4722725,31.5957438 L20.7196227,31.6189968 L21.0082551,31.6379491 L21.062,31.643 L21.1070647,31.6634736 L21.2764158,31.7208965 L21.5297014,31.7825316 L21.6390035,31.8262976 L21.7451093,31.8858377 L21.9141814,32.0028948 L22.1911139,32.2247051 L22.7302922,32.6989295 L23.7672694,33.6606496 L25.9112078,35.6998919 L28.6147966,38.2926404 L34.1734346,44.1279674 L35.515032,45.5655023 L36.4177131,46.5669682 L36.7330793,46.9358265 L37.0130166,47.2858033 L37.1491015,47.4730961 L37.272653,47.6668283 L37.3413939,47.7974072 L37.369,47.86 L37.3716973,48.1973503 C37.378048,49.8937994 37.4367976,50.9532207 37.6880255,52.2570743 L37.7542534,52.5802642 C38.1716894,54.4993196 38.9535891,56.0542403 40.2740453,57.1036495 L40.418,57.212 L40.3818558,57.1827299 C41.6597959,58.2539633 43.1495963,59.0018312 44.8041246,59.4744279 C46.8379899,60.0553777 48.7566839,60.1813625 51.0399451,60.0708119 L52.2741964,59.9971072 C52.6023673,59.9794376 52.921127,59.8811693 53.2022828,59.7109937 C55.9255356,58.0626857 56.3695127,55.5638229 55.0303341,53.4166105 C54.6621765,52.8263139 54.0137207,52.4697411 53.318047,52.4750584 L53.4021679,52.4740528 C53.4092245,52.4737657 53.4131545,52.47336 53.4144902,52.4727474 L53.3956353,52.465884 L53.2993811,52.4392111 L53.0586882,52.3630594 L52.7379023,52.2497845 L52.3420938,52.0988951 L51.8974693,51.9197154 L51.4082862,51.7142084 L50.9553575,51.5180076 L50.0596223,51.1170076 L49.617,50.912 L49.6463191,50.7654878 C49.7054407,50.4915289 49.7841263,50.2118005 49.8853871,49.939928 L49.9641299,49.74145 C50.1543129,49.2913837 50.3901391,48.932593 50.682004,48.6636552 L50.714,48.635 L50.8962338,48.7506837 C51.026774,48.8320643 51.1667736,48.9175645 51.3158814,49.0070519 L52.0471613,49.4362121 L52.9231048,49.9326056 C53.3588637,50.1761136 53.8143134,50.4262612 54.2762307,50.6766311 L55.9055501,51.546784 C56.2738301,51.7396314 56.6930511,51.8129257 57.1049171,51.7564748 C57.4825089,51.7047215 57.9305411,51.5783428 58.4098259,51.304143 C59.3523113,50.7649451 60,49.8308591 60,48.6 C60,45.8537209 56.9022153,39.9124977 54.2219334,38.5832439 C54.1066096,38.5260505 53.9860335,38.4801245 53.861883,38.4461052 C51.1732093,37.7093632 48.6997585,37.3861411 45.2735028,37.2028555 L45.1615871,37.2000065 L45.0255082,37.2028969 C44.8881078,37.1905695 44.6962209,37.1041732 44.4395213,36.9260788 L44.2346828,36.7750392 C44.1984639,36.7469085 44.1611919,36.7172762 44.1228468,36.6861078 L43.8797359,36.4803891 L43.6099,36.2361519 C43.5626465,36.1921439 43.5142391,36.1464622 43.4646577,36.0990723 L43.152919,35.7939582 L42.8120351,35.4461937 L42.1539844,34.7419467 L40.2928548,32.7024891 C39.3275771,31.6511491 38.4828661,30.7680283 37.600864,29.9036281 L37.1894709,29.5049133 L32.2906323,24.8803882 L31.7433501,24.3500587 L31.1026268,23.7115002 L30.7306811,23.3293259 L30.4021411,22.9812663 C30.3509656,22.9260654 30.3015716,22.8722605 30.2539456,22.8198391 L29.9892981,22.5218092 C29.9486902,22.4748705 29.9098234,22.4292897 29.872684,22.3850543 L29.6704696,22.1356838 C29.6401862,22.0967788 29.6116032,22.0591937 29.5847072,22.0229159 L29.518,21.929 L29.5079177,21.81738 L29.4981873,21.6113237 L29.4934753,21.3349247 L29.4976433,20.6953065 L29.5173165,19.6838386 L29.5211348,18.9313323 L29.5130461,18.4943925 L29.4951584,18.0842422 C29.491299,18.016926 29.4869852,17.9498334 29.4821939,17.882518 L29.4475315,17.4723809 C29.212262,15.0484772 28.3568952,13.1171182 26.5330226,11.7497671 L26.4382335,11.6829081 C22.7338519,9.22775131 17.1521102,8.26817023 14.2905469,9.07506287 Z M23.9572509,14.8439859 L24.171,14.981 L24.133644,14.9502329 C24.9275866,15.5454491 25.3298643,16.4537643 25.4662415,17.8588137 L25.492348,18.172185 C25.4959566,18.2244559 25.4992036,18.2769944 25.5021037,18.3301701 L25.5154593,18.6598296 L25.5211928,19.0225283 L25.5200069,19.4360108 L25.4958822,20.7338791 L25.4907974,21.2034051 C25.4905181,21.2760772 25.4905435,21.3461059 25.4909047,21.4137131 L25.4973491,21.7920709 L25.5133414,22.1229541 C25.5346039,22.4336479 25.572422,22.6890948 25.6334973,22.9371901 L25.7025732,23.1846088 L25.7886431,23.4377698 C25.8307041,23.5526216 25.8832122,23.663373 25.9455074,23.7686317 C26.2497808,24.2827557 26.6901763,24.8483056 27.3144568,25.5343993 L27.7114734,25.9610738 L28.154915,26.4199964 C28.2328181,26.4993552 28.312751,26.5801959 28.3947616,26.6625876 L28.9121394,27.1761031 L30.3208913,28.5272989 L34.4572942,32.4263843 C35.1665589,33.1089662 35.8453786,33.8002679 36.5842127,34.586575 L39.7250327,38.0051768 C41.6858408,40.0772078 42.9862617,41.0360053 44.6680699,41.1868946 L44.8731128,41.2002484 L44.9757119,41.2031401 L45.132,41.201 L45.6088312,41.2283236 C48.3066938,41.3909334 50.3142773,41.657902 52.3887688,42.1932073 L52.566,42.24 L52.6217012,42.2783928 C53.1583553,42.6788704 53.980089,43.7796271 54.7171049,45.1931454 L54.8279227,45.4094363 C54.991591,45.7344868 55.1434788,46.0612968 55.2799857,46.376304 L55.438,46.752 L54.5652102,46.2672363 L53.8266517,45.844396 L53.4007762,45.5931643 L53.0330487,45.3691544 L52.672,45.138 L52.6468065,45.0969104 C52.2187077,44.4460625 51.4367463,44.0378296 50.4374259,44.3307527 C48.2967367,44.9582363 46.8970257,46.5030749 46.1369455,48.5437956 C45.6803305,49.7697499 45.5104208,50.9814602 45.49991,52.0051342 L45.499877,52.1200903 L46.5239866,53.8600303 L46.6196654,54.005367 C46.6237218,54.0095738 46.6259099,54.0103276 46.6265526,54.0081558 L46.6201049,53.9804159 L46.5903655,53.9004561 L46.8479372,54.0281949 L47.4601943,54.3206148 C48.0728288,54.6094221 48.7288295,54.9093516 49.3573636,55.1849322 L49.827299,55.3884958 L50.4082226,55.6333618 L50.9339239,55.8464619 C51.0172154,55.8793456 51.0984133,55.9109163 51.1776214,55.9411794 L51.444,56.04 L51.2903652,56.0510676 C49.2008134,56.179086 47.54801,56.0982073 45.9027388,55.6282549 C44.8884813,55.3385441 43.9948263,54.9143184 43.231568,54.3397932 L42.8341955,54.0261538 C42.2862168,53.6321627 41.8603218,52.7694285 41.6157791,51.5002704 C41.5047647,50.9241144 41.4420598,50.3874299 41.4079954,49.7507144 L41.3853524,49.1772072 L41.3739849,48.5351829 L41.367434,47.7204351 L41.36365,47.5967493 C41.3591049,47.4779554 41.3520003,47.3740816 41.339063,47.2686392 L41.3154847,47.1059779 C41.2973155,47.000672 41.2732253,46.900186 41.2370917,46.7958206 L41.198,46.697 L41.1597931,46.5895901 C40.9645916,46.0828543 40.6247474,45.520026 40.1095307,44.8374324 L39.8109263,44.4528483 C39.7581987,44.3866438 39.7039755,44.3193538 39.6482336,44.2509305 L39.2953745,43.8264083 L38.9049602,43.3723904 C38.8367,43.2941352 38.7668288,43.2145553 38.6953235,43.1336029 L38.0070332,42.3666824 L37.2022002,41.4921651 L36.1424042,40.3649121 L31.4450501,35.4673105 L27.6077246,31.7659467 L26.8591285,31.0557469 L26.2300491,30.4713594 L25.6941719,29.9878078 C24.4615136,28.894292 23.5936404,28.2711624 22.7338526,27.9759128 L22.588,27.929 L22.5258146,27.8989032 C22.2867574,27.7841534 22.0534738,27.7162216 21.7274576,27.6745114 L21.4640189,27.6478235 L21.1565705,27.6290378 L20.7958774,27.6162234 L20.1348026,27.6039742 L19.5404126,27.5962952 L18.9298862,27.584308 L18.3924937,27.5669699 L17.9131421,27.5426718 C17.8372484,27.5379527 17.7631442,27.5328766 17.6905151,27.52741 L17.2699257,27.4896554 C17.1339525,27.4753295 17.001364,27.4591733 16.8696449,27.4409185 L16.4745798,27.3795905 C16.4083317,27.3682306 16.3416721,27.3562789 16.2742866,27.3437021 L15.9455569,27.2767534 C15.5160278,27.1816336 15.1215969,27.0629595 14.7621462,26.9191094 L14.584,26.843 L14.409435,26.7367355 C12.6376892,25.6074913 11.5735378,23.7966498 11.1771056,21.9530614 L11.161,21.872 L10.9868073,21.7725448 C11.6870536,22.1641909 12.5370346,22.6869709 13.312015,23.1981661 L13.8060661,23.5297595 L14.1084656,23.7399 L14.361189,23.9221524 L14.52,24.043 L14.5791511,24.1098487 C15.0650602,24.6247913 15.8163182,24.8790527 16.5778235,24.6648677 L16.7626598,24.6128796 C18.7545473,23.9869451 20.0335652,22.5266574 20.7776209,20.5953211 C21.3144444,19.2018951 21.49314,17.8593058 21.4999507,16.8890385 C21.5053585,16.1186412 21.0685061,15.4190093 20.3862631,15.0820488 L20.2289232,15.012531 L19.7156217,14.8017998 L19.2183584,14.589666 L18.9491091,14.4719115 C18.2834765,14.1783393 17.6467068,13.8786197 17.0804256,13.5865764 L16.8392507,13.4603245 C16.6829112,13.3772044 16.5356194,13.2962718 16.3983374,13.2180786 L16.0174825,12.9922693 C15.9593322,12.9561881 15.9039248,12.9209298 15.8513807,12.8865632 L15.783,12.84 L15.9460294,12.8188748 C17.8569397,12.6041247 21.4733674,13.3161931 23.9572509,14.8439859 Z" id="wrench" fill="#000000" fill-rule="nonzero" transform="translate(33.500000, 34.451233) scale(-1, 1) translate(-33.500000, -34.451233) "></path>
        <path d="M33,4 C34.0791309,4 34.958645,4.85466136 34.9985836,5.92402545 C37.3252888,6.59668843 39.4030643,7.63447466 41.2269178,9.0304008 C40.5443809,9.3643794 39.8868795,9.73767624 39.267288,10.1495341 C37.5539431,11.4340231 36.4404928,13.0731874 35.8548811,15.9934354 L36,16 C34.8954305,16 34,15.1045695 34,14 L34,10 C34,9.93500509 34.0031003,9.8707343 34.0091611,9.80732745 C32.7671599,9.43563653 31.4310605,9.19315733 30.0012359,9.0781006 L30,15 C30,16.1045695 29.1045695,17 28,17 C26.8954305,17 26,16.1045695 26,15 L25.9997633,9.07802022 C24.5695619,9.19304437 23.2331297,9.43554991 21.9892879,9.80750908 C21.9968997,9.8707343 22,9.93500509 22,10 L22,14 C22,15.1045695 21.1045695,16 20,16 C18.8954305,16 18,15.1045695 18,14 L18.0000901,11.6489687 C13.7157397,14.4715729 11.013511,19.5797067 9.80823534,27.1158513 C9.74070669,27.5380831 9.53963178,27.9275573 9.23451349,28.2271279 L9.23451349,28.2271279 L8,29.439 L8,30.562 L8.44997508,30.644208 C10.9063865,31.0791439 13.6968747,31.410117 16.8197291,31.6361408 L16.8197291,31.6361408 L18.1784392,31.7265798 L19.5778173,31.8041506 C19.8144344,31.8160058 20.0527446,31.827324 20.2927475,31.838105 L20.2927475,31.838105 L21.7530715,31.8963412 C22.6988449,31.9294187 23.6694628,31.954594 24.6648898,31.9718469 L23.4147965,33.3432724 L21.4566111,35.214577 C19.7927955,35.3065393 18.3415773,35.4331359 16.9040858,35.6508148 C12.5470667,35.3503897 8.77179985,34.8518062 5.57366585,34.1540315 C4.65499282,33.9535938 4,33.1402848 4,32.2 L4,32.2 L4,28.6 C4,28.0632061 4.21578304,27.5489446 4.59881984,27.1728721 L4.59881984,27.1728721 L5.968,25.827 L6.09698642,25.1196112 C8.07942099,14.6962912 13.10262,8.20659559 21.0032755,5.92372671 L21,6 C21,4.8954305 21.8954305,4 23,4 L33,4 Z M31.668,25 L28.4280597,28.0595928 L28.0072254,28.4674579 C27.8269907,28.6440872 27.6485465,28.8211529 27.4705917,28.999896 L15,29 C13.8954305,29 13,28.1045695 13,27 C13,25.8954305 13.8954305,25 15,25 L31.668,25 Z" id="Path-49" fill="#000000" fill-rule="nonzero"></path>
    </g>
</svg>