<?xml version="1.0" encoding="UTF-8"?>
<svg width="32px" height="32px" viewBox="0 0 32 32" version="1.1" xmlns="http://www.w3.org/2000/svg" xmlns:xlink="http://www.w3.org/1999/xlink">
    <title>service-form-settings</title>
    <g id="service-form-settings" stroke="none" stroke-width="1" fill="none" fill-rule="evenodd">
        <path d="M6.59838507,3.99889691 C6.32806589,4.57424329 6.14106584,5.23827889 6.0545563,5.99958939 L4,6 L4,28 L11.027,27.9998969 L11.5273547,28.4986732 L11.6591868,28.6188504 C11.9319588,28.8453829 12.2572638,28.988653 12.5970726,29.0426809 C12.9260531,29.0949872 13.2802401,29.1207904 14.1073703,28.682085 C14.2778944,28.583506 14.4418644,28.4789497 14.676873,28.3388047 C14.9312375,28.464053 15.19971,28.5968107 15.4949551,28.7659273 C15.5490987,29.0478836 15.6193326,29.331319 15.7055848,29.6154601 C15.7454954,29.7511876 15.8002859,29.8804532 15.8678799,30.0015558 L3,30 C2.44771525,30 2,29.5522847 2,29 L2,29 L2,5 C2,4.44771525 2.44771525,4 3,4 L3,4 Z M21,4 C21.5522847,4 22,4.44771525 22,5 L22,5 L22.0016444,7.79140945 C21.8859895,7.63493586 21.7474244,7.49714676 21.5913709,7.38219106 C21.2622307,7.13973223 20.855757,7 20.4290262,7 L20.4290262,7 L20,6.99989691 L20,6 L17.9454437,5.99958939 C17.8589342,5.23827889 17.6719341,4.57424329 17.4016149,3.99889691 Z" id="Rectangle" fill="#000000" fill-rule="nonzero"></path>
        <path d="M12,2 C8.78104858,2 7,3.78104858 7,7 C7,7.55228475 7.44771525,8 8,8 L16,8 C16.5522847,8 17,7.55228475 17,7 C17,3.78104858 15.2189514,2 12,2 Z M12.207355,4.00296477 C13.76587,4.048522 14.608868,4.62134898 14.8909807,5.87607734 L14.915,6 L9.084,6 L9.10901934,5.87607734 C9.40339779,4.56679557 10.3084945,4 12,4 L12.207355,4.00296477 Z" id="Path" fill="#000000" fill-rule="nonzero"></path>
        <g id="Group" transform="translate(8.000000, 8.000000)" fill="#000000" fill-rule="nonzero">
            <path d="M12.4290262,0 L9.5738228,0 C9.15220503,0 8.78061958,0.273335447 8.66054198,0.68145693 L8.57778223,0.969845802 C8.50156891,1.25905589 8.44503983,1.55049709 8.4085993,1.84207663 L8.38315008,2.09078571 L8.2831635,2.11948799 C7.71514944,2.29290349 7.16718046,2.51972847 6.64393409,2.79835019 L6.55488483,2.84742857 L6.36221245,2.69099798 C6.05148838,2.44992024 5.71322417,2.23293274 5.35010188,2.04202392 C4.96949606,1.85160245 4.52389657,1.91909398 4.23171322,2.21117543 L2.21207672,4.2301076 C1.91976403,4.52231835 1.85218829,4.96816269 2.03545724,5.33457276 L2.18451219,5.60562845 C2.33830395,5.87147601 2.50626605,6.12168419 2.68803784,6.35611823 L2.84807114,6.55285714 L2.79905193,6.64227462 C2.52012942,7.16594005 2.29327578,7.71434032 2.11992135,8.28342606 L2.09068063,8.38514286 L2.07504065,8.38621167 C1.61605977,8.42785088 1.14716163,8.5210471 0.67607434,8.66334038 C0.27206367,8.7821033 0,9.15867547 0,9.57499486 L0,12.4250051 C0,12.8467619 0.273506787,13.218321 0.681632437,13.3383161 L0.958062273,13.4182354 C1.23549985,13.492245 1.51565343,13.5484481 1.79575795,13.5861489 L2.09146631,13.618 L2.12026323,13.7196653 C2.29375226,14.2875252 2.52067218,14.8353423 2.79940844,15.3584398 L2.84807114,15.4455714 L2.69765364,15.631059 C2.4568743,15.9411978 2.23873736,16.2814384 2.04394696,16.6489428 C1.85069864,17.0111509 1.91748518,17.4517883 2.1903113,17.7472468 L3.21864153,18.7803011 L4.23286965,19.7899782 C4.52389657,20.080906 4.96949606,20.1483976 5.33575556,19.9653317 L5.60688736,19.8163386 C5.87281054,19.66261 6.12309284,19.4947147 6.35759883,19.3130131 L6.55488483,19.1517857 L6.64506157,19.2025077 C7.16866062,19.4815514 7.71576951,19.7081351 8.28361871,19.8811668 L8.38393576,19.9092143 L8.40912489,20.1504549 C8.45807617,20.5387003 8.54288413,20.9310415 8.66246994,21.3249937 C8.78104464,21.7281092 9.15764009,22 9.5738228,22 L12.4290262,22 C12.8506439,22 13.2222294,21.7266646 13.342307,21.3185431 L13.4250667,21.0301542 C13.50128,20.7409441 13.5578091,20.4495029 13.5942497,20.1579234 L13.6188869,19.9092143 L13.7216017,19.8805935 C14.2913015,19.7070775 14.839691,19.480059 15.3620794,19.2011208 L15.4479379,19.1517857 L15.6417963,19.3095717 C15.952986,19.5508367 16.2913108,19.7678128 16.6525348,19.9578644 C17.0126713,20.1498836 17.4530645,20.0831806 17.7484834,19.8105814 L18.7788546,18.7814572 L19.7877274,17.7687364 C20.0788861,17.4776816 20.1464618,17.0318373 19.9631929,16.6654272 L19.8122948,16.3940987 C19.6570746,16.1281625 19.488908,15.8783811 19.3079713,15.6445577 L19.1492518,15.4487143 L19.2009953,15.3582873 C19.4816461,14.8339398 19.7094459,14.2853952 19.8816869,13.71854 L19.9082137,13.6219286 L19.9231871,13.6217688 C20.3901631,13.5794089 20.8615897,13.4844781 21.3290512,13.3388706 C21.7265865,13.2220941 21.9986501,12.8455219 21.9986501,12.4292025 L21.9986501,9.57919223 C22.0223859,9.17391403 21.7306468,8.78749446 21.3170177,8.66588127 L21.0409625,8.58662288 C20.7643783,8.51333943 20.4863939,8.45802041 20.2086883,8.42102225 L19.9066423,8.38828571 L19.8786484,8.28954036 C19.7053951,7.72214158 19.4787349,7.17416275 19.2001247,6.64963547 L19.1484662,6.55757143 L19.3036392,6.36742908 C19.5444579,6.05700068 19.7623269,5.71820437 19.9547032,5.35525455 C20.1464618,4.97236005 20.0788861,4.52651572 19.7865734,4.23430496 L18.7788546,3.22693756 L17.7722898,2.21652882 C17.4789524,1.92329134 17.0333529,1.85579981 16.6670934,2.0388657 L16.3956889,2.18970108 C16.1296772,2.34485744 15.8798218,2.51295716 15.6459266,2.69382406 L15.4495092,2.85292857 L15.3566308,2.80080027 C14.8319574,2.52080092 14.2838002,2.29287689 13.7171987,2.1192597 L13.6188869,2.09078571 L13.5938629,1.8419905 C13.5448447,1.45152429 13.4596727,1.05921031 13.3389251,0.670270602 C13.2218043,0.27189075 12.8452089,0 12.4290262,0 Z M11.782552,2 C11.846496,2.34264032 11.8701369,2.62667844 11.8661431,2.90417296 L11.8661431,2.90417296 L11.8550981,3.67160232 L12.6040139,3.83907957 C13.4283624,4.02342554 14.2104232,4.34879847 14.9292787,4.80613346 L14.9292787,4.80613346 L15.5745995,5.21668573 L16.1047719,4.67557206 C16.3971332,4.40066864 16.5813595,4.24842426 16.755603,4.12493187 L16.755603,4.12493187 L17.3745709,4.640963 L17.9194013,5.18531225 C17.7176785,5.48059851 17.5333545,5.69947336 17.3352162,5.89161769 L17.3352162,5.89161769 L16.7841401,6.426023 L17.1948791,7.07456178 C17.6504272,7.79385213 17.9736286,8.57570585 18.159151,9.4048849 L18.159151,9.4048849 L18.3242596,10.1428263 L19.1550139,10.1426554 C19.5260454,10.157432 19.7496392,10.1798557 19.9461111,10.2137699 L19.9461111,10.2137699 L20,11.7836519 C19.6840142,11.8441053 19.4138556,11.8694861 19.1498496,11.8694861 L19.1498496,11.8694861 L18.3210073,11.8694861 L18.1582969,12.611253 C17.978348,13.4316073 17.6541938,14.2115758 17.1971988,14.9258986 L17.1971988,14.9258986 L16.7837101,15.5722174 L17.3266589,16.1039128 C17.5990147,16.3934142 17.7509993,16.5768514 17.8738935,16.7495826 L17.8738935,16.7495826 L16.8133792,17.9176861 C16.523802,17.719424 16.3061115,17.5357004 16.1132477,17.3369841 L16.1132477,17.3369841 L15.5766006,16.7840524 L14.9274518,17.1991364 C14.218333,17.6525669 13.4380113,17.9752462 12.6048708,18.1607447 L12.6048708,18.1607447 L11.8551301,18.3276742 L11.8661897,19.0883296 C11.8554286,19.4833964 11.833816,19.7192507 11.7988883,19.926934 L11.7988883,19.926934 L10.2226786,20 C10.1581876,19.6524647 10.134155,19.370184 10.1380766,19.0957455 L10.1380766,19.0957455 L10.149052,18.3276662 L9.39934745,18.1607447 C8.56911326,17.9758933 7.79161693,17.6539204 7.07493952,17.1979712 L7.07493952,17.1979712 L6.42632973,16.7853264 L5.89628394,17.3317338 C5.60570789,17.6070924 5.42268181,17.7589592 5.24958463,17.8814671 L5.24958463,17.8814671 L4.62313333,17.3647797 L4.07773179,16.8173092 C4.26166843,16.5455051 4.4538676,16.3151366 4.66153431,16.115746 L4.66153431,16.115746 L5.21937406,15.5801378 L4.80409531,14.9277259 C4.34979732,14.2140141 4.0266175,13.4330158 3.84097705,12.6033089 L3.84097705,12.6033089 L3.67586806,11.8653658 L2.85752398,11.865544 C2.48259247,11.850319 2.25650004,11.8272323 2.05778086,11.792522 L2.05778086,11.792522 L2,10.2231098 C2.31607608,10.1638966 2.58210691,10.1387077 2.83800778,10.1387077 L2.83800778,10.1387077 L3.67659641,10.1387077 L3.84116851,9.39993814 C4.02657815,8.56762822 4.34933444,7.78672856 4.80409531,7.0722895 L4.80409531,7.0722895 L5.21722808,6.42324907 L4.67026712,5.892941 C4.39788786,5.60565851 4.24631767,5.42353603 4.12448565,5.25217676 L4.12448565,5.25217676 L5.19053943,4.08152072 C5.48097584,4.28064909 5.69790617,4.46404743 5.89086998,4.66292765 L5.89086998,4.66292765 L6.42626017,5.21473328 L7.07493952,4.80204429 C7.78889999,4.34782353 8.57018472,4.02469374 9.40020435,3.83907957 L9.40020435,3.83907957 L10.1490778,3.67161181 L10.1380286,2.91168582 C10.1487896,2.51662069 10.1704021,2.28076673 10.2053296,2.07308407 L10.2053296,2.07308407 L11.782552,2 Z" id="Path"></path>
            <path d="M11,6 C8.24137931,6 6,8.24137931 6,11 C6,13.7549523 8.24504769,16 11,16 C13.7549523,16 16,13.7586207 16,11 C16,8.24137931 13.7549523,6 11,6 Z M11,14 C9.34450507,14 8,12.6554949 8,11 C8,9.34684334 9.34684334,8 11,8 C12.6531567,8 14,9.34450507 14,11 C14,12.6531567 12.6531567,14 11,14 Z" id="Shape"></path>
        </g>
    </g>
</svg>