<?xml version="1.0" encoding="UTF-8"?>
<svg width="32px" height="32px" viewBox="0 0 32 32" version="1.1" xmlns="http://www.w3.org/2000/svg" xmlns:xlink="http://www.w3.org/1999/xlink">
    <title>settings</title>
    <g id="settings" stroke="none" stroke-width="1" fill="none" fill-rule="evenodd">
        <g id="Group" transform="translate(3.000000, 3.000000)" fill="#000000" fill-rule="nonzero">
            <path d="M14.8195556,-1 L11.1854778,-1 C10.6488464,-1 10.1758957,-0.652118522 10.023062,-0.13269118 L9.91772609,0.234349203 C9.82072245,0.602434767 9.74877272,0.973359927 9.70239153,1.34446117 L9.67,1.661 L9.54273795,1.69753017 C8.81977463,1.9182408 8.12232451,2.20692714 7.45634112,2.5615366 L7.343,2.624 L7.09776828,2.42490652 C6.7022814,2.1180803 6.27174168,1.8419144 5.80956282,1.59893953 C5.32513106,1.35658493 4.75797593,1.44248324 4.38608752,1.81422328 L1.81551188,4.38377331 C1.44345884,4.7556779 1.35744903,5.32311614 1.59071215,5.78945624 L1.78042798,6.13443621 C1.97617278,6.47278764 2.18995347,6.79123442 2.42131102,7.08960502 L2.625,7.34 L2.56260878,7.45380407 C2.20759865,8.12028734 1.91886133,8.81825132 1.69821733,9.54254226 L1.661,9.672 L1.64109357,9.67336031 C1.05690671,9.72635566 0.460097271,9.84496904 -0.139498502,10.0260696 C-0.653719744,10.1772224 -1,10.656496 -1,11.1863571 L-1,14.8136429 C-1,15.3504243 -0.651882957,15.8233176 -0.132424204,15.9760387 L0.21941327,16.0777542 C0.572533389,16.1719482 0.929110406,16.2434795 1.28562499,16.2914622 L1.662,16.332 L1.69865247,16.4613922 C1.91946779,17.184123 2.20828947,17.8813448 2.56306255,18.5471052 L2.625,18.658 L2.43354993,18.8940752 C2.12708809,19.2887973 1.84944531,19.7218307 1.60151778,20.1895636 C1.35555302,20.6505557 1.44055834,21.2113669 1.78780903,21.5874051 L3.09665874,22.9022014 L4.38755941,24.187245 C4.75797593,24.5575168 5.32513106,24.6434151 5.79130294,24.4104221 L6.13639712,24.2207946 C6.47486182,24.02514 6.79341894,23.811455 7.0918961,23.5801985 L7.343,23.375 L7.45777616,23.4395553 C8.12420845,23.7947017 8.82056385,24.083081 9.54331734,24.3033032 L9.671,24.339 L9.7030605,24.6460334 C9.76536527,25.140164 9.87330809,25.6395074 10.0255159,26.140901 C10.1764367,26.6539572 10.6557641,27 11.1854778,27 L14.8195556,27 C15.356187,27 15.8291377,26.6521185 15.9819715,26.1326912 L16.0873073,25.7656508 C16.184311,25.3975652 16.2562607,25.0266401 16.3026419,24.6555388 L16.334,24.339 L16.4647345,24.3025735 C17.1898434,24.0817351 17.8878287,23.7928023 18.5527201,23.4377901 L18.662,23.375 L18.9087413,23.5758185 C19.3048209,23.882883 19.7354376,24.1590345 20.1952004,24.4009184 C20.653579,24.6453064 21.2141076,24.5604117 21.5901142,24.2134672 L22.9015616,22.9036728 L24.1856462,21.6147554 C24.5562304,21.2443221 24.6422402,20.6768839 24.4089771,20.2105438 L24.2169152,19.8652165 C24.0193524,19.5267522 23.8053115,19.2088487 23.5750167,18.9112553 L23.373,18.662 L23.4388586,18.5469111 C23.7960685,17.8795597 24.0860101,17.1814121 24.3052369,16.45996 L24.339,16.337 L24.358058,16.3367966 C24.952421,16.2828841 25.5524486,16.162063 26.1474296,15.9767444 C26.6534089,15.8281197 26.9996892,15.3488461 26.9996892,14.818985 L26.9996892,11.1916992 C27.0298999,10.6758906 26.6585769,10.1840839 26.1321134,10.0293034 L25.7807527,9.92842912 C25.4287188,9.83515927 25.0749027,9.76475325 24.7214414,9.71766468 L24.337,9.676 L24.3013695,9.55032409 C24.0808543,8.8281802 23.7923631,8.13075259 23.4377506,7.46317241 L23.372,7.346 L23.5695029,7.10400065 C23.8760148,6.70890996 24.1533165,6.27771465 24.3981714,5.81577852 C24.6422402,5.32845824 24.5562304,4.76102 24.1841773,4.38911541 L22.9015616,3.10701144 L21.6204148,1.82103668 C21.2470575,1.44782534 20.6799024,1.36192703 20.2137305,1.59491998 L19.8682893,1.78689229 C19.5297119,1.98436402 19.2116981,2.19830911 18.9139983,2.42850334 L18.664,2.631 L18.5457852,2.56465489 C17.8779854,2.20829208 17.1802958,1.91820696 16.4591304,1.69723961 L16.334,1.661 L16.3021496,1.34435155 C16.2397597,0.847394557 16.1313535,0.348085852 15.9776671,-0.146928325 C15.8285967,-0.653957227 15.3492693,-1 14.8195556,-1 Z M14.212,1 L14.2375228,1.10900465 C14.3289059,1.55710745 14.3709476,1.99783476 14.3647709,2.42694689 L14.3530699,3.23984403 L15.1464604,3.41724217 C16.2498786,3.66396092 17.2967225,4.09936203 18.2589413,4.7114388 L18.9425465,5.14628674 L19.5097375,4.56775134 L19.7442537,4.34122192 C19.9860861,4.11990997 20.2497175,3.91441096 20.5338026,3.7261692 L20.633,3.663 L21.4861614,4.52003584 L22.341,5.374 L22.2723756,5.48477727 C22.0238411,5.85883277 21.7434872,6.19934303 21.4396946,6.49390428 L20.8558861,7.05997263 L21.2910229,7.74693827 C21.9006838,8.70943124 22.3332248,9.75564118 22.5815097,10.8651778 L22.7564172,11.646805 L23.6642598,11.646805 L23.9730893,11.6550196 C24.2833509,11.6714574 24.5977974,11.7125901 24.9154249,11.7786479 L25.001,11.798 L24.999,14.213 L24.9145911,14.2332776 C24.4830613,14.3241317 24.0600917,14.3692213 23.6482271,14.3692213 L22.7529786,14.3692213 L22.5806049,15.1549318 C22.3395998,16.2534767 21.9055381,17.2979781 21.2934803,18.2545437 L20.855451,18.9391259 L21.4360233,19.5078597 L21.6626366,19.7422752 C21.8840295,19.9840025 22.089601,20.2475158 22.2779072,20.5314705 L22.341,20.632 L20.633,22.343 L20.532809,22.2803029 C20.1527522,22.0293774 19.8112913,21.748234 19.5132106,21.4411509 L18.9446984,20.8554691 L18.2570059,21.2951375 C17.307579,21.902143 16.2628595,22.3342262 15.1473682,22.5825553 L14.3531421,22.7593648 L14.3647694,23.5729503 L14.360399,23.8979123 C14.3470276,24.2242055 14.3066354,24.5543173 14.2390577,24.886674 L14.213,25 L11.794,25 L11.7680096,24.8838354 C11.6766683,24.4338347 11.6342115,23.99646 11.640264,23.5729503 L11.6518913,22.7593648 L10.8576652,22.5825553 C9.74626819,22.3351377 8.70547456,21.9041758 7.74609212,21.2939033 L7.05900429,20.85684 L6.49182288,21.4411509 L6.25846305,21.6684929 C6.01785358,21.8902356 5.75563888,22.0950263 5.47311216,22.2814738 L5.371,22.344 L4.51058704,21.4877088 L3.656,20.63 L3.6722776,20.6049596 C3.93830845,20.1890074 4.23381736,19.8245893 4.55641647,19.51489 L5.14739039,18.9475474 L4.70744424,18.2564793 C4.09932965,17.3012519 3.66667562,16.255987 3.41817949,15.1455064 L3.24327205,14.3638792 L2.35146213,14.3638792 L2.04059213,14.3554358 C1.7278613,14.33856 1.40987999,14.2964195 1.08963621,14.2293093 L1,14.208 L1,11.795 L1.0874854,11.7754482 C1.51843287,11.686177 1.93606897,11.6414629 2.33542943,11.6414629 L3.24403628,11.6414629 L3.41838232,10.8589273 C3.66657849,9.74492252 4.0986885,8.69975518 4.70744424,7.7435207 L5.14509552,7.05605736 L4.56010442,6.4886687 L4.33267837,6.25540916 C4.11085455,6.01490443 3.90599196,5.75280775 3.71948122,5.47041168 L3.657,5.37 L5.372,3.656 L5.48073486,3.72396271 C5.8538537,3.97126753 6.19369056,4.25161881 6.49171631,4.55873927 L7.05889692,5.14322826 L7.74609212,4.7060967 C8.70176692,4.09818265 9.7475404,3.66566347 10.858573,3.41724217 L11.6518803,3.23986266 L11.640264,2.42704968 L11.6446345,2.10208769 C11.6580058,1.77579453 11.698398,1.44568271 11.7659758,1.11332605 L11.791,1 L14.212,1 Z" id="Path"></path>
            <path d="M13,5.57142857 C8.90147783,5.57142857 5.57142857,8.90147783 5.57142857,13 C5.57142857,17.093072 8.90692799,20.4285714 13,20.4285714 C17.093072,20.4285714 20.4285714,17.0985222 20.4285714,13 C20.4285714,8.90147783 17.093072,5.57142857 13,5.57142857 Z M13,18.5714286 C9.92550941,18.5714286 7.42857143,16.0744906 7.42857143,13 C7.42857143,9.92985191 9.92985191,7.42857143 13,7.42857143 C16.0701481,7.42857143 18.5714286,9.92550941 18.5714286,13 C18.5714286,16.0701481 16.0701481,18.5714286 13,18.5714286 Z" id="Shape"></path>
        </g>
    </g>
</svg>