<?xml version="1.0" encoding="UTF-8"?>
<svg width="64px" height="64px" viewBox="0 0 64 64" version="1.1" xmlns="http://www.w3.org/2000/svg" xmlns:xlink="http://www.w3.org/1999/xlink">
    <title>settings</title>
    <g id="settings" stroke="none" stroke-width="1" fill="none" fill-rule="evenodd">
        <path d="M55.3842292,32.0066354 C55.3840833,28.9422475 57.3009167,26.3267336 60,25.2892779 C59.2873125,22.3046606 58.1104375,19.4997096 56.549,16.9565287 C55.6193125,17.370111 54.619625,17.5769022 53.620375,17.5769022 C51.7798125,17.5769022 49.9398333,16.8752998 48.5350208,15.4707826 C46.3675,13.3032675 45.8738542,10.0974216 47.0504375,7.45434515 C44.5078333,5.89189091 41.70375,4.7138523 38.719125,4 C37.6832708,6.7021388 35.0664375,8.62144625 32,8.62144625 C28.9338542,8.62144625 26.3170208,6.7021388 25.2810208,4 C22.2963958,4.7138523 19.4924583,5.89189091 16.9498542,7.45449101 C18.1264375,10.0972758 17.6327917,13.3029758 15.465125,15.4709285 C14.0606042,16.8754456 12.2203333,17.5771938 10.3797708,17.5771938 C9.38022917,17.5771938 8.38097917,17.3702568 7.451,16.9566746 C5.88970833,19.4997096 4.71254167,22.3045148 4,25.2892779 C6.69922917,26.3264418 8.61591667,28.9422475 8.61591667,32.0066354 C8.61591667,35.070294 6.70083333,37.6847872 4.00320833,38.7228262 C4.7175,41.7074434 5.89554167,44.5112278 7.45829167,47.0539712 C8.3859375,46.6425765 9.383,46.4368061 10.379625,46.4368061 C12.2203333,46.4368061 14.0603125,47.1385542 15.4649792,48.5430715 C17.6292917,50.7073783 18.1248333,53.9069533 16.9546667,56.5476964 C19.4977083,58.1095673 22.3015,59.2868768 25.286125,60 C26.325625,57.3051528 28.9386667,55.392262 32,55.392262 C35.0613333,55.392262 37.674375,57.3048612 38.7137292,60 C41.6986458,59.2868768 44.5022917,58.1094215 47.0454792,56.5474047 C45.8754583,53.9069533 46.3708542,50.7073783 48.5353125,48.5430715 C49.9395417,47.1384085 51.7798125,46.4366603 53.6202292,46.4366603 C54.6171458,46.4366603 55.6137708,46.6424306 56.5417083,47.0539712 C58.1044583,44.5112278 59.2825,41.7074434 59.9967917,38.7228262 C57.2991667,37.6846414 55.3842292,35.0700024 55.3842292,32.0066354 L55.3842292,32.0066354 Z M32,48 C23.14,48 16,40.82 16,32 C16,23.1798 23.14,16 32,16 C40.8598,16 48,23.1798 48,32 C48,40.82 40.8598,48 32,48 L32,48 Z" id="Shape" fill="#000000" fill-rule="nonzero"></path>
    </g>
</svg>