<?xml version="1.0" encoding="UTF-8"?>
<svg width="64px" height="64px" viewBox="0 0 64 64" version="1.1" xmlns="http://www.w3.org/2000/svg" xmlns:xlink="http://www.w3.org/1999/xlink">
    <title>setup</title>
    <g id="setup" stroke="none" stroke-width="1" fill="none" fill-rule="evenodd">
        <path d="M38.0004076,22.9990158 C42.3435128,22.9990158 46.436742,24.5481217 49.6404407,27.2676474 L52.1926894,24.715825 C52.3581075,24.5504069 52.5762846,24.4482182 52.8092604,24.4270386 C53.359277,24.3770371 53.8456879,24.7823794 53.8956894,25.3323961 L53.8956894,25.3323961 L54.684658,34.0110508 C54.6901337,34.0712838 54.6901337,34.1318893 54.684658,34.1921223 C54.6346565,34.7421389 54.1482457,35.1474812 53.598229,35.0974797 L53.598229,35.0974797 L44.9195743,34.3085111 C44.6865985,34.2873315 44.4684214,34.1851428 44.3030033,34.0197247 C43.912479,33.6292004 43.912479,32.9960354 44.3030033,32.6055111 L44.3030033,32.6055111 L46.8006704,30.108853 C44.3479305,28.1230133 41.2671477,26.9990158 38.0004076,26.9990158 C30.2684212,26.9990158 24.0004076,33.2670294 24.0004076,40.9990158 C24.0004076,48.7310023 30.2684212,54.9990158 38.0004076,54.9990158 C45.6279078,54.9990158 51.8307345,48.8992635 51.9969856,41.3116609 C51.9988816,41.138441 52.1398412,40.9990158 52.3130714,40.9990158 L55.6806269,40.9990158 C55.8556996,40.9990354 55.997624,41.1409598 55.997624,41.3160325 L55.9975751,41.3216026 C55.8254849,51.1138961 47.8337805,58.9990158 38.0004076,58.9990158 C28.0592822,58.9990158 20.0004076,50.9401413 20.0004076,40.9990158 C20.0004076,31.0578904 28.0592822,22.9990158 38.0004076,22.9990158 Z" id="Combined-Shape" fill="#000000" fill-rule="nonzero" transform="translate(37.999016, 40.999016) rotate(45.000000) translate(-37.999016, -40.999016) "></path>
        <path d="M10.0511362,12 L10.05157,12.0462462 C10.0615309,12.5500178 10.2830189,17 15,17 C19.7169811,17 19.9839801,12.5500178 19.9990932,12.0462462 L19.9999664,12.0052728 C20,12.00178 20,12 20,12 L36,12 L36.0009068,12.0462462 C36.0160199,12.5500178 36.2830189,17 41,17 C45.7169811,17 45.9839801,12.5500178 45.9990932,12.0462462 L45.9999664,12.0052728 C46,12.00178 46,12 46,12 L52,12 L51.9999726,28.1545765 C50.8272351,26.8771126 49.4819256,25.7606199 48.0009916,24.8420458 L48,20 L8,20 L8,52 L22.5068235,52.0008649 C23.5827615,53.5134404 24.874659,54.8617014 26.3375376,56.0006695 L4,56 L4,12 L10.0511362,12 Z M41,6 C42.6568542,6 44,7.34314575 44,9 L44,12 C44,13.6568542 42.6568542,15 41,15 C39.3431458,15 38,13.6568542 38,12 L38,9 C38,7.34314575 39.3431458,6 41,6 Z M15,6 C16.6568542,6 18,7.34314575 18,9 L18,12 C18,13.6568542 16.6568542,15 15,15 C13.3431458,15 12,13.6568542 12,12 L12,9 C12,7.34314575 13.3431458,6 15,6 Z" id="Combined-Shape" fill="#000000" fill-rule="nonzero"></path>
    </g>
</svg>