<?xml version="1.0" encoding="UTF-8"?>
<svg width="64px" height="64px" viewBox="0 0 64 64" version="1.1" xmlns="http://www.w3.org/2000/svg" xmlns:xlink="http://www.w3.org/1999/xlink">
    <title>signature</title>
    <g id="signature" stroke="none" stroke-width="1" fill="none" fill-rule="evenodd">
        <path d="M55.4664896,5.42333632 L57.3336504,6.14007222 C58.3648549,6.53591453 58.8799177,7.69276451 58.4840754,8.72396897 L57.7673395,10.5911298 C57.7476643,10.6423854 57.7261091,10.6923658 57.7027826,10.7410226 L58.7460854,11.1598696 C59.26494,11.3684836 59.6478361,11.7695717 59.8465731,12.2472747 C60.0232283,12.6718997 60.0543751,13.1570599 59.9061608,13.6213839 L59.8421068,13.7943698 L59.4495181,14.7240013 C60.1320599,14.9739205 60.7124971,15.3411771 61.1856599,15.8143399 C61.7888486,16.4175286 62.2199271,17.195051 62.4552135,18.1361967 C62.7021184,19.1238165 62.5025292,20.0831533 61.9091139,21.1741364 C61.780125,21.4112801 61.635995,21.6506687 61.4503429,21.9371033 L60.3703437,23.5331214 C59.6591448,24.6067254 59.2129586,25.4647266 58.9422857,26.4120818 C58.3147155,28.6085773 57.9999997,30.4736019 57.9999997,32.0000001 C57.9999997,32.4142137 57.8321065,32.7892137 57.5606599,33.0606603 C57.2892133,33.3321069 56.9142133,33.5000001 56.4999997,33.5000001 C56.0857862,33.5000001 55.7107862,33.3321069 55.4393396,33.0606603 C55.167893,32.7892137 54.9999997,32.4142137 54.9999997,32.0000001 C54.9999997,30.1918223 55.3522652,28.0569887 56.0577138,25.5879184 C56.3851238,24.4419833 56.8788553,23.4258268 57.6225619,22.2562378 L58.9132715,20.2910068 C59.061411,19.2285282 59.059127,18.5404472 58.9123936,18.0877258 C58.7966228,17.7305341 58.5646767,17.5843645 58.2775937,17.4945394 L42.8421068,54.0010062 C42.7302062,54.265662 42.5628701,54.5024631 42.3521261,54.6958224 L42.220567,54.8065002 L34.720567,60.5843661 C34.4129164,60.8213746 34.0709058,60.9496295 33.7291294,60.9886975 C33.3632255,61.0305236 32.9960163,60.9686841 32.6684604,60.81894 C32.3409045,60.6691958 32.0538834,60.4319499 31.8461144,60.1278658 C31.6843903,59.8911717 31.5693991,59.6138321 31.5228025,59.3035787 L31.5036163,59.1219579 L31.1508608,58.6048186 C30.8714253,58.204645 30.5978884,57.8249757 30.3328628,57.4689125 L30.0707712,57.1208328 L29.6514663,56.5811898 L29.2501803,56.0854283 C27.6675886,54.1728326 26.423367,53.0000001 25.4999997,53.0000001 C25.1780596,53.0000001 24.8296139,53.3065342 24.3555708,53.7600344 L24.2094908,53.9003339 L23.4598094,54.6701585 L22.5746052,55.6326522 L22.1139922,56.1207771 C19.7771025,58.5526043 18.2820068,59.2748776 16.217157,58.9798991 C14.8653438,58.7867829 13.5633362,58.2156654 12.4098508,57.3608409 C10.9692609,58.0322355 9.74735236,58.7126556 8.50452557,59.4037918 L7.98231776,59.6938484 L7.45229341,59.9862114 L6.95256603,60.258584 C6.46694649,60.521628 5.92068089,60.5629333 5.4300592,60.4170728 C4.93943751,60.2712123 4.50445972,59.9381859 4.2414158,59.4525664 C3.97837188,58.9669469 3.93706652,58.4206813 4.08292702,57.9300596 C4.22878753,57.4394379 4.56181389,57.0044601 5.04743344,56.7414162 C6.61924534,55.8900181 8.05632907,55.0598615 9.3583738,54.2514363 C8.0927146,51.6043113 7.5569343,48.5321586 8.5219985,45.6006691 C9.1867595,43.7644336 10.3657693,42.4279921 11.8118341,41.5804265 C13.3382499,40.6857656 15.1696282,40.3373178 17.0109088,40.5795915 C18.9964435,40.8408461 20.5644493,41.7542134 21.4494012,43.0222466 C22.3287919,44.2823113 22.5880997,45.914915 21.8569531,47.7427815 C20.9908473,49.9080459 19.0146193,52.2124614 15.8544596,54.6472748 L15.7619997,54.7170001 L15.9440273,54.7946999 C16.0924941,54.853431 16.2410933,54.902208 16.3905655,54.9410844 L16.6155211,54.9919802 C17.2723778,55.0811122 17.7586552,54.7540338 18.4576061,54.1069541 L18.6228522,53.9519914 L19.3013348,53.2733078 L19.6718229,52.8801656 L20.8885375,51.5654589 C22.7742728,49.6713472 24.0607294,49.0000001 25.4999997,49.0000001 C27.1579803,49.0000001 29.0195597,49.9936406 31.1077427,52.1582036 L30.9897861,50.0838271 L48.6661742,9.20182474 C48.8821965,8.70550886 49.2760659,8.34018342 49.741484,8.14941807 C50.155189,7.97984887 50.6254261,7.94820368 51.0775386,8.08508284 L51.2460854,8.14437188 L52.1423637,8.50534174 C52.149804,8.48381961 52.1576339,8.46234376 52.1658569,8.44092213 L52.8825928,6.57376127 C53.2784351,5.54255681 54.4352851,5.02749401 55.4664896,5.42333632 Z M34.0968,51.9206359 L34.3405862,56.1853056 C34.3531267,56.2031892 34.3656777,56.22111 34.3782392,56.239068 L34.6738519,56.6657089 L34.7476163,56.7739579 L38.4759084,53.9022177 C37.5163108,53.6462434 36.6910079,53.3455042 35.9999997,53.0000001 C35.2284528,52.6142266 34.6102761,52.2714781 34.0968,51.9206359 Z M13.8812125,44.9826563 C13.1996784,45.3494641 12.6553025,45.9252676 12.3795866,46.6834862 C12.0199207,47.6725674 11.9594177,48.6984368 12.1538251,49.678161 C12.3006937,50.4183115 12.5922355,51.131789 13.0083082,51.7852025 C15.6481803,49.8172344 17.3629689,48.0199808 18.1473676,46.2459512 C18.2341453,46.0261125 18.2765901,45.8200897 18.0935576,45.2287765 C17.7883406,44.84605 17.2104821,44.6403286 16.4890907,44.5454087 C15.5544158,44.4224252 14.6358046,44.5765281 13.8812125,44.9826563 Z M45.2756163,24.5049579 L34.9979167,48.1174678 C35.8363017,48.9072879 36.8369961,49.5347986 37.9999997,50.0000001 C39.0361489,50.4144598 40.0078818,50.7000868 40.9151983,50.8568813 L51.0236163,26.9449579 L45.2756163,24.5049579 Z M51.0279997,11.2900001 L46.4726163,21.7539579 L52.1916163,24.1819579 L56.6819997,13.5630001 L51.0279997,11.2900001 Z" id="pen" fill="#000000" fill-rule="nonzero"></path>
    </g>
</svg>