<?xml version="1.0" encoding="UTF-8"?>
<svg width="64px" height="64px" viewBox="0 0 64 64" version="1.1" xmlns="http://www.w3.org/2000/svg" xmlns:xlink="http://www.w3.org/1999/xlink">
    <title>simulator</title>
    <g id="simulator" stroke="none" stroke-width="1" fill="none" fill-rule="evenodd">
        <path d="M48.6666667,4 C50.5076158,4 52,5.44646465 52,7.23076923 L52,56.7692308 C52,58.5535353 50.5076158,60 48.6666667,60 L15.3333333,60 C13.4923842,60 12,58.5535353 12,56.7692308 L12,7.23076923 C12,5.44646465 13.4923842,4 15.3333333,4 L48.6666667,4 Z M48,8 L16,8 L16,52 L48,52 L48,8 Z M32,58 C33.1045695,58 34,57.1045695 34,56 C34,54.8954305 33.1045695,54 32,54 C30.8954305,54 30,54.8954305 30,56 C30,57.1045695 30.8954305,58 32,58 Z" id="Rectangle" fill="#000000" fill-rule="nonzero"></path>
        <path d="M44.4860299,20 C44.5588372,20.0027891 45.1712897,20.047415 44.9533574,20.8060549 C44.8481061,21.1724435 44.1483742,23.6205854 43.4163448,26.1822775 L43.2403255,26.798256 L43.2403255,26.798256 L43.064793,27.4125486 C42.5297072,29.2851559 42.0257694,31.0489718 41.7762352,31.9223777 C41.926838,32.0661056 42.019498,32.2692505 42.019498,32.4938508 C42.019498,32.9187875 41.6878175,33.266924 41.2671137,33.2976948 L41.2064338,33.2999057 L35.823,33.299 L35.2613086,38.1668651 L35.3128166,38.2222408 C35.3366323,38.2487669 35.3603729,38.2762254 35.3839975,38.3046351 L35.4544816,38.3927372 C35.8770404,38.9416073 36.1212097,39.6678396 36.1212097,40.5591226 C36.1212097,42.1972183 34.969974,42.8599244 33.2299865,42.9777971 L33.0429366,42.9883827 L32.8216262,42.9963608 L32.5801972,43 L31.5228715,42.997213 L31.2489489,42.9912253 L31.0797767,42.9840564 L30.9932371,42.9793179 C29.1958085,42.8742159 28.000096,42.2205071 28.000096,40.5591226 C28.000096,39.6898779 28.2817359,38.9636012 28.7521688,38.3999425 C28.8052315,38.3363643 28.858658,38.2769575 28.9120268,38.2215629 L28.9559959,38.1769408 L28.165,33.299 L22.9124899,33.2999057 C22.463447,33.2999057 22.0994257,32.9390226 22.0994257,32.4938508 C22.0994257,32.2803988 22.1831154,32.086325 22.3197394,31.9421198 C22.0344066,30.9855087 21.4146386,28.9066896 20.7889613,26.798256 L20.6062556,26.1822775 C19.8468054,23.6205854 19.125929,21.1724435 19.0353117,20.8060549 C18.8359537,20 19.5457571,20 19.5457571,20 L44.4860299,20 Z M33.778,33.299 L30.223,33.299 L31.0574465,38.4398172 C31.1234449,38.8468795 30.9326306,39.2500052 30.5810798,39.4612163 L30.5083298,39.502045 L30.4731448,39.5287496 L30.4198688,39.5759423 C30.3896391,39.6046166 30.35472,39.6408746 30.3182537,39.6845674 C30.1402053,39.8978997 30.0327565,40.1749825 30.0327565,40.5591226 C30.0327565,40.7495204 30.1792842,40.8662436 30.6864423,40.9304558 L30.8413426,40.9473915 L31.0169788,40.9615792 L31.1837531,40.9715357 L31.3254402,40.9774063 L31.5641639,40.9823686 L31.7611083,40.9837169 L32.5498945,40.9849709 L32.6948462,40.9833476 L32.8856958,40.9781022 L33.0080554,40.9724047 C33.0740671,40.9688556 33.1363167,40.9648612 33.1949922,40.9603991 L33.3604851,40.9455874 C33.9293583,40.8859698 34.0885492,40.7670604 34.0885492,40.5591226 C34.0885492,40.1067062 33.9889925,39.8105946 33.8386745,39.6153436 C33.8077752,39.5752078 33.7776162,39.5435509 33.750007,39.5195231 L33.7216822,39.4965615 L33.7559202,39.5125737 L33.694965,39.4816368 C33.3586931,39.2967244 33.156289,38.9385291 33.1728576,38.5576613 L33.1785511,38.4860196 L33.778,33.299 Z" id="clyp" fill="#000000" fill-rule="nonzero"></path>
    </g>
</svg>