<?xml version="1.0" encoding="UTF-8"?>
<svg width="64px" height="64px" viewBox="0 0 64 64" version="1.1" xmlns="http://www.w3.org/2000/svg" xmlns:xlink="http://www.w3.org/1999/xlink">
    <title>site_map_template</title>
    <g id="site_map_template" stroke="none" stroke-width="1" fill="none" fill-rule="evenodd">
        <path d="M34,10 C40.0751322,10 45,14.9248678 45,21 C45,24.8614562 43.0103104,28.2581956 40.0002294,30.2209197 L40,40 L52.3333333,40 C54.3583774,40 56,41.6789322 56,43.75 L56,51.25 C56,53.3210678 54.3583774,55 52.3333333,55 L15.6666667,55 C13.6416226,55 12,53.3210678 12,51.25 L12,43.75 C12,41.6789322 13.6416226,40 15.6666667,40 L28,40 L28.0007597,30.2215646 C24.9901255,28.2589396 23,24.8618792 23,21 C23,14.9248678 27.9248678,10 34,10 Z M52,44 L16,44 L16,51 L52,51 L52,44 Z M36,32 L32,32 L32,39 L36,39 L36,32 Z M34,14 C30.1340068,14 27,17.1340068 27,21 C27,24.8659932 30.1340068,28 34,28 C37.8659932,28 41,24.8659932 41,21 C41,17.1340068 37.8659932,14 34,14 Z M18,56 L50,56 L50,58 C50,59.1045695 49.1045695,60 48,60 L20,60 C18.8954305,60 18,59.1045695 18,58 L18,56 L18,56 Z" id="stamp" fill="#000000" fill-rule="nonzero"></path>
        <path d="M6,48 C7.1045695,48 8,48.8954305 8,50 L8,50 L8.00110922,54.5357707 C9.19610023,55.2275472 10,56.5198932 10,58 C10,60.209139 8.209139,62 6,62 C3.790861,62 2,60.209139 2,58 C2,56.519485 2.80434324,55.2268344 3.99987956,54.5351985 L4,50 C4,48.8954305 4.8954305,48 6,48 Z M8,42 L8,34 C8,32.8954305 7.1045695,32 6,32 C4.8954305,32 4,32.8954305 4,34 L4,42 C4,43.1045695 4.8954305,44 6,44 C7.1045695,44 8,43.1045695 8,42 Z M8,26 L8,18 C8,16.8954305 7.1045695,16 6,16 C4.8954305,16 4,16.8954305 4,18 L4,26 C4,27.1045695 4.8954305,28 6,28 C7.1045695,28 8,27.1045695 8,26 Z M8,10 L8,6 L6,8 L10,8 C11.1045695,8 12,7.1045695 12,6 C12,4.8954305 11.1045695,4 10,4 L6,4 C4.8954305,4 4,4.8954305 4,6 L4,10 C4,11.1045695 4.8954305,12 6,12 C7.1045695,12 8,11.1045695 8,10 Z M18,8 L26,8 C27.1045695,8 28,7.1045695 28,6 C28,4.8954305 27.1045695,4 26,4 L18,4 C16.8954305,4 16,4.8954305 16,6 C16,7.1045695 16.8954305,8 18,8 Z M34,8 L42,8 C43.1045695,8 44,7.1045695 44,6 C44,4.8954305 43.1045695,4 42,4 L34,4 C32.8954305,4 32,4.8954305 32,6 C32,7.1045695 32.8954305,8 34,8 Z M50,8 L58,8 L58,6 L56,6 L56,7 C56,8.1045695 56.8954305,9 58,9 C59.1045695,9 60,8.1045695 60,7 L60,6 C60,4.8954305 59.1045695,4 58,4 L50,4 C48.8954305,4 48,4.8954305 48,6 C48,7.1045695 48.8954305,8 50,8 Z M58,12 C59.1045695,12 60,12.8954305 60,14 L60,14 L60.0011092,20.5357707 C61.1961002,21.2275472 62,22.5198932 62,24 C62,26.209139 60.209139,28 58,28 C55.790861,28 54,26.209139 54,24 C54,22.519485 54.8043432,21.2268344 55.9998796,20.5351985 L56,14 C56,12.8954305 56.8954305,12 58,12 Z" id="Path-200" fill="#000000" fill-rule="nonzero"></path>
    </g>
</svg>