<?xml version="1.0" encoding="UTF-8"?>
<svg width="64px" height="64px" viewBox="0 0 64 64" version="1.1" xmlns="http://www.w3.org/2000/svg" xmlns:xlink="http://www.w3.org/1999/xlink">
    <title>site_map_label</title>
    <g id="site_map_label" stroke="none" stroke-width="1" fill="none" fill-rule="evenodd">
        <path d="M19.3705789,14 C21.941609,14.026404 22.936237,14.557518 23.8119165,15.1982111 C24.6964807,15.8454046 25.4314908,16.7305752 25.9134325,17.7979826 L25.9134325,17.7979826 L34.6167631,41.2363115 C35.2124035,42.9243909 35.091575,44.7051455 34.4079044,46.2151826 C33.726912,47.7193047 32.492501,48.9622557 30.8386698,49.5973993 C30.2332356,49.8324859 29.4110636,50 28.575018,50 C27.2684722,50 25.9943687,49.5955673 24.9355913,48.8599961 C23.9788018,48.1952795 23.1939499,47.2646905 22.7055728,46.1137552 L22.7055728,46.1137552 L21.7458728,43.5480328 L18.2950068,43.5480328 L17.4337576,45.8611537 C16.9295347,47.1504745 16.0741807,48.1755908 15.0333073,48.884817 C13.9716543,49.6082021 12.7130247,50 11.4248267,50 C10.6537262,50 9.9940717,49.882563 9.33372324,49.6597328 C7.4799888,48.9527316 6.26700211,47.7062057 5.59194022,46.2151826 C4.95108638,44.7997156 4.80518088,43.1466178 5.2794869,41.5548203 L5.2794869,41.5548203 L13.9504212,18.1214555 C14.4538215,16.8300785 15.3369183,15.7698508 16.4138759,15.0498831 C17.3068493,14.4529126 18.327877,14.0931108 19.3705789,14 Z M37.5277691,14 C39.3506196,14 40.9668061,14.7225813 42.1379712,15.8579256 C43.2921037,16.9767585 44.0075658,18.4978693 44.0875772,20.1376874 L44.0875772,20.1376874 L44.090567,21.8380619 C44.3925744,21.817639 44.6959528,21.8072289 45,21.8072289 C48.8889583,21.8072289 52.3989106,23.4079717 54.9381226,25.9976442 C57.4476084,28.5569997 59,32.0855603 59,35.9426506 C59,39.7626355 57.4438128,43.2841537 54.9171237,45.8405213 C52.3810282,48.4064059 48.8791153,50 45,50 C43.4690292,50 41.9686585,49.7327331 40.5693237,49.2597039 C39.6518309,49.7394523 38.6314119,50 37.5277691,50 C35.7270818,50 34.0991859,49.2750571 32.9191506,48.1099297 C31.7915277,46.9965525 31.0858266,45.486025 31.007325,43.8585859 L31.007325,43.8585859 L31,20.4453012 C31,18.7026426 31.7215761,17.0725154 32.9191506,15.8900703 C34.0991859,14.7249429 35.7270818,14 37.5277691,14 L37.5277691,14 L37.5277691,14 Z M45,30 C46.3414799,30 47.5713198,30.5835361 48.5038763,31.5951481 C49.4632061,32.6126159 50,34.0028751 50,35.5390071 C50,37.0211861 49.4403668,38.4253605 48.5077938,39.4007206 C47.5359048,40.4421933 46.3193787,41 45,41 C43.619403,41 42.4253731,40.4148936 41.492388,39.4008856 C40.5350634,38.3834289 40,36.9960479 40,35.5390071 C40,33.9788186 40.5596332,32.5746395 41.4921966,31.5992794 C42.4634107,30.5578067 43.6439719,30 45,30 L45,30 Z M28.8091565,45 C29.0869227,45 29.3646889,44.9613762 29.5630933,44.8841285 C30.713839,44.4592663 31.2693714,43.2233037 30.8725625,42.1032126 L22.1030869,19.3537754 C21.7697675,18.5606994 21.0216505,18.0367886 20.1813563,18.0018612 L20,18.0019413 C19.1270205,17.9633175 18.2540411,18.5040511 17.8969131,19.3537754 L9.1274375,42.1032126 C8.73062865,43.2233037 9.28616104,44.4592663 10.4369067,44.8841285 C10.674992,44.9613762 10.9130773,45 11.1908435,45 C12.063823,45 12.8971216,44.4978902 13.2542495,43.6481659 L15.1986129,38.6270677 L24.841068,38.6270677 L26.7854313,43.6481659 C27.1028784,44.4978902 27.936177,45 28.8091565,45 Z M23,35 L17,35 L20,27 L23,35 Z M44.5,45 C49.7777778,45 54,40.6028571 54,35.3957143 C54,30.1114286 49.7777778,25.7142857 44.5,25.7142857 C42.5843621,25.7142857 40.7078189,26.3314286 39.2613169,27.3342857 L39.2613169,20.0828571 C39.2613169,18.9642857 38.3230453,18 37.1111111,18 C35.9382716,18 35,18.9642857 35,20.0828571 L35,42.9171429 C35,44.0357143 35.9382716,45 37.1111111,45 C38.1666667,45 38.9876543,44.2671429 39.1831276,43.3414286 C40.6687243,44.3442857 42.5452675,45 44.5,45 Z M45,41 C43.619403,41 42.4253731,40.4148936 41.4925373,39.4007092 C40.5597015,38.4255319 40,37.0212766 40,35.5390071 C40,33.9787234 40.5597015,32.5744681 41.4925373,31.5992908 C42.4253731,30.5851064 43.619403,30 45,30 C46.3432836,30 47.5746269,30.5851064 48.5074627,31.5992908 C49.4402985,32.5744681 50,33.9787234 50,35.5390071 C50,37.0212766 49.4402985,38.4255319 48.5074627,39.4007092 C47.5746269,40.4148936 46.3432836,41 45,41 Z" id="Ab-Copy" fill="#000000" fill-rule="nonzero"></path>
    </g>
</svg>