<?xml version="1.0" encoding="UTF-8"?>
<svg width="64px" height="64px" viewBox="0 0 64 64" version="1.1" xmlns="http://www.w3.org/2000/svg" xmlns:xlink="http://www.w3.org/1999/xlink">
    <title>site_map_annotation</title>
    <g id="site_map_annotation" stroke="none" stroke-width="1" fill="none" fill-rule="evenodd">
        <path d="M6,48 C6.89109378,48 7.64607576,48.5827639 7.90461654,49.3879622 L4.22357268,56.7489796 L4.12952045,56.9545453 C4.07624681,57.082675 4.032764,57.2109188 3.99846272,57.3387563 L4,50 C4,48.8954305 4.8954305,48 6,48 Z M8,42 L8,34 C8,32.8954305 7.1045695,32 6,32 C4.8954305,32 4,32.8954305 4,34 L4,42 C4,43.1045695 4.8954305,44 6,44 C7.1045695,44 8,43.1045695 8,42 Z M8,26 L8,18 C8,16.8954305 7.1045695,16 6,16 C4.8954305,16 4,16.8954305 4,18 L4,26 C4,27.1045695 4.8954305,28 6,28 C7.1045695,28 8,27.1045695 8,26 Z M8,10 L8,6 L6,8 L10,8 C11.1045695,8 12,7.1045695 12,6 C12,4.8954305 11.1045695,4 10,4 L6,4 C4.8954305,4 4,4.8954305 4,6 L4,10 C4,11.1045695 4.8954305,12 6,12 C7.1045695,12 8,11.1045695 8,10 Z M18,8 L26,8 C27.1045695,8 28,7.1045695 28,6 C28,4.8954305 27.1045695,4 26,4 L18,4 C16.8954305,4 16,4.8954305 16,6 C16,7.1045695 16.8954305,8 18,8 Z M34,8 L42,8 C43.1045695,8 44,7.1045695 44,6 C44,4.8954305 43.1045695,4 42,4 L34,4 C32.8954305,4 32,4.8954305 32,6 C32,7.1045695 32.8954305,8 34,8 Z M50,8 L58,8 L58,6 L56,6 L56,7 C56,8.1045695 56.8954305,9 58,9 C59.1045695,9 60,8.1045695 60,7 L60,6 C60,4.8954305 59.1045695,4 58,4 L50,4 C48.8954305,4 48,4.8954305 48,6 C48,7.1045695 48.8954305,8 50,8 Z M56,14 L56,22 C56,23.1045695 56.8954305,24 58,24 C59.1045695,24 60,23.1045695 60,22 L60,14 C60,12.8954305 59.1045695,12 58,12 C56.8954305,12 56,12.8954305 56,14 Z M58,28 C59.1045695,28 60,28.8954305 60,30 L60,30 L60.0011092,37.5357707 C61.1961002,38.2275472 62,39.5198932 62,41 C62,43.209139 60.209139,45 58,45 C55.790861,45 54,43.209139 54,41 C54,39.519485 54.8043432,38.2268344 55.9998796,37.5351985 L56,30 C56,28.8954305 56.8954305,28 58,28 Z" id="Path-200" fill="#000000" fill-rule="nonzero"></path>
        <path d="M30,10 C31.1045695,10 32,10.8954305 32,12 L32,12 L32,54 C32,54.2149642 31.9653442,54.4285226 31.8973666,54.6324555 L31.8973666,54.6324555 L27.8973666,66.6324555 C27.2895691,68.4558482 24.7104309,68.4558482 24.1026334,66.6324555 L24.1026334,66.6324555 L20.1026334,54.6324555 C20.0346558,54.4285226 20,54.2149642 20,54 L20,54 L20,12 C20,10.8954305 20.8954305,10 22,10 L22,10 Z M28,22 L24,22 L24,53.676 L25.999,59.674 L28,53.673 L28,22 Z M28,14 L24,14 L24,18 L28,18 L28,14 Z" id="Rectangle" fill="#000000" fill-rule="nonzero" transform="translate(26.000000, 39.000000) rotate(45.000000) translate(-26.000000, -39.000000) "></path>
    </g>
</svg>