<?xml version="1.0" encoding="UTF-8"?>
<svg width="64px" height="64px" viewBox="0 0 64 64" version="1.1" xmlns="http://www.w3.org/2000/svg" xmlns:xlink="http://www.w3.org/1999/xlink">
    <title>site_map_edit_details</title>
    <g id="site_map_edit_details" stroke="none" stroke-width="1" fill="none" fill-rule="evenodd">
        <circle id="Oval-Copy-2" fill="#000000" fill-rule="nonzero" cx="50" cy="16" r="10"></circle>
        <polygon id="Path-5" fill="#000000" fill-rule="nonzero" points="13.4285714 14 18.5714286 14 18.5714286 9 22 9 16 4 10 9 13.4285714 9"></polygon>
        <polygon id="Path-5-Copy" fill="#000000" fill-rule="nonzero" transform="translate(16.000000, 45.000000) scale(-1, 1) rotate(-180.000000) translate(-16.000000, -45.000000) " points="13.4285714 50 18.5714286 50 18.5714286 45 22 45 16 40 10 45 13.4285714 45"></polygon>
        <rect id="Rectangle-Copy-2" fill="#000000" fill-rule="nonzero" transform="translate(16.000000, 27.000000) rotate(-45.000000) translate(-16.000000, -27.000000) " x="8" y="19" width="16" height="16"></rect>
        <path d="M39.5897777,40.8722909 L31.2761889,54.9848646 C30.7155451,55.9365748 31.032567,57.1625799 31.9842772,57.7232237 C32.291887,57.9044339 32.6423959,58 32.9994126,58 L49.934501,58 C51.0390705,58 51.934501,57.1045695 51.934501,56 C51.934501,55.6320904 51.8330184,55.2713098 51.6412181,54.957351 L43.0197185,40.8447774 C42.4438794,39.9021835 41.2129463,39.6048701 40.2703525,40.1807093 C39.9901659,40.3518778 39.7564294,40.5893945 39.5897777,40.8722909 Z" id="Path-2" fill="#000000"></path>
    </g>
</svg>