<?xml version="1.0" encoding="UTF-8"?>
<svg width="64px" height="64px" viewBox="0 0 64 64" version="1.1" xmlns="http://www.w3.org/2000/svg" xmlns:xlink="http://www.w3.org/1999/xlink">
    <title>site_map_chemical</title>
    <g id="site_map_chemical" stroke="none" stroke-width="1" fill="none" fill-rule="evenodd">
        <path d="M36,18 C36.5522847,18 37,18.4477153 37,19 C37,19.5522847 36.5522847,20 36,20 L36,27.717 L43.8516583,40.4759026 C44.24117,41.108859 43.8280323,41.9146961 43.1150025,41.9936975 L43,42 L21,42 C20.2567953,42 19.7870218,41.2258107 20.0934368,40.5771486 L20.1483417,40.4759026 L28,27.716 L28,20 C27.4477153,20 27,19.5522847 27,19 C27,18.4477153 27.4477153,18 28,18 L36,18 Z M33.9994216,20 L29.9994216,20 L30,28 C30,28.1387948 29.9711143,28.2755479 29.9157541,28.4017405 L29.8516583,28.5240974 L27.7114216,32 L36.2864216,32 L34.1483417,28.5240974 C34.0755997,28.4058917 34.0285285,28.2742859 34.0095393,28.1377987 L34,28 L33.9994216,20 Z" id="Combined-Shape" fill="#000000" fill-rule="nonzero"></path>
        <path d="M33.4142136,4.41421356 L59.5857864,30.5857864 C60.366835,31.366835 60.366835,32.633165 59.5857864,33.4142136 L33.4142136,59.5857864 C32.633165,60.366835 31.366835,60.366835 30.5857864,59.5857864 L4.41421356,33.4142136 C3.63316498,32.633165 3.63316498,31.366835 4.41421356,30.5857864 L30.5857864,4.41421356 C31.366835,3.63316498 32.633165,3.63316498 33.4142136,4.41421356 Z M32,8.65721356 L8.65721356,32 L32,55.3427864 L55.3427864,32 L32,8.65721356 Z" id="Path-5" fill="#000000" fill-rule="nonzero"></path>
    </g>
</svg>