<?xml version="1.0" encoding="UTF-8"?>
<svg width="64px" height="64px" viewBox="0 0 64 64" version="1.1" xmlns="http://www.w3.org/2000/svg" xmlns:xlink="http://www.w3.org/1999/xlink">
    <title>site_map_exterior</title>
    <g id="site_map_exterior" stroke="none" stroke-width="1" fill="none" fill-rule="evenodd">
        <path d="M10.1001737,8.91873162 L60.3253691,17.7747887 L53.7267384,55.1974833 L3.50154296,46.3414262 L10.1001737,8.91873162 Z M13.3443816,13.5523703 L13.093543,14.9717316 L48.299543,50.1777316 L50.4816696,50.5634746 L50.775543,48.8967316 L15.877543,13.9987316 L13.3443816,13.5523703 Z M12.457543,18.5787316 L11.894543,21.7727316 L38.587543,48.4657316 L43.148543,49.2697316 L12.457543,18.5787316 Z M11.258543,25.3797316 L10.695543,28.5737316 L28.874543,46.7527316 L33.435543,47.5567316 L11.258543,25.3797316 Z M10.059543,32.1807316 L9.49654296,35.3747316 L19.162543,45.0407316 L23.723543,45.8447316 L10.059543,32.1807316 Z M21.028543,14.9067316 L51.411543,45.2897316 L51.974543,42.0957316 L25.589543,15.7107316 L21.028543,14.9067316 Z M8.86054296,38.9817316 L8.13493623,43.0966029 L14.010543,44.1317316 L8.86054296,38.9817316 Z M30.741543,16.6197316 L52.610543,38.4887316 L53.173543,35.2947316 L35.302543,17.4237316 L30.741543,16.6197316 Z M40.454543,18.3327316 L53.809543,31.6877316 L54.372543,28.4937316 L45.015543,19.1367316 L40.454543,18.3327316 Z M50.166543,20.0447316 L55.008543,24.8867316 L55.6911149,21.019242 L50.166543,20.0447316 Z" id="Combined-Shape" fill="#000000" fill-rule="nonzero"></path>
    </g>
</svg>