<?xml version="1.0" encoding="UTF-8"?>
<svg width="64px" height="64px" viewBox="0 0 64 64" version="1.1" xmlns="http://www.w3.org/2000/svg" xmlns:xlink="http://www.w3.org/1999/xlink">
    <title>site_map</title>
    <g id="site_map" stroke="none" stroke-width="1" fill="none" fill-rule="evenodd">
        <path d="M35,4 L4,4 L4,60 L60,60 L60,30 L35,30 L35,4 Z M31,8 L31,34 L56,34 L56,56 L8,56 L8,8 L31,8 Z" id="Path-92" fill="#000000" fill-rule="nonzero"></path>
        <circle id="Oval-Copy" fill="#000000" fill-rule="nonzero" cx="50" cy="16" r="10"></circle>
        <rect id="Rectangle-Copy-2" fill="#000000" fill-rule="nonzero" transform="translate(19.585786, 22.000000) rotate(-45.000000) translate(-19.585786, -22.000000) " x="12.5857864" y="15" width="14" height="14"></rect>
        <path d="M40.5897777,36.8722909 L32.2761889,50.9848646 C31.7155451,51.9365748 32.032567,53.1625799 32.9842772,53.7232237 C33.291887,53.9044339 33.6423959,54 33.9994126,54 L50.934501,54 C52.0390705,54 52.934501,53.1045695 52.934501,52 C52.934501,51.6320904 52.8330184,51.2713098 52.6412181,50.957351 L44.0197185,36.8447774 C43.4438794,35.9021835 42.2129463,35.6048701 41.2703525,36.1807093 C40.9901659,36.3518778 40.7564294,36.5893945 40.5897777,36.8722909 Z" id="Path-2" fill="#000000" fill-rule="nonzero"></path>
    </g>
</svg>