<?xml version="1.0" encoding="UTF-8"?>
<svg width="64px" height="64px" viewBox="0 0 64 64" version="1.1" xmlns="http://www.w3.org/2000/svg" xmlns:xlink="http://www.w3.org/1999/xlink">
    <title>site_map_equipment</title>
    <g id="site_map_equipment" stroke="none" stroke-width="1" fill="none" fill-rule="evenodd">
        <path d="M32,4 C47.463973,4 60,16.536027 60,32 C60,47.463973 47.463973,60 32,60 C16.536027,60 4,47.463973 4,32 C4,16.536027 16.536027,4 32,4 Z M32,8 C18.745166,8 8,18.745166 8,32 C8,45.254834 18.745166,56 32,56 C45.254834,56 56,45.254834 56,32 C56,18.745166 45.254834,8 32,8 Z" id="Oval" fill="#000000" fill-rule="nonzero"></path>
        <path d="M16,30 L29,30 L29,32 L29.0067277,32.1166211 C29.0644928,32.6139598 29.4871642,33 30,33 L30,33 L34,33 L34.1166211,32.9932723 C34.6139598,32.9355072 35,32.5128358 35,32 L35,32 L35,30 L48,30 L48,42 C48,43.1045695 47.1045695,44 46,44 L18,44 C16.8954305,44 16,43.1045695 16,42 L16,30 Z M36,18 C36.5128358,18 36.9355072,18.3860402 36.9932723,18.8833789 L37,19 L37,22 L46,22 C47.1045695,22 48,22.8954305 48,24 L48,28 L16,28 L16,24 C16,22.8954305 16.8954305,22 18,22 L27,22 L27,19 C27,18.4871642 27.3860402,18.0644928 27.8833789,18.0067277 L28,18 L36,18 Z M35,20 L29,20 L29,22 L35,22 L35,20 Z" id="Combined-Shape" fill="#000000" fill-rule="nonzero"></path>
    </g>
</svg>