<?xml version="1.0" encoding="UTF-8"?>
<svg width="64px" height="64px" viewBox="0 0 64 64" version="1.1" xmlns="http://www.w3.org/2000/svg" xmlns:xlink="http://www.w3.org/1999/xlink">
    <title>site_map_icon</title>
    <g id="site_map_icon" stroke="none" stroke-width="1" fill="none" fill-rule="evenodd">
        <path d="M32,4 C47.463973,4 60,16.536027 60,32 C60,47.463973 47.463973,60 32,60 C16.536027,60 4,47.463973 4,32 C4,16.536027 16.536027,4 32,4 Z M32,8 C18.745166,8 8,18.745166 8,32 C8,45.254834 18.745166,56 32,56 C45.254834,56 56,45.254834 56,32 C56,18.745166 45.254834,8 32,8 Z" id="Oval" fill="#000000" fill-rule="nonzero"></path>
        <path d="M31.944,21.4 C33.2133333,21.4 34.128,21.204 34.688,20.812 C35.248,20.42 35.528,19.6826667 35.528,18.6 L35.528,18.6 L35.528,17.536 C35.528,16.4906667 35.2666667,15.7626667 34.744,15.352 C34.2213333,14.9413333 33.3066667,14.736 32,14.736 C30.8053333,14.736 29.9186667,14.932 29.34,15.324 C28.7613333,15.716 28.472,16.4533333 28.472,17.536 L28.472,17.536 L28.472,18.6 C28.472,19.6453333 28.7333333,20.3733333 29.256,20.784 C29.7786667,21.1946667 30.6746667,21.4 31.944,21.4 Z M32,50 C32.9706667,50 33.7733333,49.7274143 34.408,49.182243 C35.0426667,48.6370717 35.36,47.9595016 35.36,47.1495327 L35.36,47.1495327 L35.36,27.8504673 C35.36,27.0404984 35.0426667,26.3629283 34.408,25.817757 C33.7733333,25.2725857 32.9706667,25 32,25 C31.0293333,25 30.2266667,25.2725857 29.592,25.817757 C28.9573333,26.3629283 28.64,27.0404984 28.64,27.8504673 L28.64,27.8504673 L28.64,47.1495327 C28.64,47.9595016 28.9573333,48.6370717 29.592,49.182243 C30.2266667,49.7274143 31.0293333,50 32,50 Z" id="i" fill="#000000" fill-rule="nonzero"></path>
    </g>
</svg>