<?xml version="1.0" encoding="UTF-8"?>
<svg width="32px" height="32px" viewBox="0 0 32 32" version="1.1" xmlns="http://www.w3.org/2000/svg" xmlns:xlink="http://www.w3.org/1999/xlink">
    <title>skill</title>
    <g id="skill" stroke="none" stroke-width="1" fill="none" fill-rule="evenodd">
        <path d="M12,2 C15.3137085,2 18,4.6862915 18,8 C18,9.9118247 17.1058288,11.6148045 15.7128814,12.7135445 C16.0533871,12.8579684 16.3799419,13.0267112 16.6930396,13.2176783 C16.4613312,13.2962774 16.2433047,13.4165714 16.0497961,13.5770712 L15.909431,13.7049613 L15.0094319,14.6037991 C14.2788954,14.2707955 13.4701088,14.076902 12.5828296,14.0187319 L12.24642,14.0032736 L12,14 C7.61295911,14 5.00797187,17.062833 4.15881536,23.554488 L4.11262495,23.9256046 L4.104,24 L10.9999309,24 L11,25.5545511 L11.0089427,25.7465981 C11.0170146,25.8329247 11.0304799,25.9179232 11.0490497,26.0011971 L3,26 C2.41495985,26 1.9548693,25.4999738 2.00345424,24.9169545 C2.54516003,18.416485 4.64457086,14.2791451 8.28688642,12.7115003 C6.89390886,11.6143049 6,9.91154424 6,8 C6,4.6862915 8.6862915,2 12,2 Z M12,4 C9.790861,4 8,5.790861 8,8 C8,10.209139 9.790861,12 12,12 C14.209139,12 16,10.209139 16,8 C16,5.790861 14.209139,4 12,4 Z" id="Combined-Shape" fill="#000000" fill-rule="nonzero"></path>
        <path d="M25.5589376,12 C26.0129551,12 26.4237865,12.2966081 26.5515547,12.7312043 C26.6832793,13.1555022 26.7761943,13.583481 26.8296686,14.0094442 L26.8296686,14.0094442 L26.8569676,14.2808571 L26.9642168,14.3119197 C27.5823275,14.5013202 28.1803171,14.7499646 28.7526882,15.0554185 L28.7526882,15.0554185 L28.85401,15.1122857 L29.0682836,14.9387172 C29.323442,14.7414078 29.5960115,14.5580263 29.8862061,14.3887648 L29.8862061,14.3887648 L30,14.325 L30.0015607,16.6569236 C29.9538405,16.699012 29.9032509,16.7445692 29.849113,16.7942449 L29.7158891,16.9180691 L29.1221633,17.5239935 L28.3994859,17.0642682 L28.0943286,16.8791729 C27.3747667,16.4635385 26.6032543,16.16201 25.7954842,15.9813876 L25.7954842,15.9813876 L24.9567934,15.7938512 L24.9691624,14.9345046 L24.9680188,14.7467205 C24.9612397,14.4939257 24.9328384,14.2289798 24.875551,13.9220364 L24.875551,13.9220364 L23.1092619,14.0038739 L23.0934035,14.1059005 C23.0634804,14.3155277 23.0442227,14.5637318 23.0338933,14.9429173 L23.0338933,14.9429173 L23.046267,15.7938618 L22.2076238,15.9813876 L21.861654,16.0665338 C21.0605501,16.2819849 20.3032241,16.6146433 19.6036221,17.0596893 L19.6036221,17.0596893 L18.8771834,17.5218072 L18.2776143,16.9039103 L18.1442928,16.7720906 C17.9610528,16.5983593 17.7535345,16.4312494 17.4933329,16.2528666 L17.4933329,16.2528666 L16.2994879,17.5637354 L16.3602969,17.6470172 C16.4871823,17.8162894 16.6492394,18.0055105 16.9106939,18.2812457 L16.9106939,18.2812457 L17.5232208,18.8750703 L17.0605645,19.6018481 L16.8765277,19.9053072 C16.4633318,20.6213645 16.1638895,21.3927874 15.9822086,22.2082856 L15.9822086,22.2082856 L15.7979087,23.0355396 L14.8587958,23.0355396 L14.685131,23.0390035 C14.4508092,23.048346 14.2035055,23.0770066 13.9203334,23.1300509 L13.9203334,23.1300509 L13.9850406,24.8874359 L14.0826884,24.9033088 C14.2833239,24.9335101 14.520758,24.954591 14.8806515,24.969204 L14.8806515,24.969204 L15.7970931,24.9690044 L15.9819942,25.795333 L16.0671603,26.1411419 C16.2826624,26.9418741 16.6154029,27.6988562 17.0605645,28.3981519 L17.0605645,28.3981519 L17.5256241,29.1287049 L16.9009143,29.7284645 L16.7296157,29.9026056 C16.7003716,29.9340579 16.6713874,29.966149 16.6426453,29.9989049 L14.3187191,29.9990507 C14.5080647,29.6602732 14.7162878,29.3439485 14.9428949,29.0520644 L14.9428949,29.0520644 L15.1069867,28.8497143 L15.0539001,28.7546616 C14.7498242,28.1840098 14.5022752,27.5863911 14.3130144,26.9669076 L14.3130144,26.9669076 L14.2815996,26.856 L13.9590087,26.8212533 C13.6534401,26.7801253 13.347818,26.7188127 13.0451588,26.638075 L13.0451588,26.638075 L12.743599,26.5508903 C12.298371,26.4199865 12,26.0146494 12,25.5545511 L12,25.5545511 L12,22.4454489 C12,21.9912823 12.2967967,21.5804763 12.7375356,21.4509168 C13.251449,21.2956877 13.7629743,21.1940191 14.2636807,21.1485946 L14.2636807,21.1485946 L14.2807425,21.1474286 L14.3126415,21.0364648 C14.5017554,20.415644 14.7492321,19.8173891 15.0535112,19.2461178 L15.0535112,19.2461178 L15.1069867,19.1485714 L14.9324049,18.9339472 C14.7341084,18.6782009 14.550877,18.4052466 14.3831042,18.115231 L14.3831042,18.115231 L14.2204988,17.8195339 C14.020569,17.4198138 14.094288,16.9334382 14.4131746,16.6146628 L14.4131746,16.6146628 L16.6164144,14.4121914 C16.9351599,14.0935571 17.4212684,14.0199299 17.8364748,14.2276625 C18.2326082,14.4359266 18.6016237,14.6726403 18.9405954,14.9356342 L18.9405954,14.9356342 L19.1507835,15.1062857 L19.2479281,15.0527457 C19.8187423,14.7487947 20.4165267,14.5013493 21.0361784,14.3121687 L21.0361784,14.3121687 L21.1452546,14.2808571 L21.1730174,14.0095381 C21.2127707,13.6914514 21.2744388,13.3735155 21.3575806,13.0580136 L21.3575806,13.0580136 L21.447864,12.7434076 C21.5788577,12.2981841 21.9842237,12 22.4441703,12 L22.4441703,12 Z M24,18 C27.3059428,18 30,20.6896552 30,24 C30,27.3103448 27.3059428,30 24,30 C20.6940572,30 18,27.3059428 18,24 C18,20.6896552 20.6896552,18 24,18 Z M24,20 C21.7957911,20 20,21.7957911 20,24 C20,26.2073266 21.7926734,28 24,28 C26.2042089,28 28,26.2042089 28,24 C28,21.7926734 26.2042089,20 24,20 Z" id="Combined-Shape" fill="#000000" fill-rule="nonzero"></path>
    </g>
</svg>