<?xml version="1.0" encoding="UTF-8"?>
<svg width="64px" height="64px" viewBox="0 0 64 64" version="1.1" xmlns="http://www.w3.org/2000/svg" xmlns:xlink="http://www.w3.org/1999/xlink">
    <title>skip</title>
    <g id="skip" stroke="none" stroke-width="1" fill="none" fill-rule="evenodd">
        <path d="M17,18.67252 C17,17.3875032 18.3827659,16.6031584 19.4748613,17.2150817 L19.590683,17.2860286 L39.5869472,30.6168714 C40.5333014,31.2477742 40.5744472,32.6053562 39.7103847,33.2994484 L39.5869472,33.3898543 L19.590683,46.7206971 C18.5214843,47.4334962 17.1018495,46.7180416 17.005215,45.4699294 L17,45.3342056 L17,18.67252 Z M21,23.033 L21,40.973 L34.455,32.003 L21,23.033 Z" id="Path-139" fill="#000000" fill-rule="nonzero"></path>
        <path d="M32,4 C47.463973,4 60,16.536027 60,32 C60,47.463973 47.463973,60 32,60 C16.536027,60 4,47.463973 4,32 C4,16.536027 16.536027,4 32,4 Z M32,8 C18.745166,8 8,18.745166 8,32 C8,45.254834 18.745166,56 32,56 C45.254834,56 56,45.254834 56,32 C56,18.745166 45.254834,8 32,8 Z" id="Oval" fill="#000000" fill-rule="nonzero"></path>
        <rect id="Rectangle" fill="#000000" x="43" y="17" width="4" height="30" rx="1"></rect>
    </g>
</svg>