<?xml version="1.0" encoding="UTF-8"?>
<svg width="32px" height="32px" viewBox="0 0 32 32" version="1.1" xmlns="http://www.w3.org/2000/svg" xmlns:xlink="http://www.w3.org/1999/xlink">
    <title>slope</title>
    <g id="slope" stroke="none" stroke-width="1" fill="none" fill-rule="evenodd">
        <path d="M29.8369696,6.45275064 C30.1176187,6.88197865 30.0258214,7.44700195 29.641176,7.76751787 L29.5472494,7.83696961 L13.5575977,18.2910224 C14.3276617,19.7120993 14.8191777,21.3061469 14.9589213,22.9999404 L29,23 C29.5128358,23 29.9355072,23.3860402 29.9932723,23.8833789 L30.0001146,24 C30.0001146,24.5128358 29.6139598,24.9355072 29.1166211,24.9932723 L29,25 L3,25 C2.0457307,25 1.65256681,23.8083831 2.3587173,23.2317728 L2.45275064,23.1630304 L28.4527506,6.16303039 C28.9149962,5.86079291 29.5347321,5.99050508 29.8369696,6.45275064 Z M11.8762845,19.3899195 L6.355,23 L12.9506125,22.9998771 C12.8223792,21.7084838 12.4484701,20.4893649 11.8762845,19.3899195 Z" id="Path-128" fill="#000000" fill-rule="nonzero"></path>
    </g>
</svg>