<?xml version="1.0" encoding="UTF-8"?>
<svg width="64px" height="64px" viewBox="0 0 64 64" version="1.1" xmlns="http://www.w3.org/2000/svg" xmlns:xlink="http://www.w3.org/1999/xlink">
    <title>smart_report</title>
    <g id="smart_report" stroke="none" fill="none" fill-rule="nonzero">
        <path d="M42.0388386,4.60776773 L41.9632709,4.97710783 L41.806122,5.69382315 C40.2465863,12.4821958 36.4821958,16.2465863 29.6938231,17.806122 L28.9771078,17.9632709 C28.8552244,17.9887846 28.7321158,18.013969 28.6077677,18.0388386 C26.4640774,18.4675767 26.4640774,21.5324233 28.6077677,21.9611614 L28.9771078,22.0367291 L29.6938231,22.193878 C36.4821958,23.7534137 40.2465863,27.5178042 41.806122,34.3061769 L41.9632709,35.0228922 C41.9887846,35.1447756 42.013969,35.2678842 42.0388386,35.3922323 C42.4675767,37.5359226 45.5324233,37.5359226 45.9611614,35.3922323 L46.0367291,35.0228922 L46.193878,34.3061769 C47.7534137,27.5178042 51.5178042,23.7534137 58.3061769,22.193878 L59.0228922,22.0367291 C59.1447756,22.0112154 59.2678842,21.986031 59.3922323,21.9611614 C61.5359226,21.5324233 61.5359226,18.4675767 59.3922323,18.0388386 L59.0228922,17.9632709 L58.3061769,17.806122 C51.5178042,16.2465863 47.7534137,12.4821958 46.193878,5.69382315 L46.0367291,4.97710783 C46.0112154,4.85522437 45.986031,4.73211582 45.9611614,4.60776773 C45.5324233,2.46407742 42.4675767,2.46407742 42.0388386,4.60776773 Z M44,11.721 L44.0041038,11.7318904 C45.5298526,14.9941771 48.721723,18.2480666 51.9097663,19.8236105 L52.278,20 L52.2681096,20.0041038 C49.0058229,21.5298526 45.7519334,24.721723 44.1763895,27.9097663 L44,28.278 L43.9958962,28.2681096 C42.4701474,25.0058229 39.278277,21.7519334 36.0902337,20.1763895 L35.721,20 L35.7318904,19.9958962 C38.9941771,18.4701474 42.2480666,15.278277 43.8236105,12.0902337 L44,11.721 Z" id="Path-221-Copy" fill="#000000"></path>
        <path d="M23.0388386,28.6077677 L22.9761849,28.9129252 L22.8453691,29.5007673 L22.7064599,30.0593946 C21.6797947,33.960351 19.960351,35.6797947 16.0593946,36.7064599 L15.5007673,36.8453691 L14.9129252,36.9761849 C14.812467,36.997363 14.7107541,37.0182414 14.6077677,37.0388386 C12.4640774,37.4675767 12.4640774,40.5324233 14.6077677,40.9611614 L14.9129252,41.0238151 L15.5007673,41.1546309 L16.0593946,41.2935401 C19.960351,42.3202053 21.6797947,44.039649 22.7064599,47.9406054 L22.8453691,48.4992327 L22.9761849,49.0870748 C22.997363,49.187533 23.0182414,49.2892459 23.0388386,49.3922323 C23.4675767,51.5359226 26.5324233,51.5359226 26.9611614,49.3922323 L27.0238151,49.0870748 L27.1546309,48.4992327 L27.2935401,47.9406054 C28.3202053,44.039649 30.039649,42.3202053 33.9406054,41.2935401 L34.4992327,41.1546309 L35.0870748,41.0238151 C35.187533,41.002637 35.2892459,40.9817586 35.3922323,40.9611614 C37.5359226,40.5324233 37.5359226,37.4675767 35.3922323,37.0388386 L35.0870748,36.9761849 L34.4992327,36.8453691 L33.9406054,36.7064599 C30.039649,35.6797947 28.3202053,33.960351 27.2935401,30.0593946 L27.1546309,29.5007673 L27.0238151,28.9129252 C27.002637,28.812467 26.9817586,28.7107541 26.9611614,28.6077677 C26.5324233,26.4640774 23.4675767,26.4640774 23.0388386,28.6077677 Z M24.999,35.037 L25.0513553,35.1274003 C26.0053005,36.7511883 27.2488117,37.9946995 28.8725997,38.9486447 L28.962,39 L28.8725997,39.0513553 C27.2488117,40.0053005 26.0053005,41.2488117 25.0513553,42.8725997 L25,42.962 L24.9486447,42.8725997 C23.9946995,41.2488117 22.7511883,40.0053005 21.1274003,39.0513553 L21.037,39 L21.1274003,38.9486447 C22.7511883,37.9946995 23.9946995,36.7511883 24.9486447,35.1274003 L24.999,35.037 Z" id="Path-221-Copy-2" fill="#000000"></path>
        <path d="M40.0907517,8.00069965 C39.5277272,9.5389235 38.8038934,10.865925 37.8997735,12.0010246 L22,12 L22,20 L26,20 C26,20.7221495 26.2442544,21.444299 26.7327633,22.0008836 L22,22 L22,28.691 L21.9966185,28.7118045 L21.8692469,29.2835453 L21.7360126,29.8180814 C21.3135782,31.423014 20.7851023,32.597753 20.0023583,33.4896087 L20,32 L8,32 L8,39 L12,39 C12,39.7221495 12.2442544,40.444299 12.7327633,41.0008836 L8,41 L8,48 L20,48 L20.000613,44.5088349 C20.7365736,45.3479814 21.2489728,46.4386086 21.6602612,47.9039289 L21.7393913,48.1951214 L21.8749219,48.7405459 L22.0000627,49.3042968 C22.018079,49.3900607 22.0382629,49.4883731 22.058258,49.5883484 C22.0870869,49.7324931 22.1238618,49.8701761 22.1678702,50.0013975 L22,50 L22,56 L38,56 L38,50 L27.8321298,50.0013975 C27.8565037,49.9287211 27.8786587,49.8540625 27.8984739,49.7774219 L27.941742,49.5883484 L28.0033815,49.2881955 L28.1307531,48.7164547 L28.2639874,48.1819186 C28.2801378,48.1205593 28.2964432,48.0598289 28.3129118,47.999719 L38,48 L38,41 L37.2672367,41.0008836 C37.7555212,40.4445546 37.9997756,39.7228128 37.9999998,39.000995 L38,39 L38,32 L29.0348083,32.0014559 C28.7689211,31.4472444 28.5420924,30.8170074 28.3397388,30.0960711 L28.313,30 L38,30 L38.000441,28.1278885 C38.8569078,29.2339895 39.5476699,30.5186955 40.0899111,31.9993291 L40,32 L40,39 L52,39 L52,32 L47.9090932,31.9997241 C48.1693701,31.2885735 48.4640161,30.6225675 48.7949557,29.999797 L52,30 L52.0000904,26.0998846 C53.1347054,25.1968567 54.4613131,24.4733448 55.9993291,23.9100889 L56,57.8333333 C56,59.0299503 55.0299503,60 53.8333333,60 L6.16666667,60 C4.97004971,60 4,59.0299503 4,57.8333333 L4,10.1666667 C4,8.97004971 4.97004971,8 6.16666667,8 Z M8,50 L8,56 L20,56 L20,50 L8,50 Z M40,50 L40,56 L52,56 L52,50 L40,50 Z M40,41 L40,48 L52,48 L52,41 L40,41 Z M8,22 L8,30 L20,30 L20,22 L8,22 Z M8,12 L8,20 L20,20 L20,12 L8,12 Z" id="Rectangle" fill="#000000"></path>
    </g>
</svg>