<?xml version="1.0" encoding="UTF-8"?>
<svg width="64px" height="64px" viewBox="0 0 64 64" version="1.1" xmlns="http://www.w3.org/2000/svg" xmlns:xlink="http://www.w3.org/1999/xlink">
    <title>smart_plot</title>
    <g id="smart_plot" stroke="none" fill="none" fill-rule="nonzero">
        <path d="M6,4 C7.0543618,4 7.91816512,4.81587779 7.99451426,5.85073766 L8,6 L8,56 L58,56 C59.0543618,56 59.9181651,56.8158778 59.9945143,57.8507377 L60,58 C60,59.0543618 59.1841222,59.9181651 58.1492623,59.9945143 L58,60 L6,60 C4.9456382,60 4.08183488,59.1841222 4.00548574,58.1492623 L4,58 L4,6 C4,4.8954305 4.8954305,4 6,4 Z M20,32 L20,54 L12,54 L12,32 L20,32 Z M32,40 L32,54 L24,54 L24,40 L32,40 Z M36.0010246,26.1002265 C38.4210418,28.027798 39.9687946,30.7748355 40.8315107,34.5300805 L40.9864755,35.237067 C41.0093198,35.3464179 41.0339071,35.4665939 41.058258,35.5883484 C41.3798115,37.1961161 42.6899058,38 44,38 L44,54 L36,54 Z M55.9993291,23.9100889 L56,54 L48,54 L48.000059,31.7566783 C49.4895875,27.8643562 52.0461096,25.3578464 55.9993291,23.9100889 Z M56,8 L55.9997241,16.0909068 C52.0490914,14.6449988 49.4916661,12.1384241 48.0001638,8.24125266 L48,8 L56,8 Z" id="Combined-Shape" fill="#000000"></path>
        <path d="M42.0388386,4.60776773 L41.9632709,4.97710783 L41.806122,5.69382315 C40.2465863,12.4821958 36.4821958,16.2465863 29.6938231,17.806122 L28.9771078,17.9632709 C28.8552244,17.9887846 28.7321158,18.013969 28.6077677,18.0388386 C26.4640774,18.4675767 26.4640774,21.5324233 28.6077677,21.9611614 L28.9771078,22.0367291 L29.6938231,22.193878 C36.4821958,23.7534137 40.2465863,27.5178042 41.806122,34.3061769 L41.9632709,35.0228922 C41.9887846,35.1447756 42.013969,35.2678842 42.0388386,35.3922323 C42.4675767,37.5359226 45.5324233,37.5359226 45.9611614,35.3922323 L46.0367291,35.0228922 L46.193878,34.3061769 C47.7534137,27.5178042 51.5178042,23.7534137 58.3061769,22.193878 L59.0228922,22.0367291 C59.1447756,22.0112154 59.2678842,21.986031 59.3922323,21.9611614 C61.5359226,21.5324233 61.5359226,18.4675767 59.3922323,18.0388386 L59.0228922,17.9632709 L58.3061769,17.806122 C51.5178042,16.2465863 47.7534137,12.4821958 46.193878,5.69382315 L46.0367291,4.97710783 C46.0112154,4.85522437 45.986031,4.73211582 45.9611614,4.60776773 C45.5324233,2.46407742 42.4675767,2.46407742 42.0388386,4.60776773 Z M44,11.721 L44.0041038,11.7318904 C45.5298526,14.9941771 48.721723,18.2480666 51.9097663,19.8236105 L52.278,20 L52.2681096,20.0041038 C49.0058229,21.5298526 45.7519334,24.721723 44.1763895,27.9097663 L44,28.278 L43.9958962,28.2681096 C42.4701474,25.0058229 39.278277,21.7519334 36.0902337,20.1763895 L35.721,20 L35.7318904,19.9958962 C38.9941771,18.4701474 42.2480666,15.278277 43.8236105,12.0902337 L44,11.721 Z" id="Path-221-Copy" fill="#000000"></path>
    </g>
</svg>