<?xml version="1.0" encoding="UTF-8"?>
<svg width="64px" height="64px" viewBox="0 0 64 64" version="1.1" xmlns="http://www.w3.org/2000/svg" xmlns:xlink="http://www.w3.org/1999/xlink">
    <title>smart_query</title>
    <g id="smart_query" stroke="none" fill="none" fill-rule="nonzero">
        <path d="M52,44 C54.209139,44 56,45.790861 56,48 L56,52 C56,54.209139 54.209139,56 52,56 L8,56 C5.790861,56 4,54.209139 4,52 L4,48 C4,45.790861 5.790861,44 8,44 L52,44 Z M9,48 C8.44771525,48 8,48.4477153 8,49 L8,51 C8,51.5522847 8.44771525,52 9,52 L51,52 C51.5522847,52 52,51.5522847 52,51 L52,49 C52,48.4477153 51.5522847,48 51,48 L9,48 Z M52,28 C54.209139,28 56,29.790861 56,32 L56,36 C56,38.209139 54.209139,40 52,40 L8,40 C5.790861,40 4,38.209139 4,36 L4,32 C4,29.790861 5.790861,28 8,28 L37.9001154,28.0000904 C38.8031433,29.1347054 39.5266552,30.4613131 40.0899111,31.9993291 L9,32 C8.44771525,32 8,32.4477153 8,33 L8,35 C8,35.5522847 8.44771525,36 9,36 L41.1678702,36.0013975 C42.0615797,38.6662008 45.9384203,38.6662008 46.8321298,36.0013975 L51,36 C51.5522847,36 52,35.5522847 52,35 L52,33 C52,32.4477153 51.5522847,32 51,32 L47.9090932,31.9997241 C48.4719759,30.4617681 49.1956021,29.134952 50.0994368,27.9999669 L52,28 Z M37.8997936,12.0009993 C36.4815959,13.7815204 34.6198041,15.0898658 32.2392473,16.0006035 L9,16 C8.44771525,16 8,16.4477153 8,17 L8,19 C8,19.5522847 8.44771525,20 9,20 L26,20 C26,21.3100942 26.8038839,22.6201885 28.4116516,22.941742 L28.7766584,23.0164331 L29.4796484,23.1706734 C30.4694085,23.3980651 31.3891501,23.6732416 32.2423168,23.9996744 L8,24 C5.790861,24 4,22.209139 4,20 L4,16 C4,13.790861 5.790861,12 8,12 Z M52,12 C54.209139,12 56,13.790861 56,16 L55.9997241,16.0909068 C53.5054848,15.1780301 51.5665852,13.8423662 50.1006608,12.0008848 L52,12 Z" id="Combined-Shape" fill="#000000"></path>
        <path d="M42.0388386,4.60776773 L41.9632709,4.97710783 L41.806122,5.69382315 C40.2465863,12.4821958 36.4821958,16.2465863 29.6938231,17.806122 L28.9771078,17.9632709 C28.8552244,17.9887846 28.7321158,18.013969 28.6077677,18.0388386 C26.4640774,18.4675767 26.4640774,21.5324233 28.6077677,21.9611614 L28.9771078,22.0367291 L29.6938231,22.193878 C36.4821958,23.7534137 40.2465863,27.5178042 41.806122,34.3061769 L41.9632709,35.0228922 C41.9887846,35.1447756 42.013969,35.2678842 42.0388386,35.3922323 C42.4675767,37.5359226 45.5324233,37.5359226 45.9611614,35.3922323 L46.0367291,35.0228922 L46.193878,34.3061769 C47.7534137,27.5178042 51.5178042,23.7534137 58.3061769,22.193878 L59.0228922,22.0367291 C59.1447756,22.0112154 59.2678842,21.986031 59.3922323,21.9611614 C61.5359226,21.5324233 61.5359226,18.4675767 59.3922323,18.0388386 L59.0228922,17.9632709 L58.3061769,17.806122 C51.5178042,16.2465863 47.7534137,12.4821958 46.193878,5.69382315 L46.0367291,4.97710783 C46.0112154,4.85522437 45.986031,4.73211582 45.9611614,4.60776773 C45.5324233,2.46407742 42.4675767,2.46407742 42.0388386,4.60776773 Z M44,11.721 L44.0041038,11.7318904 C45.5298526,14.9941771 48.721723,18.2480666 51.9097663,19.8236105 L52.278,20 L52.2681096,20.0041038 C49.0058229,21.5298526 45.7519334,24.721723 44.1763895,27.9097663 L44,28.278 L43.9958962,28.2681096 C42.4701474,25.0058229 39.278277,21.7519334 36.0902337,20.1763895 L35.721,20 L35.7318904,19.9958962 C38.9941771,18.4701474 42.2480666,15.278277 43.8236105,12.0902337 L44,11.721 Z" id="Path-221-Copy" fill="#000000"></path>
    </g>
</svg>