<?xml version="1.0" encoding="UTF-8"?>
<svg width="64px" height="64px" viewBox="0 0 64 64" version="1.1" xmlns="http://www.w3.org/2000/svg" xmlns:xlink="http://www.w3.org/1999/xlink">
    <title>smart_note</title>
    <g id="smart_note" stroke="none" fill="none" fill-rule="nonzero">
        <path d="M39.4252699,8.00051804 C38.9636877,9.51513266 38.366475,10.8434122 37.6179492,12.0009135 L13.009,12 L13.0130854,12.2429859 C13.1478653,18.6965078 14.3239318,25.9608371 16.5464924,34.0307788 L16.4116516,34.058258 C13.1961161,34.7013651 13.1961161,39.2986349 16.4116516,39.941742 L16.7118045,40.0033815 L17.2835453,40.1307531 L17.8180814,40.2639874 C18.0483157,40.3245874 18.269697,40.3873696 18.4826602,40.4527717 C19.0275928,42.1316908 19.6152683,43.8415315 20.2439707,45.5827913 L20.395,46 L23.686,46 L23.7393913,46.1951214 L23.8749219,46.7405459 L24.0000627,47.3042968 C24.018079,47.3900607 24.0382629,47.4883731 24.058258,47.5883484 C24.7013651,50.8038839 29.2986349,50.8038839 29.941742,47.5883484 L30.0033815,47.2881955 L30.1307531,46.7164547 L30.2639874,46.1819186 C30.2801378,46.1205593 30.2964432,46.0598289 30.3129118,45.999719 L53.342,46 L53.2532599,45.6853595 C51.5692117,39.662892 50.2865414,33.9781138 49.4063705,28.6299647 C50.3993161,27.4805567 51.5938489,26.5411504 53.0127389,25.7890998 C53.9791263,32.4170512 55.6132956,39.63265 57.9180354,47.4333077 C58.2826312,48.6673241 57.4055456,49.9048041 56.1468756,49.9947765 L56,50 L52,50 L52,54 C52,55.0543618 51.1841222,55.9181651 50.1492623,55.9945143 L50,56 L10,56 C8.9456382,56 8.08183488,55.1841222 8.00548574,54.1492623 L8,54 L8,10 C8,8.9456382 8.81587779,8.08183488 9.85073766,8.00548574 L10,8 Z M12,32.484 L12,52 L48,52 L48,50 L19,50 C18.2201474,50 17.5170011,49.547518 17.1898061,48.8504964 L17.1255563,48.6974674 C15.0277566,43.0596308 13.335112,37.7196106 12.0488331,32.6761988 L12,32.484 Z M50,8 C51.129049,8 52.0342897,8.93397138 51.9990242,10.0624695 C51.9428094,11.8613415 51.9547997,13.7205842 52.0350769,15.6401202 C49.3880794,13.9416476 47.6297097,11.4568212 46.5753802,8.00068453 L50,8 Z" id="Path-7" fill="#000000"></path>
        <path d="M41.0388386,5.60776773 L40.9632709,5.97710783 L40.806122,6.69382315 C39.2465863,13.4821958 35.4821958,17.2465863 28.6938231,18.806122 L27.9771078,18.9632709 C27.8552244,18.9887846 27.7321158,19.013969 27.6077677,19.0388386 C25.4640774,19.4675767 25.4640774,22.5324233 27.6077677,22.9611614 L27.9771078,23.0367291 L28.6938231,23.193878 C35.4821958,24.7534137 39.2465863,28.5178042 40.806122,35.3061769 L40.9632709,36.0228922 C40.9887846,36.1447756 41.013969,36.2678842 41.0388386,36.3922323 C41.4675767,38.5359226 44.5324233,38.5359226 44.9611614,36.3922323 L45.0367291,36.0228922 L45.193878,35.3061769 C46.7534137,28.5178042 50.5178042,24.7534137 57.3061769,23.193878 L58.0228922,23.0367291 C58.1447756,23.0112154 58.2678842,22.986031 58.3922323,22.9611614 C60.5359226,22.5324233 60.5359226,19.4675767 58.3922323,19.0388386 L58.0228922,18.9632709 L57.3061769,18.806122 C50.5178042,17.2465863 46.7534137,13.4821958 45.193878,6.69382315 L45.0367291,5.97710783 C45.0112154,5.85522437 44.986031,5.73211582 44.9611614,5.60776773 C44.5324233,3.46407742 41.4675767,3.46407742 41.0388386,5.60776773 Z M43,12.721 L43.0041038,12.7318904 C44.5298526,15.9941771 47.721723,19.2480666 50.9097663,20.8236105 L51.278,21 L51.2681096,21.0041038 C48.0058229,22.5298526 44.7519334,25.721723 43.1763895,28.9097663 L43,29.278 L42.9958962,29.2681096 C41.4701474,26.0058229 38.278277,22.7519334 35.0902337,21.1763895 L34.721,21 L34.7318904,20.9958962 C37.9941771,19.4701474 41.2480666,16.278277 42.8236105,13.0902337 L43,12.721 Z" id="Path-221-Copy" fill="#000000"></path>
        <path d="M25.0388386,26.6077677 L24.9761849,26.9129252 L24.8453691,27.5007673 L24.7064599,28.0593946 C23.6797947,31.960351 21.960351,33.6797947 18.0593946,34.7064599 L17.5007673,34.8453691 L16.9129252,34.9761849 C16.812467,34.997363 16.7107541,35.0182414 16.6077677,35.0388386 C14.4640774,35.4675767 14.4640774,38.5324233 16.6077677,38.9611614 L16.9129252,39.0238151 L17.5007673,39.1546309 L18.0593946,39.2935401 C21.960351,40.3202053 23.6797947,42.039649 24.7064599,45.9406054 L24.8453691,46.4992327 L24.9761849,47.0870748 C24.997363,47.187533 25.0182414,47.2892459 25.0388386,47.3922323 C25.4675767,49.5359226 28.5324233,49.5359226 28.9611614,47.3922323 L29.0238151,47.0870748 L29.1546309,46.4992327 L29.2935401,45.9406054 C30.3202053,42.039649 32.039649,40.3202053 35.9406054,39.2935401 L36.4992327,39.1546309 L37.0870748,39.0238151 C37.187533,39.002637 37.2892459,38.9817586 37.3922323,38.9611614 C39.5359226,38.5324233 39.5359226,35.4675767 37.3922323,35.0388386 L37.0870748,34.9761849 L36.4992327,34.8453691 L35.9406054,34.7064599 C32.039649,33.6797947 30.3202053,31.960351 29.2935401,28.0593946 L29.1546309,27.5007673 L29.0238151,26.9129252 C29.002637,26.812467 28.9817586,26.7107541 28.9611614,26.6077677 C28.5324233,24.4640774 25.4675767,24.4640774 25.0388386,26.6077677 Z M26.999,33.037 L27.0513553,33.1274003 C28.0053005,34.7511883 29.2488117,35.9946995 30.8725997,36.9486447 L30.962,37 L30.8725997,37.0513553 C29.2488117,38.0053005 28.0053005,39.2488117 27.0513553,40.8725997 L27,40.962 L26.9486447,40.8725997 C25.9946995,39.2488117 24.7511883,38.0053005 23.1274003,37.0513553 L23.037,37 L23.1274003,36.9486447 C24.7511883,35.9946995 25.9946995,34.7511883 26.9486447,33.1274003 L26.999,33.037 Z" id="Path-221-Copy-2" fill="#000000"></path>
    </g>
</svg>