<?xml version="1.0" encoding="UTF-8"?>
<svg width="64px" height="64px" viewBox="0 0 64 64" version="1.1" xmlns="http://www.w3.org/2000/svg" xmlns:xlink="http://www.w3.org/1999/xlink">
    <title>prompt</title>
    <g id="prompt" stroke="none" fill="none" fill-rule="nonzero">
        <path d="M42.0388386,4.60776773 L41.9632709,4.97710783 L41.806122,5.69382315 C40.2465863,12.4821958 36.4821958,16.2465863 29.6938231,17.806122 L28.9771078,17.9632709 C28.8552244,17.9887846 28.7321158,18.013969 28.6077677,18.0388386 C26.4640774,18.4675767 26.4640774,21.5324233 28.6077677,21.9611614 L28.9771078,22.0367291 L29.6938231,22.193878 C36.4821958,23.7534137 40.2465863,27.5178042 41.806122,34.3061769 L41.9632709,35.0228922 C41.9887846,35.1447756 42.013969,35.2678842 42.0388386,35.3922323 C42.4675767,37.5359226 45.5324233,37.5359226 45.9611614,35.3922323 L46.0367291,35.0228922 L46.193878,34.3061769 C47.7534137,27.5178042 51.5178042,23.7534137 58.3061769,22.193878 L59.0228922,22.0367291 C59.1447756,22.0112154 59.2678842,21.986031 59.3922323,21.9611614 C61.5359226,21.5324233 61.5359226,18.4675767 59.3922323,18.0388386 L59.0228922,17.9632709 L58.3061769,17.806122 C51.5178042,16.2465863 47.7534137,12.4821958 46.193878,5.69382315 L46.0367291,4.97710783 C46.0112154,4.85522437 45.986031,4.73211582 45.9611614,4.60776773 C45.5324233,2.46407742 42.4675767,2.46407742 42.0388386,4.60776773 Z M44,11.721 L44.0041038,11.7318904 C45.5298526,14.9941771 48.721723,18.2480666 51.9097663,19.8236105 L52.278,20 L52.2681096,20.0041038 C49.0058229,21.5298526 45.7519334,24.721723 44.1763895,27.9097663 L44,28.278 L43.9958962,28.2681096 C42.4701474,25.0058229 39.278277,21.7519334 36.0902337,20.1763895 L35.721,20 L35.7318904,19.9958962 C38.9941771,18.4701474 42.2480666,15.278277 43.8236105,12.0902337 L44,11.721 Z" id="Path-221-Copy" fill="#000000"></path>
        <path d="M51,12 C56.6375644,12 60,16.1545653 60,21 L60,60 L47,48 L17,48 C11.5,48 8.1650394,44.4397052 8,39 L8.00127944,23.9094605 C9.53925695,24.4724547 10.8660676,25.1962202 12.0010246,26.1002265 L12,39 C12,41.9586524 14.1705968,44.0279106 17,44 L49,44 L56,51 L56,21 C56,18.1459541 53.9600919,16.1258165 51,16 L31.7596931,16.0010944 C29.3806939,15.091194 27.5192328,13.782876 26.1006743,12.0009017 Z" id="Rectangle-204-Copy" fill="#000000" transform="translate(32, 34) scale(-1, 1) translate(-32, -34)"></path>
    </g>
</svg>