<?xml version="1.0" encoding="UTF-8"?>
<svg width="64px" height="64px" viewBox="0 0 64 64" version="1.1" xmlns="http://www.w3.org/2000/svg" xmlns:xlink="http://www.w3.org/1999/xlink">
    <title>smart_traps</title>
    <g id="smart_traps" stroke="none" stroke-width="1" fill="none" fill-rule="evenodd">
        <path d="M27.473578,48.0013203 C28.0599229,50.4317324 29.1684591,52.6585194 30.6738005,54.5562951 C30.0242533,55.5191856 29.1323302,56 28,56 C26.6666667,56 25.6666667,55.3333333 25,54 L23,54 C22.4477153,54 22,53.5522847 22,53 L22,49 C22,48.4477153 22.4477153,48 23,48 Z M28,14 C34.9029984,14 41.5072296,19.3522188 41.9737208,27.11994 C40.590208,27.2839523 39.2590847,27.6139999 37.999264,28.089385 L38,28 C38,22.1353663 33.0892526,18 28,18 C22.9107474,18 18,22.1353663 18,28 C18,30.9739967 18.8710526,33.2242158 20.6339357,35.7216336 C20.6523222,35.7476811 20.674583,35.7787216 20.7002675,35.814179 L20.7002675,35.814179 L22.0473348,37.6267432 L22.6463491,38.4464187 L22.8912045,38.8107174 C23.6196639,39.936186 24,40.906287 24,42 L24,42 L24,43 L27.0289167,43.0001193 C27.0097277,43.3309631 27,43.6643456 27,44 C27,45.0238859 27.090517,46.0266305 27.2639853,47.000668 L22,47 C20.8954305,47 20,46.1045695 20,45 L20,45 L20,42 C20,41.8394242 19.888469,41.5510947 19.6016804,41.0919617 L19.6016804,41.0919617 L19.4080666,40.7956411 L19.2340872,40.5513809 L18.2007236,39.1600687 L17.4237711,38.1092652 L17.1166645,37.6689526 C15.0767952,34.6769536 14,31.7509647 14,28 C14,19.7593706 20.8392526,14 28,14 Z M16.6862915,39.3137085 C17.4673401,40.0947571 17.4673401,41.361087 16.6862915,42.1421356 L13.8578644,44.9705627 C13.0768158,45.7516113 11.8104858,45.7516113 11.0294373,44.9705627 C10.2483887,44.1895142 10.2483887,42.9231842 11.0294373,42.1421356 L13.8578644,39.3137085 C14.638913,38.5326599 15.9052429,38.5326599 16.6862915,39.3137085 Z M28,20 C29.4074239,20 30.7299612,20.3634424 31.8788792,21.0015944 L32,21 C25.9655755,21 21.066052,25.8590886 21.0006622,31.8780328 C20.3634424,30.7299612 20,29.4074239 20,28 C20,23.581722 23.581722,20 28,20 Z M10,26 C11.1045695,26 12,26.8954305 12,28 C12,29.1045695 11.1045695,30 10,30 L6,30 C4.8954305,30 4,29.1045695 4,28 C4,26.8954305 4.8954305,26 6,26 L10,26 Z M50,26 C51.1045695,26 52,26.8954305 52,28 C52,28.3189193 51.9253538,28.6204041 51.7925801,28.8879358 C49.4576329,27.6809676 46.8083407,27 44,27 L44.2658643,27.0029448 C44.6112526,26.4035198 45.2585027,26 46,26 L50,26 Z M44.9705627,11.0294373 C45.7516113,11.8104858 45.7516113,13.0768158 44.9705627,13.8578644 L42.1421356,16.6862915 C41.361087,17.4673401 40.0947571,17.4673401 39.3137085,16.6862915 C38.5326599,15.9052429 38.5326599,14.638913 39.3137085,13.8578644 L42.1421356,11.0294373 C42.9231842,10.2483887 44.1895142,10.2483887 44.9705627,11.0294373 Z M13.8578644,11.0294373 L16.6862915,13.8578644 C17.4673401,14.638913 17.4673401,15.9052429 16.6862915,16.6862915 C15.9052429,17.4673401 14.638913,17.4673401 13.8578644,16.6862915 L11.0294373,13.8578644 C10.2483887,13.0768158 10.2483887,11.8104858 11.0294373,11.0294373 C11.8104858,10.2483887 13.0768158,10.2483887 13.8578644,11.0294373 Z M28,4 C29.1045695,4 30,4.8954305 30,6 L30,10 C30,11.1045695 29.1045695,12 28,12 C26.8954305,12 26,11.1045695 26,10 L26,6 C26,4.8954305 26.8954305,4 28,4 Z" id="Combined-Shape" fill="#000000"></path>
        <g id="Group" transform="translate(28.000000, 28.000000)" fill-rule="nonzero">
            <path d="M16,0 C24.836556,0 32,7.163444 32,16 C32,24.836556 24.836556,32 16,32 C7.163444,32 0,24.836556 0,16 C0,7.163444 7.163444,0 16,0 Z M16,4.12903226 C9.44384555,4.12903226 4.12903226,9.44384555 4.12903226,16 C4.12903226,22.5561544 9.44384555,27.8709677 16,27.8709677 C22.5561544,27.8709677 27.8709677,22.5561544 27.8709677,16 C27.8709677,9.44384555 22.5561544,4.12903226 16,4.12903226 Z" id="Oval" fill="#101010"></path>
            <path d="M20.2850141,8.97100849 C20.8533105,8.02384796 22.081831,7.71671783 23.0289915,8.28501415 C23.9084977,8.81271787 24.236141,9.90969654 23.82345,10.8220652 L23.7149859,11.0289915 L15.7149859,25.0289915 C15.0873932,26.0749793 13.6948985,26.3069487 12.7651932,25.573764 L12.5857864,25.4142136 L7.58578644,20.4142136 C6.80473785,19.633165 6.80473785,18.366835 7.58578644,17.5857864 C8.30675436,16.8648185 9.44121647,16.8093594 10.2257989,17.4194092 L10.4142136,17.5857864 L13.602,20.772 L20.2850141,8.97100849 Z" id="Path-115" fill="#000000"></path>
        </g>
    </g>
</svg>