<?xml version="1.0" encoding="UTF-8"?>
<svg width="64px" height="64px" viewBox="0 0 64 64" version="1.1" xmlns="http://www.w3.org/2000/svg" xmlns:xlink="http://www.w3.org/1999/xlink">
    <title>smart_feature</title>
    <g id="smart_feature" stroke="none" fill="none" fill-rule="nonzero">
        <path d="M41.0388386,5.60776773 L40.9632709,5.97710783 L40.806122,6.69382315 C39.2465863,13.4821958 35.4821958,17.2465863 28.6938231,18.806122 L27.9771078,18.9632709 C27.8552244,18.9887846 27.7321158,19.013969 27.6077677,19.0388386 C25.4640774,19.4675767 25.4640774,22.5324233 27.6077677,22.9611614 L27.9771078,23.0367291 L28.6938231,23.193878 C35.4821958,24.7534137 39.2465863,28.5178042 40.806122,35.3061769 L40.9632709,36.0228922 C40.9887846,36.1447756 41.013969,36.2678842 41.0388386,36.3922323 C41.4675767,38.5359226 44.5324233,38.5359226 44.9611614,36.3922323 L45.0367291,36.0228922 L45.193878,35.3061769 C46.7534137,28.5178042 50.5178042,24.7534137 57.3061769,23.193878 L58.0228922,23.0367291 C58.1447756,23.0112154 58.2678842,22.986031 58.3922323,22.9611614 C60.5359226,22.5324233 60.5359226,19.4675767 58.3922323,19.0388386 L58.0228922,18.9632709 L57.3061769,18.806122 C50.5178042,17.2465863 46.7534137,13.4821958 45.193878,6.69382315 L45.0367291,5.97710783 C45.0112154,5.85522437 44.986031,5.73211582 44.9611614,5.60776773 C44.5324233,3.46407742 41.4675767,3.46407742 41.0388386,5.60776773 Z M43,12.721 L43.0041038,12.7318904 C44.5298526,15.9941771 47.721723,19.2480666 50.9097663,20.8236105 L51.278,21 L51.2681096,21.0041038 C48.0058229,22.5298526 44.7519334,25.721723 43.1763895,28.9097663 L43,29.278 L42.9958962,29.2681096 C41.4701474,26.0058229 38.278277,22.7519334 35.0902337,21.1763895 L34.721,21 L34.7318904,20.9958962 C37.9941771,19.4701474 41.2480666,16.278277 42.8236105,13.0902337 L43,12.721 Z" id="Path-221-Copy" fill="#000000"></path>
        <path d="M22.0388386,29.6077677 L21.9761849,29.9129252 L21.8453691,30.5007673 L21.7064599,31.0593946 C20.6797947,34.960351 18.960351,36.6797947 15.0593946,37.7064599 L14.5007673,37.8453691 L13.9129252,37.9761849 C13.812467,37.997363 13.7107541,38.0182414 13.6077677,38.0388386 C11.4640774,38.4675767 11.4640774,41.5324233 13.6077677,41.9611614 L13.9129252,42.0238151 L14.5007673,42.1546309 L15.0593946,42.2935401 C18.960351,43.3202053 20.6797947,45.039649 21.7064599,48.9406054 L21.8453691,49.4992327 L21.9761849,50.0870748 C21.997363,50.187533 22.0182414,50.2892459 22.0388386,50.3922323 C22.4675767,52.5359226 25.5324233,52.5359226 25.9611614,50.3922323 L26.0238151,50.0870748 L26.1546309,49.4992327 L26.2935401,48.9406054 C27.3202053,45.039649 29.039649,43.3202053 32.9406054,42.2935401 L33.4992327,42.1546309 L34.0870748,42.0238151 C34.187533,42.002637 34.2892459,41.9817586 34.3922323,41.9611614 C36.5359226,41.5324233 36.5359226,38.4675767 34.3922323,38.0388386 L34.0870748,37.9761849 L33.4992327,37.8453691 L32.9406054,37.7064599 C29.039649,36.6797947 27.3202053,34.960351 26.2935401,31.0593946 L26.1546309,30.5007673 L26.0238151,29.9129252 C26.002637,29.812467 25.9817586,29.7107541 25.9611614,29.6077677 C25.5324233,27.4640774 22.4675767,27.4640774 22.0388386,29.6077677 Z M23.999,36.037 L24.0513553,36.1274003 C25.0053005,37.7511883 26.2488117,38.9946995 27.8725997,39.9486447 L27.962,40 L27.8725997,40.0513553 C26.2488117,41.0053005 25.0053005,42.2488117 24.0513553,43.8725997 L24,43.962 L23.9486447,43.8725997 C22.9946995,42.2488117 21.7511883,41.0053005 20.1274003,40.0513553 L20.037,40 L20.1274003,39.9486447 C21.7511883,38.9946995 22.9946995,37.7511883 23.9486447,36.1274003 L23.999,36.037 Z" id="Path-221-Copy-2" fill="#000000"></path>
        <path d="M36,8 C37.1045695,8 38,8.8954305 38,10 C38,11.1045695 37.1045695,12 36,12 L14,12 C10.6862915,12 8,14.6862915 8,18 L8,50 C8,53.3137085 10.6862915,56 14,56 L46,56 C49.3137085,56 52,53.3137085 52,50 L52,28 C52,26.8954305 52.8954305,26 54,26 C55.1045695,26 56,26.8954305 56,28 L56,50 C56,55.5228475 51.5228475,60 46,60 L14,60 C8.4771525,60 4,55.5228475 4,50 L4,18 C4,12.4771525 8.4771525,8 14,8 L36,8 Z" id="Path" fill="#000000"></path>
    </g>
</svg>