<?xml version="1.0" encoding="UTF-8"?>
<svg width="64px" height="64px" viewBox="0 0 64 64" version="1.1" xmlns="http://www.w3.org/2000/svg" xmlns:xlink="http://www.w3.org/1999/xlink">
    <title>sms</title>
    <g id="sms" stroke="none" stroke-width="1" fill="none" fill-rule="evenodd">
        <path d="M36.6666667,4 C38.5076158,4 40,5.44646465 40,7.23076923 L40,14 L36,14 L36,8 L12,8 L12,52 L36,52 L36,46 L40,46 L40,56.7692308 C40,58.5535353 38.5076158,60 36.6666667,60 L11.3333333,60 C9.49238422,60 8,58.5535353 8,56.7692308 L8,7.23076923 C8,5.44646465 9.49238422,4 11.3333333,4 L36.6666667,4 Z M24,54 C22.8954305,54 22,54.8954305 22,56 C22,57.1045695 22.8954305,58 24,58 C25.1045695,58 26,57.1045695 26,56 C26,54.8954305 25.1045695,54 24,54 Z" id="Rectangle" fill="#000000" fill-rule="nonzero"></path>
        <path d="M56,16 C57.1045695,16 58,16.8954305 58,18 L58,42 C58,43.1045695 57.1045695,44 56,44 L26,44 C24.8954305,44 24,43.1045695 24,42 L24,26.8284271 C24,26.2979941 23.7892863,25.7892863 23.4142136,25.4142136 L17.4142136,19.4142136 C16.633165,18.633165 16.633165,17.366835 17.4142136,16.5857864 C17.7892863,16.2107137 18.2979941,16 18.8284271,16 L56,16 Z M54,20 L23.657,20 L26.2426407,22.5857864 C27.3016696,23.6448154 27.9239243,25.0589715 27.9934663,26.5483546 L28,26.8284271 L28,40 L54,40 L54,20 Z" id="Path" fill="#000000" fill-rule="nonzero"></path>
    </g>
</svg>