<?xml version="1.0" encoding="UTF-8"?>
<svg width="64px" height="64px" viewBox="0 0 64 64" version="1.1" xmlns="http://www.w3.org/2000/svg" xmlns:xlink="http://www.w3.org/1999/xlink">
    <title>snow_removal</title>
    <g id="snow_removal" stroke="none" stroke-width="1" fill="none" fill-rule="evenodd">
        <path d="M32.5584816,12 C33.4193424,12 34.1836201,12.5508602 34.4558482,13.3675445 L35,15 L43,15 L43,15 C45.3333333,15 46.6666667,16.1666667 47,18.5 L48,28 L52,32 C50.5882353,32.3529412 49.4256055,32.6435986 48.5121107,32.8719723 L48.0761246,32.9809689 C46.7612457,33.3096886 46.0709343,33.4822664 46.0051903,33.4987024 L46,33.5 C46,33.2238576 45.7761424,33 45.5,33 L42,33 C40.9456382,33 40.0818349,33.8158778 40.0054857,34.8507377 L40,35 L32,36.5 L24,35 C24,33.8954305 23.1045695,33 22,33 L18.5,33 C18.2545401,33 18.0503916,33.1768752 18.0080557,33.4101244 L18,33.5 L12,32 L16,28 L17,18.5 C17.3333333,16.1666667 18.6666667,15 21,15 L29,15 L29,15 L29.5441518,13.3675445 C29.8163799,12.5508602 30.5806576,12 31.4415184,12 L32.5584816,12 Z M43,17 L21,17 C20,17 19.3333333,18 19,20 L19,20 L18,26 L46,26 L45,20 C44.6666667,18 44,17 43,17 L43,17 Z" id="Path-105" fill="#000000" fill-rule="nonzero"></path>
        <path d="M56,50 C53.3333333,50 45.3333333,50.3333333 32,51 C18.6666667,50.3333333 10.6666667,50 8,50 C8,43.3333333 6.66666667,37 4,31 L32,38 L60,31 C57.3333333,37 56,43.3333333 56,50 Z" id="Path-195" fill="#000000" fill-rule="nonzero"></path>
    </g>
</svg>