<?xml version="1.0" encoding="UTF-8"?>
<svg width="64px" height="64px" viewBox="0 0 64 64" version="1.1" xmlns="http://www.w3.org/2000/svg" xmlns:xlink="http://www.w3.org/1999/xlink">
    <title>sort</title>
    <g id="sort" stroke="none" stroke-width="1" fill="none" fill-rule="evenodd">
        <path d="M16.5896482,18.5857864 L16.4374495,18.7549465 C15.4092899,20.0289728 16.2995947,22 18.0035074,22 L24.0020043,22 L24.0020043,42 L18.0035074,42 C16.2221441,42 15.3300341,44.1542838 16.5896482,45.4142136 L30.5861407,59.4142136 C31.3669936,60.1952621 32.6330064,60.1952621 33.4138593,59.4142136 L47.4103518,45.4142136 L47.5625505,45.2450535 C48.5907101,43.9710272 47.7004053,42 45.9964926,42 L39.9979957,42 L39.9979957,22 L45.9964926,22 C47.7778559,22 48.6699659,19.8457162 47.4103518,18.5857864 L33.4138593,4.58578644 C32.6330064,3.80473785 31.3669936,3.80473785 30.5861407,4.58578644 L16.5896482,18.5857864 Z M32.0009814,9 L41,18.102719 L37.889107,18.102719 C36.805133,18.102719 35.9263984,18.9915797 35.9263984,20.0880449 L35.9263984,43.9119551 L35.939603,44.143486 C36.0529791,45.1308654 36.8825597,45.897281 37.889107,45.897281 L40.9980373,45.897281 L32.0009814,55 L23.0019627,45.897281 L26.1128557,45.897281 C27.1968297,45.897281 28.0755643,45.0084203 28.0755643,43.9119551 L28.0755643,20.0880449 L28.0623597,19.856514 C27.9489836,18.8691346 27.119403,18.102719 26.1128557,18.102719 L23,18.102719 L32.0009814,9 Z" id="Path-87" fill="#000000" fill-rule="nonzero"></path>
    </g>
</svg>