<?xml version="1.0" encoding="UTF-8"?>
<svg width="64px" height="64px" viewBox="0 0 64 64" version="1.1" xmlns="http://www.w3.org/2000/svg" xmlns:xlink="http://www.w3.org/1999/xlink">
    <title>split</title>
    <g id="split" stroke="none" stroke-width="1" fill="none" fill-rule="evenodd">
        <path d="M32,4 C37.5228475,4 42,8.4771525 42,14 C42,18.7965939 38.6229173,22.8044279 34.1167107,23.7755433 C34.6342019,27.8229298 36.9091257,32.2427976 40.9897248,37.0104427 L45,33 L45.0001503,41.2488732 C45.0196237,41.2677192 45.0391233,41.2865702 45.0586491,41.3054261 C46.5157441,40.4742637 48.202487,40 50,40 C55.5228475,40 60,44.4771525 60,50 C60,55.5228475 55.5228475,60 50,60 C44.4771525,60 40,55.5228475 40,50 C40,47.753418 40.740833,45.6798668 41.9915288,44.0103168 L41.999,44 L34,44 L38.1538117,39.8464221 C35.523533,36.8069601 33.5232183,33.8418044 32.1621781,30.9465731 L32,30.595 L31.8378219,30.9465731 C30.4769412,33.841465 28.4769361,36.8062648 25.8471134,39.8453531 L30,44 L22.0009125,44.0002399 C23.2561815,45.6715198 24,47.7488959 24,50 C24,55.5228475 19.5228475,60 14,60 C8.4771525,60 4,55.5228475 4,50 C4,44.4771525 8.4771525,40 14,40 C15.797513,40 17.4842559,40.4742637 18.9419228,41.3044854 L19,41.248 L19,33 L23.0102752,37.0104427 C27.0908743,32.2427976 29.3657981,27.8229298 29.8847914,23.7742519 C25.3770827,22.8044279 22,18.7965939 22,14 C22,8.4771525 26.4771525,4 32,4 Z M14,44 C10.6862915,44 8,46.6862915 8,50 C8,53.3137085 10.6862915,56 14,56 C17.3137085,56 20,53.3137085 20,50 C20,46.6862915 17.3137085,44 14,44 Z M50,44 C46.6862915,44 44,46.6862915 44,50 C44,53.3137085 46.6862915,56 50,56 C53.3137085,56 56,53.3137085 56,50 C56,46.6862915 53.3137085,44 50,44 Z M32,8 C28.6862915,8 26,10.6862915 26,14 C26,17.3137085 28.6862915,20 32,20 C35.3137085,20 38,17.3137085 38,14 C38,10.6862915 35.3137085,8 32,8 Z" id="Combined-Shape" fill="#090707" fill-rule="nonzero"></path>
    </g>
</svg>