<?xml version="1.0" encoding="UTF-8"?>
<svg width="64px" height="64px" viewBox="0 0 64 64" version="1.1" xmlns="http://www.w3.org/2000/svg" xmlns:xlink="http://www.w3.org/1999/xlink">
    <title>spp_scorecard</title>
    <g id="spp_scorecard" stroke="none" stroke-width="1" fill="none" fill-rule="evenodd">
        <g id="scorecard" transform="translate(8.000000, 8.000000)" fill="#000000" fill-rule="nonzero">
            <path d="M33.0051972,0 C35.2114659,0 37,1.78808228 37,4.00590344 L37,21.621 L19.8545394,32.4174206 C19.3049223,32.119251 18.781672,32 18.0322422,32 C16.8589844,32 16.2400691,32.2922719 15.2064859,33.1057579 C14.3342283,33.7922719 13.8943431,34 12.95,34 L12.95,36 C14.1232578,36 14.7421731,35.7077281 15.7757563,34.8942421 C16.3534854,34.439538 16.7415365,34.1948731 17.2121166,34.0814883 L15.889922,34.9153965 C15.6001768,35.1002615 15.3278626,35.3201356 15.0729793,35.5750188 C13.6027009,37.0452973 13.2873338,39.2326888 14.1300601,41.0003655 L3.99480279,41.0003655 C1.78853413,41.0003655 0,39.2119177 0,36.9940966 L0,4.00590344 C0,1.79350406 1.78458691,0 3.99480279,0 L33.0051972,0 Z M11,30 L3,30 L3,38 L11,38 L11,30 Z M11,17 L3,17 L3,25 L11,25 L11,17 Z M28.1967266,19 C27.0234687,19 26.4045535,19.2922719 25.3709703,20.1057579 C24.4987127,20.7922719 24.0588275,21 23.1144844,21 C22.1701413,21 21.7302561,20.7922719 20.8579985,20.1057579 C19.8244153,19.2922719 19.2055,19 18.0322422,19 C16.8589844,19 16.2400691,19.2922719 15.2064859,20.1057579 C14.3342283,20.7922719 13.8943431,21 12.95,21 L12.95,23 C14.1232578,23 14.7421731,22.7077281 15.7757563,21.8942421 C16.6480139,21.2077281 17.0878991,21 18.0322422,21 C18.9765853,21 19.4164705,21.2077281 20.2887281,21.8942421 C21.3223113,22.7077281 21.9412266,23 23.1144844,23 C24.2877422,23 24.9066574,22.7077281 25.9402407,21.8942421 C26.8124983,21.2077281 27.2523835,21 28.1967266,21 C29.1425585,21 29.5916307,21.2101533 30.4744162,21.8964334 C31.5197861,22.7091067 32.1400757,23 33.3,23 L33.3,21 C32.3672345,21 31.9235426,20.7919246 31.0462369,20.1099049 C29.9953441,19.2929376 29.3693718,19 28.1967266,19 Z M11,4 L3,4 L3,12 L11,12 L11,4 Z M28.1967266,6 C27.0234687,6 26.4045535,6.29227191 25.3709703,7.10575791 C24.4987127,7.79227191 24.0588275,8 23.1144844,8 C22.1701413,8 21.7302561,7.79227191 20.8579985,7.10575791 C19.8244153,6.29227191 19.2055,6 18.0322422,6 C16.8589844,6 16.2400691,6.29227191 15.2064859,7.10575791 C14.3342283,7.79227191 13.8943431,8 12.95,8 L12.95,10 C14.1232578,10 14.7421731,9.70772809 15.7757563,8.89424209 C16.6480139,8.20772809 17.0878991,8 18.0322422,8 C18.9765853,8 19.4164705,8.20772809 20.2887281,8.89424209 C21.3223113,9.70772809 21.9412266,10 23.1144844,10 C24.2877422,10 24.9066574,9.70772809 25.9402407,8.89424209 C26.8124983,8.20772809 27.2523835,8 28.1967266,8 C29.1425585,8 29.5916307,8.21015328 30.4744162,8.89643337 C31.5197861,9.70910675 32.1400757,10 33.3,10 L33.3,8 C32.3672345,8 31.9235426,7.79192463 31.0462369,7.10990491 C29.9953441,6.29293757 29.3693718,6 28.1967266,6 Z" id="Rectangle-11"></path>
        </g>
        <g id="pantry_pests" transform="translate(42.882014, 41.363684) rotate(45.000000) translate(-42.882014, -41.363684) translate(30.088275, 22.633513)">
            <path d="M12.8264731,2.33614909 C14.7152141,1.571722 16.044355,1.39151139 17.4730789,1.64361265 L17.6548067,1.68089409 C18.5692225,1.88628436 21.0269668,2.62766581 20.8651466,2.58313115 C21.1263968,2.65503001 21.3834721,2.7218817 21.6435138,2.78509453 C21.911842,2.85032169 22.076488,3.12072174 22.0112608,3.38904996 C21.9460337,3.65737817 21.6756336,3.8220241 21.4073054,3.75679694 L21.003761,3.65535161 L20.5998013,3.54728459 C20.7142473,3.57878137 17.9334471,2.74029391 17.2993113,2.62839934 C16.0664981,2.41086692 14.9249165,2.56564744 13.2016391,3.26310671 C12.9456668,3.36670596 12.6541765,3.24318321 12.5505773,2.98721093 C12.446978,2.73123866 12.5705008,2.43974834 12.8264731,2.33614909 Z" id="Shape" fill="#000000" fill-rule="nonzero"></path>
            <path d="M4.55244659,1.64832602 C5.97939115,1.39653629 7.30836541,1.57562739 9.19806314,2.33574959 C9.45425606,2.43880201 9.57840096,2.7300279 9.47534854,2.98622081 C9.37229612,3.24241373 9.08107024,3.36655863 8.82487732,3.26350621 C7.100058,2.56970559 5.95785976,2.41578421 4.72621585,2.63311241 L4.4269239,2.69886968 C3.48254049,2.92889427 1.31196566,3.58624073 1.36924615,3.57047915 C1.11819579,3.63955943 0.870143317,3.70434106 0.619393719,3.7659367 C0.351223789,3.83181158 0.0804269658,3.66781904 0.0145520848,3.39964911 C-0.0513227962,3.13147918 0.112669743,2.86068236 0.380839672,2.79480748 L0.742071202,2.70332267 L1.22885601,2.56748024 C1.78123195,2.39980166 3.94881161,1.75483968 4.55244659,1.64832602 Z" id="Shape" fill="#000000" fill-rule="nonzero"></path>
            <path d="M15.6586874,8.08801914 L16.2596496,8.3099295 L16.337159,8.43880325 C16.3863736,8.51809912 16.4509516,8.61857431 16.5294236,8.73523748 C16.7483429,9.06070182 16.9926542,9.3860909 17.2546528,9.68789267 C17.8213974,10.3407377 18.3864784,10.7836256 18.8865184,10.924668 C20.4655161,11.3700438 21.4922228,11.2076943 22.3553759,10.2587808 C22.5411888,10.054506 22.8574173,10.0395398 23.061692,10.2253527 C23.2659668,10.4111656 23.2809331,10.7273941 23.0951201,10.9316689 C21.939646,12.2019476 20.5245463,12.4257124 18.6150484,11.8871149 C17.8856419,11.6813769 17.182714,11.13045 16.4995053,10.3434476 C16.2083102,10.0080138 15.9399918,9.65065055 15.6996667,9.29336255 L15.6142379,9.16513178 L15.0656672,9.36016691 C14.8343887,9.44239102 14.5827852,9.3441204 14.4647614,9.13852879 L14.4270646,9.05654419 C14.3448405,8.82526567 14.4431112,8.5736622 14.6487028,8.4556384 L14.7306874,8.41794162 L15.6586874,8.08801914 Z" id="Shape" fill="#000000" fill-rule="nonzero"></path>
            <path d="M17.0745997,12.4398393 L17.6120888,12.7253082 L17.7389209,12.9905106 C17.8106327,13.1356689 17.9023475,13.315275 18.0122534,13.5215711 C18.3332472,14.1240849 18.6908428,14.7263697 19.0744367,15.2862032 C19.6545868,16.1328992 20.2390304,16.800163 20.7988737,17.2201286 L20.9362379,17.3161318 L21.0684867,17.3591484 C22.367446,17.7436347 23.8294961,17.4937808 24.5697038,16.5893791 L24.6752106,16.4488072 C24.8314938,16.2211448 25.1427432,16.1632805 25.3704056,16.3195637 C25.598068,16.4758469 25.6559323,16.7870963 25.4996491,17.0147587 C24.5094585,18.4571988 22.4979017,18.8381551 20.7528561,18.3085567 L20.5448123,18.2406439 L20.4352515,18.1864995 C19.689983,17.6966137 18.9610912,16.8899552 18.2495073,15.8514389 C17.8429446,15.2580838 17.4669494,14.6248093 17.1296896,13.9917638 L17.0161124,13.7756662 L16.8692379,13.4871318 L15.9463206,13.6428894 C15.7042373,13.6834631 15.4736602,13.5427661 15.3933513,13.3197235 L15.3705503,13.2324158 C15.3299766,12.9903325 15.4706736,12.7597554 15.6937162,12.6794465 L15.7810239,12.6566455 L17.0745997,12.4398393 Z" id="Shape" fill="#000000" fill-rule="nonzero"></path>
            <path d="M16.8506705,19.7198434 C17.0954063,19.5919411 17.3974892,19.6866534 17.5253915,19.9313892 L18.2410915,21.2892353 C18.4738675,21.7223432 18.6434826,22.0221715 18.8730615,22.4126979 C20.3621304,24.9456866 21.8127138,26.4763537 23.4554448,26.9196892 C23.7220489,26.9916395 23.879847,27.2660921 23.8078967,27.5326962 C23.7359463,27.7993004 23.4614937,27.9570984 23.1948896,27.8851481 C21.2272505,27.3541274 19.6225458,25.6608304 18.0109898,22.9194842 L17.653667,22.2984904 C17.402484,21.8500633 17.1405306,21.353984 16.6391247,20.3945644 C16.5112224,20.1498286 16.6059347,19.8477457 16.8506705,19.7198434 Z" id="Shape" fill="#000000" fill-rule="nonzero"></path>
            <path d="M10.8018541,8.10666666 C9.68637932,8.08781395 9.11458134,7.95584496 8.83336922,7.64477519 C8.58965205,7.38083721 8.627147,7.05091473 8.64589448,6.7964031 L8.64589448,6.76812403 C8.59902579,6.75869767 8.56153084,6.75869767 8.51466215,6.75869767 C7.98035912,6.75869767 7.53041973,7.13575194 7.40856114,7.63534883 L7.40856114,7.63534883 L1.63433892,33.0488062 C1.5780965,33.3033178 1.54997528,33.5672558 1.54997528,33.8406202 C1.54997528,35.8390078 3.16225811,37.4603411 5.14949044,37.4603411 C6.33995508,37.4603411 7.38981367,36.8853334 8.04597528,35.9898295 L10.7924803,31.9742016 L10.7924803,8.10666666 L10.8018541,8.10666666 Z" id="Shape" fill="#000000" fill-rule="nonzero"></path>
            <path d="M20.3818137,33.0393799 L20.3818137,33.0393799 L14.6075914,7.62592248 C14.4857328,7.12632558 14.0357935,6.74927131 13.5014904,6.74927131 C13.4546217,6.74927131 13.4171268,6.74927131 13.3702581,6.75869767 L13.3702581,6.78697674 C13.3983793,7.04148837 13.4265005,7.36198449 13.1827834,7.63534883 C12.9015712,7.9464186 12.3297733,8.07838759 11.2142985,8.09724031 L11.2142985,31.9553489 L13.9608036,35.9709768 C14.6169652,36.8664806 15.6761975,37.4414884 16.8572884,37.4414884 C18.8445207,37.4414884 20.4568036,35.8201551 20.4568036,33.8217675 C20.4661773,33.5578295 20.4380561,33.2938915 20.3818137,33.0393799 L20.3818137,33.0393799 Z" id="Shape" fill="#000000" fill-rule="nonzero"></path>
            <path d="M13.0609248,5.88204651 C12.5734904,6.49475969 11.8329652,6.88124031 11.01745,6.88124031 C10.1925611,6.88124031 9.46140963,6.49475969 8.97397528,5.88204651 C8.93648033,6.07057364 9.0020965,6.30623256 9.0020965,6.55131783 C9.0020965,7.2300155 8.54278336,7.77674418 11.0268238,7.77674418 C13.5014904,7.77674418 13.051551,7.2300155 13.051551,6.55131783 C13.0328036,6.30623256 13.0984197,6.07057364 13.0609248,5.88204651 L13.0609248,5.88204651 Z" id="Shape" fill="#000000" fill-rule="nonzero"></path>
            <path d="M12.5922379,4.2984186 C12.5922379,3.87423256 12.8453288,3.50660465 13.2109046,3.35578294 C12.7890864,1.9324031 11.4486419,-9.43689571e-16 11.0080763,-9.43689571e-16 C10.5675106,-9.43689571e-16 9.22706619,1.94182945 8.80524801,3.37463566 C9.15207629,3.53488372 9.39579347,3.89308527 9.39579347,4.30784496 C9.39579347,4.67547287 9.19894498,5.00539535 8.90835912,5.18449612 C9.28330862,5.99516279 10.0800763,6.56074418 11.0080763,6.56074418 C11.9267025,6.56074418 12.7234702,6.00458914 13.0984197,5.19392248 C12.7984601,5.0148217 12.5922379,4.67547287 12.5922379,4.2984186 L12.5922379,4.2984186 Z" id="Shape" fill="#000000" fill-rule="nonzero"></path>
            <ellipse id="Oval" stroke="#000000" style="mix-blend-mode: overlay;" stroke-linecap="round" stroke-linejoin="bevel" cx="13.623349" cy="4.2984186" rx="1.02173737" ry="1.02747287"></ellipse>
            <ellipse id="Oval" stroke="#000000" style="mix-blend-mode: overlay;" stroke-linecap="round" stroke-linejoin="bevel" cx="8.37405609" cy="4.2984186" rx="1.02173737" ry="1.02747287"></ellipse>
        </g>
    </g>
</svg>