<?xml version="1.0" encoding="UTF-8"?>
<svg width="64px" height="64px" viewBox="0 0 64 64" version="1.1" xmlns="http://www.w3.org/2000/svg" xmlns:xlink="http://www.w3.org/1999/xlink">
    <title>square_edge</title>
    <g id="square_edge" stroke="none" stroke-width="1" fill="none" fill-rule="evenodd">
        <path d="M10,4.82842712 C10.530433,4.82842712 11.0391408,5.03914081 11.4142136,5.41421356 L58.5857864,52.5857864 C59.366835,53.366835 59.366835,54.633165 58.5857864,55.4142136 C58.2107137,55.7892863 57.7020059,56 57.1715729,56 L8,56 L8,6.82842712 C8,5.72385763 8.8954305,4.82842712 10,4.82842712 Z M12,11.657 L12,19.9994271 L13,20 C14.1045695,20 15,20.8954305 15,22 C15,23.1045695 14.1045695,24 13,24 L12,23.9994271 L12,27.9994271 L13,28 C14.1045695,28 15,28.8954305 15,30 C15,31.1045695 14.1045695,32 13,32 L12,31.9994271 L12,35.9994271 L13,36 C14.1045695,36 15,36.8954305 15,38 C15,39.1045695 14.1045695,40 13,40 L12,39.9994271 L12,43.9994271 L13,44 C14.1045695,44 15,44.8954305 15,46 C15,47.1045695 14.1045695,48 13,48 L12,47.9994271 L12,52 L16,51.9994271 L16,51 C16,49.8954305 16.8954305,49 18,49 C19.1045695,49 20,49.8954305 20,51 L20,51.9994271 L24,51.9994271 L24,51 C24,49.8954305 24.8954305,49 26,49 C27.1045695,49 28,49.8954305 28,51 L28,51.9994271 L32,51.9994271 L32,51 C32,49.8954305 32.8954305,49 34,49 C35.1045695,49 36,49.8954305 36,51 L36,51.9994271 L40,51.9994271 L40,51 C40,49.8954305 40.8954305,49 42,49 C43.1045695,49 44,49.8954305 44,51 L44,51.9994271 L52.343,52 L12,11.657 Z" id="Path-222" fill="#000000" fill-rule="nonzero"></path>
        <path d="M18,29 L18,44 C18,45.1045695 18.8954305,46 20,46 L35,46 C36.7818097,46 37.6741433,43.8457162 36.4142136,42.5857864 L21.4142136,27.5857864 C20.1542838,26.3258567 18,27.2181903 18,29 Z M22,33.829 L30.171,42 L22,42 L22,33.829 Z" id="Path-222-Copy" fill="#000000" fill-rule="nonzero"></path>
    </g>
</svg>