<?xml version="1.0" encoding="UTF-8"?>
<svg width="64px" height="64px" viewBox="0 0 64 64" version="1.1" xmlns="http://www.w3.org/2000/svg" xmlns:xlink="http://www.w3.org/1999/xlink">
    <title>start_time</title>
    <g id="start_time" stroke="none" stroke-width="1" fill="none" fill-rule="evenodd">
        <path d="M32,4 C47.463973,4 60,16.536027 60,32 C60,47.463973 47.463973,60 32,60 C16.536027,60 4,47.463973 4,32 C4,16.536027 16.536027,4 32,4 Z M34.0004908,8.08218805 L34.000515,13.1044423 C41.5696495,13.8989789 47.8753448,19.1513757 50.1211658,26.2690616 L51.1120805,24.8530753 C51.7455095,23.9481767 52.9925704,23.7281071 53.897469,24.3615362 C54.7571227,24.9632937 54.9987182,26.1188541 54.4776424,27.0087432 L54.3890082,27.1469247 L50.8890082,32.1469247 C50.4024098,32.8420653 49.5350073,33.1496133 48.7276075,32.9304776 L48.5670582,32.8795868 L43.0670582,30.8795868 C42.0289911,30.5021079 41.4934785,29.354581 41.8709575,28.3165139 C42.2304613,27.3278785 43.2884212,26.795075 44.2850855,27.0726541 L44.4340305,27.1204132 L46.4171539,27.8411392 C44.7876567,22.1726039 39.9162254,17.9233832 34.0001497,17.1326793 L34,32 C34,33.1045695 33.1045695,34 32,34 C30.8954305,34 30,33.1045695 30,32 L30.0005127,8.08210526 C27.0776407,8.3231746 24.3032727,9.08800089 21.7714751,10.2825176 L23.2320508,12.8134665 C23.7843356,13.7700518 23.4565852,14.9932326 22.5,15.5455173 C21.5434148,16.0978021 20.3202339,15.7700518 19.7679492,14.8134665 L18.3081491,12.286162 C15.9610196,13.9193761 13.9193761,15.9610196 12.286162,18.3081491 L14.8134665,19.7679492 C15.7700518,20.3202339 16.0978021,21.5434148 15.5455173,22.5 C14.9932326,23.4565852 13.7700518,23.7843356 12.8134665,23.2320508 L10.2825176,21.7714751 C9.08800089,24.3032727 8.3231746,27.0776407 8.08210526,30.0005127 L11,30 C12.1045695,30 13,30.8954305 13,32 C13,33.1045695 12.1045695,34 11,34 L8.08218805,34.0004908 C8.32334966,36.9229943 9.08813759,39.6970171 10.2825176,42.2285249 L12.8134665,40.7679492 C13.7700518,40.2156644 14.9932326,40.5434148 15.5455173,41.5 C16.0978021,42.4565852 15.7700518,43.6797661 14.8134665,44.2320508 L12.286162,45.6918509 C13.9193761,48.0389804 15.9610196,50.0806239 18.3081491,51.713838 L19.7679492,49.1865335 C20.3202339,48.2299482 21.5434148,47.9021979 22.5,48.4544827 C23.4565852,49.0067674 23.7843356,50.2299482 23.2320508,51.1865335 L21.7714751,53.7174824 C24.3032727,54.9119991 27.0776407,55.6768254 30.0005127,55.9178947 L30,53 C30,51.8954305 30.8954305,51 32,51 C33.1045695,51 34,51.8954305 34,53 L34.0004908,55.917812 C36.9229943,55.6766503 39.6970171,54.9118624 42.2285249,53.7174824 L40.7679492,51.1865335 C40.2156644,50.2299482 40.5434148,49.0067674 41.5,48.4544827 C42.4565852,47.9021979 43.6797661,48.2299482 44.2320508,49.1865335 L45.6918509,51.713838 C48.0389804,50.0806239 50.0806239,48.0389804 51.713838,45.6918509 L49.1865335,44.2320508 C48.2299482,43.6797661 47.9021979,42.4565852 48.4544827,41.5 C49.0067674,40.5434148 50.2299482,40.2156644 51.1865335,40.7679492 L53.7174824,42.2285249 C55.1814411,39.1256406 56,35.6584126 56,32 C56,19.4188395 46.3193182,9.09872345 34.0004908,8.08218805 Z" id="Combined-Shape" fill="#000000" fill-rule="nonzero"></path>
    </g>
</svg>