<?xml version="1.0" encoding="UTF-8"?>
<svg width="64px" height="64px" viewBox="0 0 64 64" version="1.1" xmlns="http://www.w3.org/2000/svg" xmlns:xlink="http://www.w3.org/1999/xlink">
    <title>start_sheet</title>
    <g id="start_sheet" stroke="none" stroke-width="1" fill="none" fill-rule="evenodd">
        <path d="M40,4 C40.2652165,4 40.5195704,4.10535684 40.7071068,4.29289322 L40.7071068,4.29289322 L51.7071068,15.2928932 C51.8946432,15.4804296 52,15.7347835 52,16 L52,16 L52,59 C52,59.5522847 51.5522847,60 51,60 L51,60 L13,60 C12.4477153,60 12,59.5522847 12,59 L12,59 L12,5 C12,4.44771525 12.4477153,4 13,4 L13,4 Z M38,8 L16,8 L16,56 L48,56 L48,18 L40,18 C38.8954305,18 38,17.1045695 38,16 L38,8 Z M46,15 L41,10 L41,15 L46,15 Z" id="page" fill="#000000" fill-rule="nonzero"></path>
        <path d="M20,18 L20,46 C20,47.618046 21.8213697,48.5663523 23.1469247,47.6384638 L43.1469247,33.6384638 C44.2843584,32.8422602 44.2843584,31.1577398 43.1469247,30.3615362 L23.1469247,16.3615362 C21.8213697,15.4336477 20,16.381954 20,18 Z M24,21.841 L38.512,32 L24,42.158 L24,21.841 Z" id="Path-2" fill="#000000" fill-rule="nonzero"></path>
    </g>
</svg>