<?xml version="1.0" encoding="UTF-8"?>
<svg width="32px" height="32px" viewBox="0 0 32 32" version="1.1" xmlns="http://www.w3.org/2000/svg" xmlns:xlink="http://www.w3.org/1999/xlink">
    <title>state-al</title>
    <g id="state-al" stroke="none" stroke-width="1" fill="none" fill-rule="evenodd">
        <path d="M21.0762957,2.00013733 L9.46286936,2.00013733 C8.91063435,1.99876464 8.44859623,2.42294536 8.40438061,2.97439302 L7.01549017,21.0224862 L7.01406848,28.0425246 C7.01211238,28.4945785 7.30033726,28.8993837 7.73021273,29.0464828 L10.344754,29.9426918 C10.4568662,29.9805847 10.5721605,29.9999941 10.688367,29.9999941 C10.8983699,30.0006982 11.1048883,29.9380323 11.2804373,29.8207794 L13.5698345,28.2673782 L13.6784645,28.1823998 C13.9507223,27.9394716 14.0813518,27.5713615 14.0163545,27.2069631 L13.6879493,25.5192394 L23.9407034,25.5195411 C24.2378966,25.5199759 24.5225578,25.3952196 24.7237054,25.1756879 C24.9235304,24.9588537 25.0235999,24.6667605 24.9990723,24.3716694 L24.9147892,23.3344347 C24.8634025,22.7475573 24.3480157,22.315868 23.7639188,22.3668099 L23.6411398,22.3846914 C23.1602782,22.4834666 22.80829,22.9023297 22.7944551,23.4009233 L12.4263423,23.4017011 C12.1148016,23.3956819 11.8085087,23.5351139 11.6025641,23.7808295 L11.5217762,23.8907084 C11.3755006,24.1192651 11.3218442,24.3973994 11.3755353,24.6672292 L11.8130142,26.9152999 L10.5318837,27.7671334 L9.13018939,27.287132 L9.13128634,21.1258335 L10.4439961,4.11748614 L20.193884,4.11748614 L22.0803834,14.4460141 L22.111011,14.5692688 C22.1360748,14.6496189 22.1703655,14.7261776 22.2135007,14.7980326 L23.7093873,17.3062574 L22.59961,19.3892974 C22.5033954,19.5687741 22.4609716,19.7729574 22.4780535,19.9766867 L22.5393539,20.6692571 C22.5918166,21.2538791 23.1083809,21.6843151 23.6927231,21.6316483 L23.81541,21.6135052 C24.3358895,21.5053725 24.7044244,21.0216966 24.6553219,20.4793385 L24.6209393,20.1062657 L25.8648944,17.7723187 L25.9244228,17.6509578 C26.0434004,17.3593793 26.0226669,17.0143043 25.8567994,16.7275391 L24.1533323,13.8651205 L22.1362345,2.86834966 C22.0430815,2.35897056 21.5945187,1.99185609 21.0762957,2.00013733 Z" id="Path" fill="#000000" fill-rule="nonzero"></path>
    </g>
</svg>