<?xml version="1.0" encoding="UTF-8"?>
<svg width="32px" height="32px" viewBox="0 0 32 32" version="1.1" xmlns="http://www.w3.org/2000/svg" xmlns:xlink="http://www.w3.org/1999/xlink">
    <title>state-co</title>
    <g id="state-co" stroke="none" stroke-width="1" fill="none" fill-rule="evenodd">
        <path d="M27.0210249,6.57499972 L4.98630268,6.57499972 C4.48021404,6.5746089 4.06810319,6.9807204 4.05323904,7.48836058 L3.5755838,24.4484855 C3.56548845,24.7014381 3.66066309,24.9524627 3.83952264,25.1376714 C4.01165366,25.3191174 4.25320852,25.4238152 4.50646599,25.425 L27.4916075,25.425 C27.7546621,25.4201333 27.9963408,25.310247 28.1688665,25.1213108 C28.3359099,24.948118 28.4306845,24.703188 28.4248881,24.4506541 L28.1400659,14.231439 C28.1247947,13.723077 27.7128103,13.3170882 27.2066558,13.3174805 L27.0976189,13.3238324 C26.6327668,13.3783654 26.2737395,13.7772873 26.2737395,14.2586132 L26.531,23.542 L5.469,23.542 L5.892,8.447 L26.114,8.447 L26.1595271,10.0989496 C26.1655794,10.34688 26.269241,10.5836058 26.4484104,10.7559332 C26.6288738,10.9294886 26.8707623,11.0230692 27.1204177,11.0155977 C27.3694628,11.0081131 27.6049919,10.9005184 27.7746426,10.7172287 C27.9428881,10.5358381 28.033051,10.2941998 28.0254489,10.0458963 L27.9544359,7.4890003 C27.9391635,6.98059685 27.5271793,6.5746082 27.0210249,6.57499972 Z" id="Path" fill="#000000" fill-rule="nonzero"></path>
    </g>
</svg>