<?xml version="1.0" encoding="UTF-8"?>
<svg width="32px" height="32px" viewBox="0 0 32 32" version="1.1" xmlns="http://www.w3.org/2000/svg" xmlns:xlink="http://www.w3.org/1999/xlink">
    <title>state-mi</title>
    <g id="state-mi" stroke="none" stroke-width="1" fill="none" fill-rule="evenodd">
        <path d="M8.97171055,2.00013988 C9.38434298,1.99339298 9.76154883,2.2312132 9.93663612,2.60620288 C10.1104649,2.97849711 10.0541119,3.41905779 9.79022641,3.73619486 L9.46602592,4.11956561 L9.49002829,4.12773779 L9.61068058,4.18428182 L12.3843201,5.72631753 L13.7856252,4.8594784 C13.8577274,4.81470152 13.9347508,4.7789205 14.0149004,4.75290631 L14.1372452,4.72130653 L17.4333618,4.07824333 C17.8343189,3.9980173 18.2444605,4.16036606 18.4846024,4.49300891 L19.2203397,5.51448769 L20.3163763,5.18532209 C20.5042178,5.12930314 20.7026726,5.12782834 20.8899659,5.17945121 L21.0280028,5.22810157 L23.9979427,6.51897 C24.3989269,6.6735791 24.664894,7.05850599 24.671359,7.49674296 L24.671357,8.68981466 C24.6705027,8.98106285 24.5502764,9.25933852 24.3410775,9.45611382 C24.1308895,9.65667974 23.8472264,9.76093203 23.5557544,9.74316998 L22.68849,9.68573286 L25.4041692,10.8669208 C25.7274006,11.0024815 25.9588625,11.290141 26.0283146,11.6349504 L26.0466278,11.7667474 L26.2594197,15.2231024 C26.2746258,15.4280984 26.2286753,15.6331884 26.1293891,15.8085953 L25.7386145,16.5116116 L27.3519611,16.5108603 C27.7276276,16.5113006 28.0733787,16.7141537 28.2597841,17.041785 L29.8596827,19.8565348 C29.9512705,20.0163507 29.9995727,20.1975228 30,20.3830909 L30,24.9375628 C29.9995725,25.0817438 29.9696276,25.2243512 29.9134162,25.3545885 L28.2065618,29.3637562 C28.0405706,29.7503724 27.6615327,30.0013009 27.2435095,29.9999949 L13.6852486,29.9999949 C13.3424834,29.9995045 13.0222167,29.8303198 12.8269237,29.547894 C12.6324918,29.2671589 12.5855047,28.9086734 12.7003958,28.5866604 L13.1897601,27.2153213 C13.3870212,26.666287 13.9898529,26.3812139 14.5359736,26.5832599 C15.0368972,26.7685761 15.3118395,27.2978366 15.1966143,27.8092519 L15.1775445,27.8704238 L26.5543847,27.8704238 L27.9042366,24.7019901 L27.9042366,20.668209 L26.754947,18.6220228 L26.2760764,18.6220228 L25.0838361,20.1669401 C24.9137595,20.3882929 24.664458,20.5312854 24.3925428,20.5673463 L24.2549628,20.5763334 L22.8688812,20.5763305 C22.4923352,20.577651 22.1449329,20.3753439 21.9572721,20.0473553 C21.7712092,19.7218273 21.770856,19.3207472 21.9543714,18.998544 L24.1600314,15.0434505 L24.0079195,12.5375485 L20.4146994,10.9848808 L19.2737701,14.5403036 C19.1877753,14.8061949 19.0013847,15.0252648 18.7584105,15.1514091 L18.6324109,15.2065241 C18.3239392,15.3189461 17.9810469,15.2794263 17.7060003,15.0996557 L16.9645771,14.6152838 L15.9685262,15.7364045 L16.2166993,17.2958327 C16.2385169,17.4280108 16.2349159,17.5628201 16.2061798,17.6943794 L16.1690758,17.8246376 L15.6631757,19.2259632 L16.9193919,22.2717833 C16.9944834,22.4678141 17.0095017,22.6806833 16.9662711,22.8783087 L16.922955,23.0231682 L16.5192261,24.1486534 C16.321965,24.6976878 15.7191333,24.9827608 15.1730126,24.7807148 C14.6303453,24.5799556 14.3528923,23.9755395 14.5485466,23.4298151 L14.812476,22.6896066 L13.5602375,19.649535 C13.4840925,19.4523795 13.4688636,19.2379589 13.5123802,19.0397365 L13.5559985,18.8946298 L14.1037475,17.358931 L13.8378583,15.5710705 C13.79658,15.3030761 13.8590661,15.0309834 14.0095204,14.8102467 L14.0920051,14.7044147 L16.0159756,12.5325066 C16.3548757,12.1605421 16.9079869,12.0823907 17.3471844,12.3542607 L17.6958408,12.5837454 L18.7076664,9.42770608 L18.686258,9.42657932 L14.2829014,10.4902356 L11.0902235,14.5451656 C10.9161663,14.7656681 10.6632989,14.905661 10.3946731,14.9371892 L10.2593389,14.9437852 L10.0897992,14.9363371 C9.72718589,14.8716251 9.42566068,14.6199402 9.29540159,14.2773655 L8.05870954,11.085162 L2.59552173,8.45021813 C2.34225589,8.32791495 2.15036763,8.1096551 2.05890831,7.84643528 L2.02172853,7.71131481 C1.95600083,7.38996523 2.0422274,7.05541705 2.25540443,6.80696352 L6.06225429,2.36695196 C6.25739794,2.13869758 6.54036715,2.00482503 6.84723563,2.00013988 L8.97171055,2.00013988 Z M6.3978734,5.2046302 L4.73703726,7.14264794 L9.3306196,9.36269911 C9.52948423,9.45902798 9.69186755,9.61539315 9.796724,9.80881155 L9.85256628,9.92912511 L10.5758791,11.7938905 L12.8672867,8.90131278 C12.9841522,8.75439127 13.1373646,8.64231351 13.3094454,8.5759147 L13.4417708,8.53484968 L18.0225996,7.42320982 L17.9721177,7.36197225 L17.189928,6.27955399 L14.7009273,6.76631194 L12.9427301,7.85789528 C12.6619997,8.0318931 12.3192199,8.06138216 12.0159909,7.94323076 L11.8887532,7.88354611 L9.07504211,6.31786365 L7.77314126,7.02427224 C7.451624,7.19699903 7.06748445,7.18750849 6.7577297,7.00737151 L6.64532605,6.93184368 C6.49263778,6.81445248 6.37836045,6.66009489 6.30930653,6.48773717 L6.16518651,6.56481785 L6.28517243,6.42115454 C6.22847224,6.24680984 6.21667744,6.05727722 6.25633966,5.87079663 L6.3978734,5.2046302 Z" id="Combined-Shape" fill="#000000" fill-rule="nonzero"></path>
    </g>
</svg>