<?xml version="1.0" encoding="UTF-8"?>
<svg width="32px" height="32px" viewBox="0 0 32 32" version="1.1" xmlns="http://www.w3.org/2000/svg" xmlns:xlink="http://www.w3.org/1999/xlink">
    <title>state-la</title>
    <g id="state-la" stroke="none" stroke-width="1" fill="none" fill-rule="evenodd">
        <path d="M19.3002882,2.56331287 L3.05428197,2.56331287 C2.47088152,2.56331287 2,3.0391097 2,3.62350969 L2,8.78778369 L2.0161832,8.91240568 C2.03605802,9.02810435 2.06703748,9.11921673 2.10938988,9.20539588 L4.91942718,16.2838319 L3.32139807,24.3214218 C3.26405395,24.6101228 3.32838419,24.9097033 3.49943832,25.1487425 C3.6713588,25.3890035 3.93535827,25.5463435 4.22806105,25.582026 L13.781762,26.7675379 C14.09574,26.8067256 14.4106937,26.7018468 14.6395156,26.4821944 L14.7302942,26.3832471 C14.8981056,26.1752489 14.9823383,25.9095812 14.9631212,25.6393775 L14.9171413,25.0308459 L16.4720659,25.5266189 L16.5860475,27.2194833 C16.613209,27.6326584 16.8778361,27.9932762 17.2645166,28.1406971 L20.5092978,29.3675508 L20.6520617,29.4099953 C20.8930652,29.4634448 21.1464091,29.4306408 21.3674256,29.3146352 L24.7886587,27.5164716 L27.4309581,29.2612425 C27.6020881,29.3751542 27.8045402,29.436579 28.0117105,29.436579 C28.3220147,29.4411264 28.6243443,29.3020819 28.8281237,29.0581116 L29.7517638,27.9540037 L29.8297236,27.8486428 C30.1119489,27.4135398 30.0395835,26.825346 29.6405895,26.4736414 L28.1418873,25.1502821 L29.0905739,23.7136303 C29.3830747,23.2718971 29.3046773,22.6791496 28.9063951,22.32897 L27.9738999,21.5093471 L27.8679452,21.4281349 C27.5747091,21.2312654 27.2011549,21.1927819 26.872171,21.3322526 L25.5492196,21.8871941 L25.4590791,21.8049408 L26.6437084,21.4009721 C26.9600363,21.2988498 27.2132074,21.0438912 27.317153,20.7193606 L27.3517469,20.5791479 C27.4015062,20.2962981 27.3353057,20.0027504 27.1641271,19.7677753 L26.377386,18.7007255 L26.7076506,16.8342605 C26.7607799,16.5216667 26.6744239,16.204593 26.4718392,15.9651129 C26.2684302,15.7245836 25.9683374,15.5876365 25.6537333,15.5920429 L21.8125416,15.5919959 C21.2291412,15.5919959 20.7582597,16.0677921 20.7582597,16.6521921 L20.7653364,16.7756246 C20.8261025,17.3021355 21.2708127,17.7123883 21.8125416,17.7123883 L24.4078149,17.7114329 L24.2188543,18.79297 L24.2040136,18.9371419 C24.1956349,19.1772947 24.2683852,19.4141612 24.412511,19.6084633 L24.6027438,19.8691724 L23.0910343,20.3869908 C22.7376714,20.5078413 22.4746785,20.8069418 22.3982249,21.1733434 C22.3218961,21.5387171 22.4425945,21.9179595 22.7162723,22.171152 L24.6202774,23.916374 L24.7256221,24.0018033 C25.0185794,24.2094275 25.4021657,24.2545089 25.7401693,24.1120192 L26.5261179,23.7812724 L25.8824547,24.7585992 L25.8169647,24.8720022 C25.7013327,25.104188 25.6774361,25.365919 25.7407683,25.6156327 L25.4352024,25.4132798 L25.3115855,25.3438309 C25.0153643,25.2024447 24.6694803,25.2059085 24.3749329,25.3588761 L20.8213476,27.2268951 L18.6568476,26.4066161 L18.5405264,24.6788766 C18.5116069,24.2460021 18.2219543,23.8735938 17.8092896,23.740974 L14.0661297,22.5547458 C13.7309408,22.4488248 13.3661234,22.5177977 13.0920982,22.7377721 L12.9958955,22.8252501 C12.7855805,23.0415831 12.6758831,23.3398741 12.6985347,23.6452482 L12.7639089,24.5136644 L5.6067489,23.6167659 L7.04381023,16.39121 L7.06324939,16.2400132 C7.07170194,16.0878945 7.04726674,15.93429 6.99059243,15.7907192 L4.1081622,8.57230753 L4.1081622,4.68274264 L18.1644548,4.68274264 L18.0048237,7.19420064 L18.0039701,7.32334814 C18.0180433,7.58031777 18.1258145,7.82656012 18.3095645,8.01212231 L18.5689605,8.2748437 L15.0718149,16.209276 C14.9277514,16.5419573 14.9611625,16.9224015 15.1592057,17.2219544 C15.3584582,17.5231188 15.6967089,17.7016709 16.0569262,17.695065 L18.2066635,17.6951455 C18.7901149,17.6951455 19.2609455,17.2195362 19.2609455,16.6349493 L19.2538684,16.5115176 C19.1931004,15.9850263 18.7483771,15.5749925 18.2066635,15.5749925 L17.6641747,15.573975 L20.7833228,8.46281982 L20.831758,8.3271127 C20.9354083,7.96043987 20.8362001,7.56197102 20.5634926,7.28773743 L20.1396597,6.85963701 L20.3506685,3.69286476 C20.3708409,3.40294103 20.270394,3.11590375 20.0729374,2.90118504 C19.8712708,2.68467412 19.5925187,2.56331287 19.3002882,2.56331287 Z" id="Path" fill="#000000" fill-rule="nonzero"></path>
    </g>
</svg>