<?xml version="1.0" encoding="UTF-8"?>
<svg width="32px" height="32px" viewBox="0 0 32 32" version="1.1" xmlns="http://www.w3.org/2000/svg" xmlns:xlink="http://www.w3.org/1999/xlink">
    <title>state-wy</title>
    <g id="state-wy" stroke="none" stroke-width="1" fill="none" fill-rule="evenodd">
        <path d="M28.954489,5.38022786 L4.74812422,5.38022786 C4.20847006,5.37813402 3.75377703,5.7884442 3.70436668,6.32679228 L2.00392442,24.996281 C1.97940498,25.2791591 2.07054261,25.5576115 2.25599243,25.7702241 C2.43624727,25.9805504 2.69797037,26.111236 2.97885381,26.1299981 L10.4786994,26.6187664 L21.772513,26.6197801 C22.3491215,26.6197801 22.8182744,26.1548501 22.8182744,25.5789581 C22.8182744,25.0032315 22.3490559,24.5383585 21.772513,24.5383585 L10.5666938,24.5383585 L4.18466902,24.1206214 L5.70354995,7.47603005 L27.8997187,7.47603005 L27.7814083,24.5375249 L26.8402961,24.5378779 C26.2637374,24.5378779 25.794768,25.0027684 25.794768,25.5784775 C25.794768,26.1543514 26.2636711,26.6193085 26.8402961,26.6193085 L28.824051,26.6192907 C29.1006602,26.6192907 29.36627,26.5102897 29.5622286,26.3156082 C29.7588432,26.1207042 29.8698021,25.8555547 29.8698021,25.5784657 L30,6.42432905 C30,6.14400952 29.8891205,5.87847502 29.6919239,5.68342251 C29.4961575,5.48935843 29.2309459,5.38022786 28.954489,5.38022786 Z" id="Path" fill="#000000" fill-rule="nonzero"></path>
    </g>
</svg>