<?xml version="1.0" encoding="UTF-8"?>
<svg width="32px" height="32px" viewBox="0 0 32 32" version="1.1" xmlns="http://www.w3.org/2000/svg" xmlns:xlink="http://www.w3.org/1999/xlink">
    <title>state-ca</title>
    <g id="state-ca" stroke="none" stroke-width="1" fill="none" fill-rule="evenodd">
        <path d="M13.9135638,2.10460125 C14.1835545,2.10460125 14.4429799,2.2140859 14.6346173,2.41115073 C14.8208494,2.60307791 14.926415,2.86303908 14.926415,3.13458434 L14.926415,10.9539724 L26.8700904,22.0361018 C27.0543832,22.2074155 27.1707769,22.4430866 27.1944672,22.6961746 L27.6615924,27.5072145 C27.6867212,27.7695556 27.6122769,28.019928 27.4694858,28.2173605 C27.3231058,28.4197555 27.1053543,28.5665455 26.8471584,28.6180044 L20.3447551,29.8953988 L17.7279906,26.9213187 L11.729069,24.4745856 C11.5572484,24.4047469 11.4104148,24.2898336 11.301047,24.1447059 C11.193729,24.0022983 11.1226262,23.8307562 11.0995705,23.6425231 L10.8401067,21.4009488 L7.61457968,17.7994612 C7.48282122,17.6454561 7.39669081,17.4552374 7.36734688,17.253725 L6.97988972,14.2013818 C6.94366144,13.9205188 7.02213285,13.6513961 7.17695413,13.4430459 C7.33584038,13.2292252 7.57451426,13.0793464 7.85330969,13.0413329 C8.13438851,13.0028254 8.40440068,13.0845897 8.61325403,13.249422 C8.81678808,13.4100561 8.96204208,13.6502217 8.99868942,13.9357545 L9.32950122,16.6515628 L12.5502858,20.2475888 C12.6889589,20.4035723 12.7779512,20.599816 12.8041967,20.8102842 L13.0473308,22.775346 L18.7807222,25.1122028 C18.9843825,25.189599 19.1588484,25.3323664 19.2806923,25.5249285 L20.6335078,27.7303507 L25.5756542,26.7619074 L25.2189583,23.2908377 L13.2296584,12.1691792 C13.0204502,11.9742471 12.8999685,11.6978362 12.9007854,11.4079057 L12.9007854,4.16432801 L6.35953396,4.16432801 L6.35953396,10.6911507 C6.64732536,11.025435 6.73350321,11.298231 6.71406549,11.5654365 C6.69578064,11.8167938 6.5870982,12.0606172 6.39390828,12.2436411 C6.19568248,12.4310126 5.94364611,12.5220078 5.69307595,12.519283 C5.43720823,12.5165005 5.18175981,12.4159646 4.9886804,12.2190881 L4.59254942,11.7783473 C4.42589029,11.5897063 4.3327761,11.34349 4.33358666,11.0892549 L4.33358666,3.13459035 C4.33358666,2.8518473 4.44577443,2.59640623 4.62533695,2.41127735 C4.80987416,2.22101959 5.06516853,2.10460125 5.34645804,2.10460125 L13.9135638,2.10460125 Z" id="Path" fill="#000000" fill-rule="nonzero"></path>
    </g>
</svg>