<?xml version="1.0" encoding="UTF-8"?>
<svg width="32px" height="32px" viewBox="0 0 32 32" version="1.1" xmlns="http://www.w3.org/2000/svg" xmlns:xlink="http://www.w3.org/1999/xlink">
    <title>state-nc</title>
    <g id="state-nc" stroke="none" stroke-width="1" fill="none" fill-rule="evenodd">
        <path d="M17.5293945,10 L11.2904347,10 L11.1481529,10.009439 C10.9136377,10.0410826 10.6945518,10.1512191 10.5257517,10.3238436 L8.04957678,12.8610314 L3.6822783,14.750902 C3.50238421,14.8263698 3.34347233,14.9553739 3.22735448,15.1205985 L2.20611353,16.5628636 C1.96836587,16.8996301 1.93381649,17.3432789 2.11537392,17.7134622 C2.30108751,18.0916592 2.68224845,18.3308386 3.09943775,18.3237256 L7.20040198,18.2567548 L7.30567691,18.2506704 C7.37689089,18.242533 7.44954791,18.2262726 7.51993769,18.2021239 L9.69552096,17.4771887 L12.5647703,17.4771887 L14.0412455,18.6872478 L14.1661284,18.7728271 C14.3375806,18.8747409 14.5276392,18.927627 14.722378,18.9283692 L16.9144302,18.8789414 L19.91241,22.3629111 C20.1176553,22.6013387 20.4137951,22.7388146 20.7260362,22.737873 L20.8016257,22.7335723 L22.8467297,22.5591056 L22.9888525,22.5374495 C23.3140556,22.4648828 23.590383,22.2411105 23.7347383,21.9301024 L24.8964377,19.4389381 L27.1480589,18.6728161 L27.2754358,18.6224224 C27.5632858,18.4856792 27.7823337,18.2183936 27.8640388,17.8953921 L28.1108423,16.8714061 L29.5372361,15.8846321 C29.8380151,15.663556 30.0051997,15.319385 29.9998767,14.9571256 L29.9998767,13.2462136 L29.9911825,13.1073291 C29.9403781,12.6962527 29.6688268,12.3412057 29.2768094,12.1997831 L28.7471488,12.0145793 L28.7845698,11.1644666 C28.7974349,10.8678814 28.693665,10.5772094 28.4951609,10.3586747 C28.2905989,10.1339975 28.0041,10.0056386 27.7026848,10.0061136 L21.7966941,10.0061129 C21.1940168,10.0061129 20.7151369,10.5078423 20.7151369,11.1156426 L20.7223383,11.2440804 C20.7841893,11.7923667 21.2371306,12.2249208 21.7966941,12.2249208 L26.5717318,12.2247248 L26.5498129,12.7615899 L26.5516045,12.9056598 C26.5845817,13.3335031 26.8618852,13.7150876 27.2729881,13.8624817 L27.8326049,14.0538126 L27.8326049,14.3766619 L26.5425777,15.2722194 L26.4369416,15.3551051 C26.2701783,15.5037377 26.1510783,15.7029596 26.0973296,15.9248779 L25.8978574,16.7657463 L23.7777222,17.483737 L23.6442848,17.5383264 C23.4291836,17.6440866 23.2525844,17.821871 23.1449317,18.0436953 L22.0459723,20.3933979 L21.1748663,20.4708817 L18.2055574,17.0029076 L18.1084402,16.9053158 C17.9046877,16.7237189 17.6462365,16.62469 17.3764675,16.6270996 L15.0759505,16.6776965 L13.6115958,15.4898338 C13.4224471,15.3361165 13.1870551,15.2512533 12.9439978,15.2503011 L9.52230101,15.2502973 L9.41175509,15.2559598 C9.33837167,15.2634895 9.26579602,15.2784881 9.19510833,15.3007126 L7.0023712,16.031998 L6.25218694,16.043738 L9.08584071,14.8182233 L9.21013081,14.7548866 C9.29029988,14.7071016 9.36467978,14.6484777 9.43082749,14.5807083 L11.7394502,12.2176809 L17.5293945,12.2188087 C18.1322126,12.2188087 18.6109517,11.7169415 18.6109517,11.109279 C18.6109517,10.5016045 18.1321918,10 17.5293945,10 Z" id="Path" fill="#000000" fill-rule="nonzero"></path>
    </g>
</svg>