<?xml version="1.0" encoding="UTF-8"?>
<svg width="32px" height="32px" viewBox="0 0 32 32" version="1.1" xmlns="http://www.w3.org/2000/svg" xmlns:xlink="http://www.w3.org/1999/xlink">
    <title>state-dc</title>
    <g id="state-dc" stroke="none" stroke-width="1" fill="none" fill-rule="evenodd">
        <path d="M12.7928932,2.29289322 L4.79289322,10.2928932 C4.46152894,10.6242575 4.40471825,11.1412885 4.65622559,11.536698 C5.65022539,13.0994234 6.55592077,14.1862579 7.4118283,14.8087361 C8.07979766,15.294532 8.90203594,15.6343963 9.87400029,15.8371582 L10.242001,15.9054065 C10.5642706,16.8650081 10.8621571,17.5662475 11.1520017,18.0299989 L11.2818204,18.2248006 C11.603473,18.6792796 12.0563061,19.133838 12.6399969,19.5987201 L12.756,19.688 L12.9943541,20.0539501 C13.4534072,20.7713566 13.7747761,21.3464019 13.955855,21.7689193 L14.0044392,21.8872932 L14.047,22.005 L13.9444658,22.0823288 C13.7118235,22.249053 13.4142625,22.4248348 13.0527864,22.6055728 L12.951486,22.6637448 C12.5324861,22.9378281 12.3762256,23.4885193 12.6055728,23.9472136 L13,24.737 L13,29 C13,29.9003888 14.0967658,30.3421387 14.7208331,29.6931087 L27.2208331,16.6931087 C27.5983305,16.3005114 27.5922281,15.6780146 27.2071068,15.2928932 L14.2071068,2.29289322 C13.8165825,1.90236893 13.1834175,1.90236893 12.7928932,2.29289322 Z M13.5,4.415 L25.099,16.014 L15,26.516 L15,24.5 L14.9932675,24.3841554 C14.9798473,24.2690895 14.946498,24.156928 14.8944272,24.0527864 L14.819,23.902 L14.9529018,23.8165826 C15.2460461,23.6193958 15.4972764,23.4169371 15.7071068,23.2071068 C16.6010858,22.3131277 16.0439562,21.0131587 14.3320503,18.4452998 C14.2695927,18.3516134 14.1917612,18.2691481 14.1018392,18.2013827 C13.4825884,17.7347143 13.0648703,17.3169962 12.8479983,16.9700011 C12.6135839,16.594938 12.306311,15.8267558 11.9544174,14.7015249 C11.8353104,14.320663 11.5011705,14.0470727 11.1042949,14.0054536 C10.000944,13.8897487 9.16582566,13.6113759 8.5881717,13.1912639 L8.46372734,13.0959576 C8.00025022,12.7236559 7.45824072,12.1001931 6.85288864,11.2301183 L6.784,11.13 L13.5,4.415 Z" id="Path-2" fill="#000000" fill-rule="nonzero"></path>
    </g>
</svg>