<?xml version="1.0" encoding="UTF-8"?>
<svg width="32px" height="32px" viewBox="0 0 32 32" version="1.1" xmlns="http://www.w3.org/2000/svg" xmlns:xlink="http://www.w3.org/1999/xlink">
    <title>state-sc</title>
    <g id="state-sc" stroke="none" stroke-width="1" fill="none" fill-rule="evenodd">
        <path d="M11.5299335,7.49996938 L8.24090258,7.49996938 C8.08829247,7.49923211 7.93538632,7.53455062 7.79636094,7.60285587 L5.97096438,8.50101447 C5.88054926,8.5467928 5.80183222,8.60173676 5.73190029,8.66669428 L3.81268509,10.4697697 C3.45674044,10.8030157 3.39682945,11.3450234 3.67313714,11.7477294 L7.32344723,17.0579321 L7.37892172,17.1297398 C7.41654554,17.174771 7.4556967,17.2144718 7.49784926,17.2509475 L12.477,21.453 L14.4912408,25.0011227 C14.6741276,25.3136271 15.0044488,25.5008221 15.3604406,25.5001055 L18.2829541,25.5001065 C18.5563725,25.5056121 18.8291516,25.3914392 19.0229567,25.1854294 L20.1946344,23.8328631 L24.1142273,20.6827948 L24.2063657,20.5985586 C24.2928892,20.5088233 24.3620967,20.4032011 24.4097452,20.2871838 L25.432,17.76 L28.2141434,14.9500241 C28.4168225,14.7449468 28.5201191,14.4628032 28.496746,14.1761654 C28.4734068,13.889944 28.3262476,13.6282364 28.0939982,13.4585101 L22.068978,9.04204908 C21.8955229,8.91607923 21.6885679,8.84917432 21.476082,8.84957701 L16.3331048,8.84957611 C15.7835892,8.84957611 15.3350789,9.29159084 15.3350789,9.84038937 L15.3418176,9.95623433 C15.3996703,10.4500724 15.8228621,10.8310006 16.3331048,10.8310006 L21.15,10.831 L25.985,14.37 L23.8668243,16.5246688 L23.8015701,16.5957043 C23.7394115,16.6717055 23.6871856,16.7618122 23.6507019,16.8588948 L22.656,19.307 L18.7980957,22.4117069 L18.7521873,22.4558867 L17.827,23.51 L15.943,23.51 L14.1306146,20.328206 L14.0662939,20.2301969 C14.0204094,20.1680136 13.968538,20.112106 13.9108044,20.0622556 L8.903,15.832 L5.801,11.337 L6.994,10.21 L8.473,9.481 L11.5299335,9.48143119 C12.0795912,9.48143119 12.5279595,9.03968212 12.5279595,8.49082001 C12.5279595,7.94198732 12.0796177,7.49996938 11.5299335,7.49996938 Z" id="Path" fill="#000000" fill-rule="nonzero"></path>
    </g>
</svg>