<?xml version="1.0" encoding="UTF-8"?>
<svg width="32px" height="32px" viewBox="0 0 32 32" version="1.1" xmlns="http://www.w3.org/2000/svg" xmlns:xlink="http://www.w3.org/1999/xlink">
    <title>state-id</title>
    <g id="state-id" stroke="none" stroke-width="1" fill="none" fill-rule="evenodd">
        <path d="M11.8026686,2 L9.73349117,2 C9.19942256,1.99693211 8.75397416,2.41079021 8.70166267,2.94830207 L7.64133256,13.9709243 L7.63735881,14.1067545 C7.64207076,14.2420738 7.67270259,14.375082 7.72801904,14.4987747 L8.6509535,16.5701491 L8.54476702,17.1106115 C8.43313458,17.6748636 8.78872483,18.2302688 9.34866771,18.348364 C9.91355725,18.4674049 10.459991,18.0945632 10.5725322,17.5257401 L10.744281,16.666982 L10.7609943,16.5360796 C10.7729619,16.3618307 10.7438319,16.1896987 10.6756358,16.0312776 L9.72475566,13.8839535 L10.6678537,4.10367782 L10.6994029,4.10367782 L10.526924,6.81282236 L10.5269703,6.95090063 C10.5418537,7.17965376 10.630041,7.39916563 10.7806264,7.5741164 L14.8605272,12.3177573 L14.1218445,15.165682 C14.0352122,15.4990746 14.1143523,15.8550935 14.3348695,16.1181953 L18.2424897,20.8056915 L18.3396012,20.9073356 C18.5457186,21.0958404 18.8198322,21.194117 19.1012733,21.1746434 L22.2971423,20.9262027 L22.2971423,27.8952126 L9.69320638,27.8952126 L9.69335677,21.8691788 L9.83418331,21.2056028 C9.94548606,20.6404856 9.58996083,20.085182 9.0296728,19.9675437 C8.46542558,19.8485451 7.91900039,20.2214732 7.80646705,20.7902568 L7.6455691,21.6009952 C7.63168803,21.7159464 7.63168803,21.7871242 7.63889319,21.8575776 L7.63640844,28.9477404 C7.63640844,29.5253627 8.09595089,30 8.67048878,30 L23.3317966,30 C23.6092942,30 23.8744761,29.8864694 24.0684254,29.6862228 C24.2593073,29.489143 24.3658778,29.223647 24.3658778,28.9478985 L24.3658778,19.8084105 C24.3666973,19.5200317 24.2496729,19.2419632 24.0417074,19.041992 L23.9301206,18.9488397 C23.7347934,18.8078259 23.4954377,18.7390456 23.2528254,18.7579997 L19.4779891,19.0264856 L16.2486953,15.1729668 L16.9999333,12.3156332 L17.0272876,12.1702707 C17.0616002,11.8782117 16.9744436,11.582255 16.7821445,11.3563078 L12.618275,6.51494395 L12.83721,3.11989969 C12.8555103,2.83222979 12.7571517,2.5491904 12.5640243,2.33721966 C12.3689257,2.12217982 12.0927511,1.99914517 11.8026686,2 Z" id="Path" fill="#000000" fill-rule="nonzero"></path>
    </g>
</svg>