<?xml version="1.0" encoding="UTF-8"?>
<svg width="32px" height="32px" viewBox="0 0 32 32" version="1.1" xmlns="http://www.w3.org/2000/svg" xmlns:xlink="http://www.w3.org/1999/xlink">
    <title>state-ak</title>
    <g id="state-ak" stroke="none" stroke-width="1" fill="none" fill-rule="evenodd">
        <path d="M18.5660665,5.38028643 L16.5324911,5.38028643 C16.4106786,5.38028643 16.2898049,5.40194503 16.1756023,5.44430834 L13.3421585,6.41931408 L13.2262181,6.46500138 C12.7785863,6.67322186 12.5294429,7.17854209 12.6563277,7.67296058 L12.8236432,8.33014048 L11.1089799,8.45742239 C10.5579642,8.49555936 10.1274539,8.95348164 10.1287693,9.50687994 L10.1287679,11.5345194 L10.1371974,11.6690923 C10.1769892,11.9792977 10.3554564,12.2590367 10.6267079,12.4268369 L11.125618,12.7335131 L9.70881712,12.7649132 C9.20258146,12.7778395 8.7767983,13.1440768 8.69310222,13.640402 L8.26063618,16.1880925 C8.21446433,16.4690812 8.28353233,16.7540072 8.45160752,16.9810428 L9.93595534,19.00524 L10.0094993,19.0940886 L10.088155,19.1721528 L10.6670272,19.6720927 L9.92449332,20.1892749 L7.3406798,20.5444598 L4.54872798,20.8473019 L3.28844797,20.5633132 C2.97571573,20.4936003 2.6494011,20.5679297 2.39917027,20.7651816 C2.14711616,20.9646365 2,21.2668929 2,21.5867859 L2,23.3787763 C2,23.8204545 2.27727575,24.2141023 2.69346319,24.3652564 L4.13596686,24.8876629 C4.2827227,24.9423304 4.44453223,24.9636212 4.60471864,24.9482043 L10.4563694,24.3603244 C10.6383822,24.3451865 10.8204645,24.2785255 10.9754027,24.1678811 L13.9885581,22.0621439 L14.0761426,21.9926059 L14.1534402,21.916703 L15.8242014,20.1284299 L15.8504802,20.2446607 C15.8872591,20.3712466 15.9483218,20.4917754 16.0328925,20.5992714 L16.1230051,20.69969 C16.3781037,20.9497417 16.7462969,21.0561292 17.1006157,20.9752755 L19.4185614,20.4439223 L26.3402786,26.3535795 C26.5162641,26.515193 26.7615485,26.6133904 27.0175423,26.6197 L28.151455,26.6197 C28.4821773,26.6213797 28.7969202,26.4666323 28.9976272,26.2016342 L29.7885418,25.1536376 L29.8625404,25.041601 C30.1043887,24.6190631 30.0229535,24.0773411 29.6509854,23.7439297 L28.4720668,22.6940593 L27.6477619,21.1038618 C27.4647324,20.7538995 27.102282,20.536454 26.7081363,20.5373129 L25.4805137,20.5373117 C24.8984408,20.5373117 24.4246667,21.0058342 24.4246667,21.5866905 L24.4317842,21.7093449 C24.4411855,21.7897942 24.4597217,21.8674297 24.4863281,21.9412131 L24.5284117,22.0405393 L23.0253157,20.7560345 L23.134444,20.7214658 C23.4984898,20.5807737 23.7702408,20.2442233 23.8055618,19.8302086 L24.7285989,9.31937173 L24.7295664,9.18099009 C24.7060075,8.77085352 24.4482275,8.41162383 24.0624066,8.26075197 L21.6574308,7.32845207 L19.1801075,5.57638703 C19.0022917,5.44946256 18.7869888,5.38028643 18.5660665,5.38028643 Z M25.1695374,22.588144 L25.2387289,22.6086534 C25.3164009,22.6267412 25.3973508,22.6363042 25.4805137,22.6363042 L26.0551696,22.6354678 L26.6829453,23.8346738 L26.7413656,23.9312402 L25.1695374,22.588144 Z M18.2241973,7.47831097 L20.5381215,9.1041601 L20.6493692,9.17163779 L20.7623635,9.22371444 L22.5509503,9.91774336 L21.6991208,19.6236421 L20.3916358,18.5064659 L20.2768212,18.4214052 C20.0376378,18.2680777 19.7448119,18.2163619 19.4646342,18.2815092 L18.8472948,18.4225174 L18.8901503,18.2782662 C18.9295785,18.0913991 18.9163834,17.8932065 18.848098,17.7084812 C18.7548869,17.4426189 18.5499643,17.2210941 18.284548,17.1031634 L17.6877432,16.8423743 C17.3486284,16.6896315 16.9476126,16.729312 16.6408488,16.9485203 L14.5302355,18.4486739 L14.4441558,18.5175149 L14.3672379,18.5935239 L13.4163183,19.6078674 L13.4068887,19.5395845 C13.3600217,19.3187426 13.2421088,19.1161323 13.0672491,18.96478 L11.5324226,17.637914 L10.4292812,16.1013946 L10.6411118,14.8450588 L12.7273238,14.7979264 C13.2395545,14.7810252 13.6640486,14.4073351 13.740687,13.9065531 L13.9382122,12.7752129 L13.9509552,12.6346706 C13.9602634,12.262228 13.7747939,11.9137527 13.4570806,11.7157455 L12.2399823,10.9599951 L12.2399823,10.4923903 L12.6794181,10.4597143 L13.8297451,11.2254161 C14.1877804,11.4670948 14.6615323,11.4653883 15.0202559,11.2192293 L15.1334025,11.1296622 C15.4156189,10.8729941 15.5393039,10.4800841 15.4451891,10.1030576 L14.9419494,8.09352117 L16.713214,7.47831097 L18.2241973,7.47831097 Z" id="Path" fill="#000000" fill-rule="nonzero"></path>
    </g>
</svg>