<?xml version="1.0" encoding="UTF-8"?>
<svg width="32px" height="32px" viewBox="0 0 32 32" version="1.1" xmlns="http://www.w3.org/2000/svg" xmlns:xlink="http://www.w3.org/1999/xlink">
    <title>state-wi</title>
    <g id="state-wi" stroke="none" stroke-width="1" fill="none" fill-rule="evenodd">
        <path d="M10.735205,2.02010377 L5.83189572,2.98439655 L5.70707116,3.01669955 C5.26196897,3.16174096 4.96085771,3.59219731 4.98603481,4.07201759 L5.16940173,7.42426465 L3.60178678,8.10154406 C3.27578194,8.23439966 3.03482887,8.53493548 2.97337949,8.89229546 L2.01251624,14.9094446 C1.97436912,15.1571123 2.02408628,15.4078104 2.15255887,15.6196029 L3.64581767,18.0921243 L3.71983404,18.2034434 C3.90889766,18.4503379 4.20833024,18.6045861 4.53114178,18.6095511 L5.91644866,18.60856 L9.41618886,22.1308355 L8.93806467,26.7984771 C8.90856247,27.0816665 8.99490569,27.3655948 9.1778949,27.5842557 L10.8813837,29.6248218 C11.0807591,29.8628464 11.374167,30.0001805 11.6835151,30.0001805 L15.4350766,30.0001805 C16.0140833,30.0001805 16.4817541,29.5284106 16.4817541,28.948645 L16.4747257,28.8261952 C16.4143752,28.3038967 15.9727206,27.8971847 15.4350766,27.8971847 L12.1700089,27.8965054 L11.0635231,26.5725535 L11.5521967,21.8584996 C11.5836558,21.5426585 11.4729938,21.2309957 11.2505019,21.0075867 L7.08807924,16.8036095 L6.98531167,16.7121274 C6.8049541,16.5718734 6.5815194,16.4937005 6.34972309,16.4926087 L5.12771133,16.4924904 L4.1406629,14.869945 L4.94968205,9.80737815 L6.66331788,9.07602542 L6.77990572,9.01701106 C7.1152175,8.82020425 7.31717832,8.45095738 7.29708392,8.05597278 L7.12997738,4.88227691 L10.6556332,4.18480776 L12.1850378,5.4700186 L12.2818931,5.5412362 C12.3477927,5.5845812 12.4164399,5.61977233 12.4883685,5.64748708 L22.3165513,9.25864232 L23.8782512,12.7459881 L22.6572889,15.8484959 C22.5331492,16.1717659 22.5732508,16.5311022 22.7631272,16.8155925 C22.9536545,17.1010582 23.2713192,17.2753194 23.6138791,17.281431 L25.0112222,17.2815072 L25.1390634,17.2733982 C25.4756429,17.2312439 25.7734857,17.0273896 25.9343114,16.722846 L26.0630536,16.4778424 L25.4945212,17.9876833 L23.5590914,23.5616938 L23.5204878,23.7076405 C23.5017374,23.8058291 23.4969869,23.9054598 23.5064119,24.0044952 L23.8613497,27.8965054 L19.2519584,27.89726 C18.672974,27.89726 18.205047,28.3689342 18.205047,28.9487203 C18.205047,29.5285063 18.672974,30.0001805 19.2519584,30.0001805 L25.0084523,30.0001805 C25.3148746,29.9949665 25.596813,29.8622414 25.7916406,29.635866 L25.8784836,29.5257965 C26.0100707,29.3319325 26.0746579,29.0891298 26.0535937,28.8444217 L25.610093,24.0170445 L27.4487062,18.7138283 L29.9317876,12.1425865 C30.0579269,11.809135 30.0070867,11.4338335 29.7961567,11.1462988 C29.5852396,10.8577727 29.2413657,10.6962755 28.8844553,10.7198525 L27.2513074,10.8287222 L27.1220873,10.843784 C26.824596,10.8980889 26.5590229,11.0842834 26.4043457,11.3554239 L25.9413627,12.227675 L24.0455794,7.98795192 L23.9798098,7.86360317 C23.8571519,7.66505096 23.6711479,7.51175994 23.4497394,7.43046933 L13.3857912,3.73635425 L11.6066115,2.24178793 C11.3641841,2.04010509 11.0441554,1.95851883 10.735205,2.02010377 Z" id="Path" fill="#000000" fill-rule="nonzero"></path>
    </g>
</svg>