<?xml version="1.0" encoding="UTF-8"?>
<svg width="32px" height="32px" viewBox="0 0 32 32" version="1.1" xmlns="http://www.w3.org/2000/svg" xmlns:xlink="http://www.w3.org/1999/xlink">
    <title>state-ut</title>
    <g id="state-ut" stroke="none" stroke-width="1" fill="none" fill-rule="evenodd">
        <path d="M7.91548155,2.0004521 L5.31501504,2.0004521 C4.72942243,2.0004521 4.25364044,2.47392978 4.25364044,3.05900553 L4.25364044,28.9389487 C4.25364044,29.5240245 4.72942243,29.9975022 5.31501504,29.9975022 L26.6842341,30 C26.975428,30 27.2539862,29.8811305 27.4546758,29.6705414 C27.6562339,29.458561 27.7613375,29.1735973 27.7446332,28.8822448 L26.5799401,8.01672301 L26.5652652,7.88940693 C26.476832,7.39000244 26.0390093,7.01585188 25.5188096,7.01665569 L19.3950199,7.01638207 L18.8803038,2.9263656 C18.8126726,2.39320433 18.356299,1.9957525 17.8188357,2.00003427 L11.3634841,2.00003427 C10.7777029,2.00003427 10.3021095,2.47350029 10.3021095,3.05862655 L10.3092558,3.18216948 C10.3706137,3.70897092 10.8195455,4.11717998 11.3634841,4.11717998 L16.8857289,4.11610593 L17.3969068,8.20403217 L17.4192914,8.3245981 C17.5352961,8.79622993 17.9621765,9.13448705 18.4580891,9.1308731 L24.5150101,9.13018083 L25.5628954,27.8794407 L6.37532651,27.8794407 L6.37532651,4.11723269 L7.91548155,4.11755896 C8.50107417,4.11755896 8.97685616,3.64408127 8.97685616,3.05900553 C8.97685616,2.47392978 8.50107417,2.0004521 7.91548155,2.0004521 Z" id="Path" fill="#000000" fill-rule="nonzero"></path>
    </g>
</svg>