<?xml version="1.0" encoding="UTF-8"?>
<svg width="32px" height="32px" viewBox="0 0 32 32" version="1.1" xmlns="http://www.w3.org/2000/svg" xmlns:xlink="http://www.w3.org/1999/xlink">
    <title>state-ky</title>
    <g id="state-ky" stroke="none" stroke-width="1" fill="none" fill-rule="evenodd">
        <path d="M18.6781348,7.17283243 L18.1084805,7.89578995 C17.7505259,8.36146842 17.8393444,9.02198447 18.3025136,9.3739502 L18.4121892,9.4472069 C18.8255886,9.68747262 19.3535173,9.61720076 19.6896153,9.27685228 L19.7438225,9.21242744 L22.470696,10.9562202 L22.5841623,11.0198584 C22.7017988,11.0761842 22.8310213,11.110246 22.963509,11.1191042 L27.2097068,11.4231224 L27.0301556,12.1405472 L27.0048519,12.282664 C26.9741552,12.5679636 27.0619907,12.8558065 27.2515672,13.0768361 L27.8463238,13.7757886 L27.785479,14.3842368 L25.3544152,16.0741092 L25.2489253,16.1578271 C25.1492771,16.2483121 25.0677963,16.3583804 25.0102653,16.4815746 L24.3635215,17.7949267 L23.0204285,19.1391464 L4.8965608,19.1391464 L5.32134775,18.4247832 L6.8366607,18.4248213 L6.96983774,18.4135005 C7.31901197,18.3624256 7.61658039,18.1469804 7.76919138,17.8323844 L8.76922063,15.7791605 L11.7115417,15.0153787 L11.8132503,14.9830118 L11.9057023,14.9455081 L14.2666624,13.7352254 L15.4817594,14.3685426 C15.7334213,14.4992123 16.026201,14.5233095 16.2951,14.4358086 C16.5643538,14.3481889 16.7867767,14.1559733 16.9123641,13.902474 L17.5888145,12.5413827 C17.8546495,12.0280046 17.6492367,11.3889997 17.1275927,11.121419 L17.0056162,11.0680951 C16.5110693,10.8876444 15.9475139,11.0979457 15.6994401,11.5771753 L15.4891925,12.0056552 L14.7331641,11.6216959 C14.4323603,11.4663988 14.0717327,11.4663988 13.7685023,11.6231564 L10.9990907,13.0502013 L7.76980677,13.8684465 L7.64520736,13.909274 C7.40288451,14.0056668 7.20404619,14.1886294 7.08881052,14.424744 L6.16303437,16.3245103 L4.72314784,16.3253584 C4.3471614,16.3275315 4.00302094,16.5266732 3.81581885,16.8492239 L2.14384783,19.6593315 C1.95310559,19.9880374 1.95250478,20.3875613 2.13937224,20.7123327 C2.32620231,21.0367172 2.67144621,21.2372123 3.0457368,21.2394205 L23.46862,21.2394205 C23.7480056,21.2398484 24.0169397,21.1285782 24.2146493,20.9304604 L25.9886457,19.1645302 L26.0656554,19.0794881 C26.1139514,19.0199746 26.155974,18.9550532 26.1906082,18.8861005 L26.7826663,17.6563357 L29.3891174,15.835129 C29.6387368,15.6605446 29.8002298,15.3869126 29.83201,15.0844218 L29.9925952,13.5602428 L30,13.4182313 C29.9955526,13.1813425 29.9079491,12.9465107 29.7490041,12.7598133 L29.2085716,12.1273448 L29.5621764,10.7205794 C29.6378911,10.4195303 29.5760124,10.1000348 29.3931631,9.84867513 L29.3091765,9.74731855 C29.129743,9.55645709 28.8841786,9.43815716 28.6198603,9.41854347 L23.3854974,9.04454082 L20.0816133,6.926326 C19.6207707,6.63204142 19.01064,6.73899596 18.6781348,7.17283243 Z" id="Path" fill="#000000" fill-rule="nonzero"></path>
    </g>
</svg>