<?xml version="1.0" encoding="UTF-8"?>
<svg width="32px" height="32px" viewBox="0 0 32 32" version="1.1" xmlns="http://www.w3.org/2000/svg" xmlns:xlink="http://www.w3.org/1999/xlink">
    <title>state-me</title>
    <g id="state-me" stroke="none" stroke-width="1" fill="none" fill-rule="evenodd">
        <path d="M14.0331249,2.00004618 L12.9596211,2.00004618 C12.5397767,2.00150171 12.1597542,2.24331096 11.9805471,2.6216004 L9.08054751,8.67646397 L9.02835593,8.80766655 C8.95590152,9.03032336 8.95623407,9.2705849 9.03129114,9.49358486 L9.80235711,11.8229716 L9.00258239,13.5932733 L8.95588288,13.7137681 L8.70936115,14.5971385 L8.08736064,14.5974856 C7.75498037,14.5961382 7.43903446,14.7494811 7.23256489,15.0128773 C7.02686333,15.2742856 6.95226037,15.6167974 7.03028449,15.9413033 L9.91843506,28.4924491 C9.99368069,28.8104908 10.2042662,29.0760817 10.4939875,29.2196872 L11.8107205,29.8844758 C11.96282,29.9609293 12.1300164,30.0000462 12.2996319,30.0000462 C12.4337571,29.9980571 12.5589847,29.9738292 12.6771546,29.9286571 C12.9500985,29.8290607 13.1756718,29.6161481 13.2941594,29.3424199 L14.3556459,26.904844 C14.5948312,26.3535775 14.3442871,25.7124756 13.7949023,25.4716 L13.6664536,25.4245439 C13.1480159,25.2707435 12.5846285,25.525752 12.3638847,26.0355428 L11.8533388,27.2070952 L9.45015648,16.7737384 L9.53350722,16.7744737 C10.0098846,16.7767176 10.4329901,16.4644344 10.5737085,16.0063695 L11.0202892,14.3979695 L11.9639831,12.3552313 L12.0136161,12.2264806 C12.0823151,12.0078703 12.0807576,11.7714342 12.0067891,11.5517126 L11.2369877,9.23194891 L13.654258,4.17669584 L13.8350543,4.17669584 L17.9687158,5.73459664 L19.4144601,12.5458536 L19.4541257,12.6782248 C19.5641466,12.9781047 19.7938673,13.2123906 20.0891933,13.3246129 L22.6400701,14.294246 L23.2752053,16.4802379 L20.861457,18.4337774 L18.0706668,17.8032821 C17.7723755,17.7359965 17.4599403,17.7978801 17.2097808,17.9736436 L17.1081821,18.054356 C16.9158226,18.2269811 16.7899216,18.4644429 16.7562404,18.7241585 L16.3896829,21.539013 L15.912122,21.5131334 C15.3130828,21.4785023 14.7999069,21.9382364 14.7655664,22.5385728 C14.7490988,22.8263298 14.8470092,23.1089541 15.0379145,23.3246322 C15.2298565,23.5409888 15.4990873,23.6719161 15.7869554,23.6890186 L17.2761746,23.7715842 L17.4053985,23.7715017 C17.9160962,23.7406658 18.3447245,23.3501288 18.4143373,22.8291998 L18.7541232,20.1889106 L20.8985767,20.672577 C21.2208314,20.7455683 21.5590139,20.6670922 21.8169458,20.4595614 L25.20263,17.7223046 C25.5439601,17.4477118 25.6871021,16.9927927 25.5649297,16.570538 L24.5731681,13.166924 L24.5236781,13.0307903 C24.4074294,12.7671521 24.1900949,12.5580829 23.9171618,12.4538854 L21.4132379,11.501295 L19.9680881,4.68982593 C19.8915253,4.32597005 19.6340901,4.02581891 19.2854393,3.8953411 L14.4133216,2.0702613 C14.2973465,2.02394261 14.163252,1.99877118 14.0331249,2.00004618 Z" id="Path" fill="#000000" fill-rule="nonzero"></path>
    </g>
</svg>