<?xml version="1.0" encoding="UTF-8"?>
<svg width="32px" height="32px" viewBox="0 0 32 32" version="1.1" xmlns="http://www.w3.org/2000/svg" xmlns:xlink="http://www.w3.org/1999/xlink">
    <title>state-mn</title>
    <g id="state-mn" stroke="none" stroke-width="1" fill="none" fill-rule="evenodd">
        <path d="M9.7901653,2 L4.16799014,2 C3.5911022,2 3.12901831,2.47493002 3.12901831,3.05461611 L3.126572,7.20624293 C3.12694587,7.22987657 3.12863368,7.26011743 3.13200929,7.29017813 L4.60072097,18.5501214 L4.49043262,28.9288162 L4.49737478,29.0522326 C4.55701444,29.5786189 4.99376026,29.9880678 5.52937966,29.9880678 L22.749474,29.9876056 L22.7496719,30 L23.2502036,30 C23.6757346,30 24.0562777,29.7374567 24.2143888,29.3397909 C24.3705368,28.9459921 24.2795538,28.4953687 23.9818824,28.1960173 L18.4076517,22.5779058 C17.9961817,22.1639076 17.330704,22.1710647 16.9282758,22.5933859 L16.8378023,22.7020412 C16.5367636,23.1170677 16.5732834,23.7032963 16.9436421,24.0758926 L20.7291923,27.8783099 L6.58045992,27.8783099 L6.67626489,18.3866261 C6.67551841,18.3683253 6.6741991,18.3484395 6.67222015,18.328614 L5.19705932,7.05953347 L5.20017823,4.10816901 L9.549474,4.10816901 L14.8966423,6.71734432 C14.9574942,6.74849946 15.0298054,6.77569093 15.1042711,6.79448356 L22.4885256,8.52364596 L22.6350818,8.54494151 C22.6995913,8.54975419 22.7632559,8.54840703 22.8260372,8.54107142 L25.5708825,8.05183099 L18.9362648,13.8149781 L18.8432333,13.9066146 C18.6696893,14.1002249 18.5724258,14.3531671 18.5724258,14.6169645 L18.5725726,16.8011268 L17.1691984,17.5805014 C16.8331231,17.7794713 16.6373349,18.1332344 16.6423738,18.512046 L16.6423314,19.2570896 C16.6423314,19.8366188 17.1047318,20.3114687 17.681534,20.3114687 L17.8032565,20.3043355 C18.3220341,20.2430989 18.7207365,19.7952238 18.7207365,19.2570896 L18.7201782,19.1278873 L20.1310335,18.3525513 L20.2508358,18.2706607 C20.5143118,18.0638939 20.6634791,17.7514341 20.6590701,17.4199728 L20.6582064,15.1030986 L28.5088109,8.28343853 C28.7928551,8.03797594 28.9247184,7.6560924 28.8551426,7.28443321 C28.7852389,6.91056672 28.5218881,6.60266159 28.163894,6.48107767 L26.4277022,5.88847822 L26.3005996,5.85227869 C26.1700875,5.82494837 26.0307484,5.82444251 25.8951978,5.85271232 L22.749474,6.40788732 L15.6423991,4.74129741 L10.2376733,2.1027405 C10.0932291,2.03505656 9.94262821,2.00087821 9.7901653,2 Z" id="Path" fill="#000000" fill-rule="nonzero"></path>
    </g>
</svg>