<?xml version="1.0" encoding="UTF-8"?>
<svg width="32px" height="32px" viewBox="0 0 32 32" version="1.1" xmlns="http://www.w3.org/2000/svg" xmlns:xlink="http://www.w3.org/1999/xlink">
    <title>state-ct</title>
    <g id="state-ct" stroke="none" stroke-width="1" fill="none" fill-rule="evenodd">
        <path d="M16.7444718,7.00000125 L4.16501485,7.00000125 C3.6082766,6.99915914 3.14040804,7.42274578 3.10596551,7.97517772 L2.00196299,26.010992 C1.98395009,26.3006901 2.09055876,26.5841823 2.2948471,26.7929811 C2.49677102,26.9985054 2.77399554,27.1133949 3.06259784,27.1122063 L3.22529395,27.0970636 C3.33087912,27.0797644 3.43066184,27.0481529 3.52437432,27.0028783 L12.9949307,22.5763072 L29.061112,20.7446457 C29.5946568,20.6852592 30.0035176,20.2403373 29.9999772,19.7060861 L29.9999772,8.03877146 C29.9999772,7.75972546 29.8853359,7.4931683 29.6835592,7.29835858 C29.4840936,7.10662273 29.2171319,7.00000125 28.9399811,7.00000125 L22.1275911,7.00000125 C21.5461635,7.00000125 21.0676138,7.46112078 21.0676138,8.03877737 L21.0748017,8.16065169 C21.1365036,8.6799493 21.5876988,9.07745932 22.1275911,9.07745932 L27.8794059,9.07661778 L27.8794059,18.7836393 L12.5733272,20.5321493 L12.4570613,20.5527967 C12.3815905,20.5700975 12.3100536,20.5944776 12.2415747,20.6259813 L4.22649875,24.3768667 L5.16170801,9.07661778 L16.7444718,9.07736713 C17.3258943,9.07736713 17.8044492,8.61634959 17.8044492,8.03868517 C17.8044492,7.46102082 17.3258944,7.00000125 16.7444718,7.00000125 Z" id="Path" fill="#000000" fill-rule="nonzero"></path>
    </g>
</svg>