<?xml version="1.0" encoding="UTF-8"?>
<svg width="32px" height="32px" viewBox="0 0 32 32" version="1.1" xmlns="http://www.w3.org/2000/svg" xmlns:xlink="http://www.w3.org/1999/xlink">
    <title>state-ar</title>
    <g id="state-ar" stroke="none" stroke-width="1" fill="none" fill-rule="evenodd">
        <path d="M4.91497534,27.88681 L21.4694924,28.4773374 C21.8092598,28.4867014 22.1344669,28.3384818 22.3494059,28.0757466 L22.4335484,27.9574421 C22.5848355,27.7116169 22.633299,27.4141279 22.5638827,27.1303932 L22.4334931,26.5901351 L23.2323735,24.5385129 L23.2757109,24.4006295 C23.3209343,24.2139657 23.3158513,24.0177172 23.2596628,23.8321886 L22.6859034,21.928176 L23.1410208,21.1942691 C23.4183248,20.6446546 23.2352447,20.0254903 22.744345,19.7337124 C22.2555428,19.4434417 21.6244951,19.5737421 21.2928153,20.0346399 L20.566287,21.2173928 L20.5031548,21.332237 C20.3919874,21.5691201 20.3719614,21.8458882 20.4531578,22.1034367 L21.0798697,24.1094704 L20.294211,26.1289504 L20.2533728,26.2614147 L6.0937433,25.7636382 L6.20135574,23.7521552 L6.20173652,23.6125169 C6.17543588,23.1975347 5.9062275,22.8244679 5.50425026,22.6693601 L4.38909344,22.2416343 L4.6940921,14.761412 L4.69450478,14.6880162 L4.24938728,6.20242882 L24.8531098,6.20242882 L24.833619,7.29533106 L24.8409794,7.42442795 C24.904252,7.97441244 25.3676628,8.39430619 25.9282257,8.39430619 L27.812767,8.39428921 L27.812767,8.52577736 L27.5388768,8.67915031 C27.320994,8.77968688 27.124903,8.98575455 27.0214629,9.24028341 L25.6212347,13.0267033 L23.858705,15.8709457 C23.5414669,16.3860489 23.705208,17.0590838 24.2230879,17.3729127 C24.738664,17.6848861 25.4112389,17.5240461 25.7273644,17.0119399 L27.563143,14.0283156 L27.6158529,13.9277436 L27.6547631,13.8338639 L28.9597663,10.3701334 L29.4420013,10.1081733 C29.7930985,9.90738113 30.0035014,9.54264655 29.9999559,9.14878567 L29.9999559,7.28097513 C29.9999559,6.99128728 29.8838668,6.71361217 29.6781055,6.50920825 L29.5693455,6.41486491 C29.3790585,6.27047634 29.1459924,6.19127384 28.9049745,6.19127384 L27.0297082,6.19068881 L27.0527966,5.09964738 C27.0529006,4.79938158 26.9367928,4.52137615 26.7303214,4.31716591 C26.5259291,4.11411908 26.2478322,4.0000012 25.9582141,4.0000012 L3.0956747,4.0000012 C2.79714244,3.99955882 2.51052843,4.12102849 2.30354817,4.33648995 C2.09579461,4.55275641 1.9863588,4.84492872 2.00136253,5.14416956 L2.50499915,14.7350855 L2.17096996,22.9201523 L2.17097582,23.0587423 C2.19856061,23.4709327 2.47011474,23.8441979 2.87397938,23.9973948 L3.986411,24.4135367 L3.86359381,26.7385866 C3.84727883,27.0299304 3.9501129,27.3168604 4.1487404,27.5330775 C4.34652868,27.7483811 4.62243209,27.8756573 4.91497534,27.88681 Z" id="Path" fill="#000000" fill-rule="nonzero"></path>
    </g>
</svg>