<?xml version="1.0" encoding="UTF-8"?>
<svg width="32px" height="32px" viewBox="0 0 32 32" version="1.1" xmlns="http://www.w3.org/2000/svg" xmlns:xlink="http://www.w3.org/1999/xlink">
    <title>state-va</title>
    <g id="state-va" stroke="none" stroke-width="1" fill="none" fill-rule="evenodd">
        <path d="M21.3367775,9.51354157 L19.3915708,10.405046 L19.2672892,10.4753672 C19.149413,10.5515985 19.0506805,10.6453478 18.9704337,10.7547032 L17.4987364,12.8145354 L16.179283,12.5207345 C15.8192931,12.4402516 15.4444919,12.5529772 15.1858559,12.8176528 L13.1157953,14.939927 L13.0511738,15.0102783 C13.0092791,15.0610876 12.9703113,15.1191139 12.9375957,15.1807577 L12.4898564,15.9917754 L10.7106224,16.3709081 L10.5759116,16.4095018 C10.5327794,16.4247405 10.4912708,16.4423805 10.4509419,16.4625041 L9.79517637,16.7979754 L8.96592686,15.8708006 C8.77466919,15.6558045 8.50502653,15.5265891 8.21748325,15.5137726 C7.92899353,15.5000992 7.64668153,15.6057633 7.43566173,15.8061774 L3.08581803,19.9678192 C2.76746035,20.2691823 2.66172658,20.7381789 2.81868732,21.1515315 C2.97682659,21.5687028 3.37239858,21.8468566 3.81654465,21.8482266 L28.1776309,22 C28.5673495,21.999553 28.9221657,21.7890743 29.1121626,21.450936 C29.3000707,21.1172984 29.3000707,20.7072228 29.1117863,20.3733501 L27.7316801,17.930181 C27.4141347,17.4169551 26.7727353,17.2558679 26.271701,17.5526284 L26.1633293,17.6260823 C25.7526801,17.9423187 25.6188159,18.5175802 25.8601498,18.9909883 L26.3228564,19.8128154 L6.50657637,19.6817354 L8.10273637,18.1563354 L8.75715985,18.8807828 L8.85941209,18.9809962 C9.1825953,19.257814 9.64568713,19.3186133 10.0345817,19.1197 L11.2950564,18.5078154 L13.4178158,18.0545043 L13.5475527,18.0174595 C13.8003809,17.9277705 14.0110545,17.7463636 14.1385044,17.507027 L14.7506964,16.3838554 L16.3016164,14.7934954 L17.7322928,15.11452 L17.8720554,15.1339855 C18.2435527,15.1615586 18.6003106,14.9966925 18.8195442,14.6931591 L20.5367764,12.2855754 L21.5564164,11.8157754 L22.7024964,12.9572154 L22.3817565,14.0682705 C22.2470323,14.5360666 22.4348735,15.0387079 22.8444516,15.2968446 L24.6151738,16.4168249 C25.123375,16.7379651 25.7901106,16.5753982 26.1000045,16.0593534 L26.1624577,15.9395431 C26.3800122,15.4509847 26.2129467,14.8616837 25.7505978,14.5699194 L24.6675364,13.8782554 L24.9410464,12.9299364 C25.0517434,12.5474006 24.9464303,12.1326074 24.6651561,11.8509885 L22.5304465,9.72816607 C22.2148089,9.41415979 21.7407931,9.32841017 21.3367775,9.51354157 Z" id="Path" fill="#000000" fill-rule="nonzero"></path>
    </g>
</svg>