<?xml version="1.0" encoding="UTF-8"?>
<svg width="32px" height="32px" viewBox="0 0 32 32" version="1.1" xmlns="http://www.w3.org/2000/svg" xmlns:xlink="http://www.w3.org/1999/xlink">
    <title>state-tx</title>
    <g id="state-tx" stroke="none" stroke-width="1" fill="none" fill-rule="evenodd">
        <path d="M15.5918255,2.575 L9.90308631,2.575 L9.77973681,2.58209917 C9.25366922,2.64305509 8.8448855,3.08910533 8.8448855,3.63115231 L8.84461425,13.0999924 L3.05977878,13.1008194 C2.65132498,13.0999528 2.27782375,13.3348648 2.10219031,13.7044776 C1.92630485,14.0741519 1.98054701,14.5121553 2.24112078,14.8284381 L8.15966608,22.0658001 C8.3486898,22.2998595 8.63227013,22.4425975 8.93593412,22.4556401 L9.06511013,22.4533143 C9.32149517,22.4330227 9.56346901,22.3199373 9.74406517,22.132905 L11.0216133,20.8174145 L14.2967347,23.0102628 L18.3566493,28.7403041 C18.5262652,28.9801336 18.7887618,29.1387835 19.0804866,29.1778891 L21.8952804,29.5685204 L21.9993582,29.575 L22.0932669,29.5700111 C22.2919021,29.5781322 22.5463995,29.4860216 22.7442457,29.314547 L22.8406218,29.2156044 C23.0189837,29.008183 23.1100815,28.7461674 23.0973147,28.4767659 L22.9085038,24.8442402 L23.7085858,24.2791296 C24.1860942,23.9410398 24.2978269,23.2801337 23.9578006,22.8043579 C23.6186504,22.3298078 22.9587251,22.2188918 22.4826979,22.5564079 L21.212851,23.4430328 L21.1074556,23.5281311 C20.8762052,23.7402588 20.7494671,24.0435807 20.7651661,24.3591121 L20.9284874,27.2997321 L19.8337614,27.1525611 L15.9145084,21.643355 C15.8341322,21.5361374 15.7458938,21.4516522 15.6458573,21.3825791 L11.4704958,18.5723468 L11.3516712,18.5025674 C10.9452185,18.2982911 10.4440667,18.3763537 10.1184209,18.7103342 L9.05065369,19.8053307 L5.28986797,15.2124627 L9.90301031,15.2135834 C10.1833002,15.2135834 10.4519506,15.1026475 10.6505196,14.9052175 L10.7427259,14.800361 C10.8838737,14.6167231 10.9614427,14.3909723 10.9614427,14.1572003 L10.9604807,4.68747024 L14.5322083,4.68747024 L14.5332684,8.32754541 C14.5323962,8.78102037 14.8224405,9.18474399 15.2532343,9.33000696 L20.2381089,11.0067466 L20.3309539,11.0348967 C20.3958421,11.0507902 20.4659414,11.0606908 20.5366203,11.0631194 L26.7836301,11.2965813 L28.0085458,16.1554893 L27.9032619,18.7241897 L25.4790863,20.4394028 C25.2544504,20.5816766 25.0847184,20.8303965 25.0291385,21.1142924 C24.973531,21.3978876 25.0369989,21.6922109 25.2045496,21.9280428 C25.3724726,22.1637847 25.6289573,22.320286 25.9149134,22.3619847 C26.2006532,22.4036518 26.4911486,22.3269358 26.7190877,22.1497468 L29.5528006,20.1496914 C29.8207914,19.9598927 29.9852635,19.6573953 29.9983975,19.3302169 L30.1312189,16.0952788 C30.1365417,15.9946617 30.1251548,15.888452 30.0967852,15.7860348 L28.6567687,10.0172262 L28.6190816,9.89641201 C28.4707096,9.50521209 28.1003584,9.23362628 27.673126,9.21585518 L20.7688635,8.95316578 L16.6492069,7.5663619 L16.6502579,3.63114623 C16.6502579,3.35085792 16.5385062,3.08226502 16.3400835,2.88411188 C16.1411911,2.68592397 15.8721758,2.575 15.5918255,2.575 Z" id="Path" fill="#000000" fill-rule="nonzero"></path>
    </g>
</svg>