<?xml version="1.0" encoding="UTF-8"?>
<svg width="32px" height="32px" viewBox="0 0 32 32" version="1.1" xmlns="http://www.w3.org/2000/svg" xmlns:xlink="http://www.w3.org/1999/xlink">
    <title>state-il</title>
    <g id="state-il" stroke="none" stroke-width="1" fill="none" fill-rule="evenodd">
        <path d="M20.8354758,2 L10.3153687,2 C9.85693417,1.99914765 9.44663587,2.28911051 9.30078434,2.72235943 L9.26571347,2.85443799 C9.18727055,3.25296846 9.34747101,3.66537549 9.68465452,3.90869426 L11.8129506,5.43324044 L11.8129506,6.30197261 L9.40140507,7.9367733 C9.20907927,8.06138798 9.05763583,8.25370865 8.9792374,8.47840623 L7.75511868,12.6180497 C7.74087499,12.659727 7.72785446,12.7192672 7.72089563,12.7795437 L7.27741035,16.0009686 C7.23713075,16.2920117 7.32162147,16.5863434 7.50974642,16.8133293 L8.1530482,17.5848541 C8.53503742,18.0342517 9.2062212,18.0943847 9.66022568,17.7243542 L9.75930572,17.632765 C10.1272543,17.2470662 10.1536493,16.6406525 9.79911111,16.223581 L9.45689485,15.8118293 L9.83205424,13.0992143 L10.9149226,9.45577462 L13.4753772,7.7166911 C13.7642998,7.52057002 13.938018,7.19593838 13.938466,6.84802158 L13.9384664,4.89673813 L13.9288224,4.75390312 C13.896606,4.51884345 13.7849209,4.30115526 13.612476,4.13650864 L13.5819642,4.11155064 L20.1690048,4.11155064 L21.3273143,6.46084581 L21.8580184,19.343096 L20.2889095,23.3833947 L20.2585567,23.4678792 C20.2405721,23.5271974 20.22736,23.5917797 20.2205481,23.6572679 L20.0428076,25.4737987 L17.2292872,27.6574601 L16.4844987,27.1864743 L16.4283166,25.2278526 L16.4151667,25.0914601 C16.3786478,24.867124 16.2700763,24.6597916 16.103856,24.5006604 L13.6743586,22.1566164 L14.3323815,20.3004898 C14.443644,19.9855275 14.3979658,19.6376833 14.2098814,19.3616491 C14.0227403,19.0880811 13.7185837,18.9171496 13.387204,18.8978607 L11.5071964,18.788146 C10.9193463,18.7550442 10.4123459,19.1974456 10.3780186,19.781961 C10.3614288,20.0641261 10.4598905,20.3408485 10.6507954,20.5504339 L10.7511236,20.6471927 C10.9279587,20.7965843 11.1506406,20.8855642 11.3852482,20.8984258 L11.8478802,20.9261942 L11.4319183,22.0946768 L11.394537,22.2259116 C11.3184708,22.578804 11.4299756,22.949586 11.6962091,23.2044655 L14.3030908,25.7295733 L14.3657932,27.8241055 C14.3788704,28.1783846 14.5669264,28.4990272 14.8665656,28.6845203 L16.7254827,29.8384805 C16.8975299,29.9450627 17.0959662,30.0008362 17.2982013,30 C17.5345005,30 17.7659911,29.9211105 17.9542656,29.7758644 L21.7187762,26.8490027 L21.8256925,26.753877 C21.9920037,26.5844989 22.0975544,26.3632509 22.1221373,26.1247254 L22.3267507,23.9932357 L23.927625,19.9021399 C23.9824571,19.7700916 24.0077672,19.6180044 23.9979132,19.465916 L23.4679383,6.15594051 C23.4630164,6.0097805 23.4252444,5.86354605 23.3577071,5.73038468 L21.7944939,2.59123513 C21.6160803,2.22927465 21.2428765,2 20.8354758,2 Z" id="Path" fill="#000000" fill-rule="nonzero"></path>
    </g>
</svg>