<?xml version="1.0" encoding="UTF-8"?>
<svg width="64px" height="64px" viewBox="0 0 64 64" version="1.1" xmlns="http://www.w3.org/2000/svg" xmlns:xlink="http://www.w3.org/1999/xlink">
    <title>statement</title>
    <g id="statement" stroke="none" stroke-width="1" fill="none" fill-rule="evenodd">
        <path d="M40,4 C40.2652165,4 40.5195704,4.10535684 40.7071068,4.29289322 L40.7071068,4.29289322 L51.7071068,15.2928932 C51.8946432,15.4804296 52,15.7347835 52,16 L52,16 L52,59 C52,59.5522847 51.5522847,60 51,60 L51,60 L13,60 C12.4477153,60 12,59.5522847 12,59 L12,59 L12,5 C12,4.44771525 12.4477153,4 13,4 L13,4 Z M37.999,8 L16,8 L16,56 L48,56 L48,18 L40,18 C38.8954305,18 38,17.1045695 38,16 L37.999,8 Z M34,26 C35.1045695,26 36,26.8954305 36,28 C36,29.1045695 35.1045695,30 34,30 L20,30 C18.8954305,30 18,29.1045695 18,28 C18,26.8954305 18.8954305,26 20,26 L34,26 Z M44,26 C45.1045695,26 46,26.8954305 46,28 C46,29.1045695 45.1045695,30 44,30 L40,30 C38.8954305,30 38,29.1045695 38,28 C38,26.8954305 38.8954305,26 40,26 L44,26 Z M34,20 C35.1045695,20 36,20.8954305 36,22 C36,23.1045695 35.1045695,24 34,24 L20,24 C18.8954305,24 18,23.1045695 18,22 C18,20.8954305 18.8954305,20 20,20 L34,20 Z M44,20 C45.1045695,20 46,20.8954305 46,22 C46,23.1045695 45.1045695,24 44,24 L40,24 C38.8954305,24 38,23.1045695 38,22 C38,20.8954305 38.8954305,20 40,20 L44,20 Z M40.999,9.999 L41,15 L46,15 L40.999,9.999 Z M26,10 C27.1045695,10 28,10.8954305 28,12 C28,13.1045695 27.1045695,14 26,14 L20,14 C18.8954305,14 18,13.1045695 18,12 C18,10.8954305 18.8954305,10 20,10 L26,10 Z" id="invoice" fill="#000000" fill-rule="nonzero"></path>
        <path d="M24.504,55 C24.92,55 25.268,54.86 25.548,54.58 C25.828,54.3 25.968,53.952 25.968,53.536 L25.968,53.536 L25.968,52.058 L25.982963,52.0548148 C26.3174815,51.9807407 26.6435556,51.8844444 26.9611852,51.7659259 L27.276,51.64 C28.212,51.24 28.968,50.664 29.544,49.912 C30.12,49.16 30.408,48.264 30.408,47.224 C30.408,46.408 30.288,45.716 30.048,45.148 C29.808,44.58 29.448,44.108 28.968,43.732 C28.488,43.356 27.884,43.048 27.156,42.808 C26.844,42.7051429 26.5106939,42.6081633 26.1560816,42.5170612 L25.968,42.471 L25.968,38.034 L26.31,38.152 C26.424,38.194 26.5365,38.238 26.6475,38.284 L26.976,38.428 C27.408,38.628 27.752,38.84 28.008,39.064 C28.2,39.208 28.416,39.28 28.656,39.28 C29.024,39.28 29.344,39.136 29.616,38.848 C29.888,38.56 30.024,38.24 30.024,37.888 C30.024,37.408 29.792,36.984 29.328,36.616 C28.768,36.136 28.044,35.74 27.156,35.428 C26.823,35.311 26.4793125,35.2159375 26.1249375,35.1428125 L25.968,35.114 L25.968,34.24 C25.968,33.8834286 25.8710204,33.5768163 25.6770612,33.3201633 L25.572,33.196 C25.308,32.916 24.968,32.776 24.552,32.776 C24.136,32.776 23.788,32.916 23.508,33.196 C23.228,33.476 23.088,33.824 23.088,34.24 L23.088,34.24 L23.087,35.039 L22.8488889,35.0737778 C22.3961481,35.1496296 21.9623704,35.2634074 21.5475556,35.4151111 L21.24,35.536 C20.328,35.92 19.604,36.48 19.068,37.216 C18.532,37.952 18.264,38.84 18.264,39.88 C18.264,40.568 18.376,41.188 18.6,41.74 C18.824,42.292 19.156,42.772 19.596,43.18 C20.036,43.588 20.584,43.924 21.24,44.188 C21.7085714,44.3765714 22.2302041,44.530449 22.804898,44.6496327 L23.087,44.704 L23.087,49.393 L23.025,49.384 C22.7475,49.336 22.4896875,49.27 22.2515625,49.186 L22.02,49.096 C21.42,48.84 20.816,48.464 20.208,47.968 C19.968,47.776 19.696,47.68 19.392,47.68 C18.992,47.68 18.66,47.82 18.396,48.1 C18.132,48.38 18,48.704 18,49.072 C18,49.296 18.056,49.52 18.168,49.744 C18.28,49.968 18.44,50.168 18.648,50.344 C19.464,51.048 20.32,51.54 21.216,51.82 C21.776,51.995 22.37975,52.1153125 23.02725,52.1809375 L23.087,52.186 L23.088,53.536 C23.088,53.9 23.192125,54.2119375 23.400375,54.4718125 L23.496,54.58 C23.768,54.86 24.104,55 24.504,55 Z M23.087,41.809 L23.0006667,41.7823333 L23.0006667,41.7823333 L22.728,41.692 C22.2,41.508 21.796,41.26 21.516,40.948 C21.236,40.636 21.096,40.24 21.096,39.76 C21.096,39.36 21.216,39.008 21.456,38.704 C21.696,38.4 22.052,38.16 22.524,37.984 C22.6588571,37.9337143 22.8025306,37.8906122 22.9550204,37.8546939 L23.087,37.828 L23.087,41.809 Z M25.968,49.166 L25.968,45.397 L25.990875,45.4054375 C26.406375,45.5891875 26.736375,45.8021875 26.980875,46.0444375 L27.096,46.168 C27.384,46.504 27.528,46.912 27.528,47.392 C27.528,47.792 27.376,48.148 27.072,48.46 C26.768,48.772 26.368,49.02 25.872,49.204 L25.968,49.166 Z" id="$" fill="#000000" fill-rule="nonzero"></path>
        <path d="M40.004,55 C40.42,55 40.768,54.86 41.048,54.58 C41.328,54.3 41.468,53.952 41.468,53.536 L41.468,53.536 L41.468,52.058 L41.482963,52.0548148 C41.8174815,51.9807407 42.1435556,51.8844444 42.4611852,51.7659259 L42.776,51.64 C43.712,51.24 44.468,50.664 45.044,49.912 C45.62,49.16 45.908,48.264 45.908,47.224 C45.908,46.408 45.788,45.716 45.548,45.148 C45.308,44.58 44.948,44.108 44.468,43.732 C43.988,43.356 43.384,43.048 42.656,42.808 C42.344,42.7051429 42.0106939,42.6081633 41.6560816,42.5170612 L41.468,42.471 L41.468,38.034 L41.81,38.152 C41.924,38.194 42.0365,38.238 42.1475,38.284 L42.476,38.428 C42.908,38.628 43.252,38.84 43.508,39.064 C43.7,39.208 43.916,39.28 44.156,39.28 C44.524,39.28 44.844,39.136 45.116,38.848 C45.388,38.56 45.524,38.24 45.524,37.888 C45.524,37.408 45.292,36.984 44.828,36.616 C44.268,36.136 43.544,35.74 42.656,35.428 C42.323,35.311 41.9793125,35.2159375 41.6249375,35.1428125 L41.468,35.114 L41.468,34.24 C41.468,33.8834286 41.3710204,33.5768163 41.1770612,33.3201633 L41.072,33.196 C40.808,32.916 40.468,32.776 40.052,32.776 C39.636,32.776 39.288,32.916 39.008,33.196 C38.728,33.476 38.588,33.824 38.588,34.24 L38.588,34.24 L38.587,35.039 L38.3488889,35.0737778 C37.8961481,35.1496296 37.4623704,35.2634074 37.0475556,35.4151111 L36.74,35.536 C35.828,35.92 35.104,36.48 34.568,37.216 C34.032,37.952 33.764,38.84 33.764,39.88 C33.764,40.568 33.876,41.188 34.1,41.74 C34.324,42.292 34.656,42.772 35.096,43.18 C35.536,43.588 36.084,43.924 36.74,44.188 C37.2085714,44.3765714 37.7302041,44.530449 38.304898,44.6496327 L38.587,44.704 L38.587,49.393 L38.525,49.384 C38.2475,49.336 37.9896875,49.27 37.7515625,49.186 L37.52,49.096 C36.92,48.84 36.316,48.464 35.708,47.968 C35.468,47.776 35.196,47.68 34.892,47.68 C34.492,47.68 34.16,47.82 33.896,48.1 C33.632,48.38 33.5,48.704 33.5,49.072 C33.5,49.296 33.556,49.52 33.668,49.744 C33.78,49.968 33.94,50.168 34.148,50.344 C34.964,51.048 35.82,51.54 36.716,51.82 C37.276,51.995 37.87975,52.1153125 38.52725,52.1809375 L38.587,52.186 L38.588,53.536 C38.588,53.9 38.692125,54.2119375 38.900375,54.4718125 L38.996,54.58 C39.268,54.86 39.604,55 40.004,55 Z M38.587,41.809 L38.5006667,41.7823333 L38.5006667,41.7823333 L38.228,41.692 C37.7,41.508 37.296,41.26 37.016,40.948 C36.736,40.636 36.596,40.24 36.596,39.76 C36.596,39.36 36.716,39.008 36.956,38.704 C37.196,38.4 37.552,38.16 38.024,37.984 C38.1588571,37.9337143 38.3025306,37.8906122 38.4550204,37.8546939 L38.587,37.828 L38.587,41.809 Z M41.468,49.166 L41.468,45.397 L41.490875,45.4054375 C41.906375,45.5891875 42.236375,45.8021875 42.480875,46.0444375 L42.596,46.168 C42.884,46.504 43.028,46.912 43.028,47.392 C43.028,47.792 42.876,48.148 42.572,48.46 C42.268,48.772 41.868,49.02 41.372,49.204 L41.468,49.166 Z" id="$-copy" fill="#000000" fill-rule="nonzero"></path>
    </g>
</svg>