<?xml version="1.0" encoding="UTF-8"?>
<svg width="32px" height="32px" viewBox="0 0 32 32" version="1.1" xmlns="http://www.w3.org/2000/svg" xmlns:xlink="http://www.w3.org/1999/xlink">
    <title>state-oh</title>
    <g id="state-oh" stroke="none" stroke-width="1" fill="none" fill-rule="evenodd">
        <path d="M26.931574,2.25 L24.8465968,2.25 L24.6928359,2.26108187 C24.5406773,2.28313964 24.3944634,2.33780722 24.2644384,2.42222357 L20.7194245,4.74208633 L19.1240418,4.20614153 L18.9942017,4.17167664 C18.7321457,4.11944935 18.4588626,4.16707604 18.2288205,4.30806112 L16.1254676,5.59158273 L14.7330994,4.32800091 C14.5309023,4.14970885 14.278436,4.05239946 14.0161939,4.04935377 L5.06283963,4.15158305 C4.47759381,4.15155108 4,4.63239774 4,5.22409414 L4,11.0566994 C4,11.6482076 4.47764481,12.1292424 5.06843214,12.1292424 L5.19316482,12.1220147 C5.72501748,12.0599595 6.13686428,11.6059571 6.13686428,11.0566994 L6.13640288,6.27532374 L13.6034532,6.19359712 L15.2801426,7.71525417 L15.3903703,7.80271747 C15.7343822,8.0406129 16.1907539,8.05735985 16.5542652,7.83410171 L18.9202878,6.39273381 L20.5381992,6.93588542 L20.6734153,6.97099574 C20.9460344,7.02317824 21.2285019,6.96763134 21.4619039,6.8133443 L25.1683453,4.38870504 L25.8682014,4.38870504 L25.8682014,18.337482 L21.6494964,23.4908633 L20.4164232,23.5633991 L20.2773419,23.5813102 C19.9133937,23.6525768 19.6096424,23.9082511 19.4792206,24.2613901 L18.457554,26.9947482 L15.6627365,25.1346706 L15.5337484,25.0613842 C15.3561707,24.9761742 15.1579936,24.9414244 14.9605136,24.9624151 L11.534964,25.3314388 L6.14791367,22.7518705 L6.14813886,15.9735401 C6.14813886,15.3820318 5.67073253,14.9012372 5.07994519,14.9012372 C4.48898765,14.9012372 4.01151305,15.3819638 4.01151305,15.9735401 L4.01151305,23.4278701 C4.01063947,23.840623 4.24677709,24.2182823 4.61921562,24.3969532 L10.8738885,27.3977684 L11.014033,27.4530212 C11.1572363,27.4981346 11.3085613,27.5126526 11.4585169,27.4949834 L14.7821583,27.137482 L18.4001035,29.5261048 C18.5744524,29.6418396 18.7802358,29.7036771 18.9907379,29.7027482 C19.1004009,29.7036911 19.2158966,29.6849225 19.3258689,29.6473949 L19.4513632,29.5976942 C19.6948588,29.4821444 19.8906831,29.2721366 19.9899987,29.0114646 L21.2374101,25.6583453 L22.2320332,25.5985616 C22.5281489,25.5807519 22.8031896,25.4402453 22.9917324,25.2108867 L27.7556448,19.4071359 C27.9127009,19.2163654 27.9991206,18.9760175 28,18.7280349 L28,3.32253822 C28,3.03882406 27.8878594,2.76646461 27.6881127,2.56530018 C27.4878833,2.36364976 27.2155736,2.25 26.931574,2.25 Z" id="Path" fill="#000000" fill-rule="nonzero"></path>
    </g>
</svg>