<?xml version="1.0" encoding="UTF-8"?>
<svg width="32px" height="32px" viewBox="0 0 32 32" version="1.1" xmlns="http://www.w3.org/2000/svg" xmlns:xlink="http://www.w3.org/1999/xlink">
    <title>state-nm</title>
    <g id="state-nm" stroke="none" stroke-width="1" fill="none" fill-rule="evenodd">
        <path d="M10.8705762,2 L5.04485676,2 C4.46597133,2 4,2.47383394 4,3.05431626 L4,28.9456356 C4,29.5261149 4.46596771,30 5.04485676,30 L7.80783714,30 C8.08678164,30 8.35389536,29.8873858 8.54974733,29.6879048 L8.63959048,29.5839075 C8.77715542,29.4017092 8.85292104,29.1774647 8.85292104,28.9456903 L8.85193617,28.3594011 L14.3949138,28.3601152 C14.6738624,28.3601152 14.9409765,28.2477333 15.136824,28.0482569 L15.2266882,27.9440435 C15.3642375,27.7615734 15.4397646,27.5374689 15.4397646,27.3058055 L15.4391212,26.5238683 L27.574656,26.5246878 C27.8619663,26.5251274 28.1371623,26.4054974 28.3345864,26.1947856 C28.530779,25.9854112 28.6333721,25.7046938 28.6189061,25.4175668 L27.4497741,2.99766815 C27.4194059,2.43875342 26.961869,1.99929094 26.4047238,2 L16.3079781,2 C15.7290859,2 15.2631214,2.47393068 15.2631214,3.05440738 L15.2701249,3.17703026 C15.3302648,3.70016268 15.7704417,4.10872318 16.3079781,4.10872318 L25.4122952,4.10760772 L26.4725998,24.4393161 L14.3947823,24.4395226 L14.2725955,24.4466374 C13.7517052,24.5077206 13.3496925,24.9545549 13.3496925,25.4936014 L13.3489351,26.2602006 L7.80769966,26.2605044 L7.68550958,26.267623 C7.16460738,26.3287371 6.76260978,26.7757873 6.76260978,27.3148202 L6.76175001,27.8906585 L6.08905937,27.8906585 L6.08905937,4.10760772 L10.8705762,4.10863206 C11.4494617,4.10863206 11.915433,3.63479859 11.915433,3.05431626 C11.915433,2.47383394 11.4494617,2 10.8705762,2 Z" id="Path" fill="#000000" fill-rule="nonzero"></path>
    </g>
</svg>