<?xml version="1.0" encoding="UTF-8"?>
<svg width="64px" height="64px" viewBox="0 0 64 64" version="1.1" xmlns="http://www.w3.org/2000/svg" xmlns:xlink="http://www.w3.org/1999/xlink">
    <title>states</title>
    <g id="states" stroke="none" stroke-width="1" fill="none" fill-rule="evenodd">
        <path d="M5.53881122,13.6086069 C5.77473815,12.4289723 6.99116591,11.7230519 8.13242811,12.1034726 L8.13242811,12.1034726 L10.9850438,13.0605542 L18.8679726,15.0308392 L26.6359726,16.0008392 L33.4999723,16.0008392 C33.643282,16.0008392 33.7859667,16.0162417 33.9255911,16.0466516 L33.9255911,16.0466516 L34.1324281,16.1034726 L37.1324281,17.1034726 C37.7263803,17.3014567 38.1797313,17.7596984 38.3828355,18.3260724 L38.3828355,18.3260724 L38.4199726,18.4568392 L40.0149013,18.0605542 C41.0887556,17.7920906 42.159241,18.4458487 42.4335633,19.4887546 L42.4335633,19.4887546 L42.4798716,19.7179965 L42.7519726,21.6368392 L43.6055454,21.2119848 C44.4325262,20.7984944 45.4231171,21.0088012 46.0134274,21.6931559 L46.0134274,21.6931559 L46.1640732,21.8914388 L47.1839726,23.4208392 L49.3119726,22.3568392 L51.085759,20.5866256 C51.1870941,20.4852905 51.2988787,20.3952885 51.4191111,20.3180622 L51.4191111,20.3180622 L51.6055454,20.2119848 L54.8639726,18.5808392 L55.602606,16.3683837 C56.0466423,15.0362748 57.6680566,14.5853282 58.7324814,15.4249726 L58.7324814,15.4249726 L58.9141861,15.5866256 L60.9141861,17.5866256 C61.5229067,18.1953461 61.6738156,19.1252891 61.288827,19.8952664 L61.288827,19.8952664 L59.7359726,23.0008392 L60.288827,24.106412 C60.7023174,24.9333928 60.4920106,25.9239837 59.8076559,26.514294 L59.8076559,26.514294 L59.609373,26.6649398 L57.2979726,28.2048392 L56.4999723,32.1928392 L56.4999723,36.0008392 C56.4999723,36.5516645 56.2730503,37.0743622 55.8789392,37.4494654 L55.8789392,37.4494654 L55.6999726,37.6008392 L52.0759726,40.3188392 L51.6179726,41.2328392 L52.4611339,44.6086069 L52.6444013,45.5529355 L52.8002965,46.4268359 C52.8238383,46.5666898 52.84612,46.7036639 52.8670817,46.8377854 L52.8670817,46.8377854 L52.9765318,47.6085023 C53.3471393,50.5561964 52.8884441,51.8922955 50.7730813,51.9944671 L50.7730813,51.9944671 L50.4999723,52.0008392 C48.9090479,52.0008392 47.9564167,50.8811644 46.8150947,48.0245806 L46.8150947,48.0245806 L46.4831539,47.1606178 L45.9879726,45.7768392 L42.6279726,45.2148392 L42.288827,45.8952664 C41.9876856,46.4975491 41.4070442,46.902646 40.7496832,46.9852319 L40.7496832,46.9852319 L40.4999723,47.0008392 L35.1039726,47.0008392 L33.1779726,48.2848392 L32.3973392,50.6332947 C31.9533029,51.9654036 30.3318885,52.4163502 29.2674638,51.5767058 L29.2674638,51.5767058 L29.085759,51.4150527 L26.085759,48.4150527 C25.8662093,48.195503 25.7007916,47.9278516 25.602606,47.6332947 L25.602606,47.6332947 L25.0399726,45.9448392 L24.867517,45.8982058 L21.867517,44.8982058 C21.6988753,44.8419919 21.5384808,44.7635455 21.3905722,44.6649398 L21.3905722,44.6649398 L18.8939726,43.0008392 L15.4999723,43.0008392 C15.1840926,43.0008392 14.8738668,42.9260385 14.5942017,42.7839783 L14.5942017,42.7839783 L14.3905722,42.6649398 L11.6099726,40.8108392 L8.86751704,39.8982058 C8.44817295,39.7584244 8.08941484,39.4845941 7.84419898,39.1226437 L7.84419898,39.1226437 L7.71111819,38.8952664 L7.00797257,37.4908392 L5.60554538,36.7896936 C5.15793586,36.5658888 4.81330748,36.1840113 4.63480352,35.7227765 L4.63480352,35.7227765 L4.55968757,35.4859104 L3.53881122,31.3930715 L2.53881122,26.3930715 C2.47055224,26.0517766 2.49254168,25.6985766 2.60260598,25.3683837 L2.60260598,25.3683837 L3.55968757,22.5157679 L4.53881122,18.6086069 Z M9.01597257,16.6128392 L8.44025757,19.4859104 L7.39733917,23.6332947 L6.56397257,26.1288392 L7.44025757,30.5157679 L8.21597257,33.6228392 L9.39439977,34.2119848 C9.70404361,34.3668067 9.96683317,34.5986319 10.1586493,34.8833412 L10.1586493,34.8833412 L10.288827,35.106412 L10.9179726,36.3648392 L13.1324281,37.1034726 C13.2448559,37.1409485 13.3536183,37.1883056 13.4574594,37.2449294 L13.4574594,37.2449294 L13.609373,37.3367386 L16.1059726,39.0008392 L19.4999726,39.0008392 C19.8158526,39.0008392 20.1260784,39.0756399 20.4057435,39.2177001 L20.4057435,39.2177001 L20.609373,39.3367386 L23.3879726,41.1888392 L25.8259726,42.0008392 L26.4999726,42.0008392 C27.2825733,42.0008392 27.9853533,42.4560955 28.3111927,43.1524564 L28.3111927,43.1524564 L28.3973392,43.3683837 L29.2459726,45.9168392 L29.6299726,46.3008392 L29.703036,46.1227556 C29.8191595,45.8851157 29.9813118,45.6728178 30.180024,45.4982588 L30.180024,45.4982588 L30.3905722,45.3367386 L33.3905722,43.3367386 C33.7191072,43.1177152 34.1051226,43.0008392 34.4999726,43.0008392 L34.4999726,43.0008392 L39.2619726,43.0008392 L39.7111182,42.106412 C40.0680799,41.3924886 40.8103913,40.9661081 41.5930932,41.0029323 L41.5930932,41.0029323 L41.8287705,41.0280513 L47.6879726,42.0028392 L47.5596876,41.4859104 C47.467054,41.1153761 47.4829034,40.7281103 47.6022656,40.3693913 L47.6022656,40.3693913 L47.7111182,40.106412 L48.7111182,38.106412 C48.8499736,37.8287011 49.0515804,37.5871333 49.2999726,37.4008392 L49.2999726,37.4008392 L52.4999726,35.0008392 L52.4999726,32.0008392 L52.5388112,31.6086069 L53.5388112,26.6086069 C53.6428377,26.0884746 53.9492253,25.6309699 54.3905722,25.3367386 L54.3905722,25.3367386 L55.9199726,24.3148392 L55.7111182,23.8952664 C55.5502453,23.5735207 55.4812998,23.2192233 55.5042817,22.8695762 L55.5042817,22.8695762 L55.5219726,22.7248392 L53.6859726,23.6428392 L51.9141861,25.4150527 C51.812851,25.5163878 51.7010665,25.6063899 51.5808341,25.6836162 L51.5808341,25.6836162 L51.3943998,25.7896936 L47.3943998,27.7896936 C46.4922389,28.240774 45.3953684,27.9494842 44.835872,27.1102396 L44.835872,27.1102396 L43.9919726,25.8448392 L43.3973392,27.6332947 C42.7566519,29.5553564 40.0478593,29.390298 39.5681204,27.5255942 L39.5681204,27.5255942 L39.5200736,27.2836819 L38.8339726,22.4788392 L36.9850438,22.9411242 C35.7970029,23.2381344 34.6439655,22.4099056 34.5124249,21.2266684 L34.5124249,21.2266684 L34.4999726,21.0008392 L34.4999726,20.4408392 L33.1779726,20.0008392 L26.4999726,20.0008392 L26.2519031,19.9853949 L18.2519031,18.9853949 L18.0149013,18.9411242 L9.86751704,16.8982058 L9.01597257,16.6128392 Z" id="Path-47" fill="#000000" fill-rule="nonzero"></path>
    </g>
</svg>