<?xml version="1.0" encoding="UTF-8"?>
<svg width="32px" height="32px" viewBox="0 0 32 32" version="1.1" xmlns="http://www.w3.org/2000/svg" xmlns:xlink="http://www.w3.org/1999/xlink">
    <title>state-hi</title>
    <g id="state-hi" stroke="none" stroke-width="1" fill="none" fill-rule="evenodd">
        <path d="M24.6111772,17.3390581 C24.7998015,17.3387829 24.9801793,17.4138433 25.1102849,17.5465776 L29.8113497,22.3576208 C29.9556578,22.5055366 30.0226922,22.7097421 29.9931528,22.9117435 C29.9636098,23.1134693 29.8408891,23.2914586 29.6599441,23.3946634 L24.0186663,26.5764286 C23.912995,26.6357589 23.7931141,26.6669386 23.6709715,26.6666649 C23.5084686,26.6668825 23.3510999,26.6111392 23.2266738,26.5093091 L21.6975642,25.2548011 C21.4686087,25.0734986 21.3842375,24.7707721 21.4873562,24.5020115 L22.0969638,22.9530565 L20.8569939,21.658281 C20.7177986,21.5111988 20.6533167,21.311126 20.681438,21.1129889 C20.7084241,20.9137498 20.8260296,20.7368626 21.0018623,20.6311711 L22.8650533,19.5337062 L22.4380996,18.1956255 C22.3778772,17.9955598 22.4170783,17.780037 22.544054,17.6119804 C22.6707489,17.4441993 22.871016,17.3431986 23.0854855,17.3390581 L24.6111772,17.3390581 Z M24.3183288,18.6773868 L24.0220479,18.6773868 L24.3285534,19.6374479 C24.422582,19.9296837 24.300715,20.2464826 24.0325561,20.4071215 L22.4551596,21.3539014 L23.4124621,22.3575502 C23.582048,22.5385772 23.6363053,22.7952151 23.5539267,23.0264704 L22.9616413,24.5387185 L23.7468125,25.181147 L28.2239687,22.6483943 L24.3183288,18.6773868 Z M19.7580591,12.6892785 L22.5509912,13.4989371 C22.8424439,13.5831031 23.0424274,13.8427788 23.0435618,14.1380523 L23.0435618,15.850903 C23.0469706,16.0934685 22.9154488,16.3186484 22.6992703,16.4397899 L20.7843745,17.4434387 C20.6829648,17.4966984 20.5690542,17.5242915 20.4537183,17.5237875 C20.3654274,17.5243254 20.2776456,17.5085962 20.1955505,17.4768612 C20.0049409,17.4023522 19.858364,17.2491946 19.7961509,17.058786 L19.5379323,16.2626206 L18.1605192,15.5065107 C17.9889403,15.4182044 17.8639543,15.2639447 17.8159437,15.0815401 C17.7679361,14.9016152 17.8017405,14.7103801 17.9088306,14.5561204 L18.9868503,12.9635776 C19.1533165,12.7168723 19.4669269,12.6056635 19.7580591,12.6892785 Z M19.8959099,14.1146242 L19.4896309,14.6933242 L20.4537691,15.2253633 C20.6156903,15.3037365 20.7395418,15.4406105 20.7983442,15.6067315 L20.8878277,15.8843438 L21.7073961,15.4527473 L21.7073961,14.6397684 L19.8959099,14.1146242 Z M16.1839558,10.4811928 L18.2951263,10.8793956 C18.5061851,10.919409 18.6857193,11.0529691 18.7805987,11.2406226 C18.8754782,11.4271669 18.8754782,11.6460029 18.7805987,11.8328227 L17.8508576,13.6593406 C17.7358126,13.8905889 17.4949235,14.0374026 17.2307418,14.0374026 C17.148385,14.037735 17.0665736,14.0228335 16.9898745,13.9941341 L15.0542531,13.2879625 C14.8741517,13.2222849 14.7307017,13.0865122 14.6582641,12.9134892 C14.5795797,12.7407418 14.5795797,12.5439823 14.6582641,12.3715104 L15.415874,10.8457334 C15.553928,10.5659169 15.8717999,10.4149634 16.1839558,10.4811928 Z M16.4558242,11.8929977 L16.2458998,12.2945138 L16.8898828,12.5287998 L17.1446907,12.0268341 L16.4558242,11.8929977 Z M10.90436,7.37918346 C11.0833197,7.43851368 11.2293367,7.56682983 11.3080211,7.73378437 C11.3867055,7.90101443 11.3912506,8.09224955 11.3205204,8.26279285 L10.976229,9.2195336 L11.4582908,9.9789638 L11.7406529,9.87189473 C11.9744371,9.7855175 12.2383425,9.82912151 12.4295194,9.98559027 L12.9323214,10.4003522 L13.083727,10.1260531 C12.8397114,9.95744585 12.7357418,9.65471932 12.826927,9.37714228 C12.9181121,9.09980544 13.1837119,8.91160804 13.4834035,8.91188356 L14.17227,8.91188356 C14.4137263,8.91243543 14.637286,9.03578724 14.7614284,9.23723758 C14.88528,9.43868792 14.8918176,9.68842389 14.7781885,9.89539158 L13.9103332,11.4511991 C13.7927284,11.6656198 13.5649072,11.8013847 13.3146444,11.8058104 L12.7843685,11.8058104 C12.6221638,11.8068979 12.464795,11.7522587 12.3400854,11.6518098 L11.8614341,11.2502937 L11.4205616,11.4175238 C11.1080857,11.5361856 10.753286,11.4189036 10.5802676,11.1399114 L9.63998192,9.64450509 C9.5348779,9.47507091 9.51215251,9.2694808 9.57805541,9.08238545 L10.018928,7.83119772 C10.0700597,7.65431053 10.1939098,7.50556818 10.3615105,7.42002455 C10.5288275,7.33448092 10.7251167,7.31985041 10.90436,7.37918346 Z M12.8771245,8.30616302 L12.8978617,8.52030115 C12.9359269,8.88677037 12.6618012,9.2143285 12.2848434,9.25295701 L12.1882725,9.2463376 C11.8320547,9.2479933 11.5334977,8.98528436 11.4996896,8.6408916 L11.4996896,8.43337288 C11.463329,8.06386594 11.742564,7.73575677 12.1229325,7.70071702 C12.5033009,7.6656709 12.8410547,7.93665608 12.8771245,8.30616302 Z M5.39392662,8.69813497 L4.21962397,8.69813497 C4.05117247,8.69868685 3.8881169,8.63908027 3.76170556,8.53090491 L2.23259595,7.21959856 L2.23259595,7.21932262 C2.06471169,7.07527108 1.97948966,6.86085744 2.00420761,6.64450815 C2.02892556,6.42815885 2.16044193,6.23692373 2.35645478,6.13205878 L3.67881789,5.41953665 L3.67910194,5.41953665 C3.82823866,5.33592162 4.00464586,5.31219207 4.17167201,5.35247931 L6.02460932,5.78076262 L6.02432527,5.78076262 C6.3342414,5.8536114 6.55212152,6.1235023 6.55127068,6.43312375 L6.55127068,7.20251484 C6.55325917,7.31951655 6.52343226,7.43487223 6.46519782,7.53725048 L5.98994994,8.35354963 C5.86950902,8.56410607 5.64196424,8.69573828 5.39397753,8.69821791 L5.39392662,8.69813497 Z M4.47778438,7.36005429 L4.98740032,7.36005429 L5.1734649,7.02559417 L5.17374902,6.9684716 L4.11303695,6.72093974 L3.87527484,6.84815666 L4.47778438,7.36005429 Z" id="Combined-Shape" fill="#000000" fill-rule="nonzero"></path>
    </g>
</svg>