<?xml version="1.0" encoding="UTF-8"?>
<svg width="32px" height="32px" viewBox="0 0 32 32" version="1.1" xmlns="http://www.w3.org/2000/svg" xmlns:xlink="http://www.w3.org/1999/xlink">
    <title>state-de</title>
    <g id="state-de" stroke="none" stroke-width="1" fill="none" fill-rule="evenodd">
        <path d="M9.36223808,2.21043645 C9.0808047,2.4153374 8.9140475,2.7406954 8.9140475,3.08765658 L8.9140475,28.9122726 C8.9140475,29.5146304 9.40621689,30 10.0100309,30 L22.903777,30 C23.1930497,30 23.4709337,29.8866046 23.6765198,29.683868 C23.8834574,29.4798 24,29.202303 24,28.9122983 L24,22.9521736 L23.990712,22.8104696 C23.9354974,22.391889 23.6387452,22.038137 23.2251619,21.9124872 L17.2811746,20.0808395 L14.0444454,12.0553475 L14.1659489,10.1810123 C14.1855035,9.8922999 14.0873273,9.60661537 13.8936226,9.38908621 C13.7010901,9.17292207 13.4303515,9.04172275 13.1409917,9.02352731 C12.5424504,8.9866103 12.0233214,9.43337969 11.9791099,10.0293739 L11.8413521,12.1541735 C11.8293835,12.3106738 11.853986,12.4733766 11.9134461,12.6249286 L15.4387326,21.3690768 L15.4992324,21.4950734 C15.6355088,21.7375248 15.8609572,21.9204899 16.1307842,22.0037121 L21.8069604,23.7531243 L21.8069604,27.8233964 L11.1059131,27.8233964 L11.1059131,4.54876542 L12.3116153,4.90214065 L12.2953071,5.15817812 C12.257005,5.76072065 12.7185947,6.27661961 13.3222677,6.31396434 C13.9255174,6.35084072 14.4472209,5.89678302 14.4854563,5.29529866 L14.5599843,4.17788351 C14.582084,3.66798599 14.2599139,3.22040106 13.7806206,3.07771345 L10.3315683,2.04777208 C10.0007879,1.94716771 9.64161906,2.00735715 9.36223808,2.21043645 Z" id="Path" fill="#000000" fill-rule="nonzero"></path>
    </g>
</svg>