<?xml version="1.0" encoding="UTF-8"?>
<svg width="32px" height="32px" viewBox="0 0 32 32" version="1.1" xmlns="http://www.w3.org/2000/svg" xmlns:xlink="http://www.w3.org/1999/xlink">
    <title>state-pa</title>
    <g id="state-pa" stroke="none" stroke-width="1" fill="none" fill-rule="evenodd">
        <path d="M7.92154587,7.84051602 L7.82030301,7.76541735 C7.53601235,7.58022776 7.17724564,7.54847417 6.86461629,7.68055142 L3.22135656,9.23778431 C2.84883682,9.39115951 2.60126954,9.75623147 2.6,10.1627485 L2.6,22.2498381 C2.6,22.8073787 3.05603613,23.2568021 3.61571959,23.2568021 L19.3150189,23.2568021 C19.8747041,23.2568021 20.330485,22.8073746 20.330485,22.2498381 L20.3245114,22.1399088 C20.2692444,21.634569 19.8373318,21.2431239 19.3150189,21.2431239 L4.631,21.243 L4.631,10.836 L6.241,10.14 L6.24793742,10.267326 C6.30323402,10.7726686 6.73536888,11.1641102 7.25768014,11.1641102 L24.753,11.164 L25.7950969,12.9363444 L25.8596073,13.033649 C25.9530139,13.1580514 26.0751889,13.2603156 26.2165021,13.3309596 L27.355,13.892 L27.355,14.159 L25.8269731,16.4178232 C25.6955412,16.6245334 25.6430842,16.8584838 25.6722844,17.0896029 L25.7940079,18.3937642 L25.8155002,18.5258876 C25.8557033,18.6991144 25.9414401,18.8592031 26.0648682,18.989514 L26.918,19.896 L25.337,21.242 L24.5207929,21.2428624 C23.9611737,21.2428624 23.5050733,21.6922213 23.5050733,22.2495766 C23.5050733,22.8071172 23.9611094,23.2565406 24.5207929,23.2565406 L25.7113605,23.2571558 C25.9523023,23.2583664 26.1874094,23.1734584 26.3726405,23.0172406 L29.0445311,20.7624895 C29.2548906,20.5834955 29.3823253,20.3288289 29.3983864,20.0555099 L29.3980688,19.9381562 C29.3838178,19.7050462 29.2886781,19.4836331 29.127155,19.3119412 L27.783,17.894 L27.726,17.264 L29.2256461,15.0458878 C29.3401038,14.8715697 29.3973007,14.6724449 29.3926385,14.4698093 L29.3927443,13.2833688 L29.3847282,13.1569294 C29.3423177,12.8241963 29.1343734,12.531253 28.8266235,12.3808514 L27.395,11.678 L26.2267274,9.65979695 L26.1604576,9.56044975 C25.9696315,9.30800077 25.6696279,9.15738437 25.3486719,9.15701852 L8.278,9.157 L8.27898357,8.60716922 C8.27898357,8.30971022 8.14645945,8.03013198 7.92154587,7.84051602 Z" id="Path" fill="#000000" fill-rule="nonzero"></path>
    </g>
</svg>