<?xml version="1.0" encoding="UTF-8"?>
<svg width="32px" height="32px" viewBox="0 0 32 32" version="1.1" xmlns="http://www.w3.org/2000/svg" xmlns:xlink="http://www.w3.org/1999/xlink">
    <title>state-wv</title>
    <g id="state-wv" stroke="none" stroke-width="1" fill="none" fill-rule="evenodd">
        <path d="M11.5016283,6.81049056 L11.3734553,6.82332755 C11.120257,6.86412056 10.8885109,6.99445702 10.7243995,7.19326536 L7.46708654,11.1699668 L4.79429088,11.5567781 C4.21623207,11.6393453 3.80979484,12.1680432 3.89729416,12.742843 C3.98461696,13.3143237 4.52498311,13.7024808 5.10036919,13.6206652 L8.19528899,13.1741915 L8.32477951,13.1475443 C8.53669433,13.0900477 8.72715817,12.9681372 8.86711064,12.7969499 L11.6372192,9.39306885 L11.9575848,9.71553102 L12.0620607,9.80818675 C12.2457202,9.95021159 12.4745591,10.0292109 12.7112911,10.0299053 L17.2067857,10.0296873 L16.7926704,13.042041 C16.7282724,13.4470383 16.9236899,13.8577067 17.2853628,14.0755943 L17.4167947,14.1440911 C17.7323221,14.2810622 18.1037681,14.2579759 18.4040039,14.0732857 L23.7126884,10.7440521 L26.9453581,10.7440521 L27.8816943,11.1789808 L27.8816943,11.2691215 L25.1979906,13.171409 L25.1278075,13.2245515 C25.0816469,13.2631993 25.0372238,13.3079303 24.9974255,13.3566115 L21.6822699,17.2815041 L19.2312235,16.7267694 L19.0999788,16.7055312 C18.6195456,16.6579208 18.1565,16.9387628 17.9951457,17.4015185 L17.5448132,18.6978393 L14.5322313,19.2814082 L14.401134,19.315148 C14.0604041,19.4263239 13.794892,19.7033463 13.7081381,20.0555049 L13.0355263,22.8409297 L10.0721518,23.1654361 L8.87071855,21.9137758 C8.65529689,21.6883667 8.34803356,21.5697607 8.03430438,21.5893087 L7.90130148,21.6059602 C7.63920815,21.6555374 7.40340721,21.8013294 7.24461415,22.0175707 L5.66201966,24.1716314 L4.11160017,22.2730435 L4.11212332,17.7377562 C4.11212332,17.1615129 3.6358691,16.7009592 3.05621575,16.7009592 C2.47657658,16.7009592 2.00002708,17.1614923 2.00002708,17.7377562 L2.00002708,22.6247135 C1.99830775,22.8567676 2.07852402,23.0853914 2.22640827,23.2699513 L4.87810353,26.5306585 C5.07801978,26.7784824 5.38390545,26.9224635 5.70611413,26.922049 L5.9074502,26.9053881 C6.15453456,26.8656716 6.40425976,26.7190628 6.57129132,26.4952313 L8.21976111,24.257265 L8.91201357,24.9695249 C9.1403645,25.2049071 9.46795838,25.3211158 9.79606958,25.2845421 L14.0121589,24.8186967 L14.1417566,24.7963274 C14.5226846,24.7062326 14.827795,24.4133788 14.92122,24.0290532 L15.6056621,21.1812147 L18.5432715,20.6179213 L18.6789903,20.5820288 C18.9872337,20.4786568 19.2327846,20.2409387 19.338893,19.9321522 L19.6856541,18.955867 L21.8451188,19.4459396 L21.9748416,19.4668816 C22.321251,19.5013704 22.6666219,19.3665327 22.893442,19.098976 L26.5385984,14.7767202 L29.5525919,12.6418508 C29.8247382,12.4569707 29.9950303,12.145262 30,11.8090522 L30,10.5217192 C30,10.1200267 29.7638748,9.7566702 29.3974446,9.58573216 L27.63855,8.77076449 C27.4998206,8.70535061 27.3446312,8.67090077 27.1875929,8.67048487 L23.4056247,8.67048319 L23.2563436,8.68065547 C23.1083583,8.70121033 22.9653971,8.75261455 22.8376895,8.8321827 L19.1921339,11.1181359 L19.4641962,9.14786986 C19.5051332,8.84702735 19.4103715,8.54524075 19.2063002,8.32014063 L19.1145969,8.23083845 C18.9215027,8.06445002 18.6728255,7.9723826 18.4143337,7.97309542 L13.1459486,7.97222657 L12.3058174,7.12240005 C12.0924822,6.90858006 11.7986434,6.79612097 11.5016283,6.81049056 Z" id="Path" fill="#000000" fill-rule="nonzero"></path>
    </g>
</svg>