<?xml version="1.0" encoding="UTF-8"?>
<svg width="32px" height="32px" viewBox="0 0 32 32" version="1.1" xmlns="http://www.w3.org/2000/svg" xmlns:xlink="http://www.w3.org/1999/xlink">
    <title>state-sd</title>
    <g id="state-sd" stroke="none" stroke-width="1" fill="none" fill-rule="evenodd">
        <path d="M11.0507386,6.69618087 L3.6899862,6.69618087 C3.10798535,6.6957371 2.62820829,7.15422468 2.60486279,7.7356843 L2.0009145,22.0858428 C1.98875161,22.3817191 2.09834427,22.6690086 2.30393587,22.8817137 L2.41228502,22.9797957 C2.60272342,23.1300325 2.83990547,23.2130497 3.0857506,23.2130497 L16.1372866,23.2129312 L22.327068,25.2317951 L22.4653669,25.2706078 C22.654436,25.3092989 22.8596228,25.295537 23.0501513,25.2267277 L25.1993897,24.3869308 L28.6579299,25.2672441 C28.7330455,25.2895957 28.8288547,25.3033871 28.924967,25.3038195 C29.2301469,25.2942022 29.501489,25.1718178 29.6979462,24.9632966 L29.7895728,24.8558612 C29.9851113,24.5924023 30.0514302,24.2445499 29.9586436,23.9181346 L28.9608845,20.3906361 L29.0008797,20.3771363 C29.1368389,20.3181553 29.2609662,20.2312546 29.3642006,20.1202401 C29.5709149,19.8979458 29.6747561,19.5996066 29.6504936,19.2972548 L28.6796555,7.69126596 C28.6344412,7.12848109 28.1609741,6.69492252 27.5942988,6.69670348 L15.3438397,6.69670102 C14.7448777,6.69670102 14.2585561,7.18110184 14.2585561,7.77957713 L14.2658636,7.90594084 C14.3286053,8.44478111 14.7876607,8.86245325 15.3438397,8.86245325 L26.5917533,8.86195978 L27.387725,18.3150047 L27.2769855,18.3376377 C27.0475879,18.3991913 26.8413385,18.5354334 26.6940984,18.7291648 L26.6141704,18.850169 C26.4717511,19.1009484 26.4346552,19.4006229 26.5155298,19.6820246 L27.365419,22.7151553 L25.3938034,22.213352 L25.2613718,22.1876857 C25.0831978,22.1646287 24.9001197,22.1861985 24.730019,22.25201 L22.6295046,23.0626592 L16.6402793,21.1018005 L16.5282909,21.0723655 C16.4539596,21.0566119 16.3801348,21.0485255 16.3059213,21.0476697 L4.21062448,21.0469019 L4.72483631,8.86078578 L11.0507386,8.8619336 C11.6496835,8.8619336 12.1362637,8.37755074 12.1362637,7.77905748 C12.1362637,7.18056424 11.6496835,6.69618087 11.0507386,6.69618087 Z" id="Path" fill="#000000" fill-rule="nonzero"></path>
    </g>
</svg>