<?xml version="1.0" encoding="UTF-8"?>
<svg width="32px" height="32px" viewBox="0 0 32 32" version="1.1" xmlns="http://www.w3.org/2000/svg" xmlns:xlink="http://www.w3.org/1999/xlink">
    <title>state-mt</title>
    <g id="state-mt" stroke="none" stroke-width="1" fill="none" fill-rule="evenodd">
        <path d="M29.077317,7.52072608 L28.9359779,7.51372178 L13.0247053,7.80231082 L3.14425444,7.51421173 C2.85955927,7.50549578 2.58290296,7.61338018 2.3785615,7.81295913 C2.17489045,8.01146123 2.06003482,8.28448378 2.06003482,8.56956182 L2,11.3238832 L2.00975474,11.4809048 C2.03016444,11.6352767 2.08221394,11.780998 2.1629776,11.9117499 L5.07929512,16.4285892 L3.99273969,19.3768392 C3.87343773,19.6961078 3.91646921,20.055816 4.10910032,20.3393035 L7.22379083,24.9095122 C7.39556854,25.1614508 7.666086,25.324778 7.96446129,25.361598 L8.09383534,25.3695221 C8.11695739,25.3746978 8.19115591,25.3746978 8.26507137,25.3668367 L12.3533281,24.4940036 L12.4738166,24.4604932 C12.9035382,24.3130712 13.195509,23.9019951 13.1851913,23.4384129 L13.1851363,22.5975467 L13.1600698,22.5988374 C13.7421043,22.5988374 14.2128419,22.1258792 14.2128419,21.5432846 C14.2128419,20.9608604 13.7420371,20.4879693 13.1600698,20.4879693 L12.1323075,20.4879693 L12.0094327,20.495075 C11.4854844,20.556084 11.0795355,21.0024621 11.0795355,21.5432846 L11.0792401,22.5986735 L8.57672785,23.1485276 L6.16773585,19.6150388 L7.24885839,16.6745876 L7.28886042,16.5400158 C7.35037806,16.2674214 7.30133234,15.9778426 7.14811632,15.7382479 L4.12606441,11.051737 L4.15648667,9.66358074 L13.0114444,9.91315507 L27.8926072,9.65343998 L27.8926072,20.4871435 L17.5627563,20.4880549 C16.980789,20.4880549 16.5099843,20.9609461 16.5099843,21.5433703 C16.5099843,22.1259648 16.9807218,22.598923 17.5627563,22.598923 L28.9465107,22.598923 C29.2263708,22.598923 29.4947134,22.4873421 29.6920424,22.2887027 C29.8887843,22.0910894 29.9998217,21.8228613 29.9998217,21.5433763 L29.9998217,8.56955573 C30.0049493,8.29872391 29.8993113,8.02779417 29.7054777,7.82571436 C29.5284309,7.65182088 29.3091969,7.54741415 29.077317,7.52072608 Z" id="Path" fill="#000000" fill-rule="nonzero"></path>
    </g>
</svg>