<?xml version="1.0" encoding="UTF-8"?>
<svg width="32px" height="32px" viewBox="0 0 32 32" version="1.1" xmlns="http://www.w3.org/2000/svg" xmlns:xlink="http://www.w3.org/1999/xlink">
    <title>state-ks</title>
    <g id="state-ks" stroke="none" stroke-width="1" fill="none" fill-rule="evenodd">
        <path d="M24.1090757,9.50143881 L24.0399605,9.62281868 C23.7979131,10.1185638 23.9661438,10.7254359 24.44799,11.0265205 L25.506362,11.6761827 L25.135658,12.5481074 L25.0891356,12.6797415 C24.9764424,13.0792388 25.1039251,13.5130629 25.4259779,13.791447 L26.3202744,14.5605739 L26.7236608,20.9207519 L5.27278571,20.9207519 L5.86894083,11.1811716 L20.6458283,11.1820066 C21.2527219,11.1820066 21.7494855,10.6971282 21.7494855,10.0926551 C21.7494855,9.48820224 21.2527376,9.00306324 20.6458283,9.00306324 L4.82848979,9.00306324 C4.24746755,9.00216939 3.76136885,9.44819948 3.7257873,10.0264367 L3.00202195,21.9450277 C2.98348122,22.2468957 3.09311401,22.5423503 3.30358007,22.7612561 C3.5122957,22.9774641 3.79978637,23.0993018 4.10030543,23.1001826 L27.8947971,23.100709 C28.1968231,23.1015777 28.48772,22.9790665 28.6970355,22.7609599 C28.9084649,22.5415783 29.0180343,22.2434987 28.9975708,21.9393581 L28.4922672,13.9691439 L28.4732124,13.8259529 C28.4258471,13.5911306 28.3016301,13.3776786 28.1183392,13.2189382 L27.4792666,12.6673947 L27.914779,11.6867375 C28.126529,11.1881378 27.9439353,10.6213932 27.4896382,10.337864 L25.6388685,9.17053818 C25.1242055,8.84894454 24.4413153,8.99487125 24.1090757,9.50143881 Z" id="Path" fill="#000000" fill-rule="nonzero"></path>
    </g>
</svg>