<?xml version="1.0" encoding="UTF-8"?>
<svg width="32px" height="32px" viewBox="0 0 32 32" version="1.1" xmlns="http://www.w3.org/2000/svg" xmlns:xlink="http://www.w3.org/1999/xlink">
    <title>state-ne</title>
    <g id="state-ne" stroke="none" stroke-width="1" fill="none" fill-rule="evenodd">
        <path d="M15.6652045,9.32361971 L3.05282236,9.32361971 C2.77048996,9.32491328 2.50209362,9.43690747 2.30527085,9.63540462 C2.11304991,9.82632707 2.00219755,10.0883292 2,10.3624151 L2.10895346,17.8618526 L2.11628731,17.9859718 C2.17524322,18.4749117 2.5828262,18.866175 3.09354931,18.8993226 L8.03626622,19.2022982 L8.03678939,21.6305327 C8.03678939,22.2092912 8.50952291,22.6757393 9.08962714,22.6757393 L28.9485391,22.6762307 C29.3084296,22.6824017 29.6536216,22.4972816 29.84979,22.1871536 C30.0486522,21.8485974 30.0486522,21.4471558 29.8581619,21.1223406 L28.5307228,18.8853468 C28.1992719,18.4084498 27.5943849,18.2744805 27.1205119,18.545636 L27.0155843,18.6141632 C26.6170936,18.9094662 26.4761666,19.4499423 26.6980882,19.9058676 L27.1062737,20.5961531 L10.1445139,20.5961531 L10.1455009,18.2433418 L10.1381929,18.1173106 C10.0790865,17.6212528 9.66841335,17.2291574 9.15559129,17.1987419 L4.20175692,16.8867189 L4.12062713,11.4025705 L15.4607687,11.4025705 L20.1231342,13.2501021 L20.2698102,13.2912007 C20.4650953,13.3324693 20.6583461,13.3199217 20.8387317,13.2571841 L22.7286455,12.6713503 L24.6813945,13.3891235 L25.7544494,16.3336931 C25.9493174,16.8753406 26.5504189,17.1574663 27.0963692,16.9658095 C27.6450925,16.7737592 27.933859,16.1746265 27.7374066,15.6281488 L26.5144007,12.2292139 C26.4114724,11.9394877 26.1833924,11.7087994 25.8927507,11.6000811 L23.1399339,10.5906872 L23.0006284,10.5531968 C22.8144032,10.5156047 22.6272941,10.5274119 22.4519477,10.5864476 L20.5561701,11.1648152 L16.0507946,9.39915709 C15.9342029,9.35086447 15.8003544,9.32405511 15.6652045,9.32361971 Z" id="Path" fill="#000000" fill-rule="nonzero"></path>
    </g>
</svg>