<?xml version="1.0" encoding="UTF-8"?>
<svg width="32px" height="32px" viewBox="0 0 32 32" version="1.1" xmlns="http://www.w3.org/2000/svg" xmlns:xlink="http://www.w3.org/1999/xlink">
    <title>state-ga</title>
    <g id="state-ga" stroke="none" stroke-width="1" fill="none" fill-rule="evenodd">
        <path d="M17.7410654,2.00009153 L3.6085574,2.00009153 C3.30599854,1.99597478 3.01156942,2.13091967 2.81121952,2.36738442 C2.61214977,2.60327198 2.52685551,2.91447965 2.57710977,3.21858091 L3.49927232,8.851978 C3.52517015,9.10944856 3.66982477,9.37053966 3.89618841,9.54545907 C4.12344984,9.72151003 4.41356319,9.79476832 4.69729165,9.74754059 C4.98093898,9.69981611 5.23134287,9.53654626 5.39030935,9.29673431 L5.46056642,9.17336339 C5.54255019,9.00363496 5.57746076,8.81465854 5.56165067,8.62668387 L4.82438232,4.08693067 L15.8845729,4.08693067 L15.8430207,4.15610978 L15.7738701,4.28543288 C15.6156437,4.63998579 15.6664903,5.06441926 15.9185392,5.37513452 L27.2963099,18.9589209 L25.8720963,27.9064528 L8.51336602,27.9064528 L7.82604773,22.2760766 L8.7993385,18.9459517 C8.871799,18.6867538 8.84646031,18.4154786 8.7298133,18.1793688 L6.26896512,13.2857723 C6.15546881,13.0424489 5.93839499,12.8460009 5.67233851,12.7541868 C5.404913,12.661898 5.11203003,12.6834854 4.86090282,12.8140787 C4.61163132,12.9432568 4.42501075,13.1691712 4.34351501,13.4394708 L4.31205541,13.5749677 C4.27488254,13.8029429 4.31375069,14.0390899 4.42479019,14.2449501 L6.66436716,18.7527254 L5.75040013,21.8936677 C5.7106916,22.0286524 5.69849654,22.1716357 5.71492086,22.3127943 L6.55371547,29.0803641 C6.61620542,29.6056682 7.06166601,30.0038396 7.59146166,29.9999721 L26.7565972,29.9996324 C27.2587748,30.0031161 27.6913043,29.6392384 27.7813078,29.140353 L29.4205308,18.8271 L29.4355447,18.7003429 C29.449278,18.4453318 29.3659144,18.1847388 29.197545,17.9797513 L18.0107526,4.59847575 L18.6379373,3.58176116 C18.8297224,3.24496609 18.8297224,2.84894124 18.6466594,2.52646124 C18.4602294,2.19846379 18.1126247,1.9968146 17.7410654,2.00009153 Z" id="Path" fill="#000000" fill-rule="nonzero"></path>
    </g>
</svg>