<?xml version="1.0" encoding="UTF-8"?>
<svg width="32px" height="32px" viewBox="0 0 32 32" version="1.1" xmlns="http://www.w3.org/2000/svg" xmlns:xlink="http://www.w3.org/1999/xlink">
    <title>state-or</title>
    <g id="state-or" stroke="none" stroke-width="1" fill="none" fill-rule="evenodd">
        <path d="M2.49762714,6.32555062 L2.40729664,6.43323566 C2.2154593,6.69618196 2.15734595,7.03605705 2.25788694,7.35123026 L3.30170888,10.6106571 L3.22722109,11.2551491 C3.16033086,11.8316605 3.5830327,12.3465966 4.16268144,12.4097174 C4.73965493,12.4729739 5.26527059,12.0652715 5.33143391,11.4911492 L5.43504306,10.6306107 L5.44101025,10.4834767 C5.43818925,10.3863635 5.42184899,10.2914205 5.39246333,10.1999541 L4.84197314,8.46532926 L7.43574659,9.0625056 L8.06787271,10.5961628 C8.18016474,10.8638646 8.39715128,11.0710602 8.66754504,11.1729006 L8.80157055,11.2157217 C9.02958025,11.2712277 9.27752662,11.2473718 9.49692083,11.1434048 L11.8323165,10.0653111 L13.2761452,10.6754109 L13.4259433,10.7268115 C13.6300011,10.7799613 13.8487831,10.7714669 14.0512844,10.7000403 L15.7139628,10.1047473 L24.7934863,9.82760919 L26.7583448,9.82756736 L26.2485239,11.8517866 C26.2072962,12.011177 26.2072962,12.1812759 26.2492657,12.3435723 L27.3993297,17.3269481 L27.8197412,24.0245898 L5.1191531,24.0245898 L4.13437551,21.6088425 L4.82411298,15.8075709 C4.89232722,15.2311155 4.47103934,14.7151125 3.89158577,14.6503309 C3.31450011,14.5858036 2.78788834,14.9920705 2.71999323,15.5659225 L2.00815672,21.6210384 C1.98567752,21.7934616 2.00979841,21.9747049 2.07882083,22.1409259 L3.42361681,25.446725 L3.48644945,25.5743871 C3.67534306,25.8998529 4.02935711,26.1021227 4.41411829,26.0980168 L28.464241,26.0978057 L28.4649351,26.1117615 L28.9428738,26.1124541 C29.2312107,26.1128701 29.5078415,25.9971748 29.7076952,25.791056 C29.9102119,25.5821906 30.0158827,25.2995112 29.9980609,25.0101972 L29.4815421,17.0622568 L29.4810139,17.0034571 C29.4802506,16.9895903 29.4791361,16.9745149 29.4776501,16.9594682 L28.3605802,12.0968374 L29.1202083,9.04150291 C29.2046604,8.74215058 29.1386741,8.40659247 28.9389495,8.14829678 C28.7186764,7.89486822 28.4273027,7.75862094 28.1186691,7.7497015 L24.7700305,7.78882291 L15.4815095,8.04388064 L15.3705496,8.05085086 C15.2945523,8.0605364 15.2155483,8.08024413 15.1397859,8.10964226 L13.7207459,8.60279249 L12.2222304,7.96943316 L12.0847134,7.91983796 C11.8502236,7.85376857 11.592654,7.87077647 11.3629157,7.97282388 L9.5923419,8.78757913 L9.16240256,7.76502018 C9.03337895,7.45377661 8.75696791,7.2233725 8.42381197,7.14756835 L3.50452665,6.02716231 C3.13960364,5.94339551 2.7559205,6.05629242 2.49762714,6.32555062 Z" id="Path" fill="#000000" fill-rule="nonzero"></path>
    </g>
</svg>