<?xml version="1.0" encoding="UTF-8"?>
<svg width="32px" height="32px" viewBox="0 0 32 32" version="1.1" xmlns="http://www.w3.org/2000/svg" xmlns:xlink="http://www.w3.org/1999/xlink">
    <title>state-ny</title>
    <g id="state-ny" stroke="none" stroke-width="1" fill="none" fill-rule="evenodd">
        <path d="M6.85481457,16.1508553 L6.53072276,15.3002853 L8.62946265,15.3005192 L11.8553686,15.8965683 C12.1029927,15.9387171 12.3523981,15.8963631 12.5668019,15.7774605 L15.7841557,13.937855 L15.8970852,13.8676742 C16.2190124,13.6365158 16.3855959,13.2266282 16.2998432,12.8219844 L15.6867943,10.0788682 L19.1831381,6.32336901 L23.5403285,6.32336901 L23.5407943,10.4253326 L23.5476596,10.5589118 C23.5743403,10.7802675 23.6762403,10.9926402 23.8387571,11.1570093 L25.2507538,12.5284497 L25.2507844,15.0776953 C25.2507844,15.6521552 25.7228502,16.1128996 26.2997314,16.1128996 C26.8764438,16.1128996 27.3484437,15.6520885 27.3484437,15.0776953 L27.3484437,12.0947524 L27.3415871,11.9612441 C27.3149376,11.7400053 27.2131527,11.5277282 27.0508449,11.363215 L25.6383601,9.99098073 L25.6384536,5.28870727 C25.6384536,5.01166763 25.5261319,4.74689161 25.3272041,4.55267933 C25.1305151,4.36065171 24.8653051,4.25350214 24.5895126,4.25350214 L18.7242495,4.25350214 C18.432676,4.25267535 18.1520327,4.37297813 17.9526969,4.58620603 L13.7709651,9.07485474 L13.6799015,9.18780682 C13.5151183,9.42417226 13.4554848,9.71941453 13.5205682,10.0034974 L14.0834114,12.5126751 L11.8479147,13.7814096 L8.88397704,13.2377255 C8.77495952,13.2265949 8.71459303,13.2265949 8.65457966,13.2313137 L5.03542207,13.2298402 C4.69625547,13.2298402 4.37727582,13.3918344 4.18016644,13.6660793 L4.10392257,13.7896034 C3.97010812,14.045004 3.94890877,14.3464589 4.0506826,14.620894 L4.60057872,16.0957796 L2.47141075,17.4809233 C2.17670745,17.6728874 1.99869893,17.9989312 2.00000716,18.3488931 L2.00000716,19.885744 L2.00710514,20.0069666 C2.06800671,20.5236481 2.5134434,20.9211775 3.04896186,20.9211775 L17.7104596,20.9205763 L18.8645505,22.7763125 L18.942347,22.8826868 C19.0251763,22.9831462 19.1228384,23.065767 19.2329387,23.1297037 L21.6687761,24.4980471 L22.8890458,27.1402439 C23.0593752,27.509836 23.4322764,27.7456356 23.8418181,27.7465021 C23.9305072,27.7447495 24.0075836,27.7348405 24.0829362,27.7167567 L29.0645248,26.4916948 C29.5055371,26.3838454 29.8282814,26.0060994 29.8581887,25.5548012 L29.9977555,23.5161971 C30.0212111,23.1614291 29.8595817,22.8212947 29.5713272,22.61267 L29.460575,22.5427993 C29.1940323,22.3969028 28.8746194,22.3714671 28.5858189,22.4772915 L27.3363911,22.9386079 L27.3388135,22.9271484 C27.3451122,22.8813096 27.3483329,22.8347857 27.3483329,22.7878476 L27.3483329,19.6993825 C27.3483329,19.1250081 26.8763477,18.663949 26.2996207,18.663949 L26.1777387,18.6708783 C25.6576975,18.7303839 25.2506737,19.1659729 25.2506737,19.6993825 L25.2496271,22.2670574 L23.892696,23.2646318 L23.7891243,23.3512889 C23.7246285,23.4127527 23.6693235,23.4812657 23.6237307,23.5548152 L23.5865257,23.6225527 L23.4542958,23.3336886 L23.3923946,23.2182665 C23.3003716,23.0702391 23.1713722,22.9467185 23.0171136,22.860081 L20.5341263,21.4625491 L19.2132543,19.3405592 L19.1382859,19.2311949 C18.9471089,18.9889568 18.6463751,18.8398434 18.3242515,18.8365407 L4.19945129,18.8360658 L6.44821418,17.3739224 C6.85424768,17.1094929 7.02412295,16.6032675 6.85481457,16.1508553 Z" id="Path" fill="#000000" fill-rule="nonzero"></path>
    </g>
</svg>