<?xml version="1.0" encoding="UTF-8"?>
<svg width="32px" height="32px" viewBox="0 0 32 32" version="1.1" xmlns="http://www.w3.org/2000/svg" xmlns:xlink="http://www.w3.org/1999/xlink">
    <title>state-az</title>
    <g id="state-az" stroke="none" stroke-width="1" fill="none" fill-rule="evenodd">
        <path d="M26.9610846,2 L8.37551113,2 L8.24873632,2.00774737 C7.75012689,2.06912572 7.36055006,2.487963 7.33758183,3.00479116 L7.25633803,4.9228169 L7.17207273,4.91719333 L5.18100161,4.91718126 C4.87935467,4.91366686 4.58705979,5.04791173 4.38746337,5.28303291 C4.19016651,5.51542524 4.10290988,5.82308592 4.14778549,6.12554521 L4.70748086,9.83752705 L4.62420422,11.9844434 L4.62818585,12.1257517 C4.64168073,12.2664911 4.68349922,12.404477 4.75169619,12.5302884 L6.17464789,15.1526761 L5.30929577,20.2861972 L3.68084557,21.9507113 C3.43672885,22.2007861 3.3324668,22.5563408 3.40086736,22.8993801 C3.47013574,23.2446693 3.70496561,23.5328378 4.02848289,23.6656666 L18.9235632,29.9195796 C19.0493195,29.9725178 19.1846985,30 19.3214541,30 L26.9616044,30 C27.2393611,30 27.5051518,29.8871668 27.6997491,29.687822 C27.892328,29.4905448 28,29.2245465 28,28.9479541 L28,21.0564372 C28,20.4778379 27.5376913,20.0043852 26.9615985,20.0043852 L26.8400187,20.0114977 C26.3218204,20.0725578 25.923197,20.5191664 25.923197,21.0564372 L25.9222535,27.8952113 L19.5267606,27.8952113 L6.24901408,22.3143662 L7.00955642,21.5224453 C7.15574438,21.3735828 7.25566336,21.1778166 7.2922425,20.9659034 L8.28274719,15.1505943 L8.29973148,15.0043343 C8.30817492,14.8075421 8.26005515,14.6061118 8.15832306,14.4297776 L6.70422535,11.7487324 L6.77311277,9.74808785 L6.77668751,9.70337321 C6.77769283,9.66658295 6.77579345,9.61788086 6.77009531,9.56956197 L6.38873239,7.01183099 L6.79774648,7.01183099 L7.5448791,7.65823156 C7.84851268,7.92086978 8.27403426,7.98446635 8.6398582,7.82051589 L8.75584241,7.75939431 C9.05218192,7.57839448 9.24205611,7.25774615 9.25702183,6.90360155 L9.37126761,4.08676056 L25.9222535,4.08676056 L25.9226772,16.3221624 C25.9226772,16.9005775 26.3850342,17.3742144 26.9610787,17.3742144 C27.5371232,17.3742144 27.9994802,16.9005775 27.9994802,16.3221624 L27.9994802,3.05204611 C27.9994802,2.77527913 27.8918503,2.50949838 27.6992293,2.31217814 C27.5050084,2.11277983 27.2390682,2 26.9610846,2 Z" id="Path" fill="#000000" fill-rule="nonzero"></path>
    </g>
</svg>