<?xml version="1.0" encoding="UTF-8"?>
<svg width="32px" height="32px" viewBox="0 0 32 32" version="1.1" xmlns="http://www.w3.org/2000/svg" xmlns:xlink="http://www.w3.org/1999/xlink">
    <title>state-ri</title>
    <g id="state-ri" stroke="none" stroke-width="1" fill="none" fill-rule="evenodd">
        <path d="M17.1239879,6 L9.6299066,6 C9.0313537,6 8.54699439,6.48638199 8.54699439,7.08528369 L8.54699439,17.2031326 C8.54699439,17.8020343 9.0313537,18.2884163 9.6299066,18.2884163 L9.75628555,18.2811081 C10.2952008,18.2183612 10.7130569,17.7592704 10.7130569,17.2031326 L10.7127192,8.17036 L16.0405992,8.17036 L16.041174,11.6780193 L16.0514599,11.8227089 C16.103887,12.2026609 16.3527142,12.530227 16.711939,12.6784156 L21.2953992,14.57472 L21.2953992,18.615 L19.7827592,19.62768 L19.4036212,17.4816104 C19.3108528,16.9574565 18.8520848,16.5778374 18.3204918,16.5859141 L15.1650043,16.5858572 C14.8652665,16.5849625 14.5773101,16.7100622 14.3718309,16.9306299 L14.2776973,17.0467946 C14.1351832,17.2498217 14.0655213,17.4971947 14.083347,17.7476567 L14.3237992,21.11712 L10.7127192,22.77128 L10.7131815,22.7078064 C10.7131815,22.1088887 10.2285674,21.6225227 9.6300312,21.6225227 C9.03148688,21.6225227 8.54699439,22.1088965 8.54699439,22.7078064 L8.54699439,24.460704 C8.54589574,24.8296948 8.73345049,25.1754071 9.04465177,25.3757056 C9.22246798,25.4886215 9.42577218,25.5473165 9.63310981,25.5460119 C9.79265098,25.5426666 9.94258118,25.5074571 10.0801053,25.4422665 L15.901218,22.7799814 L16.0215587,22.7160546 C16.3670118,22.5034643 16.5688373,22.1095797 16.5323447,21.6962494 L16.3201592,18.74724 L17.4140392,18.74724 L17.9311982,21.6341253 C17.9874758,21.9901781 18.228124,22.3013345 18.5675153,22.4492363 C18.9052712,22.5955402 19.2929225,22.560573 19.5984819,22.3570333 L22.9715631,20.1001847 C23.2735421,19.8979884 23.4543253,19.5578438 23.4530032,19.1942998 L23.4530032,13.8482485 L23.4433641,13.7036037 C23.3924286,13.3234958 23.143175,12.9937156 22.782383,12.8447389 L18.2063192,10.94972 L18.207132,7.08527744 C18.207132,6.79782234 18.0934019,6.52198782 17.8905809,6.31843363 C17.6873751,6.11449213 17.4118065,6 17.1239879,6 Z" id="Path" fill="#000000" fill-rule="nonzero"></path>
    </g>
</svg>