<?xml version="1.0" encoding="UTF-8"?>
<svg width="32px" height="32px" viewBox="0 0 32 32" version="1.1" xmlns="http://www.w3.org/2000/svg" xmlns:xlink="http://www.w3.org/1999/xlink">
    <title>state-vt</title>
    <g id="state-vt" stroke="none" stroke-width="1" fill="none" fill-rule="evenodd">
        <path d="M24.2894688,2.09487983 L8.58155432,2.09487983 C8.30641074,2.09487983 8.04300193,2.20698303 7.85303404,2.40567466 C7.66445441,2.60800368 7.5661851,2.87147335 7.57562154,3.14238046 L8.04654024,13.1199182 C8.07315615,13.6745038 8.54490452,14.1017837 9.099711,14.0757868 L9.21664064,14.063464 C9.71393702,13.9817773 10.0822883,13.5397179 10.0579688,13.0249223 L9.637,4.102 L22.925,4.102 L22.2621184,6.2340621 L22.2332961,6.35286701 C22.1903936,6.59229674 22.2356114,6.84006431 22.3629736,7.04970062 L23.097,8.258 L21.856,10.237 L19.7028147,11.1580821 C19.4280205,11.2753132 19.2194566,11.5086587 19.1341915,11.794894 L16.5188824,20.6629161 L16.4889464,20.7912072 C16.4749941,20.8789338 16.4731874,20.970314 16.4843392,21.0608774 L16.964,25.467 L15.8,27.937 L10.762,27.937 L10.2294014,16.6166632 C10.2027772,16.0619039 9.73083741,15.6345779 9.17591275,15.6609936 C8.62111099,15.6869917 8.19178557,16.1571512 8.21796963,16.7118283 L8.7991626,28.990032 C8.82624463,29.5262085 9.26894075,29.9448798 9.80487765,29.9448798 L16.4357764,29.9443175 C16.8231173,29.9452889 17.1777657,29.7229048 17.3452056,29.3728295 L18.9145091,26.0700495 L18.9574988,25.9676759 C19.006766,25.8276199 19.0235749,25.6745512 19.004946,25.5230885 L18.505,21.035 L20.946,12.817 L22.9469436,11.9718208 C23.1369703,11.890896 23.2967138,11.7546665 23.4059126,11.5809868 L25.1495351,8.79950513 L25.2087866,8.68826834 C25.3470551,8.3849041 25.3274933,8.03248014 25.151437,7.74626264 L24.336,6.394 L25.2510646,3.3932954 C25.345574,3.09080344 25.2893165,2.75855792 25.0988393,2.50134445 C24.908448,2.24508341 24.6083857,2.09487983 24.2894688,2.09487983 Z" id="Path" fill="#000000" fill-rule="nonzero"></path>
    </g>
</svg>