<?xml version="1.0" encoding="UTF-8"?>
<svg width="32px" height="32px" viewBox="0 0 32 32" version="1.1" xmlns="http://www.w3.org/2000/svg" xmlns:xlink="http://www.w3.org/1999/xlink">
    <title>state-nv</title>
    <g id="state-nv" stroke="none" stroke-width="1" fill="none" fill-rule="evenodd">
        <path d="M24.4548912,2 L8.08548598,2 C7.52953582,2 7.07544702,2.44189392 7.04805815,2.99979694 L6.68189511,10.6261483 C6.65288732,11.201126 7.0884323,11.6971397 7.66202082,11.7288423 C7.94117501,11.7435255 8.21275625,11.644518 8.41756788,11.4548268 L8.51198609,11.354917 C8.65752428,11.1792015 8.74296841,10.9596706 8.75381842,10.7290335 L9.07257783,4.09466726 L23.4220063,4.09466726 L23.4220063,23.4559731 L23.0039727,23.3396617 C22.689761,23.2510058 22.351951,23.3182339 22.0931723,23.5204357 L21.9902762,23.6124315 C21.7980649,23.8086637 21.6888185,24.075149 21.6891786,24.3544304 L21.6890326,26.521917 L8.24157998,13.7454777 C7.80633807,13.3569407 7.16164189,13.3921578 6.78008936,13.8139228 C6.40455057,14.2281593 6.41766818,14.8692025 6.81005992,15.2678688 L22.0109316,29.71654 C22.2063949,29.9009383 22.4622485,30.0022283 22.7285582,30 C22.8653292,30.0004996 23.0060736,29.9712502 23.1368699,29.9141834 L23.2590089,29.8496848 C23.5700536,29.6583198 23.7608392,29.3170392 23.759718,28.946665 L23.7589109,25.7309237 L24.1778704,25.8485184 C24.4954728,25.938373 24.8372519,25.8686341 25.0969976,25.6615077 C25.3534415,25.4565604 25.4994101,25.1425769 25.4929182,24.8135838 L25.4931259,3.05186504 C25.4931259,2.77544591 25.3853483,2.50949509 25.1930512,2.31242876 C24.9983549,2.11290376 24.7326642,2 24.4548912,2 Z" id="Path" fill="#000000" fill-rule="nonzero"></path>
    </g>
</svg>