<?xml version="1.0" encoding="UTF-8"?>
<svg width="32px" height="32px" viewBox="0 0 32 32" version="1.1" xmlns="http://www.w3.org/2000/svg" xmlns:xlink="http://www.w3.org/1999/xlink">
    <title>state-ia</title>
    <g id="state-ia" stroke="none" stroke-width="1" fill="none" fill-rule="evenodd">
        <path d="M24.2296427,6.5 L3.09300391,6.5 C2.77659093,6.5 2.47605774,6.63877229 2.26890267,6.87913168 C2.0630648,7.1178441 1.9687528,7.43402578 2.00917554,7.74749039 L2.79157674,13.7739319 L2.81669936,13.9148765 C2.85178053,14.0551907 2.91630045,14.1921068 3.00632664,14.3120648 L3.85610243,15.4083432 L4.36395555,18.1039977 L4.39627536,18.2347678 C4.43691817,18.3635831 4.50213756,18.48558 4.58840161,18.5921706 L5.26725537,19.4445693 L5.07364112,22.2000091 C5.04911644,22.5567959 5.19617653,22.9033825 5.46956492,23.13066 L6.69617763,24.1621594 C6.89176649,24.3268336 7.13891059,24.4179659 7.39432574,24.4184288 L11.0964381,24.4184296 C11.70263,24.4184296 12.1905019,23.9219102 12.1905019,23.3137223 L12.1831702,23.1852089 C12.1202116,22.6369469 11.6593958,22.2087655 11.0964381,22.2087655 L7.7866682,22.208175 L7.29476047,21.7996216 L7.47943003,19.1829358 L7.48042474,19.0444455 C7.4678997,18.8149263 7.38507773,18.593991 7.24122214,18.4130532 L6.46239156,17.4323263 L5.94215916,14.7447329 L5.91174237,14.6195498 C5.87334114,14.4955832 5.81133445,14.3763122 5.72885277,14.2711485 L4.91975016,13.2035635 L4.33861812,8.72121578 L23.5112793,8.72121578 L23.6380717,8.99123673 L23.2241973,10.2167605 C23.0917042,10.6232544 23.1984919,11.0650664 23.4988828,11.3600253 L26.88882,14.5571823 L27.8116563,15.8662048 L27.8116563,16.3745486 L26.4428619,17.5830637 C26.4200243,17.6005119 26.3813725,17.6375811 26.3462487,17.6778897 L24.784308,19.4377222 L24.712369,19.5224766 C24.6438271,19.6134314 24.5863289,19.7218912 24.5475445,19.8379895 L23.6075476,22.9830177 L23.2302157,22.5602859 C23.0209957,22.3278259 22.7262568,22.1960409 22.4165826,22.1965025 L15.0625308,22.196502 C14.4563208,22.196502 13.968467,22.6932855 13.968467,23.3014588 L13.9757995,23.4299362 C14.0387642,23.9780665 14.4996216,24.4064156 15.0625308,24.4064156 L21.9392878,24.4059107 L23.2784128,25.9167017 C23.4877126,26.1502214 23.7830357,26.2821302 24.0929148,26.2816734 C24.1616306,26.2841 24.2468661,26.2768389 24.3309376,26.2603412 L24.4758286,26.2170737 C24.8028688,26.0955753 25.0494927,25.833717 25.1496492,25.5034434 L26.58717,20.7289298 L27.9669355,19.1759981 L29.6300071,17.7029067 C29.8657272,17.4926473 30,17.1913832 30,16.8756119 L30,15.5091945 C29.9991103,15.2650874 29.9195173,15.0296039 29.7731014,14.8373223 L28.5522117,13.1421665 L28.4865595,13.0605377 L28.419059,12.9896432 L25.5235223,10.2345071 L25.8525577,9.27483467 C25.9455195,8.9995024 25.9279193,8.70022741 25.8042646,8.4393235 L25.1922942,7.13532994 C25.0188383,6.75893165 24.6458683,6.51078164 24.2296427,6.5 Z" id="Path" fill="#000000" fill-rule="nonzero"></path>
    </g>
</svg>