<?xml version="1.0" encoding="UTF-8"?>
<svg width="32px" height="32px" viewBox="0 0 32 32" version="1.1" xmlns="http://www.w3.org/2000/svg" xmlns:xlink="http://www.w3.org/1999/xlink">
    <title>state-ma</title>
    <g id="state-ma" stroke="none" stroke-width="1" fill="none" fill-rule="evenodd">
        <path d="M20.8141049,8.90597218 L18.5338417,10.2297503 L4.4849721,10.2304454 C3.98619771,10.2215287 3.53855722,10.5659531 3.43868876,11.0579823 L2.01928743,17.8981317 C1.95824162,18.2113418 2.04400231,18.5277097 2.24964814,18.7660047 L2.34423611,18.8609933 C2.54390652,19.0376665 2.8037187,19.1334559 3.07282278,19.1292782 L17.5073434,18.8597732 L19.730917,22.7254441 C19.9130629,23.0275843 20.2265231,23.2147881 20.5720114,23.2384549 L20.6532985,23.2395746 L20.7881593,23.2312885 C21.0550827,23.1980542 21.3021732,23.0661221 21.474647,22.8584608 L22.2296865,21.9449021 L23.4833547,22.9913721 C23.6745875,23.1515996 23.9190464,23.2395746 24.1710479,23.2395746 L28.9441211,23.2395746 C29.2190691,23.2395746 29.483943,23.1354049 29.6818465,22.9474782 C29.8845083,22.7554568 29.9999874,22.4906145 29.9999874,22.2128133 L29.9999874,17.6722018 C30.0026577,17.1354389 29.579028,16.6933856 29.0368675,16.6469557 L27.4875443,16.5127388 C27.1963413,16.4882999 26.9079573,16.5813861 26.6901741,16.7713056 L26.6002731,16.8595098 C26.432444,17.0455267 26.3376987,17.2867606 26.3384778,17.5394154 L26.3379335,19.3025985 L25.1987569,19.3025985 L24.2576171,18.2630887 C23.8256093,17.8797989 23.2306003,17.8712596 22.8271993,18.2042941 L22.7300299,18.2954357 C22.4298796,18.6153097 22.3683374,19.0878042 22.579326,19.4708766 L22.6488494,19.5797868 L22.5451553,19.5236031 C22.3744993,19.444772 22.1852437,19.4115847 21.9956777,19.4286121 L21.8553829,19.4503823 C21.6254316,19.5017215 21.4172734,19.6272086 21.2673054,19.8099042 L20.8088145,20.3685342 L19.0429466,17.2911647 L18.9597723,17.1728431 C18.7496994,16.912882 18.4319667,16.7676709 18.0976247,16.7769247 L4.36117844,17.020865 L5.33922516,12.2838737 L18.8356159,12.2841406 L18.9768489,12.2730903 C19.1154663,12.2535379 19.2458202,12.20867 19.3641581,12.1402036 L21.0431851,11.1570918 L21.7158739,12.1272511 L19.435416,14.6990207 C19.0910459,15.083895 19.0910459,15.659545 19.4367688,16.0459048 L20.0919778,16.7643804 C20.522976,17.1465586 21.1179925,17.1551041 21.5213925,16.8220495 L21.6185346,16.7309362 C21.9486187,16.3791829 21.990196,15.8428052 21.6981761,15.4437397 L21.6268582,15.3633688 L23.8349319,12.8618316 C24.145019,12.5097297 24.1743196,11.9988934 23.905561,11.6154307 L22.2292377,9.2098859 C21.913757,8.75859527 21.2922613,8.62790504 20.8141049,8.90597218 Z" id="Path" fill="#000000" fill-rule="nonzero"></path>
    </g>
</svg>