<?xml version="1.0" encoding="UTF-8"?>
<svg width="32px" height="32px" viewBox="0 0 32 32" version="1.1" xmlns="http://www.w3.org/2000/svg" xmlns:xlink="http://www.w3.org/1999/xlink">
    <title>state-ms</title>
    <g id="state-ms" stroke="none" stroke-width="1" fill="none" fill-rule="evenodd">
        <path d="M22.2115758,2 L13.6846771,2 C13.3083074,1.99828839 12.9577375,2.19968638 12.7682818,2.5274548 L9.67973761,7.97994043 C9.61235355,8.09557328 9.56775153,8.22930639 9.55153931,8.36793311 L9.20448512,10.693786 L9.19528954,10.8342976 C9.19491069,10.9731731 9.22081101,11.1068061 9.27145077,11.2321896 L9.780345,12.4889594 L9.26305018,13.9834752 L9.23087379,14.1138311 C9.19856174,14.2868911 9.20836773,14.456519 9.2573977,14.6174263 L10.1251316,17.8770947 L9.98991916,18.2130343 C9.77129162,18.7540901 10.032503,19.3694769 10.5732822,19.5879209 C11.113908,19.8063031 11.729393,19.5452923 11.9479754,19.0047936 L12.2158458,18.3453402 L12.2604648,18.2154535 C12.3079819,18.0383006 12.3073825,17.8472245 12.2560567,17.6657438 L11.366814,14.374018 L11.9101916,12.8128919 L11.9510393,12.6725139 C11.9917988,12.4810876 11.9775857,12.275141 11.9065204,12.084701 L11.3577999,10.7143226 L11.6169532,8.83039076 L14.2974998,4.10704003 L21.1695695,4.10704003 L21.1700109,20.7422706 L21.8095655,26.9970376 L18.3200099,27.7699906 L17.4197338,26.3998583 L17.650895,25.3726755 C17.7212694,25.0550756 17.6416612,24.723914 17.4355287,24.4734797 L17.3411748,24.3730053 C17.1408011,24.1858031 16.873567,24.0825097 16.5958884,24.088851 L9.88851334,24.0877601 L10.3187483,23.0158296 C10.4406984,22.8011038 10.4649018,22.4836121 10.3599653,22.1972696 C10.2550328,21.9109377 10.0315608,21.6841082 9.74682486,21.5748922 C9.46207917,21.4656757 9.14391453,21.4848603 8.87440762,21.6275788 C8.60497018,21.7698258 8.41004241,22.0225466 8.34069216,22.319844 L7.34520049,24.7474397 C7.21283462,25.0740124 7.25192582,25.4443834 7.44881585,25.7356365 L7.52870034,25.839206 C7.72852684,26.0675207 8.0188673,26.2005685 8.32639794,26.1998076 L15.2890429,26.1992962 L15.254033,26.3597191 C15.1919305,26.6390074 15.2451347,26.9300176 15.4013936,27.1684084 L16.9414938,29.5233341 C17.1389865,29.8226977 17.4725512,30.0013161 17.8293739,29.9994737 C17.8861111,30.0017903 17.96145,29.9964817 18.035756,29.9830976 L23.1735988,28.8259238 C23.6935918,28.711452 24.0475044,28.2239098 23.9948111,27.6916313 L23.2649184,20.5923338 L23.2674295,3.05553842 C23.2674295,2.7756021 23.156225,2.50741177 22.958516,2.30938207 C22.7601055,2.11108435 22.4915437,2 22.2115758,2 Z" id="Path" fill="#000000" fill-rule="nonzero"></path>
    </g>
</svg>