<?xml version="1.0" encoding="UTF-8"?>
<svg width="32px" height="32px" viewBox="0 0 32 32" version="1.1" xmlns="http://www.w3.org/2000/svg" xmlns:xlink="http://www.w3.org/1999/xlink">
    <title>state-fl</title>
    <g id="state-fl" stroke="none" stroke-width="1" fill="none" fill-rule="evenodd">
        <path d="M23.5616606,4.69619202 L21.5203454,4.69619202 L21.3765353,4.70523599 C21.0450156,4.74759759 20.7461899,4.93847524 20.5731536,5.22931486 L20.4820766,5.38309776 L20.2431496,5.18242872 C20.0412975,5.01792704 19.7937359,4.93042608 19.5387028,4.93042608 L3.09501874,4.93042608 C2.49351484,4.93042608 2,5.40911664 2,6.00737551 L2,7.80764983 L2.00813753,7.93978042 C2.07259994,8.45929737 2.51235548,8.86331567 3.05185323,8.88422494 L7.53065254,9.04945902 L9.77948426,11.1700822 C10.0294628,11.4072623 10.3803539,11.512806 10.7230661,11.4552553 L11.3525349,11.3447462 C11.6072825,11.3322201 11.8958132,11.1838853 12.0889475,10.9421019 C12.2845511,10.6970887 12.3631554,10.3804575 12.3033918,10.073625 C12.2433066,9.76756262 12.052663,9.50354102 11.7813704,9.34737107 L11.6436708,9.28031064 C11.4550248,9.20419915 11.2481806,9.18149596 11.0469968,9.21458418 L10.910561,9.24551484 L8.76911045,7.21975071 L8.64598674,7.11896705 L8.59898067,7.09007479 L19.1425575,7.09007479 L20.0768154,7.86046106 C20.325946,8.06426999 20.6517044,8.14902365 20.9681822,8.09405264 L21.1035369,8.06122904 C21.3680553,7.9793459 21.5927926,7.80183655 21.7303021,7.56091098 L22.153834,6.84118956 L22.6386907,6.84118956 L23.2308709,10.329858 L23.2641903,10.4729386 C23.2938201,10.567582 23.3380073,10.6598863 23.3950952,10.7447437 L26.4952378,15.4559058 L27.7643177,21.0405618 L26.9542667,24.8595413 L26.9425268,24.8689332 L26.7456202,23.9850005 L26.7037828,23.8446739 C26.5847888,23.5269888 26.3198752,23.2811843 25.9866228,23.184431 L24.0286912,22.6184002 L23.3280487,20.6714228 L23.2745276,20.5477685 C23.0923933,20.190445 22.7216257,19.959541 22.3109166,19.9540639 L21.6325838,19.9534499 L20.9129298,19.1492688 L21.4790432,18.3440995 C21.6290732,18.1659509 21.7171477,17.898174 21.699518,17.6264516 L21.5129104,15.8718651 C21.4702888,15.450958 21.178176,15.0945803 20.7712064,14.9605542 L20.6355587,14.9252973 L20.5670627,14.9142333 L20.4844246,14.9064799 L20.7456536,14.2971762 C20.9134387,13.907881 20.8323565,13.45709 20.5397164,13.1465895 L16.4264275,8.80248885 C16.1772844,8.53572273 15.8050087,8.41087772 15.4399512,8.47146382 L14.728335,8.59319807 C14.1320937,8.69710703 13.7307395,9.25721635 13.8406669,9.84796153 L13.8709283,9.9704167 C14.0312139,10.4867102 14.5614633,10.810686 15.1097704,10.7151509 L15.229659,10.6930408 L18.4275995,14.087037 L17.6604035,15.9132956 L17.61401,16.04453 C17.5145005,16.3992608 17.6075835,16.786194 17.8677881,17.0618839 L18.290243,17.508035 L18.5438242,17.778052 L18.6594573,17.8854532 C18.7363973,17.9473961 18.8212166,17.9984021 18.9113706,18.0374255 L19.012245,18.0727228 L18.6364422,18.6081142 C18.3511783,19.0147721 18.3834342,19.5584338 18.7128382,19.9291531 L20.3260803,21.7334492 L20.420644,21.8270415 C20.6200986,22.0015782 20.8788117,22.0990892 21.1480914,22.0990892 L21.5327949,22.098324 L22.1625503,23.8468729 L22.2136912,23.965883 C22.3489435,24.2344549 22.5928985,24.4367597 22.8875376,24.5215547 L24.7565631,25.0626411 L25.2235216,27.1447352 C25.3030395,27.5239184 25.5905588,27.8335348 25.9700989,27.9493689 C26.0655972,27.982082 26.1816134,28.0008263 26.2981537,28 C26.5697886,27.9990003 26.8336481,27.8973402 27.0352907,27.7140608 L28.7051312,26.2133762 C28.8743824,26.0655091 28.9938005,25.8607978 29.0394127,25.6346363 L29.9740043,21.2622446 C30.009167,21.1189509 30.009167,20.9547857 29.970895,20.7974101 L28.6106661,14.7945286 L28.5748911,14.6712598 C28.5460206,14.5905773 28.5072565,14.5132217 28.4594841,14.4411949 L25.3611664,9.75972113 L24.6556144,5.59736591 C24.5676562,5.07050202 24.1002918,4.68991111 23.5616606,4.69619202 Z" id="Path" fill="#000000" fill-rule="nonzero"></path>
    </g>
</svg>