<?xml version="1.0" encoding="UTF-8"?>
<svg width="32px" height="32px" viewBox="0 0 32 32" version="1.1" xmlns="http://www.w3.org/2000/svg" xmlns:xlink="http://www.w3.org/1999/xlink">
    <title>state-nj</title>
    <g id="state-nj" stroke="none" stroke-width="1" fill="none" fill-rule="evenodd">
        <path d="M12.7651341,2.06721506 C12.4656179,2.16987535 12.2198878,2.40181386 12.1025819,2.70117366 L10.2007892,7.65962314 C10.1764793,7.72347098 10.1586037,7.7881377 10.1473296,7.85404019 L9.0776305,13.5863813 L9.05888404,13.7315869 C9.03648234,14.1183987 9.23187893,14.4955159 9.57516832,14.7076489 L12.7644084,16.5576521 L12.365247,19.7415515 L9.44902159,22.0753932 C9.2181667,22.2623877 9.07409159,22.5296894 9.04813321,22.8206755 C9.02245092,23.1133559 9.11818391,23.4024959 9.3126782,23.6234808 L12.2997418,27.0151171 C12.3817389,27.1035452 12.465241,27.1717372 12.5568615,27.2280305 L16.9069141,29.8404427 C17.0830129,29.9454301 17.2838965,30 17.4884105,30 C17.5976648,30 17.7064707,29.9838241 17.8114043,29.9525506 C18.1160555,29.8625991 18.368893,29.6473651 18.5013452,29.3602838 L20.4965142,25.0493207 C20.7528324,24.4929898 20.4921028,23.8449218 19.9264434,23.6047733 L19.797018,23.5587045 C19.2743002,23.407691 18.7022173,23.6520175 18.4705357,24.154877 L16.9978675,27.3350105 L13.8691464,25.4648218 L11.7371548,23.0475472 L14.118565,21.1443098 C14.3382373,20.9678339 14.4806446,20.7159265 14.5160764,20.4391847 L15.0608803,16.1448654 L15.0721447,16.0023405 C15.0755273,15.6235076 14.8686995,15.2607141 14.5244997,15.062075 L11.3873015,13.2328723 L12.3231598,8.28973151 L13.7376579,4.62155158 L19.2989157,7.4884698 L17.0150546,12.5620352 C16.8623608,12.9046322 16.8990708,13.2973919 17.11096,13.6053351 L17.1948597,13.7125094 C17.4048045,13.9487035 17.7102808,14.0859209 18.0331673,14.0859209 L19.7919975,14.0851993 L20.6795446,19.3787842 L20.4351773,19.9325863 C20.1823557,20.4816642 20.4431309,21.1296273 21.0084994,21.3698479 C21.563346,21.6055978 22.213507,21.3644263 22.4647187,20.8197361 L22.8562559,19.970489 C22.9471453,19.7767023 22.9772063,19.5571883 22.9410503,19.3433839 L21.8394743,12.8217183 L21.8091625,12.69166 C21.6699574,12.2272911 21.2294026,11.9061225 20.7293767,11.9121197 L19.7344713,11.9109436 L21.7504331,7.43762306 C21.9877472,6.91344516 21.7662096,6.30184078 21.2514664,6.03690582 L13.6680631,2.12541141 C13.3891064,1.98146783 13.0608474,1.96055995 12.7651341,2.06721506 Z" id="Path" fill="#000000" fill-rule="nonzero"></path>
    </g>
</svg>