<?xml version="1.0" encoding="UTF-8"?>
<svg width="32px" height="32px" viewBox="0 0 32 32" version="1.1" xmlns="http://www.w3.org/2000/svg" xmlns:xlink="http://www.w3.org/1999/xlink">
    <title>state-md</title>
    <g id="state-md" stroke="none" stroke-width="1" fill="none" fill-rule="evenodd">
        <path d="M23.9419736,8.39440478 L3.05133201,8.39440478 C2.46944768,8.39440478 2,8.86962577 2,9.45277517 L2,13.9056455 C2,14.2445104 2.16071248,14.5632666 2.43366969,14.7626338 C2.70814527,14.9631101 3.0618233,15.0181998 3.38385614,14.9102702 L4.74561153,14.465252 L4.84200774,14.4286354 C4.90515489,14.4010142 4.96584238,14.3670622 5.0227163,14.3273166 L8.06420451,12.1701694 L11.3610946,12.3515773 L14.6151679,15.0524131 L14.2215525,16.3444383 C14.181993,16.4868528 14.171426,16.6230448 14.186486,16.7576317 L14.3942159,19.1589745 L14.4123344,19.2841574 C14.4967549,19.6937284 14.8168138,20.0209079 15.2340726,20.1055443 L17.3396656,20.5273238 L19.5643714,22.6052989 C19.8808939,22.899673 20.3431429,22.9704666 20.7315061,22.7836026 L20.8544809,22.7139701 C21.1667086,22.5082694 21.3500991,22.1480222 21.3279467,21.7667977 L21.2404973,20.3267611 L21.3044234,20.415604 C21.3836739,20.5138757 21.4810416,20.5984545 21.593603,20.6639608 L22.6275348,21.2856311 L22.7887015,23.0414068 C22.8399091,23.5854079 23.2945284,24.0020719 23.8395244,23.9999922 L23.912022,23.9968351 L23.9976574,23.9873978 L27.908751,23.2381946 C28.2561913,23.1712922 28.5460694,22.9336409 28.6816358,22.6063029 L29.9178608,19.6345004 C30.0539525,19.3095815 30.0194056,18.9362758 29.8255774,18.640876 L29.7460481,18.5349546 C29.5466898,18.3013873 29.254362,18.1648532 28.9438442,18.1663959 L25.7509043,18.1656418 L24.9930729,9.36247778 C24.9466541,8.8151663 24.4904701,8.39265582 23.9419736,8.39440478 Z M24.6072463,20.2557755 L24.6504687,20.2643557 L24.7124335,20.2696837 L27.3847015,20.2704233 L26.9768156,21.2540819 L24.7864006,21.6833762 L24.6838209,20.55689 C24.6754837,20.4711652 24.6570647,20.3878948 24.6295113,20.3085423 L24.6072463,20.2557755 Z M23.3802082,15.2924122 L23.7242123,19.3031369 L23.741965,19.4270931 L23.761052,19.4997217 L23.2089412,19.1684553 L23.3802082,15.2924122 Z M22.9678153,10.4991893 L23.0861247,11.8738324 L23.0295456,11.8059846 C22.837242,11.6009496 22.5644686,11.4733851 22.2628853,11.4738588 L20.6833693,11.49421 C20.1840649,11.4850053 19.7403997,11.8511476 19.6464697,12.357977 L19.4649302,13.2475803 C19.4074337,13.5225757 19.4624,13.8119611 19.6182353,14.0481449 C19.7745272,14.2854574 20.0200435,14.4497886 20.2987947,14.5026965 C20.5774365,14.5559353 20.866196,14.4930554 21.0984499,14.3288332 L21.2076257,14.2400776 L21.2945816,14.1465007 L21.3075449,14.3679013 L21.1266948,18.4247958 L21.0618451,17.3475493 C21.025721,16.7638695 20.5272207,16.318761 19.9455572,16.355232 L19.8232591,16.3701405 C19.3037881,16.464492 18.9274942,16.9375948 18.9609926,17.4785502 L19.0681104,19.257469 L18.5499367,18.7736938 L18.4313644,18.6790093 C18.3072698,18.5935212 18.1674808,18.536003 18.0198468,18.5098826 L16.4089646,18.1859234 L16.2861481,16.7673367 L16.8316489,14.9937288 L16.8636332,14.8562329 C16.9241185,14.4877749 16.7879358,14.1108539 16.4978133,13.8683762 L12.433767,10.4991893 L22.9678153,10.4991893 Z M6.76843432,10.4991893 L4.1047815,12.3876335 L4.1047815,10.4991893 L6.76843432,10.4991893 Z" id="Path" fill="#000000" fill-rule="nonzero"></path>
    </g>
</svg>