<?xml version="1.0" encoding="UTF-8"?>
<svg width="32px" height="32px" viewBox="0 0 32 32" version="1.1" xmlns="http://www.w3.org/2000/svg" xmlns:xlink="http://www.w3.org/1999/xlink">
    <title>state-mb</title>
    <g id="state-mb" stroke="none" stroke-width="1" fill="none" fill-rule="evenodd">
        <path d="M19,2 L10.5,2 C9.96926629,2 9.53097946,2.41461342 9.50153965,2.94452998 L9.00153965,11.94453 L9,29 C9,29.5522847 9.44771525,30 10,30 L19,30 L19.1166211,29.9932723 C19.6139598,29.9355072 20,29.5128358 20,29 L20,20.414 L22.7071068,17.7071068 L22.8411785,17.5407576 L27.3411785,10.5407576 C27.6628346,10.0404037 27.4792412,9.37158661 26.9472136,9.10557281 L24.9472136,8.10557281 L24.815724,8.05114651 C24.6363644,7.99146543 24.4427315,7.98354071 24.2574644,8.0298575 L23.035,8.334 L21.8944272,6.0527864 L21.8278868,5.93909777 C21.7052789,5.75812253 21.5258998,5.62120738 21.3162278,5.5513167 L20.209,5.182 L20,4.764 L20,3 C20,2.44771525 19.5522847,2 19,2 Z M18,4 L18,5 C18,5.1552451 18.0361451,5.30835816 18.1055728,5.4472136 L18.6055728,6.4472136 L18.6721132,6.56090223 C18.7947211,6.74187747 18.9741002,6.87879262 19.1837722,6.9486833 L20.29,7.317 L21.6055728,9.9472136 L21.6632923,10.0477382 C21.8938316,10.4003627 22.3257232,10.5743456 22.7425356,10.4701425 L24.383,10.06 L25.056,10.396 L21.217,16.367 L18.2928932,19.2928932 L18.2060806,19.3919705 C18.0731645,19.565516 18,19.7789863 18,20 L18,28 L11,28 L11,12 L11.445,4 L18,4 Z" id="Path-3" fill="#000000" fill-rule="nonzero"></path>
    </g>
</svg>