<?xml version="1.0" encoding="UTF-8"?>
<svg width="32px" height="32px" viewBox="0 0 32 32" version="1.1" xmlns="http://www.w3.org/2000/svg" xmlns:xlink="http://www.w3.org/1999/xlink">
    <title>state-in</title>
    <g id="state-in" stroke="none" stroke-width="1" fill="none" fill-rule="evenodd">
        <path d="M20.657883,2.00009026 L13.0950685,2.00009026 L12.9401871,2.01149652 C12.837953,2.02658241 12.7382647,2.05659237 12.6441572,2.10087907 L10.3975237,3.1494316 L9.04565191,2.67229664 C8.69873997,2.55009123 8.3136258,2.61623687 8.02775502,2.84703134 L7.92609645,2.94114228 C7.70519621,3.17403573 7.60005978,3.49581201 7.64517313,3.81772565 L9.37781056,18.3594955 L7.64702557,28.7714991 C7.58114706,29.1940487 7.77064533,29.6105304 8.12817991,29.8360646 C8.29681991,29.9429953 8.49355413,30 8.6942529,30 L8.82386835,29.9921065 C8.99523964,29.9711472 9.15959052,29.9088085 9.3022431,29.8094058 L12.5732874,27.508745 L15.4406985,27.3589905 L15.5702171,27.3431122 C15.8251827,27.2961653 16.0534123,27.1593491 16.2133834,26.9555482 L17.3417139,25.5346705 L21.249961,22.9645267 C21.3243565,22.912038 21.3805751,22.8637637 21.4320539,22.8107003 L24.07798,19.9871708 C24.3027383,19.7489367 24.4045696,19.4182127 24.3525839,19.0931947 L23.9601275,16.6923994 C23.8651324,16.1160272 23.3225719,15.7250158 22.7463853,15.8176958 C22.4732878,15.8583934 22.2227265,16.0094252 22.0556143,16.2360275 L21.980238,16.35396 C21.8683419,16.5574087 21.8256838,16.7929443 21.860988,17.0247877 L22.1687318,18.9104786 L19.9233184,21.2981198 L16.0171087,23.8641019 L15.9250103,23.9326324 C15.8662586,23.9817732 15.8129947,24.0376215 15.7663774,24.0989764 L14.8335576,25.2676296 L12.1443094,25.4180293 L12.0001261,25.4379129 C11.8591268,25.466783 11.7281375,25.5223161 11.6112801,25.601847 L10.1552714,26.6208622 L11.5134145,18.5514362 L11.525137,18.4431717 L11.5252557,18.3358136 L9.95808931,5.24068863 L10.1032807,5.2919445 L10.2353018,5.3290303 C10.4578792,5.37631159 10.6908395,5.35105732 10.899275,5.25486173 L13.3282131,4.11956754 L19.7619834,4.11956754 L21.1789962,12.8609483 C21.2737869,13.4433135 21.8221347,13.8383483 22.4040534,13.7436077 C22.9857881,13.6492932 23.3808115,13.1007674 23.2861122,12.5186643 L21.717807,2.88987158 C21.6339124,2.37208219 21.1828565,1.99328436 20.657883,2.00009026 Z" id="Path" fill="#000000" fill-rule="nonzero"></path>
    </g>
</svg>