<?xml version="1.0" encoding="UTF-8"?>
<svg width="32px" height="32px" viewBox="0 0 32 32" version="1.1" xmlns="http://www.w3.org/2000/svg" xmlns:xlink="http://www.w3.org/1999/xlink">
    <title>state-nh</title>
    <g id="state-nh" stroke="none" stroke-width="1" fill="none" fill-rule="evenodd">
        <path d="M18.8053946,2.00002155 L16.718977,2.00002155 C16.2455923,2.00925032 15.8402765,2.31641296 15.7093357,2.76050876 L14.2661885,7.35658955 L14.2396744,7.45867275 C14.2254626,7.52758245 14.2181871,7.59801091 14.2178925,7.66881994 L14.217393,12.2129853 L12.0703282,13.8070005 C11.8990548,13.934544 11.7706902,14.1095759 11.7013255,14.3102461 L9.25544192,21.2927035 L9.22285927,21.407827 C9.20546695,21.4848679 9.19670674,21.562476 9.19641773,21.6405522 L9.19542899,26.5262026 L7.84798231,28.3055131 C7.6045649,28.6263786 7.56524189,29.0573211 7.74702071,29.4170557 C7.92808175,29.774946 8.29609849,30 8.69795728,30 L18.1150149,29.9995296 C18.7015512,29.9995296 19.1789452,29.526872 19.1789452,28.9414713 L19.1717722,28.8178856 C19.1101872,28.2909784 18.6596407,27.8836514 18.114991,27.8836514 L10.8314828,27.8828202 L11.1103118,27.516623 L11.185998,27.4020202 C11.2764585,27.2435438 11.324614,27.063799 11.324614,26.8798453 L11.3238764,21.8186042 L13.6044362,15.3104453 L15.9100602,13.5974405 L16.0182978,13.5053021 C16.2207527,13.3080458 16.3373737,13.0362394 16.3373737,12.7497773 L16.3368264,7.81975268 L17.4996415,4.11609644 L17.8613311,4.11609644 L20.1528611,23.6726922 L20.1863197,23.8251143 C20.2439223,24.0219549 20.3526413,24.1922385 20.5023032,24.3239538 L21.8861136,25.5909927 L20.8339847,27.0521012 C20.6661705,27.2564391 20.5835597,27.5500012 20.6238566,27.8400714 C20.6641295,28.1295188 20.822737,28.38924 21.0619721,28.5580791 C21.2995588,28.726062 21.5966825,28.7896217 21.8829836,28.7338265 C22.1225717,28.686775 22.3370032,28.5602416 22.492199,28.3767931 L24.1653616,26.0630902 L24.236421,25.951226 C24.4682926,25.5299833 24.3856592,24.9964275 24.020405,24.6642157 L22.2275215,23.0276164 L19.8663168,2.93558157 C19.8031917,2.39875063 19.3439895,1.99660916 18.8053946,2.00002155 Z" id="Path" fill="#000000" fill-rule="nonzero"></path>
    </g>
</svg>