<?xml version="1.0" encoding="UTF-8"?>
<svg width="32px" height="32px" viewBox="0 0 32 32" version="1.1" xmlns="http://www.w3.org/2000/svg" xmlns:xlink="http://www.w3.org/1999/xlink">
    <title>state-nd</title>
    <g id="state-nd" stroke="none" stroke-width="1" fill="none" fill-rule="evenodd">
        <path d="M26.1268461,7.63379112 L3.90466492,7.63379112 C3.34403327,7.63294096 2.87840302,8.06856218 2.8472378,8.62801944 L2.00165568,23.2545521 C1.98531963,23.5456076 2.09043939,23.8292318 2.29177167,24.0394679 C2.49203695,24.2486014 2.76973331,24.3666411 3.05972875,24.3662129 L12.5525841,24.3662129 C13.1359403,24.3662129 13.6107525,23.8961304 13.6107525,23.3136522 L13.6036175,23.1907208 C13.5423595,22.6665961 13.0942097,22.2613291 12.5525841,22.2613291 L4.17123432,22.260294 L4.89461553,9.73858777 L25.1402754,9.73858777 L25.4550976,13.8624981 L25.4717072,13.9802921 C25.4868025,14.0570625 25.5099264,14.1303757 25.5409845,14.2005956 L27.8828142,19.6371921 L27.8828142,22.2524067 L17.2386041,22.2526986 C16.6553002,22.2526986 16.1804357,22.7229651 16.1804357,23.3052579 C16.1804357,23.8875507 16.6553002,24.3578173 17.2386041,24.3578173 L28.9418481,24.3575634 C29.2214061,24.3575634 29.4899632,24.2473485 29.6882465,24.0509851 C29.8876109,23.853551 30,23.5851361 30,23.3050101 L30,19.4217151 L29.9894588,19.2801632 C29.9766122,19.1875516 29.9522059,19.0985201 29.9167099,19.0134733 L27.5560532,13.5335222 L27.1834079,8.60712717 C27.141711,8.05598477 26.6791146,7.63207802 26.1268461,7.63379112 Z" id="Path" fill="#000000" fill-rule="nonzero"></path>
    </g>
</svg>