<?xml version="1.0" encoding="UTF-8"?>
<svg width="32px" height="32px" viewBox="0 0 32 32" version="1.1" xmlns="http://www.w3.org/2000/svg" xmlns:xlink="http://www.w3.org/1999/xlink">
    <title>state-ok</title>
    <g id="state-ok" stroke="none" stroke-width="1" fill="none" fill-rule="evenodd">
        <path d="M19.1107113,8.5 L3.07829605,8.5 C2.48202744,8.5 2,8.98495727 2,9.58181213 L2,11.2725377 L2.00619184,11.3921303 C2.0610054,11.9031643 2.47329304,12.3136599 2.99752923,12.3531751 L10.67,12.924 L10.6707173,19.4671313 L10.6770386,19.5849028 C10.735528,20.1265069 11.1927485,20.5489434 11.7492487,20.5489434 L13.936,20.548 L18.0947829,22.7936105 L18.2035794,22.8464428 C18.4268483,22.9391116 18.6815488,22.9534127 18.9204219,22.8822755 L21.21,22.196 L22.8155151,22.8463288 L22.9362873,22.8874055 C23.0593183,22.9211855 23.1883782,22.9329451 23.316736,22.9215112 L26.867,22.594 L28.4357112,23.3850881 C28.5869629,23.4609511 28.7529349,23.5 28.9212595,23.5 C29.1472038,23.4977378 29.3619186,23.4275068 29.5416988,23.2990117 C29.8596289,23.077305 30.0345614,22.6944528 29.9943,22.3027444 L28.9097886,11.6847203 L28.9123765,9.58205607 C28.9123765,9.29573105 28.7991032,9.02113241 28.5973811,8.81818282 C28.3956493,8.61477557 28.1206772,8.50025008 27.8338512,8.50025008 L23.1829789,8.50025008 C22.5867287,8.50025008 22.1044476,8.98519 22.1044476,9.58206221 L22.110768,9.69986654 C22.1692497,10.2416176 22.6264145,10.664114 23.1829789,10.664114 L26.761,10.664 L26.7605505,11.8064418 C26.7609762,11.8161481 26.761583,11.8284856 26.7623922,11.8449357 L27.649,20.556 L27.5574342,20.5100211 L27.4466805,20.4620397 C27.2960084,20.4066048 27.1343123,20.3855141 26.9733226,20.4009572 L23.373,20.741 L21.6612932,20.0483348 L21.5221747,20.0027837 C21.3336987,19.9549648 21.1350406,19.9588977 20.9472818,20.0156398 L18.726,20.68 L14.720381,18.517909 L14.5988302,18.4626567 C14.4753268,18.4149821 14.346364,18.3900622 14.2155277,18.3880975 L12.842,18.388 L12.8424071,11.9330611 L12.8362168,11.8135191 C12.781411,11.3026883 12.3691526,10.8921944 11.8451484,10.8526656 L9.298,10.663 L19.1107113,10.6638639 C19.7070304,10.6638639 20.1892426,10.1788553 20.1892426,9.58181213 C20.1892426,8.98493992 19.7069615,8.5 19.1107113,8.5 Z" id="Path" fill="#000000" fill-rule="nonzero"></path>
    </g>
</svg>