<?xml version="1.0" encoding="UTF-8"?>
<svg width="32px" height="32px" viewBox="0 0 32 32" version="1.1" xmlns="http://www.w3.org/2000/svg" xmlns:xlink="http://www.w3.org/1999/xlink">
    <title>state-tn</title>
    <g id="state-tn" stroke="none" stroke-width="1" fill="none" fill-rule="evenodd">
        <path d="M16.7671433,12 C16.1919533,12 15.7147241,12.4499016 15.7147241,13.0195755 L15.7218895,13.139727 C15.7833909,13.6513908 16.232978,14.0393737 16.7671433,14.0393737 L26.1750554,14.0394207 L25.9812581,14.2106834 L24.1945405,14.9933459 L24.0914286,15.0457498 C24.0251154,15.0839692 23.9637165,15.1286814 23.9075804,15.1794428 L22.1740429,16.7492024 L20.7922982,17.3661867 L20.698582,17.4155824 C20.6397783,17.4495714 20.5877416,17.4859264 20.5389906,17.5261412 L19.6760861,18.281553 L8.94182866,18.7964618 L4.54412404,18.3930991 L5.96267506,14.8957342 L10.3330905,14.8965831 C10.606429,14.8965831 10.8701552,14.7937015 11.0673671,14.6077825 L11.1613053,14.5065217 C11.2477367,14.3997839 11.3112469,14.2774373 11.348226,14.1468808 L11.3664643,14.0574483 L12.553514,14.0583044 C13.1287041,14.0583044 13.6061695,13.6081801 13.6061695,13.0385062 C13.6061695,12.46881 13.1286924,12.0189307 12.553514,12.0189307 L10.3331268,12.0189307 L10.2115082,12.0256963 C9.77207119,12.0748698 9.40969651,12.3872204 9.30859748,12.8026487 L9.29891777,12.8541024 L5.23266318,12.8545426 C4.80218904,12.8545426 4.41109979,13.1088699 4.25212199,13.5032437 L2.07195115,18.9119563 C1.94952538,19.2164219 1.98491071,19.5585225 2.16604488,19.832594 C2.34140637,20.0985954 2.63343432,20.2692344 2.95508085,20.2982284 L8.86150339,20.8335667 L8.94174488,20.8347195 L9.01046199,20.8431706 L20.1584339,20.3022319 L20.3014663,20.2859656 C20.4897537,20.2516843 20.6666288,20.1676491 20.8114198,20.041273 L21.8202502,19.1851891 L23.2111336,18.5625232 L23.308243,18.5149365 C23.3729053,18.4782113 23.4365278,18.4318995 23.4937996,18.3784915 L25.2173362,16.8134259 L26.9970089,16.0327404 C27.0933742,15.9919856 27.1877,15.9333573 27.270822,15.8611822 L29.6162526,13.8043088 C29.9568093,13.5544418 30.0987689,13.072684 29.9267386,12.6466529 C29.7756165,12.2727518 29.4167733,12.0269246 29.0165632,12.0011596 L16.7671433,12 Z" id="Path" fill="#000000" fill-rule="nonzero"></path>
    </g>
</svg>