<?xml version="1.0" encoding="UTF-8"?>
<svg width="32px" height="32px" viewBox="0 0 32 32" version="1.1" xmlns="http://www.w3.org/2000/svg" xmlns:xlink="http://www.w3.org/1999/xlink">
    <title>state-mo</title>
    <g id="state-mo" stroke="none" stroke-width="1" fill="none" fill-rule="evenodd">
        <path d="M17.2906045,4.50707234 L3.06660864,4.50706516 C2.75738904,4.50037846 2.45080498,4.63609383 2.24497246,4.87813028 C2.03553238,5.12440883 1.95386638,5.45295539 2.02536443,5.76719485 L2.59989715,8.26768002 L2.63920053,8.39922644 C2.71914868,8.6128085 2.86978138,8.79603532 3.06817831,8.91822598 L4.6738103,9.9098768 L5.08163438,12.8370467 L5.07704305,25.0880148 L5.08417924,25.2093054 C5.14543854,25.7261638 5.59342498,26.1224101 6.13022116,26.1224101 L23.7464678,26.121692 L23.9221813,27.1386701 C24.0093371,27.6440201 24.4584357,28.0067408 24.9747137,27.9996483 L27.1504537,28 C27.4904823,27.9974973 27.8066839,27.8371408 28.0032365,27.5667399 L29.7977325,25.148712 L29.8769112,25.0245758 C30.039062,24.7250679 30.0425731,24.3622768 29.8781322,24.0562035 L28.4022379,21.3093023 L28.0274938,19.1276487 C27.9883197,18.9063962 27.8791868,18.7061669 27.7162617,18.5536843 L24.7243883,15.7540797 C24.307162,15.3642805 23.6488271,15.3756919 23.2457859,15.7793698 L23.1582626,15.8787807 C22.838231,16.2923862 22.8787236,16.8862375 23.2719739,17.2536054 L26.0281557,19.8129657 L26.3742952,21.8202278 L26.3993055,21.9278603 C26.4194605,21.9980594 26.4465417,22.0651454 26.4803276,22.1291107 L27.7284357,24.4507077 L26.6197044,25.9312696 L25.862522,25.9312696 L25.6873389,24.9152184 L25.6581866,24.7920022 C25.5249075,24.3520692 25.1082405,24.0478862 24.634962,24.0540003 L7.1808501,24.0529616 L7.18020069,12.624164 L6.69102663,9.143472 L6.66254565,9.0149446 C6.59028313,8.76397633 6.42787672,8.55162474 6.20519758,8.41564552 L4.55775407,7.39382291 L4.37183876,6.57241526 L16.8552069,6.57241526 L18.175769,7.84903373 L18.1758451,9.93243749 C18.1754,10.2059182 18.2857459,10.4681616 18.4816192,10.6618892 L21.8847799,14.00942 C22.0797436,14.2042461 22.3490977,14.3153564 22.6298293,14.3161869 L24.0121566,14.316189 C24.5902972,14.316189 25.0653347,13.8568183 25.0653347,13.2817937 L25.0581984,13.1605028 C24.9969375,12.6436594 24.5489402,12.2476271 24.0121566,12.2476271 L23.0602712,12.2467759 L20.2816824,9.49410255 L20.281971,7.41893075 C20.2824164,7.14051538 20.1677603,6.87367862 19.9655648,6.67938595 L18.025404,4.80543701 C17.8299945,4.6155824 17.5657935,4.50857947 17.2906045,4.50707234 Z" id="Path" fill="#000000" fill-rule="nonzero"></path>
    </g>
</svg>