<?xml version="1.0" encoding="UTF-8"?>
<svg width="32px" height="32px" viewBox="0 0 32 32" version="1.1" xmlns="http://www.w3.org/2000/svg" xmlns:xlink="http://www.w3.org/1999/xlink">
    <title>state-wa</title>
    <g id="state-wa" stroke="none" stroke-width="1" fill="none" fill-rule="evenodd">
        <path d="M28.9425883,7.07040541 L9.50483942,7.07040541 C9.12422211,7.07649402 8.78161631,7.27803163 8.59662717,7.60103969 L8.53568892,7.72610799 C8.41401609,8.02461301 8.43593203,8.36512488 8.60088933,8.64797733 L10.271649,11.4298389 L10.3505221,12.4642042 L10.2654256,12.5074946 C10.0751378,12.6182866 9.91956675,12.7883029 9.82813217,13.0006778 C9.64476583,13.4271879 9.76429582,13.9224902 10.1210657,14.2197381 L10.847186,14.8277217 C11.1726809,15.0993407 11.628801,15.1507708 12.0061672,14.9588245 C12.3844935,14.7663784 12.610379,14.3663739 12.5779237,13.9438784 L12.3675603,11.0276766 L12.3513422,10.9074491 C12.3285552,10.7889517 12.286229,10.6760587 12.2258671,10.5724975 L11.3736198,9.17068592 L27.818676,9.17068592 L27.0276908,21.3994077 L20.6442454,21.1655627 C20.6086525,21.1648392 20.5674428,21.1658732 20.5264912,21.1689752 L10.6502402,22.7222235 L8.48249587,18.7968928 L8.40354275,18.6774984 C8.17449209,18.3766593 7.80302833,18.2188432 7.42496455,18.2677812 L4.68404818,18.5960299 L5.35050654,14.947065 L5.36555825,14.8240679 C5.37333518,14.7006372 5.35929493,14.5765354 5.3235024,14.4574259 L4.5803863,11.996599 L6.43077582,12.3612054 C7.00767328,12.4518195 7.53750741,12.0858265 7.64857299,11.5324358 C7.75992065,10.9780456 7.41014694,10.4363641 6.8591965,10.3051469 L3.26127933,9.59785993 C2.90060042,9.52619084 2.52710917,9.64755963 2.27760338,9.91856146 L2.19124576,10.0254428 C2.00774063,10.2857462 1.95125332,10.6179624 2.04375204,10.9279703 L3.21588044,14.818005 L2.34313615,19.6142835 C2.28340198,19.9429671 2.38430908,20.2799223 2.61447296,20.5223356 L2.71835974,20.6181575 C2.93735088,20.7944629 3.22014837,20.8774841 3.50376752,20.8446545 L6.97475042,20.4461691 L9.15828733,24.3963892 C9.35417685,24.7329168 9.70660078,24.932508 10.0859276,24.9295636 L10.2101634,24.9223763 L20.7697149,23.2627293 L27.9857917,23.5339317 C28.5559357,23.555018 29.0409411,23.120801 29.0781417,22.5521707 L29.9980686,8.18601776 C30.0157037,7.89453814 29.9119581,7.61054523 29.7119744,7.39978427 C29.5114434,7.18894845 29.2334142,7.06997821 28.9425883,7.07040541 Z" id="Path" fill="#000000" fill-rule="nonzero"></path>
    </g>
</svg>