<svg xmlns="http://www.w3.org/2000/svg" width="32" height="32" viewBox="0 0 32 32">
  <g fill="none" fill-rule="evenodd">
    <g fill="#000" fill-rule="nonzero" transform="translate(2 2)">
      <path d="M5.5,0 C6.80733606,0 8.00813752,0.456128889 8.95194271,1.21792502 L7.52573531,2.6454677 C6.9540051,2.23900235 6.25491355,2 5.5,2 C3.56700338,2 2,3.56700338 2,5.5 C2,7.43299662 3.56700338,9 5.5,9 C6.74697233,9 7.84163603,8.34788923 8.46156972,7.36608906 L10.9628317,4.85715831 C10.9873798,5.06802961 11,5.282541 11,5.5 C11,8.53756612 8.53756612,11 5.5,11 C2.46243388,11 0,8.53756612 0,5.5 C0,2.46243388 2.46243388,0 5.5,0 Z"/>
      <path d="M10.2928932,1.29289322 C10.6834175,0.902368927 11.3165825,0.902368927 11.7071068,1.29289322 C12.0675907,1.65337718 12.0953203,2.22060824 11.7902954,2.61289944 L11.7071068,2.70710678 L6.70710678,7.70710678 C6.34662282,8.06759074 5.77939176,8.09532028 5.38710056,7.79029539 L5.29289322,7.70710678 L3.29289322,5.70710678 C2.90236893,5.31658249 2.90236893,4.68341751 3.29289322,4.29289322 C3.65337718,3.93240926 4.22060824,3.90467972 4.61289944,4.20970461 L4.70710678,4.29289322 L6,5.585 L10.2928932,1.29289322 Z"/>
    </g>
    <g fill="#000" fill-rule="nonzero" transform="translate(10 11)">
      <path d="M5.5,0 C6.80733606,0 8.00813752,0.456128889 8.95194271,1.21792502 L7.52573531,2.6454677 C6.9540051,2.23900235 6.25491355,2 5.5,2 C3.56700338,2 2,3.56700338 2,5.5 C2,7.43299662 3.56700338,9 5.5,9 C6.74697233,9 7.84163603,8.34788923 8.46156972,7.36608906 L10.9628317,4.85715831 C10.9873798,5.06802961 11,5.282541 11,5.5 C11,8.53756612 8.53756612,11 5.5,11 C2.46243388,11 0,8.53756612 0,5.5 C0,2.46243388 2.46243388,0 5.5,0 Z"/>
      <path d="M10.2928932,1.29289322 C10.6834175,0.902368927 11.3165825,0.902368927 11.7071068,1.29289322 C12.0675907,1.65337718 12.0953203,2.22060824 11.7902954,2.61289944 L11.7071068,2.70710678 L6.70710678,7.70710678 C6.34662282,8.06759074 5.77939176,8.09532028 5.38710056,7.79029539 L5.29289322,7.70710678 L3.29289322,5.70710678 C2.90236893,5.31658249 2.90236893,4.68341751 3.29289322,4.29289322 C3.65337718,3.93240926 4.22060824,3.90467972 4.61289944,4.20970461 L4.70710678,4.29289322 L6,5.585 L10.2928932,1.29289322 Z"/>
    </g>
    <path fill="#000" fill-rule="nonzero" d="M24.5,19 C27.5375661,19 30,21.4624339 30,24.5 C30,27.5375661 27.5375661,30 24.5,30 C21.4624339,30 19,27.5375661 19,24.5 C19,21.4624339 21.4624339,19 24.5,19 Z M24.5,21 C22.5670034,21 21,22.5670034 21,24.5 C21,26.4329966 22.5670034,28 24.5,28 C26.4329966,28 28,26.4329966 28,24.5 C28,22.5670034 26.4329966,21 24.5,21 Z"/>
  </g>
</svg>
