<?xml version="1.0" encoding="UTF-8"?>
<svg width="64px" height="64px" viewBox="0 0 64 64" version="1.1" xmlns="http://www.w3.org/2000/svg" xmlns:xlink="http://www.w3.org/1999/xlink">
    <title>sticky</title>
    <g id="sticky" stroke="none" stroke-width="1" fill="none" fill-rule="evenodd">
        <path d="M42.8,4.4 C43.5962406,3.80281955 44.7104297,3.88200253 45.4142136,4.58578644 L45.4142136,4.58578644 L59.4142136,18.5857864 C60.1179975,19.2895703 60.1971805,20.4037594 59.6,21.2 C57.2711921,24.3050772 53.8283525,25.3053858 49.6445433,24.2692367 L49.6445433,24.2692367 L49.577,24.251 L43.398,30.43 L43.4642621,30.586127 C46.2655565,37.3771244 45.0226176,44.2321632 39.8478939,50.8866202 L39.8478939,50.8866202 L39.5617376,51.2493901 C38.817087,52.1802034 37.4286737,52.2571008 36.5857864,51.4142136 L36.5857864,51.4142136 L29.3575325,44.185979 L7.14212898,59.6418104 C5.34993916,60.8885511 3.17891709,58.7821872 4.28159682,56.9752525 L4.3581896,56.857871 L19.8125325,34.640979 L12.5857864,27.4142136 C11.7446613,26.5730884 11.825065,25.2005666 12.7252509,24.4586839 L12.8530753,24.3615362 C19.5294234,19.6880925 26.3533498,18.3974496 33.1453416,20.5683322 L33.1453416,20.5683322 L33.488,20.682 L39.748,14.422 L39.7307633,14.3554567 C38.7205179,10.2762428 39.6461801,6.90141301 42.5710646,4.57674357 L42.5710646,4.57674357 Z M22.6865325,37.514979 L14.004,49.995 L26.4845325,41.312979 L22.6865325,37.514979 Z M44.014,8.842 L43.9287809,8.97934975 C43.1431048,10.304977 43.1213801,12.0395849 43.8973666,14.3675445 C44.1369231,15.0862139 43.9498781,15.878549 43.4142136,16.4142136 L43.4142136,16.4142136 L35.4142136,24.4142136 C34.8484884,24.9799387 34.0000522,25.1540868 33.2572186,24.8569534 C27.9785479,22.7454851 22.7410889,23.1756016 17.392685,26.2140306 L17.392685,26.2140306 L17.171,26.342 L37.771,46.942 L37.9125475,46.7318658 C41.3772561,41.4818782 41.831687,36.3881435 39.3720973,31.2241419 L39.3720973,31.2241419 L39.2111456,30.8944272 C38.826157,30.1244499 38.9770659,29.194507 39.5857864,28.5857864 L39.5857864,28.5857864 L47.5857864,20.5857864 C48.121451,20.0501219 48.9137861,19.8630769 49.6324555,20.1026334 C51.9604151,20.8786199 53.695023,20.8568952 55.0206502,20.0712191 L55.0206502,20.0712191 L55.157,19.985 L44.014,8.842 Z" id="Combined-Shape" fill="#000000" fill-rule="nonzero"></path>
    </g>
</svg>