<?xml version="1.0" encoding="UTF-8"?>
<svg width="64px" height="64px" viewBox="0 0 64 64" version="1.1" xmlns="http://www.w3.org/2000/svg" xmlns:xlink="http://www.w3.org/1999/xlink">
    <title>stop_time</title>
    <g id="stop_time" stroke="none" stroke-width="1" fill="none" fill-rule="evenodd">
        <path d="M32,4 C47.463973,4 60,16.536027 60,32 C60,47.463973 47.463973,60 32,60 C16.536027,60 4,47.463973 4,32 C4,16.536027 16.536027,4 32,4 Z M32,8 C28.3415874,8 24.8743594,8.81855886 21.7714751,10.2825176 L23.2320508,12.8134665 C23.7843356,13.7700518 23.4565852,14.9932326 22.5,15.5455173 C21.5434148,16.0978021 20.3202339,15.7700518 19.7679492,14.8134665 L18.3081491,12.286162 C15.9610196,13.9193761 13.9193761,15.9610196 12.286162,18.3081491 L14.8134665,19.7679492 C15.7700518,20.3202339 16.0978021,21.5434148 15.5455173,22.5 C14.9932326,23.4565852 13.7700518,23.7843356 12.8134665,23.2320508 L10.2825176,21.7714751 C9.08800089,24.3032727 8.3231746,27.0776407 8.08210526,30.0005127 L11,30 C12.1045695,30 13,30.8954305 13,32 C13,33.1045695 12.1045695,34 11,34 L8.08218805,34.0004908 C8.32334966,36.9229943 9.08813759,39.6970171 10.2825176,42.2285249 L12.8134665,40.7679492 C13.7700518,40.2156644 14.9932326,40.5434148 15.5455173,41.5 C16.0978021,42.4565852 15.7700518,43.6797661 14.8134665,44.2320508 L12.286162,45.6918509 C13.9193761,48.0389804 15.9610196,50.0806239 18.3081491,51.713838 L19.7679492,49.1865335 C20.3202339,48.2299482 21.5434148,47.9021979 22.5,48.4544827 C23.4565852,49.0067674 23.7843356,50.2299482 23.2320508,51.1865335 L21.7714751,53.7174824 C24.3032727,54.9119991 27.0776407,55.6768254 30.0005127,55.9178947 L30,53 C30,51.8954305 30.8954305,51 32,51 C33.1045695,51 34,51.8954305 34,53 L34.0004908,55.917812 C36.9229943,55.6766503 39.6970171,54.9118624 42.2285249,53.7174824 L40.7679492,51.1865335 C40.2156644,50.2299482 40.5434148,49.0067674 41.5,48.4544827 C42.4565852,47.9021979 43.6797661,48.2299482 44.2320508,49.1865335 L45.6918509,51.713838 C48.0389804,50.0806239 50.0806239,48.0389804 51.713838,45.6918509 L49.1865335,44.2320508 C48.2299482,43.6797661 47.9021979,42.4565852 48.4544827,41.5 C49.0067674,40.5434148 50.2299482,40.2156644 51.1865335,40.7679492 L53.7174824,42.2285249 C54.9118624,39.6970171 55.6766503,36.9229943 55.917812,34.0004908 L32,34 C30.8954305,34 30,33.1045695 30,32 C30,30.8954305 30.8954305,30 32,30 L55.9178947,30.0005127 C54.901837,17.6812076 44.5815021,8 32,8 Z M32,13 C39.1652016,13 45.5489177,17.0011976 48.7813627,23.0790483 L49.5114631,21.6452839 C50.0127901,20.6610354 51.2170869,20.2695502 52.2013354,20.7708772 C53.1363714,21.2471378 53.5364386,22.3578288 53.1442825,23.3115772 L53.0757421,23.4607495 L50.3056693,28.8991957 C49.9205513,29.6552926 49.1043928,30.0805667 48.2743528,29.975932 L48.1082833,29.9478806 L42.3834627,28.7327965 C41.302963,28.5034622 40.6129572,27.4416319 40.8422916,26.3611322 C41.0607052,25.3320849 42.0342172,24.657227 43.0598136,24.7933959 L43.2139558,24.8199611 L45.4205031,25.2885228 C42.9279309,20.3058706 37.7862576,17 32,17 C30.8954305,17 30,16.1045695 30,15 C30,13.8954305 30.8954305,13 32,13 Z" id="Combined-Shape" fill="#000000" fill-rule="nonzero"></path>
    </g>
</svg>