<?xml version="1.0" encoding="UTF-8"?>
<svg width="64px" height="64px" viewBox="0 0 64 64" version="1.1" xmlns="http://www.w3.org/2000/svg" xmlns:xlink="http://www.w3.org/1999/xlink">
    <title>store_material</title>
    <g id="store_material" stroke="none" stroke-width="1" fill="none" fill-rule="evenodd">
        <g id="Flash-Light" transform="translate(5.889575, 5.959999)" fill="#000000" fill-rule="nonzero">
            <polygon id="Path-181" points="16.0945566 10.8927489 19.5304691 3.33066907e-16 33.1104252 13.6000023 22.2460148 17.0515671"></polygon>
            <polygon id="Path-180" points="8.8817842e-16 27.0355319 0.679269801 26.3650146 6.78514611 32.4639938 6.10689338 33.1395625"></polygon>
            <polygon id="Path-179" points="14.3492621 16.7360474 12.3361274 14.7098227 15.6741387 11.3766407 21.8029711 17.4474352 18.4801237 20.775915 16.467582 18.7433784 17.0924663 18.0917636 17.2069289 17.8322954 17.2505195 17.4474352 17.1623639 17.0950243 16.9728356 16.7995906 16.6725725 16.4717075 16.259838 16.0762778 15.9523311 15.9448069 15.6045377 15.8921931 15.2857624 15.9448069 15.0226934 16.0762778"></polygon>
            <ellipse id="Oval-47" transform="translate(14.860425, 18.290001) rotate(-45.000000) translate(-14.860425, -18.290001) " cx="14.8604252" cy="18.2900009" rx="1.75" ry="1.25"></ellipse>
            <polygon id="Path-178" points="7.23982922 31.9922825 1.11042519 25.8925606 12.3437512 14.7080665 14.3682835 16.7230453 10.9871853 20.1347603 10.8624511 20.3969612 10.7842053 20.6527218 10.7842053 20.9419423 10.8624511 21.189338 11.0887493 21.4690831 11.4507376 21.821448 11.7378695 22.1346572 11.9915596 22.3146848 12.2300858 22.3672472 12.4850088 22.3672472 12.7329147 22.3146848 13.002328 22.1346572 16.4675518 18.7399843 18.4955723 20.7768631"></polygon>
        </g>
        <g id="Rodenticide-(Block-Form)" transform="translate(39.413086, 43.500000) scale(-1, 1) translate(-39.413086, -43.500000) translate(20.826173, 28.000000)" fill="#000000" fill-rule="nonzero">
            <path d="M0.0255976163,10 L2.63769215,10.8678741 L3.1246157,13.3014812 L5.37739554,11.3439904 L9.18897542,12.643484 L10.430365,15.5754559 L11.6946976,13.8178302 L14,14.4771252 L14,17.3868281 L12.0339135,18.2356263 L14,20.4675789 L13.8375025,24.6700569 L12.0339135,25.9927259 L13.8375025,28.3022981 L13.8375025,31 L10.430365,29.8313213 L9.77506603,27.2328904 L8.71911695,29.2378445 L4.75357215,27.7913259 L3.5379698,24.6700569 L2.13882305,26.7614091 L0,25.8054684 L0,22.5582971 L1.7531523,22.1133418 L0.298638857,20.4675788 L0.298638857,15.5754559 L1.54059728,14.1884519 L0.0255976163,12.0290566 L0.0255976163,10 Z M7.15576624,18.3535429 C6.29790163,18.3535429 5.60246496,19.3735453 5.60246496,20.6317819 C5.60246496,21.8900186 6.29790163,22.9100209 7.15576624,22.9100209 C8.01363084,22.9100209 8.70906752,21.8900186 8.70906752,20.6317819 C8.70906752,19.3735453 8.01363084,18.3535429 7.15576624,18.3535429 Z" id="Path-9"></path>
            <polygon id="Path-10" points="0 9.14188463 23.3354055 0 26 0.776603368 2.71350366 10"></polygon>
            <polygon id="Path-11" points="6 10.978818 28.028684 2 32.4634279 2.49396719 9.6905212 12.1262095"></polygon>
            <polygon id="Path-12" points="12 13.3935672 35.2188423 3.10615676 37.1428209 3.89011868 14.2548478 14"></polygon>
            <polygon id="Path-13" points="14.5594591 14.3130419 37.1738272 4.28968993 37.1738272 7.560843 14.5594591 17.2896899"></polygon>
            <polygon id="Path-14" points="14.5857924 20.2133027 37 10 37 14.2839931 14.3856319 24.3770579"></polygon>
            <polygon id="Path-15" points="14 28.4779759 14 31 37 20.4942315 37 18"></polygon>
        </g>
    </g>
</svg>