<?xml version="1.0" encoding="UTF-8"?>
<svg width="64px" height="64px" viewBox="0 0 64 64" version="1.1" xmlns="http://www.w3.org/2000/svg" xmlns:xlink="http://www.w3.org/1999/xlink">
    <title>store_order_returned</title>
    <g id="store_order_returned" stroke="none" stroke-width="1" fill="none" fill-rule="evenodd">
        <g id="Circles" transform="translate(31.564070, 36.541078)" fill="#000000" fill-rule="nonzero">
            <path d="M10,0 C4.4771525,0 0,4.4771525 0,10 C0,15.5228475 4.4771525,20 10,20 C15.5228475,20 20,15.5228475 20,10 C20,4.4771525 15.5228475,0 10,0 Z M10,2 C14.418278,2 18,5.581722 18,10 C18,14.418278 14.418278,18 10,18 C5.581722,18 2,14.418278 2,10 C2,5.581722 5.581722,2 10,2 Z" id="Oval-31"></path>
            <g id="Back-Arrow" transform="translate(3.829266, 5.486179)">
                <polygon id="Triangle" transform="translate(2.420000, 7.391663) rotate(-90.000000) translate(-2.420000, -7.391663) " points="2.42000008 4.97166266 4.75999999 9.81166281 0.080000162 9.81166281"></polygon>
                <polygon id="Path-169" points="11.5860212 -4.40619763e-16 11.5860212 8.42630849 4.33250034 8.42630849 4.33250034 6.42630849 9.58566361 6.42574303 9.58602124 -4.40619763e-16"></polygon>
            </g>
        </g>
        <path d="M43.6943136,7.75614318 L30.3140695,7.75614318 L30.3140695,29.3011644 L48.6049884,29.3011644 L43.6943136,7.75614318 Z M41.7,10.256 L45.471,26.801 L32.814,26.801 L32.814,10.256 L41.7,10.256 Z" id="Path-167" fill="#000000" fill-rule="nonzero"></path>
        <path d="M32.8539779,7.75 L19.0561527,7.75 L14.7502817,29.2998275 L32.8116146,29.2998275 L32.8539779,7.75 Z M30.349,10.25 L30.316,26.799 L17.799,26.799 L21.105,10.25 L30.349,10.25 Z" id="Path-165" fill="#000000" fill-rule="nonzero"></path>
        <path d="M17.25,29.2921893 L17.25,50.783 L31.6772339,50.7836601 L31.6772339,53.2836601 L14.75,53.2836601 L14.75,29.2921893 L17.25,29.2921893 Z M48.6044679,29.2921893 L48.6044679,36.5410784 L46.1044679,36.5410784 L46.1044679,29.2921893 L48.6044679,29.2921893 Z" id="Path-166" fill="#000000" fill-rule="nonzero"></path>
        <polygon id="Line-12" fill="#000000" fill-rule="nonzero" points="36.0640695 34.5410784 36.0640695 36.5410784 27.0640695 36.5410784 27.0640695 34.5410784"></polygon>
    </g>
</svg>