<?xml version="1.0" encoding="UTF-8"?>
<svg width="64px" height="64px" viewBox="0 0 64 64" version="1.1" xmlns="http://www.w3.org/2000/svg" xmlns:xlink="http://www.w3.org/1999/xlink">
    <title>stores</title>
    <g id="stores" stroke="none" stroke-width="1" fill="none" fill-rule="evenodd">
        <rect id="Rectangle-60" fill="#000000" fill-rule="nonzero" x="10" y="51" width="44" height="3"></rect>
        <path d="M47,30 L47,49 L36,49 L36,30 L47,30 Z M39,40 C38.4477153,40 38,40.4477153 38,41 C38,41.5522847 38.4477153,42 39,42 C39.5522847,42 40,41.5522847 40,41 C40,40.4477153 39.5522847,40 39,40 Z" id="door" fill="#000000" fill-rule="nonzero"></path>
        <path d="M32,30 L32,43 L18,43 L18,30 L32,30 Z M30,32 L20,32 L20,41 L30,41 L30,32 Z" id="Rectangle-62" fill="#000000" fill-rule="nonzero"></path>
        <rect id="Rectangle-63" fill="#000000" fill-rule="nonzero" x="17" y="43" width="16" height="2"></rect>
        <path d="M45.5,9 L18.5,9 L9,21.6666667 L9,26.4142136 L9.29289322,26.7071068 C9.46074077,26.8749543 9.72703795,27.1032091 10.0702998,27.3320503 C10.6882692,27.7440299 11.3281945,28 12,28 L12.222768,27.9906567 C12.8137401,27.9411917 13.380394,27.6982544 13.9297002,27.3320503 L14,27.283 L14.0702998,27.3320503 C14.6882692,27.7440299 15.3281945,28 16,28 L16.222768,27.9906567 C16.8137401,27.9411917 17.380394,27.6982544 17.9297002,27.3320503 L18,27.283 L18.0702998,27.3320503 C18.6882692,27.7440299 19.3281945,28 20,28 L20.222768,27.9906567 C20.8137401,27.9411917 21.380394,27.6982544 21.9297002,27.3320503 L22,27.283 L22.0702998,27.3320503 C22.6882692,27.7440299 23.3281945,28 24,28 L24.222768,27.9906567 C24.8137401,27.9411917 25.380394,27.6982544 25.9297002,27.3320503 L26,27.283 L26.0702998,27.3320503 C26.6882692,27.7440299 27.3281945,28 28,28 L28.222768,27.9906567 C28.8137401,27.9411917 29.380394,27.6982544 29.9297002,27.3320503 L30,27.283 L30.0702998,27.3320503 C30.6882692,27.7440299 31.3281945,28 32,28 L32.222768,27.9906567 C32.8137401,27.9411917 33.380394,27.6982544 33.9297002,27.3320503 L34,27.283 L34.0702998,27.3320503 C34.6882692,27.7440299 35.3281945,28 36,28 L36.222768,27.9906567 C36.8137401,27.9411917 37.380394,27.6982544 37.9297002,27.3320503 L38,27.283 L38.0702998,27.3320503 C38.6882692,27.7440299 39.3281945,28 40,28 L40.222768,27.9906567 C40.8137401,27.9411917 41.380394,27.6982544 41.9297002,27.3320503 L42,27.283 L42.0702998,27.3320503 C42.6882692,27.7440299 43.3281945,28 44,28 L44.222768,27.9906567 C44.8137401,27.9411917 45.380394,27.6982544 45.9297002,27.3320503 L46,27.283 L46.0702998,27.3320503 C46.6882692,27.7440299 47.3281945,28 48,28 L48.222768,27.9906567 C48.8137401,27.9411917 49.380394,27.6982544 49.9297002,27.3320503 L50,27.283 L50.0702998,27.3320503 C50.6882692,27.7440299 51.3281945,28 52,28 C52.6718055,28 53.3117308,27.7440299 53.9297002,27.3320503 C54.2729621,27.1032091 54.5392592,26.8749543 54.7071068,26.7071068 L55,26.4142136 L55,21.6666667 L45.5,9 Z M45,10 L54,22 L54,26 L53.8628258,26.1262003 C53.5555556,26.3950617 52.7777778,27 52,27 C51,27 50,26 50,26 L49.8628258,26.1262003 C49.5555556,26.3950617 48.7777778,27 48,27 C47,27 46,26 46,26 L45.8628258,26.1262003 C45.5555556,26.3950617 44.7777778,27 44,27 C43,27 42,26 42,26 L41.8628258,26.1262003 C41.5555556,26.3950617 40.7777778,27 40,27 C39,27 38,26 38,26 L37.8628258,26.1262003 C37.5555556,26.3950617 36.7777778,27 36,27 C35,27 34,26 34,26 L33.8628258,26.1262003 C33.5555556,26.3950617 32.7777778,27 32,27 C31,27 30,26 30,26 L29.8628258,26.1262003 C29.5555556,26.3950617 28.7777778,27 28,27 C27,27 26,26 26,26 L25.8628258,26.1262003 C25.5555556,26.3950617 24.7777778,27 24,27 C23,27 22,26 22,26 L21.8628258,26.1262003 C21.5555556,26.3950617 20.7777778,27 20,27 C19,27 18,26 18,26 L17.8628258,26.1262003 C17.5555556,26.3950617 16.7777778,27 16,27 C15,27 14,26 14,26 L13.8628258,26.1262003 C13.5555556,26.3950617 12.7777778,27 12,27 C11,27 10,26 10,26 L10,22 L19,10 L45,10 Z" id="Path-584" fill="#000000" fill-rule="nonzero"></path>
        <path d="M14,26 L14,22 L21,10 L19,10 L10,22 L10,26 C10,26 11,27 12,27 C13,27 14,26 14,26 Z" id="Path-585" fill="#000000" fill-rule="nonzero"></path>
        <path d="M18,26 C18,26 19,27 20,27 C21,27 22,26 22,26 L22,22 L26,10 L23.5,10 L18,22 L18,26 Z" id="Path-586" fill="#000000" fill-rule="nonzero"></path>
        <path d="M26,26 L26,22 L28.5,10 L31,10 L30,22 L30,26 C30,26 29,27 28,27 C27,27 26,26 26,26 Z" id="Path-587" fill="#000000" fill-rule="nonzero"></path>
        <path d="M47,26 L47,22 L54,10 L52,10 L43,22 L43,26 C43,26 44,27 45,27 C46,27 47,26 47,26 Z" id="Path-585-Copy" fill="#000000" fill-rule="nonzero" transform="translate(48.500000, 18.500000) scale(-1, 1) translate(-48.500000, -18.500000) "></path>
        <path d="M38,26 C38,26 39,27 40,27 C41,27 42,26 42,26 L42,22 L46,10 L43.5,10 L38,22 L38,26 Z" id="Path-586-Copy" fill="#000000" fill-rule="nonzero" transform="translate(42.000000, 18.500000) scale(-1, 1) translate(-42.000000, -18.500000) "></path>
        <path d="M33,26 L33,22 L35.5,10 L38,10 L37,22 L37,26 C37,26 36,27 35,27 C34,27 33,26 33,26 Z" id="Path-587-Copy" fill="#000000" fill-rule="nonzero" transform="translate(35.500000, 18.500000) scale(-1, 1) translate(-35.500000, -18.500000) "></path>
        <rect id="Rectangle-181" fill="#000000" fill-rule="nonzero" x="49" y="27" width="2" height="24"></rect>
        <rect id="Rectangle-181-Copy" fill="#000000" fill-rule="nonzero" x="13" y="27" width="2" height="24"></rect>
    </g>
</svg>