<?xml version="1.0" encoding="UTF-8"?>
<svg width="64px" height="64px" viewBox="0 0 64 64" version="1.1" xmlns="http://www.w3.org/2000/svg" xmlns:xlink="http://www.w3.org/1999/xlink">
    <title>store_order_complete</title>
    <g id="store_order_complete" stroke="none" stroke-width="1" fill="none" fill-rule="evenodd">
        <polygon id="Line-12" fill="#000000" fill-rule="nonzero" points="36.5 34 36.5 36 27.5 36 27.5 34"></polygon>
        <path d="M17.6859305,28.751111 L17.685,50.242 L32.1131644,50.2425817 L32.1131644,52.7425817 L15.1859305,52.7425817 L15.1859305,28.751111 L17.6859305,28.751111 Z M49.0403984,28.751111 L49.0403984,36 L46.5403984,36 L46.5403984,28.751111 L49.0403984,28.751111 Z" id="Path-166" fill="#000000" fill-rule="nonzero"></path>
        <path d="M33.2899084,7.20892162 L19.4920832,7.20892162 L15.1862121,28.7587492 L33.2475451,28.7587492 L33.2899084,7.20892162 Z M30.785,9.708 L30.752,26.258 L18.235,26.258 L21.541,9.708 L30.785,9.708 Z" id="Path-165" fill="#000000" fill-rule="nonzero"></path>
        <path d="M44.1302441,7.2150648 L30.75,7.2150648 L30.75,28.7600861 L49.0409189,28.7600861 L44.1302441,7.2150648 Z M42.136,9.715 L45.907,26.26 L33.25,26.26 L33.25,9.715 L42.136,9.715 Z" id="Path-167" fill="#000000" fill-rule="nonzero"></path>
        <g id="Circles" transform="translate(32.000000, 36.000000)" fill="#000000" fill-rule="nonzero">
            <path d="M10,0 C4.4771525,0 0,4.4771525 0,10 C0,15.5228475 4.4771525,20 10,20 C15.5228475,20 20,15.5228475 20,10 C20,4.4771525 15.5228475,0 10,0 Z M10,2 C14.418278,2 18,5.581722 18,10 C18,14.418278 14.418278,18 10,18 C5.581722,18 2,14.418278 2,10 C2,5.581722 5.581722,2 10,2 Z" id="Oval-31"></path>
            <polygon id="Path-168" points="14.3402979 4.85094151 15.9763036 6.00136984 9.30815029 15.4840438 4.52803744 11.2002041 5.86282019 9.7107898 8.966 12.492"></polygon>
        </g>
    </g>
</svg>