<?xml version="1.0" encoding="UTF-8"?>
<svg width="64px" height="64px" viewBox="0 0 64 64" version="1.1" xmlns="http://www.w3.org/2000/svg" xmlns:xlink="http://www.w3.org/1999/xlink">
    <title>styling</title>
    <g id="styling" stroke="none" stroke-width="1" fill="none" fill-rule="evenodd">
        <path d="M32,6 C16.5702013,6 4,17.6032684 4,32 C4,37.2167542 5.12667859,40.3918762 7.63355283,41.87076 C9.46686351,42.9522876 11.1116765,42.9548455 14.4057791,42.3321742 L15.7895864,42.0612027 C18.5515234,41.5279695 19.7788107,41.6072378 20.5857864,42.4142136 C21.9330778,43.761505 22.2582119,45.1317124 22.1258906,47.9969719 L22.0624876,49.0959556 C21.6862739,55.326195 23.8508231,58 32,58 C47.4298048,58 60,46.3967429 60,32 C60,17.6032571 47.4298048,6 32,6 Z M32,10 C45.2890022,10 56,19.8870749 56,32 C56,44.1129251 45.2890022,54 32,54 L31.0977654,53.99389 L30.2873473,53.9736129 L29.5641468,53.9362475 C26.7261281,53.7409011 26.039644,53.024483 26.0076991,50.8361584 L26.011833,50.2822131 L26.0551009,49.3389283 L26.0905099,48.7615535 L26.1405592,47.6868675 C26.2520073,44.0627762 25.6638185,41.8353914 23.4142136,39.5857864 C21.3403426,37.5119154 19.0262153,37.3624501 15.0236468,38.1352282 L13.739568,38.3869453 L12.9207404,38.5330575 C11.1450474,38.8266321 10.2819907,38.7889878 9.66597299,38.4255796 C8.67057648,37.8383639 8,35.9485951 8,32 C8,19.8870857 18.7110044,10 32,10 Z" id="Oval" fill="#000000" fill-rule="nonzero"></path>
        <circle id="Oval" fill="#000000" cx="34" cy="20" r="4"></circle>
        <circle id="Oval-Copy" fill="#000000" cx="18" cy="28" r="4"></circle>
        <circle id="Oval-Copy-2" fill="#000000" cx="46" cy="32" r="4"></circle>
        <circle id="Oval-Copy-3" fill="#000000" cx="38" cy="46" r="4"></circle>
    </g>
</svg>