<?xml version="1.0" encoding="UTF-8"?>
<svg width="32px" height="32px" viewBox="0 0 32 32" version="1.1" xmlns="http://www.w3.org/2000/svg" xmlns:xlink="http://www.w3.org/1999/xlink">
    <title>subscription</title>
    <g id="subscription" stroke="none" stroke-width="1" fill="none" fill-rule="evenodd">
        <path d="M16,8.5 C16.5522847,8.5 17,8.94771525 17,9.5 L17,10.632 L17.162,10.665 C17.5609333,10.753 17.9457867,10.88324 18.31656,11.05572 L18.592,11.193 C19.0466667,11.435 19.428,11.754 19.736,12.15 C19.8973333,12.37 19.9926667,12.634 20.022,12.942 C20.0513333,13.25 19.912,13.5286667 19.604,13.778 C19.384,13.954 19.1273333,14.031 18.834,14.009 C18.5406667,13.987 18.2986667,13.888 18.108,13.712 C17.8586667,13.3893333 17.525,13.1326667 17.107,12.942 C17.0724922,12.9262596 17.0375596,12.9111689 17.0022022,12.896728 L17.000018,15.6839512 C17.2497182,15.7604192 17.5017122,15.8437688 17.756,15.934 C18.2106667,16.0953333 18.6286667,16.308 19.01,16.572 C19.3913333,16.836 19.6993333,17.177 19.934,17.595 C20.1686667,18.013 20.286,18.5446667 20.286,19.19 C20.286,19.938 20.066,20.576 19.626,21.104 C19.186,21.632 18.636,22.0316667 17.976,22.303 C17.6543193,22.4352465 17.3291545,22.5352649 17.0005056,22.6030551 L17,23.5 C17,24.0522847 16.5522847,24.5 16,24.5 C15.4477153,24.5 15,24.0522847 15,23.5 L15.0003666,22.6493953 C14.4522444,22.579581 13.9041222,22.4494492 13.356,22.259 C12.4906667,21.9583333 11.772,21.4266667 11.2,20.664 C11.0533333,20.4586667 10.9873333,20.1946667 11.002,19.872 C11.0166667,19.5493333 11.2073333,19.2706667 11.574,19.036 C11.8086667,18.8893333 12.058,18.827 12.322,18.849 C12.586,18.871 12.8426667,19.0066667 13.092,19.256 C13.5173333,19.6813333 13.9646667,20.0113333 14.434,20.246 C14.6068366,20.3324183 14.7955854,20.4029244 15.0002464,20.4575183 L15.0010742,17.5189229 C14.7100648,17.4290802 14.4147067,17.3334392 14.115,17.232 C13.6383333,17.0706667 13.202,16.8616667 12.806,16.605 C12.41,16.3483333 12.0873333,16.0073333 11.838,15.582 C11.5886667,15.1566667 11.464,14.6213333 11.464,13.976 C11.464,13.2426667 11.6693333,12.6193333 12.08,12.106 C12.4906667,11.5926667 13.0223333,11.1966667 13.675,10.918 C14.1023934,10.7355174 14.5439378,10.6127834 14.9996332,10.5497981 L15,9.5 C15,8.94771525 15.4477153,8.5 16,8.5 Z M17.0025153,18.166595 L17.0016953,20.4807416 C17.231926,20.4224193 17.4356942,20.311172 17.613,20.147 C17.811,19.9636667 17.91,19.6813333 17.91,19.3 C17.91,18.9773333 17.8,18.7206667 17.58,18.53 C17.4229895,18.3939242 17.2304946,18.2727892 17.0025153,18.166595 Z M15,12.723 L14.951,12.733 C14.6943333,12.7843333 14.4706667,12.8943333 14.28,13.063 C14.0893333,13.2316667 13.994,13.4993333 13.994,13.866 C13.994,14.2033333 14.104,14.471 14.324,14.669 C14.544,14.867 14.841,15.0283333 15.215,15.153 L15,15.073 L15,12.723 Z" id="s-2" fill="#000000" fill-rule="nonzero"></path>
        <g id="Group" transform="translate(15.990754, 16.062500) rotate(21.000000) translate(-15.990754, -16.062500) translate(4.000000, 4.000000)" fill="#000000" fill-rule="nonzero">
            <path d="M12,0 C15.5784463,0 18.8884172,1.57933007 21.1362256,4.21876094 L21.285403,2.06329516 C21.320965,1.5547357 21.7308675,1.1616709 22.2270477,1.13450992 L22.3527235,1.13548758 C22.861283,1.17104952 23.2543478,1.58095202 23.2815088,2.07713229 L23.2805311,2.20280811 L22.9352542,7.14049824 C22.8996922,7.6490577 22.4897897,8.0421225 21.9936095,8.06928348 L21.8679337,8.06830582 L16.9302435,7.72302889 C16.3793041,7.68450345 15.9639105,7.20664777 16.0024359,6.65570836 C16.0379979,6.14714891 16.4479004,5.7540841 16.9440807,5.72692312 L17.0697565,5.72790079 L19.9459704,5.92728207 C18.0747938,3.48031882 15.1643273,2 12,2 C6.4771525,2 2,6.4771525 2,12 C2,13.5 0,13.5 0,12 C0,5.372583 5.372583,0 12,0 Z" id="Combined-Shape"></path>
            <path d="M12.7,11 C16.2784463,11 19.5884172,12.5793301 21.8362256,15.2187609 L21.985403,13.0632952 C22.020965,12.5547357 22.4308675,12.1616709 22.9270477,12.1345099 L23.0527235,12.1354876 C23.561283,12.1710495 23.9543478,12.580952 23.9815088,13.0771323 L23.9805311,13.2028081 L23.6352542,18.1404982 C23.5996922,18.6490577 23.1897897,19.0421225 22.6936095,19.0692835 L22.5679337,19.0683058 L17.6302435,18.7230289 C17.0793041,18.6845034 16.6639105,18.2066478 16.7024359,17.6557084 C16.7379979,17.1471489 17.1479004,16.7540841 17.6440807,16.7269231 L17.7697565,16.7279008 L20.6459704,16.9272821 C18.7747938,14.4803188 15.8643273,13 12.7,13 C7.1771525,13 2.7,17.4771525 2.7,23 C2.7,24.5 0.7,24.5 0.7,23 C0.7,16.372583 6.072583,11 12.7,11 Z" id="Combined-Shape-Copy" transform="translate(12.340754, 17.562500) rotate(180.000000) translate(-12.340754, -17.562500) "></path>
        </g>
    </g>
</svg>