<?xml version="1.0" encoding="UTF-8"?>
<svg width="64px" height="64px" viewBox="0 0 64 64" version="1.1" xmlns="http://www.w3.org/2000/svg" xmlns:xlink="http://www.w3.org/1999/xlink">
    <title>supplemental</title>
    <g id="supplemental" stroke="none" stroke-width="1" fill="none" fill-rule="evenodd">
        <path d="M56,16 C58.209139,16 60,17.790861 60,20 L60,52 C60,54.209139 58.209139,56 56,56 L8,56 C5.790861,56 4,54.209139 4,52 L4,20 C4,17.790861 5.790861,16 8,16 L56,16 Z M56,20 L8,20 L8,52 L56,52 L56,20 Z M32,24 C33.1045695,24 34,24.8954305 34,26 L34,46 C34,47.1045695 33.1045695,48 32,48 C30.8954305,48 30,47.1045695 30,46 L30,26 C30,24.8954305 30.8954305,24 32,24 Z M22,34 L42,34 C43.1045695,34 44,34.8954305 44,36 C44,37.1045695 43.1045695,38 42,38 L22,38 C20.8954305,38 20,37.1045695 20,36 C20,34.8954305 20.8954305,34 22,34 Z M38,8 C44,8 45.8924318,12.4564551 45.9966701,16.7250797 L46,17 L42,17 C42,14.8431318 41,12 38,12 L26,12 C23,12 22.0488432,14.9334414 22,17 L18,17 C18,12.6545535 20,8 26,8 L38,8 Z" id="Rectangle" fill="#000000" fill-rule="nonzero"></path>
    </g>
</svg>