<?xml version="1.0" encoding="UTF-8"?>
<svg width="64px" height="64px" viewBox="0 0 64 64" version="1.1" xmlns="http://www.w3.org/2000/svg" xmlns:xlink="http://www.w3.org/1999/xlink">
    <title>support</title>
    <g id="support" stroke="none" stroke-width="1" fill="none" fill-rule="evenodd">
        <path d="M32,5 C36.1516814,5 39.6425645,5.3490883 42.4850713,6.059715 C43.650468,6.35106419 44.2979197,7.59676416 43.8666912,8.71795816 L43.8666912,8.71795816 L43.8207356,8.83629645 C48.6914539,11.3268634 52.6731366,15.3085461 55.1637036,20.1792644 L55.2820418,20.1333088 C56.4032358,19.7020803 57.6489358,20.349532 57.940285,21.5149287 C58.6509117,24.3574355 59,27.8483186 59,32 C59,36.1516814 58.6509117,39.6425645 57.940285,42.4850713 C57.6489358,43.650468 56.4032358,44.2979197 55.2820418,43.8666912 L55.2820418,43.8666912 L55.1637036,43.8207356 C52.6731366,48.6914539 48.6914539,52.6731366 43.8207356,55.1637036 L43.8666912,55.2820418 C44.2979197,56.4032358 43.650468,57.6489358 42.4850713,57.940285 C39.6425645,58.6509117 36.1516814,59 32,59 C27.8483186,59 24.3574355,58.6509117 21.5149287,57.940285 C20.349532,57.6489358 19.7020803,56.4032358 20.1333088,55.2820418 L20.1792644,55.1637036 C15.3085461,52.6731366 11.3268634,48.6914539 8.83629645,43.8207356 L8.71795816,43.8666912 C7.59676416,44.2979197 6.35106419,43.650468 6.059715,42.4850713 C5.3490883,39.6425645 5,36.1516814 5,32 C5,27.8483186 5.3490883,24.3574355 6.059715,21.5149287 C6.35106419,20.349532 7.59676416,19.7020803 8.71795816,20.1333088 L8.83629645,20.1792644 C11.3268634,15.3085461 15.3085461,11.3268634 20.1792644,8.83629645 L20.1333088,8.71795816 C19.7020803,7.59676416 20.349532,6.35106419 21.5149287,6.059715 C24.3574355,5.3490883 27.8483186,5 32,5 Z M35.626,45 L28.372,45 L24.716,54.506 L24.9784779,54.5474948 C26.9938981,54.8477879 29.3357795,55 32,55 L32.8761294,54.9943682 C35.1806082,54.9643469 37.2300374,54.814422 39.0215221,54.5474948 L39.282,54.506 L35.626,45 Z M18.2570236,40.1981091 L12.595504,42.3757103 C14.6464192,46.2032816 17.7967184,49.3535808 21.6242897,51.404496 L23.8018909,45.7429764 C21.5265427,44.3827369 19.6172631,42.4734573 18.2570236,40.1981091 Z M40.1981091,45.7429764 L42.3757103,51.404496 C46.2032816,49.3535808 49.3535808,46.2032816 51.404496,42.3757103 L45.7429764,40.1981091 C44.3827369,42.4734573 42.4734573,44.3827369 40.1981091,45.7429764 Z M38.703169,22.0452628 L38.6379243,22.147886 C38.269371,22.673819 37.6620348,23 37,23 L37,23 L27,23 C26.2966902,23 25.6551121,22.6318792 25.2959716,22.0472184 C24.0153641,22.9098543 22.9098543,24.0153641 22.0452628,25.296831 C22.6318792,25.6551121 23,26.2966902 23,27 L23,37 C23,37.7033098 22.6318792,38.3448879 22.0472184,38.7040284 C22.9098543,39.9846359 24.0153641,41.0901457 25.296831,41.9547372 C25.6551121,41.3681208 26.2966902,41 27,41 L37,41 C37.7033098,41 38.3448879,41.3681208 38.7040284,41.9527816 C39.9846359,41.0901457 41.0901457,39.9846359 41.9547372,38.703169 C41.3681208,38.3448879 41,37.7033098 41,37 L41,37 L41,27 C41,26.2966902 41.3681208,25.6551121 41.9527816,25.2959716 C41.0901457,24.0153641 39.9846359,22.9098543 38.703169,22.0452628 Z M54.506,24.716 L45,28.372 L45,35.626 L54.506,39.282 L54.5474948,39.0215221 C54.814422,37.2300374 54.9643469,35.1806082 54.9943682,32.8761294 L54.9943682,32.8761294 L55,32 C55,29.3357795 54.8477879,26.9938981 54.5474948,24.9784779 L54.5474948,24.9784779 L54.506,24.716 Z M9.494,24.716 L9.45250521,24.9784779 C9.15221212,26.9938981 9,29.3357795 9,32 L9.00563182,32.8761294 C9.03565307,35.1806082 9.18557802,37.2300374 9.45250521,39.0215221 L9.494,39.282 L19,35.626 L19,28.372 L9.494,24.716 Z M12.595504,21.6242897 L18.2570236,23.8018909 C19.6172631,21.5265427 21.5265427,19.6172631 23.8018909,18.2570236 L21.6242897,12.595504 C17.7967184,14.6464192 14.6464192,17.7967184 12.595504,21.6242897 Z M42.3757103,12.595504 L40.1981091,18.2570236 C42.4734573,19.6172631 44.3827369,21.5265427 45.7429764,23.8018909 L51.404496,21.6242897 C49.3535808,17.7967184 46.2032816,14.6464192 42.3757103,12.595504 Z M32,9 C29.3357795,9 26.9938981,9.15221212 24.9784779,9.45250521 L24.9784779,9.45250521 L24.716,9.494 L28.372,19 L35.626,19 L39.282,9.494 L39.0215221,9.45250521 C37.2300374,9.18557802 35.1806082,9.03565307 32.8761294,9.00563182 L32.8761294,9.00563182 Z" id="Oval" fill="#000000" fill-rule="nonzero"></path>
    </g>
</svg>