<?xml version="1.0" encoding="UTF-8"?>
<svg width="64px" height="64px" viewBox="0 0 64 64" version="1.1" xmlns="http://www.w3.org/2000/svg" xmlns:xlink="http://www.w3.org/1999/xlink">
    <title>sure_tax</title>
    <g id="sure_tax" stroke="none" fill="none" fill-rule="evenodd">
        <path d="M38.000652,4.64450143 C43.2275276,5.78578762 47.9086675,8.38700509 51.5952817,11.9993638 L38,12 L38,26 L52,26 L52.0006362,12.4047183 C55.6132255,16.0915679 58.2145445,20.7730701 59.3557171,26.0003489 L52,26 L52,38 L59.3554986,38.000652 C58.2143159,43.2270533 55.613467,47.9078179 52.0016196,51.594278 L52,38 L38,38 L38,52 L51.594278,52.0016196 C47.9078179,55.613467 43.2270533,58.2143159 38.000652,59.3554986 L38,52 L26,52 L26.0003489,59.3557171 C20.7735444,58.214648 16.0924174,55.6136976 12.405722,52.0016196 L26,52 L26,38 L12,38 L11.9993638,51.5952817 C8.38700509,47.9086675 5.78578762,43.2275276 4.64450143,38.000652 L12,38 L12,26 L4.6442829,26.0003489 C5.78555908,20.7725958 8.38724658,16.0907183 12.0003472,12.4037148 L12,26 L26,26 L26,12 L12.4047183,11.9993638 C16.0915679,8.3867745 20.7730701,5.78545554 26.0003489,4.6442829 L26,12 L38,12 Z M26,26 L26,38 L38,38 L38,26 L26,26 Z" id="Oval-2" fill="#000000"></path>
    </g>
</svg>