<?xml version="1.0" encoding="UTF-8"?>
<svg width="64px" height="64px" viewBox="0 0 64 64" version="1.1" xmlns="http://www.w3.org/2000/svg" xmlns:xlink="http://www.w3.org/1999/xlink">
    <title>sync_down</title>
    <g id="sync_down" stroke="none" stroke-width="1" fill="none" fill-rule="evenodd">
        <path d="M31,6 C37.0842824,6 42.4220323,9.19628573 45.4257278,14.0013353 L45.5,14 C53.5081289,14 60,20.7157288 60,29 C60,37.1108771 53.7770414,43.7181854 46.0008047,43.991221 L35,44 L35,40 L45.661,40 L45.860445,39.9936843 C51.3813003,39.7998386 55.8488599,35.123251 55.996245,29.2972136 L56,29 C56,22.9935591 51.4194886,18.1582209 45.846755,18.0031893 L45.5719019,17.9993537 L43.2339843,18.0413857 L42.0339058,16.1216049 C39.6705274,12.3408787 35.5389441,10 31,10 C24.198075,10 18.5737144,15.2402208 18.0410591,21.9533118 L18.0201047,22.2641788 L17.8280528,25.7243993 L14.3757616,26.02721 C10.7836973,26.3422806 8,29.3654481 8,33 C8,36.5477617 10.652619,39.5138566 14.1214266,39.945814 L14.3591794,39.9713159 L14.681,40 L29,40 L29,44 L14,44 L14.000274,43.9551817 C8.39364311,43.4500817 4,38.738136 4,33 C4,27.2530046 8.40722066,22.5353708 14.0262516,22.0425089 C14.522612,13.0995259 21.9322144,6 31,6 Z" id="Path" fill="#000000" fill-rule="nonzero"></path>
        <path d="M33.2869988,24.4689537 L33.4142136,24.5857864 L41.4142136,32.5857864 C42.1952621,33.366835 42.1952621,34.633165 41.4142136,35.4142136 C40.6742728,36.1541543 39.4987886,36.1930986 38.7130012,35.5310463 L38.5857864,35.4142136 L34,30.829 L34,56 C34,57.1045695 33.1045695,58 32,58 C30.8954305,58 30,57.1045695 30,56 L30,30.829 L25.4142136,35.4142136 C24.6742728,36.1541543 23.4987886,36.1930986 22.7130012,35.5310463 L22.5857864,35.4142136 C21.8458457,34.6742728 21.8069014,33.4987886 22.4689537,32.7130012 L22.5857864,32.5857864 L30.5857864,24.5857864 C31.3257272,23.8458457 32.5012114,23.8069014 33.2869988,24.4689537 Z" id="Combined-Shape-Copy" fill="#000000" transform="translate(32, 41) scale(1, -1) translate(-32, -41)"></path>
    </g>
</svg>