<?xml version="1.0" encoding="UTF-8"?>
<svg width="64px" height="64px" viewBox="0 0 64 64" version="1.1" xmlns="http://www.w3.org/2000/svg" xmlns:xlink="http://www.w3.org/1999/xlink">
    <title>sync</title>
    <g id="sync" stroke="none" stroke-width="1" fill="none" fill-rule="evenodd">
        <path d="M39,40 L39,44 L25,44 L25,40 L39,40 Z M31,6 C37.0842824,6 42.4220323,9.19628573 45.4257278,14.0013353 L45.5,14 C53.5081289,14 60,20.7157288 60,29 C60,37.1108771 53.7770414,43.7181854 46.0008047,43.991221 L45,44 L45,40 L45.661,40 L45.860445,39.9936843 C51.3813003,39.7998386 55.8488599,35.123251 55.996245,29.2972136 L56,29 C56,22.9935591 51.4194886,18.1582209 45.846755,18.0031893 L45.5719019,17.9993537 L43.2339843,18.0413857 L42.0339058,16.1216049 C39.6705274,12.3408787 35.5389441,10 31,10 C24.198075,10 18.5737144,15.2402208 18.0410591,21.9533118 L18.0201047,22.2641788 L17.8280528,25.7243993 L14.3757616,26.02721 C10.7836973,26.3422806 8,29.3654481 8,33 C8,36.5477617 10.652619,39.5138566 14.1214266,39.945814 L14.3591794,39.9713159 L14.681,40 L19,40 L19,44 L14,44 L14.000274,43.9551817 C8.39364311,43.4500817 4,38.738136 4,33 C4,27.2530046 8.40722066,22.5353708 14.0262516,22.0425089 C14.522612,13.0995259 21.9322144,6 31,6 Z" id="Path" fill="#000000" fill-rule="nonzero"></path>
        <path d="M43.2869988,24.4689537 L43.4142136,24.5857864 L51.4142136,32.5857864 C52.1952621,33.366835 52.1952621,34.633165 51.4142136,35.4142136 C50.6742728,36.1541543 49.4987886,36.1930986 48.7130012,35.5310463 L48.5857864,35.4142136 L44,30.829 L44,56 C44,57.1045695 43.1045695,58 42,58 C40.8954305,58 40,57.1045695 40,56 L40,30.829 L35.4142136,35.4142136 C34.6742728,36.1541543 33.4987886,36.1930986 32.7130012,35.5310463 L32.5857864,35.4142136 C31.8458457,34.6742728 31.8069014,33.4987886 32.4689537,32.7130012 L32.5857864,32.5857864 L40.5857864,24.5857864 C41.3257272,23.8458457 42.5012114,23.8069014 43.2869988,24.4689537 Z" id="Combined-Shape" fill="#000000"></path>
        <path d="M23.2869988,24.4689537 L23.4142136,24.5857864 L31.4142136,32.5857864 C32.1952621,33.366835 32.1952621,34.633165 31.4142136,35.4142136 C30.6742728,36.1541543 29.4987886,36.1930986 28.7130012,35.5310463 L28.5857864,35.4142136 L24,30.829 L24,56 C24,57.1045695 23.1045695,58 22,58 C20.8954305,58 20,57.1045695 20,56 L20,30.829 L15.4142136,35.4142136 C14.6742728,36.1541543 13.4987886,36.1930986 12.7130012,35.5310463 L12.5857864,35.4142136 C11.8458457,34.6742728 11.8069014,33.4987886 12.4689537,32.7130012 L12.5857864,32.5857864 L20.5857864,24.5857864 C21.3257272,23.8458457 22.5012114,23.8069014 23.2869988,24.4689537 Z" id="Combined-Shape-Copy" fill="#000000" transform="translate(22, 41) scale(1, -1) translate(-22, -41)"></path>
    </g>
</svg>