<?xml version="1.0" encoding="UTF-8"?>
<svg width="64px" height="64px" viewBox="0 0 64 64" version="1.1" xmlns="http://www.w3.org/2000/svg" xmlns:xlink="http://www.w3.org/1999/xlink">
    <title>tablets</title>
    <g id="tablets" stroke="none" stroke-width="1" fill="none" fill-rule="evenodd">
        <path d="M36.6666667,4 C38.4276508,4 39.8696934,5.32353406 39.9916464,7.00025867 L27,7 L26.7649696,7.00679026 C25.8428603,7.0602185 25.0045499,7.42600454 24.3542713,7.9999155 L8,8 L8,48 L23,48 L23.0010775,50.2681881 C22.7066607,50.0976323 22.364732,50 22,50 C20.8954305,50 20,50.8954305 20,52 C20,53.1045695 20.8954305,54 22,54 C22.364732,54 22.7066607,53.9023677 23.0010775,53.7318119 L23,56 L7.33333333,56 C5.49238422,56 4,54.5535353 4,52.7692308 L4,7.23076923 C4,5.44646465 5.49238422,4 7.33333333,4 L36.6666667,4 Z" id="Rectangle" fill="#000000" fill-rule="nonzero"></path>
        <path d="M56.6666667,8 C58.5076158,8 60,9.44646465 60,11.2307692 L60,56.7692308 C60,58.5535353 58.5076158,60 56.6666667,60 L27.3333333,60 C25.4923842,60 24,58.5535353 24,56.7692308 L24,11.2307692 C24,9.44646465 25.4923842,8 27.3333333,8 L56.6666667,8 Z M42,54 C40.8954305,54 40,54.8954305 40,56 C40,57.1045695 40.8954305,58 42,58 C43.1045695,58 44,57.1045695 44,56 C44,54.8954305 43.1045695,54 42,54 Z M56,12 L28,12 L28,52 L56,52 L56,12 Z" id="Rectangle-Copy" fill="#000000" fill-rule="nonzero"></path>
    </g>
</svg>