<?xml version="1.0" encoding="UTF-8"?>
<svg width="32px" height="32px" viewBox="0 0 32 32" version="1.1" xmlns="http://www.w3.org/2000/svg" xmlns:xlink="http://www.w3.org/1999/xlink">
    <title>table</title>
    <g id="table" stroke="none" stroke-width="1" fill="none" fill-rule="evenodd">
        <path d="M26,4 C27.1045695,4 28,4.8954305 28,6 L28,26 C28,27.1045695 27.1045695,28 26,28 L6,28 C4.8954305,28 4,27.1045695 4,26 L4,6 C4,4.8954305 4.8954305,4 6,4 L26,4 Z M11,24 L6,24 L6,26 L11,26 L11,24 Z M19,24 L13,24 L13,26 L19,26 L19,24 Z M26,24 L21,24 L21,26 L26,26 L26,24 Z M11,20 L6,20 L6,22 L11,22 L11,20 Z M19,20 L13,20 L13,22 L19,22 L19,20 Z M26,20 L21,20 L21,22 L26,22 L26,20 Z M11,16 L6,16 L6,18 L11,18 L11,16 Z M19,16 L13,16 L13,18 L19,18 L19,16 Z M26,16 L21,16 L21,18 L26,18 L26,16 Z M11,12 L6,12 L6,14 L11,14 L11,12 Z M19,12 L13,12 L13,14 L19,14 L19,12 Z M26,12 L21,12 L21,14 L26,14 L26,12 Z M11,6 L6,6 L6,10 L11,10 L11,6 Z M19,6 L13,6 L13,10 L19,10 L19,6 Z M26,6 L21,6 L21,10 L26,10 L26,6 Z" id="Rectangle" fill="#090909" fill-rule="nonzero"></path>
    </g>
</svg>