<?xml version="1.0" encoding="UTF-8"?>
<svg width="64px" height="64px" viewBox="0 0 64 64" version="1.1" xmlns="http://www.w3.org/2000/svg" xmlns:xlink="http://www.w3.org/1999/xlink">
    <title>table</title>
    <g id="table" stroke="none" stroke-width="1" fill="none" fill-rule="evenodd">
        <path d="M57,4 C58.6568542,4 60,5.34314575 60,7 L60,57.6666667 C60,58.9553311 58.9553311,60 57.6666667,60 L6.33333333,60 C5.04466892,60 4,58.9553311 4,57.6666667 L4,6.33333333 C4,5.04466892 5.04466892,4 6.33333333,4 L57,4 Z M22,51 L8,51 L8,56 L22,56 L22,51 Z M40,51 L24,51 L24,56 L40,56 L40,51 Z M56,51 L42,51 L42,56 L56,56 L56,51 Z M22,42 L8,42 L8,49 L22,49 L22,42 Z M40,42 L24,42 L24,49 L40,49 L40,42 Z M56,42 L42,42 L42,49 L56,49 L56,42 Z M22,33 L8,33 L8,40 L22,40 L22,33 Z M40,33 L24,33 L24,40 L40,40 L40,33 Z M56,33 L42,33 L42,40 L56,40 L56,33 Z M22,24 L8,24 L8,31 L22,31 L22,24 Z M40,24 L24,24 L24,31 L40,31 L40,24 Z M56,24 L42,24 L42,31 L56,31 L56,24 Z M22,15 L8,15 L8,22 L22,22 L22,15 Z M40,15 L24,15 L24,22 L40,22 L40,15 Z M56,15 L42,15 L42,22 L56,22 L56,15 Z M22,8 L8,8 L8,13 L22,13 L22,8 Z M40,8 L24,8 L24,13 L40,13 L40,8 Z M56,8 L42,8 L42,13 L56,13 L56,8 Z" id="Rectangle" fill="#000000" fill-rule="nonzero"></path>
    </g>
</svg>