<?xml version="1.0" encoding="UTF-8"?>
<svg width="64px" height="64px" viewBox="0 0 64 64" version="1.1" xmlns="http://www.w3.org/2000/svg" xmlns:xlink="http://www.w3.org/1999/xlink">
    <title>tactacam</title>
    <g id="tactacam" stroke="none" stroke-width="1" fill="none" fill-rule="evenodd">
        <path d="M61,13 L37.251,31.696 L53,44 L43,44 L32.27,35.617 L14,50 L3,50 L27,31.5 L11,19 L21,19 L32.034,27.62 L51,13 L61,13 Z" id="Combined-Shape" fill="#000000"></path>
        <path d="M37.9009561,41.2848949 L41.190329,43.8557556 C38.8981253,45.6352008 36.0760672,46.7645563 33.0008365,46.9671404 L33,52 L31,52 L31.0001649,46.9672063 C28.0627238,46.7738949 25.3562404,45.7350046 23.121834,44.0916545 L26.4289533,41.4869419 C28.0628591,42.4484976 29.9670244,43 32,43 C34.1713819,43 36.1958174,42.3708481 37.9009561,41.2848949 Z M46.9672063,31.0001649 L52,31 L52,33 L46.9671404,33.0008365 C46.8682092,34.502614 46.5482596,35.9440144 46.0395145,37.2928148 L42.6749947,34.6648842 C42.8873099,33.8116196 43,32.9189699 43,32 C43,30.8917778 42.8361159,29.8218328 42.5312609,28.8130781 L45.8404741,26.2070435 C46.4651616,27.6977786 46.8560285,29.3107752 46.9672063,31.0001649 Z M18.270452,25.9491708 L21.5617872,28.5201472 C21.1973557,29.6138167 21,30.7838609 21,32 C21,32.9027782 21.108754,33.7801555 21.3138755,34.6197455 L17.9350957,37.2250018 C17.4410906,35.8957404 17.1301347,34.4774748 17.0328596,33.0008365 L12,33 L12,31 L17.0327937,31.0001649 C17.150413,29.2128945 17.5810697,27.5111258 18.270452,25.9491708 Z M33,12 L33.0008365,17.0328596 C35.8304108,17.2192608 38.445645,18.1902821 40.6310075,19.7303921 L37.2536033,22.3332703 C35.6925364,21.4830763 33.9026825,21 32,21 C30.1321622,21 28.3730582,21.4655447 26.8323918,22.2869304 L23.4692855,19.6603206 C25.6344395,18.1606649 28.2133638,17.2161915 31.0001649,17.0327937 L31,12 L33,12 Z" id="Oval" fill="#000000" fill-rule="nonzero"></path>
    </g>
</svg>