<svg xmlns="http://www.w3.org/2000/svg" width="32" height="32" viewBox="0 0 32 32">
  <g fill="none" fill-rule="evenodd">
    <path fill="#000" fill-rule="nonzero" d="M25,2 L19,2 C18.7347835,2 18.4804296,2.10535684 18.2928932,2.29289322 L2.29289322,18.2928932 C1.90236893,18.6834175 1.90236893,19.3165825 2.29289322,19.7071068 L12.2928932,29.7071068 C12.6834175,30.0976311 13.3165825,30.0976311 13.7071068,29.7071068 L29.7071068,13.7071068 C29.8946432,13.5195704 30,13.2652165 30,13 L30,7 C30,6.73478351 29.8946432,6.4804296 29.7071068,6.29289322 L25.7071068,2.29289322 C25.5195704,2.10535684 25.2652165,2 25,2 Z M24.585,4 L28,7.415 L28,12.584 L13,27.585 L4.415,19 L19.414,4 L24.585,4 Z"/>
    <circle cx="24" cy="8" r="2" fill="#000"/>
  </g>
</svg>
