<?xml version="1.0" encoding="UTF-8"?>
<svg width="64px" height="64px" viewBox="0 0 64 64" version="1.1" xmlns="http://www.w3.org/2000/svg" xmlns:xlink="http://www.w3.org/1999/xlink">
    <title>tag_manager</title>
    <g id="tag_manager" stroke="none" stroke-width="1" fill="none" fill-rule="evenodd">
        <g id="tag" transform="translate(20.000000, 20.000000)" fill="#000000">
            <path d="M33.6,0 C33.9713031,0 34.3292995,0.129062129 34.6140126,0.362343217 L34.7313708,0.46862915 L39.5313708,5.26862915 C39.7939218,5.53118008 39.9558028,5.87558249 39.9921707,6.24185966 L40,6.4 L40,17.6 C40,17.9713031 39.8709379,18.3292995 39.6376568,18.6140126 L39.5313708,18.7313708 L18.7313708,39.5313708 C18.1432872,40.1194545 17.2113087,40.1540476 16.5827668,39.6351503 L16.4686292,39.5313708 L0.46862915,23.5313708 C-0.119454489,22.9432872 -0.154047644,22.0113087 0.364849684,21.3827668 L0.46862915,21.2686292 L21.2686292,0.46862915 C21.5311801,0.20607822 21.8755825,0.0441972246 22.2418597,0.00782933396 L22.4,0 L33.6,0 Z M32.605,4 L23.394,4 L4.995,22.4 L17.6,35.005 L36,16.604 L36,7.395 L32.605,4 Z" id="Path" fill-rule="nonzero"></path>
            <circle id="Oval" cx="30" cy="10" r="3"></circle>
        </g>
        <path d="M49,4 C50.6568542,4 52,5.34314575 52,7 L52,19.001 L48,19.003 L48,15 L36,15 L36,22 L38.323,22 L36.324,24 L36,24 L36,24.324 L34,26.325 L34,24 L22,24 L22,31 L29.327,31 L27.328,33 L22,33 L22,38.331 L19.6279822,40.7054354 C19.3022559,41.0840679 19.1030107,41.5341555 19.0307864,42.0001531 L8,42 L8,48 L20,48 L20,44.477 L22,46.476 L22,48 L23.525,48 L27.528,52 L6,52 C4.8954305,52 4,51.1045695 4,50 L4,6 C4,4.8954305 4.8954305,4 6,4 L49,4 Z M20,33 L8,33 L8,40 L20,40 L20,33 Z M20,24 L8,24 L8,31 L20,31 L20,24 Z M20,15 L8,15 L8,22 L20,22 L20,15 Z M34,15 L22,15 L22,22 L34,22 L34,15 Z M20,8 L8,8 L8,13 L20,13 L20,8 Z M34,8 L22,8 L22,13 L34,13 L34,8 Z M48,8 L36,8 L36,13 L48,13 L48,8 Z" id="Rectangle" fill="#000000" fill-rule="nonzero"></path>
    </g>
</svg>