<?xml version="1.0" encoding="UTF-8"?>
<svg width="64px" height="64px" viewBox="0 0 64 64" version="1.1" xmlns="http://www.w3.org/2000/svg" xmlns:xlink="http://www.w3.org/1999/xlink">
    <title>tags</title>
    <g id="tags" stroke="none" stroke-width="1" fill="none" fill-rule="evenodd">
        <path d="M52,10 L38,10 C37.469567,10 36.9608592,10.2107137 36.5857864,10.5857864 L10.5857864,36.5857864 C9.80473785,37.366835 9.80473785,38.633165 10.5857864,39.4142136 L30.5857864,59.4142136 C31.366835,60.1952621 32.633165,60.1952621 33.4142136,59.4142136 L59.4142136,33.4142136 C59.7892863,33.0391408 60,32.530433 60,32 L60,18 C60,17.469567 59.7892863,16.9608592 59.4142136,16.5857864 L53.4142136,10.5857864 C53.0391408,10.2107137 52.530433,10 52,10 Z M51.171,14 L56,18.829 L56,31.17 L32,55.171 L14.829,38 L38.828,14 L51.171,14 Z" id="Path-4" fill="#000000" fill-rule="nonzero"></path>
        <path d="M32.828,8 L8.829,32 L10.585,33.757 L9.17157288,35.1715729 L8.99826328,35.3560116 C8.57797997,35.8322425 8.29040569,36.3845855 8.13554042,36.9649741 L4.58578644,33.4142136 C3.80473785,32.633165 3.80473785,31.366835 4.58578644,30.5857864 L4.58578644,30.5857864 L30.5857864,4.58578644 C30.9608592,4.21071368 31.469567,4 32,4 L32,4 L46,4 C46.530433,4 47.0391408,4.21071368 47.4142136,4.58578644 L47.4142136,4.58578644 L50.829,8 L32.828,8 Z" id="Path-4-Copy" fill="#000000" fill-rule="nonzero"></path>
        <circle id="Oval" fill="#000000" cx="47" cy="23" r="4"></circle>
    </g>
</svg>