<svg xmlns="http://www.w3.org/2000/svg" width="32" height="32" viewBox="0 0 32 32">
  <g fill="none" fill-rule="evenodd">
    <path fill="#979797" fill-rule="nonzero" d="M25.999999,6 C26.2652165,6 26.5195704,6.10535684 26.7071068,6.29289322 L26.7071068,6.29289322 L29.7071068,9.29289322 C29.8946432,9.4804296 29.999999,9.73478351 29.999999,10 L29.999999,10 L29.999999,15 C29.999999,15.2524114 29.9045471,15.4954857 29.7327935,15.6804511 L29.7327935,15.6804511 L16.7327935,29.6804511 C16.3471151,30.095797 15.69368,30.1078935 15.2928932,29.7071068 L15.2928932,29.7071068 L7.29289322,21.7071068 C6.912553,21.3267666 6.90120391,20.7137055 7.26720651,20.3195489 L7.26720651,20.3195489 L20.2672065,6.3195489 C20.4564187,6.11578189 20.7219312,6 20.999999,6 L20.999999,6 Z M25.585,8 L21.435,8 L9.388,20.973 L15.973,27.558 L28,14.607 L28,10.415 L25.585,8 Z M24.5,10 C25.3284271,10 26,10.6715729 26,11.5 C26,12.3284271 25.3284271,13 24.5,13 C23.6715729,13 23,12.3284271 23,11.5 C23,10.6715729 23.6715729,10 24.5,10 Z"/>
    <path fill="#979797" fill-rule="nonzero" d="M20.999999,2 C21.2652165,2 21.5195704,2.10535684 21.7071068,2.29289322 L21.7071068,2.29289322 L24.414999,5 L21.584999,5 L20.585,4 L16.435,4 L4.388,16.973 L6.78499903,19.369 L6.53441302,19.6390978 L6.41939728,19.7743823 C6.131308,20.1451249 5.99211243,20.592436 6.00034261,21.037018 C6.00306286,21.1839619 6.02188856,21.3306076 6.05676669,21.474092 L2.29289322,17.7071068 C1.912553,17.3267666 1.90120391,16.7137055 2.26720651,16.3195489 L2.26720651,16.3195489 L15.2672065,2.3195489 C15.4564187,2.11578189 15.7219312,2 15.999999,2 L15.999999,2 Z"/>
  </g>
</svg>
