<?xml version="1.0" encoding="UTF-8"?>
<svg width="64px" height="64px" viewBox="0 0 64 64" version="1.1" xmlns="http://www.w3.org/2000/svg" xmlns:xlink="http://www.w3.org/1999/xlink">
    <title>tasklet</title>
    <g id="tasklet" stroke="none" fill="none" transform="translate(0, -0)" fill-rule="evenodd" stroke-width="1">
        <g id="g1" transform="translate(7, 4)" fill="#000000">
            <path d="M18.8691756,34.252076 C18.4631921,34.0568676 18.2022599,33.8530888 17.9193411,33.5102794 C17.1591538,32.5891783 17.2228958,33.5710777 17.172949,22.0126339 C17.1163415,8.91293011 18.2275673,10.611729 9.71533948,10.611729 C1.18761058,10.611729 1.86688335,11.0852078 1.86918462,5.14265681 C1.87094562,0.606977678 1.93542097,0.376854316 3.28144719,0.102326494 C4.02445098,-0.0492106953 44.5364364,-0.0252953899 45.0685288,0.126994422 C46.3640482,0.497785399 46.365571,0.503725903 46.3711601,5.21255436 C46.3762847,9.54899955 46.3687243,9.5982615 45.6091426,10.1492185 C45.0147725,10.580358 45.2212802,10.5670137 38.4509371,10.611729 C29.7999499,10.6688593 30.8568843,9.5716754 30.7978956,18.5562238 C30.7501144,25.8338148 30.7800554,25.4142294 30.2526377,26.1978767 C30.0060849,26.5642064 24.474092,31.7363552 22.6857533,33.2725484 C21.2462754,34.5090639 20.044914,34.8173956 18.8691756,34.252076 L18.8691756,34.252076 Z" id="Path"></path>
            <path d="M20.0618358,55.8323913 C19.5301867,55.6469757 18.6839622,55.0291668 18.0940205,54.3957293 C14.757247,50.8129432 8.2237425,42.3876978 1.21375186,32.6278728 C-0.246750823,30.5944533 -0.349891819,29.925532 0.693142177,29.2514975 C1.54518729,28.7008841 2.29939331,28.9823805 4.35161557,30.6169594 C19.9398066,43.0328414 19.8404548,43.0125607 28.1903196,35.482876 C35.3531173,29.0236618 39.5345047,25.2364933 41.7687296,23.1846448 C42.7247268,22.3066823 46.0565541,19.3386844 47.8704599,17.7492164 C50.0929768,15.8016949 50.8101361,15.415235 51.7534151,15.6567859 C52.7964013,15.9238718 53.2982972,16.9711053 52.8150468,17.8719394 C52.4935925,18.4711702 46.0692258,27.2527678 43.1072157,31.1417723 C34.2198677,42.8105214 29.0432354,49.1704672 24.9245037,53.4808186 C22.7722644,55.7331858 21.5174129,56.3400331 20.0618358,55.8323913 L20.0618358,55.8323913 Z" id="Path"></path>
        </g>
    </g>
</svg>