<?xml version="1.0" encoding="UTF-8"?>
<svg width="64px" height="64px" viewBox="0 0 64 64" version="1.1" xmlns="http://www.w3.org/2000/svg" xmlns:xlink="http://www.w3.org/1999/xlink">
    <title>task_runs</title>
    <g id="task_runs" stroke="none" stroke-width="1" fill="none" fill-rule="evenodd">
        <path d="M19,11 L19,15 L18,15 C16.9456382,15 16.0818349,15.8158778 16.0054857,16.8507377 L16,17 L16,54 C16,55.0543618 16.8158778,55.9181651 17.8507377,55.9945143 L18,56 L46,56 C47.0543618,56 47.9181651,55.1841222 47.9945143,54.1492623 L48,54 L48,17 C48,15.9456382 47.1841222,15.0818349 46.1492623,15.0054857 L46,15 L45,15 L45,11 L46,11 C49.2383969,11 51.8775718,13.5655749 51.9958615,16.7750617 L52,17 L52,54 C52,57.2383969 49.4344251,59.8775718 46.2249383,59.9958615 L46,60 L18,60 C14.7616031,60 12.1224282,57.4344251 12.0041385,54.2249383 L12,54 L12,17 C12,13.7616031 14.5655749,11.1224282 17.7750617,11.0041385 L18,11 L19,11 Z M32,4 C34.963829,4 37.0330253,5.3866802 37.735469,7.90524888 L37.735469,7.90524888 L37.76,8 L39,8 C41.1421954,8 42.8910789,9.68396847 42.9951047,11.8003597 L42.9951047,11.8003597 L43,12 L43,15 C43,17.209139 41.209139,19 39,19 L39,19 L25,19 C22.790861,19 21,17.209139 21,15 L21,15 L21,12 C21,9.790861 22.790861,8 25,8 L25,8 L26.239,8 L26.2645206,7.90528649 C26.945668,5.46301662 28.9120034,4.08508155 31.7330372,4.00381301 L31.7330372,4.00381301 Z M32,8 C30.6056662,8 30.1729885,8.34309099 30.0364954,9.38854796 L30.0364954,9.38854796 L30.007958,9.56596746 C29.7391369,10.9701091 28.5081567,12 27.061759,12 L27.061759,12 L25,12 L25,15 L39,15 L39,12 L36.9380147,12 C35.4314048,11.9998666 34.1585421,10.8823511 33.9634841,9.38839093 L33.9634841,9.38839093 L33.9429748,9.25016844 C33.7856835,8.31260686 33.3309483,8 32,8 Z" id="Combined-Shape" fill="#000000" fill-rule="nonzero"></path>
        <path d="M36.3825278,21.8236566 C37.0322043,20.9303514 38.2830382,20.7328513 39.1763434,21.3825278 C40.0249833,21.9997205 40.2456592,23.1594577 39.7085887,24.039786 L39.6174722,24.1763434 L31.6174722,35.1763434 C30.9260582,36.1270376 29.5786429,36.2717335 28.7022668,35.522002 L28.5857864,35.4142136 L24.5857864,31.4142136 C23.8047379,30.633165 23.8047379,29.366835 24.5857864,28.5857864 C25.3257272,27.8458457 26.5012114,27.8069014 27.2869988,28.4689537 L27.4142136,28.5857864 L29.759,30.93 L36.3825278,21.8236566 Z" id="Path-89" fill="#000000"></path>
        <g id="Group" transform="translate(24.000000, 38.000000)" fill="#000000" fill-rule="nonzero">
            <path d="M0.585786438,0.585786438 C1.36683502,-0.195262146 2.63316498,-0.195262146 3.41421356,0.585786438 L3.41421356,0.585786438 L8,5.171 L12.5857864,0.585786438 C13.366835,-0.195262146 14.633165,-0.195262146 15.4142136,0.585786438 C16.1541543,1.3257272 16.1930986,2.50121136 15.5310463,3.28699879 L15.4142136,3.41421356 L10.829,8 L15.4142136,12.5857864 L15.5310463,12.7130012 C16.1930986,13.4987886 16.1541543,14.6742728 15.4142136,15.4142136 C14.633165,16.1952621 13.366835,16.1952621 12.5857864,15.4142136 L12.5857864,15.4142136 L8,10.829 L3.41421356,15.4142136 C2.63316498,16.1952621 1.36683502,16.1952621 0.585786438,15.4142136 C-0.154154326,14.6742728 -0.193098576,13.4987886 0.468953686,12.7130012 L0.585786438,12.5857864 L5.171,8 L0.585786438,3.41421356 L0.468953686,3.28699879 C-0.193098576,2.50121136 -0.154154326,1.3257272 0.585786438,0.585786438 Z" id="Combined-Shape"></path>
        </g>
    </g>
</svg>