<?xml version="1.0" encoding="UTF-8"?>
<svg width="32px" height="32px" viewBox="0 0 32 32" version="1.1" xmlns="http://www.w3.org/2000/svg" xmlns:xlink="http://www.w3.org/1999/xlink">
    <title>taxability</title>
    <g id="taxability" stroke="none" stroke-width="1" fill="none" fill-rule="evenodd">
        <path d="M15,4 C7.82029825,4 2,9.82029825 2,17 C2,24.1797017 7.82029825,30 15,30 C22.1797017,30 28,24.1797017 28,17 L27.9930032,16.878714 C27.9329274,16.3614818 27.4933493,15.96 26.96,15.96 L16.04,15.96 L16.04,5.04 C16.04,4.46562386 15.5743761,4 15,4 Z M13.9751814,6 L13.9751814,16.9753257 L13.9822456,17.0977743 C14.0429001,17.6199645 14.486713,18.0252947 15.0252005,18.0252947 L26,18.0252947 L25.9877925,18.1571764 C25.3980796,23.6901943 20.7149686,28 15.0252005,28 C8.93615038,28 4,23.0640852 4,16.9753257 C4,11.2858292 8.31001145,6.60294169 13.8432934,6.01325688 L13.9751814,6 Z" id="Oval" fill="#000000" fill-rule="nonzero"></path>
        <path d="M24,2 C24.5522847,2 25,2.44771525 25,3 L24.999706,6.267 L27.830127,4.6339746 C28.3084196,4.35783222 28.92001,4.52170738 29.1961524,5 C29.4722948,5.47829262 29.3084196,6.08988303 28.830127,6.3660254 L26.000706,7.999 L28.830127,9.6339746 C29.3084196,9.91011697 29.4722948,10.5217074 29.1961524,11 C28.92001,11.4782926 28.3084196,11.6421678 27.830127,11.3660254 L24.999706,9.732 L25,13 C25,13.5522847 24.5522847,14 24,14 C23.4477153,14 23,13.5522847 23,13 L22.999706,9.732 L20.169873,11.3660254 C19.6915804,11.6421678 19.07999,11.4782926 18.8038476,11 C18.5277052,10.5217074 18.6915804,9.91011697 19.169873,9.6339746 L21.998706,8 L19.169873,6.3660254 C18.6915804,6.08988303 18.5277052,5.47829262 18.8038476,5 C19.07999,4.52170738 19.6915804,4.35783222 20.169873,4.6339746 L22.999706,6.267 L23,3 C23,2.44771525 23.4477153,2 24,2 Z" id="Combined-Shape" fill="#000000"></path>
    </g>
</svg>