<?xml version="1.0" encoding="UTF-8"?>
<svg width="64px" height="64px" viewBox="0 0 64 64" version="1.1" xmlns="http://www.w3.org/2000/svg" xmlns:xlink="http://www.w3.org/1999/xlink">
    <title>tech_pest_sightings</title>
    <g id="tech_pest_sightings" stroke="none" stroke-width="1" fill="none" fill-rule="evenodd">
        <g id="magnifying-glass" transform="translate(8.000000, 13.000000)" fill="#000000" fill-rule="nonzero">
            <path d="M21.5347938,2.19849123 L20.4934293,3.74862197 C18.6158473,2.55683373 16.3885222,1.86666667 14,1.86666667 C7.29894504,1.86666667 1.86666667,7.29894504 1.86666667,14 C1.86666667,20.701055 7.29894504,26.1333333 14,26.1333333 C19.3097308,26.1333333 23.8228552,22.7226558 25.4680554,17.9726184 L27.397164,18.0767352 C25.6516784,23.8202443 20.3139563,28 14,28 C6.2680135,28 1.0658141e-13,21.7319865 1.0658141e-13,14 C1.0658141e-13,6.2680135 6.2680135,-7.10542736e-15 14,-7.10542736e-15 C16.773978,-7.10542736e-15 19.3595231,0.806777519 21.5347938,2.19849123 Z M25.4791771,5.98361781 C26.1398826,6.92796695 26.6870264,7.95761479 27.1007937,9.05274642 L25.4791771,5.98361781 Z" id="Shape"></path>
            <polygon id="Path-36" transform="translate(30.545941, 30.545942) rotate(-45.000000) translate(-30.545941, -30.545942) " points="27.0459415 40.5459416 27.0459415 23.3906438 29.131728 20.5459416 31.7555563 20.6206808 34.0459415 23.3906438 34.0459415 40.5459416"></polygon>
        </g>
        <path d="M46,12 L46,16 C46,16.5522847 46.4477153,17 47,17 C47.5522847,17 48,16.5522847 48,16 L48,13.0758709 C51.5891366,15.4116839 53.9224699,19.3863936 55,25 L56,26 L56,29 C53.3063222,29.6666667 48.3063222,30 41,30 C33.6936778,30 28.6936778,29.6666667 26,29 L26,26 L27,25 C28.1229725,19.4072789 30.4563058,15.4387014 34,13.0942676 L34,16 C34,16.5522847 34.4477153,17 35,17 C35.5522847,17 36,16.5522847 36,16 L36,12 C36.167479,10.6666667 36.8341457,10 38,10 L40,10 L40,17 C40,17.5522847 40.4477153,18 41,18 C41.5522847,18 42,17.5522847 42,17 L42,10 L44,10 C45.3333333,10 46,10.6666667 46,12 Z M31,24 C30.4477153,24 30,24.4477153 30,25 C30,25.5522847 30.4477153,26 31,26 L51,26 C51.5522847,26 52,25.5522847 52,25 C52,24.4477153 51.5522847,24 51,24 L31,24 Z" id="Path-176" fill="#000000" fill-rule="nonzero"></path>
    </g>
</svg>