<?xml version="1.0" encoding="UTF-8"?>
<svg width="64px" height="64px" viewBox="0 0 64 64" version="1.1" xmlns="http://www.w3.org/2000/svg" xmlns:xlink="http://www.w3.org/1999/xlink">
    <title>technician</title>
    <g id="technician" stroke="none" stroke-width="1" fill="none" fill-rule="evenodd">
        <path d="M32,4 C35.871931,4 39.5311882,5.38345493 42.4012182,7.84164071 L42.4012182,7.84164071 L42.416,7.855 L42.9750152,7.87381975 C43.118713,7.87921241 43.2613348,7.88502588 43.4028773,7.8912643 L43.4028773,7.8912643 L44.2391538,7.93382777 C44.5135776,7.94973766 44.7836573,7.96738073 45.0493661,7.9867903 L45.0493661,7.9867903 L45.8333533,8.05035184 L46.5909544,8.12471232 L47.3220087,8.21007167 C53.183447,8.95262936 56.3729915,10.8155342 56.496285,14.2888275 L56.496285,14.2888275 L56.5,14.5 C56.5,17.2842281 52.8741451,19.1827288 47.9665431,19.9036153 L47.9665431,19.9036153 L47.887,19.914 L47.8889881,20.0965534 C47.8555277,26.4932867 44.6789664,31.4770379 39.9159178,34.0565212 C49.5686557,36.9093314 54.9302026,45.5577348 56,60 L8,60 C9.07616943,45.4717127 14.4953662,36.8065124 24.2575905,34.0043991 C19.3334205,31.2772687 16,26.0279154 16,20 C16,11.163444 23.163444,4 32,4 Z M32,37 C20.8510915,37 14.5248127,42.8628115 12.5039438,55.7412533 L12.464,56 L51.535,56 L51.4960562,55.7412533 C49.4976414,43.0059053 43.2889609,37.1311508 32.3698448,37.002173 L32,37 Z M32,8 C25.372583,8 20,13.372583 20,20 C20,26.627417 25.372583,32 32,32 C38.1712603,32 43.0211529,28.0290079 43.7844648,21.7539827 L43.7844648,21.7539827 L43.796,21.646 L43.0283529,21.6073273 L42.1040618,21.5511497 C40.3842675,21.4361152 38.7814009,21.2673583 37.2558761,21.0175174 C32.2194741,20.1926868 28.8172438,18.6782743 27.6430466,15.7427814 C26.9395729,13.9840971 28.8476856,12.3237467 30.4922779,13.2635137 C34.8471608,15.7520182 40.4213389,16.67337 45.7359989,16.1351766 C47.9330455,15.9126908 49.9005173,15.4445106 51.2790647,14.8506748 C51.7152075,14.6627979 52.0655134,14.4728975 52.3135335,14.3005844 L52.3135335,14.3005844 L52.438,14.207 L52.4102285,14.1450601 C52.2224778,13.7778133 51.7389706,13.4230341 50.9479017,13.1059336 L50.9479017,13.1059336 L50.6150429,12.9811627 C50.0910657,12.7971999 49.4557996,12.6280116 48.7066946,12.4790433 L48.7066946,12.4790433 L48.1903982,12.3827864 L47.640204,12.2928793 L47.0559438,12.2096803 C46.8554941,12.1831052 46.6493388,12.1577079 46.4374499,12.1335482 L46.4374499,12.1335482 L45.7845544,12.0648414 L45.0970893,12.0039185 C44.9796217,11.9944333 44.8607067,11.9852873 44.7403408,11.9764881 L44.7403408,11.9764881 L44.0007065,11.9279134 C43.8745231,11.920531 43.7468817,11.9135103 43.6177789,11.9068587 L43.6177789,11.9068587 L42.8255978,11.8714389 C42.5556733,11.8611488 42.2798752,11.852395 41.9981756,11.8452373 L41.9981756,11.8452373 L41.5891643,11.8360541 C41.0909172,11.8263195 40.6142523,11.6309245 40.2525297,11.2881391 C38.0372746,9.18885928 35.1145461,8 32,8 Z" id="Combined-Shape" fill="#000000" fill-rule="nonzero"></path>
    </g>
</svg>