<?xml version="1.0" encoding="UTF-8"?>
<svg width="32px" height="32px" viewBox="0 0 32 32" version="1.1" xmlns="http://www.w3.org/2000/svg" xmlns:xlink="http://www.w3.org/1999/xlink">
    <title>tech-cert-type</title>
    <g id="tech-cert-type" stroke="none" stroke-width="1" fill="none" fill-rule="evenodd">
        <g id="Group" transform="translate(16.000000, 8.000000)" fill="#000000" fill-rule="nonzero">
            <g id="Combined-Shape">
                <path d="M7,0 C9.209139,0 11,1.790861 11,4 C11,5.4801068 10.1961002,6.77245275 9.00110922,7.46422933 L9,10 L13,10 C13.5522847,10 14,10.4477153 14,11 L14,15 C14,15.5522847 13.5522847,16 13,16 L12,16 L12,17 L2,17 L2,16 L1,16 C0.44771525,16 0,15.5522847 0,15 L0,11 C0,10.4477153 0.44771525,10 1,10 L5,10 L4.99987956,7.46480154 C3.80434324,6.77316556 3,5.48051499 3,4 C3,1.790861 4.790861,0 7,0 Z M12,12 L2,12 L2,14 L12,14 L12,12 Z M7,2 C5.8954305,2 5,2.8954305 5,4 C5,5.1045695 5.8954305,6 7,6 C8.1045695,6 9,5.1045695 9,4 C9,2.8954305 8.1045695,2 7,2 Z"></path>
            </g>
        </g>
        <path d="M12,4 C15.3137085,4 18,6.6862915 18,10 C18,11.9109173 17.1066774,13.613188 15.7148644,14.7119797 C16.8796156,15.2138384 17.8867576,15.9785096 18.7355229,16.9993837 L17,17 C16.6654159,17 16.350021,17.0821593 16.0728897,17.2274036 C15.0841842,16.5020954 13.9138538,16.1026158 12.5616866,16.0173723 L12.24642,16.0032736 L12,16 C7.61295911,16 5.00797187,19.062833 4.15881536,25.554488 L4.11262495,25.9256046 L4.104,26 L21.9080757,25.999975 C21.9411319,26.300208 21.9706225,26.6058754 21.9965458,26.9169545 C22.0418917,27.4611058 21.6441248,27.932961 21.1152283,27.9934565 L21,28 L3,28 C2.41495985,28 1.9548693,27.4999738 2.00345424,26.9169545 C2.54516003,20.416485 4.64457086,16.2791451 8.28688642,14.7115003 C6.89390886,13.6143049 6,11.9115442 6,10 C6,6.6862915 8.6862915,4 12,4 Z M12,6 C9.790861,6 8,7.790861 8,10 C8,12.209139 9.790861,14 12,14 C14.209139,14 16,12.209139 16,10 C16,7.790861 14.209139,6 12,6 Z" id="Combined-Shape" fill="#000000" fill-rule="nonzero"></path>
    </g>
</svg>