<?xml version="1.0" encoding="UTF-8"?>
<svg width="64px" height="64px" viewBox="0 0 64 64" version="1.1" xmlns="http://www.w3.org/2000/svg" xmlns:xlink="http://www.w3.org/1999/xlink">
    <title>technician_approach</title>
    <g id="technician_approach" stroke="none" stroke-width="1" fill="none" fill-rule="evenodd">
        <path d="M42.043,40.916 L42.18531,40.9425756 L42.920351,41.092781 C43.0416761,41.1186567 43.1624031,41.1449502 43.282521,41.1716568 L43.9958323,41.3368177 L44.6940015,41.5116757 C44.809072,41.5416146 44.9234898,41.5719485 45.0372439,41.6026728 L45.7117163,41.7916666 C45.9338273,41.8562018 46.153196,41.9222621 46.3697351,41.9898111 L47.0107758,42.1968877 C47.4323603,42.3378675 47.8422763,42.4846564 48.2398244,42.6369628 L48.8267832,42.8695243 C48.9230346,42.9089621 49.0184911,42.9487356 49.1131418,42.9888403 L49.6712892,43.2334065 C53.6007956,45.0140908 56,47.3903028 56,50 C56,52.6096972 53.6007956,54.9859092 49.6712892,56.7665935 L49.1131418,57.0111597 C49.0184911,57.0512644 48.9230346,57.0910379 48.8267832,57.1304757 L48.2398244,57.3630372 C47.8422763,57.5153436 47.4323603,57.6621325 47.0107758,57.8031123 L46.3697351,58.0101889 C46.153196,58.0777379 45.9338273,58.1437982 45.7117163,58.2083334 L45.0372439,58.3973272 C44.9234898,58.4280515 44.809072,58.4583854 44.6940015,58.4883243 L43.9958323,58.6631823 L43.282521,58.8283432 C43.1624031,58.8550498 43.0416761,58.8813433 42.920351,58.907219 L42.18531,59.0574244 L41.4364384,59.1973863 C41.310503,59.2198475 41.1840133,59.2418728 41.05698,59.2634577 L40.2883459,59.3876444 L39.5071925,59.5010413 L38.7140444,59.6034296 C38.4477209,59.6356999 38.1794857,59.6660992 37.9094263,59.6945907 L37.0938625,59.7743063 L36.2678778,59.8423575 L35.4319968,59.8985259 C35.2918877,59.906885 35.1513881,59.9147398 35.010509,59.9220858 L34.1607669,59.9600202 C33.4489986,59.9864837 32.7282876,60 32,60 C31.2717124,60 30.5510014,59.9864837 29.8392331,59.9600202 L28.989491,59.9220858 C28.8486119,59.9147398 28.7081123,59.906885 28.5680032,59.8985259 L27.7321222,59.8423575 L26.9061375,59.7743063 L26.0905737,59.6945907 C25.8205143,59.6660992 25.5522791,59.6356999 25.2859556,59.6034296 L24.4928075,59.5010413 L23.7116541,59.3876444 L22.94302,59.2634577 C22.8159867,59.2418728 22.689497,59.2198475 22.5635616,59.1973863 L21.81469,59.0574244 L21.079649,58.907219 C20.9583239,58.8813433 20.8375969,58.8550498 20.717479,58.8283432 L20.0041677,58.6631823 L19.3059985,58.4883243 C19.190928,58.4583854 19.0765102,58.4280515 18.9627561,58.3973272 L18.2882837,58.2083334 C18.0661727,58.1437982 17.846804,58.0777379 17.6302649,58.0101889 L16.9892242,57.8031123 C16.5676397,57.6621325 16.1577237,57.5153436 15.7601756,57.3630372 L15.1732168,57.1304757 C15.0769654,57.0910379 14.9815089,57.0512644 14.8868582,57.0111597 L14.3287108,56.7665935 C10.3992044,54.9859092 8,52.6096972 8,50 C8,47.3903028 10.3992044,45.0140908 14.3287108,43.2334065 L14.8868582,42.9888403 C14.9815089,42.9487356 15.0769654,42.9089621 15.1732168,42.8695243 L15.7601756,42.6369628 C16.1577237,42.4846564 16.5676397,42.3378675 16.9892242,42.1968877 L17.6302649,41.9898111 C17.846804,41.9222621 18.0661727,41.8562018 18.2882837,41.7916666 L18.9627561,41.6026728 C19.0765102,41.5719485 19.190928,41.5416146 19.3059985,41.5116757 L20.0041677,41.3368177 L20.717479,41.1716568 C20.8375969,41.1449502 20.9583239,41.1186567 21.079649,41.092781 L21.81469,40.9425756 L21.956,40.916 L22.3319249,41.5250737 L23.3194146,43.0788584 L24.2952211,44.5694244 C21.372779,45.0183214 18.733732,45.7188094 16.5678988,46.6212399 C14.8198344,47.3496 13.4964461,48.165797 12.6931725,48.9571103 C12.3867653,49.2589553 12.1860989,49.527773 12.0779782,49.7479283 C12.0179743,49.8701083 12,49.943854 12,50 C12,50.056146 12.0179743,50.1298917 12.0779782,50.2520717 C12.1860989,50.472227 12.3867653,50.7410447 12.6931725,51.0428897 C13.4964461,51.834203 14.8198344,52.6504 16.5678988,53.3787601 C20.5204699,55.0256647 26.0490794,56 32,56 C37.9509206,56 43.4795301,55.0256647 47.4321012,53.3787601 C49.1801656,52.6504 50.5035539,51.834203 51.3068275,51.0428897 C51.6132347,50.7410447 51.8139011,50.472227 51.9220218,50.2520717 C51.9820257,50.1298917 52,50.056146 52,50 C52,49.943854 51.9820257,49.8701083 51.9220218,49.7479283 C51.8139011,49.527773 51.6132347,49.2589553 51.3068275,48.9571103 C50.5035539,48.165797 49.1801656,47.3496 47.4321012,46.6212399 C45.266268,45.7188094 42.627221,45.0183214 39.7047789,44.5694244 L40.6805854,43.0788584 L41.6680751,41.5250737 L42.043,40.916 Z" id="Oval" fill="#000000" fill-rule="nonzero"></path>
        <path d="M32,4 C40.836556,4 48,10.3956044 48,20.4835165 C48,24.967033 45.6296296,31.1306471 40.8888889,38.974359 L39.9722222,40.4647436 L39,41.9945055 L37.9722222,43.5636447 L36.8888889,45.1721612 L35.75,46.8200549 L34.5555556,48.507326 L33.3055556,50.2339744 L32,52 L31.3402778,51.112065 L30.0625,49.365728 L28.8402778,47.6587683 L27.6736111,45.9911859 C27.4837963,45.7165369 27.2962963,45.4435287 27.1111111,45.1721612 L26.0277778,43.5636447 L25,41.9945055 L24.0277778,40.4647436 L23.1111111,38.974359 C18.3703704,31.1306471 16,24.967033 16,20.4835165 C16,10.3956044 23.163444,4 32,4 Z M32,8 C25.0174199,8 20,12.9558328 20,20.4835165 C20,23.4166458 21.3868419,27.5416559 24.1764782,32.7702396 L24.9031214,34.1003256 C25.5330268,35.2278046 26.2238752,36.4028624 26.9758106,37.6247005 L27.9074642,39.1133096 C28.2277955,39.6169634 28.5579099,40.128051 28.8978168,40.6465212 L29.9469238,42.2240285 C30.1266743,42.4906207 30.3088751,42.7590457 30.4935275,43.0292973 L31.6308701,44.6726735 L32,45.196 L32.9458537,43.8445218 L34.0550514,42.221099 L35.1052956,40.6417735 C35.2754267,40.3822444 35.4431036,40.1245656 35.6083276,39.8687433 L36.570246,38.3561407 L37.47335,36.8884046 C38.3470653,35.4432045 39.1326423,34.0657658 39.8303313,32.7574736 L40.4987335,31.4722814 C42.7356701,27.0551387 43.8969993,23.4906942 43.9934474,20.8383236 L44,20.4835165 C44,12.9558328 38.9825801,8 32,8 Z" id="Oval" fill="#000000" fill-rule="nonzero"></path>
        <circle id="Oval" fill="#000000" cx="32" cy="20" r="6"></circle>
    </g>
</svg>