<?xml version="1.0" encoding="UTF-8"?>
<svg width="32px" height="32px" viewBox="0 0 32 32" version="1.1" xmlns="http://www.w3.org/2000/svg" xmlns:xlink="http://www.w3.org/1999/xlink">
    <title>tech-cert</title>
    <g id="tech-cert" stroke="none" stroke-width="1" fill="none" fill-rule="evenodd">
        <path d="M12,2 C15.3137085,2 18,4.6862915 18,8 L17.9974059,8.118 L15.964055,8.53855554 C15.9877598,8.36241293 16,8.18263589 16,8 C16,5.790861 14.209139,4 12,4 C9.790861,4 8,5.790861 8,8 C8,10.209139 9.790861,12 12,12 C13.3449579,12 14.5348785,11.3362062 15.2600229,10.3183574 L15.1137327,11.0242115 L13.272593,12.661498 L13.7813912,14.1909303 C13.2974797,14.080037 12.7858397,14.0177223 12.24642,14.0032736 L12.24642,14.0032736 L12,14 C7.53018476,14 4.91030487,17.1795019 4.11262495,23.9256046 L4.11262495,23.9256046 L4.104,24 L14.2494059,24 L13.3744059,26 L3,26 C2.45396253,26 2.01677004,25.5644216 2.0004059,25.0323282 L2.00345424,24.9169545 C2.54514217,18.4166993 4.64443244,14.2794179 8.28652622,12.7116554 C6.89390886,11.6143049 6,9.91154424 6,8 C6,4.6862915 8.6862915,2 12,2 Z" id="Combined-Shape" fill="#000000" fill-rule="nonzero"></path>
        <g id="Group" transform="translate(13.999716, 7.272593)" fill="#000000" fill-rule="nonzero">
            <g id="cert">
                <path d="M10.0708369,0 L11.5205205,1.630179 L13.6571387,2.07055236 L14.0975121,4.20717061 L15.7276911,5.65685425 L15.0407565,7.72740661 L15.7276911,9.79795897 L14.0975121,11.2476426 L13.6571387,13.3842609 L13.393,13.438 L15.9194295,19.3334873 C16.1249377,19.8130064 15.9262777,20.3623039 15.4791887,20.6053927 L15.3716752,20.6558833 L10.3716752,22.6558833 C9.85811074,22.8613091 9.28390816,22.6101671 9.07726033,22.1124736 L9.03876054,22.0021277 L8.00028449,18.3664066 L6.96180844,22.0021277 C6.80985309,22.5339715 6.25975778,22.8342647 5.73971542,22.6929914 L5.62889381,22.6558833 L0.628893813,20.6558833 C0.144506401,20.4621283 -0.103431805,19.9332425 0.0408181911,19.4452131 L0.0811394595,19.3334873 L2.607,13.438 L2.34343024,13.3842609 L1.90305688,11.2476426 L0.272877879,9.79795897 L0.95981249,7.72740661 L0.272877879,5.65685425 L1.90305688,4.20717061 L2.34343024,2.07055236 L4.48004849,1.630179 L5.92973213,0 L8.00028449,0.68693461 L10.0708369,0 Z M4.573,13.928 L2.32228449,19.1794066 L5.34228449,20.3874066 L6.838,15.153 L5.92973213,15.4548132 L4.573,13.928 Z M11.427,13.929 L10.0708369,15.4548132 L9.161,15.152 L10.6572845,20.3874066 L13.6772845,19.1794066 L11.427,13.929 Z M9.45028449,2.31240661 L8.00028449,2.79412925 L6.54928449,2.31240661 L5.53364581,3.45506309 L4.03528449,3.76240661 L3.72794097,5.26076793 L2.58528449,6.27640661 L3.06700713,7.72740661 L2.58528449,9.17740661 L3.72794097,10.1940453 L4.03528449,11.6914066 L5.53364581,11.9997501 L6.54928449,13.1414066 L8.00028449,12.660684 L9.45028449,13.1414066 L10.4669232,11.9997501 L11.9642845,11.6914066 L12.272628,10.1940453 L13.4142845,9.17740661 L12.9335618,7.72740661 L13.4142845,6.27640661 L12.272628,5.26076793 L11.9642845,3.76240661 L10.4669232,3.45506309 L9.45028449,2.31240661 Z M8,4 C10.209139,4 12,5.790861 12,8 C12,10.209139 10.209139,12 8,12 C5.790861,12 4,10.209139 4,8 C4,5.790861 5.790861,4 8,4 Z M8,6 C6.8954305,6 6,6.8954305 6,8 C6,9.1045695 6.8954305,10 8,10 C9.1045695,10 10,9.1045695 10,8 C10,6.8954305 9.1045695,6 8,6 Z"></path>
            </g>
        </g>
    </g>
</svg>