<svg viewBox="0 0 32 32" fill="none" xmlns="http://www.w3.org/2000/svg">
  <g clip-path="url(#clip0)">
    <path d="M28.6725 24.4076C29.1614 23.5325 29.3005 22.5095 29.0627 21.5388C28.9945 21.2704 28.9002 21.0092 28.7812 20.7586C28.7436 20.6764 28.7009 20.5966 28.6533 20.5195L24.7772 13.3159H20.8115L24.8667 20.8656C24.994 21.085 25.061 21.3333 25.061 21.5859C25.061 21.8386 24.994 22.0869 24.8667 22.3063C24.7427 22.5113 24.5667 22.6811 24.3559 22.7991C24.1451 22.9171 23.9068 22.9793 23.6642 22.9795H19.0398C18.9886 23.6823 18.7667 24.3628 18.3927 24.9638C18.0188 25.5649 17.5036 26.0688 16.8906 26.4335H25.3912C25.9587 26.3963 26.5111 26.2374 27.0095 25.9679C27.7128 25.6271 28.2932 25.0826 28.6725 24.4076Z" fill="currentColor"/>
    <path d="M6.93164 8.60373H10.8973L12.8737 4.98619C13.041 4.67398 13.2917 4.41261 13.5988 4.23028C13.906 4.04796 14.258 3.9516 14.6167 3.9516C14.9755 3.9516 15.3274 4.04796 15.6346 4.23028C15.9418 4.41261 16.1925 4.67398 16.3597 4.98619L18.2786 8.60373H22.2442L19.4299 3.3693C18.9633 2.50446 18.266 1.78092 17.413 1.27632C16.56 0.771729 15.5833 0.505127 14.5879 0.505127C13.5925 0.505127 12.6159 0.771729 11.7629 1.27632C10.9099 1.78092 10.2126 2.50446 9.74598 3.3693L6.93164 8.60373Z" fill="currentColor"/>
    <path d="M10.1297 12.6869C10.1713 11.9869 10.3844 11.3072 10.7508 10.7058C11.1172 10.1044 11.6261 9.59904 12.2341 9.23291H4.55859V12.6869H10.1297Z" fill="currentColor"/>
    <path d="M10.7632 12.9385V22.3756H12.5669C12.9431 22.3715 13.3075 22.2462 13.6044 22.0189C13.9013 21.7917 14.1143 21.475 14.2108 21.1173C14.2496 20.9801 14.2689 20.8383 14.2683 20.6958V15.0336C14.27 14.4189 14.5181 13.8296 14.9588 13.3938C15.3995 12.958 15.9972 12.7107 16.6221 12.7058H24.6494V9.23291H14.5242C13.5261 9.23458 12.5695 9.62573 11.8644 10.3205C11.1592 11.0152 10.7632 11.9568 10.7632 12.9385Z" fill="currentColor"/>
    <path d="M0.394707 20.7588C0.2757 21.0094 0.181455 21.2706 0.113272 21.5389C-0.124338 22.5117 0.0147523 23.5367 0.503443 24.4141C0.883758 25.0867 1.46402 25.629 2.16646 25.9681C2.66486 26.2376 3.21721 26.3965 3.78471 26.4336H14.588C15.6058 26.4336 16.5819 26.0359 17.3016 25.328C18.0214 24.6201 18.4257 23.66 18.4257 22.6588V13.3098H16.5964C16.1467 13.3212 15.7191 13.5042 15.404 13.82C15.0889 14.1358 14.9109 14.5597 14.9078 15.0022V20.6644C14.9061 21.2791 14.6567 21.8679 14.2142 22.3019C13.7718 22.7359 13.1724 22.9797 12.5476 22.9797H5.54368C5.30114 22.9795 5.06282 22.9173 4.85203 22.7993C4.64125 22.6813 4.46522 22.5115 4.34118 22.3065C4.21391 22.0859 4.14701 21.8366 4.14701 21.583C4.14701 21.3294 4.21391 21.0801 4.34118 20.8595L8.3964 13.3098H4.39875L0.522632 20.5134C0.477858 20.6015 0.433084 20.677 0.394707 20.7588Z" fill="currentColor"/>
  </g>
  <defs>
    <clipPath id="clip0">
      <rect width="32" height="32" fill="white"/>
    </clipPath>
  </defs>
</svg>
