<?xml version="1.0" encoding="UTF-8"?>
<svg width="64px" height="64px" viewBox="0 0 64 64" version="1.1" xmlns="http://www.w3.org/2000/svg" xmlns:xlink="http://www.w3.org/1999/xlink">
    <title>termite_fumigation</title>
    <g id="termite_fumigation" stroke="none" stroke-width="1" fill="none" fill-rule="evenodd">
        <path d="M28,32.1519031 L28,50.5270834 C28,50.5270834 26.4305827,51.5886925 23.21993,51.5886925 C20.0092773,51.5886925 18,50.5270834 18,50.5270834 L18,50.5270834 L18,32.3264851 C18,32.3264851 20.2226969,33.3334835 23,33.3334835 C25.7773031,33.3334835 28,32.1519031 28,32.1519031 L28,32.1519031 Z M24,29.824144 C26.4509277,29.824144 27.5,31.7230463 27.5,31.7230463 C27.5,31.7230463 25.1745605,32.733843 23,32.733843 C20.8254395,32.733843 18.5,31.7230463 18.5,31.7230463 C18.5,31.7230463 20,29.824144 21.9675293,29.824144 C22.4126967,29.824144 22.6359863,30.1012217 23,30.1012217 C23.3640137,30.1012217 23.8780278,29.824144 24,29.824144 Z M23,28 C23.2983805,28 24,28.1474853 24,28.1474853 L24,28.1474853 L24,29.3273674 C24,29.3273674 23.311971,29.4748527 23,29.4748527 C22.6453044,29.4748527 22,29.3273674 22,29.3273674 L22,29.3273674 L22,28.1474853 C22,28.1474853 22.6317139,28 23,28 Z M23,4 C25.574587,4 27.8651179,4.7601179 29.3284272,5.94087522 C30.6415446,5.34895801 32.2555695,5 34,5 C38.418278,5 42,7.2385763 42,10 C42,12.2731051 39.5730279,14.1919291 36.2502697,14.7994807 L23,28 L9.8210472,14.8122948 C6.4617565,14.2193145 4,12.2893367 4,10 C4,7.2385763 7.581722,5 12,5 C13.7444305,5 15.3584554,5.34895801 16.6731199,5.94127727 C18.1348821,4.7601179 20.425413,4 23,4 Z" id="Combined-Shape" fill="#000000" fill-rule="nonzero"></path>
        <path d="M46.7993186,41.8456368 C47.4755318,41.8456368 47.9016331,41.8929649 48.3341911,42.6932123 C48.5277079,42.6831468 48.7237776,42.7357306 48.8906168,42.8518538 L48.979184,42.9220957 L54.8515981,48.2044297 L55.1420242,48.989011 L54.4211841,54.5324782 L57.5644986,57.6515229 C57.8899829,57.9744947 57.9169003,58.4845794 57.6439206,58.8384787 L57.5694271,58.9235009 C57.2464553,59.2489852 56.7363705,59.2759025 56.3824713,59.0029229 L56.297449,58.9284294 L52.8389918,55.4966691 L52.5805814,54.742337 L53.2968953,49.2258352 L48.6586574,45.0517225 C49.4972234,46.509682 50.0256647,48.5844006 50.0256647,50.887681 C50.0256647,55.2915781 48.2035915,60 45.7083958,60 C43.2132001,60 41.3911269,55.3032906 41.3911269,50.887681 C41.3911269,48.4983325 41.9597995,46.3549464 42.8534277,44.8908848 L42.7588884,45.0516592 L38.1189969,49.2258352 L38.8362103,54.742337 L38.5777999,55.4966691 L35.1193426,58.9284294 C34.7667346,59.2783154 34.1972506,59.2761089 33.8473646,58.9235009 C33.5243929,58.5980166 33.501429,58.0877386 33.7771429,57.7359654 L33.852293,57.6515229 L36.9947081,54.5324782 L36.2747675,48.989011 L36.5651936,48.2044297 L42.4376076,42.9220957 C42.621061,42.7570764 42.8537113,42.681452 43.0821337,42.6923964 C43.5151586,41.8929649 43.9412599,41.8456368 44.6174731,41.8456368 C44.7567398,41.8456368 44.9076121,41.8573494 45.07009,41.8573494 C45.2673845,41.8690618 45.4762846,41.8690618 45.7083958,41.8690618 C45.940507,41.8690618 46.1610127,41.8573494 46.3467017,41.8573494 C46.5091796,41.8456368 46.6600519,41.8456368 46.7993186,41.8456368 Z M45.7083958,39.0814887 C46.6536994,39.0814887 47.2919666,39.1288798 47.671563,39.3375543 C47.7600655,39.3126522 47.8538711,39.3024274 47.9496328,39.3076415 L48.0540368,39.3194261 L53.1024561,40.1861506 L53.7248952,40.6155279 L56.6697616,45.6056253 L60.5020282,47.5946112 C60.9114297,47.8071004 61.0888994,48.2904101 60.9289456,48.7113745 L60.8859955,48.8072618 C60.6735062,49.2166631 60.1901965,49.3941329 59.7692321,49.2341792 L59.6733449,49.191229 L55.6113984,47.0829804 L55.251111,46.7417558 L52.3866711,41.8882769 L47.7496571,41.0923496 C47.7120968,41.0859012 47.6754831,41.0772104 47.63993,41.0664382 C47.2590082,41.261872 46.6294425,41.3068621 45.7083958,41.3068621 C44.7873491,41.3068621 44.1577835,41.261872 43.7749621,41.0665438 L43.7694908,41.0686372 L43.6671345,41.0923496 L39.0292211,41.8882769 L36.1656806,46.7417558 L35.8053933,47.0829804 L31.7434468,49.191229 C31.3025529,49.4200636 30.7596308,49.2481556 30.5307962,48.8072618 C30.3183069,48.3978603 30.4513559,47.9004854 30.8244513,47.648303 L30.9147635,47.5946112 L34.7461306,45.6056253 L37.6918965,40.6155279 L38.3143356,40.1861506 L43.3627548,39.3194261 C43.494614,39.2967883 43.6246917,39.3040944 43.7460246,39.3364221 C44.1257886,39.1288083 44.7638057,39.0814887 45.7083958,39.0814887 Z M43.3289293,44.5396317 L42.9047255,44.9204729 C43.4772832,45.239403 44.3906241,45.3828096 45.7083958,45.3828096 C47.0662465,45.3828096 47.9946915,45.2188346 48.5633639,44.8908848 L48.5098503,44.9194428 L48.0939422,44.5445699 C47.6876176,44.7090695 47.0272555,44.8375733 45.9559208,44.853976 L45.7200014,44.8557474 C44.4970897,44.8557474 43.7636449,44.7182929 43.3289293,44.5396317 Z M60.3906552,25.9266112 C60.5727425,26.3887766 60.3456944,26.9110466 59.883529,27.093134 C58.6374633,27.5840681 57.5663923,28.9835879 56.7240595,31.0343297 C56.3219385,32.0133326 56.0002776,33.070124 55.7533143,34.1279571 C55.6883912,34.4060463 55.6322882,34.6689474 55.5845862,34.912706 L55.4933001,35.4155067 L55.4767955,35.5209639 L54.9146927,36.2295285 L49.8314568,38.2206522 L49.2354277,38.241757 L48.3179855,37.9553888 C47.9094047,38.3729501 47.090058,38.542714 45.7083958,38.542714 C44.3264002,38.542714 43.5069915,38.3728682 43.0985104,37.9550864 L42.181364,38.241757 L41.5853349,38.2206522 L36.5020989,36.2295285 L35.9399962,35.5209639 L35.9109674,35.340855 L35.8771227,35.1499375 C35.8209254,34.8425271 35.7500415,34.4987427 35.6634774,34.1279571 C35.416514,33.070124 35.0948531,32.0133326 34.6927322,31.0343297 C33.8503994,28.9835879 32.7793283,27.5840681 31.5332627,27.093134 C31.0710973,26.9110466 30.8440491,26.3887766 31.0261364,25.9266112 C31.2082238,25.4644458 31.7304938,25.2373977 32.1926592,25.419485 C34.0001457,26.1316118 35.3459607,27.890127 36.356697,30.3508638 C36.7990737,31.4278731 37.1479115,32.5739522 37.4152336,33.7189895 C37.4853104,34.0191537 37.5459914,34.3035282 37.5977954,34.5683229 L37.6297064,34.7395992 L41.9460759,36.4296301 L42.7711299,36.1732227 C42.8666918,36.1433952 42.9634803,36.130318 43.0583312,36.1323324 C43.4528366,35.6799899 44.2834931,35.497466 45.7083958,35.497466 C47.1278804,35.497466 47.9576292,35.6837798 48.354449,36.132093 C48.4165714,36.1307851 48.4801738,36.1357261 48.5437302,36.1477461 L48.6456618,36.1732227 L49.4698163,36.4296301 L53.7861858,34.7395992 L53.8189962,34.5683229 C53.8535322,34.3917931 53.8920136,34.2065612 53.934594,34.0137501 L54.0015581,33.7189895 C54.2688801,32.5739522 54.617718,31.4278731 55.0600947,30.3508638 C56.070831,27.890127 57.4166459,26.1316118 59.2241324,25.419485 C59.6862979,25.2373977 60.2085679,25.4644458 60.3906552,25.9266112 Z M46.3699129,20.821713 C46.3699129,20.8568505 46.3583072,20.8919879 46.3583072,20.9271255 C46.3002794,21.9343998 47.0662465,22.8245492 48.0643248,22.9065367 C48.1223527,22.9182492 48.1687749,22.9182492 48.2268027,22.9182492 C48.6213918,22.9182492 48.9811642,22.8011243 49.2829087,22.5902993 C49.8283702,24.0192234 49.9096091,26.0220596 49.9328202,27.5563962 C49.9328202,34.3262167 48.7838696,34.9704038 45.731607,34.9704038 C42.6793443,34.9704038 41.5303937,34.3379292 41.5303937,27.5563962 C41.5303937,26.0220596 41.6000271,24.0192234 42.157094,22.5902993 C42.4588386,22.8011243 42.818611,22.9182492 43.2132001,22.9182492 C43.2712279,22.9182492 43.3176502,22.9065367 43.3756779,22.9065367 C44.3621507,22.8245492 45.1281177,21.9343998 45.0816955,20.9271255 C45.0816955,20.8919879 45.07009,20.8568505 45.07009,20.821713 C45.2441734,20.868563 45.4182568,20.9505504 45.5923402,21.0442504 C45.6735791,21.0911004 45.7664236,21.0911004 45.8476626,21.0442504 C46.021746,20.9505504 46.1958294,20.8802754 46.3699129,20.821713 Z M48.191986,12.6815308 C48.0759304,12.5175559 48.2848305,12.3184435 48.4357028,12.4589935 C48.5865751,12.5878309 48.7374474,12.7752307 48.8999252,13.0329056 C49.3989644,13.8293551 49.0972198,15.9258912 49.039192,17.015153 C48.9927697,18.1044147 49.0972198,19.4864889 49.4105699,20.3883508 C49.5266256,20.5991756 49.5846534,20.8334255 49.5382311,21.1028128 C49.5034144,21.8641248 48.8418975,22.461462 48.0759304,22.391187 C47.3679911,22.3326245 46.8109242,21.6884374 46.8457408,20.9622629 C46.868952,20.6460257 46.9850076,20.3532133 47.1823022,20.130676 L47.1823022,20.130676 L47.2695507,19.9832518 C47.6854214,19.1918008 47.8010236,17.6154182 47.8554247,16.6052157 C47.9134525,15.5276665 48.5053361,14.7780669 48.5517584,13.9113425 C48.5749695,13.4194178 48.4357028,13.0211931 48.191986,12.6815308 Z M43.2248057,12.6815308 C42.9810888,13.0211931 42.8418221,13.4194178 42.8650333,13.9113425 C42.9114555,14.7780669 43.5033391,15.5276665 43.5613669,16.6052157 C43.615768,17.6154182 43.7313703,19.1918008 44.147241,19.9832518 L44.2344895,20.130676 C44.4317841,20.3532133 44.5478397,20.6460257 44.5710508,20.9622629 C44.6058674,21.6884374 44.0488005,22.3326245 43.3408612,22.391187 C42.5748942,22.461462 41.9133772,21.8641248 41.8785605,21.1028128 C41.8321383,20.8334255 41.8901661,20.5991756 42.0062217,20.3883508 C42.3195719,19.4864889 42.4240219,18.1044147 42.3775997,17.015153 C42.3195719,15.9258912 42.0178273,13.8293551 42.5168664,13.0329056 C42.6793443,12.7752307 42.8302166,12.5878309 42.9810888,12.4589935 C43.1319612,12.3184435 43.3408612,12.5175559 43.2248057,12.6815308 Z M45.7083958,18.444077 C46.2422517,18.444077 46.7296853,18.5729145 47.1242743,18.8071643 C47.0198243,19.3459389 46.8921631,19.6621763 46.787713,19.8261512 C46.6948686,19.9198511 46.6252352,20.0252635 46.5672074,20.1423884 L46.5672074,20.1423884 L46.497574,20.2478009 C46.2306461,20.2946509 45.9637182,20.3883508 45.7083958,20.5171882 C45.4414679,20.3883508 45.1861455,20.2946509 44.9192176,20.2478009 L44.9192176,20.2478009 L44.8495843,20.1423884 C44.7799509,20.0252635 44.7103176,19.9198511 44.6290786,19.8144386 C44.5246286,19.6504638 44.3969674,19.3459389 44.2925174,18.7954518 C44.6871064,18.5729145 45.17454,18.444077 45.7083958,18.444077 Z M38.5245532,15.6096539 C38.6290033,15.398829 38.8727201,15.3168416 39.0700146,15.4105415 C39.9752485,15.8439037 41.0429601,17.2728278 41.7973216,18.7603144 C41.7508993,19.2873765 41.6580549,19.7675887 41.5303937,20.1423884 C40.8572711,18.4323646 39.5806594,16.5700783 38.7218478,16.160141 C38.5129477,16.0547286 38.4317087,15.8087663 38.5245532,15.6096539 Z M52.3351714,15.4105415 C52.5440716,15.3168416 52.7877883,15.4105415 52.8806328,15.6096539 C52.9850829,15.8087663 52.8922384,16.0547286 52.6833383,16.1484286 C51.8245268,16.5583658 50.547915,18.4206521 49.8747924,20.130676 C49.7587368,19.7675887 49.6658923,19.2873765 49.6078645,18.7603144 C50.362226,17.2728278 51.4299376,15.8439037 52.3351714,15.4105415 Z" id="Combined-Shape" fill="#000000" fill-rule="nonzero"></path>
    </g>
</svg>