<?xml version="1.0" encoding="UTF-8"?>
<svg width="64px" height="64px" viewBox="0 0 64 64" version="1.1" xmlns="http://www.w3.org/2000/svg" xmlns:xlink="http://www.w3.org/1999/xlink">
    <title>territory</title>
    <g id="territory" stroke="none" stroke-width="1" fill="none" fill-rule="evenodd">
        <g id="Group" transform="translate(28.000000, 15.000000)" fill="#000000">
            <path d="M16,0 C24.836556,0 32,5.99587912 32,15.4532967 C32,19.006993 30.3056749,23.6865544 26.9170248,29.4919807 L26.24,30.6296703 L25.5206612,31.7954773 C24.9035813,32.7786986 24.2424242,33.7912088 23.5371901,34.8330079 L22.6697521,36.0972255 L21.76,37.3895604 L20.8079339,38.7100127 L19.8135537,40.0585823 L18.7768595,41.4352693 L17.6978512,42.8400736 L16.5765289,44.2729952 C16.3861157,44.5141586 16.1939394,44.7564935 16,45 L14.8575207,43.5530197 C14.6706336,43.3141994 14.4855096,43.0765507 14.3021488,42.8400736 L13.2231405,41.4352693 L12.1864463,40.0585823 L11.1920661,38.7100127 C11.0298623,38.4875942 10.8694215,38.2663473 10.7107438,38.0462719 L9.77983471,36.7398783 C9.62820937,36.5244891 9.47834711,36.3102715 9.33024793,36.0972255 L8.46280992,34.8330079 C6.06501377,31.2908909 4.17674931,28.0873536 2.79801653,25.2223958 L2.33256198,24.2252929 C0.777520661,20.7846381 0,17.8606394 0,15.4532967 C0,5.99587912 7.163444,0 16,0 Z M16,4 C12.5785744,4 9.45472032,5.13123854 7.2450002,7.26545483 C5.1983779,9.24214618 4,12.0619183 4,15.4532967 C4,17.4126097 4.71084514,19.7710642 5.96769826,22.5560379 L5.96769826,22.5560379 L6.41237231,23.5086246 L6.66258982,24.0198013 C7.94205315,26.594175 9.64695219,29.4460105 11.7682356,32.5803824 L11.7682356,32.5803824 L12.6215461,33.8240103 L12.8316224,34.1252182 L12.8316224,34.1252182 L13.0441075,34.4280269 L13.9617927,35.7158627 L14.1885656,36.0294501 L14.1885656,36.0294501 L14.4177764,36.3446576 L15.3939109,37.6684826 L15.999,38.472 L16.6060891,37.6684826 L17.5758404,36.3533144 L18.5021928,35.0685253 L19.3850926,33.814335 L20.2317638,32.5803832 L20.7284428,31.8401623 C21.2173083,31.1051464 21.6827258,30.3857406 22.1246289,29.6819015 L22.1246289,29.6819015 L22.8190154,28.5565338 L23.4708833,27.4611186 L23.738731,26.9985466 C26.4679859,22.2484035 28,18.4204043 28,15.4532967 C28,12.0619183 26.8016221,9.24214618 24.7549998,7.26545483 C22.5452797,5.13123854 19.4214256,4 16,4 Z" id="Oval" fill-rule="nonzero"></path>
            <circle id="Oval" cx="16" cy="16" r="6"></circle>
        </g>
        <path d="M6,4 C7.02567168,4 7.87101432,4.77208038 7.98654454,5.76675775 L8,6 L8,58 C8,59.1045695 7.1045695,60 6,60 C4.97432832,60 4.12898568,59.2279196 4.01345546,58.2332423 L4,58 L4,6 C4,4.8954305 4.8954305,4 6,4 Z M27.1013692,32.0790004 C27.245905,33.285267 27.5455555,34.5967904 28.0038547,36.0129835 C27.0657938,36.063102 26.2154766,36.2641143 25.1029034,36.7016622 L24.3505406,37.015305 C24.2180244,37.0732549 24.0816626,37.1341123 23.9410283,37.1979819 L23.0425407,37.6181795 L21.4617264,38.3761381 C18.8995485,39.5702126 17.4231541,40 15.3708768,40 C12.1966503,40 9.02563992,39.4099482 5.86248143,38.2329239 L5,37.8973666 L6.03845501,34.1026334 C9.15710204,35.368877 12.2659031,36 15.3708768,36 C16.5219553,36 17.4671385,35.812445 18.7743826,35.2983378 L19.5267454,34.984695 C19.6592616,34.9267451 19.7956234,34.8658877 19.9362576,34.8020181 L20.8347453,34.3818205 L22.4155596,33.6238619 C24.337193,32.728306 25.6480732,32.2626616 27.0492157,32.0858117 Z M28.5064092,6 C31.9692017,6 35.4281668,6.70221036 38.877286,8.1026334 C39.4868077,8.35011349 39.9159709,9.00424613 39.9889632,9.76791152 L40,10 L40.0002604,14.4067556 C38.5894478,14.7017442 37.2479423,15.1534049 35.999947,15.749339 L36,11.5 L35.4225741,11.2996514 C33.1569264,10.5466166 31.6120245,10.099129 29.3533196,10.0156507 L28.5064092,10 C27.3553306,10 26.4101474,10.187555 25.1029034,10.7016622 L24.3505406,11.015305 C24.2180244,11.0732549 24.0816626,11.1341123 23.9410283,11.1979819 L23.0425407,11.6181795 L21.4617264,12.3761381 C18.8995485,13.5702126 17.4231541,14 15.3708768,14 C12.1966503,14 9.02563992,13.4099482 5.86248143,12.2329239 L5,11.8973666 L6.03845501,8.1026334 C9.15710204,9.36887703 12.2659031,10 15.3708768,10 C16.5219553,10 17.4671385,9.81244497 18.7743826,9.29833783 L19.5267454,8.98469498 C19.6592616,8.92674514 19.7956234,8.86588765 19.9362576,8.8020181 L20.8347453,8.3818205 L22.4155596,7.62386192 C24.9777374,6.42978736 26.4541318,6 28.5064092,6 Z" id="Combined-Shape" fill="#000000" fill-rule="nonzero"></path>
    </g>
</svg>