<?xml version="1.0" encoding="UTF-8"?>
<svg width="64px" height="64px" viewBox="0 0 64 64" version="1.1" xmlns="http://www.w3.org/2000/svg" xmlns:xlink="http://www.w3.org/1999/xlink">
    <title>terrier_hub</title>
    <g id="terrier_hub" stroke="none" stroke-width="1" fill="none" fill-rule="evenodd">
        <path d="M55.8042998,49.8014812 C59.1804317,48.4374354 60.8115497,44.5947621 59.4475039,41.2186302 C58.0834581,37.8424983 54.2407848,36.2113803 50.8646529,37.5754261 C50.0361172,37.9101763 49.3126766,38.3942041 48.7128084,38.98398 L38.8039915,34.2682297 C39.3474147,32.4711481 39.3041626,30.4835747 38.5461151,28.6073413 C38.2241983,27.8105692 37.7956054,27.0888997 37.2834522,26.4521446 L39.8301795,23.3594653 C40.844578,23.8028856 42.0297284,23.8535639 43.1372829,23.4060828 C45.3218389,22.5234649 46.3772682,20.0370292 45.4946503,17.8524733 C44.6120324,15.6679174 42.1255968,14.612488 39.9410408,15.4951059 C37.7564849,16.3777238 36.7010556,18.8641595 37.5836735,21.0487154 C37.684386,21.2979876 37.8059807,21.5325582 37.9456263,21.7512255 L35.2927,24.653811 C33.1681976,23.2724929 30.4618171,22.8558985 27.9117278,23.7173619 L23.8381647,16.4580681 C25.1140692,15.0697218 25.5554177,13.0190347 24.8020722,11.154439 C23.7589783,8.57269106 20.8204634,7.32536551 18.2387155,8.36845937 C15.6569676,9.41155324 14.409642,12.3500681 15.4527359,14.931816 C16.3783717,17.2228449 18.7965928,18.4630576 21.13358,17.9844074 L25.1968028,25.226115 C23.7589372,26.4143214 22.7672015,28.033704 22.3388265,29.8080848 L15.3464613,29.1970121 C15.3062298,29.0748631 15.2617143,28.9532189 15.2128411,28.8322535 C14.0092712,25.8533136 10.6186772,24.4140918 7.63973728,25.6176616 C4.66079738,26.8212315 3.22157558,30.2118256 4.42514543,33.1907655 C5.62871527,36.1697054 9.01930934,37.6089272 11.9982492,36.4053573 C13.4971619,35.7997573 14.606249,34.6404467 15.1849871,33.2584776 L22.2010271,33.1066559 C22.2788282,33.6073533 22.4024975,34.1072864 22.5743184,34.6010764 L22.7241615,34.9998255 C23.435853,36.7613238 24.6689349,38.1557504 26.1736312,39.0770818 L22.9502298,46.7004454 C22.2692334,46.6537762 21.5673628,46.7568404 20.8919445,47.0297271 C18.5087926,47.992583 17.3574152,50.7050583 18.320271,53.0882102 C19.2831269,55.4713621 21.9956022,56.6227395 24.3787541,55.6598837 C26.761906,54.6970278 27.9132834,51.9845525 26.9504276,49.6014006 C26.6852933,48.9451704 26.2874953,48.3823387 25.80044,47.9313306 L29.0716915,40.19246 C30.6186277,40.4822747 32.2638614,40.347879 33.8313804,39.7145602 C35.2473183,39.1424842 36.426078,38.2335189 37.3125929,37.1173935 L46.8791252,42.3443265 C46.6208752,43.5789354 46.7134594,44.900959 47.2214488,46.1582771 C48.5854947,49.534409 52.4281679,51.165527 55.8042998,49.8014812 Z" id="Path" fill="#000000"></path>
    </g>
</svg>