<?xml version="1.0" encoding="UTF-8"?>
<svg width="64px" height="64px" viewBox="0 0 64 64" version="1.1" xmlns="http://www.w3.org/2000/svg" xmlns:xlink="http://www.w3.org/1999/xlink">
    <title>terrier</title>
    <g id="terrier" stroke="none" stroke-width="1" fill="none" fill-rule="evenodd">
        <path d="M52,7 C49.7090645,7 47.7403971,7.39373348 46.1055728,8.21114562 C45.7030732,8.41239541 45.0553957,9.01287643 44.2887707,9.82190969 L43.6054778,10.5619935 L42.8815897,11.3775413 L41.7582838,12.6839872 L38.6749992,16.3612737 L37.9415122,17.2061579 C37.8036961,17.3594081 37.6841395,17.4874334 37.5857864,17.5857864 L37.1034418,18.052439 C34.9985463,20.0213446 32.7015366,21.2985838 30.1909379,21.9096399 L29.776,22 L19,22 L18.9791454,21.9909178 L18.8982919,21.9166013 L18.7657867,21.7637289 L18.4716011,21.377451 L18.2128046,21.0088348 L17.9046269,20.5461796 L17.5477164,19.9850615 L17.142722,19.3210568 L16.465923,18.1760163 L15.9731514,17.3703277 C14.0577428,14.3179827 12.7626772,13.3042558 10.3675445,14.1026334 L10.1017487,14.1986893 C7.48418478,15.2225321 7.30433296,17.7348892 8.98565565,21.7582685 L9.359883,22.6122595 L9.78608884,23.5094156 C9.93669447,23.8156667 10.0957741,24.1291194 10.2631385,24.449781 L10.7898973,25.4334 L11.3652305,26.460317 L11.776,27.17 L10.1430466,31.2572186 L10.059715,31.5149287 L8.164,39.094 L4.43826238,43.7506099 C4.1545615,44.105236 4,44.545857 4,45 L4,54 C4,56.6493789 6.02593163,58 9,58 L9.36674237,57.9929693 C12.1393788,57.8851935 14,56.5389881 14,54 L14,51.394 L13.8569534,51.7427814 C14.9723479,48.954295 16.2972618,47.0176199 17.7875401,45.8927363 L18.1094004,45.6641006 C19.3399065,44.8437632 20.0513265,43.8833461 20.6160678,42.5656164 L20.8731436,41.9331824 C21.4165654,40.5622774 21.6784437,40.3039191 23.3922323,39.9611614 L23.7803037,39.8929304 C27.231595,39.3637706 32.8887099,40.427447 34.3307535,41.2335935 L34.464,41.316 L34.5381883,41.5012199 L34.65354,41.84655 L34.8207737,42.4240113 L35.0010764,43.1283686 L35.1936985,43.9578955 C35.2267872,44.1064849 35.2603579,44.2602178 35.2943952,44.4190582 L35.5990133,45.9132009 L35.9243479,47.6492942 L36.2702597,49.6268216 L36.636609,51.8452671 L36.8921273,53.4578192 C36.9354632,53.7354731 36.9791733,54.0175726 37.0232566,54.3041144 C37.0548466,54.5094496 37.1182366,54.7086091 37.2111456,54.8944272 C38.2518749,56.9758857 40.3001035,58 43,58 C45.9740684,58 48,56.6493789 48,54 L47.986535,53.7683108 C47.9596946,53.5381789 47.892996,53.313856 47.7888544,53.1055728 L46.96,51.448 L46.066,40.712 L46.2023995,40.5587282 C48.052721,38.3720664 49,35.828933 49,33 L49,25.382 L49.652,23.754 L49.6780731,23.8070704 C51.1933005,26.6908636 52.3272235,28 54,28 C56.3542997,28 61,22.8381108 61,20 L60.9862115,19.6582657 C60.8484636,17.9528265 59.6806816,16.2918762 57.5751272,14.4955093 L57,14.022 L56.984553,13.7517178 C56.9129776,13.1791394 56.5962481,12.6604645 56.1094004,12.3358994 L54,10.928 L54,9 C54,7.8954305 53.1045695,7 52,7 Z M50,11.146 L50,12 L50.015447,12.2482822 C50.0870224,12.8208606 50.4037519,13.3395355 50.8905996,13.6641006 L53.004,15.074 L53,15 C53,15.6295146 53.2963883,16.2222912 53.8,16.6 C55.9958344,18.2468758 57,19.5020828 57,20 C57,20.0786597 56.939128,20.2353813 56.826627,20.4460316 L56.620309,20.799437 C56.5798542,20.8640734 56.5364614,20.9313262 56.490275,21.0008183 L56.1807896,21.4416258 C55.953658,21.7493897 55.6864511,22.0809157 55.3884117,22.4120705 L55.0967748,22.7265125 C54.9011069,22.9312528 54.7041599,23.1251364 54.5131791,23.3016748 L54.194,23.582 L54.0176329,23.3189814 L53.6452238,22.7082568 C53.3840801,22.2583098 53.0976709,21.7232059 52.7888544,21.1055728 C52.6927195,20.913303 52.5662162,20.7377891 52.4142136,20.5857864 L50.4142136,18.5857864 C49.3989278,17.5705007 47.6763008,17.9240831 47.1430466,19.2572186 L45.1430466,24.2572186 C45.0485504,24.4934592 45,24.7455611 45,25 L45,33 C45,35.1272092 44.2167273,36.9548456 42.5857864,38.5857864 C42.1697947,39.0017781 41.9580527,39.579822 42.0069085,40.166091 L43.0069085,52.166091 L43.0439636,52.4170395 C43.079192,52.5822702 43.1352866,52.7427092 43.2111456,52.8944272 L43.738,53.95 L43.6802313,53.9604027 C43.5012229,53.9844368 43.2743927,54 43,54 L42.6620598,53.9923584 C41.8045288,53.9516696 41.2904383,53.7490249 40.9829095,53.3972067 L40.916,53.31 L40.4041845,50.0744566 L39.9823172,47.575703 L39.5861409,45.4133288 L39.3022765,44.0024438 L39.0269855,42.7646483 L38.8469772,42.0321998 L38.6689133,41.3715613 L38.4920475,40.7806854 L38.3156333,40.2575247 C38.2862271,40.1758604 38.2568087,40.0969323 38.2273624,40.0206976 L38.0502262,39.5952706 C37.8428874,39.1358517 37.6326611,38.8042339 37.4142136,38.5857864 C35.5069732,36.6785461 27.4581018,35.0687718 22.6077677,36.0388386 C19.5835626,36.6436797 18.291238,37.7996985 17.3075894,40.0883203 L16.9394877,40.9899392 C16.6971595,41.5553718 16.473842,41.8908917 16.0942374,42.1890451 L15.8905996,42.3358994 C13.5123958,43.9213686 11.6146477,46.578216 10.1430466,50.2572186 L10.0639621,50.4982454 C10.021578,50.6617868 10,50.8303741 10,51 L10,53.892 L9.97440866,53.9031413 C9.78252447,53.9567689 9.45732112,54 9,54 L8.74147107,53.9950749 C8.4988155,53.9854875 8.30380882,53.9627009 8.15671054,53.9338076 L8,53.894 L8,45.698 L11.5617376,41.2493901 L11.6868752,41.0744547 C11.8022588,40.8933042 11.8879672,40.6943424 11.940285,40.4850713 L13.908,32.612 L15.8569534,27.7427814 C16.089085,27.1624524 16.0365629,26.5069702 15.7149859,25.9710085 L15.3420334,25.3431433 C13.8893388,22.8718372 12.9061136,20.8834071 12.3954594,19.4146609 L12.258,19 L12.4829982,19.3369697 L12.8468341,19.9199952 L14.0087232,21.8755114 L14.5017625,22.6733939 C16.0829471,25.164672 17.0905163,26 19,26 L30,26 L30.3922323,25.9611614 C34.1239926,25.2148093 37.4756494,23.3527777 40.4142136,20.4142136 L40.6625731,20.1590293 L41.2325873,19.538162 L41.8819696,18.7966423 L42.9566677,17.5281721 L46.1644997,13.6622556 L46.8194869,12.893854 L47.3538711,12.29416 C47.4054277,12.2385265 47.4541914,12.1868304 47.4999754,12.139343 L47.7374329,11.9070898 C47.8036723,11.8479521 47.8565012,11.8078174 47.8944272,11.7888544 C48.3530238,11.5595561 48.8773633,11.3782554 49.468462,11.2475813 L50,11.146 Z" id="Path-66" fill="#000000" fill-rule="nonzero"></path>
    </g>
</svg>