<?xml version="1.0" encoding="UTF-8"?>
<svg width="64px" height="64px" viewBox="0 0 64 64" version="1.1" xmlns="http://www.w3.org/2000/svg" xmlns:xlink="http://www.w3.org/1999/xlink">
    <title>terrier_sync</title>
    <g id="terrier_sync" stroke="none" stroke-width="1" fill="none" fill-rule="evenodd">
        <path d="M52,7 C53.1045695,7 54,7.8954305 54,9 L54,10.928 L56.1094004,12.3358994 C56.5962481,12.6604645 56.9129776,13.1791394 56.984553,13.7517178 L57,14.022 L57.5751272,14.4955093 C59.6806816,16.2918762 60.8484636,17.9528265 60.9862115,19.6582657 L61,20 C61,22.8381108 56.3542997,28 54,28 C52.3272235,28 51.1933005,26.6908636 49.6780731,23.8070704 L49.652,23.754 L49,25.382 L49,33 C49,35.828933 48.052721,38.3720664 46.2023995,40.5587282 L46.066,40.712 L46.96,51.448 L47.7888544,53.1055728 C47.892996,53.313856 47.9596946,53.5381789 47.986535,53.7683108 L48,54 C48,56.6493789 45.9740684,58 43,58 C40.3001035,58 38.2518749,56.9758857 37.2111456,54.8944272 C37.1182366,54.7086091 37.0548466,54.5094496 37.0232566,54.3041144 C36.9791733,54.0175726 36.9354632,53.7354731 36.8921273,53.4578192 L36.877,53.365 L40.37,49.872 L40.4041845,50.0744566 L40.916,53.31 L40.9829095,53.3972067 C41.2904383,53.7490249 41.8045288,53.9516696 42.6620598,53.9923584 L43,54 C43.2743927,54 43.5012229,53.9844368 43.6802313,53.9604027 L43.738,53.95 L43.2111456,52.8944272 C43.1352866,52.7427092 43.079192,52.5822702 43.0439636,52.4170395 L43.0069085,52.166091 L42.615904,47.4702492 C42.871968,47.0152289 43,46.507614 43,45.9999986 C43,45.333499 42.7792748,44.6669984 42.3378245,44.1195502 L42.0069085,40.166091 C41.9580527,39.579822 42.1697947,39.0017781 42.5857864,38.5857864 C44.2167273,36.9548456 45,35.1272092 45,33 L45,25 C45,24.7455611 45.0485504,24.4934592 45.1430466,24.2572186 L47.1430466,19.2572186 C47.6763008,17.9240831 49.3989278,17.5705007 50.4142136,18.5857864 L52.4142136,20.5857864 C52.5662162,20.7377891 52.6927195,20.913303 52.7888544,21.1055728 C53.0976709,21.7232059 53.3840801,22.2583098 53.6452238,22.7082568 L54.0176329,23.3189814 L54.194,23.582 L54.5131791,23.3016748 C54.7041599,23.1251364 54.9011069,22.9312528 55.0967748,22.7265125 L55.3884117,22.4120705 C55.6864511,22.0809157 55.953658,21.7493897 56.1807896,21.4416258 L56.490275,21.0008183 C56.5364614,20.9313262 56.5798542,20.8640734 56.620309,20.799437 L56.826627,20.4460316 C56.939128,20.2353813 57,20.0786597 57,20 C57,19.5020828 55.9958344,18.2468758 53.8,16.6 C53.2963883,16.2222912 53,15.6295146 53,15 L53.003,15.073 L50.8905996,13.6641006 C50.4524367,13.371992 50.1520695,12.9226545 50.0441992,12.4182984 L50.015447,12.2482822 L50,12 L50,11.146 L49.468462,11.2475813 C48.8773633,11.3782554 48.3530238,11.5595561 47.8944272,11.7888544 C47.8565012,11.8078174 47.8036723,11.8479521 47.7374329,11.9070898 L47.4999754,12.139343 C47.4541914,12.1868304 47.4054277,12.2385265 47.3538711,12.29416 L46.8194869,12.893854 L46.1644997,13.6622556 L42.9620836,17.5231671 C42.8656761,16.9211101 42.5854217,16.342781 42.1213203,15.8786797 L40.465,14.225 L41.7582838,12.6839872 L42.8815897,11.3775413 L43.6054778,10.5619935 L44.2887707,9.82190969 C45.0553957,9.01287643 45.7030732,8.41239541 46.1055728,8.21114562 C47.7403971,7.39373348 49.7090645,7 52,7 Z M10.3675445,14.1026334 C12.7626772,13.3042558 14.0577428,14.3179827 15.9731514,17.3703277 L16.465923,18.1760163 L17.142722,19.3210568 L17.5477164,19.9850615 L17.9046269,20.5461796 L18.2128046,21.0088348 L18.4716011,21.377451 L18.7657867,21.7637289 L18.8982919,21.9166013 L18.9791454,21.9909178 L19,22 L29,22 L29,25.999 L19,26 C17.1587122,26 16.1560667,25.2232728 14.6690474,22.9340174 L14.5017625,22.6733939 L14.0087232,21.8755114 L12.8468341,19.9199952 L12.4829982,19.3369697 L12.258,19 L12.3954594,19.4146609 C12.9061136,20.8834071 13.8893388,22.8718372 15.3420334,25.3431433 L15.7149859,25.9710085 C16.0365629,26.5069702 16.089085,27.1624524 15.8569534,27.7427814 L13.908,32.612 L11.940285,40.4850713 C11.8879672,40.6943424 11.8022588,40.8933042 11.6868752,41.0744547 L11.5617376,41.2493901 L8,45.698 L8,53.894 L8.15671054,53.9338076 C8.30380882,53.9627009 8.4988155,53.9854875 8.74147107,53.9950749 L9,54 C9.45732112,54 9.78252447,53.9567689 9.97440866,53.9031413 L10,53.892 L10,51 C10,50.8303741 10.021578,50.6617868 10.0639621,50.4982454 L10.1430466,50.2572186 C11.6146477,46.578216 13.5123958,43.9213686 15.8905996,42.3358994 L16.0942374,42.1890451 C16.473842,41.8908917 16.6971595,41.5553718 16.9394877,40.9899392 L17.3075894,40.0883203 C18.291238,37.7996985 19.5835626,36.6436797 22.6077677,36.0388386 C24.4482732,35.6707376 26.7493345,35.6741066 29.0006218,35.9242408 L29.0009679,39.9534362 C27.1954144,39.733784 25.2796944,39.6630404 23.7803037,39.8929304 L23.3922323,39.9611614 C21.6784437,40.3039191 21.4165654,40.5622774 20.8731436,41.9331824 L20.6160678,42.5656164 C20.0513265,43.8833461 19.3399065,44.8437632 18.1094004,45.6641006 L17.7875401,45.8927363 C16.2972618,47.0176199 14.9723479,48.954295 13.8569534,51.7427814 L13.977,51.448 L14,51.394 L14,54 C14,56.5389881 12.1393788,57.8851935 9.36674237,57.9929693 L9,58 C6.02593163,58 4,56.6493789 4,54 L4,45 C4,44.545857 4.1545615,44.105236 4.43826238,43.7506099 L8.164,39.094 L10.059715,31.5149287 L10.1430466,31.2572186 L11.776,27.17 L11.3652305,26.460317 L10.7898973,25.4334 L10.2631385,24.449781 C10.0957741,24.1291194 9.93669447,23.8156667 9.78608884,23.5094156 L9.359883,22.6122595 L8.98565565,21.7582685 C7.30433296,17.7348892 7.48418478,15.2225321 10.1017487,14.1986893 Z M35.0013557,37.2553409 C36.0888518,37.6572166 36.9407634,38.1123362 37.4142136,38.5857864 C37.6326611,38.8042339 37.8428874,39.1358517 38.0502262,39.5952706 L38.2273624,40.0206976 C38.2568087,40.0969323 38.2862271,40.1758604 38.3156333,40.2575247 L38.4920475,40.7806854 L38.6689133,41.3715613 L38.8469772,42.0321998 L39.0269855,42.7646483 L39.1158127,43.1615585 C38.6960754,43.2948069 38.2836253,43.5219879 37.9045812,43.852787 L35.637,46.119 L35.5990133,45.9132009 L35.2943952,44.4190582 C35.2603579,44.2602178 35.2267872,44.1064849 35.1936985,43.9578955 L35.0010764,43.1283686 L35,43.124 Z M36.4228094,18.6593202 L38.0335195,20.2657149 C38.5465107,20.7115084 39.1747381,20.9546151 39.8133397,20.994221 C38.3111543,22.3960122 36.7052056,23.5258506 34.9999659,24.3789974 L34.9999319,19.7467433 C35.4835,19.4164507 35.9577196,19.0540628 36.4228094,18.6593202 Z" id="Path-66" fill="#000000" fill-rule="nonzero"></path>
        <path d="M33.2869988,8.46895369 L33.4142136,8.58578644 L41.4142136,16.5857864 C42.1952621,17.366835 42.1952621,18.633165 41.4142136,19.4142136 C40.6742728,20.1541543 39.4987886,20.1930986 38.7130012,19.5310463 L38.5857864,19.4142136 L34,14.829 L34,49.17 L38.5857864,44.5857864 L38.7130012,44.4689537 C39.4987886,43.8069014 40.6742728,43.8458457 41.4142136,44.5857864 C42.1952621,45.366835 42.1952621,46.633165 41.4142136,47.4142136 L33.4142136,55.4142136 L33.2869988,55.5310463 C32.5012114,56.1930986 31.3257272,56.1541543 30.5857864,55.4142136 L22.5857864,47.4142136 L22.4689537,47.2869988 C21.8069014,46.5012114 21.8458457,45.3257272 22.5857864,44.5857864 L22.7130012,44.4689537 C23.4987886,43.8069014 24.6742728,43.8458457 25.4142136,44.5857864 L30,49.17 L30,14.829 L25.4142136,19.4142136 C24.6742728,20.1541543 23.4987886,20.1930986 22.7130012,19.5310463 L22.5857864,19.4142136 C21.8458457,18.6742728 21.8069014,17.4987886 22.4689537,16.7130012 L22.5857864,16.5857864 L30.5857864,8.58578644 C31.3257272,7.84584567 32.5012114,7.80690142 33.2869988,8.46895369 Z" id="Combined-Shape-Copy" fill="#000000"></path>
    </g>
</svg>