<?xml version="1.0" encoding="UTF-8"?>
<svg width="64px" height="64px" viewBox="0 0 64 64" version="1.1" xmlns="http://www.w3.org/2000/svg" xmlns:xlink="http://www.w3.org/1999/xlink">
    <title>thermometer</title>
    <g id="thermometer" stroke="none" stroke-width="1" fill="none" fill-rule="evenodd">
        <path d="M32,4 C35.8659932,4 39,7.13400675 39,11 L39.0007123,42.8592655 C40.8516568,44.6741393 42,47.2029647 42,50 C42,55.5228475 37.5228475,60 32,60 C26.4771525,60 22,55.5228475 22,50 C22,47.2024559 23.1487609,44.6732194 25.0002978,42.8582753 L25,11 C25,7.13400675 28.1340068,4 32,4 Z M32,8 C30.3431458,8 29,9.34314575 29,10.9999626 L29.0003135,44.5385474 L27.8003567,45.7147889 C26.6537026,46.8387811 26,48.362484 26,50 C26,53.3137085 28.6862915,56 32,56 C35.3137085,56 38,53.3137085 38,50 C38,48.36278 37.346537,46.8393321 36.2002518,45.7153855 L35.0007498,44.5392592 L35,11 C35,9.34314575 33.6568542,8 32,8 Z" id="Rectangle-2-Copy-2" fill="#000000" fill-rule="nonzero"></path>
        <rect id="Rectangle" fill="#000000" x="16" y="36" width="8" height="4" rx="2"></rect>
        <rect id="Rectangle-Copy" fill="#000000" x="16" y="28" width="8" height="4" rx="2"></rect>
        <rect id="Rectangle-Copy-2" fill="#000000" x="16" y="20" width="8" height="4" rx="2"></rect>
        <rect id="Rectangle-Copy-3" fill="#000000" x="16" y="12" width="8" height="4" rx="2"></rect>
        <path d="M32,18 C33.1045695,18 34,18.8954305 34,20 L34.0005324,45.4162763 C35.7661528,46.1879545 37,47.949887 37,50 C37,52.7614237 34.7614237,55 32,55 C29.2385763,55 27,52.7614237 27,50 C27,47.9495025 28.23431,46.1872936 30.0004611,45.4158423 L30,20 C30,18.8954305 30.8954305,18 32,18 Z" id="Oval-2" fill="#000000"></path>
    </g>
</svg>