<?xml version="1.0" encoding="UTF-8"?>
<svg width="32px" height="32px" viewBox="0 0 32 32" version="1.1" xmlns="http://www.w3.org/2000/svg" xmlns:xlink="http://www.w3.org/1999/xlink">
    <title>third-party</title>
    <g id="third-party" stroke="none" stroke-width="1" fill="none" fill-rule="evenodd">
        <path d="M8,2 C10.209139,2 12,3.790861 12,6 C12,7.01392688 11.6227502,7.93974234 11.0009561,8.64474073 C12.976049,9.65266052 14,11.823707 14,15 C14,15.5522847 13.5522847,16 13,16 L13,16 L3,16 C2.44771525,16 2,15.5522847 2,15 C2,11.823707 3.02395097,9.65266052 4.99884739,8.64405151 C4.37724984,7.93974234 4,7.01392688 4,6 C4,3.790861 5.790861,2 8,2 Z M8,10 C5.55923867,10 4.29038323,11.2059872 4.04456218,13.9385023 L4.04456218,13.9385023 L4.039,14 L11.96,14 L11.929362,13.6865498 C11.6384821,11.2116384 10.4425913,10.0721964 8.21866314,10.0033312 L8.21866314,10.0033312 Z M8,4 C6.8954305,4 6,4.8954305 6,6 C6,7.1045695 6.8954305,8 8,8 C9.1045695,8 10,7.1045695 10,6 C10,4.8954305 9.1045695,4 8,4 Z" id="Combined-Shape" fill="#000000" fill-rule="nonzero"></path>
        <path d="M24,2 C26.209139,2 28,3.790861 28,6 C28,7.01392688 27.6227502,7.93974234 27.0009561,8.64474073 C28.976049,9.65266052 30,11.823707 30,15 C30,15.5522847 29.5522847,16 29,16 L29,16 L19,16 C18.4477153,16 18,15.5522847 18,15 C18,11.823707 19.023951,9.65266052 20.9988474,8.64405151 C20.3772498,7.93974234 20,7.01392688 20,6 C20,3.790861 21.790861,2 24,2 Z M24,10 C21.5592387,10 20.2903832,11.2059872 20.0445622,13.9385023 L20.0445622,13.9385023 L20.039,14 L27.96,14 L27.929362,13.6865498 C27.6384821,11.2116384 26.4425913,10.0721964 24.2186631,10.0033312 L24.2186631,10.0033312 Z M24,4 C22.8954305,4 22,4.8954305 22,6 C22,7.1045695 22.8954305,8 24,8 C25.1045695,8 26,7.1045695 26,6 C26,4.8954305 25.1045695,4 24,4 Z" id="Combined-Shape-Copy" fill="#000000" fill-rule="nonzero"></path>
        <path d="M16,16 C18.209139,16 20,17.790861 20,20 C20,21.0139269 19.6227502,21.9397423 19.0009561,22.6447407 C20.976049,23.6526605 22,25.823707 22,29 C22,29.5522847 21.5522847,30 21,30 L21,30 L11,30 C10.4477153,30 10,29.5522847 10,29 C10,25.823707 11.023951,23.6526605 12.9988474,22.6440515 C12.3772498,21.9397423 12,21.0139269 12,20 C12,17.790861 13.790861,16 16,16 Z M16,24 C13.5592387,24 12.2903832,25.2059872 12.0445622,27.9385023 L12.0445622,27.9385023 L12.039,28 L19.96,28 L19.929362,27.6865498 C19.6384821,25.2116384 18.4425913,24.0721964 16.2186631,24.0033312 L16.2186631,24.0033312 Z M16,18 C14.8954305,18 14,18.8954305 14,20 C14,21.1045695 14.8954305,22 16,22 C17.1045695,22 18,21.1045695 18,20 C18,18.8954305 17.1045695,18 16,18 Z" id="Combined-Shape-Copy-2" fill="#000000" fill-rule="nonzero"></path>
        <path d="M5.04490836,17.0007248 C5.34302616,20.30649 7.10365611,23.1904748 9.67477927,25.0006601 C9.43150646,25.6120001 9.25099107,26.2933587 9.1382048,27.0435544 C5.71953231,24.915404 3.36081194,21.2425452 3.037933,17.0005699 Z M28.962067,17.0005699 C28.6391881,21.2425452 26.2804677,24.915404 22.8608135,27.0442387 C22.7488485,26.292753 22.5683853,25.6117282 22.3250561,25.0002698 C24.8961543,23.1907853 26.6569578,20.306668 26.9550916,17.0007248 Z M16,3 C17.2700013,3 18.4974679,3.18211293 19.65771,3.52164912 C19.3289007,4.09452006 19.1114261,4.73830753 19.0327836,5.42430424 C18.0709819,5.14789157 17.0527619,5 16,5 C14.9476006,5 13.9297194,5.14778974 12.9659784,5.42374709 C12.8885739,4.73830753 12.6710993,4.09452006 12.3435941,3.52174335 C13.5025321,3.18211293 14.7299987,3 16,3 Z" id="Oval" fill="#000000" fill-rule="nonzero"></path>
    </g>
</svg>