<?xml version="1.0" encoding="UTF-8"?>
<svg width="64px" height="64px" viewBox="0 0 64 64" version="1.1" xmlns="http://www.w3.org/2000/svg" xmlns:xlink="http://www.w3.org/1999/xlink">
    <title>third_party_billing</title>
    <g id="third_party_billing" stroke="none" stroke-width="1" fill="none" fill-rule="evenodd">
        <g id="small-dollar" transform="translate(23.000000, 9.500000)" fill="#000000" fill-rule="nonzero">
            <path d="M9.07581818,0 C10.1803877,-2.02906125e-16 11.0758182,0.8954305 11.0758182,2 L11.0746796,3.290072 C11.3018936,3.32880082 11.5316065,3.37377682 11.7638182,3.425 C12.7158182,3.635 13.6258182,3.971 14.4938182,4.433 C15.3618182,4.895 16.0898182,5.504 16.6778182,6.26 C16.9858182,6.68 17.1678182,7.184 17.2238182,7.772 C17.2798182,8.36 17.0138182,8.892 16.4258182,9.368 C16.0058182,9.704 15.5158182,9.851 14.9558182,9.809 C14.3958182,9.767 13.9338182,9.578 13.5698182,9.242 C13.0938182,8.626 12.4568182,8.136 11.6588182,7.772 C11.4710173,7.68633642 11.2766256,7.61075285 11.0756431,7.5452493 L11.0750558,12.8929135 C11.6756241,13.068885 12.2832116,13.2659138 12.8978182,13.484 C13.7658182,13.792 14.5638182,14.198 15.2918182,14.702 C16.0198182,15.206 16.6078182,15.857 17.0558182,16.655 C17.5038182,17.453 17.7278182,18.468 17.7278182,19.7 C17.7278182,21.128 17.3078182,22.346 16.4678182,23.354 C15.6278182,24.362 14.5778182,25.125 13.3178182,25.643 C12.5800507,25.9463044 11.8326836,26.1608119 11.0757169,26.2865226 L11.0758182,27 C11.0758182,28.1045695 10.1803877,29 9.07581818,29 C7.97124868,29 7.07581818,28.1045695 7.07581818,27 L7.07573754,26.2217589 C6.21643109,26.0784922 5.35712463,25.8575726 4.49781818,25.559 C2.84581818,24.985 1.47381818,23.97 0.381818182,22.514 C0.101818182,22.122 -0.0241818182,21.618 0.00381818182,21.002 C0.0318181818,20.386 0.395818182,19.854 1.09581818,19.406 C1.54381818,19.126 2.01981818,19.007 2.52381818,19.049 C3.02781818,19.091 3.51781818,19.35 3.99381818,19.826 C4.80581818,20.638 5.65981818,21.268 6.55581818,21.716 C6.72142246,21.7988021 6.89467874,21.8739523 7.07558702,21.9414504 L7.07604083,16.3332651 C6.70329652,16.2143944 6.32688897,16.0906393 5.94681818,15.962 C5.03681818,15.654 4.20381818,15.255 3.44781818,14.765 C2.69181818,14.275 2.07581818,13.624 1.59981818,12.812 C1.12381818,12 0.885818182,10.978 0.885818182,9.746 C0.885818182,8.346 1.27781818,7.156 2.06181818,6.176 C2.84581818,5.196 3.86081818,4.44 5.10681818,3.908 C5.74626285,3.63497868 6.40229997,3.43201435 7.07492953,3.29910702 L7.07581818,2 C7.07581818,0.8954305 7.97124868,1.09108455e-15 9.07581818,0 Z M11.075,17.583 L11.075,22.24 L11.3018182,22.199 C11.7338182,22.115 12.1195325,21.9384286 12.458961,21.6692857 L12.6248182,21.527 C13.0028182,21.177 13.1918182,20.638 13.1918182,19.91 C13.1918182,19.294 12.9818182,18.804 12.5618182,18.44 C12.1418182,18.076 11.5888182,17.768 10.9028182,17.516 L11.075,17.583 Z M7.07448839,7.50807513 C6.77555642,7.62319782 6.50466635,7.78817277 6.26181818,8.003 C5.89781818,8.325 5.71581818,8.836 5.71581818,9.536 C5.71581818,10.18 5.92581818,10.691 6.34581818,11.069 C6.55301478,11.2554769 6.79598675,11.424918 7.07473407,11.5773232 Z"></path>
        </g>
        <path d="M32,4 C43.045695,4 52,12.954305 52,24 C52,29.9902166 49.3665151,35.3653498 45.1941493,39.0307956 L49.1241944,44.532455 C50.0166593,44.188536 50.9863122,44 52,44 C56.418278,44 60,47.581722 60,52 C60,56.418278 56.418278,60 52,60 C48.2720892,60 45.1397308,57.4501372 44.2518692,53.999356 L19.7481308,53.999356 C18.8602692,57.4501372 15.7279108,60 12,60 C7.581722,60 4,56.418278 4,52 C4,47.581722 7.581722,44 12,44 C13.0136878,44 13.9833407,44.188536 14.8758056,44.532455 L18.8058507,39.0307956 C14.6334849,35.3653498 12,29.9902166 12,24 C12,12.954305 20.954305,4 32,4 Z M12,48 C9.790861,48 8,49.790861 8,52 C8,54.209139 9.790861,56 12,56 C14.209139,56 16,54.209139 16,52 C16,49.790861 14.209139,48 12,48 Z M52,48 C49.790861,48 48,49.790861 48,52 C48,54.209139 49.790861,56 52,56 C54.209139,56 56,54.209139 56,52 C56,49.790861 54.209139,48 52,48 Z M32,44 C28.3811987,44 24.9868778,43.0388852 22.0583742,41.3579925 L18.1297492,46.8590707 C18.8851111,47.7587745 19.4460472,48.8271931 19.7478729,49.9996419 L44.2521271,49.9996419 C44.5538406,48.8276291 45.1144718,47.7595691 45.8694083,46.8600743 L41.9406246,41.3585671 C39.0123485,43.0391043 35.6183889,44 32,44 Z M32,8 C23.163444,8 16,15.163444 16,24 C16,32.836556 23.163444,40 32,40 C40.836556,40 48,32.836556 48,24 C48,15.163444 40.836556,8 32,8 Z" id="Combined-Shape" fill="#000000" fill-rule="nonzero"></path>
    </g>
</svg>