<?xml version="1.0" encoding="UTF-8"?>
<svg width="64px" height="64px" viewBox="0 0 64 64" version="1.1" xmlns="http://www.w3.org/2000/svg" xmlns:xlink="http://www.w3.org/1999/xlink">
    <title>threshold</title>
    <g id="threshold" stroke="none" stroke-width="1" fill="none" fill-rule="evenodd">
        <path d="M10,4 C11.1045695,4 12,4.8954305 12,6 C12,7.1045695 11.1045695,8 10,8 L10,43.17 L14.5857864,38.5857864 C15.194507,37.9770659 16.1244499,37.826157 16.8944272,38.2111456 L23.314,41.421 L30.3358994,30.8905996 C30.7734906,30.2342128 31.5521092,29.9007128 32.3206631,30.0258341 L32.4850713,30.059715 L39.015,31.691 L46.2635137,19.0077221 C46.6251323,18.3748896 47.280089,18.0145612 47.9593495,18.0001099 L42,18 C40.8954305,18 40,17.1045695 40,16 C40,14.8954305 40.8954305,14 42,14 L54,14 C55.1045695,14 56,14.8954305 56,16 C56,17.1045695 55.1045695,18 54,18 L48.0174246,17.9997184 C48.3487859,18.0023018 48.6840943,18.0874088 48.9922779,18.2635137 C49.9513128,18.8115337 50.2845062,20.033243 49.7364863,20.9922779 L41.7364863,34.9922779 C41.2919332,35.7702459 40.3842012,36.1576031 39.5149287,35.940285 L32.882,34.282 L25.6641006,45.1094004 C25.1356873,45.9020203 24.1279496,46.2058781 23.2576103,45.857194 L23.1055728,45.7888544 L16.395,42.433 L10,48.828 L10,54 L56,54 C56,52.8954305 56.8954305,52 58,52 C59.1045695,52 60,52.8954305 60,54 L60,58 C60,59.1045695 59.1045695,60 58,60 C56.8954305,60 56,59.1045695 56,58 L6,58 L6,8 C4.8954305,8 4,7.1045695 4,6 C4,4.8954305 4.8954305,4 6,4 L10,4 Z" id="Path-45" fill="#000000" fill-rule="nonzero"></path>
        <path d="M20.0198676,35 C19.2119165,35 18.5066255,34.7357886 17.9039735,34.2073579 C17.3013215,33.6789271 17,32.9398041 17,31.9899666 C17,31.160531 17.2880766,30.4548524 17.8642384,29.8729097 C18.4404002,29.290967 19.1456912,29 19.9801324,29 C20.8145737,29 21.5264871,29.290967 22.115894,29.8729097 C22.705301,30.4548524 23,31.160531 23,31.9899666 C23,32.9264261 22.7019897,33.6622047 22.1059603,34.1973244 C21.5099308,34.7324441 20.8145735,35 20.0198676,35 Z M20,27 C22,27 23,20.155796 23,14.9090909 C23,9.66238579 23,8 20,8 C17,8 17,9.66238579 17,14.9090909 C17,20.155796 18,27 20,27 Z" id="Combined-Shape" fill="#000000" fill-rule="nonzero"></path>
    </g>
</svg>