<?xml version="1.0" encoding="UTF-8"?>
<svg width="64px" height="64px" viewBox="0 0 64 64" version="1.1" xmlns="http://www.w3.org/2000/svg" xmlns:xlink="http://www.w3.org/1999/xlink">
    <title>ticket_type</title>
    <g id="ticket_type" stroke="none" stroke-width="1" fill="none" fill-rule="evenodd">
        <path d="M53,12 C53,15.4 56.675,18.8 60,18.8 L60,45.2 C56.5,45.2 53,48.77 53,52 L11,52 C11,48.77 7.5,45.2 4,45.2 L4,18.8 C7.5,18.8 11,15.4 11,12 L53,12 Z M49.916,16 L14.109,16 L14.0228863,16.1882029 C12.8546558,18.6461849 10.7407263,20.7103044 8.24178673,21.8488397 L8,21.955 L8,42.07 L8.22349445,42.1702032 C10.7189545,43.3284023 12.8417233,45.4189775 14.0165238,47.8665454 L14.078,48 L49.921,48 L49.9834762,47.8665454 C51.1582767,45.4189775 53.2810455,43.3284023 55.7765055,42.1702032 L56,42.069 L56,21.926 L55.8139712,21.8428585 C53.3256378,20.6981471 51.1847647,18.6257181 49.9965078,16.1710071 L49.916,16 Z" id="Path-32-path" fill="#000000" fill-rule="nonzero"></path>
        <path d="M24.5857864,20.5857864 C25.366835,19.8047379 26.633165,19.8047379 27.4142136,20.5857864 C28.1541543,21.3257272 28.1930986,22.5012114 27.5310463,23.2869988 L27.4142136,23.4142136 L18.829,32 L27.4142136,40.5857864 C28.1541543,41.3257272 28.1930986,42.5012114 27.5310463,43.2869988 L27.4142136,43.4142136 C26.6742728,44.1541543 25.4987886,44.1930986 24.7130012,43.5310463 L24.5857864,43.4142136 L14.5857864,33.4142136 C13.8458457,32.6742728 13.8069014,31.4987886 14.4689537,30.7130012 L14.5857864,30.5857864 L24.5857864,20.5857864 Z" id="Path-57" fill="#000000" fill-rule="nonzero"></path>
        <path d="M46.5857864,20.5857864 C47.366835,19.8047379 48.633165,19.8047379 49.4142136,20.5857864 C50.1541543,21.3257272 50.1930986,22.5012114 49.5310463,23.2869988 L49.4142136,23.4142136 L40.829,32 L49.4142136,40.5857864 C50.1541543,41.3257272 50.1930986,42.5012114 49.5310463,43.2869988 L49.4142136,43.4142136 C48.6742728,44.1541543 47.4987886,44.1930986 46.7130012,43.5310463 L46.5857864,43.4142136 L36.5857864,33.4142136 C35.8458457,32.6742728 35.8069014,31.4987886 36.4689537,30.7130012 L36.5857864,30.5857864 L46.5857864,20.5857864 Z" id="Path-57-Copy" fill="#000000" fill-rule="nonzero" transform="translate(43.000000, 32.000000) scale(-1, 1) translate(-43.000000, -32.000000) "></path>
    </g>
</svg>