<?xml version="1.0" encoding="UTF-8"?>
<svg width="64px" height="64px" viewBox="0 0 64 64" version="1.1" xmlns="http://www.w3.org/2000/svg" xmlns:xlink="http://www.w3.org/1999/xlink">
    <title>ticket</title>
    <g id="ticket" stroke="none" stroke-width="1" fill="none" fill-rule="evenodd">
        <g id="Group" transform="translate(4, 14)" fill="#000000" fill-rule="nonzero">
            <path d="M49,0 C49,3.6 52.675,7.2 56,7.2 L56,28.8 C52.5,28.8 49,32.58 49,36 L7,36 C7,32.58 3.5,28.8 0,28.8 L0,7.2 C3.5,7.2 7,3.6 7,0 L49,0 Z M45.916,4.23529412 L10.109,4.23529412 L10.0228863,4.43456776 C8.85465584,7.03713691 6.74072633,9.22267528 4.24178673,10.4281832 L4,10.5405882 L4,25.4858824 L4.22349445,25.5919798 C6.71895455,26.8183083 8.8417233,29.0318585 10.0165238,31.623401 L10.078,31.7647059 L45.921,31.7647059 L45.9834762,31.623401 C47.1582767,29.0318585 49.2810455,26.8183083 51.7765055,25.5919798 L52,25.4848235 L52,10.5098824 L51.8139712,10.4218502 C49.3256378,9.2098028 47.1847647,7.01546623 45.9965078,4.41636044 L45.916,4.23529412 Z" id="Path-32-path"></path>
            <path d="M46,14 L46,22 C46,24.209139 44.209139,26 42,26 L14,26 C11.790861,26 10,24.209139 10,22 L10,14 C10,11.790861 11.790861,10 14,10 L42,10 C44.209139,10 46,11.790861 46,14 Z M42,14 L14,14 L14,22 L42,22 L42,14 Z" id="Rectangle"></path>
        </g>
    </g>
</svg>