<?xml version="1.0" encoding="UTF-8"?>
<svg width="64px" height="64px" viewBox="0 0 64 64" version="1.1" xmlns="http://www.w3.org/2000/svg" xmlns:xlink="http://www.w3.org/1999/xlink">
    <title>tickets</title>
    <g id="tickets" stroke="none" stroke-width="1" fill="none" fill-rule="evenodd">
        <path d="M53,20 C53,23.4 56.675,26.8 60,26.8 L60,47.2 C56.5,47.2 53,50.77 53,54 L11,54 C11,50.77 7.5,47.2 4,47.2 L4,26.8 C7.5,26.8 11,23.4 11,20 L53,20 Z M49.916,24 L14.109,24 L14.0228863,24.1882029 C12.8546558,26.6461849 10.7407263,28.7103044 8.24178673,29.8488397 L8,29.955 L8,44.07 L8.22349445,44.1702032 C10.7189545,45.3284023 12.8417233,47.4189775 14.0165238,49.8665454 L14.078,50 L49.921,50 L49.9834762,49.8665454 C51.1582767,47.4189775 53.2810455,45.3284023 55.7765055,44.1702032 L56,44.069 L56,29.926 L55.8139712,29.8428585 C53.3256378,28.6981471 51.1847647,26.6257181 49.9965078,24.1710071 L49.916,24 Z" id="Path-32-path" fill="#000000" fill-rule="nonzero"></path>
        <path d="M50,33 L50,41 C50,43.209139 48.209139,45 46,45 L18,45 C15.790861,45 14,43.209139 14,41 L14,33 C14,30.790861 15.790861,29 18,29 L46,29 C48.209139,29 50,30.790861 50,33 Z M46,33 L18,33 L18,41 L46,41 L46,33 Z" id="Rectangle" fill="#000000" fill-rule="nonzero"></path>
        <path d="M50.7289438,9.61165647 C51.3193476,12.9600028 55.5289199,15.6701921 58.8034057,15.0928119 L60.6247123,25.4217242 C58.866767,24.9762264 57.1511111,23.7350748 55.9849914,22.1452348 L55.4069989,18.8659137 L55.2093589,18.8163389 C52.5600518,18.1211128 50.0918299,16.4519273 48.4953691,14.2408475 L48.3863894,14.0864185 L24.1490182,18.3596565 L9.44069473,18.0224378 C9.45502787,17.6460904 9.4317223,17.2718353 9.36701817,16.9048799 L50.7289438,9.61165647 Z" id="Shape" fill="#000000" fill-rule="nonzero"></path>
    </g>
</svg>