<?xml version="1.0" encoding="UTF-8"?>
<svg width="64px" height="64px" viewBox="0 0 64 64" version="1.1" xmlns="http://www.w3.org/2000/svg" xmlns:xlink="http://www.w3.org/1999/xlink">
    <title>tidy</title>
    <g id="tidy" stroke="none" stroke-width="1" fill="none" fill-rule="evenodd">
        <path d="M16.0388386,5.60776773 C15.9925747,5.83908764 15.9450747,6.06526233 15.8962039,6.28642658 L15.7453443,6.93502284 C14.4516638,12.2169776 12.2169776,14.4516638 6.93502284,15.7453443 L6.28642658,15.8962039 C6.06526233,15.9450747 5.83908764,15.9925747 5.60776773,16.0388386 C3.46407742,16.4675767 3.46407742,19.5324233 5.60776773,19.9611614 C5.83908764,20.0074253 6.06526233,20.0549253 6.28642658,20.1037961 L6.93502284,20.2546557 C12.2169776,21.5483362 14.4516638,23.7830224 15.7453443,29.0649772 L15.8962039,29.7135734 C15.9450747,29.9347377 15.9925747,30.1609124 16.0388386,30.3922323 C16.4675767,32.5359226 19.5324233,32.5359226 19.9611614,30.3922323 C20.0074253,30.1609124 20.0549253,29.9347377 20.1037961,29.7135734 L20.2546557,29.0649772 C21.5483362,23.7830224 23.7830224,21.5483362 29.0649772,20.2546557 L29.7135734,20.1037961 C29.9347377,20.0549253 30.1609124,20.0074253 30.3922323,19.9611614 C32.5359226,19.5324233 32.5359226,16.4675767 30.3922323,16.0388386 C30.1609124,15.9925747 29.9347377,15.9450747 29.7135734,15.8962039 L29.0649772,15.7453443 C23.7830224,14.4516638 21.5483362,12.2169776 20.2546557,6.93502284 L20.1037961,6.28642658 C20.0549253,6.06526233 20.0074253,5.83908764 19.9611614,5.60776773 C19.5324233,3.46407742 16.4675767,3.46407742 16.0388386,5.60776773 Z M18,12.409 L18.1051395,12.6124917 C19.348855,14.9509737 21.0490263,16.651145 23.3875083,17.8948605 L23.59,18 L23.3875083,18.1051395 C21.0490263,19.348855 19.348855,21.0490263 18.1051395,23.3875083 L18,23.59 L17.8948605,23.3875083 C16.651145,21.0490263 14.9509737,19.348855 12.6124917,18.1051395 L12.409,18 L12.6124917,17.8948605 C14.9509737,16.651145 16.651145,14.9509737 17.8948605,12.6124917 L18,12.409 Z" id="Path-221" fill="#000000" fill-rule="nonzero"></path>
        <path d="M42.0388386,13.6077677 L41.9632709,13.9771078 L41.806122,14.6938231 C40.2465863,21.4821958 37.4821958,24.2465863 30.6938231,25.806122 L29.9771078,25.9632709 C29.8552244,25.9887846 29.7321158,26.013969 29.6077677,26.0388386 C27.4640774,26.4675767 27.4640774,29.5324233 29.6077677,29.9611614 L29.9771078,30.0367291 L30.6938231,30.193878 C37.4821958,31.7534137 40.2465863,34.5178042 41.806122,41.3061769 L41.9632709,42.0228922 C41.9887846,42.1447756 42.013969,42.2678842 42.0388386,42.3922323 C42.4675767,44.5359226 45.5324233,44.5359226 45.9611614,42.3922323 L46.0367291,42.0228922 L46.193878,41.3061769 C47.7534137,34.5178042 50.5178042,31.7534137 57.3061769,30.193878 L58.0228922,30.0367291 C58.1447756,30.0112154 58.2678842,29.986031 58.3922323,29.9611614 C60.5359226,29.5324233 60.5359226,26.4675767 58.3922323,26.0388386 L58.0228922,25.9632709 L57.3061769,25.806122 C50.5178042,24.2465863 47.7534137,21.4821958 46.193878,14.6938231 L46.0367291,13.9771078 C46.0112154,13.8552244 45.986031,13.7321158 45.9611614,13.6077677 C45.5324233,11.4640774 42.4675767,11.4640774 42.0388386,13.6077677 Z M44,20.721 L44.0041038,20.7318904 C45.5298526,23.9941771 47.721723,26.2480666 50.9097663,27.8236105 L51.278,28 L51.2681096,28.0041038 C48.0058229,29.5298526 45.7519334,31.721723 44.1763895,34.9097663 L44,35.278 L43.9958962,35.2681096 C42.4701474,32.0058229 40.278277,29.7519334 37.0902337,28.1763895 L36.721,28 L36.7318904,27.9958962 C39.9941771,26.4701474 42.2480666,24.278277 43.8236105,21.0902337 L44,20.721 Z" id="Path-221-Copy" fill="#000000" fill-rule="nonzero"></path>
        <path d="M24.0388386,37.6077677 L23.9761849,37.9129252 L23.8453691,38.5007673 L23.7064599,39.0593946 C22.6797947,42.960351 20.960351,44.6797947 17.0593946,45.7064599 L16.5007673,45.8453691 L15.9129252,45.9761849 C15.812467,45.997363 15.7107541,46.0182414 15.6077677,46.0388386 C13.4640774,46.4675767 13.4640774,49.5324233 15.6077677,49.9611614 L15.9129252,50.0238151 L16.5007673,50.1546309 L17.0593946,50.2935401 C20.960351,51.3202053 22.6797947,53.039649 23.7064599,56.9406054 L23.8453691,57.4992327 L23.9761849,58.0870748 C23.997363,58.187533 24.0182414,58.2892459 24.0388386,58.3922323 C24.4675767,60.5359226 27.5324233,60.5359226 27.9611614,58.3922323 L28.0238151,58.0870748 L28.1546309,57.4992327 L28.2935401,56.9406054 C29.3202053,53.039649 31.039649,51.3202053 34.9406054,50.2935401 L35.4992327,50.1546309 L36.0870748,50.0238151 C36.187533,50.002637 36.2892459,49.9817586 36.3922323,49.9611614 C38.5359226,49.5324233 38.5359226,46.4675767 36.3922323,46.0388386 L36.0870748,45.9761849 L35.4992327,45.8453691 L34.9406054,45.7064599 C31.039649,44.6797947 29.3202053,42.960351 28.2935401,39.0593946 L28.1546309,38.5007673 L28.0238151,37.9129252 C28.002637,37.812467 27.9817586,37.7107541 27.9611614,37.6077677 C27.5324233,35.4640774 24.4675767,35.4640774 24.0388386,37.6077677 Z M25.999,44.037 L26.0513553,44.1274003 C27.0053005,45.7511883 28.2488117,46.9946995 29.8725997,47.9486447 L29.962,48 L29.8725997,48.0513553 C28.2488117,49.0053005 27.0053005,50.2488117 26.0513553,51.8725997 L26,51.962 L25.9486447,51.8725997 C24.9946995,50.2488117 23.7511883,49.0053005 22.1274003,48.0513553 L22.037,48 L22.1274003,47.9486447 C23.7511883,46.9946995 24.9946995,45.7511883 25.9486447,44.1274003 L25.999,44.037 Z" id="Path-221-Copy-2" fill="#000000" fill-rule="nonzero"></path>
    </g>
</svg>