<?xml version="1.0" encoding="UTF-8"?>
<svg width="64px" height="64px" viewBox="0 0 64 64" version="1.1" xmlns="http://www.w3.org/2000/svg" xmlns:xlink="http://www.w3.org/1999/xlink">
    <title>time</title>
    <g id="time" stroke="none" stroke-width="1" fill="none" fill-rule="evenodd">
        <path d="M32,4 C47.463973,4 60,16.536027 60,32 C60,47.463973 47.463973,60 32,60 C16.536027,60 4,47.463973 4,32 C4,16.536027 16.536027,4 32,4 Z M34.0004908,8.08218805 L34,10 C34,11.1045695 33.1045695,12 32,12 C30.8954305,12 30,11.1045695 30,10 L30.0005127,8.08210526 C27.0776407,8.3231746 24.3032727,9.08800089 21.7714751,10.2825176 L22.7320508,11.9474411 C23.2843356,12.9040264 22.9565852,14.1272072 22,14.6794919 C21.0434148,15.2317767 19.8202339,14.9040264 19.2679492,13.9474411 L18.3081491,12.286162 C15.9610196,13.9193761 13.9193761,15.9610196 12.286162,18.3081491 L13.9474411,19.2679492 C14.9040264,19.8202339 15.2317767,21.0434148 14.6794919,22 C14.1272072,22.9565852 12.9040264,23.2843356 11.9474411,22.7320508 L10.2825176,21.7714751 C9.08800089,24.3032727 8.3231746,27.0776407 8.08210526,30.0005127 L10,30 C11.1045695,30 12,30.8954305 12,32 C12,33.1045695 11.1045695,34 10,34 L8.08218805,34.0004908 C8.32334966,36.9229943 9.08813759,39.6970171 10.2825176,42.2285249 L11.9474411,41.2679492 C12.9040264,40.7156644 14.1272072,41.0434148 14.6794919,42 C15.2317767,42.9565852 14.9040264,44.1797661 13.9474411,44.7320508 L12.286162,45.6918509 C13.9193761,48.0389804 15.9610196,50.0806239 18.3081491,51.713838 L19.2679492,50.0525589 C19.8202339,49.0959736 21.0434148,48.7682233 22,49.3205081 C22.9565852,49.8727928 23.2843356,51.0959736 22.7320508,52.0525589 L21.7714751,53.7174824 C24.3032727,54.9119991 27.0776407,55.6768254 30.0005127,55.9178947 L30,54 C30,52.8954305 30.8954305,52 32,52 C33.1045695,52 34,52.8954305 34,54 L34.0004908,55.917812 C36.9229943,55.6766503 39.6970171,54.9118624 42.2285249,53.7174824 L41.2679492,52.0525589 C40.7156644,51.0959736 41.0434148,49.8727928 42,49.3205081 C42.9565852,48.7682233 44.1797661,49.0959736 44.7320508,50.0525589 L45.6918509,51.713838 C48.0389804,50.0806239 50.0806239,48.0389804 51.713838,45.6918509 L50.0525589,44.7320508 C49.0959736,44.1797661 48.7682233,42.9565852 49.3205081,42 C49.8727928,41.0434148 51.0959736,40.7156644 52.0525589,41.2679492 L53.7174824,42.2285249 C54.9118624,39.6970171 55.6766503,36.9229943 55.917812,34.0004908 L54,34 C52.8954305,34 52,33.1045695 52,32 C52,30.8954305 52.8954305,30 54,30 L55.9178947,30.0005127 C55.6768254,27.0776407 54.9119991,24.3032727 53.7174824,21.7714751 L52.0525589,22.7320508 C51.0959736,23.2843356 49.8727928,22.9565852 49.3205081,22 C48.7682233,21.0434148 49.0959736,19.8202339 50.0525589,19.2679492 L51.713838,18.3081491 C50.0806239,15.9610196 48.0389804,13.9193761 45.6918509,12.286162 L44.7320508,13.9474411 C44.1797661,14.9040264 42.9565852,15.2317767 42,14.6794919 C41.0434148,14.1272072 40.7156644,12.9040264 41.2679492,11.9474411 L42.2285249,10.2825176 C39.6970171,9.08813759 36.9229943,8.32334966 34.0004908,8.08218805 Z" id="Oval" fill="#000000" fill-rule="nonzero"></path>
        <path d="M42.2985799,13 C43.4031494,13 44.2985799,13.8954305 44.2985799,15 L44.2985799,32.4431158 C44.2985799,32.9894938 44.0794851,33.4846994 43.7243587,33.8456694 C43.6548294,33.9554061 43.5721838,34.0591672 43.4777698,34.1558047 L43.444854,34.1887206 L43.444854,34.1887206 L33.8910514,43.5227016 C33.1139385,44.2819339 31.8728444,44.2819339 31.0957316,43.5227016 L30.8537259,43.2862641 C30.0636408,42.5143579 30.0489039,41.2481137 30.8208101,40.4580285 C30.831654,40.4469293 30.8426267,40.4359566 30.8537259,40.4251127 L39.9084221,31.579 L39.9089567,15 C39.9089567,13.8954305 40.8043872,13 41.9089567,13 L42.2985799,13 Z" id="Combined-Shape" fill="#000000" transform="translate(37.149290, 28.745082) scale(-1, 1) translate(-37.149290, -28.745082) "></path>
    </g>
</svg>