<?xml version="1.0" encoding="UTF-8"?>
<svg width="64px" height="64px" viewBox="0 0 64 64" version="1.1" xmlns="http://www.w3.org/2000/svg" xmlns:xlink="http://www.w3.org/1999/xlink">
    <title>timeline</title>
    <g id="timeline" stroke="none" stroke-width="1" fill="none" fill-rule="evenodd">
        <path d="M34,44 L34,58 C34,59.1045695 33.1045695,60 32,60 C30.8954305,60 30,59.1045695 30,58 L30,52 L26,52 C26,54.209139 24.209139,56 22,56 L8,56 C5.790861,56 4,54.209139 4,52 L4,48 C4,45.790861 5.790861,44 8,44 L22,44 C24.209139,44 26,45.790861 26,48 L30,48 L30,34 L26,34 C26,36.209139 24.209139,38 22,38 L8,38 C5.790861,38 4,36.209139 4,34 L4,30 C4,27.790861 5.790861,26 8,26 L22,26 C24.209139,26 26,27.790861 26,30 L30,30 L30,16 L26,16 C26,18.209139 24.209139,20 22,20 L8,20 C5.790861,20 4,18.209139 4,16 L4,12 C4,9.790861 5.790861,8 8,8 L22,8 C24.209139,8 26,9.790861 26,12 L30,12 L30,6 C30,4.8954305 30.8954305,4 32,4 C33.1045695,4 34,4.8954305 34,6 L34,20 L38,20 C38,17.790861 39.790861,16 42,16 L56,16 C58.209139,16 60,17.790861 60,20 L60,24 C60,26.209139 58.209139,28 56,28 L42,28 C39.790861,28 38,26.209139 38,24 L34,24 L34,40 L38,40 C38,37.790861 39.790861,36 42,36 L56,36 C58.209139,36 60,37.790861 60,40 L60,44 C60,46.209139 58.209139,48 56,48 L42,48 C39.790861,48 38,46.209139 38,44 L34,44 Z M22,48 L8,48 L8,52 L22,52 L22,48 Z M56,40 L42,40 L42,44 L56,44 L56,40 Z M22,30 L8,30 L8,34 L22,34 L22,30 Z M56,20 L42,20 L42,24 L56,24 L56,20 Z M22,12 L8,12 L8,16 L22,16 L22,12 Z" id="Combined-Shape" fill="#000000"></path>
    </g>
</svg>