<svg xmlns="http://www.w3.org/2000/svg" width="32" height="32" viewBox="0 0 32 32">
  <g fill="none" fill-rule="evenodd">
    <path fill="#000" fill-rule="nonzero" d="M19,2 C19.5522847,2 20,2.44771525 20,3 C20,3.55228475 19.5522847,4 19,4 L17,4 L17.0004669,6.0411123 C18.8210919,6.19138191 20.5264647,6.74807886 22.0256464,7.62026435 L22.9158883,6.35044761 C22.4634831,6.03367009 22.3535352,5.41012431 22.6703127,4.95771913 C22.9870902,4.50531395 23.610636,4.395366 24.0630412,4.71214352 L25.7013453,5.8592964 C26.1537505,6.17607391 26.2636984,6.79961969 25.9469209,7.25202488 C25.6301434,7.70443006 25.0065976,7.814378 24.5541924,7.49760048 L23.6653805,8.76693935 C26.3137845,10.9681048 28,14.287134 28,18 C28,24.627417 22.627417,30 16,30 C9.372583,30 4,24.627417 4,18 C4,14.2897382 5.68385092,10.9727609 8.32904815,8.77157271 L7.43678268,7.49760048 C6.98437749,7.814378 6.36083171,7.70443006 6.0440542,7.25202488 C5.72727668,6.79961969 5.83722462,6.17607391 6.2896298,5.8592964 L7.92793389,4.71214352 C8.38033907,4.395366 9.00388485,4.50531395 9.32066237,4.95771913 C9.63743989,5.41012431 9.52749195,6.03367009 9.07508677,6.35044761 L9.96692241,7.62459119 C11.4681737,6.74975987 13.1765247,6.19142583 15.0005348,6.04102967 L15,4 L13,4 C12.4477153,4 12,3.55228475 12,3 C12,2.44771525 12.4477153,2 13,2 L19,2 Z M16,8 C10.4771525,8 6,12.4771525 6,18 C6,23.5228475 10.4771525,28 16,28 C21.5228475,28 26,23.5228475 26,18 C26,12.4771525 21.5228475,8 16,8 Z"/>
    <rect width="2" height="9" x="15" y="10" fill="#000" rx="1"/>
  </g>
</svg>
