<?xml version="1.0" encoding="UTF-8"?>
<svg width="64px" height="64px" viewBox="0 0 64 64" version="1.1" xmlns="http://www.w3.org/2000/svg" xmlns:xlink="http://www.w3.org/1999/xlink">
    <title>time_entry</title>
    <g id="time_entry" stroke="none" stroke-width="1" fill="none" fill-rule="evenodd">
        <path d="M53.6666667,16 C56.0599006,16 58,17.1005051 58,20 L58,56 C58,58.8994949 56.3932339,60 54,60 L10,60 C7.60676608,60 6,58.8994949 6,56 L6,20 C6,17.1005051 7.94009942,16 10.3333333,16 L15,16 L15,20 L10,20 L10,56 L54,56 L54,20 L49,20 L49,16 L53.6666667,16 Z" id="Rectangle" fill="#000000" fill-rule="nonzero"></path>
        <path d="M32,24 C40.2842712,24 47,30.7157288 47,39 C47,47.2842712 40.2842712,54 32,54 C23.7157288,54 17,47.2842712 17,39 C17,30.7157288 23.7157288,24 32,24 Z M32,26 C30.8954305,26 30,26.8954305 30,28 L30,28 L30,39 L30.0077406,39.1758528 C30.0488544,39.6418293 30.2523884,40.0808156 30.5857864,40.4142136 L30.5857864,40.4142136 L35.5857864,45.4142136 L35.7130012,45.5310463 C36.4987886,46.1930986 37.6742728,46.1541543 38.4142136,45.4142136 L38.4142136,45.4142136 L38.5310463,45.2869988 C39.1930986,44.5012114 39.1541543,43.3257272 38.4142136,42.5857864 L38.4142136,42.5857864 L34,38.171 L34,28 L33.9945143,27.8507377 C33.9181651,26.8158778 33.0543618,26 32,26 Z" id="Oval" fill="#000000" fill-rule="nonzero"></path>
        <path d="M42,4 L16,4 L16,22 L48,22 L48,10 L42,4 Z M40,8 L43.9488326,11.965 L44,18 L20,18 L20,8 L40,8 Z" id="Rectangle" fill="#000000" fill-rule="nonzero"></path>
    </g>
</svg>