<?xml version="1.0" encoding="UTF-8"?>
<svg width="64px" height="64px" viewBox="0 0 64 64" version="1.1" xmlns="http://www.w3.org/2000/svg" xmlns:xlink="http://www.w3.org/1999/xlink">
    <title>toolbox</title>
    <g id="toolbox" stroke="none" stroke-width="1" fill="none" fill-rule="evenodd">
        <path d="M14.5087362,9.8144951 C16.6383742,8.40634954 19.3485036,7.82915795 22.5665468,8.04369417 C27.3559978,8.36299089 29.9793811,9.51294396 32.9845045,12.3669072 L32.9845045,12.3669072 L33.4311478,12.7996096 L33.6541332,13.0210282 C35.7254743,15.0923693 37.3310395,18.1668995 38.5249945,22.232453 C39.0768052,24.1114316 36.8788288,25.5817977 35.3527155,24.354592 L35.3527155,24.354592 L34.714098,23.8409078 L33.7964567,23.1229651 L33.2118838,22.6795187 L32.6493825,22.2643295 L32.0960431,21.8682564 L31.7522329,21.6288237 L31.0814862,21.1786968 L30.4020629,20.7485867 L29.9467357,20.4779815 C29.8739205,20.4359294 29.8024032,20.3952806 29.7322086,20.3560036 L29.7322086,20.3560036 L29.3271116,20.13655 C29.262307,20.1026336 29.1988746,20.0700258 29.1368393,20.0386948 L29.1368393,20.0386948 L28.7815913,19.8657792 L28.4610645,19.7219916 L28.1764498,19.6058142 C28.1320728,19.5886679 28.0892418,19.5726087 28.0479816,19.5576051 L28.0479816,19.5576051 L27.8194676,19.4799974 C27.7845896,19.4690896 27.751332,19.4591741 27.7197196,19.4502193 L27.7197196,19.4502193 L27.5499858,19.4077661 C27.4253236,19.3815739 27.3430315,19.3778182 27.3062105,19.3925466 C26.6221685,19.6661634 26.1723328,20.6558021 26.1723328,22.7960054 L26.1723328,22.7960054 L26.172,33 L22.172,33 L22.1723328,22.7960054 C22.1723328,19.4191813 23.1799694,16.9944237 25.3734376,15.8808358 L25.5967438,15.7738608 L25.8206478,15.6786399 C27.3412672,15.0703921 29.1330616,15.4860886 31.3933204,16.7051169 L31.3933204,16.7051169 L31.715,16.882 L31.6085503,16.7409908 C31.4193707,16.4973717 31.2261814,16.2702549 31.0291137,16.0596247 L31.0291137,16.0596247 L30.8307582,15.8544894 L30.6307314,15.6556626 L30.216013,15.2539606 C27.9016737,13.0561346 26.1585475,12.2920399 22.3004708,12.0348348 C19.4326604,11.8436474 17.3666795,12.4339387 15.973814,13.7361423 C15.4380986,14.2369879 14.6712312,14.4044609 13.9754916,14.1725477 L13.9754916,14.1725477 L8.545,12.362 L8,12.362 L8,16.97 L8.542,16.97 L13.9754916,15.1600074 C14.2021456,15.084456 14.4400337,15.0502788 14.6778471,15.0585956 L14.6778471,15.0585956 L14.8560166,15.0728182 C18.4509637,15.5221866 20.4337014,18.0006087 20.4337014,21.8395668 L20.4337014,21.8395668 L20.433,33 L16.433,33 L16.4337014,21.8395668 C16.4337014,20.2321509 16.027195,19.4767231 14.9897064,19.168278 L14.8442986,19.1289498 L14.768,19.111 L9.50177124,20.8676177 C9.34882153,20.9186009 9.1904575,20.9508406 9.03014683,20.963774 L9.03014683,20.963774 L8.8693157,20.9702511 L6,20.9702511 C4.8954305,20.9702511 4,20.0748206 4,18.9702511 L4,18.9702511 L4,10.362304 C4,9.25773449 4.8954305,8.36230399 6,8.36230399 L6,8.36230399 L8.8693157,8.36230399 C9.08427989,8.36230399 9.2978383,8.39695975 9.50177123,8.46493739 L9.50177123,8.46493739 L14.197,10.029 Z M52.5526681,4.05600885 L52.8083923,4.08831128 L53.0514901,4.12447435 C53.2804545,4.16087408 53.5006691,4.23947488 53.7009347,4.35627954 C56.0405989,5.72088527 58.928842,9.90756576 59.7793904,13.9018348 L59.8454971,14.2341805 L59.8621181,14.3415089 C60.1153862,16.3630061 59.4485687,18.1243935 58.1006189,19.7893392 L57.9034469,20.0265501 L57.5862665,20.3868572 L57.5223224,20.4565898 L57.2577118,20.7354043 L56.9686844,21.0250431 L56.4593718,21.5119106 L55.7653309,22.1565312 L55.3318233,22.5697394 L55.1487275,22.7526863 L55.0162729,22.8932614 L54.9476521,22.972651 L54.9277849,23.0786638 L54.9076142,23.2097722 L54.8711805,23.5081615 L54.8549204,23.6756506 L54.8263208,24.0477386 L54.8139843,24.2525456 L54.793245,24.7002066 L54.7777605,25.1992907 L54.7644117,26.0461577 L54.7631825,26.7596967 L54.833,33 L50.833,33 L50.7631884,26.7528056 L50.7649086,25.9831157 L50.7796843,25.0752467 L50.7975307,24.5150927 L50.8212211,24.0120419 L50.8380844,23.7411931 L50.8736379,23.2891409 L50.9006686,23.0233572 L50.954128,22.6015398 L50.9962279,22.3418737 L51.0160951,22.2358609 C51.1301181,21.6274274 51.3835525,21.0549785 51.7550545,20.5628108 L51.9214361,20.3569261 L52.105009,20.1501715 L52.2374635,20.0095964 L52.5719987,19.6743347 L53.0431771,19.2256817 L53.6953739,18.6204895 L54.1372704,18.1996059 L54.392,17.944 L54.6386787,17.6835161 L54.859834,17.4310886 C55.6703227,16.480655 55.9583027,15.7666945 55.9088431,15.0032318 L55.898,14.891 L55.8566161,14.6871279 C55.3719585,12.4835065 53.910724,9.94035079 52.6117149,8.58318629 L52.553,8.524 L52.7106772,9.0628235 L52.8528973,9.52213226 L52.9449152,9.80550995 L53.1323288,10.3565442 L53.3436306,10.9405014 C53.9512111,12.6196208 53.3707798,14.4888571 51.94147,15.5317981 L51.7092447,15.69001 L51.6181274,15.7479042 C51.265245,15.9654911 50.9043123,16.160856 50.4988009,16.3462914 L50.185738,16.4836983 L49.9189062,16.5893267 C49.2499562,16.8402831 48.5770106,16.9982405 47.89244,17.0441061 L47.5491507,17.0576095 L47.3649521,17.0554996 L47.2461096,17.0514 C45.4155393,16.988253 43.8712334,15.6920688 43.4789426,13.9203013 L43.4401395,13.7215196 L43.3717986,13.3149982 L43.2507002,12.6597672 L43.0810517,11.8149667 L42.944,11.194 L42.8536124,11.3525775 C42.0943321,12.7305508 41.8134545,14.3192474 42.1333567,15.8782447 L42.169,16.034 L42.2436152,16.2284775 C42.3630701,16.5147861 42.5132924,16.8089871 42.6943683,17.1100847 L42.8857319,17.4134444 L42.9683165,17.5383512 L43.1907551,17.8574304 L43.3288521,18.045168 L43.4461787,18.1984457 L43.704,18.516 L43.9295406,18.7800012 L44.2319233,19.1200863 L44.8316804,19.7694848 L45.6273106,20.624726 L45.7518971,20.7651122 L45.9983485,21.0587526 L46.0299029,21.0982361 C46.1964695,21.3066575 46.3414847,21.530868 46.4630139,21.7673914 L46.547,21.946 L46.568162,21.9817 C46.6319878,22.0908228 46.6905866,22.2028792 46.7437701,22.3174876 L46.8194604,22.4912664 L46.8610744,22.5933496 C46.9048755,22.7007981 46.9439701,22.8100761 46.9782542,22.9208713 L47.0260593,23.088163 L47.0984827,23.3816806 L47.1333135,23.5668537 L47.1644396,23.7568627 L47.1845861,23.8948924 L47.2306337,24.3643287 L47.2434454,24.5481383 L47.2782523,25.325154 L47.3056758,26.6995401 L47.3267363,29.4862681 L47.3389114,32.9935479 L47.338,33 L43.338,33 L43.3267604,29.5001535 L43.3057904,26.7298173 L43.2790669,25.4058766 L43.2477791,24.7342872 L43.217053,24.4034991 L43.1859269,24.2134901 L43.1570158,24.1033 L43.1154018,24.0012167 L42.9921744,23.7905352 L42.9207019,23.6391251 L42.9051807,23.5954568 L42.698661,23.3492464 L41.9030309,22.4940053 L41.2934935,21.8340557 L40.9438826,21.4419266 L40.6298505,21.0750747 L40.3429807,20.7223637 L40.1405906,20.4604111 L39.9451945,20.1954503 L39.6894088,19.8293694 L39.5611813,19.6377113 C39.1230977,18.9740278 38.763698,18.3046582 38.4908059,17.6183398 L38.361605,17.273716 L38.3106879,17.1038963 C37.3057778,13.066543 38.8508766,9.25569708 41.3314874,6.81181585 C42.2594927,5.91565158 43.4121486,5.80355409 44.4583878,6.22204139 C44.6130285,6.28389644 44.7261213,6.33661333 44.85333,6.40562546 L45.1430619,6.57291256 C45.3367028,6.68862206 45.5078441,6.83836681 45.6482386,7.01493086 C45.9090599,7.34294683 46.1506157,7.87871158 46.3780079,8.57811 L46.462626,8.84796857 L46.5983842,9.32129384 L46.731009,9.83204707 L46.8607622,10.377963 L46.9879059,10.9567766 L47.0505811,11.257812 L47.1743018,11.8817246 L47.3048419,12.586184 L47.3840108,13.0537778 L47.5028533,13.0578774 C47.7464654,13.0550576 48.0104374,13.0088818 48.295837,12.9194127 L48.5139211,12.8441943 L48.7018681,12.7691148 C48.8849949,12.6916438 49.0681264,12.6014368 49.2491203,12.501039 L49.5187403,12.3431173 L49.5822973,12.30152 L49.3709955,11.7175628 L49.2033735,11.2299162 L49.0422756,10.7383404 L48.8900036,10.2470758 L48.7283834,9.69755647 L48.5872745,9.18796167 C48.1771692,7.6440714 48.098058,6.65893772 48.5961323,5.90416291 L48.6900695,5.77329178 L48.7756666,5.66906677 L48.8464713,5.49179992 C49.3915835,4.25397946 50.6225242,3.83598248 52.5526681,4.05600885 Z" id="Combined-Shape" fill="#000000" fill-rule="nonzero"></path>
        <path d="M58,34 C59.1045695,34 60,34.8954305 60,36 L60,56 C60,58.209139 58.209139,60 56,60 L8,60 C5.790861,60 4,58.209139 4,56 L4,36 C4,34.8954305 4.8954305,34 6,34 L28,34 L28,38 L8,38 L8,56 L56,56 L56,38 L36,38 L36,34 L58,34 Z" id="Rectangle" fill="#000000" fill-rule="nonzero"></path>
        <rect id="Rectangle" fill="#000000" x="29" y="32" width="6" height="8" rx="2"></rect>
    </g>
</svg>