<?xml version="1.0" encoding="UTF-8"?>
<svg width="64px" height="64px" viewBox="0 0 64 64" version="1.1" xmlns="http://www.w3.org/2000/svg" xmlns:xlink="http://www.w3.org/1999/xlink">
    <title>tqi</title>
    <g id="tqi" stroke="none" stroke-width="1" fill="none" fill-rule="evenodd">
        <path d="M42,16 C42.8526077,16 43.7052154,16.36347 44.4028745,16.9354612 L41.7680094,20.5130617 C41.5439965,20.2018189 41.1784464,20 40.7639905,20 L40.7639905,20 L11.2360095,20 C10.5509008,20 10,20.5512564 10,21.2360095 L10,21.2360095 L10,50.7639905 C10,51.4490992 10.5512564,52 11.2360095,52 L11.2360095,52 L40.7639905,52 C41.4490992,52 42,51.4487436 42,50.7639905 L42,50.7639905 L42,37.06 L46,31.628 L46,52 C46,53.9393939 44.1193756,55.8787879 42.1817625,55.994546 L42,56 L10,56 C8,56 6,54 6,52 L6,52 L6,20 C6,18 8,16 10,16 L10,16 Z" id="Rectangle-15" fill="#000000" fill-rule="nonzero"></path>
        <path d="M19.8119292,28.2328021 L31.4630171,41.8002988 C32.7196609,43.2636395 35.0108272,43.1779214 36.1546169,41.6247747 L57.49474,12.6471218 C58.4772313,11.3130015 58.1921796,9.4350168 56.8580594,8.4525255 C55.5239391,7.4700342 53.6459544,7.7550859 52.6634631,9.0892061 L31.32334,38.0668591 L36.0149399,37.891335 L24.3638521,24.3238383 C23.2844215,23.0668595 21.3903875,22.9229282 20.1334087,24.0023588 C18.8764299,25.0817893 18.7324986,26.9758233 19.8119292,28.2328021 L19.8119292,28.2328021 Z" id="Shape" fill="#000000" fill-rule="nonzero"></path>
    </g>
</svg>