<?xml version="1.0" encoding="UTF-8"?>
<svg width="64px" height="64px" viewBox="0 0 64 64" version="1.1" xmlns="http://www.w3.org/2000/svg" xmlns:xlink="http://www.w3.org/1999/xlink">
    <title>tracker</title>
    <g id="tracker" stroke="none" stroke-width="1" fill="none" fill-rule="evenodd">
        <path d="M32,4 C33.1045695,4 34,4.8954305 34,6 L34.0004908,8.08218805 C45.6600261,9.04431942 54.9562416,18.3408418 55.9178947,30.0005127 L58,30 C59.1045695,30 60,30.8954305 60,32 C60,33.1045695 59.1045695,34 58,34 L55.917812,34.0004908 C54.9557082,45.6596916 45.6596916,54.9557082 34.0004908,55.917812 L34,58 C34,59.1045695 33.1045695,60 32,60 C30.8954305,60 30,59.1045695 30,58 L30.0005127,55.9178947 C18.3408418,54.9562416 9.04431942,45.6600261 8.08218805,34.0004908 L6,34 C4.8954305,34 4,33.1045695 4,32 C4,30.8954305 4.8954305,30 6,30 L8.08210526,30.0005127 C9.04378602,18.3405073 18.3405073,9.04378602 30.0005127,8.08210526 L30,6 C30,4.8954305 30.8954305,4 32,4 Z M34.0009781,12.0988476 L34,14 C34,15.1045695 33.1045695,16 32,16 C30.8954305,16 30,15.1045695 30,14 L30.0000201,12.0987485 C20.551171,13.0368778 13.0368778,20.551171 12.0987485,30.0000201 L14,30 C15.1045695,30 16,30.8954305 16,32 C16,33.1045695 15.1045695,34 14,34 L12.0988476,34.0009781 C13.037407,43.4493582 20.5515038,50.9631553 30.0000201,51.9012515 L30,50 C30,48.8954305 30.8954305,48 32,48 C33.1045695,48 34,48.8954305 34,50 L34.0009781,51.9011524 C43.4490254,50.9626261 50.9626261,43.4490254 51.9011524,34.0009781 L50,34 C48.8954305,34 48,33.1045695 48,32 C48,30.8954305 48.8954305,30 50,30 L51.9012515,30.0000201 C50.9631553,20.5515038 43.4493582,13.037407 34.0009781,12.0988476 Z M32,22 C37.5228475,22 42,26.4771525 42,32 C42,37.5228475 37.5228475,42 32,42 C26.4771525,42 22,37.5228475 22,32 C22,26.4771525 26.4771525,22 32,22 Z M32,26 C28.6862915,26 26,28.6862915 26,32 C26,35.3137085 28.6862915,38 32,38 C35.3137085,38 38,35.3137085 38,32 C38,28.6862915 35.3137085,26 32,26 Z" id="Combined-Shape" fill="#000000" fill-rule="nonzero"></path>
    </g>
</svg>