<?xml version="1.0" encoding="UTF-8"?>
<svg width="64px" height="64px" viewBox="0 0 64 64" version="1.1" xmlns="http://www.w3.org/2000/svg" xmlns:xlink="http://www.w3.org/1999/xlink">
    <title>tracking</title>
    <g id="tracking" stroke="none" stroke-width="1" fill="none" fill-rule="evenodd">
        <path d="M58,6 C59.1045695,6 60,6.8954305 60,8 L60,8 L60,56 C60,57.1045695 59.1045695,58 58,58 L58,58 L6,58 C4.8954305,58 4,57.1045695 4,56 L4,56 L4,8 C4,6.8954305 4.8954305,6 6,6 L6,6 Z M56,22 L8,22 L8,54 L56,54 L56,22 Z M56,10 L8,10 L8,18 L56,18 L56,10 Z M52,12 C53.1045695,12 54,12.8954305 54,14 C54,15.1045695 53.1045695,16 52,16 C50.8954305,16 50,15.1045695 50,14 C50,12.8954305 50.8954305,12 52,12 Z M46,12 C47.1045695,12 48,12.8954305 48,14 C48,15.1045695 47.1045695,16 46,16 C44.8954305,16 44,15.1045695 44,14 C44,12.8954305 44.8954305,12 46,12 Z M40,12 C41.1045695,12 42,12.8954305 42,14 C42,15.1045695 41.1045695,16 40,16 C38.8954305,16 38,15.1045695 38,14 C38,12.8954305 38.8954305,12 40,12 Z" id="browser" fill="#000000" fill-rule="nonzero"></path>
        <path d="M32,25 C23.3350344,25 16.0792284,28.9906933 10.3825278,36.8236566 C9.87249072,37.5249576 9.87249072,38.4750424 10.3825278,39.1763434 C16.0792284,47.0093067 23.3350344,51 32,51 C40.6649656,51 47.9207716,47.0093067 53.6174722,39.1763434 C54.1275093,38.4750424 54.1275093,37.5249576 53.6174722,36.8236566 C47.9207716,28.9906933 40.6649656,25 32,25 Z M32,29 L32.421781,29.0037096 C39.0078586,29.1199605 44.5689868,31.9692723 49.2158835,37.6612389 L49.488,37.999 L49.2158835,38.3387611 C44.4701167,44.1518333 38.770801,47 32,47 L31.578219,46.9962904 C24.9921414,46.8800395 19.4310132,44.0307277 14.7841165,38.3387611 L14.511,38 L14.7841165,37.6612389 C19.5298833,31.8481667 25.229199,29 32,29 Z" id="Path-261" fill="#000000" fill-rule="nonzero"></path>
        <path d="M32,30 C36.418278,30 40,33.581722 40,38 C40,42.418278 36.418278,46 32,46 C27.581722,46 24,42.418278 24,38 C24,33.581722 27.581722,30 32,30 Z M32,34 C29.790861,34 28,35.790861 28,38 C28,40.209139 29.790861,42 32,42 C34.209139,42 36,40.209139 36,38 C36,35.790861 34.209139,34 32,34 Z" id="Oval" fill="#000000" fill-rule="nonzero"></path>
    </g>
</svg>