<?xml version="1.0" encoding="UTF-8"?>
<svg width="64px" height="64px" viewBox="0 0 64 64" version="1.1" xmlns="http://www.w3.org/2000/svg" xmlns:xlink="http://www.w3.org/1999/xlink">
    <title>training_course</title>
    <g id="training_course" stroke="none" stroke-width="1" fill="none" fill-rule="evenodd">
        <g id="Students" transform="translate(23.261800, 39.000000)" fill="#000000" fill-rule="nonzero">
            <g id="Student-3" transform="translate(26.000000, 0.000000)">
                <ellipse id="Oval-27" cx="5.73820021" cy="3.5" rx="3" ry="3.5"></ellipse>
                <polygon id="Path-153" points="5.75838154 7.79695256 7.83776211 7.79695256 9.14621525 8.29056925 10.3403969 9 11.3495848 10.225086 11.5493349 11.3995626 11.5493349 14.4669864 11.3495848 14.6809529 10.7496147 15.0021727 0.930727503 15.0021727 0.356850858 14.6809529 -1.66533454e-16 14.4669864 -1.66533454e-16 11.3995626 0.356850858 10.225086 1.24744838 9 2.31098271 8.29056925 3.74324493 7.79695256"></polygon>
            </g>
            <g id="Student-2" transform="translate(13.000000, 0.000000)">
                <ellipse id="Oval-27" cx="5.73820021" cy="3.5" rx="3" ry="3.5"></ellipse>
                <polygon id="Path-153" points="5.75838154 7.79695256 7.83776211 7.79695256 9.14621525 8.29056925 10.3403969 9 11.3495848 10.225086 11.5493349 11.3995626 11.5493349 14.4669864 11.3495848 14.6809529 10.7496147 15.0021727 0.930727503 15.0021727 0.356850858 14.6809529 -1.66533454e-16 14.4669864 -1.66533454e-16 11.3995626 0.356850858 10.225086 1.24744838 9 2.31098271 8.29056925 3.74324493 7.79695256"></polygon>
            </g>
            <g id="Student-1" transform="translate(-0.000000, 0.000000)">
                <ellipse id="Oval-27" cx="5.73820021" cy="3.5" rx="3" ry="3.5"></ellipse>
                <polygon id="Path-153" points="5.75838154 7.79695256 7.83776211 7.79695256 9.14621525 8.29056925 10.3403969 9 11.3495848 10.225086 11.5493349 11.3995626 11.5493349 14.4669864 11.3495848 14.6809529 10.7496147 15.0021727 0.930727503 15.0021727 0.356850858 14.6809529 -1.66533454e-16 14.4669864 -1.66533454e-16 11.3995626 0.356850858 10.225086 1.24744838 9 2.31098271 8.29056925 3.74324493 7.79695256"></polygon>
            </g>
        </g>
        <g id="White-Board" transform="translate(16.094648, 10.834187)" fill="#000000" fill-rule="nonzero">
            <path d="M1.62370117e-15,0.615815467 L1.62370117e-15,2.33146835e-15 L0.441702625,2.33146835e-15 L11.3272649,2.33146835e-15 L12.9490343,2.33146835e-15 L16.7023104,2.33146835e-15 L18.2265881,2.33146835e-15 L28.14187,2.33146835e-15 L29.0752173,2.33146835e-15 L30.0765993,0.315950457 L31.2040326,0.998690527 L31.7919725,1.92515955 L32.0078895,2.79794838 L32.0078895,3.78901304 L32.0078895,8.87950869 L32.0078895,12.1012165 L32.0078895,16.3509221 L32.0078895,18.9531397 L33.510051,18.9531397 C33.8351541,19.0043775 34.0527797,19.0754914 34.1629279,19.1664815 C34.2730761,19.2574716 34.3401393,19.4215306 34.3641176,19.6586586 L34.3641176,20.0799333 L34.3641176,20.5836275 L34.3641176,20.9341799 L33.8064369,20.9341799 L33.2075465,20.9341799 L31.4076362,20.9341799 L25.7422914,21.1233127 L17.3677234,21.1233127 L11.0865724,21.1233127 L7.3188536,21.1233127 L1.30313634,21.1233127 L1.30313634,18.9531397 L16.1933367,18.9531397 L25.4707392,18.9531397 L30.503362,18.9531397 L30.503362,6.10678381 L30.503362,3.78901304 L30.503362,2.79794838 L30.503362,2.41104701 C30.2987205,2.16394592 30.1564663,2.00198343 30.0765993,1.92515955 C29.9967324,1.84833566 29.7377469,1.70845355 29.2996427,1.50551322 L28.14187,1.23468087 L25.4707392,1.23468087 L13.2588098,1.23468087 L7.99944359,1.23468087 L2.50199686,1.23468087 L0.670954263,1.23468087 L1.62370117e-15,1.23468087 L1.62370117e-15,0.615815467 Z" id="Path-152"></path>
            <polygon id="Path-154" points="3.89664848 20.1443674 2.34849521 31.5024102 5.77663885 31.5024102 6.8356743 24.1683422 22.3967471 24.1683422 22.6985317 25.8233888 24.6143331 25.3348108 26.3132887 25.3348108 25.7732436 20.1443674 22.0701287 20.1443674 22.3967471 23.1922661 7.1671515 23.1922661 7.52634177 20.1443674"></polygon>
        </g>
        <g id="Instructor" transform="translate(4.255763, 8.000000)" fill="#000000" fill-rule="nonzero">
            <path d="M5.80230152,8.82798648 L3.59042393,6.88975033 L2.35455714,6.88975033 L1.31536296,7.14363261 L0.401846257,7.61302764 L3.33066907e-16,8.35997 L3.33066907e-16,17.4158706 L0.401846257,18.1384587 L0.947980364,18.7349097 L0.947980364,33.8226398 L1.15667994,34.772688 L1.67870549,35.3928041 L2.61157721,35.3928041 L3.59042393,35.3928041 L4.25442375,34.772688 L4.51864513,33.8226398 L5.4512436,24 L5.80230152,23.3277666 L6.24358694,24 L7.27504852,33.8226398 L7.64196302,34.772688 L8.27679219,35.3928041 C8.63372575,35.3928041 8.88737827,35.3928041 9.03774977,35.3928041 C9.18812127,35.3928041 9.4243888,35.3928041 9.7465523,35.3928041 L10.2162191,34.9808373 C10.3677323,34.739901 10.4609873,34.5739261 10.495984,34.4829126 C10.5309807,34.3918991 10.5829952,34.1718082 10.6520275,33.8226398 L10.6520275,11.2369962 L12.7276588,12.8944684 L13.311128,13.0646716 L14.0124094,13.0646716 L16.6944259,11.5598058 L18.814205,10.5105386 C19.2998934,10.215123 19.566018,10.0166768 19.6125787,9.91520002 C19.6591395,9.81372319 19.6591395,9.45131868 19.6125787,8.82798648 L19.2922062,8.35997 C18.9812288,8.22240806 18.7487733,8.10241806 18.5948398,8 C18.4409063,7.89758194 18.1636742,7.89758194 17.7631435,8 L16.5280509,8.58559163 L13.773516,9.91520002 L11.744066,7.98431612 L10.6520275,7.14363261 L9.03774977,6.88975033 L8.01892047,6.88975033 L5.80230152,8.82798648 Z" id="Path-150"></path>
            <ellipse id="Oval-27" cx="5.7442373" cy="3.5" rx="3" ry="3.5"></ellipse>
        </g>
    </g>
</svg>