<?xml version="1.0" encoding="UTF-8"?>
<svg width="64px" height="64px" viewBox="0 0 64 64" version="1.1" xmlns="http://www.w3.org/2000/svg" xmlns:xlink="http://www.w3.org/1999/xlink">
    <title>trends</title>
    <g id="trends" stroke="none" stroke-width="1" fill="none" fill-rule="evenodd">
        <path d="M10,4 C11.1045695,4 12,4.8954305 12,6 C12,7.1045695 11.1045695,8 10,8 L10,31 L26.557,31 L30.1026334,20.3675445 C30.6484831,18.7299955 32.8483564,18.5236942 33.7097705,19.9613097 L33.7888544,20.1055728 L39.235,31 L56,31 L56,35 L41.235,35 L41.642,35.813 L49.186,43.357 L56.8944272,47.2111456 C57.8353386,47.6816013 58.2433627,48.7936603 57.8533713,49.7519383 L57.7888544,49.8944272 C57.3183987,50.8353386 56.2063397,51.2433627 55.2480617,50.8533713 L55.1055728,50.7888544 L47.1055728,46.7888544 C46.9613704,46.7167532 46.8265933,46.6275698 46.7040912,46.5233583 L46.5857864,46.4142136 L38.5857864,38.4142136 C38.4717845,38.3002116 38.3721259,38.1729845 38.2888648,38.0353823 L38.2111456,37.8944272 L36.764,35 L29.441,35 L25.8973666,45.6324555 C25.4615795,46.9398168 23.8774325,47.4123761 22.8004808,46.6006528 L22.6829908,46.5051534 L16.359,40.973 L10.6384638,49.1469247 C10.4653266,49.3942636 10.2463442,49.5904382 10.001035,49.7320041 L10,54 L56,54 C56,52.8954305 56.8954305,52 58,52 C59.1045695,52 60,52.8954305 60,54 L60,58 C60,59.1045695 59.1045695,60 58,60 C56.8954305,60 56,59.1045695 56,58 L6,58 L6,8 C4.8954305,8 4,7.1045695 4,6 C4,4.8954305 4.8954305,4 6,4 L10,4 Z M25.224,35 L10,35 L10,43.083 L14.3615362,36.8530753 C15.0129268,35.9225172 16.2976651,35.7280867 17.1920117,36.3938696 L17.3170092,36.4948466 L23.053,41.513 L25.224,35 Z M34.764,31 L32.37,26.212 L30.774,31 L34.764,31 Z" id="Path-45" fill="#000000" fill-rule="nonzero"></path>
    </g>
</svg>