<?xml version="1.0" encoding="UTF-8"?>
<svg width="32px" height="32px" viewBox="0 0 32 32" version="1.1" xmlns="http://www.w3.org/2000/svg" xmlns:xlink="http://www.w3.org/1999/xlink">
    <title>trial</title>
    <g id="trial" stroke="none" stroke-width="1" fill="none" fill-rule="evenodd">
        <path d="M20.2406741,2.74653867 L22.0544501,5.51338477 L25.3574972,5.70073787 C25.8652129,5.72953617 26.2704638,6.1347871 26.2992621,6.64250282 L26.4866152,9.94554987 L29.2534613,11.7593259 C29.6787569,12.0381239 29.827089,12.5917069 29.5981712,13.0458008 L28.1089003,16 L29.5981712,18.9541992 C29.827089,19.4082931 29.6787569,19.9618761 29.2534613,20.2406741 L26.4866152,22.0544501 L26.2992621,25.3574972 C26.2704638,25.8652129 25.8652129,26.2704638 25.3574972,26.2992621 L22.0544501,26.4866152 L20.2406741,29.2534613 C19.9618761,29.6787569 19.4082931,29.827089 18.9541992,29.5981712 L16,28.1089003 L13.0458008,29.5981712 C12.5917069,29.827089 12.0381239,29.6787569 11.7593259,29.2534613 L9.94554987,26.4866152 L6.64250282,26.2992621 C6.1347871,26.2704638 5.72953617,25.8652129 5.70073787,25.3574972 L5.51338477,22.0544501 L2.74653867,20.2406741 C2.3212431,19.9618761 2.17291096,19.4082931 2.40182877,18.9541992 L3.89109975,16 L2.40182877,13.0458008 C2.17291096,12.5917069 2.3212431,12.0381239 2.74653867,11.7593259 L5.51338477,9.94554987 L5.70073787,6.64250282 C5.72953617,6.1347871 6.1347871,5.72953617 6.64250282,5.70073787 L9.94554987,5.51338477 L11.7593259,2.74653867 C12.0381239,2.3212431 12.5917069,2.17291096 13.0458008,2.40182877 L16,3.89109975 L18.9541992,2.40182877 C19.4082931,2.17291096 19.9618761,2.3212431 20.2406741,2.74653867 Z M19.057,4.589 L16.9003087,5.67700126 C16.3906718,5.93391944 15.7985545,5.95961126 15.2724214,5.75407672 L15.0996913,5.67700126 L12.942,4.589 L11.6181908,6.60986649 C11.3021308,7.09200401 10.7952297,7.41190531 10.2299975,7.49306579 L10.0588104,7.51017521 L7.647,7.647 L7.51017521,10.0588104 C7.47752794,10.6343838 7.19848938,11.164877 6.74956415,11.5177801 L6.60986649,11.6181908 L4.589,12.942 L5.67700126,15.0996913 C5.93391944,15.6093282 5.95961126,16.2014455 5.75407672,16.7275786 L5.67700126,16.9003087 L4.589,19.057 L6.60986649,20.3818092 C7.09200401,20.6978692 7.41190531,21.2047703 7.49306579,21.7700025 L7.51017521,21.9411896 L7.647,24.352 L10.0588104,24.4898248 C10.6343838,24.5224721 11.164877,24.8015106 11.5177801,25.2504358 L11.6181908,25.3901335 L12.942,27.41 L15.0996913,26.3229987 C15.6093282,26.0660806 16.2014455,26.0403887 16.7275786,26.2459233 L16.9003087,26.3229987 L19.057,27.41 L20.3818092,25.3901335 C20.6978692,24.907996 21.2047703,24.5880947 21.7700025,24.5069342 L21.9411896,24.4898248 L24.352,24.352 L24.4898248,21.9411896 C24.5224721,21.3656162 24.8015106,20.835123 25.2504358,20.4822199 L25.3901335,20.3818092 L27.41,19.057 L26.3229987,16.9003087 C26.0660806,16.3906718 26.0403887,15.7985545 26.2459233,15.2724214 L26.3229987,15.0996913 L27.41,12.942 L25.3901335,11.6181908 C24.907996,11.3021308 24.5880947,10.7952297 24.5069342,10.2299975 L24.4898248,10.0588104 L24.352,7.647 L21.9411896,7.51017521 C21.3656162,7.47752794 20.835123,7.19848938 20.4822199,6.74956415 L20.3818092,6.60986649 L19.057,4.589 Z" id="Path" fill="#000000" fill-rule="nonzero"></path>
        <path d="M20,8 L12,8 C11.4477153,8 11,8.44771525 11,9 L11.0035835,9.38291927 C11.0561641,12.1631774 11.6878841,14.3308938 12.9318689,15.8478609 L13.062,15.999 L12.9318689,16.1521391 C11.6313393,17.7380592 11,20.0352322 11,23 C11,23.5522847 11.4477153,24 12,24 L20,24 C20.5522847,24 21,23.5522847 21,23 L20.9964165,22.6170807 C20.9438359,19.8368226 20.3121159,17.6691062 19.0681311,16.1521391 L18.937,15.999 L19.0681311,15.8478609 C20.3686607,14.2619408 21,11.9647678 21,9 C21,8.44771525 20.5522847,8 20,8 Z M13.028,10 L18.971,10 L18.9709083,10.0180822 C18.8224857,12.5173137 18.108193,14.2328207 16.875305,15.2191312 C16.3748983,15.6194565 16.3748983,16.3805435 16.875305,16.7808688 L17.0331716,16.9136578 C18.1124325,17.8676264 18.7617777,19.4256705 18.9457351,21.6287043 L18.971,22 L13.028,22 L13.0290917,21.9819178 C13.1775143,19.4826863 13.891807,17.7671793 15.124695,16.7808688 C15.6251017,16.3805435 15.6251017,15.6194565 15.124695,15.2191312 L14.9668284,15.0863422 C13.8875675,14.1323736 13.2382223,12.5743295 13.0542649,10.3712957 L13.028,10 Z" id="Path-114" fill="#000000" fill-rule="nonzero"></path>
    </g>
</svg>