<?xml version="1.0" encoding="UTF-8"?>
<svg width="64px" height="64px" viewBox="0 0 64 64" version="1.1" xmlns="http://www.w3.org/2000/svg" xmlns:xlink="http://www.w3.org/1999/xlink">
    <title>trip_charge</title>
    <g id="trip_charge" stroke="none" stroke-width="1" fill="none" fill-rule="evenodd">
        <path d="M24.0015282,42.6682956 L24,56 L8,48 L8,8 L24,16 L24.0015282,40.4822328 C23.8970715,40.4323148 23.7894443,40.3794014 23.6789808,40.3234755 C22.7548162,39.8555852 21.830255,39.2792061 20.9715533,38.593023 C18.571037,36.6747854 17.1582031,34.3047265 17.1582031,31.427002 L15.1582031,31.427002 C15.1582031,34.9889442 16.8871845,37.8893472 19.7230268,40.1554511 C20.6970506,40.9337875 21.7361239,41.5815543 22.7755938,42.1078218 C23.28143,42.3639189 23.7012846,42.5495981 24.0015282,42.6682956 Z M12,17 C12,17.9007995 12.2977639,18.8857232 12.8002336,19.8136877 L16,31.0643311 L19.1997664,23.1163762 C19.7022361,22.7070437 20,22.0294616 20,21.1286621 C20,18.9195231 18.209139,16.2044296 16,15.0643311 C13.790861,13.9242325 12,14.790861 12,17 Z" id="Path-27" fill="#000000" fill-rule="nonzero"></path>
        <path d="M40,8 L40,48 L24.9998958,56 L24.9998958,41.986 L25.6422186,43.104625 C29.7134268,40.7655263 32.4213069,40.8500196 36.0223142,42.4527957 C36.2466611,42.5526506 37.0095376,42.9010985 37.0029206,42.8981029 C37.3939544,43.0751303 37.6832666,43.1998315 37.9647343,43.3095507 C38.7252997,43.6060272 39.3570015,43.7590332 39.9848633,43.7590332 L39.9848633,41.7590332 L39.873864,41.759155 C39.371194,41.758719 39.2944555,41.720036 36.8355776,40.6256114 C32.8012475,38.8299671 29.502854,38.6846974 24.9998958,41.1710025 L24.9998958,16 L40,8 Z" id="Path-29" fill="#000000" fill-rule="nonzero"></path>
        <path d="M41,8 L56,16 L56,56 L41,48 L41.0004981,43.7589543 C43.6503096,45.7424685 46.3246588,45.9898726 48.6670225,45.1687044 C49.1303544,45.0062729 49.4727581,44.8377316 49.6790592,44.7104732 L49.111,43.789 L52.1997664,36.1163762 C52.7022361,35.7070437 53,35.0294616 53,34.1286621 C53,31.9195231 51.209139,29.2044296 49,28.0643311 C46.790861,26.9242325 45,27.790861 45,30 C45,30.9007995 45.2977639,31.8857232 45.8002336,32.8136877 L48.76,43.22 L48.6290462,43.0082768 C48.5389747,43.0638381 48.324261,43.1695266 48.0053591,43.2813248 C46.1338097,43.9374385 43.9968306,43.6850226 41.7569648,41.8071695 L41,42.71 L41,8 Z" id="Path-28" fill="#000000" fill-rule="nonzero"></path>
    </g>
</svg>