<?xml version="1.0" encoding="UTF-8"?>
<svg width="64px" height="64px" viewBox="0 0 64 64" version="1.1" xmlns="http://www.w3.org/2000/svg" xmlns:xlink="http://www.w3.org/1999/xlink">
    <title>ui_types</title>
    <g id="ui_types" stroke="none" stroke-width="1" fill="none" fill-rule="evenodd">
        <path d="M58,4 C59.1045695,4 60,4.8954305 60,6 L60,10 C60,11.1045695 59.1045695,12 58,12 L56,12 L56,28 C56,29.0543618 55.1841222,29.9181651 54.1492623,29.9945143 L54,30 L10,30 C8.9456382,30 8.08183488,29.1841222 8.00548574,28.1492623 L8,28 L8,12 L6,12 C4.8954305,12 4,11.1045695 4,10 L4,6 C4,4.8954305 4.8954305,4 6,4 L58,4 Z M52,12 L12,12 L12,26 L52,26 L52,12 Z M49,20 C49.5522847,20 50,20.4477153 50,21 L50,23 C50,23.5522847 49.5522847,24 49,24 L15,24 C14.4477153,24 14,23.5522847 14,23 L14,21 C14,20.4477153 14.4477153,20 15,20 L49,20 Z M49,14 C49.5522847,14 50,14.4477153 50,15 L50,17 C50,17.5522847 49.5522847,18 49,18 L15,18 C14.4477153,18 14,17.5522847 14,17 L14,15 C14,14.4477153 14.4477153,14 15,14 L49,14 Z" id="Combined-Shape" fill="#000000"></path>
        <path d="M58,34 C59.1045695,34 60,34.8954305 60,36 L60,40 C60,41.1045695 59.1045695,42 58,42 L56,42 L56,58 C56,59.0543618 55.1841222,59.9181651 54.1492623,59.9945143 L54,60 L10,60 C8.9456382,60 8.08183488,59.1841222 8.00548574,58.1492623 L8,58 L8,42 L6,42 C4.8954305,42 4,41.1045695 4,40 L4,36 C4,34.8954305 4.8954305,34 6,34 L58,34 Z M52,42 L12,42 L12,56 L52,56 L52,42 Z M49,50 C49.5522847,50 50,50.4477153 50,51 L50,53 C50,53.5522847 49.5522847,54 49,54 L15,54 C14.4477153,54 14,53.5522847 14,53 L14,51 C14,50.4477153 14.4477153,50 15,50 L49,50 Z M49,44 C49.5522847,44 50,44.4477153 50,45 L50,47 C50,47.5522847 49.5522847,48 49,48 L15,48 C14.4477153,48 14,47.5522847 14,47 L14,45 C14,44.4477153 14.4477153,44 15,44 L49,44 Z" id="Combined-Shape-Copy" fill="#000000"></path>
    </g>
</svg>