<?xml version="1.0" encoding="UTF-8"?>
<svg width="64px" height="64px" viewBox="0 0 64 64" version="1.1" xmlns="http://www.w3.org/2000/svg" xmlns:xlink="http://www.w3.org/1999/xlink">
    <title>unarchive</title>
    <g id="unarchive" stroke="none" stroke-width="1" fill="none" fill-rule="evenodd">
        <path d="M5.2936238,5.21381226 C5.48543028,4.12602365 6.52274706,3.39968663 7.61053567,3.59149311 L58.8205388,12.6211983 C59.9083274,12.8130048 60.6346645,13.8503216 60.442858,14.9381102 L58.7063762,24.7861877 C58.5145697,25.8739763 57.4772529,26.6003134 56.3894643,26.4085069 L55.9994231,26.3387742 L56,58 C56,59.0543618 55.1841222,59.9181651 54.1492623,59.9945143 L54,60 L10,60 C8.8954305,60 8,59.1045695 8,58 L8,24 C8,22.8954305 8.8954305,22 10,22 L31.3884231,21.9997742 L5.17946118,17.3788017 C4.14111751,17.1957136 3.43211299,16.242233 3.53662529,15.2098371 L3.55714203,15.0618898 Z M52,26 L12,26 L12,56 L52,56 L52,26 Z M8.88555846,7.87802048 L7.84366939,13.786867 L55.1144415,22.1219795 L56.1563306,16.213133 L8.88555846,7.87802048 Z" id="Combined-Shape" fill="#000000" fill-rule="nonzero"></path>
        <path d="M32.8431495,30.185885 L32.8624938,30.194928 C32.8675589,30.1973482 32.8726159,30.1997909 32.8776647,30.2022561 C32.9186974,30.2224344 32.9588001,30.2437917 32.9980613,30.2664444 C33.0100748,30.273182 33.0221283,30.2803003 33.034122,30.287556 C33.0673111,30.3078428 33.0999531,30.3289237 33.1319239,30.3509103 C33.1450762,30.3597562 33.1580886,30.3689402 33.1710143,30.3782978 C33.2017551,30.4007256 33.2318001,30.4237873 33.2611548,30.4476649 C33.2731147,30.4572891 33.2846944,30.4669411 33.2961894,30.4767442 C33.3011657,30.4810644 33.3066694,30.4858007 33.3121469,30.4905663 L33.4142136,30.5857864 L39.4142136,36.5857864 C40.1952621,37.366835 40.1952621,38.633165 39.4142136,39.4142136 C38.633165,40.1952621 37.366835,40.1952621 36.5857864,39.4142136 L34,36.829 L34,50 C34,51.1045695 33.1045695,52 32,52 C30.8954305,52 30,51.1045695 30,50 L30,36.829 L27.4142136,39.4142136 C26.6742728,40.1541543 25.4987886,40.1930986 24.7130012,39.5310463 L24.5857864,39.4142136 C23.8047379,38.633165 23.8047379,37.366835 24.5857864,36.5857864 L30.5857864,30.5857864 L30.6878531,30.4905663 C30.6933306,30.4858007 30.6988343,30.4810644 30.7043639,30.4763577 L30.5857864,30.5857864 C30.6348704,30.5367025 30.6858709,30.4907031 30.7385471,30.4477884 C30.7681999,30.4237873 30.7982449,30.4007256 30.8289456,30.3785145 C30.8419114,30.3689402 30.8549238,30.3597562 30.8680197,30.3507458 C30.9000469,30.3289237 30.9326889,30.3078428 30.9659651,30.2877045 C30.9778717,30.2803003 30.9899252,30.273182 31.0020362,30.266201 C31.0411999,30.2437917 31.0813026,30.2224344 31.1221885,30.202431 C31.1273841,30.1997909 31.1324411,30.1973482 31.1375062,30.194928 C31.2330671,30.1492678 31.332904,30.1108604 31.4362091,30.0805661 C31.4468892,30.0775906 31.4574911,30.0745823 31.4681124,30.0716633 L31.4362091,30.0805661 C31.4838619,30.0665919 31.5322527,30.054344 31.5813092,30.0438948 C31.5996218,30.0401695 31.6182592,30.0364722 31.636936,30.033042 C31.6704952,30.0267203 31.7042303,30.0214211 31.7382341,30.016976 C31.7572666,30.0146009 31.7766131,30.0123444 31.7959829,30.0103698 C31.8251112,30.0073309 31.8541383,30.0050254 31.8833332,30.0033461 C31.9121684,30.0017066 31.9412727,30.0006464 31.9703845,30.0002179 C31.9799342,30.000074 31.9899585,30 32,30 L32.0306194,30.0002329 C32.0593964,30.0006708 32.0881658,30.001726 32.116906,30.0033985 L32,30 C32.0687777,30 32.1367445,30.0034717 32.2037348,30.0102494 C32.2233869,30.0123444 32.2427334,30.0146009 32.2620499,30.0171395 C32.2957697,30.0214211 32.3295048,30.0267203 32.3629491,30.0328514 C32.3817408,30.0364722 32.4003782,30.0401695 32.4189701,30.0441339 C32.4568791,30.052029 32.494664,30.0612532 32.5320114,30.0715333 C32.5425089,30.0745823 32.5531108,30.0775906 32.5636922,30.080688 L32.5320114,30.0715333 C32.6396288,30.1011556 32.7436136,30.139545 32.8431495,30.185885 Z" id="Rectangle-2" fill="#000000"></path>
    </g>
</svg>