<?xml version="1.0" encoding="UTF-8"?>
<svg width="32px" height="32px" viewBox="0 0 32 32" version="1.1" xmlns="http://www.w3.org/2000/svg" xmlns:xlink="http://www.w3.org/1999/xlink">
    <title>unassign</title>
    <g id="unassign" stroke="none" stroke-width="1" fill="none" fill-rule="evenodd">
        <path d="M18,6 C24.627417,6 30,11.372583 30,18 C30,24.627417 24.627417,30 18,30 C11.372583,30 6,24.627417 6,18 C6,15.4083635 6.82156647,13.0086142 8.21846472,11.0469867 L9.65653202,12.4856144 C8.60965218,14.0664014 8,15.9620047 8,18 C8,23.5228475 12.4771525,28 18,28 C23.5228475,28 28,23.5228475 28,18 C28,12.4771525 23.5228475,8 18,8 C15.9620047,8 14.0664014,8.60965218 12.4856144,9.65653202 L11.0469867,8.21846472 C13.0086142,6.82156647 15.4083635,6 18,6 Z" id="Oval" fill="#000000" fill-rule="nonzero"></path>
        <path d="M3.70710678,2.29289322 L20,18.585 L20,11 C20,10.4871642 20.3860402,10.0644928 20.8833789,10.0067277 L21,10 C21.5522847,10 22,10.4477153 22,11 L22,21 C22,21.5522847 21.5522847,22 21,22 L11,22 C10.4477153,22 10,21.5522847 10,21 C10,20.4477153 10.4477153,20 11,20 L18.585,20 L2.29289322,3.70710678 C1.90236893,3.31658249 1.90236893,2.68341751 2.29289322,2.29289322 C2.68341751,1.90236893 3.31658249,1.90236893 3.70710678,2.29289322 Z" id="Combined-Shape" fill="#000000" fill-rule="nonzero" transform="translate(12.000000, 12.000000) scale(-1, -1) translate(-12.000000, -12.000000) "></path>
    </g>
</svg>