<?xml version="1.0" encoding="UTF-8"?>
<svg width="32px" height="32px" viewBox="0 0 32 32" version="1.1" xmlns="http://www.w3.org/2000/svg" xmlns:xlink="http://www.w3.org/1999/xlink">
    <title>unassign-all</title>
    <g id="unassign-all" stroke="none" stroke-width="1" fill="none" fill-rule="evenodd">
        <path d="M18,6 C24.627417,6 30,11.372583 30,18 C30,24.627417 24.627417,30 18,30 C11.372583,30 6,24.627417 6,18 C6,16.7395347 6.19433736,15.5244594 6.55468384,14.3831022 L8.19519021,16.0240251 C8.0671651,16.6627927 8,17.3235527 8,18 C8,23.5228475 12.4771525,28 18,28 C23.5228475,28 28,23.5228475 28,18 C28,12.4771525 23.5228475,8 18,8 C17.3235527,8 16.6627927,8.0671651 16.0240251,8.19519021 L14.3831022,6.55468384 C15.5244594,6.19433736 16.7395347,6 18,6 Z M10.6686755,8.49917759 L12.0977197,9.92678972 C11.2675948,10.5347213 10.5347213,11.2675948 9.92678972,12.0977197 L8.49917759,10.6686755 C9.12687715,9.85642148 9.85642148,9.12687715 10.6686755,8.49917759 Z" id="Oval" fill="#000000" fill-rule="nonzero"></path>
        <path d="M8.70710678,2.29289322 L22,15.585 L22,10 C22,9.48716416 22.3860402,9.06449284 22.8833789,9.00672773 L23,9 C23.5522847,9 24,9.44771525 24,10 L24,18 C24,18.5522847 23.5522847,19 23,19 L19,19 L19,23 C19,23.5128358 18.6139598,23.9355072 18.1166211,23.9932723 L18,24 L10,24 C9.44771525,24 9,23.5522847 9,23 C9,22.4477153 9.44771525,22 10,22 L15.584,21.999 L2.29289322,8.70710678 C1.90236893,8.31658249 1.90236893,7.68341751 2.29289322,7.29289322 C2.68341751,6.90236893 3.31658249,6.90236893 3.70710678,7.29289322 L17,20.585 L17,18 C17,17.4871642 17.3860402,17.0644928 17.8833789,17.0067277 L18,17 L20.584,16.999 L7.29289322,3.70710678 C6.90236893,3.31658249 6.90236893,2.68341751 7.29289322,2.29289322 C7.68341751,1.90236893 8.31658249,1.90236893 8.70710678,2.29289322 Z" id="Combined-Shape" fill="#000000" fill-rule="nonzero" transform="translate(13.000000, 13.000000) scale(-1, -1) translate(-13.000000, -13.000000) "></path>
    </g>
</svg>