<?xml version="1.0" encoding="UTF-8"?>
<svg width="64px" height="64px" viewBox="0 0 64 64" version="1.1" xmlns="http://www.w3.org/2000/svg" xmlns:xlink="http://www.w3.org/1999/xlink">
    <title>unfavorite</title>
    <g id="unfavorite" stroke="none" stroke-width="1" fill="none" fill-rule="evenodd">
        <path d="M44.0706705,6.48925014 C51.7630625,6.48925014 57.9994703,13.1423819 57.9994703,21.3494358 C57.9994703,31.7853653 50.6078541,43.1422572 35.8246218,55.4201116 C33.6065751,57.2628704 30.3913283,57.2662623 28.168908,55.4287808 C13.3197411,43.1473784 5.92982815,31.7877182 5.99898265,21.3494358 C6.0549549,13.1425661 12.235878,6.48925014 19.9282701,6.48925014 C25.0878296,6.48925014 29.592141,9.48240065 31.9989826,13.9299926 C34.4067996,9.48240065 38.9111109,6.48925014 44.0706705,6.48925014 Z M44.0706705,10.4892501 C40.5439533,10.4892501 37.3073193,12.5265754 35.5165853,15.8343304 C34.0037235,18.6288137 29.9934609,18.6284767 28.4810688,15.8337392 C26.6913472,12.5265269 23.4549791,10.4892501 19.9282701,10.4892501 C14.5225239,10.4892501 10.0405681,15.2840732 9.99898658,21.3761224 C9.93945653,30.3579168 16.7027538,40.7545424 30.7177271,52.3460027 C31.4122335,52.9202157 32.397607,52.9551103 33.1274055,52.4512629 L33.2544703,52.3542501 L33.2689864,52.3429818 C47.0535298,40.8945643 53.8290609,30.6058963 53.9962953,21.6874518 L53.9994703,21.3494358 C53.9994703,15.2958349 49.4940852,10.4892501 44.0706705,10.4892501 Z" id="Path" fill="#000000" fill-rule="nonzero"></path>
        <path d="M32,18 C33.1045695,18 34,18.8954305 34,20 L33.999,27.999 L42,28 C43.1045695,28 44,28.8954305 44,30 C44,31.1045695 43.1045695,32 42,32 L33.999,31.999 L34,40 C34,41.1045695 33.1045695,42 32,42 C30.8954305,42 30,41.1045695 30,40 L29.999,31.999 L22,32 C20.8954305,32 20,31.1045695 20,30 C20,28.8954305 20.8954305,28 22,28 L29.999,27.999 L30,20 C30,18.8954305 30.8954305,18 32,18 Z" id="Combined-Shape" fill="#000000" transform="translate(32, 30) rotate(45) translate(-32, -30)"></path>
    </g>
</svg>