<?xml version="1.0" encoding="UTF-8"?>
<svg width="64px" height="64px" viewBox="0 0 64 64" version="1.1" xmlns="http://www.w3.org/2000/svg" xmlns:xlink="http://www.w3.org/1999/xlink">
    <title>unit_tag</title>
    <g id="unit_tag" stroke="none" stroke-width="1" fill="none" fill-rule="evenodd">
        <path d="M52,14 L12,14 L11.850737,14.0054858 C10.8158725,14.0818356 10,14.9456464 10,16.0000131 L10,21.354 L9.85804045,21.4002882 C6.18395189,22.6670768 4,27.2569841 4,32 L4.00271279,32.2893635 C4.08942809,36.9155215 6.25054689,41.3456099 9.83674347,42.6292516 L10,42.684 L10,48 C10,49.1045695 10.8954305,50 12,50 L52,50 L52.1492623,49.9945143 C53.1841222,49.9181651 54,49.0543618 54,48 L54,42.695 L54.1744814,42.6384087 C57.8482782,41.3582087 60,36.8563353 60,32 L59.9973267,31.7006896 C59.9118653,26.9209656 57.7812953,22.6030024 54.1782431,21.3585972 L54,21.3 L54,16 C54,14.8954305 53.1045695,14 52,14 Z M13.999,18 L50,18 L50,23 C50,24.0543618 50.8158778,24.9181651 51.8507377,24.9945143 L52,25 C54.1990247,25 56,28.119709 56,32 C56,35.742554 54.2648205,38.8522767 52.151571,38.9948909 L51.8507377,39.0054857 C50.8158778,39.0818349 50,39.9456382 50,41 L50,46 L14,46 L14,41 C14,39.9456382 13.1841222,39.0818349 12.1492623,39.0054857 L12,39 C9.87223331,39 8,35.6825564 8,32 C8,28.4044437 9.77952802,25.1805727 11.8245365,25.0610316 L12.1218721,25.0544028 C13.1679745,24.9917235 14.0000531,24.1232028 14.0000461,23.0580066 L13.999,18 Z" id="Path" fill="#000000" fill-rule="nonzero"></path>
        <g id="4A" transform="translate(14.329000, 22.187754)" fill="#000000" fill-rule="nonzero">
            <path d="M10.406,0.112245642 C11.0072043,0.112245642 11.4946361,0.321040661 11.8747947,0.724239207 C12.2061167,1.07564134 12.3950038,1.50156807 12.4328883,2.00557576 L12.44,2.19824564 L12.44,10.5122456 L13.032,10.5122456 C13.5908571,10.5122456 14.0539392,10.703078 14.4255534,11.0746923 C14.7971676,11.4463065 14.988,11.9093885 14.988,12.4682456 C14.988,13.0107606 14.7967274,13.4633119 14.4198976,13.8283658 C14.0909145,14.1470682 13.6901751,14.3289208 13.2140765,14.3653979 L13.032,14.3722456 L12.44,14.3722456 L12.44,17.2262456 C12.44,17.8189888 12.2367095,18.312643 11.8385534,18.710799 C11.4403973,19.1089551 10.9467432,19.3122456 10.354,19.3122456 C9.77772784,19.3122456 9.29480277,19.108594 8.90336031,18.7056385 C8.56075081,18.3529522 8.3662982,17.9252848 8.32731626,17.4195582 L8.32,17.2262456 L8.32,14.3722456 L2.06,14.3722456 C1.58568714,14.3722456 1.12189854,14.1937435 0.6784324,13.807132 C0.223777096,13.4107658 0,12.9200825 0,12.3382456 C0,11.9027271 0.126991394,11.5004416 0.384397812,11.135911 L0.502709423,10.9820084 L8.71051059,0.930049356 C8.89413836,0.68158248 9.13259124,0.481933025 9.4283932,0.334032046 C9.72055156,0.187952869 10.0459793,0.112245642 10.406,0.112245642 Z M8.32,7.22753848 L5.66815754,10.5122456 L8.32,10.5122456 L8.32,7.22753848 Z" id="Path-3"></path>
            <path d="M24.780754,0 L24.9662202,0.008405985 C25.3683864,0.0133323311 25.7438022,0.131800538 26.0914241,0.367286296 C26.3919541,0.570871163 26.6249611,0.842869492 26.7863691,1.18655569 L26.8610876,1.36438793 L33.2558228,16.5973749 C33.3693881,16.8903565 33.422,17.1611006 33.422,17.4082456 C33.422,18.0346565 33.2078381,18.5263883 32.8043846,18.89526 C32.3988135,19.2660679 31.9504625,19.4422456 31.466,19.4422456 C31.0425606,19.4422456 30.6600232,19.3134451 30.3188068,19.0545913 C30.0540365,18.8537311 29.8361056,18.5937427 29.6699115,18.2729941 L29.5764426,18.0732405 L28.3573294,15.2292456 L21.2583135,15.2292456 L20.0488338,18.0867878 C19.8898826,18.5120742 19.6433197,18.838825 19.3182549,19.0742167 C18.976928,19.3213845 18.6056049,19.4422456 18.206,19.4422456 C17.5567919,19.4422456 17.0953551,19.234172 16.7881555,18.8797109 C16.4861185,18.5312068 16.328,18.1032548 16.328,17.5902456 C16.328,17.4335066 16.3473926,17.2698046 16.3876888,17.0993447 L16.4350087,16.9266397 L22.9157617,1.3625503 C23.0946281,0.915384315 23.3713966,0.57172272 23.7396499,0.326220494 C24.0115459,0.144956473 24.2980224,0.0399226002 24.5986689,0.00939187408 L24.780754,0 Z M24.7860212,6.89774334 L22.9476923,11.2392456 L26.6467214,11.2392456 L24.7860212,6.89774334 Z" id="Combined-Shape"></path>
        </g>
    </g>
</svg>