<?xml version="1.0" encoding="UTF-8"?>
<svg width="64px" height="64px" viewBox="0 0 64 64" version="1.1" xmlns="http://www.w3.org/2000/svg" xmlns:xlink="http://www.w3.org/1999/xlink">
    <title>unit_sweep</title>
    <g id="unit_sweep" stroke="none" stroke-width="1" fill="none" fill-rule="evenodd">
        <path d="M44.0023401,8 C46.2109494,8 48,9.78718496 48,11.996524 L48,11.996524 L48,23.915 L46,27.839 L46,11.996524 C46,10.9424174 45.1861971,10.0815493 44.1515806,10.0054664 L44.0023401,10 L11.9976599,10 C10.9005363,10 10,10.8980549 10,11.996524 L10,11.996524 L10,43.003476 C10,44.1077781 10.8931533,45 11.9976599,45 L11.9976599,45 L32.2562691,45.0007204 C31.5121301,45.7835585 30.6911964,46.4430109 29.7778193,47.0007791 L11.9976599,47 C9.78905061,47 8,45.212815 8,43.003476 L8,43.003476 L8,11.996524 C8,9.79224814 9.79720024,8 11.9976599,8 L11.9976599,8 L44.0023401,8 Z M48,31.036 L48,43.003476 C48,45.0259559 46.4870206,46.7015688 44.5377729,46.9642017 C44.7426216,46.1438623 44.8892835,45.3956295 44.9861402,44.7385119 C45.5896932,44.3950956 46,43.7449427 46,43.003476 L46,43.003476 L46,35.452 L48,31.036 Z" id="Rectangle-55" fill="#000000" fill-rule="nonzero"></path>
        <path d="M19.5,13 L13.5,13 L13,13.5 L13,19.5 L13.5,20 L19.5,20 L20,19.5 L20,13.5 L19.5,13 Z M19,14 L19,19 L14,19 L14,14 L19,14 Z" id="Rectangle-56" fill="#000000" fill-rule="nonzero"></path>
        <path d="M19.5,24 L13.5,24 L13,24.5 L13,30.5 L13.5,31 L19.5,31 L20,30.5 L20,24.5 L19.5,24 Z M19,25 L19,30 L14,30 L14,25 L19,25 Z" id="Rectangle-56-Copy" fill="#000000" fill-rule="nonzero"></path>
        <path d="M19.5,35 L13.5,35 L13,35.5 L13,41.5 L13.5,42 L19.5,42 L20,41.5 L20,35.5 L19.5,35 Z M19,36 L19,41 L14,41 L14,36 L19,36 Z" id="Rectangle-56-Copy-2" fill="#000000" fill-rule="nonzero"></path>
        <polygon id="Path-136" fill="#000000" fill-rule="nonzero" points="21.2928932 11.2928932 22.7071068 12.7071068 17 18.4142136 14.2928932 15.7071068 15.7071068 14.2928932 17 15.585"></polygon>
        <polygon id="Path-136-Copy" fill="#000000" fill-rule="nonzero" points="21.2928932 22.2928932 22.7071068 23.7071068 17 29.4142136 14.2928932 26.7071068 15.7071068 25.2928932 17 26.585"></polygon>
        <polygon id="Path-136-Copy-2" fill="#000000" fill-rule="nonzero" points="21.2928932 33.2928932 22.7071068 34.7071068 17 40.4142136 14.2928932 37.7071068 15.7071068 36.2928932 17 37.585"></polygon>
        <path d="M24.37,15.69 L25.73,15.69 C25.73,15.5033324 25.7483332,15.315001 25.785,15.125 C25.8216669,14.934999 25.8833329,14.7616675 25.97,14.605 C26.0566671,14.4483326 26.171666,14.3216672 26.315,14.225 C26.458334,14.1283328 26.6333323,14.08 26.84,14.08 C27.1466682,14.08 27.3983324,14.174999 27.595,14.365 C27.7916677,14.555001 27.89,14.8199983 27.89,15.16 C27.89,15.3733344 27.8416672,15.5633325 27.745,15.73 C27.6483328,15.8966675 27.5283341,16.046666 27.385,16.18 C27.2416659,16.313334 27.0833342,16.4349994 26.91,16.545 C26.7366658,16.6550005 26.5733341,16.7633328 26.42,16.87 C26.1199985,17.0766677 25.8350013,17.279999 25.565,17.48 C25.2949987,17.680001 25.060001,17.8983321 24.86,18.135 C24.659999,18.3716678 24.5016672,18.6399985 24.385,18.94 C24.2683328,19.2400015 24.21,19.5933313 24.21,20 L29.35,20 L29.35,18.78 L26.04,18.78 C26.2133342,18.5399988 26.4133322,18.3300009 26.64,18.15 C26.8666678,17.9699991 27.0999988,17.8016674 27.34,17.645 C27.5800012,17.4883325 27.8183321,17.3300008 28.055,17.17 C28.2916678,17.0099992 28.5033324,16.8316676 28.69,16.635 C28.8766676,16.4383323 29.0266661,16.2133346 29.14,15.96 C29.2533339,15.7066654 29.31,15.4033351 29.31,15.05 C29.31,14.7099983 29.2450006,14.4033347 29.115,14.13 C28.9849993,13.8566653 28.8100011,13.6266676 28.59,13.44 C28.3699989,13.2533324 28.1150015,13.1100005 27.825,13.01 C27.5349985,12.9099995 27.2300016,12.86 26.91,12.86 C26.4899979,12.86 26.1183349,12.931666 25.795,13.075 C25.471665,13.218334 25.2033344,13.4183321 24.99,13.675 C24.7766656,13.931668 24.6166672,14.2316649 24.51,14.575 C24.4033328,14.918335 24.3566666,15.289998 24.37,15.69 Z M32.19,16.47 C32.19,16.670001 32.1966666,16.9116653 32.21,17.195 C32.2233334,17.4783348 32.2649997,17.7516654 32.335,18.015 C32.4050004,18.2783347 32.5166659,18.5033324 32.67,18.69 C32.8233341,18.8766676 33.0433319,18.97 33.33,18.97 C33.6233348,18.97 33.8483326,18.8766676 34.005,18.69 C34.1616674,18.5033324 34.2749997,18.2783347 34.345,18.015 C34.4150004,17.7516654 34.4566666,17.4783348 34.47,17.195 C34.4833334,16.9116653 34.49,16.670001 34.49,16.47 C34.49,16.3499994 34.4883333,16.2050009 34.485,16.035 C34.4816666,15.8649992 34.4683335,15.6900009 34.445,15.51 C34.4216666,15.3299991 34.3883335,15.1516675 34.345,14.975 C34.3016664,14.7983324 34.2366671,14.6400007 34.15,14.5 C34.0633329,14.3599993 33.953334,14.2466671 33.82,14.16 C33.686666,14.0733329 33.5233343,14.03 33.33,14.03 C33.1366657,14.03 32.9750006,14.0733329 32.845,14.16 C32.7149993,14.2466671 32.6083338,14.3599993 32.525,14.5 C32.4416663,14.6400007 32.3766669,14.7983324 32.33,14.975 C32.2833331,15.1516675 32.2500001,15.3299991 32.23,15.51 C32.2099999,15.6900009 32.1983333,15.8649992 32.195,16.035 C32.1916667,16.2050009 32.19,16.3499994 32.19,16.47 Z M30.77,16.47 C30.77,15.7899966 30.8383326,15.2183356 30.975,14.755 C31.1116673,14.2916644 31.2966655,13.9200014 31.53,13.64 C31.7633345,13.36 32.0349984,13.1600006 32.345,13.04 C32.6550015,12.9199994 32.9833316,12.86 33.33,12.86 C33.6833351,12.86 34.0149985,12.9199994 34.325,13.04 C34.6350015,13.1600006 34.9083321,13.36 35.145,13.64 C35.3816678,13.9200014 35.5683327,14.2916644 35.705,14.755 C35.8416673,15.2183356 35.91,15.7899966 35.91,16.47 C35.91,17.1700035 35.8416673,17.7549976 35.705,18.225 C35.5683327,18.6950023 35.3816678,19.0699986 35.145,19.35 C34.9083321,19.6300014 34.6350015,19.8299994 34.325,19.95 C34.0149985,20.0700006 33.6833351,20.13 33.33,20.13 C32.9833316,20.13 32.6550015,20.0700006 32.345,19.95 C32.0349984,19.8299994 31.7633345,19.6300014 31.53,19.35 C31.2966655,19.0699986 31.1116673,18.6950023 30.975,18.225 C30.8383326,17.7549976 30.77,17.1700035 30.77,16.47 Z M41.04,20 L41.04,13 L39.91,13 C39.8699998,13.266668 39.7866673,13.4899991 39.66,13.67 C39.5333327,13.8500009 39.3783342,13.9949995 39.195,14.105 C39.0116658,14.2150006 38.8050011,14.2916664 38.575,14.335 C38.3449989,14.3783335 38.1066679,14.3966667 37.86,14.39 L37.86,15.46 L39.62,15.46 L39.62,20 L41.04,20 Z" id="201" fill="#000000" fill-rule="nonzero"></path>
        <path d="M24.37,26.69 L25.73,26.69 C25.73,26.5033324 25.7483332,26.315001 25.785,26.125 C25.8216669,25.934999 25.8833329,25.7616675 25.97,25.605 C26.0566671,25.4483326 26.171666,25.3216672 26.315,25.225 C26.458334,25.1283328 26.6333323,25.08 26.84,25.08 C27.1466682,25.08 27.3983324,25.174999 27.595,25.365 C27.7916677,25.555001 27.89,25.8199983 27.89,26.16 C27.89,26.3733344 27.8416672,26.5633325 27.745,26.73 C27.6483328,26.8966675 27.5283341,27.046666 27.385,27.18 C27.2416659,27.313334 27.0833342,27.4349994 26.91,27.545 C26.7366658,27.6550005 26.5733341,27.7633328 26.42,27.87 C26.1199985,28.0766677 25.8350013,28.279999 25.565,28.48 C25.2949987,28.680001 25.060001,28.8983321 24.86,29.135 C24.659999,29.3716678 24.5016672,29.6399985 24.385,29.94 C24.2683328,30.2400015 24.21,30.5933313 24.21,31 L29.35,31 L29.35,29.78 L26.04,29.78 C26.2133342,29.5399988 26.4133322,29.3300009 26.64,29.15 C26.8666678,28.9699991 27.0999988,28.8016674 27.34,28.645 C27.5800012,28.4883325 27.8183321,28.3300008 28.055,28.17 C28.2916678,28.0099992 28.5033324,27.8316676 28.69,27.635 C28.8766676,27.4383323 29.0266661,27.2133346 29.14,26.96 C29.2533339,26.7066654 29.31,26.4033351 29.31,26.05 C29.31,25.7099983 29.2450006,25.4033347 29.115,25.13 C28.9849993,24.8566653 28.8100011,24.6266676 28.59,24.44 C28.3699989,24.2533324 28.1150015,24.1100005 27.825,24.01 C27.5349985,23.9099995 27.2300016,23.86 26.91,23.86 C26.4899979,23.86 26.1183349,23.931666 25.795,24.075 C25.471665,24.218334 25.2033344,24.4183321 24.99,24.675 C24.7766656,24.931668 24.6166672,25.2316649 24.51,25.575 C24.4033328,25.918335 24.3566666,26.289998 24.37,26.69 Z M32.19,27.47 C32.19,27.670001 32.1966666,27.9116653 32.21,28.195 C32.2233334,28.4783348 32.2649997,28.7516654 32.335,29.015 C32.4050004,29.2783347 32.5166659,29.5033324 32.67,29.69 C32.8233341,29.8766676 33.0433319,29.97 33.33,29.97 C33.6233348,29.97 33.8483326,29.8766676 34.005,29.69 C34.1616674,29.5033324 34.2749997,29.2783347 34.345,29.015 C34.4150004,28.7516654 34.4566666,28.4783348 34.47,28.195 C34.4833334,27.9116653 34.49,27.670001 34.49,27.47 C34.49,27.3499994 34.4883333,27.2050009 34.485,27.035 C34.4816666,26.8649992 34.4683335,26.6900009 34.445,26.51 C34.4216666,26.3299991 34.3883335,26.1516675 34.345,25.975 C34.3016664,25.7983324 34.2366671,25.6400007 34.15,25.5 C34.0633329,25.3599993 33.953334,25.2466671 33.82,25.16 C33.686666,25.0733329 33.5233343,25.03 33.33,25.03 C33.1366657,25.03 32.9750006,25.0733329 32.845,25.16 C32.7149993,25.2466671 32.6083338,25.3599993 32.525,25.5 C32.4416663,25.6400007 32.3766669,25.7983324 32.33,25.975 C32.2833331,26.1516675 32.2500001,26.3299991 32.23,26.51 C32.2099999,26.6900009 32.1983333,26.8649992 32.195,27.035 C32.1916667,27.2050009 32.19,27.3499994 32.19,27.47 Z M30.77,27.47 C30.77,26.7899966 30.8383326,26.2183356 30.975,25.755 C31.1116673,25.2916644 31.2966655,24.9200014 31.53,24.64 C31.7633345,24.36 32.0349984,24.1600006 32.345,24.04 C32.6550015,23.9199994 32.9833316,23.86 33.33,23.86 C33.6833351,23.86 34.0149985,23.9199994 34.325,24.04 C34.6350015,24.1600006 34.9083321,24.36 35.145,24.64 C35.3816678,24.9200014 35.5683327,25.2916644 35.705,25.755 C35.8416673,26.2183356 35.91,26.7899966 35.91,27.47 C35.91,28.1700035 35.8416673,28.7549976 35.705,29.225 C35.5683327,29.6950023 35.3816678,30.0699986 35.145,30.35 C34.9083321,30.6300014 34.6350015,30.8299994 34.325,30.95 C34.0149985,31.0700006 33.6833351,31.13 33.33,31.13 C32.9833316,31.13 32.6550015,31.0700006 32.345,30.95 C32.0349984,30.8299994 31.7633345,30.6300014 31.53,30.35 C31.2966655,30.0699986 31.1116673,29.6950023 30.975,29.225 C30.8383326,28.7549976 30.77,28.1700035 30.77,27.47 Z M37.49,26.69 L38.85,26.69 C38.85,26.5033324 38.8683332,26.315001 38.905,26.125 C38.9416669,25.934999 39.0033329,25.7616675 39.09,25.605 C39.1766671,25.4483326 39.291666,25.3216672 39.435,25.225 C39.578334,25.1283328 39.7533323,25.08 39.96,25.08 C40.2666682,25.08 40.5183324,25.174999 40.715,25.365 C40.9116677,25.555001 41.01,25.8199983 41.01,26.16 C41.01,26.3733344 40.9616672,26.5633325 40.865,26.73 C40.7683328,26.8966675 40.6483341,27.046666 40.505,27.18 C40.3616659,27.313334 40.2033342,27.4349994 40.03,27.545 C39.8566658,27.6550005 39.6933341,27.7633328 39.54,27.87 C39.2399985,28.0766677 38.9550013,28.279999 38.685,28.48 C38.4149987,28.680001 38.180001,28.8983321 37.98,29.135 C37.779999,29.3716678 37.6216672,29.6399985 37.505,29.94 C37.3883328,30.2400015 37.33,30.5933313 37.33,31 L42.47,31 L42.47,29.78 L39.16,29.78 C39.3333342,29.5399988 39.5333322,29.3300009 39.76,29.15 C39.9866678,28.9699991 40.2199988,28.8016674 40.46,28.645 C40.7000012,28.4883325 40.9383321,28.3300008 41.175,28.17 C41.4116678,28.0099992 41.6233324,27.8316676 41.81,27.635 C41.9966676,27.4383323 42.1466661,27.2133346 42.26,26.96 C42.3733339,26.7066654 42.43,26.4033351 42.43,26.05 C42.43,25.7099983 42.3650006,25.4033347 42.235,25.13 C42.1049993,24.8566653 41.9300011,24.6266676 41.71,24.44 C41.4899989,24.2533324 41.2350015,24.1100005 40.945,24.01 C40.6549985,23.9099995 40.3500016,23.86 40.03,23.86 C39.6099979,23.86 39.2383349,23.931666 38.915,24.075 C38.591665,24.218334 38.3233344,24.4183321 38.11,24.675 C37.8966656,24.931668 37.7366672,25.2316649 37.63,25.575 C37.5233328,25.918335 37.4766666,26.289998 37.49,26.69 Z" id="202" fill="#000000" fill-rule="nonzero"></path>
        <path d="M24.37,37.69 L25.73,37.69 C25.73,37.5033324 25.7483332,37.315001 25.785,37.125 C25.8216669,36.934999 25.8833329,36.7616674 25.97,36.605 C26.0566671,36.4483326 26.171666,36.3216672 26.315,36.225 C26.458334,36.1283328 26.6333323,36.08 26.84,36.08 C27.1466682,36.08 27.3983324,36.174999 27.595,36.365 C27.7916677,36.555001 27.89,36.8199983 27.89,37.16 C27.89,37.3733344 27.8416672,37.5633325 27.745,37.73 C27.6483328,37.8966675 27.5283341,38.046666 27.385,38.18 C27.2416659,38.313334 27.0833342,38.4349994 26.91,38.545 C26.7366658,38.6550005 26.5733341,38.7633328 26.42,38.87 C26.1199985,39.0766677 25.8350013,39.279999 25.565,39.48 C25.2949987,39.680001 25.060001,39.8983321 24.86,40.135 C24.659999,40.3716678 24.5016672,40.6399985 24.385,40.94 C24.2683328,41.2400015 24.21,41.5933313 24.21,42 L29.35,42 L29.35,40.78 L26.04,40.78 C26.2133342,40.5399988 26.4133322,40.3300009 26.64,40.15 C26.8666678,39.9699991 27.0999988,39.8016674 27.34,39.645 C27.5800012,39.4883325 27.8183321,39.3300008 28.055,39.17 C28.2916678,39.0099992 28.5033324,38.8316676 28.69,38.635 C28.8766676,38.4383323 29.0266661,38.2133346 29.14,37.96 C29.2533339,37.7066654 29.31,37.4033351 29.31,37.05 C29.31,36.7099983 29.2450006,36.4033347 29.115,36.13 C28.9849993,35.8566653 28.8100011,35.6266676 28.59,35.44 C28.3699989,35.2533324 28.1150015,35.1100005 27.825,35.01 C27.5349985,34.9099995 27.2300016,34.86 26.91,34.86 C26.4899979,34.86 26.1183349,34.931666 25.795,35.075 C25.471665,35.218334 25.2033344,35.418332 24.99,35.675 C24.7766656,35.931668 24.6166672,36.2316649 24.51,36.575 C24.4033328,36.918335 24.3566666,37.289998 24.37,37.69 Z M32.19,38.47 C32.19,38.670001 32.1966666,38.9116653 32.21,39.195 C32.2233334,39.4783348 32.2649997,39.7516654 32.335,40.015 C32.4050004,40.2783347 32.5166659,40.5033324 32.67,40.69 C32.8233341,40.8766676 33.0433319,40.97 33.33,40.97 C33.6233348,40.97 33.8483326,40.8766676 34.005,40.69 C34.1616674,40.5033324 34.2749997,40.2783347 34.345,40.015 C34.4150004,39.7516654 34.4566666,39.4783348 34.47,39.195 C34.4833334,38.9116653 34.49,38.670001 34.49,38.47 C34.49,38.3499994 34.4883333,38.2050009 34.485,38.035 C34.4816666,37.8649992 34.4683335,37.6900009 34.445,37.51 C34.4216666,37.3299991 34.3883335,37.1516675 34.345,36.975 C34.3016664,36.7983324 34.2366671,36.6400007 34.15,36.5 C34.0633329,36.3599993 33.953334,36.2466671 33.82,36.16 C33.686666,36.0733329 33.5233343,36.03 33.33,36.03 C33.1366657,36.03 32.9750006,36.0733329 32.845,36.16 C32.7149993,36.2466671 32.6083338,36.3599993 32.525,36.5 C32.4416663,36.6400007 32.3766669,36.7983324 32.33,36.975 C32.2833331,37.1516675 32.2500001,37.3299991 32.23,37.51 C32.2099999,37.6900009 32.1983333,37.8649992 32.195,38.035 C32.1916667,38.2050009 32.19,38.3499994 32.19,38.47 Z M30.77,38.47 C30.77,37.7899966 30.8383326,37.2183356 30.975,36.755 C31.1116673,36.2916644 31.2966655,35.9200014 31.53,35.64 C31.7633345,35.36 32.0349984,35.1600006 32.345,35.04 C32.6550015,34.9199994 32.9833316,34.86 33.33,34.86 C33.6833351,34.86 34.0149985,34.9199994 34.325,35.04 C34.6350015,35.1600006 34.9083321,35.36 35.145,35.64 C35.3816678,35.9200014 35.5683327,36.2916644 35.705,36.755 C35.8416673,37.2183356 35.91,37.7899966 35.91,38.47 C35.91,39.1700035 35.8416673,39.7549976 35.705,40.225 C35.5683327,40.6950023 35.3816678,41.0699986 35.145,41.35 C34.9083321,41.6300014 34.6350015,41.8299994 34.325,41.95 C34.0149985,42.0700006 33.6833351,42.13 33.33,42.13 C32.9833316,42.13 32.6550015,42.0700006 32.345,41.95 C32.0349984,41.8299994 31.7633345,41.6300014 31.53,41.35 C31.2966655,41.0699986 31.1116673,40.6950023 30.975,40.225 C30.8383326,39.7549976 30.77,39.1700035 30.77,38.47 Z M39.4,37.83 L39.4,38.83 C39.5733342,38.83 39.7549991,38.8349999 39.945,38.845 C40.1350009,38.855 40.3099992,38.8916664 40.47,38.955 C40.6300008,39.0183337 40.7616661,39.1199993 40.865,39.26 C40.9683339,39.4000007 41.02,39.603332 41.02,39.87 C41.02,40.2100017 40.9100011,40.4783323 40.69,40.675 C40.4699989,40.8716676 40.2000016,40.97 39.88,40.97 C39.6733323,40.97 39.4950008,40.9333337 39.345,40.86 C39.1949993,40.7866663 39.0700005,40.688334 38.97,40.565 C38.8699995,40.441666 38.7933336,40.2950008 38.74,40.125 C38.6866664,39.9549992 38.6566667,39.7766676 38.65,39.59 L37.3,39.59 C37.2933333,39.9966687 37.351666,40.3566651 37.475,40.67 C37.5983339,40.9833349 37.7733322,41.2483322 38,41.465 C38.2266678,41.6816677 38.5016651,41.8466661 38.825,41.96 C39.148335,42.0733339 39.5066647,42.13 39.9,42.13 C40.2400017,42.13 40.5666651,42.0800005 40.88,41.98 C41.1933349,41.8799995 41.4699988,41.7333343 41.71,41.54 C41.9500012,41.3466657 42.1416659,41.1066681 42.285,40.82 C42.428334,40.5333319 42.5,40.2066685 42.5,39.84 C42.5,39.439998 42.3900011,39.0966681 42.17,38.81 C41.9499989,38.5233319 41.6466686,38.3366671 41.26,38.25 L41.26,38.23 C41.5866683,38.1366662 41.8316659,37.9600013 41.995,37.7 C42.1583341,37.4399987 42.24,37.1400017 42.24,36.8 C42.24,36.4866651 42.1700007,36.2100012 42.03,35.97 C41.8899993,35.7299988 41.7083345,35.5266675 41.485,35.36 C41.2616655,35.1933325 41.0100014,35.0683337 40.73,34.985 C40.4499986,34.9016662 40.1700014,34.86 39.89,34.86 C39.5299982,34.86 39.2033348,34.9183327 38.91,35.035 C38.6166652,35.1516672 38.3650011,35.3166656 38.155,35.53 C37.944999,35.7433344 37.7816673,35.9983318 37.665,36.295 C37.5483327,36.5916682 37.4833334,36.9199982 37.47,37.28 L38.82,37.28 C38.8133333,36.9199982 38.9016658,36.6216678 39.085,36.385 C39.2683342,36.1483321 39.5399982,36.03 39.9,36.03 C40.1600013,36.03 40.389999,36.1099992 40.59,36.27 C40.790001,36.4300008 40.89,36.6599985 40.89,36.96 C40.89,37.160001 40.8416672,37.3199994 40.745,37.44 C40.6483328,37.5600006 40.5250008,37.6516664 40.375,37.715 C40.2249992,37.7783337 40.0633342,37.8166666 39.89,37.83 C39.7166658,37.8433334 39.5533341,37.8433334 39.4,37.83 Z" id="203" fill="#000000" fill-rule="nonzero"></path>
        <path d="M56.2813988,7.66832858 L58.1885233,8.54275115 L42.9912517,42.0966645 C43.8050309,42.6485034 44.5261542,43.2965165 45.0753869,44.0300253 C44.7391711,47.3031454 42.9316736,53.6760572 38.3496811,59.5214328 C37.8315801,59.5214328 35.0685989,59.1930437 33.2147995,58.441349 C35.6442853,55.8312138 36.1009072,53.3560302 36.1009072,53.3560302 C36.1009072,53.3560302 33.9572118,56.414933 30.657681,57.4142174 C29.4477578,57.1862635 27.5395137,56.1544907 26.9224136,55.3974408 C29.4413316,53.7494605 29.8635663,51.9410264 29.8635663,51.9410264 C29.8635663,51.9410264 26.9224136,54.2421157 24.7364323,54.2421157 C22.6807208,53.0514965 21.4177587,51.48793 20.1121377,49.7151663 C28.2475734,48.8174323 32.5456223,46.6816847 35.3915437,40 C36.5099536,39.8158719 38.0239788,39.98866 39.5635745,40.4684937 L56.2813988,7.66832858 Z" id="broom" fill="#000000" fill-rule="nonzero"></path>
    </g>
</svg>