<?xml version="1.0" encoding="UTF-8"?>
<svg width="64px" height="64px" viewBox="0 0 64 64" version="1.1" xmlns="http://www.w3.org/2000/svg" xmlns:xlink="http://www.w3.org/1999/xlink">
    <title>university</title>
    <g id="university" stroke="none" stroke-width="1" fill="none" fill-rule="evenodd">
        <g id="Group-2" transform="translate(4.000000, 4.000000)" fill="#000000" fill-rule="nonzero">
            <g id="Group-Copy-3" transform="translate(0.000000, 20.997632)">
                <path d="M40.683287,-3.54005372e-14 L54.682734,5.09471371 C56.0578577,5.59506565 56.4481035,7.35520358 55.4134514,8.39049086 C54.4265655,9.37798267 53.9992573,10.2331236 53.9992573,10.9778291 C53.9992573,11.7225346 54.4265655,12.5776756 55.4134514,13.5651674 C56.1944893,14.3466847 56.1944893,15.6137747 55.4134514,16.395292 C54.4265655,17.3827838 53.9992573,18.2379248 53.9992573,18.9826303 C53.9992573,19.7273358 54.4265655,20.5824767 55.4134514,21.5699685 C56.3939545,22.5510736 56.0942793,24.1814719 54.893163,24.7758519 L54.6719209,24.869645 L26.8710776,34.8057424 C26.427619,35.0253907 25.8885515,35.0800152 25.3161657,34.8717471 L25.3161657,34.8717471 L3.31646826,26.866946 C3.10187948,26.7888658 2.90223802,26.6745923 2.72619961,26.52908 C0.954146608,25.0643114 0,23.2378669 0,21.157848 C0,19.7118162 0.459575889,18.3389606 1.33625123,17.0580775 L1.33625123,17.0580775 L1.38798091,16.9874336 L1.33854194,16.9239265 C0.549877742,15.7959595 0.096590129,14.6158842 0.0138192484,13.3895229 L0.0138192484,13.3895229 L0,12.9790294 C0,11.0554679 0.906006838,9.2423418 2.58575087,7.56156656 C2.79928212,7.34790423 3.05336787,7.18985323 3.32709937,7.09205499 L3.32728144,7.09201468 L16.1598686,2.50749872 C16.6686717,3.8167701 17.2580041,5.04979484 17.8937398,6.13584673 L9.899,8.993 L26.005,14.853 L48.102,6.957 L39.3171621,3.76142382 C39.6137742,3.09552037 39.8907541,2.40152545 40.1429678,1.69007972 L40.3091933,1.20791829 C40.4430629,0.80837632 40.5678969,0.405195001 40.683287,-3.54005372e-14 Z M50.0163499,18.5269592 L27.1189652,26.7106007 C26.3412368,27.5686702 25.9996424,28.3227925 25.9996424,28.9886317 C25.9996424,29.4886482 26.1922799,30.0384509 26.6175917,30.6446732 L50.7793016,22.0104463 L50.6622838,21.7824066 C50.2881669,21.0077006 50.0683122,20.2106979 50.0131316,19.3931237 L49.9993123,18.9826303 C49.9993123,18.8300413 50.0050135,18.6781473 50.0163499,18.5269592 Z M4.63212152,19.3234545 C4.19857996,19.9582084 3.99994499,20.5643227 3.99994499,21.157848 C3.99994499,21.9781193 4.37911337,22.7039302 5.27369036,23.4433822 L5.27369036,23.4433822 L5.03593074,23.2331797 L22.0136972,29.4108849 L21.9996974,28.9886317 C21.9996974,27.8610859 22.3110035,26.771486 22.9069752,25.7242461 Z M50.0162703,10.5232204 L27.1180593,18.7067992 C26.3409715,19.5644548 25.9996424,20.31825 25.9996424,20.9838305 C25.9996424,21.4838471 26.1922799,22.0336498 26.6175917,22.6398721 L50.7775664,14.0063585 C50.3331736,13.1600384 50.0737589,12.286597 50.0131316,11.3883226 L49.9993123,10.9778291 C49.9993123,10.8255976 50.0049868,10.6740577 50.0162703,10.5232204 Z M4.61593651,11.3280392 L4.49000804,11.5145555 C4.15377592,12.045626 3.99994499,12.5322061 3.99994499,12.9790294 C3.99994499,13.6433171 4.33994929,14.395477 5.11383832,15.2510639 L22.005,21.166 L21.9996974,20.9838305 C21.9996974,20.1289143 22.1786617,19.2958125 22.5249782,18.486449 L22.6626688,18.1840543 L22.7876866,17.9400049 L4.61593651,11.3280392 Z" id="Combined-Shape"></path>
            </g>
            <g id="Group" transform="translate(16.000000, 0.000000)">
                <path d="M8.44950323,0.211580641 C9.45000385,0.720855422 10.2998377,1.37908029 10.9998711,2.17681222 C12.0100809,1.23348503 13.0108989,1.0004235 14.4467962,1.0004235 C15.5317767,1.0004235 16.4113271,1.89584093 16.4113271,3.0003943 C16.4113271,4.026051 15.6529392,4.87138129 14.675902,4.98690982 L14.4467962,5.00036509 C14.0854194,5.00036509 13.5847163,5.30051333 12.9782276,5.99900337 C13.0535082,6.27435629 13.1194231,6.55728636 13.1767573,6.847435 C16.8079686,5.4274329 19.9403736,6.43431407 22.02496,9.97130098 C25.2461965,15.4368797 19.8201398,30 15.4290617,30 C14.1659608,30 12.9121598,29.7523333 11.6762285,29.265044 L11.6762285,29.265044 L11.4992664,29.1900118 L11.3237715,29.265044 C10.2644018,29.6827205 9.19190338,29.9243478 8.11167292,29.9848602 L8.11167292,29.9848602 L7.57093834,30 C3.17986015,30 -2.24619645,15.4368797 0.975039967,9.97130098 C2.90944222,6.68913649 5.7461215,5.58564701 9.04635618,6.57786514 C8.62738048,5.37596539 7.9372995,4.51805295 6.98222922,3.94899843 L6.69237344,3.78923716 C5.72193745,3.29526587 5.32859055,2.09393734 5.81380854,1.10599477 C6.29902654,0.118052203 7.47906724,-0.282390642 8.44950323,0.211580641 Z M18.6558175,12.029254 C17.3249331,9.77109826 15.6572536,9.58245778 12.5897256,11.6643684 L12.5897256,11.6643684 L12.5697076,11.6780552 C12.5677513,11.6793506 12.5657925,11.6806425 12.5638314,11.681931 L11.5,12.4039578 L10.0624807,11.4342129 C7.21496161,9.60003 5.62387907,9.8579504 4.34418255,12.029254 C3.41674305,13.6028713 3.72584465,16.9498984 5.11035861,20.6658278 C5.71514437,22.2890265 6.47215347,23.8265611 7.19821733,24.9425507 C7.51947445,25.436336 7.81403277,25.813967 8.04026119,26.0365567 L7.99061432,25.9840586 C8.7129214,25.9315097 9.43648649,25.7462653 10.1758605,25.4222948 L10.1758605,25.4222948 L10.6214351,25.2112156 L11.5,24.7640085 L12.3785649,25.2112156 C13.124528,25.5909257 13.8533546,25.8306636 14.5716826,25.93666 L14.5716826,25.93666 L15.0079185,25.9840586 L15.1033424,25.884709 C15.2544795,25.7148786 15.4272179,25.4920331 15.6125653,25.2245723 L15.6125653,25.2245723 L15.8017827,24.9425507 C16.5278465,23.8265611 17.2848556,22.2890265 17.8896414,20.6658278 C19.2741554,16.9498984 19.5832569,13.6028713 18.6558175,12.029254 Z" id="Combined-Shape"></path>
            </g>
        </g>
    </g>
</svg>