<?xml version="1.0" encoding="UTF-8"?>
<svg width="64px" height="64px" viewBox="0 0 64 64" version="1.1" xmlns="http://www.w3.org/2000/svg" xmlns:xlink="http://www.w3.org/1999/xlink">
    <title>unlocked</title>
    <g id="unlocked" stroke="none" stroke-width="1" fill="none" fill-rule="evenodd">
        <path d="M32,4 C39.689239,4 43.8182467,8.75422039 43.9941349,17.4167193 L44,18 L40,18 C40,11.0321332 37.4732224,8 32,8 C26.6747026,8 24.1387348,10.8704489 24.0055454,17.4436447 L24,18 L24.0010096,24.4457181 C26.8159124,24.1485727 29.4822426,24 32,24 C37.3333333,24 43.3333333,24.6666667 50,26 C51.1045695,26 52,26.9513949 52,28.125 L52,55.875 C52,57.0486051 51.1045695,58 50,58 C43.3333333,59.3333333 37.3333333,60 32,60 C26.6666667,60 20.6666667,59.3333333 14,58 C12.8954305,58 12,57.0486051 12,55.875 L12,28.125 C12,26.9513949 12.8954305,26 14,26 C16.0642169,25.5871566 18.064519,25.2382281 20.0009062,24.9532145 L20,18 C20,8.96786684 24.139889,4 32,4 Z M32,28 C26.6666667,28 21.3333333,28.6666667 16,30 L16,54 C21.3333333,55.3333333 26.6666667,56 32,56 C37.3333333,56 42.6666667,55.3333333 48,54 L48,30 C42.6666667,28.6666667 37.3333333,28 32,28 Z" id="Combined-Shape" fill="#000000" fill-rule="nonzero"></path>
        <path d="M32,36 C33.1045695,36 34,36.8954305 34,38 L34.0011092,40.5357707 C35.1961002,41.2275472 36,42.5198932 36,44 C36,46.209139 34.209139,48 32,48 C29.790861,48 28,46.209139 28,44 C28,42.519485 28.8043432,41.2268344 29.9998796,40.5351985 L30,38 C30,36.8954305 30.8954305,36 32,36 Z" id="Combined-Shape" fill="#000000"></path>
    </g>
</svg>