<?xml version="1.0" encoding="UTF-8"?>
<svg width="64px" height="64px" viewBox="0 0 64 64" version="1.1" xmlns="http://www.w3.org/2000/svg" xmlns:xlink="http://www.w3.org/1999/xlink">
    <title>unmute</title>
    <g id="unmute" stroke="none" stroke-width="1" fill="none" fill-rule="evenodd">
        <path d="M48,27 C49.1045695,27 50,27.8954305 50,29 L50,32 C50,41.2649638 43.0001178,48.8950175 34.0004182,49.8900962 L34,56 L44,56 C45.1045695,56 46,56.8954305 46,58 C46,59.1045695 45.1045695,60 44,60 L20,60 C18.8954305,60 18,59.1045695 18,58 C18,56.8954305 18.8954305,56 20,56 L30,56 L30.0005845,49.8902071 C21.0004022,48.8955843 14,41.2653079 14,32 L14,29 C14,27.8954305 14.8954305,27 16,27 C17.1045695,27 18,27.8954305 18,29 L18,32 C18,39.7319865 24.2680135,46 32,46 C39.7319865,46 46,39.7319865 46,32 L46,29 C46,27.8954305 46.8954305,27 48,27 Z M32,4 C38.0751322,4 43,8.92486775 43,15 L43,32 C43,38.0751322 38.0751322,43 32,43 C25.9248678,43 21,38.0751322 21,32 L21,15 C21,8.92486775 25.9248678,4 32,4 Z M32,8 C28.1340068,8 25,11.1340068 25,15 L25,32 C25,35.8659932 28.1340068,39 32,39 C35.8659932,39 39,35.8659932 39,32 L39,15 C39,11.1340068 35.8659932,8 32,8 Z" id="Rectangle-2" fill="#000000"></path>
    </g>
</svg>