<?xml version="1.0" encoding="UTF-8"?>
<svg width="64px" height="64px" viewBox="0 0 64 64" version="1.1" xmlns="http://www.w3.org/2000/svg" xmlns:xlink="http://www.w3.org/1999/xlink">
    <title>update_check_positions</title>
    <g id="update_check_positions" stroke="none" stroke-width="1" fill="none" fill-rule="evenodd">
        <path d="M20,6 C26.627417,6 32,11.372583 32,18 C32,24.627417 26.627417,30 20,30 C13.372583,30 8,24.627417 8,18 C8,11.372583 13.372583,6 20,6 Z M25.9877569,12.871135 C25.364302,12.3256119 24.416658,12.3887881 23.871135,13.0122431 L23.871135,13.0122431 L17.9269349,19.8056146 L15.0606602,16.9393398 C14.4748737,16.3535534 13.5251263,16.3535534 12.9393398,16.9393398 C12.3535534,17.5251263 12.3535534,18.4748737 12.9393398,19.0606602 L12.9393398,19.0606602 L18.0730651,24.1943854 L26.128865,14.9877569 C26.6743881,14.364302 26.6112119,13.416658 25.9877569,12.871135 Z" id="Combined-Shape" fill="#000000" fill-rule="nonzero"></path>
        <path d="M20,34 C26.627417,34 32,39.372583 32,46 C32,52.627417 26.627417,58 20,58 C13.372583,58 8,52.627417 8,46 C8,39.372583 13.372583,34 20,34 Z M25.9877569,40.871135 C25.364302,40.3256119 24.416658,40.3887881 23.871135,41.0122431 L23.871135,41.0122431 L17.9269349,47.8056146 L15.0606602,44.9393398 C14.4748737,44.3535534 13.5251263,44.3535534 12.9393398,44.9393398 C12.3535534,45.5251263 12.3535534,46.4748737 12.9393398,47.0606602 L12.9393398,47.0606602 L18.0730651,52.1943854 L26.128865,42.9877569 C26.6743881,42.364302 26.6112119,41.416658 25.9877569,40.871135 Z" id="Combined-Shape-Copy" fill="#000000" fill-rule="nonzero"></path>
        <path d="M48,32 L42,26 L46,26 L46,20 L30,20 L30,16 L46,16 C48.6666667,16 50,17.3333333 50,20 C50,22.6666667 50,24.6666667 50,26 L54,26 L48,32 Z" id="Path-175" fill="#000000" fill-rule="nonzero"></path>
        <path d="M48,48 L42,42 L46,42 L46,36 L30,36 L30,32 L46,32 C48.6666667,32 50,33.3333333 50,36 C50,38.6666667 50,40.6666667 50,42 L54,42 L48,48 Z" id="Path-175-Copy" fill="#000000" fill-rule="nonzero" transform="translate(42.000000, 40.000000) scale(-1, 1) rotate(-180.000000) translate(-42.000000, -40.000000) "></path>
    </g>
</svg>