<?xml version="1.0" encoding="UTF-8"?>
<svg width="64px" height="64px" viewBox="0 0 64 64" version="1.1" xmlns="http://www.w3.org/2000/svg" xmlns:xlink="http://www.w3.org/1999/xlink">
    <title>user_documents</title>
    <g id="user_documents" stroke="none" fill="none" fill-rule="nonzero">
        <path d="M28,3.99929384 L28,7.99929384 C22.6118204,7.99929384 19.9602963,9.93408486 18.9304514,13.2860952 C18.4912147,14.7157533 18.3906896,16.2128572 18.497565,17.8319951 L18.5389721,18.3579252 L18.5758605,18.7400325 C18.6342839,19.3266754 18.4308522,19.9002347 18.0351483,20.3164062 L17.981,20.369 L17.9487462,20.481909 L17.9259767,20.5747051 C17.8518855,20.8951251 17.7952062,21.3301732 17.7608366,21.8806447 L17.7369546,22.3807629 L17.7246853,22.9375264 L17.7231195,23.2371849 C17.7231195,24.6122056 18.8638084,26.823402 20.1966833,28.6661032 C20.3613554,28.8937625 20.476211,29.1535644 20.5337656,29.4285792 C20.7691804,30.5534686 21.1783165,31.7330638 21.7122034,32.5267208 L21.8608651,32.7332729 C22.5808085,33.6650976 22.3438985,35.0141459 21.3495432,35.6449179 C21.1762748,35.7548312 20.9969701,35.8655357 20.8115705,35.9771533 C20.0735002,36.4214995 19.2535143,36.872919 18.3193015,37.3532334 L17.4898201,37.7725168 L16.5998692,38.2090067 L14.8701948,39.030155 L11.8254842,40.4445286 L10.9244677,40.8725265 L10.0189325,41.3165032 L9.45484203,41.6074295 L9.1165541,41.7927522 L8.84468442,41.9531919 L8.69755909,42.0477912 L8.57578615,42.1335266 C7.88462809,42.6468611 8,51 8,52 C8,53 7.66694242,54.4722064 9.71354251,54.8046404 C11.3273007,55.0667669 13.2118468,55.2849244 15.3076794,55.4611907 L15.9427082,55.5128159 L16.766769,55.5747951 C17.2769134,55.6114943 17.7859719,55.6454487 18.2923949,55.6767965 L19.8022071,55.763158 L21.2869067,55.8347085 C21.5317474,55.8454454 21.7751542,55.8555997 22.0169334,55.8651887 L23.4465288,55.9160771 L24.8277643,55.9542271 L26.1513412,55.9804674 L27.4079604,55.9956272 L28.004,55.9992938 L28.6002946,55.9956272 L29.8569138,55.9804674 L31.1804907,55.9542271 L32.5617262,55.9160771 L32.9999036,55.8992938 L33,57.9285714 C33,58.6709926 33.2270175,59.3518906 33.6049001,59.8829045 L32.3941803,59.9231736 L31.7271677,59.9418896 L30.4310185,59.9711156 L29.1916293,59.9900034 L28.01651,59.9992768 L28.0039036,56.9992938 L27.991745,59.9992768 L26.8166257,59.9900034 L25.5772365,59.9711156 L23.6140747,59.9231736 L22.246867,59.8770833 L20.8416743,59.8188454 L19.4060068,59.7477362 C18.681806,59.7088432 17.9489934,59.664852 17.2117933,59.6153555 L16.4732872,59.5640089 L15.6361172,59.5010432 C13.1766672,59.3078553 10.9689704,59.0609874 9.07221861,58.7528936 C6.71807737,58.370505 5.84576903,57.8438693 5,57 C4.15423097,56.1561307 4,53.9957079 4,52.868027 C4,52.0383753 3.99001142,51.1106825 3.98818763,50.1372144 L3.98838058,49.4820277 C4.0000869,45.1866905 4.24086078,40.2498914 6.18784796,38.9245156 L6.4657745,38.7281028 L6.78171809,38.525412 L7.14547929,38.3109616 L7.41939187,38.1587547 L7.88462809,37.9125239 L8.42381674,37.639916 L9.27471127,37.2259338 L10.2977309,36.7423209 L13.8694259,35.0810092 L14.8477547,34.6131364 L15.6851616,34.2025923 L16.4613832,33.8106191 L17.1800303,33.4348139 L17.553,33.233 L17.5457296,33.2152006 C17.233329,32.5097882 16.9873401,31.7636095 16.7943731,31.0069596 L16.712,30.666 L16.4970683,30.3528259 C16.1116637,29.7797053 15.7219618,29.1465221 15.356475,28.4739505 L15.1403168,28.0658464 C14.2506478,26.3412457 13.7231195,24.7320617 13.7231195,23.2371849 C13.7231195,20.9792055 13.9245418,19.4073687 14.4939932,18.3625139 L14.522,18.313 L14.5114726,18.1750791 C14.3754855,16.2339596 14.4745955,14.3970622 14.9823371,12.5402619 L15.106841,12.1113598 C16.6267801,7.16415662 20.7098164,4.11372906 27.6066088,4.00244683 L28,3.99929384 Z M28.008255,3.99929384 L28.4016462,4.00244683 C35.1683105,4.1116294 39.2263964,7.05009247 40.8126406,11.8333621 L40.901414,12.1113598 L41.0259179,12.5402619 C41.4913477,14.2423288 41.6134134,15.9276718 41.5257809,17.6918987 L41.5059036,17.9992938 L37.4969036,17.9992938 L37.51069,17.8319951 C37.6175654,16.2128572 37.5170403,14.7157533 37.0778036,13.2860952 C36.0708442,10.008574 33.5134793,8.08598441 28.3634249,8.00215451 L28.008255,7.99929384 L28.008255,3.99929384 Z" id="Path-2" fill="#000000"></path>
        <path d="M52.6736064,24 L36,24 C34.8954305,24 34,24.8954305 34,26 L34,58 C34,59.1045695 34.8954305,60 36,60 L58,60 C59.1045695,60 60,59.1045695 60,58 L60,31.691632 C60,31.1841272 59.8070652,30.6956015 59.4602915,30.3250491 L54.1338979,24.6334171 C53.7557392,24.2293275 53.2270433,24 52.6736064,24 Z M48,28 L48,34 C48,35.1045695 48.8954305,36 50,36 L56,36 L56,36 L56,56 L38,56 L38,28 L48,28 Z M52,28.5 L55.5,32 L52,32 L52,28.5 Z" id="page" fill="#000000"></path>
        <path d="M30,23 L30,51 L33,51 L33,55 L28,55 C26.9456382,55 26.0818349,54.1841222 26.0054857,53.1492623 L26,53 L26,21 C26,19.8954305 26.8954305,19 28,19 L46.6736064,19 C47.2270433,19 47.7557392,19.2293275 48.1338979,19.6334171 L51.284,23 L30,23 Z" id="page-copy" fill="#000000"></path>
    </g>
</svg>