<?xml version="1.0" encoding="UTF-8"?>
<svg width="64px" height="64px" viewBox="0 0 64 64" version="1.1" xmlns="http://www.w3.org/2000/svg" xmlns:xlink="http://www.w3.org/1999/xlink">
    <title>user_geo</title>
    <g id="user_geo" stroke="none" fill="none" fill-rule="nonzero">
        <path d="M28,3.99929384 L28,7.99929384 C22.6118204,7.99929384 19.9602963,9.93408486 18.9304514,13.2860952 C18.4912147,14.7157533 18.3906896,16.2128572 18.497565,17.8319951 L18.5389721,18.3579252 L18.5758605,18.7400325 C18.6342839,19.3266754 18.4308522,19.9002347 18.0351483,20.3164062 L17.981,20.369 L17.9487462,20.481909 L17.9259767,20.5747051 C17.8518855,20.8951251 17.7952062,21.3301732 17.7608366,21.8806447 L17.7369546,22.3807629 L17.7246853,22.9375264 L17.7231195,23.2371849 C17.7231195,24.6122056 18.8638084,26.823402 20.1966833,28.6661032 C20.3613554,28.8937625 20.476211,29.1535644 20.5337656,29.4285792 C20.7691804,30.5534686 21.1783165,31.7330638 21.7122034,32.5267208 L21.8608651,32.7332729 C22.5808085,33.6650976 22.3438985,35.0141459 21.3495432,35.6449179 C21.1762748,35.7548312 20.9969701,35.8655357 20.8115705,35.9771533 C20.0735002,36.4214995 19.2535143,36.872919 18.3193015,37.3532334 L17.4898201,37.7725168 L16.5998692,38.2090067 L14.8701948,39.030155 L11.8254842,40.4445286 L10.9244677,40.8725265 L10.0189325,41.3165032 L9.45484203,41.6074295 L9.1165541,41.7927522 L8.84468442,41.9531919 L8.69755909,42.0477912 L8.57578615,42.1335266 C7.88462809,42.6468611 8,51 8,52 C8,53 7.66694242,54.4722064 9.71354251,54.8046404 C11.3273007,55.0667669 13.2118468,55.2849244 15.3076794,55.4611907 L15.9427082,55.5128159 L16.766769,55.5747951 C17.2769134,55.6114943 17.7859719,55.6454487 18.2923949,55.6767965 L19.8022071,55.763158 L21.2869067,55.8347085 C21.5317474,55.8454454 21.7751542,55.8555997 22.0169334,55.8651887 L23.2611732,55.9087768 C23.4464096,57.2836699 23.7279927,58.6280103 24.0989045,59.9347798 L23.6140747,59.9231736 L22.246867,59.8770833 L20.8416743,59.8188454 L19.4060068,59.7477362 C18.681806,59.7088432 17.9489934,59.664852 17.2117933,59.6153555 L16.4732872,59.5640089 L15.6361172,59.5010432 C13.1766672,59.3078553 10.9689704,59.0609874 9.07221861,58.7528936 C6.71807737,58.370505 5.84576903,57.8438693 5,57 C4.15423097,56.1561307 4,53.9957079 4,52.868027 C4,52.0383753 3.99001142,51.1106825 3.98818763,50.1372144 L3.98838058,49.4820277 C4.0000869,45.1866905 4.24086078,40.2498914 6.18784796,38.9245156 L6.4657745,38.7281028 L6.78171809,38.525412 L7.14547929,38.3109616 L7.41939187,38.1587547 L7.88462809,37.9125239 L8.42381674,37.639916 L9.27471127,37.2259338 L10.2977309,36.7423209 L13.8694259,35.0810092 L14.8477547,34.6131364 L15.6851616,34.2025923 L16.4613832,33.8106191 L17.1800303,33.4348139 L17.553,33.233 L17.5457296,33.2152006 C17.233329,32.5097882 16.9873401,31.7636095 16.7943731,31.0069596 L16.712,30.666 L16.4970683,30.3528259 C16.1116637,29.7797053 15.7219618,29.1465221 15.356475,28.4739505 L15.1403168,28.0658464 C14.2506478,26.3412457 13.7231195,24.7320617 13.7231195,23.2371849 C13.7231195,20.9792055 13.9245418,19.4073687 14.4939932,18.3625139 L14.522,18.313 L14.5114726,18.1750791 C14.3754855,16.2339596 14.4745955,14.3970622 14.9823371,12.5402619 L15.106841,12.1113598 C16.6267801,7.16415662 20.7098164,4.11372906 27.6066088,4.00244683 L28,3.99929384 Z M28.008255,3.99929384 L28.4016462,4.00244683 C35.1683105,4.1116294 39.2263964,7.05009247 40.8126406,11.8333621 L40.901414,12.1113598 L41.0259179,12.5402619 C41.4913477,14.2423288 41.6134134,15.9276718 41.5257809,17.6918987 L41.486255,18.313 L41.5142618,18.3625139 C42.0837132,19.4073687 42.2851355,20.9792055 42.2851355,23.2371849 C42.2851355,23.7212598 42.2298183,24.217321 42.1247999,24.7254062 C40.202937,25.4209499 38.378095,26.3129267 36.6719052,27.3773121 C37.6006915,25.8691336 38.2851355,24.3022953 38.2851355,23.2371849 L38.2835697,22.9375264 L38.2713004,22.3807629 L38.2474184,21.8806447 C38.2179587,21.408812 38.1721083,21.0217801 38.1129513,20.7190483 L38.0822783,20.5747051 L38.0595088,20.481909 L38.027255,20.369 L37.9731067,20.3164062 C37.6169732,19.9418518 37.4165802,19.4398134 37.4226536,18.9154885 L37.4323945,18.7400325 L37.4692829,18.3579252 L37.51069,17.8319951 C37.6175654,16.2128572 37.5170403,14.7157533 37.0778036,13.2860952 C36.0708442,10.008574 33.5134793,8.08598441 28.3634249,8.00215451 L28.008255,7.99929384 L28.008255,3.99929384 Z" id="Path-2" fill="#000000"></path>
        <path d="M52,24 C54.7802327,24 57.4658235,24.4052099 60.0009362,25.1597934 L60.0015681,34.5880177 C58.3471579,32.7160477 56.3479881,31.0543059 54.0009168,29.5975919 L54,36 L60,36 L60,40 L54,40 L54,50 L60,50 L60,54 L54,54 L54,60 L50,60 L50,54 L38.0545848,54.0002044 C38.1727491,56.12556 38.4829017,58.124973 38.9863884,60.0006709 L34.8674356,60.0004118 C34.4274975,58.1000195 34.1545214,56.0994528 34.049377,54.0001514 L28.082188,54.0004908 C28.2544142,56.0876037 28.6936969,58.0989893 29.3657863,60.000398 L25.1597934,60.0009362 C24.4052099,57.4658235 24,54.7802327 24,52 C24,36.536027 36.536027,24 52,24 Z M36.0966918,40.0004705 L31.2104601,40.0005404 C29.4831332,42.986753 28.3807398,46.3796856 28.0821053,50.0005127 L34.0493267,50.0008538 C34.2311099,46.3694841 34.9150654,43.0335394 36.0966918,40.0004705 Z M50,40 L40.4396781,40.0004243 C39.0535691,42.9572166 38.2609132,46.2867128 38.054529,50.0007993 L50,50 L50,40 Z M43.3493741,29.6055956 L43.0040377,29.7429172 C39.5746458,31.1303705 36.5389921,33.2874195 34.1112101,35.9999305 L38.0474744,36.0000086 C39.4519912,33.6421697 41.2202345,31.5091372 43.3493741,29.6055956 Z M50.0000784,29.5969743 C47.0783217,31.4102196 44.6956484,33.54116 42.8459985,35.9998262 L50,36 Z" id="Combined-Shape" fill="#000000"></path>
    </g>
</svg>