<?xml version="1.0" encoding="UTF-8"?>
<svg width="64px" height="64px" viewBox="0 0 64 64" version="1.1" xmlns="http://www.w3.org/2000/svg" xmlns:xlink="http://www.w3.org/1999/xlink">
    <title>users</title>
    <g id="users" stroke="none" stroke-width="1" fill="none" fill-rule="evenodd">
        <path d="M36.0082477,11.9992768 L36.3454403,12.0019794 C42.14544,12.0955645 45.6238004,14.6142479 46.9834387,18.7141945 L47.0595302,18.9524783 L47.1662479,19.3201088 C47.5651878,20.7790237 47.6698156,22.2236039 47.594702,23.7357988 L47.5608226,24.2681715 L47.5848284,24.3106121 C48.0729298,25.2062021 48.2455776,26.5534913 48.2455776,28.4889028 C48.2455776,29.6848045 47.8516896,30.9660557 47.1791706,32.3334295 L47.0308366,32.6277567 L46.8455582,32.9775604 C46.5949386,33.4387524 46.3310352,33.8783372 46.0663611,34.2872415 L45.8679064,34.5880254 L45.6836792,34.8564605 L45.6130737,35.1487116 C45.4807534,35.6675574 45.3193469,36.180659 45.1229778,36.6747212 L44.9628219,37.0567468 L45.2825103,37.2297302 L45.8984937,37.5518491 L46.5638267,37.8878262 L47.2816043,38.2397213 L48.1201721,38.6407552 L51.1816258,40.0647371 L52.0585001,40.4792626 L52.7878385,40.8341046 L53.2500003,41.0677685 L53.6487743,41.2788236 L53.8835566,41.4092867 L54.195352,41.5931014 L54.4661609,41.7668364 L54.7043837,41.9351903 C57.1047891,43.7214166 60.008255,49.9360514 60.008255,53.8867751 C60.008255,54.853359 59.6170845,55.747221 58.8921394,56.4705378 C58.4211118,56.9405074 57.7995922,57.3392576 57.0543758,57.6689297 C55.8810414,58.1879946 54.2499012,58.6031863 52.2320653,58.9309481 C50.7540764,59.1710212 49.0558194,59.367723 47.175413,59.5259129 L46.6058648,59.5722193 L45.8882903,59.6261899 L45.2552848,59.6702013 L44.310729,59.7303441 L43.3745298,59.7836705 L42.1439573,59.8446213 L40.9395061,59.8945395 L39.7676134,59.9340455 L39.1958881,59.9500878 L38.0849028,59.9751387 L37.0225688,59.9913282 L36.0153234,59.9992768 L36.0046006,57.4012906 L35.9940963,59.9992768 L34.9868508,59.9913282 L33.9245169,59.9751387 L32.2418063,59.9340455 L31.0699136,59.8945395 L29.8654624,59.8446213 L28.6348899,59.7836705 C28.0141461,59.7503336 27.3860208,59.7126268 26.7541348,59.6702013 L26.1211294,59.6261899 L25.4035549,59.5722193 C23.2954543,59.4066296 21.4031422,59.1950285 19.7773544,58.9309481 C17.7595185,58.6031863 16.1283783,58.1879946 14.9550438,57.6689297 C14.2098275,57.3392576 13.5883079,56.9405074 13.1172803,56.4705378 C12.3923352,55.747221 12.0011647,54.853359 12.0011647,53.8867751 C12.0011647,49.9360514 14.9046306,43.7214166 17.305036,41.9351903 L17.5432588,41.7668364 L17.8140677,41.5931014 L18.1258631,41.4092867 L18.3606454,41.2788236 L18.7594194,41.0677685 L19.2215812,40.8341046 L19.9509196,40.4792626 L20.8277939,40.0647371 L23.8892476,38.6407552 L24.7278154,38.2397213 L25.445593,37.8878262 L26.110926,37.5518491 L26.7269094,37.2297302 L27.0465978,37.0567468 L27.040366,37.0414902 C26.772594,36.4368508 26.5617463,35.7972689 26.396346,35.1487116 L26.3257405,34.8564605 L26.1415133,34.5880254 C25.8111663,34.0967791 25.477136,33.5540505 25.1638615,32.9775604 L24.978583,32.6277567 C24.2160094,31.149527 23.7638421,29.7702261 23.7638421,28.4889028 C23.7638421,26.5534913 23.9364899,25.2062021 24.4245912,24.3106121 L24.448597,24.2681715 L24.4395735,24.1499536 C24.3230132,22.4861363 24.4079646,20.9116524 24.8431718,19.3201088 L24.9498895,18.9524783 C26.2526948,14.7120172 29.7524413,12.0973642 35.6639794,12.0019794 L36.0011647,11.9992768 L36.0011647,15.4278493 C31.3827309,15.4278493 29.1099953,17.0862421 28.2272709,19.9593947 C27.8507821,21.1848163 27.7646177,22.4680486 27.8562252,23.8558815 L27.891717,24.3066788 L27.9233357,24.6341995 C27.9734129,25.1370364 27.7990428,25.6286588 27.4598679,25.9853773 L27.4134551,26.0304578 L27.385809,26.1272369 L27.3662923,26.2067765 C27.3027855,26.4814223 27.2542032,26.8543208 27.2247435,27.3261536 L27.2042733,27.7548265 L27.1937567,28.2320525 L27.1924146,28.4889028 C27.1924146,29.6674922 28.1701482,31.5628041 29.3126128,33.1422627 C29.4537604,33.3373993 29.552208,33.5600867 29.6015405,33.7958138 C29.8033247,34.760005 30.1540129,35.7710868 30.6116304,36.4513645 L30.7390548,36.6284092 C31.3561493,37.4271163 31.1530835,38.5834438 30.3007787,39.1241057 C30.1522629,39.2183171 29.9985731,39.3132067 29.8396591,39.4088789 C29.2070272,39.7897472 28.5041819,40.1766783 27.7034278,40.5883766 L26.9924436,40.9477625 L26.2296283,41.3218967 L24.7470499,42.0257384 L22.1372971,43.238059 L21.364997,43.6049144 L20.5888237,43.985466 L20.1053175,44.2348315 L19.8153563,44.3936796 L19.5823251,44.5311993 L19.4562176,44.6122844 L19.3518408,44.6857719 C18.51442,45.3089263 17.3899818,47.1990382 16.5597908,49.2521078 L16.3587096,49.7681312 C15.8082544,51.2361964 15.4297372,52.7398635 15.4297372,53.8867751 C15.4297372,53.9179026 15.4426371,53.9473802 15.5389199,54.0434467 C15.6834889,54.187691 15.9566342,54.3629337 16.3421232,54.533468 C17.1966221,54.911485 18.5728316,55.2617865 20.3270608,55.54673 C21.7102825,55.7714099 23.3256082,55.9584021 25.1220367,56.1094875 L25.6663473,56.1537377 L26.3726853,56.2068628 C26.8099521,56.2383193 27.2462881,56.267423 27.6803651,56.2942926 L28.9744902,56.3683167 L30.2470903,56.4296457 C30.4569537,56.4388488 30.6655882,56.4475525 30.8728277,56.4557716 L32.0981955,56.4993903 L33.282112,56.5320903 L34.4166068,56.554582 L35.4937093,56.5675761 L36.0046006,56.5707189 L36.5157104,56.5675761 L37.5928129,56.554582 L38.7273077,56.5320903 L39.9112242,56.4993903 L41.136592,56.4557716 L41.7623294,56.4296457 L43.0349295,56.3683167 L44.3290546,56.2942926 L44.9816983,56.2522978 L45.6367343,56.2068628 L46.3430724,56.1537377 L46.887383,56.1094875 C48.6838115,55.9584021 50.2991371,55.7714099 51.6823589,55.54673 C53.4365881,55.2617865 54.8127976,54.911485 55.6672965,54.533468 C56.0527855,54.3629337 56.3259308,54.187691 56.4704998,54.0434467 C56.5667826,53.9473802 56.5796825,53.9179026 56.5796825,53.8867751 C56.5796825,52.8217858 56.2533079,51.4491858 55.7659578,50.0831186 L55.6507101,49.7681312 L55.4496289,49.2521078 C54.6555332,47.2883021 53.5922207,45.4735919 52.7683876,44.7741472 L52.6575789,44.6857719 L52.5532021,44.6122844 L52.4270946,44.5311993 L52.1940634,44.3936796 L51.9041022,44.2348315 L51.4205959,43.985466 L50.6444227,43.6049144 L49.8721226,43.238059 L47.2623698,42.0257384 L45.7797914,41.3218967 L45.0169761,40.9477625 L44.3059918,40.5883766 C43.5052378,40.1766783 42.8023925,39.7897472 42.1697606,39.4088789 C42.0108466,39.3132067 41.8571568,39.2183171 41.7086409,39.1241057 C40.8950773,38.6080193 40.6730723,37.530965 41.1912833,36.7394491 L41.3977893,36.4513645 C41.8554068,35.7710868 42.206095,34.760005 42.4078791,33.7958138 C42.4572117,33.5600867 42.5556593,33.3373993 42.6968069,33.1422627 C43.8392715,31.5628041 44.8170051,29.6674922 44.8170051,28.4889028 L44.815663,28.2320525 L44.8051464,27.7548265 L44.7846762,27.3261536 C44.759425,26.9217254 44.7201246,26.5899838 44.6694186,26.3304993 L44.6431274,26.2067765 L44.6236107,26.1272369 L44.5959646,26.0304578 L44.5495518,25.9853773 C44.2442943,25.6643307 44.0725289,25.2340119 44.0777346,24.7845904 L44.086084,24.6341995 L44.1177027,24.3066788 L44.1531945,23.8558815 C44.244802,22.4680486 44.1586376,21.1848163 43.7821488,19.9593947 C42.9190405,17.1500899 40.7270128,15.5021555 36.3126791,15.4303013 L36.0082477,15.4278493 L36.0082477,11.9992768 Z" id="Path" fill="#000000" fill-rule="nonzero"></path>
        <path d="M28.0011647,3.9992768 L28.0011647,7.42784927 C23.3827309,7.42784927 21.1099953,9.08624208 20.2272709,11.9593947 C19.8507821,13.1848163 19.7646177,14.4680486 19.8562252,15.8558815 L19.891717,16.3066788 L19.9233357,16.6341995 C19.9734129,17.1370364 19.7990428,17.6286588 19.4598679,17.9853773 L19.4134551,18.0304578 L19.385809,18.1272369 L19.3662923,18.2067765 C19.3027855,18.4814223 19.2542032,18.8543208 19.2247435,19.3261536 L19.2042733,19.7548265 L19.1937567,20.2320525 L19.1924146,20.4889028 C19.1924146,21.6674922 20.1701482,23.5628041 21.3126128,25.1422627 C21.4537604,25.3373993 21.552208,25.5600867 21.6015405,25.7958138 C21.8033247,26.760005 22.1540129,27.7710868 22.6116304,28.4513645 L22.7390548,28.6284092 C23.3561493,29.4271163 23.1530835,30.5834438 22.3007787,31.1241057 C22.1522629,31.2183171 21.9985731,31.3132067 21.8396591,31.4088789 C21.2070272,31.7897472 20.5041819,32.1766783 19.7034278,32.5883766 L18.9924436,32.9477625 L18.2296283,33.3218967 L16.7470499,34.0257384 L14.1372971,35.238059 L13.364997,35.6049144 L12.5888237,35.985466 L12.1053175,36.2348315 L11.8153563,36.3936796 L11.5823251,36.5311993 L11.4562176,36.6122844 L11.3518408,36.6857719 C10.51442,37.3089263 9.38998179,39.1990382 8.55979082,41.2521078 L8.35870961,41.7681312 C7.80825443,43.2361964 7.42973715,44.7398635 7.42973715,45.8867751 C7.42973715,45.9179026 7.44263709,45.9473802 7.53891985,46.0434467 C7.68348886,46.187691 7.95663417,46.3629337 8.3421232,46.533468 C8.98435802,46.8175827 9.92130254,47.0860411 11.0919502,47.3228615 L10.0791658,50.6143844 C8.82849196,50.3466504 7.77891226,50.0333962 6.95504385,49.6689297 C6.20982752,49.3392576 5.5883079,48.9405074 5.11728032,48.4705378 C4.39233522,47.747221 4.00116468,46.853359 4.00116468,45.8867751 C4.00116468,41.9360514 6.90463055,35.7214166 9.30503597,33.9351903 L9.5432588,33.7668364 L9.81406767,33.5931014 L10.1258631,33.4092867 L10.3606454,33.2788236 L10.7594194,33.0677685 L11.2215812,32.8341046 L11.9509196,32.4792626 L12.8277939,32.0647371 L15.8892476,30.6407552 L16.7278154,30.2397213 L17.445593,29.8878262 L18.110926,29.5518491 L18.7269094,29.2297302 L19.0465978,29.0567468 L19.040366,29.0414902 C18.772594,28.4368508 18.5617463,27.7972689 18.396346,27.1487116 L18.3257405,26.8564605 L18.1415133,26.5880254 C17.8111663,26.0967791 17.477136,25.5540505 17.1638615,24.9775604 L16.978583,24.6277567 C16.2160094,23.149527 15.7638421,21.7702261 15.7638421,20.4889028 C15.7638421,18.5534913 15.9364899,17.2062021 16.4245912,16.3106121 L16.448597,16.2681715 L16.4395735,16.1499536 C16.3230132,14.4861363 16.4079646,12.9116524 16.8431718,11.3201088 L16.9498895,10.9524783 C18.2526948,6.71201715 21.7524413,4.09736417 27.6639794,4.00197937 L28.0011647,3.9992768 Z M28.0082477,3.9992768 L28.3454403,4.00197937 C33.8003014,4.08999552 37.2016082,6.32307839 38.7181659,9.99924797 L34.8149034,9.99909889 C33.6188881,8.39521404 31.5712674,7.48334288 28.3126791,7.43030128 L28.0082477,7.42784927 L28.0082477,3.9992768 Z" id="Path-Copy-2" fill="#000000" fill-rule="nonzero"></path>
    </g>
</svg>