<?xml version="1.0" encoding="UTF-8"?>
<svg width="64px" height="64px" viewBox="0 0 64 64" version="1.1" xmlns="http://www.w3.org/2000/svg" xmlns:xlink="http://www.w3.org/1999/xlink">
    <title>user_tags</title>
    <g id="user_tags" stroke="none" stroke-width="1" fill="none" fill-rule="evenodd">
        <path d="M29,4 C34.8161935,4 38.5274557,6.4624617 40.1689249,10.6094533 C41.0601392,12.8610081 41.2461973,15.2620931 41.0290772,17.5137923 L41.0290772,17.5137923 L41.005,17.73 L41.1037311,17.8477483 C41.3769137,18.1993699 41.5766188,18.6137218 41.7109383,19.0938768 C41.2796405,19.2116581 40.8828559,19.4401888 40.5615224,19.7615224 L40.5615224,19.7615224 L37.3568856,22.9678871 C37.4878661,22.6715055 37.5995883,22.3857442 37.6891431,22.1146792 C37.848571,21.6321224 37.9276134,21.2242515 37.9276134,20.925717 L37.9276134,20.925717 L37.923693,20.7066292 L37.915,20.573 L37.8604156,20.5456308 C37.1701779,20.161449 36.7181275,19.3791793 36.8470019,18.5079423 L36.8470019,18.5079423 L36.8739187,18.3619654 C36.8751291,18.3564874 36.87688,18.3481134 36.8790887,18.3371072 L36.8790887,18.3371072 L36.9301287,18.0474618 C37.236943,16.1278921 37.1811405,13.929555 36.4496837,12.0816097 C35.4187296,9.47701764 33.1926647,8 29,8 C24.4090623,8 22.2869471,9.7425116 21.5776707,12.8427713 C21.244889,14.297366 21.2674377,15.9137089 21.5131645,17.4397828 C21.5226871,17.4989225 21.5321514,17.5555754 21.5414835,17.6096354 L21.5414835,17.6096354 L21.6199051,18.0233073 L21.7165825,18.4478164 C21.8766495,19.3400995 21.4161549,20.1633083 20.6960141,20.5552341 L20.6960141,20.5552341 L20.657,20.574 L20.6528427,20.6408457 L20.6455027,20.925717 C20.6455027,21.1676691 20.7056557,21.4915942 20.8294261,21.8743624 C21.0057306,22.4195961 21.294499,23.0363535 21.6644168,23.6809403 C21.9133651,24.114736 22.1825161,24.5330057 22.4510925,24.9166352 L22.4510925,24.9166352 L22.6559299,25.2027581 L22.7860032,25.375213 C23.0078799,25.6572881 23.1497695,25.9938683 23.1967917,26.3496556 L23.1967917,26.3496556 L23.2487268,26.6472927 L23.2979504,26.8788421 C23.3942171,27.3065121 23.5215537,27.7317591 23.6777212,28.1117659 C23.9170485,28.6941278 24.1803254,29.0529358 24.3380308,29.1340563 C25.655142,29.811552 25.8045303,31.6357916 24.6151887,32.5185425 C24.1144861,32.890173 23.5389399,33.2678856 22.8869013,33.6572472 C22.2453192,34.0403647 21.539693,34.4296541 20.7486598,34.8396984 L20.7486598,34.8396984 L19.9283665,35.2572012 C19.5031941,35.4699519 19.0548897,35.6891065 18.5807831,35.9164881 L18.5807831,35.9164881 L18.3334005,36.0343516 L13.9749492,38.0688273 L13.3097301,38.389514 L12.75879,38.6651165 L12.3196582,38.8967747 L12.0877993,39.0273631 L11.9038026,39.1392651 L11.7669363,39.2328185 C10.4694387,40.1983186 8.36643324,44.6192346 8.04246664,47.5200938 L8.04246664,47.5200938 L8.02,47.758 L8.17128466,47.8382585 C8.49118624,47.9941309 8.93874599,48.1572832 9.49713845,48.3156906 L9.49713845,48.3156906 L9.74318612,48.383254 C10.9232017,48.6970223 12.4553842,48.9670093 14.2744124,49.1924716 L14.2744124,49.1924716 L15.2075279,49.3014889 C15.6857352,49.3541389 16.1811899,49.4039984 16.6928713,49.4510557 C19.0500236,49.6678336 21.636917,49.8157493 24.2984699,49.9062087 L24.2984699,49.9062087 L25.468,49.942 L29.526,53.997 L28.7708325,53.9992593 L27.7968179,53.9904903 L26.3014009,53.9641799 L24.6115533,53.9186221 L23.1414838,53.8662674 C20.7681005,53.7718554 18.4638931,53.6308094 16.326553,53.4342467 L16.326553,53.4342467 L15.0764393,53.3133512 L14.2806166,53.2291232 L13.1431574,53.0961216 L12.4223065,53.0023064 L11.731371,52.9038072 L11.0703089,52.8001386 C10.8549291,52.7646669 10.6445212,52.7282528 10.4390783,52.6908153 L10.4390783,52.6908153 L9.83763707,52.5753522 C9.64211693,52.5357872 9.45155471,52.4951181 9.26594341,52.4532638 L9.26594341,52.4532638 L8.72395533,52.3240651 L8.21163088,52.1872706 C5.39242669,51.389664 4,50.2028232 4,48.2293926 C4,44.1849118 6.91289998,37.8588923 9.37901983,36.0237915 C9.45420129,35.9678471 9.53428543,35.9114126 9.62004011,35.853992 L9.62004011,35.853992 L9.89508372,35.6782767 C9.9929474,35.6183883 10.0972495,35.5570181 10.2087579,35.4936701 L10.2087579,35.4936701 L10.56567,35.2971972 L10.9704272,35.0858827 L11.4276369,34.8567516 L11.9419062,34.6068285 L12.5178426,34.3331383 L16.3131495,32.5648469 L17.7110916,31.892085 L18.5065877,31.4942929 C18.6339969,31.4295179 18.758871,31.3654698 18.8812877,31.3020965 L18.8812877,31.3020965 L19.5869182,30.929535 C19.8127121,30.807768 20.0292965,30.6882817 20.2372921,30.5706582 L20.2372921,30.5706582 L20.382,30.487 L20.3460036,30.4218749 C20.2577009,30.2550787 20.1739341,30.082294 20.0943188,29.9039205 L20.0943188,29.9039205 L19.9779613,29.6322186 C19.6795529,28.9060933 19.4797529,28.1983418 19.3540306,27.5916297 L19.3540306,27.5916297 L19.32,27.419 L19.096013,27.1032942 C18.8649249,26.768479 18.6124856,26.3789574 18.3558828,25.9471708 L18.3558828,25.9471708 L18.1951193,25.6719135 C17.6973649,24.8045699 17.2953894,23.9460225 17.0234546,23.1050456 C16.7800764,22.3523818 16.6455027,21.6277002 16.6455027,20.925717 C16.6455027,19.6133978 16.9086078,18.5829035 17.4920079,17.8492241 L17.4920079,17.8492241 L17.524,17.811 L17.4998648,17.6473545 C17.2616183,15.9277101 17.2479651,14.1346741 17.5863964,12.3866894 L17.5863964,12.3866894 L17.6784131,11.9507004 C18.7984407,7.05504029 22.5190169,4 29,4 Z M53.7352619,45.936946 C53.9052932,46.7419513 54,47.5157744 54,48.2293926 C54,50.2028232 52.6075733,51.389664 49.7883691,52.1872706 L49.7883691,52.1872706 L49.2760447,52.3240651 L48.7340566,52.4532638 C48.4556396,52.5160452 48.1660831,52.5761601 47.8653634,52.6338816 L47.8653634,52.6338816 L47.2490327,52.7462141 C47.1438279,52.7644313 47.037381,52.7824027 46.9296911,52.8001386 L46.9296911,52.8001386 L46.862,52.811 Z" id="Path-11-Copy" fill="#000000" fill-rule="nonzero"></path>
        <g id="tag" transform="translate(20.000000, 20.000000)" fill="#000000">
            <path d="M33.6,0 C33.9713031,0 34.3292995,0.129062129 34.6140126,0.362343217 L34.7313708,0.46862915 L39.5313708,5.26862915 C39.7939218,5.53118008 39.9558028,5.87558249 39.9921707,6.24185966 L40,6.4 L40,17.6 C40,17.9713031 39.8709379,18.3292995 39.6376568,18.6140126 L39.5313708,18.7313708 L18.7313708,39.5313708 C18.1432872,40.1194545 17.2113087,40.1540476 16.5827668,39.6351503 L16.4686292,39.5313708 L0.46862915,23.5313708 C-0.119454489,22.9432872 -0.154047644,22.0113087 0.364849684,21.3827668 L0.46862915,21.2686292 L21.2686292,0.46862915 C21.5311801,0.20607822 21.8755825,0.0441972246 22.2418597,0.00782933396 L22.4,0 L33.6,0 Z M32.605,4 L23.394,4 L4.995,22.4 L17.6,35.005 L36,16.604 L36,7.395 L32.605,4 Z" id="Path" fill-rule="nonzero"></path>
            <circle id="Oval" cx="30" cy="10" r="3"></circle>
        </g>
    </g>
</svg>