<?xml version="1.0" encoding="UTF-8"?>
<svg width="64px" height="64px" viewBox="0 0 64 64" version="1.1" xmlns="http://www.w3.org/2000/svg" xmlns:xlink="http://www.w3.org/1999/xlink">
    <title>user_task</title>
    <g id="user_task" stroke="none" fill="none">
        <path d="M28.0064571,57.6182812 C28.5868733,58.5776579 29.3911345,59.3864645 30.3468446,59.972305 L29.1916293,59.9900034 L28.01651,59.9992768 Z M28,3.99929384 L28,7.99929384 C22.6118204,7.99929384 19.9602963,9.93408486 18.9304514,13.2860952 C18.4912147,14.7157533 18.3906896,16.2128572 18.497565,17.8319951 L18.5389721,18.3579252 L18.5758605,18.7400325 C18.6342839,19.3266754 18.4308522,19.9002347 18.0351483,20.3164062 L17.981,20.369 L17.9487462,20.481909 L17.9259767,20.5747051 C17.8518855,20.8951251 17.7952062,21.3301732 17.7608366,21.8806447 L17.7369546,22.3807629 L17.7246853,22.9375264 L17.7231195,23.2371849 C17.7231195,24.6122056 18.8638084,26.823402 20.1966833,28.6661032 C20.3613554,28.8937625 20.476211,29.1535644 20.5337656,29.4285792 C20.7691804,30.5534686 21.1783165,31.7330638 21.7122034,32.5267208 L21.8608651,32.7332729 C22.5808085,33.6650976 22.3438985,35.0141459 21.3495432,35.6449179 C21.1762748,35.7548312 20.9969701,35.8655357 20.8115705,35.9771533 C20.0735002,36.4214995 19.2535143,36.872919 18.3193015,37.3532334 L17.4898201,37.7725168 L16.5998692,38.2090067 L14.8701948,39.030155 L11.8254842,40.4445286 L10.9244677,40.8725265 L10.0189325,41.3165032 L9.45484203,41.6074295 L9.1165541,41.7927522 L8.84468442,41.9531919 L8.69755909,42.0477912 L8.57578615,42.1335266 C7.88462809,42.6468611 8,51 8,52 C8,53 7.66694242,54.4722064 9.71354251,54.8046404 C11.3273007,55.0667669 13.2118468,55.2849244 15.3076794,55.4611907 L15.9427082,55.5128159 L16.766769,55.5747951 C17.2769134,55.6114943 17.7859719,55.6454487 18.2923949,55.6767965 L19.8022071,55.763158 L21.2869067,55.8347085 C21.5317474,55.8454454 21.7751542,55.8555997 22.0169334,55.8651887 L23.4465288,55.9160771 L24.8277643,55.9542271 L26.1513412,55.9804674 L27.2884107,55.9950608 C27.4582138,56.56716 27.699172,57.1086562 28.001028,57.6092921 L27.991745,59.9992768 L26.8166257,59.9900034 L25.5772365,59.9711156 L23.6140747,59.9231736 L22.246867,59.8770833 L20.8416743,59.8188454 L19.4060068,59.7477362 C18.681806,59.7088432 17.9489934,59.664852 17.2117933,59.6153555 L16.4732872,59.5640089 L15.6361172,59.5010432 C13.1766672,59.3078553 10.9689704,59.0609874 9.07221861,58.7528936 C6.71807737,58.370505 5.84576903,57.8438693 5,57 C4.15423097,56.1561307 4,53.9957079 4,52.868027 C4,52.0383753 3.99001142,51.1106825 3.98818763,50.1372144 L3.98838058,49.4820277 C4.0000869,45.1866905 4.24086078,40.2498914 6.18784796,38.9245156 L6.4657745,38.7281028 L6.78171809,38.525412 L7.14547929,38.3109616 L7.41939187,38.1587547 L7.88462809,37.9125239 L8.42381674,37.639916 L9.27471127,37.2259338 L10.2977309,36.7423209 L13.8694259,35.0810092 L14.8477547,34.6131364 L15.6851616,34.2025923 L16.4613832,33.8106191 L17.1800303,33.4348139 L17.553,33.233 L17.5457296,33.2152006 C17.233329,32.5097882 16.9873401,31.7636095 16.7943731,31.0069596 L16.712,30.666 L16.4970683,30.3528259 C16.1116637,29.7797053 15.7219618,29.1465221 15.356475,28.4739505 L15.1403168,28.0658464 C14.2506478,26.3412457 13.7231195,24.7320617 13.7231195,23.2371849 C13.7231195,20.9792055 13.9245418,19.4073687 14.4939932,18.3625139 L14.522,18.313 L14.5114726,18.1750791 C14.3754855,16.2339596 14.4745955,14.3970622 14.9823371,12.5402619 L15.106841,12.1113598 C16.6267801,7.16415662 20.7098164,4.11372906 27.6066088,4.00244683 L28,3.99929384 Z M28.008255,3.99929384 L28.4016462,4.00244683 C35.1683105,4.1116294 39.2263964,7.05009247 40.8126406,11.8333621 L40.901414,12.1113598 L41.0259179,12.5402619 C41.1073499,12.8380569 41.178271,13.13534 41.2393973,13.4326232 C39.4720783,14.0404039 38.1704839,15.2712266 37.5053109,17.0249797 L37.5482849,16.9193436 C37.5669578,15.6447683 37.433345,14.443336 37.0778036,13.2860952 C36.0708442,10.008574 33.5134793,8.08598441 28.3634249,8.00215451 L28.008255,7.99929384 L28.008255,3.99929384 Z" id="Path-2" fill="#000000" fill-rule="nonzero"></path>
        <path d="M33.0001915,22.0829263 L32.9999275,26.2676063 C32.4021661,26.6134261 32,27.2597476 32,28 L32,54 C32,55.1045695 32.8954305,56 34,56 L54,56 C55.1045695,56 56,55.1045695 56,54 L56,28 C56,27.2601625 55.5982846,26.6141507 55.0010775,26.2681881 L55.0008069,22.0830939 C57.8381232,22.5595044 60,25.0272855 60,28 L60,54 C60,57.3137085 57.3137085,60 54,60 L34,60 C30.6862915,60 28,57.3137085 28,54 L28,28 C28,25.0269368 30.1623839,22.5589255 33.0001915,22.0829263 Z M44,14 C46.963829,14 49.0330253,15.3866802 49.735469,17.9052489 L49.76,18 L50,18 C52.1421954,18 53.8910789,19.6839685 53.9951047,21.8003597 L54,22 L54,25 C54,27.209139 52.209139,29 50,29 L38,29 C35.790861,29 34,27.209139 34,25 L34,22 C34,19.790861 35.790861,18 38,18 L38.239,18 L38.2645206,17.9052865 C38.945668,15.4630166 40.9120034,14.0850816 43.7330372,14.003813 Z M44,18 C42.6056662,18 42.1729885,18.343091 42.0364954,19.388548 L42.007958,19.5659675 C41.7391369,20.9701091 40.5081567,22 39.061759,22 L38,22 L38,25 L50,25 L50,22 L48.9380147,22 C47.4314048,21.9998666 46.1585421,20.8823511 45.9634841,19.3883909 L45.9429748,19.2501684 C45.7856835,18.3126069 45.3309483,18 44,18 Z" id="Combined-Shape" fill="#000000" fill-rule="nonzero"></path>
        <path d="M49.3825278,34.8236566 C50.0322043,33.9303514 51.2830382,33.7328513 52.1763434,34.3825278 C53.0249833,34.9997205 53.2456592,36.1594577 52.7085887,37.039786 L52.6174722,37.1763434 L43.6174722,47.1763434 C42.9260582,48.1270376 41.5786429,48.2717335 40.7022668,47.522002 L40.5857864,47.4142136 L35.5857864,42.4142136 C34.8047379,41.633165 34.8047379,40.366835 35.5857864,39.5857864 C36.3257272,38.8458457 37.5012114,38.8069014 38.2869988,39.4689537 L38.4142136,39.5857864 L41.759,42.93 L49.3825278,34.8236566 Z" id="Path-89" fill="#000000" fill-rule="evenodd"></path>
    </g>
</svg>