<?xml version="1.0" encoding="UTF-8"?>
<svg width="64px" height="64px" viewBox="0 0 64 64" version="1.1" xmlns="http://www.w3.org/2000/svg" xmlns:xlink="http://www.w3.org/1999/xlink">
    <title>user_credit</title>
    <g id="user_credit" stroke="none" stroke-width="1" fill="none" fill-rule="evenodd">
        <path d="M28,3.99929384 L27.9989037,7.00371595 C27.2655971,7.03847147 26.6498151,7.31673897 26.1463073,7.82626194 C26.0564704,7.91717208 25.9739161,8.01171635 25.8985735,8.11120197 C21.9027181,8.56745855 19.8164449,10.4023022 18.9304514,13.2860952 C18.4912147,14.7157533 18.3906896,16.2128572 18.497565,17.8319951 L18.5389721,18.3579252 L18.5758605,18.7400325 C18.6342839,19.3266754 18.4308522,19.9002347 18.0351483,20.3164062 L17.981,20.369 L17.9487462,20.481909 L17.9259767,20.5747051 C17.8518855,20.8951251 17.7952062,21.3301732 17.7608366,21.8806447 L17.7369546,22.3807629 L17.7246853,22.9375264 L17.7231195,23.2371849 C17.7231195,24.2834882 18.383606,25.8139576 19.2866681,27.2978142 C19.0945493,27.6765642 19,28.0881969 19,28.5313175 C19,28.9603169 19.1002299,29.391069 19.3126303,29.8209447 C19.5100091,30.2204184 19.7894501,30.5793159 20.1563707,30.8934962 C20.5267984,31.2169191 20.9043441,31.5080264 21.2885287,31.7669918 C21.4186437,32.0441179 21.5603793,32.3010246 21.7122034,32.5267208 L21.8608651,32.7332729 C22.5808085,33.6650976 22.3438985,35.0141459 21.3495432,35.6449179 C21.1762748,35.7548312 20.9969701,35.8655357 20.8115705,35.9771533 C20.0735002,36.4214995 19.2535143,36.872919 18.3193015,37.3532334 L17.4898201,37.7725168 L16.5998692,38.2090067 L14.8701948,39.030155 L11.8254842,40.4445286 L10.9244677,40.8725265 L10.0189325,41.3165032 L9.45484203,41.6074295 L9.1165541,41.7927522 L8.84468442,41.9531919 L8.69755909,42.0477912 L8.57578615,42.1335266 C8.23020712,42.3901938 8.08626058,44.6068122 8.0287088,46.8842637 L8.0150683,47.5054683 C7.99950611,48.3319472 7.99398275,49.1436408 7.99295709,49.8492316 L7.9929446,50.3571036 C7.99404071,51.1656437 8,51.7727273 8,52 C8,53 7.66694242,54.4722064 9.71354251,54.8046404 C11.3273007,55.0667669 13.2118468,55.2849244 15.3076794,55.4611907 L15.9427082,55.5128159 L16.766769,55.5747951 C17.2769134,55.6114943 17.7859719,55.6454487 18.2923949,55.6767965 L19.8022071,55.763158 L21.2869067,55.8347085 C21.5317474,55.8454454 21.7751542,55.8555997 22.0169334,55.8651887 L23.4465288,55.9160771 L24.8277643,55.9542271 L26.1513412,55.9804674 L27.4079604,55.9956272 L28.004,55.9992938 L28.6002946,55.9956272 L29.8569138,55.9804674 L30.2312467,55.9731104 C30.7596617,56.70137 31.3444427,57.3860732 31.9791847,58.0208153 C32.6512587,58.6928892 33.3793435,59.3089524 34.1558365,59.8614021 L33.761388,59.8770833 L32.3941803,59.9231736 L31.7271677,59.9418896 L30.4310185,59.9711156 L29.1916293,59.9900034 L28.01651,59.9992768 L28.0033806,56.9992938 L27.991745,59.9992768 L26.8166257,59.9900034 L25.5772365,59.9711156 L23.6140747,59.9231736 L22.246867,59.8770833 L20.8416743,59.8188454 L19.4060068,59.7477362 C18.681806,59.7088432 17.9489934,59.664852 17.2117933,59.6153555 L16.4732872,59.5640089 L15.6361172,59.5010432 C13.1766672,59.3078553 10.9689704,59.0609874 9.07221861,58.7528936 C6.71807737,58.370505 5.84576903,57.8438693 5,57 C4.15423097,56.1561307 4,53.9957079 4,52.868027 C4,52.1305588 3.99210779,51.3156261 3.98907306,50.4599367 L3.98838058,49.4820277 C3.98988139,48.9313434 3.99514728,48.3701157 4.00729097,47.8073065 L4.02536396,47.1317499 C4.14148532,43.5308505 4.59032002,40.0120035 6.18784796,38.9245156 L6.4657745,38.7281028 L6.78171809,38.525412 L7.14547929,38.3109616 L7.41939187,38.1587547 L7.88462809,37.9125239 L8.42381674,37.639916 L9.27471127,37.2259338 L10.2977309,36.7423209 L13.8694259,35.0810092 L14.8477547,34.6131364 L15.6851616,34.2025923 L16.4613832,33.8106191 L17.1800303,33.4348139 L17.553,33.233 L17.5457296,33.2152006 C17.233329,32.5097882 16.9873401,31.7636095 16.7943731,31.0069596 L16.712,30.666 L16.4970683,30.3528259 C16.1116637,29.7797053 15.7219618,29.1465221 15.356475,28.4739505 L15.1403168,28.0658464 C14.2506478,26.3412457 13.7231195,24.7320617 13.7231195,23.2371849 C13.7231195,20.9792055 13.9245418,19.4073687 14.4939932,18.3625139 L14.522,18.313 L14.5114726,18.1750791 C14.3754855,16.2339596 14.4745955,14.3970622 14.9823371,12.5402619 L15.106841,12.1113598 C16.6267801,7.16415662 20.7098164,4.11372906 27.6066088,4.00244683 L28,3.99929384 Z M28.1574068,8 C28.6753374,8 29.098646,8.17638589 29.4273328,8.52915767 L29.4273328,8.52915767 L29.5308082,8.64992134 C29.7905113,8.98041934 29.9203628,9.37860971 29.9203628,9.84449244 L29.9203628,9.84449244 L29.9203628,10.9443844 L30.2623298,11.0136789 C30.6518845,11.1010319 31.0309255,11.2102232 31.3994531,11.3412527 C32.5050357,11.7343413 33.4064341,12.2332613 34.1036484,12.838013 C34.6813402,13.3016559 34.9701861,13.8358531 34.9701861,14.4406048 C34.9701861,14.8840893 34.8008626,15.287257 34.4622157,15.650108 C34.1235688,16.012959 33.7251606,16.1943844 33.2669913,16.1943844 C32.9681852,16.1943844 32.6992597,16.1036717 32.4602148,15.9222462 C32.1414883,15.6400288 31.7131995,15.3729302 31.1753485,15.1209503 L31.1753485,15.1209503 L30.7663576,14.9395248 C30.6281598,14.8815695 30.4880944,14.8261339 30.3461615,14.7732181 L30.3461615,14.7732181 L29.9203628,14.6239201 L29.9203628,20.2131479 L29.9315681,20.2159827 C30.4569688,20.3470122 30.9462638,20.488121 31.3994531,20.6393089 C32.3058316,20.9416847 33.057827,21.3297336 33.6554392,21.8034557 C34.2530514,22.2771778 34.7012606,22.8718503 35.0000667,23.587473 C35.2988728,24.3030958 35.4482759,25.174946 35.4482759,26.2030238 C35.4482759,27.5133189 35.0897085,28.6421886 34.3725739,29.5896328 C33.6554392,30.537077 32.7142,31.262779 31.5488561,31.7667387 L31.5488561,31.7667387 L31.1964143,31.9103672 C30.8411339,32.0464363 30.4773374,32.1598272 30.105025,32.25054 L30.105025,32.25054 L29.9203628,32.2921166 L29.9203628,34.1555076 C29.9203628,34.6796256 29.7460593,35.1180706 29.3974521,35.4708423 C29.048845,35.8236141 28.6155762,36 28.0976456,36 C27.5996354,36 27.1813068,35.8236141 26.8426599,35.4708423 L26.8426599,35.4708423 L26.7360488,35.3500787 C26.468476,35.0195807 26.3346895,34.6213903 26.3346895,34.1555076 L26.3346895,34.1555076 L26.3346895,32.4546436 L25.9923536,32.4181532 C25.2865318,32.3310491 24.6237479,32.1895048 24.0040019,31.9935205 C22.8884591,31.6407487 21.8227173,31.0208783 20.8067765,30.1339093 C20.5478112,29.912167 20.3486071,29.6601872 20.2091643,29.3779698 C20.0697214,29.0957523 20,28.8135349 20,28.5313175 C20,28.0676746 20.1643434,27.6594672 20.4930301,27.3066955 C20.8217168,26.9539237 21.2350653,26.7775378 21.7330754,26.7775378 C22.1115632,26.7775378 22.4502101,26.8984881 22.7490162,27.1403888 C23.5059917,27.7652988 24.2579871,28.2390209 25.0050023,28.5615551 L25.0050023,28.5615551 L25.234336,28.6534773 C25.5470864,28.7695896 25.8877254,28.8598992 26.2562529,28.924406 L26.2562529,28.924406 L26.3346895,28.9366901 L26.3346895,23.0280778 L26.090042,22.9817765 C25.3318215,22.8286987 24.646435,22.6274298 24.0338825,22.3779698 C23.2171458,22.0453564 22.5348718,21.6220302 21.9870606,21.1079914 C21.4392494,20.5939525 21.025901,19.9892009 20.7470153,19.2937365 C20.4681296,18.5982721 20.3286867,17.8171346 20.3286867,16.950324 C20.3286867,15.6400288 20.6623535,14.5212383 21.3296872,13.5939525 C21.9970208,12.6666667 22.8984193,11.9611231 24.0338825,11.4773218 L24.0338825,11.4773218 L24.3781071,11.3394384 C24.957791,11.1217279 25.5673554,10.9644924 26.2068005,10.8677322 L26.2068005,10.8677322 L26.3346895,10.8508369 L26.3346895,9.84449244 C26.3346895,9.32037437 26.5089931,8.88192945 26.8576002,8.52915767 C27.2062073,8.17638589 27.6394762,8 28.1574068,8 Z M28.008255,3.99929384 L28.4016462,4.00244683 C35.1683105,4.1116294 39.2263964,7.05009247 40.8126406,11.8333621 L40.901414,12.1113598 L41.0259179,12.5402619 C41.4913477,14.2423288 41.6134134,15.9276718 41.5257809,17.6918987 L41.486255,18.313 L41.5142618,18.3625139 C42.0837132,19.4073687 42.2851355,20.9792055 42.2851355,23.2371849 C42.2851355,24.6324032 41.8255997,26.1271958 41.0409944,27.7224648 L40.8679382,28.0658464 L40.65178,28.4739505 C40.4681641,28.8118419 40.2784365,29.139792 40.0862124,29.4551792 C38.1513454,29.9086751 36.3445932,30.6948885 34.7281941,31.7486559 C34.9847701,31.1989919 35.1979109,30.5666686 35.3585067,29.9309951 C35.7358795,29.3755958 36.0171714,28.7702994 36.1992974,28.1145725 C37.3575266,26.3970859 38.2851355,24.4771461 38.2851355,23.2371849 L38.2835697,22.9375264 L38.2713004,22.3807629 L38.2474184,21.8806447 C38.2179587,21.408812 38.1721083,21.0217801 38.1129513,20.7190483 L38.0822783,20.5747051 L38.0595088,20.481909 L38.027255,20.369 L37.9731067,20.3164062 C37.6169732,19.9418518 37.4165802,19.4398134 37.4226536,18.9154885 L37.4323945,18.7400325 L37.4692829,18.3579252 L37.51069,17.8319951 C37.6175654,16.2128572 37.5170403,14.7157533 37.0778036,13.2860952 C36.2121865,10.4686247 34.2008638,8.65241019 30.3817294,8.14480119 L30.2965709,8.02515833 L30.2965709,8.02515833 L30.1589743,7.84746808 C29.6409215,7.29145415 28.9777996,7 28.1574068,7 C28.1066802,7 28.0564929,7.00111772 28.0068431,7.00334938 L28.008255,3.99929384 Z M29.7671164,23.4482759 L29.7663806,28.2262938 L29.8961948,28.1709373 C30.2864758,27.9877846 30.6196426,27.7632415 30.895695,27.497308 L31.0544728,27.332781 C31.4089622,26.9372954 31.5862069,26.4860362 31.5862069,25.9790034 C31.5862069,25.370564 31.4182909,24.8533906 31.0824588,24.427483 L31.0824588,24.427483 L30.9639501,24.2879551 C30.7138036,24.0137818 30.3848816,23.7689037 29.9771842,23.5533209 L29.9771842,23.5533209 L29.7671164,23.4482759 Z M26.7586207,13.7931034 L26.4827067,13.8440158 C26.2914936,13.8840184 26.1100956,13.9306881 25.9385127,13.9840249 C25.2521811,14.1973721 24.7345243,14.4883001 24.3855422,14.8568089 C24.03656,15.2253177 23.862069,15.652012 23.862069,16.136892 C23.862069,16.718748 24.0656419,17.1987791 24.4727877,17.5769855 C24.8799335,17.9551919 25.4673868,18.2558175 26.2351475,18.4788623 L26.2351475,18.4788623 L26.5734465,18.5729686 L26.7586207,18.6206897 L26.7586207,13.7931034 Z" id="Path-2" fill="#000000" fill-rule="nonzero"></path>
        <path d="M44,30 C52.836556,30 60,37.163444 60,46 C60,54.836556 52.836556,62 44,62 C35.163444,62 28,54.836556 28,46 C28,37.163444 35.163444,30 44,30 Z M44,34 C37.372583,34 32,39.372583 32,46 C32,52.627417 37.372583,58 44,58 C50.627417,58 56,52.627417 56,46 C56,39.372583 50.627417,34 44,34 Z M44,38 C45.1045695,38 46,38.8954305 46,40 L46,44 L50,44 C51.1045695,44 52,44.8954305 52,46 C52,47.1045695 51.1045695,48 50,48 L46,48 L46,52 C46,53.1045695 45.1045695,54 44,54 C42.8954305,54 42,53.1045695 42,52 L42,48 L38,48 C36.8954305,48 36,47.1045695 36,46 C36,44.8954305 36.8954305,44 38,44 L42,44 L42,40 C42,38.8954305 42.8954305,38 44,38 Z" id="Oval" fill="#101010" fill-rule="nonzero"></path>
    </g>
</svg>