<?xml version="1.0" encoding="UTF-8"?>
<svg width="64px" height="64px" viewBox="0 0 64 64" version="1.1" xmlns="http://www.w3.org/2000/svg" xmlns:xlink="http://www.w3.org/1999/xlink">
    <title>utility</title>
    <g id="utility" stroke="none" stroke-width="1" fill="none" fill-rule="evenodd">
        <path d="M38.719125,4 C41.70375,4.7138523 44.5078333,5.89189091 47.0504375,7.45434515 C45.8738542,10.0974216 46.3675,13.3032675 48.5350208,15.4707826 C49.9398333,16.8752998 51.7798125,17.5769022 53.620375,17.5769022 C54.619625,17.5769022 55.6193125,17.370111 56.549,16.9565287 C58.1104375,19.4997096 59.2873125,22.3046606 60,25.2892779 C57.3009167,26.3267336 55.3840833,28.9422475 55.3842292,32.0066354 C55.3842292,35.0700024 57.2991667,37.6846414 59.9967917,38.7228262 C59.2825,41.7074434 58.1044583,44.5112278 56.5417083,47.0539712 C55.6137708,46.6424306 54.6171458,46.4366603 53.6202292,46.4366603 C51.7798125,46.4366603 49.9395417,47.1384085 48.5353125,48.5430715 C46.3708542,50.7073783 45.8754583,53.9069533 47.0454792,56.5474047 C44.5022917,58.1094215 41.6986458,59.2868768 38.7137292,60 C37.674375,57.3048612 35.0613333,55.392262 32,55.392262 C28.9386667,55.392262 26.325625,57.3051528 25.286125,60 C23.1007286,59.4778383 21.0122847,58.7068062 19.0521667,57.7181624 L27.4537166,49.4220738 C28.905115,49.7992162 30.4285082,50 32,50 C41.967275,50 50,41.9225 50,32 C50,22.077275 41.967275,14 32,14 C22.0325,14 14,22.077275 14,32 C14,33.5977213 14.2082623,35.1476065 14.5993307,36.6236358 L6.24608139,44.8749822 C5.27651056,42.9386736 4.51896763,40.8778899 4.00320833,38.7228262 C6.70083333,37.6847872 8.61591667,35.070294 8.61591667,32.0066354 C8.61591667,28.9422475 6.69922917,26.3264418 4,25.2892779 C4.71254167,22.3045148 5.88970833,19.4997096 7.451,16.9566746 C8.38097917,17.3702568 9.38022917,17.5771938 10.3797708,17.5771938 C12.2203333,17.5771938 14.0606042,16.8754456 15.465125,15.4709285 C17.6327917,13.3029758 18.1264375,10.0972758 16.9498542,7.45449101 C19.4924583,5.89189091 22.2963958,4.7138523 25.2810208,4 C26.3170208,6.7021388 28.9338542,8.62144625 32,8.62144625 C35.0664375,8.62144625 37.6832708,6.7021388 38.719125,4 Z" id="Shape" fill="#000000" fill-rule="nonzero"></path>
        <path d="M32,19 C32.8565175,19 33.7046251,19.0833834 34.534897,19.247783 C37.6723368,19.8690179 38.8479273,23.7387248 36.5862293,26.0001809 L36.5862293,26.0001809 L32.346,30.239 L32.611,31.328 L33.784,31.629 L38.0003071,27.4144791 C40.2158524,25.1991516 43.9743476,26.2824488 44.710472,29.2769179 L44.710472,29.2769179 L44.7525031,29.4665482 C44.9167135,30.2963602 45,31.1439806 45,32 C45,39.1797017 39.1797017,45 32,45 C31.5252524,45 31.0533997,44.9743803 30.5860758,44.9236581 L30.5860758,44.9236581 L30.412,44.901 L18.6786024,56.6341508 C17.4736288,55.9811619 16.3219559,55.2423415 15.2317834,54.425889 L29.1260657,40.5313846 C30.0285571,40.8352869 30.9950431,41 32,41 C36.9705627,41 41,36.9705627 41,32 C41,31.3987563 40.9410431,30.8112828 40.8285953,30.2430452 L40.8285953,30.2430452 L35,36.0710678 L29.2918117,34.6055202 L27.9289322,29 L33.7579535,23.1716024 C33.1894055,23.0590259 32.6015959,23 32,23 C27.0294373,23 23,27.0294373 23,32 C23,33.0049569 23.1647131,33.9714429 23.4686154,34.8739343 L23.4686154,34.8739343 L9.5748595,48.7692159 C8.75765704,47.6781431 8.01821769,46.5254614 7.36476232,45.3193917 L19.098,33.587 L19.0763419,33.4139242 C19.0425271,33.1023749 19.019869,32.7888129 19.0085207,32.4737221 L19.0085207,32.4737221 L19,32 C19,24.8202983 24.8202983,19 32,19 Z" id="wrench" fill="#000000" fill-rule="nonzero"></path>
    </g>
</svg>