<?xml version="1.0" encoding="UTF-8"?>
<svg width="64px" height="64px" viewBox="0 0 64 64" version="1.1" xmlns="http://www.w3.org/2000/svg" xmlns:xlink="http://www.w3.org/1999/xlink">
    <title>vacation</title>
    <g id="vacation" stroke="none" stroke-width="1" fill="none" fill-rule="evenodd">
        <path d="M41.5333111,5.65355983 C47.25333,2.7543722 53.310736,3.55087734 60.1509868,8.36438716 C61.7781646,9.50943823 60.917035,12.0697406 58.9286169,11.9987257 C55.0633111,11.8606791 52.5895917,12.3229012 49.4912985,13.3872079 L49.4912985,13.3872079 L49.137,13.512 L49.2441919,13.5338309 C52.8550265,14.2840198 55.8838546,17.0591159 58.164955,21.8401748 L58.164955,21.8401748 L58.3159188,22.1618836 C59.0698562,23.7954148 57.4518991,25.516095 55.7751075,24.8640093 C50.8474671,22.9477047 45.6854869,22.4751785 40.249967,23.4529142 L40.249967,23.4529142 L40.126,23.475 L40.431288,24.4155734 C43.9268876,35.4250628 44.8182154,46.323093 43.0957287,57.0867845 L43.0957287,57.0867845 L42.9712445,57.8379276 C42.8537307,58.523425 42.3885341,59.0986523 41.7427814,59.3569534 C38.7375847,60.559032 33.6459281,60.559032 31.1055728,59.2888544 C30.1176158,58.7948759 29.7171671,57.5935298 30.2111456,56.6055728 C34.0310532,48.9657576 34.9942679,39.1691775 33.0398567,27.1869594 L33.0398567,27.1869594 L33.028,27.12 L32.7588473,27.2913167 C28.7454783,29.8932592 25.8547844,33.3738722 24.0471447,37.7671577 L24.0471447,37.7671577 L23.8640093,38.2248925 C23.1889763,39.9606918 20.7163909,39.9126783 20.109254,38.1519814 C18.2422059,32.7375419 18.4586843,28.3890195 20.6378475,25.2424196 L20.6378475,25.2424196 L20.73,25.111 L20.234012,25.3494156 C17.7304403,26.6008308 15.6149241,28.4264763 13.866966,30.8268706 L13.866966,30.8268706 L13.6384638,31.1469247 C12.517102,32.7488702 10,31.9554237 10,30 C10,24.4597603 12.9317727,18.8773438 17.551249,15.937677 C20.0128104,14.3712289 22.7642903,13.6341636 25.6667499,13.7735883 C24.6589591,12.864182 23.4524609,12.0249722 22.0422957,11.2557911 C20.4922636,10.410319 20.7181987,8.11768109 22.40345,7.59104004 C27.5823635,5.97262959 32.0927949,7.11148081 35.6606679,10.861482 C37.0569476,8.78318616 38.9531684,7.03159779 41.2231507,5.81523509 L41.2231507,5.81523509 Z M37.082,27.143 L37.211913,27.9928218 C38.809881,38.9198228 38.0532022,48.2420241 34.9019338,55.9404986 L34.9019338,55.9404986 L34.803,56.174 C36.1851899,56.3232322 37.880986,56.2532267 39.223,55.952 L39.223,55.952 L39.2644154,55.6848017 C40.6465595,46.322791 39.9315671,36.8471729 37.1119431,27.2399774 L37.1119431,27.2399774 L37.082,27.143 Z M30.602,23.923 L30.1549428,24.0163049 C25.2422779,25.0988135 22.8782014,27.4539198 22.8282034,31.3455614 L22.8282034,31.3455614 L22.827,31.55 L23.1909493,31.0161863 C25.1153265,28.2620352 27.5470068,25.9220647 30.4761254,24.0047405 L30.4761254,24.0047405 L30.602,23.923 Z M30.5715791,19.1421883 C26.4936731,17.1781099 22.7740058,17.3553426 19.698751,19.312323 C18.2497289,20.2344279 17.0106311,21.5302844 16.0615695,23.0351554 L16.0615695,23.0351554 L15.926,23.255 C19.9503109,20.482568 24.9012314,19.1701964 30.7227693,19.3161217 L30.7227693,19.3161217 L30.935,19.323 Z M51.8354612,19.434376 C49.1466542,16.6865902 45.791444,16.6100303 41.4025376,19.1627086 L41.4025376,19.1627086 L41.253,19.25 L41.8084451,19.1817296 C45.1689628,18.79545 48.4543016,18.9100488 51.6578428,19.5266206 L51.6578428,19.5266206 L51.987,19.593 Z M52.255322,8.44359323 C49.0063026,7.59182696 45.9646885,7.89197461 43.3416889,9.22144017 C40.4217331,10.7014177 38.2918812,13.3736157 37.4266325,16.4383851 L37.4266325,16.4383851 L37.353,16.71 L37.7851869,16.252071 C41.6687932,12.2260062 46.4419457,9.66618488 52.055672,8.57810973 L52.055672,8.57810973 L52.468,8.501 Z M28.66,11.093 L28.7781021,11.204852 C30.091026,12.465448 31.1450699,13.8535508 31.9332975,15.3691566 C32.301835,15.5377166 32.6716408,15.7193475 33.0419889,15.9144126 L33.0419889,15.9144126 L33.385,16.099 C33.4870971,15.6547667 33.6086124,15.2160242 33.7488083,14.7840056 C32.2910224,12.852039 30.6827594,11.6505528 28.8673272,11.1477454 L28.66,11.093 Z" id="Combined-Shape" fill="#000000" fill-rule="nonzero"></path>
        <path d="M58.8328327,52.1816519 C59.8370786,52.6416127 60.2783089,53.8285868 59.8183481,54.8328327 C59.3583873,55.8370786 58.1714132,56.2783089 57.1671673,55.8183481 C53.007571,53.913186 48.8707902,52.4770077 44.7551118,51.5081734 C44.8566392,50.157869 44.9171808,48.8037776 44.9371502,47.4472261 C49.5566445,48.475796 54.1896008,50.054977 58.8328327,52.1816519 Z M32,46 L32.4724201,46.0030494 C32.2557672,47.3838563 31.9754312,48.7169095 31.6313652,50.0022525 L32,50 C23.6960732,50 15.3118541,51.9348198 6.83283268,55.8183481 C5.82858677,56.2783089 4.64161272,55.8370786 4.18165193,54.8328327 C3.72169113,53.8285868 4.1629214,52.6416127 5.16716732,52.1816519 C14.154781,48.0651802 23.1038952,46 32,46 Z" id="Path-185" fill="#000000" fill-rule="nonzero"></path>
        <path d="M11,4 C14.8659932,4 18,7.13400675 18,11 C18,14.8659932 14.8659932,18 11,18 C7.13400675,18 4,14.8659932 4,11 C4,7.13400675 7.13400675,4 11,4 Z M11,8 C9.34314575,8 8,9.34314575 8,11 C8,12.6568542 9.34314575,14 11,14 C12.6568542,14 14,12.6568542 14,11 C14,9.34314575 12.6568542,8 11,8 Z" id="Oval" fill="#000000" fill-rule="nonzero"></path>
    </g>
</svg>