<?xml version="1.0" encoding="UTF-8"?>
<svg width="64px" height="64px" viewBox="0 0 64 64" version="1.1" xmlns="http://www.w3.org/2000/svg" xmlns:xlink="http://www.w3.org/1999/xlink">
    <title>vacuum</title>
    <g id="vacuum" stroke="none" stroke-width="1" fill="none" fill-rule="evenodd">
        <path d="M49,42 C53.9705627,42 58,46.0294373 58,51 C58,55.9705627 53.9705627,60 49,60 C44.0294373,60 40,55.9705627 40,51 C40,46.0294373 44.0294373,42 49,42 Z M49,46 C46.2385763,46 44,48.2385763 44,51 C44,53.7614237 46.2385763,56 49,56 C51.7614237,56 54,53.7614237 54,51 C54,48.2385763 51.7614237,46 49,46 Z" id="Oval" fill="#000000" fill-rule="nonzero"></path>
        <circle id="Oval" fill="#000000" cx="49" cy="51" r="2"></circle>
        <path d="M41.8924941,4.1300826 C44.7975039,4.3375833 46.8904095,6.5206708 46.995828,9.74342881 L47,10 L47.0007064,24.0709605 C49.4326604,24.4306874 50.9105703,26.1389634 50.9960746,28.757427 L51,29 L51.0004597,41.2001295 C50.3540973,41.0688932 49.6850941,41 49,41 C48.3152567,41 47.6465878,41.0688226 47.0005332,41.199928 L46.9990309,28.8650884 L46.9894775,28.6322974 C46.9551768,28.1788063 46.8211937,28.0448232 46.3677026,28.0105225 L46.1349116,28.0009691 L46,28 C45.3056929,28 44.6391566,28.0293297 43.9999492,28.0882584 L44,37 C44,40.2383969 41.4344251,42.8775718 38.2249383,42.9958615 L38,43 L31.5,42.9992397 L31.4837095,43.0682366 L31.218992,44.1609654 L30.9063432,45.5076574 L30.6398217,46.7272682 L30.5238795,47.2890611 L30.3716378,48.0713331 L30.2846032,48.5523614 L30.1757619,49.2128171 L30.1176869,49.6121881 C30.108974,49.6760112 30.1007444,49.7384629 30.0929982,49.7995403 L30.052324,50.1494885 L30.0232607,50.4663098 L30.0058166,50.7498612 L30,51 C30,54.4205451 31.640816,55.9322711 35.7182108,55.9977698 L36,56 L40.3381985,56.0006508 C40.7772266,56.7594678 41.3131058,57.4552414 41.9289322,58.0710678 C42.7143032,58.8564388 43.6297021,59.511782 44.6400671,60.0020355 L36,60 C29.6170873,60 26,56.8350486 26,51 L26.0015087,50.846316 L26.013581,50.5166357 L26.0377336,50.1570868 L26.0739749,49.7675265 L26.1223131,49.3478119 L26.1827567,48.8978002 L26.2553138,48.4173487 L26.3399929,47.9063144 L26.4368022,47.3645546 L26.5457501,46.7919266 L26.7319501,45.874794 L26.9455086,44.8874043 L27.2728599,43.460763 L27.4548142,42.699926 L27.7506173,41.4988733 L28.0738914,40.2256356 L28.5477049,38.4148645 L28.8029652,37.4606773 L29.0704724,36.4737652 C31.0490399,29.2190175 35.80104,25.0531353 42.9997444,24.1753006 L43,10 C43,8.73148277 42.4917201,8.18307556 41.6075059,8.1199174 C40.5524273,8.04455464 39.3761577,8.71982054 38.7888544,9.89442719 L38.2338158,11.04456 L36.7987363,14.1249147 L31.7645476,25.1533201 L20.9218391,49.1601175 L20.4899414,50.1180916 C24.0666282,50.7153576 26,53.5508378 26,58 C26,59.1045695 25.1045695,60 24,60 L24,60 L6,60 C4.8954305,60 4,59.1045695 4,58 C4,52.9678668 6.47322237,50 11,50 L11,50 L16.159,49.9992397 L25.0739982,30.2296608 L31.9896646,15.0105775 L34.4949745,9.59543779 L35.1689743,8.19031485 L35.2111456,8.10557281 C36.5199462,5.48797167 39.2180645,3.93905191 41.8924941,4.1300826 Z M19,54 L11,54 C9.44371707,54 8.56434154,54.5459217 8.20043874,55.9853559 L8.20043874,55.9853559 L8.196,56 L21.803,56 L21.7465054,55.7938398 C21.3711252,54.553841 20.5602099,54.0449411 19.1910215,54.0028685 L19.1910215,54.0028685 L19,54 Z M32.9295276,37.5262348 L32.5528619,38.9203696 L32.531,38.9992397 L38,39 C39.0543618,39 39.9181651,38.1841222 39.9945143,37.1492623 L40,37 L39.9999879,28.9746637 C36.4273038,30.3421098 34.1195821,33.1627018 32.9295276,37.5262348 Z" id="Combined-Shape" fill="#000000" fill-rule="nonzero"></path>
    </g>
</svg>