<?xml version="1.0" encoding="UTF-8"?>
<svg width="64px" height="64px" viewBox="0 0 64 64" version="1.1" xmlns="http://www.w3.org/2000/svg" xmlns:xlink="http://www.w3.org/1999/xlink">
    <title>variant</title>
    <g id="variant" stroke="none" stroke-width="1" fill="none" fill-rule="evenodd">
        <path d="M27.0175439,4.14245079 C27.3937541,3.98335191 27.8116161,3.95667757 28.204502,4.06668098 L28.204502,4.06668098 L53.381,11.116 L53.659245,11 L53.743,11.217 L54.6606424,11.4740882 C55.4024459,11.6817844 55.9305376,12.336841 55.9936514,13.1043563 L56,13.2592596 L56.0010343,31.9594361 C54.918423,30.8803568 53.6911386,29.9463361 52.3508042,29.188997 L52.35,15.586 L46,18.226 L46,25.9252486 L42.5,25.6775746 L40.786275,27.3033372 C40.1787146,27.4195806 39.582638,27.5681635 38.9999053,27.7472255 L39,21.136 L33,23.631 L32.9997687,31.0382612 C32.7474216,31.2526319 32.501415,31.4742403 32.2620698,31.7027658 L31.9791847,31.9791847 C30.7999398,33.1584296 29.7931381,34.5101176 28.9998493,35.9931788 L29,23.253 L7.649,16.912 L7.64912281,41.5833328 L27.7027543,48.8529851 C28.2126881,50.5680019 28.9859558,52.1696601 29.9756773,53.6110794 L5.21089499,44.6328547 C4.48473239,44.3696319 4,43.6715061 4,42.8888883 L4,42.8888883 L4,15.1111114 C4,14.3635173 4.4428898,13.689246 5.12280702,13.4017098 L5.12280702,13.4017098 Z M14.9285714,37.0535269 L26.0714286,40.7533778 C26.5842644,40.9236587 27,41.4492033 27,41.9272145 L27,45.3892781 C27,45.8672893 26.5842644,46.116754 26.0714286,45.9464731 L14.9285714,42.2466222 C14.4157356,42.0763413 14,41.5507967 14,41.0727855 L14,37.6107219 C14,37.1327107 14.4157356,36.883246 14.9285714,37.0535269 Z M17.077,12.359 L12.283,14.386 L31.6699685,20.1432356 L36.317,18.21 L17.077,12.359 Z M27.8415439,7.80648201 L23.791,9.519 L43.1,15.39 L47.86,13.411 L27.8415439,7.80648201 Z" id="Combined-Shape" fill="#000000" fill-rule="nonzero"></path>
        <g id="Group" transform="translate(28.000000, 28.000000)" fill="#101010" fill-rule="nonzero">
            <path d="M16,0 C24.836556,0 32,7.163444 32,16 C32,24.836556 24.836556,32 16,32 C7.163444,32 0,24.836556 0,16 C0,7.163444 7.163444,0 16,0 Z M16,4.12903226 C9.44384555,4.12903226 4.12903226,9.44384555 4.12903226,16 C4.12903226,22.5561544 9.44384555,27.8709677 16,27.8709677 C22.5561544,27.8709677 27.8709677,22.5561544 27.8709677,16 C27.8709677,9.44384555 22.5561544,4.12903226 16,4.12903226 Z" id="Oval"></path>
        </g>
        <path d="M44,36 C45.1045695,36 46,36.8954305 46,38 L46,41.999 L50,42 C51.1045695,42 52,42.8954305 52,44 C52,45.1045695 51.1045695,46 50,46 L46,46 L46,50 C46,51.1045695 45.1045695,52 44,52 C42.8954305,52 42,51.1045695 42,50 L42,46 L38,46 C36.8954305,46 36,45.1045695 36,44 C36,42.8954305 36.8954305,42 38,42 L42,42 L42,38 C42,36.8954305 42.8954305,36 44,36 Z" id="Rectangle-2" fill="#000000"></path>
    </g>
</svg>