<?xml version="1.0" encoding="UTF-8"?>
<svg width="64px" height="64px" viewBox="0 0 64 64" version="1.1" xmlns="http://www.w3.org/2000/svg" xmlns:xlink="http://www.w3.org/1999/xlink">
    <title>video</title>
    <g id="video" stroke="none" stroke-width="1" fill="none" fill-rule="evenodd">
        <path d="M58,8 C59.1045695,8 60,8.8954305 60,10 L60,54 C60,55.1045695 59.1045695,56 58,56 L6,56 C4.8954305,56 4,55.1045695 4,54 L4,10 C4,8.8954305 4.8954305,8 6,8 L58,8 Z M10,50 L6,50 L6,54 L10,54 L10,50 Z M18,50 L14,50 L14,54 L18,54 L18,50 Z M26,50 L22,50 L22,54 L26,54 L26,50 Z M34,50 L30,50 L30,54 L34,54 L34,50 Z M42,50 L38,50 L38,54 L42,54 L42,50 Z M50,50 L46,50 L46,54 L50,54 L50,50 Z M58,50 L54,50 L54,54 L58,54 L58,50 Z M56,16 L8,16 L8,48 L56,48 L56,16 Z M10,10 L6,10 L6,14 L10,14 L10,10 Z M18,10 L14,10 L14,14 L18,14 L18,10 Z M26,10 L22,10 L22,14 L26,14 L26,10 Z M34,10 L30,10 L30,14 L34,14 L34,10 Z M42,10 L38,10 L38,14 L42,14 L42,10 Z M50,10 L46,10 L46,14 L50,14 L50,10 Z M58,10 L54,10 L54,14 L58,14 L58,10 Z" id="Rectangle" fill="#000000" fill-rule="nonzero"></path>
        <path d="M23,22 L23,42 C23,43.5973908 24.7802909,44.5501736 26.1094004,43.6641006 L41.1094004,33.6641006 C42.2968665,32.8724565 42.2968665,31.1275435 41.1094004,30.3358994 L26.1094004,20.3358994 C24.7802909,19.4498264 23,20.4026092 23,22 Z M27,25.737 L36.393,32 L27,38.262 L27,25.737 Z" id="Path-268" fill="#000000" fill-rule="nonzero"></path>
    </g>
</svg>