<?xml version="1.0" encoding="UTF-8"?>
<svg width="64px" height="64px" viewBox="0 0 64 64" version="1.1" xmlns="http://www.w3.org/2000/svg" xmlns:xlink="http://www.w3.org/1999/xlink">
    <title>visible</title>
    <g id="visible" stroke="none" stroke-width="1" fill="none" fill-rule="evenodd">
        <path d="M32,12 C19.1856666,12 9.81784815,18.4854128 4.1723769,31.1877231 C3.94254103,31.7048538 3.94254103,32.2951462 4.1723769,32.8122769 C9.81784815,45.5145872 19.1856666,52 32,52 C44.8143334,52 54.1821518,45.5145872 59.8276231,32.8122769 C60.057459,32.2951462 60.057459,31.7048538 59.8276231,31.1877231 C54.1821518,18.4854128 44.8143334,12 32,12 Z M32.6949137,16.0071829 C43.0558012,16.2227057 50.5915279,21.2899504 55.5293725,31.4301666 L55.8,31.998 L55.5293725,32.5698334 C50.481798,42.9353878 42.7195971,48 32,48 L31.3050863,47.9928171 C20.9441988,47.7772943 13.4084721,42.7100496 8.47062747,32.5698334 L8.198,32 L8.47062747,31.4301666 C13.518202,21.0646122 21.2804029,16 32,16 L32.6949137,16.0071829 Z" id="Path-68" fill="#000000" fill-rule="nonzero"></path>
        <path d="M32,20 C38.627417,20 44,25.372583 44,32 C44,38.627417 38.627417,44 32,44 C25.372583,44 20,38.627417 20,32 C20,25.372583 25.372583,20 32,20 Z M32,24 C27.581722,24 24,27.581722 24,32 C24,36.418278 27.581722,40 32,40 C36.418278,40 40,36.418278 40,32 C40,27.581722 36.418278,24 32,24 Z" id="Oval" fill="#000000" fill-rule="nonzero"></path>
    </g>
</svg>