<?xml version="1.0" encoding="UTF-8"?>
<svg width="32px" height="32px" viewBox="0 0 32 32" version="1.1" xmlns="http://www.w3.org/2000/svg" xmlns:xlink="http://www.w3.org/1999/xlink">
    <title>wdi</title>
    <g id="wdi" stroke="none" stroke-width="1" fill="none" fill-rule="evenodd">
        <path d="M22.8371198,3.25112785 C23.213502,2.91706507 23.790383,2.91251771 24.1726794,3.26005993 L24.1726794,3.26005993 L29.6726794,8.26005993 L29.7602549,8.35020376 C30.0835939,8.72754239 30.0828762,9.29545038 29.7399467,9.67267279 L29.7399467,9.67267279 L29.6498029,9.76024823 C29.2724643,10.0835873 28.7045563,10.0828695 28.3273339,9.73994007 L28.3273339,9.73994007 L23.5820066,5.425 L21.3810447,7.94053471 C24.4786239,9.27305079 26,12.0016948 26,16 C26,19.6865176 23.5172157,23.5880358 18.6507914,27.7592566 L18.6507914,27.7592566 L17,29.1742206 L17,27 C17,24.1734432 16.5306227,23 16,23 C15.4693773,23 15,24.1734432 15,27 L15,27 L15,29.1742206 L13.3492086,27.7592566 C8.48278432,23.5880358 6,19.6865176 6,16 C6,12.0016948 7.52137609,9.27305079 10.6189553,7.94053471 L8.418,5.425 L3.67267279,9.73994007 C3.29545038,10.0828695 2.72754239,10.0835873 2.35020376,9.76024823 L2.26005993,9.67267279 C1.91713046,9.29545038 1.91641274,8.72754239 2.23975177,8.35020376 L2.32732721,8.26005993 L7.82732721,3.26005993 C8.20962365,2.91251771 8.78650464,2.91706507 9.16288684,3.25112785 L9.25257669,3.34149539 L12.715601,7.29966881 C13.7002693,7.10065647 14.7947365,7 16,7 C17.2052635,7 18.2997307,7.10065647 19.284399,7.29966881 L22.74743,3.34149539 Z M16,9 C10.3607673,9 8,11.2581253 8,16 C8,18.5774263 9.63352485,21.4926947 12.9647122,24.7104181 L12.9647122,24.7104181 L13.113,24.852 L13.1252938,24.7496145 C13.422459,22.4104006 14.2649313,21.0928105 15.8295868,21.0047237 L15.8295868,21.0047237 L16,21 C17.6741966,21 18.566928,22.3268573 18.8747062,24.7496145 L18.8747062,24.7496145 L18.886,24.852 L19.0352878,24.7104181 C22.2623755,21.5932486 23.8962468,18.7599259 23.9952123,16.2426224 L23.9952123,16.2426224 L24,16 C24,11.2581253 21.6392327,9 16,9 Z" id="Combined-Shape" fill="#000000" fill-rule="nonzero"></path>
        <circle id="Oval" fill="#000000" cx="11.5" cy="18.5" r="1.5"></circle>
        <circle id="Oval-Copy" fill="#000000" cx="20.5" cy="18.5" r="1.5"></circle>
    </g>
</svg>