<?xml version="1.0" encoding="UTF-8"?>
<svg width="32px" height="32px" viewBox="0 0 32 32" version="1.1" xmlns="http://www.w3.org/2000/svg" xmlns:xlink="http://www.w3.org/1999/xlink">
    <title>wdi-az</title>
    <g id="wdi-az" stroke="none" stroke-width="1" fill="none" fill-rule="evenodd">
        <g id="Group" transform="translate(8.999996, 5.999989)" fill="#000000">
            <path d="M15.0440246,0.264995688 C15.4231319,-0.0858293169 16.0181495,-0.0923637054 16.405236,0.26958735 L16.405236,0.26958735 L20.6830138,4.26958735 L20.7693152,4.3609517 C21.0873252,4.74279224 21.0786351,5.31063419 20.7304439,5.68300533 L20.7304439,5.68300533 L20.6390796,5.76930668 C20.2572391,6.0873167 19.6893971,6.07862666 19.317026,5.73043546 L19.317026,5.73043546 L15.8050199,2.44501141 L14.6610676,3.78996642 C16.8904611,4.83874074 18.0000035,6.91243299 18.0000035,9.89474825 C18.0000035,12.6984747 16.1688757,15.6342101 12.6027368,18.7527769 L12.6027368,18.7527769 L10.944448,20.2029404 L10.944448,18.0000114 C10.944448,16.8858547 10.8388023,16.0774728 10.6523341,15.6018657 C10.6394519,15.5690082 10.6277535,15.5398954 10.6171013,15.5141044 L10.6171013,15.5141044 L10.564642,15.3958385 L10.5306873,15.3370049 C10.5172353,15.3190641 10.5082457,15.3158009 10.5000035,15.3158009 C10.4890139,15.3158009 10.4766957,15.3216022 10.4542426,15.3602609 L10.4542426,15.3602609 L10.4118612,15.4462742 L10.3476729,15.6018657 C10.1612048,16.0774728 10.0555591,16.8858547 10.0555591,18.0000114 L10.0555591,18.0000114 L10.0555591,20.2029404 L8.39727026,18.7527769 C4.83113137,15.6342101 3.00000352,12.6984747 3.00000352,9.89474825 C3.00000352,6.91243299 4.10954591,4.83874074 6.33893944,3.78996642 L5.19500352,2.44501141 L1.68299744,5.73043546 C1.3106263,6.07862666 0.742784353,6.0873167 0.360943811,5.76930668 L0.269579464,5.68300533 C-0.0786117307,5.31063419 -0.0873017756,4.74279224 0.230708248,4.3609517 L0.317009598,4.26958735 L4.59478738,0.26958735 C4.98187392,-0.0923637054 5.57689148,-0.0858293169 5.95599886,0.264995688 L6.03945954,0.35205596 L8.42803566,3.16041745 C9.06276832,3.05391061 9.75338611,3.00001141 10.5000035,3.00001141 C11.2466209,3.00001141 11.9372387,3.05391061 12.5719714,3.16041745 L14.9605639,0.35205596 Z M10.5000035,5.00001141 C6.58225214,5.00001141 5.00000352,6.54410335 5.00000352,9.89474825 C5.00000352,11.5815916 5.98511873,13.4983353 8.00456097,15.6189581 L8.00456097,15.6189581 L8.21800352,15.8390114 L8.26786198,15.5894897 C8.57213471,14.1908763 9.22221097,13.3908076 10.3371716,13.3208186 L10.3371716,13.3208186 L10.5000035,13.3158009 C11.772936,13.3158009 12.4788319,14.2031153 12.7752073,15.8037544 L12.7752073,15.8037544 L12.7810035,15.8390114 L12.9954461,15.6189581 C14.9307449,13.5866946 15.9161149,11.7416742 15.9948692,10.1067992 L15.9948692,10.1067992 L16.0000035,9.89474825 C16.0000035,6.54410335 14.4177549,5.00001141 10.5000035,5.00001141 Z" id="Combined-Shape" fill-rule="nonzero"></path>
            <circle id="Oval" cx="7.00000352" cy="11.0000114" r="1"></circle>
            <circle id="Oval-Copy" cx="14.0000035" cy="11.0000114" r="1"></circle>
        </g>
        <path d="M7.53508701,2 L25.6069872,2.03152137 C26.1602396,2.03248636 26.6075708,2.48249512 26.6052522,3.03574344 L26.6052522,3.03574344 L26.593,6.011 L26.0882264,5.53915189 L25.9392792,5.41272378 C25.5814421,5.13760363 25.1548748,5.00143349 24.729403,4.99998621 C24.6851465,4.99983821 24.6407398,5.00089671 24.5961564,5.0033768 L24.6008178,4.02896363 L8.48781777,4.00196363 L8.36599693,6.61123926 C8.34746563,7.00855441 8.097099,7.34880353 7.7410116,7.49222831 L7.7410116,7.49222831 L7.71681777,7.49996363 L7.64852774,7.64732034 C7.5149536,7.93232362 7.25625845,8.13564703 6.95282922,8.20070362 L6.95282922,8.20070362 L6.83710336,8.21850806 L6.30158983,8.26910298 C5.92863244,8.30433971 5.56726091,8.128168 5.3652981,7.81265276 L5.388,7.844 L5.40881777,7.87296363 L5.46672153,8.33146051 L5.47428052,8.44731996 L5.47248277,8.72992364 L5.72546976,11.4074874 C5.74297252,11.5927331 5.70844382,11.7791882 5.62576707,11.9458821 L5.62576707,11.9458821 L5.47181777,12.2539636 L5.46781777,12.4009636 L5.9812285,13.0780249 C6.02112702,13.1306511 6.05566485,13.1870348 6.08437819,13.2463279 L6.08437819,13.2463279 L6.12302184,13.3373434 L6.45681777,14.2469636 L6.53200611,14.2818091 C6.78884529,14.4198645 6.97290356,14.6637522 7.03522703,14.9486055 L7.03522703,14.9486055 L7.05434121,15.0730045 L7.09813739,15.5601425 C7.1227189,15.8335587 7.03381876,16.1050571 6.85228087,16.310981 L6.85228087,16.310981 L6.55445573,16.648813 C6.50038698,16.7101448 6.4390005,16.7646141 6.37167093,16.8110011 L6.37167093,16.8110011 L5.83081777,17.1829636 L5.69581777,17.3619636 L5.57281777,17.8509636 L5.59561005,18.772614 C5.60004544,18.9584201 5.5526145,19.1408235 5.45995557,19.2998697 L5.45995557,19.2998697 L5.38208485,19.4144631 L5.21981777,19.6199636 L5.27542165,19.6683982 C5.45161286,19.8404698 5.56405088,20.0765899 5.57597398,20.3368863 L5.57597398,20.3368863 L5.57482272,20.4498058 L5.53546954,21.0472917 C5.52679548,21.178987 5.49213784,21.3076626 5.43349494,21.4258992 L5.43349494,21.4258992 L5.18364924,21.9296414 C5.073867,22.1509858 4.8860291,22.3238525 4.65634853,22.4149147 L4.721,22.384 L7.85870419,23.6161539 L10.6202668,24.850531 L13.9971747,26.2298668 L17.6948178,27.7839636 L19.459,27.883 L19.5,27.919 L19.534,27.888 L20.1051597,27.9207384 L24.4998178,27.7809636 L24.5193983,23.3047682 C25.3353421,22.4049951 26.0053402,21.5183833 26.5320046,20.6453297 L26.4966061,28.7548208 C26.4943324,29.2931467 26.0663108,29.7330669 25.5282496,29.7500967 L25.5282496,29.7500967 L20.0815847,29.9187127 L17.4098535,29.770982 C17.295507,29.7646593 17.1830961,29.738742 17.0775243,29.6943606 L17.0775243,29.6943606 L13.2315156,28.0774767 L9.83423066,26.689307 L7.08546529,25.4600542 L2.76613812,23.7649398 C2.5806019,23.6921264 2.4210568,23.565531 2.30797851,23.4014006 L2.30797851,23.4014006 L2.17651863,23.2105897 C2.04621713,23.0214602 1.98498883,22.7932425 2.00312334,22.5642893 L2.00312334,22.5642893 L2.02826857,22.2468237 C2.0459168,22.0240099 2.13770269,21.8135316 2.28897403,21.6489885 L2.28897403,21.6489885 L2.78063758,21.114189 C2.83160494,21.05875 2.88850456,21.0094255 2.95016374,20.9670218 L2.95016374,20.9670218 L2.97181777,20.9539636 L2.87472012,20.8283663 C2.74042384,20.6548897 2.66764872,20.4431129 2.66550702,20.2261025 L2.66550702,20.2261025 L2.6727709,20.0955328 L2.69281777,19.9239636 L2.67399054,19.8476393 C2.60188471,19.4538189 2.77304011,19.0533156 3.10749516,18.8332393 L3.10749516,18.8332393 L3.21265071,18.7728164 L3.42481777,18.6659636 L3.58681777,18.4599636 L3.57094704,17.7633048 C3.56951234,17.7032028 3.57350185,17.6431556 3.58283454,17.5838885 L3.58283454,17.5838885 L3.60083086,17.4956639 L3.8064864,16.6774923 C3.83905861,16.5479083 3.89726951,16.4261659 3.97768072,16.319456 L3.97768072,16.319456 L4.33107141,15.8504882 C4.39575605,15.7646484 4.47385657,15.6897982 4.56236692,15.6288186 L4.56236692,15.6288186 L4.80981777,15.4569636 L4.78532694,15.4233003 L4.72967878,15.3261941 L4.68510971,15.2231485 L4.29581777,14.1659636 L3.66082906,13.3278625 C3.55024123,13.1819971 3.48234668,13.0093215 3.46325631,12.8289922 L3.46325631,12.8289922 L3.4581848,12.6926094 L3.48054189,11.9741899 C3.48501032,11.830602 3.52036341,11.6896624 3.58419466,11.560965 L3.58419466,11.560965 L3.70781777,11.3119636 L3.47694168,8.83105354 L3.47381777,8.51596363 L3.29871947,7.09850589 C3.25888858,6.7769354 3.37740328,6.45874397 3.61162733,6.24189045 L3.61162733,6.24189045 L3.70480194,6.16551192 L4.0288625,5.93412644 L4.20536403,5.78599641 C4.34892426,5.66551256 4.5234539,5.58779734 4.709049,5.56171365 L4.709049,5.56171365 L4.90254269,5.53451989 C5.20336779,5.49224167 5.50710082,5.58899954 5.72803984,5.79749207 L5.64981777,5.73296363 L5.84461922,5.7305574 C6.01779167,5.72791239 6.18548204,5.77017002 6.33322205,5.84955598 L6.33322205,5.84955598 L6.36481777,5.86896363 L6.39981777,5.83896363 L6.53442873,2.95340782 C6.55756759,2.45730552 6.93938025,2.05966066 7.42203292,2.0061323 L7.42203292,2.0061323 L7.53508701,2 Z" id="AZ" fill="#000000" fill-rule="nonzero"></path>
    </g>
</svg>