<?xml version="1.0" encoding="UTF-8"?>
<svg width="32px" height="32px" viewBox="0 0 32 32" version="1.1" xmlns="http://www.w3.org/2000/svg" xmlns:xlink="http://www.w3.org/1999/xlink">
    <title>wdi-nv</title>
    <g id="wdi-nv" stroke="none" stroke-width="1" fill="none" fill-rule="evenodd">
        <g id="Group" transform="translate(8.999996, 4.999989)" fill="#000000">
            <path d="M15.0440246,0.264995688 C15.4231319,-0.0858293169 16.0181495,-0.0923637054 16.405236,0.26958735 L16.405236,0.26958735 L20.6830138,4.26958735 L20.7693152,4.3609517 C21.0873252,4.74279224 21.0786351,5.31063419 20.7304439,5.68300533 L20.7304439,5.68300533 L20.6390796,5.76930668 C20.2572391,6.0873167 19.6893971,6.07862666 19.317026,5.73043546 L19.317026,5.73043546 L15.8050199,2.44501141 L14.6610676,3.78996642 C16.8904611,4.83874074 18.0000035,6.91243299 18.0000035,9.89474825 C18.0000035,12.6984747 16.1688757,15.6342101 12.6027368,18.7527769 L12.6027368,18.7527769 L10.944448,20.2029404 L10.944448,18.0000114 C10.944448,16.8858547 10.8388023,16.0774728 10.6523341,15.6018657 C10.6394519,15.5690082 10.6277535,15.5398954 10.6171013,15.5141044 L10.6171013,15.5141044 L10.564642,15.3958385 L10.5306873,15.3370049 C10.5172353,15.3190641 10.5082457,15.3158009 10.5000035,15.3158009 C10.4890139,15.3158009 10.4766957,15.3216022 10.4542426,15.3602609 L10.4542426,15.3602609 L10.4118612,15.4462742 L10.3476729,15.6018657 C10.1612048,16.0774728 10.0555591,16.8858547 10.0555591,18.0000114 L10.0555591,18.0000114 L10.0555591,20.2029404 L8.39727026,18.7527769 C4.83113137,15.6342101 3.00000352,12.6984747 3.00000352,9.89474825 C3.00000352,6.91243299 4.10954591,4.83874074 6.33893944,3.78996642 L5.19500352,2.44501141 L1.68299744,5.73043546 C1.3106263,6.07862666 0.742784353,6.0873167 0.360943811,5.76930668 L0.269579464,5.68300533 C-0.0786117307,5.31063419 -0.0873017756,4.74279224 0.230708248,4.3609517 L0.317009598,4.26958735 L4.59478738,0.26958735 C4.98187392,-0.0923637054 5.57689148,-0.0858293169 5.95599886,0.264995688 L6.03945954,0.35205596 L8.42803566,3.16041745 C9.06276832,3.05391061 9.75338611,3.00001141 10.5000035,3.00001141 C11.2466209,3.00001141 11.9372387,3.05391061 12.5719714,3.16041745 L14.9605639,0.35205596 Z M10.5000035,5.00001141 C6.58225214,5.00001141 5.00000352,6.54410335 5.00000352,9.89474825 C5.00000352,11.5815916 5.98511873,13.4983353 8.00456097,15.6189581 L8.00456097,15.6189581 L8.21800352,15.8390114 L8.26786198,15.5894897 C8.57213471,14.1908763 9.22221097,13.3908076 10.3371716,13.3208186 L10.3371716,13.3208186 L10.5000035,13.3158009 C11.772936,13.3158009 12.4788319,14.2031153 12.7752073,15.8037544 L12.7752073,15.8037544 L12.7810035,15.8390114 L12.9954461,15.6189581 C14.9307449,13.5866946 15.9161149,11.7416742 15.9948692,10.1067992 L15.9948692,10.1067992 L16.0000035,9.89474825 C16.0000035,6.54410335 14.4177549,5.00001141 10.5000035,5.00001141 Z" id="Combined-Shape" fill-rule="nonzero"></path>
            <circle id="Oval" cx="7.00000352" cy="11.0000114" r="1"></circle>
            <circle id="Oval-Copy" cx="14.0000035" cy="11.0000114" r="1"></circle>
        </g>
        <path d="M19.9500624,2.00124766 C20.5121037,1.97314559 20.9866462,2.41415911 20.9997297,2.97675047 L20.9997297,2.97675047 L21.0966262,7.08564589 C20.5933693,7.02897452 20.0613079,7 19.5,7 C19.3625665,7 19.2268862,7.001737 19.0929528,7.00519224 L19.024,4.044 L18.4399583,4.07120135 C16.8299765,4.13560052 15.2199873,4.17585018 13.6099943,4.19195006 L13.6099943,4.19195006 L12,4.2 C9.98854785,4.2 7.88363728,4.16230476 5.68520623,4.08693752 L5.68520623,4.08693752 L4.453,4.041 L4.019,13.585 L17.5,26.223 L17.4999984,25.1709756 L18.944,26.434 L19.5,26.919 L19.5539984,26.8719756 L19.8944272,27.5527864 C19.929141,27.6222141 19.9555343,27.6952062 19.973249,27.7702471 L19.9932675,27.8841554 L19.9999984,28 L19.9999984,29 C19.9999984,29.8754398 18.9547248,30.3282865 18.3160589,29.7295372 L18.3160589,29.7295372 L2.31605887,14.7295372 C2.10285988,14.5296632 1.98776158,14.2465296 2.00103146,13.9545923 L2.00103146,13.9545923 L2.50103146,2.95459234 C2.52609154,2.40327048 2.99305377,1.97648189 3.54440061,2.00098619 C6.53002069,2.13368042 9.34860287,2.2 11.9999984,2.2 C14.6500078,2.2 17.3000234,2.13374961 19.9500624,2.00124766 Z" id="Path-124" fill="#000000" fill-rule="nonzero"></path>
    </g>
</svg>