<?xml version="1.0" encoding="UTF-8"?>
<svg width="32px" height="32px" viewBox="0 0 32 32" version="1.1" xmlns="http://www.w3.org/2000/svg" xmlns:xlink="http://www.w3.org/1999/xlink">
    <title>wdi-ca</title>
    <g id="wdi-ca" stroke="none" stroke-width="1" fill="none" fill-rule="evenodd">
        <g id="Group" transform="translate(8.999996, 3.999989)" fill="#000000">
            <path d="M15.0440246,0.264995688 C15.4231319,-0.0858293169 16.0181495,-0.0923637054 16.405236,0.26958735 L16.405236,0.26958735 L20.6830138,4.26958735 L20.7693152,4.3609517 C21.0873252,4.74279224 21.0786351,5.31063419 20.7304439,5.68300533 L20.7304439,5.68300533 L20.6390796,5.76930668 C20.2572391,6.0873167 19.6893971,6.07862666 19.317026,5.73043546 L19.317026,5.73043546 L15.8050199,2.44501141 L14.6610676,3.78996642 C16.8904611,4.83874074 18.0000035,6.91243299 18.0000035,9.89474825 C18.0000035,12.6984747 16.1688757,15.6342101 12.6027368,18.7527769 L12.6027368,18.7527769 L10.944448,20.2029404 L10.944448,18.0000114 C10.944448,16.8858547 10.8388023,16.0774728 10.6523341,15.6018657 C10.6394519,15.5690082 10.6277535,15.5398954 10.6171013,15.5141044 L10.6171013,15.5141044 L10.564642,15.3958385 L10.5306873,15.3370049 C10.5172353,15.3190641 10.5082457,15.3158009 10.5000035,15.3158009 C10.4890139,15.3158009 10.4766957,15.3216022 10.4542426,15.3602609 L10.4542426,15.3602609 L10.4118612,15.4462742 L10.3476729,15.6018657 C10.1612048,16.0774728 10.0555591,16.8858547 10.0555591,18.0000114 L10.0555591,18.0000114 L10.0555591,20.2029404 L8.39727026,18.7527769 C4.83113137,15.6342101 3.00000352,12.6984747 3.00000352,9.89474825 C3.00000352,6.91243299 4.10954591,4.83874074 6.33893944,3.78996642 L5.19500352,2.44501141 L1.68299744,5.73043546 C1.3106263,6.07862666 0.742784353,6.0873167 0.360943811,5.76930668 L0.269579464,5.68300533 C-0.0786117307,5.31063419 -0.0873017756,4.74279224 0.230708248,4.3609517 L0.317009598,4.26958735 L4.59478738,0.26958735 C4.98187392,-0.0923637054 5.57689148,-0.0858293169 5.95599886,0.264995688 L6.03945954,0.35205596 L8.42803566,3.16041745 C9.06276832,3.05391061 9.75338611,3.00001141 10.5000035,3.00001141 C11.2466209,3.00001141 11.9372387,3.05391061 12.5719714,3.16041745 L14.9605639,0.35205596 Z M10.5000035,5.00001141 C6.58225214,5.00001141 5.00000352,6.54410335 5.00000352,9.89474825 C5.00000352,11.5815916 5.98511873,13.4983353 8.00456097,15.6189581 L8.00456097,15.6189581 L8.21800352,15.8390114 L8.26786198,15.5894897 C8.57213471,14.1908763 9.22221097,13.3908076 10.3371716,13.3208186 L10.3371716,13.3208186 L10.5000035,13.3158009 C11.772936,13.3158009 12.4788319,14.2031153 12.7752073,15.8037544 L12.7752073,15.8037544 L12.7810035,15.8390114 L12.9954461,15.6189581 C14.9307449,13.5866946 15.9161149,11.7416742 15.9948692,10.1067992 L15.9948692,10.1067992 L16.0000035,9.89474825 C16.0000035,6.54410335 14.4177549,5.00001141 10.5000035,5.00001141 Z" id="Combined-Shape" fill-rule="nonzero"></path>
            <circle id="Oval" cx="7.00000352" cy="11.0000114" r="1"></circle>
            <circle id="Oval-Copy" cx="14.0000035" cy="11.0000114" r="1"></circle>
        </g>
        <path d="M12,2 C12.5522847,2 13,2.44771525 13,3 L13,3 L12.9999952,3.857 L10.9999952,5.571 L11,4 L4.5,4 L4.5,5 C4.5,5.1552451 4.46385491,5.30835816 4.39442719,5.4472136 L4.39442719,5.4472136 L3.5,7.235 L3.5,7.464 L4.5547002,8.16794971 C4.79812403,8.33023226 4.95648882,8.58956969 4.99227652,8.8758589 L4.99227652,8.8758589 L5,9 L5,11.585 L6.20710678,12.7928932 C6.3633871,12.9491735 6.46259829,13.1518549 6.49132757,13.368556 L6.49132757,13.368556 L6.5,13.5 L6.5,13.633 L6.581737,13.5903551 C7.06410949,13.3673257 7.6661662,13.5656024 7.90356917,14.0708484 L7.90356917,14.0708484 L7.9486833,14.1837722 L8.4486833,15.6837722 C8.56295349,16.0265828 8.48164289,16.3753256 8.27853058,16.6276376 L8.27853058,16.6276376 L8.265,16.641 L9.0547002,17.1679497 C9.43935399,17.4243856 9.59379064,17.9065932 9.44313548,18.3326271 L9.44313548,18.3326271 L9.39442719,18.4472136 L9.18,18.875 L10.74,20.825 L11.2071068,21.2928932 C11.2709476,21.356734 11.3257001,21.4287762 11.3700109,21.5069674 L11.3700109,21.5069674 L11.4284767,21.6286093 L12.227,23.625 L14.1961161,24.0194193 C14.350989,24.0503939 14.495755,24.1174881 14.6189419,24.2145623 L14.6189419,24.2145623 L14.7071068,24.2928932 L15.593,25.178 L16.4472136,25.6055728 C16.5113035,25.6376178 16.5716699,25.6764113 16.627312,25.721232 L16.627312,25.721232 L16.7071068,25.7928932 L16.915,26 L17,26 C17.1730962,26 17.3424569,26.0449138 17.4919026,26.1293483 L17.4919026,26.1293483 L17.6,26.2 L19.6,27.7 C19.7627236,27.8220427 19.8843612,27.9908058 19.9486833,28.1837722 L19.9486833,28.1837722 L20.22,29 L24,29 L24,28 C24,27.7347835 24.1053568,27.4804296 24.2928932,27.2928932 L24.2928932,27.2928932 L24.5,27.084 L24.5,26 C24.5,25.8673918 24.5263392,25.7374992 24.5761205,25.6173166 L24.5761205,25.6173166 L24.617,25.532 L24.2928932,25.2071068 C24.2422257,25.1564392 24.1972247,25.100547 24.1586115,25.0404308 L24.1586115,25.0404308 L24.1055728,24.9472136 L23.687,24.111 L22.7509952,23.249 L24.1659952,21.834 L25.1770565,22.764069 C25.2068532,22.791482 25.2349021,22.820628 25.2610695,22.8513296 L25.3337937,22.9479237 L25.3944272,23.0527864 L25.821,23.906 L26.7071068,24.7928932 C27.0675907,25.1533772 27.0953203,25.7206082 26.7902954,26.1128994 L26.7902954,26.1128994 L26.7071068,26.2071068 L26.5,26.414 L26.5,27.5 C26.5,27.7210137 26.4268355,27.934484 26.2939194,28.1080295 L26.2939194,28.1080295 L26.2071068,28.2071068 L26,28.414 L26,28.764 L26.3944272,29.5527864 C26.7093803,30.1826927 26.2920161,30.9179766 25.6151353,30.99363 L25.6151353,30.99363 L25.5,31 L19.5,31 C19.0695696,31 18.6874307,30.7245699 18.5513167,30.3162278 L18.5513167,30.3162278 L18.15,29.112 L16.667,28 L16.5,28 C16.2789863,28 16.065516,27.9268355 15.8919705,27.7939194 L15.8919705,27.7939194 L15.7928932,27.7071068 L15.406,27.321 L14.5527864,26.8944272 C14.4886965,26.8623822 14.4283301,26.8235887 14.372688,26.778768 L14.372688,26.778768 L14.2928932,26.7071068 L13.506,25.921 L11.3038839,25.4805807 C11.0139337,25.4225906 10.766773,25.2398976 10.6254343,24.9849331 L10.6254343,24.9849331 L10.5715233,24.8713907 L9.648,22.563 L9.29289322,22.2071068 L9.21913119,22.124695 L7.21913119,19.624695 C6.97546829,19.3201164 6.93113672,18.9016586 7.10557281,18.5527864 L7.10557281,18.5527864 L7.21,18.342 L6.4452998,17.8320503 C6.20187597,17.6697677 6.04351118,17.4104303 6.00772348,17.1241411 L6.00772348,17.1241411 L6,17 L6.00169756,15.9412424 L6.008,15.872 L5.0527864,15.3944272 C4.75164505,15.2438565 4.5490966,14.9535358 4.50780363,14.6248553 L4.50780363,14.6248553 L4.5,14.5 L4.5,13.915 L3.29289322,12.7071068 C3.1366129,12.5508265 3.03740171,12.3481451 3.00867243,12.131444 L3.00867243,12.131444 L3,12 L3,9.535 L1.9452998,8.83205029 C1.70187597,8.66976774 1.54351118,8.41043031 1.50772348,8.1241411 L1.50772348,8.1241411 L1.5,8 L1.5,7 C1.5,6.8447549 1.53614509,6.69164184 1.60557281,6.5527864 L1.60557281,6.5527864 L2.5,4.762 L2.5,4.415 L1.79289322,3.70710678 C1.19031813,3.1045317 1.57233231,2.09281919 2.38636906,2.00598327 L2.38636906,2.00598327 L2.5,2 Z" id="Path-45" fill="#000000" fill-rule="nonzero"></path>
    </g>
</svg>