<?xml version="1.0" encoding="UTF-8"?>
<svg width="32px" height="32px" viewBox="0 0 32 32" version="1.1" xmlns="http://www.w3.org/2000/svg" xmlns:xlink="http://www.w3.org/1999/xlink">
    <title>wdi-npma</title>
    <g id="wdi-npma" stroke="none" stroke-width="1" fill="none" fill-rule="evenodd">
        <g id="Group" transform="translate(4.999996, 1.999989)" fill="#000000">
            <path d="M15.0440246,0.264995688 C15.4231319,-0.0858293169 16.0181495,-0.0923637054 16.405236,0.26958735 L16.405236,0.26958735 L20.6830138,4.26958735 L20.7693152,4.3609517 C21.0873252,4.74279224 21.0786351,5.31063419 20.7304439,5.68300533 L20.7304439,5.68300533 L20.6390796,5.76930668 C20.2572391,6.0873167 19.6893971,6.07862666 19.317026,5.73043546 L19.317026,5.73043546 L15.8050199,2.44501141 L14.6610676,3.78996642 C16.8904611,4.83874074 18.0000035,6.91243299 18.0000035,9.89474825 C18.0000035,12.6984747 16.1688757,15.6342101 12.6027368,18.7527769 L12.6027368,18.7527769 L10.944448,20.2029404 L10.944448,18.0000114 C10.944448,16.8858547 10.8388023,16.0774728 10.6523341,15.6018657 C10.6394519,15.5690082 10.6277535,15.5398954 10.6171013,15.5141044 L10.6171013,15.5141044 L10.564642,15.3958385 L10.5306873,15.3370049 C10.5172353,15.3190641 10.5082457,15.3158009 10.5000035,15.3158009 C10.4890139,15.3158009 10.4766957,15.3216022 10.4542426,15.3602609 L10.4542426,15.3602609 L10.4118612,15.4462742 L10.3476729,15.6018657 C10.1612048,16.0774728 10.0555591,16.8858547 10.0555591,18.0000114 L10.0555591,18.0000114 L10.0555591,20.2029404 L8.39727026,18.7527769 C4.83113137,15.6342101 3.00000352,12.6984747 3.00000352,9.89474825 C3.00000352,6.91243299 4.10954591,4.83874074 6.33893944,3.78996642 L5.19500352,2.44501141 L1.68299744,5.73043546 C1.3106263,6.07862666 0.742784353,6.0873167 0.360943811,5.76930668 L0.269579464,5.68300533 C-0.0786117307,5.31063419 -0.0873017756,4.74279224 0.230708248,4.3609517 L0.317009598,4.26958735 L4.59478738,0.26958735 C4.98187392,-0.0923637054 5.57689148,-0.0858293169 5.95599886,0.264995688 L6.03945954,0.35205596 L8.42803566,3.16041745 C9.06276832,3.05391061 9.75338611,3.00001141 10.5000035,3.00001141 C11.2466209,3.00001141 11.9372387,3.05391061 12.5719714,3.16041745 L14.9605639,0.35205596 Z M10.5000035,5.00001141 C6.58225214,5.00001141 5.00000352,6.54410335 5.00000352,9.89474825 C5.00000352,11.5815916 5.98511873,13.4983353 8.00456097,15.6189581 L8.00456097,15.6189581 L8.21800352,15.8390114 L8.26786198,15.5894897 C8.57213471,14.1908763 9.22221097,13.3908076 10.3371716,13.3208186 L10.3371716,13.3208186 L10.5000035,13.3158009 C11.772936,13.3158009 12.4788319,14.2031153 12.7752073,15.8037544 L12.7752073,15.8037544 L12.7810035,15.8390114 L12.9954461,15.6189581 C14.9307449,13.5866946 15.9161149,11.7416742 15.9948692,10.1067992 L15.9948692,10.1067992 L16.0000035,9.89474825 C16.0000035,6.54410335 14.4177549,5.00001141 10.5000035,5.00001141 Z" id="Combined-Shape" fill-rule="nonzero"></path>
            <circle id="Oval" cx="7.00000352" cy="11.0000114" r="1"></circle>
            <circle id="Oval-Copy" cx="14.0000035" cy="11.0000114" r="1"></circle>
        </g>
        <path d="M2.51941932,11.3038839 C2.63738279,10.7140666 3.24559667,10.3611063 3.81622777,10.5513167 L3.81622777,10.5513167 L5.24253563,11.0298575 L6.99999988,11.4685804 L6.99999988,13.5295804 L4.68377223,12.9486833 L4.258,12.806 L3.9701425,14.2425356 L3.4486833,16.3162278 L3.032,17.564 L3.4701425,19.7574644 L3.858,21.311 L4.4472136,21.6055728 C4.60203552,21.6829838 4.7334303,21.7988964 4.82933835,21.941251 L4.82933835,21.941251 L4.89442719,22.0527864 L5.209,22.682 L6.31622777,23.0513167 C6.37244167,23.0700547 6.42682288,23.0937332 6.47874341,23.1220451 L6.47874341,23.1220451 L6.5547002,23.1679497 L7.803,24 L9.5,24 C9.65793999,24 9.81305291,24.0374003 9.95288545,24.1084305 L9.95288545,24.1084305 L10.0547002,24.1679497 L11.444,25.094 L12.663,25.5 L13,25.5 C13.3913004,25.5 13.7426904,25.7276282 13.9056101,26.0758086 L13.9056101,26.0758086 L13.9486833,26.1837722 L14.373,27.458 L14.565,27.65 L14.6015317,27.5609582 C14.6595935,27.4421383 14.7406696,27.3359893 14.8400257,27.2487098 L14.8400257,27.2487098 L14.9452998,27.1679497 L16.4452998,26.1679497 C16.6095673,26.058438 16.802575,26 17,26 L17,26 L19.381,26 L19.6055728,25.5527864 C19.7840537,25.1958247 20.1552094,24.9826345 20.5465603,25.0010465 L20.5465603,25.0010465 L20.664399,25.0136061 L23.594,25.501 L23.5298575,25.2425356 C23.4835407,25.0572685 23.4914654,24.8636356 23.5511465,24.684276 L23.5511465,24.684276 L23.6055728,24.5527864 L24.1055728,23.5527864 C24.1750005,23.413931 24.2758039,23.2931471 24.4,23.2 L24.4,23.2 L26,22 L26,20.5 L26.0194193,20.3038839 L26.5194193,17.8038839 C26.5714326,17.5438177 26.7246263,17.3150653 26.9452998,17.1679497 L26.9452998,17.1679497 L27.71,16.657 L27.6055728,16.4472136 C27.5251364,16.2863407 27.4906636,16.1091921 27.5021545,15.9343685 L27.5021545,15.9343685 L27.511,15.862 L26.593,16.321 L25.7071068,17.2071068 C25.6564392,17.2577743 25.600547,17.3027753 25.5404308,17.3413885 L25.5404308,17.3413885 L25.4472136,17.3944272 L23.4472136,18.3944272 C22.9961332,18.6199674 22.4476979,18.4743225 22.1679497,18.0547002 L22.1679497,18.0547002 L21.8997212,17.6482978 C21.9338432,17.5985283 21.9672695,17.5490957 22,17.5 C22.2925381,17.0611928 22.6406592,16.4825476 23.0443632,15.7640642 L23.342,16.21 L24.406,15.678 L25.2928932,14.7928932 C25.3435608,14.7422257 25.399453,14.6972247 25.4595692,14.6586115 L25.4595692,14.6586115 L25.5527864,14.6055728 L27.182,13.79 L27.5513167,12.6837722 C27.7733348,12.0177178 28.584042,11.7922445 29.1162544,12.2120667 L29.1162544,12.2120667 L29.2071068,12.2928932 L30.2071068,13.2928932 C30.511467,13.5972535 30.5869215,14.0622249 30.3944272,14.4472136 L30.3944272,14.4472136 L29.618,16 L29.8944272,16.5527864 C30.1011724,16.9662768 29.996019,17.4615723 29.6538417,17.7567274 L29.6538417,17.7567274 L29.5547002,17.8320503 L28.399,18.602 L27.9999999,20.596 L27.9999999,22.5 C27.9999999,22.7754126 27.8865388,23.0367615 27.6894833,23.2243131 L27.6894833,23.2243131 L27.6,23.3 L25.788,24.659 L25.559,25.116 L25.9805807,26.8038839 L26.0722144,27.2760482 L26.1501619,27.7129984 C26.1619329,27.7829253 26.1730737,27.8514123 26.1835545,27.9184731 L26.1835545,27.9184731 L26.2382796,28.3038316 C26.4235833,29.7776786 26.1942357,30.4457282 25.1365543,30.496814 L25.1365543,30.496814 L24.9999999,30.5 C24.2045377,30.5 23.7282221,29.9401626 23.1575611,28.5118707 L23.1575611,28.5118707 L22.9915907,28.0798893 L22.744,27.388 L21.064,27.107 L20.8944272,27.4472136 C20.7438565,27.748355 20.4535358,27.9509034 20.1248553,27.9921964 L20.1248553,27.9921964 L19.9999999,28 L17.302,28 L16.339,28.642 L15.9486833,29.8162278 C15.7266652,30.4822822 14.915958,30.7077555 14.3837456,30.2879333 L14.3837456,30.2879333 L14.2928932,30.2071068 L12.7928932,28.7071068 C12.6831184,28.5973319 12.6004095,28.4635062 12.5513167,28.3162278 L12.5513167,28.3162278 L12.27,27.472 L12.1837722,27.4486833 L10.6837722,26.9486833 C10.5994514,26.9205763 10.5192541,26.8813532 10.4452998,26.8320503 L10.4452998,26.8320503 L9.197,26 L7.49999988,26 C7.34206001,26 7.18694709,25.9625997 7.04711455,25.8915695 L7.04711455,25.8915695 L6.9452998,25.8320503 L5.555,24.905 L4.18377223,24.4486833 C3.97410019,24.3787926 3.79472113,24.2418775 3.6721132,24.0609022 L3.6721132,24.0609022 L3.60557281,23.9472136 L3.254,23.245 L2.5527864,22.8944272 C2.32898164,22.7825248 2.15666745,22.5915861 2.06741547,22.3609687 L2.06741547,22.3609687 L2.0298575,22.2425356 L1.51941932,20.1961161 L1.01941932,17.6961161 C0.985289834,17.5254687 0.996284552,17.3488687 1.0513167,17.1837722 L1.0513167,17.1837722 L1.5298575,15.7574644 L2.01941932,13.8038839 Z" id="Path-47" fill="#000000" fill-rule="nonzero"></path>
    </g>
</svg>