<?xml version="1.0" encoding="UTF-8"?>
<svg width="64px" height="64px" viewBox="0 0 64 64" version="1.1" xmlns="http://www.w3.org/2000/svg" xmlns:xlink="http://www.w3.org/1999/xlink">
    <title>wdo</title>
    <g id="wdo" stroke="none" stroke-width="1" fill="none" fill-rule="evenodd">
        <g id="bug" transform="translate(42.012746, 40.467811) rotate(45.000000) translate(-42.012746, -40.467811) translate(29.754432, 15.011221)" fill="#000000" fill-rule="nonzero">
            <path d="M11.2036156,34.7485603 C10.5713576,35.0994202 9.53909948,35.2748502 8.02942208,35.2748502 C6.51974466,35.2748502 5.4874866,35.1119509 4.85522853,34.7485603 C3.86168014,36.3148993 3.22942208,38.6080197 3.22942208,41.1642851 C3.22942208,45.8883637 5.25522853,50.9131794 8.02942208,50.9131794 C10.8036156,50.9131794 12.8294221,45.875833 12.8294221,41.1642851 C12.8294221,38.6080197 12.197164,36.3148993 11.2036156,34.7485603 L11.2036156,34.7485603 Z" id="Shape"></path>
            <path d="M23.2457212,14.3446683 C23.5039299,14.2467763 23.7926067,14.3767386 23.8904988,14.6349473 C23.9883908,14.8931561 23.8584285,15.1818328 23.6002198,15.2797249 C22.058129,15.8643622 20.793518,17.4544168 19.8116396,19.7546892 C19.3540906,20.8266014 18.9894318,21.9794492 18.7095932,23.1328673 C18.6360842,23.4358512 18.5725304,23.7224337 18.5184398,23.9884259 L18.4464046,24.3601099 L18.3948218,24.6605638 L18.07674,25.0540206 L12.4251271,27.1842417 L12.1049494,27.1952406 L10.8533365,26.8193192 C10.5888656,26.7398855 10.4388633,26.4610956 10.518297,26.1966246 C10.5889048,25.9615393 10.8170285,25.8168984 11.0525973,25.8434471 L11.1409915,25.8615851 L12.2304221,26.1883637 L17.4554221,24.2183637 L17.485057,24.0607599 C17.5518637,23.7091048 17.6356715,23.3179781 17.7377859,22.8970906 C18.0297369,21.6937486 18.4105481,20.4898361 18.8919234,19.3621055 C19.9703132,16.8357331 21.3928299,15.0471363 23.2457212,14.3446683 Z" id="Shape"></path>
            <path d="M10.549629,29.2429618 L16.1625322,30.1702345 L16.5072776,30.4021723 L19.8524221,35.8563637 L24.2399247,38.0479293 C24.45952,38.1576036 24.5631271,38.407057 24.4967836,38.6346445 L24.4638329,38.7186491 C24.3541586,38.9382444 24.1047052,39.0418515 23.8771177,38.975508 L23.7931131,38.9425573 L19.276984,36.6870291 L19.0741473,36.5010908 L15.7734221,31.1193637 L10.3866345,30.2295887 C10.1444572,30.1895801 9.97186848,29.9817952 9.96811698,29.7447648 L9.97481828,29.654778 C10.0148269,29.4126007 10.2226118,29.2400119 10.4596423,29.2362605 L10.549629,29.2429618 Z" id="Shape"></path>
            <path d="M10.6191149,33.0304222 C10.779758,32.8448303 11.0470997,32.8062314 11.2511661,32.926873 L11.324393,32.979602 L17.8534253,38.6309533 L18.0217005,39.0759022 L17.1904221,45.2263637 L20.8521343,48.7220701 C21.0296633,48.8915812 21.0551664,49.1604883 20.9247073,49.3584225 L20.8684667,49.4289883 C20.6989556,49.6065173 20.4300485,49.6320203 20.2321143,49.5015612 L20.1615486,49.4453207 L16.3163873,45.7738219 L16.1661759,45.345297 L16.9944221,39.2093637 L10.669935,33.7357003 C10.4843432,33.5750572 10.4457442,33.3077155 10.5663859,33.1036491 L10.6191149,33.0304222 Z" id="Shape"></path>
            <path d="M16.0036156,3.4217789 C15.9003898,3.20875679 15.6294221,3.10851109 15.397164,3.20875679 C14.3907124,3.67239315 13.2036156,5.20114008 12.364906,6.79254057 C12.4294221,7.35642264 12.5326479,7.87018185 12.6616802,8.25863394 C13.4100673,6.42914991 14.8294221,4.43676662 15.7842608,3.99819168 C16.0165189,3.89794598 16.1197447,3.63480102 16.0036156,3.4217789 L16.0036156,3.4217789 Z" id="Shape"></path>
            <path d="M3.68103498,6.79254057 C2.84232531,5.20114008 1.65522853,3.67239315 0.648776919,3.20875679 C0.429422079,3.10851109 0.158454339,3.19622608 0.0423253093,3.4217789 C-0.0609005017,3.63480102 0.0294220793,3.89794598 0.261680139,4.01072239 C1.21651885,4.44929733 2.63587369,6.44168062 3.38426079,8.27116465 C3.52619627,7.87018185 3.62942208,7.35642264 3.68103498,6.79254057 L3.68103498,6.79254057 Z" id="Shape"></path>
            <path d="M12.1455511,8.53430962 C11.797164,7.56944475 11.681035,6.09082067 11.7326479,4.92546441 C11.797164,3.76010814 12.1326479,1.5171106 11.5778092,0.665022148 C11.397164,0.389346472 11.2294221,0.188855071 11.0616802,0.0510172336 C10.8939382,-0.0993513168 10.6616802,0.113670796 10.7907124,0.289100772 C11.0616802,0.652491435 11.2165189,1.07853566 11.1907124,1.60482559 C11.1390995,2.53209831 10.481035,3.33406392 10.4165189,4.48688947 C10.3520027,5.63971502 10.2100673,7.48172976 9.66813178,8.25863394 L9.66813178,8.25863394 C9.44877688,8.49671748 9.31974468,8.80998529 9.29393818,9.14831453 C9.25522858,9.92521871 9.87458338,10.6144079 10.6616802,10.6770615 C11.5132931,10.7522458 12.2487769,10.1131794 12.2874866,9.29868308 C12.3390995,9.01047669 12.2745834,8.75986244 12.1455511,8.53430962 L12.1455511,8.53430962 Z" id="Shape"></path>
            <path d="M12.0036156,10.8900836 C11.6681318,11.1156364 11.2681318,11.2409436 10.8294221,11.2409436 C10.764906,11.2409436 10.7132931,11.2409436 10.6487769,11.2284128 C9.53909948,11.1406979 8.6874866,10.1883637 8.75200273,9.11072239 C8.75200273,9.07313025 8.76490595,9.03553812 8.76490595,8.99794598 C8.57135756,9.06059954 8.37780918,9.13578382 8.18426079,9.23602952 C8.09393821,9.28615237 7.9907124,9.28615237 7.90038982,9.23602952 C7.70684143,9.13578382 7.51329305,9.04806883 7.31974466,8.99794598 C7.31974466,9.03553812 7.33264789,9.07313025 7.33264789,9.11072239 C7.38426079,10.1883637 6.53264789,11.1406979 5.43587369,11.2284128 C5.37135756,11.2284128 5.31974466,11.2409436 5.25522853,11.2409436 C4.81651885,11.2409436 4.41651885,11.1156364 4.08103498,10.8900836 C3.46168014,12.4188305 3.38426079,14.5615824 3.38426079,16.2031057 C3.38426079,23.4583883 4.66168014,24.1350467 8.05522853,24.1350467 C11.4487769,24.1350467 12.7261963,23.4458576 12.7261963,16.2031057 C12.7003898,14.5615824 12.6100673,12.4188305 12.0036156,10.8900836 L12.0036156,10.8900836 Z" id="Shape"></path>
            <path d="M8.02942208,6.45421134 C7.43587369,6.45421134 6.89393821,6.59204917 6.45522853,6.83013271 C6.57135756,7.4190762 6.71329305,7.74487473 6.82942208,7.9203047 C6.91974466,8.03308111 6.99716402,8.14585753 7.07458337,8.27116465 L7.15200273,8.38394107 C7.44877692,8.43406392 7.73264789,8.53430962 8.02942208,8.67214745 C8.31329305,8.53430962 8.61006724,8.43406392 8.90684143,8.38394107 L8.98426079,8.27116465 C9.04877688,8.14585753 9.12619628,8.03308111 9.22942208,7.93283541 C9.34555108,7.75740544 9.48748658,7.4190762 9.60361558,6.84266342 C9.16490598,6.59204917 8.62297047,6.45421134 8.02942208,6.45421134 L8.02942208,6.45421134 Z" id="Shape"></path>
            <path d="M3.91329305,8.53430962 C4.26168014,7.56944475 4.37780918,6.09082067 4.32619627,4.92546441 C4.26168014,3.76010814 3.92619627,1.5171106 4.48103498,0.665022148 C4.66168014,0.389346472 4.82942208,0.188855071 4.99716402,0.0510172336 C5.16490595,-0.0993513168 5.39716402,0.113670796 5.26813176,0.289100772 C4.99716402,0.652491435 4.84232531,1.07853566 4.86813176,1.60482559 C4.91974466,2.53209831 5.57780918,3.33406392 5.64232531,4.48688947 C5.70684143,5.63971502 5.84877692,7.48172976 6.3907124,8.25863394 L6.3907124,8.25863394 C6.61006724,8.49671748 6.7390995,8.80998529 6.76490595,9.14831453 C6.80361563,9.92521871 6.18426079,10.6144079 5.39716402,10.6770615 C4.54555111,10.7522458 3.81006724,10.1131794 3.77135756,9.29868308 C3.71974466,9.01047669 3.78426079,8.75986244 3.91329305,8.53430962 L3.91329305,8.53430962 Z" id="Shape"></path>
            <path d="M11.2681318,33.0819755 C10.6616802,31.5657593 10.1584544,31.490575 9.24232528,31.490575 C9.08748658,31.490575 8.91974466,31.490575 8.7390995,31.5031057 C8.53264789,31.5031057 8.2874866,31.5156364 8.02942208,31.5156364 C7.77135756,31.5156364 7.5390995,31.5156364 7.31974466,31.5031057 C7.1390995,31.5031057 6.97135756,31.490575 6.81651885,31.490575 C5.90038982,31.490575 5.39716402,31.5657593 4.7907124,33.0819755 C4.63587369,33.4578969 4.64877692,33.7461033 4.80361563,33.9716561 C5.03587369,34.3099853 5.79716402,34.7109681 8.04232531,34.7109681 C10.2874866,34.7109681 11.0358737,34.3099853 11.281035,33.9716561 C11.4229705,33.7461033 11.4229705,33.4578969 11.2681318,33.0819755 L11.2681318,33.0819755 Z" id="Shape"></path>
            <path d="M8.02942208,28.5333268 C6.14555111,28.5333268 5.35845434,28.6962261 5.35845434,29.7237445 C5.35845434,30.751263 6.14555111,30.9141622 8.02942208,30.9141622 C9.91329308,30.9141622 10.7003898,30.751263 10.7003898,29.7237445 C10.7003898,28.6962261 9.91329308,28.5333268 8.02942208,28.5333268 L8.02942208,28.5333268 Z" id="Shape"></path>
            <path d="M8.02942208,24.6989288 C5.65522853,24.6989288 4.76490595,25.1375037 4.76490595,26.3279214 C4.76490595,27.5183391 5.64232531,27.9569141 8.02942208,27.9569141 C10.4165189,27.9569141 11.2939382,27.5183391 11.2939382,26.3279214 C11.2939382,25.1500345 10.4036156,24.6989288 8.02942208,24.6989288 L8.02942208,24.6989288 Z" id="Shape"></path>
        </g>
        <path d="M41.0051972,8 C43.2114659,8 45.0002853,9.78808228 45.0002853,12.0059034 L45.0002853,23.1522188 C44.8698764,23.2252046 44.7373026,23.3010752 44.6020508,23.3796387 C43.1091874,24.2467949 40.9780675,26.3666467 39.3824419,28.3618191 C39.2776905,28.287287 39.1660044,28.2030124 39.0462369,28.1099049 C37.9953441,27.2929376 37.3693718,27 36.1967266,27 C35.0234687,27 34.4045535,27.2922719 33.3709703,28.1057579 C32.4987127,28.7922719 32.0588275,29 31.1144844,29 C30.1701413,29 29.7302561,28.7922719 28.8579985,28.1057579 C27.8244153,27.2922719 27.2055,27 26.0322422,27 C24.8589844,27 24.2400691,27.2922719 23.2064859,28.1057579 C22.3342283,28.7922719 21.8943431,29 20.95,29 L20.95,31 C22.1232578,31 22.7421731,30.7077281 23.7757563,29.8942421 C24.6480139,29.2077281 25.0878991,29 26.0322422,29 C26.9765853,29 27.4164705,29.2077281 28.2887281,29.8942421 C29.3223113,30.7077281 29.9412266,31 31.1144844,31 C32.2877422,31 32.9066574,30.7077281 33.9402407,29.8942421 C34.8124983,29.2077281 35.2523835,29 36.1967266,29 C37.0879203,29 37.5380896,29.1865746 38.3255902,29.7822149 C37.7112914,30.6827164 37.2919823,31.4726547 37.2006836,31.9963379 C36.8752441,33.8630368 35.081543,35.1306152 35.081543,35.1306152 C35.081543,35.1306152 31.697998,39.2416986 30.376709,39.6208496 C29.8971243,39.758469 29.0461698,40.0303101 28.0102657,40.5065958 C27.4004815,40.1425126 26.8515114,40 26.0322422,40 C24.8589844,40 24.2400691,40.2922719 23.2064859,41.1057579 C22.3342283,41.7922719 21.8943431,42 20.95,42 L20.95,44 C22.1232578,44 22.7421731,43.7077281 23.7757563,42.8942421 C24.3805917,42.4182039 24.7775327,42.1723767 25.2789269,42.0663875 C24.1169941,42.879081 22.9204188,43.9303575 21.8547363,45.2832031 C20.770364,46.6597749 19.9421457,47.8752314 19.3613728,49.0012617 L11.9948028,49 C9.78853413,49 8,47.2119177 8,44.9940966 L8,12.0059034 C8,9.79350406 9.78458691,8 11.9948028,8 L41.0051972,8 Z M44.9997922,39.2596979 L45,44.9940966 C45,47.2064959 43.2154131,49 41.0051972,49 L35.7860293,49.0011815 C36.420634,47.461334 37.2782574,45.1955626 38.890584,43.206754 C39.7042435,43.7849271 40.3026314,44 41.3,44 L41.3,42 C40.8612139,42 40.5306546,41.9539551 40.2122725,41.8341889 C41.6569763,40.5994154 43.1938486,40.1081411 44.9997922,39.2596979 Z M19,38 L11,38 L11,46 L19,46 L19,38 Z M19,25 L11,25 L11,33 L19,33 L19,25 Z M19,12 L11,12 L11,20 L19,20 L19,12 Z M36.1967266,14 C35.0234687,14 34.4045535,14.2922719 33.3709703,15.1057579 C32.4987127,15.7922719 32.0588275,16 31.1144844,16 C30.1701413,16 29.7302561,15.7922719 28.8579985,15.1057579 C27.8244153,14.2922719 27.2055,14 26.0322422,14 C24.8589844,14 24.2400691,14.2922719 23.2064859,15.1057579 C22.3342283,15.7922719 21.8943431,16 20.95,16 L20.95,18 C22.1232578,18 22.7421731,17.7077281 23.7757563,16.8942421 C24.6480139,16.2077281 25.0878991,16 26.0322422,16 C26.9765853,16 27.4164705,16.2077281 28.2887281,16.8942421 C29.3223113,17.7077281 29.9412266,18 31.1144844,18 C32.2877422,18 32.9066574,17.7077281 33.9402407,16.8942421 C34.8124983,16.2077281 35.2523835,16 36.1967266,16 C37.1425585,16 37.5916307,16.2101533 38.4744162,16.8964334 C39.5197861,17.7091067 40.1400757,18 41.3,18 L41.3,16 C40.3672345,16 39.9235426,15.7919246 39.0462369,15.1099049 C37.9953441,14.2929376 37.3693718,14 36.1967266,14 Z" id="Rectangle-11" fill="#000000" fill-rule="nonzero"></path>
    </g>
</svg>