<?xml version="1.0" encoding="UTF-8"?>
<svg width="64px" height="64px" viewBox="0 0 64 64" version="1.1" xmlns="http://www.w3.org/2000/svg" xmlns:xlink="http://www.w3.org/1999/xlink">
    <title>web_dusting</title>
    <g id="web_dusting" stroke="none" stroke-width="1" fill="none" fill-rule="evenodd">
        <path d="M29,67.5 C28.4477153,67.5 28,67.0522847 28,66.5 L28,56.5 C28,55.9477153 28.4477153,55.5 29,55.5 L29,22.5 L15.5,22.5 C14.6715729,22.5 14,21.8284271 14,21 C14,20.1715729 14.6715729,19.5 15.5,19.5 L29,19.5 L29,18.5 L15.5,18.5 C14.6715729,18.5 14,17.8284271 14,17 C14,16.1715729 14.6715729,15.5 15.5,15.5 L29,15.5 L29,14.5 L15.5,14.5 C14.6715729,14.5 14,13.8284271 14,13 C14,12.1715729 14.6715729,11.5 15.5,11.5 L18.606,11.5 L15.605847,10.6960126 C14.8056478,10.4815999 14.3307741,9.6590944 14.5451868,8.8588953 C14.7595995,8.0586961 15.5821049,7.5838224 16.3823041,7.7982351 L19.381,8.601 L16.6926316,7.0490381 C15.9751927,6.6348245 15.72938,5.7174389 16.1435935,5 C16.5578071,4.28256106 17.4751927,4.03674833 18.1926316,4.45096189 L20.882,6.003 L18.6862915,3.80761184 C18.1005051,3.22182541 18.1005051,2.27207794 18.6862915,1.6862915 C19.2720779,1.10050506 20.2218254,1.10050506 20.8076118,1.6862915 L23.003,3.882 L21.4509619,1.19263165 C21.0367483,0.47519271 21.2825611,-0.4421929 22,-0.85640646 C22.7174389,-1.27062002 23.6348245,-1.02480729 24.0490381,-0.30736835 L25.601,2.381 L24.7982351,-0.61769591 C24.5838224,-1.41789507 25.0586961,-2.2404005 25.8588953,-2.45481322 C26.6590944,-2.66922594 27.4815999,-2.1943522 27.6960126,-1.39415305 L28.5,1.606 L28.5,-1.5 C28.5,-2.32842712 29.1715729,-3 30,-3 C30.8284271,-3 31.5,-2.32842712 31.5,-1.5 L31.5,1.602 L32.3039874,-1.39415305 C32.5184001,-2.1943522 33.3409056,-2.66922594 34.1411047,-2.45481322 C34.9413039,-2.2404005 35.4161776,-1.41789507 35.2017649,-0.61769591 L34.398,2.381 L35.9509619,-0.30736835 C36.3651755,-1.02480729 37.2825611,-1.27062002 38,-0.85640646 C38.7174389,-0.4421929 38.9632517,0.47519271 38.5490381,1.19263165 L36.996,3.882 L39.1923882,1.6862915 C39.7781746,1.10050506 40.7279221,1.10050506 41.3137085,1.6862915 C41.8994949,2.27207794 41.8994949,3.22182541 41.3137085,3.80761184 L39.117,6.003 L41.8073684,4.45096189 C42.5248073,4.03674833 43.4421929,4.28256106 43.8564065,5 C44.27062,5.7174389 44.0248073,6.6348245 43.3073684,7.0490381 L40.618,8.601 L43.6176959,7.7982351 C44.4178951,7.5838224 45.2404005,8.0586961 45.4548132,8.8588953 C45.6692259,9.6590944 45.1943522,10.4815999 44.394153,10.6960126 L41.393,11.5 L44.5,11.5 C45.3284271,11.5 46,12.1715729 46,13 C46,13.8284271 45.3284271,14.5 44.5,14.5 L31,14.5 L31,15.5 L44.5,15.5 C45.3284271,15.5 46,16.1715729 46,17 C46,17.8284271 45.3284271,18.5 44.5,18.5 L31,18.5 L31,19.5 L44.5,19.5 C45.3284271,19.5 46,20.1715729 46,21 C46,21.8284271 45.3284271,22.5 44.5,22.5 L31,22.5 L31,55.5 C31.5522847,55.5 32,55.9477153 32,56.5 L32,66.5 C32,67.0522847 31.5522847,67.5 31,67.5 L29,67.5 Z" id="brish" fill="#000000" fill-rule="nonzero" transform="translate(30.000000, 32.250000) rotate(45.000000) translate(-30.000000, -32.250000) "></path>
    </g>
</svg>