<?xml version="1.0" encoding="UTF-8"?>
<svg width="64px" height="64px" viewBox="0 0 64 64" version="1.1" xmlns="http://www.w3.org/2000/svg" xmlns:xlink="http://www.w3.org/1999/xlink">
    <title>website</title>
    <g id="website" stroke="none" stroke-width="1" fill="none" fill-rule="evenodd">
        <path d="M58,8 C59.1045695,8 60,8.8954305 60,10 L60,10 L60,54 C60,55.1045695 59.1045695,56 58,56 L58,56 L6,56 C4.8954305,56 4,55.1045695 4,54 L4,54 L4,10 C4,8.8954305 4.8954305,8 6,8 L6,8 Z M56,24 L8,24 L8,52 L56,52 L56,24 Z M56,12 L8,12 L8,20 L56,20 L56,12 Z" id="Rectangle" fill="#000000" fill-rule="nonzero"></path>
        <circle id="Oval" fill="#000000" cx="52" cy="16" r="2"></circle>
        <circle id="Oval-Copy" fill="#000000" cx="46" cy="16" r="2"></circle>
        <circle id="Oval-Copy-2" fill="#000000" cx="40" cy="16" r="2"></circle>
        <path d="M32,28 L32.4790694,28.2400837 C42.4648002,28.4076068 51.1780542,33.8025527 56.0005582,41.8066479 L56,52 L55.6273376,51.9999581 C55.131662,49.2166149 54.1562057,46.5993079 52.7895399,44.2366084 L47.9420376,44.2361973 C48.8592565,46.6378291 49.4709555,49.2268944 49.7749697,51.99978 L45.7488579,51.9999554 C45.4000146,49.1752837 44.6871968,46.5892983 43.6069043,44.2361574 L33.9998371,44.236 L33.9998371,52 L29.9998371,52 L29.9998371,44.236 L20.3930957,44.2361574 C19.3128032,46.5892983 18.5999854,49.1752837 18.2511421,51.9999554 L14.2250303,51.99978 C14.5290445,49.2268944 15.1407435,46.6378291 16.0579624,44.2361973 L11.2104601,44.2366084 C9.84379431,46.5993079 8.86833801,49.2166149 8.3726624,51.9999581 L8,52 L7.9988371,41.8076516 C12.8212229,33.8029944 21.5348026,28.4076013 31.5209653,28.2400831 L32,28 Z M22.9872816,33.9847852 L22.6581169,34.1221069 C19.3704029,35.5126927 16.4570429,37.6150477 14.1112101,40.2359985 L17.9678809,40.2368358 C19.3053779,37.9418151 20.9793507,35.8563974 22.9872816,33.9847852 Z M34.0002316,33.6443564 L33.9998371,40.236 L41.2541231,40.2362378 C39.3906735,37.6997494 36.9748414,35.5060138 34.0002316,33.6443564 Z M41.0120184,33.9854878 L41.1071506,34.0731955 C43.0731879,35.9220048 44.7156444,37.9778874 46.0321191,40.2368358 L49.8887899,40.2359985 C47.4647975,37.5277215 44.4348295,35.3731738 41.0120184,33.9854878 Z M29.9998608,33.6442985 C27.0252087,35.5059683 24.6093458,37.6997231 22.7458769,40.2362378 L29.9998371,40.236 Z" id="Combined-Shape" fill="#000000" fill-rule="nonzero"></path>
    </g>
</svg>