<?xml version="1.0" encoding="UTF-8"?>
<svg width="64px" height="64px" viewBox="0 0 64 64" version="1.1" xmlns="http://www.w3.org/2000/svg" xmlns:xlink="http://www.w3.org/1999/xlink">
    <title>wildlife</title>
    <g id="wildlife" stroke="none" stroke-width="1" fill="none" fill-rule="evenodd">
        <circle id="Oval" fill="#000000" fill-rule="nonzero" cx="38.3185841" cy="27.3415929" r="2.05663717"></circle>
        <circle id="Oval" fill="#000000" fill-rule="nonzero" cx="25.8424779" cy="27.3415929" r="2.05663717"></circle>
        <path d="M39.8672566,14.5681416 C41.3663717,11.7433628 44.240708,10.3309735 46.2849558,11.4212389 C48.3168142,12.499115 48.7628319,15.6831858 47.2637168,18.5079646 C47.0476853,18.9150323 46.8030952,19.2927695 46.536546,19.6379135 C47.2625914,20.6479208 47.9164638,21.8670054 48.5522124,23.339823 C50.6584071,28.2336283 50.3115044,39.0247788 42.2707965,41.9734513 C41.973572,42.0822835 41.6893456,42.1890371 41.4176332,42.2940091 C47.5748683,43.4985312 56.6905356,42.6345699 58.9504835,39.362318 L59.0671325,39.1810441 C59.3503227,38.7068904 59.9642712,38.5520838 60.4384249,38.8352741 C60.9125787,39.1184643 61.0673852,39.7324128 60.784195,40.2065665 C59.0975644,43.0305419 54.9959908,44.4480732 49.523574,44.7129896 C45.6710142,44.8994897 41.3848926,44.4470519 38.7692663,43.6741839 C42.0468526,45.8655707 48.9192949,47.9993764 54.7019321,47.7390648 C55.2536581,47.7142282 55.7210544,48.1413566 55.745891,48.6930826 C55.7707275,49.2448086 55.3435992,49.7122049 54.7918732,49.7370414 C48.9796311,49.9986858 42.2322183,48.0464168 38.3952845,45.7949012 C40.3409087,48.9829837 43.0593729,51.5495371 45.9359605,52.0127165 C46.4812222,52.1005129 46.852071,52.6137078 46.7642747,53.1589694 C46.6764783,53.704231 46.1632834,54.0750799 45.6180218,53.9872835 C41.7217873,53.3599237 38.3946374,49.9866844 36.1632544,45.9328744 C36.0494763,46.2662645 36,46.6191749 36,47 C36,49 33.9575221,50 32,50 C30.0424779,50 28,49 28,47 C28,46.6195569 27.9506229,46.2669725 27.8368845,45.9330491 L27.9882918,45.6533685 C25.7574278,49.8307707 22.3674248,53.3455591 18.3819782,53.9872835 C17.8367166,54.0750799 17.3235217,53.704231 17.2357253,53.1589694 C17.147929,52.6137078 17.5187778,52.1005129 18.0640395,52.0127165 C20.9406271,51.5495371 23.6590913,48.9829837 25.6048498,45.7950792 C21.7676071,48.0464673 15.0202937,49.9986824 9.20812681,49.7370414 C8.6564008,49.7122049 8.22927249,49.2448086 8.25410903,48.6930826 C8.27894557,48.1413566 8.74634187,47.7142282 9.29806788,47.7390648 C15.0801309,47.9993506 21.9517827,45.8659944 25.2290313,43.67429 C22.6129703,44.4472775 18.3280253,44.8994432 14.476426,44.7129896 C9.00400917,44.4480732 4.90243561,43.0305419 3.21580503,40.2065665 C2.93261482,39.7324128 3.08742133,39.1184643 3.56157505,38.8352741 C4.00186065,38.5723117 4.56268363,38.6870098 4.86729278,39.0843709 L4.93286754,39.1810441 C6.97610174,42.6020914 16.3112831,43.5203221 22.5797047,42.2939123 C22.3097274,42.1886889 22.0259433,42.082106 21.7292035,41.9734513 C13.6884956,39.0247788 13.3539823,28.2336283 15.4477876,23.339823 C16.0726318,21.857142 16.7336877,20.6369963 17.4619096,19.6329547 C17.1954691,19.2905516 16.9516806,18.9138374 16.7362832,18.5079646 C15.2371681,15.6707965 15.6707965,12.5115044 17.7150442,11.4212389 C19.759292,10.3309735 22.6336283,11.7433628 24.1327434,14.5681416 C24.2871614,14.856726 24.4211486,15.1489311 24.5350883,15.4421676 C26.5564901,15.0803016 28.9963896,14.9893805 32,14.9893805 C35.0063691,14.9893805 37.4388826,15.0895776 39.4693672,15.4461779 C39.5799143,15.1515906 39.7134074,14.8580393 39.8672566,14.5681416 Z M32,45 C30.3431458,45 29,45.8954305 29,47 C29,48.1045695 30.3431458,49 32,49 C33.6568542,49 35,48.1045695 35,47 C35,45.8954305 33.6568542,45 32,45 Z M32,28.2831858 C32,25.9044248 28.6424779,23.6867257 24.7522124,24.6530973 C20.4902655,25.7061947 14.4814159,30.4389381 15.1504425,32.4831858 C16.5504425,36.720354 20.7504425,32.2230088 24.7522124,32.2230088 C28.7539823,32.2230088 32,31.8017699 32,28.2831858 Z M39.2477876,24.6530973 C35.3575221,23.6867257 32,25.9044248 32,28.2831858 C32,31.7893805 35.2460177,32.2230088 39.2477876,32.2230088 C43.2495575,32.2230088 47.4495575,36.720354 48.8495575,32.4831858 C49.5185841,30.4389381 43.5097345,25.7061947 39.2477876,24.6530973 Z M45.9256637,12.5238938 C44.2902655,11.6566372 41.8619469,13.0070796 40.5115044,15.559292 C39.1486726,18.099115 41.1309735,17.1823009 42.7663717,18.0495575 C44.4017699,18.9168142 45.0707965,21.2584071 46.4212389,18.7061947 C47.7716814,16.1539823 47.5610619,13.3911504 45.9256637,12.5238938 Z M23.500885,15.559292 C22.1380531,13.019469 19.7221239,11.6566372 18.0867257,12.5238938 C16.4513274,13.3911504 16.2283186,16.1539823 17.5787611,18.7061947 C18.9292035,21.2460177 19.5982301,18.9168142 21.2336283,18.0495575 C22.8690265,17.1823009 24.8637168,18.099115 23.500885,15.559292 Z" id="Shape" fill="#000000" fill-rule="nonzero"></path>
    </g>
</svg>