<?xml version="1.0" encoding="UTF-8"?>
<svg width="64px" height="64px" viewBox="0 0 64 64" version="1.1" xmlns="http://www.w3.org/2000/svg" xmlns:xlink="http://www.w3.org/1999/xlink">
    <title>wildlife_exclusion</title>
    <g id="wildlife_exclusion" stroke="none" stroke-width="1" fill="none" fill-rule="evenodd">
        <g id="raccoon" transform="translate(7.000000, 11.000000)" fill="#000000" fill-rule="nonzero">
            <circle id="Oval" cx="30" cy="14" r="2"></circle>
            <circle id="Oval" cx="20" cy="14" r="2"></circle>
            <path d="M39.0295993,9.96931766 C39.1222266,10.1687614 39.2142023,10.3740871 39.3057433,10.5854801 C41.1260849,14.8015969 40.8262639,24.0984014 33.8768422,26.6387452 C33.620585,26.7322772 33.3755069,26.8240272 33.1411925,26.9142493 C38.4627431,27.9524732 46.3397425,27.2080089 48.2927593,24.3891985 L48.3935766,24.2330272 C48.6383322,23.8245338 49.1689556,23.6911647 49.5787571,23.9351391 C49.9885586,24.1791134 50.1223547,24.7080431 49.8775991,25.1165365 C48.4198783,27.5494511 44.8749711,28.7706842 40.1452716,28.9989154 C36.8183275,29.1594567 33.1172824,28.7704469 30.8561356,28.1056088 C33.6889007,29.9936238 39.6253651,31.8301013 44.620822,31.6059432 C45.0976677,31.584546 45.5016289,31.952526 45.5230946,32.4278497 C45.5445603,32.9031733 45.175402,33.3058451 44.6985563,33.3272423 C39.674847,33.5526681 33.8427903,31.8705287 30.5267102,29.9306511 C32.2087807,32.677513 34.5583409,34.8887373 37.0445696,35.2877845 C37.5158282,35.3634229 37.8363454,35.8055512 37.7604648,36.2753056 C37.6845842,36.7450601 37.2410402,37.0645542 36.7697815,36.9889158 C33.4025054,36.4484579 30.5270306,33.5425924 28.5984929,30.050372 C28.4997392,30.3381014 28.4571193,30.6416776 28.4571193,30.9692232 C28.4571193,32.6922655 26.6918469,33.5537867 25,33.5537867 C23.3081531,33.5537867 21.5428807,32.6922655 21.5428807,30.9692232 C21.5428807,30.6416776 21.5002608,30.3381014 21.4020959,30.0505863 L21.5327615,29.8090716 C19.6046708,33.407992 16.6747595,36.4360566 13.2302185,36.9889158 C12.8879447,37.0438518 12.5602907,36.8903524 12.3774999,36.6222349 L13.9790389,35.0211394 C16.0795875,34.2660495 18.0240999,32.2971728 19.4729064,29.9309858 C19.1960406,30.0928394 18.9012043,30.2532261 18.5907235,30.4108469 L30.7655572,18.2356348 C30.9300422,18.2376533 31.0963107,18.2385327 31.2641166,18.2385327 C32.2702691,18.2385327 33.2909205,18.5664292 34.2622753,18.9415762 L34.624098,19.0839231 C36.8395513,19.968627 38.7487383,20.918411 39.5627327,18.4626807 C39.9377281,17.3205186 37.8852797,15.2041934 35.3914712,13.6101588 L39.0295993,9.96931766 Z M12.1108148,30.8914729 L9.94050008,33.0612207 C8.38115689,33.2912944 6.80509172,33.3947146 5.30144371,33.3272423 C4.82459805,33.3058451 4.45543966,32.9031733 4.47690538,32.4278497 C4.49837111,31.952526 4.9023323,31.584546 5.37917796,31.6059432 C7.55590652,31.7036182 9.91130487,31.4100387 12.1108148,30.8914729 Z M25,29.2461809 C23.5680143,29.2461809 22.4071605,30.0176132 22.4071605,30.9692232 C22.4071605,31.9208332 23.5680143,32.6922655 25,32.6922655 C26.4319857,32.6922655 27.5928395,31.9208332 27.5928395,30.9692232 C27.5928395,30.0176132 26.4319857,29.2461809 25,29.2461809 Z M1.54974841,24.1497413 L1.60642335,24.2330272 C3.27368493,27.0156622 10.5586695,27.8762795 15.9268922,27.0745694 L14.0676849,28.9338695 C12.6856015,29.0374194 11.2378369,29.0656571 9.85472842,28.9989154 C5.12502895,28.7706842 1.58012165,27.5494511 0.122400854,25.1165365 C-0.122354731,24.7080431 0.011441416,24.1791134 0.421242913,23.9351391 C0.801772875,23.7085914 1.28648087,23.8074063 1.54974841,24.1497413 Z M12.6538009,0.31736777 C14.420603,-0.621919015 16.9048339,0.59488432 18.2004888,3.02849099 C18.3339173,3.27705336 18.4496964,3.5287335 18.548157,3.78130231 C20.2955339,3.46971843 22.4041938,3.39139725 25,3.39139725 C27.5979913,3.39139725 29.7001455,3.47769566 31.4549084,3.78481266 C31.5510504,3.53140039 31.6664752,3.27837025 31.7995112,3.02849099 C33.0951661,0.59488432 35.579397,-0.621919015 37.3461991,0.31736777 C38.5432942,0.950385138 39.1034829,2.42659383 38.9283994,4.0731549 L38.0958355,4.90517979 C38.4580916,3.28642267 38.0884781,1.82385339 37.0356703,1.26732827 C35.6222286,0.520168326 33.5234818,1.68360309 32.3563216,3.88238807 C31.1784535,6.07049933 32.8917162,5.28064453 34.3051579,6.02780447 C34.9031525,6.3439106 35.3516484,6.88736999 35.758494,7.2427155 L31.28,11.72 L31.2641166,11.7168937 C27.9782541,10.9032657 25.1321396,12.7095105 25.004468,14.7048088 L25,14.8442918 C25,12.7949388 22.0981613,10.8843441 18.7358834,11.7168937 C15.0523686,12.6241594 9.85904113,16.7015179 10.4372673,18.4626807 C11.2512617,20.918411 13.1604487,19.968627 15.375902,19.0839231 L15.7377247,18.9415762 C16.7090795,18.5664292 17.7297309,18.2385327 18.7358834,18.2385327 C22.1945324,18.2385327 25,17.8756264 25,14.8442918 L25,14.849 L25.004322,15.0461708 C25.0446415,15.971634 25.365398,16.6330539 25.8967516,17.1042037 L16.298,26.702 L16.1231578,26.6387452 C9.27745878,24.1363169 8.89473692,15.0776084 10.6146461,10.7776175 L10.6942567,10.5854801 C11.234338,9.30802187 11.8057211,8.25677779 12.4351653,7.39173718 C12.2051418,7.09756203 11.9942174,6.7727311 11.8078774,6.42273187 C10.5122225,3.97845149 10.8869987,1.25665455 12.6538009,0.31736777 Z M17.6543863,3.88238807 C16.4765182,1.69427681 14.3884793,0.520168326 12.9750376,1.26732827 C11.5615959,2.01448821 11.3688539,4.39472631 12.5360141,6.59351129 C13.7031743,8.78162255 14.2814004,6.77496442 15.6948421,6.02780447 C17.1082838,5.28064453 18.8322544,6.07049933 17.6543863,3.88238807 Z" id="Shape"></path>
        </g>
        <path d="M32,4 C47.463973,4 60,16.536027 60,32 C60,47.463973 47.463973,60 32,60 C16.536027,60 4,47.463973 4,32 C4,16.536027 16.536027,4 32,4 Z M32,6 C17.6405965,6 6,17.6405965 6,32 C6,46.3594035 17.6405965,58 32,58 C46.3594035,58 58,46.3594035 58,32 C58,17.6405965 46.3594035,6 32,6 Z" id="Oval" fill="#000000" fill-rule="nonzero"></path>
        <polygon id="Path-35" fill="#000000" fill-rule="nonzero" points="50.1696961 12.4241294 51.5839097 13.838343 13.7151459 51.7071068 12.3009323 50.2928932"></polygon>
    </g>
</svg>