<?xml version="1.0" encoding="UTF-8"?>
<svg width="64px" height="64px" viewBox="0 0 64 64" version="1.1" xmlns="http://www.w3.org/2000/svg" xmlns:xlink="http://www.w3.org/1999/xlink">
    <title>winter_check</title>
    <g id="winter_check" stroke="none" stroke-width="1" fill="none" fill-rule="evenodd">
        <path d="M32,6 C33.1045695,6 34,6.89497885 34,7.99700466 L33.9992085,12.921 L37.3285306,10.9998075 C38.2393887,10.4739233 39.3885961,10.7401894 39.9763895,11.5988359 L40.0602479,11.7320508 C40.6125327,12.6886361 40.2917082,13.9078183 39.3285306,14.4639091 L34.1317113,17.4642941 L33.9992085,17.534 L33.9992085,29.041 L43.0541672,23.8139168 C43.0530984,23.7868984 43.0525589,23.7597348 43.0525589,23.7324358 L43.0525589,17.7316658 C43.0525589,16.677507 43.86142,15.8138699 44.9023397,15.7375355 L45.0525589,15.7320508 C46.1571284,15.7320508 47.0525589,16.6194841 47.0525589,17.7316658 L47.0522085,21.505 L51.2872037,19.0606802 C52.1968729,18.5354824 53.3451056,18.8023113 53.9328089,19.6610098 L54.0166605,19.7942286 C54.5689452,20.7508139 54.2415861,21.9737689 53.2872037,22.5247818 L49.0212085,24.986 L52.3509655,26.9087752 C53.2618237,27.4346594 53.6058341,28.5630353 53.1561211,29.5014026 L53.0826829,29.6406335 C52.5303981,30.5972188 51.3141431,30.9289677 50.3509655,30.3728768 L45.1541462,27.3724918 L45.0272085,27.293 L36.4822085,32.227 L45.0282085,37.161 L45.1541462,37.0819909 L50.3509655,34.0816058 C51.3141431,33.525515 52.5303981,33.8572639 53.0826829,34.8138492 L53.0826829,34.8138492 L53.1561211,34.9530801 C53.6058341,35.8914474 53.2618237,37.0198232 52.3509655,37.5457075 L52.3509655,37.5457075 L49.0222085,39.467 L53.2872037,41.9297009 C54.1961393,42.4544751 54.5363464,43.5887206 54.0896016,44.5218883 L54.0166605,44.660254 L53.9328089,44.7934728 C53.3451056,45.6521714 52.1968729,45.9190002 51.2872037,45.3938025 L51.2872037,45.3938025 L47.0522085,42.948 L47.0525589,46.7228169 C47.0525589,47.7769757 46.2436978,48.6406127 45.202778,48.7169472 L45.0525589,48.7224319 C43.9479894,48.7224319 43.0525589,47.8349986 43.0525589,46.7228169 L43.0525589,40.7220468 L43.0552085,40.641 L33.9992085,35.412 L33.9992085,46.465 L34.1317113,46.5357059 L39.3285306,49.5360909 C40.2917082,50.0921817 40.6125327,51.3113639 40.0602479,52.2679492 L40.0602479,52.2679492 L39.9763895,52.4011641 C39.3885961,53.2598106 38.2393887,53.5260767 37.3285306,53.0001925 L37.3285306,53.0001925 L33.9992085,51.078 L34,56.0029953 C34,57.0549291 33.1841222,57.9182105 32.1492623,57.9945172 L32,58 L31.8497808,57.9945225 C30.8088611,57.9182877 30,57.055778 30,56.0029953 L30,56.0029953 L29.9992085,51.113 L26.7317174,53.0001925 C25.8208592,53.5260767 24.6716518,53.2598106 24.0838584,52.4011641 L24,52.2679492 C23.4477153,51.3113639 23.7685398,50.0921817 24.7317174,49.5360909 L29.9285367,46.5357059 L29.9992085,46.497 L29.9992085,35.417 L20.9541449,40.6401086 C20.9552258,40.6672778 20.9557714,40.6945938 20.9557714,40.7220468 L20.9557714,46.7228169 C20.9557714,47.7769757 20.1469103,48.6406127 19.1059905,48.7169472 L18.9557714,48.7224319 C17.8512019,48.7224319 16.9557714,47.8349986 16.9557714,46.7228169 L16.9552085,42.948 L12.7211265,45.3938025 C11.8114574,45.9190002 10.6632246,45.6521714 10.0755214,44.7934728 L9.99166975,44.660254 C9.439385,43.7036688 9.76674417,42.4807138 10.7211265,41.9297009 L14.9842085,39.467 L11.6573648,37.5457075 C10.7465066,37.0198232 10.4024961,35.8914474 10.8522092,34.9530801 L10.9256474,34.8138492 C11.4779321,33.8572639 12.6941872,33.525515 13.6573648,34.0816058 L18.8541841,37.0819909 L18.9792085,37.161 L27.5292085,32.224 L18.9882085,27.293 L18.8625143,27.3724918 L13.665695,30.3728768 C12.7025174,30.9289677 11.4862624,30.5972188 10.9339776,29.6406335 L10.9339776,29.6406335 L10.8605394,29.5014026 C10.4108264,28.5630353 10.7548368,27.4346594 11.665695,26.9087752 L11.665695,26.9087752 L14.9942085,24.986 L10.7294568,22.5247818 C9.8205212,22 9.48031414,20.8657621 9.92705887,19.9325944 L10,19.7942286 L10.0838516,19.6610098 C10.6715549,18.8023113 11.8197876,18.5354824 12.7294568,19.0606802 L12.7294568,19.0606802 L16.9632085,21.505 L16.9641016,17.7316658 C16.9641016,16.677507 17.7729627,15.8138699 18.8138824,15.7375355 L18.9641016,15.7320508 C20.0686711,15.7320508 20.9641016,16.6194841 20.9641016,17.7316658 L20.9641016,23.7324358 L20.9602085,23.812 L29.9992085,29.031 L29.9992085,17.502 L29.9285367,17.4642941 L24.7317174,14.4639091 C23.7685398,13.9078183 23.4477153,12.6886361 24,11.7320508 L24,11.7320508 L24.0838584,11.5988359 C24.6716518,10.7401894 25.8208592,10.4739233 26.7317174,10.9998075 L26.7317174,10.9998075 L29.9992085,12.886 L30,7.99700466 C30,6.94422195 30.8088611,6.08171232 31.8497808,6.00547752 L32,6 Z" id="Combined-Shape" fill="#000000" fill-rule="nonzero"></path>
    </g>
</svg>