<?xml version="1.0" encoding="UTF-8"?>
<svg width="64px" height="64px" viewBox="0 0 64 64" version="1.1" xmlns="http://www.w3.org/2000/svg" xmlns:xlink="http://www.w3.org/1999/xlink">
    <title>wizard</title>
    <g id="wizard" stroke="none" stroke-width="1" fill="none" fill-rule="evenodd">
        <g id="Group" transform="translate(4.000000, -3.000000)" fill="#000000" fill-rule="nonzero">
            <path d="M26.8462726,27.5911244 L0.59112438,53.8462726 C-0.19704146,54.6344385 -0.19704146,55.9123078 0.59112438,56.7004736 L6.29952636,62.4088756 C7.0876922,63.1970415 8.36556151,63.1970415 9.15372736,62.4088756 L35.4088756,36.1537274 C36.1970415,35.3655615 36.1970415,34.0876922 35.4088756,33.2995264 L29.7004736,27.5911244 C28.9123078,26.8029585 27.6344385,26.8029585 26.8462726,27.5911244 Z M28.2733731,31.8719949 L31.1271431,34.7257648 L7.72576483,58.1271431 L4.87199485,55.2733731 L28.2733731,31.8719949 Z" id="Path-99"></path>
            <path d="M37.3341362,12.1739956 L30.561634,13.1581479 L30.3364676,13.2035275 C28.8808003,13.5820724 28.3461772,15.4433434 29.4648307,16.5337611 L34.3655958,21.3111631 L33.209211,28.0577787 L33.183428,28.2757045 C33.0856846,29.7824115 34.6948048,30.8726197 36.0806791,30.1440224 L42.1372347,26.9593061 L48.1977483,30.1440224 L48.3970406,30.2358863 C49.7997998,30.7944438 51.3338948,29.6009725 51.0692164,28.0577787 L49.9108526,21.3111631 L54.8135967,16.5337611 L54.9690867,16.3646988 C55.9242431,15.2028297 55.2627346,13.3827863 53.7167935,13.1581479 L46.9423122,12.1739956 L43.9138786,6.03591335 C43.1879444,4.56501002 41.090483,4.56501002 40.3645488,6.03591335 L37.3341362,12.1739956 Z M42.1392137,11.3823848 L43.8542774,14.8585748 L43.974631,15.0689512 C44.283218,15.5390215 44.780346,15.859228 45.3443616,15.9411843 L49.1786127,16.4981695 L46.4043293,19.2034294 L46.2414407,19.3829023 C45.8897359,19.8216457 45.7388224,20.3933918 45.8351678,20.9551283 L46.489115,24.7724813 L43.0601364,22.9713066 L42.8391121,22.8718506 C42.3131596,22.6729386 41.7227619,22.7060906 41.2182911,22.9713066 L37.7873334,24.7724813 L38.4432597,20.9551283 L38.4695477,20.7141882 C38.496196,20.1525104 38.2822237,19.6012534 37.8740982,19.2034294 L35.0978357,16.4981695 L38.9340658,15.9411843 C39.578655,15.84752 40.1358809,15.4426717 40.42415,14.8585748 L42.1392137,11.3823848 Z" id="Star" transform="translate(42.139214, 17.654240) rotate(-30.000000) translate(-42.139214, -17.654240) "></path>
        </g>
    </g>
</svg>