<?xml version="1.0" encoding="UTF-8"?>
<svg width="64px" height="64px" viewBox="0 0 64 64" version="1.1" xmlns="http://www.w3.org/2000/svg" xmlns:xlink="http://www.w3.org/1999/xlink">
    <title>work</title>
    <g id="work" stroke="none" stroke-width="1" fill="none" fill-rule="evenodd">
        <path d="M36.6615798,3.50011245 C38.5826156,3.81192622 40.440073,4.31328718 42.2141374,4.98438084 L42.1735664,7.38542539 C42.1370129,9.59426195 43.8979963,11.4145102 46.1068329,11.4510637 C46.853818,11.4634254 47.5893364,11.2663438 48.2300637,10.8821457 L50.2839837,9.65124289 C51.7696838,10.8681649 53.1318351,12.2303162 54.3487571,13.7160163 L53.1178543,15.7699363 C51.9817798,17.6645681 52.596712,20.1214411 54.4913438,21.2575156 C55.1320711,21.6417137 55.8675895,21.8387952 56.6145746,21.8264336 L59.0156192,21.7858626 C59.6867128,23.559927 60.1880738,25.4173844 60.4998876,27.3384202 L58.4036301,28.5032797 C56.4724448,29.5760417 55.7765553,32.0112222 56.8493173,33.9424075 C57.2121043,34.5954964 57.7505412,35.1339333 58.4036301,35.4967203 L60.4998876,36.6615798 C60.1880738,38.5826156 59.6867128,40.440073 59.0156192,42.2141374 L56.6145746,42.1735664 C54.405738,42.1370129 52.5854898,43.8979963 52.5489363,46.1068329 C52.5365746,46.853818 52.7336562,47.5893364 53.1178543,48.2300637 L54.3487571,50.2839837 C53.1318351,51.7696838 51.7696838,53.1318351 50.2839837,54.3487571 L48.2300637,53.1178543 C46.3354319,51.9817798 43.8785589,52.596712 42.7424844,54.4913438 C42.3582863,55.1320711 42.1612048,55.8675895 42.1735664,56.6145746 L42.2141374,59.0156192 C40.440073,59.6867128 38.5826156,60.1880738 36.6615798,60.4998876 L35.4967203,58.4036301 C34.4239583,56.4724448 31.9887778,55.7765553 30.0575925,56.8493173 C29.4045036,57.2121043 28.8660667,57.7505412 28.5032797,58.4036301 L27.3384202,60.4998876 C25.4173844,60.1880738 23.559927,59.6867128 21.7858626,59.0156192 L21.8264336,56.6145746 C21.8629871,54.405738 20.1020037,52.5854898 17.8931671,52.5489363 C17.146182,52.5365746 16.4106636,52.7336562 15.7699363,53.1178543 L13.7160163,54.3487571 C12.2303162,53.1318351 10.8681649,51.7696838 9.65124289,50.2839837 L10.8821457,48.2300637 C12.0182202,46.3354319 11.403288,43.8785589 9.50865621,42.7424844 C8.86792895,42.3582863 8.13241052,42.1612048 7.38542539,42.1735664 L4.98438084,42.2141374 C4.31328718,40.440073 3.81192622,38.5826156 3.50011245,36.6615798 L5.59636987,35.4967203 C7.52755519,34.4239583 8.22344475,31.9887778 7.15068271,30.0575925 C6.78789567,29.4045036 6.2494588,28.8660667 5.59636987,28.5032797 L3.50011245,27.3384202 C3.81192622,25.4173844 4.31328718,23.559927 4.98438084,21.7858626 L7.38542539,21.8264336 C9.59426195,21.8629871 11.4145102,20.1020037 11.4510637,17.8931671 C11.4634254,17.146182 11.2663438,16.4106636 10.8821457,15.7699363 L9.65124289,13.7160163 C10.8681649,12.2303162 12.2303162,10.8681649 13.7160163,9.65124289 L15.7699363,10.8821457 C17.6645681,12.0182202 20.1214411,11.403288 21.2575156,9.50865621 C21.6417137,8.86792895 21.8387952,8.13241052 21.8264336,7.38542539 L21.7858626,4.98438084 C23.559927,4.31328718 25.4173844,3.81192622 27.3384202,3.50011245 L28.5032797,5.59636987 C29.5760417,7.52755519 32.0112222,8.22344475 33.9424075,7.15068271 C34.5954964,6.78789567 35.1339333,6.2494588 35.4967203,5.59636987 Z M25.9994504,39.0364031 L15.8873951,44.8756857 C19.6668461,49.5991204 25.4801214,52.6244483 32,52.6244483 C38.5198786,52.6244483 44.3331539,49.5991204 48.1126049,44.8756857 L37.9995453,39.036237 C34.2866786,36.8926583 29.7122577,36.8927216 25.9994504,39.0364031 Z M11.3755517,32 C11.3755517,34.6528522 11.8764154,37.1887215 12.7887373,39.5182023 L22.9065617,33.6769954 C26.6189409,31.5333726 28.9058557,27.572188 28.9059744,23.2853619 L28.9068009,11.6059603 C18.9836073,13.0984051 11.3755517,21.6607242 11.3755517,32 Z M35.0931991,11.6059603 L35.0933089,23.2846974 C35.0931902,27.5718796 37.3802625,31.5334634 41.0930095,33.6771616 L51.2112627,39.5182023 C52.1235846,37.1887215 52.6244483,34.6528522 52.6244483,32 C52.6244483,21.6607242 45.0163927,13.0984051 35.0931991,11.6059603 Z M32,28.9063327 C30.2914148,28.9063327 28.9063327,30.2914148 28.9063327,32 C28.9063327,33.7085852 30.2914148,35.0936673 32,35.0936673 C33.7085852,35.0936673 35.0936673,33.7085852 35.0936673,32 C35.0936673,30.2914148 33.7085852,28.9063327 32,28.9063327 Z" id="Star-2" fill="#000000"></path>
    </g>
</svg>