<?xml version="1.0" encoding="UTF-8"?>
<svg width="64px" height="64px" viewBox="0 0 64 64" version="1.1" xmlns="http://www.w3.org/2000/svg" xmlns:xlink="http://www.w3.org/1999/xlink">
    <title>work_production</title>
    <g id="work_production" stroke="none" stroke-width="1" fill="none" fill-rule="evenodd">
        <path d="M29.5,15 C32.3453431,15 35.0670713,15.9588445 37.264661,17.7033455 L37.264661,17.7033455 L37.315,17.745 L37.9350728,17.7726566 L38.8160456,17.8273248 L39.6826837,17.9012288 L40.1796741,17.9536806 L40.7285401,18.0218062 L41.2235612,18.0931487 L41.7013154,18.1722301 L42.1140786,18.2494765 C42.8112595,18.388119 43.4429256,18.5548276 44.0896444,18.7828176 L44.0896444,18.7828176 L44.4097154,18.9038863 C45.7733798,19.450512 46.8483881,20.2205985 47.5188,21.5319468 L47.5188,21.5319468 L47.607165,21.7162653 L47.7064932,21.9507109 C48.3514159,23.6120573 47.8185107,25.512717 46.38077,26.5937314 L46.38077,26.5937314 L46.2926062,26.6600203 L46.1710232,26.7479166 C45.7493841,27.0408522 45.2677407,27.298231 44.7384998,27.5262118 C43.9203349,27.878652 42.9698192,28.1677634 41.9402926,28.3859297 L41.9402926,28.3859297 L41.846,28.404 L41.8524185,28.4934387 C41.8578705,28.6243128 41.8569344,28.7566021 41.849325,28.889973 L41.849325,28.889973 L41.8328704,29.0907987 L41.8180597,29.2254153 C41.2710618,33.7221693 38.6001787,37.2094424 34.8345921,38.8925885 C39.0264514,40.2081326 42.1484377,42.9814464 44.2007787,47.2117906 C43.3937505,47.8604961 42.5344776,48.4454223 41.6300176,48.9600858 C39.216513,43.6864353 34.9862748,41.1867102 28.7850887,41.1128012 L28.5,41.1111111 C23.8349485,41.1111111 20.2652942,42.4547689 17.7272655,45.2855037 C17.0153715,44.5225569 16.3640185,43.7007603 15.7810281,42.8293562 C17.8434296,40.6576327 20.4436523,39.2184858 23.5814925,38.5116612 C19.6631688,36.4025772 17,32.2622968 17,27.5 C17,20.5964406 22.5964406,15 29.5,15 Z M29.5,19 C24.8055796,19 21,22.8055796 21,27.5 C21,32.1944204 24.8055796,36 29.5,36 C33.8713094,36 37.30665,33.1872139 37.8473292,28.7424044 L37.8473292,28.7424044 L37.8555,28.6659167 L37.3117499,28.6385235 L36.6570438,28.5987311 C35.4388562,28.5172483 34.3034923,28.3977121 33.2229122,28.2207415 C29.6554608,27.6364865 27.2455477,26.5637776 26.4138247,24.4844701 C25.9155308,23.2387354 27.2671106,22.0626539 28.4320302,22.7283222 C31.5167389,24.4910129 35.4651151,25.1436371 39.2296659,24.7624167 C40.7859072,24.6048227 42.1795331,24.273195 43.1560042,23.8525613 C43.4649386,23.7194818 43.713072,23.584969 43.8887529,23.4629139 L43.8887529,23.4629139 L43.9769167,23.396625 L43.9572452,23.3527509 C43.8242551,23.0926177 43.4817709,22.8413158 42.9214304,22.616703 L42.9214304,22.616703 L42.6856554,22.5283236 C42.3145049,22.3980166 41.8645247,22.2781749 41.3339087,22.1726557 L41.3339087,22.1726557 L40.9681988,22.1044737 L40.5784778,22.0407895 L40.1646269,21.9818569 L39.726527,21.92793 L39.2640594,21.8792627 L38.7771049,21.836109 L38.524408,21.8166791 L37.8656557,21.774621 L37.1681318,21.7422692 L36.582041,21.7237097 L36.2923247,21.717205 C35.9393996,21.7103097 35.601762,21.5719048 35.3455419,21.3290985 C33.7764029,19.8421087 31.7061369,19 29.5,19 Z" id="Path" fill="#000000" fill-rule="nonzero"></path>
        <path d="M36.6616277,3.50012022 C38.5826465,3.81193455 40.4400877,4.31329276 42.2141374,4.98438084 L42.1735664,7.38542539 C42.1370129,9.59426195 43.8979963,11.4145102 46.1068329,11.4510637 C46.853818,11.4634254 47.5893364,11.2663438 48.2300637,10.8821457 L50.2839837,9.65124289 C51.7696838,10.8681649 53.1318351,12.2303162 54.3487571,13.7160163 L53.1178543,15.7699363 C51.9817798,17.6645681 52.596712,20.1214411 54.4913438,21.2575156 C55.1320711,21.6417137 55.8675895,21.8387952 56.6145746,21.8264336 L59.0157892,21.7863122 C59.6867975,23.5602409 60.1881001,25.4175467 60.4998876,27.3384202 L58.4036301,28.5032797 C56.4724448,29.5760417 55.7765553,32.0112222 56.8493173,33.9424075 C57.2121043,34.5954964 57.7505412,35.1339333 58.4036301,35.4967203 L60.5000415,36.6606311 C60.1882388,38.5820041 59.6868233,40.4397809 59.0156192,42.2141374 L56.6145746,42.1735664 C54.405738,42.1370129 52.5854898,43.8979963 52.5489363,46.1068329 C52.5365746,46.853818 52.7336562,47.5893364 53.1178543,48.2300637 L54.3495745,50.2829856 C53.1321727,51.7694065 51.7694065,53.1321727 50.2829856,54.3495745 L48.2300637,53.1178543 C46.3354319,51.9817798 43.8785589,52.596712 42.7424844,54.4913438 C42.3582863,55.1320711 42.1612048,55.8675895 42.1735664,56.6145746 L42.2141374,59.0156192 C40.4397809,59.6868233 38.5820041,60.1882388 36.6606311,60.5000415 L35.4967203,58.4036301 C34.4239583,56.4724448 31.9887778,55.7765553 30.0575925,56.8493173 C29.4045036,57.2121043 28.8660667,57.7505412 28.5032797,58.4036301 L27.3384202,60.4998876 C25.4175467,60.1881001 23.5602409,59.6867975 21.7863122,59.0157892 L21.8264336,56.6145746 C21.8629871,54.405738 20.1020037,52.5854898 17.8931671,52.5489363 C17.146182,52.5365746 16.4106636,52.7336562 15.7699363,53.1178543 L13.7160163,54.3487571 C12.2303162,53.1318351 10.8681649,51.7696838 9.65124289,50.2839837 L10.8821457,48.2300637 C12.0182202,46.3354319 11.403288,43.8785589 9.50865621,42.7424844 C8.86792895,42.3582863 8.13241052,42.1612048 7.38542539,42.1735664 L4.98438084,42.2141374 C4.31329276,40.4400877 3.81193455,38.5826465 3.50012022,36.6616277 L5.59636987,35.4967203 C7.52755519,34.4239583 8.22344475,31.9887778 7.15068271,30.0575925 C6.78789567,29.4045036 6.2494588,28.8660667 5.59636987,28.5032797 L3.50011245,27.3384202 C3.81189988,25.4175467 4.31320247,23.5602409 4.98421075,21.7863122 L7.38542539,21.8264336 C9.59426195,21.8629871 11.4145102,20.1020037 11.4510637,17.8931671 C11.4634254,17.146182 11.2663438,16.4106636 10.8821457,15.7699363 L9.65124289,13.7160163 C10.8681649,12.2303162 12.2303162,10.8681649 13.7160163,9.65124289 L15.7699363,10.8821457 C17.6645681,12.0182202 20.1214411,11.403288 21.2575156,9.50865621 C21.6417137,8.86792895 21.8387952,8.13241052 21.8264336,7.38542539 L21.7863122,4.98421075 C23.5602409,4.31320247 25.4175467,3.81189988 27.3384202,3.50011245 L28.5032797,5.59636987 C29.5760417,7.52755519 32.0112222,8.22344475 33.9424075,7.15068271 C34.5954964,6.78789567 35.1339333,6.2494588 35.4967203,5.59636987 Z M32,11.3755517 C20.6094317,11.3755517 11.3755517,20.6094317 11.3755517,32 C11.3755517,43.3905683 20.6094317,52.6244483 32,52.6244483 C43.3905683,52.6244483 52.6244483,43.3905683 52.6244483,32 C52.6244483,20.6094317 43.3905683,11.3755517 32,11.3755517 Z" id="Star-2" fill="#000000"></path>
    </g>
</svg>