<?xml version="1.0" encoding="UTF-8"?>
<svg width="64px" height="64px" viewBox="0 0 64 64" version="1.1" xmlns="http://www.w3.org/2000/svg" xmlns:xlink="http://www.w3.org/1999/xlink">
    <title>work_code</title>
    <g id="work_code" stroke="none" stroke-width="1" fill="none" fill-rule="evenodd">
        <path d="M34.7701176,20.9931058 C35.8358647,19.8089423 37.6306175,19.6710942 38.8619246,20.6475854 L39.0068942,20.7701176 L49.0068942,29.7701176 C50.2837445,30.9192829 50.3293463,32.8909758 49.1436996,34.0988931 L49.0068942,34.2298824 L39.0068942,43.2298824 C37.7753641,44.3382595 35.8784946,44.2384243 34.7701176,43.0068942 C33.7043704,41.8227307 33.7556834,40.0234234 34.8560329,38.9014237 L34.9931058,38.7701176 L42.516,32 L34.9931058,25.2298824 C33.8089423,24.1641353 33.6710942,22.3693825 34.6475854,21.1380754 L34.7701176,20.9931058 Z" id="Path-138" fill="#000000" fill-rule="nonzero"></path>
        <path d="M14.7701176,20.9931058 C15.8358647,19.8089423 17.6306175,19.6710942 18.8619246,20.6475854 L19.0068942,20.7701176 L29.0068942,29.7701176 C30.2837445,30.9192829 30.3293463,32.8909758 29.1436996,34.0988931 L29.0068942,34.2298824 L19.0068942,43.2298824 C17.7753641,44.3382595 15.8784946,44.2384243 14.7701176,43.0068942 C13.7043704,41.8227307 13.7556834,40.0234234 14.8560329,38.9014237 L14.9931058,38.7701176 L22.516,32 L14.9931058,25.2298824 C13.8089423,24.1641353 13.6710942,22.3693825 14.6475854,21.1380754 L14.7701176,20.9931058 Z" id="Path-138-Copy" fill="#000000" fill-rule="nonzero" transform="translate(21.999987, 32.000000) scale(-1, 1) translate(-21.999987, -32.000000) "></path>
        <path d="M36.6616277,3.50012022 C38.5826465,3.81193455 40.4400877,4.31329276 42.2141374,4.98438084 L42.1735664,7.38542539 C42.1370129,9.59426195 43.8979963,11.4145102 46.1068329,11.4510637 C46.853818,11.4634254 47.5893364,11.2663438 48.2300637,10.8821457 L50.2839837,9.65124289 C51.7696838,10.8681649 53.1318351,12.2303162 54.3487571,13.7160163 L53.1178543,15.7699363 C51.9817798,17.6645681 52.596712,20.1214411 54.4913438,21.2575156 C55.1320711,21.6417137 55.8675895,21.8387952 56.6145746,21.8264336 L59.0157892,21.7863122 C59.6867975,23.5602409 60.1881001,25.4175467 60.4998876,27.3384202 L58.4036301,28.5032797 C56.4724448,29.5760417 55.7765553,32.0112222 56.8493173,33.9424075 C57.2121043,34.5954964 57.7505412,35.1339333 58.4036301,35.4967203 L60.5000415,36.6606311 C60.1882388,38.5820041 59.6868233,40.4397809 59.0156192,42.2141374 L56.6145746,42.1735664 C54.405738,42.1370129 52.5854898,43.8979963 52.5489363,46.1068329 C52.5365746,46.853818 52.7336562,47.5893364 53.1178543,48.2300637 L54.3495745,50.2829856 C53.1321727,51.7694065 51.7694065,53.1321727 50.2829856,54.3495745 L48.2300637,53.1178543 C46.3354319,51.9817798 43.8785589,52.596712 42.7424844,54.4913438 C42.3582863,55.1320711 42.1612048,55.8675895 42.1735664,56.6145746 L42.2141374,59.0156192 C40.4397809,59.6868233 38.5820041,60.1882388 36.6606311,60.5000415 L35.4967203,58.4036301 C34.4239583,56.4724448 31.9887778,55.7765553 30.0575925,56.8493173 C29.4045036,57.2121043 28.8660667,57.7505412 28.5032797,58.4036301 L27.3384202,60.4998876 C25.4175467,60.1881001 23.5602409,59.6867975 21.7863122,59.0157892 L21.8264336,56.6145746 C21.8629871,54.405738 20.1020037,52.5854898 17.8931671,52.5489363 C17.146182,52.5365746 16.4106636,52.7336562 15.7699363,53.1178543 L13.7160163,54.3487571 C12.2303162,53.1318351 10.8681649,51.7696838 9.65124289,50.2839837 L10.8821457,48.2300637 C12.0182202,46.3354319 11.403288,43.8785589 9.50865621,42.7424844 C8.86792895,42.3582863 8.13241052,42.1612048 7.38542539,42.1735664 L4.98438084,42.2141374 C4.31329276,40.4400877 3.81193455,38.5826465 3.50012022,36.6616277 L5.59636987,35.4967203 C7.52755519,34.4239583 8.22344475,31.9887778 7.15068271,30.0575925 C6.78789567,29.4045036 6.2494588,28.8660667 5.59636987,28.5032797 L3.50011245,27.3384202 C3.81189988,25.4175467 4.31320247,23.5602409 4.98421075,21.7863122 L7.38542539,21.8264336 C9.59426195,21.8629871 11.4145102,20.1020037 11.4510637,17.8931671 C11.4634254,17.146182 11.2663438,16.4106636 10.8821457,15.7699363 L9.65124289,13.7160163 C10.8681649,12.2303162 12.2303162,10.8681649 13.7160163,9.65124289 L15.7699363,10.8821457 C17.6645681,12.0182202 20.1214411,11.403288 21.2575156,9.50865621 C21.6417137,8.86792895 21.8387952,8.13241052 21.8264336,7.38542539 L21.7863122,4.98421075 C23.5602409,4.31320247 25.4175467,3.81189988 27.3384202,3.50011245 L28.5032797,5.59636987 C29.5760417,7.52755519 32.0112222,8.22344475 33.9424075,7.15068271 C34.5954964,6.78789567 35.1339333,6.2494588 35.4967203,5.59636987 Z M32,11.3755517 C20.6094317,11.3755517 11.3755517,20.6094317 11.3755517,32 C11.3755517,43.3905683 20.6094317,52.6244483 32,52.6244483 C43.3905683,52.6244483 52.6244483,43.3905683 52.6244483,32 C52.6244483,20.6094317 43.3905683,11.3755517 32,11.3755517 Z" id="Star-2" fill="#000000"></path>
    </g>
</svg>