<?xml version="1.0" encoding="UTF-8"?>
<svg width="64px" height="64px" viewBox="0 0 64 64" version="1.1" xmlns="http://www.w3.org/2000/svg" xmlns:xlink="http://www.w3.org/1999/xlink">
    <title>work_order</title>
    <g id="work_order" stroke="none" stroke-width="1" fill="none" fill-rule="evenodd">
        <path d="M46,11 C49.3137085,11 52,13.6862915 52,17 L52,17 L52,54 C52,57.3137085 49.3137085,60 46,60 L46,60 L18,60 C14.6862915,60 12,57.3137085 12,54 L12,54 L12,17 C12,13.6862915 14.6862915,11 18,11 L18,11 L20,11 L20,15 L18,15 C16.9456382,15 16.0818349,15.8158778 16.0054857,16.8507377 L16,17 L16,54 C16,55.1045695 16.8954305,56 18,56 L18,56 L46,56 C47.1045695,56 48,55.1045695 48,54 L48,54 L48,17 C48,15.8954305 47.1045695,15 46,15 L46,15 L44,15 L44,11 Z" id="Rectangle" fill="#000000" fill-rule="nonzero"></path>
        <path d="M31.7330372,4.00381301 C28.9120034,4.08508155 26.945668,5.46301662 26.2645206,7.90528649 L26.239,8 L25,8 C22.790861,8 21,9.790861 21,12 L21,15 C21,17.209139 22.790861,19 25,19 L39,19 C41.209139,19 43,17.209139 43,15 L43,12 L42.9951047,11.8003597 C42.8910789,9.68396847 41.1421954,8 39,8 L37.76,8 L37.735469,7.90524888 C37.0330253,5.3866802 34.963829,4 32,4 L31.7330372,4.00381301 Z M32,8 C33.3309483,8 33.7856835,8.31260686 33.9429748,9.25016844 L33.9634841,9.38839093 C34.1585421,10.8823511 35.4314048,11.9998666 36.9380147,12 L39,12 L39,15 L25,15 L25,12 L27.061759,12 C28.5081567,12 29.7391369,10.9701091 30.007958,9.56596746 L30.0364954,9.38854796 C30.1729885,8.34309099 30.6056662,8 32,8 Z" id="Path-2" fill="#000000" fill-rule="nonzero"></path>
        <rect id="Rectangle" fill="#000000" x="20" y="22" width="24" height="4" rx="2"></rect>
        <rect id="Rectangle-Copy" fill="#000000" x="20" y="30" width="24" height="4" rx="2"></rect>
        <rect id="Rectangle-Copy-2" fill="#000000" x="20" y="38" width="24" height="4" rx="2"></rect>
        <rect id="Rectangle-Copy-3" fill="#000000" x="20" y="46" width="16" height="4" rx="2"></rect>
    </g>
</svg>