<?xml version="1.0" encoding="UTF-8"?>
<svg width="64px" height="64px" viewBox="0 0 64 64" version="1.1" xmlns="http://www.w3.org/2000/svg" xmlns:xlink="http://www.w3.org/1999/xlink">
    <title>year</title>
    <g id="year" stroke="none" stroke-width="1" fill="none" fill-rule="evenodd">
        <path d="M60,4 L60,60 L4,60 L4,4 L60,4 Z M19,47.829 L10.828,56 L27.171,56 L19,47.829 Z M45,47.829 L36.828,56 L53.171,56 L45,47.829 Z M56,36.828 L47.829,45 L56,53.171 L56,36.828 Z M30,36.828 L21.829,45 L30,53.171 L30,36.828 Z M8,36.829 L8,53.17 L16.171,45 L8,36.829 Z M34,36.829 L34,53.169 L42.17,44.999 L34,36.829 Z M27.17,34 L10.829,34 L19,42.171 L27.17,34 Z M53.169,34 L36.829,34 L44.999,42.17 L53.169,34 Z M45,21.829 L36.828,30 L53.171,30 L45,21.829 Z M18.999,21.828 L10.827,30 L27.171,30 L18.999,21.828 Z M30,10.827 L21.828,18.999 L30,27.171 L30,10.827 Z M56,10.828 L47.829,19 L56,27.171 L56,10.828 Z M34,10.829 L34,27.17 L42.171,19 L34,10.829 Z M8,10.829 L8,27.17 L16.171,19 L8,10.829 Z M27.17,8 L10.829,8 L19,16.171 L27.17,8 Z M53.17,8 L36.829,8 L45,16.171 L53.17,8 Z" id="Rectangle" fill="#000000" fill-rule="nonzero"></path>
    </g>
</svg>