<?xml version="1.0" encoding="UTF-8"?>
<svg width="64px" height="64px" viewBox="0 0 64 64" version="1.1" xmlns="http://www.w3.org/2000/svg" xmlns:xlink="http://www.w3.org/1999/xlink">
    <title>yield</title>
    <g id="yield" stroke="none" stroke-width="1" fill="none" fill-rule="evenodd">
        <path d="M28,4 C32.057925,4 35.8335851,5.00704836 38.9866962,6.86476787 C37.5265318,7.54285505 36.2684921,8.39304491 35.2067377,9.40875207 C33.0807954,8.49414514 30.6478757,8 28,8 C18.6638298,8 12,14.1432314 12,23.2307692 C12,27.2534389 14.3274034,33.1169685 19.0076788,40.6706526 L19.9128093,42.1067381 L20.8731226,43.5822158 C21.0377755,43.8313992 21.2047292,44.0822147 21.3739845,44.3346577 L22.4171419,45.8688099 C22.5956067,46.1277447 22.7763747,46.3882979 22.9594467,46.6504649 L24.0855321,48.2427947 L25.2669495,49.8736338 L26.5037361,51.5427612 L28,53.516 L29.49734,51.5413245 L30.7351085,49.8708253 L31.9174134,48.2386801 L33.0442923,46.6451102 C33.2274887,46.3827421 33.4083772,46.1219906 33.5869586,45.8628602 L34.3255465,44.7768888 C35.4112577,45.6126314 36.5574714,46.3002966 37.762358,46.8423992 L37.4214876,47.3477432 L37.4214876,47.3477432 L36.3371901,48.9209917 L35.2,50.5292308 L34.0099174,52.1724603 L32.7669421,53.8506802 L31.4710744,55.5638907 L30.122314,57.3120915 L28.7206612,59.0952829 C28.4826446,59.3953973 28.2424242,59.6969697 28,60 L26.5719008,58.1993134 C26.338292,57.9021149 26.1068871,57.6063742 25.877686,57.3120915 L24.5289256,55.5638907 L23.2330579,53.8506802 L21.9900826,52.1724603 C21.7873278,51.8956728 21.5867769,51.6203433 21.3884298,51.3464717 L20.2247934,49.7207374 C20.0352617,49.4526976 19.8479339,49.1861157 19.6628099,48.9209917 L18.5785124,47.3477432 C15.5812672,42.9397754 13.2209366,38.9531511 11.4975207,35.3878703 L10.9157025,34.1470312 C8.97190083,29.8653274 8,26.2265734 8,23.2307692 C8,11.4615385 16.954305,4 28,4 Z" id="Oval" fill="#000000" fill-rule="nonzero"></path>
        <path d="M46,4 C47.1045695,4 48,4.8954305 48,6 L47.9999763,7.36710605 C48.8122726,7.44258097 49.6626138,7.57987896 50.551,7.779 C51.9816667,8.09966667 53.3876667,8.63 54.769,9.37 C56.1503333,10.11 57.3836667,11.1213333 58.469,12.404 C58.913,12.848 59.135,13.3536667 59.135,13.921 C59.135,14.4883333 58.8883333,14.994 58.395,15.438 C58.0003333,15.734 57.544,15.882 57.026,15.882 C56.508,15.882 56.0763333,15.6846667 55.731,15.29 C54.547,13.958 53.141,12.9466667 51.513,12.256 C50.3999304,11.7837886 49.2292085,11.4730036 48.0008343,11.3236449 L47.9998235,25.048 L48.035,25.058 C49.3505556,25.3868889 50.623287,25.7671667 51.8531944,26.1988333 L52.586,26.464 C54.0413333,27.0066667 55.324,27.685 56.434,28.499 C57.544,29.313 58.432,30.3366667 59.098,31.57 C59.764,32.8033333 60.097,34.3573333 60.097,36.232 C60.097,38.4026667 59.4926667,40.2773333 58.284,41.856 C57.0753333,43.4346667 55.4596667,44.6433333 53.437,45.482 C51.7748589,46.1711805 49.9628044,46.5771914 48.0008367,46.7000328 L48,48 C48,49.1045695 47.1045695,50 46,50 C44.8954305,50 44,49.1045695 44,48 L44.0006308,46.5583197 C42.2863659,46.3252076 40.609489,45.8677677 38.97,45.186 C36.4786667,44.15 34.271,42.4233333 32.347,40.006 C31.9523333,39.414 31.7673333,38.8343333 31.792,38.267 C31.8166667,37.6996667 32.125,37.2433333 32.717,36.898 C33.1116667,36.5526667 33.568,36.4046667 34.086,36.454 C34.604,36.5033333 35.085,36.75 35.529,37.194 C36.861,38.9206667 38.4766667,40.3143333 40.376,41.375 C41.4660115,41.9837077 42.6738211,42.4177493 43.9994287,42.6771248 L43.9988615,28.3453285 C43.2620799,28.1132537 42.5354594,27.8684776 41.819,27.611 C40.2403333,27.0436667 38.8466667,26.3283333 37.638,25.465 C36.4293333,24.6016667 35.455,23.5533333 34.715,22.32 C33.975,21.0866667 33.605,19.582 33.605,17.806 C33.605,15.734 34.1723333,13.9086667 35.307,12.33 C36.4416667,10.7513333 37.9833333,9.518 39.932,8.63 C41.1814308,8.06063912 42.537337,7.67380741 43.9997185,7.46950488 L44,6 C44,4.8954305 44.8954305,4 46,4 Z M48.0015605,29.4748697 L48.0001073,42.9360964 C49.0925088,42.8593717 50.1771397,42.6350063 51.254,42.263 C52.6106667,41.7943333 53.733,41.079 54.621,40.117 C55.509,39.155 55.953,37.934 55.953,36.454 C55.953,34.9246667 55.509,33.6913333 54.621,32.754 C53.733,31.8166667 52.586,31.0766667 51.18,30.534 C50.1654709,30.1424274 49.1059911,29.789384 48.0015605,29.4748697 Z M44.0002106,11.4281553 C43.3908668,11.5444086 42.7994633,11.7093568 42.226,11.923 C40.968,12.3916667 39.9196667,13.0946667 39.081,14.032 C38.2423333,14.9693333 37.823,16.2026667 37.823,17.732 C37.9216667,19.1626667 38.4273333,20.322 39.34,21.21 C40.2526667,22.098 41.4613333,22.838 42.966,23.43 C43.3010434,23.5618203 43.6452593,23.6911946 43.9986479,23.8181229 Z" id="large-dollar-copy" fill="#000000" fill-rule="nonzero"></path>
    </g>
</svg>