<?xml version="1.0" encoding="UTF-8"?>
<svg width="64px" height="64px" viewBox="0 0 64 64" version="1.1" xmlns="http://www.w3.org/2000/svg" xmlns:xlink="http://www.w3.org/1999/xlink">
    <title>zillow</title>
    <g id="zillow" stroke="none" fill="none" fill-rule="evenodd">
        <path d="M8,33 L8,24 L32,5 L56,24 L56,32 C50.3305256,33.077787 45.9971923,34.077787 43,35 C40.0028077,35.922213 35.6694744,37.5888797 30,40 C32.8740972,36.4592361 35.2074305,33.7925695 37,32 C38.7925695,30.2074305 41.4592361,27.8740972 45,25 L40,20 C33.959267,21.7248811 28.959267,23.3915478 25,25 C21.040733,26.6084522 15.3740663,29.2751189 8,33 Z" id="Path-2" fill="#000000"></path>
        <path d="M8,58 L56,58 L56,40 C46.8261262,42.6135135 40.1594595,44.6135135 36,46 C31.8405405,47.3864865 26.5072071,49.3864865 20,52 L16,46 C19.4200459,41.3741733 22.0867125,38.04084 24,36 C25.9132875,33.95916 28.2466208,31.95916 31,30 C25.0933574,32.1333229 20.7600241,33.7999895 18,35 C15.2399759,36.2000105 11.9066426,37.8666771 8,40 L8,58 Z" id="Path" fill="#000000"></path>
    </g>
</svg>