<?xml version="1.0" encoding="UTF-8"?>
<svg width="64px" height="64px" viewBox="0 0 64 64" version="1.1" xmlns="http://www.w3.org/2000/svg" xmlns:xlink="http://www.w3.org/1999/xlink">
    <title>zip_code</title>
    <g id="zip_code" stroke="none" stroke-width="1" fill="none" fill-rule="evenodd">
        <path d="M6,46 C4.8954305,46 4,45.1045695 4,44 L4,8 C4,6.93894384 4.82627103,6.07087363 5.8704756,6.00412685 C5.88122328,6.0035753 5.89224083,6.00294222 5.90326337,6.00240066 C5.9352454,6.00077366 5.96753235,6 6,6 L58.012663,6.0000471 C58.0239694,6.00012485 58.0352737,6.00029887 58.0465747,6.00056904 L58,6 C58.1067353,6 58.2115177,6.00836107 58.3137281,6.02446396 C58.3221744,6.02636352 58.3308644,6.02781125 58.3395456,6.02931674 C59.2825696,6.19015371 60,7.01129443 60,8 L60,44 C60,45.1045695 59.1045695,46 58,46 L6,46 Z M38.486,27.335 L35.8756476,29.56657 C33.7402609,31.3909354 30.6571981,31.4738611 28.4356591,29.8153471 L28.1243524,29.56657 L26.053,27.796 L11.849,42 L53.15,42 L38.486,27.335 Z M8,12.373 L8,40.15 L22.979,25.171 L8,12.373 Z M56,12.372 L41.559,24.71 L56,39.15 L56,12.372 Z M52.584,10 L11.415,10 L30.7081175,26.4834555 C31.386018,27.0626191 32.3504419,27.1152704 33.0804376,26.6414092 L33.2918825,26.4834555 L52.584,10 Z" id="Combined-Shape" fill="#000000" fill-rule="nonzero"></path>
        <circle id="Oval" fill="#000000" cx="56" cy="54" r="4"></circle>
        <circle id="Oval-Copy" fill="#000000" cx="44" cy="54" r="4"></circle>
        <circle id="Oval-Copy-2" fill="#000000" cx="32" cy="54" r="4"></circle>
        <circle id="Oval-Copy-3" fill="#000000" cx="20" cy="54" r="4"></circle>
        <circle id="Oval-Copy-4" fill="#000000" cx="8" cy="54" r="4"></circle>
    </g>
</svg>