<?xml version="1.0" encoding="UTF-8"?>
<svg width="64px" height="64px" viewBox="0 0 64 64" version="1.1" xmlns="http://www.w3.org/2000/svg" xmlns:xlink="http://www.w3.org/1999/xlink">
    <title>zone_adjacent</title>
    <g id="zone_adjacent" stroke="none" stroke-width="1" fill="none" fill-rule="evenodd">
        <path d="M33.0270278,5.99595176 L38.9148769,24.5065178 C39.0471353,24.9223195 39.4337184,25.2043664 39.8700467,25.2033994 L59.0818061,25.160824 C59.6340895,25.1596001 60.0827958,25.6063221 60.0840198,26.1586055 C60.0847275,26.4779441 59.9328766,26.7784168 59.6753517,26.9672516 L44.0842778,38.3996901 C43.7367718,38.6545052 43.5915805,39.1032751 43.7239728,39.5133525 L49.7040878,58.0364103 C49.8737675,58.5619835 49.5852589,59.1255974 49.0596857,59.2952772 C48.7527462,59.3943717 48.416855,59.3393361 48.1575894,59.1474692 L32.6689379,47.6852468 C32.3154913,47.4236822 31.8326569,47.4236822 31.4792103,47.6852468 L15.9905587,59.1474692 C15.5466176,59.4760034 14.9204026,59.3824476 14.5918684,58.9385065 C14.4000015,58.6792409 14.3449659,58.3433497 14.4440604,58.0364103 L20.4241753,39.5133525 C20.5565676,39.1032751 20.4113764,38.6545052 20.0638703,38.3996901 L4.47279643,26.9672516 C4.02741741,26.6406694 3.93111361,26.0148711 4.25769588,25.5694921 C4.44653071,25.3119672 4.74700337,25.1601164 5.06634203,25.160824 L24.2781014,25.2033994 C24.7144297,25.2043664 25.1010128,24.9223195 25.2332712,24.5065178 L31.1211204,5.99595176 C31.2885267,5.46964997 31.8508882,5.1787077 32.37719,5.34611401 C32.6864033,5.44446872 32.9286731,5.68673848 33.0270278,5.99595176 Z M36.2139677,29.2115115 L32.074,16.195 L32.074,42.2688256 L43.027,50.374 L38.8086817,37.3079842 L49.89,29.181 L36.2139677,29.2115115 Z" id="Combined-Shape-Copy-2-path" fill="#000000" fill-rule="nonzero"></path>
    </g>
</svg>