<?xml version="1.0" encoding="UTF-8"?>
<svg width="64px" height="64px" viewBox="0 0 64 64" version="1.1" xmlns="http://www.w3.org/2000/svg" xmlns:xlink="http://www.w3.org/1999/xlink">
    <title>zone_check</title>
    <g id="zone_check" stroke="none" stroke-width="1" fill="none" fill-rule="evenodd">
        <path d="M23,4 C33.4934102,4 42,12.5065898 42,23 C42,27.0998699 40.7014391,30.8964446 38.4931765,34.0008649 L42,34 C42.530433,34 43.0391408,34.2107137 43.4142136,34.5857864 L59.4142136,50.5857864 C60.1952621,51.366835 60.1952621,52.633165 59.4142136,53.4142136 L53.4142136,59.4142136 C52.633165,60.1952621 51.366835,60.1952621 50.5857864,59.4142136 L34.5857864,43.4142136 C34.2107137,43.0391408 34,42.530433 34,42 L34.0008649,38.4931765 C30.8964446,40.7014391 27.0998699,42 23,42 C12.5065898,42 4,33.4934102 4,23 C4,12.5065898 12.5065898,4 23,4 Z M41.17,38 L38.828,38 L38,38.828 L38,41.17 L52,55.17 L55.17,52 L41.17,38 Z M23,8 C14.7157288,8 8,14.7157288 8,23 C8,31.2842712 14.7157288,38 23,38 C31.2842712,38 38,31.2842712 38,23 C38,14.7157288 31.2842712,8 23,8 Z" id="Combined-Shape" fill="#000000" fill-rule="nonzero"></path>
        <path d="M28.2850141,14.9710085 C28.8533105,14.023848 30.081831,13.7167178 31.0289915,14.2850141 C31.9084977,14.8127179 32.236141,15.9096965 31.82345,16.8220652 L31.7149859,17.0289915 L22.7149859,32.0289915 C22.0873932,33.0749793 20.6948985,33.3069487 19.7651932,32.573764 L19.5857864,32.4142136 L13.5857864,26.4142136 C12.8047379,25.633165 12.8047379,24.366835 13.5857864,23.5857864 C14.3067544,22.8648185 15.4412165,22.8093594 16.2257989,23.4194092 L16.4142136,23.5857864 L20.602,27.772 L28.2850141,14.9710085 Z" id="Path-115" fill="#000000" fill-rule="nonzero"></path>
    </g>
</svg>