<?xml version="1.0" encoding="UTF-8"?>
<svg width="32px" height="32px" viewBox="0 0 32 32" version="1.1" xmlns="http://www.w3.org/2000/svg" xmlns:xlink="http://www.w3.org/1999/xlink">
    <title>zoom</title>
    <g id="zoom" stroke="none" stroke-width="1" fill="none" fill-rule="evenodd">
        <path d="M12,22 C6.4771525,22 2,17.5228475 2,12 C2,6.4771525 6.4771525,2 12,2 C17.5228475,2 22,6.4771525 22,12 C22,14.246582 21.259167,16.3201332 20.0084712,17.9896832 L20,18 L22,18 C22.2652165,18 22.5195704,18.1053568 22.7071068,18.2928932 L22.7071068,18.2928932 L29.7071068,25.2928932 C30.0976311,25.6834175 30.0976311,26.3165825 29.7071068,26.7071068 L29.7071068,26.7071068 L26.7071068,29.7071068 C26.3165825,30.0976311 25.6834175,30.0976311 25.2928932,29.7071068 L25.2928932,29.7071068 L18.2928932,22.7071068 C18.1053568,22.5195704 18,22.2652165 18,22 L18,22 L18,20 L18,20 L17.9896832,20.0084712 C16.3201332,21.259167 14.246582,22 12,22 Z M21.585,20 L20.414,20 L20,20.414 L20,21.585 L26,27.585 L27.585,26 L21.585,20 Z M12,4 C7.581722,4 4,7.581722 4,12 C4,16.418278 7.581722,20 12,20 C16.418278,20 20,16.418278 20,12 C20,7.581722 16.418278,4 12,4 Z" id="Combined-Shape" fill="#000000" fill-rule="nonzero"></path>
        <path d="M12,7 C12.5522847,7 13,7.44771525 13,8 L13,11 L16,11 C16.5522847,11 17,11.4477153 17,12 C17,12.5522847 16.5522847,13 16,13 L13,13 L13,16 C13,16.5522847 12.5522847,17 12,17 C11.4477153,17 11,16.5522847 11,16 L11,13 L8,13 C7.44771525,13 7,12.5522847 7,12 C7,11.4477153 7.44771525,11 8,11 L11,11 L11,8 C11,7.44771525 11.4477153,7 12,7 Z" id="Combined-Shape" fill="#000000"></path>
    </g>
</svg>