<?xml version="1.0" encoding="UTF-8"?>
<svg width="32px" height="32px" viewBox="0 0 32 32" version="1.1" xmlns="http://www.w3.org/2000/svg" xmlns:xlink="http://www.w3.org/1999/xlink">
    <title>icon-bug</title>
    <g id="icon-bug" stroke="none" stroke-width="1" fill="none" fill-rule="evenodd">
        <path d="M16,28 C21.6666667,28 23.6666667,24 22,16 C19,11.3333333 17,9 16,9 C15,9 13,11.3333333 10,16 C8.33333333,24 10.3333333,28 16,28 Z" id="Path-16" fill-opacity="0.25" fill="#000000" fill-rule="nonzero"></path>
        <path d="M22.5000296,3 C23.0128631,3 23.4285968,3.41573559 23.4285968,3.92857143 C23.4285968,4.44140727 23.0128631,4.85714286 22.5000296,4.85714286 C20.0118237,4.85714286 18.5169764,6.06768971 17.9711978,8.49041305 C19.2854314,9.03908206 20.1784933,10.1169954 20.1784933,11.3571429 C20.1784933,11.7402614 20.0932616,12.0021349 19.9367414,12.1770673 C20.480582,12.4542148 20.9511114,12.7988482 21.3549799,13.2024289 C22.7113225,12.3995063 23.4285968,10.5912695 23.4285968,7.64285714 C23.4285968,7.1300213 23.8443305,6.71428571 24.357164,6.71428571 C24.8699975,6.71428571 25.2857312,7.1300213 25.2857312,7.64285714 C25.2857312,11.0999054 24.362038,13.4996369 22.4422696,14.7162861 C22.7684724,15.3539 23.005383,16.0685316 23.1651737,16.8458817 C25.4316171,16.3095077 27.3239082,16.724988 28.728029,18.1291151 C29.090657,18.4917448 29.090657,19.0796837 28.728029,19.4423134 C28.3654009,19.8049431 27.7774647,19.8049431 27.4148366,19.4423134 C26.4358634,18.4633357 25.0833645,18.2174257 23.2194102,18.7499865 L23.399,18.701 L23.4120857,18.9408401 C23.4187006,19.0929938 23.423279,19.2467078 23.4258834,19.4019119 L23.4284785,19.7142857 C23.4284785,20.3587629 23.3634828,20.9952226 23.2420893,21.6145084 C23.2881624,21.6282699 23.3343534,21.6468465 23.379581,21.6694605 C25.5840577,22.7717038 26.678582,24.9607623 26.678582,28.0714286 C26.678582,28.5842644 26.2628483,29 25.7500148,29 C25.2371813,29 24.8214476,28.5842644 24.8214476,28.0714286 C24.8214476,25.6106662 24.0588375,24.0854391 22.5490453,23.3305395 L22.7148111,23.4180678 C21.4595029,26.6159299 18.7297219,29 15.9999409,29 C13.2701599,29 10.5403789,26.6159299 9.28507064,23.4180678 L9.45095471,23.3305395 C7.94116254,24.0854391 7.17855242,25.6106662 7.17855242,28.0714286 C7.17855242,28.5842644 6.76281872,29 6.24998522,29 C5.73715171,29 5.32141801,28.5842644 5.32141801,28.0714286 C5.32141801,24.9607623 6.41594231,22.7717038 8.62041895,21.6694605 C8.66564665,21.6468465 8.71183756,21.6282699 8.75858187,21.6135941 C8.6363989,20.9952226 8.57140323,20.3587629 8.57140323,19.7142857 C8.57140323,19.4523534 8.57677129,19.1944295 8.58779602,18.9408401 L8.6,18.701 L8.51777501,18.6791972 C6.78867307,18.242508 5.51751886,18.5099537 4.58516337,19.4423134 C4.22253532,19.8049431 3.63459909,19.8049431 3.27197104,19.4423134 C2.90934299,19.0796837 2.90934299,18.4917448 3.27197104,18.1291151 C4.67609181,16.724988 6.56838291,16.3095077 8.83507453,16.845224 C8.99449875,16.0685316 9.23140935,15.3539 9.55724479,14.7153262 C7.63796195,13.4996369 6.71426882,11.0999054 6.71426882,7.64285714 C6.71426882,7.1300213 7.13000252,6.71428571 7.64283602,6.71428571 C8.15566953,6.71428571 8.57140323,7.1300213 8.57140323,7.64285714 C8.57140323,10.5912695 9.28867746,12.3995063 10.644829,13.203784 C11.0487703,12.7988482 11.5192997,12.4542148 12.0629719,12.1758527 C11.9066202,12.0021349 11.8213884,11.7402614 11.8213884,11.3571429 C11.8213884,10.1169954 12.7144504,9.03908206 14.0276569,8.49122912 C13.4830236,6.06768971 11.9881763,4.85714286 9.49997043,4.85714286 C8.98713693,4.85714286 8.57140323,4.44140727 8.57140323,3.92857143 C8.57140323,3.41573559 8.98713693,3 9.49997043,3 C12.8996383,3 15.1135927,4.84387666 15.8458449,8.11012975 L15.9999409,8.10714286 L15.9999409,8.10714286 L16.1541551,8.11012975 C16.8864073,4.84387666 19.1003617,3 22.5000296,3 Z M10.4359567,19.1941349 L10.4293581,19.5383344 C10.4288105,19.5965562 10.4285376,19.6552063 10.4285376,19.7142857 C10.4285376,23.1136833 12.7074609,26.3092066 15.0715069,27.0038009 L15.0714639,13.2545336 C11.9006887,13.5450751 10.5464904,15.4184849 10.4359567,19.1941349 Z M16.9294091,13.2546245 L16.9283748,27.0038009 C19.2924208,26.3092066 21.5713441,23.1136833 21.5713441,19.7142857 L21.5705236,19.5383344 L21.5639251,19.1941349 C21.4534029,15.4188784 20.0994752,13.5454656 16.9294091,13.2546245 Z M15.9999409,9.96428571 C14.6302213,9.96428571 13.6785229,10.704499 13.6785229,11.3571429 C13.6785229,11.4341773 13.691782,11.5124318 13.7174228,11.590545 C14.3974805,11.4370914 15.1561091,11.3571429 15.9999409,11.3571429 C16.8433568,11.3571429 17.6016534,11.4370126 18.2812736,11.5894721 C18.3080997,11.5124318 18.3213589,11.4341773 18.3213589,11.3571429 C18.3213589,10.704499 17.3696604,9.96428571 15.9999409,9.96428571 Z" id="Oval" fill="#000000" fill-rule="nonzero"></path>
    </g>
</svg>