<?xml version="1.0" encoding="UTF-8"?>
<svg width="32px" height="32px" viewBox="0 0 32 32" version="1.1" xmlns="http://www.w3.org/2000/svg" xmlns:xlink="http://www.w3.org/1999/xlink">
    <title>icon-team</title>
    <g id="icon-team" stroke="none" stroke-width="1" fill="none" fill-rule="evenodd">
        <g id="Group-Copy" transform="translate(4, 5)" fill="#000000">
            <circle id="Oval-Copy" stroke="#000000" stroke-width="2" fill-opacity="0.25" cx="7.00004112" cy="4.5" r="3.5"></circle>
            <path d="M1.00004112,14.25 C3.00004112,14.75 5.00004112,15 7.00004112,15 C7.79055016,15 8.58105919,14.9609435 9.37156822,14.8828304 C8.6180865,13.3893458 9.03678991,10.2699366 9.3959303,8.6163484 C8.69721377,8.37211613 7.89858405,8.25 7.00004112,8.25 C3.36367749,8.25 1.36367749,10.25 1.00004112,14.25 Z" id="Path-43" fill-opacity="0.25"></path>
            <path d="M7.00004112,7.25 C7.61626791,7.25 8.19410829,7.30258467 8.73278139,7.40669508 C8.23793935,7.9284409 7.86790783,8.5676364 7.66792578,9.27806301 C7.53179395,9.26529233 7.39158322,9.25757998 7.24796238,9.25348451 L7.00004112,9.25 C4.23652862,9.25 2.67525295,10.5125176 2.14401665,13.2710693 L2.10604112,13.478 L2.5230484,13.5644488 C3.80315855,13.8134257 5.08224057,13.9555819 6.36080165,13.9911167 L7.00004112,14 C7.68674733,14 8.37357945,13.969245 9.06061611,13.9077041 C9.33135401,14.1412814 9.63120142,14.3439104 9.95355499,14.508801 C8.97073557,14.7814346 8.16816854,15.2769547 7.54618322,15.9931858 L7.00004112,16 C4.9176434,16 2.8362276,15.739823 0.757505497,15.2201425 C0.279284966,15.1005874 -0.0404806334,14.6503783 0.00414791606,14.1594643 C0.412929377,9.66286818 2.82579756,7.25 7.00004112,7.25 Z" id="Path-43" fill-rule="nonzero"></path>
        </g>
        <g id="Group-Copy-3" transform="translate(16.5, 5)" fill="#000000">
            <circle id="Oval-Copy" stroke="#000000" stroke-width="2" fill-opacity="0.25" cx="4.5" cy="4.5" r="3.5"></circle>
            <path d="M2.52209473,14.9184977 C3.18139648,14.9728326 3.84069824,15 4.5,15 C6.5,15 8.5,14.75 10.5,14.25 C10.1363636,10.25 8.13636364,8.25 4.5,8.25 C3.64518044,8.25 2.88078705,8.36052087 2.20681982,8.5815626 C2.20888817,9.50361308 2.6885856,12.6863093 2.52209473,14.9184977 Z" id="Path-43" fill-opacity="0.25"></path>
            <path d="M4.5,7.25 C8.67424356,7.25 11.0871117,9.66286818 11.4958932,14.1594643 C11.5405218,14.6503783 11.2207562,15.1005874 10.7425356,15.2201425 C8.66381352,15.739823 6.58239773,16 4.5,16 L3.95385791,15.9931858 C3.33186377,15.2769446 2.52928282,14.7814206 1.54611506,14.5066138 C1.8684511,14.344173 2.16851118,14.1414333 2.44020055,13.9067417 C2.91360679,13.9501689 3.38721939,13.9779557 3.86076053,13.9911167 L4.5,14 C5.212041,14 5.92421738,13.9669338 6.63661678,13.900767 C7.41643655,13.8283383 8.19652354,13.7162473 8.97699272,13.5644488 L9.393,13.478 L9.35602448,13.2710693 C8.99635209,11.4033978 8.1645161,10.2214991 6.80707424,9.65290019 C6.22032956,9.40712731 5.53538386,9.27593967 4.74792125,9.25348451 L4.5,9.25 C4.26851283,9.25 4.04546135,9.25885867 3.83074437,9.27671325 C3.63178878,8.56704137 3.26187212,7.92819827 2.76873096,7.40718667 C3.30593284,7.30258467 3.88377321,7.25 4.5,7.25 Z" id="Path-43" fill-rule="nonzero"></path>
        </g>
        <g id="Group-Copy-2" transform="translate(10, 11)" fill="#000000" fill-opacity="0.25" stroke="#000000" stroke-width="2">
            <circle id="Oval-Copy" cx="6" cy="4.5" r="3.5"></circle>
            <path d="M0,14.25 C2,14.75 4,15 6,15 C8,15 10,14.75 12,14.25 C11.6363636,10.25 9.63636364,8.25 6,8.25 C2.36363636,8.25 0.363636364,10.25 0,14.25 Z" id="Path-43" stroke-linejoin="round"></path>
        </g>
    </g>
</svg>