<?xml version="1.0" encoding="UTF-8"?>
<svg width="32px" height="32px" viewBox="0 0 32 32" version="1.1" xmlns="http://www.w3.org/2000/svg" xmlns:xlink="http://www.w3.org/1999/xlink">
    <title>icon-plus</title>
    <g id="icon-plus" stroke="none" stroke-width="1" fill="none" fill-rule="evenodd">
        <circle id="Oval" stroke="#000000" stroke-width="2" fill-opacity="0.25" fill="#000000" cx="16" cy="16" r="11"></circle>
        <path d="M16,10 C16.5522847,10 17,10.4477153 17,11 L17,15 L21,15 C21.5522847,15 22,15.4477153 22,16 C22,16.5522847 21.5522847,17 21,17 L17,17 L17,21 C17,21.5522847 16.5522847,22 16,22 C15.4477153,22 15,21.5522847 15,21 L15,17 L11,17 C10.4477153,17 10,16.5522847 10,16 C10,15.4477153 10.4477153,15 11,15 L15,15 L15,11 C15,10.4477153 15.4477153,10 16,10 Z" id="Combined-Shape" fill="#000000"></path>
    </g>
</svg>