<?xml version="1.0" encoding="UTF-8"?>
<svg width="32px" height="32px" viewBox="0 0 32 32" version="1.1" xmlns="http://www.w3.org/2000/svg" xmlns:xlink="http://www.w3.org/1999/xlink">
    <title>icon-issue</title>
    <g id="icon-issue" stroke="none" stroke-width="1" fill="none" fill-rule="evenodd">
        <polygon id="Path-13" fill-opacity="0.25" fill="#000000" fill-rule="nonzero" points="4.5 26.5 16 4.5 27.5 26.5"></polygon>
        <path d="M14.5875287,4.3657258 C14.0815391,4.64523879 13.6661977,5.06881683 13.39212,5.58484082 L3.85861406,23.5341946 C3.07837064,25.0032098 3.61357333,26.8391376 5.05402271,27.6348542 C5.48783628,27.8744965 5.97341148,28 6.4667784,28 L25.5337903,28 C27.1719827,28 28.5,26.6456465 28.5,24.9749669 C28.5,24.4718159 28.376937,23.9766112 28.1419547,23.5341946 L18.6084487,5.58484082 C17.8571032,4.17023359 16.1599291,3.61170647 14.7489891,4.28281231 L14.5875287,4.3657258 Z M16.8607511,6.52917363 L26.2985168,24.5088809 C26.3760576,24.6566025 26.4166667,24.8219499 26.4166667,24.9899505 C26.4166667,25.5477854 25.9784398,26 25.4378595,26 L6.56232817,26 C6.39952408,26 6.23929114,25.9580948 6.09613881,25.8780789 C5.62081092,25.6123915 5.44420162,24.9993807 5.70167089,24.5088809 L15.1394366,6.52917363 C15.2298783,6.35687476 15.3669351,6.21544331 15.5339045,6.12211476 C16.0092324,5.85642737 16.6032818,6.03867383 16.8607511,6.52917363 Z" id="Path-11" fill="#000000" fill-rule="nonzero"></path>
        <circle id="Oval" fill="#000000" cx="16" cy="23.5" r="1.5"></circle>
        <path d="M16.75,20 L17.3878151,11.495799 C17.4453003,10.7293299 16.8705552,10.0613829 16.1040861,10.0038978 C16.0694515,10.0013002 16.0347319,10 16,10 C15.2313782,10 14.6082872,10.6230911 14.6082872,11.3917128 C14.6082872,11.4264447 14.6095873,11.4611644 14.6121849,11.495799 L15.25,20 C15.281066,20.4142136 15.6420364,20.724816 16.05625,20.69375 C16.4272613,20.6659242 16.7221742,20.3710113 16.75,20 Z" id="Path-12" fill="#000000"></path>
    </g>
</svg>