<?xml version="1.0" encoding="UTF-8"?>
<svg width="32px" height="32px" viewBox="0 0 32 32" version="1.1" xmlns="http://www.w3.org/2000/svg" xmlns:xlink="http://www.w3.org/1999/xlink">
    <title>icon-data_pull</title>
    <g id="icon-data_pull" stroke="none" stroke-width="1" fill="none" fill-rule="evenodd">
        <polygon id="Path-24" fill-opacity="0.25" fill="#000000" fill-rule="nonzero" points="11 5 11 27 25 27 25 9 21 5"></polygon>
        <path d="M10.5050032,9.47716753 L10.5050032,17.5045665 L10.5050032,17.5045665 L8.89355504,17.5045665 C8.3412703,17.5045665 7.89355504,17.9522817 7.89355504,18.5045665 C7.89355504,18.7707942 7.99971454,19.0260321 8.1885144,19.2137334 L11.8177918,22.8218941 C12.2078388,23.2096715 12.8378262,23.2096715 13.2278731,22.8218941 L16.8571505,19.2137334 C17.2488126,18.8243502 17.25066,18.1911879 16.8612768,17.7995258 C16.6735755,17.610726 16.4183376,17.5045665 16.1521099,17.5045665 L14.5406618,17.5045665 L14.5406618,17.5045665 L14.5406618,9.47716753 C14.5406618,8.92488278 14.0929465,8.47716753 13.5406618,8.47716753 L11.5050032,8.47716753 C10.9527184,8.47716753 10.5050032,8.92488278 10.5050032,9.47716753 Z" id="Path-5" fill="#000000" transform="translate(12.522832, 16.000000) rotate(-90.000000) translate(-12.522832, -16.000000) "></path>
        <path d="M21,4 C21.2652165,4 21.5195704,4.10535684 21.7071068,4.29289322 L21.7071068,4.29289322 L25.7071068,8.29289322 C25.8946432,8.4804296 26,8.73478351 26,9 L26,9 L26,27 C26,27.5522847 25.5522847,28 25,28 L25,28 L11,28 C10.4477153,28 10,27.5522847 10,27 L10,27 L10,5 C10,4.44771525 10.4477153,4 11,4 L11,4 Z M19.5,6 L12,6 L12,26 L24,26 L24,10.5 L20.5,10.5 C19.9477153,10.5 19.5,10.0522847 19.5,9.5 L19.5,6 Z M23.085,8.5 L21.5,6.915 L21.5,8.5 L23.085,8.5 Z" id="Path-22" fill="#000000"></path>
    </g>
</svg>