<?xml version="1.0" encoding="UTF-8"?>
<svg width="32px" height="32px" viewBox="0 0 32 32" version="1.1" xmlns="http://www.w3.org/2000/svg" xmlns:xlink="http://www.w3.org/1999/xlink">
    <title>icon-public</title>
    <g id="icon-public" stroke="none" fill="none">
        <path d="M16,7 C10.5081428,7 6.49336349,9.91843576 4.07387582,15.6344754 C3.97537473,15.8671842 3.97537473,16.1328158 4.07387582,16.3655246 C6.49336349,22.0815642 10.5081428,25 16,25 C21.4918572,25 25.5066365,22.0815642 27.9261242,16.3655246 C28.0246253,16.1328158 28.0246253,15.8671842 27.9261242,15.6344754 C25.5066365,9.91843576 21.4918572,7 16,7 Z M16.2923884,9.00314252 C20.6455196,9.09743374 23.8116583,11.3143533 25.8862957,15.7506979 L26,15.999125 L25.8862957,16.2493021 C23.7655552,20.7842322 20.5042633,23 16.0004202,23 L15.7084519,22.9968575 C11.3553207,22.9025663 8.18918201,20.6856467 6.11454454,16.2493021 L6,16 L6.11454454,15.7506979 C8.23528507,11.2157678 11.496577,9 16.0004202,9 L16.2923884,9.00314252 Z" id="Path-68" fill="#000000" fill-rule="nonzero"></path>
        <path d="M16.2923884,9.00314252 C20.6455196,9.09743374 23.8116583,11.3143533 25.8862957,15.7506979 L26,15.999125 L25.8862957,16.2493021 C23.7655552,20.7842322 20.5042633,23 16.0004202,23 L15.7084519,22.9968575 C11.3553207,22.9025663 8.18918201,20.6856467 6.11454454,16.2493021 L6,16 L6.11454454,15.7506979 C8.23528507,11.2157678 11.496577,9 16.0004202,9 L16.2923884,9.00314252 Z" id="Path-68-path-Copy-3" fill-opacity="0.25" fill="#000000" fill-rule="nonzero"></path>
        <circle id="Oval-2-Copy" fill="#000000" fill-rule="evenodd" cx="16" cy="16" r="4"></circle>
    </g>
</svg>