<?xml version="1.0" encoding="UTF-8"?>
<svg width="32px" height="32px" viewBox="0 0 32 32" version="1.1" xmlns="http://www.w3.org/2000/svg" xmlns:xlink="http://www.w3.org/1999/xlink">
    <title>icon-level_on_ramp</title>
    <g id="icon-level_on_ramp" stroke="none" stroke-width="1" fill="none" fill-rule="evenodd">
        <circle id="Oval" stroke="#000000" stroke-width="2" fill-opacity="0.25" fill="#000000" cx="16" cy="16" r="11"></circle>
        <path d="M15.2773501,7.48536267 C15.3322762,7.5219801 15.3794077,7.56911158 15.4160251,7.62403772 L18.4817666,12.2226499 C18.6349428,12.4524142 18.5728559,12.7628489 18.3430916,12.9160251 C18.2609578,12.970781 18.1644539,13 18.0657415,13 L16,13 C16,18.1886336 17.8240799,20.7142827 21.5766965,21.0029455 C22.1273545,21.0453038 22.5394128,21.5260385 22.4970545,22.0766965 C22.4546962,22.6273545 21.9739615,23.0394128 21.4233035,22.9970545 C19.05085,22.8145581 17.238921,21.9103464 15.9992712,20.3323576 L16,24 C16,24.5522847 15.5522847,25 15,25 C14.4477153,25 14,24.5522847 14,24 L14,13 L11.9342585,13 C11.6581162,13 11.4342585,12.7761424 11.4342585,12.5 C11.4342585,12.4012875 11.4634776,12.3047837 11.5182334,12.2226499 L14.5839749,7.62403772 C14.7371511,7.39427338 15.0475858,7.33218644 15.2773501,7.48536267 Z" id="Path-55" fill="#000000"></path>
    </g>
</svg>