<?xml version="1.0" encoding="UTF-8"?>
<svg width="32px" height="32px" viewBox="0 0 32 32" version="1.1" xmlns="http://www.w3.org/2000/svg" xmlns:xlink="http://www.w3.org/1999/xlink">
    <title>icon-support</title>
    <g id="icon-support" stroke="none" stroke-width="1" fill="none" fill-rule="evenodd">
        <path d="M20,5 L27,12 L27,20 L20,27 L12,27 L5,20 L5,12 L12,5 L20,5 Z M20,11 L12,11 L11,13 L11,19 L12,21 L20,21 L21,19 L21,13 L20,11 Z" id="Path-19" fill-opacity="0.25" fill="#000000" fill-rule="nonzero"></path>
        <polygon id="Path-42" fill-opacity="0.25" fill="#000000" fill-rule="nonzero" points="11.5 5 20.5 5 18 11 14 11"></polygon>
        <polygon id="Path-42-Copy" fill-opacity="0.25" fill="#000000" fill-rule="nonzero" transform="translate(16.000000, 24.000000) scale(1, -1) translate(-16.000000, -24.000000) " points="11.5 21 20.5 21 18 27 14 27"></polygon>
        <g id="Group" transform="translate(16.000000, 16.000000) rotate(90.000000) translate(-16.000000, -16.000000) translate(11.500000, 5.000000)" fill="#000000" fill-opacity="0.25" fill-rule="nonzero">
            <polygon id="Path-42-Copy-3" points="-6.17006446e-14 -3.16413562e-15 9 0 6.5 6 2.5 6"></polygon>
            <polygon id="Path-42-Copy-2" transform="translate(4.500000, 19.000000) scale(1, -1) translate(-4.500000, -19.000000) " points="-6.17006446e-14 16 9 16 6.5 22 2.5 22"></polygon>
        </g>
        <path d="M16,4 C17.8451918,4 19.3966953,4.15515036 20.6600317,4.47098444 C21.1779858,4.60047297 21.4657421,5.15411741 21.274085,5.65242585 L21.274085,5.65242585 L21.2539407,5.70516403 C23.4184833,6.81204433 25.1879557,8.5815167 26.294836,10.7460593 L26.3475742,10.725915 C26.8458826,10.5342579 27.399527,10.8220142 27.5290156,11.3399683 C27.8448496,12.6033047 28,14.1548082 28,16 C28,17.8451918 27.8448496,19.3966953 27.5290156,20.6600317 C27.399527,21.1779858 26.8458826,21.4657421 26.3475742,21.274085 L26.3475742,21.274085 L26.294836,21.2539407 C25.1879557,23.4184833 23.4184833,25.1879557 21.2539407,26.294836 L21.274085,26.3475742 C21.4657421,26.8458826 21.1779858,27.399527 20.6600317,27.5290156 C19.3966953,27.8448496 17.8451918,28 16,28 C14.1548082,28 12.6033047,27.8448496 11.3399683,27.5290156 C10.8220142,27.399527 10.5342579,26.8458826 10.725915,26.3475742 L10.7460593,26.294836 C8.5815167,25.1879557 6.81204433,23.4184833 5.70516403,21.2539407 L5.65242585,21.274085 C5.15411741,21.4657421 4.60047297,21.1779858 4.47098444,20.6600317 C4.15515036,19.3966953 4,17.8451918 4,16 C4,14.1548082 4.15515036,12.6033047 4.47098444,11.3399683 C4.60047297,10.8220142 5.15411741,10.5342579 5.65242585,10.725915 L5.70516403,10.7460593 C6.81204433,8.5815167 8.5815167,6.81204433 10.7460593,5.70516403 L10.725915,5.65242585 C10.5342579,5.15411741 10.8220142,4.60047297 11.3399683,4.47098444 C12.6033047,4.15515036 14.1548082,4 16,4 Z M17.6115556,21.7777778 L14.3875556,21.7777778 L12.7626667,26.0026667 L12.8793235,26.0211088 C13.7750658,26.1545724 14.815902,26.2222222 16,26.2222222 L16.3893908,26.2197192 C17.4136037,26.2063764 18.3244611,26.1397431 19.1206765,26.0211088 L19.2364444,26.0026667 L17.6115556,21.7777778 Z M9.89210705,19.6437656 L7.3761174,20.6120572 C8.28753072,22.3127054 9.68729463,23.7124693 11.3879428,24.6238826 L12.3562344,22.1078929 C11.3450936,21.5033804 10.4966196,20.6549064 9.89210705,19.6437656 Z M19.6437656,22.1078929 L20.6120572,24.6238826 C22.3127054,23.7124693 23.7124693,22.3127054 24.6238826,20.6120572 L22.1078929,19.6437656 C21.5033804,20.6549064 20.6549064,21.5033804 19.6437656,22.1078929 Z M18.9789474,11.5755112 L18.9362946,11.640555 C18.7713724,11.8629727 18.5082866,12 18.2222222,12 L18.2222222,12 L13.7777778,12 C13.4651502,12 13.179967,11.8363432 13.0203623,11.5764283 C12.4513307,11.9598516 11.9598516,12.4513307 11.5755112,13.0210526 C11.8363432,13.179967 12,13.4651502 12,13.7777778 L12,18.2222222 C12,18.5348498 11.8363432,18.820033 11.5764283,18.9796377 C11.9598516,19.5486693 12.4513307,20.0401484 13.0210526,20.4244888 C13.179967,20.1636568 13.4651502,20 13.7777778,20 L18.2222222,20 C18.5348498,20 18.820033,20.1636568 18.9796377,20.4235717 C19.5486693,20.0401484 20.0401484,19.5486693 20.4244888,18.9789474 C20.1636568,18.820033 20,18.5348498 20,18.2222222 L20,18.2222222 L20,13.7777778 C20,13.4651502 20.1636568,13.179967 20.4235717,13.0203623 C20.0401484,12.4513307 19.5486693,11.9598516 18.9789474,11.5755112 Z M26.0026667,12.7626667 L21.7777778,14.3875556 L21.7777778,17.6115556 L26.0026667,19.2364444 L26.0211088,19.1206765 C26.1397431,18.3244611 26.2063764,17.4136037 26.2197192,16.3893908 L26.2197192,16.3893908 L26.2222222,16 C26.2222222,14.815902 26.1545724,13.7750658 26.0211088,12.8793235 L26.0211088,12.8793235 L26.0026667,12.7626667 Z M5.99733333,12.7626667 L5.9788912,12.8793235 C5.84542761,13.7750658 5.77777778,14.815902 5.77777778,16 L5.78028081,16.3893908 C5.79362359,17.4136037 5.8602569,18.3244611 5.9788912,19.1206765 L5.99733333,19.2364444 L10.2222222,17.6115556 L10.2222222,14.3875556 L5.99733333,12.7626667 Z M7.3761174,11.3879428 L9.89210705,12.3562344 C10.4966196,11.3450936 11.3450936,10.4966196 12.3562344,9.89210705 L11.3879428,7.3761174 C9.68729463,8.28753072 8.28753072,9.68729463 7.3761174,11.3879428 Z M20.6120572,7.3761174 L19.6437656,9.89210705 C20.6549064,10.4966196 21.5033804,11.3450936 22.1078929,12.3562344 L24.6238826,11.3879428 C23.7124693,9.68729463 22.3127054,8.28753072 20.6120572,7.3761174 Z M16,5.77777778 C14.815902,5.77777778 13.7750658,5.84542761 12.8793235,5.9788912 L12.8793235,5.9788912 L12.7626667,5.99733333 L14.3875556,10.2222222 L17.6115556,10.2222222 L19.2364444,5.99733333 L19.1206765,5.9788912 C18.3244611,5.8602569 17.4136037,5.79362359 16.3893908,5.78028081 L16.3893908,5.78028081 Z" id="Oval" fill="#000000"></path>
    </g>
</svg>