<?xml version="1.0" encoding="UTF-8"?>
<svg width="32px" height="32px" viewBox="0 0 32 32" version="1.1" xmlns="http://www.w3.org/2000/svg" xmlns:xlink="http://www.w3.org/1999/xlink">
    <title>icon-level_parking</title>
    <g id="icon-level_parking" stroke="none" stroke-width="1" fill="none" fill-rule="evenodd">
        <rect id="Rectangle" stroke="#000000" stroke-width="2" fill-opacity="0.25" fill="#000000" stroke-linejoin="round" x="5" y="5" width="22" height="22" rx="2"></rect>
        <g id="P" transform="translate(10.000000, 8.000000)" fill="#000000" fill-rule="nonzero">
            <path d="M0,16 L0,0 L5.07569012,0 C6.99910953,0 8.25289403,0.0800363802 8.83704363,0.240109141 C9.73463936,0.480218281 10.4861977,1.00227376 11.0917186,1.80627558 C11.6972395,2.6102774 12,3.64893133 12,4.92223738 C12,5.90450205 11.8254675,6.73033197 11.4764025,7.39972715 C11.1273375,8.06912233 10.6838825,8.59481583 10.1460374,8.97680764 C9.60819234,9.35879945 9.06144256,9.61164166 8.50578807,9.73533424 C7.75066785,9.88813097 6.6571683,9.96452933 5.2252894,9.96452933 L3.16295637,9.96452933 L3.16295637,16 L0,16 Z M3.16295637,2.70668486 L3.16295637,7.24693042 L4.89403384,7.24693042 C6.14069457,7.24693042 6.97417631,7.16325603 7.39447907,6.99590723 C7.81478183,6.82855844 8.14425646,6.56662119 8.38290294,6.2100955 C8.62154942,5.8535698 8.74087266,5.43883583 8.74087266,4.96589359 C8.74087266,4.38381082 8.57346394,3.90359254 8.23864648,3.52523874 C7.90382903,3.14688495 7.47996438,2.91041382 6.96705254,2.81582538 C6.58949243,2.74306503 5.83081033,2.70668486 4.69100623,2.70668486 L3.16295637,2.70668486 Z" id="Shape"></path>
        </g>
    </g>
</svg>