<?xml version="1.0" encoding="UTF-8"?>
<svg width="32px" height="32px" viewBox="0 0 32 32" version="1.1" xmlns="http://www.w3.org/2000/svg" xmlns:xlink="http://www.w3.org/1999/xlink">
    <title>icon-assign</title>
    <g id="icon-assign" stroke="none" stroke-width="1" fill="none" fill-rule="evenodd">
        <circle id="Oval" stroke="#000000" stroke-width="2" fill-opacity="0.25" fill="#000000" cx="17" cy="17" r="10"></circle>
        <path d="M10.4601551,3.25304833 L10.4601551,16.6672619 L10.4601551,16.6672619 L8.87436867,16.6672619 C8.32208392,16.6672619 7.87436867,17.1149771 7.87436867,17.6672619 C7.87436867,17.9324784 7.97972551,18.1868323 8.16726189,18.3743687 L11.7530483,21.9601551 C12.1435726,22.3506794 12.7767376,22.3506794 13.1672619,21.9601551 L16.7530483,18.3743687 C17.1435726,17.9838444 17.1435726,17.3506794 16.7530483,16.9601551 C16.5655119,16.7726187 16.311158,16.6672619 16.0459415,16.6672619 L14.4601551,16.6672619 L14.4601551,16.6672619 L14.4601551,3.25304833 C14.4601551,2.70076358 14.0124399,2.25304833 13.4601551,2.25304833 L11.4601551,2.25304833 C10.9078704,2.25304833 10.4601551,2.70076358 10.4601551,3.25304833 Z" id="Path-5" fill="#000000" transform="translate(12.460155, 12.460155) rotate(-45.000000) translate(-12.460155, -12.460155) "></path>
    </g>
</svg>