<?xml version="1.0" encoding="UTF-8"?>
<svg width="32px" height="32px" viewBox="0 0 32 32" version="1.1" xmlns="http://www.w3.org/2000/svg" xmlns:xlink="http://www.w3.org/1999/xlink">
    <title>icon-lane_asap</title>
    <g id="icon-lane_asap" stroke="none" stroke-width="1" fill="none" fill-rule="evenodd">
        <circle id="Oval" fill-opacity="0.25" fill="#000000" fill-rule="nonzero" cx="16" cy="16" r="11"></circle>
        <path d="M16,4 C22.627417,4 28,9.372583 28,16 C28,22.627417 22.627417,28 16,28 C9.372583,28 4,22.627417 4,16 C4,9.372583 9.372583,4 16,4 Z M17.0010997,6.04948449 L17,7 C17,7.55228475 16.5522847,8 16,8 C15.4477153,8 15,7.55228475 15,7 L14.9998991,6.04938526 C13.9014292,6.1584592 12.8552519,6.44528802 11.8905389,6.8807001 L12.3660254,7.70577137 C12.6421678,8.18406399 12.4782926,8.79565439 12,9.07179677 C11.5217074,9.34793914 10.910117,9.18406399 10.6339746,8.70577137 L10.1577286,7.88318287 C9.28282824,8.51402044 8.51402044,9.28282824 7.88318287,10.1577286 L8.70577137,10.6339746 C9.18406399,10.910117 9.34793914,11.5217074 9.07179677,12 C8.79565439,12.4782926 8.18406399,12.6421678 7.70577137,12.3660254 L6.8807001,11.8905389 C6.44528802,12.8552519 6.1584592,13.9014292 6.04938526,14.9998991 L7,15 C7.55228475,15 8,15.4477153 8,16 C8,16.5522847 7.55228475,17 7,17 L6.04948449,17.0010997 C6.15863309,18.099205 6.44541999,19.1450405 6.8807001,20.1094611 L7.70577137,19.6339746 C8.18406399,19.3578322 8.79565439,19.5217074 9.07179677,20 C9.34793914,20.4782926 9.18406399,21.089883 8.70577137,21.3660254 L7.88318287,21.8422714 C8.51402044,22.7171718 9.28282824,23.4859796 10.1577286,24.1168171 L10.6339746,23.2942286 C10.910117,22.815936 11.5217074,22.6520609 12,22.9282032 C12.4782926,23.2043456 12.6421678,23.815936 12.3660254,24.2942286 L11.8905389,25.1192999 C12.8552519,25.554712 13.9014292,25.8415408 14.9998991,25.9506147 L15,25 C15,24.4477153 15.4477153,24 16,24 C16.5522847,24 17,24.4477153 17,25 L17.0010997,25.9505155 C18.099205,25.8413669 19.1450405,25.55458 20.1094611,25.1192999 L19.6339746,24.2942286 C19.3578322,23.815936 19.5217074,23.2043456 20,22.9282032 C20.4782926,22.6520609 21.089883,22.815936 21.3660254,23.2942286 L21.8422714,24.1168171 C22.7171718,23.4859796 23.4859796,22.7171718 24.1168171,21.8422714 L23.2942286,21.3660254 C22.815936,21.089883 22.6520609,20.4782926 22.9282032,20 C23.2043456,19.5217074 23.815936,19.3578322 24.2942286,19.6339746 L25.1192999,20.1094611 C25.55458,19.1450405 25.8413669,18.099205 25.9505155,17.0010997 L25,17 C24.4477153,17 24,16.5522847 24,16 C24,15.4477153 24.4477153,15 25,15 L25.9506147,14.9998991 C25.8415408,13.9014292 25.554712,12.8552519 25.1192999,11.8905389 L24.2942286,12.3660254 C23.815936,12.6421678 23.2043456,12.4782926 22.9282032,12 C22.6520609,11.5217074 22.815936,10.910117 23.2942286,10.6339746 L24.1168171,10.1577286 C23.4859796,9.28282824 22.7171718,8.51402044 21.8422714,7.88318287 L21.3660254,8.70577137 C21.089883,9.18406399 20.4782926,9.34793914 20,9.07179677 C19.5217074,8.79565439 19.3578322,8.18406399 19.6339746,7.70577137 L20.1094611,6.8807001 C19.1450405,6.44541999 18.099205,6.15863309 17.0010997,6.04948449 Z" id="Combined-Shape" fill="#000000" fill-rule="nonzero"></path>
        <polygon id="Path-10" fill="#000000" points="17 9.5 13 16.5 15 16.5 15 22.5 19 15.5 17 15.5"></polygon>
    </g>
</svg>