<?xml version="1.0" encoding="UTF-8"?>
<svg width="32px" height="32px" viewBox="0 0 32 32" version="1.1" xmlns="http://www.w3.org/2000/svg" xmlns:xlink="http://www.w3.org/1999/xlink">
    <title>icon-settings</title>
    <g id="icon-settings" stroke="none" stroke-width="1" fill="none" fill-rule="evenodd">
        <path d="M17.6465273,4.83831162 C17.8677317,5.64296016 17.9558704,6.21313716 17.9681526,6.74067089 C18.9265925,7.21062116 19.7982953,7.55217024 20.6107294,8.02361203 C21.5947424,7.62164729 21.8662765,7.47736352 22.2680039,7.21863669 L22.3563882,7.16130793 L23.7740609,8.10229961 L25.0175126,9.34447936 C24.6131986,10.0403964 24.2837429,10.4868275 23.9374869,10.8498457 C24.2854797,11.8658358 24.6604324,12.7225461 24.9019023,13.6271023 C25.9731949,14.0454863 26.2411428,14.1392964 26.7404381,14.2479829 L26.851348,14.2716243 L27.149931,17.6463232 C26.4215251,17.8531646 25.8784664,17.9458639 25.3756459,17.9685518 C24.7925138,18.9299041 24.4517808,19.8013584 23.9795641,20.6114728 C24.4039319,21.6176396 24.5372207,21.8837368 24.8157188,22.3143558 L24.8777786,22.4094791 L22.7327138,25.0601882 C22.002007,24.6428701 21.5365405,24.3027748 21.1564822,23.9401321 C20.1497322,24.2871399 19.2939068,24.6624484 18.3842216,24.9042719 C17.9744979,25.9184736 17.8799125,26.1992454 17.7719853,26.7015527 L17.7485342,26.8129289 L14.3538893,27.1633197 C14.1348164,26.3430498 14.0475024,25.7771621 14.0350444,25.2590873 C13.0695958,24.7899359 12.2013632,24.4512292 11.3914949,23.9815786 C10.4085667,24.388502 10.1375325,24.5313194 9.73679035,24.7885293 L9.64862499,24.8455346 L8.22204205,23.9059443 L6.98916942,22.668568 C7.31087594,22.0704404 7.64663091,21.5953072 8.01538518,21.2025991 C7.71381551,20.1451534 7.3384815,19.2891447 7.09666948,18.3834222 C6.03539062,17.9641625 5.76258953,17.8692362 5.2651245,17.7599625 L5.1547169,17.7362037 L4.84530694,14.3569895 C5.60817161,14.1483529 6.16090183,14.058011 6.66458369,14.0397241 C7.21150841,13.0697417 7.55115723,12.1982391 8.01997518,11.3897457 C7.58894717,10.3826357 7.45804236,10.1173428 7.17999142,9.68620399 L7.11799384,9.59094788 L9.27236456,6.94022598 C10.0057978,7.36093648 10.4681795,7.69959466 10.8467511,8.06111062 C11.8576078,7.71391361 12.7139687,7.33872185 13.6200748,7.09700236 C14.0286897,6.08271804 14.1232038,5.80194932 14.23113,5.2996202 L14.2545817,5.18823896 L17.6465273,4.83831162 Z M16,11 C13.2385763,11 11,13.2385763 11,16 C11,18.7614237 13.2385763,21 16,21 C18.7614237,21 21,18.7614237 21,16 C21,13.2385763 18.7614237,11 16,11 Z" id="Path-2" fill-opacity="0.25" fill="#000000" fill-rule="nonzero"></path>
        <g id="Group" transform="translate(4.000000, 4.001206)" fill="#000000">
            <path d="M13.5589376,0 L10.4441703,0 C9.98422367,0 9.57885773,0.298169138 9.44786397,0.743370197 L9.35758061,1.05796043 C9.27443882,1.37344648 9.21277072,1.69136636 9.17301741,2.00943715 L9.14525464,2.28074251 L9.03617836,2.31205251 C8.41652666,2.50122355 7.81874232,2.74865654 7.2479281,3.05259223 L7.15078345,3.1061296 L6.9405954,2.93548662 C6.60162368,2.67250594 6.23260818,2.4358042 5.83647478,2.2275505 C5.42126843,2.01982843 4.93515989,2.09345185 4.61641442,2.41207015 L2.41317461,4.61443091 C2.09428803,4.93319025 2.02056904,5.41954145 2.22049881,5.81924144 L2.38310421,6.11492369 C2.55087703,6.40492463 2.73410842,6.6778653 2.93240492,6.93359867 L3.1069867,7.14821215 L3.0535112,7.24575359 C2.74923209,7.81699626 2.5017554,8.41522103 2.31264147,9.03601064 L2.28074251,9.14696884 L2.26368071,9.14813476 C1.76297429,9.19355706 1.25144905,9.29522056 0.737535644,9.45044179 C0.29679673,9.57999482 0,9.99078018 0,10.444924 L0,13.5538698 C0,14.013945 0.29837104,14.4192618 0.743599022,14.550159 L1.04515884,14.6373393 C1.34781802,14.718073 1.6534401,14.7793824 1.95900867,14.8205084 L2.28159961,14.8552534 L2.31301443,14.9661554 C2.50227519,15.5856078 2.74982419,16.1831964 3.05390012,16.7538196 L3.1069867,16.8488674 L2.94289488,17.0512074 C2.68022651,17.3895236 2.44225894,17.7606765 2.22976031,18.1615703 C2.01894397,18.5566865 2.09180201,19.0373577 2.3894305,19.3596599 L3.5112453,20.4865716 L4.61767598,21.5879821 C4.93515989,21.905342 5.42126843,21.9789654 5.82082425,21.7792672 L6.11660439,21.6167374 C6.40670241,21.4490419 6.67973765,21.2658926 6.93556236,21.0676827 L7.15078345,20.8918071 L7.24915807,20.9471374 C7.82035704,21.2515334 8.4172031,21.4987031 9.03667496,21.6874555 L9.14611174,21.7180513 L9.17359078,21.9812096 C9.22699219,22.4047288 9.31950996,22.8327159 9.4499672,23.2624603 C9.57932143,23.7022006 9.99015283,23.9987938 10.4441703,23.9987938 L13.5589376,23.9987938 C14.0188843,23.9987938 14.4242502,23.7006247 14.555244,23.2554236 L14.6455273,22.9408334 C14.7286691,22.6253473 14.7903372,22.3074274 14.8300905,21.9893567 L14.8569676,21.7180513 L14.96902,21.6868301 C15.5905108,21.4975496 16.1887538,21.2499054 16.7586321,20.9456244 L16.8522958,20.8918071 L17.0637778,21.0639286 C17.4032575,21.3271135 17.772339,21.5638029 18.1664016,21.7711215 C18.5592777,21.9805864 19.0397067,21.9078232 19.3619819,21.6104572 L20.4860232,20.4878326 L21.5866118,19.3831018 C21.9042394,19.0656035 21.9779584,18.5792524 21.7780286,18.1795524 L21.6134125,17.8835725 C21.4440814,17.5934748 21.260627,17.3209997 21.0632414,17.0659325 L20.8900929,16.8522958 L20.9465403,16.7536531 C21.2527049,16.1816665 21.5012137,15.5832843 21.6891129,14.9649278 L21.7180513,14.8595389 L21.7343859,14.8593645 C22.2438143,14.8131561 22.7580979,14.7096004 23.2680559,14.5507638 C23.7017307,14.4233777 23.9985274,14.0125923 23.9985274,13.5584485 L23.9985274,10.4495027 C24.024421,10.0074032 23.7061601,9.58587579 23.2549284,9.45321353 L22.9537772,9.36675418 C22.652049,9.28681261 22.3487933,9.22646762 22.0458418,9.18610803 L21.7163371,9.15039724 L21.6857982,9.04268045 C21.4967947,8.42373107 21.2495289,7.82596603 20.9455906,7.2537832 L20.8892358,7.15335475 L21.0585155,6.94593716 C21.3212268,6.60730502 21.558902,6.23772762 21.7687671,5.84180226 C21.9779584,5.42412016 21.9042394,4.93776897 21.5853528,4.61900962 L20.4860232,3.5201186 L19.3879525,2.41790992 C19.0679481,2.09803056 18.5818395,2.02440714 18.1822837,2.22410534 L17.8862061,2.38864476 C17.5960115,2.55789774 17.323442,2.74127003 17.0682836,2.93856946 L16.85401,3.1121293 L16.7526882,3.05526492 C16.1803171,2.74982643 15.5823275,2.50119454 14.9642168,2.31180348 L14.8569676,2.28074251 L14.8296686,2.00934319 C14.7761943,1.58340147 14.6832793,1.15544409 14.5515547,0.731167544 C14.4237865,0.296593184 14.0129551,0 13.5589376,0 Z M12.8755525,1.92194976 C12.9471605,2.30560544 12.9736349,2.62364459 12.9691624,2.93435687 L12.9691624,2.93435687 L12.9567933,3.79367026 L13.7954863,3.98119779 C14.7186527,4.18761315 15.5944622,4.55193876 16.3994897,5.06402463 L16.3994897,5.06402463 L17.1221624,5.52372378 L17.7158855,4.91783272 C18.0432954,4.61001673 18.2496059,4.43954598 18.4447377,4.30126903 L18.4447377,4.30126903 L19.1379067,4.87908042 L19.7480388,5.48858838 C19.5221382,5.81921898 19.3157212,6.06429323 19.0938343,6.27943759 L19.0938343,6.27943759 L18.4766905,6.87782832 L18.9366734,7.60401954 C19.4468286,8.4094193 19.8087726,9.28487213 20.0165337,10.2133158 L20.0165337,10.2133158 L20.2014357,11.0396067 L21.1317738,11.0394154 C21.5472818,11.055961 21.7976786,11.0810692 22.0177022,11.1190435 L22.0177022,11.1190435 L22.0780503,12.8768464 C21.7241865,12.9445369 21.4216432,12.9729562 21.12599,12.9729562 L21.12599,12.9729562 L20.1977934,12.9729562 L20.0155772,13.8035306 C19.8140577,14.7220931 19.4510466,15.5954349 18.9392712,16.3952724 L18.9392712,16.3952724 L18.4762089,17.1189778 L19.084251,17.7143342 C19.389249,18.0384872 19.5594516,18.243883 19.6970759,18.4372895 L19.6970759,18.4372895 L18.5094403,19.7452278 C18.1851484,19.5232293 17.9413614,19.3175102 17.7253775,19.0950033 L17.7253775,19.0950033 L17.1244034,18.4758792 L16.3974438,18.9406526 C15.6033202,19.4483666 14.7294582,19.8096761 13.7964459,20.0173819 L13.7964459,20.0173819 L12.9568291,20.2042962 L12.9692146,21.0560238 C12.9571638,21.498381 12.9329608,21.7624693 12.893847,21.9950134 L12.893847,21.9950134 L11.1286891,22.0768267 C11.0564686,21.6876901 11.0295555,21.3716188 11.0339471,21.0643283 L11.0339471,21.0643283 L11.0462383,20.2042872 L10.2066621,20.0173819 C9.27690446,19.8104006 8.40620656,19.4498821 7.60361822,18.9393479 L7.60361822,18.9393479 L6.87726223,18.4773058 L6.28368092,19.0891243 C5.95827038,19.39745 5.75330382,19.5674979 5.55945577,19.7046725 L5.55945577,19.7046725 L4.85790637,19.1261262 L4.24713463,18.5131234 C4.45311767,18.2087853 4.66835357,17.950842 4.90091066,17.7275842 L4.90091066,17.7275842 L5.52562905,17.1278465 L5.06056208,16.3973185 C4.55180691,15.5981651 4.18988711,14.7236702 3.98199375,13.7946354 L3.98199375,13.7946354 L3.79709132,12.9683426 L2.88065109,12.9685421 C2.46077559,12.9514945 2.20758054,12.9256438 1.98504026,12.8867782 L1.98504026,12.8867782 L1.92033376,11.1295013 C2.27429861,11.0631995 2.57221935,11.0349951 2.85879583,11.0349951 L2.85879583,11.0349951 L3.79790699,11.0349951 L3.98220816,10.2077769 C4.18984305,9.27582748 4.55128854,8.40144294 5.06056208,7.60147525 L5.06056208,7.60147525 L5.5232258,6.87472233 L4.91069047,6.28091948 C4.60566637,5.95925101 4.43592785,5.75532738 4.29949292,5.563457 L4.29949292,5.563457 L5.49333207,4.25266058 C5.81858623,4.47562903 6.06152188,4.68098397 6.27761783,4.90367441 L6.27761783,4.90367441 L6.87718433,5.52153759 L7.60361822,5.05944592 C8.40316393,4.55084711 9.27810435,4.18903318 10.2076217,3.98119779 L10.2076217,3.98119779 L11.0462672,3.79368088 L11.0338933,2.94276998 C11.0459441,2.50041463 11.070147,2.2363267 11.1092605,2.00378333 L11.1092605,2.00378333 L12.8755525,1.92194976 Z" id="Path" fill-rule="nonzero"></path>
            <path d="M12,6 C15.3137085,6 18,8.6862915 18,12 C18,15.3137085 15.3137085,18 12,18 C8.6862915,18 6,15.3137085 6,12 C6,8.6862915 8.6862915,6 12,6 Z M12,8 C9.790861,8 8,9.790861 8,12 C8,14.209139 9.790861,16 12,16 C14.209139,16 16,14.209139 16,12 C16,9.790861 14.209139,8 12,8 Z" id="Oval"></path>
        </g>
    </g>
</svg>