<?xml version="1.0" encoding="UTF-8"?>
<svg width="32px" height="32px" viewBox="0 0 32 32" version="1.1" xmlns="http://www.w3.org/2000/svg" xmlns:xlink="http://www.w3.org/1999/xlink">
    <title>icon-dashboard</title>
    <g id="icon-dashboard" stroke="none" stroke-width="1" fill="none" fill-rule="evenodd">
        <path d="M25.1564892,24.0979038 C26.3210991,22.3526296 27,20.2555977 27,18 C27,11.9248678 22.0751322,7 16,7 C9.92486775,7 5,11.9248678 5,18 C5,20.2406268 5.66991878,22.3247857 6.82038568,24.063106" id="Path" stroke="#000000" stroke-width="2" fill-opacity="0.25" fill="#000000" stroke-linecap="round" stroke-linejoin="round"></path>
        <rect id="Rectangle" fill="#000000" x="7" y="23" width="18" height="2"></rect>
        <rect id="Rectangle" fill="#000000" x="15" y="7" width="2" height="3" rx="1"></rect>
        <rect id="Rectangle" fill="#000000" transform="translate(20.750000, 9.772759) rotate(30.000000) translate(-20.750000, -9.772759) " x="19.75" y="8.27275866" width="2" height="3" rx="1"></rect>
        <rect id="Rectangle" fill="#000000" transform="translate(24.227241, 13.250000) rotate(60.000000) translate(-24.227241, -13.250000) " x="23.2272413" y="11.75" width="2" height="3" rx="1"></rect>
        <rect id="Rectangle" fill="#000000" transform="translate(25.500000, 18.000000) rotate(90.000000) translate(-25.500000, -18.000000) " x="24.5" y="16.5" width="2" height="3" rx="1"></rect>
        <rect id="Rectangle" fill="#000000" transform="translate(24.227241, 22.750000) rotate(120.000000) translate(-24.227241, -22.750000) " x="23.2272413" y="21.25" width="2" height="3" rx="1"></rect>
        <rect id="Rectangle" fill="#000000" transform="translate(7.772759, 22.750000) rotate(240.000000) translate(-7.772759, -22.750000) " x="6.77275866" y="21.25" width="2" height="3" rx="1"></rect>
        <rect id="Rectangle" fill="#000000" transform="translate(6.500000, 18.000000) rotate(270.000000) translate(-6.500000, -18.000000) " x="5.5" y="16.5" width="2" height="3" rx="1"></rect>
        <rect id="Rectangle" fill="#000000" transform="translate(7.772759, 13.250000) rotate(300.000000) translate(-7.772759, -13.250000) " x="6.77275866" y="11.75" width="2" height="3" rx="1"></rect>
        <rect id="Rectangle" fill="#000000" transform="translate(11.250000, 9.772759) rotate(330.000000) translate(-11.250000, -9.772759) " x="10.25" y="8.27275866" width="2" height="3" rx="1"></rect>
        <line x1="16" y1="18" x2="21" y2="13" id="Path-36" stroke="#000000" stroke-width="2" stroke-linecap="round"></line>
    </g>
</svg>