<?xml version="1.0" encoding="UTF-8"?>
<svg width="32px" height="32px" viewBox="0 0 32 32" version="1.1" xmlns="http://www.w3.org/2000/svg" xmlns:xlink="http://www.w3.org/1999/xlink">
    <title>icon-lol</title>
    <g id="icon-lol" stroke="none" fill="none">
        <path d="M16,5 C22.0751322,5 27,9.92486775 27,16 C27,22.0751322 22.0751322,27 16,27 C9.92486775,27 5,22.0751322 5,16 C5,9.92486775 9.92486775,5 16,5 Z M23,17 L9,17 C9,20.3137085 12.1340068,23 16,23 C19.8659932,23 23,20.3137085 23,17 Z" id="Oval-3" fill-opacity="0.25" fill="#000000" fill-rule="nonzero"></path>
        <circle id="Oval" stroke="#000000" stroke-width="2" cx="16" cy="16" r="11"></circle>
        <path d="M16,23 C19.8659932,23 23,20.3137085 23,17 C17.75,17 12.0625,17 9,17 C9,20.3137085 12.1340068,23 16,23 Z" id="Oval-Copy" stroke="#000000" stroke-width="2" stroke-linejoin="round"></path>
        <path d="M9,13 C9.41666667,11.6666667 10.25,11 11.5,11 C12.75,11 13.5833333,11.6666667 14,13" id="Path" stroke="#000000" stroke-width="2" stroke-linecap="round" stroke-linejoin="round"></path>
        <path d="M18,13 C18.4166667,11.6666667 19.25,11 20.5,11 C21.75,11 22.5833333,11.6666667 23,13" id="Path-Copy" stroke="#000000" stroke-width="2" stroke-linecap="round" stroke-linejoin="round"></path>
    </g>
</svg>