<?xml version="1.0" encoding="UTF-8"?>
<svg width="32px" height="32px" viewBox="0 0 32 32" version="1.1" xmlns="http://www.w3.org/2000/svg" xmlns:xlink="http://www.w3.org/1999/xlink">
    <title>icon-step_review</title>
    <g id="icon-step_review" stroke="none" stroke-width="1" fill="none" fill-rule="evenodd">
        <polygon id="Path-27" fill-opacity="0.25" fill="#000000" fill-rule="nonzero" points="27 24.5 20 18 18 18 17.5 20.5 24 27"></polygon>
        <polygon id="Path-27-Copy" fill-opacity="0.25" fill="#000000" fill-rule="nonzero" points="27 24.5 20 18 18 18 17.5 20.5 24 27"></polygon>
        <circle id="Oval" fill-opacity="0.25" fill="#000000" fill-rule="nonzero" cx="12" cy="12" r="7"></circle>
        <path d="M12.2232143,4.05 C14.4801851,4.05 16.5234887,4.96481817 18.0025495,6.44387904 C19.4816104,7.92293991 20.3964286,9.96624348 20.3964286,12.2232143 C20.3964286,13.8503828 19.9209314,15.3664929 19.1013086,16.6401732 L20.1964286,16.6392857 C20.426125,16.6392857 20.6479816,16.7153245 20.828345,16.8534624 L20.9313145,16.9436855 L27.6456003,23.6579712 C27.8485334,23.8609043 27.95,24.1268807 27.95,24.3928571 C27.95,24.6145042 27.8795371,24.8361512 27.7386113,25.0213148 L27.6456003,25.1277431 L25.1277431,27.6456003 C24.92481,27.8485334 24.6588336,27.95 24.3928571,27.95 C24.1712101,27.95 23.9495631,27.8795371 23.7643995,27.7386113 L23.6579712,27.6456003 L16.9436855,20.9313145 C16.7812656,20.7688946 16.6781568,20.5582508 16.6482989,20.3330364 L16.6392857,20.1964286 L16.6401732,19.1013086 C15.3664929,19.9209314 13.8503828,20.3964286 12.2232143,20.3964286 C9.96624348,20.3964286 7.92293991,19.4816104 6.44387904,18.0025495 C4.96481817,16.5234887 4.05,14.4801851 4.05,12.2232143 C4.05,9.96624348 4.96481817,7.92293991 6.44387904,6.44387904 C7.92293991,4.96481817 9.96624348,4.05 12.2232143,4.05 Z M19.5,18.5 L18.5,18.5 L18.5,19.5 L24.3928571,25.4402823 L25.4402823,24.3928571 L19.5,18.5 Z M12.2232143,6.12857143 C10.5402251,6.12857143 9.01656442,6.81073757 7.91365099,7.91365099 C6.81073757,9.01656442 6.12857143,10.5402251 6.12857143,12.2232143 C6.12857143,13.9062034 6.81073757,15.4298642 7.91365099,16.5327776 C9.01656442,17.635691 10.5402251,18.3178571 12.2232143,18.3178571 C13.9062034,18.3178571 15.4298642,17.635691 16.5327776,16.5327776 C17.635691,15.4298642 18.3178571,13.9062034 18.3178571,12.2232143 C18.3178571,10.5402251 17.635691,9.01656442 16.5327776,7.91365099 C15.4298642,6.81073757 13.9062034,6.12857143 12.2232143,6.12857143 Z" id="Combined-Shape" fill="#000000" fill-rule="nonzero"></path>
        <polyline id="Path-26" stroke="#000000" stroke-width="2" stroke-linecap="round" stroke-linejoin="round" points="9.5 13 11.6377676 15 15 9.5"></polyline>
    </g>
</svg>