<?xml version="1.0" encoding="UTF-8"?>
<svg width="32px" height="32px" viewBox="0 0 32 32" version="1.1" xmlns="http://www.w3.org/2000/svg" xmlns:xlink="http://www.w3.org/1999/xlink">
    <title>icon-attachment</title>
    <g id="icon-attachment" stroke="none" stroke-width="1" fill="none" fill-rule="evenodd">
        <path d="M10.9850003,4.29970756 C11.7607017,3.4534878 12.9052369,3 14.4,3 C15.8947631,3 17.0392983,3.4534878 17.8149997,4.29970756 C18.5892111,5.14430182 19,6.389032 19,8 L19,20 C19,21.0723973 18.7264788,21.918655 18.219662,22.4978743 C17.7117256,23.078373 16.9670889,23.4 16,23.4 C15.0329111,23.4 14.2882744,23.078373 13.780338,22.4978743 C13.2735212,21.918655 13,21.0723973 13,20 L13,9.6 C13,9.32385763 13.1119288,9.07385763 13.2928932,8.89289322 C13.4738576,8.71192881 13.7238576,8.6 14,8.6 C14.2761424,8.6 14.5261424,8.71192881 14.7071068,8.89289322 C14.8880712,9.07385763 15,9.32385763 15,9.6 L15,20 C15,20.5266215 15.0626516,20.8901114 15.2333458,21.1177036 C15.3928397,21.3303622 15.6495626,21.4 16,21.4 C16.3504374,21.4 16.6071603,21.3303622 16.7666542,21.1177036 C16.9373484,20.8901114 17,20.5266215 17,20 L17,8 C17,6.94691667 16.8107862,6.18724547 16.3805461,5.69554247 C15.9552398,5.2094781 15.2981471,5 14.4,5 C13.5018529,5 12.8447602,5.2094781 12.4194539,5.69554247 C11.9892138,6.18724547 11.8,6.94691667 11.8,8 L11.8,22.4 C11.8,23.9841241 12.1204635,25.1426759 12.8150896,25.9004499 C13.5066512,26.6548807 14.563729,27 16,27 C17.436271,27 18.4933488,26.6548807 19.1849104,25.9004499 C19.8795365,25.1426759 20.2,23.9841241 20.2,22.4 L20.2,9.6 C20.2,9.32385763 20.3119288,9.07385763 20.4928932,8.89289322 C20.6738576,8.71192881 20.9238576,8.6 21.2,8.6 C21.4761424,8.6 21.7261424,8.71192881 21.9071068,8.89289322 C22.0880712,9.07385763 22.2,9.32385763 22.2,9.6 L22.2,22.4 C22.2,24.5468844 21.6542097,26.1911067 20.6128944,27.301843 C19.5702391,28.4140086 18.0259136,29 16,29 C13.9740864,29 12.4297609,28.4140086 11.3871056,27.301843 C10.3457903,26.1911067 9.8,24.5468844 9.8,22.4 L9.8,8 C9.8,6.389032 10.2107889,5.14430182 10.9850003,4.29970756 Z" id="Path-264" fill="#000000" fill-rule="nonzero" transform="translate(16.000000, 16.000000) rotate(45.000000) translate(-16.000000, -16.000000) "></path>
    </g>
</svg>