<?xml version="1.0" encoding="UTF-8"?>
<svg width="32px" height="32px" viewBox="0 0 32 32" version="1.1" xmlns="http://www.w3.org/2000/svg" xmlns:xlink="http://www.w3.org/1999/xlink">
    <title>icon-website</title>
    <g id="icon-website" stroke="none" stroke-width="1" fill="none" fill-rule="evenodd">
        <rect id="Rectangle" fill-opacity="0.25" fill="#000000" fill-rule="nonzero" x="5" y="7" width="22" height="18"></rect>
        <path d="M27.1428571,6 L4.85714286,6 C4.38375593,6 4,6.37309604 4,6.83333333 L4,25.1666667 C4,25.626904 4.38375593,26 4.85714286,26 L27.1428571,26 C27.6162441,26 28,25.626904 28,25.1666667 L28,6.83333333 C28,6.37309604 27.6162441,6 27.1428571,6 Z M26,8 L26,24 L6,24 L6,8 L26,8 Z" id="Rectangle" fill="#000000" fill-rule="nonzero"></path>
        <rect id="Rectangle" fill="#000000" fill-rule="nonzero" x="5" y="11" width="22" height="2"></rect>
        <path d="M16,14.431695 C20.3657137,14.431695 24.1869146,16.6982726 26.2865583,20.0870794 L26.2857143,24.3333333 L26.1259673,24.3331272 C25.913473,23.1731926 25.4952841,22.0824676 24.9093807,21.0978773 L22.8319244,21.0974549 C23.2252415,22.0984397 23.4875289,23.1775778 23.6178577,24.333362 L21.8923559,24.3332225 C21.7428025,23.1559582 21.4371743,22.078201 20.97397,21.0975148 L16.8563286,21.097695 L16.8563286,24.332695 L15.1423286,24.332695 L15.1423286,21.097695 L11.02603,21.0975148 C10.5628257,22.078201 10.2571975,23.1559582 10.1076441,24.3332225 L8.38214227,24.333362 C8.51247115,23.1775778 8.77475853,22.0984397 9.16807563,21.0974549 L7.09061934,21.0978773 C6.50471592,22.0824676 6.08652696,23.1731926 5.87403274,24.3331272 L5.71428571,24.3333333 L5.71219519,20.0890916 C7.81157287,16.6991699 11.6334222,14.431695 16,14.431695 Z M12.1364809,16.8278326 L11.9963358,16.8842112 C10.587167,17.463683 9.33846942,18.3397879 8.33305782,19.4320114 L9.98618556,19.4320969 C10.5592012,18.4761488 11.2763256,17.6074776 12.1364809,16.8278326 Z M16.8571601,16.6850986 L16.8563286,19.431695 L19.9662771,19.4320626 C19.1676083,18.3750441 18.1321498,17.4608725 16.8571601,16.6850986 Z M19.8632125,16.8276489 L20.0643481,17.0139434 C20.8358845,17.7450289 21.4859874,18.5515358 22.0138144,19.4320969 L23.6669422,19.4320114 C22.6282522,18.3036361 21.3299046,17.405923 19.8632125,16.8276489 Z M15.1418321,16.6857119 C13.8673045,17.4613543 12.8321813,18.3753226 12.0337229,19.4320626 L15.1423286,19.431695 Z" id="Combined-Shape" fill-opacity="0.25" fill="#000000" fill-rule="nonzero"></path>
        <circle id="Oval" fill-opacity="0.25" fill="#000000" fill-rule="nonzero" cx="7.5" cy="9.5" r="1"></circle>
        <circle id="Oval-Copy" fill-opacity="0.25" fill="#000000" fill-rule="nonzero" cx="9.75" cy="9.5" r="1"></circle>
        <circle id="Oval-Copy-2" fill-opacity="0.25" fill="#000000" fill-rule="nonzero" cx="12" cy="9.5" r="1"></circle>
    </g>
</svg>