<?xml version="1.0" encoding="UTF-8"?>
<svg width="32px" height="32px" viewBox="0 0 32 32" version="1.1" xmlns="http://www.w3.org/2000/svg" xmlns:xlink="http://www.w3.org/1999/xlink">
    <title>icon-feature</title>
    <g id="icon-feature" stroke="none" stroke-width="1" fill="none" fill-rule="evenodd" fill-opacity="0.25" stroke-linejoin="round">
        <path d="M15.4104479,22.7503066 L10.2755582,26.4981974 C9.82946107,26.823798 9.2038764,26.7261163 8.87827576,26.2800192 C8.68864836,26.0202155 8.63556465,25.6850581 8.73562727,25.3793721 L10.7133151,19.3376399 C10.8485909,18.9243792 10.7013008,18.4710668 10.3489518,18.2162451 L5.19772768,14.4908367 C4.75021147,14.1671893 4.64979601,13.5420376 4.97344347,13.0945214 C5.16193335,12.8338913 5.46428319,12.6798363 5.78592896,12.6805394 L12.1430969,12.6944343 C12.5779337,12.6953847 12.9635442,12.4152222 13.0970123,12.0013742 L15.0482703,5.95105443 C15.2177873,5.42542866 15.7813117,5.13674538 16.3069375,5.3062623 C16.6130581,5.40498769 16.8530043,5.64493388 16.9517297,5.95105443 L18.9029877,12.0013742 C19.0364558,12.4152222 19.4220663,12.6953847 19.8569031,12.6944343 L26.214071,12.6805394 C26.7663545,12.6793322 27.2150472,13.1260678 27.2162544,13.6783513 C27.2169574,13.999997 27.0629024,14.3023469 26.8022723,14.4908367 L21.6510482,18.2162451 C21.2986992,18.4710668 21.1514091,18.9243792 21.2866849,19.3376399 L23.2643727,25.3793721 C23.4361857,25.9042518 23.1499686,26.4690329 22.6250889,26.6408459 C22.3194028,26.7409085 21.9842455,26.6878248 21.7244418,26.4981974 L16.5895521,22.7503066 C16.2383204,22.4939471 15.7616796,22.4939471 15.4104479,22.7503066 Z" id="Star" stroke="#000000" stroke-width="2" fill="#000000"></path>
    </g>
</svg>