<?xml version="1.0" encoding="UTF-8"?>
<svg width="32px" height="32px" viewBox="0 0 32 32" version="1.1" xmlns="http://www.w3.org/2000/svg" xmlns:xlink="http://www.w3.org/1999/xlink">
    <title>icon-github</title>
    <g id="icon-github" stroke="none" stroke-width="1" fill="none" fill-rule="evenodd">
        <circle id="Oval" stroke="#000000" stroke-width="2" fill-opacity="0.25" fill="#000000" cx="16" cy="16" r="11"></circle>
        <path d="M19.1910091,25.5089408 C18.690459,25.6090508 18.5027527,25.296207 18.5027527,25.0334182 C18.5027527,24.6955469 18.5152664,23.6193641 18.5152664,22.2803926 C18.5152664,21.3418611 18.2024226,20.741201 17.8395238,20.4283571 C20.0669718,20.1780821 22.4070436,19.3271469 22.4070436,15.4854247 C22.4070436,14.3842145 22.0191172,13.495738 21.3809158,12.7949678 C21.4810259,12.5446928 21.831411,11.518565 21.2808058,10.1420522 C21.2808058,10.1420522 20.4423844,9.86674966 18.5277802,11.16818 C17.7269,10.9429324 16.8759648,10.8303086 16.0250296,10.8303086 C15.1740944,10.8303086 14.3231592,10.9429324 13.522279,11.16818 C11.6076748,9.87926341 10.7692534,10.1420522 10.7692534,10.1420522 C10.2186482,11.518565 10.5690333,12.5446928 10.6691433,12.7949678 C10.0309419,13.495738 9.6430156,14.3967282 9.6430156,15.4854247 C9.6430156,19.3146331 11.9705736,20.1780821 14.1980217,20.4283571 C13.9102053,20.6786322 13.6474165,21.1166135 13.5598203,21.7673287 C12.9841876,22.0301175 11.545106,22.4555851 10.6441158,20.941421 C10.4564095,20.6410909 9.89329065,19.9027795 9.10492422,19.9152933 C8.26650277,19.927807 8.76705289,20.3908159 9.11743797,20.5785222 C9.54290557,20.8162835 10.0309419,21.7047599 10.1435657,21.9925762 C10.3437858,22.5556951 10.9945009,23.6318779 13.5097653,23.168869 C13.5097653,24.0072905 13.522279,24.7956569 13.522279,25.0334182 C13.522279,25.296207 13.3345727,25.5965371 12.8340226,25.5089408 C13,27 19,27 19.1910091,25.5089408 Z" id="Path" fill="#000000" fill-rule="nonzero"></path>
    </g>
</svg>