<?xml version="1.0" encoding="UTF-8"?>
<svg width="32px" height="32px" viewBox="0 0 32 32" version="1.1" xmlns="http://www.w3.org/2000/svg" xmlns:xlink="http://www.w3.org/1999/xlink">
    <title>icon-question</title>
    <g id="icon-question" stroke="none" stroke-width="1" fill="none" fill-rule="evenodd">
        <circle id="Oval" fill-opacity="0.25" fill="#000000" fill-rule="nonzero" cx="16" cy="16" r="11"></circle>
        <path d="M16,4 C22.627417,4 28,9.372583 28,16 C28,22.627417 22.627417,28 16,28 C9.372583,28 4,22.627417 4,16 C4,9.372583 9.372583,4 16,4 Z M16,6 C10.4771525,6 6,10.4771525 6,16 C6,21.5228475 10.4771525,26 16,26 C21.5228475,26 26,21.5228475 26,16 C26,10.4771525 21.5228475,6 16,6 Z" id="Oval" fill="#000000" fill-rule="nonzero"></path>
        <path d="M16.0000589,24.5 C16.828486,24.5 17.5000589,23.8284271 17.5000589,23 C17.5000589,22.1715729 16.828486,21.5 16.0000589,21.5 C15.1716317,21.5 14.5000589,22.1715729 14.5000589,23 C14.5000589,23.8284271 15.1716317,24.5 16.0000589,24.5 Z M12.2000589,10.1741754 C14.1385904,7.58946666 17.9213014,7.16916544 19.8000589,9.67417537 C21.3712356,11.7690777 20.5880044,14.484908 18.8662361,16.3171872 L18.7071656,16.4812822 C17.3779686,17.8104792 17.0000589,18.4403288 17.0000589,19.7741754 C17.0000589,20.3264601 16.5523436,20.7741754 16.0000589,20.7741754 C15.4477741,20.7741754 15.0000589,20.3264601 15.0000589,19.7741754 C15.0000589,17.8616229 15.5692303,16.8298493 17.0809335,15.2815353 L17.2929521,15.0670686 C18.5071984,13.8528222 19.0739177,12.0393205 18.2000589,10.8741754 C17.1942009,9.53303146 14.997891,9.7770659 13.8000589,11.3741754 C13.468688,11.8160032 12.8418867,11.9055462 12.4000589,11.5741754 C11.9582311,11.2428045 11.868688,10.6160032 12.2000589,10.1741754 Z" id="Combined-Shape" fill="#000000"></path>
    </g>
</svg>