<?xml version="1.0" encoding="UTF-8"?>
<svg width="32px" height="32px" viewBox="0 0 32 32" version="1.1" xmlns="http://www.w3.org/2000/svg" xmlns:xlink="http://www.w3.org/1999/xlink">
    <title>icon-arrow_right</title>
    <g id="icon-arrow_right" stroke="none" stroke-width="1" fill="none" fill-rule="evenodd" fill-opacity="0.25" stroke-linejoin="round">
        <path d="M13.1371198,25.4916823 L13.1371198,13.4251406 L10.8539714,13.4251406 C10.0588151,13.4251406 9.41421356,12.7498438 9.41421356,11.9168229 C9.41421356,11.5167922 9.5659019,11.1331457 9.83590886,10.8502812 L14.9985729,5.44177603 C15.5608333,4.85274132 16.4724375,4.85274132 17.0346979,5.44177603 L22.197362,10.8502812 C22.7596224,11.4393159 22.7596224,12.3943299 22.197362,12.9833646 C21.927355,13.266229 21.561147,13.4251406 21.1792995,13.4251406 L18.896151,13.4251406 L18.896151,25.4916823 C18.896151,26.3247032 18.2515495,27 17.4563932,27 L14.5768776,27 C13.7817213,27 13.1371198,26.3247032 13.1371198,25.4916823 Z" id="Path-5" stroke="#000000" stroke-width="2" fill="#000000" transform="translate(16.016635, 16.000000) scale(-1, 1) rotate(-90.000000) translate(-16.016635, -16.000000) "></path>
    </g>
</svg>