<?xml version="1.0" encoding="UTF-8"?>
<svg width="32px" height="32px" viewBox="0 0 32 32" version="1.1" xmlns="http://www.w3.org/2000/svg" xmlns:xlink="http://www.w3.org/1999/xlink">
    <title>icon-existing_parent</title>
    <g id="icon-existing_parent" stroke="none" stroke-width="1" fill="none" fill-rule="evenodd">
        <circle id="Oval-Copy" stroke="#000000" stroke-width="2" fill-opacity="0.25" fill="#000000" stroke-linejoin="round" cx="8" cy="24" r="3"></circle>
        <circle id="Oval-Copy-2" stroke="#000000" stroke-width="2" fill-opacity="0.25" fill="#000000" stroke-linejoin="round" cx="24" cy="24" r="3"></circle>
        <path d="M8,21 L8,18 C8,16.8954305 8.8954305,16 10,16 L22,16 C23.1045695,16 24,16.8954305 24,18 L24,21 L24,21" id="Path-100" stroke="#000000" stroke-width="2" stroke-linejoin="round"></path>
        <rect id="Rectangle" fill="#000000" x="15" y="9" width="2" height="7"></rect>
        <path d="M14.1507914,1.91496403 L18.6142006,5.7407434 C19.0335265,6.10016555 19.082088,6.73146553 18.7226659,7.15079137 C18.6893412,7.18967018 18.6530794,7.22593191 18.6142006,7.2592566 L14.1507914,11.085036 C13.7314655,11.4444581 13.1001655,11.3958966 12.7407434,10.9765707 C12.5853922,10.7953276 12.5,10.5644906 12.5,10.3257794 L12.5,2.67422064 C12.5,2.12193589 12.9477153,1.67422064 13.5,1.67422064 C13.7387113,1.67422064 13.9695483,1.7596128 14.1507914,1.91496403 Z" id="Path-101" fill="#000000" transform="translate(16, 6.5) rotate(-90) translate(-16, -6.5)"></path>
    </g>
</svg>