<?xml version="1.0" encoding="UTF-8"?>
<svg width="32px" height="32px" viewBox="0 0 32 32" version="1.1" xmlns="http://www.w3.org/2000/svg" xmlns:xlink="http://www.w3.org/1999/xlink">
    <title>icon-upload</title>
    <g id="icon-upload" stroke="none" stroke-width="1" fill="none" fill-rule="evenodd">
        <path d="M14,26 L14,18 L12.4142136,18 C11.8619288,18 11.4142136,17.5522847 11.4142136,17 C11.4142136,16.7347835 11.5195704,16.4804296 11.7071068,16.2928932 L15.2928932,12.7071068 C15.6834175,12.3165825 16.3165825,12.3165825 16.7071068,12.7071068 L20.2928932,16.2928932 C20.6834175,16.6834175 20.6834175,17.3165825 20.2928932,17.7071068 C20.1053568,17.8946432 19.8510029,18 19.5857864,18 L18,18 L18,26 C18,26.5522847 17.5522847,27 17,27 L15,27 C14.4477153,27 14,26.5522847 14,26 Z" id="Path-5" fill="#000000"></path>
        <path d="M19.5,7 C21.0057624,7 22.3702039,7.60508971 23.3634078,8.58540041 C24.3578934,9.56697618 24.9802933,10.9247087 24.9995386,12.4278865 C25.0025199,12.6607396 24.9909431,12.8904742 24.9657438,13.1159795 C25.1814271,13.1696987 25.3933511,13.2415424 25.5990631,13.3314277 C26.31693,13.6450976 26.9249711,14.1635404 27.3497833,14.8126656 C27.7611438,15.4412362 28,16.1927567 28,17 C28,18.073096 27.5774649,19.0475206 26.8896208,19.7658907 C26.2032146,20.482759 25.2527236,20.944965 24.1942438,20.9953871 L24.1942438,20.9953871 L8.5,21 C7.53350169,21 6.65850169,20.6082492 6.02512627,19.9748737 C5.39175084,19.3414983 5,18.4664983 5,17.5 C5,16.7480662 5.23688939,16.0513909 5.64061517,15.4809664 C6.05581753,14.8943267 6.64673299,14.4406376 7.3370813,14.1975454 C7.56393892,14.1176621 7.79667735,14.0622306 8.03143457,14.0307716 C8.00272829,13.7911489 7.99309279,13.5463633 8.0039812,13.298138 C8.05654328,12.0998692 8.57852309,11.0233289 9.39010862,10.2472996 C10.1981605,9.47464915 11.2936571,9 12.5,9 C13.0718921,9 13.6189413,9.10639281 14.122207,9.30097995 C14.3566999,9.39164635 14.5853449,9.50287418 14.8056324,9.63450245 C14.9403513,9.41421317 15.0904242,9.20349559 15.2547002,9.00406091 C16.2627521,7.78026399 17.7902297,7 19.5,7 L19.5,7 Z" id="Combined-Shape" stroke="#000000" stroke-width="2" fill-opacity="0.25" fill="#000000"></path>
    </g>
</svg>