<?xml version="1.0" encoding="UTF-8"?>
<svg width="32px" height="32px" viewBox="0 0 32 32" version="1.1" xmlns="http://www.w3.org/2000/svg" xmlns:xlink="http://www.w3.org/1999/xlink">
    <title>icon-calculator</title>
    <g id="icon-calculator" stroke="none" stroke-width="1" fill="none" fill-rule="evenodd">
        <rect id="Rectangle" stroke="#000000" stroke-width="2" fill-opacity="0.25" fill="#000000" stroke-linejoin="round" x="7" y="5" width="18" height="22" rx="3"></rect>
        <rect id="Rectangle" fill="#000000" x="9" y="7" width="14" height="3" rx="1"></rect>
        <g id="Group-2" transform="translate(9.000000, 11.000000)" fill="#000000">
            <circle id="Oval" cx="1.5" cy="1.5" r="1.5"></circle>
            <circle id="Oval-Copy" cx="5.16666667" cy="1.5" r="1.5"></circle>
            <circle id="Oval-Copy-2" cx="8.83333333" cy="1.5" r="1.5"></circle>
            <circle id="Oval-Copy-3" fill-opacity="0.25" fill-rule="nonzero" cx="12.5" cy="1.5" r="1.5"></circle>
        </g>
        <g id="Group" transform="translate(9.000000, 14.666667)" fill="#000000">
            <circle id="Oval-Copy-7" cx="1.5" cy="1.5" r="1.5"></circle>
            <circle id="Oval-Copy-6" cx="5.17" cy="1.5" r="1.5"></circle>
            <circle id="Oval-Copy-5" cx="8.84" cy="1.5" r="1.5"></circle>
            <circle id="Oval-Copy-4" fill-opacity="0.25" fill-rule="nonzero" cx="12.51" cy="1.5" r="1.5"></circle>
        </g>
        <g id="Group-Copy" transform="translate(9.000000, 18.333333)" fill="#000000">
            <circle id="Oval-Copy-7" cx="1.5" cy="1.5" r="1.5"></circle>
            <circle id="Oval-Copy-6" cx="5.17" cy="1.5" r="1.5"></circle>
            <circle id="Oval-Copy-5" cx="8.84" cy="1.5" r="1.5"></circle>
            <circle id="Oval-Copy-4" fill-opacity="0.25" fill-rule="nonzero" cx="12.51" cy="1.5" r="1.5"></circle>
        </g>
        <g id="Group-Copy-2" transform="translate(9.000000, 22.000000)" fill="#000000">
            <circle id="Oval-Copy-5" cx="8.84" cy="1.5" r="1.5"></circle>
            <rect id="Rectangle" x="0" y="0" width="6.666" height="3" rx="1.5"></rect>
            <circle id="Oval-Copy-4" fill-opacity="0.25" fill-rule="nonzero" cx="12.51" cy="1.5" r="1.5"></circle>
        </g>
    </g>
</svg>