<?xml version="1.0" encoding="UTF-8"?>
<svg width="32px" height="32px" viewBox="0 0 32 32" version="1.1" xmlns="http://www.w3.org/2000/svg" xmlns:xlink="http://www.w3.org/1999/xlink">
    <title>icon-history</title>
    <g id="icon-history" stroke="none" stroke-width="1" fill="none" fill-rule="evenodd">
        <circle id="Oval" fill-opacity="0.25" fill="#000000" fill-rule="nonzero" cx="16" cy="16" r="11"></circle>
        <polyline id="Path-35" stroke="#000000" stroke-width="2" stroke-linecap="round" stroke-linejoin="round" points="20 20 16 16 16 9"></polyline>
        <g id="Group" transform="translate(4.500000, 5.000000)">
            <path d="M6.43038646,0.3 C6.08930745,0.31235297 5.87969438,0.406313082 5.72472539,0.559165758 C5.57292932,0.708888833 5.47297585,0.912411859 5.45693499,1.14180677 L5.45693499,1.14180677 L5.17557118,5.17379983 L1.14759599,4.89240681 C0.806412737,4.90473374 0.596754061,4.99869991 0.441758324,5.15157896 C0.289962262,5.30130204 0.190008787,5.50482506 0.17396701,5.73423317 C0.156482389,5.9842749 0.242002472,6.21773225 0.394404144,6.39305032 C0.546805816,6.56836839 0.766089077,6.68554718 1.01613081,6.7030318 L1.01613081,6.7030318 L5.94899364,7.04797117 C6.2901751,7.03564379 6.49983298,6.94167773 6.65482826,6.78879913 C6.80662432,6.63907606 6.90657779,6.43555303 6.92261957,6.20614493 L6.92261957,6.20614493 L7.26755894,1.27328209 C7.25523156,0.93210064 7.16126551,0.722442753 7.00838691,0.567447479 C6.85968733,0.416689086 6.65792083,0.317066916 6.43038646,0.3 Z" id="Combined-Shape" fill="#000000" fill-rule="nonzero" transform="translate(3.719639, 3.673986) scale(-1, 1) rotate(3.000000) translate(-3.719639, -3.673986) "></path>
            <path d="M0.887371342,8.0960512 C0.634822843,9.02114645 0.5,9.99482844 0.5,11 C0.5,17.0751322 5.42486775,22 11.5,22 C17.5751322,22 22.5,17.0751322 22.5,11 C22.5,4.92486775 17.5751322,0 11.5,0 C7.15226564,0 3.39366278,2.5223718 1.60773584,6.18357099" id="Path" stroke="#000000" stroke-width="2" stroke-linecap="round"></path>
        </g>
    </g>
</svg>