<?xml version="1.0" encoding="UTF-8"?>
<svg width="32px" height="32px" viewBox="0 0 32 32" version="1.1" xmlns="http://www.w3.org/2000/svg" xmlns:xlink="http://www.w3.org/1999/xlink">
    <title>icon-posts</title>
    <g id="icon-posts" stroke="none" stroke-width="1" fill="none" fill-rule="evenodd">
        <g id="Group-2" transform="translate(3, 4)" fill="#000000">
            <g id="Group" transform="translate(8, 0)">
                <path d="M5,0 C7.76142375,0 10,2.23857625 10,5 C10,7.76142375 7.76142375,10 5,10 C2.23857625,10 0,7.76142375 0,5 C0,2.23857625 2.23857625,0 5,0 Z M5,0.625 C2.58375422,0.625 0.625,2.58375422 0.625,5 C0.625,5.38216593 0.67400063,5.75288715 0.766486301,6.10562843 C1.31818969,3.42748108 3.42748108,1.31818969 6.10622362,0.76606185 C5.75288715,0.67400063 5.38216593,0.625 5,0.625 Z" id="Oval-2"></path>
                <circle id="Oval" fill-opacity="0.25" fill-rule="nonzero" cx="5" cy="5" r="5"></circle>
            </g>
            <path d="M1.71498585,16.9710085 L3.66666667,15.8 L3.66666667,15.8 L11,9.2 L8.8,7 L2.2,14.3333333 L1.02899151,16.2850141 C0.886917431,16.5218043 0.963699963,16.8289344 1.2004901,16.9710085 C1.35883129,17.0660132 1.55664466,17.0660132 1.71498585,16.9710085 Z" id="Path-25" fill-opacity="0.25" fill-rule="nonzero"></path>
            <path d="M1.71498585,16.9710085 L3.66666667,15.8 L3.66666667,15.8 L11,9.2 L8.8,7 L2.2,14.3333333 L1.02899151,16.2850141 C0.886917431,16.5218043 0.963699963,16.8289344 1.2004901,16.9710085 C1.35883129,17.0660132 1.55664466,17.0660132 1.71498585,16.9710085 Z" id="Path-25-Copy" fill-opacity="0.25" fill-rule="nonzero"></path>
        </g>
        <g id="Group-2-Copy" transform="translate(10, 12)" fill="#000000">
            <g id="Group" transform="translate(8, 0)">
                <path d="M5,0 C7.76142375,0 10,2.23857625 10,5 C10,7.76142375 7.76142375,10 5,10 C2.23857625,10 0,7.76142375 0,5 C0,2.23857625 2.23857625,0 5,0 Z M5,0.625 C2.58375422,0.625 0.625,2.58375422 0.625,5 C0.625,5.38216593 0.67400063,5.75288715 0.766486301,6.10562843 C1.31818969,3.42748108 3.42748108,1.31818969 6.10622362,0.76606185 C5.75288715,0.67400063 5.38216593,0.625 5,0.625 Z" id="Oval-2"></path>
                <circle id="Oval" fill-opacity="0.25" fill-rule="nonzero" cx="5" cy="5" r="5"></circle>
            </g>
            <path d="M1.71498585,16.9710085 L3.66666667,15.8 L3.66666667,15.8 L11,9.2 L8.8,7 L2.2,14.3333333 L1.02899151,16.2850141 C0.886917431,16.5218043 0.963699963,16.8289344 1.2004901,16.9710085 C1.35883129,17.0660132 1.55664466,17.0660132 1.71498585,16.9710085 Z" id="Path-25" fill-opacity="0.25" fill-rule="nonzero"></path>
            <path d="M1.71498585,16.9710085 L3.66666667,15.8 L3.66666667,15.8 L11,9.2 L8.8,7 L2.2,14.3333333 L1.02899151,16.2850141 C0.886917431,16.5218043 0.963699963,16.8289344 1.2004901,16.9710085 C1.35883129,17.0660132 1.55664466,17.0660132 1.71498585,16.9710085 Z" id="Path-25-Copy" fill-opacity="0.25" fill-rule="nonzero"></path>
        </g>
    </g>
</svg>