<?xml version="1.0" encoding="UTF-8"?>
<svg width="32px" height="32px" viewBox="0 0 32 32" version="1.1" xmlns="http://www.w3.org/2000/svg" xmlns:xlink="http://www.w3.org/1999/xlink">
    <title>icon-project</title>
    <g id="icon-project" stroke="none" stroke-width="1" fill="none" fill-rule="evenodd">
        <g id="nodes-copy-2" transform="translate(15.763087, 16.189457) scale(1, -1) rotate(22.000000) translate(-15.763087, -16.189457) translate(4.344995, 3.705916)" fill="#000000">
            <circle id="Oval-Copy" cx="4.79644912" cy="5.22967821" r="2.21374575"></circle>
            <path d="M6.79553212,6.16658504 L12.5136715,11.9015035 L11.4685741,12.9435432 L5.75639709,7.21460478 C5.83744942,7.07062657 5.98978259,6.88611953 6.21339658,6.66108367 C6.43701058,6.43604782 6.63105575,6.27121494 6.79553212,6.16658504 Z" id="Path" fill-opacity="0.25" fill-rule="nonzero"></path>
            <path d="M6.79553212,6.16658504 L12.5136715,11.9015035 L11.4685741,12.9435432 L5.75639709,7.21460478 C5.83744942,7.07062657 5.98978259,6.88611953 6.21339658,6.66108367 C6.43701058,6.43604782 6.63105575,6.27121494 6.79553212,6.16658504 Z" id="Path-Copy-5" fill-opacity="0.25" fill-rule="nonzero"></path>
            <circle id="Oval-Copy-4" cx="18.8168389" cy="15.9276208" r="2.02926694"></circle>
            <path d="M12.3398649,11.7722174 L17.7020802,14.6919484 C17.7504397,14.8290325 17.7049949,15.0233709 17.5657458,15.2749635 C17.4264966,15.5265562 17.2874141,15.6714392 17.1484982,15.7096127 L11.6423807,13.0728293 L12.3398649,11.7722174 Z" id="Path" fill-opacity="0.25" fill-rule="nonzero"></path>
            <path d="M12.3398649,11.7722174 L17.7020802,14.6919484 C17.7504397,14.8290325 17.7049949,15.0233709 17.5657458,15.2749635 C17.4264966,15.5265562 17.2874141,15.6714392 17.1484982,15.7096127 L11.6423807,13.0728293 L12.3398649,11.7722174 Z" id="Path-Copy-4" fill-opacity="0.25" fill-rule="nonzero"></path>
            <circle id="hub-cirlce" cx="11.806644" cy="12.4225234" r="4.05853387"></circle>
            <path d="M12.0485407,16.4612097 L11.2495399,22.6882483 L9.78895684,22.4766528 L10.5817926,16.2879368 C10.7896628,16.2453135 11.0436259,16.245293 11.3436817,16.2878755 C11.6437375,16.330458 11.8786905,16.3882361 12.0485407,16.4612097 Z" id="Path" fill-opacity="0.25" fill-rule="nonzero"></path>
            <path d="M12.0485407,16.4612097 L11.2495399,22.6882483 L9.78895684,22.4766528 L10.5817926,16.2879368 C10.7896628,16.2453135 11.0436259,16.245293 11.3436817,16.2878755 C11.6437375,16.330458 11.8786905,16.3882361 12.0485407,16.4612097 Z" id="Path-Copy-3" fill-opacity="0.25" fill-rule="nonzero"></path>
            <path d="M8.67459295,13.0391789 C8.91214822,13.170014 9.088515,13.3779696 9.2036933,13.6630459 C9.3188716,13.9481222 9.34173009,14.189964 9.27226878,14.3885711 L3.21011265,17.4769446 L2.33600891,15.4433693 L8.67459295,13.0391789 Z" id="Path" fill-opacity="0.25" fill-rule="nonzero"></path>
            <path d="M8.67459295,13.0391789 C8.91214822,13.170014 9.088515,13.3779696 9.2036933,13.6630459 C9.3188716,13.9481222 9.34173009,14.189964 9.27226878,14.3885711 L3.21011265,17.4769446 L2.33600891,15.4433693 L8.67459295,13.0391789 Z" id="Path-Copy-2" fill-opacity="0.25" fill-rule="nonzero"></path>
            <circle id="Oval-Copy-5" cx="10.5152923" cy="22.568858" r="2.39822456"></circle>
            <circle id="Oval-Copy-3" cx="2.76718218" cy="16.4810572" r="2.76718218"></circle>
            <path d="M18.7786362,2.82295029 L20.3859079,3.97973022 L14.3127075,10.5974855 C14.0735098,10.6127973 13.8517025,10.5340312 13.6472856,10.3611871 C13.4428686,10.1883431 13.2890205,9.94947513 13.1857413,9.64458321 L18.7786362,2.82295029 Z" id="Path" fill-opacity="0.25" fill-rule="nonzero"></path>
            <path d="M18.7786362,2.82295029 L20.3859079,3.97973022 L14.3127075,10.5974855 C14.0735098,10.6127973 13.8517025,10.5340312 13.6472856,10.3611871 C13.4428686,10.1883431 13.2890205,9.94947513 13.1857413,9.64458321 L18.7786362,2.82295029 Z" id="Path-Copy" fill-opacity="0.25" fill-rule="nonzero"></path>
            <circle id="Oval-Copy-2" cx="19.7000437" cy="3.13613981" r="3.13613981"></circle>
        </g>
    </g>
</svg>