<?xml version="1.0" encoding="UTF-8"?>
<svg width="32px" height="32px" viewBox="0 0 32 32" version="1.1" xmlns="http://www.w3.org/2000/svg" xmlns:xlink="http://www.w3.org/1999/xlink">
    <title>icon-related_posts</title>
    <g id="icon-related_posts" stroke="none" stroke-width="1" fill="none" fill-rule="evenodd">
        <g id="Group-2" transform="translate(3, 4)" fill="#000000">
            <g id="Group" transform="translate(8, 0)">
                <path d="M5,0 C5.58323499,0 6.14314635,0.0998603115 6.66356892,0.283415769 C6.3991272,0.412758406 6.14448849,0.558917254 5.89977518,0.718991141 C5.60998585,0.656977748 5.30872733,0.625 5,0.625 C2.58375422,0.625 0.625,2.58375422 0.625,5 C0.625,5.38216593 0.67400063,5.75288715 0.766486301,6.10562843 C1.28857511,3.57123985 3.20552213,1.54627572 5.6799267,0.868281389 C5.32867175,1.11636359 4.99977618,1.3936221 4.69669914,1.69669914 C3.33946609,3.05393219 2.5,4.92893219 2.5,7 C2.5,7.9002042 2.65859759,8.76336596 2.94937538,9.56306785 C1.21118454,8.77950877 0,7.03119804 0,5 C0,2.23857625 2.23857625,0 5,0 Z" id="Oval-2"></path>
                <path d="M5,0 C5.58323499,0 6.14314635,0.0998603115 6.66356892,0.283415769 C5.93148824,0.645512583 5.26819306,1.12520523 4.69669914,1.69669914 C3.33946609,3.05393219 2.5,4.92893219 2.5,7 C2.5,7.9002042 2.65859759,8.76336596 2.94937538,9.56306785 C1.21118454,8.77950877 0,7.03119804 0,5 C0,2.23857625 2.23857625,0 5,0 Z" id="Oval-3" fill-opacity="0.25" fill-rule="nonzero"></path>
            </g>
            <path d="M1.71498585,16.9710085 L3.66666667,15.8 L3.66666667,15.8 L11,9.2 L8.8,7 L2.2,14.3333333 L1.02899151,16.2850141 C0.886917431,16.5218043 0.963699963,16.8289344 1.2004901,16.9710085 C1.35883129,17.0660132 1.55664466,17.0660132 1.71498585,16.9710085 Z" id="Path-25" fill-opacity="0.25" fill-rule="nonzero"></path>
            <path d="M1.71498585,16.9710085 L3.66666667,15.8 L3.66666667,15.8 L11,9.2 L8.8,7 L2.2,14.3333333 L1.02899151,16.2850141 C0.886917431,16.5218043 0.963699963,16.8289344 1.2004901,16.9710085 C1.35883129,17.0660132 1.55664466,17.0660132 1.71498585,16.9710085 Z" id="Path-25-Copy" fill-opacity="0.25" fill-rule="nonzero"></path>
        </g>
        <g id="Group-2-Copy" transform="translate(10, 14.3374)" fill="#000000">
            <g id="Group" transform="translate(8.4383, 0)">
                <path d="M9.27859022,-3.78684714e-16 C9.4619239,0.520143481 9.561658,1.07971564 9.561658,1.66258195 C9.561658,4.4240057 7.32308175,6.66258195 4.561658,6.66258195 C2.53085277,6.66258195 0.782825438,5.45186582 -2.22469515e-14,3.71285755 C0.798512833,4.00402492 1.66156893,4.16258195 2.561658,4.16258195 C4.63272581,4.16258195 6.50772581,3.32311585 7.86495886,1.96588281 C8.40785208,1.42298959 8.86790258,0.797253656 9.22452163,0.109263757 Z" id="Oval-2"></path>
                <path d="M9.27859022,-3.78684714e-16 C9.4619239,0.520143481 9.561658,1.07971564 9.561658,1.66258195 C9.561658,4.4240057 7.32308175,6.66258195 4.561658,6.66258195 C2.53085277,6.66258195 0.782825438,5.45186582 -2.22469515e-14,3.71285755 C0.798512833,4.00402492 1.66156893,4.16258195 2.561658,4.16258195 C4.63272581,4.16258195 6.50772581,3.32311585 7.86495886,1.96588281 C8.40785208,1.42298959 8.86790258,0.797253656 9.22452163,0.109263757 Z" id="Oval-3" fill-opacity="0.25" fill-rule="nonzero"></path>
            </g>
            <path d="M1.71498585,13.6335904 L3.66666667,12.4625819 L3.66666667,12.4625819 L11,5.86258195 L8.8,3.66258195 L2.2,10.9959153 L1.02899151,12.9475961 C0.886917431,13.1843862 0.963699963,13.4915164 1.2004901,13.6335904 C1.35883129,13.7285952 1.55664466,13.7285952 1.71498585,13.6335904 Z" id="Path-25" fill-opacity="0.25" fill-rule="nonzero"></path>
            <path d="M1.71498585,13.6335904 L3.66666667,12.4625819 L3.66666667,12.4625819 L11,5.86258195 L8.8,3.66258195 L2.2,10.9959153 L1.02899151,12.9475961 C0.886917431,13.1843862 0.963699963,13.4915164 1.2004901,13.6335904 C1.35883129,13.7285952 1.55664466,13.7285952 1.71498585,13.6335904 Z" id="Path-25-Copy" fill-opacity="0.25" fill-rule="nonzero"></path>
        </g>
        <g id="Group-2" transform="translate(3, 4)" fill="#000000">
            <g id="Group" transform="translate(11, 0)">
                <path d="M7,0 C10.8659932,0 14,3.13400675 14,7 C14,10.8659932 10.8659932,14 7,14 C3.13400675,14 0,10.8659932 0,7 C0,3.13400675 3.13400675,0 7,0 Z M7,0.875 C3.61725591,0.875 0.875,3.61725591 0.875,7 C0.875,7.5350323 0.943600881,8.05404201 1.07308082,8.5478798 C1.84546557,4.79847351 4.79847351,1.84546557 8.54871307,1.07248659 C8.05404201,0.943600881 7.5350323,0.875 7,0.875 Z" id="Oval-2"></path>
                <circle id="Oval" fill-opacity="0.25" fill-rule="nonzero" cx="7" cy="7" r="7"></circle>
            </g>
            <path d="M1.71498585,23.9710085 L5,22 L5,22 L15,13 L12,10 L3,20 L1.02899151,23.2850141 C0.886917431,23.5218043 0.963699963,23.8289344 1.2004901,23.9710085 C1.35883129,24.0660132 1.55664466,24.0660132 1.71498585,23.9710085 Z" id="Path-25" fill-opacity="0.25" fill-rule="nonzero"></path>
            <path d="M1.71498585,23.9710085 L5,22 L5,22 L15,13 L12,10 L3,20 L1.02899151,23.2850141 C0.886917431,23.5218043 0.963699963,23.8289344 1.2004901,23.9710085 C1.35883129,24.0660132 1.55664466,24.0660132 1.71498585,23.9710085 Z" id="Path-25-Copy" fill-opacity="0.25" fill-rule="nonzero"></path>
        </g>
    </g>
</svg>