<?xml version="1.0" encoding="UTF-8"?>
<svg width="32px" height="32px" viewBox="0 0 32 32" version="1.1" xmlns="http://www.w3.org/2000/svg" xmlns:xlink="http://www.w3.org/1999/xlink">
    <title>icon-releases</title>
    <g id="icon-releases" stroke="none" stroke-width="1" fill="none" fill-rule="evenodd">
        <g id="Group" transform="translate(15.2912, 16.7088) rotate(45) translate(-15.2912, -16.7088)translate(5.2912, 0.0495)">
            <polyline id="Path-33" stroke="#000000" stroke-width="2" fill-opacity="0.25" fill="#000000" stroke-linejoin="round" points="3.54179451 16.6095973 0 19.4556822 0 23.250462 4.42724314 22.3017671"></polyline>
            <polyline id="Path-33-Copy" stroke="#000000" stroke-width="2" fill-opacity="0.25" fill="#000000" stroke-linejoin="round" transform="translate(17.7864, 19.93) scale(-1, 1) translate(-17.7864, -19.93)" points="19.1145514 16.6095973 15.5727569 19.4556822 15.5727569 23.250462 20 22.3017671"></polyline>
            <path d="M10,0 C2.2351232,5.90299085 0.940977069,14.0196033 6.1175616,24.3498373 L13.8824384,24.3498373 C19.0590229,14.0196033 17.7648768,5.90299085 10,0 Z" id="Path-32" stroke="#000000" stroke-width="2" fill-opacity="0.25" fill="#000000" stroke-linejoin="round"></path>
            <circle id="Oval" stroke="#000000" stroke-width="1.5" cx="7.5" cy="10.3498373" r="1.25"></circle>
            <circle id="Oval-Copy" stroke="#000000" stroke-width="1.5" cx="12.5" cy="10.3498373" r="1.25"></circle>
            <path d="M8.89318922,25.5708944 L11.1068108,25.5708944 C12.5825585,28.1534529 12.2136216,30.7360114 10,33.3185699 C7.78637843,30.7360114 7.4174415,28.1534529 8.89318922,25.5708944 Z" id="Path-34" fill="#000000"></path>
            <path d="M6,14.3498373 C8.66666667,16.3498373 11.3333333,16.3498373 14,14.3498373" id="Path-102" stroke="#000000" stroke-width="1.5" stroke-linecap="round"></path>
        </g>
    </g>
</svg>