<?xml version="1.0" encoding="UTF-8"?>
<svg width="32px" height="32px" viewBox="0 0 32 32" version="1.1" xmlns="http://www.w3.org/2000/svg" xmlns:xlink="http://www.w3.org/1999/xlink">
    <title>icon-inbox</title>
    <g id="icon-inbox" stroke="none" stroke-width="1" fill="none" fill-rule="evenodd">
        <polygon id="Path-6" fill-opacity="0.25" fill="#000000" fill-rule="nonzero" points="8 10 5 18 16 23 27 18 24 10"></polygon>
        <path d="M24.0308419,10 C24.4322677,10 24.7947858,10.2400445 24.951495,10.6096184 L27.9363292,17.6488766 C27.9775175,17.7577285 28,17.8762387 28,18 L28,18 L28,23 C28,23.5522847 27.5522847,24 27,24 L27,24 L5,24 C4.44771525,24 4,23.5522847 4,23 L4,23 L4,18 C4,17.8762387 4.02248254,17.7577285 4.06358624,17.6483308 L4.06367082,17.6488766 L7.04850499,10.6096184 C7.20521425,10.2400445 7.56773232,10 7.96915813,10 L24.0308419,10 Z M22.6500042,12 L9.34909058,12 C8.95073859,12 8.59037966,12.2364281 8.43177316,12.6018433 L6.522,17 L8.58578644,17 C8.80680018,17 9.02027046,17.0731645 9.19381595,17.2060806 L9.29289322,17.2928932 L11.7071068,19.7071068 C11.8946432,19.8946432 12.1489971,20 12.4142136,20 L12.4142136,20 L19.5857864,20 C19.8510029,20 20.1053568,19.8946432 20.2928932,19.7071068 L20.2928932,19.7071068 L22.7071068,17.2928932 C22.8946432,17.1053568 23.1489971,17 23.4142136,17 L23.4142136,17 L25.477,17 L23.5672688,12.6017218 C23.4086331,12.2363717 23.0483081,12 22.6500042,12 Z" id="Combined-Shape" fill="#000000"></path>
        <path d="M14,5 L14,13 L14,13 L12.4142136,13 C11.8619288,13 11.4142136,13.4477153 11.4142136,14 C11.4142136,14.2652165 11.5195704,14.5195704 11.7071068,14.7071068 L15.2928932,18.2928932 C15.6834175,18.6834175 16.3165825,18.6834175 16.7071068,18.2928932 L20.2928932,14.7071068 C20.6834175,14.3165825 20.6834175,13.6834175 20.2928932,13.2928932 C20.1053568,13.1053568 19.8510029,13 19.5857864,13 L18,13 L18,13 L18,5 C18,4.44771525 17.5522847,4 17,4 L15,4 C14.4477153,4 14,4.44771525 14,5 Z" id="Path-5" fill="#000000"></path>
    </g>
</svg>