<?xml version="1.0" encoding="UTF-8"?>
<svg width="32px" height="32px" viewBox="0 0 32 32" version="1.1" xmlns="http://www.w3.org/2000/svg" xmlns:xlink="http://www.w3.org/1999/xlink">
    <title>icon-users</title>
    <g id="icon-users" stroke="none" stroke-width="1" fill="none" fill-rule="evenodd">
        <g id="Group" transform="translate(11.000000, 7.000000)" fill="#000000" fill-opacity="0.25" stroke="#000000" stroke-width="2">
            <circle id="Oval-Copy" cx="8" cy="6" r="5"></circle>
            <path d="M0,19 C2.66666667,19.6666667 5.33333333,20 8,20 C10.6666667,20 13.3333333,19.6666667 16,19 C15.5151515,13.6666667 12.8484848,11 8,11 C3.15151515,11 0.484848485,13.6666667 0,19 Z" id="Path-43" stroke-linejoin="round"></path>
        </g>
        <g id="Group-Copy" transform="translate(3.999959, 4.000000)" fill="#000000" fill-rule="nonzero">
            <path d="M9.00004112,1 C6.00004112,1 4.00004112,3 4.00004112,6 C4.00004112,8 5.00004112,9.66666667 7.00004112,11 C3.00004112,13 1.00004112,15.6666667 1.00004112,19 C2.33337446,19.6666667 4.33337446,20 7.00004112,20 C9.00004112,16 11.0000411,14 13.0000411,14 C11.6667078,13.3333333 10.6667078,12.3333333 10.0000411,11 C10.0000411,9 10.3333745,7.33333333 11.0000411,6 C11.6667078,4.66666667 12.6667078,4 14.0000411,4 C12.6667078,2 11.0000411,1 9.00004112,1 Z" id="Path-45" fill-opacity="0.25"></path>
            <path d="M9.00004112,0 C11.6178708,0 13.8441296,1.67651453 14.663712,4.01443815 C13.9605302,4.06621691 13.3188721,4.28369198 12.7508465,4.60992142 C12.1879618,3.08670148 10.7209078,2 9.00004112,2 C6.79090212,2 5.00004112,3.790861 5.00004112,6 C5.00004112,8.209139 6.79090212,10 9.00004112,10 C9.38939961,10 9.76576483,9.94436923 10.121622,9.8406225 C10.3215922,10.5794797 10.7779603,11.4044448 11.4889816,12.3142943 C10.8263088,12.1243795 10.0875723,12.021605 9.27239515,12.003064 L9.27239515,12.003064 L9.00004112,12 C4.96458119,12 2.7317366,13.975262 2.10236915,18.195837 L2.10236915,18.195837 L2.09704112,18.23 L2.65392602,18.3506477 C4.16544053,18.6598729 5.67614173,18.8585943 7.18637105,18.9469463 C7.0619639,19.2961661 7.00004112,19.648083 7.00004112,20 C7.00004112,20.3494364 7.11197143,20.6683463 7.33583205,20.9567298 C5.1423864,20.8474618 2.94908768,20.518038 0.757505497,19.9701425 C0.279284966,19.8505874 -0.0404806334,19.4003783 0.00414791606,18.9094643 C0.393449965,14.6271417 2.15835847,11.8287961 5.20268156,10.6448731 C3.85823255,9.54549 3.00004112,7.87296567 3.00004112,6 C3.00004112,2.6862915 5.68633262,0 9.00004112,0 Z" id="Combined-Shape"></path>
        </g>
    </g>
</svg>