<?xml version="1.0" standalone="no"?>
<!DOCTYPE svg PUBLIC "-//W3C//DTD SVG 20010904//EN"
 "http://www.w3.org/TR/2001/REC-SVG-20010904/DTD/svg10.dtd">
<svg version="1.0" xmlns="http://www.w3.org/2000/svg"
 width="752.000000pt" height="752.000000pt" viewBox="0 0 752.000000 752.000000"
 preserveAspectRatio="xMidYMid meet">

<g transform="translate(0.000000,752.000000) scale(0.100000,-0.100000)"
fill="#000000" stroke="none">
<path d="M3695 5931 c-16 -4 -46 -16 -66 -27 -20 -10 -470 -332 -999 -714
-672 -485 -972 -707 -992 -734 -61 -85 -59 -22 -56 -1402 l3 -1259 23 -46 c29
-59 82 -112 141 -141 l46 -23 1965 0 1965 0 45 21 c56 27 113 83 142 143 l23
46 3 1259 c3 1381 5 1317 -57 1402 -20 29 -309 243 -994 736 -530 383 -983
706 -1006 717 -45 23 -139 35 -186 22z m771 -1136 c379 -273 690 -500 692
-504 4 -11 -1387 -1013 -1402 -1009 -16 4 -1396 999 -1396 1007 0 3 73 59 163
123 89 64 403 290 697 502 294 212 540 384 546 382 6 -2 321 -228 700 -501z
m-1583 -1590 c388 -280 727 -521 753 -535 64 -33 152 -38 219 -13 31 12 320
214 750 524 385 277 715 515 733 527 l32 23 0 -790 0 -791 -1610 0 -1610 0 0
790 c0 656 2 790 13 783 8 -4 331 -237 720 -518z"/>
</g>
</svg>
