<?xml version="1.0" encoding="UTF-8"?>
<svg width="32px" height="32px" viewBox="0 0 32 32" version="1.1" xmlns="http://www.w3.org/2000/svg" xmlns:xlink="http://www.w3.org/1999/xlink">
    <title>icon-admin</title>
    <g id="icon-admin" stroke="none" stroke-width="1" fill="none" fill-rule="evenodd">
        <path d="M14.1197675,4.14969184 C15.3479527,3.95355096 16.6154273,3.94715577 17.8784414,4.14830236 C17.8463829,5.35392861 18.5478396,6.51026013 19.7283935,6.99926156 C20.9090597,7.4883095 22.2227144,7.16666446 23.052496,6.29146594 C24.0878139,7.04231966 24.9795878,7.94310486 25.7093766,8.95019932 C24.8348298,9.78021308 24.5136162,11.0932841 25.0024896,12.2735245 C25.3193845,13.038349 25.9159347,13.6019334 26.6246039,13.8954738 C27.0093437,14.0548383 27.4272319,14.134652 27.851148,14.1236813 C28.0467493,15.3519031 28.0525348,16.6195824 27.850941,17.8824077 C26.646259,17.851397 25.4910905,18.5527403 25.0024256,19.7326406 C24.5138673,20.9121246 24.8341798,22.2242374 25.7072687,23.0541965 C24.956247,24.0894414 24.0555083,24.9810997 23.0482778,25.7108949 C22.7566295,25.4044488 22.4057174,25.1662755 22.021876,25.0072832 C21.3132629,24.713766 20.4927883,24.6904653 19.7280985,25.0073485 L19.889,24.947 L19.8897977,22.4148654 C21.9920707,21.1375882 23.4131656,18.856266 23.4961588,16.2422923 L23.5,16 C23.5,11.8655313 20.1530313,8.5 16,8.5 C11.846875,8.5 8.5,11.8655313 8.5,16 C8.5,18.7148812 9.94318303,21.0982749 12.1101607,22.4148654 L12.1102086,24.9466486 C10.9741037,24.5488563 9.7421767,24.8779234 8.94929851,25.7107187 C7.91386428,24.9601457 7.02208637,24.0596878 6.2920361,23.0527481 C7.16374022,22.2226094 7.48322375,20.9116505 6.99507398,19.733157 C6.67823525,18.9683558 6.08170827,18.4047153 5.3729829,18.1111516 C4.98925376,17.9522058 4.57253908,17.8724177 4.14975798,17.8828717 C3.95358159,16.654609 3.94716079,15.3871929 4.14813698,14.1241117 C5.35235048,14.1546652 6.50668237,13.4534359 6.99528714,12.2738396 C7.48400819,11.0939626 7.16320801,9.78112145 6.28933868,8.95129959 C7.03970979,7.91571945 7.94027439,7.02352854 8.94698994,6.29338845 C9.23909874,6.6009463 9.59083543,6.83998742 9.97568757,6.9993984 C10.6843568,7.2929388 11.5048314,7.31623955 12.2696102,6.99945898 C13.4499778,6.51044346 14.1513037,5.35488589 14.1197675,4.14969184 Z" id="Shape" fill="#000000" fill-rule="nonzero"></path>
        <path d="M15.0434511,10.3023537 C15.4461765,10.4489337 15.1767873,11.1893412 14.8494951,12.0884578 C14.6726651,12.5742339 14.355403,13.4458575 13.8977086,14.7033286 C13.7686495,15.0596001 13.8520458,15.4582143 14.1138089,15.7321973 L15.3200628,17.0062175 C15.536468,17.2347803 15.8478561,17.3481162 16.1605494,17.3121296 L17.9035179,17.1115386 C18.2816139,17.069773 18.6026151,16.8162768 18.7318171,16.4584964 C19.1383595,15.341695 19.456319,14.4683348 19.6856956,13.8384156 C19.9113339,13.2187627 20.2788814,12.2078945 20.6816068,12.3544745 C21.0843323,12.5010546 21.6480734,13.6393938 21.9125194,14.6568697 C22.2077585,15.7928242 22.1735084,17.026922 21.741724,18.2132399 C21.2249399,19.6330924 20.2279344,20.739337 19.0008857,21.4153138 L19,28 L13,28 L13.0003996,21.0740093 C12.5820276,20.8642301 12.1876884,20.6301586 11.8327546,20.377398 C10.2571287,18.7791966 9.64676257,16.3582204 10.4654125,14.1089982 C10.8947672,12.929356 11.6556006,11.9661854 12.6044395,11.2863892 C13.4647506,10.6700189 14.6407257,10.1557736 15.0434511,10.3023537 Z" id="Path-2" fill-opacity="0.25" fill="#000000" fill-rule="nonzero"></path>
        <path d="M15.0434511,10.3023537 C15.4461765,10.4489337 15.1767873,11.1893412 14.8494951,12.0884578 C14.6726651,12.5742339 14.355403,13.4458575 13.8977086,14.7033286 C13.7686495,15.0596001 13.8520458,15.4582143 14.1138089,15.7321973 L15.3200628,17.0062175 C15.536468,17.2347803 15.8478561,17.3481162 16.1605494,17.3121296 L17.9035179,17.1115386 C18.2816139,17.069773 18.6026151,16.8162768 18.7318171,16.4584964 C19.1383595,15.341695 19.456319,14.4683348 19.6856956,13.8384156 C19.9113339,13.2187627 20.2788814,12.2078945 20.6816068,12.3544745 C21.0843323,12.5010546 21.6480734,13.6393938 21.9125194,14.6568697 C22.2077585,15.7928242 22.1735084,17.026922 21.741724,18.2132399 C21.2249399,19.6330924 20.2279344,20.739337 19.0008857,21.4153138 L19,28 L13,28 L13.0003996,21.0740093 C12.5820276,20.8642301 12.1876884,20.6301586 11.8327546,20.377398 C10.2571287,18.7791966 9.64676257,16.3582204 10.4654125,14.1089982 C10.8947672,12.929356 11.6556006,11.9661854 12.6044395,11.2863892 C13.4647506,10.6700189 14.6407257,10.1557736 15.0434511,10.3023537 Z" id="Path-2-Copy" fill-opacity="0.25" fill="#000000" fill-rule="nonzero"></path>
    </g>
</svg>