<?xml version="1.0" encoding="UTF-8"?>
<svg width="32px" height="32px" viewBox="0 0 32 32" version="1.1" xmlns="http://www.w3.org/2000/svg" xmlns:xlink="http://www.w3.org/1999/xlink">
    <title>icon-info</title>
    <g id="icon-info" stroke="none" stroke-width="1" fill="none" fill-rule="evenodd">
        <circle id="Oval" fill-opacity="0.25" fill="#000000" fill-rule="nonzero" cx="16" cy="16" r="11"></circle>
        <path d="M16,4 C22.627417,4 28,9.372583 28,16 C28,22.627417 22.627417,28 16,28 C9.372583,28 4,22.627417 4,16 C4,9.372583 9.372583,4 16,4 Z M16,6 C10.4771525,6 6,10.4771525 6,16 C6,21.5228475 10.4771525,26 16,26 C21.5228475,26 26,21.5228475 26,16 C26,10.4771525 21.5228475,6 16,6 Z" id="Oval" fill="#000000" fill-rule="nonzero"></path>
        <g id="i" transform="translate(13.596500, 8.650250)" fill="#000000" fill-rule="nonzero">
            <path d="M3.458,0.61275 C2.641,-0.20425 2.299,-0.20425 1.482,0.61275 C0.703,1.42975 0.703,1.77175 1.482,2.58875 C2.299,3.36775 2.641,3.36775 3.458,2.58875 C4.275,1.77175 4.275,1.42975 3.458,0.61275 Z M4.541,13.43775 C4.237,13.22875 4.028,13.00075 3.895,12.75375 C3.743,12.44975 3.667,11.78475 3.667,10.75875 L3.667,4.79275 C3.667,4.41275 3.515,4.22275 3.211,4.22275 C3.116,4.22275 2.869,4.29875 2.451,4.45075 C1.9,4.65975 1.273,4.84975 0.57,4.98275 C0.19,5.07775 0,5.22975 0,5.45775 C0,5.62875 0.171,5.78075 0.513,5.91375 C0.836,6.04675 1.045,6.21775 1.178,6.44575 C1.273,6.63575 1.33,7.09175 1.33,7.83275 L1.33,10.75875 C1.33,11.76575 1.254,12.44975 1.102,12.77275 C0.988,13.01975 0.76,13.24775 0.437,13.43775 C0.171,13.58975 0.038,13.76075 0.038,13.93175 C0.038,14.21675 0.247,14.34975 0.665,14.34975 L4.313,14.34975 C4.731,14.34975 4.94,14.21675 4.94,13.93175 C4.94,13.77975 4.807,13.60875 4.541,13.43775 Z" id="Shape"></path>
        </g>
    </g>
</svg>