<?xml version="1.0" encoding="UTF-8"?>
<svg width="32px" height="32px" viewBox="0 0 32 32" version="1.1" xmlns="http://www.w3.org/2000/svg" xmlns:xlink="http://www.w3.org/1999/xlink">
    <title>icon-database</title>
    <g id="icon-database" stroke="none" stroke-width="1" fill="none" fill-rule="evenodd">
        <g id="Group" transform="translate(7.000000, 4.027280)" fill="#000000" fill-rule="nonzero">
            <path d="M1,4.35733582 C1.85010762,2.10092557 4.68379967,0.972720438 9.50107616,0.972720438 C14.3183526,0.972720438 17.1520447,2.10092557 18.0021523,4.35733582 L18.0021523,19.5881051 C17.1520447,21.8445153 14.3183526,22.9727204 9.50107616,22.9727204 C4.68379967,22.9727204 1.85010762,21.8445153 1,19.5881051 L1,4.35733582 Z" id="Path-21" fill-opacity="0.25"></path>
            <path d="M9.45234006,0 C12.0854463,0.03078777 14.4158908,0.464406131 16.0931394,1.19977375 C16.939815,1.57098752 17.6219297,2.02007168 18.0993969,2.53104628 C18.5258137,2.98738795 18.7912432,3.49373754 18.8729909,4.04006589 L18.8949918,4.24679344 L18.9000017,19.5408954 C18.9000017,20.1910412 18.648034,20.7903242 18.1842212,21.3241613 C17.716855,21.8620884 17.0311214,22.3342016 16.1765672,22.7226353 C14.4681057,23.4992087 12.0776269,23.9454409 9.45000171,23.9454409 C6.87476533,23.9454409 4.52727825,23.5168939 2.82656346,22.76875 C1.97517179,22.3942231 1.28417539,21.9386795 0.800857087,21.4187895 C0.372461032,20.9579776 0.105081091,20.4460276 0.0252304115,19.893283 L0.0041286242,19.6841117 L0,4.39824076 C0.0411179751,3.73574848 0.318817976,3.13194608 0.794543901,2.59810597 C1.27528901,2.05863354 1.96083727,1.59008475 2.80498706,1.2063803 C4.50838075,0.432110439 6.8643802,0 9.45234006,0 Z M16.8186049,17.3515967 C15.0942192,18.3268633 12.4245483,18.8999863 9.45000171,18.8999863 C6.47582624,18.8999863 3.80644893,18.3270078 2.08204541,17.351963 L2.08204541,17.351963 L2.08181989,19.540916 L2.0916901,19.6381033 C2.13732637,19.8643521 2.33823,20.0869052 2.63196666,20.3048068 C3.03040872,20.6003817 3.61020298,20.8787663 4.32591722,21.1173377 C5.65846008,21.5615186 7.45618785,21.8636227 9.45000171,21.8636227 C11.4155522,21.8636227 13.1905225,21.5700368 14.5175004,21.1277108 C15.2212271,20.8931352 15.7973843,20.6177264 16.2043093,20.3211348 C16.5539666,20.0662835 16.7817322,19.8014178 16.8181859,19.5285413 L16.8181859,19.5285413 L16.8186049,17.3515967 Z M16.8186049,12.3061421 C15.0942192,13.2814088 12.4245483,13.8545318 9.45000171,13.8545318 C6.47582624,13.8545318 3.80644893,13.2815533 2.08204541,12.3065085 L2.08204541,12.3065085 L2.08181989,14.4954615 L2.0916901,14.5926487 C2.13732637,14.8188976 2.33823,15.0414507 2.63196666,15.2593523 C3.03040872,15.5549272 3.61020298,15.8333117 4.32591722,16.0718831 C5.65846008,16.5160641 7.45618785,16.8181681 9.45000171,16.8181681 C11.4155522,16.8181681 13.1905225,16.5245822 14.5175004,16.0822563 C15.2212271,15.8476807 15.7973843,15.5722719 16.2043093,15.2756803 C16.5539666,15.0208289 16.7817322,14.7559633 16.8181859,14.4830868 L16.8181859,14.4830868 L16.8186049,12.3061421 Z M16.8186244,7.26067659 C15.0942392,8.23594992 12.4245595,8.80907724 9.45000171,8.80907724 C6.47545514,8.80907724 3.80578426,8.23595423 2.08139852,7.26067659 L2.08139852,7.26067659 L2.08181988,9.44994784 L2.0916901,9.54715461 C2.13732637,9.77344302 2.33823,9.99599613 2.63196666,10.2138978 C3.03040872,10.5094726 3.61020298,10.7878572 4.32591722,11.0264286 C5.65846008,11.4706095 7.45618785,11.7727136 9.45000171,11.7727136 C11.4156587,11.7727136 13.1907147,11.4790961 14.51773,11.0366676 C15.2214067,10.8020609 15.7975252,10.5266094 16.2044291,10.2299504 C16.5540856,9.97502837 16.7818394,9.71006474 16.8183254,9.43707102 L16.8183254,9.43707102 L16.8186244,7.26067659 Z M9.45000171,2.08180451 C7.45618785,2.08180451 5.65846008,2.38390857 4.32591722,2.82808953 C3.61020298,3.06666094 3.03040872,3.34504548 2.63196666,3.64062036 C2.29626762,3.88965079 2.08181989,4.14475662 2.08181989,4.40453178 C2.08181989,4.66430695 2.29626762,4.91941278 2.63196666,5.16844321 C3.03040872,5.46401809 3.61020298,5.74240263 4.32591722,5.98097404 C5.65846008,6.42515499 7.45618785,6.72725906 9.45000171,6.72725906 C11.4438156,6.72725906 13.2415433,6.42515499 14.5740862,5.98097404 C15.2898004,5.74240263 15.8695947,5.46401809 16.2680368,5.16844321 C16.6037358,4.91941278 16.8181835,4.66430695 16.8181835,4.40453178 C16.8181835,4.14475662 16.6037358,3.88965079 16.2680368,3.64062036 C15.8695947,3.34504548 15.2898004,3.06666094 14.5740862,2.82808953 C13.2415433,2.38390857 11.4438156,2.08180451 9.45000171,2.08180451 L9.45000171,2.08180451 Z" id="database"></path>
        </g>
    </g>
</svg>