<?xml version="1.0" encoding="UTF-8"?>
<svg width="32px" height="32px" viewBox="0 0 32 32" version="1.1" xmlns="http://www.w3.org/2000/svg" xmlns:xlink="http://www.w3.org/1999/xlink">
    <title>icon-lane_hours</title>
    <g id="icon-lane_hours" stroke="none" stroke-width="1" fill="none" fill-rule="evenodd">
        <circle id="Oval" fill-opacity="0.25" fill="#000000" fill-rule="nonzero" cx="16" cy="16" r="11"></circle>
        <path d="M16,4 C22.627417,4 28,9.372583 28,16 C28,22.627417 22.627417,28 16,28 C9.372583,28 4,22.627417 4,16 C4,9.372583 9.372583,4 16,4 Z M16,16 L16,9.00039066 L16,9.00039066 C15.4477153,9.00039066 15,8.55267541 15,8.00039066 L14.9998991,6.04938526 C13.9014292,6.1584592 12.8552519,6.44528802 11.8905389,6.8807001 L12.8662207,8.57213509 C13.1423631,9.05042771 12.978488,9.66201812 12.5001953,9.93816049 C12.0219027,10.2143029 11.4103123,10.0504277 11.1341699,9.57213509 L10.1577286,7.88318287 C9.28282824,8.51402044 8.51402044,9.28282824 7.88318287,10.1577286 L9.57213509,11.1341699 C10.0504277,11.4103123 10.2143029,12.0219027 9.93816049,12.5001953 C9.66201812,12.978488 9.05042771,13.1423631 8.57213509,12.8662207 L6.8807001,11.8905389 C6.44528802,12.8552519 6.1584592,13.9014292 6.04938526,14.9998991 L8.00039066,15 C8.55267541,15 9.00039066,15.4477153 9.00039066,16 C9.00039066,16.5522847 8.55267541,17 8.00039066,17 L6.04948449,17.0010997 C6.15863309,18.099205 6.44541999,19.1450405 6.8807001,20.1094611 L8.57213509,19.1337793 C9.05042771,18.8576369 9.66201812,19.021512 9.93816049,19.4998047 C10.2143029,19.9780973 10.0504277,20.5896877 9.57213509,20.8658301 L7.88318287,21.8422714 C8.51402044,22.7171718 9.28282824,23.4859796 10.1577286,24.1168171 L11.1341699,22.4278649 C11.4103123,21.9495723 12.0219027,21.7856971 12.5001953,22.0618395 C12.978488,22.3379819 13.1423631,22.9495723 12.8662207,23.4278649 L11.8905389,25.1192999 C12.8552519,25.554712 13.9014292,25.8415408 14.9998991,25.9506147 L15,23.9996093 C15,23.4473246 15.4477153,22.9996093 16,22.9996093 C16.5522847,22.9996093 17,23.4473246 17,23.9996093 L17.0010997,25.9505155 C18.099205,25.8413669 19.1450405,25.55458 20.1094611,25.1192999 L19.1337793,23.4278649 C18.8576369,22.9495723 19.021512,22.3379819 19.4998047,22.0618395 C19.9780973,21.7856971 20.5896877,21.9495723 20.8658301,22.4278649 L21.8422714,24.1168171 C22.7171718,23.4859796 23.4859796,22.7171718 24.1168171,21.8422714 L22.4278649,20.8658301 C21.9495723,20.5896877 21.7856971,19.9780973 22.0618395,19.4998047 C22.3379819,19.021512 22.9495723,18.8576369 23.4278649,19.1337793 L25.1192999,20.1094611 C25.55458,19.1450405 25.8413669,18.099205 25.9505155,17.0010997 L23.9996093,17 C23.4473246,17 22.9996093,16.5522847 22.9996093,16 L16,16 Z" id="Combined-Shape" fill="#000000" fill-rule="nonzero"></path>
    </g>
</svg>