<?xml version="1.0" encoding="UTF-8"?>
<svg width="32px" height="32px" viewBox="0 0 32 32" version="1.1" xmlns="http://www.w3.org/2000/svg" xmlns:xlink="http://www.w3.org/1999/xlink">
    <title>icon-day</title>
    <g id="icon-day" stroke="none" stroke-width="1" fill="none" fill-rule="evenodd">
        <circle id="Oval" stroke="#000000" stroke-width="2" fill-opacity="0.25" fill="#000000" stroke-linejoin="round" cx="16" cy="16" r="7"></circle>
        <rect id="Rectangle" fill="#000000" x="15" y="4" width="2" height="3" rx="1"></rect>
        <rect id="Rectangle" fill="#000000" transform="translate(21.250000, 6.906733) rotate(30.000000) translate(-21.250000, -6.906733) " x="20.25" y="5.40673326" width="2" height="3" rx="1"></rect>
        <rect id="Rectangle" fill="#000000" transform="translate(25.093267, 10.750000) rotate(60.000000) translate(-25.093267, -10.750000) " x="24.0932667" y="9.25" width="2" height="3" rx="1"></rect>
        <rect id="Rectangle" fill="#000000" transform="translate(26.500000, 16.000000) rotate(90.000000) translate(-26.500000, -16.000000) " x="25.5" y="14.5" width="2" height="3" rx="1"></rect>
        <rect id="Rectangle" fill="#000000" transform="translate(25.093267, 21.250000) rotate(120.000000) translate(-25.093267, -21.250000) " x="24.0932667" y="19.75" width="2" height="3" rx="1"></rect>
        <rect id="Rectangle" fill="#000000" transform="translate(21.250000, 25.093267) rotate(150.000000) translate(-21.250000, -25.093267) " x="20.25" y="23.5932667" width="2" height="3" rx="1"></rect>
        <rect id="Rectangle" fill="#000000" transform="translate(16.000000, 26.500000) rotate(180.000000) translate(-16.000000, -26.500000) " x="15" y="25" width="2" height="3" rx="1"></rect>
        <rect id="Rectangle" fill="#000000" transform="translate(10.750000, 25.093267) rotate(210.000000) translate(-10.750000, -25.093267) " x="9.75" y="23.5932667" width="2" height="3" rx="1"></rect>
        <rect id="Rectangle" fill="#000000" transform="translate(6.906733, 21.250000) rotate(240.000000) translate(-6.906733, -21.250000) " x="5.90673326" y="19.75" width="2" height="3" rx="1"></rect>
        <rect id="Rectangle" fill="#000000" transform="translate(5.500000, 16.000000) rotate(270.000000) translate(-5.500000, -16.000000) " x="4.5" y="14.5" width="2" height="3" rx="1"></rect>
        <rect id="Rectangle" fill="#000000" transform="translate(6.906733, 10.750000) rotate(300.000000) translate(-6.906733, -10.750000) " x="5.90673326" y="9.25" width="2" height="3" rx="1"></rect>
        <rect id="Rectangle" fill="#000000" transform="translate(10.750000, 6.906733) rotate(330.000000) translate(-10.750000, -6.906733) " x="9.75" y="5.40673326" width="2" height="3" rx="1"></rect>
    </g>
</svg>