<?xml version="1.0" encoding="UTF-8"?>
<svg width="32px" height="32px" viewBox="0 0 32 32" version="1.1" xmlns="http://www.w3.org/2000/svg" xmlns:xlink="http://www.w3.org/1999/xlink">
    <title>icon-night</title>
    <g id="icon-night" stroke="none" stroke-width="1" fill="none" fill-rule="evenodd">
        <path d="M8.22182541,7.44900114 C8.24039431,12.1816153 9.65460788,15.9528514 12.4644661,18.7627096 C15.2743243,21.5725679 19.0455605,22.9867814 23.7781746,23.0053503 C19.4824074,27.3011175 12.5175926,27.3011175 8.22182541,23.0053503 C3.9260582,18.7095831 3.9260582,11.7447684 8.22182541,7.44900114 Z" id="Path" stroke="#000000" stroke-width="2" fill-opacity="0.25" fill="#000000" stroke-linejoin="round"></path>
        <path d="M23.7131213,17.1872275 L22.2512393,18.21133 C22.0250717,18.3697687 21.7132867,18.3148637 21.5548479,18.0886961 C21.4664952,17.9625746 21.4411857,17.802777 21.4862405,17.6555258 L22.0084734,15.9487284 C22.0699978,15.74765 21.9991378,15.5295652 21.8311726,15.4030526 L20.4054469,14.3291853 C20.1848731,14.1630474 20.140744,13.8495556 20.3068819,13.6289818 C20.3995281,13.5059796 20.5436836,13.4325287 20.6976505,13.4298752 L22.4822901,13.3991188 C22.6925391,13.3954954 22.8780531,13.2607116 22.9464697,13.0618726 L23.5272047,11.3740837 C23.6170502,11.1129661 23.901562,10.9741226 24.1626796,11.063968 C24.3082908,11.11407 24.4226933,11.2284725 24.4727953,11.3740837 L25.0535303,13.0618726 C25.1219469,13.2607116 25.3074609,13.3954954 25.5177099,13.3991188 L27.3023495,13.4298752 C27.5784509,13.4346336 27.7984179,13.6623153 27.7936596,13.9384167 C27.7910061,14.0923836 27.7175552,14.2365391 27.5945531,14.3291853 L26.1688274,15.4030526 C26.0008622,15.5295652 25.9300022,15.74765 25.9915266,15.9487284 L26.5137595,17.6555258 C26.5945541,17.9195842 26.4459894,18.1991428 26.181931,18.2799374 C26.0346798,18.3249922 25.8748822,18.2996827 25.7487607,18.21133 L24.2868787,17.1872275 C24.114654,17.0665777 23.885346,17.0665777 23.7131213,17.1872275 Z" id="Star" fill="#000000"></path>
        <path d="M16.7131213,10.1872275 L15.2512393,11.21133 C15.0250717,11.3697687 14.7132867,11.3148637 14.5548479,11.0886961 C14.4664952,10.9625746 14.4411857,10.802777 14.4862405,10.6555258 L15.0084734,8.94872838 C15.0699978,8.74765002 14.9991378,8.52956524 14.8311726,8.40305258 L13.4054469,7.32918526 C13.1848731,7.16304739 13.140744,6.8495556 13.3068819,6.62898177 C13.3995281,6.50597961 13.5436836,6.4325287 13.6976505,6.42987524 L15.4822901,6.39911884 C15.6925391,6.39549542 15.8780531,6.26071161 15.9464697,6.06187265 L16.5272047,4.37408373 C16.6170502,4.11296612 16.901562,3.9741226 17.1626796,4.06396805 C17.3082908,4.11407002 17.4226933,4.2284725 17.4727953,4.37408373 L18.0535303,6.06187265 C18.1219469,6.26071161 18.3074609,6.39549542 18.5177099,6.39911884 L20.3023495,6.42987524 C20.5784509,6.43463356 20.7984179,6.66231533 20.7936596,6.93841671 C20.7910061,7.09238358 20.7175552,7.23653911 20.5945531,7.32918526 L19.1688274,8.40305258 C19.0008622,8.52956524 18.9300022,8.74765002 18.9915266,8.94872838 L19.5137595,10.6555258 C19.5945541,10.9195842 19.4459894,11.1991428 19.181931,11.2799374 C19.0346798,11.3249922 18.8748822,11.2996827 18.7487607,11.21133 L17.2868787,10.1872275 C17.114654,10.0665777 16.885346,10.0665777 16.7131213,10.1872275 Z" id="Star-Copy" fill="#000000"></path>
    </g>
</svg>