<?xml version="1.0" encoding="UTF-8"?>
<svg width="32px" height="32px" viewBox="0 0 32 32" version="1.1" xmlns="http://www.w3.org/2000/svg" xmlns:xlink="http://www.w3.org/1999/xlink">
    <title>icon-hundred</title>
    <g id="icon-hundred" stroke="none" fill="none">
        <g id="100" stroke-width="1" fill-rule="evenodd" transform="translate(1.5, 0)" fill="#000000">
            <path d="M6.31491713,15.4088398 C6.5359116,15.4751381 6.72928177,15.6022099 6.89502762,15.7900552 C7.06077348,15.9779006 7.17403315,16.1740331 7.23480663,16.378453 C7.29558011,16.5828729 7.28453039,16.7762431 7.20165746,16.9585635 C7.11878453,17.140884 6.93922652,17.2541436 6.66298343,17.2983425 C6.13259669,17.3867403 5.58563536,17.4281768 5.02209945,17.4226519 C4.45856354,17.4171271 3.9281768,17.4088398 3.43093923,17.3977901 C3.08839779,17.3977901 2.85359116,17.2928177 2.72651934,17.0828729 C2.59944751,16.8729282 2.56077348,16.6436464 2.61049724,16.3950276 C2.66022099,16.1464088 2.79558011,15.9198895 3.01657459,15.7154696 C3.23756906,15.5110497 3.51933702,15.4088398 3.86187845,15.4088398 L3.86187845,9.37569061 C3.71823204,9.40883978 3.57458564,9.40055249 3.43093923,9.35082873 C3.28729282,9.30110497 3.16022099,9.22651934 3.04972376,9.12707182 C2.93922652,9.02762431 2.85359116,8.90883978 2.79281768,8.77071823 C2.7320442,8.63259669 2.71270718,8.49171271 2.73480663,8.3480663 C2.7679558,8.10497238 2.89226519,7.85635359 3.10773481,7.60220994 C3.32320442,7.3480663 3.57458564,7.13812155 3.86187845,6.97237569 C4.14917127,6.80662983 4.44475138,6.70718232 4.74861878,6.67403315 C5.05248619,6.64088398 5.31491713,6.71823204 5.5359116,6.90607735 C5.62430939,6.97237569 5.70441989,7.06629834 5.77624309,7.1878453 C5.8480663,7.30939227 5.8839779,7.4198895 5.8839779,7.51933702 C5.89502762,8.84530387 5.89779006,10.1629834 5.89226519,11.4723757 C5.88674033,12.781768 5.8839779,14.0939227 5.8839779,15.4088398 L6.31491713,15.4088398 Z" id="Path" fill-rule="nonzero"></path>
            <path d="M14.8618785,12.6574586 C14.9281768,12.3259669 14.9558011,11.9337017 14.9447514,11.480663 C14.9337017,11.0276243 14.859116,10.5911602 14.7209945,10.1712707 C14.5828729,9.75138122 14.3729282,9.39779006 14.0911602,9.11049724 C13.8093923,8.82320442 13.4254144,8.67955801 12.9392265,8.67955801 C12.4088398,8.67955801 11.9834254,8.85082873 11.6629834,9.19337017 C11.3425414,9.5359116 11.1022099,9.95303867 10.941989,10.4447514 C10.781768,10.9364641 10.6850829,11.4447514 10.6519337,11.9696133 C10.6187845,12.4944751 10.6298343,12.9392265 10.6850829,13.3038674 C10.718232,13.5469613 10.7762431,13.801105 10.859116,14.0662983 C10.941989,14.3314917 11.0497238,14.5745856 11.1823204,14.7955801 C11.3149171,15.0165746 11.4834254,15.1933702 11.6878453,15.3259669 C11.8922652,15.4585635 12.1381215,15.519337 12.4254144,15.5082873 C12.8232044,15.4861878 13.1574586,15.3950276 13.4281768,15.2348066 C13.698895,15.0745856 13.9281768,14.8701657 14.1160221,14.621547 C14.3038674,14.3729282 14.4558011,14.0856354 14.5718232,13.7596685 C14.6878453,13.4337017 14.7790055,13.0939227 14.8453039,12.7403315 L14.8618785,12.6574586 Z M16.7679558,12.9889503 C16.6243094,13.7955801 16.3480663,14.5662983 15.9392265,15.301105 C15.5303867,16.0359116 14.961326,16.6298343 14.2320442,17.0828729 C13.8674033,17.2596685 13.480663,17.3756906 13.0718232,17.4309392 C12.6629834,17.4861878 12.2596685,17.480663 11.8618785,17.4143646 C11.4640884,17.3480663 11.0883978,17.2127072 10.7348066,17.0082873 C10.3812155,16.8038674 10.0773481,16.5303867 9.82320442,16.1878453 C9.27071823,15.4364641 8.91436464,14.6574586 8.75414365,13.8508287 C8.59392265,13.0441989 8.58563536,12.1933702 8.72928177,11.2983425 C8.82872928,10.6685083 9.00276243,10.0441989 9.25138122,9.42541436 C9.5,8.80662983 9.85082873,8.26519337 10.3038674,7.80110497 C10.6685083,7.42541436 11.0718232,7.14088398 11.5138122,6.94751381 C11.9558011,6.75414365 12.4060773,6.6519337 12.8646409,6.64088398 C13.3232044,6.62983425 13.7762431,6.71270718 14.2237569,6.88950276 C14.6712707,7.06629834 15.0828729,7.33149171 15.4585635,7.68508287 C15.8342541,8.03867403 16.1298343,8.4281768 16.3453039,8.85359116 C16.5607735,9.27900552 16.7127072,9.71823204 16.801105,10.1712707 C16.8895028,10.6243094 16.9281768,11.0911602 16.9171271,11.5718232 C16.9060773,12.0524862 16.8563536,12.5248619 16.7679558,12.9889503 Z" id="Shape" fill-rule="nonzero"></path>
            <path d="M24.2928177,12.6574586 C24.359116,12.3259669 24.3867403,11.9337017 24.3756906,11.480663 C24.3646409,11.0276243 24.2900552,10.5911602 24.1519337,10.1712707 C24.0138122,9.75138122 23.8038674,9.39779006 23.5220994,9.11049724 C23.2403315,8.82320442 22.8563536,8.67955801 22.3701657,8.67955801 C21.839779,8.67955801 21.4143646,8.85082873 21.0939227,9.19337017 C20.7734807,9.5359116 20.5331492,9.95303867 20.3729282,10.4447514 C20.2127072,10.9364641 20.1160221,11.4447514 20.0828729,11.9696133 C20.0497238,12.4944751 20.0607735,12.9392265 20.1160221,13.3038674 C20.1491713,13.5469613 20.2071823,13.801105 20.2900552,14.0662983 C20.3729282,14.3314917 20.480663,14.5745856 20.6132597,14.7955801 C20.7458564,15.0165746 20.9143646,15.1933702 21.1187845,15.3259669 C21.3232044,15.4585635 21.5690608,15.519337 21.8563536,15.5082873 C22.2541436,15.4861878 22.5883978,15.3950276 22.859116,15.2348066 C23.1298343,15.0745856 23.359116,14.8701657 23.5469613,14.621547 C23.7348066,14.3729282 23.8867403,14.0856354 24.0027624,13.7596685 C24.1187845,13.4337017 24.2099448,13.0939227 24.2762431,12.7403315 L24.2928177,12.6574586 Z M26.198895,12.9889503 C26.0552486,13.7955801 25.7790055,14.5662983 25.3701657,15.301105 C24.961326,16.0359116 24.3922652,16.6298343 23.6629834,17.0828729 C23.2983425,17.2596685 22.9116022,17.3756906 22.5027624,17.4309392 C22.0939227,17.4861878 21.6906077,17.480663 21.2928177,17.4143646 C20.8950276,17.3480663 20.519337,17.2127072 20.1657459,17.0082873 C19.8121547,16.8038674 19.5082873,16.5303867 19.2541436,16.1878453 C18.7016575,15.4364641 18.3453039,14.6574586 18.1850829,13.8508287 C18.0248619,13.0441989 18.0165746,12.1933702 18.160221,11.2983425 C18.2596685,10.6685083 18.4337017,10.0441989 18.6823204,9.42541436 C18.9309392,8.80662983 19.281768,8.26519337 19.7348066,7.80110497 C20.0994475,7.42541436 20.5027624,7.14088398 20.9447514,6.94751381 C21.3867403,6.75414365 21.8370166,6.6519337 22.2955801,6.64088398 C22.7541436,6.62983425 23.2071823,6.71270718 23.6546961,6.88950276 C24.1022099,7.06629834 24.5138122,7.33149171 24.8895028,7.68508287 C25.2651934,8.03867403 25.5607735,8.4281768 25.7762431,8.85359116 C25.9917127,9.27900552 26.1436464,9.71823204 26.2320442,10.1712707 C26.320442,10.6243094 26.359116,11.0911602 26.3480663,11.5718232 C26.3370166,12.0524862 26.2872928,12.5248619 26.198895,12.9889503 Z" id="Shape" fill-rule="nonzero"></path>
        </g>
        <path d="M5,22 C11,20 18.3333333,19.6666667 27,21" id="Path" stroke="#000000" stroke-width="2" stroke-linecap="round"></path>
        <path d="M8,24.5 C12.6666667,22.8333333 19,22.6666667 27,24" id="Path-Copy" stroke="#000000" stroke-width="2" stroke-linecap="round"></path>
    </g>
</svg>