<?xml version="1.0" encoding="UTF-8"?>
<svg width="32px" height="32px" viewBox="0 0 32 32" version="1.1" xmlns="http://www.w3.org/2000/svg" xmlns:xlink="http://www.w3.org/1999/xlink">
    <title>icon-home</title>
    <g id="icon-home" stroke="none" stroke-width="1" fill="none" fill-rule="evenodd">
        <polygon id="Path-7" fill-opacity="0.25" fill="#000000" fill-rule="nonzero" points="4 14 10 8 16 14 27.5 14 27.5 24 4.5 24"></polygon>
        <path d="M10.642497,7.23447684 L10.7061044,7.29289322 L13.4134976,10 L14.9989976,10 L14.9989976,8.5 C14.9989976,7.9728191 15.4069365,7.54091744 15.9243665,7.50274287 L15.9989976,7.5 L19.4989976,7.5 C20.0261785,7.5 20.4580802,7.9079389 20.4962548,8.42536883 L20.4989976,8.5 L20.4989976,10 L24.9989976,10 C25.2347456,10 25.4619108,10.0832449 25.6411943,10.2334566 L25.7061044,10.2928932 L29.7061044,14.2928932 C30.3175409,14.9043297 29.9152167,15.9370255 29.0764366,15.9972434 L28.9989976,16 L28.4989976,16 L28.4989976,23 L28.9989976,23 C29.5512824,23 29.9989976,23.4477153 29.9989976,24 C29.9989976,24.5522847 29.5512824,25 28.9989976,25 L2.99899762,25 C2.44671287,25 1.99899762,24.5522847 1.99899762,24 C1.99899762,23.4477153 2.44671287,23 2.99899762,23 L3.49899762,23 L3.4999766,15.8657453 C3.14142868,16.0735317 2.68142142,16.0401244 2.35549823,15.7655232 L2.29189084,15.7071068 C1.92192046,15.3371364 1.90244833,14.7493943 2.23347447,14.3565006 L2.29189084,14.2928932 L9.29189084,7.29289322 C9.66186122,6.92292284 10.2496033,6.90345071 10.642497,7.23447684 Z M9.99899762,9.4145 L5.49899762,13.914 L5.49899762,23 L7.99899762,23 L7.99899762,20.5 C7.99899762,20.2238576 8.22285525,20 8.49899762,20 L11.4989976,20 C11.77514,20 11.9989976,20.2238576 11.9989976,20.5 L11.9989976,23 L15.9989976,23 L15.9989976,19 C15.9989976,18.4728191 16.4069365,18.0409174 16.9243665,18.0027429 L16.9989976,18 L24.4989976,18 C25.0261785,18 25.4580802,18.4079389 25.4962548,18.9253688 L25.4989976,19 L25.4989976,23 L26.4989976,23 L26.4989976,16 L16.9989976,16 C16.7632496,16 16.5360844,15.9167551 16.3568009,15.7665434 L16.2918908,15.7071068 L9.99899762,9.4145 Z M23.4989976,20 L17.9989976,20 L17.9989976,23 L23.4989976,23 L23.4989976,20 Z M8.49899762,15 C8.77514,15 8.99899762,15.2238576 8.99899762,15.5 L8.99899762,17.5 C8.99899762,17.7761424 8.77514,18 8.49899762,18 L6.99899762,18 C6.72285525,18 6.49899762,17.7761424 6.49899762,17.5 L6.49899762,15.5 C6.49899762,15.2238576 6.72285525,15 6.99899762,15 L8.49899762,15 Z M12.9989976,15 C13.27514,15 13.4989976,15.2238576 13.4989976,15.5 L13.4989976,17.5 C13.4989976,17.7761424 13.27514,18 12.9989976,18 L11.4989976,18 C11.2228552,18 10.9989976,17.7761424 10.9989976,17.5 L10.9989976,15.5 C10.9989976,15.2238576 11.2228552,15 11.4989976,15 L12.9989976,15 Z" id="Combined-Shape" fill="#000000"></path>
    </g>
</svg>