<?xml version="1.0" encoding="UTF-8"?>
<svg width="32px" height="32px" viewBox="0 0 32 32" version="1.1" xmlns="http://www.w3.org/2000/svg" xmlns:xlink="http://www.w3.org/1999/xlink">
    <title>icon-internal</title>
    <g id="icon-internal" stroke="none" stroke-width="1" fill="none" fill-rule="evenodd">
        <path d="M27.6421356,7.12132034 L18.1568542,16.6066017 L19.2781746,17.7279221 C19.6686989,18.1184464 19.6686989,18.7516113 19.2781746,19.1421356 C19.0906382,19.329672 18.8362843,19.4350288 18.5710678,19.4350288 L13.5,19.4350288 C12.9477153,19.4350288 12.5,18.9873136 12.5,18.4350288 L12.5,13.363961 C12.5,12.8116763 12.9477153,12.363961 13.5,12.363961 C13.7652165,12.363961 14.0195704,12.4693179 14.2071068,12.6568542 L15.3284271,13.7781746 L24.8137085,4.29289322 C25.2042328,3.90236893 25.8373978,3.90236893 26.2279221,4.29289322 L27.6421356,5.70710678 C28.0326599,6.09763107 28.0326599,6.73079605 27.6421356,7.12132034 Z" id="Path-5" fill="#000000"></path>
        <circle id="Oval" fill-opacity="0.25" fill="#000000" fill-rule="nonzero" cx="16" cy="16" r="11"></circle>
        <path d="M16,4 C22.627417,4 28,9.372583 28,16 C28,22.627417 22.627417,28 16,28 C9.372583,28 4,22.627417 4,16 C4,9.372583 9.372583,4 16,4 Z M16,6 C10.4771525,6 6,10.4771525 6,16 C6,21.5228475 10.4771525,26 16,26 C21.5228475,26 26,21.5228475 26,16 C26,10.4771525 21.5228475,6 16,6 Z" id="Oval" fill="#000000" fill-rule="nonzero"></path>
    </g>
</svg>