<?xml version="1.0" encoding="UTF-8"?>
<svg width="32px" height="32px" viewBox="0 0 32 32" version="1.1" xmlns="http://www.w3.org/2000/svg" xmlns:xlink="http://www.w3.org/1999/xlink">
    <title>icon-comment</title>
    <g id="icon-comment" stroke="none" stroke-width="1" fill="none" fill-rule="evenodd">
        <polygon id="Path-8" fill-opacity="0.25" fill="#000000" fill-rule="nonzero" points="3 28 3 7 5 5 27 5 29 8 29 21 26 23 8 23"></polygon>
        <path d="M25.5,4 C28.3187822,4 30,6.07728266 30,8.5 L30,8.5 L30,30 L23.5,24 L6.5,24 C3.75,24 2.0825197,22.2198526 2,19.5 L2,19.5 L2,8.5 C2,6.07705939 3.75,4 6.5,4 L6.5,4 Z M25.5,6 L6.5,6 C5.08407611,6 4,7.03399348 4,8.5 L4,8.5 L4,19.5 C4,20.9793262 5.08529838,22.0139553 6.5,22 L6.5,22 L24.5,22 L28,25.5 L28,8.5 C28,7.07297704 26.980046,6.06290826 25.5,6 L25.5,6 Z" id="Rectangle-204-Copy" fill="#000000" fill-rule="nonzero" transform="translate(16.000000, 17.000000) scale(-1, 1) translate(-16.000000, -17.000000) "></path>
        <g id="Group" transform="translate(16.000000, 14.000000) scale(1, -1) translate(-16.000000, -14.000000) translate(11.000000, 10.500000)" fill="#000000">
            <path d="M2.70710678,0.292893219 C3.07707716,0.6628636 3.09654929,1.25060568 2.76552316,1.6434994 L2.70710678,1.70710678 C2.47241396,1.94179961 2.28377328,2.37538538 2.16055327,3.00521252 C3.18996602,3.08803553 4,3.94942098 4,5 C4,6.1045695 3.1045695,7 2,7 C0.8954305,7 0,6.1045695 0,5 L0,5 C0,2.75844815 0.390887238,1.1948992 1.29289322,0.292893219 C1.68341751,-0.0976310729 2.31658249,-0.0976310729 2.70710678,0.292893219 Z" id="Combined-Shape"></path>
            <path d="M8.70710678,0.292893219 C9.07707716,0.6628636 9.09654929,1.25060568 8.76552316,1.6434994 L8.70710678,1.70710678 C8.47241396,1.94179961 8.28377328,2.37538538 8.16055327,3.00521252 C9.18996602,3.08803553 10,3.94942098 10,5 C10,6.1045695 9.1045695,7 8,7 C6.8954305,7 6,6.1045695 6,5 L6,5 C6,2.75844815 6.39088724,1.1948992 7.29289322,0.292893219 C7.68341751,-0.0976310729 8.31658249,-0.0976310729 8.70710678,0.292893219 Z" id="Combined-Shape-Copy"></path>
        </g>
    </g>
</svg>