<?xml version="1.0" encoding="UTF-8"?>
<svg width="32px" height="32px" viewBox="0 0 32 32" version="1.1" xmlns="http://www.w3.org/2000/svg" xmlns:xlink="http://www.w3.org/1999/xlink">
    <title>icon-new_parent</title>
    <g id="icon-new_parent" stroke="none" stroke-width="1" fill="none" fill-rule="evenodd">
        <circle id="Oval-Copy" stroke="#000000" stroke-width="2" fill-opacity="0.25" fill="#000000" stroke-linejoin="round" cx="8" cy="24" r="3"></circle>
        <circle id="Oval-Copy-2" stroke="#000000" stroke-width="2" fill-opacity="0.25" fill="#000000" stroke-linejoin="round" cx="24" cy="24" r="3"></circle>
        <path d="M8,21 L8,18 C8,16.8954305 8.8954305,16 10,16 L22,16 C23.1045695,16 24,16.8954305 24,18 L24,21 L24,21" id="Path-100" stroke="#000000" stroke-width="2" stroke-linejoin="round"></path>
        <rect id="Rectangle" fill="#000000" x="15" y="13" width="2" height="3"></rect>
        <circle id="Oval-Copy-2" stroke="#000000" stroke-width="2" fill-opacity="0.25" fill="#000000" stroke-linejoin="round" cx="16" cy="8" r="5"></circle>
        <path d="M16,5 C16.5522847,5 17,5.44771525 17,6 L17,6.999 L18,7 C18.5522847,7 19,7.44771525 19,8 C19,8.55228475 18.5522847,9 18,9 L17,9 L17,10 C17,10.5522847 16.5522847,11 16,11 C15.4477153,11 15,10.5522847 15,10 L15,9 L14,9 C13.4477153,9 13,8.55228475 13,8 C13,7.44771525 13.4477153,7 14,7 L15,7 L15,6 C15,5.44771525 15.4477153,5 16,5 Z" id="Combined-Shape" fill="#000000"></path>
    </g>
</svg>