<?xml version="1.0" encoding="UTF-8"?>
<svg width="32px" height="32px" viewBox="0 0 32 32" version="1.1" xmlns="http://www.w3.org/2000/svg" xmlns:xlink="http://www.w3.org/1999/xlink">
    <title>icon-request</title>
    <g id="icon-request" stroke="none" stroke-width="1" fill="none" fill-rule="evenodd">
        <rect id="Rectangle" fill="#000000" x="3" y="22" width="26" height="2" rx="1"></rect>
        <path d="M16,10 C9.76666667,10 6.1,13.3333333 5,20 L27,20 C25.9,13.3333333 22.2333333,10 16,10 Z" id="Path-15" fill-opacity="0.25" fill="#000000" fill-rule="nonzero"></path>
        <path d="M18,6 C18.5522847,6 19,6.44771525 19,7 C19,7.55228475 18.5522847,8 18,8 L17,8 L17.0011206,9.0273451 C22.7593647,9.34835676 26.4412026,12.491916 27.8743973,18.2579997 L27.9559531,18.5995288 C27.9850469,18.7319472 28,18.8663323 28,19.0011966 C27.9992658,20.1057658 27.00443,21.0006603 25.7786354,21 L25.7786354,21 L6.22347209,21 C6.06916477,21 5.91526806,20.9856806 5.76427623,20.957027 C4.56473788,20.7293917 3.79701938,19.669491 4.04730119,18.5914727 C5.41703077,12.6156077 9.12940057,9.35461639 15.0003257,9.02734392 L15,8 L14,8 C13.4477153,8 13,7.55228475 13,7 C13,6.44771525 13.4477153,6 14,6 L18,6 Z M16.000295,11 C10.5295625,11 7.27014884,13.5794491 6,18.9983064 L6,18.9983064 L26,19 L25.9197837,18.6716774 C24.5964829,13.4752398 21.3593799,11 16.000295,11 Z" id="Path-14" fill="#000000" fill-rule="nonzero"></path>
        <rect id="Rectangle" fill="#000000" x="15" y="20" width="2" height="3"></rect>
    </g>
</svg>