<?xml version="1.0" encoding="UTF-8"?>
<svg width="32px" height="32px" viewBox="0 0 32 32" version="1.1" xmlns="http://www.w3.org/2000/svg" xmlns:xlink="http://www.w3.org/1999/xlink">
    <title>icon-data_update</title>
    <g id="icon-data_update" stroke="none" stroke-width="1" fill="none" fill-rule="evenodd">
        <polygon id="Path-24" fill-opacity="0.25" fill="#000000" fill-rule="nonzero" points="5 5 5 27 19 27 19 9 15 5"></polygon>
        <path d="M18.5050032,9.47716753 L18.5050032,17.5045665 L18.5050032,17.5045665 L16.893555,17.5045665 C16.3412703,17.5045665 15.893555,17.9522817 15.893555,18.5045665 C15.893555,18.7707942 15.9997145,19.0260321 16.1885144,19.2137334 L19.8177918,22.8218941 C20.2078388,23.2096715 20.8378262,23.2096715 21.2278731,22.8218941 L24.8571505,19.2137334 C25.2488126,18.8243502 25.25066,18.1911879 24.8612768,17.7995258 C24.6735755,17.610726 24.4183376,17.5045665 24.1521099,17.5045665 L22.5406618,17.5045665 L22.5406618,17.5045665 L22.5406618,9.47716753 C22.5406618,8.92488278 22.0929465,8.47716753 21.5406618,8.47716753 L19.5050032,8.47716753 C18.9527184,8.47716753 18.5050032,8.92488278 18.5050032,9.47716753 Z" id="Path-5" fill="#000000" transform="translate(20.522832, 16.000000) rotate(-90.000000) translate(-20.522832, -16.000000) "></path>
        <path d="M15,4 C15.2652165,4 15.5195704,4.10535684 15.7071068,4.29289322 L15.7071068,4.29289322 L19.7071068,8.29289322 C19.8946432,8.4804296 20,8.73478351 20,9 L20,9 L20,27 C20,27.5522847 19.5522847,28 19,28 L19,28 L5,28 C4.44771525,28 4,27.5522847 4,27 L4,27 L4,5 C4,4.44771525 4.44771525,4 5,4 L5,4 Z M13.5,6 L6,6 L6,26 L18,26 L18,10.5 L14.5,10.5 C13.9477153,10.5 13.5,10.0522847 13.5,9.5 L13.5,6 Z M17.085,8.5 L15.5,6.915 L15.5,8.5 L17.085,8.5 Z" id="Path-22" fill="#000000"></path>
    </g>
</svg>