<?xml version="1.0" encoding="UTF-8"?>
<svg width="32px" height="32px" viewBox="0 0 32 32" version="1.1" xmlns="http://www.w3.org/2000/svg" xmlns:xlink="http://www.w3.org/1999/xlink">
    <title>icon-board</title>
    <g id="icon-board" stroke="none" stroke-width="1" fill="none" fill-rule="evenodd">
        <rect id="Rectangle" stroke="#000000" stroke-width="2" fill-opacity="0.25" fill="#000000" stroke-linejoin="round" x="5" y="5" width="22" height="22"></rect>
        <rect id="Rectangle" fill="#000000" x="7" y="7" width="5" height="2" rx="1"></rect>
        <rect id="Rectangle-Copy-2" fill="#000000" x="20" y="7" width="5" height="2" rx="1"></rect>
        <rect id="Rectangle-Copy" fill="#000000" x="13.5" y="7" width="5" height="2" rx="1"></rect>
        <rect id="Rectangle-Copy-5" fill="#000000" x="7" y="10" width="5" height="2" rx="1"></rect>
        <rect id="Rectangle-Copy-4" fill="#000000" x="20" y="10" width="5" height="2" rx="1"></rect>
        <rect id="Rectangle-Copy-3" fill="#000000" x="13.5" y="10" width="5" height="2" rx="1"></rect>
        <rect id="Rectangle-Copy-8" fill="#000000" x="7" y="13" width="5" height="2" rx="1"></rect>
        <rect id="Rectangle-Copy-7" fill="#000000" x="20" y="13" width="5" height="2" rx="1"></rect>
        <rect id="Rectangle-Copy-6" fill="#000000" x="13.5" y="13" width="5" height="2" rx="1"></rect>
        <rect id="Rectangle-Copy-11" fill="#000000" x="7" y="16" width="5" height="2" rx="1"></rect>
        <rect id="Rectangle-Copy-10" fill="#000000" x="20" y="16" width="5" height="2" rx="1"></rect>
        <rect id="Rectangle-Copy-9" fill="#000000" x="7" y="19" width="5" height="2" rx="1"></rect>
        <rect id="Rectangle-Copy-12" fill="#000000" x="7" y="22" width="5" height="2" rx="1"></rect>
    </g>
</svg>