<?xml version="1.0" encoding="UTF-8"?>
<svg width="32px" height="32px" viewBox="0 0 32 32" version="1.1" xmlns="http://www.w3.org/2000/svg" xmlns:xlink="http://www.w3.org/1999/xlink">
    <title>icon-link</title>
    <g id="icon-link" stroke="none" stroke-width="1" fill="none" fill-rule="evenodd">
        <g id="Group" transform="translate(16, 16) rotate(45) translate(-16, -16)translate(11, 0)" fill="#000000" fill-rule="nonzero">
            <path d="M5,0 C7.76142375,0 10,2.23857625 10,5 L10,14 C10,14.2118371 9.98682623,14.4205974 9.96125326,14.6255061 C9.74907057,14.3133626 9.50824898,14.0229676 9.24264069,13.7573593 C8.87334228,13.3880609 8.4561268,13.0666796 8.00112026,12.8033414 L8,5 C8,3.34314575 6.65685425,2 5,2 C3.34314575,2 2,3.34314575 2,5 L2,14 C2,15.6568542 3.34314575,17 5,17 C5.5265222,17 6.02136396,16.86436 6.45148858,16.6261166 C6.79165627,16.9830537 7,17.4671962 7,18 L7.0005324,18.5837237 C6.38792967,18.8514665 5.71131077,19 5,19 C2.23857625,19 0,16.7614237 0,14 L0,5 C0,2.23857625 2.23857625,0 5,0 Z" id="Rectangle"></path>
            <path d="M5,13 C7.76142375,13 10,15.2385763 10,18 L10,27 C10,27.2118371 9.98682623,27.4205974 9.96125326,27.6255061 C9.74907057,27.3133626 9.50824898,27.0229676 9.24264069,26.7573593 C8.87306934,26.387788 8.45551005,26.0662045 8.00011131,25.8027576 L8,18 C8,16.3431458 6.65685425,15 5,15 C3.34314575,15 2,16.3431458 2,18 L2,27 C2,28.6568542 3.34314575,30 5,30 C5.5265222,30 6.02136396,29.86436 6.45148858,29.6261166 C6.79165627,29.9830537 7,30.4671962 7,31 L6.99953894,31.5841577 C6.38719818,31.851627 5.71092628,32 5,32 C2.23857625,32 -1.15463195e-13,29.7614237 -1.15463195e-13,27 L-1.15463195e-13,18 C-1.15463195e-13,15.2385763 2.23857625,13 5,13 Z" id="Rectangle-Copy" transform="translate(5, 22.5) rotate(180) translate(-5, -22.5)"></path>
        </g>
    </g>
</svg>