<?xml version="1.0" encoding="UTF-8"?>
<svg width="32px" height="32px" viewBox="0 0 32 32" version="1.1" xmlns="http://www.w3.org/2000/svg" xmlns:xlink="http://www.w3.org/1999/xlink">
    <title>icon-step_investigate</title>
    <g id="icon-step_investigate" stroke="none" stroke-width="1" fill="none" fill-rule="evenodd">
        <g id="Group" transform="translate(16.000000, 15.950000) scale(-1, 1) translate(-16.000000, -15.950000) translate(4.050000, 4.000000)" fill="#000000" fill-rule="nonzero">
            <polygon id="Path-27" fill-opacity="0.25" points="22.95 20.45 15.95 13.95 13.95 13.95 13.45 16.45 19.95 22.95"></polygon>
            <polygon id="Path-27-Copy" fill-opacity="0.25" points="22.95 20.45 15.95 13.95 13.95 13.95 13.45 16.45 19.95 22.95"></polygon>
            <circle id="Oval" fill-opacity="0.25" cx="7.95" cy="7.95" r="7"></circle>
            <path d="M8.17321429,0 C10.4301851,0 12.4734887,0.91481817 13.9525495,2.39387904 C15.4316104,3.87293991 16.3464286,5.91624348 16.3464286,8.17321429 C16.3464286,9.80038276 15.8709314,11.3164929 15.0513086,12.5901732 L16.1464286,12.5892857 C16.376125,12.5892857 16.5979816,12.6653245 16.778345,12.8034624 L16.8813145,12.8936855 L23.5956003,19.6079712 C23.7985334,19.8109043 23.9,20.0768807 23.9,20.3428571 C23.9,20.5645042 23.8295371,20.7861512 23.6886113,20.9713148 L23.5956003,21.0777431 L21.0777431,23.5956003 C20.87481,23.7985334 20.6088336,23.9 20.3428571,23.9 C20.1212101,23.9 19.8995631,23.8295371 19.7143995,23.6886113 L19.6079712,23.5956003 L12.8936855,16.8813145 C12.7312656,16.7188946 12.6281568,16.5082508 12.5982989,16.2830364 L12.5892857,16.1464286 L12.5901732,15.0513086 C11.3164929,15.8709314 9.80038276,16.3464286 8.17321429,16.3464286 C5.91624348,16.3464286 3.87293991,15.4316104 2.39387904,13.9525495 C0.91481817,12.4734887 0,10.4301851 0,8.17321429 C0,5.91624348 0.91481817,3.87293991 2.39387904,2.39387904 C3.87293991,0.91481817 5.91624348,0 8.17321429,0 Z M15.45,14.45 L14.45,14.45 L14.45,15.45 L20.3428571,21.3902823 L21.3902823,20.3428571 L15.45,14.45 Z M8.17321429,2.07857143 C6.49022513,2.07857143 4.96656442,2.76073757 3.86365099,3.86365099 C2.76073757,4.96656442 2.07857143,6.49022513 2.07857143,8.17321429 C2.07857143,9.85620344 2.76073757,11.3798642 3.86365099,12.4827776 C4.96656442,13.585691 6.49022513,14.2678571 8.17321429,14.2678571 C9.85620344,14.2678571 11.3798642,13.585691 12.4827776,12.4827776 C13.585691,11.3798642 14.2678571,9.85620344 14.2678571,8.17321429 C14.2678571,6.49022513 13.585691,4.96656442 12.4827776,3.86365099 C11.3798642,2.76073757 9.85620344,2.07857143 8.17321429,2.07857143 Z" id="Combined-Shape"></path>
        </g>
        <circle id="Oval" fill="#000000" cx="20" cy="16" r="1"></circle>
        <path d="M20,13.5 C20,12 22,12 22,10 C22,8 19,7 18,9.5" id="Path-28" stroke="#000000" stroke-width="2" stroke-linecap="round"></path>
    </g>
</svg>