<?xml version="1.0" encoding="UTF-8"?>
<svg width="32px" height="32px" viewBox="0 0 32 32" version="1.1" xmlns="http://www.w3.org/2000/svg" xmlns:xlink="http://www.w3.org/1999/xlink">
    <title>icon-terrier</title>
    <g id="icon-terrier" stroke="none" stroke-width="1" fill="none" fill-rule="evenodd">
        <path d="M24.0357143,10.4952697 C23.75,11.5082273 23.5,12.2510629 23.2857143,12.7237764 C23.1785714,13.9393256 23.0714286,15.5600577 22.8571429,16.7756069 C22.7142857,17.585973 22.4285714,18.5314001 22,19.6118882 C22.0979575,22.6245625 22.1693861,24.3128252 22.2142857,24.6766763 C22.2816351,25.222453 22.75,25.4870424 22.75,25.8922254 C22.75,26.2974085 22.5357143,26.5 21.4642857,26.5 C20.3928571,26.5 19.6428571,26.094817 19.3214286,24.8792678 C19.1071429,24.0689017 18.9642857,23.2585356 18.8928571,22.4481695 C18.6071429,20.8949679 18.3571429,19.9495407 18.1428571,19.6118882 C17.8214286,19.1054094 15.1428571,18.2950433 13.3214286,18.2950433 C11.5,18.2950433 11.9285714,19.0041136 10.4285714,20.4222543 C8.92857143,21.840395 8.07142857,22.3468738 7.53571429,23.1572399 C7.2835098,23.5387454 6.89285714,23.7650144 6.89285714,24.4740848 C6.89285714,25.1831551 7.32142857,25.6777952 7.32142857,25.8922254 C7.32142857,26.1623475 6.92857143,26.364939 6.14285714,26.5 C5.21428571,26.5 4.64285714,26.3987042 4.42857143,26.1961127 C4.10714286,25.8922254 4,25.3857466 4,24.6766763 C4,24.2039627 4.17857143,23.2923009 4.53571429,21.9416907 C5.32142857,20.9287331 5.85714286,20.1858975 6.14285714,19.713184 C6.57142857,19.0041136 7.10714286,16.2691281 7.32142857,15.1548747 C7.46428571,14.4120391 7.85714286,13.7704993 8.5,13.2302552 C7.71428571,12.2172976 7.17857143,11.4069315 6.89285714,10.7991569 C6.46428571,9.88749509 6.25,8.36805867 6.67857143,8.26676291 C7.10714286,8.16546714 7.53571429,9.78619933 8.17857143,10.5965654 C8.60714286,11.1368095 9.14285714,11.6432883 9.78571429,12.1160018 C11.1428571,12.1160018 12.1428571,12.1160018 12.7857143,12.1160018 C13.75,12.1160018 15.0357143,12.2172976 16.1071429,11.9134103 C17.1785714,11.609523 18.3571429,11.1030442 19.5357143,9.68490357 C20.7142857,8.26676291 21.8928571,6.24084767 22.9642857,5.83566463 C24.0357143,5.43048158 25.3214286,5.43048158 25.4285714,5.6330731 C25.5357143,5.83566463 25.3214286,6.34214343 25.6428571,6.54473496 C25.9642857,6.74732648 26.6071429,7.15250953 26.6071429,7.35510105 C26.6071429,7.55769257 26.6071429,7.86157986 27.4642857,8.46935443 C28.3214286,9.077129 28.8571429,9.58360781 28.8571429,10.2926781 C28.8571429,11.0017485 27.7857143,12.813378 26.9285714,13.0159695 C26.0714286,13.218561 25.4285714,11.9285714 25.1071429,11.20434 C24.75,11.0017485 24.3928571,10.7653917 24.0357143,10.4952697 Z" id="Path-2" fill="#000000"></path>
    </g>
</svg>