<?xml version="1.0" encoding="UTF-8"?>
<svg width="32px" height="32px" viewBox="0 0 32 32" version="1.1" xmlns="http://www.w3.org/2000/svg" xmlns:xlink="http://www.w3.org/1999/xlink">
    <title>icon-step_required</title>
    <g id="icon-step_required" stroke="none" fill="none">
        <circle id="Oval" fill-opacity="0.25" fill="#000000" fill-rule="nonzero" cx="7.5" cy="7.5" r="3.5"></circle>
        <circle id="Oval-Copy" fill-opacity="0.25" fill="#000000" fill-rule="nonzero" cx="16" cy="7.5" r="3.5"></circle>
        <circle id="Oval-Copy-2" fill-opacity="0.25" fill="#000000" fill-rule="nonzero" cx="24.5" cy="7.5" r="3.5"></circle>
        <circle id="Oval-Copy-6" fill-opacity="0.25" fill="#000000" fill-rule="nonzero" cx="7.5" cy="16" r="3.5"></circle>
        <circle id="Oval-Copy-4" fill-opacity="0.25" fill="#000000" fill-rule="nonzero" cx="24.5" cy="16" r="3.5"></circle>
        <circle id="Oval-Copy-10" fill-opacity="0.25" fill="#000000" fill-rule="nonzero" cx="7.5" cy="24.5" r="3.5"></circle>
        <circle id="Oval-Copy-9" fill-opacity="0.25" fill="#000000" fill-rule="nonzero" cx="16" cy="24.5" r="3.5"></circle>
        <circle id="Oval-Copy-8" fill-opacity="0.25" fill="#000000" fill-rule="nonzero" cx="24.5" cy="24.5" r="3.5"></circle>
        <path d="M16,4 C17.4369821,4 18.6018862,5.16490413 18.6018862,6.60188621 C18.6018862,6.72500452 18.5931475,6.84796757 18.5757359,6.96984848 L17.5997174,13.796 L23.7922383,10.7598593 C25.0823555,10.1269967 26.6412386,10.6598068 27.2741012,11.949924 C27.3283239,12.0604592 27.3746325,12.1747036 27.4126782,12.2917961 C27.8567301,13.6584472 27.1088156,15.1263121 25.7421644,15.570364 C25.6250719,15.6084096 25.5054267,15.6380963 25.3841306,15.6592002 L18.5897174,16.841 L23.391604,21.7915664 C24.3921603,22.8229755 24.3671491,24.4702089 23.33574,25.4707651 C23.2473705,25.5564912 23.1530278,25.6358368 23.053423,25.7082039 C21.8908801,26.5528408 20.2637394,26.295127 19.4191025,25.1325841 C19.3467354,25.0329793 19.2815293,24.9283636 19.2239757,24.8195256 L15.9997174,18.722 L12.7760243,24.8195256 C12.1042848,26.0898341 10.5299439,26.5750702 9.25963545,25.9033307 C9.15079747,25.8457772 9.04618178,25.7805711 8.94657697,25.7082039 C7.78403406,24.8635671 7.52632029,23.2364264 8.37095715,22.0738834 C8.44332428,21.9742786 8.52266992,21.8799359 8.60839597,21.7915664 L13.4097174,16.841 L6.61586938,15.6592002 C5.20015533,15.4128849 4.25217032,14.0655439 4.4984856,12.6498299 C4.51958949,12.5285338 4.54927615,12.4088885 4.5873218,12.2917961 C5.03137369,10.9251449 6.49923853,10.1772304 7.86588969,10.6212823 C7.98298216,10.6593279 8.09722656,10.7056366 8.20776173,10.7598593 L14.3987174,13.796 L13.4242641,6.96984848 C13.2210441,5.54730881 14.209498,4.22937023 15.6320377,4.02615027 C15.7539186,4.00873872 15.8768817,4 16,4 Z" id="Combined-Shape" fill="#000000" fill-rule="evenodd"></path>
    </g>
</svg>