<?xml version="1.0" encoding="UTF-8"?>
<svg width="32px" height="32px" viewBox="0 0 32 32" version="1.1" xmlns="http://www.w3.org/2000/svg" xmlns:xlink="http://www.w3.org/1999/xlink">
    <title>icon-clypboard</title>
    <g id="icon-clypboard" stroke="none" stroke-width="1" fill="none" fill-rule="evenodd">
        <path d="M17.6208495,24.1680093 L17.564583,24.1392038 C17.2541782,23.9670312 17.0673437,23.6335141 17.0826378,23.2788867 L17.0878933,23.2121809 L17.7706364,17.2526868 L19.6347451,17.4662464 L19.0104387,22.9150148 L19.0579846,22.9665754 C19.0799683,22.991274 19.1018827,23.0168406 19.12369,23.043293 L19.1887523,23.1253252 C19.5788065,23.6363802 19.8041935,24.3125779 19.8041935,25.1424549 C19.8041935,26.667692 18.7415144,27.2847403 17.1353721,27.3944919 L16.9627107,27.4043483 L16.7584242,27.4117767 L16.5355666,27.4151652 L15.5595737,27.4125702 L15.306722,27.406995 L15.1505631,27.40032 L15.0706804,27.395908 C13.4115156,27.2980471 12.307781,26.6893763 12.307781,25.1424549 C12.307781,24.3330979 12.5677562,23.6568589 13.0020019,23.1320342 C13.050983,23.0728362 13.1002997,23.0175223 13.1495632,22.9659441 L13.1901501,22.9243963 L12.3196701,17.50835 L14.1721938,17.2105831 L15.1299506,23.1691616 C15.1908722,23.5481789 15.0147359,23.9235307 14.6902275,24.1201902 L14.6230736,24.1582059 L14.5905952,24.1830707 L14.5414174,24.227012 C14.513513,24.2537107 14.48128,24.2874707 14.4476188,24.3281532 C14.2832664,24.5267877 14.1840829,24.7847806 14.1840829,25.1424549 C14.1840829,25.319735 14.3193392,25.4284164 14.7874852,25.4882046 L14.9304701,25.5039736 L15.0925958,25.5171838 L15.2465413,25.5264544 L15.3773294,25.5319205 L15.5976897,25.5365409 L15.7794846,25.5377963 L16.507595,25.5389639 L16.6413965,25.5374524 L16.8175654,25.5325684 L16.9305127,25.5272635 C16.9914466,25.5239589 17.0489077,25.5202397 17.1030698,25.516085 L17.2558324,25.5022938 C17.7809461,25.4467836 17.9278916,25.3360666 17.9278916,25.1424549 C17.9278916,24.7212083 17.835993,24.4454976 17.697238,24.2636987 C17.6687155,24.2263281 17.6408765,24.1968522 17.6153911,24.1744799 L17.5892451,24.1531002 L17.6208495,24.1680093 Z" id="Path-2" fill-opacity="0.25" fill="#000000" fill-rule="nonzero"></path>
        <path d="M17.6208495,24.1680093 L17.564583,24.1392038 C17.2541782,23.9670312 17.0673437,23.6335141 17.0826378,23.2788867 L17.0878933,23.2121809 L17.7706364,17.2526868 L19.6347451,17.4662464 L19.0104387,22.9150148 L19.0579846,22.9665754 C19.0799683,22.991274 19.1018827,23.0168406 19.12369,23.043293 L19.1887523,23.1253252 C19.5788065,23.6363802 19.8041935,24.3125779 19.8041935,25.1424549 C19.8041935,26.667692 18.7415144,27.2847403 17.1353721,27.3944919 L16.9627107,27.4043483 L16.7584242,27.4117767 L16.5355666,27.4151652 L15.5595737,27.4125702 L15.306722,27.406995 L15.1505631,27.40032 L15.0706804,27.395908 C13.4115156,27.2980471 12.307781,26.6893763 12.307781,25.1424549 C12.307781,24.3330979 12.5677562,23.6568589 13.0020019,23.1320342 C13.050983,23.0728362 13.1002997,23.0175223 13.1495632,22.9659441 L13.1901501,22.9243963 L12.3196701,17.50835 L14.1721938,17.2105831 L15.1299506,23.1691616 C15.1908722,23.5481789 15.0147359,23.9235307 14.6902275,24.1201902 L14.6230736,24.1582059 L14.5905952,24.1830707 L14.5414174,24.227012 C14.513513,24.2537107 14.48128,24.2874707 14.4476188,24.3281532 C14.2832664,24.5267877 14.1840829,24.7847806 14.1840829,25.1424549 C14.1840829,25.319735 14.3193392,25.4284164 14.7874852,25.4882046 L14.9304701,25.5039736 L15.0925958,25.5171838 L15.2465413,25.5264544 L15.3773294,25.5319205 L15.5976897,25.5365409 L15.7794846,25.5377963 L16.507595,25.5389639 L16.6413965,25.5374524 L16.8175654,25.5325684 L16.9305127,25.5272635 C16.9914466,25.5239589 17.0489077,25.5202397 17.1030698,25.516085 L17.2558324,25.5022938 C17.7809461,25.4467836 17.9278916,25.3360666 17.9278916,25.1424549 C17.9278916,24.7212083 17.835993,24.4454976 17.697238,24.2636987 C17.6687155,24.2263281 17.6408765,24.1968522 17.6153911,24.1744799 L17.5892451,24.1531002 L17.6208495,24.1680093 Z" id="Path-2-Copy" fill-opacity="0.25" fill="#000000" fill-rule="nonzero"></path>
        <path d="M27.5263763,5.99996086 C27.5971778,6.00270935 28.1573278,6.04668517 27.9569453,6.7502984 C27.7728455,7.39673752 25.6183626,15.0030695 25.0243391,17.100318 C25.1631996,17.2344959 25.2487673,17.42368 25.2487673,17.6328496 C25.2487673,18.0285098 24.9426007,18.352661 24.5542588,18.3813118 L24.4982466,18.3833704 L7.61152915,18.3833704 C7.19702797,18.3833704 6.86100837,18.0473508 6.86100837,17.6328496 C6.86100837,17.4342804 6.93812301,17.2537223 7.06403839,17.1194892 C6.45406875,15.0555192 4.19164372,7.39896278 4.03259544,6.7502984 C3.84857263,5.99977762 4.50377581,5.99977762 4.50377581,5.99977762 Z" id="clyp" fill="#000000"></path>
    </g>
</svg>