<?xml version="1.0" encoding="UTF-8"?>
<svg width="128px" height="128px" viewBox="0 0 128 128" version="1.1" xmlns="http://www.w3.org/2000/svg" xmlns:xlink="http://www.w3.org/1999/xlink">
    <title>terrier-hub-favicon</title>
    <g id="terrier-hub-favicon" stroke="none" stroke-width="1" fill="none" fill-rule="evenodd">
        <g id="hub" transform="translate(4.000000, 12.506451)">
            <g id="arm-c" transform="translate(29.995324, 49.464367)">
                <path d="M6.24743306,34.2764323 C11.3606394,32.2105629 17.1804301,34.6809175 19.2462996,39.7941238 C21.312169,44.9073301 18.8418144,50.7271209 13.7286081,52.7929903 C8.6154018,54.8588598 2.79561102,52.3885051 0.729741573,47.2752988 C-1.33612787,42.1620925 1.13422675,36.3423017 6.24743306,34.2764323 Z" id="node-c" fill="#F49891"></path>
                <path d="M16.7654412,36.2385302 L30.9893718,2.59208467 L24.8578433,0 L10.6487444,33.6113615 C11.2310011,34.0765491 12.1798488,34.5907916 13.4952876,35.1540889 C14.8107264,35.7173863 15.9007776,36.0788667 16.7654412,36.2385302 Z" id="edge-c" fill="#F7F5E9" fill-rule="nonzero"></path>
            </g>
            <g id="arm-a" transform="translate(55.361602, 15.412304)">
                <path d="M21.7522212,0.668929776 C26.439327,-1.22478388 31.7741352,1.03970785 33.6678489,5.72681363 C35.5615626,10.4139194 33.2970708,15.7487276 28.609965,17.6424413 C23.9228593,19.5361549 18.588051,17.2716632 16.6943374,12.5845574 C14.8006237,7.89745165 17.0651155,2.56264343 21.7522212,0.668929776 Z" id="node-a" fill="#EEBA2B"></path>
                <path d="M5.11465955,37.4785281 L22.6069013,16.2071061 C22.5775172,15.5520823 22.0590835,14.8161131 21.0516003,13.9991985 C20.0441172,13.1822839 19.2176389,12.8113663 18.5721657,12.8864457 L0,33.2176829 L5.11465955,37.4785281 Z" id="edge-a" fill="#F7F5E9" fill-rule="nonzero"></path>
            </g>
            <path d="M50.289665,34.0986135 C59.6638766,30.3111862 70.333493,34.8401697 74.1209203,44.2143812 C77.9083476,53.5885928 73.3793642,64.2582092 64.0051526,68.0456365 C54.630941,71.8330639 43.9613246,67.3040804 40.1738973,57.9298688 C36.38647,48.5556573 40.9154535,37.8860408 50.289665,34.0986135 Z" id="node-center" fill="#01A7B1"></path>
            <g id="arm-e" transform="translate(23.782031, 0.000000)">
                <path d="M27.5528258,33.7728841 L13.6893751,9.08037887 L7.93849141,12.4332703 L21.7114049,36.9759207 C22.6527763,36.8029388 23.7149295,36.3739005 24.8978644,35.6888057 C26.0807993,35.0037109 26.9657864,34.3650704 27.5528258,33.7728841 Z" id="edge-e" fill="#F7F5E9" fill-rule="nonzero"></path>
                <path d="M6.76805248,0.790553371 C12.3073593,-1.44747186 18.6121327,1.22874565 20.8501579,6.76805248 C23.0881831,12.3073593 20.4119656,18.6121327 14.8726588,20.8501579 C9.33335195,23.0881831 3.0285786,20.4119656 0.790553371,14.8726588 C-1.44747186,9.33335195 1.22874565,3.0285786 6.76805248,0.790553371 Z" id="node-e" fill="#F49891"></path>
            </g>
            <g id="arm-d" transform="translate(0.000000, 36.887654)">
                <path d="M43.0066446,16.8977648 C43.7790699,15.94919 44.1652825,14.7814737 44.1652825,13.394616 C44.1652825,12.0077583 43.8522384,10.9577089 43.2261504,10.2444677 L12.6546794,7.5716236 L12.4351736,17.5533792 L43.0066446,16.8977648 Z" id="edge-d" fill="#F7F5E9" fill-rule="nonzero"></path>
                <path d="M7.80929132,0.912176967 C14.2007992,-1.67015984 21.4755377,1.41778344 24.0578745,7.80929132 C26.6402113,14.2007992 23.552268,21.4755377 17.1607601,24.0578745 C10.7692523,26.6402113 3.49451377,23.552268 0.912176967,17.1607601 C-1.67015984,10.7692523 1.41778344,3.49451377 7.80929132,0.912176967 Z" id="node-d" fill="#EEBA2B"></path>
            </g>
            <g id="arm-b" transform="translate(67.592863, 54.470239)">
                <path d="M34.9331507,24.9683683 L39.700425,17.4146861 L3.11913395,0 C2.09289433,0.340138073 1.29834861,1.04434202 0.735496771,2.11261183 C0.172644933,3.18088164 -0.0671577044,4.43982868 0.0160888576,5.88945292 L34.9331507,24.9683683 Z" id="edge-b" fill="#F7F5E9" fill-rule="nonzero"></path>
                <path d="M32.9582759,8.98574757 C40.2019848,6.05909919 48.4466884,9.55876824 51.3733368,16.8024772 C54.2999852,24.0461861 50.8003161,32.2908897 43.5566072,35.2175381 C36.3128982,38.1441865 28.0681946,34.6445174 25.1415463,27.4008085 C22.2148979,20.1570996 25.7145669,11.912396 32.9582759,8.98574757 Z" id="node-b" fill="#ED584C"></path>
            </g>
        </g>
    </g>
</svg>