<?xml version="1.0" encoding="UTF-8"?>
<svg width="512px" height="512px" viewBox="0 0 512 512" version="1.1" xmlns="http://www.w3.org/2000/svg" xmlns:xlink="http://www.w3.org/1999/xlink">
    <title>terrier-hub-loader</title>
    <style>
        path {
            --period: 2s;
            --offset: 0.4s;
            --timing: ease-in-out;
        }
        @keyframes pulse {
            0% { transform: scale(0.92); }
            50% { transform: scale(1.08); }
            100% { transform: scale(0.92); }
        }
        #node-a, #edge-a {
            animation: pulse var(--period) infinite var(--timing);
            transform-origin: 282px 227.5px;
            animation-delay: calc(var(--offset)*-4);
        }
        #node-b, #edge-b {
            animation: pulse var(--period) infinite var(--timing);
            transform-origin: 281px 270px;
            animation-delay: calc(var(--offset)*-3);
        }
        #node-c, #edge-c {
            animation: pulse var(--period) infinite var(--timing);
            transform-origin: 242px 292px;
            animation-delay: calc(var(--offset)*-2);
        }
        #node-d, #edge-d {
            animation: pulse var(--period) infinite var(--timing);
            transform-origin: 226px 255px;
            animation-delay: calc(var(--offset)*-1);
        }
        #node-e, #edge-e {
            animation: pulse var(--period) infinite var(--timing);
            transform-origin: 237px 222px;
            animation-delay: 0s;
        }
    </style>
    <g id="terrier-hub-loader-raw" stroke="none" stroke-width="1" fill="none" fill-rule="evenodd">
        <path d="M211.402883,325.697039 C222.311056,321.289851 234.72661,326.55994 239.133798,337.468114 C243.540986,348.376287 238.270896,360.791841 227.362723,365.199029 C216.454549,369.606217 204.038996,364.336127 199.631808,353.427954 C195.224619,342.51978 200.494709,330.104227 211.402883,325.697039 Z" id="node-c" fill="#F49891"></path>
        <path d="M233.8413,329.882848 L264.185685,258.103764 L251.105091,252.573983 L220.792347,324.278221 C222.034495,325.270621 224.058703,326.367672 226.864972,327.569373 C229.671242,328.771074 231.996684,329.542232 233.8413,329.882848 Z" id="edge-c" fill="#366A79" fill-rule="nonzero"></path>
        <path d="M298.59449,181.356632 C308.593649,177.316709 319.974573,182.147625 324.014496,192.146784 C328.054418,202.145943 323.223503,213.526867 313.224344,217.56679 C303.225185,221.606712 291.84426,216.775797 287.804338,206.776638 C283.764415,196.777479 288.595331,185.396554 298.59449,181.356632 Z" id="node-a" fill="#eeba2b"></path>
        <path d="M263.101025,259.883775 L300.417808,214.504741 C300.355121,213.107357 299.24913,211.53729 297.099832,209.794538 C294.950535,208.051787 293.187381,207.260496 291.810372,207.420666 L252.189752,250.793972 L263.101025,259.883775 Z" id="edge-a" fill="#366A79" fill-rule="nonzero"></path>
        <path d="M241.369619,219.793709 C261.367937,211.713864 284.129785,221.375695 292.20963,241.374013 C300.289475,261.372331 290.627644,284.13418 270.629326,292.214025 C250.631008,300.29387 227.869159,290.632038 219.789314,270.63372 C211.709469,250.635402 221.371301,227.873554 241.369619,219.793709 Z" id="node-center" fill="#01A7B1"></path>
        <path d="M243.599361,219.098819 L214.024,166.421475 L201.755448,173.57431 L231.137663,225.931964 C233.145922,225.562936 235.411849,224.647654 237.935443,223.186119 C240.459038,221.724583 242.34701,220.36215 243.599361,219.098819 Z" id="edge-e" fill="#366A79" fill-rule="nonzero"></path>
        <path d="M199.258511,148.736514 C211.075699,143.96206 224.525882,149.671324 229.300336,161.488512 C234.07479,173.3057 228.365526,186.755883 216.548338,191.530337 C204.73115,196.304791 191.280967,190.595527 186.506513,178.778339 C181.732059,166.961151 187.441323,153.510968 199.258511,148.736514 Z" id="node-e" fill="#F49891"></path>
        <path d="M225.832509,261.792226 C227.480349,259.7686 228.304269,257.277471 228.304269,254.318842 C228.304269,251.360212 227.636442,249.120106 226.300788,247.598525 L161.081649,241.896458 L160.61337,263.19087 L225.832509,261.792226 Z" id="edge-d" fill="#366A79" fill-rule="nonzero"></path>
        <path d="M150.744821,227.689638 C164.380038,222.180653 179.89948,228.768265 185.408466,242.403482 C190.917451,256.038699 184.329838,271.558141 170.694622,277.067126 C157.059405,282.576112 141.539963,275.988499 136.030978,262.353282 C130.521992,248.718066 137.109605,233.198624 150.744821,227.689638 Z" id="node-d" fill="#eeba2b"></path>
        <path d="M352.807162,316.519028 L362.977347,300.404506 L284.937259,263.253176 C282.747948,263.978804 281.052917,265.481105 279.852167,267.760081 C278.651416,270.039056 278.139837,272.72481 278.31743,275.817342 L352.807162,316.519028 Z" id="edge-b" fill="#366A79" fill-rule="nonzero"></path>
        <path d="M348.594095,282.42277 C364.047341,276.179254 381.636042,283.645215 387.879559,299.09846 C394.123075,314.551706 386.657115,332.140407 371.203869,338.383924 C355.750623,344.62744 338.161922,337.161479 331.918406,321.708234 C325.674889,306.254988 333.14085,288.666287 348.594095,282.42277 Z" id="node-b" fill="#ED584C"></path>
    </g>
</svg>