<?xml version="1.0" encoding="UTF-8"?>
<svg width="320px" height="160px" viewBox="0 0 320 160" version="1.1" xmlns="http://www.w3.org/2000/svg" xmlns:xlink="http://www.w3.org/1999/xlink">
    <title>terrier-hub-logo-light</title>
    <g id="terrier-hub-logo-light" stroke="none" stroke-width="1" fill="none" fill-rule="evenodd">
        <path d="M153.906092,64.5 L153.906092,39.4204893 L162.431321,39.4204893 L162.431321,35 L140.148447,35 L140.148447,39.4204893 L148.673676,39.4204893 L148.673676,64.5 L153.906092,64.5 Z M185.57123,64.5 L185.57123,60.0795107 L172.580404,60.0795107 L172.580404,51.3738532 L183.180557,51.3738532 L183.180557,46.9533639 L172.580404,46.9533639 L172.580404,39.4204893 L185.120159,39.4204893 L185.120159,35 L167.347988,35 L167.347988,64.5 L185.57123,64.5 Z M196.847988,64.5 L196.847988,52.9525994 L201.358692,52.9525994 L207.718783,64.5 L213.582698,64.5 L206.546,52.1857798 C208.32021,51.5843527 209.741082,50.591998 210.808615,49.2087156 C211.876148,47.8254332 212.409915,46.0061162 212.409915,43.7507645 C212.409915,42.09684 212.131755,40.7135576 211.575435,39.6009174 C211.019115,38.4882773 210.259813,37.5936544 209.297529,36.9170489 C208.335246,36.2404434 207.192535,35.7517839 205.869395,35.4510703 C204.546255,35.1503568 203.117866,35 201.584227,35 L201.584227,35 L191.615572,35 L191.615572,64.5 L196.847988,64.5 Z M201.042942,48.8027523 L196.847988,48.8027523 L196.847988,39.1949541 L201.042942,39.1949541 C203.057723,39.1949541 204.59888,39.525739 205.666413,40.1873089 C206.733946,40.8488787 207.267713,42.0366972 207.267713,43.7507645 C207.267713,45.4347604 206.733946,46.6977574 205.666413,47.5397554 C204.59888,48.3817533 203.057723,48.8027523 201.042942,48.8027523 L201.042942,48.8027523 Z M223.551352,64.5 L223.551352,52.9525994 L228.062055,52.9525994 L234.422147,64.5 L240.286062,64.5 L233.249364,52.1857798 C235.023574,51.5843527 236.444446,50.591998 237.511979,49.2087156 C238.579512,47.8254332 239.113279,46.0061162 239.113279,43.7507645 C239.113279,42.09684 238.835119,40.7135576 238.278799,39.6009174 C237.722478,38.4882773 236.963177,37.5936544 236.000893,36.9170489 C235.03861,36.2404434 233.895898,35.7517839 232.572759,35.4510703 C231.249619,35.1503568 229.82123,35 228.287591,35 L228.287591,35 L218.318936,35 L218.318936,64.5 L223.551352,64.5 Z M227.746306,48.8027523 L223.551352,48.8027523 L223.551352,39.1949541 L227.746306,39.1949541 C229.761087,39.1949541 231.302244,39.525739 232.369777,40.1873089 C233.43731,40.8488787 233.971077,42.0366972 233.971077,43.7507645 C233.971077,45.4347604 233.43731,46.6977574 232.369777,47.5397554 C231.302244,48.3817533 229.761087,48.8027523 227.746306,48.8027523 L227.746306,48.8027523 Z M250.254716,64.5 L250.254716,35 L245.0223,35 L245.0223,64.5 L250.254716,64.5 Z M275.965725,64.5 L275.965725,60.0795107 L262.974899,60.0795107 L262.974899,51.3738532 L273.575052,51.3738532 L273.575052,46.9533639 L262.974899,46.9533639 L262.974899,39.4204893 L275.514655,39.4204893 L275.514655,35 L257.742484,35 L257.742484,64.5 L275.965725,64.5 Z M287.242484,64.5 L287.242484,52.9525994 L291.753187,52.9525994 L298.113279,64.5 L303.977193,64.5 L296.940496,52.1857798 C298.714706,51.5843527 300.135577,50.591998 301.20311,49.2087156 C302.270644,47.8254332 302.80441,46.0061162 302.80441,43.7507645 C302.80441,42.09684 302.52625,40.7135576 301.96993,39.6009174 C301.41361,38.4882773 300.654308,37.5936544 299.692025,36.9170489 C298.729741,36.2404434 297.58703,35.7517839 296.26389,35.4510703 C294.940751,35.1503568 293.512361,35 291.978722,35 L291.978722,35 L282.010068,35 L282.010068,64.5 L287.242484,64.5 Z M291.437438,48.8027523 L287.242484,48.8027523 L287.242484,39.1949541 L291.437438,39.1949541 C293.452219,39.1949541 294.993376,39.525739 296.060909,40.1873089 C297.128442,40.8488787 297.662208,42.0366972 297.662208,43.7507645 C297.662208,45.4347604 297.128442,46.6977574 296.060909,47.5397554 C294.993376,48.3817533 293.452219,48.8027523 291.437438,48.8027523 L291.437438,48.8027523 Z" id="TERRIER" fill="#01A7B1"></path>
        <path d="M186.827193,128 L186.827193,75.05 L195.452193,75.05 L195.452193,88.7 L195.152193,95.825 C196.702193,94.375 198.414693,93.0875 200.289693,91.9625 C202.164693,90.8375 204.377193,90.275 206.927193,90.275 C210.877193,90.275 213.752193,91.5375 215.552193,94.0625 C217.352193,96.5875 218.252193,100.2 218.252193,104.9 L218.252193,128 L209.627193,128 L209.627193,106.025 C209.627193,102.975 209.177193,100.825 208.277193,99.575 C207.377193,98.325 205.902193,97.7 203.852193,97.7 C202.252193,97.7 200.839693,98.0875 199.614693,98.8625 C198.389693,99.6375 197.002193,100.775 195.452193,102.275 L195.452193,128 L186.827193,128 Z M239.627193,128.9 C235.677193,128.9 232.802193,127.6375 231.002193,125.1125 C229.202193,122.5875 228.302193,118.975 228.302193,114.275 L228.302193,91.175 L236.927193,91.175 L236.927193,113.15 C236.927193,116.2 237.377193,118.35 238.277193,119.6 C239.177193,120.85 240.627193,121.475 242.627193,121.475 C244.227193,121.475 245.639693,121.075 246.864693,120.275 C248.089693,119.475 249.402193,118.175 250.802193,116.375 L250.802193,91.175 L259.427193,91.175 L259.427193,128 L252.377193,128 L251.702193,122.6 L251.477193,122.6 C249.877193,124.5 248.139693,126.025 246.264693,127.175 C244.389693,128.325 242.177193,128.9 239.627193,128.9 Z M288.227193,128.9 C286.527193,128.9 284.814693,128.4875 283.089693,127.6625 C281.364693,126.8375 279.727193,125.65 278.177193,124.1 L277.952193,124.1 L277.202193,128 L270.377193,128 L270.377193,75.05 L279.002193,75.05 L279.002193,88.7 L278.777193,94.85 C280.327193,93.5 282.014693,92.4 283.839693,91.55 C285.664693,90.7 287.527193,90.275 289.427193,90.275 C291.727193,90.275 293.777193,90.7125 295.577193,91.5875 C297.377193,92.4625 298.902193,93.7125 300.152193,95.3375 C301.402193,96.9625 302.352193,98.925 303.002193,101.225 C303.652193,103.525 303.977193,106.1 303.977193,108.95 C303.977193,112.1 303.539693,114.9125 302.664693,117.3875 C301.789693,119.8625 300.627193,121.95 299.177193,123.65 C297.727193,125.35 296.052193,126.65 294.152193,127.55 C292.252193,128.45 290.277193,128.9 288.227193,128.9 Z M286.427193,121.775 C288.877193,121.775 290.927193,120.7125 292.577193,118.5875 C294.227193,116.4625 295.052193,113.3 295.052193,109.1 C295.052193,105.4 294.427193,102.525 293.177193,100.475 C291.927193,98.425 289.902193,97.4 287.102193,97.4 C284.502193,97.4 281.802193,98.775 279.002193,101.525 L279.002193,118.7 C280.302193,119.85 281.589693,120.65 282.864693,121.1 C284.139693,121.55 285.327193,121.775 286.427193,121.775 Z" id="hub-lowercase-source-sans" fill="#F7F5E8" fill-rule="nonzero" opacity="0"></path>
        <g id="icon-light" transform="translate(-0.211647, -5.496105)">
            <g id="nodes-copy-2" transform="translate(82.736261, 85.927648) scale(1, -1) rotate(22.000000) translate(-82.736261, -85.927648) translate(20.842477, 18.258406)">
                <circle id="Oval-Copy" fill="#F49891" cx="26" cy="28.3483948" r="12"></circle>
                <path d="M36.8363826,33.4270639 L67.8325678,64.5142026 L62.1674322,70.1627633 L31.2035676,39.1080401 C31.6429261,38.3275807 32.4686749,37.3274277 33.6808141,36.1075811 C34.8929533,34.8877345 35.9448094,33.9942287 36.8363826,33.4270639 Z" id="Path" fill="#F7F5E8" fill-rule="nonzero"></path>
                <circle id="Oval-Copy-4" fill="#EEBA2B" cx="102" cy="86.3384829" r="11"></circle>
                <path d="M66.8904181,63.8133844 L95.9572535,79.6403023 C96.219395,80.3833911 95.9730535,81.4368366 95.2182289,82.8006389 C94.4634044,84.1644413 93.7094829,84.9498054 92.9564645,85.1567313 L63.1095819,70.8635815 L66.8904181,63.8133844 Z" id="Path" fill="#F7F5E8" fill-rule="nonzero"></path>
                <circle id="hub-cirlce" fill="#01A7B1" cx="64" cy="67.3384829" r="22"></circle>
                <path d="M65.311244,89.2308961 L60.9801191,122.985659 L53.0627703,121.838668 L57.3604767,88.2916396 C58.487274,88.0605922 59.8639255,88.0604814 61.4904311,88.2913073 C63.1169368,88.5221332 64.3905411,88.8353294 65.311244,89.2308961 Z" id="Path" fill="#F7F5E8" fill-rule="nonzero"></path>
                <path d="M47.0221639,70.6811736 C48.3098742,71.3903879 49.2659015,72.5176483 49.8902458,74.0629548 C50.5145902,75.6082612 50.6384987,76.919207 50.2619714,77.9957923 L17.4009829,94.7368663 L12.6627491,83.7135121 L47.0221639,70.6811736 Z" id="Path" fill="#F7F5E8" fill-rule="nonzero"></path>
                <circle id="Oval-Copy-5" fill="#F49891" cx="57" cy="122.338483" r="13"></circle>
                <circle id="Oval-Copy-3" fill="#EEBA2B" cx="15" cy="89.3384829" r="15"></circle>
                <path d="M101.792916,15.3023009 L110.505416,21.5728309 L77.5845599,57.445543 C76.2879468,57.5285431 75.0856011,57.1015774 73.977523,56.1646457 C72.8694448,55.2277141 72.035484,53.932888 71.4756405,52.2801675 L101.792916,15.3023009 Z" id="Path" fill="#F7F5E8" fill-rule="nonzero"></path>
                <circle id="Oval-Copy-2" fill="#ED584C" cx="106.787568" cy="17" r="17"></circle>
            </g>
        </g>
        <g id="Hub-mackinac" transform="translate(174.162000, 76.272000)" fill="#F7F5E8" fill-rule="nonzero">
            <path d="M42.024,12.58 C42.024,7.48 42.228,6.256 43.792,5.236 C44.608,4.692 46.24,4.148 45.968,3.332 C45.9,2.584 45.22,2.176 44.064,2.176 L33.184,2.176 C31.96,2.176 31.348,2.584 31.348,3.332 C31.348,4.488 32.436,4.488 33.456,5.236 C34.204,5.712 34.68,6.46 34.884,7.344 C35.088,8.228 35.224,9.996 35.224,12.58 L35.224,22.644 C35.224,23.052 35.02,23.256 34.612,23.256 L11.968,23.256 C11.424,23.256 11.152,22.984 11.152,22.508 L11.152,12.58 C11.152,7.48 11.424,6.256 12.852,5.236 C13.668,4.692 15.3,4.148 15.028,3.332 C15.028,2.584 14.416,2.176 13.192,2.176 L2.244,2.176 C1.02,2.176 0.408,2.584 0.408,3.332 C0.408,4.42 1.428,4.556 2.584,5.236 C3.332,5.712 3.808,6.46 4.012,7.344 C4.216,8.228 4.284,9.996 4.284,12.58 L4.284,39.032 C4.284,42.228 4.08,44.404 3.604,45.492 C3.196,46.512 2.516,47.328 1.496,47.94 C0.476,48.484 2.84217094e-14,48.96 2.84217094e-14,49.436 C2.84217094e-14,50.32 0.748,50.728 2.176,50.728 L13.26,50.728 C14.688,50.728 15.368,50.32 15.368,49.436 C15.368,48.96 14.892,48.416 13.94,47.94 C13.056,47.464 12.376,46.784 11.968,45.968 C11.424,44.948 11.152,42.636 11.152,39.032 L11.152,27.404 C11.152,26.996 11.356,26.792 11.764,26.792 L34.408,26.792 C34.952,26.792 35.224,27.064 35.224,27.54 L35.224,39.032 C35.224,42.364 34.952,44.608 34.476,45.696 C33.32,48.076 30.94,48.212 30.94,49.436 C30.94,50.32 31.62,50.728 33.048,50.728 L44.2,50.728 C45.628,50.728 46.308,50.32 46.308,49.436 C46.308,47.804 43.656,48.28 42.636,45.356 C42.228,44.268 42.024,42.16 42.024,39.032 L42.024,12.58 Z" id="Path"></path>
            <path d="M85.884,44.88 C85.408,44.132 85.204,42.296 85.204,39.304 L85.204,16.252 C85.204,15.028 84.728,14.416 83.708,14.416 C83.368,14.416 82.96,14.552 82.416,14.756 C80.852,15.436 78.744,16.116 76.024,16.728 C74.8,17 74.188,17.544 74.188,18.292 C74.188,18.904 74.732,19.38 75.82,19.788 C76.976,20.128 77.724,20.604 78.064,21.148 C78.54,21.828 78.744,23.868 78.744,27.268 C78.744,32.436 78.472,36.176 77.996,38.556 C77.52,40.936 76.704,42.704 75.412,43.996 C73.848,45.56 71.944,46.308 69.7,46.308 C65.008,46.308 62.628,42.908 62.628,37.944 L62.628,16.252 C62.628,15.096 62.152,14.484 61.132,14.484 C60.792,14.484 60.248,14.62 59.568,14.892 C57.868,15.572 55.828,16.184 53.448,16.728 C52.224,16.932 51.612,17.408 51.612,18.156 C51.612,18.768 52.156,19.312 53.312,19.788 C54.468,20.196 55.148,20.672 55.488,21.148 C55.964,21.828 56.168,23.664 56.168,26.656 L56.168,38.08 C56.168,42.432 56.984,45.628 58.684,47.668 C60.792,50.184 63.58,51.476 67.184,51.476 C71.808,51.476 75.82,49.096 78.2,45.56 C78.336,45.356 78.472,45.22 78.54,45.22 C78.676,45.22 78.744,45.288 78.744,45.424 L78.744,49.64 C78.744,50.864 79.22,51.476 80.24,51.476 C80.58,51.476 81.056,51.34 81.668,51.136 C83.504,50.388 85.544,49.776 87.924,49.232 C89.148,49.028 89.76,48.484 89.76,47.668 C89.76,47.124 89.148,46.648 87.992,46.24 C86.836,45.764 86.156,45.356 85.884,44.88 Z" id="Path"></path>
            <path d="M104.108,33.388 C104.108,29.512 104.856,26.18 106.352,23.46 C107.916,20.74 110.296,19.38 113.56,19.38 C116.62,19.38 119,20.74 120.768,23.528 C122.536,26.248 123.42,29.648 123.42,33.66 C123.42,37.536 122.604,40.868 121.04,43.792 C119.476,46.648 117.096,48.076 113.832,48.076 C108.052,48.076 104.108,42.636 104.108,33.388 Z M130.152,31.212 C130.152,26.316 128.86,22.304 126.276,19.176 C123.692,16.048 120.36,14.484 116.212,14.484 C112.064,14.484 108.392,16.32 105.128,19.992 C104.788,20.332 104.584,20.536 104.448,20.536 C104.244,20.536 104.108,20.332 104.108,19.992 L104.108,1.7 C104.108,0.544 103.632,0 102.748,0 C102.34,0 101.796,0.136 101.116,0.408 C99.144,1.156 97.104,1.768 94.996,2.244 C93.704,2.516 93.092,2.992 93.092,3.74 C93.092,4.284 93.636,4.76 94.792,5.168 C95.948,5.576 96.696,6.12 97.036,6.732 C97.444,7.48 97.648,8.84 97.648,10.948 L97.648,49.028 C97.648,50.66 98.124,51.476 99.144,51.476 C99.756,51.476 100.368,50.932 100.912,49.844 C101.456,48.688 102.068,48.144 102.68,48.144 C103.564,48.144 107.372,51.476 113.22,51.476 C116.756,51.476 119.816,50.456 122.468,48.348 C125.12,46.24 127.024,43.724 128.248,40.732 C129.54,37.672 130.152,34.544 130.152,31.212 Z" id="Shape"></path>
        </g>
    </g>
</svg>