<svg xmlns="http://www.w3.org/2000/svg" width="32" height="32" viewBox="0 0 32 32"><g fill="currentColor" fill-rule="nonzero"><path fill-opacity="0.33" d="M16 28c5.667 0 7.667-4 6-12-3-4.667-5-7-6-7s-3 2.333-6 7c-1.667 8 .333 12 6 12Z"/><path d="M22.5 3a.929.929 0 0 1 0 1.857c-2.488 0-3.983 1.21-4.529 3.633 1.314.55 2.207 1.627 2.207 2.867 0 .383-.085.645-.241.82a5.567 5.567 0 0 1 1.418 1.025c1.356-.802 2.074-2.61 2.074-5.56a.929.929 0 1 1 1.857 0c0 3.458-.924 5.858-2.844 7.074.326.638.563 1.353.723 2.13 2.267-.536 4.159-.121 5.563 1.283a.929.929 0 0 1-1.313 1.313c-.98-.979-2.332-1.225-4.196-.692l.18-.049.013.24c.007.152.011.306.014.46l.002.313a9.88 9.88 0 0 1-.186 1.9.858.858 0 0 1 .138.055c2.204 1.103 3.299 3.292 3.299 6.402a.929.929 0 1 1-1.858 0c0-2.46-.762-3.986-2.272-4.74l.166.087C21.46 26.616 18.73 29 16 29s-5.46-2.384-6.715-5.582l.166-.087c-1.51.754-2.272 2.28-2.272 4.74a.929.929 0 1 1-1.858 0c0-3.11 1.095-5.3 3.3-6.402a.935.935 0 0 1 .138-.055 9.802 9.802 0 0 1-.188-1.9c0-.262.006-.52.017-.773l.012-.24-.082-.022c-1.73-.436-3-.169-3.933.763a.929.929 0 1 1-1.313-1.313c1.404-1.404 3.296-1.82 5.563-1.284.16-.776.396-1.491.722-2.13C7.638 13.5 6.714 11.1 6.714 7.643a.929.929 0 1 1 1.857 0c0 2.948.718 4.757 2.074 5.56.404-.404.874-.749 1.418-1.027-.156-.174-.242-.436-.242-.819 0-1.24.893-2.318 2.207-2.866-.545-2.423-2.04-3.634-4.528-3.634A.929.929 0 0 1 9.5 3c3.4 0 5.614 1.844 6.346 5.11L16 8.107l.154.003C16.886 4.844 19.1 3 22.5 3ZM10.436 19.194l-.007.344v.176c0 3.4 2.278 6.595 4.643 7.29v-13.75c-3.171.291-4.526 2.164-4.636 5.94Zm6.493-5.94v13.75c2.363-.695 4.642-3.89 4.642-7.29v-.176l-.007-.344c-.11-3.775-1.465-5.649-4.635-5.94ZM16 9.965c-1.369 0-2.32.74-2.32 1.393 0 .077.013.155.038.234.68-.154 1.44-.234 2.283-.234s1.602.08 2.281.232a.706.706 0 0 0 .04-.232c0-.653-.951-1.393-2.321-1.393Z"/></g></svg>