<svg xmlns="http://www.w3.org/2000/svg" width="32" height="32" viewBox="0 0 32 32"><g fill="currentColor" fill-rule="evenodd"><rect width="18" height="22" x="7" y="5" fill-opacity="0.33" stroke="currentColor" stroke-linejoin="round" stroke-width="2" rx="3"/><rect width="14" height="3" x="9" y="7" rx="1"/><g transform="translate(9 11)"><circle cx="1.5" cy="1.5" r="1.5"/><circle cx="5.167" cy="1.5" r="1.5"/><circle cx="8.833" cy="1.5" r="1.5"/><circle cx="12.5" cy="1.5" r="1.5" fill-opacity="0.33" fill-rule="nonzero"/></g><g transform="translate(9 14.667)"><circle cx="1.5" cy="1.5" r="1.5"/><circle cx="5.17" cy="1.5" r="1.5"/><circle cx="8.84" cy="1.5" r="1.5"/><circle cx="12.51" cy="1.5" r="1.5" fill-opacity="0.33" fill-rule="nonzero"/></g><g transform="translate(9 18.333)"><circle cx="1.5" cy="1.5" r="1.5"/><circle cx="5.17" cy="1.5" r="1.5"/><circle cx="8.84" cy="1.5" r="1.5"/><circle cx="12.51" cy="1.5" r="1.5" fill-opacity="0.33" fill-rule="nonzero"/></g><g transform="translate(9 22)"><circle cx="8.84" cy="1.5" r="1.5"/><rect width="6.666" height="3" rx="1.5"/><circle cx="12.51" cy="1.5" r="1.5" fill-opacity="0.33" fill-rule="nonzero"/></g></g></svg>