<svg xmlns="http://www.w3.org/2000/svg" width="32" height="32" viewBox="0 0 32 32"><g fill="currentColor" fill-rule="evenodd"><circle cx="16" cy="16" r="7" fill-opacity="0.33" stroke="currentColor" stroke-linejoin="round" stroke-width="2"/><rect width="2" height="3" x="15" y="4" rx="1"/><rect width="2" height="3" x="20.25" y="5.407" rx="1" transform="rotate(30 21.25 6.907)"/><rect width="2" height="3" x="24.093" y="9.25" rx="1" transform="rotate(60 25.093 10.75)"/><rect width="2" height="3" x="25.5" y="14.5" rx="1" transform="rotate(90 26.5 16)"/><rect width="2" height="3" x="24.093" y="19.75" rx="1" transform="rotate(120 25.093 21.25)"/><rect width="2" height="3" x="20.25" y="23.593" rx="1" transform="rotate(150 21.25 25.093)"/><rect width="2" height="3" x="15" y="25" rx="1" transform="rotate(180 16 26.5)"/><rect width="2" height="3" x="9.75" y="23.593" rx="1" transform="rotate(-150 10.75 25.093)"/><rect width="2" height="3" x="5.907" y="19.75" rx="1" transform="rotate(-120 6.907 21.25)"/><rect width="2" height="3" x="4.5" y="14.5" rx="1" transform="rotate(-90 5.5 16)"/><rect width="2" height="3" x="5.907" y="9.25" rx="1" transform="rotate(-60 6.907 10.75)"/><rect width="2" height="3" x="9.75" y="5.407" rx="1" transform="rotate(-30 10.75 6.907)"/></g></svg>