<svg xmlns="http://www.w3.org/2000/svg" width="32" height="32" viewBox="0 0 32 32"><g fill="none" fill-rule="evenodd"><circle cx="8" cy="24" r="3" fill="currentColor" fill-opacity="0.33" stroke="currentColor" stroke-linejoin="round" stroke-width="2"/><circle cx="24" cy="24" r="3" fill="currentColor" fill-opacity="0.33" stroke="currentColor" stroke-linejoin="round" stroke-width="2"/><path stroke="currentColor" stroke-linejoin="round" stroke-width="2" d="M8 21v-3a2 2 0 0 1 2-2h12a2 2 0 0 1 2 2v3"/><path fill="currentColor" d="M15 9h2v7h-2z"/><path fill="currentColor" d="m11.415 8.35 3.826-4.464a1 1 0 0 1 1.518 0l3.826 4.463a1 1 0 0 1-.76 1.651h-7.65a1 1 0 0 1-.76-1.65Z"/></g></svg>