<svg xmlns="http://www.w3.org/2000/svg" width="32" height="32" viewBox="0 0 32 32"><g fill="none" fill-rule="evenodd"><circle cx="16" cy="16" r="11" fill="currentColor" fill-opacity="0.33" fill-rule="nonzero"/><path stroke="currentColor" stroke-linecap="round" stroke-linejoin="round" stroke-width="2" d="m20 20-4-4V9"/><path fill="currentColor" fill-rule="nonzero" d="M5.336 5.446c.341-.005.556.078.718.222.16.142.27.34.298.568l.492 4.012 4.008-.492c.341-.005.556.077.718.222a.904.904 0 0 1 .113 1.237.905.905 0 0 1-.605.342l-4.908.603c-.341.006-.556-.077-.719-.222a.904.904 0 0 1-.297-.568L4.55 6.462c-.006-.341.077-.555.222-.718a.904.904 0 0 1 .563-.298Z"/><path stroke="currentColor" stroke-linecap="round" stroke-width="2" d="M5.387 13.096A11.012 11.012 0 0 0 5 16c0 6.075 4.925 11 11 11s11-4.925 11-11S22.075 5 16 5a11 11 0 0 0-9.892 6.184"/></g></svg>