<svg xmlns="http://www.w3.org/2000/svg" width="32" height="32" viewBox="0 0 32 32"><g fill="currentColor" fill-rule="evenodd"><path fill-opacity="0.33" fill-rule="nonzero" d="m4 14 6-6 6 6h11.5v10h-23z"/><path d="m10.642 7.234.064.059L13.413 10H15V8.5a1 1 0 0 1 .925-.997L16 7.5h3.5a1 1 0 0 1 .997.925l.003.075V10h4.5a1 1 0 0 1 .642.233l.065.06 4 4c.612.611.21 1.644-.63 1.704L29 16h-.5v7h.5a1 1 0 1 1 0 2h-26a1 1 0 0 1 0-2h.5l.001-7.134a1 1 0 0 1-1.145-.1l-.063-.059a1 1 0 0 1-.059-1.35l.059-.064 7-7a1 1 0 0 1 1.35-.059ZM10 9.414l-4.5 4.5V23h2.5v-2.5a.5.5 0 0 1 .5-.5h3a.5.5 0 0 1 .5.5V23h4v-4a1 1 0 0 1 .925-.997L17 18h7.5a1 1 0 0 1 .997.925L25.5 19v4h1v-7h-9.5a1 1 0 0 1-.642-.233l-.065-.06-6.293-6.293ZM23.499 20h-5.5v3h5.5v-3Zm-15-5a.5.5 0 0 1 .5.5v2a.5.5 0 0 1-.5.5h-1.5a.5.5 0 0 1-.5-.5v-2a.5.5 0 0 1 .5-.5h1.5Zm4.5 0a.5.5 0 0 1 .5.5v2a.5.5 0 0 1-.5.5h-1.5a.5.5 0 0 1-.5-.5v-2a.5.5 0 0 1 .5-.5h1.5Z"/></g></svg>