<svg xmlns="http://www.w3.org/2000/svg" width="32" height="32" viewBox="0 0 32 32"><g fill="currentColor" fill-rule="nonzero"><path fill-opacity="0.33" d="M5 7h22v18H5z"/><path fill-opacity="0.33" d="m5 22 4-4.5 3 3 7-7 8 8V25H5z"/><path d="M27.107 6c.493 0 .893.41.893.917v18.166c0 .507-.4.917-.893.917H4.893A.905.905 0 0 1 4 25.083V6.917C4 6.41 4.4 6 4.893 6Zm-7.871 8.567-7.296 7.26-2.735-2.722L6 22.292V24h20v-1.801l-6.764-7.632ZM26 8H6v11.726l3.205-3.189 2.735 2.722L19.236 12 26 19.499V8Zm-16 2a2 2 0 1 1 0 4 2 2 0 0 1 0-4Z"/></g></svg>