<svg xmlns="http://www.w3.org/2000/svg" width="32" height="32" viewBox="0 0 32 32"><g fill="currentColor" fill-rule="nonzero"><circle cx="16" cy="16" r="11" fill-opacity="0.33"/><path d="M16 4c6.627 0 12 5.373 12 12s-5.373 12-12 12S4 22.627 4 16 9.373 4 16 4Zm0 2C10.477 6 6 10.477 6 16s4.477 10 10 10 10-4.477 10-10S21.523 6 16 6Z"/><path d="M17.055 9.263c-.817-.817-1.16-.817-1.976 0-.78.817-.78 1.159 0 1.976.816.779 1.159.779 1.976 0 .817-.817.817-1.159 0-1.976Zm1.083 12.825c-.305-.209-.514-.437-.646-.684-.152-.304-.229-.969-.229-1.995v-5.966c0-.38-.152-.57-.456-.57-.094 0-.341.076-.76.228a11.12 11.12 0 0 1-1.88.532c-.38.095-.57.247-.57.475 0 .171.17.323.513.456.323.133.532.304.665.532.095.19.152.646.152 1.387v2.926c0 1.007-.076 1.691-.228 2.014-.114.247-.342.475-.665.665-.267.152-.4.323-.4.494 0 .285.21.418.628.418h3.648c.418 0 .627-.133.627-.418 0-.152-.133-.323-.4-.494Z"/></g></svg>