<svg xmlns="http://www.w3.org/2000/svg" width="32" height="32" viewBox="0 0 32 32"><g fill="currentColor" fill-rule="evenodd"><path fill-opacity="0.33" fill-rule="nonzero" d="M4.5 26.5 16 4.5l11.5 22z"/><path fill-rule="nonzero" d="M14.588 4.366c-.506.28-.922.703-1.196 1.219L3.86 23.535c-.78 1.468-.245 3.304 1.195 4.1.434.24.92.365 1.413.365h19.067c1.638 0 2.966-1.354 2.966-3.025 0-.503-.123-.998-.358-1.44l-9.534-17.95c-.75-1.415-2.448-1.973-3.859-1.302l-.161.083Zm2.273 2.163 9.438 17.98c.077.148.118.313.118.481 0 .558-.439 1.01-.98 1.01H6.563a.955.955 0 0 1-.466-.122 1.027 1.027 0 0 1-.394-1.37L15.139 6.53a.964.964 0 0 1 1.721 0Z"/><circle cx="16" cy="23.5" r="1.5"/><path d="m16.75 20 .638-8.504a1.392 1.392 0 1 0-2.776 0L15.25 20a.752.752 0 0 0 1.5 0Z"/></g></svg>