<svg xmlns="http://www.w3.org/2000/svg" width="32" height="32" viewBox="0 0 32 32"><g fill="currentColor" fill-rule="evenodd"><path fill-opacity="0.33" fill-rule="nonzero" d="M5 7h22v18H5z"/><path d="M22 4a1 1 0 0 1 1 1v1h3a2 2 0 0 1 2 2v16a2 2 0 0 1-2 2H6a2 2 0 0 1-2-2V8a2 2 0 0 1 2-2h3V5a1 1 0 1 1 2 0v1h10V5a1 1 0 0 1 1-1ZM9 8H6v16h20V8h-3v1a1 1 0 0 1-2 0V8H11v1a1 1 0 0 1-2 0V8Z"/><rect width="4" height="4" x="9" y="12" rx="1"/><rect width="4" height="4" x="14" y="12" rx="1"/><rect width="4" height="4" x="19" y="12" rx="1"/></g></svg>