<svg xmlns="http://www.w3.org/2000/svg" width="32" height="32" viewBox="0 0 32 32"><g fill="currentColor" fill-rule="nonzero"><circle cx="16" cy="16" r="11" fill-opacity="0.33"/><path d="M16 4c6.627 0 12 5.373 12 12s-5.373 12-12 12S4 22.627 4 16 9.373 4 16 4Zm0 12V9a1 1 0 0 1-1-1V6.05a9.936 9.936 0 0 0-3.11.83l.976 1.692a1 1 0 1 1-1.732 1l-.976-1.689c-.875.631-1.644 1.4-2.275 2.275l1.69.976a1 1 0 1 1-1 1.732l-1.692-.975A9.936 9.936 0 0 0 6.049 15H8a1 1 0 0 1 0 2l-1.95.001a9.936 9.936 0 0 0 .83 3.108l1.692-.975a1 1 0 1 1 1 1.732l-1.689.976c.631.875 1.4 1.644 2.275 2.275l.976-1.69a1 1 0 0 1 1.732 1l-.975 1.692c.964.436 2.01.723 3.109.832V24a1 1 0 0 1 2 0l.001 1.95a9.936 9.936 0 0 0 3.108-.83l-.975-1.692a1 1 0 1 1 1.732-1l.976 1.689c.875-.631 1.644-1.4 2.275-2.275l-1.69-.976a1 1 0 0 1 1-1.732l1.692.975c.436-.964.722-2.01.832-3.108L24 17a1 1 0 0 1-1-1h-7Z"/></g></svg>