<svg xmlns="http://www.w3.org/2000/svg" width="32" height="32" viewBox="0 0 32 32"><g fill="currentColor" fill-rule="evenodd"><rect width="22" height="22" x="5" y="5" fill-opacity="0.33" stroke="currentColor" stroke-linejoin="round" stroke-width="2" rx="2"/><path fill-rule="nonzero" d="M10 24V8h5.076c1.923 0 3.177.08 3.761.24.898.24 1.65.762 2.255 1.566S22 11.65 22 12.922c0 .983-.175 1.808-.524 2.478-.349.67-.792 1.195-1.33 1.577-.538.382-1.085.635-1.64.758-.755.153-1.849.23-3.28.23h-2.063V24H10Zm3.163-13.293v4.54h1.731c1.247 0 2.08-.084 2.5-.251.42-.167.75-.43.989-.786.239-.356.358-.771.358-1.244 0-.582-.168-1.062-.502-1.44a2.175 2.175 0 0 0-1.272-.71c-.378-.073-1.136-.11-2.276-.11h-1.528Z"/></g></svg>