<svg xmlns="http://www.w3.org/2000/svg" width="32" height="32" viewBox="0 0 32 32"><g fill="currentColor" fill-rule="evenodd"><path fill-opacity="0.33" stroke="currentColor" stroke-linejoin="round" stroke-width="2" d="M8.222 7.449c.018 4.733 1.433 8.504 4.242 11.314 2.81 2.81 6.582 4.224 11.314 4.242-4.296 4.296-11.26 4.296-15.556 0-4.296-4.295-4.296-11.26 0-15.556Z"/><path d="m23.713 17.187-1.462 1.024a.5.5 0 0 1-.765-.555l.522-1.707a.5.5 0 0 0-.177-.546l-1.426-1.074a.5.5 0 0 1 .293-.9l1.784-.03a.5.5 0 0 0 .464-.337l.581-1.688a.5.5 0 0 1 .946 0l.58 1.688a.5.5 0 0 0 .465.337l1.784.03a.5.5 0 0 1 .293.9l-1.426 1.074a.5.5 0 0 0-.177.546l.522 1.707a.5.5 0 0 1-.765.555l-1.462-1.024a.5.5 0 0 0-.574 0ZM16.713 10.187l-1.462 1.024a.5.5 0 0 1-.765-.555l.522-1.707a.5.5 0 0 0-.177-.546L13.405 7.33a.5.5 0 0 1 .293-.9l1.784-.03a.5.5 0 0 0 .464-.337l.581-1.688a.5.5 0 0 1 .946 0l.58 1.688a.5.5 0 0 0 .465.337l1.784.03a.5.5 0 0 1 .293.9l-1.426 1.074a.5.5 0 0 0-.177.546l.522 1.707a.5.5 0 0 1-.765.555l-1.462-1.024a.5.5 0 0 0-.574 0Z"/></g></svg>