<svg xmlns="http://www.w3.org/2000/svg" width="32" height="32" viewBox="0 0 32 32"><g fill="currentColor" fill-rule="evenodd"><g transform="translate(14 4)"><path d="M7 0a7 7 0 1 1 0 14A7 7 0 0 1 7 0Zm0 .875a6.125 6.125 0 0 0-5.927 7.673A9.638 9.638 0 0 1 8.55 1.072 6.135 6.135 0 0 0 7 .875Z"/><circle cx="7" cy="7" r="7" fill-opacity="0.33" fill-rule="nonzero"/></g><path fill-opacity="0.33" fill-rule="nonzero" d="M4.715 27.971 8 26l10-9-3-3-9 10-1.971 3.285a.5.5 0 0 0 .686.686Z"/><path fill-opacity="0.33" fill-rule="nonzero" d="M4.715 27.971 8 26l10-9-3-3-9 10-1.971 3.285a.5.5 0 0 0 .686.686Z"/></g></svg>