<svg xmlns="http://www.w3.org/2000/svg" width="32" height="32" viewBox="0 0 32 32"><g fill="currentColor" fill-rule="evenodd"><g transform="translate(11 4)"><path d="M5 0a5 5 0 1 1 0 10A5 5 0 0 1 5 0Zm0 .625a4.375 4.375 0 0 0-4.234 5.48A6.884 6.884 0 0 1 6.106.767 4.382 4.382 0 0 0 5 .625Z"/><circle cx="5" cy="5" r="5" fill-opacity="0.33" fill-rule="nonzero"/></g><path fill-opacity="0.33" fill-rule="nonzero" d="M4.715 20.971 6.667 19.8 14 13.2 11.8 11l-6.6 7.333-1.171 1.952a.5.5 0 0 0 .686.686Z"/><path fill-opacity="0.33" fill-rule="nonzero" d="M4.715 20.971 6.667 19.8 14 13.2 11.8 11l-6.6 7.333-1.171 1.952a.5.5 0 0 0 .686.686Z"/><g transform="translate(18 12)"><path d="M5 0a5 5 0 1 1 0 10A5 5 0 0 1 5 0Zm0 .625a4.375 4.375 0 0 0-4.234 5.48A6.884 6.884 0 0 1 6.106.767 4.382 4.382 0 0 0 5 .625Z"/><circle cx="5" cy="5" r="5" fill-opacity="0.33" fill-rule="nonzero"/></g><path fill-opacity="0.33" fill-rule="nonzero" d="m11.715 28.971 1.952-1.171L21 21.2 18.8 19l-6.6 7.333-1.171 1.952a.5.5 0 0 0 .686.686Z"/><path fill-opacity="0.33" fill-rule="nonzero" d="m11.715 28.971 1.952-1.171L21 21.2 18.8 19l-6.6 7.333-1.171 1.952a.5.5 0 0 0 .686.686Z"/></g></svg>