<svg xmlns="http://www.w3.org/2000/svg" width="32" height="32" viewBox="0 0 32 32"><g fill="currentColor" fill-rule="evenodd"><rect width="20" height="4" x="4" y="4" rx="2"/><rect width="16" height="4" x="4" y="10.667" rx="2"/><rect width="12" height="4" x="4" y="17.333" rx="2"/><rect width="8" height="4" x="4" y="24" rx="2"/><path fill-opacity="0.33" fill-rule="nonzero" d="M24.64 12.794a1 1 0 0 1 .128.128l2.865 3.438a1 1 0 0 1-.768 1.64l-.866-.001L26 27a1 1 0 0 1-1 1h-2a1 1 0 0 1-1-1l-.001-9.001-.864.001a1 1 0 0 1-.768-1.64l2.865-3.438a1 1 0 0 1 1.408-.128Z"/></g></svg>