<svg xmlns="http://www.w3.org/2000/svg" width="32" height="32" viewBox="0 0 32 32"><g fill="currentColor" fill-rule="evenodd"><path fill-opacity="0.33" fill-rule="nonzero" d="M17.647 4.838c.22.805.309 1.375.321 1.903.959.47 1.83.811 2.643 1.283.984-.402 1.255-.547 1.657-.805l.088-.058 1.418.941 1.244 1.242c-.405.696-.734 1.143-1.08 1.506.347 1.016.722 1.873.964 2.777 1.071.418 1.34.512 1.838.621l.111.024.299 3.374c-.728.207-1.272.3-1.774.323-.583.96-.924 1.832-1.396 2.642.424 1.007.557 1.273.836 1.703l.062.095-2.145 2.651c-.731-.417-1.196-.757-1.577-1.12-1.006.347-1.862.722-2.772.964-.41 1.014-.504 1.295-.612 1.798l-.023.11-3.395.351c-.22-.82-.306-1.386-.319-1.904-.965-.47-1.834-.808-2.644-1.277-.982.407-1.253.55-1.654.807l-.088.057-1.427-.94-1.233-1.237a6.833 6.833 0 0 1 1.026-1.466c-.301-1.058-.677-1.914-.918-2.82-1.062-.419-1.334-.514-1.832-.623l-.11-.024-.31-3.379c.763-.209 1.316-.299 1.82-.317.547-.97.886-1.842 1.355-2.65-.431-1.007-.562-1.273-.84-1.704l-.062-.095 2.154-2.65c.734.42 1.196.759 1.575 1.12 1.01-.347 1.867-.722 2.773-.964.409-1.014.503-1.295.611-1.797l.024-.112 3.392-.35ZM16 11a5 5 0 1 0 0 10 5 5 0 0 0 0-10Z"/><path fill-rule="nonzero" d="M17.559 4.001h-3.115c-.46 0-.865.298-.996.744l-.09.314a7.275 7.275 0 0 0-.185.952l-.028.27-.109.032c-.62.19-1.217.437-1.788.74l-.097.054-.21-.17a7.468 7.468 0 0 0-1.105-.708 1.05 1.05 0 0 0-1.22.184L6.413 8.616A1.043 1.043 0 0 0 6.22 9.82l.163.296c.168.29.351.563.55.819l.174.214-.053.098c-.305.571-.552 1.17-.741 1.79l-.032.111-.017.001c-.501.046-1.013.147-1.526.303-.441.13-.738.54-.738.994v3.11c0 .46.298.864.744.995l.301.088c.303.08.608.142.914.183l.323.034.031.111c.19.62.437 1.217.74 1.788l.054.095-.164.202c-.263.339-.5.71-.713 1.11-.211.396-.138.877.16 1.199l1.121 1.127 1.107 1.101c.317.318.803.391 1.203.191l.296-.162c.29-.168.563-.35.819-.55l.215-.175.098.055a9.98 9.98 0 0 0 1.788.74l.11.031.027.263c.053.424.146.852.276 1.282.13.44.54.736.994.736h3.115c.46 0 .865-.298.996-.743l.09-.315c.084-.315.145-.633.185-.951l.027-.272.112-.031a9.95 9.95 0 0 0 1.79-.741l.093-.054.212.172c.34.263.708.5 1.102.707.393.21.874.137 1.196-.16l1.124-1.123 1.1-1.105c.318-.317.392-.804.192-1.203l-.165-.296a7.566 7.566 0 0 0-.55-.818l-.173-.213.057-.1c.306-.571.554-1.17.742-1.788l.03-.105h.015a7.415 7.415 0 0 0 1.534-.309c.434-.127.73-.538.73-.992v-3.11c.026-.441-.292-.863-.743-.996l-.301-.086a7.32 7.32 0 0 0-.908-.18l-.33-.036-.03-.108a10.092 10.092 0 0 0-.74-1.789l-.057-.1.17-.208c.262-.338.5-.708.71-1.104a1.05 1.05 0 0 0-.184-1.223l-1.099-1.099-1.098-1.102a1.044 1.044 0 0 0-1.206-.194l-.296.165c-.29.17-.563.352-.818.55l-.214.173-.101-.057a10.05 10.05 0 0 0-1.789-.743l-.107-.031-.027-.271a7.439 7.439 0 0 0-.278-1.279 1.034 1.034 0 0 0-.993-.73Zm-.683 1.922c.071.384.098.702.093 1.013l-.012.859.838.187c.924.207 1.8.571 2.604 1.083l.723.46.594-.606c.327-.308.534-.478.729-.617l.693.578.61.61a4.97 4.97 0 0 1-.654.79l-.617.599.46.726c.51.806.872 1.681 1.08 2.61l.184.826h.93c.416.016.667.041.887.08l.06 1.757a4.962 4.962 0 0 1-.952.096h-.928l-.182.83a7.968 7.968 0 0 1-1.077 2.592l-.463.724.608.596c.305.324.475.53.613.722l-1.188 1.308a4.969 4.969 0 0 1-.784-.65l-.6-.619-.728.465a8.059 8.059 0 0 1-2.6 1.077l-.84.187.012.851a6.584 6.584 0 0 1-.075.94l-1.765.081c-.073-.39-.1-.705-.095-1.012l.012-.86-.84-.187a8.102 8.102 0 0 1-2.602-1.078l-.727-.462-.593.611c-.326.309-.53.479-.725.616l-.701-.579-.61-.613c.205-.304.42-.562.653-.785l.625-.6-.465-.73a8.136 8.136 0 0 1-1.079-2.603l-.185-.826h-.916a6.625 6.625 0 0 1-.896-.082l-.065-1.757c.354-.067.652-.095.939-.095h.939l.184-.827a8.118 8.118 0 0 1 1.079-2.606l.462-.727-.612-.594a6.53 6.53 0 0 1-.612-.717l1.194-1.311c.326.223.569.428.785.65l.6.619.726-.462c.8-.509 1.674-.87 2.604-1.079l.838-.187-.012-.851c.012-.442.036-.706.075-.939l1.767-.082Z"/><path d="M16 10.001a6 6 0 1 1 0 12 6 6 0 0 1 0-12Zm0 2a4 4 0 1 0 0 8 4 4 0 0 0 0-8Z"/></g></svg>