<svg xmlns="http://www.w3.org/2000/svg" width="32" height="32" viewBox="0 0 32 32"><g fill="none" fill-rule="evenodd"><g fill="currentColor" fill-rule="nonzero" transform="matrix(-1 0 0 1 27.95 4)"><path fill-opacity="0.33" d="m22.95 20.45-7-6.5h-2l-.5 2.5 6.5 6.5z"/><path fill-opacity="0.33" d="m22.95 20.45-7-6.5h-2l-.5 2.5 6.5 6.5z"/><circle cx="7.95" cy="7.95" r="7" fill-opacity="0.33"/><path d="M8.173 0c2.257 0 4.3.915 5.78 2.394a8.148 8.148 0 0 1 2.393 5.78 8.135 8.135 0 0 1-1.295 4.416h1.095c.23 0 .452.075.632.213l.103.09 6.715 6.715a1.036 1.036 0 0 1 .093 1.363l-.093.107-2.518 2.518a1.036 1.036 0 0 1-1.364.093l-.106-.093-6.714-6.715a1.04 1.04 0 0 1-.296-.598l-.009-.137.001-1.095a8.135 8.135 0 0 1-4.417 1.295c-2.257 0-4.3-.914-5.78-2.393A8.148 8.148 0 0 1 0 8.173c0-2.257.915-4.3 2.394-5.78A8.148 8.148 0 0 1 8.174 0Zm7.277 14.45h-1v1l5.893 5.94 1.047-1.047-5.94-5.893ZM8.173 2.079a6.076 6.076 0 0 0-4.31 1.785 6.076 6.076 0 0 0-1.784 4.31c0 1.682.682 3.206 1.785 4.309a6.076 6.076 0 0 0 4.31 1.785 6.076 6.076 0 0 0 4.309-1.785 6.076 6.076 0 0 0 1.785-4.31 6.076 6.076 0 0 0-1.785-4.31 6.076 6.076 0 0 0-4.31-1.784Z"/></g><circle cx="20" cy="16" r="1" fill="currentColor"/><path stroke="currentColor" stroke-linecap="round" stroke-width="2" d="M20 13.5c0-1.5 2-1.5 2-3.5s-3-3-4-.5"/></g></svg>