<svg xmlns="http://www.w3.org/2000/svg" width="32" height="32" viewBox="0 0 32 32"><g fill="currentColor" fill-rule="evenodd"><g transform="translate(4 5)"><circle cx="7" cy="4.5" r="3.5" fill-opacity="0.33" stroke="currentColor" stroke-width="2"/><path fill-opacity="0.33" d="M1 14.25c2 .5 4 .75 6 .75.79 0 1.581-.04 2.372-.117-.754-1.494-.335-4.613.024-6.267C8.697 8.372 7.899 8.25 7 8.25c-3.636 0-5.636 2-6 6Z"/><path fill-rule="nonzero" d="M7 7.25a9.13 9.13 0 0 1 1.733.157 4.486 4.486 0 0 0-1.065 1.871 6.485 6.485 0 0 0-.42-.025L7 9.25c-2.763 0-4.325 1.263-4.856 4.021l-.038.207.417.086c1.28.25 2.56.392 3.838.427L7 14c.687 0 1.374-.03 2.06-.092.271.233.571.436.894.6-.983.273-1.786.769-2.408 1.485L7 16c-2.082 0-4.164-.26-6.242-.78a1 1 0 0 1-.754-1.06C.413 9.662 2.826 7.25 7 7.25Z"/></g><g transform="translate(16.5 5)"><circle cx="4.5" cy="4.5" r="3.5" fill-opacity="0.33" stroke="currentColor" stroke-width="2"/><path fill-opacity="0.33" d="M2.522 14.918c.66.055 1.319.082 1.978.082 2 0 4-.25 6-.75-.364-4-2.364-6-6-6-.855 0-1.62.11-2.293.332.002.922.482 4.104.315 6.336Z"/><path fill-rule="nonzero" d="M4.5 7.25c4.174 0 6.587 2.413 6.996 6.91a1 1 0 0 1-.753 1.06c-2.08.52-4.16.78-6.243.78l-.546-.007c-.622-.716-1.425-1.212-2.408-1.486.322-.163.623-.366.894-.6.474.043.947.071 1.42.084L4.5 14a23.762 23.762 0 0 0 4.477-.436l.416-.086-.037-.207c-.36-1.868-1.191-3.05-2.549-3.618-.587-.246-1.272-.377-2.06-.4L4.5 9.25a8.08 8.08 0 0 0-.67.027 4.481 4.481 0 0 0-1.061-1.87A9.062 9.062 0 0 1 4.5 7.25Z"/></g><g fill-opacity="0.33" stroke="currentColor" stroke-width="2" transform="translate(10 11)"><circle cx="6" cy="4.5" r="3.5"/><path stroke-linejoin="round" d="M0 14.25c2 .5 4 .75 6 .75s4-.25 6-.75c-.364-4-2.364-6-6-6s-5.636 2-6 6Z"/></g></g></svg>