<svg xmlns="http://www.w3.org/2000/svg" width="32" height="32" viewBox="0 0 32 32"><g fill="currentColor" fill-rule="evenodd"><path d="M14 26v-8h-1.586a1 1 0 0 1-.707-1.707l3.586-3.586a1 1 0 0 1 1.414 0l3.586 3.586A1 1 0 0 1 19.586 18H18v8a1 1 0 0 1-1 1h-2a1 1 0 0 1-1-1Z"/><path fill-opacity="0.33" stroke="currentColor" stroke-width="2" d="M19.5 7c1.506 0 2.87.605 3.863 1.585a5.483 5.483 0 0 1 1.603 4.531 3.99 3.99 0 0 1 2.384 1.697c.411.628.65 1.38.65 2.187a3.986 3.986 0 0 1-1.11 2.766 3.987 3.987 0 0 1-2.696 1.23L8.5 21a3.489 3.489 0 0 1-2.475-1.025A3.489 3.489 0 0 1 5 17.5c0-.752.237-1.449.64-2.019a3.51 3.51 0 0 1 2.391-1.45 4.499 4.499 0 0 1 6.775-4.396A5.486 5.486 0 0 1 19.5 7Z"/></g></svg>